%TF.GenerationSoftware,KiCad,Pcbnew,9.0.2+1*%
%TF.CreationDate,2025-05-31T23:41:08+01:00*%
%TF.ProjectId,OBC,4f42432e-6b69-4636-9164-5f7063625858,rev?*%
%TF.SameCoordinates,Original*%
%TF.FileFunction,Drillmap*%
%TF.FilePolarity,Positive*%
%FSLAX45Y45*%
G04 Gerber Fmt 4.5, Leading zero omitted, Abs format (unit mm)*
G04 Created by KiCad (PCBNEW 9.0.2+1) date 2025-05-31 23:41:08*
%MOMM*%
%LPD*%
G01*
G04 APERTURE LIST*
%ADD10C,0.050000*%
%ADD11C,0.200000*%
%ADD12C,0.100000*%
%ADD13C,0.320000*%
G04 APERTURE END LIST*
D10*
X10338000Y-10181000D02*
X19698000Y-10181000D01*
X10018000Y-7001000D02*
X10018000Y-9861000D01*
X19698000Y-6681000D02*
G75*
G02*
X20018000Y-7001000I0J-320000D01*
G01*
X20018000Y-7001000D02*
X20018000Y-9861000D01*
X20018000Y-9861000D02*
G75*
G02*
X19698000Y-10181000I-320000J0D01*
G01*
X10018000Y-7001000D02*
G75*
G02*
X10338000Y-6681000I320000J0D01*
G01*
X10338000Y-10181000D02*
G75*
G02*
X10018000Y-9861000I0J320000D01*
G01*
X19698000Y-6681000D02*
X10338000Y-6681000D01*
D11*
D12*
X16158925Y-7157250D02*
X16218925Y-7217250D01*
X16218925Y-7157250D02*
X16158925Y-7217250D01*
X16820425Y-7187250D02*
G75*
G02*
X16757425Y-7187250I-31500J0D01*
G01*
X16757425Y-7187250D02*
G75*
G02*
X16820425Y-7187250I31500J0D01*
G01*
D13*
X10338000Y-6841000D02*
X10338000Y-7161000D01*
X10178000Y-7001000D02*
X10498000Y-7001000D01*
X10338000Y-9701000D02*
X10338000Y-10021000D01*
X10178000Y-9861000D02*
X10498000Y-9861000D01*
X19698000Y-6841000D02*
X19698000Y-7161000D01*
X19538000Y-7001000D02*
X19858000Y-7001000D01*
X19698000Y-9701000D02*
X19698000Y-10021000D01*
X19538000Y-9861000D02*
X19858000Y-9861000D01*
D11*
X10276277Y-10494984D02*
X10276277Y-10294984D01*
X10276277Y-10294984D02*
X10323896Y-10294984D01*
X10323896Y-10294984D02*
X10352467Y-10304508D01*
X10352467Y-10304508D02*
X10371515Y-10323555D01*
X10371515Y-10323555D02*
X10381039Y-10342603D01*
X10381039Y-10342603D02*
X10390563Y-10380698D01*
X10390563Y-10380698D02*
X10390563Y-10409270D01*
X10390563Y-10409270D02*
X10381039Y-10447365D01*
X10381039Y-10447365D02*
X10371515Y-10466412D01*
X10371515Y-10466412D02*
X10352467Y-10485460D01*
X10352467Y-10485460D02*
X10323896Y-10494984D01*
X10323896Y-10494984D02*
X10276277Y-10494984D01*
X10476277Y-10494984D02*
X10476277Y-10361650D01*
X10476277Y-10399746D02*
X10485801Y-10380698D01*
X10485801Y-10380698D02*
X10495324Y-10371174D01*
X10495324Y-10371174D02*
X10514372Y-10361650D01*
X10514372Y-10361650D02*
X10533420Y-10361650D01*
X10600086Y-10494984D02*
X10600086Y-10361650D01*
X10600086Y-10294984D02*
X10590563Y-10304508D01*
X10590563Y-10304508D02*
X10600086Y-10314031D01*
X10600086Y-10314031D02*
X10609610Y-10304508D01*
X10609610Y-10304508D02*
X10600086Y-10294984D01*
X10600086Y-10294984D02*
X10600086Y-10314031D01*
X10723896Y-10494984D02*
X10704848Y-10485460D01*
X10704848Y-10485460D02*
X10695324Y-10466412D01*
X10695324Y-10466412D02*
X10695324Y-10294984D01*
X10828658Y-10494984D02*
X10809610Y-10485460D01*
X10809610Y-10485460D02*
X10800086Y-10466412D01*
X10800086Y-10466412D02*
X10800086Y-10294984D01*
X11057229Y-10494984D02*
X11057229Y-10294984D01*
X11057229Y-10294984D02*
X11123896Y-10437841D01*
X11123896Y-10437841D02*
X11190562Y-10294984D01*
X11190562Y-10294984D02*
X11190562Y-10494984D01*
X11371515Y-10494984D02*
X11371515Y-10390222D01*
X11371515Y-10390222D02*
X11361991Y-10371174D01*
X11361991Y-10371174D02*
X11342943Y-10361650D01*
X11342943Y-10361650D02*
X11304848Y-10361650D01*
X11304848Y-10361650D02*
X11285801Y-10371174D01*
X11371515Y-10485460D02*
X11352467Y-10494984D01*
X11352467Y-10494984D02*
X11304848Y-10494984D01*
X11304848Y-10494984D02*
X11285801Y-10485460D01*
X11285801Y-10485460D02*
X11276277Y-10466412D01*
X11276277Y-10466412D02*
X11276277Y-10447365D01*
X11276277Y-10447365D02*
X11285801Y-10428317D01*
X11285801Y-10428317D02*
X11304848Y-10418793D01*
X11304848Y-10418793D02*
X11352467Y-10418793D01*
X11352467Y-10418793D02*
X11371515Y-10409270D01*
X11466753Y-10361650D02*
X11466753Y-10561650D01*
X11466753Y-10371174D02*
X11485801Y-10361650D01*
X11485801Y-10361650D02*
X11523896Y-10361650D01*
X11523896Y-10361650D02*
X11542943Y-10371174D01*
X11542943Y-10371174D02*
X11552467Y-10380698D01*
X11552467Y-10380698D02*
X11561991Y-10399746D01*
X11561991Y-10399746D02*
X11561991Y-10456889D01*
X11561991Y-10456889D02*
X11552467Y-10475936D01*
X11552467Y-10475936D02*
X11542943Y-10485460D01*
X11542943Y-10485460D02*
X11523896Y-10494984D01*
X11523896Y-10494984D02*
X11485801Y-10494984D01*
X11485801Y-10494984D02*
X11466753Y-10485460D01*
X11647705Y-10475936D02*
X11657229Y-10485460D01*
X11657229Y-10485460D02*
X11647705Y-10494984D01*
X11647705Y-10494984D02*
X11638182Y-10485460D01*
X11638182Y-10485460D02*
X11647705Y-10475936D01*
X11647705Y-10475936D02*
X11647705Y-10494984D01*
X11647705Y-10371174D02*
X11657229Y-10380698D01*
X11657229Y-10380698D02*
X11647705Y-10390222D01*
X11647705Y-10390222D02*
X11638182Y-10380698D01*
X11638182Y-10380698D02*
X11647705Y-10371174D01*
X11647705Y-10371174D02*
X11647705Y-10390222D01*
D12*
X9955500Y-10793500D02*
X10015500Y-10853500D01*
X10015500Y-10793500D02*
X9955500Y-10853500D01*
D11*
X10314372Y-10714984D02*
X10333420Y-10714984D01*
X10333420Y-10714984D02*
X10352467Y-10724508D01*
X10352467Y-10724508D02*
X10361991Y-10734031D01*
X10361991Y-10734031D02*
X10371515Y-10753079D01*
X10371515Y-10753079D02*
X10381039Y-10791174D01*
X10381039Y-10791174D02*
X10381039Y-10838793D01*
X10381039Y-10838793D02*
X10371515Y-10876889D01*
X10371515Y-10876889D02*
X10361991Y-10895936D01*
X10361991Y-10895936D02*
X10352467Y-10905460D01*
X10352467Y-10905460D02*
X10333420Y-10914984D01*
X10333420Y-10914984D02*
X10314372Y-10914984D01*
X10314372Y-10914984D02*
X10295324Y-10905460D01*
X10295324Y-10905460D02*
X10285801Y-10895936D01*
X10285801Y-10895936D02*
X10276277Y-10876889D01*
X10276277Y-10876889D02*
X10266753Y-10838793D01*
X10266753Y-10838793D02*
X10266753Y-10791174D01*
X10266753Y-10791174D02*
X10276277Y-10753079D01*
X10276277Y-10753079D02*
X10285801Y-10734031D01*
X10285801Y-10734031D02*
X10295324Y-10724508D01*
X10295324Y-10724508D02*
X10314372Y-10714984D01*
X10466753Y-10895936D02*
X10476277Y-10905460D01*
X10476277Y-10905460D02*
X10466753Y-10914984D01*
X10466753Y-10914984D02*
X10457229Y-10905460D01*
X10457229Y-10905460D02*
X10466753Y-10895936D01*
X10466753Y-10895936D02*
X10466753Y-10914984D01*
X10647705Y-10714984D02*
X10609610Y-10714984D01*
X10609610Y-10714984D02*
X10590563Y-10724508D01*
X10590563Y-10724508D02*
X10581039Y-10734031D01*
X10581039Y-10734031D02*
X10561991Y-10762603D01*
X10561991Y-10762603D02*
X10552467Y-10800698D01*
X10552467Y-10800698D02*
X10552467Y-10876889D01*
X10552467Y-10876889D02*
X10561991Y-10895936D01*
X10561991Y-10895936D02*
X10571515Y-10905460D01*
X10571515Y-10905460D02*
X10590563Y-10914984D01*
X10590563Y-10914984D02*
X10628658Y-10914984D01*
X10628658Y-10914984D02*
X10647705Y-10905460D01*
X10647705Y-10905460D02*
X10657229Y-10895936D01*
X10657229Y-10895936D02*
X10666753Y-10876889D01*
X10666753Y-10876889D02*
X10666753Y-10829270D01*
X10666753Y-10829270D02*
X10657229Y-10810222D01*
X10657229Y-10810222D02*
X10647705Y-10800698D01*
X10647705Y-10800698D02*
X10628658Y-10791174D01*
X10628658Y-10791174D02*
X10590563Y-10791174D01*
X10590563Y-10791174D02*
X10571515Y-10800698D01*
X10571515Y-10800698D02*
X10561991Y-10810222D01*
X10561991Y-10810222D02*
X10552467Y-10829270D01*
X10790563Y-10714984D02*
X10809610Y-10714984D01*
X10809610Y-10714984D02*
X10828658Y-10724508D01*
X10828658Y-10724508D02*
X10838182Y-10734031D01*
X10838182Y-10734031D02*
X10847705Y-10753079D01*
X10847705Y-10753079D02*
X10857229Y-10791174D01*
X10857229Y-10791174D02*
X10857229Y-10838793D01*
X10857229Y-10838793D02*
X10847705Y-10876889D01*
X10847705Y-10876889D02*
X10838182Y-10895936D01*
X10838182Y-10895936D02*
X10828658Y-10905460D01*
X10828658Y-10905460D02*
X10809610Y-10914984D01*
X10809610Y-10914984D02*
X10790563Y-10914984D01*
X10790563Y-10914984D02*
X10771515Y-10905460D01*
X10771515Y-10905460D02*
X10761991Y-10895936D01*
X10761991Y-10895936D02*
X10752467Y-10876889D01*
X10752467Y-10876889D02*
X10742944Y-10838793D01*
X10742944Y-10838793D02*
X10742944Y-10791174D01*
X10742944Y-10791174D02*
X10752467Y-10753079D01*
X10752467Y-10753079D02*
X10761991Y-10734031D01*
X10761991Y-10734031D02*
X10771515Y-10724508D01*
X10771515Y-10724508D02*
X10790563Y-10714984D01*
X10981039Y-10714984D02*
X11000086Y-10714984D01*
X11000086Y-10714984D02*
X11019134Y-10724508D01*
X11019134Y-10724508D02*
X11028658Y-10734031D01*
X11028658Y-10734031D02*
X11038182Y-10753079D01*
X11038182Y-10753079D02*
X11047705Y-10791174D01*
X11047705Y-10791174D02*
X11047705Y-10838793D01*
X11047705Y-10838793D02*
X11038182Y-10876889D01*
X11038182Y-10876889D02*
X11028658Y-10895936D01*
X11028658Y-10895936D02*
X11019134Y-10905460D01*
X11019134Y-10905460D02*
X11000086Y-10914984D01*
X11000086Y-10914984D02*
X10981039Y-10914984D01*
X10981039Y-10914984D02*
X10961991Y-10905460D01*
X10961991Y-10905460D02*
X10952467Y-10895936D01*
X10952467Y-10895936D02*
X10942944Y-10876889D01*
X10942944Y-10876889D02*
X10933420Y-10838793D01*
X10933420Y-10838793D02*
X10933420Y-10791174D01*
X10933420Y-10791174D02*
X10942944Y-10753079D01*
X10942944Y-10753079D02*
X10952467Y-10734031D01*
X10952467Y-10734031D02*
X10961991Y-10724508D01*
X10961991Y-10724508D02*
X10981039Y-10714984D01*
X11133420Y-10914984D02*
X11133420Y-10781650D01*
X11133420Y-10800698D02*
X11142944Y-10791174D01*
X11142944Y-10791174D02*
X11161991Y-10781650D01*
X11161991Y-10781650D02*
X11190563Y-10781650D01*
X11190563Y-10781650D02*
X11209610Y-10791174D01*
X11209610Y-10791174D02*
X11219134Y-10810222D01*
X11219134Y-10810222D02*
X11219134Y-10914984D01*
X11219134Y-10810222D02*
X11228658Y-10791174D01*
X11228658Y-10791174D02*
X11247705Y-10781650D01*
X11247705Y-10781650D02*
X11276277Y-10781650D01*
X11276277Y-10781650D02*
X11295324Y-10791174D01*
X11295324Y-10791174D02*
X11304848Y-10810222D01*
X11304848Y-10810222D02*
X11304848Y-10914984D01*
X11400086Y-10914984D02*
X11400086Y-10781650D01*
X11400086Y-10800698D02*
X11409610Y-10791174D01*
X11409610Y-10791174D02*
X11428658Y-10781650D01*
X11428658Y-10781650D02*
X11457229Y-10781650D01*
X11457229Y-10781650D02*
X11476277Y-10791174D01*
X11476277Y-10791174D02*
X11485801Y-10810222D01*
X11485801Y-10810222D02*
X11485801Y-10914984D01*
X11485801Y-10810222D02*
X11495324Y-10791174D01*
X11495324Y-10791174D02*
X11514372Y-10781650D01*
X11514372Y-10781650D02*
X11542943Y-10781650D01*
X11542943Y-10781650D02*
X11561991Y-10791174D01*
X11561991Y-10791174D02*
X11571515Y-10810222D01*
X11571515Y-10810222D02*
X11571515Y-10914984D01*
X11961991Y-10705460D02*
X11790563Y-10962603D01*
X12219134Y-10714984D02*
X12238182Y-10714984D01*
X12238182Y-10714984D02*
X12257229Y-10724508D01*
X12257229Y-10724508D02*
X12266753Y-10734031D01*
X12266753Y-10734031D02*
X12276277Y-10753079D01*
X12276277Y-10753079D02*
X12285801Y-10791174D01*
X12285801Y-10791174D02*
X12285801Y-10838793D01*
X12285801Y-10838793D02*
X12276277Y-10876889D01*
X12276277Y-10876889D02*
X12266753Y-10895936D01*
X12266753Y-10895936D02*
X12257229Y-10905460D01*
X12257229Y-10905460D02*
X12238182Y-10914984D01*
X12238182Y-10914984D02*
X12219134Y-10914984D01*
X12219134Y-10914984D02*
X12200086Y-10905460D01*
X12200086Y-10905460D02*
X12190563Y-10895936D01*
X12190563Y-10895936D02*
X12181039Y-10876889D01*
X12181039Y-10876889D02*
X12171515Y-10838793D01*
X12171515Y-10838793D02*
X12171515Y-10791174D01*
X12171515Y-10791174D02*
X12181039Y-10753079D01*
X12181039Y-10753079D02*
X12190563Y-10734031D01*
X12190563Y-10734031D02*
X12200086Y-10724508D01*
X12200086Y-10724508D02*
X12219134Y-10714984D01*
X12371515Y-10895936D02*
X12381039Y-10905460D01*
X12381039Y-10905460D02*
X12371515Y-10914984D01*
X12371515Y-10914984D02*
X12361991Y-10905460D01*
X12361991Y-10905460D02*
X12371515Y-10895936D01*
X12371515Y-10895936D02*
X12371515Y-10914984D01*
X12504848Y-10714984D02*
X12523896Y-10714984D01*
X12523896Y-10714984D02*
X12542944Y-10724508D01*
X12542944Y-10724508D02*
X12552467Y-10734031D01*
X12552467Y-10734031D02*
X12561991Y-10753079D01*
X12561991Y-10753079D02*
X12571515Y-10791174D01*
X12571515Y-10791174D02*
X12571515Y-10838793D01*
X12571515Y-10838793D02*
X12561991Y-10876889D01*
X12561991Y-10876889D02*
X12552467Y-10895936D01*
X12552467Y-10895936D02*
X12542944Y-10905460D01*
X12542944Y-10905460D02*
X12523896Y-10914984D01*
X12523896Y-10914984D02*
X12504848Y-10914984D01*
X12504848Y-10914984D02*
X12485801Y-10905460D01*
X12485801Y-10905460D02*
X12476277Y-10895936D01*
X12476277Y-10895936D02*
X12466753Y-10876889D01*
X12466753Y-10876889D02*
X12457229Y-10838793D01*
X12457229Y-10838793D02*
X12457229Y-10791174D01*
X12457229Y-10791174D02*
X12466753Y-10753079D01*
X12466753Y-10753079D02*
X12476277Y-10734031D01*
X12476277Y-10734031D02*
X12485801Y-10724508D01*
X12485801Y-10724508D02*
X12504848Y-10714984D01*
X12647706Y-10734031D02*
X12657229Y-10724508D01*
X12657229Y-10724508D02*
X12676277Y-10714984D01*
X12676277Y-10714984D02*
X12723896Y-10714984D01*
X12723896Y-10714984D02*
X12742944Y-10724508D01*
X12742944Y-10724508D02*
X12752467Y-10734031D01*
X12752467Y-10734031D02*
X12761991Y-10753079D01*
X12761991Y-10753079D02*
X12761991Y-10772127D01*
X12761991Y-10772127D02*
X12752467Y-10800698D01*
X12752467Y-10800698D02*
X12638182Y-10914984D01*
X12638182Y-10914984D02*
X12761991Y-10914984D01*
X12828658Y-10714984D02*
X12952467Y-10714984D01*
X12952467Y-10714984D02*
X12885801Y-10791174D01*
X12885801Y-10791174D02*
X12914372Y-10791174D01*
X12914372Y-10791174D02*
X12933420Y-10800698D01*
X12933420Y-10800698D02*
X12942944Y-10810222D01*
X12942944Y-10810222D02*
X12952467Y-10829270D01*
X12952467Y-10829270D02*
X12952467Y-10876889D01*
X12952467Y-10876889D02*
X12942944Y-10895936D01*
X12942944Y-10895936D02*
X12933420Y-10905460D01*
X12933420Y-10905460D02*
X12914372Y-10914984D01*
X12914372Y-10914984D02*
X12857229Y-10914984D01*
X12857229Y-10914984D02*
X12838182Y-10905460D01*
X12838182Y-10905460D02*
X12828658Y-10895936D01*
X13123896Y-10714984D02*
X13085801Y-10714984D01*
X13085801Y-10714984D02*
X13066753Y-10724508D01*
X13066753Y-10724508D02*
X13057229Y-10734031D01*
X13057229Y-10734031D02*
X13038182Y-10762603D01*
X13038182Y-10762603D02*
X13028658Y-10800698D01*
X13028658Y-10800698D02*
X13028658Y-10876889D01*
X13028658Y-10876889D02*
X13038182Y-10895936D01*
X13038182Y-10895936D02*
X13047706Y-10905460D01*
X13047706Y-10905460D02*
X13066753Y-10914984D01*
X13066753Y-10914984D02*
X13104848Y-10914984D01*
X13104848Y-10914984D02*
X13123896Y-10905460D01*
X13123896Y-10905460D02*
X13133420Y-10895936D01*
X13133420Y-10895936D02*
X13142944Y-10876889D01*
X13142944Y-10876889D02*
X13142944Y-10829270D01*
X13142944Y-10829270D02*
X13133420Y-10810222D01*
X13133420Y-10810222D02*
X13123896Y-10800698D01*
X13123896Y-10800698D02*
X13104848Y-10791174D01*
X13104848Y-10791174D02*
X13066753Y-10791174D01*
X13066753Y-10791174D02*
X13047706Y-10800698D01*
X13047706Y-10800698D02*
X13038182Y-10810222D01*
X13038182Y-10810222D02*
X13028658Y-10829270D01*
X13219134Y-10714984D02*
X13219134Y-10753079D01*
X13295325Y-10714984D02*
X13295325Y-10753079D01*
X13590563Y-10991174D02*
X13581039Y-10981650D01*
X13581039Y-10981650D02*
X13561991Y-10953079D01*
X13561991Y-10953079D02*
X13552468Y-10934031D01*
X13552468Y-10934031D02*
X13542944Y-10905460D01*
X13542944Y-10905460D02*
X13533420Y-10857841D01*
X13533420Y-10857841D02*
X13533420Y-10819746D01*
X13533420Y-10819746D02*
X13542944Y-10772127D01*
X13542944Y-10772127D02*
X13552468Y-10743555D01*
X13552468Y-10743555D02*
X13561991Y-10724508D01*
X13561991Y-10724508D02*
X13581039Y-10695936D01*
X13581039Y-10695936D02*
X13590563Y-10686412D01*
X13771515Y-10914984D02*
X13657229Y-10914984D01*
X13714372Y-10914984D02*
X13714372Y-10714984D01*
X13714372Y-10714984D02*
X13695325Y-10743555D01*
X13695325Y-10743555D02*
X13676277Y-10762603D01*
X13676277Y-10762603D02*
X13657229Y-10772127D01*
X14009610Y-10914984D02*
X14009610Y-10714984D01*
X14095325Y-10914984D02*
X14095325Y-10810222D01*
X14095325Y-10810222D02*
X14085801Y-10791174D01*
X14085801Y-10791174D02*
X14066753Y-10781650D01*
X14066753Y-10781650D02*
X14038182Y-10781650D01*
X14038182Y-10781650D02*
X14019134Y-10791174D01*
X14019134Y-10791174D02*
X14009610Y-10800698D01*
X14219134Y-10914984D02*
X14200087Y-10905460D01*
X14200087Y-10905460D02*
X14190563Y-10895936D01*
X14190563Y-10895936D02*
X14181039Y-10876889D01*
X14181039Y-10876889D02*
X14181039Y-10819746D01*
X14181039Y-10819746D02*
X14190563Y-10800698D01*
X14190563Y-10800698D02*
X14200087Y-10791174D01*
X14200087Y-10791174D02*
X14219134Y-10781650D01*
X14219134Y-10781650D02*
X14247706Y-10781650D01*
X14247706Y-10781650D02*
X14266753Y-10791174D01*
X14266753Y-10791174D02*
X14276277Y-10800698D01*
X14276277Y-10800698D02*
X14285801Y-10819746D01*
X14285801Y-10819746D02*
X14285801Y-10876889D01*
X14285801Y-10876889D02*
X14276277Y-10895936D01*
X14276277Y-10895936D02*
X14266753Y-10905460D01*
X14266753Y-10905460D02*
X14247706Y-10914984D01*
X14247706Y-10914984D02*
X14219134Y-10914984D01*
X14400087Y-10914984D02*
X14381039Y-10905460D01*
X14381039Y-10905460D02*
X14371515Y-10886412D01*
X14371515Y-10886412D02*
X14371515Y-10714984D01*
X14552468Y-10905460D02*
X14533420Y-10914984D01*
X14533420Y-10914984D02*
X14495325Y-10914984D01*
X14495325Y-10914984D02*
X14476277Y-10905460D01*
X14476277Y-10905460D02*
X14466753Y-10886412D01*
X14466753Y-10886412D02*
X14466753Y-10810222D01*
X14466753Y-10810222D02*
X14476277Y-10791174D01*
X14476277Y-10791174D02*
X14495325Y-10781650D01*
X14495325Y-10781650D02*
X14533420Y-10781650D01*
X14533420Y-10781650D02*
X14552468Y-10791174D01*
X14552468Y-10791174D02*
X14561991Y-10810222D01*
X14561991Y-10810222D02*
X14561991Y-10829270D01*
X14561991Y-10829270D02*
X14466753Y-10848317D01*
X14628658Y-10991174D02*
X14638182Y-10981650D01*
X14638182Y-10981650D02*
X14657230Y-10953079D01*
X14657230Y-10953079D02*
X14666753Y-10934031D01*
X14666753Y-10934031D02*
X14676277Y-10905460D01*
X14676277Y-10905460D02*
X14685801Y-10857841D01*
X14685801Y-10857841D02*
X14685801Y-10819746D01*
X14685801Y-10819746D02*
X14676277Y-10772127D01*
X14676277Y-10772127D02*
X14666753Y-10743555D01*
X14666753Y-10743555D02*
X14657230Y-10724508D01*
X14657230Y-10724508D02*
X14638182Y-10695936D01*
X14638182Y-10695936D02*
X14628658Y-10686412D01*
X14990563Y-10991174D02*
X14981039Y-10981650D01*
X14981039Y-10981650D02*
X14961991Y-10953079D01*
X14961991Y-10953079D02*
X14952468Y-10934031D01*
X14952468Y-10934031D02*
X14942944Y-10905460D01*
X14942944Y-10905460D02*
X14933420Y-10857841D01*
X14933420Y-10857841D02*
X14933420Y-10819746D01*
X14933420Y-10819746D02*
X14942944Y-10772127D01*
X14942944Y-10772127D02*
X14952468Y-10743555D01*
X14952468Y-10743555D02*
X14961991Y-10724508D01*
X14961991Y-10724508D02*
X14981039Y-10695936D01*
X14981039Y-10695936D02*
X14990563Y-10686412D01*
X15066753Y-10781650D02*
X15066753Y-10914984D01*
X15066753Y-10800698D02*
X15076277Y-10791174D01*
X15076277Y-10791174D02*
X15095325Y-10781650D01*
X15095325Y-10781650D02*
X15123896Y-10781650D01*
X15123896Y-10781650D02*
X15142944Y-10791174D01*
X15142944Y-10791174D02*
X15152468Y-10810222D01*
X15152468Y-10810222D02*
X15152468Y-10914984D01*
X15276277Y-10914984D02*
X15257230Y-10905460D01*
X15257230Y-10905460D02*
X15247706Y-10895936D01*
X15247706Y-10895936D02*
X15238182Y-10876889D01*
X15238182Y-10876889D02*
X15238182Y-10819746D01*
X15238182Y-10819746D02*
X15247706Y-10800698D01*
X15247706Y-10800698D02*
X15257230Y-10791174D01*
X15257230Y-10791174D02*
X15276277Y-10781650D01*
X15276277Y-10781650D02*
X15304849Y-10781650D01*
X15304849Y-10781650D02*
X15323896Y-10791174D01*
X15323896Y-10791174D02*
X15333420Y-10800698D01*
X15333420Y-10800698D02*
X15342944Y-10819746D01*
X15342944Y-10819746D02*
X15342944Y-10876889D01*
X15342944Y-10876889D02*
X15333420Y-10895936D01*
X15333420Y-10895936D02*
X15323896Y-10905460D01*
X15323896Y-10905460D02*
X15304849Y-10914984D01*
X15304849Y-10914984D02*
X15276277Y-10914984D01*
X15400087Y-10781650D02*
X15476277Y-10781650D01*
X15428658Y-10714984D02*
X15428658Y-10886412D01*
X15428658Y-10886412D02*
X15438182Y-10905460D01*
X15438182Y-10905460D02*
X15457230Y-10914984D01*
X15457230Y-10914984D02*
X15476277Y-10914984D01*
X15695325Y-10781650D02*
X15695325Y-10981650D01*
X15695325Y-10791174D02*
X15714372Y-10781650D01*
X15714372Y-10781650D02*
X15752468Y-10781650D01*
X15752468Y-10781650D02*
X15771515Y-10791174D01*
X15771515Y-10791174D02*
X15781039Y-10800698D01*
X15781039Y-10800698D02*
X15790563Y-10819746D01*
X15790563Y-10819746D02*
X15790563Y-10876889D01*
X15790563Y-10876889D02*
X15781039Y-10895936D01*
X15781039Y-10895936D02*
X15771515Y-10905460D01*
X15771515Y-10905460D02*
X15752468Y-10914984D01*
X15752468Y-10914984D02*
X15714372Y-10914984D01*
X15714372Y-10914984D02*
X15695325Y-10905460D01*
X15904849Y-10914984D02*
X15885801Y-10905460D01*
X15885801Y-10905460D02*
X15876277Y-10886412D01*
X15876277Y-10886412D02*
X15876277Y-10714984D01*
X16066753Y-10914984D02*
X16066753Y-10810222D01*
X16066753Y-10810222D02*
X16057230Y-10791174D01*
X16057230Y-10791174D02*
X16038182Y-10781650D01*
X16038182Y-10781650D02*
X16000087Y-10781650D01*
X16000087Y-10781650D02*
X15981039Y-10791174D01*
X16066753Y-10905460D02*
X16047706Y-10914984D01*
X16047706Y-10914984D02*
X16000087Y-10914984D01*
X16000087Y-10914984D02*
X15981039Y-10905460D01*
X15981039Y-10905460D02*
X15971515Y-10886412D01*
X15971515Y-10886412D02*
X15971515Y-10867365D01*
X15971515Y-10867365D02*
X15981039Y-10848317D01*
X15981039Y-10848317D02*
X16000087Y-10838793D01*
X16000087Y-10838793D02*
X16047706Y-10838793D01*
X16047706Y-10838793D02*
X16066753Y-10829270D01*
X16133420Y-10781650D02*
X16209611Y-10781650D01*
X16161992Y-10714984D02*
X16161992Y-10886412D01*
X16161992Y-10886412D02*
X16171515Y-10905460D01*
X16171515Y-10905460D02*
X16190563Y-10914984D01*
X16190563Y-10914984D02*
X16209611Y-10914984D01*
X16352468Y-10905460D02*
X16333420Y-10914984D01*
X16333420Y-10914984D02*
X16295325Y-10914984D01*
X16295325Y-10914984D02*
X16276277Y-10905460D01*
X16276277Y-10905460D02*
X16266753Y-10886412D01*
X16266753Y-10886412D02*
X16266753Y-10810222D01*
X16266753Y-10810222D02*
X16276277Y-10791174D01*
X16276277Y-10791174D02*
X16295325Y-10781650D01*
X16295325Y-10781650D02*
X16333420Y-10781650D01*
X16333420Y-10781650D02*
X16352468Y-10791174D01*
X16352468Y-10791174D02*
X16361992Y-10810222D01*
X16361992Y-10810222D02*
X16361992Y-10829270D01*
X16361992Y-10829270D02*
X16266753Y-10848317D01*
X16533420Y-10914984D02*
X16533420Y-10714984D01*
X16533420Y-10905460D02*
X16514373Y-10914984D01*
X16514373Y-10914984D02*
X16476277Y-10914984D01*
X16476277Y-10914984D02*
X16457230Y-10905460D01*
X16457230Y-10905460D02*
X16447706Y-10895936D01*
X16447706Y-10895936D02*
X16438182Y-10876889D01*
X16438182Y-10876889D02*
X16438182Y-10819746D01*
X16438182Y-10819746D02*
X16447706Y-10800698D01*
X16447706Y-10800698D02*
X16457230Y-10791174D01*
X16457230Y-10791174D02*
X16476277Y-10781650D01*
X16476277Y-10781650D02*
X16514373Y-10781650D01*
X16514373Y-10781650D02*
X16533420Y-10791174D01*
X16609611Y-10991174D02*
X16619134Y-10981650D01*
X16619134Y-10981650D02*
X16638182Y-10953079D01*
X16638182Y-10953079D02*
X16647706Y-10934031D01*
X16647706Y-10934031D02*
X16657230Y-10905460D01*
X16657230Y-10905460D02*
X16666753Y-10857841D01*
X16666753Y-10857841D02*
X16666753Y-10819746D01*
X16666753Y-10819746D02*
X16657230Y-10772127D01*
X16657230Y-10772127D02*
X16647706Y-10743555D01*
X16647706Y-10743555D02*
X16638182Y-10724508D01*
X16638182Y-10724508D02*
X16619134Y-10695936D01*
X16619134Y-10695936D02*
X16609611Y-10686412D01*
D12*
X10015500Y-11087500D02*
G75*
G02*
X9952500Y-11087500I-31500J0D01*
G01*
X9952500Y-11087500D02*
G75*
G02*
X10015500Y-11087500I31500J0D01*
G01*
D11*
X10314372Y-10978984D02*
X10333420Y-10978984D01*
X10333420Y-10978984D02*
X10352467Y-10988508D01*
X10352467Y-10988508D02*
X10361991Y-10998031D01*
X10361991Y-10998031D02*
X10371515Y-11017079D01*
X10371515Y-11017079D02*
X10381039Y-11055174D01*
X10381039Y-11055174D02*
X10381039Y-11102793D01*
X10381039Y-11102793D02*
X10371515Y-11140889D01*
X10371515Y-11140889D02*
X10361991Y-11159936D01*
X10361991Y-11159936D02*
X10352467Y-11169460D01*
X10352467Y-11169460D02*
X10333420Y-11178984D01*
X10333420Y-11178984D02*
X10314372Y-11178984D01*
X10314372Y-11178984D02*
X10295324Y-11169460D01*
X10295324Y-11169460D02*
X10285801Y-11159936D01*
X10285801Y-11159936D02*
X10276277Y-11140889D01*
X10276277Y-11140889D02*
X10266753Y-11102793D01*
X10266753Y-11102793D02*
X10266753Y-11055174D01*
X10266753Y-11055174D02*
X10276277Y-11017079D01*
X10276277Y-11017079D02*
X10285801Y-10998031D01*
X10285801Y-10998031D02*
X10295324Y-10988508D01*
X10295324Y-10988508D02*
X10314372Y-10978984D01*
X10466753Y-11159936D02*
X10476277Y-11169460D01*
X10476277Y-11169460D02*
X10466753Y-11178984D01*
X10466753Y-11178984D02*
X10457229Y-11169460D01*
X10457229Y-11169460D02*
X10466753Y-11159936D01*
X10466753Y-11159936D02*
X10466753Y-11178984D01*
X10647705Y-10978984D02*
X10609610Y-10978984D01*
X10609610Y-10978984D02*
X10590563Y-10988508D01*
X10590563Y-10988508D02*
X10581039Y-10998031D01*
X10581039Y-10998031D02*
X10561991Y-11026603D01*
X10561991Y-11026603D02*
X10552467Y-11064698D01*
X10552467Y-11064698D02*
X10552467Y-11140889D01*
X10552467Y-11140889D02*
X10561991Y-11159936D01*
X10561991Y-11159936D02*
X10571515Y-11169460D01*
X10571515Y-11169460D02*
X10590563Y-11178984D01*
X10590563Y-11178984D02*
X10628658Y-11178984D01*
X10628658Y-11178984D02*
X10647705Y-11169460D01*
X10647705Y-11169460D02*
X10657229Y-11159936D01*
X10657229Y-11159936D02*
X10666753Y-11140889D01*
X10666753Y-11140889D02*
X10666753Y-11093270D01*
X10666753Y-11093270D02*
X10657229Y-11074222D01*
X10657229Y-11074222D02*
X10647705Y-11064698D01*
X10647705Y-11064698D02*
X10628658Y-11055174D01*
X10628658Y-11055174D02*
X10590563Y-11055174D01*
X10590563Y-11055174D02*
X10571515Y-11064698D01*
X10571515Y-11064698D02*
X10561991Y-11074222D01*
X10561991Y-11074222D02*
X10552467Y-11093270D01*
X10733420Y-10978984D02*
X10857229Y-10978984D01*
X10857229Y-10978984D02*
X10790563Y-11055174D01*
X10790563Y-11055174D02*
X10819134Y-11055174D01*
X10819134Y-11055174D02*
X10838182Y-11064698D01*
X10838182Y-11064698D02*
X10847705Y-11074222D01*
X10847705Y-11074222D02*
X10857229Y-11093270D01*
X10857229Y-11093270D02*
X10857229Y-11140889D01*
X10857229Y-11140889D02*
X10847705Y-11159936D01*
X10847705Y-11159936D02*
X10838182Y-11169460D01*
X10838182Y-11169460D02*
X10819134Y-11178984D01*
X10819134Y-11178984D02*
X10761991Y-11178984D01*
X10761991Y-11178984D02*
X10742944Y-11169460D01*
X10742944Y-11169460D02*
X10733420Y-11159936D01*
X10981039Y-10978984D02*
X11000086Y-10978984D01*
X11000086Y-10978984D02*
X11019134Y-10988508D01*
X11019134Y-10988508D02*
X11028658Y-10998031D01*
X11028658Y-10998031D02*
X11038182Y-11017079D01*
X11038182Y-11017079D02*
X11047705Y-11055174D01*
X11047705Y-11055174D02*
X11047705Y-11102793D01*
X11047705Y-11102793D02*
X11038182Y-11140889D01*
X11038182Y-11140889D02*
X11028658Y-11159936D01*
X11028658Y-11159936D02*
X11019134Y-11169460D01*
X11019134Y-11169460D02*
X11000086Y-11178984D01*
X11000086Y-11178984D02*
X10981039Y-11178984D01*
X10981039Y-11178984D02*
X10961991Y-11169460D01*
X10961991Y-11169460D02*
X10952467Y-11159936D01*
X10952467Y-11159936D02*
X10942944Y-11140889D01*
X10942944Y-11140889D02*
X10933420Y-11102793D01*
X10933420Y-11102793D02*
X10933420Y-11055174D01*
X10933420Y-11055174D02*
X10942944Y-11017079D01*
X10942944Y-11017079D02*
X10952467Y-10998031D01*
X10952467Y-10998031D02*
X10961991Y-10988508D01*
X10961991Y-10988508D02*
X10981039Y-10978984D01*
X11133420Y-11178984D02*
X11133420Y-11045650D01*
X11133420Y-11064698D02*
X11142944Y-11055174D01*
X11142944Y-11055174D02*
X11161991Y-11045650D01*
X11161991Y-11045650D02*
X11190563Y-11045650D01*
X11190563Y-11045650D02*
X11209610Y-11055174D01*
X11209610Y-11055174D02*
X11219134Y-11074222D01*
X11219134Y-11074222D02*
X11219134Y-11178984D01*
X11219134Y-11074222D02*
X11228658Y-11055174D01*
X11228658Y-11055174D02*
X11247705Y-11045650D01*
X11247705Y-11045650D02*
X11276277Y-11045650D01*
X11276277Y-11045650D02*
X11295324Y-11055174D01*
X11295324Y-11055174D02*
X11304848Y-11074222D01*
X11304848Y-11074222D02*
X11304848Y-11178984D01*
X11400086Y-11178984D02*
X11400086Y-11045650D01*
X11400086Y-11064698D02*
X11409610Y-11055174D01*
X11409610Y-11055174D02*
X11428658Y-11045650D01*
X11428658Y-11045650D02*
X11457229Y-11045650D01*
X11457229Y-11045650D02*
X11476277Y-11055174D01*
X11476277Y-11055174D02*
X11485801Y-11074222D01*
X11485801Y-11074222D02*
X11485801Y-11178984D01*
X11485801Y-11074222D02*
X11495324Y-11055174D01*
X11495324Y-11055174D02*
X11514372Y-11045650D01*
X11514372Y-11045650D02*
X11542943Y-11045650D01*
X11542943Y-11045650D02*
X11561991Y-11055174D01*
X11561991Y-11055174D02*
X11571515Y-11074222D01*
X11571515Y-11074222D02*
X11571515Y-11178984D01*
X11961991Y-10969460D02*
X11790563Y-11226603D01*
X12219134Y-10978984D02*
X12238182Y-10978984D01*
X12238182Y-10978984D02*
X12257229Y-10988508D01*
X12257229Y-10988508D02*
X12266753Y-10998031D01*
X12266753Y-10998031D02*
X12276277Y-11017079D01*
X12276277Y-11017079D02*
X12285801Y-11055174D01*
X12285801Y-11055174D02*
X12285801Y-11102793D01*
X12285801Y-11102793D02*
X12276277Y-11140889D01*
X12276277Y-11140889D02*
X12266753Y-11159936D01*
X12266753Y-11159936D02*
X12257229Y-11169460D01*
X12257229Y-11169460D02*
X12238182Y-11178984D01*
X12238182Y-11178984D02*
X12219134Y-11178984D01*
X12219134Y-11178984D02*
X12200086Y-11169460D01*
X12200086Y-11169460D02*
X12190563Y-11159936D01*
X12190563Y-11159936D02*
X12181039Y-11140889D01*
X12181039Y-11140889D02*
X12171515Y-11102793D01*
X12171515Y-11102793D02*
X12171515Y-11055174D01*
X12171515Y-11055174D02*
X12181039Y-11017079D01*
X12181039Y-11017079D02*
X12190563Y-10998031D01*
X12190563Y-10998031D02*
X12200086Y-10988508D01*
X12200086Y-10988508D02*
X12219134Y-10978984D01*
X12371515Y-11159936D02*
X12381039Y-11169460D01*
X12381039Y-11169460D02*
X12371515Y-11178984D01*
X12371515Y-11178984D02*
X12361991Y-11169460D01*
X12361991Y-11169460D02*
X12371515Y-11159936D01*
X12371515Y-11159936D02*
X12371515Y-11178984D01*
X12504848Y-10978984D02*
X12523896Y-10978984D01*
X12523896Y-10978984D02*
X12542944Y-10988508D01*
X12542944Y-10988508D02*
X12552467Y-10998031D01*
X12552467Y-10998031D02*
X12561991Y-11017079D01*
X12561991Y-11017079D02*
X12571515Y-11055174D01*
X12571515Y-11055174D02*
X12571515Y-11102793D01*
X12571515Y-11102793D02*
X12561991Y-11140889D01*
X12561991Y-11140889D02*
X12552467Y-11159936D01*
X12552467Y-11159936D02*
X12542944Y-11169460D01*
X12542944Y-11169460D02*
X12523896Y-11178984D01*
X12523896Y-11178984D02*
X12504848Y-11178984D01*
X12504848Y-11178984D02*
X12485801Y-11169460D01*
X12485801Y-11169460D02*
X12476277Y-11159936D01*
X12476277Y-11159936D02*
X12466753Y-11140889D01*
X12466753Y-11140889D02*
X12457229Y-11102793D01*
X12457229Y-11102793D02*
X12457229Y-11055174D01*
X12457229Y-11055174D02*
X12466753Y-11017079D01*
X12466753Y-11017079D02*
X12476277Y-10998031D01*
X12476277Y-10998031D02*
X12485801Y-10988508D01*
X12485801Y-10988508D02*
X12504848Y-10978984D01*
X12647706Y-10998031D02*
X12657229Y-10988508D01*
X12657229Y-10988508D02*
X12676277Y-10978984D01*
X12676277Y-10978984D02*
X12723896Y-10978984D01*
X12723896Y-10978984D02*
X12742944Y-10988508D01*
X12742944Y-10988508D02*
X12752467Y-10998031D01*
X12752467Y-10998031D02*
X12761991Y-11017079D01*
X12761991Y-11017079D02*
X12761991Y-11036127D01*
X12761991Y-11036127D02*
X12752467Y-11064698D01*
X12752467Y-11064698D02*
X12638182Y-11178984D01*
X12638182Y-11178984D02*
X12761991Y-11178984D01*
X12933420Y-11045650D02*
X12933420Y-11178984D01*
X12885801Y-10969460D02*
X12838182Y-11112317D01*
X12838182Y-11112317D02*
X12961991Y-11112317D01*
X13066753Y-11064698D02*
X13047706Y-11055174D01*
X13047706Y-11055174D02*
X13038182Y-11045650D01*
X13038182Y-11045650D02*
X13028658Y-11026603D01*
X13028658Y-11026603D02*
X13028658Y-11017079D01*
X13028658Y-11017079D02*
X13038182Y-10998031D01*
X13038182Y-10998031D02*
X13047706Y-10988508D01*
X13047706Y-10988508D02*
X13066753Y-10978984D01*
X13066753Y-10978984D02*
X13104848Y-10978984D01*
X13104848Y-10978984D02*
X13123896Y-10988508D01*
X13123896Y-10988508D02*
X13133420Y-10998031D01*
X13133420Y-10998031D02*
X13142944Y-11017079D01*
X13142944Y-11017079D02*
X13142944Y-11026603D01*
X13142944Y-11026603D02*
X13133420Y-11045650D01*
X13133420Y-11045650D02*
X13123896Y-11055174D01*
X13123896Y-11055174D02*
X13104848Y-11064698D01*
X13104848Y-11064698D02*
X13066753Y-11064698D01*
X13066753Y-11064698D02*
X13047706Y-11074222D01*
X13047706Y-11074222D02*
X13038182Y-11083746D01*
X13038182Y-11083746D02*
X13028658Y-11102793D01*
X13028658Y-11102793D02*
X13028658Y-11140889D01*
X13028658Y-11140889D02*
X13038182Y-11159936D01*
X13038182Y-11159936D02*
X13047706Y-11169460D01*
X13047706Y-11169460D02*
X13066753Y-11178984D01*
X13066753Y-11178984D02*
X13104848Y-11178984D01*
X13104848Y-11178984D02*
X13123896Y-11169460D01*
X13123896Y-11169460D02*
X13133420Y-11159936D01*
X13133420Y-11159936D02*
X13142944Y-11140889D01*
X13142944Y-11140889D02*
X13142944Y-11102793D01*
X13142944Y-11102793D02*
X13133420Y-11083746D01*
X13133420Y-11083746D02*
X13123896Y-11074222D01*
X13123896Y-11074222D02*
X13104848Y-11064698D01*
X13219134Y-10978984D02*
X13219134Y-11017079D01*
X13295325Y-10978984D02*
X13295325Y-11017079D01*
X13590563Y-11255174D02*
X13581039Y-11245650D01*
X13581039Y-11245650D02*
X13561991Y-11217079D01*
X13561991Y-11217079D02*
X13552468Y-11198031D01*
X13552468Y-11198031D02*
X13542944Y-11169460D01*
X13542944Y-11169460D02*
X13533420Y-11121841D01*
X13533420Y-11121841D02*
X13533420Y-11083746D01*
X13533420Y-11083746D02*
X13542944Y-11036127D01*
X13542944Y-11036127D02*
X13552468Y-11007555D01*
X13552468Y-11007555D02*
X13561991Y-10988508D01*
X13561991Y-10988508D02*
X13581039Y-10959936D01*
X13581039Y-10959936D02*
X13590563Y-10950412D01*
X13771515Y-11178984D02*
X13657229Y-11178984D01*
X13714372Y-11178984D02*
X13714372Y-10978984D01*
X13714372Y-10978984D02*
X13695325Y-11007555D01*
X13695325Y-11007555D02*
X13676277Y-11026603D01*
X13676277Y-11026603D02*
X13657229Y-11036127D01*
X14009610Y-11178984D02*
X14009610Y-10978984D01*
X14095325Y-11178984D02*
X14095325Y-11074222D01*
X14095325Y-11074222D02*
X14085801Y-11055174D01*
X14085801Y-11055174D02*
X14066753Y-11045650D01*
X14066753Y-11045650D02*
X14038182Y-11045650D01*
X14038182Y-11045650D02*
X14019134Y-11055174D01*
X14019134Y-11055174D02*
X14009610Y-11064698D01*
X14219134Y-11178984D02*
X14200087Y-11169460D01*
X14200087Y-11169460D02*
X14190563Y-11159936D01*
X14190563Y-11159936D02*
X14181039Y-11140889D01*
X14181039Y-11140889D02*
X14181039Y-11083746D01*
X14181039Y-11083746D02*
X14190563Y-11064698D01*
X14190563Y-11064698D02*
X14200087Y-11055174D01*
X14200087Y-11055174D02*
X14219134Y-11045650D01*
X14219134Y-11045650D02*
X14247706Y-11045650D01*
X14247706Y-11045650D02*
X14266753Y-11055174D01*
X14266753Y-11055174D02*
X14276277Y-11064698D01*
X14276277Y-11064698D02*
X14285801Y-11083746D01*
X14285801Y-11083746D02*
X14285801Y-11140889D01*
X14285801Y-11140889D02*
X14276277Y-11159936D01*
X14276277Y-11159936D02*
X14266753Y-11169460D01*
X14266753Y-11169460D02*
X14247706Y-11178984D01*
X14247706Y-11178984D02*
X14219134Y-11178984D01*
X14400087Y-11178984D02*
X14381039Y-11169460D01*
X14381039Y-11169460D02*
X14371515Y-11150412D01*
X14371515Y-11150412D02*
X14371515Y-10978984D01*
X14552468Y-11169460D02*
X14533420Y-11178984D01*
X14533420Y-11178984D02*
X14495325Y-11178984D01*
X14495325Y-11178984D02*
X14476277Y-11169460D01*
X14476277Y-11169460D02*
X14466753Y-11150412D01*
X14466753Y-11150412D02*
X14466753Y-11074222D01*
X14466753Y-11074222D02*
X14476277Y-11055174D01*
X14476277Y-11055174D02*
X14495325Y-11045650D01*
X14495325Y-11045650D02*
X14533420Y-11045650D01*
X14533420Y-11045650D02*
X14552468Y-11055174D01*
X14552468Y-11055174D02*
X14561991Y-11074222D01*
X14561991Y-11074222D02*
X14561991Y-11093270D01*
X14561991Y-11093270D02*
X14466753Y-11112317D01*
X14628658Y-11255174D02*
X14638182Y-11245650D01*
X14638182Y-11245650D02*
X14657230Y-11217079D01*
X14657230Y-11217079D02*
X14666753Y-11198031D01*
X14666753Y-11198031D02*
X14676277Y-11169460D01*
X14676277Y-11169460D02*
X14685801Y-11121841D01*
X14685801Y-11121841D02*
X14685801Y-11083746D01*
X14685801Y-11083746D02*
X14676277Y-11036127D01*
X14676277Y-11036127D02*
X14666753Y-11007555D01*
X14666753Y-11007555D02*
X14657230Y-10988508D01*
X14657230Y-10988508D02*
X14638182Y-10959936D01*
X14638182Y-10959936D02*
X14628658Y-10950412D01*
X14990563Y-11255174D02*
X14981039Y-11245650D01*
X14981039Y-11245650D02*
X14961991Y-11217079D01*
X14961991Y-11217079D02*
X14952468Y-11198031D01*
X14952468Y-11198031D02*
X14942944Y-11169460D01*
X14942944Y-11169460D02*
X14933420Y-11121841D01*
X14933420Y-11121841D02*
X14933420Y-11083746D01*
X14933420Y-11083746D02*
X14942944Y-11036127D01*
X14942944Y-11036127D02*
X14952468Y-11007555D01*
X14952468Y-11007555D02*
X14961991Y-10988508D01*
X14961991Y-10988508D02*
X14981039Y-10959936D01*
X14981039Y-10959936D02*
X14990563Y-10950412D01*
X15066753Y-11045650D02*
X15066753Y-11178984D01*
X15066753Y-11064698D02*
X15076277Y-11055174D01*
X15076277Y-11055174D02*
X15095325Y-11045650D01*
X15095325Y-11045650D02*
X15123896Y-11045650D01*
X15123896Y-11045650D02*
X15142944Y-11055174D01*
X15142944Y-11055174D02*
X15152468Y-11074222D01*
X15152468Y-11074222D02*
X15152468Y-11178984D01*
X15276277Y-11178984D02*
X15257230Y-11169460D01*
X15257230Y-11169460D02*
X15247706Y-11159936D01*
X15247706Y-11159936D02*
X15238182Y-11140889D01*
X15238182Y-11140889D02*
X15238182Y-11083746D01*
X15238182Y-11083746D02*
X15247706Y-11064698D01*
X15247706Y-11064698D02*
X15257230Y-11055174D01*
X15257230Y-11055174D02*
X15276277Y-11045650D01*
X15276277Y-11045650D02*
X15304849Y-11045650D01*
X15304849Y-11045650D02*
X15323896Y-11055174D01*
X15323896Y-11055174D02*
X15333420Y-11064698D01*
X15333420Y-11064698D02*
X15342944Y-11083746D01*
X15342944Y-11083746D02*
X15342944Y-11140889D01*
X15342944Y-11140889D02*
X15333420Y-11159936D01*
X15333420Y-11159936D02*
X15323896Y-11169460D01*
X15323896Y-11169460D02*
X15304849Y-11178984D01*
X15304849Y-11178984D02*
X15276277Y-11178984D01*
X15400087Y-11045650D02*
X15476277Y-11045650D01*
X15428658Y-10978984D02*
X15428658Y-11150412D01*
X15428658Y-11150412D02*
X15438182Y-11169460D01*
X15438182Y-11169460D02*
X15457230Y-11178984D01*
X15457230Y-11178984D02*
X15476277Y-11178984D01*
X15695325Y-11045650D02*
X15695325Y-11245650D01*
X15695325Y-11055174D02*
X15714372Y-11045650D01*
X15714372Y-11045650D02*
X15752468Y-11045650D01*
X15752468Y-11045650D02*
X15771515Y-11055174D01*
X15771515Y-11055174D02*
X15781039Y-11064698D01*
X15781039Y-11064698D02*
X15790563Y-11083746D01*
X15790563Y-11083746D02*
X15790563Y-11140889D01*
X15790563Y-11140889D02*
X15781039Y-11159936D01*
X15781039Y-11159936D02*
X15771515Y-11169460D01*
X15771515Y-11169460D02*
X15752468Y-11178984D01*
X15752468Y-11178984D02*
X15714372Y-11178984D01*
X15714372Y-11178984D02*
X15695325Y-11169460D01*
X15904849Y-11178984D02*
X15885801Y-11169460D01*
X15885801Y-11169460D02*
X15876277Y-11150412D01*
X15876277Y-11150412D02*
X15876277Y-10978984D01*
X16066753Y-11178984D02*
X16066753Y-11074222D01*
X16066753Y-11074222D02*
X16057230Y-11055174D01*
X16057230Y-11055174D02*
X16038182Y-11045650D01*
X16038182Y-11045650D02*
X16000087Y-11045650D01*
X16000087Y-11045650D02*
X15981039Y-11055174D01*
X16066753Y-11169460D02*
X16047706Y-11178984D01*
X16047706Y-11178984D02*
X16000087Y-11178984D01*
X16000087Y-11178984D02*
X15981039Y-11169460D01*
X15981039Y-11169460D02*
X15971515Y-11150412D01*
X15971515Y-11150412D02*
X15971515Y-11131365D01*
X15971515Y-11131365D02*
X15981039Y-11112317D01*
X15981039Y-11112317D02*
X16000087Y-11102793D01*
X16000087Y-11102793D02*
X16047706Y-11102793D01*
X16047706Y-11102793D02*
X16066753Y-11093270D01*
X16133420Y-11045650D02*
X16209611Y-11045650D01*
X16161992Y-10978984D02*
X16161992Y-11150412D01*
X16161992Y-11150412D02*
X16171515Y-11169460D01*
X16171515Y-11169460D02*
X16190563Y-11178984D01*
X16190563Y-11178984D02*
X16209611Y-11178984D01*
X16352468Y-11169460D02*
X16333420Y-11178984D01*
X16333420Y-11178984D02*
X16295325Y-11178984D01*
X16295325Y-11178984D02*
X16276277Y-11169460D01*
X16276277Y-11169460D02*
X16266753Y-11150412D01*
X16266753Y-11150412D02*
X16266753Y-11074222D01*
X16266753Y-11074222D02*
X16276277Y-11055174D01*
X16276277Y-11055174D02*
X16295325Y-11045650D01*
X16295325Y-11045650D02*
X16333420Y-11045650D01*
X16333420Y-11045650D02*
X16352468Y-11055174D01*
X16352468Y-11055174D02*
X16361992Y-11074222D01*
X16361992Y-11074222D02*
X16361992Y-11093270D01*
X16361992Y-11093270D02*
X16266753Y-11112317D01*
X16533420Y-11178984D02*
X16533420Y-10978984D01*
X16533420Y-11169460D02*
X16514373Y-11178984D01*
X16514373Y-11178984D02*
X16476277Y-11178984D01*
X16476277Y-11178984D02*
X16457230Y-11169460D01*
X16457230Y-11169460D02*
X16447706Y-11159936D01*
X16447706Y-11159936D02*
X16438182Y-11140889D01*
X16438182Y-11140889D02*
X16438182Y-11083746D01*
X16438182Y-11083746D02*
X16447706Y-11064698D01*
X16447706Y-11064698D02*
X16457230Y-11055174D01*
X16457230Y-11055174D02*
X16476277Y-11045650D01*
X16476277Y-11045650D02*
X16514373Y-11045650D01*
X16514373Y-11045650D02*
X16533420Y-11055174D01*
X16609611Y-11255174D02*
X16619134Y-11245650D01*
X16619134Y-11245650D02*
X16638182Y-11217079D01*
X16638182Y-11217079D02*
X16647706Y-11198031D01*
X16647706Y-11198031D02*
X16657230Y-11169460D01*
X16657230Y-11169460D02*
X16666753Y-11121841D01*
X16666753Y-11121841D02*
X16666753Y-11083746D01*
X16666753Y-11083746D02*
X16657230Y-11036127D01*
X16657230Y-11036127D02*
X16647706Y-11007555D01*
X16647706Y-11007555D02*
X16638182Y-10988508D01*
X16638182Y-10988508D02*
X16619134Y-10959936D01*
X16619134Y-10959936D02*
X16609611Y-10950412D01*
X9915500Y-11251500D02*
X9915500Y-11451500D01*
X9815500Y-11351500D02*
X10015500Y-11351500D01*
X10257229Y-11242984D02*
X10381039Y-11242984D01*
X10381039Y-11242984D02*
X10314372Y-11319174D01*
X10314372Y-11319174D02*
X10342944Y-11319174D01*
X10342944Y-11319174D02*
X10361991Y-11328698D01*
X10361991Y-11328698D02*
X10371515Y-11338222D01*
X10371515Y-11338222D02*
X10381039Y-11357269D01*
X10381039Y-11357269D02*
X10381039Y-11404888D01*
X10381039Y-11404888D02*
X10371515Y-11423936D01*
X10371515Y-11423936D02*
X10361991Y-11433460D01*
X10361991Y-11433460D02*
X10342944Y-11442984D01*
X10342944Y-11442984D02*
X10285801Y-11442984D01*
X10285801Y-11442984D02*
X10266753Y-11433460D01*
X10266753Y-11433460D02*
X10257229Y-11423936D01*
X10466753Y-11423936D02*
X10476277Y-11433460D01*
X10476277Y-11433460D02*
X10466753Y-11442984D01*
X10466753Y-11442984D02*
X10457229Y-11433460D01*
X10457229Y-11433460D02*
X10466753Y-11423936D01*
X10466753Y-11423936D02*
X10466753Y-11442984D01*
X10552467Y-11262031D02*
X10561991Y-11252508D01*
X10561991Y-11252508D02*
X10581039Y-11242984D01*
X10581039Y-11242984D02*
X10628658Y-11242984D01*
X10628658Y-11242984D02*
X10647705Y-11252508D01*
X10647705Y-11252508D02*
X10657229Y-11262031D01*
X10657229Y-11262031D02*
X10666753Y-11281079D01*
X10666753Y-11281079D02*
X10666753Y-11300127D01*
X10666753Y-11300127D02*
X10657229Y-11328698D01*
X10657229Y-11328698D02*
X10542944Y-11442984D01*
X10542944Y-11442984D02*
X10666753Y-11442984D01*
X10790563Y-11242984D02*
X10809610Y-11242984D01*
X10809610Y-11242984D02*
X10828658Y-11252508D01*
X10828658Y-11252508D02*
X10838182Y-11262031D01*
X10838182Y-11262031D02*
X10847705Y-11281079D01*
X10847705Y-11281079D02*
X10857229Y-11319174D01*
X10857229Y-11319174D02*
X10857229Y-11366793D01*
X10857229Y-11366793D02*
X10847705Y-11404888D01*
X10847705Y-11404888D02*
X10838182Y-11423936D01*
X10838182Y-11423936D02*
X10828658Y-11433460D01*
X10828658Y-11433460D02*
X10809610Y-11442984D01*
X10809610Y-11442984D02*
X10790563Y-11442984D01*
X10790563Y-11442984D02*
X10771515Y-11433460D01*
X10771515Y-11433460D02*
X10761991Y-11423936D01*
X10761991Y-11423936D02*
X10752467Y-11404888D01*
X10752467Y-11404888D02*
X10742944Y-11366793D01*
X10742944Y-11366793D02*
X10742944Y-11319174D01*
X10742944Y-11319174D02*
X10752467Y-11281079D01*
X10752467Y-11281079D02*
X10761991Y-11262031D01*
X10761991Y-11262031D02*
X10771515Y-11252508D01*
X10771515Y-11252508D02*
X10790563Y-11242984D01*
X10981039Y-11242984D02*
X11000086Y-11242984D01*
X11000086Y-11242984D02*
X11019134Y-11252508D01*
X11019134Y-11252508D02*
X11028658Y-11262031D01*
X11028658Y-11262031D02*
X11038182Y-11281079D01*
X11038182Y-11281079D02*
X11047705Y-11319174D01*
X11047705Y-11319174D02*
X11047705Y-11366793D01*
X11047705Y-11366793D02*
X11038182Y-11404888D01*
X11038182Y-11404888D02*
X11028658Y-11423936D01*
X11028658Y-11423936D02*
X11019134Y-11433460D01*
X11019134Y-11433460D02*
X11000086Y-11442984D01*
X11000086Y-11442984D02*
X10981039Y-11442984D01*
X10981039Y-11442984D02*
X10961991Y-11433460D01*
X10961991Y-11433460D02*
X10952467Y-11423936D01*
X10952467Y-11423936D02*
X10942944Y-11404888D01*
X10942944Y-11404888D02*
X10933420Y-11366793D01*
X10933420Y-11366793D02*
X10933420Y-11319174D01*
X10933420Y-11319174D02*
X10942944Y-11281079D01*
X10942944Y-11281079D02*
X10952467Y-11262031D01*
X10952467Y-11262031D02*
X10961991Y-11252508D01*
X10961991Y-11252508D02*
X10981039Y-11242984D01*
X11133420Y-11442984D02*
X11133420Y-11309650D01*
X11133420Y-11328698D02*
X11142944Y-11319174D01*
X11142944Y-11319174D02*
X11161991Y-11309650D01*
X11161991Y-11309650D02*
X11190563Y-11309650D01*
X11190563Y-11309650D02*
X11209610Y-11319174D01*
X11209610Y-11319174D02*
X11219134Y-11338222D01*
X11219134Y-11338222D02*
X11219134Y-11442984D01*
X11219134Y-11338222D02*
X11228658Y-11319174D01*
X11228658Y-11319174D02*
X11247705Y-11309650D01*
X11247705Y-11309650D02*
X11276277Y-11309650D01*
X11276277Y-11309650D02*
X11295324Y-11319174D01*
X11295324Y-11319174D02*
X11304848Y-11338222D01*
X11304848Y-11338222D02*
X11304848Y-11442984D01*
X11400086Y-11442984D02*
X11400086Y-11309650D01*
X11400086Y-11328698D02*
X11409610Y-11319174D01*
X11409610Y-11319174D02*
X11428658Y-11309650D01*
X11428658Y-11309650D02*
X11457229Y-11309650D01*
X11457229Y-11309650D02*
X11476277Y-11319174D01*
X11476277Y-11319174D02*
X11485801Y-11338222D01*
X11485801Y-11338222D02*
X11485801Y-11442984D01*
X11485801Y-11338222D02*
X11495324Y-11319174D01*
X11495324Y-11319174D02*
X11514372Y-11309650D01*
X11514372Y-11309650D02*
X11542943Y-11309650D01*
X11542943Y-11309650D02*
X11561991Y-11319174D01*
X11561991Y-11319174D02*
X11571515Y-11338222D01*
X11571515Y-11338222D02*
X11571515Y-11442984D01*
X11961991Y-11233460D02*
X11790563Y-11490603D01*
X12219134Y-11242984D02*
X12238182Y-11242984D01*
X12238182Y-11242984D02*
X12257229Y-11252508D01*
X12257229Y-11252508D02*
X12266753Y-11262031D01*
X12266753Y-11262031D02*
X12276277Y-11281079D01*
X12276277Y-11281079D02*
X12285801Y-11319174D01*
X12285801Y-11319174D02*
X12285801Y-11366793D01*
X12285801Y-11366793D02*
X12276277Y-11404888D01*
X12276277Y-11404888D02*
X12266753Y-11423936D01*
X12266753Y-11423936D02*
X12257229Y-11433460D01*
X12257229Y-11433460D02*
X12238182Y-11442984D01*
X12238182Y-11442984D02*
X12219134Y-11442984D01*
X12219134Y-11442984D02*
X12200086Y-11433460D01*
X12200086Y-11433460D02*
X12190563Y-11423936D01*
X12190563Y-11423936D02*
X12181039Y-11404888D01*
X12181039Y-11404888D02*
X12171515Y-11366793D01*
X12171515Y-11366793D02*
X12171515Y-11319174D01*
X12171515Y-11319174D02*
X12181039Y-11281079D01*
X12181039Y-11281079D02*
X12190563Y-11262031D01*
X12190563Y-11262031D02*
X12200086Y-11252508D01*
X12200086Y-11252508D02*
X12219134Y-11242984D01*
X12371515Y-11423936D02*
X12381039Y-11433460D01*
X12381039Y-11433460D02*
X12371515Y-11442984D01*
X12371515Y-11442984D02*
X12361991Y-11433460D01*
X12361991Y-11433460D02*
X12371515Y-11423936D01*
X12371515Y-11423936D02*
X12371515Y-11442984D01*
X12571515Y-11442984D02*
X12457229Y-11442984D01*
X12514372Y-11442984D02*
X12514372Y-11242984D01*
X12514372Y-11242984D02*
X12495325Y-11271555D01*
X12495325Y-11271555D02*
X12476277Y-11290603D01*
X12476277Y-11290603D02*
X12457229Y-11300127D01*
X12647706Y-11262031D02*
X12657229Y-11252508D01*
X12657229Y-11252508D02*
X12676277Y-11242984D01*
X12676277Y-11242984D02*
X12723896Y-11242984D01*
X12723896Y-11242984D02*
X12742944Y-11252508D01*
X12742944Y-11252508D02*
X12752467Y-11262031D01*
X12752467Y-11262031D02*
X12761991Y-11281079D01*
X12761991Y-11281079D02*
X12761991Y-11300127D01*
X12761991Y-11300127D02*
X12752467Y-11328698D01*
X12752467Y-11328698D02*
X12638182Y-11442984D01*
X12638182Y-11442984D02*
X12761991Y-11442984D01*
X12933420Y-11242984D02*
X12895325Y-11242984D01*
X12895325Y-11242984D02*
X12876277Y-11252508D01*
X12876277Y-11252508D02*
X12866753Y-11262031D01*
X12866753Y-11262031D02*
X12847706Y-11290603D01*
X12847706Y-11290603D02*
X12838182Y-11328698D01*
X12838182Y-11328698D02*
X12838182Y-11404888D01*
X12838182Y-11404888D02*
X12847706Y-11423936D01*
X12847706Y-11423936D02*
X12857229Y-11433460D01*
X12857229Y-11433460D02*
X12876277Y-11442984D01*
X12876277Y-11442984D02*
X12914372Y-11442984D01*
X12914372Y-11442984D02*
X12933420Y-11433460D01*
X12933420Y-11433460D02*
X12942944Y-11423936D01*
X12942944Y-11423936D02*
X12952467Y-11404888D01*
X12952467Y-11404888D02*
X12952467Y-11357269D01*
X12952467Y-11357269D02*
X12942944Y-11338222D01*
X12942944Y-11338222D02*
X12933420Y-11328698D01*
X12933420Y-11328698D02*
X12914372Y-11319174D01*
X12914372Y-11319174D02*
X12876277Y-11319174D01*
X12876277Y-11319174D02*
X12857229Y-11328698D01*
X12857229Y-11328698D02*
X12847706Y-11338222D01*
X12847706Y-11338222D02*
X12838182Y-11357269D01*
X13076277Y-11242984D02*
X13095325Y-11242984D01*
X13095325Y-11242984D02*
X13114372Y-11252508D01*
X13114372Y-11252508D02*
X13123896Y-11262031D01*
X13123896Y-11262031D02*
X13133420Y-11281079D01*
X13133420Y-11281079D02*
X13142944Y-11319174D01*
X13142944Y-11319174D02*
X13142944Y-11366793D01*
X13142944Y-11366793D02*
X13133420Y-11404888D01*
X13133420Y-11404888D02*
X13123896Y-11423936D01*
X13123896Y-11423936D02*
X13114372Y-11433460D01*
X13114372Y-11433460D02*
X13095325Y-11442984D01*
X13095325Y-11442984D02*
X13076277Y-11442984D01*
X13076277Y-11442984D02*
X13057229Y-11433460D01*
X13057229Y-11433460D02*
X13047706Y-11423936D01*
X13047706Y-11423936D02*
X13038182Y-11404888D01*
X13038182Y-11404888D02*
X13028658Y-11366793D01*
X13028658Y-11366793D02*
X13028658Y-11319174D01*
X13028658Y-11319174D02*
X13038182Y-11281079D01*
X13038182Y-11281079D02*
X13047706Y-11262031D01*
X13047706Y-11262031D02*
X13057229Y-11252508D01*
X13057229Y-11252508D02*
X13076277Y-11242984D01*
X13219134Y-11242984D02*
X13219134Y-11281079D01*
X13295325Y-11242984D02*
X13295325Y-11281079D01*
X13590563Y-11519174D02*
X13581039Y-11509650D01*
X13581039Y-11509650D02*
X13561991Y-11481079D01*
X13561991Y-11481079D02*
X13552468Y-11462031D01*
X13552468Y-11462031D02*
X13542944Y-11433460D01*
X13542944Y-11433460D02*
X13533420Y-11385841D01*
X13533420Y-11385841D02*
X13533420Y-11347746D01*
X13533420Y-11347746D02*
X13542944Y-11300127D01*
X13542944Y-11300127D02*
X13552468Y-11271555D01*
X13552468Y-11271555D02*
X13561991Y-11252508D01*
X13561991Y-11252508D02*
X13581039Y-11223936D01*
X13581039Y-11223936D02*
X13590563Y-11214412D01*
X13752468Y-11309650D02*
X13752468Y-11442984D01*
X13704848Y-11233460D02*
X13657229Y-11376317D01*
X13657229Y-11376317D02*
X13781039Y-11376317D01*
X14009610Y-11442984D02*
X14009610Y-11242984D01*
X14095325Y-11442984D02*
X14095325Y-11338222D01*
X14095325Y-11338222D02*
X14085801Y-11319174D01*
X14085801Y-11319174D02*
X14066753Y-11309650D01*
X14066753Y-11309650D02*
X14038182Y-11309650D01*
X14038182Y-11309650D02*
X14019134Y-11319174D01*
X14019134Y-11319174D02*
X14009610Y-11328698D01*
X14219134Y-11442984D02*
X14200087Y-11433460D01*
X14200087Y-11433460D02*
X14190563Y-11423936D01*
X14190563Y-11423936D02*
X14181039Y-11404888D01*
X14181039Y-11404888D02*
X14181039Y-11347746D01*
X14181039Y-11347746D02*
X14190563Y-11328698D01*
X14190563Y-11328698D02*
X14200087Y-11319174D01*
X14200087Y-11319174D02*
X14219134Y-11309650D01*
X14219134Y-11309650D02*
X14247706Y-11309650D01*
X14247706Y-11309650D02*
X14266753Y-11319174D01*
X14266753Y-11319174D02*
X14276277Y-11328698D01*
X14276277Y-11328698D02*
X14285801Y-11347746D01*
X14285801Y-11347746D02*
X14285801Y-11404888D01*
X14285801Y-11404888D02*
X14276277Y-11423936D01*
X14276277Y-11423936D02*
X14266753Y-11433460D01*
X14266753Y-11433460D02*
X14247706Y-11442984D01*
X14247706Y-11442984D02*
X14219134Y-11442984D01*
X14400087Y-11442984D02*
X14381039Y-11433460D01*
X14381039Y-11433460D02*
X14371515Y-11414412D01*
X14371515Y-11414412D02*
X14371515Y-11242984D01*
X14552468Y-11433460D02*
X14533420Y-11442984D01*
X14533420Y-11442984D02*
X14495325Y-11442984D01*
X14495325Y-11442984D02*
X14476277Y-11433460D01*
X14476277Y-11433460D02*
X14466753Y-11414412D01*
X14466753Y-11414412D02*
X14466753Y-11338222D01*
X14466753Y-11338222D02*
X14476277Y-11319174D01*
X14476277Y-11319174D02*
X14495325Y-11309650D01*
X14495325Y-11309650D02*
X14533420Y-11309650D01*
X14533420Y-11309650D02*
X14552468Y-11319174D01*
X14552468Y-11319174D02*
X14561991Y-11338222D01*
X14561991Y-11338222D02*
X14561991Y-11357269D01*
X14561991Y-11357269D02*
X14466753Y-11376317D01*
X14638182Y-11433460D02*
X14657230Y-11442984D01*
X14657230Y-11442984D02*
X14695325Y-11442984D01*
X14695325Y-11442984D02*
X14714372Y-11433460D01*
X14714372Y-11433460D02*
X14723896Y-11414412D01*
X14723896Y-11414412D02*
X14723896Y-11404888D01*
X14723896Y-11404888D02*
X14714372Y-11385841D01*
X14714372Y-11385841D02*
X14695325Y-11376317D01*
X14695325Y-11376317D02*
X14666753Y-11376317D01*
X14666753Y-11376317D02*
X14647706Y-11366793D01*
X14647706Y-11366793D02*
X14638182Y-11347746D01*
X14638182Y-11347746D02*
X14638182Y-11338222D01*
X14638182Y-11338222D02*
X14647706Y-11319174D01*
X14647706Y-11319174D02*
X14666753Y-11309650D01*
X14666753Y-11309650D02*
X14695325Y-11309650D01*
X14695325Y-11309650D02*
X14714372Y-11319174D01*
X14790563Y-11519174D02*
X14800087Y-11509650D01*
X14800087Y-11509650D02*
X14819134Y-11481079D01*
X14819134Y-11481079D02*
X14828658Y-11462031D01*
X14828658Y-11462031D02*
X14838182Y-11433460D01*
X14838182Y-11433460D02*
X14847706Y-11385841D01*
X14847706Y-11385841D02*
X14847706Y-11347746D01*
X14847706Y-11347746D02*
X14838182Y-11300127D01*
X14838182Y-11300127D02*
X14828658Y-11271555D01*
X14828658Y-11271555D02*
X14819134Y-11252508D01*
X14819134Y-11252508D02*
X14800087Y-11223936D01*
X14800087Y-11223936D02*
X14790563Y-11214412D01*
X15152468Y-11519174D02*
X15142944Y-11509650D01*
X15142944Y-11509650D02*
X15123896Y-11481079D01*
X15123896Y-11481079D02*
X15114372Y-11462031D01*
X15114372Y-11462031D02*
X15104849Y-11433460D01*
X15104849Y-11433460D02*
X15095325Y-11385841D01*
X15095325Y-11385841D02*
X15095325Y-11347746D01*
X15095325Y-11347746D02*
X15104849Y-11300127D01*
X15104849Y-11300127D02*
X15114372Y-11271555D01*
X15114372Y-11271555D02*
X15123896Y-11252508D01*
X15123896Y-11252508D02*
X15142944Y-11223936D01*
X15142944Y-11223936D02*
X15152468Y-11214412D01*
X15228658Y-11309650D02*
X15228658Y-11442984D01*
X15228658Y-11328698D02*
X15238182Y-11319174D01*
X15238182Y-11319174D02*
X15257230Y-11309650D01*
X15257230Y-11309650D02*
X15285801Y-11309650D01*
X15285801Y-11309650D02*
X15304849Y-11319174D01*
X15304849Y-11319174D02*
X15314372Y-11338222D01*
X15314372Y-11338222D02*
X15314372Y-11442984D01*
X15438182Y-11442984D02*
X15419134Y-11433460D01*
X15419134Y-11433460D02*
X15409611Y-11423936D01*
X15409611Y-11423936D02*
X15400087Y-11404888D01*
X15400087Y-11404888D02*
X15400087Y-11347746D01*
X15400087Y-11347746D02*
X15409611Y-11328698D01*
X15409611Y-11328698D02*
X15419134Y-11319174D01*
X15419134Y-11319174D02*
X15438182Y-11309650D01*
X15438182Y-11309650D02*
X15466753Y-11309650D01*
X15466753Y-11309650D02*
X15485801Y-11319174D01*
X15485801Y-11319174D02*
X15495325Y-11328698D01*
X15495325Y-11328698D02*
X15504849Y-11347746D01*
X15504849Y-11347746D02*
X15504849Y-11404888D01*
X15504849Y-11404888D02*
X15495325Y-11423936D01*
X15495325Y-11423936D02*
X15485801Y-11433460D01*
X15485801Y-11433460D02*
X15466753Y-11442984D01*
X15466753Y-11442984D02*
X15438182Y-11442984D01*
X15561992Y-11309650D02*
X15638182Y-11309650D01*
X15590563Y-11242984D02*
X15590563Y-11414412D01*
X15590563Y-11414412D02*
X15600087Y-11433460D01*
X15600087Y-11433460D02*
X15619134Y-11442984D01*
X15619134Y-11442984D02*
X15638182Y-11442984D01*
X15857230Y-11309650D02*
X15857230Y-11509650D01*
X15857230Y-11319174D02*
X15876277Y-11309650D01*
X15876277Y-11309650D02*
X15914373Y-11309650D01*
X15914373Y-11309650D02*
X15933420Y-11319174D01*
X15933420Y-11319174D02*
X15942944Y-11328698D01*
X15942944Y-11328698D02*
X15952468Y-11347746D01*
X15952468Y-11347746D02*
X15952468Y-11404888D01*
X15952468Y-11404888D02*
X15942944Y-11423936D01*
X15942944Y-11423936D02*
X15933420Y-11433460D01*
X15933420Y-11433460D02*
X15914373Y-11442984D01*
X15914373Y-11442984D02*
X15876277Y-11442984D01*
X15876277Y-11442984D02*
X15857230Y-11433460D01*
X16066753Y-11442984D02*
X16047706Y-11433460D01*
X16047706Y-11433460D02*
X16038182Y-11414412D01*
X16038182Y-11414412D02*
X16038182Y-11242984D01*
X16228658Y-11442984D02*
X16228658Y-11338222D01*
X16228658Y-11338222D02*
X16219134Y-11319174D01*
X16219134Y-11319174D02*
X16200087Y-11309650D01*
X16200087Y-11309650D02*
X16161992Y-11309650D01*
X16161992Y-11309650D02*
X16142944Y-11319174D01*
X16228658Y-11433460D02*
X16209611Y-11442984D01*
X16209611Y-11442984D02*
X16161992Y-11442984D01*
X16161992Y-11442984D02*
X16142944Y-11433460D01*
X16142944Y-11433460D02*
X16133420Y-11414412D01*
X16133420Y-11414412D02*
X16133420Y-11395365D01*
X16133420Y-11395365D02*
X16142944Y-11376317D01*
X16142944Y-11376317D02*
X16161992Y-11366793D01*
X16161992Y-11366793D02*
X16209611Y-11366793D01*
X16209611Y-11366793D02*
X16228658Y-11357269D01*
X16295325Y-11309650D02*
X16371515Y-11309650D01*
X16323896Y-11242984D02*
X16323896Y-11414412D01*
X16323896Y-11414412D02*
X16333420Y-11433460D01*
X16333420Y-11433460D02*
X16352468Y-11442984D01*
X16352468Y-11442984D02*
X16371515Y-11442984D01*
X16514373Y-11433460D02*
X16495325Y-11442984D01*
X16495325Y-11442984D02*
X16457230Y-11442984D01*
X16457230Y-11442984D02*
X16438182Y-11433460D01*
X16438182Y-11433460D02*
X16428658Y-11414412D01*
X16428658Y-11414412D02*
X16428658Y-11338222D01*
X16428658Y-11338222D02*
X16438182Y-11319174D01*
X16438182Y-11319174D02*
X16457230Y-11309650D01*
X16457230Y-11309650D02*
X16495325Y-11309650D01*
X16495325Y-11309650D02*
X16514373Y-11319174D01*
X16514373Y-11319174D02*
X16523896Y-11338222D01*
X16523896Y-11338222D02*
X16523896Y-11357269D01*
X16523896Y-11357269D02*
X16428658Y-11376317D01*
X16695325Y-11442984D02*
X16695325Y-11242984D01*
X16695325Y-11433460D02*
X16676277Y-11442984D01*
X16676277Y-11442984D02*
X16638182Y-11442984D01*
X16638182Y-11442984D02*
X16619134Y-11433460D01*
X16619134Y-11433460D02*
X16609611Y-11423936D01*
X16609611Y-11423936D02*
X16600087Y-11404888D01*
X16600087Y-11404888D02*
X16600087Y-11347746D01*
X16600087Y-11347746D02*
X16609611Y-11328698D01*
X16609611Y-11328698D02*
X16619134Y-11319174D01*
X16619134Y-11319174D02*
X16638182Y-11309650D01*
X16638182Y-11309650D02*
X16676277Y-11309650D01*
X16676277Y-11309650D02*
X16695325Y-11319174D01*
X16771515Y-11519174D02*
X16781039Y-11509650D01*
X16781039Y-11509650D02*
X16800087Y-11481079D01*
X16800087Y-11481079D02*
X16809611Y-11462031D01*
X16809611Y-11462031D02*
X16819135Y-11433460D01*
X16819135Y-11433460D02*
X16828658Y-11385841D01*
X16828658Y-11385841D02*
X16828658Y-11347746D01*
X16828658Y-11347746D02*
X16819135Y-11300127D01*
X16819135Y-11300127D02*
X16809611Y-11271555D01*
X16809611Y-11271555D02*
X16800087Y-11252508D01*
X16800087Y-11252508D02*
X16781039Y-11223936D01*
X16781039Y-11223936D02*
X16771515Y-11214412D01*
M02*
