%TF.GenerationSoftware,KiCad,Pcbnew,9.0.2+1*%
%TF.CreationDate,2025-05-31T23:41:05+01:00*%
%TF.ProjectId,OBC,4f42432e-6b69-4636-9164-5f7063625858,rev?*%
%TF.SameCoordinates,Original*%
%TF.FileFunction,Soldermask,Top*%
%TF.FilePolarity,Negative*%
%FSLAX45Y45*%
G04 Gerber Fmt 4.5, Leading zero omitted, Abs format (unit mm)*
G04 Created by KiCad (PCBNEW 9.0.2+1) date 2025-05-31 23:41:05*
%MOMM*%
%LPD*%
G01*
G04 APERTURE LIST*
G04 Aperture macros list*
%AMRoundRect*
0 Rectangle with rounded corners*
0 $1 Rounding radius*
0 $2 $3 $4 $5 $6 $7 $8 $9 X,Y pos of 4 corners*
0 Add a 4 corners polygon primitive as box body*
4,1,4,$2,$3,$4,$5,$6,$7,$8,$9,$2,$3,0*
0 Add four circle primitives for the rounded corners*
1,1,$1+$1,$2,$3*
1,1,$1+$1,$4,$5*
1,1,$1+$1,$6,$7*
1,1,$1+$1,$8,$9*
0 Add four rect primitives between the rounded corners*
20,1,$1+$1,$2,$3,$4,$5,0*
20,1,$1+$1,$4,$5,$6,$7,0*
20,1,$1+$1,$6,$7,$8,$9,0*
20,1,$1+$1,$8,$9,$2,$3,0*%
%AMRotRect*
0 Rectangle, with rotation*
0 The origin of the aperture is its center*
0 $1 length*
0 $2 width*
0 $3 Rotation angle, in degrees counterclockwise*
0 Add horizontal line*
21,1,$1,$2,0,0,$3*%
%AMFreePoly0*
4,1,23,0.500000,-0.750000,0.000000,-0.750000,0.000000,-0.745722,-0.065263,-0.745722,-0.191342,-0.711940,-0.304381,-0.646677,-0.396677,-0.554381,-0.461940,-0.441342,-0.495722,-0.315263,-0.495722,-0.250000,-0.500000,-0.250000,-0.500000,0.250000,-0.495722,0.250000,-0.495722,0.315263,-0.461940,0.441342,-0.396677,0.554381,-0.304381,0.646677,-0.191342,0.711940,-0.065263,0.745722,0.000000,0.745722,
0.000000,0.750000,0.500000,0.750000,0.500000,-0.750000,0.500000,-0.750000,$1*%
%AMFreePoly1*
4,1,23,0.000000,0.745722,0.065263,0.745722,0.191342,0.711940,0.304381,0.646677,0.396677,0.554381,0.461940,0.441342,0.495722,0.315263,0.495722,0.250000,0.500000,0.250000,0.500000,-0.250000,0.495722,-0.250000,0.495722,-0.315263,0.461940,-0.441342,0.396677,-0.554381,0.304381,-0.646677,0.191342,-0.711940,0.065263,-0.745722,0.000000,-0.745722,0.000000,-0.750000,-0.500000,-0.750000,
-0.500000,0.750000,0.000000,0.750000,0.000000,0.745722,0.000000,0.745722,$1*%
%AMFreePoly2*
4,1,21,-0.127000,1.244600,0.127000,1.244600,0.127000,1.549400,0.381000,1.549400,0.381000,1.244600,0.876300,1.244600,0.876300,-1.244600,0.381000,-1.244600,0.381000,-1.549400,0.127000,-1.549400,0.127000,-1.244600,-0.127000,-1.244600,-0.127000,-1.549400,-0.381000,-1.549400,-0.381000,-1.244600,-0.876300,-1.244600,-0.876300,1.244600,-0.381000,1.244600,-0.381000,1.549400,-0.127000,1.549400,
-0.127000,1.244600,-0.127000,1.244600,$1*%
G04 Aperture macros list end*
%ADD10C,0.010000*%
%ADD11C,0.000000*%
%ADD12RotRect,0.177800X0.812800X45.000000*%
%ADD13RotRect,0.177800X0.812800X315.000000*%
%ADD14RoundRect,0.050000X-0.350230X-0.224506X-0.224506X-0.350230X0.350230X0.224506X0.224506X0.350230X0*%
%ADD15RotRect,3.200400X3.200400X315.000000*%
%ADD16C,1.701800*%
%ADD17C,0.630000*%
%ADD18C,0.600000*%
%ADD19R,0.520000X1.000000*%
%ADD20R,0.270000X1.000000*%
%ADD21RoundRect,0.070000X0.135000X0.500000X-0.135000X0.500000X-0.135000X-0.500000X0.135000X-0.500000X0*%
%ADD22RoundRect,0.120000X0.500000X1.000000X-0.500000X1.000000X-0.500000X-1.000000X0.500000X-1.000000X0*%
%ADD23O,1.362000X2.520000*%
%ADD24O,1.404000X2.604000*%
%ADD25RoundRect,0.120000X-0.400000X-1.000000X0.400000X-1.000000X0.400000X1.000000X-0.400000X1.000000X0*%
%ADD26R,0.800000X2.000000*%
%ADD27RoundRect,0.120000X-0.900000X-0.700000X0.900000X-0.700000X0.900000X0.700000X-0.900000X0.700000X0*%
%ADD28RoundRect,0.120000X-0.700000X-0.950000X0.700000X-0.950000X0.700000X0.950000X-0.700000X0.950000X0*%
%ADD29RotRect,1.100000X1.300000X135.000000*%
%ADD30R,0.925000X2.400000*%
%ADD31R,0.925000X1.300000*%
%ADD32R,2.400000X0.925000*%
%ADD33R,1.300000X0.925000*%
%ADD34RoundRect,0.120000X0.406400X0.203200X-0.406400X0.203200X-0.406400X-0.203200X0.406400X-0.203200X0*%
%ADD35R,0.812800X0.406400*%
%ADD36R,1.752600X2.489200*%
%ADD37RoundRect,0.095000X-0.285000X-0.335000X0.285000X-0.335000X0.285000X0.335000X-0.285000X0.335000X0*%
%ADD38RoundRect,0.278500X-0.278500X-0.358500X0.278500X-0.358500X0.278500X0.358500X-0.278500X0.358500X0*%
%ADD39RotRect,0.762000X0.254000X315.000000*%
%ADD40RoundRect,0.100000X-0.359210X0.179605X0.179605X-0.359210X0.359210X-0.179605X-0.179605X0.359210X0*%
%ADD41R,0.508000X0.558800*%
%ADD42R,0.499999X0.655599*%
%ADD43R,1.524000X0.533400*%
%ADD44R,0.558800X0.508000*%
%ADD45C,3.200000*%
%ADD46R,0.762000X0.254000*%
%ADD47R,0.254000X0.762000*%
%ADD48R,2.641600X2.641600*%
%ADD49R,0.655599X0.499999*%
%ADD50R,0.400000X0.210000*%
%ADD51RoundRect,0.102000X0.725000X-0.575000X0.725000X0.575000X-0.725000X0.575000X-0.725000X-0.575000X0*%
%ADD52RotRect,0.558800X0.508000X225.000000*%
%ADD53RotRect,0.558800X0.508000X315.000000*%
%ADD54R,0.812800X0.500000*%
%ADD55R,1.244600X0.558800*%
%ADD56R,0.660400X1.549400*%
%ADD57R,1.295400X1.905000*%
%ADD58FreePoly0,90.000000*%
%ADD59FreePoly1,90.000000*%
%ADD60R,0.600000X1.250000*%
%ADD61R,0.304800X0.762000*%
%ADD62RoundRect,0.100000X-0.152400X-0.381000X0.152400X-0.381000X0.152400X0.381000X-0.152400X0.381000X0*%
%ADD63R,0.762000X0.304800*%
%ADD64RotRect,0.558800X0.508000X45.000000*%
%ADD65R,0.500000X0.660000*%
%ADD66R,0.609600X0.228600*%
%ADD67R,1.000000X1.050000*%
%ADD68R,1.905000X0.660400*%
%ADD69RotRect,0.558800X0.508000X135.000000*%
%ADD70RotRect,0.655599X0.499999X135.000000*%
%ADD71R,3.200400X1.244600*%
%ADD72R,5.359400X1.752600*%
%ADD73C,2.529000*%
%ADD74C,2.679000*%
%ADD75R,1.550000X1.950000*%
%ADD76RoundRect,0.102000X-2.000000X0.600000X-2.000000X-0.600000X2.000000X-0.600000X2.000000X0.600000X0*%
%ADD77R,0.228600X0.609600*%
%ADD78R,0.500000X0.812800*%
%ADD79RotRect,0.655599X0.499999X315.000000*%
%ADD80RotRect,0.609600X0.228600X225.000000*%
%ADD81FreePoly0,180.000000*%
%ADD82FreePoly1,180.000000*%
%ADD83R,0.812800X0.254000*%
%ADD84FreePoly2,0.000000*%
G04 APERTURE END LIST*
D10*
%TO.C,D5*%
X14890000Y-9496440D02*
X14890100Y-9496440D01*
X14890300Y-9496440D01*
X14890400Y-9496540D01*
X14890500Y-9496540D01*
X14890600Y-9496640D01*
X14890700Y-9496640D01*
X14890900Y-9496740D01*
X14891000Y-9496840D01*
X14891100Y-9496940D01*
X14891200Y-9496940D01*
X14891300Y-9497040D01*
X14891400Y-9497140D01*
X14891400Y-9497240D01*
X14891500Y-9497340D01*
X14891600Y-9497440D01*
X14891700Y-9497540D01*
X14891700Y-9497740D01*
X14891800Y-9497840D01*
X14891800Y-9497940D01*
X14891900Y-9498040D01*
X14891900Y-9498240D01*
X14891900Y-9498340D01*
X14892000Y-9498440D01*
X14892000Y-9498540D01*
X14892000Y-9498740D01*
X14892000Y-9498840D01*
X14892000Y-9503840D01*
X14892000Y-9503940D01*
X14892000Y-9504140D01*
X14892000Y-9504240D01*
X14891900Y-9504340D01*
X14891900Y-9504440D01*
X14891900Y-9504640D01*
X14891800Y-9504740D01*
X14891800Y-9504840D01*
X14891700Y-9504940D01*
X14891700Y-9505040D01*
X14891600Y-9505240D01*
X14891500Y-9505340D01*
X14891400Y-9505440D01*
X14891400Y-9505540D01*
X14891300Y-9505640D01*
X14891200Y-9505740D01*
X14891100Y-9505740D01*
X14891000Y-9505840D01*
X14890900Y-9505940D01*
X14890700Y-9506040D01*
X14890600Y-9506040D01*
X14890500Y-9506140D01*
X14890400Y-9506140D01*
X14890300Y-9506240D01*
X14890100Y-9506240D01*
X14890000Y-9506240D01*
X14889900Y-9506340D01*
X14889800Y-9506340D01*
X14889600Y-9506340D01*
X14889500Y-9506340D01*
X14884500Y-9506340D01*
X14884400Y-9506340D01*
X14884200Y-9506340D01*
X14884100Y-9506340D01*
X14884000Y-9506240D01*
X14883900Y-9506240D01*
X14883700Y-9506240D01*
X14883600Y-9506140D01*
X14883500Y-9506140D01*
X14883400Y-9506040D01*
X14883200Y-9506040D01*
X14883100Y-9505940D01*
X14883000Y-9505840D01*
X14882900Y-9505740D01*
X14882800Y-9505740D01*
X14882700Y-9505640D01*
X14882600Y-9505540D01*
X14882600Y-9505440D01*
X14882500Y-9505340D01*
X14882400Y-9505240D01*
X14882300Y-9505040D01*
X14882300Y-9504940D01*
X14882200Y-9504840D01*
X14882200Y-9504740D01*
X14882100Y-9504640D01*
X14882100Y-9504440D01*
X14882100Y-9504340D01*
X14882000Y-9504240D01*
X14882000Y-9504140D01*
X14882000Y-9503940D01*
X14882000Y-9503840D01*
X14882000Y-9498840D01*
X14882000Y-9498740D01*
X14882000Y-9498540D01*
X14882000Y-9498440D01*
X14882100Y-9498340D01*
X14882100Y-9498240D01*
X14882100Y-9498040D01*
X14882200Y-9497940D01*
X14882200Y-9497840D01*
X14882300Y-9497740D01*
X14882300Y-9497540D01*
X14882400Y-9497440D01*
X14882500Y-9497340D01*
X14882600Y-9497240D01*
X14882600Y-9497140D01*
X14882700Y-9497040D01*
X14882800Y-9496940D01*
X14882900Y-9496940D01*
X14883000Y-9496840D01*
X14883100Y-9496740D01*
X14883200Y-9496640D01*
X14883400Y-9496640D01*
X14883500Y-9496540D01*
X14883600Y-9496540D01*
X14883700Y-9496440D01*
X14883900Y-9496440D01*
X14884000Y-9496440D01*
X14884100Y-9496340D01*
X14884200Y-9496340D01*
X14884400Y-9496340D01*
X14884500Y-9496340D01*
X14889500Y-9496340D01*
X14889600Y-9496340D01*
X14889800Y-9496340D01*
X14889900Y-9496340D01*
X14890000Y-9496440D01*
G36*
X14890000Y-9496440D02*
G01*
X14890100Y-9496440D01*
X14890300Y-9496440D01*
X14890400Y-9496540D01*
X14890500Y-9496540D01*
X14890600Y-9496640D01*
X14890700Y-9496640D01*
X14890900Y-9496740D01*
X14891000Y-9496840D01*
X14891100Y-9496940D01*
X14891200Y-9496940D01*
X14891300Y-9497040D01*
X14891400Y-9497140D01*
X14891400Y-9497240D01*
X14891500Y-9497340D01*
X14891600Y-9497440D01*
X14891700Y-9497540D01*
X14891700Y-9497740D01*
X14891800Y-9497840D01*
X14891800Y-9497940D01*
X14891900Y-9498040D01*
X14891900Y-9498240D01*
X14891900Y-9498340D01*
X14892000Y-9498440D01*
X14892000Y-9498540D01*
X14892000Y-9498740D01*
X14892000Y-9498840D01*
X14892000Y-9503840D01*
X14892000Y-9503940D01*
X14892000Y-9504140D01*
X14892000Y-9504240D01*
X14891900Y-9504340D01*
X14891900Y-9504440D01*
X14891900Y-9504640D01*
X14891800Y-9504740D01*
X14891800Y-9504840D01*
X14891700Y-9504940D01*
X14891700Y-9505040D01*
X14891600Y-9505240D01*
X14891500Y-9505340D01*
X14891400Y-9505440D01*
X14891400Y-9505540D01*
X14891300Y-9505640D01*
X14891200Y-9505740D01*
X14891100Y-9505740D01*
X14891000Y-9505840D01*
X14890900Y-9505940D01*
X14890700Y-9506040D01*
X14890600Y-9506040D01*
X14890500Y-9506140D01*
X14890400Y-9506140D01*
X14890300Y-9506240D01*
X14890100Y-9506240D01*
X14890000Y-9506240D01*
X14889900Y-9506340D01*
X14889800Y-9506340D01*
X14889600Y-9506340D01*
X14889500Y-9506340D01*
X14884500Y-9506340D01*
X14884400Y-9506340D01*
X14884200Y-9506340D01*
X14884100Y-9506340D01*
X14884000Y-9506240D01*
X14883900Y-9506240D01*
X14883700Y-9506240D01*
X14883600Y-9506140D01*
X14883500Y-9506140D01*
X14883400Y-9506040D01*
X14883200Y-9506040D01*
X14883100Y-9505940D01*
X14883000Y-9505840D01*
X14882900Y-9505740D01*
X14882800Y-9505740D01*
X14882700Y-9505640D01*
X14882600Y-9505540D01*
X14882600Y-9505440D01*
X14882500Y-9505340D01*
X14882400Y-9505240D01*
X14882300Y-9505040D01*
X14882300Y-9504940D01*
X14882200Y-9504840D01*
X14882200Y-9504740D01*
X14882100Y-9504640D01*
X14882100Y-9504440D01*
X14882100Y-9504340D01*
X14882000Y-9504240D01*
X14882000Y-9504140D01*
X14882000Y-9503940D01*
X14882000Y-9503840D01*
X14882000Y-9498840D01*
X14882000Y-9498740D01*
X14882000Y-9498540D01*
X14882000Y-9498440D01*
X14882100Y-9498340D01*
X14882100Y-9498240D01*
X14882100Y-9498040D01*
X14882200Y-9497940D01*
X14882200Y-9497840D01*
X14882300Y-9497740D01*
X14882300Y-9497540D01*
X14882400Y-9497440D01*
X14882500Y-9497340D01*
X14882600Y-9497240D01*
X14882600Y-9497140D01*
X14882700Y-9497040D01*
X14882800Y-9496940D01*
X14882900Y-9496940D01*
X14883000Y-9496840D01*
X14883100Y-9496740D01*
X14883200Y-9496640D01*
X14883400Y-9496640D01*
X14883500Y-9496540D01*
X14883600Y-9496540D01*
X14883700Y-9496440D01*
X14883900Y-9496440D01*
X14884000Y-9496440D01*
X14884100Y-9496340D01*
X14884200Y-9496340D01*
X14884400Y-9496340D01*
X14884500Y-9496340D01*
X14889500Y-9496340D01*
X14889600Y-9496340D01*
X14889800Y-9496340D01*
X14889900Y-9496340D01*
X14890000Y-9496440D01*
G37*
X14940000Y-9471440D02*
X14940100Y-9471440D01*
X14940300Y-9471440D01*
X14940400Y-9471540D01*
X14940500Y-9471540D01*
X14940600Y-9471640D01*
X14940800Y-9471640D01*
X14940900Y-9471740D01*
X14941000Y-9471840D01*
X14941100Y-9471940D01*
X14941200Y-9471940D01*
X14941300Y-9472040D01*
X14941400Y-9472140D01*
X14941400Y-9472240D01*
X14941500Y-9472340D01*
X14941600Y-9472440D01*
X14941700Y-9472640D01*
X14941700Y-9472740D01*
X14941800Y-9472840D01*
X14941800Y-9472940D01*
X14941900Y-9473040D01*
X14941900Y-9473240D01*
X14941900Y-9473340D01*
X14942000Y-9473440D01*
X14942000Y-9473540D01*
X14942000Y-9473740D01*
X14942000Y-9473840D01*
X14942000Y-9478840D01*
X14942000Y-9478940D01*
X14942000Y-9479140D01*
X14942000Y-9479240D01*
X14941900Y-9479340D01*
X14941900Y-9479440D01*
X14941900Y-9479640D01*
X14941800Y-9479740D01*
X14941800Y-9479840D01*
X14941700Y-9479940D01*
X14941700Y-9480140D01*
X14941600Y-9480240D01*
X14941500Y-9480340D01*
X14941400Y-9480440D01*
X14941400Y-9480540D01*
X14941300Y-9480640D01*
X14941200Y-9480740D01*
X14941100Y-9480740D01*
X14941000Y-9480840D01*
X14940900Y-9480940D01*
X14940700Y-9481040D01*
X14940600Y-9481040D01*
X14940500Y-9481140D01*
X14940400Y-9481140D01*
X14940300Y-9481240D01*
X14940100Y-9481240D01*
X14940000Y-9481240D01*
X14939900Y-9481340D01*
X14939800Y-9481340D01*
X14939600Y-9481340D01*
X14939500Y-9481340D01*
X14934500Y-9481340D01*
X14934400Y-9481340D01*
X14934200Y-9481340D01*
X14934100Y-9481340D01*
X14934000Y-9481240D01*
X14933900Y-9481240D01*
X14933700Y-9481240D01*
X14933600Y-9481140D01*
X14933500Y-9481140D01*
X14933400Y-9481040D01*
X14933300Y-9481040D01*
X14933100Y-9480940D01*
X14933000Y-9480840D01*
X14932900Y-9480740D01*
X14932800Y-9480740D01*
X14932700Y-9480640D01*
X14932600Y-9480540D01*
X14932600Y-9480440D01*
X14932500Y-9480340D01*
X14932400Y-9480240D01*
X14932300Y-9480140D01*
X14932300Y-9479940D01*
X14932200Y-9479840D01*
X14932200Y-9479740D01*
X14932100Y-9479640D01*
X14932100Y-9479440D01*
X14932100Y-9479340D01*
X14932000Y-9479240D01*
X14932000Y-9479140D01*
X14932000Y-9478940D01*
X14932000Y-9478840D01*
X14932000Y-9473840D01*
X14932000Y-9473740D01*
X14932000Y-9473540D01*
X14932000Y-9473440D01*
X14932100Y-9473340D01*
X14932100Y-9473240D01*
X14932100Y-9473040D01*
X14932200Y-9472940D01*
X14932200Y-9472840D01*
X14932300Y-9472740D01*
X14932300Y-9472640D01*
X14932400Y-9472440D01*
X14932500Y-9472340D01*
X14932600Y-9472240D01*
X14932600Y-9472140D01*
X14932700Y-9472040D01*
X14932800Y-9471940D01*
X14932900Y-9471940D01*
X14933000Y-9471840D01*
X14933100Y-9471740D01*
X14933200Y-9471640D01*
X14933400Y-9471640D01*
X14933500Y-9471540D01*
X14933600Y-9471540D01*
X14933700Y-9471440D01*
X14933900Y-9471440D01*
X14934000Y-9471440D01*
X14934100Y-9471340D01*
X14934200Y-9471340D01*
X14934400Y-9471340D01*
X14934500Y-9471340D01*
X14939500Y-9471340D01*
X14939600Y-9471340D01*
X14939800Y-9471340D01*
X14939900Y-9471340D01*
X14940000Y-9471440D01*
G36*
X14940000Y-9471440D02*
G01*
X14940100Y-9471440D01*
X14940300Y-9471440D01*
X14940400Y-9471540D01*
X14940500Y-9471540D01*
X14940600Y-9471640D01*
X14940800Y-9471640D01*
X14940900Y-9471740D01*
X14941000Y-9471840D01*
X14941100Y-9471940D01*
X14941200Y-9471940D01*
X14941300Y-9472040D01*
X14941400Y-9472140D01*
X14941400Y-9472240D01*
X14941500Y-9472340D01*
X14941600Y-9472440D01*
X14941700Y-9472640D01*
X14941700Y-9472740D01*
X14941800Y-9472840D01*
X14941800Y-9472940D01*
X14941900Y-9473040D01*
X14941900Y-9473240D01*
X14941900Y-9473340D01*
X14942000Y-9473440D01*
X14942000Y-9473540D01*
X14942000Y-9473740D01*
X14942000Y-9473840D01*
X14942000Y-9478840D01*
X14942000Y-9478940D01*
X14942000Y-9479140D01*
X14942000Y-9479240D01*
X14941900Y-9479340D01*
X14941900Y-9479440D01*
X14941900Y-9479640D01*
X14941800Y-9479740D01*
X14941800Y-9479840D01*
X14941700Y-9479940D01*
X14941700Y-9480140D01*
X14941600Y-9480240D01*
X14941500Y-9480340D01*
X14941400Y-9480440D01*
X14941400Y-9480540D01*
X14941300Y-9480640D01*
X14941200Y-9480740D01*
X14941100Y-9480740D01*
X14941000Y-9480840D01*
X14940900Y-9480940D01*
X14940700Y-9481040D01*
X14940600Y-9481040D01*
X14940500Y-9481140D01*
X14940400Y-9481140D01*
X14940300Y-9481240D01*
X14940100Y-9481240D01*
X14940000Y-9481240D01*
X14939900Y-9481340D01*
X14939800Y-9481340D01*
X14939600Y-9481340D01*
X14939500Y-9481340D01*
X14934500Y-9481340D01*
X14934400Y-9481340D01*
X14934200Y-9481340D01*
X14934100Y-9481340D01*
X14934000Y-9481240D01*
X14933900Y-9481240D01*
X14933700Y-9481240D01*
X14933600Y-9481140D01*
X14933500Y-9481140D01*
X14933400Y-9481040D01*
X14933300Y-9481040D01*
X14933100Y-9480940D01*
X14933000Y-9480840D01*
X14932900Y-9480740D01*
X14932800Y-9480740D01*
X14932700Y-9480640D01*
X14932600Y-9480540D01*
X14932600Y-9480440D01*
X14932500Y-9480340D01*
X14932400Y-9480240D01*
X14932300Y-9480140D01*
X14932300Y-9479940D01*
X14932200Y-9479840D01*
X14932200Y-9479740D01*
X14932100Y-9479640D01*
X14932100Y-9479440D01*
X14932100Y-9479340D01*
X14932000Y-9479240D01*
X14932000Y-9479140D01*
X14932000Y-9478940D01*
X14932000Y-9478840D01*
X14932000Y-9473840D01*
X14932000Y-9473740D01*
X14932000Y-9473540D01*
X14932000Y-9473440D01*
X14932100Y-9473340D01*
X14932100Y-9473240D01*
X14932100Y-9473040D01*
X14932200Y-9472940D01*
X14932200Y-9472840D01*
X14932300Y-9472740D01*
X14932300Y-9472640D01*
X14932400Y-9472440D01*
X14932500Y-9472340D01*
X14932600Y-9472240D01*
X14932600Y-9472140D01*
X14932700Y-9472040D01*
X14932800Y-9471940D01*
X14932900Y-9471940D01*
X14933000Y-9471840D01*
X14933100Y-9471740D01*
X14933200Y-9471640D01*
X14933400Y-9471640D01*
X14933500Y-9471540D01*
X14933600Y-9471540D01*
X14933700Y-9471440D01*
X14933900Y-9471440D01*
X14934000Y-9471440D01*
X14934100Y-9471340D01*
X14934200Y-9471340D01*
X14934400Y-9471340D01*
X14934500Y-9471340D01*
X14939500Y-9471340D01*
X14939600Y-9471340D01*
X14939800Y-9471340D01*
X14939900Y-9471340D01*
X14940000Y-9471440D01*
G37*
X14990000Y-9496440D02*
X14990100Y-9496440D01*
X14990300Y-9496440D01*
X14990400Y-9496540D01*
X14990500Y-9496540D01*
X14990600Y-9496640D01*
X14990800Y-9496640D01*
X14990900Y-9496740D01*
X14991000Y-9496840D01*
X14991100Y-9496940D01*
X14991200Y-9496940D01*
X14991300Y-9497040D01*
X14991400Y-9497140D01*
X14991400Y-9497240D01*
X14991500Y-9497340D01*
X14991600Y-9497440D01*
X14991700Y-9497640D01*
X14991700Y-9497740D01*
X14991800Y-9497840D01*
X14991800Y-9497940D01*
X14991900Y-9498040D01*
X14991900Y-9498240D01*
X14991900Y-9498340D01*
X14992000Y-9498440D01*
X14992000Y-9498540D01*
X14992000Y-9498740D01*
X14992000Y-9498840D01*
X14992000Y-9503840D01*
X14992000Y-9503940D01*
X14992000Y-9504140D01*
X14992000Y-9504240D01*
X14991900Y-9504340D01*
X14991900Y-9504440D01*
X14991900Y-9504640D01*
X14991800Y-9504740D01*
X14991800Y-9504840D01*
X14991700Y-9504940D01*
X14991700Y-9505040D01*
X14991600Y-9505240D01*
X14991500Y-9505340D01*
X14991400Y-9505440D01*
X14991400Y-9505540D01*
X14991300Y-9505640D01*
X14991200Y-9505740D01*
X14991100Y-9505740D01*
X14991000Y-9505840D01*
X14990900Y-9505940D01*
X14990800Y-9506040D01*
X14990600Y-9506040D01*
X14990500Y-9506140D01*
X14990400Y-9506140D01*
X14990300Y-9506240D01*
X14990100Y-9506240D01*
X14990000Y-9506240D01*
X14989900Y-9506340D01*
X14989800Y-9506340D01*
X14989600Y-9506340D01*
X14989500Y-9506340D01*
X14984500Y-9506340D01*
X14984400Y-9506340D01*
X14984200Y-9506340D01*
X14984100Y-9506340D01*
X14984000Y-9506240D01*
X14983900Y-9506240D01*
X14983700Y-9506240D01*
X14983600Y-9506140D01*
X14983500Y-9506140D01*
X14983400Y-9506040D01*
X14983300Y-9506040D01*
X14983100Y-9505940D01*
X14983000Y-9505840D01*
X14982900Y-9505740D01*
X14982800Y-9505740D01*
X14982700Y-9505640D01*
X14982600Y-9505540D01*
X14982600Y-9505440D01*
X14982500Y-9505340D01*
X14982400Y-9505240D01*
X14982300Y-9505040D01*
X14982300Y-9504940D01*
X14982200Y-9504840D01*
X14982200Y-9504740D01*
X14982100Y-9504640D01*
X14982100Y-9504440D01*
X14982100Y-9504340D01*
X14982000Y-9504240D01*
X14982000Y-9504140D01*
X14982000Y-9503940D01*
X14982000Y-9503840D01*
X14982000Y-9498840D01*
X14982000Y-9498740D01*
X14982000Y-9498540D01*
X14982000Y-9498440D01*
X14982100Y-9498340D01*
X14982100Y-9498240D01*
X14982100Y-9498040D01*
X14982200Y-9497940D01*
X14982200Y-9497840D01*
X14982300Y-9497740D01*
X14982300Y-9497540D01*
X14982400Y-9497440D01*
X14982500Y-9497340D01*
X14982600Y-9497240D01*
X14982600Y-9497140D01*
X14982700Y-9497040D01*
X14982800Y-9496940D01*
X14982900Y-9496940D01*
X14983000Y-9496840D01*
X14983100Y-9496740D01*
X14983300Y-9496640D01*
X14983400Y-9496640D01*
X14983500Y-9496540D01*
X14983600Y-9496540D01*
X14983700Y-9496440D01*
X14983900Y-9496440D01*
X14984000Y-9496440D01*
X14984100Y-9496340D01*
X14984200Y-9496340D01*
X14984400Y-9496340D01*
X14984500Y-9496340D01*
X14989500Y-9496340D01*
X14989600Y-9496340D01*
X14989800Y-9496340D01*
X14989900Y-9496340D01*
X14990000Y-9496440D01*
G36*
X14990000Y-9496440D02*
G01*
X14990100Y-9496440D01*
X14990300Y-9496440D01*
X14990400Y-9496540D01*
X14990500Y-9496540D01*
X14990600Y-9496640D01*
X14990800Y-9496640D01*
X14990900Y-9496740D01*
X14991000Y-9496840D01*
X14991100Y-9496940D01*
X14991200Y-9496940D01*
X14991300Y-9497040D01*
X14991400Y-9497140D01*
X14991400Y-9497240D01*
X14991500Y-9497340D01*
X14991600Y-9497440D01*
X14991700Y-9497640D01*
X14991700Y-9497740D01*
X14991800Y-9497840D01*
X14991800Y-9497940D01*
X14991900Y-9498040D01*
X14991900Y-9498240D01*
X14991900Y-9498340D01*
X14992000Y-9498440D01*
X14992000Y-9498540D01*
X14992000Y-9498740D01*
X14992000Y-9498840D01*
X14992000Y-9503840D01*
X14992000Y-9503940D01*
X14992000Y-9504140D01*
X14992000Y-9504240D01*
X14991900Y-9504340D01*
X14991900Y-9504440D01*
X14991900Y-9504640D01*
X14991800Y-9504740D01*
X14991800Y-9504840D01*
X14991700Y-9504940D01*
X14991700Y-9505040D01*
X14991600Y-9505240D01*
X14991500Y-9505340D01*
X14991400Y-9505440D01*
X14991400Y-9505540D01*
X14991300Y-9505640D01*
X14991200Y-9505740D01*
X14991100Y-9505740D01*
X14991000Y-9505840D01*
X14990900Y-9505940D01*
X14990800Y-9506040D01*
X14990600Y-9506040D01*
X14990500Y-9506140D01*
X14990400Y-9506140D01*
X14990300Y-9506240D01*
X14990100Y-9506240D01*
X14990000Y-9506240D01*
X14989900Y-9506340D01*
X14989800Y-9506340D01*
X14989600Y-9506340D01*
X14989500Y-9506340D01*
X14984500Y-9506340D01*
X14984400Y-9506340D01*
X14984200Y-9506340D01*
X14984100Y-9506340D01*
X14984000Y-9506240D01*
X14983900Y-9506240D01*
X14983700Y-9506240D01*
X14983600Y-9506140D01*
X14983500Y-9506140D01*
X14983400Y-9506040D01*
X14983300Y-9506040D01*
X14983100Y-9505940D01*
X14983000Y-9505840D01*
X14982900Y-9505740D01*
X14982800Y-9505740D01*
X14982700Y-9505640D01*
X14982600Y-9505540D01*
X14982600Y-9505440D01*
X14982500Y-9505340D01*
X14982400Y-9505240D01*
X14982300Y-9505040D01*
X14982300Y-9504940D01*
X14982200Y-9504840D01*
X14982200Y-9504740D01*
X14982100Y-9504640D01*
X14982100Y-9504440D01*
X14982100Y-9504340D01*
X14982000Y-9504240D01*
X14982000Y-9504140D01*
X14982000Y-9503940D01*
X14982000Y-9503840D01*
X14982000Y-9498840D01*
X14982000Y-9498740D01*
X14982000Y-9498540D01*
X14982000Y-9498440D01*
X14982100Y-9498340D01*
X14982100Y-9498240D01*
X14982100Y-9498040D01*
X14982200Y-9497940D01*
X14982200Y-9497840D01*
X14982300Y-9497740D01*
X14982300Y-9497540D01*
X14982400Y-9497440D01*
X14982500Y-9497340D01*
X14982600Y-9497240D01*
X14982600Y-9497140D01*
X14982700Y-9497040D01*
X14982800Y-9496940D01*
X14982900Y-9496940D01*
X14983000Y-9496840D01*
X14983100Y-9496740D01*
X14983300Y-9496640D01*
X14983400Y-9496640D01*
X14983500Y-9496540D01*
X14983600Y-9496540D01*
X14983700Y-9496440D01*
X14983900Y-9496440D01*
X14984000Y-9496440D01*
X14984100Y-9496340D01*
X14984200Y-9496340D01*
X14984400Y-9496340D01*
X14984500Y-9496340D01*
X14989500Y-9496340D01*
X14989600Y-9496340D01*
X14989800Y-9496340D01*
X14989900Y-9496340D01*
X14990000Y-9496440D01*
G37*
%TO.C,JP2*%
G36*
X15304411Y-9851000D02*
G01*
X15454411Y-9851000D01*
X15454411Y-9821000D01*
X15304411Y-9821000D01*
X15304411Y-9851000D01*
G37*
%TO.C,JP3*%
G36*
X15233000Y-7091000D02*
G01*
X15203000Y-7091000D01*
X15203000Y-6941000D01*
X15233000Y-6941000D01*
X15233000Y-7091000D01*
G37*
D11*
%TO.C,U4*%
G36*
X17581435Y-8122725D02*
G01*
X17556035Y-8122725D01*
X17556035Y-8092245D01*
X17581435Y-8092245D01*
X17581435Y-8122725D01*
G37*
G36*
X17581435Y-8402125D02*
G01*
X17556035Y-8402125D01*
X17556035Y-8371645D01*
X17581435Y-8371645D01*
X17581435Y-8402125D01*
G37*
G36*
X17632235Y-8122725D02*
G01*
X17606835Y-8122725D01*
X17606835Y-8092245D01*
X17632235Y-8092245D01*
X17632235Y-8122725D01*
G37*
G36*
X17632235Y-8402125D02*
G01*
X17606835Y-8402125D01*
X17606835Y-8371645D01*
X17632235Y-8371645D01*
X17632235Y-8402125D01*
G37*
%TD*%
D12*
%TO.C,MCU1*%
X15061177Y-8006481D03*
X15032893Y-8034766D03*
X15004608Y-8063050D03*
X14976324Y-8091334D03*
X14948040Y-8119618D03*
X14919755Y-8147903D03*
X14891471Y-8176187D03*
X14863187Y-8204471D03*
X14834903Y-8232755D03*
X14806618Y-8261040D03*
X14778334Y-8289324D03*
X14750050Y-8317608D03*
X14721766Y-8345893D03*
X14693481Y-8374177D03*
D13*
X14693481Y-8487823D03*
X14721766Y-8516107D03*
X14750050Y-8544392D03*
X14778334Y-8572676D03*
X14806618Y-8600960D03*
X14834903Y-8629245D03*
D14*
X14863187Y-8657529D03*
D13*
X14891471Y-8685813D03*
X14919755Y-8714097D03*
X14948040Y-8742382D03*
X14976324Y-8770666D03*
X15004608Y-8798950D03*
X15032893Y-8827234D03*
X15061177Y-8855519D03*
D12*
X15174823Y-8855519D03*
X15203107Y-8827234D03*
X15231392Y-8798950D03*
X15259676Y-8770666D03*
X15287960Y-8742382D03*
X15316244Y-8714097D03*
X15344529Y-8685813D03*
X15372813Y-8657529D03*
X15401097Y-8629245D03*
X15429382Y-8600960D03*
X15457666Y-8572676D03*
X15485950Y-8544392D03*
X15514234Y-8516107D03*
X15542519Y-8487823D03*
D13*
X15542519Y-8374177D03*
X15514234Y-8345893D03*
X15485950Y-8317608D03*
X15457666Y-8289324D03*
X15429382Y-8261040D03*
X15401097Y-8232755D03*
X15372813Y-8204471D03*
X15344529Y-8176187D03*
X15316244Y-8147903D03*
X15287960Y-8119618D03*
X15259676Y-8091334D03*
X15231392Y-8063050D03*
X15203107Y-8034766D03*
X15174823Y-8006481D03*
D15*
X15118000Y-8431000D03*
%TD*%
D16*
%TO.C,J1*%
X14448000Y-7041000D03*
X14194000Y-7041000D03*
X13940000Y-7041000D03*
X13686000Y-7041000D03*
X13432000Y-7041000D03*
X13178000Y-7041000D03*
%TD*%
D17*
%TO.C,J6*%
X16788925Y-7187250D03*
D18*
X16188925Y-7187250D03*
D19*
X16798925Y-7297250D03*
X16723925Y-7297250D03*
D20*
X16663925Y-7297250D03*
D21*
X16613925Y-7297250D03*
D20*
X16563925Y-7297250D03*
X16513925Y-7297250D03*
X16463925Y-7297250D03*
X16413925Y-7297250D03*
X16363925Y-7297250D03*
D21*
X16313925Y-7297250D03*
D19*
X16253925Y-7297250D03*
X16178925Y-7297250D03*
D22*
X16628925Y-6877250D03*
X16348925Y-6877250D03*
D23*
X16920925Y-7259750D03*
X16056925Y-7259750D03*
D24*
X16920925Y-6877250D03*
X16056925Y-6877250D03*
%TD*%
D25*
%TO.C,J3*%
X17099500Y-9601000D03*
D26*
X16989500Y-9561000D03*
X16879500Y-9601000D03*
X16769500Y-9621000D03*
X16659500Y-9601000D03*
X16549500Y-9621000D03*
X16439500Y-9601000D03*
X16329500Y-9601000D03*
D27*
X16410500Y-8546000D03*
X16980500Y-8546000D03*
D28*
X16250500Y-9861000D03*
X17565500Y-9961000D03*
%TD*%
D29*
%TO.C,XTAL2*%
X14384508Y-9291992D03*
X14533000Y-9143500D03*
X14416327Y-9026827D03*
X14267835Y-9175320D03*
%TD*%
D30*
%TO.C,MP3*%
X11118000Y-8198500D03*
D31*
X11118000Y-8413500D03*
D30*
X11118000Y-8628500D03*
%TD*%
D32*
%TO.C,MP4*%
X12583000Y-9431000D03*
D33*
X12368000Y-9431000D03*
D32*
X12153000Y-9431000D03*
%TD*%
D30*
%TO.C,MP1*%
X13618000Y-8628500D03*
D31*
X13618000Y-8413500D03*
D30*
X13618000Y-8198500D03*
%TD*%
D32*
%TO.C,MP2*%
X12170500Y-7431000D03*
D33*
X12385500Y-7431000D03*
D32*
X12600500Y-7431000D03*
%TD*%
D34*
%TO.C,U7*%
X14417780Y-7831000D03*
D35*
X14417780Y-7736000D03*
X14417780Y-7641000D03*
D34*
X14128220Y-7641000D03*
X14128220Y-7736000D03*
D35*
X14128220Y-7831000D03*
D36*
X14273000Y-7736000D03*
%TD*%
D37*
%TO.C,XTAL1*%
X13195503Y-8109188D03*
X13195503Y-8254188D03*
X13310503Y-8254188D03*
X13310503Y-8109188D03*
%TD*%
D38*
%TO.C,D4*%
X16233500Y-7536000D03*
X15912500Y-7536000D03*
%TD*%
D39*
%TO.C,U2*%
X15894736Y-9015710D03*
D40*
X15855223Y-9055223D03*
D39*
X15925269Y-9125269D03*
X15964782Y-9085756D03*
%TD*%
D41*
%TO.C,C3*%
X13220582Y-8591888D03*
X13220582Y-8706188D03*
%TD*%
D42*
%TO.C,R15*%
X15254008Y-9360250D03*
X15254008Y-9249690D03*
%TD*%
D41*
%TO.C,C22*%
X15128206Y-9247820D03*
X15128206Y-9362120D03*
%TD*%
D43*
%TO.C,U6*%
X14853510Y-7260000D03*
X14853510Y-7387000D03*
X14853510Y-7514000D03*
X14853510Y-7641000D03*
X15582490Y-7641000D03*
X15582490Y-7514000D03*
X15582490Y-7387000D03*
X15582490Y-7260000D03*
%TD*%
D44*
%TO.C,C21*%
X11820850Y-7971000D03*
X11935150Y-7971000D03*
%TD*%
D45*
%TO.C,H4*%
X19698000Y-9861000D03*
%TD*%
%TO.C,H1*%
X10338000Y-7001000D03*
%TD*%
D46*
%TO.C,U1*%
X13033432Y-8498708D03*
X13033432Y-8448708D03*
X13033432Y-8398708D03*
X13033432Y-8348708D03*
X13033432Y-8298708D03*
X13033432Y-8248708D03*
D47*
X12961582Y-8176858D03*
X12911582Y-8176858D03*
X12861582Y-8176858D03*
X12811582Y-8176858D03*
X12761582Y-8176858D03*
X12711582Y-8176858D03*
D46*
X12639732Y-8248708D03*
X12639732Y-8298708D03*
X12639732Y-8348708D03*
X12639732Y-8398708D03*
X12639732Y-8448708D03*
X12639732Y-8498708D03*
D47*
X12711582Y-8570558D03*
X12761582Y-8570558D03*
X12811582Y-8570558D03*
X12861582Y-8570558D03*
X12911582Y-8570558D03*
X12961582Y-8570558D03*
D48*
X12836582Y-8373708D03*
%TD*%
D49*
%TO.C,R17*%
X16298560Y-7991000D03*
X16188000Y-7991000D03*
%TD*%
D50*
%TO.C,L4*%
X11820064Y-8140933D03*
X11820064Y-8096933D03*
%TD*%
D51*
%TO.C,C12*%
X16054500Y-9997000D03*
X16054500Y-9817000D03*
%TD*%
D52*
%TO.C,C28*%
X14725072Y-8846428D03*
X14644250Y-8927250D03*
%TD*%
D41*
%TO.C,C16*%
X17308000Y-8006700D03*
X17308000Y-8121000D03*
%TD*%
D52*
%TO.C,C10*%
X16070411Y-9139589D03*
X15989589Y-9220411D03*
%TD*%
D44*
%TO.C,C1*%
X13096882Y-8708358D03*
X12982582Y-8708358D03*
%TD*%
D41*
%TO.C,C38*%
X14548000Y-7618850D03*
X14548000Y-7733150D03*
%TD*%
D53*
%TO.C,C32*%
X15644855Y-8591828D03*
X15725677Y-8672650D03*
%TD*%
D54*
%TO.C,R11*%
X18169395Y-8147185D03*
X18169395Y-8297185D03*
%TD*%
D41*
%TO.C,C15*%
X11757564Y-8910203D03*
X11757564Y-8795903D03*
%TD*%
D53*
%TO.C,C35*%
X15390178Y-8843178D03*
X15471000Y-8924000D03*
%TD*%
D55*
%TO.C,CR4*%
X18538915Y-8127185D03*
X18538915Y-8317685D03*
X18749735Y-8222435D03*
%TD*%
D56*
%TO.C,J5*%
X14888000Y-9661000D03*
X14788000Y-9661000D03*
X14688000Y-9661000D03*
D57*
X14558000Y-9913500D03*
X15018000Y-9913500D03*
%TD*%
D58*
%TO.C,JP2*%
X15379411Y-9901000D03*
D59*
X15379411Y-9771000D03*
%TD*%
D60*
%TO.C,IC2*%
X17792713Y-9261000D03*
X17983713Y-9261000D03*
X17888213Y-9051000D03*
%TD*%
D49*
%TO.C,R24*%
X14968000Y-7086000D03*
X14857440Y-7086000D03*
%TD*%
D42*
%TO.C,R10*%
X18809325Y-7982155D03*
X18809325Y-8092715D03*
%TD*%
D54*
%TO.C,R13*%
X18088000Y-7516000D03*
X18088000Y-7366000D03*
%TD*%
D42*
%TO.C,R19*%
X15002403Y-9360250D03*
X15002403Y-9249690D03*
%TD*%
D44*
%TO.C,C19*%
X11820850Y-7851000D03*
X11935150Y-7851000D03*
%TD*%
D42*
%TO.C,R23*%
X16357000Y-7491000D03*
X16357000Y-7601560D03*
%TD*%
D61*
%TO.C,U3*%
X11887564Y-8280933D03*
X11822565Y-8280933D03*
D62*
X11757564Y-8280933D03*
D61*
X11692565Y-8280933D03*
D63*
X11598294Y-8375203D03*
X11598294Y-8440203D03*
X11598294Y-8505203D03*
X11598294Y-8570203D03*
D61*
X11692565Y-8664473D03*
X11757564Y-8664473D03*
X11822565Y-8664473D03*
X11887564Y-8664473D03*
D63*
X11981834Y-8570203D03*
X11981834Y-8505203D03*
X11981834Y-8440203D03*
X11981834Y-8375203D03*
D48*
X11790064Y-8472703D03*
%TD*%
D49*
%TO.C,R1*%
X13402142Y-8399188D03*
X13291582Y-8399188D03*
%TD*%
D64*
%TO.C,C30*%
X15464678Y-8081754D03*
X15545501Y-8000932D03*
%TD*%
D65*
%TO.C,L2*%
X12665000Y-8910000D03*
X12575000Y-8910000D03*
%TD*%
D41*
%TO.C,C5*%
X12759732Y-8042658D03*
X12759732Y-7928358D03*
%TD*%
D42*
%TO.C,R9*%
X17873915Y-8341905D03*
X17873915Y-8452465D03*
%TD*%
%TO.C,R18*%
X14877000Y-9360250D03*
X14877000Y-9249690D03*
%TD*%
D64*
%TO.C,C33*%
X15548455Y-8165531D03*
X15629277Y-8084708D03*
%TD*%
D44*
%TO.C,C7*%
X12633732Y-8039188D03*
X12519432Y-8039188D03*
%TD*%
D64*
%TO.C,C27*%
X15716007Y-8333083D03*
X15796830Y-8252261D03*
%TD*%
D41*
%TO.C,C17*%
X11468000Y-8371000D03*
X11468000Y-8256700D03*
%TD*%
D66*
%TO.C,D1*%
X13908170Y-7321000D03*
X13908170Y-7271000D03*
X13908170Y-7221000D03*
X13737990Y-7221000D03*
X13737990Y-7271000D03*
X13737990Y-7321000D03*
%TD*%
D52*
%TO.C,C25*%
X15461724Y-7917156D03*
X15380902Y-7997978D03*
%TD*%
D67*
%TO.C,CR1*%
X18088000Y-7201000D03*
X18088000Y-7051000D03*
%TD*%
D41*
%TO.C,C18*%
X11348000Y-8371000D03*
X11348000Y-8256700D03*
%TD*%
D54*
%TO.C,R6*%
X17788000Y-9416000D03*
X17788000Y-9566000D03*
%TD*%
D68*
%TO.C,U5*%
X17754300Y-7201000D03*
X17754300Y-7051000D03*
X17513000Y-7051000D03*
X17513000Y-7201000D03*
%TD*%
D44*
%TO.C,C13*%
X12077850Y-9100000D03*
X12192150Y-9100000D03*
%TD*%
D45*
%TO.C,H2*%
X19698000Y-7001000D03*
%TD*%
D41*
%TO.C,C14*%
X11881280Y-8912850D03*
X11881280Y-9027150D03*
%TD*%
D69*
%TO.C,C31*%
X14947911Y-7892911D03*
X14867089Y-7812089D03*
%TD*%
D54*
%TO.C,R4*%
X17903000Y-7366000D03*
X17903000Y-7516000D03*
%TD*%
D66*
%TO.C,IC1*%
X17716820Y-7656800D03*
X17716820Y-7606000D03*
X17716820Y-7555200D03*
X17549180Y-7555200D03*
X17549180Y-7606000D03*
X17549180Y-7656800D03*
%TD*%
D42*
%TO.C,R3*%
X17028000Y-8282185D03*
X17028000Y-8171625D03*
%TD*%
D45*
%TO.C,H3*%
X10338000Y-9861000D03*
%TD*%
D49*
%TO.C,R16*%
X16298560Y-7868584D03*
X16188000Y-7868584D03*
%TD*%
D70*
%TO.C,R21*%
X14213232Y-9445986D03*
X14135054Y-9367808D03*
%TD*%
D53*
%TO.C,C26*%
X15728837Y-8507518D03*
X15809659Y-8588341D03*
%TD*%
D69*
%TO.C,C41*%
X15723411Y-9006411D03*
X15642589Y-8925589D03*
%TD*%
D44*
%TO.C,C9*%
X12503000Y-8349188D03*
X12388700Y-8349188D03*
%TD*%
D71*
%TO.C,J2*%
X19727225Y-8122435D03*
X19727225Y-8322435D03*
D72*
X19179225Y-7952435D03*
X19179225Y-8492435D03*
%TD*%
D54*
%TO.C,R14*%
X17178000Y-7516000D03*
X17178000Y-7366000D03*
%TD*%
D69*
%TO.C,C29*%
X14721414Y-8154421D03*
X14640591Y-8073598D03*
%TD*%
D42*
%TO.C,R2*%
X17183915Y-8071625D03*
X17183915Y-8182185D03*
%TD*%
D41*
%TO.C,C20*%
X17878915Y-8107185D03*
X17878915Y-7992885D03*
%TD*%
D65*
%TO.C,L3*%
X12180000Y-8910000D03*
X12090000Y-8910000D03*
%TD*%
D73*
%TO.C,J4*%
X10560000Y-7914000D03*
D74*
X10814000Y-7660000D03*
X10814000Y-8168000D03*
X10306000Y-7660000D03*
X10306000Y-8168000D03*
%TD*%
D42*
%TO.C,R20*%
X15379411Y-9360250D03*
X15379411Y-9249690D03*
%TD*%
D53*
%TO.C,C34*%
X14045344Y-9454874D03*
X14126166Y-9535696D03*
%TD*%
D44*
%TO.C,C2*%
X14288000Y-7241000D03*
X14402300Y-7241000D03*
%TD*%
D75*
%TO.C,L1*%
X12591582Y-7814188D03*
X12301582Y-7814188D03*
%TD*%
D44*
%TO.C,C6*%
X14288000Y-7481000D03*
X14402300Y-7481000D03*
%TD*%
D76*
%TO.C,LS1*%
X18748000Y-9991000D03*
X18748000Y-8871000D03*
%TD*%
D44*
%TO.C,C37*%
X15908700Y-7716000D03*
X16023000Y-7716000D03*
%TD*%
D67*
%TO.C,CR2*%
X17178000Y-7201000D03*
X17178000Y-7051000D03*
%TD*%
D77*
%TO.C,D3*%
X16589000Y-7562040D03*
X16539000Y-7562040D03*
X16489000Y-7562040D03*
X16489000Y-7732220D03*
X16539000Y-7732220D03*
X16589000Y-7732220D03*
%TD*%
D44*
%TO.C,C4*%
X14288000Y-7361000D03*
X14402300Y-7361000D03*
%TD*%
D78*
%TO.C,R7*%
X18043000Y-8876000D03*
X17893000Y-8876000D03*
%TD*%
D42*
%TO.C,R8*%
X18003915Y-8341905D03*
X18003915Y-8452465D03*
%TD*%
D79*
%TO.C,R25*%
X15730617Y-8845764D03*
X15808795Y-8923942D03*
%TD*%
D64*
%TO.C,C24*%
X15632231Y-8249307D03*
X15713053Y-8168484D03*
%TD*%
D54*
%TO.C,R5*%
X17363000Y-7516000D03*
X17363000Y-7366000D03*
%TD*%
D80*
%TO.C,D2*%
X15813523Y-9416188D03*
X15778168Y-9380832D03*
X15742812Y-9345477D03*
X15622477Y-9465812D03*
X15657832Y-9501168D03*
X15693188Y-9536523D03*
%TD*%
D41*
%TO.C,C11*%
X12380000Y-8910000D03*
X12380000Y-8795700D03*
%TD*%
D81*
%TO.C,JP3*%
X15283000Y-7016000D03*
D82*
X15153000Y-7016000D03*
%TD*%
D44*
%TO.C,C40*%
X15582300Y-7086000D03*
X15468000Y-7086000D03*
%TD*%
D49*
%TO.C,R22*%
X16842280Y-7464000D03*
X16731720Y-7464000D03*
%TD*%
D42*
%TO.C,R12*%
X18809325Y-8352435D03*
X18809325Y-8462995D03*
%TD*%
D64*
%TO.C,C23*%
X14729250Y-9012250D03*
X14810072Y-8931428D03*
%TD*%
D44*
%TO.C,C8*%
X12856882Y-8708358D03*
X12742582Y-8708358D03*
%TD*%
D83*
%TO.C,U4*%
X17449355Y-8147185D03*
X17449355Y-8197185D03*
X17449355Y-8247185D03*
X17449355Y-8297185D03*
X17449355Y-8347185D03*
X17738915Y-8347185D03*
X17738915Y-8297185D03*
X17738915Y-8247185D03*
X17738915Y-8197185D03*
X17738915Y-8147185D03*
D84*
X17594135Y-8247185D03*
%TD*%
G36*
X13662304Y-7382968D02*
G01*
X13666879Y-7388249D01*
X13668000Y-7393400D01*
X13668000Y-7518600D01*
X13666031Y-7525304D01*
X13660751Y-7529879D01*
X13655600Y-7531000D01*
X13580400Y-7531000D01*
X13573696Y-7529031D01*
X13569121Y-7523751D01*
X13568000Y-7518600D01*
X13568000Y-7481000D01*
X10148000Y-7481000D01*
X10148000Y-8381000D01*
X11068000Y-8381000D01*
X11068000Y-8089900D01*
X11069969Y-8083196D01*
X11075249Y-8078621D01*
X11080400Y-8077500D01*
X11155600Y-8077500D01*
X11162304Y-8079468D01*
X11166879Y-8084749D01*
X11168000Y-8089900D01*
X11168000Y-9381000D01*
X13655600Y-9381000D01*
X13662304Y-9382969D01*
X13666879Y-9388249D01*
X13668000Y-9393400D01*
X13668000Y-9468600D01*
X13666031Y-9475304D01*
X13660751Y-9479879D01*
X13655600Y-9481000D01*
X11080400Y-9481000D01*
X11073696Y-9479032D01*
X11069121Y-9473751D01*
X11068000Y-9468600D01*
X11068000Y-8481500D01*
X10060400Y-8481500D01*
X10053696Y-8479532D01*
X10049121Y-8474251D01*
X10048000Y-8469100D01*
X10048000Y-7393400D01*
X10049969Y-7386696D01*
X10055249Y-7382121D01*
X10060400Y-7381000D01*
X13655600Y-7381000D01*
X13662304Y-7382968D01*
G37*
G36*
X13662304Y-7894468D02*
G01*
X13666879Y-7899749D01*
X13668000Y-7904900D01*
X13668000Y-9148600D01*
X13666031Y-9155304D01*
X13660751Y-9159879D01*
X13655600Y-9161000D01*
X13580400Y-9161000D01*
X13573696Y-9159032D01*
X13569121Y-9153751D01*
X13568000Y-9148600D01*
X13568000Y-7904900D01*
X13569968Y-7898196D01*
X13575249Y-7893621D01*
X13580400Y-7892500D01*
X13655600Y-7892500D01*
X13662304Y-7894468D01*
G37*
M02*
