%TF.GenerationSoftware,KiCad,Pcbnew,9.0.2+1*%
%TF.CreationDate,2025-05-31T23:41:08+01:00*%
%TF.ProjectId,OBC,4f42432e-6b69-4636-9164-5f7063625858,rev?*%
%TF.SameCoordinates,Original*%
%TF.FileFunction,Plated,1,4,PTH,Mixed*%
%TF.FilePolarity,Positive*%
%FSLAX46Y46*%
G04 Gerber Fmt 4.6, Leading zero omitted, Abs format (unit mm)*
G04 Created by KiCad (PCBNEW 9.0.2+1) date 2025-05-31 23:41:08*
%MOMM*%
%LPD*%
G01*
G04 APERTURE LIST*
%TA.AperFunction,ViaDrill*%
%ADD10C,0.200000*%
%TD*%
%TA.AperFunction,ViaDrill*%
%ADD11C,0.250000*%
%TD*%
%TA.AperFunction,ViaDrill*%
%ADD12C,0.300000*%
%TD*%
G04 aperture for slot hole*
%TA.AperFunction,ComponentDrill*%
%ADD13C,0.650000*%
%TD*%
%TA.AperFunction,ComponentDrill*%
%ADD14C,1.193800*%
%TD*%
%TA.AperFunction,ComponentDrill*%
%ADD15C,1.550000*%
%TD*%
%TA.AperFunction,ComponentDrill*%
%ADD16C,1.650000*%
%TD*%
G04 APERTURE END LIST*
D10*
X114080000Y-82567001D03*
X114350000Y-90875000D03*
X114956463Y-91283537D03*
X116200000Y-83000000D03*
X116943544Y-83759689D03*
X116943544Y-84734845D03*
X116943544Y-85710000D03*
X117912260Y-83759689D03*
X117912260Y-84734845D03*
X117912260Y-85710000D03*
X118368639Y-91411353D03*
X118812801Y-90787199D03*
X118880000Y-91960000D03*
X118880975Y-83759689D03*
X118880975Y-84734845D03*
X118880975Y-85710000D03*
X119351502Y-79092162D03*
X119400000Y-91400000D03*
X119880000Y-87360000D03*
X120636423Y-87419386D03*
X121280000Y-86200000D03*
X121280939Y-86952089D03*
X121748988Y-83835746D03*
X121882855Y-79449951D03*
X122178642Y-80166188D03*
X122230000Y-85160000D03*
X122232416Y-85909998D03*
X122844537Y-84250870D03*
X122850391Y-83500891D03*
X123800000Y-87423600D03*
X123880000Y-83010000D03*
X124460000Y-78650000D03*
X124780000Y-80760000D03*
X124900000Y-82800000D03*
X125500000Y-81500000D03*
X125680000Y-83491877D03*
X125700000Y-85700000D03*
X125900000Y-76500000D03*
X126330000Y-86310000D03*
X126380000Y-82160000D03*
X127396284Y-82764844D03*
X127396284Y-83740000D03*
X127396284Y-84715155D03*
X127599908Y-78717074D03*
X127615822Y-86437078D03*
X127615823Y-81160000D03*
X128060000Y-76590000D03*
X128251323Y-80420000D03*
X128365000Y-82764844D03*
X128365000Y-83740000D03*
X128365000Y-84715155D03*
X128966195Y-77516195D03*
X129333715Y-82764844D03*
X129333715Y-83740000D03*
X129333715Y-84715155D03*
X129700000Y-78150000D03*
X129825824Y-86474176D03*
X130528695Y-77488695D03*
X130750000Y-81250000D03*
X131161524Y-84487077D03*
X131721635Y-77681685D03*
X132205825Y-87694175D03*
X132438406Y-81889489D03*
X132510000Y-77216685D03*
X132700000Y-91250000D03*
X132725000Y-79485000D03*
X133590000Y-79470000D03*
X134021423Y-84839083D03*
X134216000Y-82400000D03*
X134220000Y-78970000D03*
X134825000Y-80800000D03*
X134831681Y-82828300D03*
X135580000Y-77216685D03*
X136680799Y-72709999D03*
X137940000Y-80900000D03*
X137955720Y-88142763D03*
X137957116Y-85717782D03*
X137958882Y-91560295D03*
X137980000Y-92310000D03*
X138529999Y-74609999D03*
X138580799Y-72709999D03*
X138680000Y-81760000D03*
X138680000Y-83160000D03*
X139300000Y-74600000D03*
X139626160Y-76004123D03*
X140000000Y-72600000D03*
X140131195Y-82718805D03*
X140380000Y-76010000D03*
X141220443Y-91689409D03*
X141400000Y-72975000D03*
X141400000Y-74275000D03*
X141530000Y-95610000D03*
X142100000Y-85100000D03*
X142230000Y-76510000D03*
X142230000Y-77385000D03*
X142230000Y-78260000D03*
X142410148Y-90499704D03*
X142480000Y-93210000D03*
X142580000Y-82310000D03*
X142880000Y-72960000D03*
X142880000Y-74260000D03*
X143080000Y-85010000D03*
X143180000Y-76510000D03*
X143180000Y-77385000D03*
X143180000Y-78260000D03*
X143350000Y-83295000D03*
X143375000Y-81975000D03*
X143599853Y-89309999D03*
X143930000Y-87860000D03*
X143990295Y-94499705D03*
X144360710Y-81949994D03*
X144400000Y-83295000D03*
X144630000Y-84310000D03*
X144710000Y-89130000D03*
X144780000Y-80510000D03*
X144980000Y-81510000D03*
X145180000Y-93310000D03*
X145200000Y-84900000D03*
X145480000Y-75660000D03*
X145500000Y-78300000D03*
X145600000Y-90000000D03*
X145675000Y-83600000D03*
X146030000Y-84810000D03*
X146080000Y-80410000D03*
X146369705Y-92120295D03*
X146399999Y-90799999D03*
X146550000Y-71700000D03*
X146880000Y-89710000D03*
X147200000Y-73250000D03*
X147200000Y-75150000D03*
X147300000Y-67500000D03*
X147330000Y-80610000D03*
X147450000Y-78300000D03*
X147880001Y-95488400D03*
X148150000Y-90950000D03*
X148256655Y-78525000D03*
X148380000Y-81060000D03*
X148620000Y-85460000D03*
X149030000Y-82810000D03*
X149370001Y-95288400D03*
X149480000Y-84310000D03*
X149655341Y-76410000D03*
X149980000Y-86760000D03*
X150000000Y-74610000D03*
X150135620Y-76842796D03*
X150200000Y-90500000D03*
X150280000Y-73910000D03*
X150280000Y-85210000D03*
X150330000Y-83460000D03*
X150580000Y-81410000D03*
X150880000Y-76710000D03*
X150900000Y-87600000D03*
X150930000Y-73060000D03*
X150997131Y-78351401D03*
X151100000Y-74000000D03*
X151180000Y-82610000D03*
X151180000Y-84310000D03*
X151180000Y-86010000D03*
X151282057Y-94309699D03*
X151600000Y-72700000D03*
X151620000Y-81130000D03*
X151680000Y-87510000D03*
X151748231Y-78410000D03*
X151750000Y-97450000D03*
X151880000Y-91360000D03*
X152030000Y-83460000D03*
X152030000Y-85160000D03*
X152125000Y-81810000D03*
X152480000Y-90860000D03*
X152540084Y-94309699D03*
X152600000Y-86400000D03*
X152625149Y-73845149D03*
X152650000Y-82410000D03*
X152770000Y-76090000D03*
X152880000Y-84310000D03*
X153000000Y-88520000D03*
X153195000Y-85700000D03*
X153410000Y-83150000D03*
X153622255Y-74897724D03*
X153700000Y-78100000D03*
X153750000Y-72700000D03*
X153761561Y-87630000D03*
X153860000Y-85120000D03*
X153930000Y-70860000D03*
X153983752Y-83647688D03*
X154380000Y-74910000D03*
X154410000Y-87980000D03*
X154500000Y-87100000D03*
X154600000Y-84120000D03*
X154860000Y-93490000D03*
X154987844Y-79602156D03*
X155080000Y-89610000D03*
X155250000Y-92000000D03*
X155740000Y-85670000D03*
X155780243Y-80394555D03*
X155880000Y-95710000D03*
X156020000Y-91190000D03*
X156100000Y-92840000D03*
X156700000Y-78700000D03*
X156790000Y-81404312D03*
X156915000Y-92084999D03*
X157100000Y-96500000D03*
X157280000Y-84610000D03*
X157487844Y-82102156D03*
X157623227Y-86356773D03*
X157630000Y-90460000D03*
X157700000Y-78500000D03*
X157830000Y-96260000D03*
X158031195Y-93018805D03*
X158150000Y-88275000D03*
X158830000Y-99660000D03*
X158900000Y-85300000D03*
X159070848Y-88610778D03*
X159200000Y-94200000D03*
X159325000Y-78525000D03*
X159325000Y-80075000D03*
X159350000Y-81500000D03*
X159500888Y-91809112D03*
X159620000Y-89140000D03*
X160180000Y-78950418D03*
X160180000Y-79740000D03*
X160230000Y-76610000D03*
X160550000Y-74950000D03*
X160550000Y-83850000D03*
X160950000Y-87400000D03*
X161130000Y-91110000D03*
X161250000Y-95925000D03*
X161550000Y-98170000D03*
X161789250Y-73900750D03*
X161900000Y-82500000D03*
X162088878Y-92455560D03*
X162335000Y-76985000D03*
X163000000Y-93210000D03*
X163570000Y-76520000D03*
X163700000Y-91800000D03*
X164150000Y-80250000D03*
X164300000Y-86900000D03*
X164400000Y-74100000D03*
X165390000Y-75110000D03*
X165390000Y-77860000D03*
X166100000Y-74100000D03*
X166700000Y-94500000D03*
X167600000Y-82970343D03*
X167850000Y-81400000D03*
X168422799Y-74077201D03*
X170050000Y-74650000D03*
X170275000Y-81225000D03*
X170400000Y-71450000D03*
X171080000Y-81970744D03*
X171780000Y-75860000D03*
X172600000Y-80075000D03*
X173400000Y-69300000D03*
X173800000Y-95067500D03*
X174200000Y-99600000D03*
X174550000Y-95610000D03*
X175070000Y-73600000D03*
X175070000Y-74750000D03*
X175180000Y-76860000D03*
X175480000Y-81610000D03*
X175480000Y-82460000D03*
X175480000Y-83310000D03*
X175950000Y-80100000D03*
X176000000Y-91700000D03*
X176380000Y-81610000D03*
X176380000Y-82460000D03*
X176380000Y-83310000D03*
X176400000Y-77800000D03*
X176850000Y-73600000D03*
X176850000Y-74750000D03*
X177150000Y-99600000D03*
X177390000Y-84480000D03*
X178800000Y-77050000D03*
X179200000Y-69300000D03*
X179400000Y-79925000D03*
X180880000Y-75860000D03*
X181300000Y-80500000D03*
X181600000Y-85300000D03*
X184200000Y-80550000D03*
X184200000Y-87500000D03*
X184200000Y-93250000D03*
X184200000Y-97600000D03*
X185600000Y-90800000D03*
X188093252Y-85193252D03*
X191100000Y-97700000D03*
D11*
X128292780Y-79628650D03*
X129119711Y-78771932D03*
X138900000Y-96900000D03*
X138900000Y-99600000D03*
X139800000Y-85700000D03*
X139800000Y-88200000D03*
X139800000Y-90700000D03*
X139900000Y-92900000D03*
X141050000Y-86950000D03*
X141050000Y-89450000D03*
X141900000Y-99600000D03*
X142300000Y-88200000D03*
X142900000Y-95600000D03*
X143550000Y-86950000D03*
X144400000Y-96350000D03*
X145625000Y-86525000D03*
X145830000Y-97560000D03*
X145862234Y-94767767D03*
X147575000Y-69375000D03*
X147630001Y-93000000D03*
X147900000Y-99600000D03*
X150075000Y-69375000D03*
X153800000Y-78849847D03*
X154275000Y-69375000D03*
X155530000Y-93960000D03*
X156775000Y-69375000D03*
X157700000Y-71250000D03*
X157700000Y-73750000D03*
X157700000Y-76250000D03*
X163995000Y-98610000D03*
X165070000Y-98385000D03*
X165450000Y-83550000D03*
X165495000Y-97510000D03*
X166300000Y-90600000D03*
X167600000Y-76100000D03*
X168195000Y-83550000D03*
X168864442Y-79014143D03*
X169300000Y-99300000D03*
X170450000Y-77150800D03*
X171014442Y-79039143D03*
X171800000Y-99300000D03*
X172300000Y-83550000D03*
X172950000Y-77150800D03*
X173404400Y-87340000D03*
X173450000Y-85000000D03*
X175904400Y-87340000D03*
X175950000Y-85000000D03*
X177800000Y-97900000D03*
X179837125Y-93634387D03*
X180300000Y-97900000D03*
X184200000Y-68100000D03*
X184200000Y-71750000D03*
X184200000Y-78250000D03*
X185400000Y-85200000D03*
X186700000Y-68100000D03*
X187167767Y-86967767D03*
X189200000Y-68100000D03*
X191700000Y-68100000D03*
X193000000Y-89600000D03*
X193000000Y-94200000D03*
X193000007Y-74699234D03*
X195500000Y-74700000D03*
X195500000Y-89600000D03*
X195500000Y-94200000D03*
X195500007Y-79209099D03*
X198000000Y-74700000D03*
X198000000Y-79209865D03*
X198000000Y-89600000D03*
X198000000Y-94200000D03*
D12*
X101000000Y-74340000D03*
X101000000Y-79310000D03*
X101000000Y-84310000D03*
X106000000Y-72200000D03*
X106000000Y-74340000D03*
X106090000Y-84311231D03*
X111000000Y-72200000D03*
X111000000Y-74340000D03*
X111172762Y-94310589D03*
X111175000Y-95800000D03*
X111180000Y-84310000D03*
X111180000Y-89310000D03*
X116000000Y-72200000D03*
X116000000Y-74340000D03*
X116180000Y-94310000D03*
X116180000Y-95800000D03*
X121000000Y-72200000D03*
X121000000Y-74340000D03*
X121180000Y-94310000D03*
X121180000Y-95800000D03*
X126000000Y-72200000D03*
X126000000Y-74340000D03*
X126180000Y-94310000D03*
X126180000Y-95800000D03*
X130100000Y-68500000D03*
X131000000Y-74340000D03*
X131180000Y-94310000D03*
X131180000Y-95800000D03*
X131200000Y-72200000D03*
X134825000Y-87055580D03*
X134875000Y-72200000D03*
X136000000Y-74340000D03*
X136180000Y-79300000D03*
X136180000Y-84310000D03*
X136180000Y-89310000D03*
X136180000Y-94310000D03*
X136180000Y-95800000D03*
X155200000Y-99000000D03*
X158800000Y-68000000D03*
X162180000Y-81110000D03*
X164900000Y-69100000D03*
X165450000Y-85460000D03*
X167600000Y-80390000D03*
X168195000Y-85460000D03*
X175655000Y-97770000D03*
X177780000Y-74560000D03*
X183280000Y-79810000D03*
X183280000Y-85010000D03*
X186644351Y-82224351D03*
D13*
%TO.C,J6*%
X160569250Y-68122500D02*
X160569250Y-69422500D01*
X160569250Y-72097500D02*
X160569250Y-73097500D01*
X169209250Y-68122500D02*
X169209250Y-69422500D01*
X169209250Y-72097500D02*
X169209250Y-73097500D01*
D14*
%TO.C,J1*%
X131780000Y-70410000D03*
X134320000Y-70410000D03*
X136860000Y-70410000D03*
X139400000Y-70410000D03*
X141940000Y-70410000D03*
X144480000Y-70410000D03*
D15*
%TO.C,J4*%
X105600000Y-79140000D03*
D16*
X103060000Y-76600000D03*
X103060000Y-81680000D03*
X108140000Y-76600000D03*
X108140000Y-81680000D03*
M02*
