%TF.GenerationSoftware,KiCad,Pcbnew,9.0.2+1*%
%TF.CreationDate,2025-05-31T23:41:08+01:00*%
%TF.ProjectId,OBC,4f42432e-6b69-4636-9164-5f7063625858,rev?*%
%TF.SameCoordinates,Original*%
%TF.FileFunction,Drillmap*%
%TF.FilePolarity,Positive*%
%FSLAX45Y45*%
G04 Gerber Fmt 4.5, Leading zero omitted, Abs format (unit mm)*
G04 Created by KiCad (PCBNEW 9.0.2+1) date 2025-05-31 23:41:08*
%MOMM*%
%LPD*%
G01*
G04 APERTURE LIST*
%ADD10C,0.050000*%
%ADD11C,0.200000*%
%ADD12C,0.100000*%
%ADD13C,0.119380*%
%ADD14C,0.155000*%
%ADD15C,0.165000*%
G04 APERTURE END LIST*
D10*
X10338000Y-10181000D02*
X19698000Y-10181000D01*
X10018000Y-7001000D02*
X10018000Y-9861000D01*
X19698000Y-6681000D02*
G75*
G02*
X20018000Y-7001000I0J-320000D01*
G01*
X20018000Y-7001000D02*
X20018000Y-9861000D01*
X20018000Y-9861000D02*
G75*
G02*
X19698000Y-10181000I-320000J0D01*
G01*
X10018000Y-7001000D02*
G75*
G02*
X10338000Y-6681000I320000J0D01*
G01*
X10338000Y-10181000D02*
G75*
G02*
X10018000Y-9861000I0J320000D01*
G01*
X19698000Y-6681000D02*
X10338000Y-6681000D01*
D11*
D12*
X11398000Y-8246700D02*
X11418000Y-8266700D01*
X11418000Y-8246700D02*
X11398000Y-8266700D01*
X11425000Y-9077500D02*
X11445000Y-9097500D01*
X11445000Y-9077500D02*
X11425000Y-9097500D01*
X11485646Y-9118354D02*
X11505646Y-9138354D01*
X11505646Y-9118354D02*
X11485646Y-9138354D01*
X11610000Y-8290000D02*
X11630000Y-8310000D01*
X11630000Y-8290000D02*
X11610000Y-8310000D01*
X11684354Y-8365969D02*
X11704354Y-8385969D01*
X11704354Y-8365969D02*
X11684354Y-8385969D01*
X11684354Y-8463485D02*
X11704354Y-8483485D01*
X11704354Y-8463485D02*
X11684354Y-8483485D01*
X11684354Y-8561000D02*
X11704354Y-8581000D01*
X11704354Y-8561000D02*
X11684354Y-8581000D01*
X11781226Y-8365969D02*
X11801226Y-8385969D01*
X11801226Y-8365969D02*
X11781226Y-8385969D01*
X11781226Y-8463485D02*
X11801226Y-8483485D01*
X11801226Y-8463485D02*
X11781226Y-8483485D01*
X11781226Y-8561000D02*
X11801226Y-8581000D01*
X11801226Y-8561000D02*
X11781226Y-8581000D01*
X11826864Y-9131135D02*
X11846864Y-9151135D01*
X11846864Y-9131135D02*
X11826864Y-9151135D01*
X11871280Y-9068720D02*
X11891280Y-9088720D01*
X11891280Y-9068720D02*
X11871280Y-9088720D01*
X11878000Y-9186000D02*
X11898000Y-9206000D01*
X11898000Y-9186000D02*
X11878000Y-9206000D01*
X11878097Y-8365969D02*
X11898097Y-8385969D01*
X11898097Y-8365969D02*
X11878097Y-8385969D01*
X11878097Y-8463485D02*
X11898097Y-8483485D01*
X11898097Y-8463485D02*
X11878097Y-8483485D01*
X11878097Y-8561000D02*
X11898097Y-8581000D01*
X11898097Y-8561000D02*
X11878097Y-8581000D01*
X11925150Y-7899216D02*
X11945150Y-7919216D01*
X11945150Y-7899216D02*
X11925150Y-7919216D01*
X11930000Y-9130000D02*
X11950000Y-9150000D01*
X11950000Y-9130000D02*
X11930000Y-9150000D01*
X11978000Y-8726000D02*
X11998000Y-8746000D01*
X11998000Y-8726000D02*
X11978000Y-8746000D01*
X12053642Y-8731939D02*
X12073642Y-8751939D01*
X12073642Y-8731939D02*
X12053642Y-8751939D01*
X12118000Y-8610000D02*
X12138000Y-8630000D01*
X12138000Y-8610000D02*
X12118000Y-8630000D01*
X12118094Y-8685209D02*
X12138094Y-8705209D01*
X12138094Y-8685209D02*
X12118094Y-8705209D01*
X12164899Y-8373575D02*
X12184899Y-8393575D01*
X12184899Y-8373575D02*
X12164899Y-8393575D01*
X12178285Y-7934995D02*
X12198285Y-7954995D01*
X12198285Y-7934995D02*
X12178285Y-7954995D01*
X12207864Y-8006619D02*
X12227864Y-8026619D01*
X12227864Y-8006619D02*
X12207864Y-8026619D01*
X12213000Y-8506000D02*
X12233000Y-8526000D01*
X12233000Y-8506000D02*
X12213000Y-8526000D01*
X12213242Y-8581000D02*
X12233242Y-8601000D01*
X12233242Y-8581000D02*
X12213242Y-8601000D01*
X12274454Y-8415087D02*
X12294454Y-8435087D01*
X12294454Y-8415087D02*
X12274454Y-8435087D01*
X12275039Y-8340089D02*
X12295039Y-8360089D01*
X12295039Y-8340089D02*
X12275039Y-8360089D01*
X12370000Y-8732360D02*
X12390000Y-8752360D01*
X12390000Y-8732360D02*
X12370000Y-8752360D01*
X12378000Y-8291000D02*
X12398000Y-8311000D01*
X12398000Y-8291000D02*
X12378000Y-8311000D01*
X12436000Y-7855000D02*
X12456000Y-7875000D01*
X12456000Y-7855000D02*
X12436000Y-7875000D01*
X12468000Y-8066000D02*
X12488000Y-8086000D01*
X12488000Y-8066000D02*
X12468000Y-8086000D01*
X12480000Y-8270000D02*
X12500000Y-8290000D01*
X12500000Y-8270000D02*
X12480000Y-8290000D01*
X12540000Y-8140000D02*
X12560000Y-8160000D01*
X12560000Y-8140000D02*
X12540000Y-8160000D01*
X12558000Y-8339188D02*
X12578000Y-8359188D01*
X12578000Y-8339188D02*
X12558000Y-8359188D01*
X12560000Y-8560000D02*
X12580000Y-8580000D01*
X12580000Y-8560000D02*
X12560000Y-8580000D01*
X12580000Y-7640000D02*
X12600000Y-7660000D01*
X12600000Y-7640000D02*
X12580000Y-7660000D01*
X12623000Y-8621000D02*
X12643000Y-8641000D01*
X12643000Y-8621000D02*
X12623000Y-8641000D01*
X12628000Y-8206000D02*
X12648000Y-8226000D01*
X12648000Y-8206000D02*
X12628000Y-8226000D01*
X12729628Y-8266484D02*
X12749628Y-8286484D01*
X12749628Y-8266484D02*
X12729628Y-8286484D01*
X12729628Y-8364000D02*
X12749628Y-8384000D01*
X12749628Y-8364000D02*
X12729628Y-8384000D01*
X12729628Y-8461516D02*
X12749628Y-8481516D01*
X12749628Y-8461516D02*
X12729628Y-8481516D01*
X12749991Y-7861707D02*
X12769991Y-7881707D01*
X12769991Y-7861707D02*
X12749991Y-7881707D01*
X12751582Y-8633708D02*
X12771582Y-8653708D01*
X12771582Y-8633708D02*
X12751582Y-8653708D01*
X12751582Y-8106000D02*
X12771582Y-8126000D01*
X12771582Y-8106000D02*
X12751582Y-8126000D01*
X12796000Y-7649000D02*
X12816000Y-7669000D01*
X12816000Y-7649000D02*
X12796000Y-7669000D01*
X12815132Y-8032000D02*
X12835132Y-8052000D01*
X12835132Y-8032000D02*
X12815132Y-8052000D01*
X12826500Y-8266484D02*
X12846500Y-8286484D01*
X12846500Y-8266484D02*
X12826500Y-8286484D01*
X12826500Y-8364000D02*
X12846500Y-8384000D01*
X12846500Y-8364000D02*
X12826500Y-8384000D01*
X12826500Y-8461516D02*
X12846500Y-8481516D01*
X12846500Y-8461516D02*
X12826500Y-8481516D01*
X12886619Y-7741619D02*
X12906619Y-7761619D01*
X12906619Y-7741619D02*
X12886619Y-7761619D01*
X12923371Y-8266484D02*
X12943371Y-8286484D01*
X12943371Y-8266484D02*
X12923371Y-8286484D01*
X12923371Y-8364000D02*
X12943371Y-8384000D01*
X12943371Y-8364000D02*
X12923371Y-8384000D01*
X12923371Y-8461516D02*
X12943371Y-8481516D01*
X12943371Y-8461516D02*
X12923371Y-8481516D01*
X12960000Y-7805000D02*
X12980000Y-7825000D01*
X12980000Y-7805000D02*
X12960000Y-7825000D01*
X12972582Y-8637418D02*
X12992582Y-8657418D01*
X12992582Y-8637418D02*
X12972582Y-8657418D01*
X13042869Y-7738869D02*
X13062869Y-7758869D01*
X13062869Y-7738869D02*
X13042869Y-7758869D01*
X13065000Y-8115000D02*
X13085000Y-8135000D01*
X13085000Y-8115000D02*
X13065000Y-8135000D01*
X13106152Y-8438708D02*
X13126152Y-8458708D01*
X13126152Y-8438708D02*
X13106152Y-8458708D01*
X13162163Y-7758168D02*
X13182163Y-7778168D01*
X13182163Y-7758168D02*
X13162163Y-7778168D01*
X13210582Y-8759418D02*
X13230582Y-8779418D01*
X13230582Y-8759418D02*
X13210582Y-8779418D01*
X13233841Y-8178949D02*
X13253841Y-8198949D01*
X13253841Y-8178949D02*
X13233841Y-8198949D01*
X13241000Y-7711668D02*
X13261000Y-7731668D01*
X13261000Y-7711668D02*
X13241000Y-7731668D01*
X13260000Y-9115000D02*
X13280000Y-9135000D01*
X13280000Y-9115000D02*
X13260000Y-9135000D01*
X13262500Y-7938500D02*
X13282500Y-7958500D01*
X13282500Y-7938500D02*
X13262500Y-7958500D01*
X13349000Y-7937000D02*
X13369000Y-7957000D01*
X13369000Y-7937000D02*
X13349000Y-7957000D01*
X13392142Y-8473908D02*
X13412142Y-8493908D01*
X13412142Y-8473908D02*
X13392142Y-8493908D01*
X13411600Y-8230000D02*
X13431600Y-8250000D01*
X13431600Y-8230000D02*
X13411600Y-8250000D01*
X13412000Y-7887000D02*
X13432000Y-7907000D01*
X13432000Y-7887000D02*
X13412000Y-7907000D01*
X13472500Y-8070000D02*
X13492500Y-8090000D01*
X13492500Y-8070000D02*
X13472500Y-8090000D01*
X13473168Y-8272830D02*
X13493168Y-8292830D01*
X13493168Y-8272830D02*
X13473168Y-8292830D01*
X13548000Y-7711668D02*
X13568000Y-7731668D01*
X13568000Y-7711668D02*
X13548000Y-7731668D01*
X13658080Y-7261000D02*
X13678080Y-7281000D01*
X13678080Y-7261000D02*
X13658080Y-7281000D01*
X13784000Y-8080000D02*
X13804000Y-8100000D01*
X13804000Y-8080000D02*
X13784000Y-8100000D01*
X13785572Y-8804276D02*
X13805572Y-8824276D01*
X13805572Y-8804276D02*
X13785572Y-8824276D01*
X13785712Y-8561778D02*
X13805712Y-8581778D01*
X13805712Y-8561778D02*
X13785712Y-8581778D01*
X13785888Y-9146030D02*
X13805888Y-9166030D01*
X13805888Y-9146030D02*
X13785888Y-9166030D01*
X13788000Y-9221000D02*
X13808000Y-9241000D01*
X13808000Y-9221000D02*
X13788000Y-9241000D01*
X13843000Y-7451000D02*
X13863000Y-7471000D01*
X13863000Y-7451000D02*
X13843000Y-7471000D01*
X13848080Y-7261000D02*
X13868080Y-7281000D01*
X13868080Y-7261000D02*
X13848080Y-7281000D01*
X13858000Y-8166000D02*
X13878000Y-8186000D01*
X13878000Y-8166000D02*
X13858000Y-8186000D01*
X13858000Y-8306000D02*
X13878000Y-8326000D01*
X13878000Y-8306000D02*
X13858000Y-8326000D01*
X13920000Y-7450000D02*
X13940000Y-7470000D01*
X13940000Y-7450000D02*
X13920000Y-7470000D01*
X13952616Y-7590412D02*
X13972616Y-7610412D01*
X13972616Y-7590412D02*
X13952616Y-7610412D01*
X13990000Y-7250000D02*
X14010000Y-7270000D01*
X14010000Y-7250000D02*
X13990000Y-7270000D01*
X14003119Y-8261880D02*
X14023119Y-8281880D01*
X14023119Y-8261880D02*
X14003119Y-8281880D01*
X14028000Y-7591000D02*
X14048000Y-7611000D01*
X14048000Y-7591000D02*
X14028000Y-7611000D01*
X14112044Y-9158941D02*
X14132044Y-9178941D01*
X14132044Y-9158941D02*
X14112044Y-9178941D01*
X14130000Y-7287500D02*
X14150000Y-7307500D01*
X14150000Y-7287500D02*
X14130000Y-7307500D01*
X14130000Y-7417500D02*
X14150000Y-7437500D01*
X14150000Y-7417500D02*
X14130000Y-7437500D01*
X14143000Y-9551000D02*
X14163000Y-9571000D01*
X14163000Y-9551000D02*
X14143000Y-9571000D01*
X14200000Y-8500000D02*
X14220000Y-8520000D01*
X14220000Y-8500000D02*
X14200000Y-8520000D01*
X14213000Y-7641000D02*
X14233000Y-7661000D01*
X14233000Y-7641000D02*
X14213000Y-7661000D01*
X14213000Y-7728500D02*
X14233000Y-7748500D01*
X14233000Y-7728500D02*
X14213000Y-7748500D01*
X14213000Y-7816000D02*
X14233000Y-7836000D01*
X14233000Y-7816000D02*
X14213000Y-7836000D01*
X14231015Y-9039970D02*
X14251015Y-9059970D01*
X14251015Y-9039970D02*
X14231015Y-9059970D01*
X14238000Y-9311000D02*
X14258000Y-9331000D01*
X14258000Y-9311000D02*
X14238000Y-9331000D01*
X14248000Y-8221000D02*
X14268000Y-8241000D01*
X14268000Y-8221000D02*
X14248000Y-8241000D01*
X14278000Y-7286000D02*
X14298000Y-7306000D01*
X14298000Y-7286000D02*
X14278000Y-7306000D01*
X14278000Y-7416000D02*
X14298000Y-7436000D01*
X14298000Y-7416000D02*
X14278000Y-7436000D01*
X14298000Y-8491000D02*
X14318000Y-8511000D01*
X14318000Y-8491000D02*
X14298000Y-8511000D01*
X14308000Y-7641000D02*
X14328000Y-7661000D01*
X14328000Y-7641000D02*
X14308000Y-7661000D01*
X14308000Y-7728500D02*
X14328000Y-7748500D01*
X14328000Y-7728500D02*
X14308000Y-7748500D01*
X14308000Y-7816000D02*
X14328000Y-7836000D01*
X14328000Y-7816000D02*
X14308000Y-7836000D01*
X14325000Y-8319500D02*
X14345000Y-8339500D01*
X14345000Y-8319500D02*
X14325000Y-8339500D01*
X14327500Y-8187500D02*
X14347500Y-8207500D01*
X14347500Y-8187500D02*
X14327500Y-8207500D01*
X14349985Y-8921000D02*
X14369985Y-8941000D01*
X14369985Y-8921000D02*
X14349985Y-8941000D01*
X14383000Y-8776000D02*
X14403000Y-8796000D01*
X14403000Y-8776000D02*
X14383000Y-8796000D01*
X14389029Y-9439971D02*
X14409029Y-9459971D01*
X14409029Y-9439971D02*
X14389029Y-9459971D01*
X14426071Y-8184999D02*
X14446071Y-8204999D01*
X14446071Y-8184999D02*
X14426071Y-8204999D01*
X14430000Y-8319500D02*
X14450000Y-8339500D01*
X14450000Y-8319500D02*
X14430000Y-8339500D01*
X14453000Y-8421000D02*
X14473000Y-8441000D01*
X14473000Y-8421000D02*
X14453000Y-8441000D01*
X14461000Y-8903000D02*
X14481000Y-8923000D01*
X14481000Y-8903000D02*
X14461000Y-8923000D01*
X14468000Y-8041000D02*
X14488000Y-8061000D01*
X14488000Y-8041000D02*
X14468000Y-8061000D01*
X14488000Y-8141000D02*
X14508000Y-8161000D01*
X14508000Y-8141000D02*
X14488000Y-8161000D01*
X14508000Y-9321000D02*
X14528000Y-9341000D01*
X14528000Y-9321000D02*
X14508000Y-9341000D01*
X14510000Y-8480000D02*
X14530000Y-8500000D01*
X14530000Y-8480000D02*
X14510000Y-8500000D01*
X14538000Y-7556000D02*
X14558000Y-7576000D01*
X14558000Y-7556000D02*
X14538000Y-7576000D01*
X14540000Y-7820000D02*
X14560000Y-7840000D01*
X14560000Y-7820000D02*
X14540000Y-7840000D01*
X14550000Y-8990000D02*
X14570000Y-9010000D01*
X14570000Y-8990000D02*
X14550000Y-9010000D01*
X14557500Y-8350000D02*
X14577500Y-8370000D01*
X14577500Y-8350000D02*
X14557500Y-8370000D01*
X14593000Y-8471000D02*
X14613000Y-8491000D01*
X14613000Y-8471000D02*
X14593000Y-8491000D01*
X14598000Y-8031000D02*
X14618000Y-8051000D01*
X14618000Y-8031000D02*
X14598000Y-8051000D01*
X14626970Y-9202030D02*
X14646970Y-9222030D01*
X14646970Y-9202030D02*
X14626970Y-9222030D01*
X14630000Y-9070000D02*
X14650000Y-9090000D01*
X14650000Y-9070000D02*
X14630000Y-9090000D01*
X14645000Y-7160000D02*
X14665000Y-7180000D01*
X14665000Y-7160000D02*
X14645000Y-7180000D01*
X14678000Y-8961000D02*
X14698000Y-8981000D01*
X14698000Y-8961000D02*
X14678000Y-8981000D01*
X14710000Y-7315000D02*
X14730000Y-7335000D01*
X14730000Y-7315000D02*
X14710000Y-7335000D01*
X14710000Y-7505000D02*
X14730000Y-7525000D01*
X14730000Y-7505000D02*
X14710000Y-7525000D01*
X14720000Y-6740000D02*
X14740000Y-6760000D01*
X14740000Y-6740000D02*
X14720000Y-6760000D01*
X14723000Y-8051000D02*
X14743000Y-8071000D01*
X14743000Y-8051000D02*
X14723000Y-8071000D01*
X14735000Y-7820000D02*
X14755000Y-7840000D01*
X14755000Y-7820000D02*
X14735000Y-7840000D01*
X14778000Y-9538840D02*
X14798000Y-9558840D01*
X14798000Y-9538840D02*
X14778000Y-9558840D01*
X14805000Y-9085000D02*
X14825000Y-9105000D01*
X14825000Y-9085000D02*
X14805000Y-9105000D01*
X14815665Y-7842500D02*
X14835665Y-7862500D01*
X14835665Y-7842500D02*
X14815665Y-7862500D01*
X14828000Y-8096000D02*
X14848000Y-8116000D01*
X14848000Y-8096000D02*
X14828000Y-8116000D01*
X14852000Y-8536000D02*
X14872000Y-8556000D01*
X14872000Y-8536000D02*
X14852000Y-8556000D01*
X14893000Y-8271000D02*
X14913000Y-8291000D01*
X14913000Y-8271000D02*
X14893000Y-8291000D01*
X14927000Y-9518840D02*
X14947000Y-9538840D01*
X14947000Y-9518840D02*
X14927000Y-9538840D01*
X14938000Y-8421000D02*
X14958000Y-8441000D01*
X14958000Y-8421000D02*
X14938000Y-8441000D01*
X14955534Y-7631000D02*
X14975534Y-7651000D01*
X14975534Y-7631000D02*
X14955534Y-7651000D01*
X14988000Y-8666000D02*
X15008000Y-8686000D01*
X15008000Y-8666000D02*
X14988000Y-8686000D01*
X14990000Y-7451000D02*
X15010000Y-7471000D01*
X15010000Y-7451000D02*
X14990000Y-7471000D01*
X15003562Y-7674280D02*
X15023562Y-7694280D01*
X15023562Y-7674280D02*
X15003562Y-7694280D01*
X15010000Y-9040000D02*
X15030000Y-9060000D01*
X15030000Y-9040000D02*
X15010000Y-9060000D01*
X15018000Y-7381000D02*
X15038000Y-7401000D01*
X15038000Y-7381000D02*
X15018000Y-7401000D01*
X15018000Y-8511000D02*
X15038000Y-8531000D01*
X15038000Y-8511000D02*
X15018000Y-8531000D01*
X15023000Y-8336000D02*
X15043000Y-8356000D01*
X15043000Y-8336000D02*
X15023000Y-8356000D01*
X15048000Y-8131000D02*
X15068000Y-8151000D01*
X15068000Y-8131000D02*
X15048000Y-8151000D01*
X15078000Y-7661000D02*
X15098000Y-7681000D01*
X15098000Y-7661000D02*
X15078000Y-7681000D01*
X15080000Y-8750000D02*
X15100000Y-8770000D01*
X15100000Y-8750000D02*
X15080000Y-8770000D01*
X15083000Y-7296000D02*
X15103000Y-7316000D01*
X15103000Y-7296000D02*
X15083000Y-7316000D01*
X15089713Y-7825140D02*
X15109713Y-7845140D01*
X15109713Y-7825140D02*
X15089713Y-7845140D01*
X15100000Y-7390000D02*
X15120000Y-7410000D01*
X15120000Y-7390000D02*
X15100000Y-7410000D01*
X15108000Y-8251000D02*
X15128000Y-8271000D01*
X15128000Y-8251000D02*
X15108000Y-8271000D01*
X15108000Y-8421000D02*
X15128000Y-8441000D01*
X15128000Y-8421000D02*
X15108000Y-8441000D01*
X15108000Y-8591000D02*
X15128000Y-8611000D01*
X15128000Y-8591000D02*
X15108000Y-8611000D01*
X15118206Y-9420970D02*
X15138206Y-9440970D01*
X15138206Y-9420970D02*
X15118206Y-9440970D01*
X15150000Y-7260000D02*
X15170000Y-7280000D01*
X15170000Y-7260000D02*
X15150000Y-7280000D01*
X15152000Y-8103000D02*
X15172000Y-8123000D01*
X15172000Y-8103000D02*
X15152000Y-8123000D01*
X15158000Y-8741000D02*
X15178000Y-8761000D01*
X15178000Y-8741000D02*
X15158000Y-8761000D01*
X15164823Y-7831000D02*
X15184823Y-7851000D01*
X15184823Y-7831000D02*
X15164823Y-7851000D01*
X15165000Y-9735000D02*
X15185000Y-9755000D01*
X15185000Y-9735000D02*
X15165000Y-9755000D01*
X15178000Y-9126000D02*
X15198000Y-9146000D01*
X15198000Y-9126000D02*
X15178000Y-9146000D01*
X15193000Y-8336000D02*
X15213000Y-8356000D01*
X15213000Y-8336000D02*
X15193000Y-8356000D01*
X15193000Y-8506000D02*
X15213000Y-8526000D01*
X15213000Y-8506000D02*
X15193000Y-8526000D01*
X15202500Y-8171000D02*
X15222500Y-8191000D01*
X15222500Y-8171000D02*
X15202500Y-8191000D01*
X15238000Y-9076000D02*
X15258000Y-9096000D01*
X15258000Y-9076000D02*
X15238000Y-9096000D01*
X15244008Y-9420970D02*
X15264008Y-9440970D01*
X15264008Y-9420970D02*
X15244008Y-9440970D01*
X15250000Y-8630000D02*
X15270000Y-8650000D01*
X15270000Y-8630000D02*
X15250000Y-8650000D01*
X15252515Y-7374515D02*
X15272515Y-7394515D01*
X15272515Y-7374515D02*
X15252515Y-7394515D01*
X15255000Y-8231000D02*
X15275000Y-8251000D01*
X15275000Y-8231000D02*
X15255000Y-8251000D01*
X15267000Y-7599000D02*
X15287000Y-7619000D01*
X15287000Y-7599000D02*
X15267000Y-7619000D01*
X15278000Y-8421000D02*
X15298000Y-8441000D01*
X15298000Y-8421000D02*
X15278000Y-8441000D01*
X15290000Y-8842000D02*
X15310000Y-8862000D01*
X15310000Y-8842000D02*
X15290000Y-8862000D01*
X15309500Y-8560000D02*
X15329500Y-8580000D01*
X15329500Y-8560000D02*
X15309500Y-8580000D01*
X15331000Y-8305000D02*
X15351000Y-8325000D01*
X15351000Y-8305000D02*
X15331000Y-8325000D01*
X15352225Y-7479772D02*
X15372225Y-7499772D01*
X15372225Y-7479772D02*
X15352225Y-7499772D01*
X15360000Y-7800000D02*
X15380000Y-7820000D01*
X15380000Y-7800000D02*
X15360000Y-7820000D01*
X15365000Y-7260000D02*
X15385000Y-7280000D01*
X15385000Y-7260000D02*
X15365000Y-7280000D01*
X15366156Y-8753000D02*
X15386156Y-8773000D01*
X15386156Y-8753000D02*
X15366156Y-8773000D01*
X15376000Y-8502000D02*
X15396000Y-8522000D01*
X15396000Y-8502000D02*
X15376000Y-8522000D01*
X15383000Y-7076000D02*
X15403000Y-7096000D01*
X15403000Y-7076000D02*
X15383000Y-7096000D01*
X15388375Y-8354769D02*
X15408375Y-8374769D01*
X15408375Y-8354769D02*
X15388375Y-8374769D01*
X15428000Y-7481000D02*
X15448000Y-7501000D01*
X15448000Y-7481000D02*
X15428000Y-7501000D01*
X15431000Y-8788000D02*
X15451000Y-8808000D01*
X15451000Y-8788000D02*
X15431000Y-8808000D01*
X15440000Y-8700000D02*
X15460000Y-8720000D01*
X15460000Y-8700000D02*
X15440000Y-8720000D01*
X15450000Y-8402000D02*
X15470000Y-8422000D01*
X15470000Y-8402000D02*
X15450000Y-8422000D01*
X15476000Y-9339000D02*
X15496000Y-9359000D01*
X15496000Y-9339000D02*
X15476000Y-9359000D01*
X15488784Y-7950216D02*
X15508784Y-7970216D01*
X15508784Y-7950216D02*
X15488784Y-7970216D01*
X15498000Y-8951000D02*
X15518000Y-8971000D01*
X15518000Y-8951000D02*
X15498000Y-8971000D01*
X15515000Y-9190000D02*
X15535000Y-9210000D01*
X15535000Y-9190000D02*
X15515000Y-9210000D01*
X15564000Y-8557000D02*
X15584000Y-8577000D01*
X15584000Y-8557000D02*
X15564000Y-8577000D01*
X15568024Y-8029455D02*
X15588024Y-8049455D01*
X15588024Y-8029455D02*
X15568024Y-8049455D01*
X15578000Y-9561000D02*
X15598000Y-9581000D01*
X15598000Y-9561000D02*
X15578000Y-9581000D01*
X15592000Y-9109000D02*
X15612000Y-9129000D01*
X15612000Y-9109000D02*
X15592000Y-9129000D01*
X15600000Y-9274000D02*
X15620000Y-9294000D01*
X15620000Y-9274000D02*
X15600000Y-9294000D01*
X15660000Y-7860000D02*
X15680000Y-7880000D01*
X15680000Y-7860000D02*
X15660000Y-7880000D01*
X15669000Y-8130431D02*
X15689000Y-8150431D01*
X15689000Y-8130431D02*
X15669000Y-8150431D01*
X15681500Y-9198500D02*
X15701500Y-9218500D01*
X15701500Y-9198500D02*
X15681500Y-9218500D01*
X15700000Y-9640000D02*
X15720000Y-9660000D01*
X15720000Y-9640000D02*
X15700000Y-9660000D01*
X15718000Y-8451000D02*
X15738000Y-8471000D01*
X15738000Y-8451000D02*
X15718000Y-8471000D01*
X15738784Y-8200216D02*
X15758784Y-8220216D01*
X15758784Y-8200216D02*
X15738784Y-8220216D01*
X15752323Y-8625677D02*
X15772323Y-8645677D01*
X15772323Y-8625677D02*
X15752323Y-8645677D01*
X15753000Y-9036000D02*
X15773000Y-9056000D01*
X15773000Y-9036000D02*
X15753000Y-9056000D01*
X15760000Y-7840000D02*
X15780000Y-7860000D01*
X15780000Y-7840000D02*
X15760000Y-7860000D01*
X15773000Y-9616000D02*
X15793000Y-9636000D01*
X15793000Y-9616000D02*
X15773000Y-9636000D01*
X15793119Y-9291881D02*
X15813119Y-9311881D01*
X15813119Y-9291881D02*
X15793119Y-9311881D01*
X15805000Y-8817500D02*
X15825000Y-8837500D01*
X15825000Y-8817500D02*
X15805000Y-8837500D01*
X15873000Y-9956000D02*
X15893000Y-9976000D01*
X15893000Y-9956000D02*
X15873000Y-9976000D01*
X15880000Y-8520000D02*
X15900000Y-8540000D01*
X15900000Y-8520000D02*
X15880000Y-8540000D01*
X15897085Y-8851078D02*
X15917085Y-8871078D01*
X15917085Y-8851078D02*
X15897085Y-8871078D01*
X15910000Y-9410000D02*
X15930000Y-9430000D01*
X15930000Y-9410000D02*
X15910000Y-9430000D01*
X15922500Y-7842500D02*
X15942500Y-7862500D01*
X15942500Y-7842500D02*
X15922500Y-7862500D01*
X15922500Y-7997500D02*
X15942500Y-8017500D01*
X15942500Y-7997500D02*
X15922500Y-8017500D01*
X15925000Y-8140000D02*
X15945000Y-8160000D01*
X15945000Y-8140000D02*
X15925000Y-8160000D01*
X15940089Y-9170911D02*
X15960089Y-9190911D01*
X15960089Y-9170911D02*
X15940089Y-9190911D01*
X15952000Y-8904000D02*
X15972000Y-8924000D01*
X15972000Y-8904000D02*
X15952000Y-8924000D01*
X16008000Y-7885042D02*
X16028000Y-7905042D01*
X16028000Y-7885042D02*
X16008000Y-7905042D01*
X16008000Y-7964000D02*
X16028000Y-7984000D01*
X16028000Y-7964000D02*
X16008000Y-7984000D01*
X16013000Y-7651000D02*
X16033000Y-7671000D01*
X16033000Y-7651000D02*
X16013000Y-7671000D01*
X16045000Y-7485000D02*
X16065000Y-7505000D01*
X16065000Y-7485000D02*
X16045000Y-7505000D01*
X16045000Y-8375000D02*
X16065000Y-8395000D01*
X16065000Y-8375000D02*
X16045000Y-8395000D01*
X16085000Y-8730000D02*
X16105000Y-8750000D01*
X16105000Y-8730000D02*
X16085000Y-8750000D01*
X16103000Y-9101000D02*
X16123000Y-9121000D01*
X16123000Y-9101000D02*
X16103000Y-9121000D01*
X16115000Y-9582500D02*
X16135000Y-9602500D01*
X16135000Y-9582500D02*
X16115000Y-9602500D01*
X16145000Y-9807000D02*
X16165000Y-9827000D01*
X16165000Y-9807000D02*
X16145000Y-9827000D01*
X16168925Y-7380075D02*
X16188925Y-7400075D01*
X16188925Y-7380075D02*
X16168925Y-7400075D01*
X16180000Y-8240000D02*
X16200000Y-8260000D01*
X16200000Y-8240000D02*
X16180000Y-8260000D01*
X16198888Y-9235556D02*
X16218888Y-9255556D01*
X16218888Y-9235556D02*
X16198888Y-9255556D01*
X16223500Y-7688500D02*
X16243500Y-7708500D01*
X16243500Y-7688500D02*
X16223500Y-7708500D01*
X16290000Y-9311000D02*
X16310000Y-9331000D01*
X16310000Y-9311000D02*
X16290000Y-9331000D01*
X16347000Y-7642000D02*
X16367000Y-7662000D01*
X16367000Y-7642000D02*
X16347000Y-7662000D01*
X16360000Y-9170000D02*
X16380000Y-9190000D01*
X16380000Y-9170000D02*
X16360000Y-9190000D01*
X16405000Y-8015000D02*
X16425000Y-8035000D01*
X16425000Y-8015000D02*
X16405000Y-8035000D01*
X16420000Y-8680000D02*
X16440000Y-8700000D01*
X16440000Y-8680000D02*
X16420000Y-8700000D01*
X16430000Y-7400000D02*
X16450000Y-7420000D01*
X16450000Y-7400000D02*
X16430000Y-7420000D01*
X16529000Y-7501000D02*
X16549000Y-7521000D01*
X16549000Y-7501000D02*
X16529000Y-7521000D01*
X16529000Y-7776000D02*
X16549000Y-7796000D01*
X16549000Y-7776000D02*
X16529000Y-7796000D01*
X16600000Y-7400000D02*
X16620000Y-7420000D01*
X16620000Y-7400000D02*
X16600000Y-7420000D01*
X16660000Y-9440000D02*
X16680000Y-9460000D01*
X16680000Y-9440000D02*
X16660000Y-9460000D01*
X16750000Y-8287034D02*
X16770000Y-8307034D01*
X16770000Y-8287034D02*
X16750000Y-8307034D01*
X16775000Y-8130000D02*
X16795000Y-8150000D01*
X16795000Y-8130000D02*
X16775000Y-8150000D01*
X16832280Y-7397720D02*
X16852280Y-7417720D01*
X16852280Y-7397720D02*
X16832280Y-7417720D01*
X16995000Y-7455000D02*
X17015000Y-7475000D01*
X17015000Y-7455000D02*
X16995000Y-7475000D01*
X17017500Y-8112500D02*
X17037500Y-8132500D01*
X17037500Y-8112500D02*
X17017500Y-8132500D01*
X17030000Y-7135000D02*
X17050000Y-7155000D01*
X17050000Y-7135000D02*
X17030000Y-7155000D01*
X17098000Y-8187074D02*
X17118000Y-8207074D01*
X17118000Y-8187074D02*
X17098000Y-8207074D01*
X17168000Y-7576000D02*
X17188000Y-7596000D01*
X17188000Y-7576000D02*
X17168000Y-7596000D01*
X17250000Y-7997500D02*
X17270000Y-8017500D01*
X17270000Y-7997500D02*
X17250000Y-8017500D01*
X17330000Y-6920000D02*
X17350000Y-6940000D01*
X17350000Y-6920000D02*
X17330000Y-6940000D01*
X17370000Y-9496750D02*
X17390000Y-9516750D01*
X17390000Y-9496750D02*
X17370000Y-9516750D01*
X17410000Y-9950000D02*
X17430000Y-9970000D01*
X17430000Y-9950000D02*
X17410000Y-9970000D01*
X17445000Y-9551000D02*
X17465000Y-9571000D01*
X17465000Y-9551000D02*
X17445000Y-9571000D01*
X17497000Y-7350000D02*
X17517000Y-7370000D01*
X17517000Y-7350000D02*
X17497000Y-7370000D01*
X17497000Y-7465000D02*
X17517000Y-7485000D01*
X17517000Y-7465000D02*
X17497000Y-7485000D01*
X17508000Y-7676000D02*
X17528000Y-7696000D01*
X17528000Y-7676000D02*
X17508000Y-7696000D01*
X17538000Y-8151000D02*
X17558000Y-8171000D01*
X17558000Y-8151000D02*
X17538000Y-8171000D01*
X17538000Y-8236000D02*
X17558000Y-8256000D01*
X17558000Y-8236000D02*
X17538000Y-8256000D01*
X17538000Y-8321000D02*
X17558000Y-8341000D01*
X17558000Y-8321000D02*
X17538000Y-8341000D01*
X17585000Y-8000000D02*
X17605000Y-8020000D01*
X17605000Y-8000000D02*
X17585000Y-8020000D01*
X17590000Y-9160000D02*
X17610000Y-9180000D01*
X17610000Y-9160000D02*
X17590000Y-9180000D01*
X17628000Y-8151000D02*
X17648000Y-8171000D01*
X17648000Y-8151000D02*
X17628000Y-8171000D01*
X17628000Y-8236000D02*
X17648000Y-8256000D01*
X17648000Y-8236000D02*
X17628000Y-8256000D01*
X17628000Y-8321000D02*
X17648000Y-8341000D01*
X17648000Y-8321000D02*
X17628000Y-8341000D01*
X17630000Y-7770000D02*
X17650000Y-7790000D01*
X17650000Y-7770000D02*
X17630000Y-7790000D01*
X17675000Y-7350000D02*
X17695000Y-7370000D01*
X17695000Y-7350000D02*
X17675000Y-7370000D01*
X17675000Y-7465000D02*
X17695000Y-7485000D01*
X17695000Y-7465000D02*
X17675000Y-7485000D01*
X17705000Y-9950000D02*
X17725000Y-9970000D01*
X17725000Y-9950000D02*
X17705000Y-9970000D01*
X17729000Y-8438000D02*
X17749000Y-8458000D01*
X17749000Y-8438000D02*
X17729000Y-8458000D01*
X17870000Y-7695000D02*
X17890000Y-7715000D01*
X17890000Y-7695000D02*
X17870000Y-7715000D01*
X17910000Y-6920000D02*
X17930000Y-6940000D01*
X17930000Y-6920000D02*
X17910000Y-6940000D01*
X17930000Y-7982500D02*
X17950000Y-8002500D01*
X17950000Y-7982500D02*
X17930000Y-8002500D01*
X18078000Y-7576000D02*
X18098000Y-7596000D01*
X18098000Y-7576000D02*
X18078000Y-7596000D01*
X18120000Y-8040000D02*
X18140000Y-8060000D01*
X18140000Y-8040000D02*
X18120000Y-8060000D01*
X18150000Y-8520000D02*
X18170000Y-8540000D01*
X18170000Y-8520000D02*
X18150000Y-8540000D01*
X18410000Y-8045000D02*
X18430000Y-8065000D01*
X18430000Y-8045000D02*
X18410000Y-8065000D01*
X18410000Y-8740000D02*
X18430000Y-8760000D01*
X18430000Y-8740000D02*
X18410000Y-8760000D01*
X18410000Y-9315000D02*
X18430000Y-9335000D01*
X18430000Y-9315000D02*
X18410000Y-9335000D01*
X18410000Y-9750000D02*
X18430000Y-9770000D01*
X18430000Y-9750000D02*
X18410000Y-9770000D01*
X18550000Y-9070000D02*
X18570000Y-9090000D01*
X18570000Y-9070000D02*
X18550000Y-9090000D01*
X18799325Y-8509325D02*
X18819325Y-8529325D01*
X18819325Y-8509325D02*
X18799325Y-8529325D01*
X19100000Y-9760000D02*
X19120000Y-9780000D01*
X19120000Y-9760000D02*
X19100000Y-9780000D01*
X12841778Y-7962865D02*
G75*
G02*
X12816778Y-7962865I-12500J0D01*
G01*
X12816778Y-7962865D02*
G75*
G02*
X12841778Y-7962865I12500J0D01*
G01*
X12924471Y-7877193D02*
G75*
G02*
X12899471Y-7877193I-12500J0D01*
G01*
X12899471Y-7877193D02*
G75*
G02*
X12924471Y-7877193I12500J0D01*
G01*
X13902500Y-9690000D02*
G75*
G02*
X13877500Y-9690000I-12500J0D01*
G01*
X13877500Y-9690000D02*
G75*
G02*
X13902500Y-9690000I12500J0D01*
G01*
X13902500Y-9960000D02*
G75*
G02*
X13877500Y-9960000I-12500J0D01*
G01*
X13877500Y-9960000D02*
G75*
G02*
X13902500Y-9960000I12500J0D01*
G01*
X13992500Y-8570000D02*
G75*
G02*
X13967500Y-8570000I-12500J0D01*
G01*
X13967500Y-8570000D02*
G75*
G02*
X13992500Y-8570000I12500J0D01*
G01*
X13992500Y-8820000D02*
G75*
G02*
X13967500Y-8820000I-12500J0D01*
G01*
X13967500Y-8820000D02*
G75*
G02*
X13992500Y-8820000I12500J0D01*
G01*
X13992500Y-9070000D02*
G75*
G02*
X13967500Y-9070000I-12500J0D01*
G01*
X13967500Y-9070000D02*
G75*
G02*
X13992500Y-9070000I12500J0D01*
G01*
X14002500Y-9290000D02*
G75*
G02*
X13977500Y-9290000I-12500J0D01*
G01*
X13977500Y-9290000D02*
G75*
G02*
X14002500Y-9290000I12500J0D01*
G01*
X14117500Y-8695000D02*
G75*
G02*
X14092500Y-8695000I-12500J0D01*
G01*
X14092500Y-8695000D02*
G75*
G02*
X14117500Y-8695000I12500J0D01*
G01*
X14117500Y-8945000D02*
G75*
G02*
X14092500Y-8945000I-12500J0D01*
G01*
X14092500Y-8945000D02*
G75*
G02*
X14117500Y-8945000I12500J0D01*
G01*
X14202500Y-9960000D02*
G75*
G02*
X14177500Y-9960000I-12500J0D01*
G01*
X14177500Y-9960000D02*
G75*
G02*
X14202500Y-9960000I12500J0D01*
G01*
X14242500Y-8820000D02*
G75*
G02*
X14217500Y-8820000I-12500J0D01*
G01*
X14217500Y-8820000D02*
G75*
G02*
X14242500Y-8820000I12500J0D01*
G01*
X14302500Y-9560000D02*
G75*
G02*
X14277500Y-9560000I-12500J0D01*
G01*
X14277500Y-9560000D02*
G75*
G02*
X14302500Y-9560000I12500J0D01*
G01*
X14367500Y-8695000D02*
G75*
G02*
X14342500Y-8695000I-12500J0D01*
G01*
X14342500Y-8695000D02*
G75*
G02*
X14367500Y-8695000I12500J0D01*
G01*
X14452500Y-9635000D02*
G75*
G02*
X14427500Y-9635000I-12500J0D01*
G01*
X14427500Y-9635000D02*
G75*
G02*
X14452500Y-9635000I12500J0D01*
G01*
X14575000Y-8652500D02*
G75*
G02*
X14550000Y-8652500I-12500J0D01*
G01*
X14550000Y-8652500D02*
G75*
G02*
X14575000Y-8652500I12500J0D01*
G01*
X14595500Y-9756000D02*
G75*
G02*
X14570500Y-9756000I-12500J0D01*
G01*
X14570500Y-9756000D02*
G75*
G02*
X14595500Y-9756000I12500J0D01*
G01*
X14598723Y-9476777D02*
G75*
G02*
X14573723Y-9476777I-12500J0D01*
G01*
X14573723Y-9476777D02*
G75*
G02*
X14598723Y-9476777I12500J0D01*
G01*
X14770000Y-6937500D02*
G75*
G02*
X14745000Y-6937500I-12500J0D01*
G01*
X14745000Y-6937500D02*
G75*
G02*
X14770000Y-6937500I12500J0D01*
G01*
X14775500Y-9300000D02*
G75*
G02*
X14750500Y-9300000I-12500J0D01*
G01*
X14750500Y-9300000D02*
G75*
G02*
X14775500Y-9300000I12500J0D01*
G01*
X14802500Y-9960000D02*
G75*
G02*
X14777500Y-9960000I-12500J0D01*
G01*
X14777500Y-9960000D02*
G75*
G02*
X14802500Y-9960000I12500J0D01*
G01*
X15020000Y-6937500D02*
G75*
G02*
X14995000Y-6937500I-12500J0D01*
G01*
X14995000Y-6937500D02*
G75*
G02*
X15020000Y-6937500I12500J0D01*
G01*
X15392500Y-7884985D02*
G75*
G02*
X15367500Y-7884985I-12500J0D01*
G01*
X15367500Y-7884985D02*
G75*
G02*
X15392500Y-7884985I12500J0D01*
G01*
X15440000Y-6937500D02*
G75*
G02*
X15415000Y-6937500I-12500J0D01*
G01*
X15415000Y-6937500D02*
G75*
G02*
X15440000Y-6937500I12500J0D01*
G01*
X15565500Y-9396000D02*
G75*
G02*
X15540500Y-9396000I-12500J0D01*
G01*
X15540500Y-9396000D02*
G75*
G02*
X15565500Y-9396000I12500J0D01*
G01*
X15690000Y-6937500D02*
G75*
G02*
X15665000Y-6937500I-12500J0D01*
G01*
X15665000Y-6937500D02*
G75*
G02*
X15690000Y-6937500I12500J0D01*
G01*
X15782500Y-7125000D02*
G75*
G02*
X15757500Y-7125000I-12500J0D01*
G01*
X15757500Y-7125000D02*
G75*
G02*
X15782500Y-7125000I12500J0D01*
G01*
X15782500Y-7375000D02*
G75*
G02*
X15757500Y-7375000I-12500J0D01*
G01*
X15757500Y-7375000D02*
G75*
G02*
X15782500Y-7375000I12500J0D01*
G01*
X15782500Y-7625000D02*
G75*
G02*
X15757500Y-7625000I-12500J0D01*
G01*
X15757500Y-7625000D02*
G75*
G02*
X15782500Y-7625000I12500J0D01*
G01*
X16412000Y-9861000D02*
G75*
G02*
X16387000Y-9861000I-12500J0D01*
G01*
X16387000Y-9861000D02*
G75*
G02*
X16412000Y-9861000I12500J0D01*
G01*
X16519500Y-9838500D02*
G75*
G02*
X16494500Y-9838500I-12500J0D01*
G01*
X16494500Y-9838500D02*
G75*
G02*
X16519500Y-9838500I12500J0D01*
G01*
X16557500Y-8355000D02*
G75*
G02*
X16532500Y-8355000I-12500J0D01*
G01*
X16532500Y-8355000D02*
G75*
G02*
X16557500Y-8355000I12500J0D01*
G01*
X16562000Y-9751000D02*
G75*
G02*
X16537000Y-9751000I-12500J0D01*
G01*
X16537000Y-9751000D02*
G75*
G02*
X16562000Y-9751000I12500J0D01*
G01*
X16642500Y-9060000D02*
G75*
G02*
X16617500Y-9060000I-12500J0D01*
G01*
X16617500Y-9060000D02*
G75*
G02*
X16642500Y-9060000I12500J0D01*
G01*
X16772500Y-7610000D02*
G75*
G02*
X16747500Y-7610000I-12500J0D01*
G01*
X16747500Y-7610000D02*
G75*
G02*
X16772500Y-7610000I12500J0D01*
G01*
X16832000Y-8355000D02*
G75*
G02*
X16807000Y-8355000I-12500J0D01*
G01*
X16807000Y-8355000D02*
G75*
G02*
X16832000Y-8355000I12500J0D01*
G01*
X16898944Y-7901414D02*
G75*
G02*
X16873944Y-7901414I-12500J0D01*
G01*
X16873944Y-7901414D02*
G75*
G02*
X16898944Y-7901414I12500J0D01*
G01*
X16942500Y-9930000D02*
G75*
G02*
X16917500Y-9930000I-12500J0D01*
G01*
X16917500Y-9930000D02*
G75*
G02*
X16942500Y-9930000I12500J0D01*
G01*
X17057500Y-7715080D02*
G75*
G02*
X17032500Y-7715080I-12500J0D01*
G01*
X17032500Y-7715080D02*
G75*
G02*
X17057500Y-7715080I12500J0D01*
G01*
X17113944Y-7903914D02*
G75*
G02*
X17088944Y-7903914I-12500J0D01*
G01*
X17088944Y-7903914D02*
G75*
G02*
X17113944Y-7903914I12500J0D01*
G01*
X17192500Y-9930000D02*
G75*
G02*
X17167500Y-9930000I-12500J0D01*
G01*
X17167500Y-9930000D02*
G75*
G02*
X17192500Y-9930000I12500J0D01*
G01*
X17242500Y-8355000D02*
G75*
G02*
X17217500Y-8355000I-12500J0D01*
G01*
X17217500Y-8355000D02*
G75*
G02*
X17242500Y-8355000I12500J0D01*
G01*
X17307500Y-7715080D02*
G75*
G02*
X17282500Y-7715080I-12500J0D01*
G01*
X17282500Y-7715080D02*
G75*
G02*
X17307500Y-7715080I12500J0D01*
G01*
X17352940Y-8734000D02*
G75*
G02*
X17327940Y-8734000I-12500J0D01*
G01*
X17327940Y-8734000D02*
G75*
G02*
X17352940Y-8734000I12500J0D01*
G01*
X17357500Y-8500000D02*
G75*
G02*
X17332500Y-8500000I-12500J0D01*
G01*
X17332500Y-8500000D02*
G75*
G02*
X17357500Y-8500000I12500J0D01*
G01*
X17602940Y-8734000D02*
G75*
G02*
X17577940Y-8734000I-12500J0D01*
G01*
X17577940Y-8734000D02*
G75*
G02*
X17602940Y-8734000I12500J0D01*
G01*
X17607500Y-8500000D02*
G75*
G02*
X17582500Y-8500000I-12500J0D01*
G01*
X17582500Y-8500000D02*
G75*
G02*
X17607500Y-8500000I12500J0D01*
G01*
X17792500Y-9790000D02*
G75*
G02*
X17767500Y-9790000I-12500J0D01*
G01*
X17767500Y-9790000D02*
G75*
G02*
X17792500Y-9790000I12500J0D01*
G01*
X17996213Y-9363439D02*
G75*
G02*
X17971213Y-9363439I-12500J0D01*
G01*
X17971213Y-9363439D02*
G75*
G02*
X17996213Y-9363439I12500J0D01*
G01*
X18042500Y-9790000D02*
G75*
G02*
X18017500Y-9790000I-12500J0D01*
G01*
X18017500Y-9790000D02*
G75*
G02*
X18042500Y-9790000I12500J0D01*
G01*
X18432500Y-6810000D02*
G75*
G02*
X18407500Y-6810000I-12500J0D01*
G01*
X18407500Y-6810000D02*
G75*
G02*
X18432500Y-6810000I12500J0D01*
G01*
X18432500Y-7175000D02*
G75*
G02*
X18407500Y-7175000I-12500J0D01*
G01*
X18407500Y-7175000D02*
G75*
G02*
X18432500Y-7175000I12500J0D01*
G01*
X18432500Y-7825000D02*
G75*
G02*
X18407500Y-7825000I-12500J0D01*
G01*
X18407500Y-7825000D02*
G75*
G02*
X18432500Y-7825000I12500J0D01*
G01*
X18552500Y-8520000D02*
G75*
G02*
X18527500Y-8520000I-12500J0D01*
G01*
X18527500Y-8520000D02*
G75*
G02*
X18552500Y-8520000I12500J0D01*
G01*
X18682500Y-6810000D02*
G75*
G02*
X18657500Y-6810000I-12500J0D01*
G01*
X18657500Y-6810000D02*
G75*
G02*
X18682500Y-6810000I12500J0D01*
G01*
X18729277Y-8696777D02*
G75*
G02*
X18704277Y-8696777I-12500J0D01*
G01*
X18704277Y-8696777D02*
G75*
G02*
X18729277Y-8696777I12500J0D01*
G01*
X18932500Y-6810000D02*
G75*
G02*
X18907500Y-6810000I-12500J0D01*
G01*
X18907500Y-6810000D02*
G75*
G02*
X18932500Y-6810000I12500J0D01*
G01*
X19182500Y-6810000D02*
G75*
G02*
X19157500Y-6810000I-12500J0D01*
G01*
X19157500Y-6810000D02*
G75*
G02*
X19182500Y-6810000I12500J0D01*
G01*
X19312500Y-8960000D02*
G75*
G02*
X19287500Y-8960000I-12500J0D01*
G01*
X19287500Y-8960000D02*
G75*
G02*
X19312500Y-8960000I12500J0D01*
G01*
X19312500Y-9420000D02*
G75*
G02*
X19287500Y-9420000I-12500J0D01*
G01*
X19287500Y-9420000D02*
G75*
G02*
X19312500Y-9420000I12500J0D01*
G01*
X19312501Y-7469923D02*
G75*
G02*
X19287501Y-7469923I-12500J0D01*
G01*
X19287501Y-7469923D02*
G75*
G02*
X19312501Y-7469923I12500J0D01*
G01*
X19562500Y-7470000D02*
G75*
G02*
X19537500Y-7470000I-12500J0D01*
G01*
X19537500Y-7470000D02*
G75*
G02*
X19562500Y-7470000I12500J0D01*
G01*
X19562500Y-8960000D02*
G75*
G02*
X19537500Y-8960000I-12500J0D01*
G01*
X19537500Y-8960000D02*
G75*
G02*
X19562500Y-8960000I12500J0D01*
G01*
X19562500Y-9420000D02*
G75*
G02*
X19537500Y-9420000I-12500J0D01*
G01*
X19537500Y-9420000D02*
G75*
G02*
X19562500Y-9420000I12500J0D01*
G01*
X19562501Y-7920910D02*
G75*
G02*
X19537501Y-7920910I-12500J0D01*
G01*
X19537501Y-7920910D02*
G75*
G02*
X19562501Y-7920910I12500J0D01*
G01*
X19812500Y-7470000D02*
G75*
G02*
X19787500Y-7470000I-12500J0D01*
G01*
X19787500Y-7470000D02*
G75*
G02*
X19812500Y-7470000I12500J0D01*
G01*
X19812500Y-7920986D02*
G75*
G02*
X19787500Y-7920986I-12500J0D01*
G01*
X19787500Y-7920986D02*
G75*
G02*
X19812500Y-7920986I12500J0D01*
G01*
X19812500Y-8960000D02*
G75*
G02*
X19787500Y-8960000I-12500J0D01*
G01*
X19787500Y-8960000D02*
G75*
G02*
X19812500Y-8960000I12500J0D01*
G01*
X19812500Y-9420000D02*
G75*
G02*
X19787500Y-9420000I-12500J0D01*
G01*
X19787500Y-9420000D02*
G75*
G02*
X19812500Y-9420000I12500J0D01*
G01*
X10100000Y-7419000D02*
X10100000Y-7449000D01*
X10085000Y-7434000D02*
X10115000Y-7434000D01*
X10100000Y-7916000D02*
X10100000Y-7946000D01*
X10085000Y-7931000D02*
X10115000Y-7931000D01*
X10100000Y-8416000D02*
X10100000Y-8446000D01*
X10085000Y-8431000D02*
X10115000Y-8431000D01*
X10600000Y-7205000D02*
X10600000Y-7235000D01*
X10585000Y-7220000D02*
X10615000Y-7220000D01*
X10600000Y-7419000D02*
X10600000Y-7449000D01*
X10585000Y-7434000D02*
X10615000Y-7434000D01*
X10609000Y-8416123D02*
X10609000Y-8446123D01*
X10594000Y-8431123D02*
X10624000Y-8431123D01*
X11100000Y-7205000D02*
X11100000Y-7235000D01*
X11085000Y-7220000D02*
X11115000Y-7220000D01*
X11100000Y-7419000D02*
X11100000Y-7449000D01*
X11085000Y-7434000D02*
X11115000Y-7434000D01*
X11117276Y-9416059D02*
X11117276Y-9446059D01*
X11102276Y-9431059D02*
X11132276Y-9431059D01*
X11117500Y-9565000D02*
X11117500Y-9595000D01*
X11102500Y-9580000D02*
X11132500Y-9580000D01*
X11118000Y-8416000D02*
X11118000Y-8446000D01*
X11103000Y-8431000D02*
X11133000Y-8431000D01*
X11118000Y-8916000D02*
X11118000Y-8946000D01*
X11103000Y-8931000D02*
X11133000Y-8931000D01*
X11600000Y-7205000D02*
X11600000Y-7235000D01*
X11585000Y-7220000D02*
X11615000Y-7220000D01*
X11600000Y-7419000D02*
X11600000Y-7449000D01*
X11585000Y-7434000D02*
X11615000Y-7434000D01*
X11618000Y-9416000D02*
X11618000Y-9446000D01*
X11603000Y-9431000D02*
X11633000Y-9431000D01*
X11618000Y-9565000D02*
X11618000Y-9595000D01*
X11603000Y-9580000D02*
X11633000Y-9580000D01*
X12100000Y-7205000D02*
X12100000Y-7235000D01*
X12085000Y-7220000D02*
X12115000Y-7220000D01*
X12100000Y-7419000D02*
X12100000Y-7449000D01*
X12085000Y-7434000D02*
X12115000Y-7434000D01*
X12118000Y-9416000D02*
X12118000Y-9446000D01*
X12103000Y-9431000D02*
X12133000Y-9431000D01*
X12118000Y-9565000D02*
X12118000Y-9595000D01*
X12103000Y-9580000D02*
X12133000Y-9580000D01*
X12600000Y-7205000D02*
X12600000Y-7235000D01*
X12585000Y-7220000D02*
X12615000Y-7220000D01*
X12600000Y-7419000D02*
X12600000Y-7449000D01*
X12585000Y-7434000D02*
X12615000Y-7434000D01*
X12618000Y-9416000D02*
X12618000Y-9446000D01*
X12603000Y-9431000D02*
X12633000Y-9431000D01*
X12618000Y-9565000D02*
X12618000Y-9595000D01*
X12603000Y-9580000D02*
X12633000Y-9580000D01*
X13010000Y-6835000D02*
X13010000Y-6865000D01*
X12995000Y-6850000D02*
X13025000Y-6850000D01*
X13100000Y-7419000D02*
X13100000Y-7449000D01*
X13085000Y-7434000D02*
X13115000Y-7434000D01*
X13118000Y-9416000D02*
X13118000Y-9446000D01*
X13103000Y-9431000D02*
X13133000Y-9431000D01*
X13118000Y-9565000D02*
X13118000Y-9595000D01*
X13103000Y-9580000D02*
X13133000Y-9580000D01*
X13120000Y-7205000D02*
X13120000Y-7235000D01*
X13105000Y-7220000D02*
X13135000Y-7220000D01*
X13482500Y-8690558D02*
X13482500Y-8720558D01*
X13467500Y-8705558D02*
X13497500Y-8705558D01*
X13487500Y-7205000D02*
X13487500Y-7235000D01*
X13472500Y-7220000D02*
X13502500Y-7220000D01*
X13600000Y-7419000D02*
X13600000Y-7449000D01*
X13585000Y-7434000D02*
X13615000Y-7434000D01*
X13618000Y-7915000D02*
X13618000Y-7945000D01*
X13603000Y-7930000D02*
X13633000Y-7930000D01*
X13618000Y-8416000D02*
X13618000Y-8446000D01*
X13603000Y-8431000D02*
X13633000Y-8431000D01*
X13618000Y-8916000D02*
X13618000Y-8946000D01*
X13603000Y-8931000D02*
X13633000Y-8931000D01*
X13618000Y-9416000D02*
X13618000Y-9446000D01*
X13603000Y-9431000D02*
X13633000Y-9431000D01*
X13618000Y-9565000D02*
X13618000Y-9595000D01*
X13603000Y-9580000D02*
X13633000Y-9580000D01*
X15520000Y-9885000D02*
X15520000Y-9915000D01*
X15505000Y-9900000D02*
X15535000Y-9900000D01*
X15880000Y-6785000D02*
X15880000Y-6815000D01*
X15865000Y-6800000D02*
X15895000Y-6800000D01*
X16218000Y-8096000D02*
X16218000Y-8126000D01*
X16203000Y-8111000D02*
X16233000Y-8111000D01*
X16490000Y-6895000D02*
X16490000Y-6925000D01*
X16475000Y-6910000D02*
X16505000Y-6910000D01*
X16545000Y-8531000D02*
X16545000Y-8561000D01*
X16530000Y-8546000D02*
X16560000Y-8546000D01*
X16760000Y-8024000D02*
X16760000Y-8054000D01*
X16745000Y-8039000D02*
X16775000Y-8039000D01*
X16819500Y-8531000D02*
X16819500Y-8561000D01*
X16804500Y-8546000D02*
X16834500Y-8546000D01*
X17565500Y-9762000D02*
X17565500Y-9792000D01*
X17550500Y-9777000D02*
X17580500Y-9777000D01*
X17778000Y-7441000D02*
X17778000Y-7471000D01*
X17763000Y-7456000D02*
X17793000Y-7456000D01*
X18328000Y-7966000D02*
X18328000Y-7996000D01*
X18313000Y-7981000D02*
X18343000Y-7981000D01*
X18328000Y-8486000D02*
X18328000Y-8516000D01*
X18313000Y-8501000D02*
X18343000Y-8501000D01*
X18664435Y-8207435D02*
X18664435Y-8237435D01*
X18649435Y-8222435D02*
X18679435Y-8222435D01*
X16079906Y-6900231D02*
X16079906Y-6854269D01*
X16033944Y-6854269D01*
X16033944Y-6900231D01*
X16079906Y-6900231D01*
X16089425Y-6942250D02*
X16089425Y-6812250D01*
X16024425Y-6812250D02*
G75*
G02*
X16089425Y-6812250I32500J0D01*
G01*
X16024425Y-6812250D02*
X16024425Y-6942250D01*
X16024425Y-6942250D02*
G75*
G03*
X16089425Y-6942250I32500J0D01*
G01*
X16079906Y-7282731D02*
X16079906Y-7236769D01*
X16033944Y-7236769D01*
X16033944Y-7282731D01*
X16079906Y-7282731D01*
X16089425Y-7309750D02*
X16089425Y-7209750D01*
X16024425Y-7209750D02*
G75*
G02*
X16089425Y-7209750I32500J0D01*
G01*
X16024425Y-7209750D02*
X16024425Y-7309750D01*
X16024425Y-7309750D02*
G75*
G03*
X16089425Y-7309750I32500J0D01*
G01*
X16943906Y-6900231D02*
X16943906Y-6854269D01*
X16897944Y-6854269D01*
X16897944Y-6900231D01*
X16943906Y-6900231D01*
X16953425Y-6942250D02*
X16953425Y-6812250D01*
X16888425Y-6812250D02*
G75*
G02*
X16953425Y-6812250I32500J0D01*
G01*
X16888425Y-6812250D02*
X16888425Y-6942250D01*
X16888425Y-6942250D02*
G75*
G03*
X16953425Y-6942250I32500J0D01*
G01*
X16943906Y-7282731D02*
X16943906Y-7236769D01*
X16897944Y-7236769D01*
X16897944Y-7282731D01*
X16943906Y-7282731D01*
X16953425Y-7309750D02*
X16953425Y-7209750D01*
X16888425Y-7209750D02*
G75*
G02*
X16953425Y-7209750I32500J0D01*
G01*
X16888425Y-7209750D02*
X16888425Y-7309750D01*
X16888425Y-7309750D02*
G75*
G03*
X16953425Y-7309750I32500J0D01*
G01*
D13*
X13178000Y-7100690D02*
X13237690Y-7041000D01*
X13178000Y-6981310D01*
X13118310Y-7041000D01*
X13178000Y-7100690D01*
X13432000Y-7100690D02*
X13491690Y-7041000D01*
X13432000Y-6981310D01*
X13372310Y-7041000D01*
X13432000Y-7100690D01*
X13686000Y-7100690D02*
X13745690Y-7041000D01*
X13686000Y-6981310D01*
X13626310Y-7041000D01*
X13686000Y-7100690D01*
X13940000Y-7100690D02*
X13999690Y-7041000D01*
X13940000Y-6981310D01*
X13880310Y-7041000D01*
X13940000Y-7100690D01*
X14194000Y-7100690D02*
X14253690Y-7041000D01*
X14194000Y-6981310D01*
X14134310Y-7041000D01*
X14194000Y-7100690D01*
X14448000Y-7100690D02*
X14507690Y-7041000D01*
X14448000Y-6981310D01*
X14388310Y-7041000D01*
X14448000Y-7100690D01*
D14*
X10482500Y-7836500D02*
X10637500Y-7991500D01*
X10637500Y-7836500D02*
X10482500Y-7991500D01*
X10637500Y-7914000D02*
G75*
G02*
X10482500Y-7914000I-77500J0D01*
G01*
X10482500Y-7914000D02*
G75*
G02*
X10637500Y-7914000I77500J0D01*
G01*
D15*
X10223500Y-7577500D02*
X10388500Y-7742500D01*
X10388500Y-7577500D02*
X10223500Y-7742500D01*
X10306000Y-7577500D02*
X10306000Y-7742500D01*
X10223500Y-7660000D02*
X10388500Y-7660000D01*
X10223500Y-8085500D02*
X10388500Y-8250500D01*
X10388500Y-8085500D02*
X10223500Y-8250500D01*
X10306000Y-8085500D02*
X10306000Y-8250500D01*
X10223500Y-8168000D02*
X10388500Y-8168000D01*
X10731500Y-7577500D02*
X10896500Y-7742500D01*
X10896500Y-7577500D02*
X10731500Y-7742500D01*
X10814000Y-7577500D02*
X10814000Y-7742500D01*
X10731500Y-7660000D02*
X10896500Y-7660000D01*
X10731500Y-8085500D02*
X10896500Y-8250500D01*
X10896500Y-8085500D02*
X10731500Y-8250500D01*
X10814000Y-8085500D02*
X10814000Y-8250500D01*
X10731500Y-8168000D02*
X10896500Y-8168000D01*
D11*
X10276277Y-10494984D02*
X10276277Y-10294984D01*
X10276277Y-10294984D02*
X10323896Y-10294984D01*
X10323896Y-10294984D02*
X10352467Y-10304508D01*
X10352467Y-10304508D02*
X10371515Y-10323555D01*
X10371515Y-10323555D02*
X10381039Y-10342603D01*
X10381039Y-10342603D02*
X10390563Y-10380698D01*
X10390563Y-10380698D02*
X10390563Y-10409270D01*
X10390563Y-10409270D02*
X10381039Y-10447365D01*
X10381039Y-10447365D02*
X10371515Y-10466412D01*
X10371515Y-10466412D02*
X10352467Y-10485460D01*
X10352467Y-10485460D02*
X10323896Y-10494984D01*
X10323896Y-10494984D02*
X10276277Y-10494984D01*
X10476277Y-10494984D02*
X10476277Y-10361650D01*
X10476277Y-10399746D02*
X10485801Y-10380698D01*
X10485801Y-10380698D02*
X10495324Y-10371174D01*
X10495324Y-10371174D02*
X10514372Y-10361650D01*
X10514372Y-10361650D02*
X10533420Y-10361650D01*
X10600086Y-10494984D02*
X10600086Y-10361650D01*
X10600086Y-10294984D02*
X10590563Y-10304508D01*
X10590563Y-10304508D02*
X10600086Y-10314031D01*
X10600086Y-10314031D02*
X10609610Y-10304508D01*
X10609610Y-10304508D02*
X10600086Y-10294984D01*
X10600086Y-10294984D02*
X10600086Y-10314031D01*
X10723896Y-10494984D02*
X10704848Y-10485460D01*
X10704848Y-10485460D02*
X10695324Y-10466412D01*
X10695324Y-10466412D02*
X10695324Y-10294984D01*
X10828658Y-10494984D02*
X10809610Y-10485460D01*
X10809610Y-10485460D02*
X10800086Y-10466412D01*
X10800086Y-10466412D02*
X10800086Y-10294984D01*
X11057229Y-10494984D02*
X11057229Y-10294984D01*
X11057229Y-10294984D02*
X11123896Y-10437841D01*
X11123896Y-10437841D02*
X11190562Y-10294984D01*
X11190562Y-10294984D02*
X11190562Y-10494984D01*
X11371515Y-10494984D02*
X11371515Y-10390222D01*
X11371515Y-10390222D02*
X11361991Y-10371174D01*
X11361991Y-10371174D02*
X11342943Y-10361650D01*
X11342943Y-10361650D02*
X11304848Y-10361650D01*
X11304848Y-10361650D02*
X11285801Y-10371174D01*
X11371515Y-10485460D02*
X11352467Y-10494984D01*
X11352467Y-10494984D02*
X11304848Y-10494984D01*
X11304848Y-10494984D02*
X11285801Y-10485460D01*
X11285801Y-10485460D02*
X11276277Y-10466412D01*
X11276277Y-10466412D02*
X11276277Y-10447365D01*
X11276277Y-10447365D02*
X11285801Y-10428317D01*
X11285801Y-10428317D02*
X11304848Y-10418793D01*
X11304848Y-10418793D02*
X11352467Y-10418793D01*
X11352467Y-10418793D02*
X11371515Y-10409270D01*
X11466753Y-10361650D02*
X11466753Y-10561650D01*
X11466753Y-10371174D02*
X11485801Y-10361650D01*
X11485801Y-10361650D02*
X11523896Y-10361650D01*
X11523896Y-10361650D02*
X11542943Y-10371174D01*
X11542943Y-10371174D02*
X11552467Y-10380698D01*
X11552467Y-10380698D02*
X11561991Y-10399746D01*
X11561991Y-10399746D02*
X11561991Y-10456889D01*
X11561991Y-10456889D02*
X11552467Y-10475936D01*
X11552467Y-10475936D02*
X11542943Y-10485460D01*
X11542943Y-10485460D02*
X11523896Y-10494984D01*
X11523896Y-10494984D02*
X11485801Y-10494984D01*
X11485801Y-10494984D02*
X11466753Y-10485460D01*
X11647705Y-10475936D02*
X11657229Y-10485460D01*
X11657229Y-10485460D02*
X11647705Y-10494984D01*
X11647705Y-10494984D02*
X11638182Y-10485460D01*
X11638182Y-10485460D02*
X11647705Y-10475936D01*
X11647705Y-10475936D02*
X11647705Y-10494984D01*
X11647705Y-10371174D02*
X11657229Y-10380698D01*
X11657229Y-10380698D02*
X11647705Y-10390222D01*
X11647705Y-10390222D02*
X11638182Y-10380698D01*
X11638182Y-10380698D02*
X11647705Y-10371174D01*
X11647705Y-10371174D02*
X11647705Y-10390222D01*
D12*
X9995500Y-10813500D02*
X10015500Y-10833500D01*
X10015500Y-10813500D02*
X9995500Y-10833500D01*
D11*
X10314372Y-10714984D02*
X10333420Y-10714984D01*
X10333420Y-10714984D02*
X10352467Y-10724508D01*
X10352467Y-10724508D02*
X10361991Y-10734031D01*
X10361991Y-10734031D02*
X10371515Y-10753079D01*
X10371515Y-10753079D02*
X10381039Y-10791174D01*
X10381039Y-10791174D02*
X10381039Y-10838793D01*
X10381039Y-10838793D02*
X10371515Y-10876889D01*
X10371515Y-10876889D02*
X10361991Y-10895936D01*
X10361991Y-10895936D02*
X10352467Y-10905460D01*
X10352467Y-10905460D02*
X10333420Y-10914984D01*
X10333420Y-10914984D02*
X10314372Y-10914984D01*
X10314372Y-10914984D02*
X10295324Y-10905460D01*
X10295324Y-10905460D02*
X10285801Y-10895936D01*
X10285801Y-10895936D02*
X10276277Y-10876889D01*
X10276277Y-10876889D02*
X10266753Y-10838793D01*
X10266753Y-10838793D02*
X10266753Y-10791174D01*
X10266753Y-10791174D02*
X10276277Y-10753079D01*
X10276277Y-10753079D02*
X10285801Y-10734031D01*
X10285801Y-10734031D02*
X10295324Y-10724508D01*
X10295324Y-10724508D02*
X10314372Y-10714984D01*
X10466753Y-10895936D02*
X10476277Y-10905460D01*
X10476277Y-10905460D02*
X10466753Y-10914984D01*
X10466753Y-10914984D02*
X10457229Y-10905460D01*
X10457229Y-10905460D02*
X10466753Y-10895936D01*
X10466753Y-10895936D02*
X10466753Y-10914984D01*
X10552467Y-10734031D02*
X10561991Y-10724508D01*
X10561991Y-10724508D02*
X10581039Y-10714984D01*
X10581039Y-10714984D02*
X10628658Y-10714984D01*
X10628658Y-10714984D02*
X10647705Y-10724508D01*
X10647705Y-10724508D02*
X10657229Y-10734031D01*
X10657229Y-10734031D02*
X10666753Y-10753079D01*
X10666753Y-10753079D02*
X10666753Y-10772127D01*
X10666753Y-10772127D02*
X10657229Y-10800698D01*
X10657229Y-10800698D02*
X10542944Y-10914984D01*
X10542944Y-10914984D02*
X10666753Y-10914984D01*
X10790563Y-10714984D02*
X10809610Y-10714984D01*
X10809610Y-10714984D02*
X10828658Y-10724508D01*
X10828658Y-10724508D02*
X10838182Y-10734031D01*
X10838182Y-10734031D02*
X10847705Y-10753079D01*
X10847705Y-10753079D02*
X10857229Y-10791174D01*
X10857229Y-10791174D02*
X10857229Y-10838793D01*
X10857229Y-10838793D02*
X10847705Y-10876889D01*
X10847705Y-10876889D02*
X10838182Y-10895936D01*
X10838182Y-10895936D02*
X10828658Y-10905460D01*
X10828658Y-10905460D02*
X10809610Y-10914984D01*
X10809610Y-10914984D02*
X10790563Y-10914984D01*
X10790563Y-10914984D02*
X10771515Y-10905460D01*
X10771515Y-10905460D02*
X10761991Y-10895936D01*
X10761991Y-10895936D02*
X10752467Y-10876889D01*
X10752467Y-10876889D02*
X10742944Y-10838793D01*
X10742944Y-10838793D02*
X10742944Y-10791174D01*
X10742944Y-10791174D02*
X10752467Y-10753079D01*
X10752467Y-10753079D02*
X10761991Y-10734031D01*
X10761991Y-10734031D02*
X10771515Y-10724508D01*
X10771515Y-10724508D02*
X10790563Y-10714984D01*
X10981039Y-10714984D02*
X11000086Y-10714984D01*
X11000086Y-10714984D02*
X11019134Y-10724508D01*
X11019134Y-10724508D02*
X11028658Y-10734031D01*
X11028658Y-10734031D02*
X11038182Y-10753079D01*
X11038182Y-10753079D02*
X11047705Y-10791174D01*
X11047705Y-10791174D02*
X11047705Y-10838793D01*
X11047705Y-10838793D02*
X11038182Y-10876889D01*
X11038182Y-10876889D02*
X11028658Y-10895936D01*
X11028658Y-10895936D02*
X11019134Y-10905460D01*
X11019134Y-10905460D02*
X11000086Y-10914984D01*
X11000086Y-10914984D02*
X10981039Y-10914984D01*
X10981039Y-10914984D02*
X10961991Y-10905460D01*
X10961991Y-10905460D02*
X10952467Y-10895936D01*
X10952467Y-10895936D02*
X10942944Y-10876889D01*
X10942944Y-10876889D02*
X10933420Y-10838793D01*
X10933420Y-10838793D02*
X10933420Y-10791174D01*
X10933420Y-10791174D02*
X10942944Y-10753079D01*
X10942944Y-10753079D02*
X10952467Y-10734031D01*
X10952467Y-10734031D02*
X10961991Y-10724508D01*
X10961991Y-10724508D02*
X10981039Y-10714984D01*
X11133420Y-10914984D02*
X11133420Y-10781650D01*
X11133420Y-10800698D02*
X11142944Y-10791174D01*
X11142944Y-10791174D02*
X11161991Y-10781650D01*
X11161991Y-10781650D02*
X11190563Y-10781650D01*
X11190563Y-10781650D02*
X11209610Y-10791174D01*
X11209610Y-10791174D02*
X11219134Y-10810222D01*
X11219134Y-10810222D02*
X11219134Y-10914984D01*
X11219134Y-10810222D02*
X11228658Y-10791174D01*
X11228658Y-10791174D02*
X11247705Y-10781650D01*
X11247705Y-10781650D02*
X11276277Y-10781650D01*
X11276277Y-10781650D02*
X11295324Y-10791174D01*
X11295324Y-10791174D02*
X11304848Y-10810222D01*
X11304848Y-10810222D02*
X11304848Y-10914984D01*
X11400086Y-10914984D02*
X11400086Y-10781650D01*
X11400086Y-10800698D02*
X11409610Y-10791174D01*
X11409610Y-10791174D02*
X11428658Y-10781650D01*
X11428658Y-10781650D02*
X11457229Y-10781650D01*
X11457229Y-10781650D02*
X11476277Y-10791174D01*
X11476277Y-10791174D02*
X11485801Y-10810222D01*
X11485801Y-10810222D02*
X11485801Y-10914984D01*
X11485801Y-10810222D02*
X11495324Y-10791174D01*
X11495324Y-10791174D02*
X11514372Y-10781650D01*
X11514372Y-10781650D02*
X11542943Y-10781650D01*
X11542943Y-10781650D02*
X11561991Y-10791174D01*
X11561991Y-10791174D02*
X11571515Y-10810222D01*
X11571515Y-10810222D02*
X11571515Y-10914984D01*
X11961991Y-10705460D02*
X11790563Y-10962603D01*
X12219134Y-10714984D02*
X12238182Y-10714984D01*
X12238182Y-10714984D02*
X12257229Y-10724508D01*
X12257229Y-10724508D02*
X12266753Y-10734031D01*
X12266753Y-10734031D02*
X12276277Y-10753079D01*
X12276277Y-10753079D02*
X12285801Y-10791174D01*
X12285801Y-10791174D02*
X12285801Y-10838793D01*
X12285801Y-10838793D02*
X12276277Y-10876889D01*
X12276277Y-10876889D02*
X12266753Y-10895936D01*
X12266753Y-10895936D02*
X12257229Y-10905460D01*
X12257229Y-10905460D02*
X12238182Y-10914984D01*
X12238182Y-10914984D02*
X12219134Y-10914984D01*
X12219134Y-10914984D02*
X12200086Y-10905460D01*
X12200086Y-10905460D02*
X12190563Y-10895936D01*
X12190563Y-10895936D02*
X12181039Y-10876889D01*
X12181039Y-10876889D02*
X12171515Y-10838793D01*
X12171515Y-10838793D02*
X12171515Y-10791174D01*
X12171515Y-10791174D02*
X12181039Y-10753079D01*
X12181039Y-10753079D02*
X12190563Y-10734031D01*
X12190563Y-10734031D02*
X12200086Y-10724508D01*
X12200086Y-10724508D02*
X12219134Y-10714984D01*
X12371515Y-10895936D02*
X12381039Y-10905460D01*
X12381039Y-10905460D02*
X12371515Y-10914984D01*
X12371515Y-10914984D02*
X12361991Y-10905460D01*
X12361991Y-10905460D02*
X12371515Y-10895936D01*
X12371515Y-10895936D02*
X12371515Y-10914984D01*
X12504848Y-10714984D02*
X12523896Y-10714984D01*
X12523896Y-10714984D02*
X12542944Y-10724508D01*
X12542944Y-10724508D02*
X12552467Y-10734031D01*
X12552467Y-10734031D02*
X12561991Y-10753079D01*
X12561991Y-10753079D02*
X12571515Y-10791174D01*
X12571515Y-10791174D02*
X12571515Y-10838793D01*
X12571515Y-10838793D02*
X12561991Y-10876889D01*
X12561991Y-10876889D02*
X12552467Y-10895936D01*
X12552467Y-10895936D02*
X12542944Y-10905460D01*
X12542944Y-10905460D02*
X12523896Y-10914984D01*
X12523896Y-10914984D02*
X12504848Y-10914984D01*
X12504848Y-10914984D02*
X12485801Y-10905460D01*
X12485801Y-10905460D02*
X12476277Y-10895936D01*
X12476277Y-10895936D02*
X12466753Y-10876889D01*
X12466753Y-10876889D02*
X12457229Y-10838793D01*
X12457229Y-10838793D02*
X12457229Y-10791174D01*
X12457229Y-10791174D02*
X12466753Y-10753079D01*
X12466753Y-10753079D02*
X12476277Y-10734031D01*
X12476277Y-10734031D02*
X12485801Y-10724508D01*
X12485801Y-10724508D02*
X12504848Y-10714984D01*
X12695325Y-10714984D02*
X12714372Y-10714984D01*
X12714372Y-10714984D02*
X12733420Y-10724508D01*
X12733420Y-10724508D02*
X12742944Y-10734031D01*
X12742944Y-10734031D02*
X12752467Y-10753079D01*
X12752467Y-10753079D02*
X12761991Y-10791174D01*
X12761991Y-10791174D02*
X12761991Y-10838793D01*
X12761991Y-10838793D02*
X12752467Y-10876889D01*
X12752467Y-10876889D02*
X12742944Y-10895936D01*
X12742944Y-10895936D02*
X12733420Y-10905460D01*
X12733420Y-10905460D02*
X12714372Y-10914984D01*
X12714372Y-10914984D02*
X12695325Y-10914984D01*
X12695325Y-10914984D02*
X12676277Y-10905460D01*
X12676277Y-10905460D02*
X12666753Y-10895936D01*
X12666753Y-10895936D02*
X12657229Y-10876889D01*
X12657229Y-10876889D02*
X12647706Y-10838793D01*
X12647706Y-10838793D02*
X12647706Y-10791174D01*
X12647706Y-10791174D02*
X12657229Y-10753079D01*
X12657229Y-10753079D02*
X12666753Y-10734031D01*
X12666753Y-10734031D02*
X12676277Y-10724508D01*
X12676277Y-10724508D02*
X12695325Y-10714984D01*
X12828658Y-10714984D02*
X12961991Y-10714984D01*
X12961991Y-10714984D02*
X12876277Y-10914984D01*
X13047706Y-10914984D02*
X13085801Y-10914984D01*
X13085801Y-10914984D02*
X13104848Y-10905460D01*
X13104848Y-10905460D02*
X13114372Y-10895936D01*
X13114372Y-10895936D02*
X13133420Y-10867365D01*
X13133420Y-10867365D02*
X13142944Y-10829270D01*
X13142944Y-10829270D02*
X13142944Y-10753079D01*
X13142944Y-10753079D02*
X13133420Y-10734031D01*
X13133420Y-10734031D02*
X13123896Y-10724508D01*
X13123896Y-10724508D02*
X13104848Y-10714984D01*
X13104848Y-10714984D02*
X13066753Y-10714984D01*
X13066753Y-10714984D02*
X13047706Y-10724508D01*
X13047706Y-10724508D02*
X13038182Y-10734031D01*
X13038182Y-10734031D02*
X13028658Y-10753079D01*
X13028658Y-10753079D02*
X13028658Y-10800698D01*
X13028658Y-10800698D02*
X13038182Y-10819746D01*
X13038182Y-10819746D02*
X13047706Y-10829270D01*
X13047706Y-10829270D02*
X13066753Y-10838793D01*
X13066753Y-10838793D02*
X13104848Y-10838793D01*
X13104848Y-10838793D02*
X13123896Y-10829270D01*
X13123896Y-10829270D02*
X13133420Y-10819746D01*
X13133420Y-10819746D02*
X13142944Y-10800698D01*
X13219134Y-10714984D02*
X13219134Y-10753079D01*
X13295325Y-10714984D02*
X13295325Y-10753079D01*
X13590563Y-10991174D02*
X13581039Y-10981650D01*
X13581039Y-10981650D02*
X13561991Y-10953079D01*
X13561991Y-10953079D02*
X13552468Y-10934031D01*
X13552468Y-10934031D02*
X13542944Y-10905460D01*
X13542944Y-10905460D02*
X13533420Y-10857841D01*
X13533420Y-10857841D02*
X13533420Y-10819746D01*
X13533420Y-10819746D02*
X13542944Y-10772127D01*
X13542944Y-10772127D02*
X13552468Y-10743555D01*
X13552468Y-10743555D02*
X13561991Y-10724508D01*
X13561991Y-10724508D02*
X13581039Y-10695936D01*
X13581039Y-10695936D02*
X13590563Y-10686412D01*
X13657229Y-10734031D02*
X13666753Y-10724508D01*
X13666753Y-10724508D02*
X13685801Y-10714984D01*
X13685801Y-10714984D02*
X13733420Y-10714984D01*
X13733420Y-10714984D02*
X13752468Y-10724508D01*
X13752468Y-10724508D02*
X13761991Y-10734031D01*
X13761991Y-10734031D02*
X13771515Y-10753079D01*
X13771515Y-10753079D02*
X13771515Y-10772127D01*
X13771515Y-10772127D02*
X13761991Y-10800698D01*
X13761991Y-10800698D02*
X13647706Y-10914984D01*
X13647706Y-10914984D02*
X13771515Y-10914984D01*
X13885801Y-10800698D02*
X13866753Y-10791174D01*
X13866753Y-10791174D02*
X13857229Y-10781650D01*
X13857229Y-10781650D02*
X13847706Y-10762603D01*
X13847706Y-10762603D02*
X13847706Y-10753079D01*
X13847706Y-10753079D02*
X13857229Y-10734031D01*
X13857229Y-10734031D02*
X13866753Y-10724508D01*
X13866753Y-10724508D02*
X13885801Y-10714984D01*
X13885801Y-10714984D02*
X13923896Y-10714984D01*
X13923896Y-10714984D02*
X13942944Y-10724508D01*
X13942944Y-10724508D02*
X13952468Y-10734031D01*
X13952468Y-10734031D02*
X13961991Y-10753079D01*
X13961991Y-10753079D02*
X13961991Y-10762603D01*
X13961991Y-10762603D02*
X13952468Y-10781650D01*
X13952468Y-10781650D02*
X13942944Y-10791174D01*
X13942944Y-10791174D02*
X13923896Y-10800698D01*
X13923896Y-10800698D02*
X13885801Y-10800698D01*
X13885801Y-10800698D02*
X13866753Y-10810222D01*
X13866753Y-10810222D02*
X13857229Y-10819746D01*
X13857229Y-10819746D02*
X13847706Y-10838793D01*
X13847706Y-10838793D02*
X13847706Y-10876889D01*
X13847706Y-10876889D02*
X13857229Y-10895936D01*
X13857229Y-10895936D02*
X13866753Y-10905460D01*
X13866753Y-10905460D02*
X13885801Y-10914984D01*
X13885801Y-10914984D02*
X13923896Y-10914984D01*
X13923896Y-10914984D02*
X13942944Y-10905460D01*
X13942944Y-10905460D02*
X13952468Y-10895936D01*
X13952468Y-10895936D02*
X13961991Y-10876889D01*
X13961991Y-10876889D02*
X13961991Y-10838793D01*
X13961991Y-10838793D02*
X13952468Y-10819746D01*
X13952468Y-10819746D02*
X13942944Y-10810222D01*
X13942944Y-10810222D02*
X13923896Y-10800698D01*
X14133420Y-10781650D02*
X14133420Y-10914984D01*
X14085801Y-10705460D02*
X14038182Y-10848317D01*
X14038182Y-10848317D02*
X14161991Y-10848317D01*
X14390563Y-10914984D02*
X14390563Y-10714984D01*
X14476277Y-10914984D02*
X14476277Y-10810222D01*
X14476277Y-10810222D02*
X14466753Y-10791174D01*
X14466753Y-10791174D02*
X14447706Y-10781650D01*
X14447706Y-10781650D02*
X14419134Y-10781650D01*
X14419134Y-10781650D02*
X14400087Y-10791174D01*
X14400087Y-10791174D02*
X14390563Y-10800698D01*
X14600087Y-10914984D02*
X14581039Y-10905460D01*
X14581039Y-10905460D02*
X14571515Y-10895936D01*
X14571515Y-10895936D02*
X14561991Y-10876889D01*
X14561991Y-10876889D02*
X14561991Y-10819746D01*
X14561991Y-10819746D02*
X14571515Y-10800698D01*
X14571515Y-10800698D02*
X14581039Y-10791174D01*
X14581039Y-10791174D02*
X14600087Y-10781650D01*
X14600087Y-10781650D02*
X14628658Y-10781650D01*
X14628658Y-10781650D02*
X14647706Y-10791174D01*
X14647706Y-10791174D02*
X14657230Y-10800698D01*
X14657230Y-10800698D02*
X14666753Y-10819746D01*
X14666753Y-10819746D02*
X14666753Y-10876889D01*
X14666753Y-10876889D02*
X14657230Y-10895936D01*
X14657230Y-10895936D02*
X14647706Y-10905460D01*
X14647706Y-10905460D02*
X14628658Y-10914984D01*
X14628658Y-10914984D02*
X14600087Y-10914984D01*
X14781039Y-10914984D02*
X14761991Y-10905460D01*
X14761991Y-10905460D02*
X14752468Y-10886412D01*
X14752468Y-10886412D02*
X14752468Y-10714984D01*
X14933420Y-10905460D02*
X14914372Y-10914984D01*
X14914372Y-10914984D02*
X14876277Y-10914984D01*
X14876277Y-10914984D02*
X14857230Y-10905460D01*
X14857230Y-10905460D02*
X14847706Y-10886412D01*
X14847706Y-10886412D02*
X14847706Y-10810222D01*
X14847706Y-10810222D02*
X14857230Y-10791174D01*
X14857230Y-10791174D02*
X14876277Y-10781650D01*
X14876277Y-10781650D02*
X14914372Y-10781650D01*
X14914372Y-10781650D02*
X14933420Y-10791174D01*
X14933420Y-10791174D02*
X14942944Y-10810222D01*
X14942944Y-10810222D02*
X14942944Y-10829270D01*
X14942944Y-10829270D02*
X14847706Y-10848317D01*
X15019134Y-10905460D02*
X15038182Y-10914984D01*
X15038182Y-10914984D02*
X15076277Y-10914984D01*
X15076277Y-10914984D02*
X15095325Y-10905460D01*
X15095325Y-10905460D02*
X15104849Y-10886412D01*
X15104849Y-10886412D02*
X15104849Y-10876889D01*
X15104849Y-10876889D02*
X15095325Y-10857841D01*
X15095325Y-10857841D02*
X15076277Y-10848317D01*
X15076277Y-10848317D02*
X15047706Y-10848317D01*
X15047706Y-10848317D02*
X15028658Y-10838793D01*
X15028658Y-10838793D02*
X15019134Y-10819746D01*
X15019134Y-10819746D02*
X15019134Y-10810222D01*
X15019134Y-10810222D02*
X15028658Y-10791174D01*
X15028658Y-10791174D02*
X15047706Y-10781650D01*
X15047706Y-10781650D02*
X15076277Y-10781650D01*
X15076277Y-10781650D02*
X15095325Y-10791174D01*
X15171515Y-10991174D02*
X15181039Y-10981650D01*
X15181039Y-10981650D02*
X15200087Y-10953079D01*
X15200087Y-10953079D02*
X15209611Y-10934031D01*
X15209611Y-10934031D02*
X15219134Y-10905460D01*
X15219134Y-10905460D02*
X15228658Y-10857841D01*
X15228658Y-10857841D02*
X15228658Y-10819746D01*
X15228658Y-10819746D02*
X15219134Y-10772127D01*
X15219134Y-10772127D02*
X15209611Y-10743555D01*
X15209611Y-10743555D02*
X15200087Y-10724508D01*
X15200087Y-10724508D02*
X15181039Y-10695936D01*
X15181039Y-10695936D02*
X15171515Y-10686412D01*
D12*
X10015500Y-11087500D02*
G75*
G02*
X9990500Y-11087500I-12500J0D01*
G01*
X9990500Y-11087500D02*
G75*
G02*
X10015500Y-11087500I12500J0D01*
G01*
D11*
X10314372Y-10978984D02*
X10333420Y-10978984D01*
X10333420Y-10978984D02*
X10352467Y-10988508D01*
X10352467Y-10988508D02*
X10361991Y-10998031D01*
X10361991Y-10998031D02*
X10371515Y-11017079D01*
X10371515Y-11017079D02*
X10381039Y-11055174D01*
X10381039Y-11055174D02*
X10381039Y-11102793D01*
X10381039Y-11102793D02*
X10371515Y-11140889D01*
X10371515Y-11140889D02*
X10361991Y-11159936D01*
X10361991Y-11159936D02*
X10352467Y-11169460D01*
X10352467Y-11169460D02*
X10333420Y-11178984D01*
X10333420Y-11178984D02*
X10314372Y-11178984D01*
X10314372Y-11178984D02*
X10295324Y-11169460D01*
X10295324Y-11169460D02*
X10285801Y-11159936D01*
X10285801Y-11159936D02*
X10276277Y-11140889D01*
X10276277Y-11140889D02*
X10266753Y-11102793D01*
X10266753Y-11102793D02*
X10266753Y-11055174D01*
X10266753Y-11055174D02*
X10276277Y-11017079D01*
X10276277Y-11017079D02*
X10285801Y-10998031D01*
X10285801Y-10998031D02*
X10295324Y-10988508D01*
X10295324Y-10988508D02*
X10314372Y-10978984D01*
X10466753Y-11159936D02*
X10476277Y-11169460D01*
X10476277Y-11169460D02*
X10466753Y-11178984D01*
X10466753Y-11178984D02*
X10457229Y-11169460D01*
X10457229Y-11169460D02*
X10466753Y-11159936D01*
X10466753Y-11159936D02*
X10466753Y-11178984D01*
X10552467Y-10998031D02*
X10561991Y-10988508D01*
X10561991Y-10988508D02*
X10581039Y-10978984D01*
X10581039Y-10978984D02*
X10628658Y-10978984D01*
X10628658Y-10978984D02*
X10647705Y-10988508D01*
X10647705Y-10988508D02*
X10657229Y-10998031D01*
X10657229Y-10998031D02*
X10666753Y-11017079D01*
X10666753Y-11017079D02*
X10666753Y-11036127D01*
X10666753Y-11036127D02*
X10657229Y-11064698D01*
X10657229Y-11064698D02*
X10542944Y-11178984D01*
X10542944Y-11178984D02*
X10666753Y-11178984D01*
X10847705Y-10978984D02*
X10752467Y-10978984D01*
X10752467Y-10978984D02*
X10742944Y-11074222D01*
X10742944Y-11074222D02*
X10752467Y-11064698D01*
X10752467Y-11064698D02*
X10771515Y-11055174D01*
X10771515Y-11055174D02*
X10819134Y-11055174D01*
X10819134Y-11055174D02*
X10838182Y-11064698D01*
X10838182Y-11064698D02*
X10847705Y-11074222D01*
X10847705Y-11074222D02*
X10857229Y-11093270D01*
X10857229Y-11093270D02*
X10857229Y-11140889D01*
X10857229Y-11140889D02*
X10847705Y-11159936D01*
X10847705Y-11159936D02*
X10838182Y-11169460D01*
X10838182Y-11169460D02*
X10819134Y-11178984D01*
X10819134Y-11178984D02*
X10771515Y-11178984D01*
X10771515Y-11178984D02*
X10752467Y-11169460D01*
X10752467Y-11169460D02*
X10742944Y-11159936D01*
X10981039Y-10978984D02*
X11000086Y-10978984D01*
X11000086Y-10978984D02*
X11019134Y-10988508D01*
X11019134Y-10988508D02*
X11028658Y-10998031D01*
X11028658Y-10998031D02*
X11038182Y-11017079D01*
X11038182Y-11017079D02*
X11047705Y-11055174D01*
X11047705Y-11055174D02*
X11047705Y-11102793D01*
X11047705Y-11102793D02*
X11038182Y-11140889D01*
X11038182Y-11140889D02*
X11028658Y-11159936D01*
X11028658Y-11159936D02*
X11019134Y-11169460D01*
X11019134Y-11169460D02*
X11000086Y-11178984D01*
X11000086Y-11178984D02*
X10981039Y-11178984D01*
X10981039Y-11178984D02*
X10961991Y-11169460D01*
X10961991Y-11169460D02*
X10952467Y-11159936D01*
X10952467Y-11159936D02*
X10942944Y-11140889D01*
X10942944Y-11140889D02*
X10933420Y-11102793D01*
X10933420Y-11102793D02*
X10933420Y-11055174D01*
X10933420Y-11055174D02*
X10942944Y-11017079D01*
X10942944Y-11017079D02*
X10952467Y-10998031D01*
X10952467Y-10998031D02*
X10961991Y-10988508D01*
X10961991Y-10988508D02*
X10981039Y-10978984D01*
X11133420Y-11178984D02*
X11133420Y-11045650D01*
X11133420Y-11064698D02*
X11142944Y-11055174D01*
X11142944Y-11055174D02*
X11161991Y-11045650D01*
X11161991Y-11045650D02*
X11190563Y-11045650D01*
X11190563Y-11045650D02*
X11209610Y-11055174D01*
X11209610Y-11055174D02*
X11219134Y-11074222D01*
X11219134Y-11074222D02*
X11219134Y-11178984D01*
X11219134Y-11074222D02*
X11228658Y-11055174D01*
X11228658Y-11055174D02*
X11247705Y-11045650D01*
X11247705Y-11045650D02*
X11276277Y-11045650D01*
X11276277Y-11045650D02*
X11295324Y-11055174D01*
X11295324Y-11055174D02*
X11304848Y-11074222D01*
X11304848Y-11074222D02*
X11304848Y-11178984D01*
X11400086Y-11178984D02*
X11400086Y-11045650D01*
X11400086Y-11064698D02*
X11409610Y-11055174D01*
X11409610Y-11055174D02*
X11428658Y-11045650D01*
X11428658Y-11045650D02*
X11457229Y-11045650D01*
X11457229Y-11045650D02*
X11476277Y-11055174D01*
X11476277Y-11055174D02*
X11485801Y-11074222D01*
X11485801Y-11074222D02*
X11485801Y-11178984D01*
X11485801Y-11074222D02*
X11495324Y-11055174D01*
X11495324Y-11055174D02*
X11514372Y-11045650D01*
X11514372Y-11045650D02*
X11542943Y-11045650D01*
X11542943Y-11045650D02*
X11561991Y-11055174D01*
X11561991Y-11055174D02*
X11571515Y-11074222D01*
X11571515Y-11074222D02*
X11571515Y-11178984D01*
X11961991Y-10969460D02*
X11790563Y-11226603D01*
X12219134Y-10978984D02*
X12238182Y-10978984D01*
X12238182Y-10978984D02*
X12257229Y-10988508D01*
X12257229Y-10988508D02*
X12266753Y-10998031D01*
X12266753Y-10998031D02*
X12276277Y-11017079D01*
X12276277Y-11017079D02*
X12285801Y-11055174D01*
X12285801Y-11055174D02*
X12285801Y-11102793D01*
X12285801Y-11102793D02*
X12276277Y-11140889D01*
X12276277Y-11140889D02*
X12266753Y-11159936D01*
X12266753Y-11159936D02*
X12257229Y-11169460D01*
X12257229Y-11169460D02*
X12238182Y-11178984D01*
X12238182Y-11178984D02*
X12219134Y-11178984D01*
X12219134Y-11178984D02*
X12200086Y-11169460D01*
X12200086Y-11169460D02*
X12190563Y-11159936D01*
X12190563Y-11159936D02*
X12181039Y-11140889D01*
X12181039Y-11140889D02*
X12171515Y-11102793D01*
X12171515Y-11102793D02*
X12171515Y-11055174D01*
X12171515Y-11055174D02*
X12181039Y-11017079D01*
X12181039Y-11017079D02*
X12190563Y-10998031D01*
X12190563Y-10998031D02*
X12200086Y-10988508D01*
X12200086Y-10988508D02*
X12219134Y-10978984D01*
X12371515Y-11159936D02*
X12381039Y-11169460D01*
X12381039Y-11169460D02*
X12371515Y-11178984D01*
X12371515Y-11178984D02*
X12361991Y-11169460D01*
X12361991Y-11169460D02*
X12371515Y-11159936D01*
X12371515Y-11159936D02*
X12371515Y-11178984D01*
X12504848Y-10978984D02*
X12523896Y-10978984D01*
X12523896Y-10978984D02*
X12542944Y-10988508D01*
X12542944Y-10988508D02*
X12552467Y-10998031D01*
X12552467Y-10998031D02*
X12561991Y-11017079D01*
X12561991Y-11017079D02*
X12571515Y-11055174D01*
X12571515Y-11055174D02*
X12571515Y-11102793D01*
X12571515Y-11102793D02*
X12561991Y-11140889D01*
X12561991Y-11140889D02*
X12552467Y-11159936D01*
X12552467Y-11159936D02*
X12542944Y-11169460D01*
X12542944Y-11169460D02*
X12523896Y-11178984D01*
X12523896Y-11178984D02*
X12504848Y-11178984D01*
X12504848Y-11178984D02*
X12485801Y-11169460D01*
X12485801Y-11169460D02*
X12476277Y-11159936D01*
X12476277Y-11159936D02*
X12466753Y-11140889D01*
X12466753Y-11140889D02*
X12457229Y-11102793D01*
X12457229Y-11102793D02*
X12457229Y-11055174D01*
X12457229Y-11055174D02*
X12466753Y-11017079D01*
X12466753Y-11017079D02*
X12476277Y-10998031D01*
X12476277Y-10998031D02*
X12485801Y-10988508D01*
X12485801Y-10988508D02*
X12504848Y-10978984D01*
X12695325Y-10978984D02*
X12714372Y-10978984D01*
X12714372Y-10978984D02*
X12733420Y-10988508D01*
X12733420Y-10988508D02*
X12742944Y-10998031D01*
X12742944Y-10998031D02*
X12752467Y-11017079D01*
X12752467Y-11017079D02*
X12761991Y-11055174D01*
X12761991Y-11055174D02*
X12761991Y-11102793D01*
X12761991Y-11102793D02*
X12752467Y-11140889D01*
X12752467Y-11140889D02*
X12742944Y-11159936D01*
X12742944Y-11159936D02*
X12733420Y-11169460D01*
X12733420Y-11169460D02*
X12714372Y-11178984D01*
X12714372Y-11178984D02*
X12695325Y-11178984D01*
X12695325Y-11178984D02*
X12676277Y-11169460D01*
X12676277Y-11169460D02*
X12666753Y-11159936D01*
X12666753Y-11159936D02*
X12657229Y-11140889D01*
X12657229Y-11140889D02*
X12647706Y-11102793D01*
X12647706Y-11102793D02*
X12647706Y-11055174D01*
X12647706Y-11055174D02*
X12657229Y-11017079D01*
X12657229Y-11017079D02*
X12666753Y-10998031D01*
X12666753Y-10998031D02*
X12676277Y-10988508D01*
X12676277Y-10988508D02*
X12695325Y-10978984D01*
X12857229Y-11178984D02*
X12895325Y-11178984D01*
X12895325Y-11178984D02*
X12914372Y-11169460D01*
X12914372Y-11169460D02*
X12923896Y-11159936D01*
X12923896Y-11159936D02*
X12942944Y-11131365D01*
X12942944Y-11131365D02*
X12952467Y-11093270D01*
X12952467Y-11093270D02*
X12952467Y-11017079D01*
X12952467Y-11017079D02*
X12942944Y-10998031D01*
X12942944Y-10998031D02*
X12933420Y-10988508D01*
X12933420Y-10988508D02*
X12914372Y-10978984D01*
X12914372Y-10978984D02*
X12876277Y-10978984D01*
X12876277Y-10978984D02*
X12857229Y-10988508D01*
X12857229Y-10988508D02*
X12847706Y-10998031D01*
X12847706Y-10998031D02*
X12838182Y-11017079D01*
X12838182Y-11017079D02*
X12838182Y-11064698D01*
X12838182Y-11064698D02*
X12847706Y-11083746D01*
X12847706Y-11083746D02*
X12857229Y-11093270D01*
X12857229Y-11093270D02*
X12876277Y-11102793D01*
X12876277Y-11102793D02*
X12914372Y-11102793D01*
X12914372Y-11102793D02*
X12933420Y-11093270D01*
X12933420Y-11093270D02*
X12942944Y-11083746D01*
X12942944Y-11083746D02*
X12952467Y-11064698D01*
X13066753Y-11064698D02*
X13047706Y-11055174D01*
X13047706Y-11055174D02*
X13038182Y-11045650D01*
X13038182Y-11045650D02*
X13028658Y-11026603D01*
X13028658Y-11026603D02*
X13028658Y-11017079D01*
X13028658Y-11017079D02*
X13038182Y-10998031D01*
X13038182Y-10998031D02*
X13047706Y-10988508D01*
X13047706Y-10988508D02*
X13066753Y-10978984D01*
X13066753Y-10978984D02*
X13104848Y-10978984D01*
X13104848Y-10978984D02*
X13123896Y-10988508D01*
X13123896Y-10988508D02*
X13133420Y-10998031D01*
X13133420Y-10998031D02*
X13142944Y-11017079D01*
X13142944Y-11017079D02*
X13142944Y-11026603D01*
X13142944Y-11026603D02*
X13133420Y-11045650D01*
X13133420Y-11045650D02*
X13123896Y-11055174D01*
X13123896Y-11055174D02*
X13104848Y-11064698D01*
X13104848Y-11064698D02*
X13066753Y-11064698D01*
X13066753Y-11064698D02*
X13047706Y-11074222D01*
X13047706Y-11074222D02*
X13038182Y-11083746D01*
X13038182Y-11083746D02*
X13028658Y-11102793D01*
X13028658Y-11102793D02*
X13028658Y-11140889D01*
X13028658Y-11140889D02*
X13038182Y-11159936D01*
X13038182Y-11159936D02*
X13047706Y-11169460D01*
X13047706Y-11169460D02*
X13066753Y-11178984D01*
X13066753Y-11178984D02*
X13104848Y-11178984D01*
X13104848Y-11178984D02*
X13123896Y-11169460D01*
X13123896Y-11169460D02*
X13133420Y-11159936D01*
X13133420Y-11159936D02*
X13142944Y-11140889D01*
X13142944Y-11140889D02*
X13142944Y-11102793D01*
X13142944Y-11102793D02*
X13133420Y-11083746D01*
X13133420Y-11083746D02*
X13123896Y-11074222D01*
X13123896Y-11074222D02*
X13104848Y-11064698D01*
X13219134Y-10978984D02*
X13219134Y-11017079D01*
X13295325Y-10978984D02*
X13295325Y-11017079D01*
X13590563Y-11255174D02*
X13581039Y-11245650D01*
X13581039Y-11245650D02*
X13561991Y-11217079D01*
X13561991Y-11217079D02*
X13552468Y-11198031D01*
X13552468Y-11198031D02*
X13542944Y-11169460D01*
X13542944Y-11169460D02*
X13533420Y-11121841D01*
X13533420Y-11121841D02*
X13533420Y-11083746D01*
X13533420Y-11083746D02*
X13542944Y-11036127D01*
X13542944Y-11036127D02*
X13552468Y-11007555D01*
X13552468Y-11007555D02*
X13561991Y-10988508D01*
X13561991Y-10988508D02*
X13581039Y-10959936D01*
X13581039Y-10959936D02*
X13590563Y-10950412D01*
X13752468Y-10978984D02*
X13714372Y-10978984D01*
X13714372Y-10978984D02*
X13695325Y-10988508D01*
X13695325Y-10988508D02*
X13685801Y-10998031D01*
X13685801Y-10998031D02*
X13666753Y-11026603D01*
X13666753Y-11026603D02*
X13657229Y-11064698D01*
X13657229Y-11064698D02*
X13657229Y-11140889D01*
X13657229Y-11140889D02*
X13666753Y-11159936D01*
X13666753Y-11159936D02*
X13676277Y-11169460D01*
X13676277Y-11169460D02*
X13695325Y-11178984D01*
X13695325Y-11178984D02*
X13733420Y-11178984D01*
X13733420Y-11178984D02*
X13752468Y-11169460D01*
X13752468Y-11169460D02*
X13761991Y-11159936D01*
X13761991Y-11159936D02*
X13771515Y-11140889D01*
X13771515Y-11140889D02*
X13771515Y-11093270D01*
X13771515Y-11093270D02*
X13761991Y-11074222D01*
X13761991Y-11074222D02*
X13752468Y-11064698D01*
X13752468Y-11064698D02*
X13733420Y-11055174D01*
X13733420Y-11055174D02*
X13695325Y-11055174D01*
X13695325Y-11055174D02*
X13676277Y-11064698D01*
X13676277Y-11064698D02*
X13666753Y-11074222D01*
X13666753Y-11074222D02*
X13657229Y-11093270D01*
X13866753Y-11178984D02*
X13904848Y-11178984D01*
X13904848Y-11178984D02*
X13923896Y-11169460D01*
X13923896Y-11169460D02*
X13933420Y-11159936D01*
X13933420Y-11159936D02*
X13952468Y-11131365D01*
X13952468Y-11131365D02*
X13961991Y-11093270D01*
X13961991Y-11093270D02*
X13961991Y-11017079D01*
X13961991Y-11017079D02*
X13952468Y-10998031D01*
X13952468Y-10998031D02*
X13942944Y-10988508D01*
X13942944Y-10988508D02*
X13923896Y-10978984D01*
X13923896Y-10978984D02*
X13885801Y-10978984D01*
X13885801Y-10978984D02*
X13866753Y-10988508D01*
X13866753Y-10988508D02*
X13857229Y-10998031D01*
X13857229Y-10998031D02*
X13847706Y-11017079D01*
X13847706Y-11017079D02*
X13847706Y-11064698D01*
X13847706Y-11064698D02*
X13857229Y-11083746D01*
X13857229Y-11083746D02*
X13866753Y-11093270D01*
X13866753Y-11093270D02*
X13885801Y-11102793D01*
X13885801Y-11102793D02*
X13923896Y-11102793D01*
X13923896Y-11102793D02*
X13942944Y-11093270D01*
X13942944Y-11093270D02*
X13952468Y-11083746D01*
X13952468Y-11083746D02*
X13961991Y-11064698D01*
X14200087Y-11178984D02*
X14200087Y-10978984D01*
X14285801Y-11178984D02*
X14285801Y-11074222D01*
X14285801Y-11074222D02*
X14276277Y-11055174D01*
X14276277Y-11055174D02*
X14257230Y-11045650D01*
X14257230Y-11045650D02*
X14228658Y-11045650D01*
X14228658Y-11045650D02*
X14209610Y-11055174D01*
X14209610Y-11055174D02*
X14200087Y-11064698D01*
X14409610Y-11178984D02*
X14390563Y-11169460D01*
X14390563Y-11169460D02*
X14381039Y-11159936D01*
X14381039Y-11159936D02*
X14371515Y-11140889D01*
X14371515Y-11140889D02*
X14371515Y-11083746D01*
X14371515Y-11083746D02*
X14381039Y-11064698D01*
X14381039Y-11064698D02*
X14390563Y-11055174D01*
X14390563Y-11055174D02*
X14409610Y-11045650D01*
X14409610Y-11045650D02*
X14438182Y-11045650D01*
X14438182Y-11045650D02*
X14457230Y-11055174D01*
X14457230Y-11055174D02*
X14466753Y-11064698D01*
X14466753Y-11064698D02*
X14476277Y-11083746D01*
X14476277Y-11083746D02*
X14476277Y-11140889D01*
X14476277Y-11140889D02*
X14466753Y-11159936D01*
X14466753Y-11159936D02*
X14457230Y-11169460D01*
X14457230Y-11169460D02*
X14438182Y-11178984D01*
X14438182Y-11178984D02*
X14409610Y-11178984D01*
X14590563Y-11178984D02*
X14571515Y-11169460D01*
X14571515Y-11169460D02*
X14561991Y-11150412D01*
X14561991Y-11150412D02*
X14561991Y-10978984D01*
X14742944Y-11169460D02*
X14723896Y-11178984D01*
X14723896Y-11178984D02*
X14685801Y-11178984D01*
X14685801Y-11178984D02*
X14666753Y-11169460D01*
X14666753Y-11169460D02*
X14657230Y-11150412D01*
X14657230Y-11150412D02*
X14657230Y-11074222D01*
X14657230Y-11074222D02*
X14666753Y-11055174D01*
X14666753Y-11055174D02*
X14685801Y-11045650D01*
X14685801Y-11045650D02*
X14723896Y-11045650D01*
X14723896Y-11045650D02*
X14742944Y-11055174D01*
X14742944Y-11055174D02*
X14752468Y-11074222D01*
X14752468Y-11074222D02*
X14752468Y-11093270D01*
X14752468Y-11093270D02*
X14657230Y-11112317D01*
X14828658Y-11169460D02*
X14847706Y-11178984D01*
X14847706Y-11178984D02*
X14885801Y-11178984D01*
X14885801Y-11178984D02*
X14904849Y-11169460D01*
X14904849Y-11169460D02*
X14914372Y-11150412D01*
X14914372Y-11150412D02*
X14914372Y-11140889D01*
X14914372Y-11140889D02*
X14904849Y-11121841D01*
X14904849Y-11121841D02*
X14885801Y-11112317D01*
X14885801Y-11112317D02*
X14857230Y-11112317D01*
X14857230Y-11112317D02*
X14838182Y-11102793D01*
X14838182Y-11102793D02*
X14828658Y-11083746D01*
X14828658Y-11083746D02*
X14828658Y-11074222D01*
X14828658Y-11074222D02*
X14838182Y-11055174D01*
X14838182Y-11055174D02*
X14857230Y-11045650D01*
X14857230Y-11045650D02*
X14885801Y-11045650D01*
X14885801Y-11045650D02*
X14904849Y-11055174D01*
X14981039Y-11255174D02*
X14990563Y-11245650D01*
X14990563Y-11245650D02*
X15009611Y-11217079D01*
X15009611Y-11217079D02*
X15019134Y-11198031D01*
X15019134Y-11198031D02*
X15028658Y-11169460D01*
X15028658Y-11169460D02*
X15038182Y-11121841D01*
X15038182Y-11121841D02*
X15038182Y-11083746D01*
X15038182Y-11083746D02*
X15028658Y-11036127D01*
X15028658Y-11036127D02*
X15019134Y-11007555D01*
X15019134Y-11007555D02*
X15009611Y-10988508D01*
X15009611Y-10988508D02*
X14990563Y-10959936D01*
X14990563Y-10959936D02*
X14981039Y-10950412D01*
D12*
X10000500Y-11336500D02*
X10000500Y-11366500D01*
X9985500Y-11351500D02*
X10015500Y-11351500D01*
D11*
X10314372Y-11242984D02*
X10333420Y-11242984D01*
X10333420Y-11242984D02*
X10352467Y-11252508D01*
X10352467Y-11252508D02*
X10361991Y-11262031D01*
X10361991Y-11262031D02*
X10371515Y-11281079D01*
X10371515Y-11281079D02*
X10381039Y-11319174D01*
X10381039Y-11319174D02*
X10381039Y-11366793D01*
X10381039Y-11366793D02*
X10371515Y-11404888D01*
X10371515Y-11404888D02*
X10361991Y-11423936D01*
X10361991Y-11423936D02*
X10352467Y-11433460D01*
X10352467Y-11433460D02*
X10333420Y-11442984D01*
X10333420Y-11442984D02*
X10314372Y-11442984D01*
X10314372Y-11442984D02*
X10295324Y-11433460D01*
X10295324Y-11433460D02*
X10285801Y-11423936D01*
X10285801Y-11423936D02*
X10276277Y-11404888D01*
X10276277Y-11404888D02*
X10266753Y-11366793D01*
X10266753Y-11366793D02*
X10266753Y-11319174D01*
X10266753Y-11319174D02*
X10276277Y-11281079D01*
X10276277Y-11281079D02*
X10285801Y-11262031D01*
X10285801Y-11262031D02*
X10295324Y-11252508D01*
X10295324Y-11252508D02*
X10314372Y-11242984D01*
X10466753Y-11423936D02*
X10476277Y-11433460D01*
X10476277Y-11433460D02*
X10466753Y-11442984D01*
X10466753Y-11442984D02*
X10457229Y-11433460D01*
X10457229Y-11433460D02*
X10466753Y-11423936D01*
X10466753Y-11423936D02*
X10466753Y-11442984D01*
X10542944Y-11242984D02*
X10666753Y-11242984D01*
X10666753Y-11242984D02*
X10600086Y-11319174D01*
X10600086Y-11319174D02*
X10628658Y-11319174D01*
X10628658Y-11319174D02*
X10647705Y-11328698D01*
X10647705Y-11328698D02*
X10657229Y-11338222D01*
X10657229Y-11338222D02*
X10666753Y-11357269D01*
X10666753Y-11357269D02*
X10666753Y-11404888D01*
X10666753Y-11404888D02*
X10657229Y-11423936D01*
X10657229Y-11423936D02*
X10647705Y-11433460D01*
X10647705Y-11433460D02*
X10628658Y-11442984D01*
X10628658Y-11442984D02*
X10571515Y-11442984D01*
X10571515Y-11442984D02*
X10552467Y-11433460D01*
X10552467Y-11433460D02*
X10542944Y-11423936D01*
X10790563Y-11242984D02*
X10809610Y-11242984D01*
X10809610Y-11242984D02*
X10828658Y-11252508D01*
X10828658Y-11252508D02*
X10838182Y-11262031D01*
X10838182Y-11262031D02*
X10847705Y-11281079D01*
X10847705Y-11281079D02*
X10857229Y-11319174D01*
X10857229Y-11319174D02*
X10857229Y-11366793D01*
X10857229Y-11366793D02*
X10847705Y-11404888D01*
X10847705Y-11404888D02*
X10838182Y-11423936D01*
X10838182Y-11423936D02*
X10828658Y-11433460D01*
X10828658Y-11433460D02*
X10809610Y-11442984D01*
X10809610Y-11442984D02*
X10790563Y-11442984D01*
X10790563Y-11442984D02*
X10771515Y-11433460D01*
X10771515Y-11433460D02*
X10761991Y-11423936D01*
X10761991Y-11423936D02*
X10752467Y-11404888D01*
X10752467Y-11404888D02*
X10742944Y-11366793D01*
X10742944Y-11366793D02*
X10742944Y-11319174D01*
X10742944Y-11319174D02*
X10752467Y-11281079D01*
X10752467Y-11281079D02*
X10761991Y-11262031D01*
X10761991Y-11262031D02*
X10771515Y-11252508D01*
X10771515Y-11252508D02*
X10790563Y-11242984D01*
X10981039Y-11242984D02*
X11000086Y-11242984D01*
X11000086Y-11242984D02*
X11019134Y-11252508D01*
X11019134Y-11252508D02*
X11028658Y-11262031D01*
X11028658Y-11262031D02*
X11038182Y-11281079D01*
X11038182Y-11281079D02*
X11047705Y-11319174D01*
X11047705Y-11319174D02*
X11047705Y-11366793D01*
X11047705Y-11366793D02*
X11038182Y-11404888D01*
X11038182Y-11404888D02*
X11028658Y-11423936D01*
X11028658Y-11423936D02*
X11019134Y-11433460D01*
X11019134Y-11433460D02*
X11000086Y-11442984D01*
X11000086Y-11442984D02*
X10981039Y-11442984D01*
X10981039Y-11442984D02*
X10961991Y-11433460D01*
X10961991Y-11433460D02*
X10952467Y-11423936D01*
X10952467Y-11423936D02*
X10942944Y-11404888D01*
X10942944Y-11404888D02*
X10933420Y-11366793D01*
X10933420Y-11366793D02*
X10933420Y-11319174D01*
X10933420Y-11319174D02*
X10942944Y-11281079D01*
X10942944Y-11281079D02*
X10952467Y-11262031D01*
X10952467Y-11262031D02*
X10961991Y-11252508D01*
X10961991Y-11252508D02*
X10981039Y-11242984D01*
X11133420Y-11442984D02*
X11133420Y-11309650D01*
X11133420Y-11328698D02*
X11142944Y-11319174D01*
X11142944Y-11319174D02*
X11161991Y-11309650D01*
X11161991Y-11309650D02*
X11190563Y-11309650D01*
X11190563Y-11309650D02*
X11209610Y-11319174D01*
X11209610Y-11319174D02*
X11219134Y-11338222D01*
X11219134Y-11338222D02*
X11219134Y-11442984D01*
X11219134Y-11338222D02*
X11228658Y-11319174D01*
X11228658Y-11319174D02*
X11247705Y-11309650D01*
X11247705Y-11309650D02*
X11276277Y-11309650D01*
X11276277Y-11309650D02*
X11295324Y-11319174D01*
X11295324Y-11319174D02*
X11304848Y-11338222D01*
X11304848Y-11338222D02*
X11304848Y-11442984D01*
X11400086Y-11442984D02*
X11400086Y-11309650D01*
X11400086Y-11328698D02*
X11409610Y-11319174D01*
X11409610Y-11319174D02*
X11428658Y-11309650D01*
X11428658Y-11309650D02*
X11457229Y-11309650D01*
X11457229Y-11309650D02*
X11476277Y-11319174D01*
X11476277Y-11319174D02*
X11485801Y-11338222D01*
X11485801Y-11338222D02*
X11485801Y-11442984D01*
X11485801Y-11338222D02*
X11495324Y-11319174D01*
X11495324Y-11319174D02*
X11514372Y-11309650D01*
X11514372Y-11309650D02*
X11542943Y-11309650D01*
X11542943Y-11309650D02*
X11561991Y-11319174D01*
X11561991Y-11319174D02*
X11571515Y-11338222D01*
X11571515Y-11338222D02*
X11571515Y-11442984D01*
X11961991Y-11233460D02*
X11790563Y-11490603D01*
X12219134Y-11242984D02*
X12238182Y-11242984D01*
X12238182Y-11242984D02*
X12257229Y-11252508D01*
X12257229Y-11252508D02*
X12266753Y-11262031D01*
X12266753Y-11262031D02*
X12276277Y-11281079D01*
X12276277Y-11281079D02*
X12285801Y-11319174D01*
X12285801Y-11319174D02*
X12285801Y-11366793D01*
X12285801Y-11366793D02*
X12276277Y-11404888D01*
X12276277Y-11404888D02*
X12266753Y-11423936D01*
X12266753Y-11423936D02*
X12257229Y-11433460D01*
X12257229Y-11433460D02*
X12238182Y-11442984D01*
X12238182Y-11442984D02*
X12219134Y-11442984D01*
X12219134Y-11442984D02*
X12200086Y-11433460D01*
X12200086Y-11433460D02*
X12190563Y-11423936D01*
X12190563Y-11423936D02*
X12181039Y-11404888D01*
X12181039Y-11404888D02*
X12171515Y-11366793D01*
X12171515Y-11366793D02*
X12171515Y-11319174D01*
X12171515Y-11319174D02*
X12181039Y-11281079D01*
X12181039Y-11281079D02*
X12190563Y-11262031D01*
X12190563Y-11262031D02*
X12200086Y-11252508D01*
X12200086Y-11252508D02*
X12219134Y-11242984D01*
X12371515Y-11423936D02*
X12381039Y-11433460D01*
X12381039Y-11433460D02*
X12371515Y-11442984D01*
X12371515Y-11442984D02*
X12361991Y-11433460D01*
X12361991Y-11433460D02*
X12371515Y-11423936D01*
X12371515Y-11423936D02*
X12371515Y-11442984D01*
X12504848Y-11242984D02*
X12523896Y-11242984D01*
X12523896Y-11242984D02*
X12542944Y-11252508D01*
X12542944Y-11252508D02*
X12552467Y-11262031D01*
X12552467Y-11262031D02*
X12561991Y-11281079D01*
X12561991Y-11281079D02*
X12571515Y-11319174D01*
X12571515Y-11319174D02*
X12571515Y-11366793D01*
X12571515Y-11366793D02*
X12561991Y-11404888D01*
X12561991Y-11404888D02*
X12552467Y-11423936D01*
X12552467Y-11423936D02*
X12542944Y-11433460D01*
X12542944Y-11433460D02*
X12523896Y-11442984D01*
X12523896Y-11442984D02*
X12504848Y-11442984D01*
X12504848Y-11442984D02*
X12485801Y-11433460D01*
X12485801Y-11433460D02*
X12476277Y-11423936D01*
X12476277Y-11423936D02*
X12466753Y-11404888D01*
X12466753Y-11404888D02*
X12457229Y-11366793D01*
X12457229Y-11366793D02*
X12457229Y-11319174D01*
X12457229Y-11319174D02*
X12466753Y-11281079D01*
X12466753Y-11281079D02*
X12476277Y-11262031D01*
X12476277Y-11262031D02*
X12485801Y-11252508D01*
X12485801Y-11252508D02*
X12504848Y-11242984D01*
X12761991Y-11442984D02*
X12647706Y-11442984D01*
X12704848Y-11442984D02*
X12704848Y-11242984D01*
X12704848Y-11242984D02*
X12685801Y-11271555D01*
X12685801Y-11271555D02*
X12666753Y-11290603D01*
X12666753Y-11290603D02*
X12647706Y-11300127D01*
X12952467Y-11442984D02*
X12838182Y-11442984D01*
X12895325Y-11442984D02*
X12895325Y-11242984D01*
X12895325Y-11242984D02*
X12876277Y-11271555D01*
X12876277Y-11271555D02*
X12857229Y-11290603D01*
X12857229Y-11290603D02*
X12838182Y-11300127D01*
X13066753Y-11328698D02*
X13047706Y-11319174D01*
X13047706Y-11319174D02*
X13038182Y-11309650D01*
X13038182Y-11309650D02*
X13028658Y-11290603D01*
X13028658Y-11290603D02*
X13028658Y-11281079D01*
X13028658Y-11281079D02*
X13038182Y-11262031D01*
X13038182Y-11262031D02*
X13047706Y-11252508D01*
X13047706Y-11252508D02*
X13066753Y-11242984D01*
X13066753Y-11242984D02*
X13104848Y-11242984D01*
X13104848Y-11242984D02*
X13123896Y-11252508D01*
X13123896Y-11252508D02*
X13133420Y-11262031D01*
X13133420Y-11262031D02*
X13142944Y-11281079D01*
X13142944Y-11281079D02*
X13142944Y-11290603D01*
X13142944Y-11290603D02*
X13133420Y-11309650D01*
X13133420Y-11309650D02*
X13123896Y-11319174D01*
X13123896Y-11319174D02*
X13104848Y-11328698D01*
X13104848Y-11328698D02*
X13066753Y-11328698D01*
X13066753Y-11328698D02*
X13047706Y-11338222D01*
X13047706Y-11338222D02*
X13038182Y-11347746D01*
X13038182Y-11347746D02*
X13028658Y-11366793D01*
X13028658Y-11366793D02*
X13028658Y-11404888D01*
X13028658Y-11404888D02*
X13038182Y-11423936D01*
X13038182Y-11423936D02*
X13047706Y-11433460D01*
X13047706Y-11433460D02*
X13066753Y-11442984D01*
X13066753Y-11442984D02*
X13104848Y-11442984D01*
X13104848Y-11442984D02*
X13123896Y-11433460D01*
X13123896Y-11433460D02*
X13133420Y-11423936D01*
X13133420Y-11423936D02*
X13142944Y-11404888D01*
X13142944Y-11404888D02*
X13142944Y-11366793D01*
X13142944Y-11366793D02*
X13133420Y-11347746D01*
X13133420Y-11347746D02*
X13123896Y-11338222D01*
X13123896Y-11338222D02*
X13104848Y-11328698D01*
X13219134Y-11242984D02*
X13219134Y-11281079D01*
X13295325Y-11242984D02*
X13295325Y-11281079D01*
X13590563Y-11519174D02*
X13581039Y-11509650D01*
X13581039Y-11509650D02*
X13561991Y-11481079D01*
X13561991Y-11481079D02*
X13552468Y-11462031D01*
X13552468Y-11462031D02*
X13542944Y-11433460D01*
X13542944Y-11433460D02*
X13533420Y-11385841D01*
X13533420Y-11385841D02*
X13533420Y-11347746D01*
X13533420Y-11347746D02*
X13542944Y-11300127D01*
X13542944Y-11300127D02*
X13552468Y-11271555D01*
X13552468Y-11271555D02*
X13561991Y-11252508D01*
X13561991Y-11252508D02*
X13581039Y-11223936D01*
X13581039Y-11223936D02*
X13590563Y-11214412D01*
X13752468Y-11309650D02*
X13752468Y-11442984D01*
X13704848Y-11233460D02*
X13657229Y-11376317D01*
X13657229Y-11376317D02*
X13781039Y-11376317D01*
X13866753Y-11442984D02*
X13904848Y-11442984D01*
X13904848Y-11442984D02*
X13923896Y-11433460D01*
X13923896Y-11433460D02*
X13933420Y-11423936D01*
X13933420Y-11423936D02*
X13952468Y-11395365D01*
X13952468Y-11395365D02*
X13961991Y-11357269D01*
X13961991Y-11357269D02*
X13961991Y-11281079D01*
X13961991Y-11281079D02*
X13952468Y-11262031D01*
X13952468Y-11262031D02*
X13942944Y-11252508D01*
X13942944Y-11252508D02*
X13923896Y-11242984D01*
X13923896Y-11242984D02*
X13885801Y-11242984D01*
X13885801Y-11242984D02*
X13866753Y-11252508D01*
X13866753Y-11252508D02*
X13857229Y-11262031D01*
X13857229Y-11262031D02*
X13847706Y-11281079D01*
X13847706Y-11281079D02*
X13847706Y-11328698D01*
X13847706Y-11328698D02*
X13857229Y-11347746D01*
X13857229Y-11347746D02*
X13866753Y-11357269D01*
X13866753Y-11357269D02*
X13885801Y-11366793D01*
X13885801Y-11366793D02*
X13923896Y-11366793D01*
X13923896Y-11366793D02*
X13942944Y-11357269D01*
X13942944Y-11357269D02*
X13952468Y-11347746D01*
X13952468Y-11347746D02*
X13961991Y-11328698D01*
X14200087Y-11442984D02*
X14200087Y-11242984D01*
X14285801Y-11442984D02*
X14285801Y-11338222D01*
X14285801Y-11338222D02*
X14276277Y-11319174D01*
X14276277Y-11319174D02*
X14257230Y-11309650D01*
X14257230Y-11309650D02*
X14228658Y-11309650D01*
X14228658Y-11309650D02*
X14209610Y-11319174D01*
X14209610Y-11319174D02*
X14200087Y-11328698D01*
X14409610Y-11442984D02*
X14390563Y-11433460D01*
X14390563Y-11433460D02*
X14381039Y-11423936D01*
X14381039Y-11423936D02*
X14371515Y-11404888D01*
X14371515Y-11404888D02*
X14371515Y-11347746D01*
X14371515Y-11347746D02*
X14381039Y-11328698D01*
X14381039Y-11328698D02*
X14390563Y-11319174D01*
X14390563Y-11319174D02*
X14409610Y-11309650D01*
X14409610Y-11309650D02*
X14438182Y-11309650D01*
X14438182Y-11309650D02*
X14457230Y-11319174D01*
X14457230Y-11319174D02*
X14466753Y-11328698D01*
X14466753Y-11328698D02*
X14476277Y-11347746D01*
X14476277Y-11347746D02*
X14476277Y-11404888D01*
X14476277Y-11404888D02*
X14466753Y-11423936D01*
X14466753Y-11423936D02*
X14457230Y-11433460D01*
X14457230Y-11433460D02*
X14438182Y-11442984D01*
X14438182Y-11442984D02*
X14409610Y-11442984D01*
X14590563Y-11442984D02*
X14571515Y-11433460D01*
X14571515Y-11433460D02*
X14561991Y-11414412D01*
X14561991Y-11414412D02*
X14561991Y-11242984D01*
X14742944Y-11433460D02*
X14723896Y-11442984D01*
X14723896Y-11442984D02*
X14685801Y-11442984D01*
X14685801Y-11442984D02*
X14666753Y-11433460D01*
X14666753Y-11433460D02*
X14657230Y-11414412D01*
X14657230Y-11414412D02*
X14657230Y-11338222D01*
X14657230Y-11338222D02*
X14666753Y-11319174D01*
X14666753Y-11319174D02*
X14685801Y-11309650D01*
X14685801Y-11309650D02*
X14723896Y-11309650D01*
X14723896Y-11309650D02*
X14742944Y-11319174D01*
X14742944Y-11319174D02*
X14752468Y-11338222D01*
X14752468Y-11338222D02*
X14752468Y-11357269D01*
X14752468Y-11357269D02*
X14657230Y-11376317D01*
X14828658Y-11433460D02*
X14847706Y-11442984D01*
X14847706Y-11442984D02*
X14885801Y-11442984D01*
X14885801Y-11442984D02*
X14904849Y-11433460D01*
X14904849Y-11433460D02*
X14914372Y-11414412D01*
X14914372Y-11414412D02*
X14914372Y-11404888D01*
X14914372Y-11404888D02*
X14904849Y-11385841D01*
X14904849Y-11385841D02*
X14885801Y-11376317D01*
X14885801Y-11376317D02*
X14857230Y-11376317D01*
X14857230Y-11376317D02*
X14838182Y-11366793D01*
X14838182Y-11366793D02*
X14828658Y-11347746D01*
X14828658Y-11347746D02*
X14828658Y-11338222D01*
X14828658Y-11338222D02*
X14838182Y-11319174D01*
X14838182Y-11319174D02*
X14857230Y-11309650D01*
X14857230Y-11309650D02*
X14885801Y-11309650D01*
X14885801Y-11309650D02*
X14904849Y-11319174D01*
X14981039Y-11519174D02*
X14990563Y-11509650D01*
X14990563Y-11509650D02*
X15009611Y-11481079D01*
X15009611Y-11481079D02*
X15019134Y-11462031D01*
X15019134Y-11462031D02*
X15028658Y-11433460D01*
X15028658Y-11433460D02*
X15038182Y-11385841D01*
X15038182Y-11385841D02*
X15038182Y-11347746D01*
X15038182Y-11347746D02*
X15028658Y-11300127D01*
X15028658Y-11300127D02*
X15019134Y-11271555D01*
X15019134Y-11271555D02*
X15009611Y-11252508D01*
X15009611Y-11252508D02*
X14990563Y-11223936D01*
X14990563Y-11223936D02*
X14981039Y-11214412D01*
D12*
X10005981Y-11638481D02*
X10005981Y-11592519D01*
X9960019Y-11592519D01*
X9960019Y-11638481D01*
X10005981Y-11638481D01*
D11*
X10314372Y-11506984D02*
X10333420Y-11506984D01*
X10333420Y-11506984D02*
X10352467Y-11516508D01*
X10352467Y-11516508D02*
X10361991Y-11526031D01*
X10361991Y-11526031D02*
X10371515Y-11545079D01*
X10371515Y-11545079D02*
X10381039Y-11583174D01*
X10381039Y-11583174D02*
X10381039Y-11630793D01*
X10381039Y-11630793D02*
X10371515Y-11668888D01*
X10371515Y-11668888D02*
X10361991Y-11687936D01*
X10361991Y-11687936D02*
X10352467Y-11697460D01*
X10352467Y-11697460D02*
X10333420Y-11706984D01*
X10333420Y-11706984D02*
X10314372Y-11706984D01*
X10314372Y-11706984D02*
X10295324Y-11697460D01*
X10295324Y-11697460D02*
X10285801Y-11687936D01*
X10285801Y-11687936D02*
X10276277Y-11668888D01*
X10276277Y-11668888D02*
X10266753Y-11630793D01*
X10266753Y-11630793D02*
X10266753Y-11583174D01*
X10266753Y-11583174D02*
X10276277Y-11545079D01*
X10276277Y-11545079D02*
X10285801Y-11526031D01*
X10285801Y-11526031D02*
X10295324Y-11516508D01*
X10295324Y-11516508D02*
X10314372Y-11506984D01*
X10466753Y-11687936D02*
X10476277Y-11697460D01*
X10476277Y-11697460D02*
X10466753Y-11706984D01*
X10466753Y-11706984D02*
X10457229Y-11697460D01*
X10457229Y-11697460D02*
X10466753Y-11687936D01*
X10466753Y-11687936D02*
X10466753Y-11706984D01*
X10647705Y-11506984D02*
X10609610Y-11506984D01*
X10609610Y-11506984D02*
X10590563Y-11516508D01*
X10590563Y-11516508D02*
X10581039Y-11526031D01*
X10581039Y-11526031D02*
X10561991Y-11554603D01*
X10561991Y-11554603D02*
X10552467Y-11592698D01*
X10552467Y-11592698D02*
X10552467Y-11668888D01*
X10552467Y-11668888D02*
X10561991Y-11687936D01*
X10561991Y-11687936D02*
X10571515Y-11697460D01*
X10571515Y-11697460D02*
X10590563Y-11706984D01*
X10590563Y-11706984D02*
X10628658Y-11706984D01*
X10628658Y-11706984D02*
X10647705Y-11697460D01*
X10647705Y-11697460D02*
X10657229Y-11687936D01*
X10657229Y-11687936D02*
X10666753Y-11668888D01*
X10666753Y-11668888D02*
X10666753Y-11621269D01*
X10666753Y-11621269D02*
X10657229Y-11602222D01*
X10657229Y-11602222D02*
X10647705Y-11592698D01*
X10647705Y-11592698D02*
X10628658Y-11583174D01*
X10628658Y-11583174D02*
X10590563Y-11583174D01*
X10590563Y-11583174D02*
X10571515Y-11592698D01*
X10571515Y-11592698D02*
X10561991Y-11602222D01*
X10561991Y-11602222D02*
X10552467Y-11621269D01*
X10847705Y-11506984D02*
X10752467Y-11506984D01*
X10752467Y-11506984D02*
X10742944Y-11602222D01*
X10742944Y-11602222D02*
X10752467Y-11592698D01*
X10752467Y-11592698D02*
X10771515Y-11583174D01*
X10771515Y-11583174D02*
X10819134Y-11583174D01*
X10819134Y-11583174D02*
X10838182Y-11592698D01*
X10838182Y-11592698D02*
X10847705Y-11602222D01*
X10847705Y-11602222D02*
X10857229Y-11621269D01*
X10857229Y-11621269D02*
X10857229Y-11668888D01*
X10857229Y-11668888D02*
X10847705Y-11687936D01*
X10847705Y-11687936D02*
X10838182Y-11697460D01*
X10838182Y-11697460D02*
X10819134Y-11706984D01*
X10819134Y-11706984D02*
X10771515Y-11706984D01*
X10771515Y-11706984D02*
X10752467Y-11697460D01*
X10752467Y-11697460D02*
X10742944Y-11687936D01*
X10981039Y-11506984D02*
X11000086Y-11506984D01*
X11000086Y-11506984D02*
X11019134Y-11516508D01*
X11019134Y-11516508D02*
X11028658Y-11526031D01*
X11028658Y-11526031D02*
X11038182Y-11545079D01*
X11038182Y-11545079D02*
X11047705Y-11583174D01*
X11047705Y-11583174D02*
X11047705Y-11630793D01*
X11047705Y-11630793D02*
X11038182Y-11668888D01*
X11038182Y-11668888D02*
X11028658Y-11687936D01*
X11028658Y-11687936D02*
X11019134Y-11697460D01*
X11019134Y-11697460D02*
X11000086Y-11706984D01*
X11000086Y-11706984D02*
X10981039Y-11706984D01*
X10981039Y-11706984D02*
X10961991Y-11697460D01*
X10961991Y-11697460D02*
X10952467Y-11687936D01*
X10952467Y-11687936D02*
X10942944Y-11668888D01*
X10942944Y-11668888D02*
X10933420Y-11630793D01*
X10933420Y-11630793D02*
X10933420Y-11583174D01*
X10933420Y-11583174D02*
X10942944Y-11545079D01*
X10942944Y-11545079D02*
X10952467Y-11526031D01*
X10952467Y-11526031D02*
X10961991Y-11516508D01*
X10961991Y-11516508D02*
X10981039Y-11506984D01*
X11133420Y-11706984D02*
X11133420Y-11573650D01*
X11133420Y-11592698D02*
X11142944Y-11583174D01*
X11142944Y-11583174D02*
X11161991Y-11573650D01*
X11161991Y-11573650D02*
X11190563Y-11573650D01*
X11190563Y-11573650D02*
X11209610Y-11583174D01*
X11209610Y-11583174D02*
X11219134Y-11602222D01*
X11219134Y-11602222D02*
X11219134Y-11706984D01*
X11219134Y-11602222D02*
X11228658Y-11583174D01*
X11228658Y-11583174D02*
X11247705Y-11573650D01*
X11247705Y-11573650D02*
X11276277Y-11573650D01*
X11276277Y-11573650D02*
X11295324Y-11583174D01*
X11295324Y-11583174D02*
X11304848Y-11602222D01*
X11304848Y-11602222D02*
X11304848Y-11706984D01*
X11400086Y-11706984D02*
X11400086Y-11573650D01*
X11400086Y-11592698D02*
X11409610Y-11583174D01*
X11409610Y-11583174D02*
X11428658Y-11573650D01*
X11428658Y-11573650D02*
X11457229Y-11573650D01*
X11457229Y-11573650D02*
X11476277Y-11583174D01*
X11476277Y-11583174D02*
X11485801Y-11602222D01*
X11485801Y-11602222D02*
X11485801Y-11706984D01*
X11485801Y-11602222D02*
X11495324Y-11583174D01*
X11495324Y-11583174D02*
X11514372Y-11573650D01*
X11514372Y-11573650D02*
X11542943Y-11573650D01*
X11542943Y-11573650D02*
X11561991Y-11583174D01*
X11561991Y-11583174D02*
X11571515Y-11602222D01*
X11571515Y-11602222D02*
X11571515Y-11706984D01*
X11961991Y-11497460D02*
X11790563Y-11754603D01*
X12219134Y-11506984D02*
X12238182Y-11506984D01*
X12238182Y-11506984D02*
X12257229Y-11516508D01*
X12257229Y-11516508D02*
X12266753Y-11526031D01*
X12266753Y-11526031D02*
X12276277Y-11545079D01*
X12276277Y-11545079D02*
X12285801Y-11583174D01*
X12285801Y-11583174D02*
X12285801Y-11630793D01*
X12285801Y-11630793D02*
X12276277Y-11668888D01*
X12276277Y-11668888D02*
X12266753Y-11687936D01*
X12266753Y-11687936D02*
X12257229Y-11697460D01*
X12257229Y-11697460D02*
X12238182Y-11706984D01*
X12238182Y-11706984D02*
X12219134Y-11706984D01*
X12219134Y-11706984D02*
X12200086Y-11697460D01*
X12200086Y-11697460D02*
X12190563Y-11687936D01*
X12190563Y-11687936D02*
X12181039Y-11668888D01*
X12181039Y-11668888D02*
X12171515Y-11630793D01*
X12171515Y-11630793D02*
X12171515Y-11583174D01*
X12171515Y-11583174D02*
X12181039Y-11545079D01*
X12181039Y-11545079D02*
X12190563Y-11526031D01*
X12190563Y-11526031D02*
X12200086Y-11516508D01*
X12200086Y-11516508D02*
X12219134Y-11506984D01*
X12371515Y-11687936D02*
X12381039Y-11697460D01*
X12381039Y-11697460D02*
X12371515Y-11706984D01*
X12371515Y-11706984D02*
X12361991Y-11697460D01*
X12361991Y-11697460D02*
X12371515Y-11687936D01*
X12371515Y-11687936D02*
X12371515Y-11706984D01*
X12504848Y-11506984D02*
X12523896Y-11506984D01*
X12523896Y-11506984D02*
X12542944Y-11516508D01*
X12542944Y-11516508D02*
X12552467Y-11526031D01*
X12552467Y-11526031D02*
X12561991Y-11545079D01*
X12561991Y-11545079D02*
X12571515Y-11583174D01*
X12571515Y-11583174D02*
X12571515Y-11630793D01*
X12571515Y-11630793D02*
X12561991Y-11668888D01*
X12561991Y-11668888D02*
X12552467Y-11687936D01*
X12552467Y-11687936D02*
X12542944Y-11697460D01*
X12542944Y-11697460D02*
X12523896Y-11706984D01*
X12523896Y-11706984D02*
X12504848Y-11706984D01*
X12504848Y-11706984D02*
X12485801Y-11697460D01*
X12485801Y-11697460D02*
X12476277Y-11687936D01*
X12476277Y-11687936D02*
X12466753Y-11668888D01*
X12466753Y-11668888D02*
X12457229Y-11630793D01*
X12457229Y-11630793D02*
X12457229Y-11583174D01*
X12457229Y-11583174D02*
X12466753Y-11545079D01*
X12466753Y-11545079D02*
X12476277Y-11526031D01*
X12476277Y-11526031D02*
X12485801Y-11516508D01*
X12485801Y-11516508D02*
X12504848Y-11506984D01*
X12647706Y-11526031D02*
X12657229Y-11516508D01*
X12657229Y-11516508D02*
X12676277Y-11506984D01*
X12676277Y-11506984D02*
X12723896Y-11506984D01*
X12723896Y-11506984D02*
X12742944Y-11516508D01*
X12742944Y-11516508D02*
X12752467Y-11526031D01*
X12752467Y-11526031D02*
X12761991Y-11545079D01*
X12761991Y-11545079D02*
X12761991Y-11564127D01*
X12761991Y-11564127D02*
X12752467Y-11592698D01*
X12752467Y-11592698D02*
X12638182Y-11706984D01*
X12638182Y-11706984D02*
X12761991Y-11706984D01*
X12942944Y-11506984D02*
X12847706Y-11506984D01*
X12847706Y-11506984D02*
X12838182Y-11602222D01*
X12838182Y-11602222D02*
X12847706Y-11592698D01*
X12847706Y-11592698D02*
X12866753Y-11583174D01*
X12866753Y-11583174D02*
X12914372Y-11583174D01*
X12914372Y-11583174D02*
X12933420Y-11592698D01*
X12933420Y-11592698D02*
X12942944Y-11602222D01*
X12942944Y-11602222D02*
X12952467Y-11621269D01*
X12952467Y-11621269D02*
X12952467Y-11668888D01*
X12952467Y-11668888D02*
X12942944Y-11687936D01*
X12942944Y-11687936D02*
X12933420Y-11697460D01*
X12933420Y-11697460D02*
X12914372Y-11706984D01*
X12914372Y-11706984D02*
X12866753Y-11706984D01*
X12866753Y-11706984D02*
X12847706Y-11697460D01*
X12847706Y-11697460D02*
X12838182Y-11687936D01*
X13123896Y-11506984D02*
X13085801Y-11506984D01*
X13085801Y-11506984D02*
X13066753Y-11516508D01*
X13066753Y-11516508D02*
X13057229Y-11526031D01*
X13057229Y-11526031D02*
X13038182Y-11554603D01*
X13038182Y-11554603D02*
X13028658Y-11592698D01*
X13028658Y-11592698D02*
X13028658Y-11668888D01*
X13028658Y-11668888D02*
X13038182Y-11687936D01*
X13038182Y-11687936D02*
X13047706Y-11697460D01*
X13047706Y-11697460D02*
X13066753Y-11706984D01*
X13066753Y-11706984D02*
X13104848Y-11706984D01*
X13104848Y-11706984D02*
X13123896Y-11697460D01*
X13123896Y-11697460D02*
X13133420Y-11687936D01*
X13133420Y-11687936D02*
X13142944Y-11668888D01*
X13142944Y-11668888D02*
X13142944Y-11621269D01*
X13142944Y-11621269D02*
X13133420Y-11602222D01*
X13133420Y-11602222D02*
X13123896Y-11592698D01*
X13123896Y-11592698D02*
X13104848Y-11583174D01*
X13104848Y-11583174D02*
X13066753Y-11583174D01*
X13066753Y-11583174D02*
X13047706Y-11592698D01*
X13047706Y-11592698D02*
X13038182Y-11602222D01*
X13038182Y-11602222D02*
X13028658Y-11621269D01*
X13219134Y-11506984D02*
X13219134Y-11545079D01*
X13295325Y-11506984D02*
X13295325Y-11545079D01*
X13590563Y-11783174D02*
X13581039Y-11773650D01*
X13581039Y-11773650D02*
X13561991Y-11745079D01*
X13561991Y-11745079D02*
X13552468Y-11726031D01*
X13552468Y-11726031D02*
X13542944Y-11697460D01*
X13542944Y-11697460D02*
X13533420Y-11649841D01*
X13533420Y-11649841D02*
X13533420Y-11611746D01*
X13533420Y-11611746D02*
X13542944Y-11564127D01*
X13542944Y-11564127D02*
X13552468Y-11535555D01*
X13552468Y-11535555D02*
X13561991Y-11516508D01*
X13561991Y-11516508D02*
X13581039Y-11487936D01*
X13581039Y-11487936D02*
X13590563Y-11478412D01*
X13704848Y-11506984D02*
X13723896Y-11506984D01*
X13723896Y-11506984D02*
X13742944Y-11516508D01*
X13742944Y-11516508D02*
X13752468Y-11526031D01*
X13752468Y-11526031D02*
X13761991Y-11545079D01*
X13761991Y-11545079D02*
X13771515Y-11583174D01*
X13771515Y-11583174D02*
X13771515Y-11630793D01*
X13771515Y-11630793D02*
X13761991Y-11668888D01*
X13761991Y-11668888D02*
X13752468Y-11687936D01*
X13752468Y-11687936D02*
X13742944Y-11697460D01*
X13742944Y-11697460D02*
X13723896Y-11706984D01*
X13723896Y-11706984D02*
X13704848Y-11706984D01*
X13704848Y-11706984D02*
X13685801Y-11697460D01*
X13685801Y-11697460D02*
X13676277Y-11687936D01*
X13676277Y-11687936D02*
X13666753Y-11668888D01*
X13666753Y-11668888D02*
X13657229Y-11630793D01*
X13657229Y-11630793D02*
X13657229Y-11583174D01*
X13657229Y-11583174D02*
X13666753Y-11545079D01*
X13666753Y-11545079D02*
X13676277Y-11526031D01*
X13676277Y-11526031D02*
X13685801Y-11516508D01*
X13685801Y-11516508D02*
X13704848Y-11506984D01*
X14009610Y-11706984D02*
X14009610Y-11506984D01*
X14095325Y-11706984D02*
X14095325Y-11602222D01*
X14095325Y-11602222D02*
X14085801Y-11583174D01*
X14085801Y-11583174D02*
X14066753Y-11573650D01*
X14066753Y-11573650D02*
X14038182Y-11573650D01*
X14038182Y-11573650D02*
X14019134Y-11583174D01*
X14019134Y-11583174D02*
X14009610Y-11592698D01*
X14219134Y-11706984D02*
X14200087Y-11697460D01*
X14200087Y-11697460D02*
X14190563Y-11687936D01*
X14190563Y-11687936D02*
X14181039Y-11668888D01*
X14181039Y-11668888D02*
X14181039Y-11611746D01*
X14181039Y-11611746D02*
X14190563Y-11592698D01*
X14190563Y-11592698D02*
X14200087Y-11583174D01*
X14200087Y-11583174D02*
X14219134Y-11573650D01*
X14219134Y-11573650D02*
X14247706Y-11573650D01*
X14247706Y-11573650D02*
X14266753Y-11583174D01*
X14266753Y-11583174D02*
X14276277Y-11592698D01*
X14276277Y-11592698D02*
X14285801Y-11611746D01*
X14285801Y-11611746D02*
X14285801Y-11668888D01*
X14285801Y-11668888D02*
X14276277Y-11687936D01*
X14276277Y-11687936D02*
X14266753Y-11697460D01*
X14266753Y-11697460D02*
X14247706Y-11706984D01*
X14247706Y-11706984D02*
X14219134Y-11706984D01*
X14400087Y-11706984D02*
X14381039Y-11697460D01*
X14381039Y-11697460D02*
X14371515Y-11678412D01*
X14371515Y-11678412D02*
X14371515Y-11506984D01*
X14552468Y-11697460D02*
X14533420Y-11706984D01*
X14533420Y-11706984D02*
X14495325Y-11706984D01*
X14495325Y-11706984D02*
X14476277Y-11697460D01*
X14476277Y-11697460D02*
X14466753Y-11678412D01*
X14466753Y-11678412D02*
X14466753Y-11602222D01*
X14466753Y-11602222D02*
X14476277Y-11583174D01*
X14476277Y-11583174D02*
X14495325Y-11573650D01*
X14495325Y-11573650D02*
X14533420Y-11573650D01*
X14533420Y-11573650D02*
X14552468Y-11583174D01*
X14552468Y-11583174D02*
X14561991Y-11602222D01*
X14561991Y-11602222D02*
X14561991Y-11621269D01*
X14561991Y-11621269D02*
X14466753Y-11640317D01*
X14638182Y-11697460D02*
X14657230Y-11706984D01*
X14657230Y-11706984D02*
X14695325Y-11706984D01*
X14695325Y-11706984D02*
X14714372Y-11697460D01*
X14714372Y-11697460D02*
X14723896Y-11678412D01*
X14723896Y-11678412D02*
X14723896Y-11668888D01*
X14723896Y-11668888D02*
X14714372Y-11649841D01*
X14714372Y-11649841D02*
X14695325Y-11640317D01*
X14695325Y-11640317D02*
X14666753Y-11640317D01*
X14666753Y-11640317D02*
X14647706Y-11630793D01*
X14647706Y-11630793D02*
X14638182Y-11611746D01*
X14638182Y-11611746D02*
X14638182Y-11602222D01*
X14638182Y-11602222D02*
X14647706Y-11583174D01*
X14647706Y-11583174D02*
X14666753Y-11573650D01*
X14666753Y-11573650D02*
X14695325Y-11573650D01*
X14695325Y-11573650D02*
X14714372Y-11583174D01*
X14961992Y-11630793D02*
X15114373Y-11630793D01*
X15038182Y-11706984D02*
X15038182Y-11554603D01*
X15447706Y-11573650D02*
X15447706Y-11706984D01*
X15400087Y-11497460D02*
X15352468Y-11640317D01*
X15352468Y-11640317D02*
X15476277Y-11640317D01*
X15695325Y-11697460D02*
X15714373Y-11706984D01*
X15714373Y-11706984D02*
X15752468Y-11706984D01*
X15752468Y-11706984D02*
X15771515Y-11697460D01*
X15771515Y-11697460D02*
X15781039Y-11678412D01*
X15781039Y-11678412D02*
X15781039Y-11668888D01*
X15781039Y-11668888D02*
X15771515Y-11649841D01*
X15771515Y-11649841D02*
X15752468Y-11640317D01*
X15752468Y-11640317D02*
X15723896Y-11640317D01*
X15723896Y-11640317D02*
X15704849Y-11630793D01*
X15704849Y-11630793D02*
X15695325Y-11611746D01*
X15695325Y-11611746D02*
X15695325Y-11602222D01*
X15695325Y-11602222D02*
X15704849Y-11583174D01*
X15704849Y-11583174D02*
X15723896Y-11573650D01*
X15723896Y-11573650D02*
X15752468Y-11573650D01*
X15752468Y-11573650D02*
X15771515Y-11583174D01*
X15895325Y-11706984D02*
X15876277Y-11697460D01*
X15876277Y-11697460D02*
X15866754Y-11678412D01*
X15866754Y-11678412D02*
X15866754Y-11506984D01*
X16000087Y-11706984D02*
X15981039Y-11697460D01*
X15981039Y-11697460D02*
X15971515Y-11687936D01*
X15971515Y-11687936D02*
X15961992Y-11668888D01*
X15961992Y-11668888D02*
X15961992Y-11611746D01*
X15961992Y-11611746D02*
X15971515Y-11592698D01*
X15971515Y-11592698D02*
X15981039Y-11583174D01*
X15981039Y-11583174D02*
X16000087Y-11573650D01*
X16000087Y-11573650D02*
X16028658Y-11573650D01*
X16028658Y-11573650D02*
X16047706Y-11583174D01*
X16047706Y-11583174D02*
X16057230Y-11592698D01*
X16057230Y-11592698D02*
X16066754Y-11611746D01*
X16066754Y-11611746D02*
X16066754Y-11668888D01*
X16066754Y-11668888D02*
X16057230Y-11687936D01*
X16057230Y-11687936D02*
X16047706Y-11697460D01*
X16047706Y-11697460D02*
X16028658Y-11706984D01*
X16028658Y-11706984D02*
X16000087Y-11706984D01*
X16123896Y-11573650D02*
X16200087Y-11573650D01*
X16152468Y-11506984D02*
X16152468Y-11678412D01*
X16152468Y-11678412D02*
X16161992Y-11697460D01*
X16161992Y-11697460D02*
X16181039Y-11706984D01*
X16181039Y-11706984D02*
X16200087Y-11706984D01*
X16257230Y-11697460D02*
X16276277Y-11706984D01*
X16276277Y-11706984D02*
X16314373Y-11706984D01*
X16314373Y-11706984D02*
X16333420Y-11697460D01*
X16333420Y-11697460D02*
X16342944Y-11678412D01*
X16342944Y-11678412D02*
X16342944Y-11668888D01*
X16342944Y-11668888D02*
X16333420Y-11649841D01*
X16333420Y-11649841D02*
X16314373Y-11640317D01*
X16314373Y-11640317D02*
X16285801Y-11640317D01*
X16285801Y-11640317D02*
X16266754Y-11630793D01*
X16266754Y-11630793D02*
X16257230Y-11611746D01*
X16257230Y-11611746D02*
X16257230Y-11602222D01*
X16257230Y-11602222D02*
X16266754Y-11583174D01*
X16266754Y-11583174D02*
X16285801Y-11573650D01*
X16285801Y-11573650D02*
X16314373Y-11573650D01*
X16314373Y-11573650D02*
X16333420Y-11583174D01*
X16409611Y-11783174D02*
X16419135Y-11773650D01*
X16419135Y-11773650D02*
X16438182Y-11745079D01*
X16438182Y-11745079D02*
X16447706Y-11726031D01*
X16447706Y-11726031D02*
X16457230Y-11697460D01*
X16457230Y-11697460D02*
X16466754Y-11649841D01*
X16466754Y-11649841D02*
X16466754Y-11611746D01*
X16466754Y-11611746D02*
X16457230Y-11564127D01*
X16457230Y-11564127D02*
X16447706Y-11535555D01*
X16447706Y-11535555D02*
X16438182Y-11516508D01*
X16438182Y-11516508D02*
X16419135Y-11487936D01*
X16419135Y-11487936D02*
X16409611Y-11478412D01*
D13*
X9955810Y-11939190D02*
X10015500Y-11879500D01*
X9955810Y-11819810D01*
X9896120Y-11879500D01*
X9955810Y-11939190D01*
D11*
X10381039Y-11970984D02*
X10266753Y-11970984D01*
X10323896Y-11970984D02*
X10323896Y-11770984D01*
X10323896Y-11770984D02*
X10304848Y-11799555D01*
X10304848Y-11799555D02*
X10285801Y-11818603D01*
X10285801Y-11818603D02*
X10266753Y-11828127D01*
X10466753Y-11951936D02*
X10476277Y-11961460D01*
X10476277Y-11961460D02*
X10466753Y-11970984D01*
X10466753Y-11970984D02*
X10457229Y-11961460D01*
X10457229Y-11961460D02*
X10466753Y-11951936D01*
X10466753Y-11951936D02*
X10466753Y-11970984D01*
X10666753Y-11970984D02*
X10552467Y-11970984D01*
X10609610Y-11970984D02*
X10609610Y-11770984D01*
X10609610Y-11770984D02*
X10590563Y-11799555D01*
X10590563Y-11799555D02*
X10571515Y-11818603D01*
X10571515Y-11818603D02*
X10552467Y-11828127D01*
X10761991Y-11970984D02*
X10800086Y-11970984D01*
X10800086Y-11970984D02*
X10819134Y-11961460D01*
X10819134Y-11961460D02*
X10828658Y-11951936D01*
X10828658Y-11951936D02*
X10847705Y-11923365D01*
X10847705Y-11923365D02*
X10857229Y-11885269D01*
X10857229Y-11885269D02*
X10857229Y-11809079D01*
X10857229Y-11809079D02*
X10847705Y-11790031D01*
X10847705Y-11790031D02*
X10838182Y-11780508D01*
X10838182Y-11780508D02*
X10819134Y-11770984D01*
X10819134Y-11770984D02*
X10781039Y-11770984D01*
X10781039Y-11770984D02*
X10761991Y-11780508D01*
X10761991Y-11780508D02*
X10752467Y-11790031D01*
X10752467Y-11790031D02*
X10742944Y-11809079D01*
X10742944Y-11809079D02*
X10742944Y-11856698D01*
X10742944Y-11856698D02*
X10752467Y-11875746D01*
X10752467Y-11875746D02*
X10761991Y-11885269D01*
X10761991Y-11885269D02*
X10781039Y-11894793D01*
X10781039Y-11894793D02*
X10819134Y-11894793D01*
X10819134Y-11894793D02*
X10838182Y-11885269D01*
X10838182Y-11885269D02*
X10847705Y-11875746D01*
X10847705Y-11875746D02*
X10857229Y-11856698D01*
X11028658Y-11837650D02*
X11028658Y-11970984D01*
X10981039Y-11761460D02*
X10933420Y-11904317D01*
X10933420Y-11904317D02*
X11057229Y-11904317D01*
X11133420Y-11970984D02*
X11133420Y-11837650D01*
X11133420Y-11856698D02*
X11142944Y-11847174D01*
X11142944Y-11847174D02*
X11161991Y-11837650D01*
X11161991Y-11837650D02*
X11190563Y-11837650D01*
X11190563Y-11837650D02*
X11209610Y-11847174D01*
X11209610Y-11847174D02*
X11219134Y-11866222D01*
X11219134Y-11866222D02*
X11219134Y-11970984D01*
X11219134Y-11866222D02*
X11228658Y-11847174D01*
X11228658Y-11847174D02*
X11247705Y-11837650D01*
X11247705Y-11837650D02*
X11276277Y-11837650D01*
X11276277Y-11837650D02*
X11295324Y-11847174D01*
X11295324Y-11847174D02*
X11304848Y-11866222D01*
X11304848Y-11866222D02*
X11304848Y-11970984D01*
X11400086Y-11970984D02*
X11400086Y-11837650D01*
X11400086Y-11856698D02*
X11409610Y-11847174D01*
X11409610Y-11847174D02*
X11428658Y-11837650D01*
X11428658Y-11837650D02*
X11457229Y-11837650D01*
X11457229Y-11837650D02*
X11476277Y-11847174D01*
X11476277Y-11847174D02*
X11485801Y-11866222D01*
X11485801Y-11866222D02*
X11485801Y-11970984D01*
X11485801Y-11866222D02*
X11495324Y-11847174D01*
X11495324Y-11847174D02*
X11514372Y-11837650D01*
X11514372Y-11837650D02*
X11542943Y-11837650D01*
X11542943Y-11837650D02*
X11561991Y-11847174D01*
X11561991Y-11847174D02*
X11571515Y-11866222D01*
X11571515Y-11866222D02*
X11571515Y-11970984D01*
X11961991Y-11761460D02*
X11790563Y-12018603D01*
X12219134Y-11770984D02*
X12238182Y-11770984D01*
X12238182Y-11770984D02*
X12257229Y-11780508D01*
X12257229Y-11780508D02*
X12266753Y-11790031D01*
X12266753Y-11790031D02*
X12276277Y-11809079D01*
X12276277Y-11809079D02*
X12285801Y-11847174D01*
X12285801Y-11847174D02*
X12285801Y-11894793D01*
X12285801Y-11894793D02*
X12276277Y-11932888D01*
X12276277Y-11932888D02*
X12266753Y-11951936D01*
X12266753Y-11951936D02*
X12257229Y-11961460D01*
X12257229Y-11961460D02*
X12238182Y-11970984D01*
X12238182Y-11970984D02*
X12219134Y-11970984D01*
X12219134Y-11970984D02*
X12200086Y-11961460D01*
X12200086Y-11961460D02*
X12190563Y-11951936D01*
X12190563Y-11951936D02*
X12181039Y-11932888D01*
X12181039Y-11932888D02*
X12171515Y-11894793D01*
X12171515Y-11894793D02*
X12171515Y-11847174D01*
X12171515Y-11847174D02*
X12181039Y-11809079D01*
X12181039Y-11809079D02*
X12190563Y-11790031D01*
X12190563Y-11790031D02*
X12200086Y-11780508D01*
X12200086Y-11780508D02*
X12219134Y-11770984D01*
X12371515Y-11951936D02*
X12381039Y-11961460D01*
X12381039Y-11961460D02*
X12371515Y-11970984D01*
X12371515Y-11970984D02*
X12361991Y-11961460D01*
X12361991Y-11961460D02*
X12371515Y-11951936D01*
X12371515Y-11951936D02*
X12371515Y-11970984D01*
X12504848Y-11770984D02*
X12523896Y-11770984D01*
X12523896Y-11770984D02*
X12542944Y-11780508D01*
X12542944Y-11780508D02*
X12552467Y-11790031D01*
X12552467Y-11790031D02*
X12561991Y-11809079D01*
X12561991Y-11809079D02*
X12571515Y-11847174D01*
X12571515Y-11847174D02*
X12571515Y-11894793D01*
X12571515Y-11894793D02*
X12561991Y-11932888D01*
X12561991Y-11932888D02*
X12552467Y-11951936D01*
X12552467Y-11951936D02*
X12542944Y-11961460D01*
X12542944Y-11961460D02*
X12523896Y-11970984D01*
X12523896Y-11970984D02*
X12504848Y-11970984D01*
X12504848Y-11970984D02*
X12485801Y-11961460D01*
X12485801Y-11961460D02*
X12476277Y-11951936D01*
X12476277Y-11951936D02*
X12466753Y-11932888D01*
X12466753Y-11932888D02*
X12457229Y-11894793D01*
X12457229Y-11894793D02*
X12457229Y-11847174D01*
X12457229Y-11847174D02*
X12466753Y-11809079D01*
X12466753Y-11809079D02*
X12476277Y-11790031D01*
X12476277Y-11790031D02*
X12485801Y-11780508D01*
X12485801Y-11780508D02*
X12504848Y-11770984D01*
X12742944Y-11837650D02*
X12742944Y-11970984D01*
X12695325Y-11761460D02*
X12647706Y-11904317D01*
X12647706Y-11904317D02*
X12771515Y-11904317D01*
X12828658Y-11770984D02*
X12961991Y-11770984D01*
X12961991Y-11770984D02*
X12876277Y-11970984D01*
X13076277Y-11770984D02*
X13095325Y-11770984D01*
X13095325Y-11770984D02*
X13114372Y-11780508D01*
X13114372Y-11780508D02*
X13123896Y-11790031D01*
X13123896Y-11790031D02*
X13133420Y-11809079D01*
X13133420Y-11809079D02*
X13142944Y-11847174D01*
X13142944Y-11847174D02*
X13142944Y-11894793D01*
X13142944Y-11894793D02*
X13133420Y-11932888D01*
X13133420Y-11932888D02*
X13123896Y-11951936D01*
X13123896Y-11951936D02*
X13114372Y-11961460D01*
X13114372Y-11961460D02*
X13095325Y-11970984D01*
X13095325Y-11970984D02*
X13076277Y-11970984D01*
X13076277Y-11970984D02*
X13057229Y-11961460D01*
X13057229Y-11961460D02*
X13047706Y-11951936D01*
X13047706Y-11951936D02*
X13038182Y-11932888D01*
X13038182Y-11932888D02*
X13028658Y-11894793D01*
X13028658Y-11894793D02*
X13028658Y-11847174D01*
X13028658Y-11847174D02*
X13038182Y-11809079D01*
X13038182Y-11809079D02*
X13047706Y-11790031D01*
X13047706Y-11790031D02*
X13057229Y-11780508D01*
X13057229Y-11780508D02*
X13076277Y-11770984D01*
X13219134Y-11770984D02*
X13219134Y-11809079D01*
X13295325Y-11770984D02*
X13295325Y-11809079D01*
X13590563Y-12047174D02*
X13581039Y-12037650D01*
X13581039Y-12037650D02*
X13561991Y-12009079D01*
X13561991Y-12009079D02*
X13552468Y-11990031D01*
X13552468Y-11990031D02*
X13542944Y-11961460D01*
X13542944Y-11961460D02*
X13533420Y-11913841D01*
X13533420Y-11913841D02*
X13533420Y-11875746D01*
X13533420Y-11875746D02*
X13542944Y-11828127D01*
X13542944Y-11828127D02*
X13552468Y-11799555D01*
X13552468Y-11799555D02*
X13561991Y-11780508D01*
X13561991Y-11780508D02*
X13581039Y-11751936D01*
X13581039Y-11751936D02*
X13590563Y-11742412D01*
X13752468Y-11770984D02*
X13714372Y-11770984D01*
X13714372Y-11770984D02*
X13695325Y-11780508D01*
X13695325Y-11780508D02*
X13685801Y-11790031D01*
X13685801Y-11790031D02*
X13666753Y-11818603D01*
X13666753Y-11818603D02*
X13657229Y-11856698D01*
X13657229Y-11856698D02*
X13657229Y-11932888D01*
X13657229Y-11932888D02*
X13666753Y-11951936D01*
X13666753Y-11951936D02*
X13676277Y-11961460D01*
X13676277Y-11961460D02*
X13695325Y-11970984D01*
X13695325Y-11970984D02*
X13733420Y-11970984D01*
X13733420Y-11970984D02*
X13752468Y-11961460D01*
X13752468Y-11961460D02*
X13761991Y-11951936D01*
X13761991Y-11951936D02*
X13771515Y-11932888D01*
X13771515Y-11932888D02*
X13771515Y-11885269D01*
X13771515Y-11885269D02*
X13761991Y-11866222D01*
X13761991Y-11866222D02*
X13752468Y-11856698D01*
X13752468Y-11856698D02*
X13733420Y-11847174D01*
X13733420Y-11847174D02*
X13695325Y-11847174D01*
X13695325Y-11847174D02*
X13676277Y-11856698D01*
X13676277Y-11856698D02*
X13666753Y-11866222D01*
X13666753Y-11866222D02*
X13657229Y-11885269D01*
X14009610Y-11970984D02*
X14009610Y-11770984D01*
X14095325Y-11970984D02*
X14095325Y-11866222D01*
X14095325Y-11866222D02*
X14085801Y-11847174D01*
X14085801Y-11847174D02*
X14066753Y-11837650D01*
X14066753Y-11837650D02*
X14038182Y-11837650D01*
X14038182Y-11837650D02*
X14019134Y-11847174D01*
X14019134Y-11847174D02*
X14009610Y-11856698D01*
X14219134Y-11970984D02*
X14200087Y-11961460D01*
X14200087Y-11961460D02*
X14190563Y-11951936D01*
X14190563Y-11951936D02*
X14181039Y-11932888D01*
X14181039Y-11932888D02*
X14181039Y-11875746D01*
X14181039Y-11875746D02*
X14190563Y-11856698D01*
X14190563Y-11856698D02*
X14200087Y-11847174D01*
X14200087Y-11847174D02*
X14219134Y-11837650D01*
X14219134Y-11837650D02*
X14247706Y-11837650D01*
X14247706Y-11837650D02*
X14266753Y-11847174D01*
X14266753Y-11847174D02*
X14276277Y-11856698D01*
X14276277Y-11856698D02*
X14285801Y-11875746D01*
X14285801Y-11875746D02*
X14285801Y-11932888D01*
X14285801Y-11932888D02*
X14276277Y-11951936D01*
X14276277Y-11951936D02*
X14266753Y-11961460D01*
X14266753Y-11961460D02*
X14247706Y-11970984D01*
X14247706Y-11970984D02*
X14219134Y-11970984D01*
X14400087Y-11970984D02*
X14381039Y-11961460D01*
X14381039Y-11961460D02*
X14371515Y-11942412D01*
X14371515Y-11942412D02*
X14371515Y-11770984D01*
X14552468Y-11961460D02*
X14533420Y-11970984D01*
X14533420Y-11970984D02*
X14495325Y-11970984D01*
X14495325Y-11970984D02*
X14476277Y-11961460D01*
X14476277Y-11961460D02*
X14466753Y-11942412D01*
X14466753Y-11942412D02*
X14466753Y-11866222D01*
X14466753Y-11866222D02*
X14476277Y-11847174D01*
X14476277Y-11847174D02*
X14495325Y-11837650D01*
X14495325Y-11837650D02*
X14533420Y-11837650D01*
X14533420Y-11837650D02*
X14552468Y-11847174D01*
X14552468Y-11847174D02*
X14561991Y-11866222D01*
X14561991Y-11866222D02*
X14561991Y-11885269D01*
X14561991Y-11885269D02*
X14466753Y-11904317D01*
X14638182Y-11961460D02*
X14657230Y-11970984D01*
X14657230Y-11970984D02*
X14695325Y-11970984D01*
X14695325Y-11970984D02*
X14714372Y-11961460D01*
X14714372Y-11961460D02*
X14723896Y-11942412D01*
X14723896Y-11942412D02*
X14723896Y-11932888D01*
X14723896Y-11932888D02*
X14714372Y-11913841D01*
X14714372Y-11913841D02*
X14695325Y-11904317D01*
X14695325Y-11904317D02*
X14666753Y-11904317D01*
X14666753Y-11904317D02*
X14647706Y-11894793D01*
X14647706Y-11894793D02*
X14638182Y-11875746D01*
X14638182Y-11875746D02*
X14638182Y-11866222D01*
X14638182Y-11866222D02*
X14647706Y-11847174D01*
X14647706Y-11847174D02*
X14666753Y-11837650D01*
X14666753Y-11837650D02*
X14695325Y-11837650D01*
X14695325Y-11837650D02*
X14714372Y-11847174D01*
X14790563Y-12047174D02*
X14800087Y-12037650D01*
X14800087Y-12037650D02*
X14819134Y-12009079D01*
X14819134Y-12009079D02*
X14828658Y-11990031D01*
X14828658Y-11990031D02*
X14838182Y-11961460D01*
X14838182Y-11961460D02*
X14847706Y-11913841D01*
X14847706Y-11913841D02*
X14847706Y-11875746D01*
X14847706Y-11875746D02*
X14838182Y-11828127D01*
X14838182Y-11828127D02*
X14828658Y-11799555D01*
X14828658Y-11799555D02*
X14819134Y-11780508D01*
X14819134Y-11780508D02*
X14800087Y-11751936D01*
X14800087Y-11751936D02*
X14790563Y-11742412D01*
D14*
X9860500Y-12066000D02*
X10015500Y-12221000D01*
X10015500Y-12066000D02*
X9860500Y-12221000D01*
X10015500Y-12143500D02*
G75*
G02*
X9860500Y-12143500I-77500J0D01*
G01*
X9860500Y-12143500D02*
G75*
G02*
X10015500Y-12143500I77500J0D01*
G01*
D11*
X10381039Y-12234984D02*
X10266753Y-12234984D01*
X10323896Y-12234984D02*
X10323896Y-12034984D01*
X10323896Y-12034984D02*
X10304848Y-12063555D01*
X10304848Y-12063555D02*
X10285801Y-12082603D01*
X10285801Y-12082603D02*
X10266753Y-12092127D01*
X10466753Y-12215936D02*
X10476277Y-12225460D01*
X10476277Y-12225460D02*
X10466753Y-12234984D01*
X10466753Y-12234984D02*
X10457229Y-12225460D01*
X10457229Y-12225460D02*
X10466753Y-12215936D01*
X10466753Y-12215936D02*
X10466753Y-12234984D01*
X10657229Y-12034984D02*
X10561991Y-12034984D01*
X10561991Y-12034984D02*
X10552467Y-12130222D01*
X10552467Y-12130222D02*
X10561991Y-12120698D01*
X10561991Y-12120698D02*
X10581039Y-12111174D01*
X10581039Y-12111174D02*
X10628658Y-12111174D01*
X10628658Y-12111174D02*
X10647705Y-12120698D01*
X10647705Y-12120698D02*
X10657229Y-12130222D01*
X10657229Y-12130222D02*
X10666753Y-12149269D01*
X10666753Y-12149269D02*
X10666753Y-12196888D01*
X10666753Y-12196888D02*
X10657229Y-12215936D01*
X10657229Y-12215936D02*
X10647705Y-12225460D01*
X10647705Y-12225460D02*
X10628658Y-12234984D01*
X10628658Y-12234984D02*
X10581039Y-12234984D01*
X10581039Y-12234984D02*
X10561991Y-12225460D01*
X10561991Y-12225460D02*
X10552467Y-12215936D01*
X10847705Y-12034984D02*
X10752467Y-12034984D01*
X10752467Y-12034984D02*
X10742944Y-12130222D01*
X10742944Y-12130222D02*
X10752467Y-12120698D01*
X10752467Y-12120698D02*
X10771515Y-12111174D01*
X10771515Y-12111174D02*
X10819134Y-12111174D01*
X10819134Y-12111174D02*
X10838182Y-12120698D01*
X10838182Y-12120698D02*
X10847705Y-12130222D01*
X10847705Y-12130222D02*
X10857229Y-12149269D01*
X10857229Y-12149269D02*
X10857229Y-12196888D01*
X10857229Y-12196888D02*
X10847705Y-12215936D01*
X10847705Y-12215936D02*
X10838182Y-12225460D01*
X10838182Y-12225460D02*
X10819134Y-12234984D01*
X10819134Y-12234984D02*
X10771515Y-12234984D01*
X10771515Y-12234984D02*
X10752467Y-12225460D01*
X10752467Y-12225460D02*
X10742944Y-12215936D01*
X10981039Y-12034984D02*
X11000086Y-12034984D01*
X11000086Y-12034984D02*
X11019134Y-12044508D01*
X11019134Y-12044508D02*
X11028658Y-12054031D01*
X11028658Y-12054031D02*
X11038182Y-12073079D01*
X11038182Y-12073079D02*
X11047705Y-12111174D01*
X11047705Y-12111174D02*
X11047705Y-12158793D01*
X11047705Y-12158793D02*
X11038182Y-12196888D01*
X11038182Y-12196888D02*
X11028658Y-12215936D01*
X11028658Y-12215936D02*
X11019134Y-12225460D01*
X11019134Y-12225460D02*
X11000086Y-12234984D01*
X11000086Y-12234984D02*
X10981039Y-12234984D01*
X10981039Y-12234984D02*
X10961991Y-12225460D01*
X10961991Y-12225460D02*
X10952467Y-12215936D01*
X10952467Y-12215936D02*
X10942944Y-12196888D01*
X10942944Y-12196888D02*
X10933420Y-12158793D01*
X10933420Y-12158793D02*
X10933420Y-12111174D01*
X10933420Y-12111174D02*
X10942944Y-12073079D01*
X10942944Y-12073079D02*
X10952467Y-12054031D01*
X10952467Y-12054031D02*
X10961991Y-12044508D01*
X10961991Y-12044508D02*
X10981039Y-12034984D01*
X11133420Y-12234984D02*
X11133420Y-12101650D01*
X11133420Y-12120698D02*
X11142944Y-12111174D01*
X11142944Y-12111174D02*
X11161991Y-12101650D01*
X11161991Y-12101650D02*
X11190563Y-12101650D01*
X11190563Y-12101650D02*
X11209610Y-12111174D01*
X11209610Y-12111174D02*
X11219134Y-12130222D01*
X11219134Y-12130222D02*
X11219134Y-12234984D01*
X11219134Y-12130222D02*
X11228658Y-12111174D01*
X11228658Y-12111174D02*
X11247705Y-12101650D01*
X11247705Y-12101650D02*
X11276277Y-12101650D01*
X11276277Y-12101650D02*
X11295324Y-12111174D01*
X11295324Y-12111174D02*
X11304848Y-12130222D01*
X11304848Y-12130222D02*
X11304848Y-12234984D01*
X11400086Y-12234984D02*
X11400086Y-12101650D01*
X11400086Y-12120698D02*
X11409610Y-12111174D01*
X11409610Y-12111174D02*
X11428658Y-12101650D01*
X11428658Y-12101650D02*
X11457229Y-12101650D01*
X11457229Y-12101650D02*
X11476277Y-12111174D01*
X11476277Y-12111174D02*
X11485801Y-12130222D01*
X11485801Y-12130222D02*
X11485801Y-12234984D01*
X11485801Y-12130222D02*
X11495324Y-12111174D01*
X11495324Y-12111174D02*
X11514372Y-12101650D01*
X11514372Y-12101650D02*
X11542943Y-12101650D01*
X11542943Y-12101650D02*
X11561991Y-12111174D01*
X11561991Y-12111174D02*
X11571515Y-12130222D01*
X11571515Y-12130222D02*
X11571515Y-12234984D01*
X11961991Y-12025460D02*
X11790563Y-12282603D01*
X12219134Y-12034984D02*
X12238182Y-12034984D01*
X12238182Y-12034984D02*
X12257229Y-12044508D01*
X12257229Y-12044508D02*
X12266753Y-12054031D01*
X12266753Y-12054031D02*
X12276277Y-12073079D01*
X12276277Y-12073079D02*
X12285801Y-12111174D01*
X12285801Y-12111174D02*
X12285801Y-12158793D01*
X12285801Y-12158793D02*
X12276277Y-12196888D01*
X12276277Y-12196888D02*
X12266753Y-12215936D01*
X12266753Y-12215936D02*
X12257229Y-12225460D01*
X12257229Y-12225460D02*
X12238182Y-12234984D01*
X12238182Y-12234984D02*
X12219134Y-12234984D01*
X12219134Y-12234984D02*
X12200086Y-12225460D01*
X12200086Y-12225460D02*
X12190563Y-12215936D01*
X12190563Y-12215936D02*
X12181039Y-12196888D01*
X12181039Y-12196888D02*
X12171515Y-12158793D01*
X12171515Y-12158793D02*
X12171515Y-12111174D01*
X12171515Y-12111174D02*
X12181039Y-12073079D01*
X12181039Y-12073079D02*
X12190563Y-12054031D01*
X12190563Y-12054031D02*
X12200086Y-12044508D01*
X12200086Y-12044508D02*
X12219134Y-12034984D01*
X12371515Y-12215936D02*
X12381039Y-12225460D01*
X12381039Y-12225460D02*
X12371515Y-12234984D01*
X12371515Y-12234984D02*
X12361991Y-12225460D01*
X12361991Y-12225460D02*
X12371515Y-12215936D01*
X12371515Y-12215936D02*
X12371515Y-12234984D01*
X12504848Y-12034984D02*
X12523896Y-12034984D01*
X12523896Y-12034984D02*
X12542944Y-12044508D01*
X12542944Y-12044508D02*
X12552467Y-12054031D01*
X12552467Y-12054031D02*
X12561991Y-12073079D01*
X12561991Y-12073079D02*
X12571515Y-12111174D01*
X12571515Y-12111174D02*
X12571515Y-12158793D01*
X12571515Y-12158793D02*
X12561991Y-12196888D01*
X12561991Y-12196888D02*
X12552467Y-12215936D01*
X12552467Y-12215936D02*
X12542944Y-12225460D01*
X12542944Y-12225460D02*
X12523896Y-12234984D01*
X12523896Y-12234984D02*
X12504848Y-12234984D01*
X12504848Y-12234984D02*
X12485801Y-12225460D01*
X12485801Y-12225460D02*
X12476277Y-12215936D01*
X12476277Y-12215936D02*
X12466753Y-12196888D01*
X12466753Y-12196888D02*
X12457229Y-12158793D01*
X12457229Y-12158793D02*
X12457229Y-12111174D01*
X12457229Y-12111174D02*
X12466753Y-12073079D01*
X12466753Y-12073079D02*
X12476277Y-12054031D01*
X12476277Y-12054031D02*
X12485801Y-12044508D01*
X12485801Y-12044508D02*
X12504848Y-12034984D01*
X12742944Y-12034984D02*
X12704848Y-12034984D01*
X12704848Y-12034984D02*
X12685801Y-12044508D01*
X12685801Y-12044508D02*
X12676277Y-12054031D01*
X12676277Y-12054031D02*
X12657229Y-12082603D01*
X12657229Y-12082603D02*
X12647706Y-12120698D01*
X12647706Y-12120698D02*
X12647706Y-12196888D01*
X12647706Y-12196888D02*
X12657229Y-12215936D01*
X12657229Y-12215936D02*
X12666753Y-12225460D01*
X12666753Y-12225460D02*
X12685801Y-12234984D01*
X12685801Y-12234984D02*
X12723896Y-12234984D01*
X12723896Y-12234984D02*
X12742944Y-12225460D01*
X12742944Y-12225460D02*
X12752467Y-12215936D01*
X12752467Y-12215936D02*
X12761991Y-12196888D01*
X12761991Y-12196888D02*
X12761991Y-12149269D01*
X12761991Y-12149269D02*
X12752467Y-12130222D01*
X12752467Y-12130222D02*
X12742944Y-12120698D01*
X12742944Y-12120698D02*
X12723896Y-12111174D01*
X12723896Y-12111174D02*
X12685801Y-12111174D01*
X12685801Y-12111174D02*
X12666753Y-12120698D01*
X12666753Y-12120698D02*
X12657229Y-12130222D01*
X12657229Y-12130222D02*
X12647706Y-12149269D01*
X12952467Y-12234984D02*
X12838182Y-12234984D01*
X12895325Y-12234984D02*
X12895325Y-12034984D01*
X12895325Y-12034984D02*
X12876277Y-12063555D01*
X12876277Y-12063555D02*
X12857229Y-12082603D01*
X12857229Y-12082603D02*
X12838182Y-12092127D01*
X13076277Y-12034984D02*
X13095325Y-12034984D01*
X13095325Y-12034984D02*
X13114372Y-12044508D01*
X13114372Y-12044508D02*
X13123896Y-12054031D01*
X13123896Y-12054031D02*
X13133420Y-12073079D01*
X13133420Y-12073079D02*
X13142944Y-12111174D01*
X13142944Y-12111174D02*
X13142944Y-12158793D01*
X13142944Y-12158793D02*
X13133420Y-12196888D01*
X13133420Y-12196888D02*
X13123896Y-12215936D01*
X13123896Y-12215936D02*
X13114372Y-12225460D01*
X13114372Y-12225460D02*
X13095325Y-12234984D01*
X13095325Y-12234984D02*
X13076277Y-12234984D01*
X13076277Y-12234984D02*
X13057229Y-12225460D01*
X13057229Y-12225460D02*
X13047706Y-12215936D01*
X13047706Y-12215936D02*
X13038182Y-12196888D01*
X13038182Y-12196888D02*
X13028658Y-12158793D01*
X13028658Y-12158793D02*
X13028658Y-12111174D01*
X13028658Y-12111174D02*
X13038182Y-12073079D01*
X13038182Y-12073079D02*
X13047706Y-12054031D01*
X13047706Y-12054031D02*
X13057229Y-12044508D01*
X13057229Y-12044508D02*
X13076277Y-12034984D01*
X13219134Y-12034984D02*
X13219134Y-12073079D01*
X13295325Y-12034984D02*
X13295325Y-12073079D01*
X13590563Y-12311174D02*
X13581039Y-12301650D01*
X13581039Y-12301650D02*
X13561991Y-12273079D01*
X13561991Y-12273079D02*
X13552468Y-12254031D01*
X13552468Y-12254031D02*
X13542944Y-12225460D01*
X13542944Y-12225460D02*
X13533420Y-12177841D01*
X13533420Y-12177841D02*
X13533420Y-12139746D01*
X13533420Y-12139746D02*
X13542944Y-12092127D01*
X13542944Y-12092127D02*
X13552468Y-12063555D01*
X13552468Y-12063555D02*
X13561991Y-12044508D01*
X13561991Y-12044508D02*
X13581039Y-12015936D01*
X13581039Y-12015936D02*
X13590563Y-12006412D01*
X13771515Y-12234984D02*
X13657229Y-12234984D01*
X13714372Y-12234984D02*
X13714372Y-12034984D01*
X13714372Y-12034984D02*
X13695325Y-12063555D01*
X13695325Y-12063555D02*
X13676277Y-12082603D01*
X13676277Y-12082603D02*
X13657229Y-12092127D01*
X14009610Y-12234984D02*
X14009610Y-12034984D01*
X14095325Y-12234984D02*
X14095325Y-12130222D01*
X14095325Y-12130222D02*
X14085801Y-12111174D01*
X14085801Y-12111174D02*
X14066753Y-12101650D01*
X14066753Y-12101650D02*
X14038182Y-12101650D01*
X14038182Y-12101650D02*
X14019134Y-12111174D01*
X14019134Y-12111174D02*
X14009610Y-12120698D01*
X14219134Y-12234984D02*
X14200087Y-12225460D01*
X14200087Y-12225460D02*
X14190563Y-12215936D01*
X14190563Y-12215936D02*
X14181039Y-12196888D01*
X14181039Y-12196888D02*
X14181039Y-12139746D01*
X14181039Y-12139746D02*
X14190563Y-12120698D01*
X14190563Y-12120698D02*
X14200087Y-12111174D01*
X14200087Y-12111174D02*
X14219134Y-12101650D01*
X14219134Y-12101650D02*
X14247706Y-12101650D01*
X14247706Y-12101650D02*
X14266753Y-12111174D01*
X14266753Y-12111174D02*
X14276277Y-12120698D01*
X14276277Y-12120698D02*
X14285801Y-12139746D01*
X14285801Y-12139746D02*
X14285801Y-12196888D01*
X14285801Y-12196888D02*
X14276277Y-12215936D01*
X14276277Y-12215936D02*
X14266753Y-12225460D01*
X14266753Y-12225460D02*
X14247706Y-12234984D01*
X14247706Y-12234984D02*
X14219134Y-12234984D01*
X14400087Y-12234984D02*
X14381039Y-12225460D01*
X14381039Y-12225460D02*
X14371515Y-12206412D01*
X14371515Y-12206412D02*
X14371515Y-12034984D01*
X14552468Y-12225460D02*
X14533420Y-12234984D01*
X14533420Y-12234984D02*
X14495325Y-12234984D01*
X14495325Y-12234984D02*
X14476277Y-12225460D01*
X14476277Y-12225460D02*
X14466753Y-12206412D01*
X14466753Y-12206412D02*
X14466753Y-12130222D01*
X14466753Y-12130222D02*
X14476277Y-12111174D01*
X14476277Y-12111174D02*
X14495325Y-12101650D01*
X14495325Y-12101650D02*
X14533420Y-12101650D01*
X14533420Y-12101650D02*
X14552468Y-12111174D01*
X14552468Y-12111174D02*
X14561991Y-12130222D01*
X14561991Y-12130222D02*
X14561991Y-12149269D01*
X14561991Y-12149269D02*
X14466753Y-12168317D01*
X14628658Y-12311174D02*
X14638182Y-12301650D01*
X14638182Y-12301650D02*
X14657230Y-12273079D01*
X14657230Y-12273079D02*
X14666753Y-12254031D01*
X14666753Y-12254031D02*
X14676277Y-12225460D01*
X14676277Y-12225460D02*
X14685801Y-12177841D01*
X14685801Y-12177841D02*
X14685801Y-12139746D01*
X14685801Y-12139746D02*
X14676277Y-12092127D01*
X14676277Y-12092127D02*
X14666753Y-12063555D01*
X14666753Y-12063555D02*
X14657230Y-12044508D01*
X14657230Y-12044508D02*
X14638182Y-12015936D01*
X14638182Y-12015936D02*
X14628658Y-12006412D01*
D15*
X9850500Y-12336000D02*
X10015500Y-12501000D01*
X10015500Y-12336000D02*
X9850500Y-12501000D01*
X9933000Y-12336000D02*
X9933000Y-12501000D01*
X9850500Y-12418500D02*
X10015500Y-12418500D01*
D11*
X10381039Y-12509984D02*
X10266753Y-12509984D01*
X10323896Y-12509984D02*
X10323896Y-12309984D01*
X10323896Y-12309984D02*
X10304848Y-12338555D01*
X10304848Y-12338555D02*
X10285801Y-12357603D01*
X10285801Y-12357603D02*
X10266753Y-12367127D01*
X10466753Y-12490936D02*
X10476277Y-12500460D01*
X10476277Y-12500460D02*
X10466753Y-12509984D01*
X10466753Y-12509984D02*
X10457229Y-12500460D01*
X10457229Y-12500460D02*
X10466753Y-12490936D01*
X10466753Y-12490936D02*
X10466753Y-12509984D01*
X10647705Y-12309984D02*
X10609610Y-12309984D01*
X10609610Y-12309984D02*
X10590563Y-12319508D01*
X10590563Y-12319508D02*
X10581039Y-12329031D01*
X10581039Y-12329031D02*
X10561991Y-12357603D01*
X10561991Y-12357603D02*
X10552467Y-12395698D01*
X10552467Y-12395698D02*
X10552467Y-12471888D01*
X10552467Y-12471888D02*
X10561991Y-12490936D01*
X10561991Y-12490936D02*
X10571515Y-12500460D01*
X10571515Y-12500460D02*
X10590563Y-12509984D01*
X10590563Y-12509984D02*
X10628658Y-12509984D01*
X10628658Y-12509984D02*
X10647705Y-12500460D01*
X10647705Y-12500460D02*
X10657229Y-12490936D01*
X10657229Y-12490936D02*
X10666753Y-12471888D01*
X10666753Y-12471888D02*
X10666753Y-12424269D01*
X10666753Y-12424269D02*
X10657229Y-12405222D01*
X10657229Y-12405222D02*
X10647705Y-12395698D01*
X10647705Y-12395698D02*
X10628658Y-12386174D01*
X10628658Y-12386174D02*
X10590563Y-12386174D01*
X10590563Y-12386174D02*
X10571515Y-12395698D01*
X10571515Y-12395698D02*
X10561991Y-12405222D01*
X10561991Y-12405222D02*
X10552467Y-12424269D01*
X10847705Y-12309984D02*
X10752467Y-12309984D01*
X10752467Y-12309984D02*
X10742944Y-12405222D01*
X10742944Y-12405222D02*
X10752467Y-12395698D01*
X10752467Y-12395698D02*
X10771515Y-12386174D01*
X10771515Y-12386174D02*
X10819134Y-12386174D01*
X10819134Y-12386174D02*
X10838182Y-12395698D01*
X10838182Y-12395698D02*
X10847705Y-12405222D01*
X10847705Y-12405222D02*
X10857229Y-12424269D01*
X10857229Y-12424269D02*
X10857229Y-12471888D01*
X10857229Y-12471888D02*
X10847705Y-12490936D01*
X10847705Y-12490936D02*
X10838182Y-12500460D01*
X10838182Y-12500460D02*
X10819134Y-12509984D01*
X10819134Y-12509984D02*
X10771515Y-12509984D01*
X10771515Y-12509984D02*
X10752467Y-12500460D01*
X10752467Y-12500460D02*
X10742944Y-12490936D01*
X10981039Y-12309984D02*
X11000086Y-12309984D01*
X11000086Y-12309984D02*
X11019134Y-12319508D01*
X11019134Y-12319508D02*
X11028658Y-12329031D01*
X11028658Y-12329031D02*
X11038182Y-12348079D01*
X11038182Y-12348079D02*
X11047705Y-12386174D01*
X11047705Y-12386174D02*
X11047705Y-12433793D01*
X11047705Y-12433793D02*
X11038182Y-12471888D01*
X11038182Y-12471888D02*
X11028658Y-12490936D01*
X11028658Y-12490936D02*
X11019134Y-12500460D01*
X11019134Y-12500460D02*
X11000086Y-12509984D01*
X11000086Y-12509984D02*
X10981039Y-12509984D01*
X10981039Y-12509984D02*
X10961991Y-12500460D01*
X10961991Y-12500460D02*
X10952467Y-12490936D01*
X10952467Y-12490936D02*
X10942944Y-12471888D01*
X10942944Y-12471888D02*
X10933420Y-12433793D01*
X10933420Y-12433793D02*
X10933420Y-12386174D01*
X10933420Y-12386174D02*
X10942944Y-12348079D01*
X10942944Y-12348079D02*
X10952467Y-12329031D01*
X10952467Y-12329031D02*
X10961991Y-12319508D01*
X10961991Y-12319508D02*
X10981039Y-12309984D01*
X11133420Y-12509984D02*
X11133420Y-12376650D01*
X11133420Y-12395698D02*
X11142944Y-12386174D01*
X11142944Y-12386174D02*
X11161991Y-12376650D01*
X11161991Y-12376650D02*
X11190563Y-12376650D01*
X11190563Y-12376650D02*
X11209610Y-12386174D01*
X11209610Y-12386174D02*
X11219134Y-12405222D01*
X11219134Y-12405222D02*
X11219134Y-12509984D01*
X11219134Y-12405222D02*
X11228658Y-12386174D01*
X11228658Y-12386174D02*
X11247705Y-12376650D01*
X11247705Y-12376650D02*
X11276277Y-12376650D01*
X11276277Y-12376650D02*
X11295324Y-12386174D01*
X11295324Y-12386174D02*
X11304848Y-12405222D01*
X11304848Y-12405222D02*
X11304848Y-12509984D01*
X11400086Y-12509984D02*
X11400086Y-12376650D01*
X11400086Y-12395698D02*
X11409610Y-12386174D01*
X11409610Y-12386174D02*
X11428658Y-12376650D01*
X11428658Y-12376650D02*
X11457229Y-12376650D01*
X11457229Y-12376650D02*
X11476277Y-12386174D01*
X11476277Y-12386174D02*
X11485801Y-12405222D01*
X11485801Y-12405222D02*
X11485801Y-12509984D01*
X11485801Y-12405222D02*
X11495324Y-12386174D01*
X11495324Y-12386174D02*
X11514372Y-12376650D01*
X11514372Y-12376650D02*
X11542943Y-12376650D01*
X11542943Y-12376650D02*
X11561991Y-12386174D01*
X11561991Y-12386174D02*
X11571515Y-12405222D01*
X11571515Y-12405222D02*
X11571515Y-12509984D01*
X11961991Y-12300460D02*
X11790563Y-12557603D01*
X12219134Y-12309984D02*
X12238182Y-12309984D01*
X12238182Y-12309984D02*
X12257229Y-12319508D01*
X12257229Y-12319508D02*
X12266753Y-12329031D01*
X12266753Y-12329031D02*
X12276277Y-12348079D01*
X12276277Y-12348079D02*
X12285801Y-12386174D01*
X12285801Y-12386174D02*
X12285801Y-12433793D01*
X12285801Y-12433793D02*
X12276277Y-12471888D01*
X12276277Y-12471888D02*
X12266753Y-12490936D01*
X12266753Y-12490936D02*
X12257229Y-12500460D01*
X12257229Y-12500460D02*
X12238182Y-12509984D01*
X12238182Y-12509984D02*
X12219134Y-12509984D01*
X12219134Y-12509984D02*
X12200086Y-12500460D01*
X12200086Y-12500460D02*
X12190563Y-12490936D01*
X12190563Y-12490936D02*
X12181039Y-12471888D01*
X12181039Y-12471888D02*
X12171515Y-12433793D01*
X12171515Y-12433793D02*
X12171515Y-12386174D01*
X12171515Y-12386174D02*
X12181039Y-12348079D01*
X12181039Y-12348079D02*
X12190563Y-12329031D01*
X12190563Y-12329031D02*
X12200086Y-12319508D01*
X12200086Y-12319508D02*
X12219134Y-12309984D01*
X12371515Y-12490936D02*
X12381039Y-12500460D01*
X12381039Y-12500460D02*
X12371515Y-12509984D01*
X12371515Y-12509984D02*
X12361991Y-12500460D01*
X12361991Y-12500460D02*
X12371515Y-12490936D01*
X12371515Y-12490936D02*
X12371515Y-12509984D01*
X12504848Y-12309984D02*
X12523896Y-12309984D01*
X12523896Y-12309984D02*
X12542944Y-12319508D01*
X12542944Y-12319508D02*
X12552467Y-12329031D01*
X12552467Y-12329031D02*
X12561991Y-12348079D01*
X12561991Y-12348079D02*
X12571515Y-12386174D01*
X12571515Y-12386174D02*
X12571515Y-12433793D01*
X12571515Y-12433793D02*
X12561991Y-12471888D01*
X12561991Y-12471888D02*
X12552467Y-12490936D01*
X12552467Y-12490936D02*
X12542944Y-12500460D01*
X12542944Y-12500460D02*
X12523896Y-12509984D01*
X12523896Y-12509984D02*
X12504848Y-12509984D01*
X12504848Y-12509984D02*
X12485801Y-12500460D01*
X12485801Y-12500460D02*
X12476277Y-12490936D01*
X12476277Y-12490936D02*
X12466753Y-12471888D01*
X12466753Y-12471888D02*
X12457229Y-12433793D01*
X12457229Y-12433793D02*
X12457229Y-12386174D01*
X12457229Y-12386174D02*
X12466753Y-12348079D01*
X12466753Y-12348079D02*
X12476277Y-12329031D01*
X12476277Y-12329031D02*
X12485801Y-12319508D01*
X12485801Y-12319508D02*
X12504848Y-12309984D01*
X12742944Y-12309984D02*
X12704848Y-12309984D01*
X12704848Y-12309984D02*
X12685801Y-12319508D01*
X12685801Y-12319508D02*
X12676277Y-12329031D01*
X12676277Y-12329031D02*
X12657229Y-12357603D01*
X12657229Y-12357603D02*
X12647706Y-12395698D01*
X12647706Y-12395698D02*
X12647706Y-12471888D01*
X12647706Y-12471888D02*
X12657229Y-12490936D01*
X12657229Y-12490936D02*
X12666753Y-12500460D01*
X12666753Y-12500460D02*
X12685801Y-12509984D01*
X12685801Y-12509984D02*
X12723896Y-12509984D01*
X12723896Y-12509984D02*
X12742944Y-12500460D01*
X12742944Y-12500460D02*
X12752467Y-12490936D01*
X12752467Y-12490936D02*
X12761991Y-12471888D01*
X12761991Y-12471888D02*
X12761991Y-12424269D01*
X12761991Y-12424269D02*
X12752467Y-12405222D01*
X12752467Y-12405222D02*
X12742944Y-12395698D01*
X12742944Y-12395698D02*
X12723896Y-12386174D01*
X12723896Y-12386174D02*
X12685801Y-12386174D01*
X12685801Y-12386174D02*
X12666753Y-12395698D01*
X12666753Y-12395698D02*
X12657229Y-12405222D01*
X12657229Y-12405222D02*
X12647706Y-12424269D01*
X12942944Y-12309984D02*
X12847706Y-12309984D01*
X12847706Y-12309984D02*
X12838182Y-12405222D01*
X12838182Y-12405222D02*
X12847706Y-12395698D01*
X12847706Y-12395698D02*
X12866753Y-12386174D01*
X12866753Y-12386174D02*
X12914372Y-12386174D01*
X12914372Y-12386174D02*
X12933420Y-12395698D01*
X12933420Y-12395698D02*
X12942944Y-12405222D01*
X12942944Y-12405222D02*
X12952467Y-12424269D01*
X12952467Y-12424269D02*
X12952467Y-12471888D01*
X12952467Y-12471888D02*
X12942944Y-12490936D01*
X12942944Y-12490936D02*
X12933420Y-12500460D01*
X12933420Y-12500460D02*
X12914372Y-12509984D01*
X12914372Y-12509984D02*
X12866753Y-12509984D01*
X12866753Y-12509984D02*
X12847706Y-12500460D01*
X12847706Y-12500460D02*
X12838182Y-12490936D01*
X13076277Y-12309984D02*
X13095325Y-12309984D01*
X13095325Y-12309984D02*
X13114372Y-12319508D01*
X13114372Y-12319508D02*
X13123896Y-12329031D01*
X13123896Y-12329031D02*
X13133420Y-12348079D01*
X13133420Y-12348079D02*
X13142944Y-12386174D01*
X13142944Y-12386174D02*
X13142944Y-12433793D01*
X13142944Y-12433793D02*
X13133420Y-12471888D01*
X13133420Y-12471888D02*
X13123896Y-12490936D01*
X13123896Y-12490936D02*
X13114372Y-12500460D01*
X13114372Y-12500460D02*
X13095325Y-12509984D01*
X13095325Y-12509984D02*
X13076277Y-12509984D01*
X13076277Y-12509984D02*
X13057229Y-12500460D01*
X13057229Y-12500460D02*
X13047706Y-12490936D01*
X13047706Y-12490936D02*
X13038182Y-12471888D01*
X13038182Y-12471888D02*
X13028658Y-12433793D01*
X13028658Y-12433793D02*
X13028658Y-12386174D01*
X13028658Y-12386174D02*
X13038182Y-12348079D01*
X13038182Y-12348079D02*
X13047706Y-12329031D01*
X13047706Y-12329031D02*
X13057229Y-12319508D01*
X13057229Y-12319508D02*
X13076277Y-12309984D01*
X13219134Y-12309984D02*
X13219134Y-12348079D01*
X13295325Y-12309984D02*
X13295325Y-12348079D01*
X13590563Y-12586174D02*
X13581039Y-12576650D01*
X13581039Y-12576650D02*
X13561991Y-12548079D01*
X13561991Y-12548079D02*
X13552468Y-12529031D01*
X13552468Y-12529031D02*
X13542944Y-12500460D01*
X13542944Y-12500460D02*
X13533420Y-12452841D01*
X13533420Y-12452841D02*
X13533420Y-12414746D01*
X13533420Y-12414746D02*
X13542944Y-12367127D01*
X13542944Y-12367127D02*
X13552468Y-12338555D01*
X13552468Y-12338555D02*
X13561991Y-12319508D01*
X13561991Y-12319508D02*
X13581039Y-12290936D01*
X13581039Y-12290936D02*
X13590563Y-12281412D01*
X13752468Y-12376650D02*
X13752468Y-12509984D01*
X13704848Y-12300460D02*
X13657229Y-12443317D01*
X13657229Y-12443317D02*
X13781039Y-12443317D01*
X14009610Y-12509984D02*
X14009610Y-12309984D01*
X14095325Y-12509984D02*
X14095325Y-12405222D01*
X14095325Y-12405222D02*
X14085801Y-12386174D01*
X14085801Y-12386174D02*
X14066753Y-12376650D01*
X14066753Y-12376650D02*
X14038182Y-12376650D01*
X14038182Y-12376650D02*
X14019134Y-12386174D01*
X14019134Y-12386174D02*
X14009610Y-12395698D01*
X14219134Y-12509984D02*
X14200087Y-12500460D01*
X14200087Y-12500460D02*
X14190563Y-12490936D01*
X14190563Y-12490936D02*
X14181039Y-12471888D01*
X14181039Y-12471888D02*
X14181039Y-12414746D01*
X14181039Y-12414746D02*
X14190563Y-12395698D01*
X14190563Y-12395698D02*
X14200087Y-12386174D01*
X14200087Y-12386174D02*
X14219134Y-12376650D01*
X14219134Y-12376650D02*
X14247706Y-12376650D01*
X14247706Y-12376650D02*
X14266753Y-12386174D01*
X14266753Y-12386174D02*
X14276277Y-12395698D01*
X14276277Y-12395698D02*
X14285801Y-12414746D01*
X14285801Y-12414746D02*
X14285801Y-12471888D01*
X14285801Y-12471888D02*
X14276277Y-12490936D01*
X14276277Y-12490936D02*
X14266753Y-12500460D01*
X14266753Y-12500460D02*
X14247706Y-12509984D01*
X14247706Y-12509984D02*
X14219134Y-12509984D01*
X14400087Y-12509984D02*
X14381039Y-12500460D01*
X14381039Y-12500460D02*
X14371515Y-12481412D01*
X14371515Y-12481412D02*
X14371515Y-12309984D01*
X14552468Y-12500460D02*
X14533420Y-12509984D01*
X14533420Y-12509984D02*
X14495325Y-12509984D01*
X14495325Y-12509984D02*
X14476277Y-12500460D01*
X14476277Y-12500460D02*
X14466753Y-12481412D01*
X14466753Y-12481412D02*
X14466753Y-12405222D01*
X14466753Y-12405222D02*
X14476277Y-12386174D01*
X14476277Y-12386174D02*
X14495325Y-12376650D01*
X14495325Y-12376650D02*
X14533420Y-12376650D01*
X14533420Y-12376650D02*
X14552468Y-12386174D01*
X14552468Y-12386174D02*
X14561991Y-12405222D01*
X14561991Y-12405222D02*
X14561991Y-12424269D01*
X14561991Y-12424269D02*
X14466753Y-12443317D01*
X14638182Y-12500460D02*
X14657230Y-12509984D01*
X14657230Y-12509984D02*
X14695325Y-12509984D01*
X14695325Y-12509984D02*
X14714372Y-12500460D01*
X14714372Y-12500460D02*
X14723896Y-12481412D01*
X14723896Y-12481412D02*
X14723896Y-12471888D01*
X14723896Y-12471888D02*
X14714372Y-12452841D01*
X14714372Y-12452841D02*
X14695325Y-12443317D01*
X14695325Y-12443317D02*
X14666753Y-12443317D01*
X14666753Y-12443317D02*
X14647706Y-12433793D01*
X14647706Y-12433793D02*
X14638182Y-12414746D01*
X14638182Y-12414746D02*
X14638182Y-12405222D01*
X14638182Y-12405222D02*
X14647706Y-12386174D01*
X14647706Y-12386174D02*
X14666753Y-12376650D01*
X14666753Y-12376650D02*
X14695325Y-12376650D01*
X14695325Y-12376650D02*
X14714372Y-12386174D01*
X14790563Y-12586174D02*
X14800087Y-12576650D01*
X14800087Y-12576650D02*
X14819134Y-12548079D01*
X14819134Y-12548079D02*
X14828658Y-12529031D01*
X14828658Y-12529031D02*
X14838182Y-12500460D01*
X14838182Y-12500460D02*
X14847706Y-12452841D01*
X14847706Y-12452841D02*
X14847706Y-12414746D01*
X14847706Y-12414746D02*
X14838182Y-12367127D01*
X14838182Y-12367127D02*
X14828658Y-12338555D01*
X14828658Y-12338555D02*
X14819134Y-12319508D01*
X14819134Y-12319508D02*
X14800087Y-12290936D01*
X14800087Y-12290936D02*
X14790563Y-12281412D01*
M02*
