%TF.GenerationSoftware,KiCad,Pcbnew,9.0.2+1*%
%TF.CreationDate,2025-08-16T03:16:36+01:00*%
%TF.ProjectId,Elytra,456c7974-7261-42e6-9b69-6361645f7063,rev?*%
%TF.SameCoordinates,Original*%
%TF.FileFunction,Copper,L3,Inr*%
%TF.FilePolarity,Positive*%
%FSLAX46Y46*%
G04 Gerber Fmt 4.6, Leading zero omitted, Abs format (unit mm)*
G04 Created by KiCad (PCBNEW 9.0.2+1) date 2025-08-16 03:16:36*
%MOMM*%
%LPD*%
G01*
G04 APERTURE LIST*
%TA.AperFunction,ComponentPad*%
%ADD10C,1.117600*%
%TD*%
%TA.AperFunction,ComponentPad*%
%ADD11R,2.700000X2.700000*%
%TD*%
%TA.AperFunction,ComponentPad*%
%ADD12C,2.700000*%
%TD*%
%TA.AperFunction,ComponentPad*%
%ADD13C,1.950000*%
%TD*%
%TA.AperFunction,ComponentPad*%
%ADD14C,1.500000*%
%TD*%
%TA.AperFunction,ViaPad*%
%ADD15C,0.600000*%
%TD*%
%TA.AperFunction,ViaPad*%
%ADD16C,0.700000*%
%TD*%
G04 APERTURE END LIST*
D10*
%TO.N,+14V*%
%TO.C,J1*%
X167770101Y-85908700D03*
%TO.N,/PYRO1_OUT*%
X166520101Y-85908700D03*
%TO.N,+14V*%
X165270101Y-85908700D03*
%TO.N,/PYRO2_OUT*%
X164020101Y-85908700D03*
%TO.N,+14V*%
X162770101Y-85908700D03*
%TO.N,/PYRO3_OUT*%
X161520101Y-85908700D03*
%TO.N,+14V*%
X160270100Y-85908700D03*
%TO.N,/PYRO4_OUT*%
X159020100Y-85908700D03*
%TO.N,+14V*%
X157770100Y-85908700D03*
%TO.N,/PYRO5_OUT*%
X156520100Y-85908700D03*
%TO.N,+14V*%
X155270100Y-85908700D03*
%TO.N,/PYRO6_OUT*%
X154020100Y-85908700D03*
%TD*%
D11*
%TO.N,GND*%
%TO.C,J2*%
X97624999Y-101470000D03*
D12*
%TO.N,VBAT1*%
X97624999Y-96470000D03*
%TD*%
D11*
%TO.N,GND*%
%TO.C,J3*%
X97600000Y-84100000D03*
D12*
%TO.N,VBAT2*%
X97600000Y-89100000D03*
%TD*%
D13*
%TO.N,Net-(K1-COIL_1)*%
%TO.C,K1*%
X124299998Y-91699999D03*
%TO.N,unconnected-(K1-COM_1-Pad3)*%
X144299998Y-91699999D03*
%TO.N,unconnected-(K1-NO_1-Pad4)*%
X149299998Y-91699999D03*
%TO.N,Net-(K1-NO_2)*%
X149299998Y-84199999D03*
%TO.N,VFill*%
X144299998Y-84199999D03*
%TO.N,+14V*%
X124299998Y-84199999D03*
%TD*%
D11*
%TO.N,GND*%
%TO.C,J4*%
X155825000Y-95800000D03*
D12*
%TO.N,VFill*%
X155825000Y-90800000D03*
%TD*%
D13*
%TO.N,Net-(K2-COIL_1)*%
%TO.C,K2*%
X124300000Y-106500000D03*
%TO.N,unconnected-(K2-COM_1-Pad3)*%
X144300000Y-106500000D03*
%TO.N,unconnected-(K2-NO_1-Pad4)*%
X149300000Y-106500000D03*
%TO.N,Net-(K2-NO_2)*%
X149300000Y-99000000D03*
%TO.N,VFill*%
X144300000Y-99000000D03*
%TO.N,+14V*%
X124300000Y-99000000D03*
%TD*%
D14*
%TO.N,+3.3V*%
%TO.C,DSUB1*%
X194960000Y-114340000D03*
%TO.N,+5V*%
X194960000Y-112050000D03*
%TO.N,/V2_OUT*%
X194960000Y-109760000D03*
%TO.N,/V1_OUT*%
X194960000Y-107470000D03*
%TO.N,/V0_OUT*%
X194960000Y-105180000D03*
%TO.N,/V3_OUT*%
X197500000Y-113195000D03*
%TO.N,/V4_OUT*%
X197500000Y-110905000D03*
%TO.N,/V5_OUT*%
X197500000Y-108615000D03*
%TO.N,GND*%
X197500000Y-106325000D03*
%TO.N,/FIRE_OUT2*%
X197500000Y-104035000D03*
%TO.N,/FIRE_OUT1*%
X200040000Y-114340000D03*
%TO.N,GND*%
X200040000Y-112050000D03*
X200040000Y-109760000D03*
X200040000Y-107470000D03*
%TO.N,/FIRE_OUT3*%
X200040000Y-105180000D03*
%TD*%
D11*
%TO.N,/KEY_OUT*%
%TO.C,J5*%
X128600000Y-114325000D03*
D12*
%TO.N,VDC*%
X123600000Y-114325000D03*
%TD*%
D15*
%TO.N,GND*%
X140170000Y-119160000D03*
%TO.N,VDC*%
X136950000Y-123250000D03*
X142260000Y-123610000D03*
X136925000Y-124025000D03*
X143000000Y-123600000D03*
D16*
%TO.N,+14V*%
X129575000Y-131125000D03*
X131130000Y-108580000D03*
X130280000Y-107730000D03*
X132125000Y-131975000D03*
D15*
X193075000Y-125850000D03*
X206775000Y-133975000D03*
D16*
X132125000Y-130275000D03*
D15*
X200750000Y-80800000D03*
D16*
X131980000Y-109430000D03*
X126830000Y-109430000D03*
X130280000Y-109430000D03*
X127680000Y-108580000D03*
X128580000Y-107730000D03*
D15*
X205950000Y-91200000D03*
X206850000Y-90050000D03*
D16*
X131980000Y-107730000D03*
D15*
X192125000Y-124900000D03*
X206850000Y-91200000D03*
D16*
X130425000Y-131975000D03*
X128725000Y-130275000D03*
X126830000Y-107730000D03*
D15*
X206850000Y-88800000D03*
X205950000Y-135825000D03*
D16*
X131275000Y-131125000D03*
X126975000Y-131975000D03*
X127825000Y-131125000D03*
X126975000Y-130275000D03*
X128580000Y-109430000D03*
D15*
X199500001Y-80800000D03*
D16*
X128725000Y-131975000D03*
X129430000Y-108580000D03*
D15*
X192650000Y-124375000D03*
X193600000Y-125325000D03*
D16*
X130425000Y-130275000D03*
D15*
X205900000Y-132450000D03*
X201900000Y-80800000D03*
X206800000Y-135825000D03*
X192825000Y-125125000D03*
%TO.N,/DC.DC3 VCC*%
X140792500Y-119932500D03*
X140480000Y-113840000D03*
%TO.N,+5V*%
X173800000Y-137100000D03*
D16*
X159950000Y-133000000D03*
D15*
X175200000Y-135700000D03*
D16*
X158250000Y-133000000D03*
X159100000Y-133850000D03*
D15*
X172375000Y-135700000D03*
X173800000Y-134275000D03*
D16*
%TO.N,/PYRO1_OUT*%
X179550000Y-134900000D03*
X178000000Y-129800000D03*
X178000000Y-128750000D03*
X196350000Y-136500000D03*
X196975000Y-137125000D03*
X180600000Y-134900000D03*
%TO.N,/PYRO2_OUT*%
X176600000Y-130100000D03*
X176450000Y-129050000D03*
%TO.N,/PYRO4_OUT*%
X162450000Y-116500000D03*
X161950000Y-116000000D03*
%TO.N,/PYRO3_OUT*%
X162625000Y-113325000D03*
X162150000Y-112850000D03*
%TO.N,/PYRO6_OUT*%
X195900000Y-81650000D03*
%TO.N,/PYRO5_OUT*%
X181600000Y-82500000D03*
%TO.N,/FIRE_OUT2*%
X191125000Y-108375000D03*
X191150000Y-109250000D03*
%TO.N,/FIRE_OUT3*%
X193475000Y-101925000D03*
X194400000Y-101925000D03*
D15*
%TO.N,/KEY_OUT*%
X129703054Y-128222790D03*
X129703054Y-127310290D03*
X129678054Y-126397790D03*
X128375000Y-126397790D03*
D16*
%TO.N,Net-(K1-NO_2)*%
X114650000Y-90675000D03*
X113800000Y-91525000D03*
X115550000Y-91525000D03*
X113800000Y-89825000D03*
X115550000Y-89825000D03*
%TO.N,Net-(K2-NO_2)*%
X113775000Y-97325000D03*
X115525000Y-97325000D03*
X114625000Y-98175000D03*
X115525000Y-99025000D03*
X113775000Y-99025000D03*
D15*
%TO.N,Net-(U6-MODE)*%
X110250000Y-132425000D03*
X113706587Y-128456587D03*
%TO.N,Net-(U1-SW)*%
X139500000Y-122400000D03*
X144700000Y-123425000D03*
%TO.N,Net-(U1-FB)*%
X139025000Y-119400000D03*
X137460000Y-117050000D03*
D16*
%TO.N,Net-(D3-A)*%
X151850000Y-127600000D03*
X153300000Y-127600000D03*
X143600000Y-119450000D03*
X154750000Y-127600000D03*
D15*
%TO.N,GND*%
X172900000Y-115925000D03*
X115160000Y-132910000D03*
X173675000Y-88150000D03*
X180125000Y-135925000D03*
X200275000Y-132375000D03*
X189875000Y-84425000D03*
X139825000Y-119800000D03*
X162075000Y-127025000D03*
X114750000Y-135450000D03*
X203975000Y-115875000D03*
X162850000Y-97450000D03*
X207750000Y-90675000D03*
X93800000Y-106175000D03*
X194075000Y-124475000D03*
X144475000Y-126500000D03*
X114550000Y-85650000D03*
X206025000Y-92200000D03*
X175675000Y-111000000D03*
X197475000Y-126600000D03*
X133500000Y-132649999D03*
X188325000Y-114650000D03*
X201500000Y-84125000D03*
X167400000Y-137200000D03*
X135400000Y-126425000D03*
X203375000Y-128075000D03*
X196800000Y-135250000D03*
X112675000Y-125875000D03*
X133556004Y-119143996D03*
X187054458Y-90717218D03*
X204000000Y-129575000D03*
X115950000Y-85650000D03*
X156450000Y-106500000D03*
X134650000Y-91475000D03*
X203975000Y-124450000D03*
X149600000Y-136750000D03*
X162675000Y-88150000D03*
X115600000Y-126750000D03*
X171300000Y-97350000D03*
X184325000Y-104400000D03*
X134050000Y-122525000D03*
X115600000Y-121650000D03*
X148075000Y-127475000D03*
X177125000Y-115025000D03*
X192525000Y-114900000D03*
X204575000Y-125425000D03*
X145400000Y-136750000D03*
X204700000Y-87650000D03*
X155950000Y-101625000D03*
X155800000Y-97950000D03*
X94675000Y-104800000D03*
X182850000Y-135950000D03*
X193425000Y-84325000D03*
X117150005Y-137999995D03*
X202675000Y-85400000D03*
X134669737Y-133050000D03*
X163650000Y-136050000D03*
X109950000Y-109325000D03*
X148550000Y-137950000D03*
X133125000Y-121950000D03*
X114939288Y-126360712D03*
X178975000Y-135900000D03*
X134650000Y-89750000D03*
X133650000Y-116400000D03*
X177940000Y-112475000D03*
X146450000Y-137950000D03*
X174650000Y-90275000D03*
X192400000Y-83325000D03*
X189850000Y-82225000D03*
X206025000Y-131500000D03*
X111650000Y-83750000D03*
X99450000Y-84100000D03*
X171150000Y-136025000D03*
X160450000Y-96000000D03*
X121450000Y-128325000D03*
X192850000Y-126850000D03*
X95650000Y-108469998D03*
X160200000Y-97325000D03*
X111750000Y-132225000D03*
X134669737Y-131300000D03*
X191000000Y-83325000D03*
X194450000Y-100775000D03*
X128650000Y-133525000D03*
X174600000Y-103350000D03*
X181325000Y-135950000D03*
X197300000Y-115500000D03*
X177050000Y-113550000D03*
X112150000Y-109325000D03*
X176725000Y-125525000D03*
X116650000Y-132026469D03*
X130350000Y-133525000D03*
X184400000Y-111100000D03*
X138600000Y-112925000D03*
X192300000Y-135725000D03*
X111450000Y-123500000D03*
X179250000Y-83300000D03*
X150550000Y-129125000D03*
X133975000Y-127350000D03*
X200975000Y-128775000D03*
X110396201Y-138046201D03*
X205075000Y-130550000D03*
X134669737Y-129600001D03*
X165500000Y-116550000D03*
X107750000Y-111100000D03*
X165650000Y-128250000D03*
X189900000Y-108150000D03*
X160450000Y-88125000D03*
X153300000Y-126575000D03*
X152000000Y-126575000D03*
X186525000Y-121550000D03*
X121250000Y-133400000D03*
X143025000Y-127375000D03*
X158275000Y-128275000D03*
X193275000Y-123625000D03*
X203025000Y-86950000D03*
X207050000Y-125750000D03*
X174625000Y-110025000D03*
X108700006Y-134324994D03*
X202550000Y-91375000D03*
X112740435Y-122709565D03*
X117500000Y-89275000D03*
X161400000Y-133075000D03*
X157975000Y-95800000D03*
X175175000Y-95975000D03*
X132050000Y-133525000D03*
X202050000Y-104475000D03*
X193425000Y-82300000D03*
X118200000Y-132018589D03*
X193475000Y-135725000D03*
X175700000Y-120850000D03*
X193450000Y-100750000D03*
X199575000Y-126875000D03*
X134650000Y-93125000D03*
X173725000Y-128975000D03*
X192575000Y-112225000D03*
X203325000Y-80850000D03*
X114650000Y-101650000D03*
X206900000Y-92200000D03*
X170600000Y-109225000D03*
X129500000Y-134375000D03*
X169200000Y-127075000D03*
X160450000Y-90800000D03*
X189280000Y-105110000D03*
X114750000Y-136950000D03*
X194475000Y-83325000D03*
X133975000Y-125475000D03*
X141481005Y-126168995D03*
X116475005Y-125625005D03*
X168900000Y-116400000D03*
X163100000Y-112400000D03*
X134669737Y-127900000D03*
X150649997Y-137924997D03*
X207750000Y-89425000D03*
X114800000Y-106325000D03*
X162925000Y-115575000D03*
X97600000Y-82250000D03*
X107725000Y-133275000D03*
X178150000Y-84400000D03*
X153650000Y-95800000D03*
X95650000Y-106200000D03*
X195750000Y-82775000D03*
X136862500Y-102150000D03*
X109950000Y-111100000D03*
X175650000Y-108925000D03*
X202100000Y-84775000D03*
X202650000Y-93100000D03*
X114350000Y-109325000D03*
X198175000Y-125650000D03*
X139075000Y-89750000D03*
X144350000Y-137925000D03*
X176725000Y-110000000D03*
X139075000Y-93125000D03*
X136950000Y-124925000D03*
X160275000Y-106475000D03*
X114350000Y-111100000D03*
X136862500Y-89750000D03*
X189900000Y-109125000D03*
X131200000Y-134375000D03*
X136862500Y-93125000D03*
X112150000Y-111100000D03*
X97600000Y-85950000D03*
X106400000Y-110275000D03*
X111650000Y-81600000D03*
X107750000Y-109350000D03*
X133500000Y-129200000D03*
X139075000Y-102150000D03*
X103000000Y-108550000D03*
X155825000Y-94050000D03*
X110650000Y-82800000D03*
X161475000Y-116975000D03*
X120575000Y-127425000D03*
X115700000Y-123250000D03*
X119250000Y-134300000D03*
X189350000Y-128750000D03*
X103000000Y-80250000D03*
X139075000Y-91475000D03*
X189825000Y-133200000D03*
X115100000Y-122450000D03*
X147500000Y-136750000D03*
X119250000Y-133400000D03*
X94550000Y-109930000D03*
X163050000Y-100350000D03*
X138600000Y-113800000D03*
X112709566Y-124309566D03*
X203575000Y-126750000D03*
X145850000Y-127400000D03*
X118200000Y-94950000D03*
X134650000Y-102150000D03*
X113850000Y-107175000D03*
X95550000Y-101475000D03*
X120700000Y-134300000D03*
X103000000Y-107775000D03*
X109300000Y-136950000D03*
X136862500Y-91475000D03*
X192900000Y-131925000D03*
X127750000Y-134375000D03*
X111450000Y-125100000D03*
X133500000Y-130900001D03*
X194800000Y-125450000D03*
X206350000Y-137775000D03*
X188750000Y-83325000D03*
X115750000Y-110300000D03*
X126900000Y-133525000D03*
X203425000Y-135850000D03*
X170900000Y-88175000D03*
X154675000Y-126575000D03*
X138325000Y-126175000D03*
X93800000Y-108475000D03*
X162975000Y-109250000D03*
X95700000Y-84100000D03*
X175375000Y-126725000D03*
X190050000Y-135725000D03*
X117894146Y-133774004D03*
X201600000Y-133375000D03*
X161750000Y-113825000D03*
X175216636Y-128983364D03*
X145625000Y-129125000D03*
X148050000Y-130750000D03*
X194600000Y-136650000D03*
X115100000Y-108410000D03*
X116175000Y-107200000D03*
X174600000Y-121750000D03*
X118050000Y-136926469D03*
X192025000Y-126150000D03*
X176475000Y-127775000D03*
X165225000Y-110600000D03*
X191200000Y-136675000D03*
X177025000Y-83275000D03*
X144475000Y-128375000D03*
X176550000Y-121850000D03*
X180675000Y-83125000D03*
X179500000Y-125325000D03*
X192300000Y-108825000D03*
X207050000Y-117175000D03*
%TO.N,/V0_IN*%
X198600000Y-126600000D03*
X199250000Y-125950000D03*
X204500000Y-126450000D03*
X203900000Y-125850000D03*
%TO.N,/V5_IN*%
X189400000Y-133950000D03*
X202075000Y-132675000D03*
X188600000Y-133950000D03*
X201125000Y-132675000D03*
%TO.N,/V2_IN*%
X189700000Y-105800000D03*
X178550000Y-111900000D03*
%TO.N,/V3_IN*%
X184300000Y-105200000D03*
X176475000Y-114275000D03*
%TO.N,/V1_IN*%
X186425000Y-91125000D03*
X203000000Y-92250000D03*
%TO.N,/V4_OUT*%
X204050000Y-87000000D03*
%TO.N,/V3_OUT*%
X192550000Y-113200000D03*
D16*
X184450000Y-110100000D03*
%TD*%
%TA.AperFunction,Conductor*%
%TO.N,GND*%
G36*
X205803471Y-79800695D02*
G01*
X205847099Y-79803144D01*
X206117695Y-79818340D01*
X206131498Y-79819896D01*
X206438339Y-79872031D01*
X206451883Y-79875122D01*
X206750952Y-79961282D01*
X206764077Y-79965874D01*
X207051618Y-80084978D01*
X207064132Y-80091004D01*
X207336547Y-80241563D01*
X207348303Y-80248950D01*
X207602129Y-80429050D01*
X207612989Y-80437709D01*
X207708863Y-80523387D01*
X207845063Y-80645103D01*
X207854894Y-80654934D01*
X208037532Y-80859306D01*
X208062285Y-80887004D01*
X208070954Y-80897876D01*
X208251043Y-81151687D01*
X208258439Y-81163457D01*
X208357494Y-81342683D01*
X208408991Y-81435860D01*
X208415024Y-81448388D01*
X208534124Y-81735921D01*
X208538717Y-81749047D01*
X208624875Y-82048110D01*
X208627969Y-82061666D01*
X208680102Y-82368493D01*
X208681659Y-82382311D01*
X208699305Y-82696527D01*
X208699500Y-82703480D01*
X208699500Y-136341397D01*
X208699186Y-136350214D01*
X208677133Y-136659580D01*
X208675393Y-136673237D01*
X208619538Y-136976307D01*
X208616295Y-136989687D01*
X208527188Y-137284699D01*
X208522482Y-137297637D01*
X208401222Y-137580950D01*
X208395110Y-137593287D01*
X208243179Y-137861428D01*
X208235738Y-137873010D01*
X208055038Y-138122631D01*
X208046359Y-138133318D01*
X207839088Y-138361385D01*
X207829277Y-138371044D01*
X207598000Y-138574727D01*
X207587179Y-138583238D01*
X207334759Y-138760021D01*
X207323061Y-138767281D01*
X207052592Y-138914995D01*
X207040162Y-138920912D01*
X206754979Y-139037736D01*
X206741969Y-139042240D01*
X206445607Y-139126725D01*
X206432178Y-139129759D01*
X206128266Y-139180873D01*
X206114583Y-139182399D01*
X205803434Y-139199698D01*
X205796551Y-139199889D01*
X96247595Y-139199500D01*
X96203481Y-139199500D01*
X96196528Y-139199305D01*
X95882311Y-139181659D01*
X95868493Y-139180102D01*
X95561666Y-139127969D01*
X95548110Y-139124875D01*
X95249047Y-139038717D01*
X95235921Y-139034124D01*
X94948388Y-138915024D01*
X94935860Y-138908991D01*
X94913853Y-138896828D01*
X94663457Y-138758439D01*
X94651692Y-138751046D01*
X94397872Y-138570951D01*
X94387004Y-138562285D01*
X94221007Y-138413941D01*
X94154934Y-138354894D01*
X94145103Y-138345063D01*
X93951321Y-138128221D01*
X93937709Y-138112989D01*
X93929050Y-138102129D01*
X93748950Y-137848303D01*
X93741563Y-137836547D01*
X93591004Y-137564132D01*
X93584978Y-137551618D01*
X93465874Y-137264077D01*
X93461282Y-137250953D01*
X93443979Y-137190892D01*
X93400707Y-137040691D01*
X173349500Y-137040691D01*
X173349500Y-137159309D01*
X173380201Y-137273886D01*
X173439511Y-137376613D01*
X173523387Y-137460489D01*
X173626114Y-137519799D01*
X173740691Y-137550500D01*
X173740694Y-137550500D01*
X173859306Y-137550500D01*
X173859309Y-137550500D01*
X173973886Y-137519799D01*
X174076613Y-137460489D01*
X174160489Y-137376613D01*
X174219799Y-137273886D01*
X174250500Y-137159309D01*
X174250500Y-137040691D01*
X174219799Y-136926114D01*
X174160489Y-136823387D01*
X174076613Y-136739511D01*
X173973886Y-136680201D01*
X173859309Y-136649500D01*
X173740691Y-136649500D01*
X173626114Y-136680201D01*
X173626112Y-136680201D01*
X173626112Y-136680202D01*
X173523387Y-136739511D01*
X173523384Y-136739513D01*
X173439513Y-136823384D01*
X173439511Y-136823387D01*
X173380201Y-136926114D01*
X173349500Y-137040691D01*
X93400707Y-137040691D01*
X93375122Y-136951883D01*
X93372030Y-136938333D01*
X93319896Y-136631498D01*
X93318341Y-136617697D01*
X93308031Y-136434108D01*
X195849500Y-136434108D01*
X195849500Y-136565891D01*
X195883608Y-136693187D01*
X195901687Y-136724500D01*
X195949500Y-136807314D01*
X196042686Y-136900500D01*
X196156814Y-136966392D01*
X196284108Y-137000500D01*
X196284110Y-137000500D01*
X196350500Y-137000500D01*
X196417539Y-137020185D01*
X196463294Y-137072989D01*
X196474500Y-137124500D01*
X196474500Y-137190891D01*
X196508608Y-137318187D01*
X196541554Y-137375250D01*
X196574500Y-137432314D01*
X196667686Y-137525500D01*
X196781814Y-137591392D01*
X196909108Y-137625500D01*
X196909110Y-137625500D01*
X197040890Y-137625500D01*
X197040892Y-137625500D01*
X197168186Y-137591392D01*
X197282314Y-137525500D01*
X197375500Y-137432314D01*
X197441392Y-137318186D01*
X197475500Y-137190892D01*
X197475500Y-137059108D01*
X197441392Y-136931814D01*
X197375500Y-136817686D01*
X197282314Y-136724500D01*
X197205586Y-136680201D01*
X197168187Y-136658608D01*
X197104539Y-136641554D01*
X197040892Y-136624500D01*
X196974500Y-136624500D01*
X196907461Y-136604815D01*
X196861706Y-136552011D01*
X196850500Y-136500500D01*
X196850500Y-136434110D01*
X196850500Y-136434108D01*
X196816392Y-136306814D01*
X196750500Y-136192686D01*
X196657314Y-136099500D01*
X196589745Y-136060489D01*
X196543187Y-136033608D01*
X196479539Y-136016554D01*
X196415892Y-135999500D01*
X196284108Y-135999500D01*
X196156812Y-136033608D01*
X196042686Y-136099500D01*
X196042683Y-136099502D01*
X195949502Y-136192683D01*
X195949500Y-136192686D01*
X195883608Y-136306812D01*
X195849500Y-136434108D01*
X93308031Y-136434108D01*
X93300695Y-136303489D01*
X93300501Y-136296521D01*
X93300807Y-135640691D01*
X171924500Y-135640691D01*
X171924500Y-135759309D01*
X171955201Y-135873886D01*
X172014511Y-135976613D01*
X172098387Y-136060489D01*
X172201114Y-136119799D01*
X172315691Y-136150500D01*
X172315694Y-136150500D01*
X172434306Y-136150500D01*
X172434309Y-136150500D01*
X172548886Y-136119799D01*
X172651613Y-136060489D01*
X172735489Y-135976613D01*
X172794799Y-135873886D01*
X172825500Y-135759309D01*
X172825500Y-135640691D01*
X174749500Y-135640691D01*
X174749500Y-135759309D01*
X174780201Y-135873886D01*
X174839511Y-135976613D01*
X174923387Y-136060489D01*
X175026114Y-136119799D01*
X175140691Y-136150500D01*
X175140694Y-136150500D01*
X175259306Y-136150500D01*
X175259309Y-136150500D01*
X175373886Y-136119799D01*
X175476613Y-136060489D01*
X175560489Y-135976613D01*
X175619799Y-135873886D01*
X175648790Y-135765691D01*
X205499500Y-135765691D01*
X205499500Y-135884309D01*
X205530201Y-135998886D01*
X205589511Y-136101613D01*
X205673387Y-136185489D01*
X205776114Y-136244799D01*
X205890691Y-136275500D01*
X205890694Y-136275500D01*
X206009306Y-136275500D01*
X206009309Y-136275500D01*
X206123886Y-136244799D01*
X206226613Y-136185489D01*
X206287319Y-136124783D01*
X206348642Y-136091298D01*
X206418334Y-136096282D01*
X206462681Y-136124783D01*
X206523387Y-136185489D01*
X206626114Y-136244799D01*
X206740691Y-136275500D01*
X206740694Y-136275500D01*
X206859306Y-136275500D01*
X206859309Y-136275500D01*
X206973886Y-136244799D01*
X207076613Y-136185489D01*
X207160489Y-136101613D01*
X207219799Y-135998886D01*
X207250500Y-135884309D01*
X207250500Y-135765691D01*
X207219799Y-135651114D01*
X207160489Y-135548387D01*
X207076613Y-135464511D01*
X206973886Y-135405201D01*
X206859309Y-135374500D01*
X206740691Y-135374500D01*
X206626114Y-135405201D01*
X206626112Y-135405201D01*
X206626112Y-135405202D01*
X206523387Y-135464511D01*
X206523384Y-135464513D01*
X206462681Y-135525217D01*
X206401358Y-135558702D01*
X206331666Y-135553718D01*
X206287319Y-135525217D01*
X206226615Y-135464513D01*
X206226613Y-135464511D01*
X206123886Y-135405201D01*
X206009309Y-135374500D01*
X205890691Y-135374500D01*
X205776114Y-135405201D01*
X205776112Y-135405201D01*
X205776112Y-135405202D01*
X205673387Y-135464511D01*
X205673384Y-135464513D01*
X205589513Y-135548384D01*
X205589511Y-135548387D01*
X205536218Y-135640693D01*
X205530201Y-135651114D01*
X205499500Y-135765691D01*
X175648790Y-135765691D01*
X175650500Y-135759309D01*
X175650500Y-135640691D01*
X175619799Y-135526114D01*
X175560489Y-135423387D01*
X175476613Y-135339511D01*
X175373886Y-135280201D01*
X175259309Y-135249500D01*
X175140691Y-135249500D01*
X175026114Y-135280201D01*
X175026112Y-135280201D01*
X175026112Y-135280202D01*
X174923387Y-135339511D01*
X174923384Y-135339513D01*
X174839513Y-135423384D01*
X174839511Y-135423387D01*
X174780201Y-135526114D01*
X174749500Y-135640691D01*
X172825500Y-135640691D01*
X172794799Y-135526114D01*
X172735489Y-135423387D01*
X172651613Y-135339511D01*
X172548886Y-135280201D01*
X172434309Y-135249500D01*
X172315691Y-135249500D01*
X172201114Y-135280201D01*
X172201112Y-135280201D01*
X172201112Y-135280202D01*
X172098387Y-135339511D01*
X172098384Y-135339513D01*
X172014513Y-135423384D01*
X172014511Y-135423387D01*
X171955201Y-135526114D01*
X171924500Y-135640691D01*
X93300807Y-135640691D01*
X93301183Y-134834108D01*
X179049500Y-134834108D01*
X179049500Y-134965891D01*
X179083608Y-135093187D01*
X179111907Y-135142202D01*
X179149500Y-135207314D01*
X179242686Y-135300500D01*
X179356814Y-135366392D01*
X179484108Y-135400500D01*
X179484110Y-135400500D01*
X179615890Y-135400500D01*
X179615892Y-135400500D01*
X179743186Y-135366392D01*
X179857314Y-135300500D01*
X179950500Y-135207314D01*
X179967613Y-135177672D01*
X180018179Y-135129458D01*
X180086786Y-135116234D01*
X180151651Y-135142202D01*
X180182386Y-135177672D01*
X180199500Y-135207314D01*
X180292686Y-135300500D01*
X180406814Y-135366392D01*
X180534108Y-135400500D01*
X180534110Y-135400500D01*
X180665890Y-135400500D01*
X180665892Y-135400500D01*
X180793186Y-135366392D01*
X180907314Y-135300500D01*
X181000500Y-135207314D01*
X181066392Y-135093186D01*
X181100500Y-134965892D01*
X181100500Y-134834108D01*
X181066392Y-134706814D01*
X181066040Y-134706205D01*
X181025212Y-134635489D01*
X181000500Y-134592686D01*
X180907314Y-134499500D01*
X180819650Y-134448887D01*
X180793187Y-134433608D01*
X180729539Y-134416554D01*
X180665892Y-134399500D01*
X180534108Y-134399500D01*
X180406812Y-134433608D01*
X180292686Y-134499500D01*
X180292683Y-134499502D01*
X180199502Y-134592683D01*
X180199500Y-134592686D01*
X180182387Y-134622327D01*
X180131819Y-134670542D01*
X180063212Y-134683764D01*
X179998348Y-134657796D01*
X179967613Y-134622327D01*
X179950500Y-134592686D01*
X179857314Y-134499500D01*
X179769650Y-134448887D01*
X179743187Y-134433608D01*
X179679539Y-134416554D01*
X179615892Y-134399500D01*
X179484108Y-134399500D01*
X179356812Y-134433608D01*
X179242686Y-134499500D01*
X179242683Y-134499502D01*
X179149502Y-134592683D01*
X179149500Y-134592686D01*
X179083608Y-134706812D01*
X179049500Y-134834108D01*
X93301183Y-134834108D01*
X93302069Y-132934108D01*
X157749500Y-132934108D01*
X157749500Y-133065891D01*
X157783608Y-133193187D01*
X157812341Y-133242953D01*
X157849500Y-133307314D01*
X157942686Y-133400500D01*
X158041521Y-133457563D01*
X158056810Y-133466390D01*
X158056814Y-133466392D01*
X158184108Y-133500500D01*
X158184110Y-133500500D01*
X158315890Y-133500500D01*
X158315892Y-133500500D01*
X158443186Y-133466392D01*
X158492953Y-133437659D01*
X158560852Y-133421185D01*
X158626880Y-133444037D01*
X158670071Y-133498957D01*
X158676713Y-133568510D01*
X158662342Y-133607044D01*
X158633608Y-133656812D01*
X158599500Y-133784108D01*
X158599500Y-133915891D01*
X158633608Y-134043187D01*
X158666554Y-134100250D01*
X158699500Y-134157314D01*
X158792686Y-134250500D01*
X158891521Y-134307563D01*
X158896584Y-134310486D01*
X158906814Y-134316392D01*
X159034108Y-134350500D01*
X159034110Y-134350500D01*
X159165890Y-134350500D01*
X159165892Y-134350500D01*
X159293186Y-134316392D01*
X159407314Y-134250500D01*
X159442123Y-134215691D01*
X173349500Y-134215691D01*
X173349500Y-134334309D01*
X173380201Y-134448886D01*
X173439511Y-134551613D01*
X173523387Y-134635489D01*
X173626114Y-134694799D01*
X173740691Y-134725500D01*
X173740694Y-134725500D01*
X173859306Y-134725500D01*
X173859309Y-134725500D01*
X173973886Y-134694799D01*
X174076613Y-134635489D01*
X174160489Y-134551613D01*
X174219799Y-134448886D01*
X174250500Y-134334309D01*
X174250500Y-134215691D01*
X174219799Y-134101114D01*
X174160489Y-133998387D01*
X174076613Y-133914511D01*
X174035356Y-133890691D01*
X188149500Y-133890691D01*
X188149500Y-134009309D01*
X188180201Y-134123886D01*
X188239511Y-134226613D01*
X188323387Y-134310489D01*
X188426114Y-134369799D01*
X188540691Y-134400500D01*
X188540694Y-134400500D01*
X188659306Y-134400500D01*
X188659309Y-134400500D01*
X188773886Y-134369799D01*
X188876613Y-134310489D01*
X188912319Y-134274783D01*
X188973642Y-134241298D01*
X189043334Y-134246282D01*
X189087681Y-134274783D01*
X189123387Y-134310489D01*
X189226114Y-134369799D01*
X189340691Y-134400500D01*
X189340694Y-134400500D01*
X189459306Y-134400500D01*
X189459309Y-134400500D01*
X189573886Y-134369799D01*
X189676613Y-134310489D01*
X189760489Y-134226613D01*
X189819799Y-134123886D01*
X189850500Y-134009309D01*
X189850500Y-133915691D01*
X206324500Y-133915691D01*
X206324500Y-134034309D01*
X206355201Y-134148886D01*
X206414511Y-134251613D01*
X206498387Y-134335489D01*
X206601114Y-134394799D01*
X206715691Y-134425500D01*
X206715694Y-134425500D01*
X206834306Y-134425500D01*
X206834309Y-134425500D01*
X206948886Y-134394799D01*
X207051613Y-134335489D01*
X207135489Y-134251613D01*
X207194799Y-134148886D01*
X207225500Y-134034309D01*
X207225500Y-133915691D01*
X207194799Y-133801114D01*
X207135489Y-133698387D01*
X207051613Y-133614511D01*
X206948886Y-133555201D01*
X206834309Y-133524500D01*
X206715691Y-133524500D01*
X206601114Y-133555201D01*
X206601112Y-133555201D01*
X206601112Y-133555202D01*
X206498387Y-133614511D01*
X206498384Y-133614513D01*
X206414513Y-133698384D01*
X206414511Y-133698387D01*
X206365020Y-133784108D01*
X206355201Y-133801114D01*
X206324500Y-133915691D01*
X189850500Y-133915691D01*
X189850500Y-133890691D01*
X189819799Y-133776114D01*
X189760489Y-133673387D01*
X189676613Y-133589511D01*
X189573886Y-133530201D01*
X189459309Y-133499500D01*
X189340691Y-133499500D01*
X189226114Y-133530201D01*
X189226112Y-133530201D01*
X189226112Y-133530202D01*
X189123387Y-133589511D01*
X189123384Y-133589513D01*
X189087681Y-133625217D01*
X189026358Y-133658702D01*
X188956666Y-133653718D01*
X188912319Y-133625217D01*
X188876615Y-133589513D01*
X188876613Y-133589511D01*
X188773886Y-133530201D01*
X188659309Y-133499500D01*
X188540691Y-133499500D01*
X188426114Y-133530201D01*
X188426112Y-133530201D01*
X188426112Y-133530202D01*
X188323387Y-133589511D01*
X188323384Y-133589513D01*
X188239513Y-133673384D01*
X188239511Y-133673387D01*
X188180201Y-133776114D01*
X188149500Y-133890691D01*
X174035356Y-133890691D01*
X173973886Y-133855201D01*
X173859309Y-133824500D01*
X173740691Y-133824500D01*
X173626114Y-133855201D01*
X173626112Y-133855201D01*
X173626112Y-133855202D01*
X173523387Y-133914511D01*
X173523384Y-133914513D01*
X173439513Y-133998384D01*
X173439511Y-133998387D01*
X173380201Y-134101114D01*
X173349500Y-134215691D01*
X159442123Y-134215691D01*
X159500500Y-134157314D01*
X159566392Y-134043186D01*
X159600500Y-133915892D01*
X159600500Y-133784108D01*
X159566392Y-133656814D01*
X159537657Y-133607044D01*
X159521185Y-133539146D01*
X159544037Y-133473119D01*
X159598958Y-133429928D01*
X159668511Y-133423286D01*
X159707044Y-133437657D01*
X159741805Y-133457726D01*
X159756810Y-133466390D01*
X159756814Y-133466392D01*
X159884108Y-133500500D01*
X159884110Y-133500500D01*
X160015890Y-133500500D01*
X160015892Y-133500500D01*
X160143186Y-133466392D01*
X160257314Y-133400500D01*
X160350500Y-133307314D01*
X160416392Y-133193186D01*
X160450500Y-133065892D01*
X160450500Y-132934108D01*
X160416392Y-132806814D01*
X160350500Y-132692686D01*
X160273505Y-132615691D01*
X200674500Y-132615691D01*
X200674500Y-132734309D01*
X200705201Y-132848886D01*
X200764511Y-132951613D01*
X200848387Y-133035489D01*
X200951114Y-133094799D01*
X201065691Y-133125500D01*
X201065694Y-133125500D01*
X201184306Y-133125500D01*
X201184309Y-133125500D01*
X201298886Y-133094799D01*
X201401613Y-133035489D01*
X201485489Y-132951613D01*
X201492613Y-132939274D01*
X201543180Y-132891058D01*
X201611787Y-132877836D01*
X201676652Y-132903804D01*
X201707387Y-132939274D01*
X201714508Y-132951609D01*
X201714510Y-132951611D01*
X201714511Y-132951613D01*
X201798387Y-133035489D01*
X201901114Y-133094799D01*
X202015691Y-133125500D01*
X202015694Y-133125500D01*
X202134306Y-133125500D01*
X202134309Y-133125500D01*
X202248886Y-133094799D01*
X202351613Y-133035489D01*
X202435489Y-132951613D01*
X202494799Y-132848886D01*
X202525500Y-132734309D01*
X202525500Y-132615691D01*
X202494799Y-132501114D01*
X202435489Y-132398387D01*
X202427793Y-132390691D01*
X205449500Y-132390691D01*
X205449500Y-132509309D01*
X205480201Y-132623886D01*
X205539511Y-132726613D01*
X205623387Y-132810489D01*
X205726114Y-132869799D01*
X205840691Y-132900500D01*
X205840694Y-132900500D01*
X205959306Y-132900500D01*
X205959309Y-132900500D01*
X206073886Y-132869799D01*
X206176613Y-132810489D01*
X206260489Y-132726613D01*
X206319799Y-132623886D01*
X206350500Y-132509309D01*
X206350500Y-132390691D01*
X206319799Y-132276114D01*
X206260489Y-132173387D01*
X206176613Y-132089511D01*
X206073886Y-132030201D01*
X205959309Y-131999500D01*
X205840691Y-131999500D01*
X205726114Y-132030201D01*
X205726112Y-132030201D01*
X205726112Y-132030202D01*
X205623387Y-132089511D01*
X205623384Y-132089513D01*
X205539513Y-132173384D01*
X205539511Y-132173387D01*
X205480201Y-132276114D01*
X205449500Y-132390691D01*
X202427793Y-132390691D01*
X202351613Y-132314511D01*
X202248886Y-132255201D01*
X202134309Y-132224500D01*
X202015691Y-132224500D01*
X201901114Y-132255201D01*
X201901112Y-132255201D01*
X201901112Y-132255202D01*
X201798387Y-132314511D01*
X201798384Y-132314513D01*
X201714513Y-132398384D01*
X201714511Y-132398387D01*
X201707386Y-132410728D01*
X201656817Y-132458942D01*
X201588210Y-132472163D01*
X201523346Y-132446194D01*
X201492614Y-132410728D01*
X201485489Y-132398387D01*
X201401613Y-132314511D01*
X201298886Y-132255201D01*
X201184309Y-132224500D01*
X201065691Y-132224500D01*
X200951114Y-132255201D01*
X200951112Y-132255201D01*
X200951112Y-132255202D01*
X200848387Y-132314511D01*
X200848384Y-132314513D01*
X200764513Y-132398384D01*
X200764511Y-132398387D01*
X200705201Y-132501114D01*
X200674500Y-132615691D01*
X160273505Y-132615691D01*
X160257314Y-132599500D01*
X160200250Y-132566554D01*
X160143187Y-132533608D01*
X160052500Y-132509309D01*
X160015892Y-132499500D01*
X159884108Y-132499500D01*
X159756812Y-132533608D01*
X159642686Y-132599500D01*
X159642683Y-132599502D01*
X159549502Y-132692683D01*
X159549500Y-132692686D01*
X159483608Y-132806812D01*
X159449500Y-132934108D01*
X159449500Y-133065891D01*
X159483609Y-133193188D01*
X159483609Y-133193189D01*
X159512341Y-133242954D01*
X159528814Y-133310854D01*
X159505961Y-133376881D01*
X159451040Y-133420072D01*
X159381487Y-133426713D01*
X159342954Y-133412341D01*
X159293189Y-133383609D01*
X159293186Y-133383608D01*
X159165892Y-133349500D01*
X159034108Y-133349500D01*
X158906812Y-133383608D01*
X158857044Y-133412342D01*
X158789144Y-133428814D01*
X158723117Y-133405961D01*
X158679927Y-133351039D01*
X158673286Y-133281486D01*
X158687659Y-133242953D01*
X158716389Y-133193191D01*
X158716390Y-133193189D01*
X158716392Y-133193186D01*
X158750500Y-133065892D01*
X158750500Y-132934108D01*
X158716392Y-132806814D01*
X158650500Y-132692686D01*
X158557314Y-132599500D01*
X158500250Y-132566554D01*
X158443187Y-132533608D01*
X158352500Y-132509309D01*
X158315892Y-132499500D01*
X158184108Y-132499500D01*
X158056812Y-132533608D01*
X157942686Y-132599500D01*
X157942683Y-132599502D01*
X157849502Y-132692683D01*
X157849500Y-132692686D01*
X157783608Y-132806812D01*
X157749500Y-132934108D01*
X93302069Y-132934108D01*
X93302334Y-132365691D01*
X109799500Y-132365691D01*
X109799500Y-132484309D01*
X109830201Y-132598886D01*
X109889511Y-132701613D01*
X109973387Y-132785489D01*
X110076114Y-132844799D01*
X110190691Y-132875500D01*
X110190694Y-132875500D01*
X110309306Y-132875500D01*
X110309309Y-132875500D01*
X110423886Y-132844799D01*
X110438071Y-132836608D01*
X110469275Y-132818594D01*
X110469276Y-132818593D01*
X110489677Y-132806814D01*
X110526613Y-132785489D01*
X110610489Y-132701613D01*
X110669799Y-132598886D01*
X110700500Y-132484309D01*
X110700500Y-132365691D01*
X110669799Y-132251114D01*
X110610489Y-132148387D01*
X110526613Y-132064511D01*
X110423886Y-132005201D01*
X110309309Y-131974500D01*
X110190691Y-131974500D01*
X110076114Y-132005201D01*
X110076112Y-132005201D01*
X110076112Y-132005202D01*
X109973387Y-132064511D01*
X109973384Y-132064513D01*
X109889513Y-132148384D01*
X109889511Y-132148387D01*
X109830201Y-132251114D01*
X109799500Y-132365691D01*
X93302334Y-132365691D01*
X93303340Y-130209108D01*
X126474500Y-130209108D01*
X126474500Y-130340891D01*
X126508608Y-130468187D01*
X126537341Y-130517953D01*
X126574500Y-130582314D01*
X126667686Y-130675500D01*
X126766521Y-130732563D01*
X126781810Y-130741390D01*
X126781814Y-130741392D01*
X126909108Y-130775500D01*
X126909110Y-130775500D01*
X127040890Y-130775500D01*
X127040892Y-130775500D01*
X127168186Y-130741392D01*
X127217953Y-130712659D01*
X127285852Y-130696185D01*
X127351880Y-130719037D01*
X127395071Y-130773957D01*
X127401713Y-130843510D01*
X127387342Y-130882044D01*
X127358608Y-130931812D01*
X127324500Y-131059108D01*
X127324500Y-131190891D01*
X127358609Y-131318188D01*
X127358609Y-131318189D01*
X127387341Y-131367954D01*
X127403814Y-131435854D01*
X127380961Y-131501881D01*
X127326040Y-131545072D01*
X127256487Y-131551713D01*
X127217954Y-131537341D01*
X127168189Y-131508609D01*
X127168186Y-131508608D01*
X127040892Y-131474500D01*
X126909108Y-131474500D01*
X126781812Y-131508608D01*
X126667686Y-131574500D01*
X126667683Y-131574502D01*
X126574502Y-131667683D01*
X126574500Y-131667686D01*
X126508608Y-131781812D01*
X126474500Y-131909108D01*
X126474500Y-132040891D01*
X126508608Y-132168187D01*
X126541121Y-132224500D01*
X126574500Y-132282314D01*
X126667686Y-132375500D01*
X126781814Y-132441392D01*
X126909108Y-132475500D01*
X126909110Y-132475500D01*
X127040890Y-132475500D01*
X127040892Y-132475500D01*
X127168186Y-132441392D01*
X127282314Y-132375500D01*
X127375500Y-132282314D01*
X127441392Y-132168186D01*
X127475500Y-132040892D01*
X127475500Y-131909108D01*
X127441392Y-131781814D01*
X127412657Y-131732044D01*
X127396185Y-131664146D01*
X127419037Y-131598119D01*
X127473958Y-131554928D01*
X127543511Y-131548286D01*
X127582044Y-131562657D01*
X127602560Y-131574502D01*
X127631810Y-131591390D01*
X127631814Y-131591392D01*
X127759108Y-131625500D01*
X127759110Y-131625500D01*
X127890890Y-131625500D01*
X127890892Y-131625500D01*
X128018186Y-131591392D01*
X128132314Y-131525500D01*
X128225500Y-131432314D01*
X128291392Y-131318186D01*
X128325500Y-131190892D01*
X128325500Y-131059108D01*
X128291392Y-130931814D01*
X128225500Y-130817686D01*
X128132314Y-130724500D01*
X128047439Y-130675497D01*
X128018187Y-130658608D01*
X127954539Y-130641554D01*
X127890892Y-130624500D01*
X127759108Y-130624500D01*
X127631812Y-130658608D01*
X127582044Y-130687342D01*
X127514144Y-130703814D01*
X127448117Y-130680961D01*
X127404927Y-130626039D01*
X127398286Y-130556486D01*
X127412659Y-130517953D01*
X127441389Y-130468191D01*
X127441390Y-130468189D01*
X127441392Y-130468186D01*
X127475500Y-130340892D01*
X127475500Y-130209108D01*
X128224500Y-130209108D01*
X128224500Y-130340891D01*
X128258608Y-130468187D01*
X128296868Y-130534454D01*
X128324500Y-130582314D01*
X128417686Y-130675500D01*
X128520992Y-130735144D01*
X128531810Y-130741390D01*
X128531814Y-130741392D01*
X128659108Y-130775500D01*
X128659110Y-130775500D01*
X128790890Y-130775500D01*
X128790892Y-130775500D01*
X128918186Y-130741392D01*
X128967953Y-130712659D01*
X129035852Y-130696185D01*
X129101880Y-130719037D01*
X129145071Y-130773957D01*
X129151713Y-130843510D01*
X129137342Y-130882044D01*
X129108608Y-130931812D01*
X129074500Y-131059108D01*
X129074500Y-131190891D01*
X129108609Y-131318188D01*
X129108609Y-131318189D01*
X129137341Y-131367954D01*
X129153814Y-131435854D01*
X129130961Y-131501881D01*
X129076040Y-131545072D01*
X129006487Y-131551713D01*
X128967954Y-131537341D01*
X128918189Y-131508609D01*
X128918186Y-131508608D01*
X128790892Y-131474500D01*
X128659108Y-131474500D01*
X128531812Y-131508608D01*
X128442010Y-131560456D01*
X128417686Y-131574500D01*
X128324500Y-131667686D01*
X128306232Y-131699326D01*
X128306230Y-131699329D01*
X128258609Y-131781810D01*
X128258609Y-131781811D01*
X128224500Y-131909108D01*
X128224500Y-132040891D01*
X128258608Y-132168187D01*
X128291121Y-132224500D01*
X128324500Y-132282314D01*
X128417686Y-132375500D01*
X128531814Y-132441392D01*
X128659108Y-132475500D01*
X128659110Y-132475500D01*
X128790890Y-132475500D01*
X128790892Y-132475500D01*
X128918186Y-132441392D01*
X129032314Y-132375500D01*
X129125500Y-132282314D01*
X129191392Y-132168186D01*
X129225500Y-132040892D01*
X129225500Y-131909108D01*
X129191392Y-131781814D01*
X129162657Y-131732044D01*
X129146185Y-131664146D01*
X129169037Y-131598119D01*
X129223958Y-131554928D01*
X129293511Y-131548286D01*
X129332044Y-131562657D01*
X129352560Y-131574502D01*
X129381810Y-131591390D01*
X129381814Y-131591392D01*
X129509108Y-131625500D01*
X129509110Y-131625500D01*
X129640890Y-131625500D01*
X129640892Y-131625500D01*
X129768186Y-131591392D01*
X129817953Y-131562659D01*
X129885852Y-131546185D01*
X129951880Y-131569037D01*
X129995071Y-131623957D01*
X130001713Y-131693510D01*
X129987342Y-131732044D01*
X129958608Y-131781812D01*
X129924500Y-131909108D01*
X129924500Y-132040891D01*
X129958608Y-132168187D01*
X129991121Y-132224500D01*
X130024500Y-132282314D01*
X130117686Y-132375500D01*
X130231814Y-132441392D01*
X130359108Y-132475500D01*
X130359110Y-132475500D01*
X130490890Y-132475500D01*
X130490892Y-132475500D01*
X130618186Y-132441392D01*
X130732314Y-132375500D01*
X130825500Y-132282314D01*
X130891392Y-132168186D01*
X130925500Y-132040892D01*
X130925500Y-131909108D01*
X130891392Y-131781814D01*
X130862657Y-131732044D01*
X130846185Y-131664146D01*
X130869037Y-131598119D01*
X130923958Y-131554928D01*
X130993511Y-131548286D01*
X131032044Y-131562657D01*
X131052560Y-131574502D01*
X131081810Y-131591390D01*
X131081814Y-131591392D01*
X131209108Y-131625500D01*
X131209110Y-131625500D01*
X131340890Y-131625500D01*
X131340892Y-131625500D01*
X131468186Y-131591392D01*
X131517953Y-131562659D01*
X131585852Y-131546185D01*
X131651880Y-131569037D01*
X131695071Y-131623957D01*
X131701713Y-131693510D01*
X131687342Y-131732044D01*
X131658608Y-131781812D01*
X131624500Y-131909108D01*
X131624500Y-132040891D01*
X131658608Y-132168187D01*
X131691121Y-132224500D01*
X131724500Y-132282314D01*
X131817686Y-132375500D01*
X131931814Y-132441392D01*
X132059108Y-132475500D01*
X132059110Y-132475500D01*
X132190890Y-132475500D01*
X132190892Y-132475500D01*
X132318186Y-132441392D01*
X132432314Y-132375500D01*
X132525500Y-132282314D01*
X132591392Y-132168186D01*
X132625500Y-132040892D01*
X132625500Y-131909108D01*
X132591392Y-131781814D01*
X132525500Y-131667686D01*
X132432314Y-131574500D01*
X132367953Y-131537341D01*
X132318187Y-131508608D01*
X132254539Y-131491554D01*
X132190892Y-131474500D01*
X132059108Y-131474500D01*
X131931812Y-131508608D01*
X131882044Y-131537342D01*
X131814144Y-131553814D01*
X131748117Y-131530961D01*
X131704927Y-131476039D01*
X131698286Y-131406486D01*
X131712659Y-131367953D01*
X131741389Y-131318191D01*
X131741390Y-131318189D01*
X131741392Y-131318186D01*
X131775500Y-131190892D01*
X131775500Y-131059108D01*
X131741392Y-130931814D01*
X131712657Y-130882044D01*
X131696185Y-130814146D01*
X131719037Y-130748119D01*
X131773958Y-130704928D01*
X131843511Y-130698286D01*
X131882044Y-130712657D01*
X131916805Y-130732726D01*
X131931810Y-130741390D01*
X131931814Y-130741392D01*
X132059108Y-130775500D01*
X132059110Y-130775500D01*
X132190890Y-130775500D01*
X132190892Y-130775500D01*
X132318186Y-130741392D01*
X132432314Y-130675500D01*
X132525500Y-130582314D01*
X132591392Y-130468186D01*
X132625500Y-130340892D01*
X132625500Y-130209108D01*
X132591392Y-130081814D01*
X132525500Y-129967686D01*
X132432314Y-129874500D01*
X132375250Y-129841554D01*
X132318187Y-129808608D01*
X132254539Y-129791554D01*
X132190892Y-129774500D01*
X132059108Y-129774500D01*
X131931812Y-129808608D01*
X131817686Y-129874500D01*
X131817683Y-129874502D01*
X131724502Y-129967683D01*
X131724500Y-129967686D01*
X131658608Y-130081812D01*
X131626807Y-130200497D01*
X131624500Y-130209108D01*
X131624500Y-130340892D01*
X131642297Y-130407313D01*
X131658609Y-130468188D01*
X131658609Y-130468189D01*
X131687341Y-130517954D01*
X131703814Y-130585854D01*
X131680961Y-130651881D01*
X131626040Y-130695072D01*
X131556487Y-130701713D01*
X131517954Y-130687341D01*
X131468189Y-130658609D01*
X131468186Y-130658608D01*
X131340892Y-130624500D01*
X131209108Y-130624500D01*
X131081812Y-130658608D01*
X131032044Y-130687342D01*
X130964144Y-130703814D01*
X130898117Y-130680961D01*
X130854927Y-130626039D01*
X130848286Y-130556486D01*
X130862659Y-130517953D01*
X130891389Y-130468191D01*
X130891390Y-130468189D01*
X130891392Y-130468186D01*
X130925500Y-130340892D01*
X130925500Y-130209108D01*
X130891392Y-130081814D01*
X130825500Y-129967686D01*
X130732314Y-129874500D01*
X130675250Y-129841554D01*
X130618187Y-129808608D01*
X130554539Y-129791554D01*
X130490892Y-129774500D01*
X130359108Y-129774500D01*
X130231812Y-129808608D01*
X130117686Y-129874500D01*
X130117683Y-129874502D01*
X130024502Y-129967683D01*
X130024500Y-129967686D01*
X129958608Y-130081812D01*
X129926807Y-130200497D01*
X129924500Y-130209108D01*
X129924500Y-130340892D01*
X129942297Y-130407313D01*
X129958609Y-130468188D01*
X129958609Y-130468189D01*
X129987341Y-130517954D01*
X130003814Y-130585854D01*
X129980961Y-130651881D01*
X129926040Y-130695072D01*
X129856487Y-130701713D01*
X129817954Y-130687341D01*
X129768189Y-130658609D01*
X129768186Y-130658608D01*
X129640892Y-130624500D01*
X129509108Y-130624500D01*
X129381812Y-130658608D01*
X129332044Y-130687342D01*
X129264144Y-130703814D01*
X129198117Y-130680961D01*
X129154927Y-130626039D01*
X129148286Y-130556486D01*
X129162659Y-130517953D01*
X129191389Y-130468191D01*
X129191390Y-130468189D01*
X129191392Y-130468186D01*
X129225500Y-130340892D01*
X129225500Y-130209108D01*
X129191392Y-130081814D01*
X129125500Y-129967686D01*
X129032314Y-129874500D01*
X128975250Y-129841554D01*
X128918187Y-129808608D01*
X128854539Y-129791554D01*
X128790892Y-129774500D01*
X128659108Y-129774500D01*
X128531812Y-129808608D01*
X128417686Y-129874500D01*
X128417683Y-129874502D01*
X128324502Y-129967683D01*
X128324500Y-129967686D01*
X128258608Y-130081812D01*
X128224500Y-130209108D01*
X127475500Y-130209108D01*
X127441392Y-130081814D01*
X127375500Y-129967686D01*
X127282314Y-129874500D01*
X127225250Y-129841554D01*
X127168187Y-129808608D01*
X127104539Y-129791554D01*
X127040892Y-129774500D01*
X126909108Y-129774500D01*
X126781812Y-129808608D01*
X126667686Y-129874500D01*
X126667683Y-129874502D01*
X126574502Y-129967683D01*
X126574500Y-129967686D01*
X126508608Y-130081812D01*
X126474500Y-130209108D01*
X93303340Y-130209108D01*
X93303911Y-128984108D01*
X175949500Y-128984108D01*
X175949500Y-129115892D01*
X175966554Y-129179539D01*
X175983608Y-129243187D01*
X175995171Y-129263214D01*
X176049500Y-129357314D01*
X176142686Y-129450500D01*
X176255692Y-129515744D01*
X176303908Y-129566311D01*
X176317131Y-129634918D01*
X176291163Y-129699783D01*
X176281374Y-129710812D01*
X176199500Y-129792686D01*
X176133608Y-129906812D01*
X176099500Y-130034108D01*
X176099500Y-130165892D01*
X176111080Y-130209108D01*
X176133608Y-130293187D01*
X176161151Y-130340892D01*
X176199500Y-130407314D01*
X176292686Y-130500500D01*
X176406814Y-130566392D01*
X176534108Y-130600500D01*
X176534110Y-130600500D01*
X176665890Y-130600500D01*
X176665892Y-130600500D01*
X176793186Y-130566392D01*
X176907314Y-130500500D01*
X177000500Y-130407314D01*
X177066392Y-130293186D01*
X177100500Y-130165892D01*
X177100500Y-130034108D01*
X177066392Y-129906814D01*
X177000500Y-129792686D01*
X176907314Y-129699500D01*
X176794307Y-129634255D01*
X176746091Y-129583688D01*
X176732869Y-129515081D01*
X176758837Y-129450216D01*
X176768610Y-129439203D01*
X176850500Y-129357314D01*
X176916392Y-129243186D01*
X176950500Y-129115892D01*
X176950500Y-128984108D01*
X176916392Y-128856814D01*
X176893447Y-128817073D01*
X176850503Y-128742691D01*
X176850502Y-128742690D01*
X176850500Y-128742686D01*
X176791922Y-128684108D01*
X177499500Y-128684108D01*
X177499500Y-128815892D01*
X177510464Y-128856810D01*
X177533608Y-128943187D01*
X177566554Y-129000250D01*
X177599500Y-129057314D01*
X177692686Y-129150500D01*
X177722327Y-129167613D01*
X177770542Y-129218181D01*
X177783764Y-129286788D01*
X177757796Y-129351652D01*
X177722327Y-129382387D01*
X177692686Y-129399500D01*
X177692683Y-129399502D01*
X177599502Y-129492683D01*
X177599500Y-129492686D01*
X177533608Y-129606812D01*
X177508697Y-129699783D01*
X177499500Y-129734108D01*
X177499500Y-129865892D01*
X177501807Y-129874502D01*
X177533608Y-129993187D01*
X177566554Y-130050250D01*
X177599500Y-130107314D01*
X177692686Y-130200500D01*
X177806814Y-130266392D01*
X177934108Y-130300500D01*
X177934110Y-130300500D01*
X178065890Y-130300500D01*
X178065892Y-130300500D01*
X178193186Y-130266392D01*
X178307314Y-130200500D01*
X178400500Y-130107314D01*
X178466392Y-129993186D01*
X178500500Y-129865892D01*
X178500500Y-129734108D01*
X178466392Y-129606814D01*
X178400500Y-129492686D01*
X178307314Y-129399500D01*
X178277672Y-129382386D01*
X178229458Y-129331821D01*
X178216234Y-129263214D01*
X178242202Y-129198349D01*
X178277673Y-129167613D01*
X178307314Y-129150500D01*
X178400500Y-129057314D01*
X178466392Y-128943186D01*
X178500500Y-128815892D01*
X178500500Y-128684108D01*
X178466392Y-128556814D01*
X178400500Y-128442686D01*
X178307314Y-128349500D01*
X178250250Y-128316554D01*
X178193187Y-128283608D01*
X178129539Y-128266554D01*
X178065892Y-128249500D01*
X177934108Y-128249500D01*
X177806812Y-128283608D01*
X177692686Y-128349500D01*
X177692683Y-128349502D01*
X177599502Y-128442683D01*
X177599500Y-128442686D01*
X177533608Y-128556812D01*
X177502399Y-128673290D01*
X177499500Y-128684108D01*
X176791922Y-128684108D01*
X176757314Y-128649500D01*
X176700250Y-128616554D01*
X176643187Y-128583608D01*
X176543188Y-128556814D01*
X176515892Y-128549500D01*
X176384108Y-128549500D01*
X176256812Y-128583608D01*
X176142686Y-128649500D01*
X176142683Y-128649502D01*
X176049502Y-128742683D01*
X176049500Y-128742686D01*
X175983608Y-128856812D01*
X175949500Y-128984108D01*
X93303911Y-128984108D01*
X93304185Y-128397278D01*
X113256087Y-128397278D01*
X113256087Y-128515896D01*
X113286788Y-128630473D01*
X113346098Y-128733200D01*
X113429974Y-128817076D01*
X113532701Y-128876386D01*
X113647278Y-128907087D01*
X113647281Y-128907087D01*
X113765893Y-128907087D01*
X113765896Y-128907087D01*
X113880473Y-128876386D01*
X113983200Y-128817076D01*
X114067076Y-128733200D01*
X114126386Y-128630473D01*
X114157087Y-128515896D01*
X114157087Y-128397278D01*
X114126386Y-128282701D01*
X114067076Y-128179974D01*
X113983200Y-128096098D01*
X113880473Y-128036788D01*
X113765896Y-128006087D01*
X113647278Y-128006087D01*
X113532701Y-128036788D01*
X113532699Y-128036788D01*
X113532699Y-128036789D01*
X113429974Y-128096098D01*
X113429971Y-128096100D01*
X113346100Y-128179971D01*
X113346098Y-128179974D01*
X113287136Y-128282099D01*
X113286788Y-128282701D01*
X113256087Y-128397278D01*
X93304185Y-128397278D01*
X93305145Y-126338481D01*
X127924500Y-126338481D01*
X127924500Y-126457099D01*
X127955201Y-126571676D01*
X128014511Y-126674403D01*
X128098387Y-126758279D01*
X128201114Y-126817589D01*
X128315691Y-126848290D01*
X128315694Y-126848290D01*
X128434306Y-126848290D01*
X128434309Y-126848290D01*
X128548886Y-126817589D01*
X128651613Y-126758279D01*
X128735489Y-126674403D01*
X128794799Y-126571676D01*
X128825500Y-126457099D01*
X128825500Y-126338481D01*
X129227554Y-126338481D01*
X129227554Y-126457099D01*
X129258255Y-126571676D01*
X129317565Y-126674403D01*
X129401441Y-126758279D01*
X129401444Y-126758281D01*
X129407890Y-126763227D01*
X129406579Y-126764934D01*
X129446970Y-126807285D01*
X129460201Y-126875891D01*
X129434240Y-126940758D01*
X129424443Y-126951799D01*
X129342564Y-127033677D01*
X129284869Y-127133608D01*
X129283255Y-127136404D01*
X129252554Y-127250981D01*
X129252554Y-127369599D01*
X129283255Y-127484176D01*
X129342565Y-127586903D01*
X129342567Y-127586905D01*
X129432188Y-127676526D01*
X129430426Y-127678287D01*
X129464239Y-127724600D01*
X129468389Y-127794346D01*
X129434173Y-127855264D01*
X129428966Y-127859775D01*
X129342567Y-127946174D01*
X129342565Y-127946177D01*
X129283255Y-128048904D01*
X129252554Y-128163481D01*
X129252554Y-128282099D01*
X129283255Y-128396676D01*
X129342565Y-128499403D01*
X129426441Y-128583279D01*
X129529168Y-128642589D01*
X129643745Y-128673290D01*
X129643748Y-128673290D01*
X129762360Y-128673290D01*
X129762363Y-128673290D01*
X129876940Y-128642589D01*
X129979667Y-128583279D01*
X130063543Y-128499403D01*
X130122853Y-128396676D01*
X130153554Y-128282099D01*
X130153554Y-128163481D01*
X130122853Y-128048904D01*
X130063543Y-127946177D01*
X129979667Y-127862301D01*
X129973920Y-127856554D01*
X129975683Y-127854790D01*
X129941875Y-127808499D01*
X129937713Y-127738753D01*
X129971920Y-127677830D01*
X129977134Y-127673311D01*
X129979664Y-127670780D01*
X129979667Y-127670779D01*
X130063543Y-127586903D01*
X130094024Y-127534108D01*
X151349500Y-127534108D01*
X151349500Y-127665892D01*
X151352699Y-127677830D01*
X151383608Y-127793187D01*
X151392449Y-127808499D01*
X151449500Y-127907314D01*
X151542686Y-128000500D01*
X151656814Y-128066392D01*
X151784108Y-128100500D01*
X151784110Y-128100500D01*
X151915890Y-128100500D01*
X151915892Y-128100500D01*
X152043186Y-128066392D01*
X152157314Y-128000500D01*
X152250500Y-127907314D01*
X152316392Y-127793186D01*
X152350500Y-127665892D01*
X152350500Y-127534108D01*
X152799500Y-127534108D01*
X152799500Y-127665892D01*
X152802699Y-127677830D01*
X152833608Y-127793187D01*
X152842449Y-127808499D01*
X152899500Y-127907314D01*
X152992686Y-128000500D01*
X153106814Y-128066392D01*
X153234108Y-128100500D01*
X153234110Y-128100500D01*
X153365890Y-128100500D01*
X153365892Y-128100500D01*
X153493186Y-128066392D01*
X153607314Y-128000500D01*
X153700500Y-127907314D01*
X153766392Y-127793186D01*
X153800500Y-127665892D01*
X153800500Y-127534108D01*
X154249500Y-127534108D01*
X154249500Y-127665892D01*
X154252699Y-127677830D01*
X154283608Y-127793187D01*
X154292449Y-127808499D01*
X154349500Y-127907314D01*
X154442686Y-128000500D01*
X154556814Y-128066392D01*
X154684108Y-128100500D01*
X154684110Y-128100500D01*
X154815890Y-128100500D01*
X154815892Y-128100500D01*
X154943186Y-128066392D01*
X155057314Y-128000500D01*
X155150500Y-127907314D01*
X155216392Y-127793186D01*
X155250500Y-127665892D01*
X155250500Y-127534108D01*
X155216392Y-127406814D01*
X155150500Y-127292686D01*
X155057314Y-127199500D01*
X155000250Y-127166554D01*
X154943187Y-127133608D01*
X154879539Y-127116554D01*
X154815892Y-127099500D01*
X154684108Y-127099500D01*
X154556812Y-127133608D01*
X154442686Y-127199500D01*
X154442683Y-127199502D01*
X154349502Y-127292683D01*
X154349500Y-127292686D01*
X154283608Y-127406812D01*
X154262879Y-127484175D01*
X154249500Y-127534108D01*
X153800500Y-127534108D01*
X153766392Y-127406814D01*
X153700500Y-127292686D01*
X153607314Y-127199500D01*
X153550250Y-127166554D01*
X153493187Y-127133608D01*
X153429539Y-127116554D01*
X153365892Y-127099500D01*
X153234108Y-127099500D01*
X153106812Y-127133608D01*
X152992686Y-127199500D01*
X152992683Y-127199502D01*
X152899502Y-127292683D01*
X152899500Y-127292686D01*
X152833608Y-127406812D01*
X152812879Y-127484175D01*
X152799500Y-127534108D01*
X152350500Y-127534108D01*
X152316392Y-127406814D01*
X152250500Y-127292686D01*
X152157314Y-127199500D01*
X152100250Y-127166554D01*
X152043187Y-127133608D01*
X151979539Y-127116554D01*
X151915892Y-127099500D01*
X151784108Y-127099500D01*
X151656812Y-127133608D01*
X151542686Y-127199500D01*
X151542683Y-127199502D01*
X151449502Y-127292683D01*
X151449500Y-127292686D01*
X151383608Y-127406812D01*
X151362879Y-127484175D01*
X151349500Y-127534108D01*
X130094024Y-127534108D01*
X130122853Y-127484176D01*
X130153554Y-127369599D01*
X130153554Y-127250981D01*
X130122853Y-127136404D01*
X130063543Y-127033677D01*
X129979667Y-126949801D01*
X129979664Y-126949799D01*
X129973218Y-126944853D01*
X129974527Y-126943146D01*
X129934133Y-126900786D01*
X129920907Y-126832179D01*
X129946872Y-126767313D01*
X129956649Y-126756296D01*
X130038543Y-126674403D01*
X130097853Y-126571676D01*
X130106155Y-126540691D01*
X198149500Y-126540691D01*
X198149500Y-126659309D01*
X198180201Y-126773886D01*
X198239511Y-126876613D01*
X198323387Y-126960489D01*
X198426114Y-127019799D01*
X198540691Y-127050500D01*
X198540694Y-127050500D01*
X198659306Y-127050500D01*
X198659309Y-127050500D01*
X198773886Y-127019799D01*
X198876613Y-126960489D01*
X198960489Y-126876613D01*
X199019799Y-126773886D01*
X199050500Y-126659309D01*
X199050500Y-126540691D01*
X199050498Y-126540685D01*
X199050338Y-126539467D01*
X199050500Y-126538427D01*
X199050500Y-126532564D01*
X199051414Y-126532564D01*
X199061102Y-126470431D01*
X199107480Y-126418174D01*
X199174748Y-126399286D01*
X199189467Y-126400338D01*
X199190685Y-126400498D01*
X199190691Y-126400500D01*
X199190697Y-126400500D01*
X199309306Y-126400500D01*
X199309309Y-126400500D01*
X199423886Y-126369799D01*
X199526613Y-126310489D01*
X199610489Y-126226613D01*
X199669799Y-126123886D01*
X199700500Y-126009309D01*
X199700500Y-125890691D01*
X199673705Y-125790691D01*
X203449500Y-125790691D01*
X203449500Y-125909309D01*
X203480201Y-126023886D01*
X203539511Y-126126613D01*
X203623387Y-126210489D01*
X203726114Y-126269799D01*
X203840691Y-126300500D01*
X203840694Y-126300500D01*
X203925500Y-126300500D01*
X203992539Y-126320185D01*
X204038294Y-126372989D01*
X204049500Y-126424500D01*
X204049500Y-126509309D01*
X204080201Y-126623886D01*
X204139511Y-126726613D01*
X204223387Y-126810489D01*
X204326114Y-126869799D01*
X204440691Y-126900500D01*
X204440694Y-126900500D01*
X204559306Y-126900500D01*
X204559309Y-126900500D01*
X204673886Y-126869799D01*
X204776613Y-126810489D01*
X204860489Y-126726613D01*
X204919799Y-126623886D01*
X204950500Y-126509309D01*
X204950500Y-126390691D01*
X204919799Y-126276114D01*
X204860489Y-126173387D01*
X204776613Y-126089511D01*
X204673886Y-126030201D01*
X204559309Y-125999500D01*
X204474500Y-125999500D01*
X204407461Y-125979815D01*
X204361706Y-125927011D01*
X204350500Y-125875500D01*
X204350500Y-125790693D01*
X204350500Y-125790691D01*
X204319799Y-125676114D01*
X204260489Y-125573387D01*
X204176613Y-125489511D01*
X204073886Y-125430201D01*
X203959309Y-125399500D01*
X203840691Y-125399500D01*
X203726114Y-125430201D01*
X203726112Y-125430201D01*
X203726112Y-125430202D01*
X203623387Y-125489511D01*
X203623384Y-125489513D01*
X203539513Y-125573384D01*
X203539511Y-125573387D01*
X203480201Y-125676114D01*
X203449500Y-125790691D01*
X199673705Y-125790691D01*
X199669799Y-125776114D01*
X199610489Y-125673387D01*
X199526613Y-125589511D01*
X199423886Y-125530201D01*
X199309309Y-125499500D01*
X199190691Y-125499500D01*
X199076114Y-125530201D01*
X199076112Y-125530201D01*
X199076112Y-125530202D01*
X198973387Y-125589511D01*
X198973384Y-125589513D01*
X198889513Y-125673384D01*
X198889511Y-125673387D01*
X198830201Y-125776114D01*
X198799500Y-125890691D01*
X198799500Y-125890693D01*
X198799500Y-126009312D01*
X198799662Y-126010544D01*
X198799500Y-126011582D01*
X198799500Y-126017436D01*
X198798587Y-126017436D01*
X198788892Y-126079578D01*
X198742510Y-126131831D01*
X198675240Y-126150713D01*
X198660544Y-126149662D01*
X198659313Y-126149500D01*
X198659309Y-126149500D01*
X198540691Y-126149500D01*
X198426114Y-126180201D01*
X198426112Y-126180201D01*
X198426112Y-126180202D01*
X198323387Y-126239511D01*
X198323384Y-126239513D01*
X198239513Y-126323384D01*
X198239511Y-126323387D01*
X198200652Y-126390693D01*
X198180201Y-126426114D01*
X198149500Y-126540691D01*
X130106155Y-126540691D01*
X130128554Y-126457099D01*
X130128554Y-126338481D01*
X130097853Y-126223904D01*
X130038543Y-126121177D01*
X129954667Y-126037301D01*
X129851940Y-125977991D01*
X129737363Y-125947290D01*
X129618745Y-125947290D01*
X129504168Y-125977991D01*
X129504166Y-125977991D01*
X129504166Y-125977992D01*
X129401441Y-126037301D01*
X129401438Y-126037303D01*
X129317567Y-126121174D01*
X129317565Y-126121177D01*
X129258255Y-126223904D01*
X129227554Y-126338481D01*
X128825500Y-126338481D01*
X128794799Y-126223904D01*
X128735489Y-126121177D01*
X128651613Y-126037301D01*
X128548886Y-125977991D01*
X128434309Y-125947290D01*
X128315691Y-125947290D01*
X128201114Y-125977991D01*
X128201112Y-125977991D01*
X128201112Y-125977992D01*
X128098387Y-126037301D01*
X128098384Y-126037303D01*
X128014513Y-126121174D01*
X128014511Y-126121177D01*
X127955201Y-126223904D01*
X127924500Y-126338481D01*
X93305145Y-126338481D01*
X93305844Y-124840691D01*
X191674500Y-124840691D01*
X191674500Y-124959309D01*
X191705201Y-125073886D01*
X191764511Y-125176613D01*
X191848387Y-125260489D01*
X191951114Y-125319799D01*
X192065691Y-125350500D01*
X192065694Y-125350500D01*
X192184306Y-125350500D01*
X192184309Y-125350500D01*
X192298886Y-125319799D01*
X192298887Y-125319797D01*
X192306736Y-125317695D01*
X192307458Y-125320391D01*
X192363408Y-125314367D01*
X192425893Y-125345631D01*
X192448798Y-125374399D01*
X192464506Y-125401606D01*
X192464509Y-125401610D01*
X192464511Y-125401613D01*
X192548387Y-125485489D01*
X192572655Y-125499500D01*
X192604131Y-125517673D01*
X192652347Y-125568240D01*
X192665569Y-125636847D01*
X192656695Y-125672505D01*
X192655203Y-125676105D01*
X192652689Y-125685488D01*
X192624500Y-125790691D01*
X192624500Y-125909309D01*
X192655201Y-126023886D01*
X192714511Y-126126613D01*
X192798387Y-126210489D01*
X192901114Y-126269799D01*
X193015691Y-126300500D01*
X193015694Y-126300500D01*
X193134306Y-126300500D01*
X193134309Y-126300500D01*
X193248886Y-126269799D01*
X193351613Y-126210489D01*
X193435489Y-126126613D01*
X193494799Y-126023886D01*
X193525500Y-125909309D01*
X193525500Y-125899500D01*
X193545185Y-125832461D01*
X193597989Y-125786706D01*
X193649500Y-125775500D01*
X193659306Y-125775500D01*
X193659309Y-125775500D01*
X193773886Y-125744799D01*
X193876613Y-125685489D01*
X193960489Y-125601613D01*
X194019799Y-125498886D01*
X194050500Y-125384309D01*
X194050500Y-125265691D01*
X194019799Y-125151114D01*
X193960489Y-125048387D01*
X193876613Y-124964511D01*
X193773886Y-124905201D01*
X193659309Y-124874500D01*
X193540691Y-124874500D01*
X193426114Y-124905201D01*
X193426113Y-124905201D01*
X193426111Y-124905202D01*
X193377632Y-124933191D01*
X193309731Y-124949662D01*
X193243705Y-124926810D01*
X193224755Y-124910166D01*
X193215239Y-124899915D01*
X193185489Y-124848387D01*
X193101613Y-124764511D01*
X193075599Y-124749492D01*
X193062893Y-124735804D01*
X193055297Y-124720573D01*
X193043554Y-124708257D01*
X193040027Y-124689958D01*
X193031709Y-124673279D01*
X193033553Y-124656359D01*
X193030333Y-124639650D01*
X193037981Y-124615724D01*
X193039279Y-124603821D01*
X193043428Y-124598687D01*
X193046384Y-124589440D01*
X193069799Y-124548886D01*
X193100500Y-124434309D01*
X193100500Y-124315691D01*
X193069799Y-124201114D01*
X193010489Y-124098387D01*
X192926613Y-124014511D01*
X192823886Y-123955201D01*
X192709309Y-123924500D01*
X192590691Y-123924500D01*
X192476114Y-123955201D01*
X192476112Y-123955201D01*
X192476112Y-123955202D01*
X192373387Y-124014511D01*
X192373384Y-124014513D01*
X192289513Y-124098384D01*
X192289511Y-124098387D01*
X192236789Y-124189704D01*
X192230201Y-124201114D01*
X192199500Y-124315691D01*
X192199500Y-124315693D01*
X192199500Y-124325500D01*
X192179815Y-124392539D01*
X192127011Y-124438294D01*
X192075500Y-124449500D01*
X192065691Y-124449500D01*
X191951114Y-124480201D01*
X191951112Y-124480201D01*
X191951112Y-124480202D01*
X191848387Y-124539511D01*
X191848384Y-124539513D01*
X191764513Y-124623384D01*
X191764511Y-124623387D01*
X191705201Y-124726114D01*
X191674500Y-124840691D01*
X93305844Y-124840691D01*
X93306758Y-122881995D01*
X120799500Y-122881995D01*
X120799500Y-123118004D01*
X120799501Y-123118020D01*
X120830306Y-123352010D01*
X120891394Y-123579993D01*
X120981714Y-123798045D01*
X120981719Y-123798056D01*
X121038016Y-123895563D01*
X121099727Y-124002450D01*
X121099729Y-124002453D01*
X121099730Y-124002454D01*
X121243406Y-124189697D01*
X121243412Y-124189704D01*
X121410295Y-124356587D01*
X121410301Y-124356592D01*
X121597550Y-124500273D01*
X121681754Y-124548888D01*
X121801943Y-124618280D01*
X121801948Y-124618282D01*
X121801951Y-124618284D01*
X122020007Y-124708606D01*
X122247986Y-124769693D01*
X122481989Y-124800500D01*
X122481996Y-124800500D01*
X122718004Y-124800500D01*
X122718011Y-124800500D01*
X122952014Y-124769693D01*
X123179993Y-124708606D01*
X123398049Y-124618284D01*
X123602450Y-124500273D01*
X123789699Y-124356592D01*
X123956592Y-124189699D01*
X124100273Y-124002450D01*
X124121496Y-123965691D01*
X136474500Y-123965691D01*
X136474500Y-124084309D01*
X136505201Y-124198886D01*
X136564511Y-124301613D01*
X136648387Y-124385489D01*
X136751114Y-124444799D01*
X136865691Y-124475500D01*
X136865694Y-124475500D01*
X136984306Y-124475500D01*
X136984309Y-124475500D01*
X137098886Y-124444799D01*
X137201613Y-124385489D01*
X137285489Y-124301613D01*
X137344799Y-124198886D01*
X137375500Y-124084309D01*
X137375500Y-123965691D01*
X137344799Y-123851114D01*
X137285489Y-123748387D01*
X137274780Y-123737678D01*
X137274492Y-123737151D01*
X137273969Y-123736859D01*
X137257769Y-123706522D01*
X137241297Y-123676353D01*
X137241339Y-123675755D01*
X137241057Y-123675226D01*
X137243834Y-123640898D01*
X137246284Y-123606662D01*
X137246658Y-123605983D01*
X137246691Y-123605584D01*
X137247948Y-123603647D01*
X137263894Y-123574766D01*
X137268916Y-123568185D01*
X137286410Y-123550691D01*
X141809500Y-123550691D01*
X141809500Y-123669309D01*
X141840201Y-123783886D01*
X141899511Y-123886613D01*
X141983387Y-123970489D01*
X142086114Y-124029799D01*
X142200691Y-124060500D01*
X142200694Y-124060500D01*
X142319306Y-124060500D01*
X142319309Y-124060500D01*
X142433886Y-124029799D01*
X142536613Y-123970489D01*
X142547319Y-123959783D01*
X142608642Y-123926298D01*
X142678334Y-123931282D01*
X142716657Y-123955911D01*
X142716941Y-123955542D01*
X142721368Y-123958939D01*
X142722681Y-123959783D01*
X142723387Y-123960489D01*
X142826114Y-124019799D01*
X142940691Y-124050500D01*
X142940694Y-124050500D01*
X143059306Y-124050500D01*
X143059309Y-124050500D01*
X143173886Y-124019799D01*
X143276613Y-123960489D01*
X143360489Y-123876613D01*
X143419799Y-123773886D01*
X143450500Y-123659309D01*
X143450500Y-123540691D01*
X143419799Y-123426114D01*
X143419797Y-123426110D01*
X143416019Y-123419566D01*
X143416018Y-123419565D01*
X143410911Y-123410720D01*
X143384913Y-123365691D01*
X144249500Y-123365691D01*
X144249500Y-123484309D01*
X144280201Y-123598886D01*
X144339511Y-123701613D01*
X144423387Y-123785489D01*
X144526114Y-123844799D01*
X144640691Y-123875500D01*
X144640694Y-123875500D01*
X144759306Y-123875500D01*
X144759309Y-123875500D01*
X144873886Y-123844799D01*
X144976613Y-123785489D01*
X145060489Y-123701613D01*
X145119799Y-123598886D01*
X145150500Y-123484309D01*
X145150500Y-123365691D01*
X145119799Y-123251114D01*
X145060489Y-123148387D01*
X144976613Y-123064511D01*
X144925249Y-123034856D01*
X144873887Y-123005201D01*
X144863586Y-123002441D01*
X144759309Y-122974500D01*
X144640691Y-122974500D01*
X144526114Y-123005201D01*
X144526112Y-123005201D01*
X144526112Y-123005202D01*
X144423387Y-123064511D01*
X144423384Y-123064513D01*
X144339513Y-123148384D01*
X144339511Y-123148387D01*
X144281127Y-123249511D01*
X144280201Y-123251114D01*
X144249500Y-123365691D01*
X143384913Y-123365691D01*
X143360489Y-123323387D01*
X143276613Y-123239511D01*
X143173886Y-123180201D01*
X143059309Y-123149500D01*
X142940691Y-123149500D01*
X142826114Y-123180201D01*
X142826112Y-123180201D01*
X142826112Y-123180202D01*
X142723387Y-123239511D01*
X142723385Y-123239512D01*
X142712675Y-123250222D01*
X142651350Y-123283703D01*
X142581658Y-123278714D01*
X142543342Y-123254088D01*
X142543059Y-123254458D01*
X142538628Y-123251058D01*
X142537318Y-123250216D01*
X142536615Y-123249513D01*
X142536613Y-123249511D01*
X142433886Y-123190201D01*
X142319309Y-123159500D01*
X142200691Y-123159500D01*
X142086114Y-123190201D01*
X142086112Y-123190201D01*
X142086112Y-123190202D01*
X141983387Y-123249511D01*
X141983384Y-123249513D01*
X141899513Y-123333384D01*
X141899511Y-123333387D01*
X141845975Y-123426114D01*
X141840201Y-123436114D01*
X141809500Y-123550691D01*
X137286410Y-123550691D01*
X137310489Y-123526613D01*
X137369799Y-123423886D01*
X137400500Y-123309309D01*
X137400500Y-123190691D01*
X137369799Y-123076114D01*
X137310489Y-122973387D01*
X137226613Y-122889511D01*
X137213595Y-122881995D01*
X180799500Y-122881995D01*
X180799500Y-123118004D01*
X180799501Y-123118020D01*
X180830306Y-123352010D01*
X180891394Y-123579993D01*
X180981714Y-123798045D01*
X180981719Y-123798056D01*
X181038016Y-123895563D01*
X181099727Y-124002450D01*
X181099729Y-124002453D01*
X181099730Y-124002454D01*
X181243406Y-124189697D01*
X181243412Y-124189704D01*
X181410295Y-124356587D01*
X181410301Y-124356592D01*
X181597550Y-124500273D01*
X181681754Y-124548888D01*
X181801943Y-124618280D01*
X181801948Y-124618282D01*
X181801951Y-124618284D01*
X182020007Y-124708606D01*
X182247986Y-124769693D01*
X182481989Y-124800500D01*
X182481996Y-124800500D01*
X182718004Y-124800500D01*
X182718011Y-124800500D01*
X182952014Y-124769693D01*
X183179993Y-124708606D01*
X183398049Y-124618284D01*
X183602450Y-124500273D01*
X183789699Y-124356592D01*
X183956592Y-124189699D01*
X184100273Y-124002450D01*
X184218284Y-123798049D01*
X184308606Y-123579993D01*
X184369693Y-123352014D01*
X184400500Y-123118011D01*
X184400500Y-122881989D01*
X184369693Y-122647986D01*
X184308606Y-122420007D01*
X184218284Y-122201951D01*
X184218282Y-122201948D01*
X184218280Y-122201943D01*
X184124500Y-122039513D01*
X184100273Y-121997550D01*
X184005668Y-121874258D01*
X195749500Y-121874258D01*
X195749500Y-122103741D01*
X195765612Y-122226114D01*
X195779452Y-122331238D01*
X195813768Y-122459309D01*
X195838842Y-122552887D01*
X195926650Y-122764876D01*
X195926657Y-122764890D01*
X196041392Y-122963617D01*
X196181081Y-123145661D01*
X196181089Y-123145670D01*
X196343330Y-123307911D01*
X196343338Y-123307918D01*
X196343339Y-123307919D01*
X196376529Y-123333387D01*
X196525382Y-123447607D01*
X196525385Y-123447608D01*
X196525388Y-123447611D01*
X196724112Y-123562344D01*
X196724117Y-123562346D01*
X196724123Y-123562349D01*
X196754101Y-123574766D01*
X196936113Y-123650158D01*
X197157762Y-123709548D01*
X197385266Y-123739500D01*
X197385273Y-123739500D01*
X197614727Y-123739500D01*
X197614734Y-123739500D01*
X197842238Y-123709548D01*
X198063887Y-123650158D01*
X198275888Y-123562344D01*
X198474612Y-123447611D01*
X198656661Y-123307919D01*
X198656665Y-123307914D01*
X198656670Y-123307911D01*
X198818911Y-123145670D01*
X198818914Y-123145665D01*
X198818919Y-123145661D01*
X198958611Y-122963612D01*
X199073344Y-122764888D01*
X199161158Y-122552887D01*
X199220548Y-122331238D01*
X199250500Y-122103734D01*
X199250500Y-121874266D01*
X199220548Y-121646762D01*
X199161158Y-121425113D01*
X199105770Y-121291394D01*
X199073349Y-121213123D01*
X199073346Y-121213117D01*
X199073344Y-121213112D01*
X198958611Y-121014388D01*
X198958608Y-121014385D01*
X198958607Y-121014382D01*
X198818918Y-120832338D01*
X198818911Y-120832330D01*
X198656670Y-120670089D01*
X198656661Y-120670081D01*
X198474617Y-120530392D01*
X198275890Y-120415657D01*
X198275876Y-120415650D01*
X198063887Y-120327842D01*
X197842238Y-120268452D01*
X197804215Y-120263446D01*
X197614741Y-120238500D01*
X197614734Y-120238500D01*
X197385266Y-120238500D01*
X197385258Y-120238500D01*
X197168715Y-120267009D01*
X197157762Y-120268452D01*
X197066199Y-120292986D01*
X196936112Y-120327842D01*
X196724123Y-120415650D01*
X196724109Y-120415657D01*
X196525382Y-120530392D01*
X196343338Y-120670081D01*
X196181081Y-120832338D01*
X196041392Y-121014382D01*
X195926657Y-121213109D01*
X195926650Y-121213123D01*
X195838842Y-121425112D01*
X195779453Y-121646759D01*
X195779451Y-121646770D01*
X195749500Y-121874258D01*
X184005668Y-121874258D01*
X183956592Y-121810301D01*
X183956587Y-121810295D01*
X183789704Y-121643412D01*
X183789697Y-121643406D01*
X183602454Y-121499730D01*
X183602453Y-121499729D01*
X183602450Y-121499727D01*
X183473215Y-121425113D01*
X183398056Y-121381719D01*
X183398045Y-121381714D01*
X183179993Y-121291394D01*
X182952010Y-121230306D01*
X182718020Y-121199501D01*
X182718017Y-121199500D01*
X182718011Y-121199500D01*
X182481989Y-121199500D01*
X182481983Y-121199500D01*
X182481979Y-121199501D01*
X182247989Y-121230306D01*
X182020006Y-121291394D01*
X181801954Y-121381714D01*
X181801943Y-121381719D01*
X181597545Y-121499730D01*
X181410302Y-121643406D01*
X181410295Y-121643412D01*
X181243412Y-121810295D01*
X181243406Y-121810302D01*
X181099730Y-121997545D01*
X180981719Y-122201943D01*
X180981714Y-122201954D01*
X180891394Y-122420006D01*
X180830306Y-122647989D01*
X180799501Y-122881979D01*
X180799500Y-122881995D01*
X137213595Y-122881995D01*
X137123886Y-122830201D01*
X137009309Y-122799500D01*
X136890691Y-122799500D01*
X136776114Y-122830201D01*
X136776112Y-122830201D01*
X136776112Y-122830202D01*
X136673387Y-122889511D01*
X136673384Y-122889513D01*
X136589513Y-122973384D01*
X136589511Y-122973387D01*
X136530201Y-123076114D01*
X136499500Y-123190691D01*
X136499500Y-123309309D01*
X136530201Y-123423886D01*
X136589511Y-123526613D01*
X136589513Y-123526615D01*
X136600216Y-123537318D01*
X136633701Y-123598641D01*
X136628717Y-123668333D01*
X136600218Y-123712678D01*
X136564514Y-123748383D01*
X136564511Y-123748387D01*
X136543091Y-123785488D01*
X136505201Y-123851114D01*
X136474500Y-123965691D01*
X124121496Y-123965691D01*
X124218284Y-123798049D01*
X124308606Y-123579993D01*
X124369693Y-123352014D01*
X124400500Y-123118011D01*
X124400500Y-122881989D01*
X124369693Y-122647986D01*
X124308606Y-122420007D01*
X124275752Y-122340691D01*
X139049500Y-122340691D01*
X139049500Y-122459309D01*
X139080201Y-122573886D01*
X139139511Y-122676613D01*
X139223387Y-122760489D01*
X139326114Y-122819799D01*
X139440691Y-122850500D01*
X139440694Y-122850500D01*
X139559306Y-122850500D01*
X139559309Y-122850500D01*
X139673886Y-122819799D01*
X139776613Y-122760489D01*
X139860489Y-122676613D01*
X139919799Y-122573886D01*
X139950500Y-122459309D01*
X139950500Y-122340691D01*
X139919799Y-122226114D01*
X139860489Y-122123387D01*
X139776613Y-122039511D01*
X139673886Y-121980201D01*
X139559309Y-121949500D01*
X139440691Y-121949500D01*
X139326114Y-121980201D01*
X139326112Y-121980201D01*
X139326112Y-121980202D01*
X139223387Y-122039511D01*
X139223384Y-122039513D01*
X139139513Y-122123384D01*
X139139511Y-122123387D01*
X139080201Y-122226114D01*
X139049500Y-122340691D01*
X124275752Y-122340691D01*
X124228292Y-122226112D01*
X124218288Y-122201959D01*
X124218280Y-122201943D01*
X124124500Y-122039513D01*
X124100273Y-121997550D01*
X123956592Y-121810301D01*
X123956587Y-121810295D01*
X123789704Y-121643412D01*
X123789697Y-121643406D01*
X123602454Y-121499730D01*
X123602453Y-121499729D01*
X123602450Y-121499727D01*
X123473215Y-121425113D01*
X123398056Y-121381719D01*
X123398045Y-121381714D01*
X123179993Y-121291394D01*
X122952010Y-121230306D01*
X122718020Y-121199501D01*
X122718017Y-121199500D01*
X122718011Y-121199500D01*
X122481989Y-121199500D01*
X122481983Y-121199500D01*
X122481979Y-121199501D01*
X122247989Y-121230306D01*
X122020006Y-121291394D01*
X121801954Y-121381714D01*
X121801943Y-121381719D01*
X121597545Y-121499730D01*
X121410302Y-121643406D01*
X121410295Y-121643412D01*
X121243412Y-121810295D01*
X121243406Y-121810302D01*
X121099730Y-121997545D01*
X120981719Y-122201943D01*
X120981714Y-122201954D01*
X120891394Y-122420006D01*
X120830306Y-122647989D01*
X120799501Y-122881979D01*
X120799500Y-122881995D01*
X93306758Y-122881995D01*
X93308162Y-119873191D01*
X140342000Y-119873191D01*
X140342000Y-119991809D01*
X140372701Y-120106386D01*
X140432011Y-120209113D01*
X140515887Y-120292989D01*
X140618614Y-120352299D01*
X140733191Y-120383000D01*
X140733194Y-120383000D01*
X140851806Y-120383000D01*
X140851809Y-120383000D01*
X140966386Y-120352299D01*
X141069113Y-120292989D01*
X141152989Y-120209113D01*
X141212299Y-120106386D01*
X141243000Y-119991809D01*
X141243000Y-119873191D01*
X141212299Y-119758614D01*
X141152989Y-119655887D01*
X141069113Y-119572011D01*
X140966386Y-119512701D01*
X140851809Y-119482000D01*
X140733191Y-119482000D01*
X140618614Y-119512701D01*
X140618612Y-119512701D01*
X140618612Y-119512702D01*
X140515887Y-119572011D01*
X140515884Y-119572013D01*
X140432013Y-119655884D01*
X140432011Y-119655887D01*
X140373452Y-119757314D01*
X140372701Y-119758614D01*
X140342000Y-119873191D01*
X93308162Y-119873191D01*
X93308410Y-119340691D01*
X138574500Y-119340691D01*
X138574500Y-119459309D01*
X138605201Y-119573886D01*
X138664511Y-119676613D01*
X138748387Y-119760489D01*
X138851114Y-119819799D01*
X138965691Y-119850500D01*
X138965694Y-119850500D01*
X139084306Y-119850500D01*
X139084309Y-119850500D01*
X139198886Y-119819799D01*
X139301613Y-119760489D01*
X139385489Y-119676613D01*
X139444799Y-119573886D01*
X139475500Y-119459309D01*
X139475500Y-119384108D01*
X143099500Y-119384108D01*
X143099500Y-119515891D01*
X143133608Y-119643187D01*
X143152907Y-119676613D01*
X143199500Y-119757314D01*
X143292686Y-119850500D01*
X143406814Y-119916392D01*
X143534108Y-119950500D01*
X143534110Y-119950500D01*
X143665890Y-119950500D01*
X143665892Y-119950500D01*
X143793186Y-119916392D01*
X143907314Y-119850500D01*
X144000500Y-119757314D01*
X144066392Y-119643186D01*
X144100500Y-119515892D01*
X144100500Y-119384108D01*
X144066392Y-119256814D01*
X144000500Y-119142686D01*
X143907314Y-119049500D01*
X143850250Y-119016554D01*
X143793187Y-118983608D01*
X143729539Y-118966554D01*
X143665892Y-118949500D01*
X143534108Y-118949500D01*
X143406812Y-118983608D01*
X143292686Y-119049500D01*
X143292683Y-119049502D01*
X143199502Y-119142683D01*
X143199500Y-119142686D01*
X143133608Y-119256812D01*
X143099500Y-119384108D01*
X139475500Y-119384108D01*
X139475500Y-119340691D01*
X139444799Y-119226114D01*
X139385489Y-119123387D01*
X139301613Y-119039511D01*
X139198886Y-118980201D01*
X139084309Y-118949500D01*
X138965691Y-118949500D01*
X138851114Y-118980201D01*
X138851112Y-118980201D01*
X138851112Y-118980202D01*
X138748387Y-119039511D01*
X138748384Y-119039513D01*
X138664513Y-119123384D01*
X138664511Y-119123387D01*
X138605201Y-119226114D01*
X138574500Y-119340691D01*
X93308410Y-119340691D01*
X93309506Y-116990691D01*
X137009500Y-116990691D01*
X137009500Y-117109309D01*
X137040201Y-117223886D01*
X137099511Y-117326613D01*
X137183387Y-117410489D01*
X137286114Y-117469799D01*
X137400691Y-117500500D01*
X137400694Y-117500500D01*
X137519306Y-117500500D01*
X137519309Y-117500500D01*
X137633886Y-117469799D01*
X137736613Y-117410489D01*
X137820489Y-117326613D01*
X137879799Y-117223886D01*
X137910500Y-117109309D01*
X137910500Y-116990691D01*
X137879799Y-116876114D01*
X137820489Y-116773387D01*
X137736613Y-116689511D01*
X137633886Y-116630201D01*
X137519309Y-116599500D01*
X137400691Y-116599500D01*
X137286114Y-116630201D01*
X137286112Y-116630201D01*
X137286112Y-116630202D01*
X137183387Y-116689511D01*
X137183384Y-116689513D01*
X137099513Y-116773384D01*
X137099511Y-116773387D01*
X137040201Y-116876114D01*
X137009500Y-116990691D01*
X93309506Y-116990691D01*
X93309999Y-115934108D01*
X161449500Y-115934108D01*
X161449500Y-116065891D01*
X161483608Y-116193187D01*
X161516554Y-116250250D01*
X161549500Y-116307314D01*
X161642686Y-116400500D01*
X161756814Y-116466392D01*
X161866529Y-116495789D01*
X161926189Y-116532154D01*
X161954209Y-116583469D01*
X161983608Y-116693186D01*
X162049500Y-116807314D01*
X162142686Y-116900500D01*
X162256814Y-116966392D01*
X162384108Y-117000500D01*
X162384110Y-117000500D01*
X162515890Y-117000500D01*
X162515892Y-117000500D01*
X162643186Y-116966392D01*
X162757314Y-116900500D01*
X162850500Y-116807314D01*
X162916392Y-116693186D01*
X162950500Y-116565892D01*
X162950500Y-116434108D01*
X162916392Y-116306814D01*
X162850500Y-116192686D01*
X162757314Y-116099500D01*
X162643186Y-116033608D01*
X162533469Y-116004209D01*
X162473810Y-115967845D01*
X162445789Y-115916528D01*
X162421398Y-115825500D01*
X162416392Y-115806814D01*
X162350500Y-115692686D01*
X162257314Y-115599500D01*
X162200250Y-115566554D01*
X162143187Y-115533608D01*
X162079539Y-115516554D01*
X162015892Y-115499500D01*
X161884108Y-115499500D01*
X161756812Y-115533608D01*
X161642686Y-115599500D01*
X161642683Y-115599502D01*
X161549502Y-115692683D01*
X161549500Y-115692686D01*
X161483608Y-115806812D01*
X161449500Y-115934108D01*
X93309999Y-115934108D01*
X93310804Y-114206902D01*
X122099500Y-114206902D01*
X122099500Y-114443097D01*
X122136446Y-114676368D01*
X122209433Y-114900996D01*
X122279985Y-115039461D01*
X122316657Y-115111433D01*
X122455483Y-115302510D01*
X122622490Y-115469517D01*
X122813567Y-115608343D01*
X122912991Y-115659002D01*
X123024003Y-115715566D01*
X123024005Y-115715566D01*
X123024008Y-115715568D01*
X123144412Y-115754689D01*
X123248631Y-115788553D01*
X123481903Y-115825500D01*
X123481908Y-115825500D01*
X123718097Y-115825500D01*
X123951368Y-115788553D01*
X123966913Y-115783502D01*
X124175992Y-115715568D01*
X124226521Y-115689822D01*
X127099499Y-115689822D01*
X127108231Y-115733717D01*
X127108234Y-115733724D01*
X127141495Y-115783503D01*
X127141496Y-115783504D01*
X127191278Y-115816767D01*
X127191281Y-115816767D01*
X127191282Y-115816768D01*
X127235177Y-115825500D01*
X127235180Y-115825500D01*
X129964822Y-115825500D01*
X130008717Y-115816768D01*
X130008717Y-115816767D01*
X130008722Y-115816767D01*
X130058504Y-115783504D01*
X130091767Y-115733722D01*
X130099930Y-115692686D01*
X130100500Y-115689822D01*
X130100500Y-113780691D01*
X140029500Y-113780691D01*
X140029500Y-113899309D01*
X140060201Y-114013886D01*
X140119511Y-114116613D01*
X140203387Y-114200489D01*
X140306114Y-114259799D01*
X140420691Y-114290500D01*
X140420694Y-114290500D01*
X140539306Y-114290500D01*
X140539309Y-114290500D01*
X140653886Y-114259799D01*
X140730283Y-114215691D01*
X176024500Y-114215691D01*
X176024500Y-114334309D01*
X176055201Y-114448886D01*
X176114511Y-114551613D01*
X176198387Y-114635489D01*
X176301114Y-114694799D01*
X176415691Y-114725500D01*
X176415694Y-114725500D01*
X176534306Y-114725500D01*
X176534309Y-114725500D01*
X176648886Y-114694799D01*
X176751613Y-114635489D01*
X176835489Y-114551613D01*
X176894799Y-114448886D01*
X176925500Y-114334309D01*
X176925500Y-114251304D01*
X194059500Y-114251304D01*
X194059500Y-114428695D01*
X194094103Y-114602658D01*
X194094106Y-114602667D01*
X194161983Y-114766540D01*
X194161990Y-114766553D01*
X194260535Y-114914034D01*
X194260538Y-114914038D01*
X194385961Y-115039461D01*
X194385965Y-115039464D01*
X194533446Y-115138009D01*
X194533459Y-115138016D01*
X194656363Y-115188923D01*
X194697334Y-115205894D01*
X194697336Y-115205894D01*
X194697341Y-115205896D01*
X194871304Y-115240499D01*
X194871307Y-115240500D01*
X194871309Y-115240500D01*
X195048693Y-115240500D01*
X195048694Y-115240499D01*
X195106682Y-115228964D01*
X195222658Y-115205896D01*
X195222661Y-115205894D01*
X195222666Y-115205894D01*
X195386547Y-115138013D01*
X195534035Y-115039464D01*
X195659464Y-114914035D01*
X195758013Y-114766547D01*
X195825894Y-114602666D01*
X195836050Y-114551612D01*
X195860499Y-114428695D01*
X195860500Y-114428693D01*
X195860500Y-114251306D01*
X195860499Y-114251304D01*
X195825896Y-114077341D01*
X195825893Y-114077332D01*
X195758016Y-113913459D01*
X195758009Y-113913446D01*
X195659464Y-113765965D01*
X195659461Y-113765961D01*
X195534038Y-113640538D01*
X195534034Y-113640535D01*
X195386553Y-113541990D01*
X195386540Y-113541983D01*
X195222667Y-113474106D01*
X195222658Y-113474103D01*
X195048694Y-113439500D01*
X195048691Y-113439500D01*
X194871309Y-113439500D01*
X194871306Y-113439500D01*
X194697341Y-113474103D01*
X194697332Y-113474106D01*
X194533459Y-113541983D01*
X194533446Y-113541990D01*
X194385965Y-113640535D01*
X194385961Y-113640538D01*
X194260538Y-113765961D01*
X194260535Y-113765965D01*
X194161990Y-113913446D01*
X194161983Y-113913459D01*
X194094106Y-114077332D01*
X194094103Y-114077341D01*
X194059500Y-114251304D01*
X176925500Y-114251304D01*
X176925500Y-114215691D01*
X176894799Y-114101114D01*
X176835489Y-113998387D01*
X176751613Y-113914511D01*
X176648886Y-113855201D01*
X176534309Y-113824500D01*
X176415691Y-113824500D01*
X176301114Y-113855201D01*
X176301112Y-113855201D01*
X176301112Y-113855202D01*
X176198387Y-113914511D01*
X176198384Y-113914513D01*
X176114513Y-113998384D01*
X176114511Y-113998387D01*
X176068931Y-114077334D01*
X176055201Y-114101114D01*
X176024500Y-114215691D01*
X140730283Y-114215691D01*
X140756613Y-114200489D01*
X140840489Y-114116613D01*
X140899799Y-114013886D01*
X140930500Y-113899309D01*
X140930500Y-113780691D01*
X140899799Y-113666114D01*
X140840489Y-113563387D01*
X140756613Y-113479511D01*
X140653886Y-113420201D01*
X140539309Y-113389500D01*
X140420691Y-113389500D01*
X140306114Y-113420201D01*
X140306112Y-113420201D01*
X140306112Y-113420202D01*
X140203387Y-113479511D01*
X140203384Y-113479513D01*
X140119513Y-113563384D01*
X140119511Y-113563387D01*
X140074969Y-113640536D01*
X140060201Y-113666114D01*
X140029500Y-113780691D01*
X130100500Y-113780691D01*
X130100500Y-112960177D01*
X130091768Y-112916282D01*
X130091767Y-112916281D01*
X130091767Y-112916278D01*
X130058504Y-112866496D01*
X130050948Y-112861447D01*
X130008724Y-112833234D01*
X130008717Y-112833231D01*
X129964822Y-112824500D01*
X129964820Y-112824500D01*
X127235180Y-112824500D01*
X127235178Y-112824500D01*
X127191282Y-112833231D01*
X127191275Y-112833234D01*
X127141496Y-112866495D01*
X127141495Y-112866496D01*
X127108234Y-112916275D01*
X127108231Y-112916282D01*
X127099500Y-112960177D01*
X127099500Y-112960180D01*
X127099500Y-115689820D01*
X127099500Y-115689822D01*
X127099499Y-115689822D01*
X124226521Y-115689822D01*
X124386433Y-115608343D01*
X124577510Y-115469517D01*
X124744517Y-115302510D01*
X124883343Y-115111433D01*
X124990568Y-114900992D01*
X125063553Y-114676368D01*
X125075226Y-114602666D01*
X125100500Y-114443097D01*
X125100500Y-114206902D01*
X125063553Y-113973631D01*
X125015422Y-113825500D01*
X124990568Y-113749008D01*
X124990566Y-113749005D01*
X124990566Y-113749003D01*
X124895988Y-113563384D01*
X124883343Y-113538567D01*
X124744517Y-113347490D01*
X124577510Y-113180483D01*
X124403979Y-113054405D01*
X124403978Y-113054403D01*
X124386437Y-113041659D01*
X124175996Y-112934433D01*
X123951368Y-112861446D01*
X123718097Y-112824500D01*
X123718092Y-112824500D01*
X123481908Y-112824500D01*
X123481903Y-112824500D01*
X123248631Y-112861446D01*
X123024003Y-112934433D01*
X122813566Y-113041657D01*
X122724581Y-113106309D01*
X122622490Y-113180483D01*
X122622488Y-113180485D01*
X122622487Y-113180485D01*
X122455485Y-113347487D01*
X122455485Y-113347488D01*
X122455483Y-113347490D01*
X122396853Y-113428187D01*
X122316657Y-113538566D01*
X122209433Y-113749003D01*
X122136446Y-113973631D01*
X122099500Y-114206902D01*
X93310804Y-114206902D01*
X93311468Y-112784108D01*
X161649500Y-112784108D01*
X161649500Y-112915892D01*
X161654468Y-112934432D01*
X161683608Y-113043187D01*
X161712759Y-113093677D01*
X161749500Y-113157314D01*
X161842686Y-113250500D01*
X161956814Y-113316392D01*
X162046812Y-113340506D01*
X162106472Y-113376871D01*
X162134493Y-113428187D01*
X162136599Y-113436047D01*
X162158608Y-113518186D01*
X162224500Y-113632314D01*
X162317686Y-113725500D01*
X162431814Y-113791392D01*
X162559108Y-113825500D01*
X162559110Y-113825500D01*
X162690890Y-113825500D01*
X162690892Y-113825500D01*
X162818186Y-113791392D01*
X162932314Y-113725500D01*
X163025500Y-113632314D01*
X163091392Y-113518186D01*
X163125500Y-113390892D01*
X163125500Y-113259108D01*
X163093771Y-113140691D01*
X192099500Y-113140691D01*
X192099500Y-113259309D01*
X192130201Y-113373886D01*
X192189511Y-113476613D01*
X192273387Y-113560489D01*
X192376114Y-113619799D01*
X192490691Y-113650500D01*
X192490694Y-113650500D01*
X192609306Y-113650500D01*
X192609309Y-113650500D01*
X192723886Y-113619799D01*
X192826613Y-113560489D01*
X192910489Y-113476613D01*
X192969799Y-113373886D01*
X193000500Y-113259309D01*
X193000500Y-113140691D01*
X192991286Y-113106304D01*
X196599500Y-113106304D01*
X196599500Y-113283695D01*
X196634103Y-113457658D01*
X196634106Y-113457667D01*
X196701983Y-113621540D01*
X196701990Y-113621553D01*
X196800535Y-113769034D01*
X196800538Y-113769038D01*
X196925961Y-113894461D01*
X196925965Y-113894464D01*
X197073446Y-113993009D01*
X197073459Y-113993016D01*
X197196363Y-114043923D01*
X197237334Y-114060894D01*
X197237336Y-114060894D01*
X197237341Y-114060896D01*
X197411304Y-114095499D01*
X197411307Y-114095500D01*
X197411309Y-114095500D01*
X197588693Y-114095500D01*
X197588694Y-114095499D01*
X197679982Y-114077341D01*
X197762658Y-114060896D01*
X197762661Y-114060894D01*
X197762666Y-114060894D01*
X197926547Y-113993013D01*
X198074035Y-113894464D01*
X198199464Y-113769035D01*
X198298013Y-113621547D01*
X198365894Y-113457666D01*
X198369508Y-113439500D01*
X198393995Y-113316392D01*
X198400500Y-113283691D01*
X198400500Y-113106309D01*
X198400500Y-113106306D01*
X198400499Y-113106304D01*
X198365896Y-112932341D01*
X198365893Y-112932332D01*
X198359083Y-112915892D01*
X198336532Y-112861446D01*
X198298016Y-112768459D01*
X198298009Y-112768446D01*
X198199464Y-112620965D01*
X198199461Y-112620961D01*
X198074038Y-112495538D01*
X198074034Y-112495535D01*
X197926553Y-112396990D01*
X197926540Y-112396983D01*
X197762667Y-112329106D01*
X197762658Y-112329103D01*
X197588694Y-112294500D01*
X197588691Y-112294500D01*
X197411309Y-112294500D01*
X197411306Y-112294500D01*
X197237341Y-112329103D01*
X197237332Y-112329106D01*
X197073459Y-112396983D01*
X197073446Y-112396990D01*
X196925965Y-112495535D01*
X196925961Y-112495538D01*
X196800538Y-112620961D01*
X196800535Y-112620965D01*
X196701990Y-112768446D01*
X196701983Y-112768459D01*
X196634106Y-112932332D01*
X196634103Y-112932341D01*
X196599500Y-113106304D01*
X192991286Y-113106304D01*
X192969799Y-113026114D01*
X192910489Y-112923387D01*
X192826613Y-112839511D01*
X192723886Y-112780201D01*
X192609309Y-112749500D01*
X192490691Y-112749500D01*
X192376114Y-112780201D01*
X192376112Y-112780201D01*
X192376112Y-112780202D01*
X192273387Y-112839511D01*
X192273384Y-112839513D01*
X192189513Y-112923384D01*
X192189511Y-112923387D01*
X192130201Y-113026114D01*
X192099500Y-113140691D01*
X163093771Y-113140691D01*
X163091392Y-113131814D01*
X163025500Y-113017686D01*
X162932314Y-112924500D01*
X162818186Y-112858608D01*
X162728187Y-112834493D01*
X162668527Y-112798128D01*
X162640506Y-112746811D01*
X162629342Y-112705145D01*
X162616392Y-112656814D01*
X162550500Y-112542686D01*
X162457314Y-112449500D01*
X162377732Y-112403553D01*
X162343187Y-112383608D01*
X162279539Y-112366554D01*
X162215892Y-112349500D01*
X162084108Y-112349500D01*
X161956812Y-112383608D01*
X161842686Y-112449500D01*
X161842683Y-112449502D01*
X161749502Y-112542683D01*
X161749500Y-112542686D01*
X161683608Y-112656812D01*
X161658783Y-112749464D01*
X161649500Y-112784108D01*
X93311468Y-112784108D01*
X93311908Y-111840691D01*
X178099500Y-111840691D01*
X178099500Y-111959309D01*
X178130201Y-112073886D01*
X178189511Y-112176613D01*
X178273387Y-112260489D01*
X178376114Y-112319799D01*
X178490691Y-112350500D01*
X178490694Y-112350500D01*
X178609306Y-112350500D01*
X178609309Y-112350500D01*
X178723886Y-112319799D01*
X178826613Y-112260489D01*
X178910489Y-112176613D01*
X178969799Y-112073886D01*
X178999965Y-111961304D01*
X194059500Y-111961304D01*
X194059500Y-112138695D01*
X194094103Y-112312658D01*
X194094106Y-112312667D01*
X194161983Y-112476540D01*
X194161990Y-112476553D01*
X194260535Y-112624034D01*
X194260538Y-112624038D01*
X194385961Y-112749461D01*
X194385965Y-112749464D01*
X194533446Y-112848009D01*
X194533459Y-112848016D01*
X194578075Y-112866496D01*
X194697334Y-112915894D01*
X194697336Y-112915894D01*
X194697341Y-112915896D01*
X194871304Y-112950499D01*
X194871307Y-112950500D01*
X194871309Y-112950500D01*
X195048693Y-112950500D01*
X195048694Y-112950499D01*
X195139982Y-112932341D01*
X195222658Y-112915896D01*
X195222661Y-112915894D01*
X195222666Y-112915894D01*
X195386547Y-112848013D01*
X195534035Y-112749464D01*
X195659464Y-112624035D01*
X195758013Y-112476547D01*
X195825894Y-112312666D01*
X195829508Y-112294500D01*
X195860499Y-112138695D01*
X195860500Y-112138693D01*
X195860500Y-111961313D01*
X195860498Y-111961297D01*
X195825896Y-111787341D01*
X195825893Y-111787332D01*
X195758016Y-111623459D01*
X195758009Y-111623446D01*
X195659464Y-111475965D01*
X195659461Y-111475961D01*
X195534038Y-111350538D01*
X195534034Y-111350535D01*
X195386553Y-111251990D01*
X195386540Y-111251983D01*
X195222667Y-111184106D01*
X195222658Y-111184103D01*
X195048694Y-111149500D01*
X195048691Y-111149500D01*
X194871309Y-111149500D01*
X194871306Y-111149500D01*
X194697341Y-111184103D01*
X194697332Y-111184106D01*
X194533459Y-111251983D01*
X194533446Y-111251990D01*
X194385965Y-111350535D01*
X194385961Y-111350538D01*
X194260538Y-111475961D01*
X194260535Y-111475965D01*
X194161990Y-111623446D01*
X194161983Y-111623459D01*
X194094106Y-111787332D01*
X194094103Y-111787341D01*
X194059500Y-111961304D01*
X178999965Y-111961304D01*
X179000500Y-111959309D01*
X179000500Y-111840691D01*
X178969799Y-111726114D01*
X178910489Y-111623387D01*
X178826613Y-111539511D01*
X178723886Y-111480201D01*
X178609309Y-111449500D01*
X178490691Y-111449500D01*
X178376114Y-111480201D01*
X178376112Y-111480201D01*
X178376112Y-111480202D01*
X178273387Y-111539511D01*
X178273384Y-111539513D01*
X178189513Y-111623384D01*
X178189511Y-111623387D01*
X178130201Y-111726114D01*
X178099500Y-111840691D01*
X93311908Y-111840691D01*
X93312386Y-110816304D01*
X196599500Y-110816304D01*
X196599500Y-110993695D01*
X196634103Y-111167658D01*
X196634106Y-111167667D01*
X196701983Y-111331540D01*
X196701990Y-111331553D01*
X196800535Y-111479034D01*
X196800538Y-111479038D01*
X196925961Y-111604461D01*
X196925965Y-111604464D01*
X197073446Y-111703009D01*
X197073459Y-111703016D01*
X197129224Y-111726114D01*
X197237334Y-111770894D01*
X197237336Y-111770894D01*
X197237341Y-111770896D01*
X197411304Y-111805499D01*
X197411307Y-111805500D01*
X197411309Y-111805500D01*
X197588693Y-111805500D01*
X197588694Y-111805499D01*
X197679982Y-111787341D01*
X197762658Y-111770896D01*
X197762661Y-111770894D01*
X197762666Y-111770894D01*
X197926547Y-111703013D01*
X198074035Y-111604464D01*
X198199464Y-111479035D01*
X198298013Y-111331547D01*
X198365894Y-111167666D01*
X198365896Y-111167658D01*
X198393400Y-111029388D01*
X198393400Y-111029387D01*
X198400500Y-110993693D01*
X198400500Y-110816306D01*
X198400499Y-110816304D01*
X198365896Y-110642341D01*
X198365893Y-110642332D01*
X198298016Y-110478459D01*
X198298009Y-110478446D01*
X198199464Y-110330965D01*
X198199461Y-110330961D01*
X198074038Y-110205538D01*
X198074034Y-110205535D01*
X197926553Y-110106990D01*
X197926540Y-110106983D01*
X197762667Y-110039106D01*
X197762658Y-110039103D01*
X197588694Y-110004500D01*
X197588691Y-110004500D01*
X197411309Y-110004500D01*
X197411306Y-110004500D01*
X197237341Y-110039103D01*
X197237332Y-110039106D01*
X197073459Y-110106983D01*
X197073446Y-110106990D01*
X196925965Y-110205535D01*
X196925961Y-110205538D01*
X196800538Y-110330961D01*
X196800535Y-110330965D01*
X196701990Y-110478446D01*
X196701983Y-110478459D01*
X196634106Y-110642332D01*
X196634103Y-110642341D01*
X196599500Y-110816304D01*
X93312386Y-110816304D01*
X93312751Y-110034108D01*
X183949500Y-110034108D01*
X183949500Y-110165892D01*
X183960123Y-110205538D01*
X183983608Y-110293187D01*
X184005417Y-110330961D01*
X184049500Y-110407314D01*
X184142686Y-110500500D01*
X184256814Y-110566392D01*
X184384108Y-110600500D01*
X184384110Y-110600500D01*
X184515890Y-110600500D01*
X184515892Y-110600500D01*
X184643186Y-110566392D01*
X184757314Y-110500500D01*
X184850500Y-110407314D01*
X184916392Y-110293186D01*
X184950500Y-110165892D01*
X184950500Y-110034108D01*
X184916392Y-109906814D01*
X184850500Y-109792686D01*
X184757314Y-109699500D01*
X184672439Y-109650497D01*
X184643187Y-109633608D01*
X184579539Y-109616554D01*
X184515892Y-109599500D01*
X184384108Y-109599500D01*
X184256812Y-109633608D01*
X184142686Y-109699500D01*
X184142683Y-109699502D01*
X184049502Y-109792683D01*
X184049500Y-109792686D01*
X183983608Y-109906812D01*
X183977261Y-109930500D01*
X183949500Y-110034108D01*
X93312751Y-110034108D01*
X93313856Y-107664108D01*
X126329500Y-107664108D01*
X126329500Y-107795892D01*
X126335153Y-107816990D01*
X126363608Y-107923187D01*
X126378994Y-107949835D01*
X126429500Y-108037314D01*
X126522686Y-108130500D01*
X126611561Y-108181812D01*
X126636810Y-108196390D01*
X126636814Y-108196392D01*
X126764108Y-108230500D01*
X126764110Y-108230500D01*
X126895890Y-108230500D01*
X126895892Y-108230500D01*
X127023186Y-108196392D01*
X127072953Y-108167659D01*
X127140852Y-108151185D01*
X127206880Y-108174037D01*
X127250071Y-108228957D01*
X127256713Y-108298510D01*
X127242342Y-108337044D01*
X127213608Y-108386812D01*
X127199118Y-108440891D01*
X127179500Y-108514108D01*
X127179500Y-108645892D01*
X127203997Y-108737318D01*
X127213609Y-108773188D01*
X127213609Y-108773189D01*
X127242341Y-108822954D01*
X127258814Y-108890854D01*
X127235961Y-108956881D01*
X127181040Y-109000072D01*
X127111487Y-109006713D01*
X127072954Y-108992341D01*
X127023189Y-108963609D01*
X127023186Y-108963608D01*
X126895892Y-108929500D01*
X126764108Y-108929500D01*
X126636812Y-108963608D01*
X126522686Y-109029500D01*
X126522683Y-109029502D01*
X126429502Y-109122683D01*
X126429500Y-109122686D01*
X126363608Y-109236812D01*
X126342419Y-109315892D01*
X126329500Y-109364108D01*
X126329500Y-109495892D01*
X126334754Y-109515499D01*
X126363608Y-109623187D01*
X126385796Y-109661617D01*
X126429500Y-109737314D01*
X126522686Y-109830500D01*
X126636814Y-109896392D01*
X126764108Y-109930500D01*
X126764110Y-109930500D01*
X126895890Y-109930500D01*
X126895892Y-109930500D01*
X127023186Y-109896392D01*
X127137314Y-109830500D01*
X127230500Y-109737314D01*
X127296392Y-109623186D01*
X127330500Y-109495892D01*
X127330500Y-109364108D01*
X127296392Y-109236814D01*
X127267657Y-109187044D01*
X127251185Y-109119146D01*
X127274037Y-109053119D01*
X127328958Y-109009928D01*
X127398511Y-109003286D01*
X127437044Y-109017657D01*
X127457560Y-109029502D01*
X127486810Y-109046390D01*
X127486814Y-109046392D01*
X127614108Y-109080500D01*
X127614110Y-109080500D01*
X127745890Y-109080500D01*
X127745892Y-109080500D01*
X127873186Y-109046392D01*
X127987314Y-108980500D01*
X128080500Y-108887314D01*
X128146392Y-108773186D01*
X128180500Y-108645892D01*
X128180500Y-108514108D01*
X128146392Y-108386814D01*
X128080500Y-108272686D01*
X127987314Y-108179500D01*
X127893169Y-108125145D01*
X127873187Y-108113608D01*
X127809539Y-108096554D01*
X127745892Y-108079500D01*
X127614108Y-108079500D01*
X127486812Y-108113608D01*
X127437044Y-108142342D01*
X127369144Y-108158814D01*
X127303117Y-108135961D01*
X127259927Y-108081039D01*
X127253286Y-108011486D01*
X127267659Y-107972953D01*
X127296389Y-107923191D01*
X127296390Y-107923189D01*
X127296392Y-107923186D01*
X127330500Y-107795892D01*
X127330500Y-107664108D01*
X128079500Y-107664108D01*
X128079500Y-107795892D01*
X128085153Y-107816990D01*
X128113608Y-107923187D01*
X128143234Y-107974500D01*
X128179500Y-108037314D01*
X128272686Y-108130500D01*
X128373051Y-108188446D01*
X128386810Y-108196390D01*
X128386814Y-108196392D01*
X128514108Y-108230500D01*
X128514110Y-108230500D01*
X128645890Y-108230500D01*
X128645892Y-108230500D01*
X128773186Y-108196392D01*
X128822953Y-108167659D01*
X128890852Y-108151185D01*
X128956880Y-108174037D01*
X129000071Y-108228957D01*
X129006713Y-108298510D01*
X128992342Y-108337044D01*
X128963608Y-108386812D01*
X128949118Y-108440891D01*
X128929500Y-108514108D01*
X128929500Y-108645892D01*
X128953997Y-108737318D01*
X128963609Y-108773188D01*
X128963609Y-108773189D01*
X128992341Y-108822954D01*
X129008814Y-108890854D01*
X128985961Y-108956881D01*
X128931040Y-109000072D01*
X128861487Y-109006713D01*
X128822954Y-108992341D01*
X128773189Y-108963609D01*
X128773186Y-108963608D01*
X128645892Y-108929500D01*
X128514108Y-108929500D01*
X128386812Y-108963608D01*
X128297010Y-109015456D01*
X128272686Y-109029500D01*
X128179500Y-109122686D01*
X128161232Y-109154326D01*
X128161230Y-109154329D01*
X128113609Y-109236810D01*
X128113609Y-109236811D01*
X128113609Y-109236812D01*
X128113608Y-109236814D01*
X128079500Y-109364108D01*
X128079500Y-109495892D01*
X128084754Y-109515499D01*
X128113608Y-109623187D01*
X128135796Y-109661617D01*
X128179500Y-109737314D01*
X128272686Y-109830500D01*
X128386814Y-109896392D01*
X128514108Y-109930500D01*
X128514110Y-109930500D01*
X128645890Y-109930500D01*
X128645892Y-109930500D01*
X128773186Y-109896392D01*
X128887314Y-109830500D01*
X128980500Y-109737314D01*
X129046392Y-109623186D01*
X129080500Y-109495892D01*
X129080500Y-109364108D01*
X129046392Y-109236814D01*
X129017657Y-109187044D01*
X129001185Y-109119146D01*
X129024037Y-109053119D01*
X129078958Y-109009928D01*
X129148511Y-109003286D01*
X129187044Y-109017657D01*
X129207560Y-109029502D01*
X129236810Y-109046390D01*
X129236814Y-109046392D01*
X129364108Y-109080500D01*
X129364110Y-109080500D01*
X129495890Y-109080500D01*
X129495892Y-109080500D01*
X129623186Y-109046392D01*
X129672953Y-109017659D01*
X129740852Y-109001185D01*
X129806880Y-109024037D01*
X129850071Y-109078957D01*
X129856713Y-109148510D01*
X129842342Y-109187044D01*
X129813608Y-109236812D01*
X129792419Y-109315892D01*
X129779500Y-109364108D01*
X129779500Y-109495892D01*
X129784754Y-109515499D01*
X129813608Y-109623187D01*
X129835796Y-109661617D01*
X129879500Y-109737314D01*
X129972686Y-109830500D01*
X130086814Y-109896392D01*
X130214108Y-109930500D01*
X130214110Y-109930500D01*
X130345890Y-109930500D01*
X130345892Y-109930500D01*
X130473186Y-109896392D01*
X130587314Y-109830500D01*
X130680500Y-109737314D01*
X130746392Y-109623186D01*
X130780500Y-109495892D01*
X130780500Y-109364108D01*
X130746392Y-109236814D01*
X130717657Y-109187044D01*
X130701185Y-109119146D01*
X130724037Y-109053119D01*
X130778958Y-109009928D01*
X130848511Y-109003286D01*
X130887044Y-109017657D01*
X130907560Y-109029502D01*
X130936810Y-109046390D01*
X130936814Y-109046392D01*
X131064108Y-109080500D01*
X131064110Y-109080500D01*
X131195890Y-109080500D01*
X131195892Y-109080500D01*
X131323186Y-109046392D01*
X131372953Y-109017659D01*
X131440852Y-109001185D01*
X131506880Y-109024037D01*
X131550071Y-109078957D01*
X131556713Y-109148510D01*
X131542342Y-109187044D01*
X131513608Y-109236812D01*
X131492419Y-109315892D01*
X131479500Y-109364108D01*
X131479500Y-109495892D01*
X131484754Y-109515499D01*
X131513608Y-109623187D01*
X131535796Y-109661617D01*
X131579500Y-109737314D01*
X131672686Y-109830500D01*
X131786814Y-109896392D01*
X131914108Y-109930500D01*
X131914110Y-109930500D01*
X132045890Y-109930500D01*
X132045892Y-109930500D01*
X132173186Y-109896392D01*
X132287314Y-109830500D01*
X132380500Y-109737314D01*
X132446392Y-109623186D01*
X132480500Y-109495892D01*
X132480500Y-109364108D01*
X132446392Y-109236814D01*
X132380500Y-109122686D01*
X132287314Y-109029500D01*
X132222953Y-108992341D01*
X132173187Y-108963608D01*
X132095092Y-108942683D01*
X132045892Y-108929500D01*
X131914108Y-108929500D01*
X131786812Y-108963608D01*
X131737044Y-108992342D01*
X131669144Y-109008814D01*
X131603117Y-108985961D01*
X131559927Y-108931039D01*
X131553286Y-108861486D01*
X131567659Y-108822953D01*
X131578065Y-108804928D01*
X131596392Y-108773186D01*
X131630500Y-108645892D01*
X131630500Y-108514108D01*
X131596392Y-108386814D01*
X131567657Y-108337044D01*
X131560880Y-108309108D01*
X190624500Y-108309108D01*
X190624500Y-108440891D01*
X190658608Y-108568187D01*
X190659661Y-108570010D01*
X190724500Y-108682314D01*
X190724502Y-108682316D01*
X190779504Y-108737318D01*
X190812989Y-108798641D01*
X190808005Y-108868333D01*
X190779507Y-108912678D01*
X190749500Y-108942686D01*
X190683608Y-109056812D01*
X190665958Y-109122686D01*
X190649500Y-109184108D01*
X190649500Y-109315892D01*
X190654207Y-109333459D01*
X190683608Y-109443187D01*
X190705378Y-109480893D01*
X190749500Y-109557314D01*
X190842686Y-109650500D01*
X190956814Y-109716392D01*
X191084108Y-109750500D01*
X191084110Y-109750500D01*
X191215890Y-109750500D01*
X191215892Y-109750500D01*
X191343186Y-109716392D01*
X191421281Y-109671304D01*
X194059500Y-109671304D01*
X194059500Y-109848695D01*
X194094103Y-110022658D01*
X194094106Y-110022667D01*
X194161983Y-110186540D01*
X194161990Y-110186553D01*
X194260535Y-110334034D01*
X194260538Y-110334038D01*
X194385961Y-110459461D01*
X194385965Y-110459464D01*
X194533446Y-110558009D01*
X194533459Y-110558016D01*
X194636024Y-110600499D01*
X194697334Y-110625894D01*
X194697336Y-110625894D01*
X194697341Y-110625896D01*
X194871304Y-110660499D01*
X194871307Y-110660500D01*
X194871309Y-110660500D01*
X195048693Y-110660500D01*
X195048694Y-110660499D01*
X195139982Y-110642341D01*
X195222658Y-110625896D01*
X195222661Y-110625894D01*
X195222666Y-110625894D01*
X195386547Y-110558013D01*
X195534035Y-110459464D01*
X195659464Y-110334035D01*
X195758013Y-110186547D01*
X195766569Y-110165892D01*
X195790969Y-110106983D01*
X195825894Y-110022666D01*
X195829508Y-110004500D01*
X195860499Y-109848695D01*
X195860500Y-109848693D01*
X195860500Y-109671313D01*
X195860498Y-109671297D01*
X195825896Y-109497341D01*
X195825893Y-109497332D01*
X195758016Y-109333459D01*
X195758009Y-109333446D01*
X195659464Y-109185965D01*
X195659461Y-109185961D01*
X195534038Y-109060538D01*
X195534034Y-109060535D01*
X195386553Y-108961990D01*
X195386540Y-108961983D01*
X195222667Y-108894106D01*
X195222658Y-108894103D01*
X195048694Y-108859500D01*
X195048691Y-108859500D01*
X194871309Y-108859500D01*
X194871306Y-108859500D01*
X194697341Y-108894103D01*
X194697332Y-108894106D01*
X194533459Y-108961983D01*
X194533446Y-108961990D01*
X194385965Y-109060535D01*
X194385961Y-109060538D01*
X194260538Y-109185961D01*
X194260535Y-109185965D01*
X194161990Y-109333446D01*
X194161983Y-109333459D01*
X194094106Y-109497332D01*
X194094103Y-109497341D01*
X194059500Y-109671304D01*
X191421281Y-109671304D01*
X191457314Y-109650500D01*
X191550500Y-109557314D01*
X191616392Y-109443186D01*
X191650500Y-109315892D01*
X191650500Y-109184108D01*
X191616392Y-109056814D01*
X191550500Y-108942686D01*
X191495495Y-108887681D01*
X191462010Y-108826358D01*
X191466994Y-108756666D01*
X191495495Y-108712319D01*
X191504123Y-108703691D01*
X191525500Y-108682314D01*
X191591392Y-108568186D01*
X191625500Y-108440892D01*
X191625500Y-108309108D01*
X191591392Y-108181814D01*
X191525500Y-108067686D01*
X191432314Y-107974500D01*
X191365500Y-107935925D01*
X191318187Y-107908608D01*
X191254539Y-107891554D01*
X191190892Y-107874500D01*
X191059108Y-107874500D01*
X190931812Y-107908608D01*
X190817686Y-107974500D01*
X190817683Y-107974502D01*
X190724502Y-108067683D01*
X190724500Y-108067686D01*
X190658608Y-108181812D01*
X190624500Y-108309108D01*
X131560880Y-108309108D01*
X131551185Y-108269146D01*
X131574037Y-108203119D01*
X131628958Y-108159928D01*
X131698511Y-108153286D01*
X131737044Y-108167657D01*
X131761561Y-108181812D01*
X131786810Y-108196390D01*
X131786814Y-108196392D01*
X131914108Y-108230500D01*
X131914110Y-108230500D01*
X132045890Y-108230500D01*
X132045892Y-108230500D01*
X132173186Y-108196392D01*
X132173762Y-108196059D01*
X132178032Y-108193595D01*
X132178033Y-108193594D01*
X132280595Y-108134379D01*
X132287314Y-108130500D01*
X132380500Y-108037314D01*
X132446392Y-107923186D01*
X132480500Y-107795892D01*
X132480500Y-107664108D01*
X132446392Y-107536814D01*
X132380500Y-107422686D01*
X132287314Y-107329500D01*
X132230250Y-107296554D01*
X132173187Y-107263608D01*
X132059760Y-107233216D01*
X132045892Y-107229500D01*
X131914108Y-107229500D01*
X131786812Y-107263608D01*
X131672686Y-107329500D01*
X131672683Y-107329502D01*
X131579502Y-107422683D01*
X131579500Y-107422686D01*
X131513608Y-107536812D01*
X131481070Y-107658248D01*
X131479500Y-107664108D01*
X131479500Y-107795892D01*
X131511558Y-107915536D01*
X131513609Y-107923188D01*
X131513609Y-107923189D01*
X131542341Y-107972954D01*
X131558814Y-108040854D01*
X131535961Y-108106881D01*
X131481040Y-108150072D01*
X131411487Y-108156713D01*
X131372954Y-108142341D01*
X131323189Y-108113609D01*
X131323186Y-108113608D01*
X131195892Y-108079500D01*
X131064108Y-108079500D01*
X130936812Y-108113608D01*
X130887044Y-108142342D01*
X130819144Y-108158814D01*
X130753117Y-108135961D01*
X130709927Y-108081039D01*
X130703286Y-108011486D01*
X130717659Y-107972953D01*
X130746389Y-107923191D01*
X130746390Y-107923189D01*
X130746392Y-107923186D01*
X130780500Y-107795892D01*
X130780500Y-107664108D01*
X130746392Y-107536814D01*
X130680500Y-107422686D01*
X130587314Y-107329500D01*
X130530250Y-107296554D01*
X130473187Y-107263608D01*
X130359760Y-107233216D01*
X130345892Y-107229500D01*
X130214108Y-107229500D01*
X130086812Y-107263608D01*
X129972686Y-107329500D01*
X129972683Y-107329502D01*
X129879502Y-107422683D01*
X129879500Y-107422686D01*
X129813608Y-107536812D01*
X129781070Y-107658248D01*
X129779500Y-107664108D01*
X129779500Y-107795892D01*
X129811558Y-107915536D01*
X129813609Y-107923188D01*
X129813609Y-107923189D01*
X129842341Y-107972954D01*
X129858814Y-108040854D01*
X129835961Y-108106881D01*
X129781040Y-108150072D01*
X129711487Y-108156713D01*
X129672954Y-108142341D01*
X129623189Y-108113609D01*
X129623186Y-108113608D01*
X129495892Y-108079500D01*
X129364108Y-108079500D01*
X129236812Y-108113608D01*
X129187044Y-108142342D01*
X129119144Y-108158814D01*
X129053117Y-108135961D01*
X129009927Y-108081039D01*
X129003286Y-108011486D01*
X129017659Y-107972953D01*
X129046389Y-107923191D01*
X129046390Y-107923189D01*
X129046392Y-107923186D01*
X129080500Y-107795892D01*
X129080500Y-107664108D01*
X129046392Y-107536814D01*
X128980500Y-107422686D01*
X128887314Y-107329500D01*
X128830250Y-107296554D01*
X128773187Y-107263608D01*
X128659760Y-107233216D01*
X128645892Y-107229500D01*
X128514108Y-107229500D01*
X128386812Y-107263608D01*
X128272686Y-107329500D01*
X128272683Y-107329502D01*
X128179502Y-107422683D01*
X128179500Y-107422686D01*
X128113608Y-107536812D01*
X128081070Y-107658248D01*
X128079500Y-107664108D01*
X127330500Y-107664108D01*
X127296392Y-107536814D01*
X127230500Y-107422686D01*
X127137314Y-107329500D01*
X127080250Y-107296554D01*
X127023187Y-107263608D01*
X126909760Y-107233216D01*
X126895892Y-107229500D01*
X126764108Y-107229500D01*
X126636812Y-107263608D01*
X126522686Y-107329500D01*
X126522683Y-107329502D01*
X126429502Y-107422683D01*
X126429500Y-107422686D01*
X126363608Y-107536812D01*
X126331070Y-107658248D01*
X126329500Y-107664108D01*
X93313856Y-107664108D01*
X93314440Y-106411421D01*
X123174500Y-106411421D01*
X123174500Y-106588579D01*
X123187710Y-106671983D01*
X123202214Y-106763556D01*
X123256956Y-106932039D01*
X123256957Y-106932042D01*
X123313721Y-107043446D01*
X123337386Y-107089890D01*
X123441517Y-107233214D01*
X123566786Y-107358483D01*
X123710110Y-107462614D01*
X123750940Y-107483418D01*
X123867957Y-107543042D01*
X123867960Y-107543043D01*
X123952201Y-107570414D01*
X124036445Y-107597786D01*
X124211421Y-107625500D01*
X124211422Y-107625500D01*
X124388578Y-107625500D01*
X124388579Y-107625500D01*
X124563555Y-107597786D01*
X124732042Y-107543042D01*
X124889890Y-107462614D01*
X125033214Y-107358483D01*
X125158483Y-107233214D01*
X125262614Y-107089890D01*
X125343042Y-106932042D01*
X125397786Y-106763555D01*
X125425500Y-106588579D01*
X125425500Y-106411421D01*
X143174500Y-106411421D01*
X143174500Y-106588579D01*
X143187710Y-106671983D01*
X143202214Y-106763556D01*
X143256956Y-106932039D01*
X143256957Y-106932042D01*
X143313721Y-107043446D01*
X143337386Y-107089890D01*
X143441517Y-107233214D01*
X143566786Y-107358483D01*
X143710110Y-107462614D01*
X143750940Y-107483418D01*
X143867957Y-107543042D01*
X143867960Y-107543043D01*
X143952201Y-107570414D01*
X144036445Y-107597786D01*
X144211421Y-107625500D01*
X144211422Y-107625500D01*
X144388578Y-107625500D01*
X144388579Y-107625500D01*
X144563555Y-107597786D01*
X144732042Y-107543042D01*
X144889890Y-107462614D01*
X145033214Y-107358483D01*
X145158483Y-107233214D01*
X145262614Y-107089890D01*
X145343042Y-106932042D01*
X145397786Y-106763555D01*
X145425500Y-106588579D01*
X145425500Y-106411421D01*
X148174500Y-106411421D01*
X148174500Y-106588579D01*
X148187710Y-106671983D01*
X148202214Y-106763556D01*
X148256956Y-106932039D01*
X148256957Y-106932042D01*
X148313721Y-107043446D01*
X148337386Y-107089890D01*
X148441517Y-107233214D01*
X148566786Y-107358483D01*
X148710110Y-107462614D01*
X148750940Y-107483418D01*
X148867957Y-107543042D01*
X148867960Y-107543043D01*
X148952201Y-107570414D01*
X149036445Y-107597786D01*
X149211421Y-107625500D01*
X149211422Y-107625500D01*
X149388578Y-107625500D01*
X149388579Y-107625500D01*
X149563555Y-107597786D01*
X149732042Y-107543042D01*
X149889890Y-107462614D01*
X150001804Y-107381304D01*
X194059500Y-107381304D01*
X194059500Y-107558695D01*
X194094103Y-107732658D01*
X194094106Y-107732667D01*
X194161983Y-107896540D01*
X194161990Y-107896553D01*
X194260535Y-108044034D01*
X194260538Y-108044038D01*
X194385961Y-108169461D01*
X194385965Y-108169464D01*
X194533446Y-108268009D01*
X194533459Y-108268016D01*
X194607080Y-108298510D01*
X194697334Y-108335894D01*
X194697336Y-108335894D01*
X194697341Y-108335896D01*
X194871304Y-108370499D01*
X194871307Y-108370500D01*
X194871309Y-108370500D01*
X195048693Y-108370500D01*
X195048694Y-108370499D01*
X195139982Y-108352341D01*
X195222658Y-108335896D01*
X195222661Y-108335894D01*
X195222666Y-108335894D01*
X195386547Y-108268013D01*
X195534035Y-108169464D01*
X195659464Y-108044035D01*
X195758013Y-107896547D01*
X195825894Y-107732666D01*
X195829508Y-107714500D01*
X195860499Y-107558695D01*
X195860500Y-107558693D01*
X195860500Y-107381306D01*
X195860499Y-107381304D01*
X195825896Y-107207341D01*
X195825893Y-107207332D01*
X195758016Y-107043459D01*
X195758009Y-107043446D01*
X195659464Y-106895965D01*
X195659461Y-106895961D01*
X195534038Y-106770538D01*
X195534034Y-106770535D01*
X195386553Y-106671990D01*
X195386540Y-106671983D01*
X195222667Y-106604106D01*
X195222658Y-106604103D01*
X195048694Y-106569500D01*
X195048691Y-106569500D01*
X194871309Y-106569500D01*
X194871306Y-106569500D01*
X194697341Y-106604103D01*
X194697332Y-106604106D01*
X194533459Y-106671983D01*
X194533446Y-106671990D01*
X194385965Y-106770535D01*
X194385961Y-106770538D01*
X194260538Y-106895961D01*
X194260535Y-106895965D01*
X194161990Y-107043446D01*
X194161983Y-107043459D01*
X194094106Y-107207332D01*
X194094103Y-107207341D01*
X194059500Y-107381304D01*
X150001804Y-107381304D01*
X150033214Y-107358483D01*
X150158483Y-107233214D01*
X150262614Y-107089890D01*
X150343042Y-106932042D01*
X150397786Y-106763555D01*
X150425500Y-106588579D01*
X150425500Y-106411421D01*
X150397786Y-106236445D01*
X150364523Y-106134070D01*
X150343043Y-106067960D01*
X150343042Y-106067957D01*
X150262613Y-105910109D01*
X150240346Y-105879461D01*
X150158483Y-105766786D01*
X150132388Y-105740691D01*
X189249500Y-105740691D01*
X189249500Y-105859309D01*
X189280201Y-105973886D01*
X189339511Y-106076613D01*
X189423387Y-106160489D01*
X189526114Y-106219799D01*
X189640691Y-106250500D01*
X189640694Y-106250500D01*
X189759306Y-106250500D01*
X189759309Y-106250500D01*
X189848441Y-106226617D01*
X196250000Y-106226617D01*
X196250000Y-106423382D01*
X196280778Y-106617705D01*
X196341581Y-106804835D01*
X196430905Y-106980145D01*
X196456319Y-107015125D01*
X196456320Y-107015125D01*
X197017037Y-106454408D01*
X197034075Y-106517993D01*
X197099901Y-106632007D01*
X197192993Y-106725099D01*
X197307007Y-106790925D01*
X197370590Y-106807962D01*
X196809873Y-107368677D01*
X196809873Y-107368678D01*
X196844858Y-107394096D01*
X197020164Y-107483418D01*
X197181658Y-107535891D01*
X197239333Y-107575328D01*
X197266532Y-107639687D01*
X197254617Y-107708533D01*
X197207373Y-107760009D01*
X197190793Y-107768383D01*
X197073455Y-107816985D01*
X197073446Y-107816990D01*
X196925965Y-107915535D01*
X196925961Y-107915538D01*
X196800538Y-108040961D01*
X196800535Y-108040965D01*
X196701990Y-108188446D01*
X196701983Y-108188459D01*
X196634106Y-108352332D01*
X196634103Y-108352341D01*
X196599500Y-108526304D01*
X196599500Y-108703695D01*
X196634103Y-108877658D01*
X196634106Y-108877667D01*
X196701983Y-109041540D01*
X196701990Y-109041553D01*
X196800535Y-109189034D01*
X196800538Y-109189038D01*
X196925961Y-109314461D01*
X196925965Y-109314464D01*
X197073446Y-109413009D01*
X197073459Y-109413016D01*
X197146300Y-109443187D01*
X197237334Y-109480894D01*
X197237336Y-109480894D01*
X197237341Y-109480896D01*
X197411304Y-109515499D01*
X197411307Y-109515500D01*
X197411309Y-109515500D01*
X197588693Y-109515500D01*
X197588694Y-109515499D01*
X197679982Y-109497341D01*
X197762658Y-109480896D01*
X197762661Y-109480894D01*
X197762666Y-109480894D01*
X197926547Y-109413013D01*
X198074035Y-109314464D01*
X198199464Y-109189035D01*
X198298013Y-109041547D01*
X198365894Y-108877666D01*
X198365896Y-108877658D01*
X198393400Y-108739388D01*
X198393400Y-108739387D01*
X198400500Y-108703693D01*
X198400500Y-108526306D01*
X198400499Y-108526304D01*
X198365896Y-108352341D01*
X198365893Y-108352332D01*
X198359561Y-108337046D01*
X198330969Y-108268016D01*
X198298016Y-108188459D01*
X198298009Y-108188446D01*
X198199464Y-108040965D01*
X198199461Y-108040961D01*
X198074038Y-107915538D01*
X198074034Y-107915535D01*
X197926553Y-107816990D01*
X197926540Y-107816983D01*
X197809207Y-107768383D01*
X197754803Y-107724542D01*
X197732738Y-107658248D01*
X197750017Y-107590549D01*
X197801154Y-107542938D01*
X197818341Y-107535891D01*
X197979835Y-107483418D01*
X198155143Y-107394095D01*
X198186081Y-107371617D01*
X198790000Y-107371617D01*
X198790000Y-107568382D01*
X198820778Y-107762705D01*
X198881581Y-107949835D01*
X198970905Y-108125145D01*
X198996319Y-108160125D01*
X198996320Y-108160125D01*
X199557037Y-107599408D01*
X199574075Y-107662993D01*
X199639901Y-107777007D01*
X199732993Y-107870099D01*
X199847007Y-107935925D01*
X199910590Y-107952962D01*
X199349873Y-108513677D01*
X199349873Y-108513679D01*
X199351252Y-108514681D01*
X199393918Y-108570010D01*
X199399897Y-108639624D01*
X199394244Y-108659140D01*
X199366231Y-108732678D01*
X199910591Y-109277037D01*
X199847007Y-109294075D01*
X199732993Y-109359901D01*
X199639901Y-109452993D01*
X199574075Y-109567007D01*
X199557037Y-109630590D01*
X198996320Y-109069872D01*
X198996320Y-109069873D01*
X198970902Y-109104859D01*
X198970899Y-109104863D01*
X198881582Y-109280161D01*
X198820778Y-109467294D01*
X198790000Y-109661617D01*
X198790000Y-109858382D01*
X198820778Y-110052705D01*
X198881581Y-110239835D01*
X198970905Y-110415145D01*
X198996319Y-110450125D01*
X198996320Y-110450125D01*
X199557037Y-109889408D01*
X199574075Y-109952993D01*
X199639901Y-110067007D01*
X199732993Y-110160099D01*
X199847007Y-110225925D01*
X199910590Y-110242962D01*
X199349873Y-110803677D01*
X199349873Y-110803679D01*
X199351252Y-110804681D01*
X199393918Y-110860010D01*
X199399897Y-110929624D01*
X199394244Y-110949140D01*
X199366231Y-111022678D01*
X199910591Y-111567037D01*
X199847007Y-111584075D01*
X199732993Y-111649901D01*
X199639901Y-111742993D01*
X199574075Y-111857007D01*
X199557037Y-111920590D01*
X198996320Y-111359872D01*
X198996320Y-111359873D01*
X198970902Y-111394859D01*
X198970899Y-111394863D01*
X198881582Y-111570161D01*
X198820778Y-111757294D01*
X198790000Y-111951617D01*
X198790000Y-112148382D01*
X198820778Y-112342705D01*
X198881581Y-112529835D01*
X198970905Y-112705145D01*
X198996319Y-112740125D01*
X198996320Y-112740125D01*
X199557037Y-112179408D01*
X199574075Y-112242993D01*
X199639901Y-112357007D01*
X199732993Y-112450099D01*
X199847007Y-112515925D01*
X199910590Y-112532962D01*
X199349873Y-113093677D01*
X199349873Y-113093678D01*
X199384858Y-113119096D01*
X199560164Y-113208418D01*
X199721658Y-113260891D01*
X199779333Y-113300328D01*
X199806532Y-113364687D01*
X199794617Y-113433533D01*
X199747373Y-113485009D01*
X199730793Y-113493383D01*
X199613455Y-113541985D01*
X199613446Y-113541990D01*
X199465965Y-113640535D01*
X199465961Y-113640538D01*
X199340538Y-113765961D01*
X199340535Y-113765965D01*
X199241990Y-113913446D01*
X199241983Y-113913459D01*
X199174106Y-114077332D01*
X199174103Y-114077341D01*
X199139500Y-114251304D01*
X199139500Y-114428695D01*
X199174103Y-114602658D01*
X199174106Y-114602667D01*
X199241983Y-114766540D01*
X199241990Y-114766553D01*
X199340535Y-114914034D01*
X199340538Y-114914038D01*
X199465961Y-115039461D01*
X199465965Y-115039464D01*
X199613446Y-115138009D01*
X199613459Y-115138016D01*
X199736363Y-115188923D01*
X199777334Y-115205894D01*
X199777336Y-115205894D01*
X199777341Y-115205896D01*
X199951304Y-115240499D01*
X199951307Y-115240500D01*
X199951309Y-115240500D01*
X200128693Y-115240500D01*
X200128694Y-115240499D01*
X200186682Y-115228964D01*
X200302658Y-115205896D01*
X200302661Y-115205894D01*
X200302666Y-115205894D01*
X200466547Y-115138013D01*
X200614035Y-115039464D01*
X200739464Y-114914035D01*
X200838013Y-114766547D01*
X200905894Y-114602666D01*
X200916050Y-114551612D01*
X200940499Y-114428695D01*
X200940500Y-114428693D01*
X200940500Y-114251306D01*
X200940499Y-114251304D01*
X200905896Y-114077341D01*
X200905893Y-114077332D01*
X200838016Y-113913459D01*
X200838009Y-113913446D01*
X200739464Y-113765965D01*
X200739461Y-113765961D01*
X200614038Y-113640538D01*
X200614034Y-113640535D01*
X200466553Y-113541990D01*
X200466540Y-113541983D01*
X200349207Y-113493383D01*
X200294803Y-113449542D01*
X200272738Y-113383248D01*
X200290017Y-113315549D01*
X200341154Y-113267938D01*
X200358341Y-113260891D01*
X200519835Y-113208418D01*
X200695143Y-113119095D01*
X200730125Y-113093678D01*
X200730126Y-113093678D01*
X200169410Y-112532962D01*
X200232993Y-112515925D01*
X200347007Y-112450099D01*
X200440099Y-112357007D01*
X200505925Y-112242993D01*
X200522962Y-112179410D01*
X201083678Y-112740126D01*
X201083678Y-112740125D01*
X201109095Y-112705143D01*
X201198418Y-112529835D01*
X201259221Y-112342705D01*
X201290000Y-112148382D01*
X201290000Y-111951617D01*
X201259221Y-111757294D01*
X201198418Y-111570164D01*
X201109096Y-111394858D01*
X201083678Y-111359873D01*
X201083677Y-111359873D01*
X200522962Y-111920589D01*
X200505925Y-111857007D01*
X200440099Y-111742993D01*
X200347007Y-111649901D01*
X200232993Y-111584075D01*
X200169409Y-111567037D01*
X200730125Y-111006320D01*
X200730125Y-111006319D01*
X200728747Y-111005318D01*
X200686081Y-110949989D01*
X200680100Y-110880376D01*
X200712705Y-110818580D01*
X200728747Y-110804680D01*
X200730126Y-110803678D01*
X200169410Y-110242962D01*
X200232993Y-110225925D01*
X200347007Y-110160099D01*
X200440099Y-110067007D01*
X200505925Y-109952993D01*
X200522962Y-109889410D01*
X201083678Y-110450126D01*
X201083678Y-110450125D01*
X201109095Y-110415143D01*
X201198418Y-110239835D01*
X201259221Y-110052705D01*
X201290000Y-109858382D01*
X201290000Y-109661617D01*
X201259221Y-109467294D01*
X201198418Y-109280164D01*
X201109096Y-109104858D01*
X201083678Y-109069873D01*
X201083677Y-109069873D01*
X200522962Y-109630589D01*
X200505925Y-109567007D01*
X200440099Y-109452993D01*
X200347007Y-109359901D01*
X200232993Y-109294075D01*
X200169409Y-109277037D01*
X200730125Y-108716320D01*
X200730125Y-108716319D01*
X200728747Y-108715318D01*
X200686081Y-108659989D01*
X200680100Y-108590376D01*
X200712705Y-108528580D01*
X200728747Y-108514680D01*
X200730126Y-108513678D01*
X200169410Y-107952962D01*
X200232993Y-107935925D01*
X200347007Y-107870099D01*
X200440099Y-107777007D01*
X200505925Y-107662993D01*
X200522962Y-107599410D01*
X201083678Y-108160126D01*
X201083678Y-108160125D01*
X201109095Y-108125143D01*
X201198418Y-107949835D01*
X201259221Y-107762705D01*
X201290000Y-107568382D01*
X201290000Y-107371617D01*
X201259221Y-107177294D01*
X201198418Y-106990164D01*
X201109096Y-106814858D01*
X201083678Y-106779873D01*
X201083677Y-106779873D01*
X200522962Y-107340589D01*
X200505925Y-107277007D01*
X200440099Y-107162993D01*
X200347007Y-107069901D01*
X200232993Y-107004075D01*
X200169409Y-106987037D01*
X200730125Y-106426320D01*
X200730125Y-106426319D01*
X200695145Y-106400905D01*
X200519835Y-106311581D01*
X200358341Y-106259108D01*
X200300665Y-106219670D01*
X200273467Y-106155312D01*
X200285382Y-106086465D01*
X200332626Y-106034990D01*
X200349192Y-106026622D01*
X200466547Y-105978013D01*
X200614035Y-105879464D01*
X200739464Y-105754035D01*
X200838013Y-105606547D01*
X200905894Y-105442666D01*
X200906522Y-105439513D01*
X200940499Y-105268695D01*
X200940500Y-105268693D01*
X200940500Y-105091306D01*
X200940499Y-105091304D01*
X200905896Y-104917341D01*
X200905893Y-104917332D01*
X200838016Y-104753459D01*
X200838009Y-104753446D01*
X200739464Y-104605965D01*
X200739461Y-104605961D01*
X200614038Y-104480538D01*
X200614034Y-104480535D01*
X200466553Y-104381990D01*
X200466540Y-104381983D01*
X200302667Y-104314106D01*
X200302658Y-104314103D01*
X200128694Y-104279500D01*
X200128691Y-104279500D01*
X199951309Y-104279500D01*
X199951306Y-104279500D01*
X199777341Y-104314103D01*
X199777332Y-104314106D01*
X199613459Y-104381983D01*
X199613446Y-104381990D01*
X199465965Y-104480535D01*
X199465961Y-104480538D01*
X199340538Y-104605961D01*
X199340535Y-104605965D01*
X199241990Y-104753446D01*
X199241983Y-104753459D01*
X199174106Y-104917332D01*
X199174103Y-104917341D01*
X199139500Y-105091304D01*
X199139500Y-105268695D01*
X199174103Y-105442658D01*
X199174106Y-105442667D01*
X199241983Y-105606540D01*
X199241990Y-105606553D01*
X199340535Y-105754034D01*
X199340538Y-105754038D01*
X199465961Y-105879461D01*
X199465965Y-105879464D01*
X199613446Y-105978009D01*
X199613459Y-105978016D01*
X199730792Y-106026616D01*
X199785196Y-106070456D01*
X199807261Y-106136750D01*
X199789982Y-106204450D01*
X199738845Y-106252061D01*
X199721659Y-106259108D01*
X199560159Y-106311582D01*
X199384863Y-106400899D01*
X199384859Y-106400902D01*
X199349873Y-106426320D01*
X199349872Y-106426320D01*
X199910590Y-106987037D01*
X199847007Y-107004075D01*
X199732993Y-107069901D01*
X199639901Y-107162993D01*
X199574075Y-107277007D01*
X199557037Y-107340590D01*
X198996320Y-106779872D01*
X198996320Y-106779873D01*
X198970902Y-106814859D01*
X198970899Y-106814863D01*
X198881582Y-106990161D01*
X198820778Y-107177294D01*
X198790000Y-107371617D01*
X198186081Y-107371617D01*
X198190125Y-107368679D01*
X198190125Y-107368677D01*
X197629410Y-106807962D01*
X197692993Y-106790925D01*
X197807007Y-106725099D01*
X197900099Y-106632007D01*
X197965925Y-106517993D01*
X197982962Y-106454410D01*
X198543678Y-107015126D01*
X198543678Y-107015125D01*
X198569095Y-106980143D01*
X198658418Y-106804835D01*
X198719221Y-106617705D01*
X198750000Y-106423382D01*
X198750000Y-106226617D01*
X198719221Y-106032294D01*
X198658418Y-105845164D01*
X198569096Y-105669858D01*
X198543678Y-105634873D01*
X198543677Y-105634873D01*
X197982962Y-106195589D01*
X197965925Y-106132007D01*
X197900099Y-106017993D01*
X197807007Y-105924901D01*
X197692993Y-105859075D01*
X197629409Y-105842037D01*
X198190125Y-105281320D01*
X198190125Y-105281319D01*
X198155145Y-105255905D01*
X198036989Y-105195702D01*
X198036987Y-105195700D01*
X197979838Y-105166582D01*
X197818341Y-105114108D01*
X197760665Y-105074670D01*
X197733467Y-105010312D01*
X197745382Y-104941465D01*
X197792626Y-104889990D01*
X197809192Y-104881622D01*
X197926547Y-104833013D01*
X198074035Y-104734464D01*
X198199464Y-104609035D01*
X198298013Y-104461547D01*
X198365894Y-104297666D01*
X198369508Y-104279500D01*
X198400499Y-104123695D01*
X198400500Y-104123693D01*
X198400500Y-103946306D01*
X198400499Y-103946304D01*
X198365896Y-103772341D01*
X198365893Y-103772332D01*
X198298016Y-103608459D01*
X198298009Y-103608446D01*
X198199464Y-103460965D01*
X198199461Y-103460961D01*
X198074038Y-103335538D01*
X198074034Y-103335535D01*
X197926553Y-103236990D01*
X197926540Y-103236983D01*
X197762667Y-103169106D01*
X197762658Y-103169103D01*
X197588694Y-103134500D01*
X197588691Y-103134500D01*
X197411309Y-103134500D01*
X197411306Y-103134500D01*
X197237341Y-103169103D01*
X197237332Y-103169106D01*
X197073459Y-103236983D01*
X197073446Y-103236990D01*
X196925965Y-103335535D01*
X196925961Y-103335538D01*
X196800538Y-103460961D01*
X196800535Y-103460965D01*
X196701990Y-103608446D01*
X196701983Y-103608459D01*
X196634106Y-103772332D01*
X196634103Y-103772341D01*
X196599500Y-103946304D01*
X196599500Y-104123695D01*
X196634103Y-104297658D01*
X196634106Y-104297667D01*
X196701983Y-104461540D01*
X196701990Y-104461553D01*
X196800535Y-104609034D01*
X196800538Y-104609038D01*
X196925961Y-104734461D01*
X196925965Y-104734464D01*
X197073446Y-104833009D01*
X197073459Y-104833016D01*
X197190792Y-104881616D01*
X197245196Y-104925456D01*
X197267261Y-104991750D01*
X197249982Y-105059450D01*
X197198845Y-105107061D01*
X197181659Y-105114108D01*
X197020159Y-105166582D01*
X196844863Y-105255899D01*
X196844859Y-105255902D01*
X196809873Y-105281320D01*
X196809872Y-105281320D01*
X197370590Y-105842037D01*
X197307007Y-105859075D01*
X197192993Y-105924901D01*
X197099901Y-106017993D01*
X197034075Y-106132007D01*
X197017037Y-106195590D01*
X196456320Y-105634872D01*
X196456320Y-105634873D01*
X196430902Y-105669859D01*
X196430899Y-105669863D01*
X196341582Y-105845161D01*
X196280778Y-106032294D01*
X196250000Y-106226617D01*
X189848441Y-106226617D01*
X189873886Y-106219799D01*
X189976613Y-106160489D01*
X190060489Y-106076613D01*
X190119799Y-105973886D01*
X190150500Y-105859309D01*
X190150500Y-105740691D01*
X190119799Y-105626114D01*
X190060489Y-105523387D01*
X189976613Y-105439511D01*
X189873886Y-105380201D01*
X189759309Y-105349500D01*
X189640691Y-105349500D01*
X189526114Y-105380201D01*
X189526112Y-105380201D01*
X189526112Y-105380202D01*
X189423387Y-105439511D01*
X189423384Y-105439513D01*
X189339513Y-105523384D01*
X189339511Y-105523387D01*
X189318091Y-105560488D01*
X189280201Y-105626114D01*
X189249500Y-105740691D01*
X150132388Y-105740691D01*
X150033214Y-105641517D01*
X149889890Y-105537386D01*
X149862410Y-105523384D01*
X149732042Y-105456957D01*
X149732039Y-105456956D01*
X149563556Y-105402214D01*
X149424579Y-105380202D01*
X149388579Y-105374500D01*
X149211421Y-105374500D01*
X149175427Y-105380201D01*
X149036443Y-105402214D01*
X148867960Y-105456956D01*
X148867957Y-105456957D01*
X148710109Y-105537386D01*
X148678311Y-105560489D01*
X148566786Y-105641517D01*
X148566784Y-105641519D01*
X148566783Y-105641519D01*
X148441519Y-105766783D01*
X148441519Y-105766784D01*
X148441517Y-105766786D01*
X148399222Y-105825000D01*
X148337386Y-105910109D01*
X148256957Y-106067957D01*
X148256956Y-106067960D01*
X148202214Y-106236443D01*
X148198624Y-106259108D01*
X148174500Y-106411421D01*
X145425500Y-106411421D01*
X145397786Y-106236445D01*
X145364523Y-106134070D01*
X145343043Y-106067960D01*
X145343042Y-106067957D01*
X145262613Y-105910109D01*
X145240346Y-105879461D01*
X145158483Y-105766786D01*
X145033214Y-105641517D01*
X144889890Y-105537386D01*
X144862410Y-105523384D01*
X144732042Y-105456957D01*
X144732039Y-105456956D01*
X144563556Y-105402214D01*
X144424579Y-105380202D01*
X144388579Y-105374500D01*
X144211421Y-105374500D01*
X144175427Y-105380201D01*
X144036443Y-105402214D01*
X143867960Y-105456956D01*
X143867957Y-105456957D01*
X143710109Y-105537386D01*
X143678311Y-105560489D01*
X143566786Y-105641517D01*
X143566784Y-105641519D01*
X143566783Y-105641519D01*
X143441519Y-105766783D01*
X143441519Y-105766784D01*
X143441517Y-105766786D01*
X143399222Y-105825000D01*
X143337386Y-105910109D01*
X143256957Y-106067957D01*
X143256956Y-106067960D01*
X143202214Y-106236443D01*
X143198624Y-106259108D01*
X143174500Y-106411421D01*
X125425500Y-106411421D01*
X125397786Y-106236445D01*
X125364523Y-106134070D01*
X125343043Y-106067960D01*
X125343042Y-106067957D01*
X125262613Y-105910109D01*
X125240346Y-105879461D01*
X125158483Y-105766786D01*
X125033214Y-105641517D01*
X124889890Y-105537386D01*
X124862410Y-105523384D01*
X124732042Y-105456957D01*
X124732039Y-105456956D01*
X124563556Y-105402214D01*
X124424579Y-105380202D01*
X124388579Y-105374500D01*
X124211421Y-105374500D01*
X124175427Y-105380201D01*
X124036443Y-105402214D01*
X123867960Y-105456956D01*
X123867957Y-105456957D01*
X123710109Y-105537386D01*
X123678311Y-105560489D01*
X123566786Y-105641517D01*
X123566784Y-105641519D01*
X123566783Y-105641519D01*
X123441519Y-105766783D01*
X123441519Y-105766784D01*
X123441517Y-105766786D01*
X123399222Y-105825000D01*
X123337386Y-105910109D01*
X123256957Y-106067957D01*
X123256956Y-106067960D01*
X123202214Y-106236443D01*
X123198624Y-106259108D01*
X123174500Y-106411421D01*
X93314440Y-106411421D01*
X93315033Y-105140691D01*
X183849500Y-105140691D01*
X183849500Y-105259309D01*
X183880201Y-105373886D01*
X183939511Y-105476613D01*
X184023387Y-105560489D01*
X184126114Y-105619799D01*
X184240691Y-105650500D01*
X184240694Y-105650500D01*
X184359306Y-105650500D01*
X184359309Y-105650500D01*
X184473886Y-105619799D01*
X184576613Y-105560489D01*
X184660489Y-105476613D01*
X184719799Y-105373886D01*
X184750500Y-105259309D01*
X184750500Y-105140691D01*
X184737267Y-105091304D01*
X194059500Y-105091304D01*
X194059500Y-105268695D01*
X194094103Y-105442658D01*
X194094106Y-105442667D01*
X194161983Y-105606540D01*
X194161990Y-105606553D01*
X194260535Y-105754034D01*
X194260538Y-105754038D01*
X194385961Y-105879461D01*
X194385965Y-105879464D01*
X194533446Y-105978009D01*
X194533459Y-105978016D01*
X194629974Y-106017993D01*
X194697334Y-106045894D01*
X194697336Y-106045894D01*
X194697341Y-106045896D01*
X194871304Y-106080499D01*
X194871307Y-106080500D01*
X194871309Y-106080500D01*
X195048693Y-106080500D01*
X195048694Y-106080499D01*
X195106682Y-106068964D01*
X195222658Y-106045896D01*
X195222661Y-106045894D01*
X195222666Y-106045894D01*
X195386547Y-105978013D01*
X195534035Y-105879464D01*
X195659464Y-105754035D01*
X195758013Y-105606547D01*
X195825894Y-105442666D01*
X195826522Y-105439513D01*
X195860499Y-105268695D01*
X195860500Y-105268693D01*
X195860500Y-105091306D01*
X195860499Y-105091304D01*
X195825896Y-104917341D01*
X195825893Y-104917332D01*
X195758016Y-104753459D01*
X195758009Y-104753446D01*
X195659464Y-104605965D01*
X195659461Y-104605961D01*
X195534038Y-104480538D01*
X195534034Y-104480535D01*
X195386553Y-104381990D01*
X195386540Y-104381983D01*
X195222667Y-104314106D01*
X195222658Y-104314103D01*
X195048694Y-104279500D01*
X195048691Y-104279500D01*
X194871309Y-104279500D01*
X194871306Y-104279500D01*
X194697341Y-104314103D01*
X194697332Y-104314106D01*
X194533459Y-104381983D01*
X194533446Y-104381990D01*
X194385965Y-104480535D01*
X194385961Y-104480538D01*
X194260538Y-104605961D01*
X194260535Y-104605965D01*
X194161990Y-104753446D01*
X194161983Y-104753459D01*
X194094106Y-104917332D01*
X194094103Y-104917341D01*
X194059500Y-105091304D01*
X184737267Y-105091304D01*
X184719799Y-105026114D01*
X184660489Y-104923387D01*
X184576613Y-104839511D01*
X184473886Y-104780201D01*
X184359309Y-104749500D01*
X184240691Y-104749500D01*
X184126114Y-104780201D01*
X184126112Y-104780201D01*
X184126112Y-104780202D01*
X184023387Y-104839511D01*
X184023384Y-104839513D01*
X183939513Y-104923384D01*
X183939511Y-104923387D01*
X183880201Y-105026114D01*
X183849500Y-105140691D01*
X93315033Y-105140691D01*
X93317397Y-100072155D01*
X95774999Y-100072155D01*
X95774999Y-101220000D01*
X96757095Y-101220000D01*
X96724999Y-101381358D01*
X96724999Y-101558642D01*
X96757095Y-101720000D01*
X95774999Y-101720000D01*
X95774999Y-102867844D01*
X95781400Y-102927372D01*
X95781402Y-102927379D01*
X95831644Y-103062086D01*
X95831648Y-103062093D01*
X95917808Y-103177187D01*
X95917811Y-103177190D01*
X96032905Y-103263350D01*
X96032912Y-103263354D01*
X96167619Y-103313596D01*
X96167626Y-103313598D01*
X96227154Y-103319999D01*
X96227171Y-103320000D01*
X97374999Y-103320000D01*
X97374999Y-102337904D01*
X97536357Y-102370000D01*
X97713641Y-102370000D01*
X97874999Y-102337904D01*
X97874999Y-103320000D01*
X99022827Y-103320000D01*
X99022843Y-103319999D01*
X99082371Y-103313598D01*
X99082378Y-103313596D01*
X99217085Y-103263354D01*
X99217092Y-103263350D01*
X99332186Y-103177190D01*
X99332189Y-103177187D01*
X99418349Y-103062093D01*
X99418353Y-103062086D01*
X99468595Y-102927379D01*
X99468597Y-102927372D01*
X99474998Y-102867844D01*
X99474999Y-102867827D01*
X99474999Y-101859108D01*
X192974500Y-101859108D01*
X192974500Y-101990891D01*
X193008608Y-102118187D01*
X193037989Y-102169076D01*
X193074500Y-102232314D01*
X193167686Y-102325500D01*
X193281814Y-102391392D01*
X193409108Y-102425500D01*
X193409110Y-102425500D01*
X193540890Y-102425500D01*
X193540892Y-102425500D01*
X193668186Y-102391392D01*
X193782314Y-102325500D01*
X193849819Y-102257995D01*
X193911142Y-102224510D01*
X193980834Y-102229494D01*
X194025181Y-102257995D01*
X194092686Y-102325500D01*
X194206814Y-102391392D01*
X194334108Y-102425500D01*
X194334110Y-102425500D01*
X194465890Y-102425500D01*
X194465892Y-102425500D01*
X194593186Y-102391392D01*
X194707314Y-102325500D01*
X194800500Y-102232314D01*
X194866392Y-102118186D01*
X194900500Y-101990892D01*
X194900500Y-101859108D01*
X194866392Y-101731814D01*
X194862499Y-101725072D01*
X194857563Y-101716521D01*
X194800500Y-101617686D01*
X194707314Y-101524500D01*
X194650250Y-101491554D01*
X194593187Y-101458608D01*
X194529539Y-101441554D01*
X194465892Y-101424500D01*
X194334108Y-101424500D01*
X194206812Y-101458608D01*
X194092686Y-101524500D01*
X194092683Y-101524502D01*
X194025181Y-101592005D01*
X193963858Y-101625490D01*
X193894166Y-101620506D01*
X193849819Y-101592005D01*
X193782316Y-101524502D01*
X193782314Y-101524500D01*
X193725250Y-101491554D01*
X193668187Y-101458608D01*
X193604539Y-101441554D01*
X193540892Y-101424500D01*
X193409108Y-101424500D01*
X193281812Y-101458608D01*
X193167686Y-101524500D01*
X193167683Y-101524502D01*
X193074502Y-101617683D01*
X193074500Y-101617686D01*
X193008608Y-101731812D01*
X192974500Y-101859108D01*
X99474999Y-101859108D01*
X99474999Y-101720000D01*
X98492903Y-101720000D01*
X98524999Y-101558642D01*
X98524999Y-101381358D01*
X98492903Y-101220000D01*
X99474999Y-101220000D01*
X99474999Y-100072172D01*
X99474998Y-100072155D01*
X99468597Y-100012627D01*
X99468595Y-100012620D01*
X99418353Y-99877913D01*
X99418349Y-99877906D01*
X99332189Y-99762812D01*
X99332186Y-99762809D01*
X99217092Y-99676649D01*
X99217085Y-99676645D01*
X99082378Y-99626403D01*
X99082371Y-99626401D01*
X99022843Y-99620000D01*
X97874999Y-99620000D01*
X97874999Y-100602095D01*
X97713641Y-100570000D01*
X97536357Y-100570000D01*
X97374999Y-100602095D01*
X97374999Y-99620000D01*
X96227154Y-99620000D01*
X96167626Y-99626401D01*
X96167619Y-99626403D01*
X96032912Y-99676645D01*
X96032905Y-99676649D01*
X95917811Y-99762809D01*
X95917808Y-99762812D01*
X95831648Y-99877906D01*
X95831644Y-99877913D01*
X95781402Y-100012620D01*
X95781400Y-100012627D01*
X95774999Y-100072155D01*
X93317397Y-100072155D01*
X93319132Y-96351902D01*
X96124499Y-96351902D01*
X96124499Y-96588097D01*
X96161445Y-96821368D01*
X96234432Y-97045996D01*
X96311803Y-97197844D01*
X96341656Y-97256433D01*
X96480482Y-97447510D01*
X96647489Y-97614517D01*
X96838566Y-97753343D01*
X96931113Y-97800498D01*
X97049002Y-97860566D01*
X97049004Y-97860566D01*
X97049007Y-97860568D01*
X97150392Y-97893510D01*
X97273630Y-97933553D01*
X97506902Y-97970500D01*
X97506907Y-97970500D01*
X97743096Y-97970500D01*
X97976367Y-97933553D01*
X97981011Y-97932044D01*
X98200991Y-97860568D01*
X98411432Y-97753343D01*
X98602509Y-97614517D01*
X98769516Y-97447510D01*
X98906398Y-97259108D01*
X113274500Y-97259108D01*
X113274500Y-97390891D01*
X113308608Y-97518187D01*
X113334416Y-97562887D01*
X113374500Y-97632314D01*
X113467686Y-97725500D01*
X113553232Y-97774890D01*
X113581810Y-97791390D01*
X113581814Y-97791392D01*
X113709108Y-97825500D01*
X113709110Y-97825500D01*
X113840890Y-97825500D01*
X113840892Y-97825500D01*
X113968186Y-97791392D01*
X114017953Y-97762659D01*
X114085852Y-97746185D01*
X114151880Y-97769037D01*
X114195071Y-97823957D01*
X114201713Y-97893510D01*
X114187342Y-97932044D01*
X114158608Y-97981812D01*
X114124500Y-98109108D01*
X114124500Y-98240892D01*
X114145139Y-98317919D01*
X114158609Y-98368188D01*
X114158609Y-98368189D01*
X114187341Y-98417954D01*
X114203814Y-98485854D01*
X114180961Y-98551881D01*
X114126040Y-98595072D01*
X114056487Y-98601713D01*
X114017954Y-98587341D01*
X113968189Y-98558609D01*
X113968186Y-98558608D01*
X113840892Y-98524500D01*
X113709108Y-98524500D01*
X113581812Y-98558608D01*
X113467686Y-98624500D01*
X113467683Y-98624502D01*
X113374502Y-98717683D01*
X113374500Y-98717686D01*
X113308608Y-98831812D01*
X113274500Y-98959108D01*
X113274500Y-99090891D01*
X113308608Y-99218187D01*
X113334802Y-99263555D01*
X113374500Y-99332314D01*
X113467686Y-99425500D01*
X113581814Y-99491392D01*
X113709108Y-99525500D01*
X113709110Y-99525500D01*
X113840890Y-99525500D01*
X113840892Y-99525500D01*
X113968186Y-99491392D01*
X114082314Y-99425500D01*
X114175500Y-99332314D01*
X114241392Y-99218186D01*
X114275500Y-99090892D01*
X114275500Y-98959108D01*
X115024500Y-98959108D01*
X115024500Y-99090891D01*
X115058608Y-99218187D01*
X115084802Y-99263555D01*
X115124500Y-99332314D01*
X115217686Y-99425500D01*
X115331814Y-99491392D01*
X115459108Y-99525500D01*
X115459110Y-99525500D01*
X115590890Y-99525500D01*
X115590892Y-99525500D01*
X115718186Y-99491392D01*
X115832314Y-99425500D01*
X115925500Y-99332314D01*
X115991392Y-99218186D01*
X116025500Y-99090892D01*
X116025500Y-98959108D01*
X116012722Y-98911421D01*
X123174500Y-98911421D01*
X123174500Y-99088579D01*
X123188357Y-99176067D01*
X123202214Y-99263556D01*
X123256956Y-99432039D01*
X123256957Y-99432042D01*
X123287198Y-99491392D01*
X123337386Y-99589890D01*
X123441517Y-99733214D01*
X123566786Y-99858483D01*
X123710110Y-99962614D01*
X123787529Y-100002061D01*
X123867957Y-100043042D01*
X123867960Y-100043043D01*
X123952201Y-100070414D01*
X124036445Y-100097786D01*
X124211421Y-100125500D01*
X124211422Y-100125500D01*
X124388578Y-100125500D01*
X124388579Y-100125500D01*
X124563555Y-100097786D01*
X124732042Y-100043042D01*
X124889890Y-99962614D01*
X125033214Y-99858483D01*
X125158483Y-99733214D01*
X125262614Y-99589890D01*
X125343042Y-99432042D01*
X125397786Y-99263555D01*
X125425500Y-99088579D01*
X125425500Y-98911421D01*
X143174500Y-98911421D01*
X143174500Y-99088579D01*
X143188357Y-99176067D01*
X143202214Y-99263556D01*
X143256956Y-99432039D01*
X143256957Y-99432042D01*
X143287198Y-99491392D01*
X143337386Y-99589890D01*
X143441517Y-99733214D01*
X143566786Y-99858483D01*
X143710110Y-99962614D01*
X143787529Y-100002061D01*
X143867957Y-100043042D01*
X143867960Y-100043043D01*
X143952201Y-100070414D01*
X144036445Y-100097786D01*
X144211421Y-100125500D01*
X144211422Y-100125500D01*
X144388578Y-100125500D01*
X144388579Y-100125500D01*
X144563555Y-100097786D01*
X144732042Y-100043042D01*
X144889890Y-99962614D01*
X145033214Y-99858483D01*
X145158483Y-99733214D01*
X145262614Y-99589890D01*
X145343042Y-99432042D01*
X145397786Y-99263555D01*
X145425500Y-99088579D01*
X145425500Y-98911421D01*
X148174500Y-98911421D01*
X148174500Y-99088579D01*
X148188357Y-99176067D01*
X148202214Y-99263556D01*
X148256956Y-99432039D01*
X148256957Y-99432042D01*
X148287198Y-99491392D01*
X148337386Y-99589890D01*
X148441517Y-99733214D01*
X148566786Y-99858483D01*
X148710110Y-99962614D01*
X148787529Y-100002061D01*
X148867957Y-100043042D01*
X148867960Y-100043043D01*
X148952201Y-100070414D01*
X149036445Y-100097786D01*
X149211421Y-100125500D01*
X149211422Y-100125500D01*
X149388578Y-100125500D01*
X149388579Y-100125500D01*
X149563555Y-100097786D01*
X149732042Y-100043042D01*
X149889890Y-99962614D01*
X150033214Y-99858483D01*
X150158483Y-99733214D01*
X150262614Y-99589890D01*
X150343042Y-99432042D01*
X150397786Y-99263555D01*
X150425500Y-99088579D01*
X150425500Y-98911421D01*
X150397786Y-98736445D01*
X150344467Y-98572344D01*
X150343043Y-98567960D01*
X150343042Y-98567957D01*
X150283280Y-98450669D01*
X150262614Y-98410110D01*
X150158483Y-98266786D01*
X150033214Y-98141517D01*
X149889890Y-98037386D01*
X149732042Y-97956957D01*
X149732039Y-97956956D01*
X149563556Y-97902214D01*
X149476067Y-97888357D01*
X149388579Y-97874500D01*
X149211421Y-97874500D01*
X149153095Y-97883738D01*
X149036443Y-97902214D01*
X148867960Y-97956956D01*
X148867957Y-97956957D01*
X148710109Y-98037386D01*
X148628338Y-98096796D01*
X148566786Y-98141517D01*
X148566784Y-98141519D01*
X148566783Y-98141519D01*
X148441519Y-98266783D01*
X148441519Y-98266784D01*
X148441517Y-98266786D01*
X148404367Y-98317919D01*
X148337386Y-98410109D01*
X148256957Y-98567957D01*
X148256956Y-98567960D01*
X148202214Y-98736443D01*
X148202214Y-98736445D01*
X148174500Y-98911421D01*
X145425500Y-98911421D01*
X145397786Y-98736445D01*
X145344467Y-98572344D01*
X145343043Y-98567960D01*
X145343042Y-98567957D01*
X145283280Y-98450669D01*
X145262614Y-98410110D01*
X145158483Y-98266786D01*
X145033214Y-98141517D01*
X144889890Y-98037386D01*
X144732042Y-97956957D01*
X144732039Y-97956956D01*
X144563556Y-97902214D01*
X144476067Y-97888357D01*
X144388579Y-97874500D01*
X144211421Y-97874500D01*
X144153095Y-97883738D01*
X144036443Y-97902214D01*
X143867960Y-97956956D01*
X143867957Y-97956957D01*
X143710109Y-98037386D01*
X143628338Y-98096796D01*
X143566786Y-98141517D01*
X143566784Y-98141519D01*
X143566783Y-98141519D01*
X143441519Y-98266783D01*
X143441519Y-98266784D01*
X143441517Y-98266786D01*
X143404367Y-98317919D01*
X143337386Y-98410109D01*
X143256957Y-98567957D01*
X143256956Y-98567960D01*
X143202214Y-98736443D01*
X143202214Y-98736445D01*
X143174500Y-98911421D01*
X125425500Y-98911421D01*
X125397786Y-98736445D01*
X125344467Y-98572344D01*
X125343043Y-98567960D01*
X125343042Y-98567957D01*
X125283280Y-98450669D01*
X125262614Y-98410110D01*
X125158483Y-98266786D01*
X125033214Y-98141517D01*
X124889890Y-98037386D01*
X124732042Y-97956957D01*
X124732039Y-97956956D01*
X124563556Y-97902214D01*
X124476067Y-97888357D01*
X124388579Y-97874500D01*
X124211421Y-97874500D01*
X124153095Y-97883738D01*
X124036443Y-97902214D01*
X123867960Y-97956956D01*
X123867957Y-97956957D01*
X123710109Y-98037386D01*
X123628338Y-98096796D01*
X123566786Y-98141517D01*
X123566784Y-98141519D01*
X123566783Y-98141519D01*
X123441519Y-98266783D01*
X123441519Y-98266784D01*
X123441517Y-98266786D01*
X123404367Y-98317919D01*
X123337386Y-98410109D01*
X123256957Y-98567957D01*
X123256956Y-98567960D01*
X123202214Y-98736443D01*
X123202214Y-98736445D01*
X123174500Y-98911421D01*
X116012722Y-98911421D01*
X115991392Y-98831814D01*
X115925500Y-98717686D01*
X115832314Y-98624500D01*
X115747444Y-98575500D01*
X115718187Y-98558608D01*
X115654539Y-98541554D01*
X115590892Y-98524500D01*
X115459108Y-98524500D01*
X115331812Y-98558608D01*
X115242010Y-98610456D01*
X115217686Y-98624500D01*
X115124500Y-98717686D01*
X115106232Y-98749326D01*
X115106230Y-98749329D01*
X115058609Y-98831810D01*
X115058609Y-98831811D01*
X115024500Y-98959108D01*
X114275500Y-98959108D01*
X114241392Y-98831814D01*
X114212657Y-98782044D01*
X114196185Y-98714146D01*
X114219037Y-98648119D01*
X114273958Y-98604928D01*
X114343511Y-98598286D01*
X114382044Y-98612657D01*
X114431814Y-98641392D01*
X114559108Y-98675500D01*
X114559110Y-98675500D01*
X114690890Y-98675500D01*
X114690892Y-98675500D01*
X114818186Y-98641392D01*
X114932314Y-98575500D01*
X115025500Y-98482314D01*
X115091392Y-98368186D01*
X115125500Y-98240892D01*
X115125500Y-98109108D01*
X115091392Y-97981814D01*
X115086659Y-97973617D01*
X115062657Y-97932044D01*
X115025500Y-97867686D01*
X114932314Y-97774500D01*
X114847439Y-97725497D01*
X114818187Y-97708608D01*
X114754539Y-97691554D01*
X114690892Y-97674500D01*
X114559108Y-97674500D01*
X114431812Y-97708608D01*
X114382044Y-97737342D01*
X114314144Y-97753814D01*
X114248117Y-97730961D01*
X114204927Y-97676039D01*
X114198286Y-97606486D01*
X114212659Y-97567953D01*
X114241389Y-97518191D01*
X114241388Y-97518191D01*
X114241392Y-97518186D01*
X114275500Y-97390892D01*
X114275500Y-97259108D01*
X115024500Y-97259108D01*
X115024500Y-97390891D01*
X115058608Y-97518187D01*
X115084416Y-97562887D01*
X115124500Y-97632314D01*
X115217686Y-97725500D01*
X115303232Y-97774890D01*
X115331810Y-97791390D01*
X115331814Y-97791392D01*
X115459108Y-97825500D01*
X115459110Y-97825500D01*
X115590890Y-97825500D01*
X115590892Y-97825500D01*
X115718186Y-97791392D01*
X115832314Y-97725500D01*
X115925500Y-97632314D01*
X115991392Y-97518186D01*
X116025500Y-97390892D01*
X116025500Y-97259108D01*
X115991392Y-97131814D01*
X115925500Y-97017686D01*
X115832314Y-96924500D01*
X115762613Y-96884258D01*
X115718187Y-96858608D01*
X115654539Y-96841554D01*
X115590892Y-96824500D01*
X115459108Y-96824500D01*
X115331812Y-96858608D01*
X115217686Y-96924500D01*
X115217683Y-96924502D01*
X115124502Y-97017683D01*
X115124500Y-97017686D01*
X115058608Y-97131812D01*
X115024500Y-97259108D01*
X114275500Y-97259108D01*
X114241392Y-97131814D01*
X114175500Y-97017686D01*
X114082314Y-96924500D01*
X114012613Y-96884258D01*
X113968187Y-96858608D01*
X113904539Y-96841554D01*
X113840892Y-96824500D01*
X113709108Y-96824500D01*
X113581812Y-96858608D01*
X113467686Y-96924500D01*
X113467683Y-96924502D01*
X113374502Y-97017683D01*
X113374500Y-97017686D01*
X113308608Y-97131812D01*
X113274500Y-97259108D01*
X98906398Y-97259108D01*
X98908342Y-97256433D01*
X98938195Y-97197844D01*
X98939802Y-97194691D01*
X98939804Y-97194686D01*
X99015565Y-97045996D01*
X99015565Y-97045995D01*
X99015567Y-97045992D01*
X99088552Y-96821368D01*
X99107775Y-96700000D01*
X99125499Y-96588097D01*
X99125499Y-96351902D01*
X99088552Y-96118631D01*
X99062014Y-96036957D01*
X99057928Y-96024382D01*
X99015567Y-95894008D01*
X99015565Y-95894005D01*
X99015565Y-95894003D01*
X98908341Y-95683566D01*
X98905809Y-95680081D01*
X98769516Y-95492490D01*
X98602509Y-95325483D01*
X98411432Y-95186657D01*
X98200995Y-95079433D01*
X97976367Y-95006446D01*
X97743096Y-94969500D01*
X97743091Y-94969500D01*
X97506907Y-94969500D01*
X97506902Y-94969500D01*
X97273630Y-95006446D01*
X97049002Y-95079433D01*
X96838565Y-95186657D01*
X96729549Y-95265862D01*
X96647489Y-95325483D01*
X96647487Y-95325485D01*
X96647486Y-95325485D01*
X96480484Y-95492487D01*
X96480484Y-95492488D01*
X96480482Y-95492490D01*
X96420861Y-95574550D01*
X96341656Y-95683566D01*
X96234432Y-95894003D01*
X96161445Y-96118631D01*
X96124499Y-96351902D01*
X93319132Y-96351902D01*
X93320042Y-94402155D01*
X153975000Y-94402155D01*
X153975000Y-95550000D01*
X154957096Y-95550000D01*
X154925000Y-95711358D01*
X154925000Y-95888642D01*
X154957096Y-96050000D01*
X153975000Y-96050000D01*
X153975000Y-97197844D01*
X153981401Y-97257372D01*
X153981403Y-97257379D01*
X154031645Y-97392086D01*
X154031649Y-97392093D01*
X154117809Y-97507187D01*
X154117812Y-97507190D01*
X154232906Y-97593350D01*
X154232913Y-97593354D01*
X154367620Y-97643596D01*
X154367627Y-97643598D01*
X154427155Y-97649999D01*
X154427172Y-97650000D01*
X155575000Y-97650000D01*
X155575000Y-96667904D01*
X155736358Y-96700000D01*
X155913642Y-96700000D01*
X156075000Y-96667904D01*
X156075000Y-97650000D01*
X157222828Y-97650000D01*
X157222844Y-97649999D01*
X157282372Y-97643598D01*
X157282379Y-97643596D01*
X157417086Y-97593354D01*
X157417093Y-97593350D01*
X157532187Y-97507190D01*
X157532190Y-97507187D01*
X157618350Y-97392093D01*
X157618354Y-97392086D01*
X157668596Y-97257379D01*
X157668598Y-97257372D01*
X157674999Y-97197844D01*
X157675000Y-97197827D01*
X157675000Y-96050000D01*
X156692904Y-96050000D01*
X156725000Y-95888642D01*
X156725000Y-95881995D01*
X180799498Y-95881995D01*
X180799498Y-96118004D01*
X180799499Y-96118020D01*
X180830304Y-96352010D01*
X180891392Y-96579993D01*
X180981712Y-96798045D01*
X180981717Y-96798056D01*
X181031491Y-96884266D01*
X181099725Y-97002450D01*
X181099727Y-97002453D01*
X181099728Y-97002454D01*
X181243404Y-97189697D01*
X181243410Y-97189704D01*
X181410293Y-97356587D01*
X181410299Y-97356592D01*
X181597548Y-97500273D01*
X181705999Y-97562887D01*
X181801941Y-97618280D01*
X181801946Y-97618282D01*
X181801949Y-97618284D01*
X182020005Y-97708606D01*
X182247984Y-97769693D01*
X182481987Y-97800500D01*
X182481994Y-97800500D01*
X182718002Y-97800500D01*
X182718009Y-97800500D01*
X182952012Y-97769693D01*
X183179991Y-97708606D01*
X183398047Y-97618284D01*
X183602448Y-97500273D01*
X183789697Y-97356592D01*
X183956590Y-97189699D01*
X184100271Y-97002450D01*
X184168509Y-96884258D01*
X195749500Y-96884258D01*
X195749500Y-97113741D01*
X195768639Y-97259108D01*
X195779452Y-97341238D01*
X195823918Y-97507190D01*
X195838842Y-97562887D01*
X195926650Y-97774876D01*
X195926657Y-97774890D01*
X196041392Y-97973617D01*
X196181081Y-98155661D01*
X196181089Y-98155670D01*
X196343330Y-98317911D01*
X196343338Y-98317918D01*
X196525382Y-98457607D01*
X196525385Y-98457608D01*
X196525388Y-98457611D01*
X196724112Y-98572344D01*
X196724117Y-98572346D01*
X196724123Y-98572349D01*
X196778982Y-98595072D01*
X196936113Y-98660158D01*
X197157762Y-98719548D01*
X197385266Y-98749500D01*
X197385273Y-98749500D01*
X197614727Y-98749500D01*
X197614734Y-98749500D01*
X197842238Y-98719548D01*
X198063887Y-98660158D01*
X198275888Y-98572344D01*
X198474612Y-98457611D01*
X198656661Y-98317919D01*
X198656665Y-98317914D01*
X198656670Y-98317911D01*
X198818911Y-98155670D01*
X198818914Y-98155665D01*
X198818919Y-98155661D01*
X198958611Y-97973612D01*
X199073344Y-97774888D01*
X199161158Y-97562887D01*
X199220548Y-97341238D01*
X199250500Y-97113734D01*
X199250500Y-96884266D01*
X199220548Y-96656762D01*
X199161158Y-96435113D01*
X199073344Y-96223112D01*
X198958611Y-96024388D01*
X198958608Y-96024385D01*
X198958607Y-96024382D01*
X198818918Y-95842338D01*
X198818911Y-95842330D01*
X198656670Y-95680089D01*
X198656661Y-95680081D01*
X198474617Y-95540392D01*
X198275890Y-95425657D01*
X198275876Y-95425650D01*
X198063887Y-95337842D01*
X197842238Y-95278452D01*
X197804215Y-95273446D01*
X197614741Y-95248500D01*
X197614734Y-95248500D01*
X197385266Y-95248500D01*
X197385258Y-95248500D01*
X197168715Y-95277009D01*
X197157762Y-95278452D01*
X197064076Y-95303554D01*
X196936112Y-95337842D01*
X196724123Y-95425650D01*
X196724109Y-95425657D01*
X196525382Y-95540392D01*
X196343338Y-95680081D01*
X196181081Y-95842338D01*
X196041392Y-96024382D01*
X195926657Y-96223109D01*
X195926650Y-96223123D01*
X195838842Y-96435112D01*
X195779453Y-96656759D01*
X195779451Y-96656770D01*
X195749500Y-96884258D01*
X184168509Y-96884258D01*
X184218282Y-96798049D01*
X184308604Y-96579993D01*
X184369691Y-96352014D01*
X184400498Y-96118011D01*
X184400498Y-95881989D01*
X184369691Y-95647986D01*
X184308604Y-95420007D01*
X184218282Y-95201951D01*
X184218280Y-95201948D01*
X184218278Y-95201943D01*
X184147546Y-95079433D01*
X184100271Y-94997550D01*
X183956590Y-94810301D01*
X183956585Y-94810295D01*
X183789702Y-94643412D01*
X183789695Y-94643406D01*
X183602452Y-94499730D01*
X183602451Y-94499729D01*
X183602448Y-94499727D01*
X183520955Y-94452677D01*
X183398054Y-94381719D01*
X183398043Y-94381714D01*
X183179991Y-94291394D01*
X182952008Y-94230306D01*
X182718018Y-94199501D01*
X182718015Y-94199500D01*
X182718009Y-94199500D01*
X182481987Y-94199500D01*
X182481981Y-94199500D01*
X182481977Y-94199501D01*
X182247987Y-94230306D01*
X182020004Y-94291394D01*
X181801952Y-94381714D01*
X181801941Y-94381719D01*
X181597543Y-94499730D01*
X181410300Y-94643406D01*
X181410293Y-94643412D01*
X181243410Y-94810295D01*
X181243404Y-94810302D01*
X181099728Y-94997545D01*
X180981717Y-95201943D01*
X180981712Y-95201954D01*
X180891392Y-95420006D01*
X180830304Y-95647989D01*
X180799499Y-95881979D01*
X180799498Y-95881995D01*
X156725000Y-95881995D01*
X156725000Y-95711358D01*
X156692904Y-95550000D01*
X157675000Y-95550000D01*
X157675000Y-94402172D01*
X157674999Y-94402155D01*
X157668598Y-94342627D01*
X157668596Y-94342620D01*
X157618354Y-94207913D01*
X157618350Y-94207906D01*
X157532190Y-94092812D01*
X157532187Y-94092809D01*
X157417093Y-94006649D01*
X157417086Y-94006645D01*
X157282379Y-93956403D01*
X157282372Y-93956401D01*
X157222844Y-93950000D01*
X156075000Y-93950000D01*
X156075000Y-94932095D01*
X155913642Y-94900000D01*
X155736358Y-94900000D01*
X155575000Y-94932095D01*
X155575000Y-93950000D01*
X154427155Y-93950000D01*
X154367627Y-93956401D01*
X154367620Y-93956403D01*
X154232913Y-94006645D01*
X154232906Y-94006649D01*
X154117812Y-94092809D01*
X154117809Y-94092812D01*
X154031649Y-94207906D01*
X154031645Y-94207913D01*
X153981403Y-94342620D01*
X153981401Y-94342627D01*
X153975000Y-94402155D01*
X93320042Y-94402155D01*
X93320122Y-94230307D01*
X93320777Y-92825499D01*
X93322570Y-88981902D01*
X96099500Y-88981902D01*
X96099500Y-89218097D01*
X96136446Y-89451368D01*
X96209433Y-89675996D01*
X96259057Y-89773387D01*
X96316657Y-89886433D01*
X96455483Y-90077510D01*
X96622490Y-90244517D01*
X96813567Y-90383343D01*
X96866844Y-90410489D01*
X97024003Y-90490566D01*
X97024005Y-90490566D01*
X97024008Y-90490568D01*
X97144412Y-90529689D01*
X97248631Y-90563553D01*
X97481903Y-90600500D01*
X97481908Y-90600500D01*
X97718097Y-90600500D01*
X97951368Y-90563553D01*
X98175992Y-90490568D01*
X98386433Y-90383343D01*
X98577510Y-90244517D01*
X98744517Y-90077510D01*
X98883343Y-89886433D01*
X98948218Y-89759108D01*
X113299500Y-89759108D01*
X113299500Y-89890891D01*
X113333608Y-90018187D01*
X113362341Y-90067953D01*
X113399500Y-90132314D01*
X113492686Y-90225500D01*
X113591521Y-90282563D01*
X113606810Y-90291390D01*
X113606814Y-90291392D01*
X113734108Y-90325500D01*
X113734110Y-90325500D01*
X113865890Y-90325500D01*
X113865892Y-90325500D01*
X113993186Y-90291392D01*
X114042953Y-90262659D01*
X114110852Y-90246185D01*
X114176880Y-90269037D01*
X114220071Y-90323957D01*
X114226713Y-90393510D01*
X114212342Y-90432044D01*
X114183608Y-90481812D01*
X114181262Y-90490568D01*
X114149500Y-90609108D01*
X114149500Y-90740892D01*
X114178302Y-90848384D01*
X114183609Y-90868188D01*
X114183609Y-90868189D01*
X114212341Y-90917954D01*
X114228814Y-90985854D01*
X114205961Y-91051881D01*
X114151040Y-91095072D01*
X114081487Y-91101713D01*
X114042954Y-91087341D01*
X113993189Y-91058609D01*
X113993186Y-91058608D01*
X113865892Y-91024500D01*
X113734108Y-91024500D01*
X113606812Y-91058608D01*
X113492686Y-91124500D01*
X113492683Y-91124502D01*
X113399502Y-91217683D01*
X113399500Y-91217686D01*
X113333608Y-91331812D01*
X113314905Y-91401615D01*
X113299500Y-91459108D01*
X113299500Y-91590892D01*
X113307245Y-91619797D01*
X113333608Y-91718187D01*
X113366554Y-91775250D01*
X113399500Y-91832314D01*
X113492686Y-91925500D01*
X113606814Y-91991392D01*
X113734108Y-92025500D01*
X113734110Y-92025500D01*
X113865890Y-92025500D01*
X113865892Y-92025500D01*
X113993186Y-91991392D01*
X114107314Y-91925500D01*
X114200500Y-91832314D01*
X114266392Y-91718186D01*
X114300500Y-91590892D01*
X114300500Y-91459108D01*
X115049500Y-91459108D01*
X115049500Y-91590892D01*
X115057245Y-91619797D01*
X115083608Y-91718187D01*
X115116554Y-91775250D01*
X115149500Y-91832314D01*
X115242686Y-91925500D01*
X115356814Y-91991392D01*
X115484108Y-92025500D01*
X115484110Y-92025500D01*
X115615890Y-92025500D01*
X115615892Y-92025500D01*
X115743186Y-91991392D01*
X115857314Y-91925500D01*
X115950500Y-91832314D01*
X116016392Y-91718186D01*
X116045000Y-91611420D01*
X123174498Y-91611420D01*
X123174498Y-91788577D01*
X123202212Y-91963555D01*
X123256954Y-92132038D01*
X123256955Y-92132041D01*
X123323965Y-92263553D01*
X123337384Y-92289889D01*
X123441515Y-92433213D01*
X123566784Y-92558482D01*
X123710108Y-92662613D01*
X123784465Y-92700500D01*
X123867955Y-92743041D01*
X123867958Y-92743042D01*
X123952199Y-92770413D01*
X124036443Y-92797785D01*
X124211419Y-92825499D01*
X124211420Y-92825499D01*
X124388576Y-92825499D01*
X124388577Y-92825499D01*
X124563553Y-92797785D01*
X124732040Y-92743041D01*
X124889888Y-92662613D01*
X125033212Y-92558482D01*
X125158481Y-92433213D01*
X125262612Y-92289889D01*
X125343040Y-92132041D01*
X125397784Y-91963554D01*
X125425498Y-91788578D01*
X125425498Y-91611420D01*
X143174498Y-91611420D01*
X143174498Y-91788577D01*
X143202212Y-91963555D01*
X143256954Y-92132038D01*
X143256955Y-92132041D01*
X143323965Y-92263553D01*
X143337384Y-92289889D01*
X143441515Y-92433213D01*
X143566784Y-92558482D01*
X143710108Y-92662613D01*
X143784465Y-92700500D01*
X143867955Y-92743041D01*
X143867958Y-92743042D01*
X143952199Y-92770413D01*
X144036443Y-92797785D01*
X144211419Y-92825499D01*
X144211420Y-92825499D01*
X144388576Y-92825499D01*
X144388577Y-92825499D01*
X144563553Y-92797785D01*
X144732040Y-92743041D01*
X144889888Y-92662613D01*
X145033212Y-92558482D01*
X145158481Y-92433213D01*
X145262612Y-92289889D01*
X145343040Y-92132041D01*
X145397784Y-91963554D01*
X145425498Y-91788578D01*
X145425498Y-91611420D01*
X148174498Y-91611420D01*
X148174498Y-91788577D01*
X148202212Y-91963555D01*
X148256954Y-92132038D01*
X148256955Y-92132041D01*
X148323965Y-92263553D01*
X148337384Y-92289889D01*
X148441515Y-92433213D01*
X148566784Y-92558482D01*
X148710108Y-92662613D01*
X148784465Y-92700500D01*
X148867955Y-92743041D01*
X148867958Y-92743042D01*
X148952199Y-92770413D01*
X149036443Y-92797785D01*
X149211419Y-92825499D01*
X149211420Y-92825499D01*
X149388576Y-92825499D01*
X149388577Y-92825499D01*
X149563553Y-92797785D01*
X149732040Y-92743041D01*
X149889888Y-92662613D01*
X150033212Y-92558482D01*
X150158481Y-92433213D01*
X150262612Y-92289889D01*
X150343040Y-92132041D01*
X150397784Y-91963554D01*
X150425498Y-91788578D01*
X150425498Y-91611420D01*
X150397784Y-91436444D01*
X150363788Y-91331814D01*
X150343041Y-91267959D01*
X150343040Y-91267956D01*
X150300417Y-91184306D01*
X150262612Y-91110109D01*
X150158481Y-90966785D01*
X150033212Y-90841516D01*
X149889888Y-90737385D01*
X149826724Y-90705201D01*
X149780998Y-90681902D01*
X154324500Y-90681902D01*
X154324500Y-90918097D01*
X154361446Y-91151368D01*
X154434433Y-91375996D01*
X154490223Y-91485489D01*
X154541657Y-91586433D01*
X154680483Y-91777510D01*
X154847490Y-91944517D01*
X155038567Y-92083343D01*
X155134136Y-92132038D01*
X155249003Y-92190566D01*
X155249005Y-92190566D01*
X155249008Y-92190568D01*
X155369412Y-92229689D01*
X155473631Y-92263553D01*
X155706903Y-92300500D01*
X155706908Y-92300500D01*
X155943097Y-92300500D01*
X156176368Y-92263553D01*
X156400613Y-92190691D01*
X202549500Y-92190691D01*
X202549500Y-92309309D01*
X202580201Y-92423886D01*
X202639511Y-92526613D01*
X202723387Y-92610489D01*
X202826114Y-92669799D01*
X202940691Y-92700500D01*
X202940694Y-92700500D01*
X203059306Y-92700500D01*
X203059309Y-92700500D01*
X203173886Y-92669799D01*
X203276613Y-92610489D01*
X203360489Y-92526613D01*
X203419799Y-92423886D01*
X203450500Y-92309309D01*
X203450500Y-92190691D01*
X203419799Y-92076114D01*
X203360489Y-91973387D01*
X203276613Y-91889511D01*
X203173886Y-91830201D01*
X203059309Y-91799500D01*
X202940691Y-91799500D01*
X202826114Y-91830201D01*
X202826112Y-91830201D01*
X202826112Y-91830202D01*
X202723387Y-91889511D01*
X202723384Y-91889513D01*
X202639513Y-91973384D01*
X202639511Y-91973387D01*
X202580201Y-92076114D01*
X202549500Y-92190691D01*
X156400613Y-92190691D01*
X156400992Y-92190568D01*
X156611433Y-92083343D01*
X156802510Y-91944517D01*
X156969517Y-91777510D01*
X157108343Y-91586433D01*
X157215568Y-91375992D01*
X157288553Y-91151368D01*
X157292808Y-91124502D01*
X157302123Y-91065691D01*
X185974500Y-91065691D01*
X185974500Y-91184309D01*
X186005201Y-91298886D01*
X186064511Y-91401613D01*
X186148387Y-91485489D01*
X186251114Y-91544799D01*
X186365691Y-91575500D01*
X186365694Y-91575500D01*
X186484306Y-91575500D01*
X186484309Y-91575500D01*
X186598886Y-91544799D01*
X186701613Y-91485489D01*
X186785489Y-91401613D01*
X186844799Y-91298886D01*
X186875500Y-91184309D01*
X186875500Y-91140691D01*
X205499500Y-91140691D01*
X205499500Y-91259309D01*
X205530201Y-91373886D01*
X205589511Y-91476613D01*
X205673387Y-91560489D01*
X205776114Y-91619799D01*
X205890691Y-91650500D01*
X205890694Y-91650500D01*
X206009306Y-91650500D01*
X206009309Y-91650500D01*
X206123886Y-91619799D01*
X206226613Y-91560489D01*
X206310489Y-91476613D01*
X206310489Y-91476612D01*
X206312319Y-91474783D01*
X206373642Y-91441298D01*
X206443334Y-91446282D01*
X206487681Y-91474783D01*
X206489510Y-91476612D01*
X206489511Y-91476613D01*
X206573387Y-91560489D01*
X206676114Y-91619799D01*
X206790691Y-91650500D01*
X206790694Y-91650500D01*
X206909306Y-91650500D01*
X206909309Y-91650500D01*
X207023886Y-91619799D01*
X207126613Y-91560489D01*
X207210489Y-91476613D01*
X207269799Y-91373886D01*
X207300500Y-91259309D01*
X207300500Y-91140691D01*
X207269799Y-91026114D01*
X207210489Y-90923387D01*
X207126613Y-90839511D01*
X207023886Y-90780201D01*
X206909309Y-90749500D01*
X206790691Y-90749500D01*
X206676114Y-90780201D01*
X206676112Y-90780201D01*
X206676112Y-90780202D01*
X206573387Y-90839511D01*
X206573384Y-90839513D01*
X206487681Y-90925217D01*
X206426358Y-90958702D01*
X206356666Y-90953718D01*
X206312319Y-90925217D01*
X206226615Y-90839513D01*
X206226613Y-90839511D01*
X206123886Y-90780201D01*
X206009309Y-90749500D01*
X205890691Y-90749500D01*
X205776114Y-90780201D01*
X205776112Y-90780201D01*
X205776112Y-90780202D01*
X205673387Y-90839511D01*
X205673384Y-90839513D01*
X205589513Y-90923384D01*
X205589511Y-90923387D01*
X205530201Y-91026114D01*
X205499500Y-91140691D01*
X186875500Y-91140691D01*
X186875500Y-91065691D01*
X186844799Y-90951114D01*
X186785489Y-90848387D01*
X186701613Y-90764511D01*
X186598886Y-90705201D01*
X186484309Y-90674500D01*
X186365691Y-90674500D01*
X186251114Y-90705201D01*
X186251112Y-90705201D01*
X186251112Y-90705202D01*
X186148387Y-90764511D01*
X186148384Y-90764513D01*
X186064513Y-90848384D01*
X186064511Y-90848387D01*
X186024264Y-90918097D01*
X186005201Y-90951114D01*
X185974500Y-91065691D01*
X157302123Y-91065691D01*
X157306483Y-91038166D01*
X157325500Y-90918097D01*
X157325500Y-90681902D01*
X157288553Y-90448631D01*
X157248545Y-90325500D01*
X157215568Y-90224008D01*
X157215566Y-90224005D01*
X157215566Y-90224003D01*
X157121230Y-90038859D01*
X157121229Y-90038857D01*
X157108344Y-90013568D01*
X157091722Y-89990691D01*
X206399500Y-89990691D01*
X206399500Y-90109309D01*
X206430201Y-90223886D01*
X206489511Y-90326613D01*
X206573387Y-90410489D01*
X206676114Y-90469799D01*
X206790691Y-90500500D01*
X206790694Y-90500500D01*
X206909306Y-90500500D01*
X206909309Y-90500500D01*
X207023886Y-90469799D01*
X207126613Y-90410489D01*
X207210489Y-90326613D01*
X207269799Y-90223886D01*
X207300500Y-90109309D01*
X207300500Y-89990691D01*
X207269799Y-89876114D01*
X207210489Y-89773387D01*
X207126613Y-89689511D01*
X207023886Y-89630201D01*
X206909309Y-89599500D01*
X206790691Y-89599500D01*
X206676114Y-89630201D01*
X206676112Y-89630201D01*
X206676112Y-89630202D01*
X206573387Y-89689511D01*
X206573384Y-89689513D01*
X206489513Y-89773384D01*
X206489511Y-89773387D01*
X206430201Y-89876114D01*
X206399500Y-89990691D01*
X157091722Y-89990691D01*
X157087488Y-89984863D01*
X156969517Y-89822490D01*
X156802510Y-89655483D01*
X156611433Y-89516657D01*
X156400996Y-89409433D01*
X156176368Y-89336446D01*
X155943097Y-89299500D01*
X155943092Y-89299500D01*
X155706908Y-89299500D01*
X155706903Y-89299500D01*
X155473631Y-89336446D01*
X155249003Y-89409433D01*
X155038566Y-89516657D01*
X154929550Y-89595862D01*
X154847490Y-89655483D01*
X154847488Y-89655485D01*
X154847487Y-89655485D01*
X154680485Y-89822487D01*
X154680485Y-89822488D01*
X154680483Y-89822490D01*
X154641524Y-89876112D01*
X154541657Y-90013566D01*
X154434433Y-90224003D01*
X154361446Y-90448631D01*
X154324500Y-90681902D01*
X149780998Y-90681902D01*
X149732040Y-90656956D01*
X149732037Y-90656955D01*
X149563554Y-90602213D01*
X149476065Y-90588356D01*
X149388577Y-90574499D01*
X149211419Y-90574499D01*
X149153093Y-90583737D01*
X149036441Y-90602213D01*
X148867958Y-90656955D01*
X148867955Y-90656956D01*
X148710107Y-90737385D01*
X148655095Y-90777354D01*
X148566784Y-90841516D01*
X148566782Y-90841518D01*
X148566781Y-90841518D01*
X148441517Y-90966782D01*
X148441517Y-90966783D01*
X148441515Y-90966785D01*
X148430233Y-90982314D01*
X148337384Y-91110108D01*
X148256955Y-91267956D01*
X148256954Y-91267959D01*
X148202212Y-91436442D01*
X148174498Y-91611420D01*
X145425498Y-91611420D01*
X145397784Y-91436444D01*
X145363788Y-91331814D01*
X145343041Y-91267959D01*
X145343040Y-91267956D01*
X145300417Y-91184306D01*
X145262612Y-91110109D01*
X145158481Y-90966785D01*
X145033212Y-90841516D01*
X144889888Y-90737385D01*
X144826724Y-90705201D01*
X144732040Y-90656956D01*
X144732037Y-90656955D01*
X144563554Y-90602213D01*
X144476065Y-90588356D01*
X144388577Y-90574499D01*
X144211419Y-90574499D01*
X144153093Y-90583737D01*
X144036441Y-90602213D01*
X143867958Y-90656955D01*
X143867955Y-90656956D01*
X143710107Y-90737385D01*
X143655095Y-90777354D01*
X143566784Y-90841516D01*
X143566782Y-90841518D01*
X143566781Y-90841518D01*
X143441517Y-90966782D01*
X143441517Y-90966783D01*
X143441515Y-90966785D01*
X143430233Y-90982314D01*
X143337384Y-91110108D01*
X143256955Y-91267956D01*
X143256954Y-91267959D01*
X143202212Y-91436442D01*
X143174498Y-91611420D01*
X125425498Y-91611420D01*
X125397784Y-91436444D01*
X125363788Y-91331814D01*
X125343041Y-91267959D01*
X125343040Y-91267956D01*
X125300417Y-91184306D01*
X125262612Y-91110109D01*
X125158481Y-90966785D01*
X125033212Y-90841516D01*
X124889888Y-90737385D01*
X124826724Y-90705201D01*
X124732040Y-90656956D01*
X124732037Y-90656955D01*
X124563554Y-90602213D01*
X124476065Y-90588356D01*
X124388577Y-90574499D01*
X124211419Y-90574499D01*
X124153093Y-90583737D01*
X124036441Y-90602213D01*
X123867958Y-90656955D01*
X123867955Y-90656956D01*
X123710107Y-90737385D01*
X123655095Y-90777354D01*
X123566784Y-90841516D01*
X123566782Y-90841518D01*
X123566781Y-90841518D01*
X123441517Y-90966782D01*
X123441517Y-90966783D01*
X123441515Y-90966785D01*
X123430233Y-90982314D01*
X123337384Y-91110108D01*
X123256955Y-91267956D01*
X123256954Y-91267959D01*
X123202212Y-91436442D01*
X123174498Y-91611420D01*
X116045000Y-91611420D01*
X116050500Y-91590892D01*
X116050500Y-91459108D01*
X116016392Y-91331814D01*
X115950500Y-91217686D01*
X115857314Y-91124500D01*
X115755458Y-91065693D01*
X115743187Y-91058608D01*
X115679539Y-91041554D01*
X115615892Y-91024500D01*
X115484108Y-91024500D01*
X115356812Y-91058608D01*
X115267614Y-91110108D01*
X115242686Y-91124500D01*
X115149500Y-91217686D01*
X115131232Y-91249326D01*
X115131230Y-91249329D01*
X115083609Y-91331810D01*
X115083609Y-91331811D01*
X115083609Y-91331812D01*
X115083608Y-91331814D01*
X115049500Y-91459108D01*
X114300500Y-91459108D01*
X114266392Y-91331814D01*
X114237657Y-91282044D01*
X114221185Y-91214146D01*
X114244037Y-91148119D01*
X114298958Y-91104928D01*
X114368511Y-91098286D01*
X114407044Y-91112657D01*
X114456814Y-91141392D01*
X114584108Y-91175500D01*
X114584110Y-91175500D01*
X114715890Y-91175500D01*
X114715892Y-91175500D01*
X114843186Y-91141392D01*
X114957314Y-91075500D01*
X115050500Y-90982314D01*
X115116392Y-90868186D01*
X115150500Y-90740892D01*
X115150500Y-90609108D01*
X115116392Y-90481814D01*
X115050500Y-90367686D01*
X114957314Y-90274500D01*
X114869650Y-90223887D01*
X114843187Y-90208608D01*
X114779539Y-90191554D01*
X114715892Y-90174500D01*
X114584108Y-90174500D01*
X114456812Y-90208608D01*
X114407044Y-90237342D01*
X114339144Y-90253814D01*
X114273117Y-90230961D01*
X114229927Y-90176039D01*
X114223286Y-90106486D01*
X114237659Y-90067953D01*
X114266389Y-90018191D01*
X114266388Y-90018191D01*
X114266392Y-90018186D01*
X114300500Y-89890892D01*
X114300500Y-89759108D01*
X115049500Y-89759108D01*
X115049500Y-89890891D01*
X115083608Y-90018187D01*
X115112341Y-90067953D01*
X115149500Y-90132314D01*
X115242686Y-90225500D01*
X115345992Y-90285144D01*
X115356810Y-90291390D01*
X115356814Y-90291392D01*
X115484108Y-90325500D01*
X115484110Y-90325500D01*
X115615890Y-90325500D01*
X115615892Y-90325500D01*
X115743186Y-90291392D01*
X115857314Y-90225500D01*
X115950500Y-90132314D01*
X116016392Y-90018186D01*
X116050500Y-89890892D01*
X116050500Y-89759108D01*
X116016392Y-89631814D01*
X115950500Y-89517686D01*
X115857314Y-89424500D01*
X115800250Y-89391554D01*
X115743187Y-89358608D01*
X115660479Y-89336447D01*
X115615892Y-89324500D01*
X115484108Y-89324500D01*
X115356812Y-89358608D01*
X115242686Y-89424500D01*
X115242683Y-89424502D01*
X115149502Y-89517683D01*
X115149500Y-89517686D01*
X115083608Y-89631812D01*
X115049500Y-89759108D01*
X114300500Y-89759108D01*
X114266392Y-89631814D01*
X114200500Y-89517686D01*
X114107314Y-89424500D01*
X114050250Y-89391554D01*
X113993187Y-89358608D01*
X113910479Y-89336447D01*
X113865892Y-89324500D01*
X113734108Y-89324500D01*
X113606812Y-89358608D01*
X113492686Y-89424500D01*
X113492683Y-89424502D01*
X113399502Y-89517683D01*
X113399500Y-89517686D01*
X113333608Y-89631812D01*
X113299500Y-89759108D01*
X98948218Y-89759108D01*
X98990568Y-89675992D01*
X99063553Y-89451368D01*
X99067808Y-89424502D01*
X99100500Y-89218097D01*
X99100500Y-88981902D01*
X99064081Y-88751962D01*
X99064081Y-88751961D01*
X99063553Y-88748634D01*
X99063553Y-88748631D01*
X99060973Y-88740691D01*
X206399500Y-88740691D01*
X206399500Y-88859309D01*
X206430201Y-88973886D01*
X206489511Y-89076613D01*
X206573387Y-89160489D01*
X206676114Y-89219799D01*
X206790691Y-89250500D01*
X206790694Y-89250500D01*
X206909306Y-89250500D01*
X206909309Y-89250500D01*
X207023886Y-89219799D01*
X207126613Y-89160489D01*
X207210489Y-89076613D01*
X207269799Y-88973886D01*
X207300500Y-88859309D01*
X207300500Y-88740691D01*
X207269799Y-88626114D01*
X207210489Y-88523387D01*
X207126613Y-88439511D01*
X207023886Y-88380201D01*
X206909309Y-88349500D01*
X206790691Y-88349500D01*
X206676114Y-88380201D01*
X206676112Y-88380201D01*
X206676112Y-88380202D01*
X206573387Y-88439511D01*
X206573384Y-88439513D01*
X206489513Y-88523384D01*
X206489511Y-88523387D01*
X206430201Y-88626114D01*
X206399500Y-88740691D01*
X99060973Y-88740691D01*
X98990566Y-88524003D01*
X98917295Y-88380201D01*
X98883343Y-88313567D01*
X98744517Y-88122490D01*
X98577510Y-87955483D01*
X98386433Y-87816657D01*
X98175996Y-87709433D01*
X97951368Y-87636446D01*
X97718097Y-87599500D01*
X97718092Y-87599500D01*
X97481908Y-87599500D01*
X97481903Y-87599500D01*
X97248631Y-87636446D01*
X97024003Y-87709433D01*
X96813566Y-87816657D01*
X96704550Y-87895862D01*
X96622490Y-87955483D01*
X96622488Y-87955485D01*
X96622487Y-87955485D01*
X96455485Y-88122487D01*
X96455485Y-88122488D01*
X96455483Y-88122490D01*
X96395862Y-88204550D01*
X96316657Y-88313566D01*
X96209433Y-88524003D01*
X96136446Y-88748631D01*
X96099500Y-88981902D01*
X93322570Y-88981902D01*
X93323522Y-86940691D01*
X203599500Y-86940691D01*
X203599500Y-87059309D01*
X203630201Y-87173886D01*
X203689511Y-87276613D01*
X203773387Y-87360489D01*
X203876114Y-87419799D01*
X203990691Y-87450500D01*
X203990694Y-87450500D01*
X204109306Y-87450500D01*
X204109309Y-87450500D01*
X204223886Y-87419799D01*
X204326613Y-87360489D01*
X204410489Y-87276613D01*
X204469799Y-87173886D01*
X204500500Y-87059309D01*
X204500500Y-86940691D01*
X204469799Y-86826114D01*
X204410489Y-86723387D01*
X204326613Y-86639511D01*
X204223886Y-86580201D01*
X204109309Y-86549500D01*
X203990691Y-86549500D01*
X203876114Y-86580201D01*
X203876112Y-86580201D01*
X203876112Y-86580202D01*
X203773387Y-86639511D01*
X203773384Y-86639513D01*
X203689513Y-86723384D01*
X203689511Y-86723387D01*
X203630201Y-86826114D01*
X203599500Y-86940691D01*
X93323522Y-86940691D01*
X93325477Y-82747664D01*
X93325500Y-82747595D01*
X93325500Y-82703416D01*
X93325501Y-82703409D01*
X93325536Y-82702155D01*
X95750000Y-82702155D01*
X95750000Y-83850000D01*
X96732096Y-83850000D01*
X96700000Y-84011358D01*
X96700000Y-84188642D01*
X96732096Y-84350000D01*
X95750000Y-84350000D01*
X95750000Y-85497844D01*
X95756401Y-85557372D01*
X95756403Y-85557379D01*
X95806645Y-85692086D01*
X95806649Y-85692093D01*
X95892809Y-85807187D01*
X95892812Y-85807190D01*
X96007906Y-85893350D01*
X96007913Y-85893354D01*
X96142620Y-85943596D01*
X96142627Y-85943598D01*
X96202155Y-85949999D01*
X96202172Y-85950000D01*
X97350000Y-85950000D01*
X97350000Y-84967904D01*
X97511358Y-85000000D01*
X97688642Y-85000000D01*
X97850000Y-84967904D01*
X97850000Y-85950000D01*
X98997828Y-85950000D01*
X98997844Y-85949999D01*
X99057372Y-85943598D01*
X99057379Y-85943596D01*
X99192086Y-85893354D01*
X99192093Y-85893350D01*
X99264914Y-85838835D01*
X153310800Y-85838835D01*
X153310800Y-85978564D01*
X153338055Y-86115587D01*
X153338057Y-86115593D01*
X153338058Y-86115595D01*
X153391526Y-86244680D01*
X153469151Y-86360852D01*
X153469153Y-86360854D01*
X153469156Y-86360858D01*
X153567941Y-86459643D01*
X153567944Y-86459645D01*
X153567948Y-86459649D01*
X153684120Y-86537274D01*
X153813205Y-86590742D01*
X153813212Y-86590743D01*
X153813212Y-86590744D01*
X153950235Y-86617999D01*
X153950238Y-86618000D01*
X153950240Y-86618000D01*
X154089962Y-86618000D01*
X154089963Y-86617999D01*
X154135638Y-86608914D01*
X154226987Y-86590744D01*
X154226987Y-86590743D01*
X154226995Y-86590742D01*
X154356080Y-86537274D01*
X154472252Y-86459649D01*
X154472258Y-86459643D01*
X154472259Y-86459643D01*
X154557419Y-86374483D01*
X154618742Y-86340998D01*
X154688434Y-86345982D01*
X154732781Y-86374483D01*
X154817941Y-86459643D01*
X154817944Y-86459645D01*
X154817948Y-86459649D01*
X154934120Y-86537274D01*
X155063205Y-86590742D01*
X155063212Y-86590743D01*
X155063212Y-86590744D01*
X155200235Y-86617999D01*
X155200238Y-86618000D01*
X155200240Y-86618000D01*
X155339962Y-86618000D01*
X155339963Y-86617999D01*
X155385638Y-86608914D01*
X155476987Y-86590744D01*
X155476987Y-86590743D01*
X155476995Y-86590742D01*
X155606080Y-86537274D01*
X155722252Y-86459649D01*
X155722258Y-86459643D01*
X155722259Y-86459643D01*
X155807419Y-86374483D01*
X155868742Y-86340998D01*
X155938434Y-86345982D01*
X155982781Y-86374483D01*
X156067941Y-86459643D01*
X156067944Y-86459645D01*
X156067948Y-86459649D01*
X156184120Y-86537274D01*
X156313205Y-86590742D01*
X156313212Y-86590743D01*
X156313212Y-86590744D01*
X156450235Y-86617999D01*
X156450238Y-86618000D01*
X156450240Y-86618000D01*
X156589962Y-86618000D01*
X156589963Y-86617999D01*
X156635638Y-86608914D01*
X156726987Y-86590744D01*
X156726987Y-86590743D01*
X156726995Y-86590742D01*
X156856080Y-86537274D01*
X156972252Y-86459649D01*
X156972258Y-86459643D01*
X156972259Y-86459643D01*
X157057419Y-86374483D01*
X157118742Y-86340998D01*
X157188434Y-86345982D01*
X157232781Y-86374483D01*
X157317941Y-86459643D01*
X157317944Y-86459645D01*
X157317948Y-86459649D01*
X157434120Y-86537274D01*
X157563205Y-86590742D01*
X157563212Y-86590743D01*
X157563212Y-86590744D01*
X157700235Y-86617999D01*
X157700238Y-86618000D01*
X157700240Y-86618000D01*
X157839962Y-86618000D01*
X157839963Y-86617999D01*
X157885638Y-86608914D01*
X157976987Y-86590744D01*
X157976987Y-86590743D01*
X157976995Y-86590742D01*
X158106080Y-86537274D01*
X158222252Y-86459649D01*
X158222258Y-86459643D01*
X158222259Y-86459643D01*
X158307419Y-86374483D01*
X158368742Y-86340998D01*
X158438434Y-86345982D01*
X158482781Y-86374483D01*
X158567941Y-86459643D01*
X158567944Y-86459645D01*
X158567948Y-86459649D01*
X158684120Y-86537274D01*
X158813205Y-86590742D01*
X158813212Y-86590743D01*
X158813212Y-86590744D01*
X158950235Y-86617999D01*
X158950238Y-86618000D01*
X158950240Y-86618000D01*
X159089962Y-86618000D01*
X159089963Y-86617999D01*
X159135638Y-86608914D01*
X159226987Y-86590744D01*
X159226987Y-86590743D01*
X159226995Y-86590742D01*
X159356080Y-86537274D01*
X159472252Y-86459649D01*
X159472258Y-86459643D01*
X159472259Y-86459643D01*
X159557419Y-86374483D01*
X159618742Y-86340998D01*
X159688434Y-86345982D01*
X159732781Y-86374483D01*
X159817941Y-86459643D01*
X159817944Y-86459645D01*
X159817948Y-86459649D01*
X159934120Y-86537274D01*
X160063205Y-86590742D01*
X160063212Y-86590743D01*
X160063212Y-86590744D01*
X160200235Y-86617999D01*
X160200238Y-86618000D01*
X160200240Y-86618000D01*
X160339962Y-86618000D01*
X160339963Y-86617999D01*
X160385638Y-86608914D01*
X160476987Y-86590744D01*
X160476987Y-86590743D01*
X160476995Y-86590742D01*
X160606080Y-86537274D01*
X160722252Y-86459649D01*
X160807420Y-86374480D01*
X160868741Y-86340997D01*
X160938433Y-86345981D01*
X160982781Y-86374482D01*
X161067942Y-86459643D01*
X161067945Y-86459645D01*
X161067949Y-86459649D01*
X161184121Y-86537274D01*
X161313206Y-86590742D01*
X161313213Y-86590743D01*
X161313213Y-86590744D01*
X161450236Y-86617999D01*
X161450239Y-86618000D01*
X161450241Y-86618000D01*
X161589963Y-86618000D01*
X161589964Y-86617999D01*
X161635639Y-86608914D01*
X161726988Y-86590744D01*
X161726988Y-86590743D01*
X161726996Y-86590742D01*
X161856081Y-86537274D01*
X161972253Y-86459649D01*
X161972259Y-86459643D01*
X161972260Y-86459643D01*
X162057420Y-86374483D01*
X162118743Y-86340998D01*
X162188435Y-86345982D01*
X162232782Y-86374483D01*
X162317942Y-86459643D01*
X162317945Y-86459645D01*
X162317949Y-86459649D01*
X162434121Y-86537274D01*
X162563206Y-86590742D01*
X162563213Y-86590743D01*
X162563213Y-86590744D01*
X162700236Y-86617999D01*
X162700239Y-86618000D01*
X162700241Y-86618000D01*
X162839963Y-86618000D01*
X162839964Y-86617999D01*
X162885639Y-86608914D01*
X162976988Y-86590744D01*
X162976988Y-86590743D01*
X162976996Y-86590742D01*
X163106081Y-86537274D01*
X163222253Y-86459649D01*
X163222259Y-86459643D01*
X163222260Y-86459643D01*
X163307420Y-86374483D01*
X163368743Y-86340998D01*
X163438435Y-86345982D01*
X163482782Y-86374483D01*
X163567942Y-86459643D01*
X163567945Y-86459645D01*
X163567949Y-86459649D01*
X163684121Y-86537274D01*
X163813206Y-86590742D01*
X163813213Y-86590743D01*
X163813213Y-86590744D01*
X163950236Y-86617999D01*
X163950239Y-86618000D01*
X163950241Y-86618000D01*
X164089963Y-86618000D01*
X164089964Y-86617999D01*
X164135639Y-86608914D01*
X164226988Y-86590744D01*
X164226988Y-86590743D01*
X164226996Y-86590742D01*
X164356081Y-86537274D01*
X164472253Y-86459649D01*
X164472259Y-86459643D01*
X164472260Y-86459643D01*
X164557420Y-86374483D01*
X164618743Y-86340998D01*
X164688435Y-86345982D01*
X164732782Y-86374483D01*
X164817942Y-86459643D01*
X164817945Y-86459645D01*
X164817949Y-86459649D01*
X164934121Y-86537274D01*
X165063206Y-86590742D01*
X165063213Y-86590743D01*
X165063213Y-86590744D01*
X165200236Y-86617999D01*
X165200239Y-86618000D01*
X165200241Y-86618000D01*
X165339963Y-86618000D01*
X165339964Y-86617999D01*
X165385639Y-86608914D01*
X165476988Y-86590744D01*
X165476988Y-86590743D01*
X165476996Y-86590742D01*
X165606081Y-86537274D01*
X165722253Y-86459649D01*
X165722259Y-86459643D01*
X165722260Y-86459643D01*
X165807420Y-86374483D01*
X165868743Y-86340998D01*
X165938435Y-86345982D01*
X165982782Y-86374483D01*
X166067942Y-86459643D01*
X166067945Y-86459645D01*
X166067949Y-86459649D01*
X166184121Y-86537274D01*
X166313206Y-86590742D01*
X166313213Y-86590743D01*
X166313213Y-86590744D01*
X166450236Y-86617999D01*
X166450239Y-86618000D01*
X166450241Y-86618000D01*
X166589963Y-86618000D01*
X166589964Y-86617999D01*
X166635639Y-86608914D01*
X166726988Y-86590744D01*
X166726988Y-86590743D01*
X166726996Y-86590742D01*
X166856081Y-86537274D01*
X166972253Y-86459649D01*
X166972259Y-86459643D01*
X166972260Y-86459643D01*
X167057420Y-86374483D01*
X167118743Y-86340998D01*
X167188435Y-86345982D01*
X167232782Y-86374483D01*
X167317942Y-86459643D01*
X167317945Y-86459645D01*
X167317949Y-86459649D01*
X167434121Y-86537274D01*
X167563206Y-86590742D01*
X167563213Y-86590743D01*
X167563213Y-86590744D01*
X167700236Y-86617999D01*
X167700239Y-86618000D01*
X167700241Y-86618000D01*
X167839963Y-86618000D01*
X167839964Y-86617999D01*
X167885639Y-86608914D01*
X167976988Y-86590744D01*
X167976988Y-86590743D01*
X167976996Y-86590742D01*
X168106081Y-86537274D01*
X168222253Y-86459649D01*
X168222259Y-86459643D01*
X168222260Y-86459643D01*
X168321044Y-86360859D01*
X168321044Y-86360858D01*
X168321050Y-86360852D01*
X168398675Y-86244680D01*
X168452143Y-86115595D01*
X168479401Y-85978560D01*
X168479401Y-85838840D01*
X168479401Y-85838837D01*
X168479400Y-85838835D01*
X168452145Y-85701812D01*
X168452143Y-85701809D01*
X168452143Y-85701805D01*
X168398675Y-85572720D01*
X168321050Y-85456548D01*
X168321046Y-85456544D01*
X168321044Y-85456541D01*
X168222259Y-85357756D01*
X168222255Y-85357753D01*
X168222253Y-85357751D01*
X168106081Y-85280126D01*
X167976996Y-85226658D01*
X167976989Y-85226656D01*
X167976988Y-85226656D01*
X167976988Y-85226655D01*
X167839964Y-85199400D01*
X167839961Y-85199400D01*
X167700241Y-85199400D01*
X167700238Y-85199400D01*
X167563213Y-85226655D01*
X167563213Y-85226656D01*
X167563210Y-85226657D01*
X167563206Y-85226658D01*
X167434121Y-85280126D01*
X167407693Y-85297785D01*
X167317942Y-85357756D01*
X167317942Y-85357757D01*
X167232782Y-85442917D01*
X167171459Y-85476402D01*
X167101767Y-85471418D01*
X167057420Y-85442917D01*
X166972259Y-85357756D01*
X166972255Y-85357753D01*
X166972253Y-85357751D01*
X166856081Y-85280126D01*
X166726996Y-85226658D01*
X166726989Y-85226656D01*
X166726988Y-85226656D01*
X166726988Y-85226655D01*
X166589964Y-85199400D01*
X166589961Y-85199400D01*
X166450241Y-85199400D01*
X166450238Y-85199400D01*
X166313213Y-85226655D01*
X166313213Y-85226656D01*
X166313210Y-85226657D01*
X166313206Y-85226658D01*
X166184121Y-85280126D01*
X166157693Y-85297785D01*
X166067942Y-85357756D01*
X166067942Y-85357757D01*
X165982782Y-85442917D01*
X165921459Y-85476402D01*
X165851767Y-85471418D01*
X165807420Y-85442917D01*
X165722259Y-85357756D01*
X165722255Y-85357753D01*
X165722253Y-85357751D01*
X165606081Y-85280126D01*
X165476996Y-85226658D01*
X165476989Y-85226656D01*
X165476988Y-85226656D01*
X165476988Y-85226655D01*
X165339964Y-85199400D01*
X165339961Y-85199400D01*
X165200241Y-85199400D01*
X165200238Y-85199400D01*
X165063213Y-85226655D01*
X165063213Y-85226656D01*
X165063210Y-85226657D01*
X165063206Y-85226658D01*
X164934121Y-85280126D01*
X164907693Y-85297785D01*
X164817942Y-85357756D01*
X164817942Y-85357757D01*
X164732782Y-85442917D01*
X164671459Y-85476402D01*
X164601767Y-85471418D01*
X164557420Y-85442917D01*
X164472259Y-85357756D01*
X164472255Y-85357753D01*
X164472253Y-85357751D01*
X164356081Y-85280126D01*
X164226996Y-85226658D01*
X164226989Y-85226656D01*
X164226988Y-85226656D01*
X164226988Y-85226655D01*
X164089964Y-85199400D01*
X164089961Y-85199400D01*
X163950241Y-85199400D01*
X163950238Y-85199400D01*
X163813213Y-85226655D01*
X163813213Y-85226656D01*
X163813210Y-85226657D01*
X163813206Y-85226658D01*
X163684121Y-85280126D01*
X163657693Y-85297785D01*
X163567942Y-85357756D01*
X163567942Y-85357757D01*
X163482782Y-85442917D01*
X163421459Y-85476402D01*
X163351767Y-85471418D01*
X163307420Y-85442917D01*
X163222259Y-85357756D01*
X163222255Y-85357753D01*
X163222253Y-85357751D01*
X163106081Y-85280126D01*
X162976996Y-85226658D01*
X162976989Y-85226656D01*
X162976988Y-85226656D01*
X162976988Y-85226655D01*
X162839964Y-85199400D01*
X162839961Y-85199400D01*
X162700241Y-85199400D01*
X162700238Y-85199400D01*
X162563213Y-85226655D01*
X162563213Y-85226656D01*
X162563210Y-85226657D01*
X162563206Y-85226658D01*
X162434121Y-85280126D01*
X162407693Y-85297785D01*
X162317942Y-85357756D01*
X162317942Y-85357757D01*
X162232782Y-85442917D01*
X162171459Y-85476402D01*
X162101767Y-85471418D01*
X162057420Y-85442917D01*
X161972259Y-85357756D01*
X161972255Y-85357753D01*
X161972253Y-85357751D01*
X161856081Y-85280126D01*
X161726996Y-85226658D01*
X161726989Y-85226656D01*
X161726988Y-85226656D01*
X161726988Y-85226655D01*
X161589964Y-85199400D01*
X161589961Y-85199400D01*
X161450241Y-85199400D01*
X161450238Y-85199400D01*
X161313213Y-85226655D01*
X161313213Y-85226656D01*
X161313210Y-85226657D01*
X161313206Y-85226658D01*
X161184121Y-85280126D01*
X161157693Y-85297785D01*
X161067945Y-85357754D01*
X160982781Y-85442918D01*
X160921457Y-85476402D01*
X160851766Y-85471418D01*
X160807419Y-85442917D01*
X160722258Y-85357756D01*
X160722254Y-85357753D01*
X160722252Y-85357751D01*
X160606080Y-85280126D01*
X160476995Y-85226658D01*
X160476988Y-85226656D01*
X160476987Y-85226656D01*
X160476987Y-85226655D01*
X160339963Y-85199400D01*
X160339960Y-85199400D01*
X160200240Y-85199400D01*
X160200237Y-85199400D01*
X160063212Y-85226655D01*
X160063212Y-85226656D01*
X160063209Y-85226657D01*
X160063205Y-85226658D01*
X159934120Y-85280126D01*
X159907692Y-85297785D01*
X159817941Y-85357756D01*
X159817941Y-85357757D01*
X159732781Y-85442917D01*
X159671458Y-85476402D01*
X159601766Y-85471418D01*
X159557419Y-85442917D01*
X159472258Y-85357756D01*
X159472254Y-85357753D01*
X159472252Y-85357751D01*
X159356080Y-85280126D01*
X159226995Y-85226658D01*
X159226988Y-85226656D01*
X159226987Y-85226656D01*
X159226987Y-85226655D01*
X159089963Y-85199400D01*
X159089960Y-85199400D01*
X158950240Y-85199400D01*
X158950237Y-85199400D01*
X158813212Y-85226655D01*
X158813212Y-85226656D01*
X158813209Y-85226657D01*
X158813205Y-85226658D01*
X158684120Y-85280126D01*
X158657692Y-85297785D01*
X158567941Y-85357756D01*
X158567941Y-85357757D01*
X158482781Y-85442917D01*
X158421458Y-85476402D01*
X158351766Y-85471418D01*
X158307419Y-85442917D01*
X158222258Y-85357756D01*
X158222254Y-85357753D01*
X158222252Y-85357751D01*
X158106080Y-85280126D01*
X157976995Y-85226658D01*
X157976988Y-85226656D01*
X157976987Y-85226656D01*
X157976987Y-85226655D01*
X157839963Y-85199400D01*
X157839960Y-85199400D01*
X157700240Y-85199400D01*
X157700237Y-85199400D01*
X157563212Y-85226655D01*
X157563212Y-85226656D01*
X157563209Y-85226657D01*
X157563205Y-85226658D01*
X157434120Y-85280126D01*
X157407692Y-85297785D01*
X157317941Y-85357756D01*
X157317941Y-85357757D01*
X157232781Y-85442917D01*
X157171458Y-85476402D01*
X157101766Y-85471418D01*
X157057419Y-85442917D01*
X156972258Y-85357756D01*
X156972254Y-85357753D01*
X156972252Y-85357751D01*
X156856080Y-85280126D01*
X156726995Y-85226658D01*
X156726988Y-85226656D01*
X156726987Y-85226656D01*
X156726987Y-85226655D01*
X156589963Y-85199400D01*
X156589960Y-85199400D01*
X156450240Y-85199400D01*
X156450237Y-85199400D01*
X156313212Y-85226655D01*
X156313212Y-85226656D01*
X156313209Y-85226657D01*
X156313205Y-85226658D01*
X156184120Y-85280126D01*
X156157692Y-85297785D01*
X156067941Y-85357756D01*
X156067941Y-85357757D01*
X155982781Y-85442917D01*
X155921458Y-85476402D01*
X155851766Y-85471418D01*
X155807419Y-85442917D01*
X155722258Y-85357756D01*
X155722254Y-85357753D01*
X155722252Y-85357751D01*
X155606080Y-85280126D01*
X155476995Y-85226658D01*
X155476988Y-85226656D01*
X155476987Y-85226656D01*
X155476987Y-85226655D01*
X155339963Y-85199400D01*
X155339960Y-85199400D01*
X155200240Y-85199400D01*
X155200237Y-85199400D01*
X155063212Y-85226655D01*
X155063212Y-85226656D01*
X155063209Y-85226657D01*
X155063205Y-85226658D01*
X154934120Y-85280126D01*
X154907692Y-85297785D01*
X154817941Y-85357756D01*
X154817941Y-85357757D01*
X154732781Y-85442917D01*
X154671458Y-85476402D01*
X154601766Y-85471418D01*
X154557419Y-85442917D01*
X154472258Y-85357756D01*
X154472254Y-85357753D01*
X154472252Y-85357751D01*
X154356080Y-85280126D01*
X154226995Y-85226658D01*
X154226988Y-85226656D01*
X154226987Y-85226656D01*
X154226987Y-85226655D01*
X154089963Y-85199400D01*
X154089960Y-85199400D01*
X153950240Y-85199400D01*
X153950237Y-85199400D01*
X153813212Y-85226655D01*
X153813212Y-85226656D01*
X153813209Y-85226657D01*
X153813205Y-85226658D01*
X153684120Y-85280126D01*
X153657692Y-85297785D01*
X153567941Y-85357756D01*
X153567941Y-85357757D01*
X153469157Y-85456541D01*
X153469156Y-85456541D01*
X153469151Y-85456547D01*
X153469151Y-85456548D01*
X153391526Y-85572720D01*
X153338058Y-85701805D01*
X153338057Y-85701809D01*
X153338056Y-85701812D01*
X153338055Y-85701812D01*
X153310800Y-85838835D01*
X99264914Y-85838835D01*
X99307186Y-85807190D01*
X99343684Y-85758437D01*
X99343684Y-85758436D01*
X99393352Y-85692089D01*
X99393354Y-85692086D01*
X99443596Y-85557379D01*
X99443598Y-85557372D01*
X99449999Y-85497844D01*
X99450000Y-85497827D01*
X99450000Y-84350000D01*
X98467904Y-84350000D01*
X98500000Y-84188642D01*
X98500000Y-84111420D01*
X123174498Y-84111420D01*
X123174498Y-84288578D01*
X123188355Y-84376066D01*
X123202212Y-84463555D01*
X123256954Y-84632038D01*
X123256955Y-84632041D01*
X123337384Y-84789889D01*
X123441515Y-84933213D01*
X123566784Y-85058482D01*
X123710108Y-85162613D01*
X123782306Y-85199400D01*
X123867955Y-85243041D01*
X123867958Y-85243042D01*
X123952199Y-85270413D01*
X124036443Y-85297785D01*
X124211419Y-85325499D01*
X124211420Y-85325499D01*
X124388576Y-85325499D01*
X124388577Y-85325499D01*
X124563553Y-85297785D01*
X124732040Y-85243041D01*
X124889888Y-85162613D01*
X125033212Y-85058482D01*
X125158481Y-84933213D01*
X125262612Y-84789889D01*
X125343040Y-84632041D01*
X125397784Y-84463554D01*
X125425498Y-84288578D01*
X125425498Y-84111420D01*
X143174498Y-84111420D01*
X143174498Y-84288578D01*
X143188355Y-84376066D01*
X143202212Y-84463555D01*
X143256954Y-84632038D01*
X143256955Y-84632041D01*
X143337384Y-84789889D01*
X143441515Y-84933213D01*
X143566784Y-85058482D01*
X143710108Y-85162613D01*
X143782306Y-85199400D01*
X143867955Y-85243041D01*
X143867958Y-85243042D01*
X143952199Y-85270413D01*
X144036443Y-85297785D01*
X144211419Y-85325499D01*
X144211420Y-85325499D01*
X144388576Y-85325499D01*
X144388577Y-85325499D01*
X144563553Y-85297785D01*
X144732040Y-85243041D01*
X144889888Y-85162613D01*
X145033212Y-85058482D01*
X145158481Y-84933213D01*
X145262612Y-84789889D01*
X145343040Y-84632041D01*
X145397784Y-84463554D01*
X145425498Y-84288578D01*
X145425498Y-84111420D01*
X148174498Y-84111420D01*
X148174498Y-84288578D01*
X148188355Y-84376066D01*
X148202212Y-84463555D01*
X148256954Y-84632038D01*
X148256955Y-84632041D01*
X148337384Y-84789889D01*
X148441515Y-84933213D01*
X148566784Y-85058482D01*
X148710108Y-85162613D01*
X148782306Y-85199400D01*
X148867955Y-85243041D01*
X148867958Y-85243042D01*
X148952199Y-85270413D01*
X149036443Y-85297785D01*
X149211419Y-85325499D01*
X149211420Y-85325499D01*
X149388576Y-85325499D01*
X149388577Y-85325499D01*
X149563553Y-85297785D01*
X149732040Y-85243041D01*
X149889888Y-85162613D01*
X150033212Y-85058482D01*
X150158481Y-84933213D01*
X150262612Y-84789889D01*
X150343040Y-84632041D01*
X150397784Y-84463554D01*
X150425498Y-84288578D01*
X150425498Y-84111420D01*
X150397784Y-83936444D01*
X150365629Y-83837480D01*
X150343041Y-83767959D01*
X150343040Y-83767956D01*
X150262611Y-83610108D01*
X150227915Y-83562353D01*
X150158481Y-83466785D01*
X150033212Y-83341516D01*
X149951620Y-83282236D01*
X152323499Y-83282236D01*
X152352190Y-83426469D01*
X152352193Y-83426479D01*
X152408468Y-83562340D01*
X152408475Y-83562353D01*
X152490177Y-83684628D01*
X152490180Y-83684632D01*
X152594167Y-83788619D01*
X152594171Y-83788622D01*
X152716446Y-83870324D01*
X152716459Y-83870331D01*
X152852320Y-83926606D01*
X152852325Y-83926608D01*
X152852329Y-83926608D01*
X152852330Y-83926609D01*
X152996563Y-83955300D01*
X152996566Y-83955300D01*
X153143636Y-83955300D01*
X153240671Y-83935997D01*
X153287875Y-83926608D01*
X153423747Y-83870328D01*
X153546029Y-83788622D01*
X153650022Y-83684629D01*
X153731728Y-83562347D01*
X153788008Y-83426475D01*
X153797397Y-83379271D01*
X153816700Y-83282236D01*
X167973500Y-83282236D01*
X168002191Y-83426469D01*
X168002194Y-83426479D01*
X168058469Y-83562340D01*
X168058476Y-83562353D01*
X168140178Y-83684628D01*
X168140181Y-83684632D01*
X168244168Y-83788619D01*
X168244172Y-83788622D01*
X168366447Y-83870324D01*
X168366460Y-83870331D01*
X168502321Y-83926606D01*
X168502326Y-83926608D01*
X168502330Y-83926608D01*
X168502331Y-83926609D01*
X168646564Y-83955300D01*
X168646567Y-83955300D01*
X168793637Y-83955300D01*
X168890672Y-83935997D01*
X168937876Y-83926608D01*
X169073748Y-83870328D01*
X169196030Y-83788622D01*
X169300023Y-83684629D01*
X169381729Y-83562347D01*
X169438009Y-83426475D01*
X169447398Y-83379271D01*
X169466701Y-83282236D01*
X169466701Y-83135163D01*
X169438010Y-82990930D01*
X169438009Y-82990929D01*
X169438009Y-82990925D01*
X169400554Y-82900500D01*
X169381732Y-82855059D01*
X169381725Y-82855046D01*
X169300023Y-82732771D01*
X169300020Y-82732767D01*
X169196033Y-82628780D01*
X169196029Y-82628777D01*
X169073754Y-82547075D01*
X169073744Y-82547070D01*
X169057984Y-82540542D01*
X169057982Y-82540541D01*
X168937880Y-82490793D01*
X168937870Y-82490790D01*
X168793637Y-82462100D01*
X168793635Y-82462100D01*
X168646567Y-82462100D01*
X168646565Y-82462100D01*
X168502331Y-82490790D01*
X168502321Y-82490793D01*
X168366460Y-82547068D01*
X168366447Y-82547075D01*
X168244172Y-82628777D01*
X168244168Y-82628780D01*
X168140181Y-82732767D01*
X168140178Y-82732771D01*
X168058476Y-82855046D01*
X168058469Y-82855059D01*
X168002194Y-82990920D01*
X168002191Y-82990930D01*
X167973501Y-83135163D01*
X167973501Y-83135166D01*
X167973501Y-83282234D01*
X167973501Y-83282236D01*
X167973500Y-83282236D01*
X153816700Y-83282236D01*
X153816700Y-83135163D01*
X153788009Y-82990930D01*
X153788008Y-82990929D01*
X153788008Y-82990925D01*
X153750553Y-82900500D01*
X153731731Y-82855059D01*
X153731724Y-82855046D01*
X153650022Y-82732771D01*
X153650019Y-82732767D01*
X153546032Y-82628780D01*
X153546028Y-82628777D01*
X153423753Y-82547075D01*
X153423740Y-82547068D01*
X153287879Y-82490793D01*
X153287869Y-82490790D01*
X153143636Y-82462100D01*
X153143634Y-82462100D01*
X152996566Y-82462100D01*
X152996564Y-82462100D01*
X152852330Y-82490790D01*
X152852320Y-82490793D01*
X152716459Y-82547068D01*
X152716446Y-82547075D01*
X152594171Y-82628777D01*
X152594167Y-82628780D01*
X152490180Y-82732767D01*
X152490177Y-82732771D01*
X152408475Y-82855046D01*
X152408468Y-82855059D01*
X152352193Y-82990920D01*
X152352190Y-82990930D01*
X152323500Y-83135163D01*
X152323500Y-83135166D01*
X152323500Y-83282234D01*
X152323500Y-83282236D01*
X152323499Y-83282236D01*
X149951620Y-83282236D01*
X149889888Y-83237385D01*
X149837945Y-83210918D01*
X149732040Y-83156956D01*
X149732037Y-83156955D01*
X149563554Y-83102213D01*
X149476065Y-83088356D01*
X149388577Y-83074499D01*
X149211419Y-83074499D01*
X149153093Y-83083737D01*
X149036441Y-83102213D01*
X148867958Y-83156955D01*
X148867955Y-83156956D01*
X148710107Y-83237385D01*
X148648376Y-83282236D01*
X148566784Y-83341516D01*
X148566782Y-83341518D01*
X148566781Y-83341518D01*
X148441517Y-83466782D01*
X148441517Y-83466783D01*
X148441515Y-83466785D01*
X148398287Y-83526283D01*
X148337384Y-83610108D01*
X148256955Y-83767956D01*
X148256954Y-83767959D01*
X148202212Y-83936442D01*
X148175279Y-84106490D01*
X148174498Y-84111420D01*
X145425498Y-84111420D01*
X145397784Y-83936444D01*
X145365629Y-83837480D01*
X145343041Y-83767959D01*
X145343040Y-83767956D01*
X145262611Y-83610108D01*
X145227915Y-83562353D01*
X145158481Y-83466785D01*
X145033212Y-83341516D01*
X144889888Y-83237385D01*
X144884395Y-83234586D01*
X144732040Y-83156956D01*
X144732037Y-83156955D01*
X144563554Y-83102213D01*
X144476065Y-83088356D01*
X144388577Y-83074499D01*
X144211419Y-83074499D01*
X144153093Y-83083737D01*
X144036441Y-83102213D01*
X143867958Y-83156955D01*
X143867955Y-83156956D01*
X143710107Y-83237385D01*
X143648376Y-83282236D01*
X143566784Y-83341516D01*
X143566782Y-83341518D01*
X143566781Y-83341518D01*
X143441517Y-83466782D01*
X143441517Y-83466783D01*
X143441515Y-83466785D01*
X143398287Y-83526283D01*
X143337384Y-83610108D01*
X143256955Y-83767956D01*
X143256954Y-83767959D01*
X143202212Y-83936442D01*
X143175279Y-84106490D01*
X143174498Y-84111420D01*
X125425498Y-84111420D01*
X125397784Y-83936444D01*
X125365629Y-83837480D01*
X125343041Y-83767959D01*
X125343040Y-83767956D01*
X125262611Y-83610108D01*
X125227915Y-83562353D01*
X125158481Y-83466785D01*
X125033212Y-83341516D01*
X124889888Y-83237385D01*
X124884395Y-83234586D01*
X124732040Y-83156956D01*
X124732037Y-83156955D01*
X124563554Y-83102213D01*
X124476065Y-83088356D01*
X124388577Y-83074499D01*
X124211419Y-83074499D01*
X124153093Y-83083737D01*
X124036441Y-83102213D01*
X123867958Y-83156955D01*
X123867955Y-83156956D01*
X123710107Y-83237385D01*
X123648376Y-83282236D01*
X123566784Y-83341516D01*
X123566782Y-83341518D01*
X123566781Y-83341518D01*
X123441517Y-83466782D01*
X123441517Y-83466783D01*
X123441515Y-83466785D01*
X123398287Y-83526283D01*
X123337384Y-83610108D01*
X123256955Y-83767956D01*
X123256954Y-83767959D01*
X123202212Y-83936442D01*
X123175279Y-84106490D01*
X123174498Y-84111420D01*
X98500000Y-84111420D01*
X98500000Y-84011358D01*
X98467904Y-83850000D01*
X99450000Y-83850000D01*
X99450000Y-82702172D01*
X99449999Y-82702155D01*
X99443598Y-82642627D01*
X99443596Y-82642620D01*
X99393354Y-82507913D01*
X99393350Y-82507906D01*
X99338104Y-82434108D01*
X181099500Y-82434108D01*
X181099500Y-82565891D01*
X181133608Y-82693187D01*
X181137542Y-82700000D01*
X181199500Y-82807314D01*
X181292686Y-82900500D01*
X181406814Y-82966392D01*
X181534108Y-83000500D01*
X181534110Y-83000500D01*
X181665890Y-83000500D01*
X181665892Y-83000500D01*
X181793186Y-82966392D01*
X181907314Y-82900500D01*
X182000500Y-82807314D01*
X182066392Y-82693186D01*
X182100500Y-82565892D01*
X182100500Y-82434108D01*
X182066392Y-82306814D01*
X182066294Y-82306645D01*
X182033590Y-82250000D01*
X182000500Y-82192686D01*
X181907314Y-82099500D01*
X181841784Y-82061666D01*
X181793187Y-82033608D01*
X181729539Y-82016554D01*
X181665892Y-81999500D01*
X181534108Y-81999500D01*
X181406812Y-82033608D01*
X181292686Y-82099500D01*
X181292683Y-82099502D01*
X181199502Y-82192683D01*
X181199500Y-82192686D01*
X181133608Y-82306812D01*
X181099500Y-82434108D01*
X99338104Y-82434108D01*
X99307190Y-82392812D01*
X99307187Y-82392809D01*
X99192093Y-82306649D01*
X99192086Y-82306645D01*
X99057379Y-82256403D01*
X99057372Y-82256401D01*
X98997844Y-82250000D01*
X97850000Y-82250000D01*
X97850000Y-83232095D01*
X97688642Y-83200000D01*
X97511358Y-83200000D01*
X97350000Y-83232095D01*
X97350000Y-82250000D01*
X96202155Y-82250000D01*
X96142627Y-82256401D01*
X96142620Y-82256403D01*
X96007913Y-82306645D01*
X96007906Y-82306649D01*
X95892812Y-82392809D01*
X95892809Y-82392812D01*
X95806649Y-82507906D01*
X95806645Y-82507913D01*
X95756403Y-82642620D01*
X95756401Y-82642627D01*
X95750000Y-82702155D01*
X93325536Y-82702155D01*
X93325695Y-82696526D01*
X93325955Y-82691897D01*
X93325955Y-82691896D01*
X93328722Y-82642620D01*
X93343341Y-82382302D01*
X93344895Y-82368503D01*
X93397032Y-82061656D01*
X93400121Y-82048120D01*
X93486284Y-81749040D01*
X93490875Y-81735921D01*
X93553758Y-81584108D01*
X195399500Y-81584108D01*
X195399500Y-81715891D01*
X195433608Y-81843187D01*
X195466554Y-81900250D01*
X195499500Y-81957314D01*
X195592686Y-82050500D01*
X195706814Y-82116392D01*
X195834108Y-82150500D01*
X195834110Y-82150500D01*
X195965890Y-82150500D01*
X195965892Y-82150500D01*
X196093186Y-82116392D01*
X196207314Y-82050500D01*
X196300500Y-81957314D01*
X196366392Y-81843186D01*
X196400500Y-81715892D01*
X196400500Y-81584108D01*
X196366392Y-81456814D01*
X196300500Y-81342686D01*
X196207314Y-81249500D01*
X196124242Y-81201538D01*
X196093187Y-81183608D01*
X196029539Y-81166554D01*
X195965892Y-81149500D01*
X195834108Y-81149500D01*
X195706812Y-81183608D01*
X195592686Y-81249500D01*
X195592683Y-81249502D01*
X195499502Y-81342683D01*
X195499500Y-81342686D01*
X195433608Y-81456812D01*
X195399500Y-81584108D01*
X93553758Y-81584108D01*
X93609981Y-81448374D01*
X93616001Y-81435874D01*
X93766567Y-81163443D01*
X93773944Y-81151704D01*
X93954056Y-80897861D01*
X93962702Y-80887018D01*
X94093468Y-80740691D01*
X199049501Y-80740691D01*
X199049501Y-80859309D01*
X199080202Y-80973886D01*
X199139512Y-81076613D01*
X199223388Y-81160489D01*
X199326115Y-81219799D01*
X199440692Y-81250500D01*
X199440695Y-81250500D01*
X199559307Y-81250500D01*
X199559310Y-81250500D01*
X199673887Y-81219799D01*
X199776614Y-81160489D01*
X199860490Y-81076613D01*
X199919800Y-80973886D01*
X199950501Y-80859309D01*
X199950501Y-80740691D01*
X200299500Y-80740691D01*
X200299500Y-80859309D01*
X200330201Y-80973886D01*
X200389511Y-81076613D01*
X200473387Y-81160489D01*
X200576114Y-81219799D01*
X200690691Y-81250500D01*
X200690694Y-81250500D01*
X200809306Y-81250500D01*
X200809309Y-81250500D01*
X200923886Y-81219799D01*
X201026613Y-81160489D01*
X201110489Y-81076613D01*
X201169799Y-80973886D01*
X201200500Y-80859309D01*
X201200500Y-80740691D01*
X201449500Y-80740691D01*
X201449500Y-80859309D01*
X201480201Y-80973886D01*
X201539511Y-81076613D01*
X201623387Y-81160489D01*
X201726114Y-81219799D01*
X201840691Y-81250500D01*
X201840694Y-81250500D01*
X201959306Y-81250500D01*
X201959309Y-81250500D01*
X202073886Y-81219799D01*
X202176613Y-81160489D01*
X202260489Y-81076613D01*
X202319799Y-80973886D01*
X202350500Y-80859309D01*
X202350500Y-80740691D01*
X202319799Y-80626114D01*
X202260489Y-80523387D01*
X202176613Y-80439511D01*
X202073886Y-80380201D01*
X201959309Y-80349500D01*
X201840691Y-80349500D01*
X201726114Y-80380201D01*
X201726112Y-80380201D01*
X201726112Y-80380202D01*
X201623387Y-80439511D01*
X201623384Y-80439513D01*
X201539513Y-80523384D01*
X201539511Y-80523387D01*
X201480201Y-80626114D01*
X201449500Y-80740691D01*
X201200500Y-80740691D01*
X201169799Y-80626114D01*
X201110489Y-80523387D01*
X201026613Y-80439511D01*
X200923886Y-80380201D01*
X200809309Y-80349500D01*
X200690691Y-80349500D01*
X200576114Y-80380201D01*
X200576112Y-80380201D01*
X200576112Y-80380202D01*
X200473387Y-80439511D01*
X200473384Y-80439513D01*
X200389513Y-80523384D01*
X200389511Y-80523387D01*
X200330201Y-80626114D01*
X200299500Y-80740691D01*
X199950501Y-80740691D01*
X199919800Y-80626114D01*
X199860490Y-80523387D01*
X199776614Y-80439511D01*
X199673887Y-80380201D01*
X199559310Y-80349500D01*
X199440692Y-80349500D01*
X199326115Y-80380201D01*
X199326113Y-80380201D01*
X199326113Y-80380202D01*
X199223388Y-80439511D01*
X199223385Y-80439513D01*
X199139514Y-80523384D01*
X199139512Y-80523387D01*
X199080202Y-80626114D01*
X199049501Y-80740691D01*
X94093468Y-80740691D01*
X94170113Y-80654925D01*
X94179937Y-80645103D01*
X94412018Y-80437702D01*
X94422861Y-80429056D01*
X94676704Y-80248944D01*
X94688443Y-80241567D01*
X94960874Y-80091001D01*
X94973374Y-80084981D01*
X95260928Y-79965872D01*
X95274040Y-79961284D01*
X95573120Y-79875121D01*
X95586656Y-79872032D01*
X95893503Y-79819895D01*
X95907302Y-79818341D01*
X96181884Y-79802921D01*
X96221529Y-79800695D01*
X96228481Y-79800500D01*
X96272595Y-79800500D01*
X205752405Y-79800500D01*
X205796519Y-79800500D01*
X205803471Y-79800695D01*
G37*
%TD.AperFunction*%
%TD*%
M02*
