%TF.GenerationSoftware,KiCad,Pcbnew,9.0.2+1*%
%TF.CreationDate,2025-08-16T03:16:38+01:00*%
%TF.ProjectId,Elytra,456c7974-7261-42e6-9b69-6361645f7063,rev?*%
%TF.SameCoordinates,Original*%
%TF.FileFunction,Drillmap*%
%TF.FilePolarity,Positive*%
%FSLAX45Y45*%
G04 Gerber Fmt 4.5, Leading zero omitted, Abs format (unit mm)*
G04 Created by KiCad (PCBNEW 9.0.2+1) date 2025-08-16 03:16:38*
%MOMM*%
%LPD*%
G01*
G04 APERTURE LIST*
%ADD10C,0.050000*%
%ADD11C,0.200000*%
%ADD12C,0.100000*%
%ADD13C,0.130000*%
%ADD14C,0.180000*%
G04 APERTURE END LIST*
D10*
X9620000Y-13950000D02*
G75*
G02*
X9300000Y-13630000I0J320000D01*
G01*
X9620000Y-13950000D02*
X20580000Y-13950039D01*
X20900000Y-13635000D02*
X20900000Y-8270000D01*
X20900000Y-13635000D02*
G75*
G02*
X20580000Y-13950039I-320000J5000D01*
G01*
X20580000Y-7950000D02*
X9622500Y-7950000D01*
X9302500Y-8270000D02*
G75*
G02*
X9622500Y-7950000I320000J0D01*
G01*
X20580000Y-7950000D02*
G75*
G02*
X20900000Y-8270000I0J-320000D01*
G01*
X9302500Y-8270000D02*
X9300000Y-13630000D01*
D11*
D12*
X9370000Y-10607500D02*
X9390000Y-10627500D01*
X9390000Y-10607500D02*
X9370000Y-10627500D01*
X9370000Y-10837500D02*
X9390000Y-10857500D01*
X9390000Y-10837500D02*
X9370000Y-10857500D01*
X9445000Y-10983000D02*
X9465000Y-11003000D01*
X9465000Y-10983000D02*
X9445000Y-11003000D01*
X9457500Y-10470000D02*
X9477500Y-10490000D01*
X9477500Y-10470000D02*
X9457500Y-10490000D01*
X9545000Y-10137500D02*
X9565000Y-10157500D01*
X9565000Y-10137500D02*
X9545000Y-10157500D01*
X9555000Y-10610000D02*
X9575000Y-10630000D01*
X9575000Y-10610000D02*
X9555000Y-10630000D01*
X9555000Y-10837000D02*
X9575000Y-10857000D01*
X9575000Y-10837000D02*
X9555000Y-10857000D01*
X9560000Y-8400000D02*
X9580000Y-8420000D01*
X9580000Y-8400000D02*
X9560000Y-8420000D01*
X9750000Y-8215000D02*
X9770000Y-8235000D01*
X9770000Y-8215000D02*
X9750000Y-8235000D01*
X9750000Y-8585000D02*
X9770000Y-8605000D01*
X9770000Y-8585000D02*
X9750000Y-8605000D01*
X9935000Y-8400000D02*
X9955000Y-8420000D01*
X9955000Y-8400000D02*
X9935000Y-8420000D01*
X10290000Y-8015000D02*
X10310000Y-8035000D01*
X10310000Y-8015000D02*
X10290000Y-8035000D01*
X10290000Y-10767500D02*
X10310000Y-10787500D01*
X10310000Y-10767500D02*
X10290000Y-10787500D01*
X10290000Y-10845000D02*
X10310000Y-10865000D01*
X10310000Y-10845000D02*
X10290000Y-10865000D01*
X10630000Y-11017500D02*
X10650000Y-11037500D01*
X10650000Y-11017500D02*
X10630000Y-11037500D01*
X10762500Y-13317500D02*
X10782500Y-13337500D01*
X10782500Y-13317500D02*
X10762500Y-13337500D01*
X10765000Y-10925000D02*
X10785000Y-10945000D01*
X10785000Y-10925000D02*
X10765000Y-10945000D01*
X10765000Y-11100000D02*
X10785000Y-11120000D01*
X10785000Y-11100000D02*
X10765000Y-11120000D01*
X10860001Y-13422499D02*
X10880001Y-13442499D01*
X10880001Y-13422499D02*
X10860001Y-13442499D01*
X10920000Y-13685000D02*
X10940000Y-13705000D01*
X10940000Y-13685000D02*
X10920000Y-13705000D01*
X10985000Y-10922500D02*
X11005000Y-10942500D01*
X11005000Y-10922500D02*
X10985000Y-10942500D01*
X10985000Y-11100000D02*
X11005000Y-11120000D01*
X11005000Y-11100000D02*
X10985000Y-11120000D01*
X11015000Y-13232500D02*
X11035000Y-13252500D01*
X11035000Y-13232500D02*
X11015000Y-13252500D01*
X11029620Y-13794620D02*
X11049620Y-13814620D01*
X11049620Y-13794620D02*
X11029620Y-13814620D01*
X11055000Y-8270000D02*
X11075000Y-8290000D01*
X11075000Y-8270000D02*
X11055000Y-8290000D01*
X11135000Y-12340000D02*
X11155000Y-12360000D01*
X11155000Y-12340000D02*
X11135000Y-12360000D01*
X11135000Y-12500000D02*
X11155000Y-12520000D01*
X11155000Y-12500000D02*
X11135000Y-12520000D01*
X11155000Y-8150000D02*
X11175000Y-8170000D01*
X11175000Y-8150000D02*
X11155000Y-8170000D01*
X11155000Y-8365000D02*
X11175000Y-8385000D01*
X11175000Y-8365000D02*
X11155000Y-8385000D01*
X11165000Y-13212500D02*
X11185000Y-13232500D01*
X11185000Y-13212500D02*
X11165000Y-13232500D01*
X11205000Y-10922500D02*
X11225000Y-10942500D01*
X11225000Y-10922500D02*
X11205000Y-10942500D01*
X11205000Y-11100000D02*
X11225000Y-11120000D01*
X11225000Y-11100000D02*
X11205000Y-11120000D01*
X11257500Y-12577500D02*
X11277500Y-12597500D01*
X11277500Y-12577500D02*
X11257500Y-12597500D01*
X11260957Y-12420957D02*
X11280957Y-12440957D01*
X11280957Y-12420957D02*
X11260957Y-12440957D01*
X11264043Y-12260956D02*
X11284043Y-12280956D01*
X11284043Y-12260956D02*
X11264043Y-12280956D01*
X11360659Y-12835659D02*
X11380659Y-12855659D01*
X11380659Y-12835659D02*
X11360659Y-12855659D01*
X11375000Y-10707500D02*
X11395000Y-10727500D01*
X11395000Y-10707500D02*
X11375000Y-10727500D01*
X11425000Y-10922500D02*
X11445000Y-10942500D01*
X11445000Y-10922500D02*
X11425000Y-10942500D01*
X11425000Y-11100000D02*
X11445000Y-11120000D01*
X11445000Y-11100000D02*
X11425000Y-11120000D01*
X11445000Y-8555000D02*
X11465000Y-8575000D01*
X11465000Y-8555000D02*
X11445000Y-8575000D01*
X11455000Y-10155000D02*
X11475000Y-10175000D01*
X11475000Y-10155000D02*
X11455000Y-10175000D01*
X11465000Y-13535000D02*
X11485000Y-13555000D01*
X11485000Y-13535000D02*
X11465000Y-13555000D01*
X11465000Y-13685000D02*
X11485000Y-13705000D01*
X11485000Y-13685000D02*
X11465000Y-13705000D01*
X11470000Y-10622500D02*
X11490000Y-10642500D01*
X11490000Y-10622500D02*
X11470000Y-10642500D01*
X11483929Y-12626071D02*
X11503929Y-12646071D01*
X11503929Y-12626071D02*
X11483929Y-12646071D01*
X11500000Y-10831000D02*
X11520000Y-10851000D01*
X11520000Y-10831000D02*
X11500000Y-10851000D01*
X11500000Y-12235000D02*
X11520000Y-12255000D01*
X11520000Y-12235000D02*
X11500000Y-12255000D01*
X11506000Y-13281000D02*
X11526000Y-13301000D01*
X11526000Y-13281000D02*
X11506000Y-13301000D01*
X11550000Y-12155000D02*
X11570000Y-12175000D01*
X11570000Y-12155000D02*
X11550000Y-12175000D01*
X11550000Y-12665000D02*
X11570000Y-12685000D01*
X11570000Y-12665000D02*
X11550000Y-12685000D01*
X11560000Y-12315000D02*
X11580000Y-12335000D01*
X11580000Y-12315000D02*
X11560000Y-12335000D01*
X11565000Y-11020000D02*
X11585000Y-11040000D01*
X11585000Y-11020000D02*
X11565000Y-11040000D01*
X11585000Y-8555000D02*
X11605000Y-8575000D01*
X11605000Y-8555000D02*
X11585000Y-8575000D01*
X11607500Y-10710000D02*
X11627500Y-10730000D01*
X11627500Y-10710000D02*
X11607500Y-10730000D01*
X11637500Y-12552500D02*
X11657500Y-12572500D01*
X11657500Y-12552500D02*
X11637500Y-12572500D01*
X11655000Y-13192647D02*
X11675000Y-13212647D01*
X11675000Y-13192647D02*
X11655000Y-13212647D01*
X11705000Y-13789999D02*
X11725000Y-13809999D01*
X11725000Y-13789999D02*
X11705000Y-13809999D01*
X11740000Y-8917500D02*
X11760000Y-8937500D01*
X11760000Y-8917500D02*
X11740000Y-8937500D01*
X11779415Y-13367400D02*
X11799415Y-13387400D01*
X11799415Y-13367400D02*
X11779415Y-13387400D01*
X11795000Y-13682647D02*
X11815000Y-13702647D01*
X11815000Y-13682647D02*
X11795000Y-13702647D01*
X11810000Y-9485000D02*
X11830000Y-9505000D01*
X11830000Y-9485000D02*
X11810000Y-9505000D01*
X11810000Y-13191859D02*
X11830000Y-13211859D01*
X11830000Y-13191859D02*
X11810000Y-13211859D01*
X11915000Y-13330000D02*
X11935000Y-13350000D01*
X11935000Y-13330000D02*
X11915000Y-13350000D01*
X11915000Y-13420000D02*
X11935000Y-13440000D01*
X11935000Y-13420000D02*
X11915000Y-13440000D01*
X12047500Y-12732500D02*
X12067500Y-12752500D01*
X12067500Y-12732500D02*
X12047500Y-12752500D01*
X12060000Y-13420000D02*
X12080000Y-13440000D01*
X12080000Y-13420000D02*
X12060000Y-13440000D01*
X12115000Y-13330000D02*
X12135000Y-13350000D01*
X12135000Y-13330000D02*
X12115000Y-13350000D01*
X12135000Y-12822500D02*
X12155000Y-12842500D01*
X12155000Y-12822500D02*
X12135000Y-12842500D01*
X12680000Y-13342500D02*
X12700000Y-13362500D01*
X12700000Y-13342500D02*
X12680000Y-13362500D01*
X12765000Y-13427500D02*
X12785000Y-13447500D01*
X12785000Y-13427500D02*
X12765000Y-13447500D01*
X12827500Y-12629779D02*
X12847500Y-12649779D01*
X12847500Y-12629779D02*
X12827500Y-12649779D01*
X12855000Y-13342500D02*
X12875000Y-13362500D01*
X12875000Y-13342500D02*
X12855000Y-13362500D01*
X12940000Y-13427500D02*
X12960000Y-13447500D01*
X12960000Y-13427500D02*
X12940000Y-13447500D01*
X12957805Y-12629779D02*
X12977805Y-12649779D01*
X12977805Y-12629779D02*
X12957805Y-12649779D01*
X12960305Y-12721029D02*
X12980305Y-12741029D01*
X12980305Y-12721029D02*
X12960305Y-12741029D01*
X12960305Y-12812279D02*
X12980305Y-12832279D01*
X12980305Y-12812279D02*
X12960305Y-12832279D01*
X13025000Y-13342500D02*
X13045000Y-13362500D01*
X13045000Y-13342500D02*
X13025000Y-13362500D01*
X13110000Y-13427500D02*
X13130000Y-13447500D01*
X13130000Y-13427500D02*
X13110000Y-13447500D01*
X13195000Y-13342500D02*
X13215000Y-13362500D01*
X13215000Y-13342500D02*
X13195000Y-13362500D01*
X13302500Y-12185000D02*
X13322500Y-12205000D01*
X13322500Y-12185000D02*
X13302500Y-12205000D01*
X13340000Y-12910000D02*
X13360000Y-12930000D01*
X13360000Y-12910000D02*
X13340000Y-12930000D01*
X13340000Y-13080000D02*
X13360000Y-13100000D01*
X13360000Y-13080000D02*
X13340000Y-13100000D01*
X13340000Y-13255000D02*
X13360000Y-13275000D01*
X13360000Y-13255000D02*
X13340000Y-13275000D01*
X13345600Y-11904400D02*
X13365600Y-11924400D01*
X13365600Y-11904400D02*
X13345600Y-11924400D01*
X13355000Y-11630000D02*
X13375000Y-11650000D01*
X13375000Y-11630000D02*
X13355000Y-11650000D01*
X13387500Y-12537500D02*
X13407500Y-12557500D01*
X13407500Y-12537500D02*
X13387500Y-12557500D01*
X13387500Y-12725000D02*
X13407500Y-12745000D01*
X13407500Y-12725000D02*
X13387500Y-12745000D01*
X13395000Y-12242500D02*
X13415000Y-12262500D01*
X13415000Y-12242500D02*
X13395000Y-12262500D01*
X13455000Y-8965000D02*
X13475000Y-8985000D01*
X13475000Y-8965000D02*
X13455000Y-8985000D01*
X13455000Y-9137500D02*
X13475000Y-9157500D01*
X13475000Y-9137500D02*
X13455000Y-9157500D01*
X13455000Y-9302500D02*
X13475000Y-9322500D01*
X13475000Y-9302500D02*
X13455000Y-9322500D01*
X13455000Y-10205000D02*
X13475000Y-10225000D01*
X13475000Y-10205000D02*
X13455000Y-10225000D01*
X13456974Y-12780000D02*
X13476974Y-12800000D01*
X13476974Y-12780000D02*
X13456974Y-12800000D01*
X13456974Y-12950000D02*
X13476974Y-12970000D01*
X13476974Y-12950000D02*
X13456974Y-12970000D01*
X13456974Y-13120000D02*
X13476974Y-13140000D01*
X13476974Y-13120000D02*
X13456974Y-13140000D01*
X13456974Y-13295000D02*
X13476974Y-13315000D01*
X13476974Y-13295000D02*
X13456974Y-13315000D01*
X13530000Y-12632500D02*
X13550000Y-12652500D01*
X13550000Y-12632500D02*
X13530000Y-12652500D01*
X13676250Y-8965000D02*
X13696250Y-8985000D01*
X13696250Y-8965000D02*
X13676250Y-8985000D01*
X13676250Y-9137500D02*
X13696250Y-9157500D01*
X13696250Y-9137500D02*
X13676250Y-9157500D01*
X13676250Y-9302500D02*
X13696250Y-9322500D01*
X13696250Y-9302500D02*
X13676250Y-9322500D01*
X13676250Y-10205000D02*
X13696250Y-10225000D01*
X13696250Y-10205000D02*
X13676250Y-10225000D01*
X13682500Y-12392500D02*
X13702500Y-12412500D01*
X13702500Y-12392500D02*
X13682500Y-12412500D01*
X13685000Y-12315000D02*
X13705000Y-12335000D01*
X13705000Y-12315000D02*
X13685000Y-12335000D01*
X13685000Y-12482500D02*
X13705000Y-12502500D01*
X13705000Y-12482500D02*
X13685000Y-12502500D01*
X13736000Y-11695000D02*
X13756000Y-11715000D01*
X13756000Y-11695000D02*
X13736000Y-11715000D01*
X13822500Y-12607500D02*
X13842500Y-12627500D01*
X13842500Y-12607500D02*
X13822500Y-12627500D01*
X13850000Y-11282500D02*
X13870000Y-11302500D01*
X13870000Y-11282500D02*
X13850000Y-11302500D01*
X13850000Y-11370000D02*
X13870000Y-11390000D01*
X13870000Y-11370000D02*
X13850000Y-11390000D01*
X13892500Y-11930000D02*
X13912500Y-11950000D01*
X13912500Y-11930000D02*
X13892500Y-11950000D01*
X13897500Y-8965000D02*
X13917500Y-8985000D01*
X13917500Y-8965000D02*
X13897500Y-8985000D01*
X13897500Y-9137500D02*
X13917500Y-9157500D01*
X13917500Y-9137500D02*
X13897500Y-9157500D01*
X13897500Y-9302500D02*
X13917500Y-9322500D01*
X13917500Y-9302500D02*
X13897500Y-9322500D01*
X13897500Y-10205000D02*
X13917500Y-10225000D01*
X13917500Y-10205000D02*
X13897500Y-10225000D01*
X13940000Y-12230000D02*
X13960000Y-12250000D01*
X13960000Y-12230000D02*
X13940000Y-12250000D01*
X13972500Y-11970000D02*
X13992500Y-11990000D01*
X13992500Y-11970000D02*
X13972500Y-11990000D01*
X14007000Y-11906000D02*
X14027000Y-11926000D01*
X14027000Y-11906000D02*
X14007000Y-11926000D01*
X14038000Y-11374000D02*
X14058000Y-11394000D01*
X14058000Y-11374000D02*
X14038000Y-11394000D01*
X14069250Y-11983250D02*
X14089250Y-12003250D01*
X14089250Y-11983250D02*
X14069250Y-12003250D01*
X14138100Y-12606899D02*
X14158100Y-12626899D01*
X14158100Y-12606899D02*
X14138100Y-12626899D01*
X14216000Y-12351000D02*
X14236000Y-12371000D01*
X14236000Y-12351000D02*
X14216000Y-12371000D01*
X14290000Y-12350000D02*
X14310000Y-12370000D01*
X14310000Y-12350000D02*
X14290000Y-12370000D01*
X14292500Y-12727500D02*
X14312500Y-12747500D01*
X14312500Y-12727500D02*
X14292500Y-12747500D01*
X14425000Y-13782500D02*
X14445000Y-13802500D01*
X14445000Y-13782500D02*
X14425000Y-13802500D01*
X14437500Y-12640000D02*
X14457500Y-12660000D01*
X14457500Y-12640000D02*
X14437500Y-12660000D01*
X14437500Y-12827500D02*
X14457500Y-12847500D01*
X14457500Y-12827500D02*
X14437500Y-12847500D01*
X14460000Y-12332500D02*
X14480000Y-12352500D01*
X14480000Y-12332500D02*
X14460000Y-12352500D01*
X14530000Y-13665000D02*
X14550000Y-13685000D01*
X14550000Y-13665000D02*
X14530000Y-13685000D01*
X14552500Y-12902500D02*
X14572500Y-12922500D01*
X14572500Y-12902500D02*
X14552500Y-12922500D01*
X14575000Y-12730000D02*
X14595000Y-12750000D01*
X14595000Y-12730000D02*
X14575000Y-12750000D01*
X14635000Y-13785000D02*
X14655000Y-13805000D01*
X14655000Y-13785000D02*
X14635000Y-13805000D01*
X14740000Y-13665000D02*
X14760000Y-13685000D01*
X14760000Y-13665000D02*
X14740000Y-13685000D01*
X14795000Y-13065000D02*
X14815000Y-13085000D01*
X14815000Y-13065000D02*
X14795000Y-13085000D01*
X14797500Y-12737500D02*
X14817500Y-12757500D01*
X14817500Y-12737500D02*
X14797500Y-12757500D01*
X14845000Y-13785000D02*
X14865000Y-13805000D01*
X14865000Y-13785000D02*
X14845000Y-13805000D01*
X14950000Y-13665000D02*
X14970000Y-13685000D01*
X14970000Y-13665000D02*
X14950000Y-13685000D01*
X15045000Y-12902500D02*
X15065000Y-12922500D01*
X15065000Y-12902500D02*
X15045000Y-12922500D01*
X15055000Y-13782500D02*
X15075000Y-13802500D01*
X15075000Y-13782500D02*
X15055000Y-13802500D01*
X15190000Y-12647500D02*
X15210000Y-12667500D01*
X15210000Y-12647500D02*
X15190000Y-12667500D01*
X15320000Y-12647500D02*
X15340000Y-12667500D01*
X15340000Y-12647500D02*
X15320000Y-12667500D01*
X15355000Y-9570000D02*
X15375000Y-9590000D01*
X15375000Y-9570000D02*
X15355000Y-9590000D01*
X15457500Y-12647500D02*
X15477500Y-12667500D01*
X15477500Y-12647500D02*
X15457500Y-12667500D01*
X15570000Y-9785000D02*
X15590000Y-9805000D01*
X15590000Y-9785000D02*
X15570000Y-9805000D01*
X15572500Y-9395000D02*
X15592500Y-9415000D01*
X15592500Y-9395000D02*
X15572500Y-9415000D01*
X15585000Y-10152500D02*
X15605000Y-10172500D01*
X15605000Y-10152500D02*
X15585000Y-10172500D01*
X15635000Y-10640000D02*
X15655000Y-10660000D01*
X15655000Y-10640000D02*
X15635000Y-10660000D01*
X15787500Y-9570000D02*
X15807500Y-9590000D01*
X15807500Y-9570000D02*
X15787500Y-9590000D01*
X15817500Y-12817500D02*
X15837500Y-12837500D01*
X15837500Y-12817500D02*
X15817500Y-12837500D01*
X16010000Y-9722500D02*
X16030000Y-9742500D01*
X16030000Y-9722500D02*
X16010000Y-9742500D01*
X16017500Y-10637500D02*
X16037500Y-10657500D01*
X16037500Y-10637500D02*
X16017500Y-10657500D01*
X16035000Y-8802500D02*
X16055000Y-8822500D01*
X16055000Y-8802500D02*
X16035000Y-8822500D01*
X16035000Y-9070000D02*
X16055000Y-9090000D01*
X16055000Y-9070000D02*
X16035000Y-9090000D01*
X16035000Y-9590000D02*
X16055000Y-9610000D01*
X16055000Y-9590000D02*
X16035000Y-9610000D01*
X16130000Y-13297500D02*
X16150000Y-13317500D01*
X16150000Y-13297500D02*
X16130000Y-13317500D01*
X16137500Y-11687500D02*
X16157500Y-11707500D01*
X16157500Y-11687500D02*
X16137500Y-11707500D01*
X16165000Y-11372500D02*
X16185000Y-11392500D01*
X16185000Y-11372500D02*
X16165000Y-11392500D01*
X16197500Y-12692500D02*
X16217500Y-12712500D01*
X16217500Y-12692500D02*
X16197500Y-12712500D01*
X16257500Y-8805000D02*
X16277500Y-8825000D01*
X16277500Y-8805000D02*
X16257500Y-8825000D01*
X16275000Y-9735000D02*
X16295000Y-9755000D01*
X16295000Y-9735000D02*
X16275000Y-9755000D01*
X16282500Y-11547500D02*
X16302500Y-11567500D01*
X16302500Y-11547500D02*
X16282500Y-11567500D01*
X16287500Y-10915000D02*
X16307500Y-10935000D01*
X16307500Y-10915000D02*
X16287500Y-10935000D01*
X16295000Y-10025000D02*
X16315000Y-10045000D01*
X16315000Y-10025000D02*
X16295000Y-10045000D01*
X16300000Y-11230000D02*
X16320000Y-11250000D01*
X16320000Y-11230000D02*
X16300000Y-11250000D01*
X16355000Y-13595000D02*
X16375000Y-13615000D01*
X16375000Y-13595000D02*
X16355000Y-13615000D01*
X16512500Y-11050000D02*
X16532500Y-11070000D01*
X16532500Y-11050000D02*
X16512500Y-11070000D01*
X16540000Y-11645000D02*
X16560000Y-11665000D01*
X16560000Y-11645000D02*
X16540000Y-11665000D01*
X16555000Y-12815000D02*
X16575000Y-12835000D01*
X16575000Y-12815000D02*
X16555000Y-12835000D01*
X16730000Y-13710000D02*
X16750000Y-13730000D01*
X16750000Y-13710000D02*
X16730000Y-13730000D01*
X16880000Y-11630000D02*
X16900000Y-11650000D01*
X16900000Y-11630000D02*
X16880000Y-11650000D01*
X16910000Y-12697500D02*
X16930000Y-12717500D01*
X16930000Y-12697500D02*
X16910000Y-12717500D01*
X17050000Y-10912500D02*
X17070000Y-10932500D01*
X17070000Y-10912500D02*
X17050000Y-10932500D01*
X17080000Y-8807500D02*
X17100000Y-8827500D01*
X17100000Y-8807500D02*
X17080000Y-8827500D01*
X17105000Y-13592500D02*
X17125000Y-13612500D01*
X17125000Y-13592500D02*
X17105000Y-13612500D01*
X17120000Y-9725000D02*
X17140000Y-9745000D01*
X17140000Y-9725000D02*
X17120000Y-9745000D01*
X17280000Y-11582500D02*
X17300000Y-11602500D01*
X17300000Y-11582500D02*
X17280000Y-11602500D01*
X17357500Y-8805000D02*
X17377500Y-8825000D01*
X17377500Y-8805000D02*
X17357500Y-8825000D01*
X17362500Y-12887500D02*
X17382500Y-12907500D01*
X17382500Y-12887500D02*
X17362500Y-12907500D01*
X17450000Y-10325000D02*
X17470000Y-10345000D01*
X17470000Y-10325000D02*
X17450000Y-10345000D01*
X17450000Y-12165000D02*
X17470000Y-12185000D01*
X17470000Y-12165000D02*
X17450000Y-12185000D01*
X17452500Y-10992500D02*
X17472500Y-11012500D01*
X17472500Y-10992500D02*
X17452500Y-11012500D01*
X17455000Y-9017500D02*
X17475000Y-9037500D01*
X17475000Y-9017500D02*
X17455000Y-9037500D01*
X17507500Y-9587500D02*
X17527500Y-9607500D01*
X17527500Y-9587500D02*
X17507500Y-9607500D01*
X17511664Y-12888336D02*
X17531664Y-12908336D01*
X17531664Y-12888336D02*
X17511664Y-12908336D01*
X17527500Y-12662500D02*
X17547500Y-12682500D01*
X17547500Y-12662500D02*
X17527500Y-12682500D01*
X17555000Y-10882500D02*
X17575000Y-10902500D01*
X17575000Y-10882500D02*
X17555000Y-10902500D01*
X17557500Y-11090000D02*
X17577500Y-11110000D01*
X17577500Y-11090000D02*
X17557500Y-11110000D01*
X17560000Y-12075000D02*
X17580000Y-12095000D01*
X17580000Y-12075000D02*
X17560000Y-12095000D01*
X17637500Y-11417500D02*
X17657500Y-11437500D01*
X17657500Y-11417500D02*
X17637500Y-11437500D01*
X17637500Y-12767500D02*
X17657500Y-12787500D01*
X17657500Y-12767500D02*
X17637500Y-12787500D01*
X17645000Y-12175000D02*
X17665000Y-12195000D01*
X17665000Y-12175000D02*
X17645000Y-12195000D01*
X17662500Y-10990000D02*
X17682500Y-11010000D01*
X17682500Y-10990000D02*
X17662500Y-11010000D01*
X17662500Y-12542500D02*
X17682500Y-12562500D01*
X17682500Y-12542500D02*
X17662500Y-12562500D01*
X17692500Y-8317500D02*
X17712500Y-8337500D01*
X17712500Y-8317500D02*
X17692500Y-8337500D01*
X17695000Y-11345000D02*
X17715000Y-11365000D01*
X17715000Y-11345000D02*
X17695000Y-11365000D01*
X17702500Y-11492500D02*
X17722500Y-11512500D01*
X17722500Y-11492500D02*
X17702500Y-11512500D01*
X17784000Y-11237500D02*
X17804000Y-11257500D01*
X17804000Y-11237500D02*
X17784000Y-11257500D01*
X17805000Y-8430000D02*
X17825000Y-8450000D01*
X17825000Y-8430000D02*
X17805000Y-8450000D01*
X17845000Y-11180000D02*
X17865000Y-11200000D01*
X17865000Y-11180000D02*
X17845000Y-11200000D01*
X17887500Y-13580000D02*
X17907500Y-13600000D01*
X17907500Y-13580000D02*
X17887500Y-13600000D01*
X17915000Y-8320000D02*
X17935000Y-8340000D01*
X17935000Y-8320000D02*
X17915000Y-8340000D01*
X17940000Y-12522500D02*
X17960000Y-12542500D01*
X17960000Y-12522500D02*
X17940000Y-12542500D01*
X18002500Y-13582500D02*
X18022500Y-13602500D01*
X18022500Y-13582500D02*
X18002500Y-13602500D01*
X18057500Y-8302500D02*
X18077500Y-8322500D01*
X18077500Y-8302500D02*
X18057500Y-8322500D01*
X18122500Y-13585000D02*
X18142500Y-13605000D01*
X18142500Y-13585000D02*
X18122500Y-13605000D01*
X18275000Y-13585000D02*
X18295000Y-13605000D01*
X18295000Y-13585000D02*
X18275000Y-13605000D01*
X18420000Y-10510000D02*
X18440000Y-10530000D01*
X18440000Y-10510000D02*
X18420000Y-10530000D01*
X18422500Y-10430000D02*
X18442500Y-10450000D01*
X18442500Y-10430000D02*
X18422500Y-10450000D01*
X18430000Y-11100000D02*
X18450000Y-11120000D01*
X18450000Y-11100000D02*
X18430000Y-11120000D01*
X18632500Y-9102500D02*
X18652500Y-9122500D01*
X18652500Y-9102500D02*
X18632500Y-9122500D01*
X18642500Y-12145000D02*
X18662500Y-12165000D01*
X18662500Y-12145000D02*
X18642500Y-12165000D01*
X18695446Y-9061722D02*
X18715446Y-9081722D01*
X18715446Y-9061722D02*
X18695446Y-9081722D01*
X18822500Y-11455000D02*
X18842500Y-11475000D01*
X18842500Y-11455000D02*
X18822500Y-11475000D01*
X18850000Y-13385000D02*
X18870000Y-13405000D01*
X18870000Y-13385000D02*
X18850000Y-13405000D01*
X18865000Y-8322500D02*
X18885000Y-8342500D01*
X18885000Y-8322500D02*
X18865000Y-8342500D01*
X18918000Y-10501000D02*
X18938000Y-10521000D01*
X18938000Y-10501000D02*
X18918000Y-10521000D01*
X18925000Y-12865000D02*
X18945000Y-12885000D01*
X18945000Y-12865000D02*
X18925000Y-12885000D01*
X18930000Y-13385000D02*
X18950000Y-13405000D01*
X18950000Y-13385000D02*
X18930000Y-13405000D01*
X18960000Y-10570000D02*
X18980000Y-10590000D01*
X18980000Y-10570000D02*
X18960000Y-10590000D01*
X18972500Y-13310000D02*
X18992500Y-13330000D01*
X18992500Y-13310000D02*
X18972500Y-13330000D01*
X18975000Y-8212500D02*
X18995000Y-8232500D01*
X18995000Y-8212500D02*
X18975000Y-8232500D01*
X18977500Y-8432500D02*
X18997500Y-8452500D01*
X18997500Y-8432500D02*
X18977500Y-8452500D01*
X18980000Y-10805000D02*
X19000000Y-10825000D01*
X19000000Y-10805000D02*
X18980000Y-10825000D01*
X18980000Y-10902500D02*
X19000000Y-10922500D01*
X19000000Y-10902500D02*
X18980000Y-10922500D01*
X18995000Y-13562500D02*
X19015000Y-13582500D01*
X19015000Y-13562500D02*
X18995000Y-13582500D01*
X19090000Y-8322500D02*
X19110000Y-8342500D01*
X19110000Y-8322500D02*
X19090000Y-8342500D01*
X19110000Y-13657500D02*
X19130000Y-13677500D01*
X19130000Y-13657500D02*
X19110000Y-13677500D01*
X19192500Y-12605000D02*
X19212500Y-12625000D01*
X19212500Y-12605000D02*
X19192500Y-12625000D01*
X19202500Y-12480000D02*
X19222500Y-12500000D01*
X19222500Y-12480000D02*
X19202500Y-12500000D01*
X19220000Y-10872500D02*
X19240000Y-10892500D01*
X19240000Y-10872500D02*
X19220000Y-10892500D01*
X19220000Y-13562500D02*
X19240000Y-13582500D01*
X19240000Y-13562500D02*
X19220000Y-13582500D01*
X19230000Y-8322500D02*
X19250000Y-8342500D01*
X19250000Y-8322500D02*
X19230000Y-8342500D01*
X19242500Y-11480000D02*
X19262500Y-11500000D01*
X19262500Y-11480000D02*
X19242500Y-11500000D01*
X19247500Y-11212500D02*
X19267500Y-11232500D01*
X19267500Y-11212500D02*
X19247500Y-11232500D01*
X19255000Y-12427500D02*
X19275000Y-12447500D01*
X19275000Y-12427500D02*
X19255000Y-12447500D01*
X19272500Y-12502500D02*
X19292500Y-12522500D01*
X19292500Y-12502500D02*
X19272500Y-12522500D01*
X19275000Y-12675000D02*
X19295000Y-12695000D01*
X19295000Y-12675000D02*
X19275000Y-12695000D01*
X19280000Y-13182500D02*
X19300000Y-13202500D01*
X19300000Y-13182500D02*
X19280000Y-13202500D01*
X19297500Y-12575000D02*
X19317500Y-12595000D01*
X19317500Y-12575000D02*
X19297500Y-12595000D01*
X19317500Y-12352500D02*
X19337500Y-12372500D01*
X19337500Y-12352500D02*
X19317500Y-12372500D01*
X19332500Y-8220000D02*
X19352500Y-8240000D01*
X19352500Y-8220000D02*
X19332500Y-8240000D01*
X19332500Y-8422500D02*
X19352500Y-8442500D01*
X19352500Y-8422500D02*
X19332500Y-8442500D01*
X19335000Y-10065000D02*
X19355000Y-10085000D01*
X19355000Y-10065000D02*
X19335000Y-10085000D01*
X19337500Y-13562500D02*
X19357500Y-13582500D01*
X19357500Y-13562500D02*
X19337500Y-13582500D01*
X19350000Y-12522500D02*
X19370000Y-12542500D01*
X19370000Y-12522500D02*
X19350000Y-12542500D01*
X19397500Y-12437500D02*
X19417500Y-12457500D01*
X19417500Y-12437500D02*
X19397500Y-12457500D01*
X19435000Y-10067500D02*
X19455000Y-10087500D01*
X19455000Y-10067500D02*
X19435000Y-10087500D01*
X19437500Y-8322500D02*
X19457500Y-8342500D01*
X19457500Y-8322500D02*
X19437500Y-8342500D01*
X19450000Y-13655000D02*
X19470000Y-13675000D01*
X19470000Y-13655000D02*
X19450000Y-13675000D01*
X19470000Y-12535000D02*
X19490000Y-12555000D01*
X19490000Y-12535000D02*
X19470000Y-12555000D01*
X19565000Y-8267500D02*
X19585000Y-8287500D01*
X19585000Y-8267500D02*
X19565000Y-8287500D01*
X19670000Y-13515000D02*
X19690000Y-13535000D01*
X19690000Y-13515000D02*
X19670000Y-13535000D01*
X19720000Y-11540000D02*
X19740000Y-11560000D01*
X19740000Y-11540000D02*
X19720000Y-11560000D01*
X19737500Y-12650000D02*
X19757500Y-12670000D01*
X19757500Y-12650000D02*
X19737500Y-12670000D01*
X19807500Y-12555000D02*
X19827500Y-12575000D01*
X19827500Y-12555000D02*
X19807500Y-12575000D01*
X19850000Y-12650000D02*
X19870000Y-12670000D01*
X19870000Y-12650000D02*
X19850000Y-12670000D01*
X19915000Y-12585000D02*
X19935000Y-12605000D01*
X19935000Y-12585000D02*
X19915000Y-12605000D01*
X19940000Y-8070000D02*
X19960000Y-8090000D01*
X19960000Y-8070000D02*
X19940000Y-8090000D01*
X19947500Y-12677500D02*
X19967500Y-12697500D01*
X19967500Y-12677500D02*
X19947500Y-12697500D01*
X20017500Y-13227500D02*
X20037500Y-13247500D01*
X20037500Y-13227500D02*
X20017500Y-13247500D01*
X20065000Y-8070000D02*
X20085000Y-8090000D01*
X20085000Y-8070000D02*
X20065000Y-8090000D01*
X20087500Y-12867500D02*
X20107500Y-12887500D01*
X20107500Y-12867500D02*
X20087500Y-12887500D01*
X20102500Y-13257500D02*
X20122500Y-13277500D01*
X20122500Y-13257500D02*
X20102500Y-13277500D01*
X20140000Y-8402500D02*
X20160000Y-8422500D01*
X20160000Y-8402500D02*
X20140000Y-8422500D01*
X20150000Y-13327500D02*
X20170000Y-13347500D01*
X20170000Y-13327500D02*
X20150000Y-13347500D01*
X20180000Y-8070000D02*
X20200000Y-8090000D01*
X20200000Y-8070000D02*
X20180000Y-8090000D01*
X20195000Y-10437500D02*
X20215000Y-10457500D01*
X20215000Y-10437500D02*
X20195000Y-10457500D01*
X20197500Y-13257500D02*
X20217500Y-13277500D01*
X20217500Y-13257500D02*
X20197500Y-13277500D01*
X20200000Y-8467500D02*
X20220000Y-8487500D01*
X20220000Y-8467500D02*
X20200000Y-8487500D01*
X20245000Y-9127500D02*
X20265000Y-9147500D01*
X20265000Y-9127500D02*
X20245000Y-9147500D01*
X20255000Y-9300000D02*
X20275000Y-9320000D01*
X20275000Y-9300000D02*
X20255000Y-9320000D01*
X20257500Y-8530000D02*
X20277500Y-8550000D01*
X20277500Y-8530000D02*
X20257500Y-8550000D01*
X20290000Y-9215000D02*
X20310000Y-9235000D01*
X20310000Y-9215000D02*
X20290000Y-9235000D01*
X20292500Y-8685000D02*
X20312500Y-8705000D01*
X20312500Y-8685000D02*
X20292500Y-8705000D01*
X20322500Y-8075000D02*
X20342500Y-8095000D01*
X20342500Y-8075000D02*
X20322500Y-8095000D01*
X20327500Y-12797500D02*
X20347500Y-12817500D01*
X20347500Y-12797500D02*
X20327500Y-12817500D01*
X20332500Y-13575000D02*
X20352500Y-13595000D01*
X20352500Y-13575000D02*
X20332500Y-13595000D01*
X20347500Y-12665000D02*
X20367500Y-12685000D01*
X20367500Y-12665000D02*
X20347500Y-12685000D01*
X20380000Y-12575000D02*
X20400000Y-12595000D01*
X20400000Y-12575000D02*
X20380000Y-12595000D01*
X20387500Y-11577500D02*
X20407500Y-11597500D01*
X20407500Y-11577500D02*
X20387500Y-11597500D01*
X20387500Y-12435000D02*
X20407500Y-12455000D01*
X20407500Y-12435000D02*
X20387500Y-12455000D01*
X20390000Y-12947500D02*
X20410000Y-12967500D01*
X20410000Y-12947500D02*
X20390000Y-12967500D01*
X20440000Y-12635000D02*
X20460000Y-12655000D01*
X20460000Y-12635000D02*
X20440000Y-12655000D01*
X20447500Y-12532500D02*
X20467500Y-12552500D01*
X20467500Y-12532500D02*
X20447500Y-12552500D01*
X20460000Y-8755000D02*
X20480000Y-8775000D01*
X20480000Y-8755000D02*
X20460000Y-8775000D01*
X20497500Y-13045000D02*
X20517500Y-13065000D01*
X20517500Y-13045000D02*
X20497500Y-13065000D01*
X20580000Y-13235000D02*
X20600000Y-13255000D01*
X20600000Y-13235000D02*
X20580000Y-13255000D01*
X20585000Y-9110000D02*
X20605000Y-9130000D01*
X20605000Y-9110000D02*
X20585000Y-9130000D01*
X20585000Y-13572500D02*
X20605000Y-13592500D01*
X20605000Y-13572500D02*
X20585000Y-13592500D01*
X20592500Y-9210000D02*
X20612500Y-9230000D01*
X20612500Y-9210000D02*
X20592500Y-9230000D01*
X20592500Y-13140000D02*
X20612500Y-13160000D01*
X20612500Y-13140000D02*
X20592500Y-13160000D01*
X20625000Y-13767500D02*
X20645000Y-13787500D01*
X20645000Y-13767500D02*
X20625000Y-13787500D01*
X20667500Y-13387500D02*
X20687500Y-13407500D01*
X20687500Y-13387500D02*
X20667500Y-13407500D01*
X20670000Y-13572500D02*
X20690000Y-13592500D01*
X20690000Y-13572500D02*
X20670000Y-13592500D01*
X20675000Y-8870000D02*
X20695000Y-8890000D01*
X20695000Y-8870000D02*
X20675000Y-8890000D01*
X20675000Y-8995000D02*
X20695000Y-9015000D01*
X20695000Y-8995000D02*
X20675000Y-9015000D01*
X20675000Y-9110000D02*
X20695000Y-9130000D01*
X20695000Y-9110000D02*
X20675000Y-9130000D01*
X20680000Y-9210000D02*
X20700000Y-9230000D01*
X20700000Y-9210000D02*
X20680000Y-9230000D01*
X20695000Y-11707500D02*
X20715000Y-11727500D01*
X20715000Y-11707500D02*
X20695000Y-11727500D01*
X20695000Y-12565000D02*
X20715000Y-12585000D01*
X20715000Y-12565000D02*
X20695000Y-12585000D01*
X20765000Y-8932500D02*
X20785000Y-8952500D01*
X20785000Y-8932500D02*
X20765000Y-8952500D01*
X20765000Y-9057500D02*
X20785000Y-9077500D01*
X20785000Y-9057500D02*
X20765000Y-9077500D01*
X17250000Y-13570000D02*
G75*
G02*
X17225000Y-13570000I-12500J0D01*
G01*
X17225000Y-13570000D02*
G75*
G02*
X17250000Y-13570000I12500J0D01*
G01*
X17392500Y-13427500D02*
G75*
G02*
X17367500Y-13427500I-12500J0D01*
G01*
X17367500Y-13427500D02*
G75*
G02*
X17392500Y-13427500I12500J0D01*
G01*
X17392500Y-13710000D02*
G75*
G02*
X17367500Y-13710000I-12500J0D01*
G01*
X17367500Y-13710000D02*
G75*
G02*
X17392500Y-13710000I12500J0D01*
G01*
X17532500Y-13570000D02*
G75*
G02*
X17507500Y-13570000I-12500J0D01*
G01*
X17507500Y-13570000D02*
G75*
G02*
X17532500Y-13570000I12500J0D01*
G01*
X19267500Y-11320000D02*
G75*
G02*
X19242500Y-11320000I-12500J0D01*
G01*
X19242500Y-11320000D02*
G75*
G02*
X19267500Y-11320000I12500J0D01*
G01*
X20417500Y-8700000D02*
G75*
G02*
X20392500Y-8700000I-12500J0D01*
G01*
X20392500Y-8700000D02*
G75*
G02*
X20417500Y-8700000I12500J0D01*
G01*
X11377500Y-9717500D02*
X11377500Y-9747500D01*
X11362500Y-9732500D02*
X11392500Y-9732500D01*
X11377500Y-9887500D02*
X11377500Y-9917500D01*
X11362500Y-9902500D02*
X11392500Y-9902500D01*
X11380000Y-8967500D02*
X11380000Y-8997500D01*
X11365000Y-8982500D02*
X11395000Y-8982500D01*
X11380000Y-9137500D02*
X11380000Y-9167500D01*
X11365000Y-9152500D02*
X11395000Y-9152500D01*
X11462500Y-9802500D02*
X11462500Y-9832500D01*
X11447500Y-9817500D02*
X11477500Y-9817500D01*
X11465000Y-9052500D02*
X11465000Y-9082500D01*
X11450000Y-9067500D02*
X11480000Y-9067500D01*
X11552500Y-9717500D02*
X11552500Y-9747500D01*
X11537500Y-9732500D02*
X11567500Y-9732500D01*
X11552500Y-9887500D02*
X11552500Y-9917500D01*
X11537500Y-9902500D02*
X11567500Y-9902500D01*
X11555000Y-8967500D02*
X11555000Y-8997500D01*
X11540000Y-8982500D02*
X11570000Y-8982500D01*
X11555000Y-9137500D02*
X11555000Y-9167500D01*
X11540000Y-9152500D02*
X11570000Y-9152500D01*
X12683000Y-10758000D02*
X12683000Y-10788000D01*
X12668000Y-10773000D02*
X12698000Y-10773000D01*
X12683000Y-10928000D02*
X12683000Y-10958000D01*
X12668000Y-10943000D02*
X12698000Y-10943000D01*
X12697500Y-13012500D02*
X12697500Y-13042500D01*
X12682500Y-13027500D02*
X12712500Y-13027500D01*
X12697500Y-13182500D02*
X12697500Y-13212500D01*
X12682500Y-13197500D02*
X12712500Y-13197500D01*
X12768000Y-10843000D02*
X12768000Y-10873000D01*
X12753000Y-10858000D02*
X12783000Y-10858000D01*
X12782500Y-13097500D02*
X12782500Y-13127500D01*
X12767500Y-13112500D02*
X12797500Y-13112500D01*
X12858000Y-10758000D02*
X12858000Y-10788000D01*
X12843000Y-10773000D02*
X12873000Y-10773000D01*
X12858000Y-10928000D02*
X12858000Y-10958000D01*
X12843000Y-10943000D02*
X12873000Y-10943000D01*
X12872500Y-13012500D02*
X12872500Y-13042500D01*
X12857500Y-13027500D02*
X12887500Y-13027500D01*
X12872500Y-13182500D02*
X12872500Y-13212500D01*
X12857500Y-13197500D02*
X12887500Y-13197500D01*
X12943000Y-10843000D02*
X12943000Y-10873000D01*
X12928000Y-10858000D02*
X12958000Y-10858000D01*
X12957500Y-13097500D02*
X12957500Y-13127500D01*
X12942500Y-13112500D02*
X12972500Y-13112500D01*
X13028000Y-10758000D02*
X13028000Y-10788000D01*
X13013000Y-10773000D02*
X13043000Y-10773000D01*
X13028000Y-10928000D02*
X13028000Y-10958000D01*
X13013000Y-10943000D02*
X13043000Y-10943000D01*
X13042500Y-13012500D02*
X13042500Y-13042500D01*
X13027500Y-13027500D02*
X13057500Y-13027500D01*
X13042500Y-13182500D02*
X13042500Y-13212500D01*
X13027500Y-13197500D02*
X13057500Y-13197500D01*
X13113000Y-10843000D02*
X13113000Y-10873000D01*
X13098000Y-10858000D02*
X13128000Y-10858000D01*
X13127500Y-13097500D02*
X13127500Y-13127500D01*
X13112500Y-13112500D02*
X13142500Y-13112500D01*
X13198000Y-10758000D02*
X13198000Y-10788000D01*
X13183000Y-10773000D02*
X13213000Y-10773000D01*
X13198000Y-10928000D02*
X13198000Y-10958000D01*
X13183000Y-10943000D02*
X13213000Y-10943000D01*
X13212500Y-13012500D02*
X13212500Y-13042500D01*
X13197500Y-13027500D02*
X13227500Y-13027500D01*
X13212500Y-13182500D02*
X13212500Y-13212500D01*
X13197500Y-13197500D02*
X13227500Y-13197500D01*
X14360000Y-11930000D02*
X14360000Y-11960000D01*
X14345000Y-11945000D02*
X14375000Y-11945000D01*
X15185000Y-12745000D02*
X15185000Y-12775000D01*
X15170000Y-12760000D02*
X15200000Y-12760000D01*
X15330000Y-12745000D02*
X15330000Y-12775000D01*
X15315000Y-12760000D02*
X15345000Y-12760000D01*
X15475000Y-12745000D02*
X15475000Y-12775000D01*
X15460000Y-12760000D02*
X15490000Y-12760000D01*
X15825000Y-13285000D02*
X15825000Y-13315000D01*
X15810000Y-13300000D02*
X15840000Y-13300000D01*
X15910000Y-13370000D02*
X15910000Y-13400000D01*
X15895000Y-13385000D02*
X15925000Y-13385000D01*
X15995000Y-13285000D02*
X15995000Y-13315000D01*
X15980000Y-13300000D02*
X16010000Y-13300000D01*
X16195000Y-11585000D02*
X16195000Y-11615000D01*
X16180000Y-11600000D02*
X16210000Y-11600000D01*
X16215000Y-11270000D02*
X16215000Y-11300000D01*
X16200000Y-11285000D02*
X16230000Y-11285000D01*
X16245000Y-11635000D02*
X16245000Y-11665000D01*
X16230000Y-11650000D02*
X16260000Y-11650000D01*
X16262500Y-11317500D02*
X16262500Y-11347500D01*
X16247500Y-11332500D02*
X16277500Y-11332500D01*
X17645000Y-12890000D02*
X17645000Y-12920000D01*
X17630000Y-12905000D02*
X17660000Y-12905000D01*
X17660000Y-12995000D02*
X17660000Y-13025000D01*
X17645000Y-13010000D02*
X17675000Y-13010000D01*
X17800000Y-12860000D02*
X17800000Y-12890000D01*
X17785000Y-12875000D02*
X17815000Y-12875000D01*
X17800000Y-12965000D02*
X17800000Y-12995000D01*
X17785000Y-12980000D02*
X17815000Y-12980000D01*
X17955000Y-13475000D02*
X17955000Y-13505000D01*
X17940000Y-13490000D02*
X17970000Y-13490000D01*
X18060000Y-13475000D02*
X18060000Y-13505000D01*
X18045000Y-13490000D02*
X18075000Y-13490000D01*
X18160000Y-8235000D02*
X18160000Y-8265000D01*
X18145000Y-8250000D02*
X18175000Y-8250000D01*
X18445000Y-10995000D02*
X18445000Y-11025000D01*
X18430000Y-11010000D02*
X18460000Y-11010000D01*
X19112500Y-10822500D02*
X19112500Y-10852500D01*
X19097500Y-10837500D02*
X19127500Y-10837500D01*
X19115000Y-10910000D02*
X19115000Y-10940000D01*
X19100000Y-10925000D02*
X19130000Y-10925000D01*
X19347500Y-10177500D02*
X19347500Y-10207500D01*
X19332500Y-10192500D02*
X19362500Y-10192500D01*
X19440000Y-10177500D02*
X19440000Y-10207500D01*
X19425000Y-10192500D02*
X19455000Y-10192500D01*
X19590000Y-8150000D02*
X19590000Y-8180000D01*
X19575000Y-8165000D02*
X19605000Y-8165000D01*
X19635000Y-13635000D02*
X19635000Y-13665000D01*
X19620000Y-13650000D02*
X19650000Y-13650000D01*
X19697500Y-13697500D02*
X19697500Y-13727500D01*
X19682500Y-13712500D02*
X19712500Y-13712500D01*
X15423563Y-8612423D02*
X15423563Y-8569317D01*
X15380457Y-8569317D01*
X15380457Y-8612423D01*
X15423563Y-8612423D01*
X15548563Y-8612423D02*
X15548563Y-8569317D01*
X15505457Y-8569317D01*
X15505457Y-8612423D01*
X15548563Y-8612423D01*
X15673563Y-8612423D02*
X15673563Y-8569317D01*
X15630457Y-8569317D01*
X15630457Y-8612423D01*
X15673563Y-8612423D01*
X15798563Y-8612423D02*
X15798563Y-8569317D01*
X15755457Y-8569317D01*
X15755457Y-8612423D01*
X15798563Y-8612423D01*
X15923563Y-8612423D02*
X15923563Y-8569317D01*
X15880457Y-8569317D01*
X15880457Y-8612423D01*
X15923563Y-8612423D01*
X16048563Y-8612423D02*
X16048563Y-8569317D01*
X16005457Y-8569317D01*
X16005457Y-8612423D01*
X16048563Y-8612423D01*
X16173563Y-8612423D02*
X16173563Y-8569317D01*
X16130457Y-8569317D01*
X16130457Y-8612423D01*
X16173563Y-8612423D01*
X16298563Y-8612423D02*
X16298563Y-8569317D01*
X16255457Y-8569317D01*
X16255457Y-8612423D01*
X16298563Y-8612423D01*
X16423563Y-8612423D02*
X16423563Y-8569317D01*
X16380457Y-8569317D01*
X16380457Y-8612423D01*
X16423563Y-8612423D01*
X16548563Y-8612423D02*
X16548563Y-8569317D01*
X16505457Y-8569317D01*
X16505457Y-8612423D01*
X16548563Y-8612423D01*
X16673563Y-8612423D02*
X16673563Y-8569317D01*
X16630457Y-8569317D01*
X16630457Y-8612423D01*
X16673563Y-8612423D01*
X16798563Y-8612423D02*
X16798563Y-8569317D01*
X16755457Y-8569317D01*
X16755457Y-8612423D01*
X16798563Y-8612423D01*
X19496000Y-10568000D02*
X19546000Y-10518000D01*
X19496000Y-10468000D01*
X19446000Y-10518000D01*
X19496000Y-10568000D01*
X19496000Y-10797000D02*
X19546000Y-10747000D01*
X19496000Y-10697000D01*
X19446000Y-10747000D01*
X19496000Y-10797000D01*
X19496000Y-11026000D02*
X19546000Y-10976000D01*
X19496000Y-10926000D01*
X19446000Y-10976000D01*
X19496000Y-11026000D01*
X19496000Y-11255000D02*
X19546000Y-11205000D01*
X19496000Y-11155000D01*
X19446000Y-11205000D01*
X19496000Y-11255000D01*
X19496000Y-11484000D02*
X19546000Y-11434000D01*
X19496000Y-11384000D01*
X19446000Y-11434000D01*
X19496000Y-11484000D01*
X19750000Y-10453500D02*
X19800000Y-10403500D01*
X19750000Y-10353500D01*
X19700000Y-10403500D01*
X19750000Y-10453500D01*
X19750000Y-10682500D02*
X19800000Y-10632500D01*
X19750000Y-10582500D01*
X19700000Y-10632500D01*
X19750000Y-10682500D01*
X19750000Y-10911500D02*
X19800000Y-10861500D01*
X19750000Y-10811500D01*
X19700000Y-10861500D01*
X19750000Y-10911500D01*
X19750000Y-11140500D02*
X19800000Y-11090500D01*
X19750000Y-11040500D01*
X19700000Y-11090500D01*
X19750000Y-11140500D01*
X19750000Y-11369500D02*
X19800000Y-11319500D01*
X19750000Y-11269500D01*
X19700000Y-11319500D01*
X19750000Y-11369500D01*
X20004000Y-10568000D02*
X20054000Y-10518000D01*
X20004000Y-10468000D01*
X19954000Y-10518000D01*
X20004000Y-10568000D01*
X20004000Y-10797000D02*
X20054000Y-10747000D01*
X20004000Y-10697000D01*
X19954000Y-10747000D01*
X20004000Y-10797000D01*
X20004000Y-11026000D02*
X20054000Y-10976000D01*
X20004000Y-10926000D01*
X19954000Y-10976000D01*
X20004000Y-11026000D01*
X20004000Y-11255000D02*
X20054000Y-11205000D01*
X20004000Y-11155000D01*
X19954000Y-11205000D01*
X20004000Y-11255000D01*
X20004000Y-11484000D02*
X20054000Y-11434000D01*
X20004000Y-11384000D01*
X19954000Y-11434000D01*
X20004000Y-11484000D01*
D13*
X12365000Y-8355000D02*
X12495000Y-8485000D01*
X12495000Y-8355000D02*
X12365000Y-8485000D01*
X12495000Y-8420000D02*
G75*
G02*
X12365000Y-8420000I-65000J0D01*
G01*
X12365000Y-8420000D02*
G75*
G02*
X12495000Y-8420000I65000J0D01*
G01*
X12365000Y-9105000D02*
X12495000Y-9235000D01*
X12495000Y-9105000D02*
X12365000Y-9235000D01*
X12495000Y-9170000D02*
G75*
G02*
X12365000Y-9170000I-65000J0D01*
G01*
X12365000Y-9170000D02*
G75*
G02*
X12495000Y-9170000I65000J0D01*
G01*
X12365000Y-9835000D02*
X12495000Y-9965000D01*
X12495000Y-9835000D02*
X12365000Y-9965000D01*
X12495000Y-9900000D02*
G75*
G02*
X12365000Y-9900000I-65000J0D01*
G01*
X12365000Y-9900000D02*
G75*
G02*
X12495000Y-9900000I65000J0D01*
G01*
X12365000Y-10585000D02*
X12495000Y-10715000D01*
X12495000Y-10585000D02*
X12365000Y-10715000D01*
X12495000Y-10650000D02*
G75*
G02*
X12365000Y-10650000I-65000J0D01*
G01*
X12365000Y-10650000D02*
G75*
G02*
X12495000Y-10650000I65000J0D01*
G01*
X14365000Y-8355000D02*
X14495000Y-8485000D01*
X14495000Y-8355000D02*
X14365000Y-8485000D01*
X14495000Y-8420000D02*
G75*
G02*
X14365000Y-8420000I-65000J0D01*
G01*
X14365000Y-8420000D02*
G75*
G02*
X14495000Y-8420000I65000J0D01*
G01*
X14365000Y-9105000D02*
X14495000Y-9235000D01*
X14495000Y-9105000D02*
X14365000Y-9235000D01*
X14495000Y-9170000D02*
G75*
G02*
X14365000Y-9170000I-65000J0D01*
G01*
X14365000Y-9170000D02*
G75*
G02*
X14495000Y-9170000I65000J0D01*
G01*
X14365000Y-9835000D02*
X14495000Y-9965000D01*
X14495000Y-9835000D02*
X14365000Y-9965000D01*
X14495000Y-9900000D02*
G75*
G02*
X14365000Y-9900000I-65000J0D01*
G01*
X14365000Y-9900000D02*
G75*
G02*
X14495000Y-9900000I65000J0D01*
G01*
X14365000Y-10585000D02*
X14495000Y-10715000D01*
X14495000Y-10585000D02*
X14365000Y-10715000D01*
X14495000Y-10650000D02*
G75*
G02*
X14365000Y-10650000I-65000J0D01*
G01*
X14365000Y-10650000D02*
G75*
G02*
X14495000Y-10650000I65000J0D01*
G01*
X14865000Y-8355000D02*
X14995000Y-8485000D01*
X14995000Y-8355000D02*
X14865000Y-8485000D01*
X14995000Y-8420000D02*
G75*
G02*
X14865000Y-8420000I-65000J0D01*
G01*
X14865000Y-8420000D02*
G75*
G02*
X14995000Y-8420000I65000J0D01*
G01*
X14865000Y-9105000D02*
X14995000Y-9235000D01*
X14995000Y-9105000D02*
X14865000Y-9235000D01*
X14995000Y-9170000D02*
G75*
G02*
X14865000Y-9170000I-65000J0D01*
G01*
X14865000Y-9170000D02*
G75*
G02*
X14995000Y-9170000I65000J0D01*
G01*
X14865000Y-9835000D02*
X14995000Y-9965000D01*
X14995000Y-9835000D02*
X14865000Y-9965000D01*
X14995000Y-9900000D02*
G75*
G02*
X14865000Y-9900000I-65000J0D01*
G01*
X14865000Y-9900000D02*
G75*
G02*
X14995000Y-9900000I65000J0D01*
G01*
X14865000Y-10585000D02*
X14995000Y-10715000D01*
X14995000Y-10585000D02*
X14865000Y-10715000D01*
X14995000Y-10650000D02*
G75*
G02*
X14865000Y-10650000I-65000J0D01*
G01*
X14865000Y-10650000D02*
G75*
G02*
X14995000Y-10650000I65000J0D01*
G01*
D14*
X9670000Y-8320000D02*
X9850000Y-8500000D01*
X9850000Y-8320000D02*
X9670000Y-8500000D01*
X9760000Y-8320000D02*
X9760000Y-8500000D01*
X9670000Y-8410000D02*
X9850000Y-8410000D01*
X9670000Y-8820000D02*
X9850000Y-9000000D01*
X9850000Y-8820000D02*
X9670000Y-9000000D01*
X9760000Y-8820000D02*
X9760000Y-9000000D01*
X9670000Y-8910000D02*
X9850000Y-8910000D01*
X9672500Y-9557000D02*
X9852500Y-9737000D01*
X9852500Y-9557000D02*
X9672500Y-9737000D01*
X9762500Y-9557000D02*
X9762500Y-9737000D01*
X9672500Y-9647000D02*
X9852500Y-9647000D01*
X9672500Y-10057000D02*
X9852500Y-10237000D01*
X9852500Y-10057000D02*
X9672500Y-10237000D01*
X9762500Y-10057000D02*
X9762500Y-10237000D01*
X9672500Y-10147000D02*
X9852500Y-10147000D01*
X12270000Y-11342500D02*
X12450000Y-11522500D01*
X12450000Y-11342500D02*
X12270000Y-11522500D01*
X12360000Y-11342500D02*
X12360000Y-11522500D01*
X12270000Y-11432500D02*
X12450000Y-11432500D01*
X12770000Y-11342500D02*
X12950000Y-11522500D01*
X12950000Y-11342500D02*
X12770000Y-11522500D01*
X12860000Y-11342500D02*
X12860000Y-11522500D01*
X12770000Y-11432500D02*
X12950000Y-11432500D01*
X15492500Y-8990000D02*
X15672500Y-9170000D01*
X15672500Y-8990000D02*
X15492500Y-9170000D01*
X15582500Y-8990000D02*
X15582500Y-9170000D01*
X15492500Y-9080000D02*
X15672500Y-9080000D01*
X15492500Y-9490000D02*
X15672500Y-9670000D01*
X15672500Y-9490000D02*
X15492500Y-9670000D01*
X15582500Y-9490000D02*
X15582500Y-9670000D01*
X15492500Y-9580000D02*
X15672500Y-9580000D01*
D11*
X9558277Y-14264023D02*
X9558277Y-14064023D01*
X9558277Y-14064023D02*
X9605896Y-14064023D01*
X9605896Y-14064023D02*
X9634467Y-14073547D01*
X9634467Y-14073547D02*
X9653515Y-14092594D01*
X9653515Y-14092594D02*
X9663039Y-14111642D01*
X9663039Y-14111642D02*
X9672563Y-14149737D01*
X9672563Y-14149737D02*
X9672563Y-14178309D01*
X9672563Y-14178309D02*
X9663039Y-14216404D01*
X9663039Y-14216404D02*
X9653515Y-14235451D01*
X9653515Y-14235451D02*
X9634467Y-14254499D01*
X9634467Y-14254499D02*
X9605896Y-14264023D01*
X9605896Y-14264023D02*
X9558277Y-14264023D01*
X9758277Y-14264023D02*
X9758277Y-14130689D01*
X9758277Y-14168785D02*
X9767801Y-14149737D01*
X9767801Y-14149737D02*
X9777324Y-14140213D01*
X9777324Y-14140213D02*
X9796372Y-14130689D01*
X9796372Y-14130689D02*
X9815420Y-14130689D01*
X9882086Y-14264023D02*
X9882086Y-14130689D01*
X9882086Y-14064023D02*
X9872563Y-14073547D01*
X9872563Y-14073547D02*
X9882086Y-14083070D01*
X9882086Y-14083070D02*
X9891610Y-14073547D01*
X9891610Y-14073547D02*
X9882086Y-14064023D01*
X9882086Y-14064023D02*
X9882086Y-14083070D01*
X10005896Y-14264023D02*
X9986848Y-14254499D01*
X9986848Y-14254499D02*
X9977324Y-14235451D01*
X9977324Y-14235451D02*
X9977324Y-14064023D01*
X10110658Y-14264023D02*
X10091610Y-14254499D01*
X10091610Y-14254499D02*
X10082086Y-14235451D01*
X10082086Y-14235451D02*
X10082086Y-14064023D01*
X10339229Y-14264023D02*
X10339229Y-14064023D01*
X10339229Y-14064023D02*
X10405896Y-14206880D01*
X10405896Y-14206880D02*
X10472563Y-14064023D01*
X10472563Y-14064023D02*
X10472563Y-14264023D01*
X10653515Y-14264023D02*
X10653515Y-14159261D01*
X10653515Y-14159261D02*
X10643991Y-14140213D01*
X10643991Y-14140213D02*
X10624944Y-14130689D01*
X10624944Y-14130689D02*
X10586848Y-14130689D01*
X10586848Y-14130689D02*
X10567801Y-14140213D01*
X10653515Y-14254499D02*
X10634467Y-14264023D01*
X10634467Y-14264023D02*
X10586848Y-14264023D01*
X10586848Y-14264023D02*
X10567801Y-14254499D01*
X10567801Y-14254499D02*
X10558277Y-14235451D01*
X10558277Y-14235451D02*
X10558277Y-14216404D01*
X10558277Y-14216404D02*
X10567801Y-14197356D01*
X10567801Y-14197356D02*
X10586848Y-14187832D01*
X10586848Y-14187832D02*
X10634467Y-14187832D01*
X10634467Y-14187832D02*
X10653515Y-14178309D01*
X10748753Y-14130689D02*
X10748753Y-14330689D01*
X10748753Y-14140213D02*
X10767801Y-14130689D01*
X10767801Y-14130689D02*
X10805896Y-14130689D01*
X10805896Y-14130689D02*
X10824944Y-14140213D01*
X10824944Y-14140213D02*
X10834467Y-14149737D01*
X10834467Y-14149737D02*
X10843991Y-14168785D01*
X10843991Y-14168785D02*
X10843991Y-14225928D01*
X10843991Y-14225928D02*
X10834467Y-14244975D01*
X10834467Y-14244975D02*
X10824944Y-14254499D01*
X10824944Y-14254499D02*
X10805896Y-14264023D01*
X10805896Y-14264023D02*
X10767801Y-14264023D01*
X10767801Y-14264023D02*
X10748753Y-14254499D01*
X10929705Y-14244975D02*
X10939229Y-14254499D01*
X10939229Y-14254499D02*
X10929705Y-14264023D01*
X10929705Y-14264023D02*
X10920182Y-14254499D01*
X10920182Y-14254499D02*
X10929705Y-14244975D01*
X10929705Y-14244975D02*
X10929705Y-14264023D01*
X10929705Y-14140213D02*
X10939229Y-14149737D01*
X10939229Y-14149737D02*
X10929705Y-14159261D01*
X10929705Y-14159261D02*
X10920182Y-14149737D01*
X10920182Y-14149737D02*
X10929705Y-14140213D01*
X10929705Y-14140213D02*
X10929705Y-14159261D01*
D12*
X9277500Y-14582539D02*
X9297500Y-14602539D01*
X9297500Y-14582539D02*
X9277500Y-14602539D01*
D11*
X9596372Y-14484023D02*
X9615420Y-14484023D01*
X9615420Y-14484023D02*
X9634467Y-14493547D01*
X9634467Y-14493547D02*
X9643991Y-14503070D01*
X9643991Y-14503070D02*
X9653515Y-14522118D01*
X9653515Y-14522118D02*
X9663039Y-14560213D01*
X9663039Y-14560213D02*
X9663039Y-14607832D01*
X9663039Y-14607832D02*
X9653515Y-14645928D01*
X9653515Y-14645928D02*
X9643991Y-14664975D01*
X9643991Y-14664975D02*
X9634467Y-14674499D01*
X9634467Y-14674499D02*
X9615420Y-14684023D01*
X9615420Y-14684023D02*
X9596372Y-14684023D01*
X9596372Y-14684023D02*
X9577324Y-14674499D01*
X9577324Y-14674499D02*
X9567801Y-14664975D01*
X9567801Y-14664975D02*
X9558277Y-14645928D01*
X9558277Y-14645928D02*
X9548753Y-14607832D01*
X9548753Y-14607832D02*
X9548753Y-14560213D01*
X9548753Y-14560213D02*
X9558277Y-14522118D01*
X9558277Y-14522118D02*
X9567801Y-14503070D01*
X9567801Y-14503070D02*
X9577324Y-14493547D01*
X9577324Y-14493547D02*
X9596372Y-14484023D01*
X9748753Y-14664975D02*
X9758277Y-14674499D01*
X9758277Y-14674499D02*
X9748753Y-14684023D01*
X9748753Y-14684023D02*
X9739229Y-14674499D01*
X9739229Y-14674499D02*
X9748753Y-14664975D01*
X9748753Y-14664975D02*
X9748753Y-14684023D01*
X9834467Y-14503070D02*
X9843991Y-14493547D01*
X9843991Y-14493547D02*
X9863039Y-14484023D01*
X9863039Y-14484023D02*
X9910658Y-14484023D01*
X9910658Y-14484023D02*
X9929705Y-14493547D01*
X9929705Y-14493547D02*
X9939229Y-14503070D01*
X9939229Y-14503070D02*
X9948753Y-14522118D01*
X9948753Y-14522118D02*
X9948753Y-14541166D01*
X9948753Y-14541166D02*
X9939229Y-14569737D01*
X9939229Y-14569737D02*
X9824944Y-14684023D01*
X9824944Y-14684023D02*
X9948753Y-14684023D01*
X10072563Y-14484023D02*
X10091610Y-14484023D01*
X10091610Y-14484023D02*
X10110658Y-14493547D01*
X10110658Y-14493547D02*
X10120182Y-14503070D01*
X10120182Y-14503070D02*
X10129705Y-14522118D01*
X10129705Y-14522118D02*
X10139229Y-14560213D01*
X10139229Y-14560213D02*
X10139229Y-14607832D01*
X10139229Y-14607832D02*
X10129705Y-14645928D01*
X10129705Y-14645928D02*
X10120182Y-14664975D01*
X10120182Y-14664975D02*
X10110658Y-14674499D01*
X10110658Y-14674499D02*
X10091610Y-14684023D01*
X10091610Y-14684023D02*
X10072563Y-14684023D01*
X10072563Y-14684023D02*
X10053515Y-14674499D01*
X10053515Y-14674499D02*
X10043991Y-14664975D01*
X10043991Y-14664975D02*
X10034467Y-14645928D01*
X10034467Y-14645928D02*
X10024944Y-14607832D01*
X10024944Y-14607832D02*
X10024944Y-14560213D01*
X10024944Y-14560213D02*
X10034467Y-14522118D01*
X10034467Y-14522118D02*
X10043991Y-14503070D01*
X10043991Y-14503070D02*
X10053515Y-14493547D01*
X10053515Y-14493547D02*
X10072563Y-14484023D01*
X10263039Y-14484023D02*
X10282086Y-14484023D01*
X10282086Y-14484023D02*
X10301134Y-14493547D01*
X10301134Y-14493547D02*
X10310658Y-14503070D01*
X10310658Y-14503070D02*
X10320182Y-14522118D01*
X10320182Y-14522118D02*
X10329705Y-14560213D01*
X10329705Y-14560213D02*
X10329705Y-14607832D01*
X10329705Y-14607832D02*
X10320182Y-14645928D01*
X10320182Y-14645928D02*
X10310658Y-14664975D01*
X10310658Y-14664975D02*
X10301134Y-14674499D01*
X10301134Y-14674499D02*
X10282086Y-14684023D01*
X10282086Y-14684023D02*
X10263039Y-14684023D01*
X10263039Y-14684023D02*
X10243991Y-14674499D01*
X10243991Y-14674499D02*
X10234467Y-14664975D01*
X10234467Y-14664975D02*
X10224944Y-14645928D01*
X10224944Y-14645928D02*
X10215420Y-14607832D01*
X10215420Y-14607832D02*
X10215420Y-14560213D01*
X10215420Y-14560213D02*
X10224944Y-14522118D01*
X10224944Y-14522118D02*
X10234467Y-14503070D01*
X10234467Y-14503070D02*
X10243991Y-14493547D01*
X10243991Y-14493547D02*
X10263039Y-14484023D01*
X10415420Y-14684023D02*
X10415420Y-14550689D01*
X10415420Y-14569737D02*
X10424944Y-14560213D01*
X10424944Y-14560213D02*
X10443991Y-14550689D01*
X10443991Y-14550689D02*
X10472563Y-14550689D01*
X10472563Y-14550689D02*
X10491610Y-14560213D01*
X10491610Y-14560213D02*
X10501134Y-14579261D01*
X10501134Y-14579261D02*
X10501134Y-14684023D01*
X10501134Y-14579261D02*
X10510658Y-14560213D01*
X10510658Y-14560213D02*
X10529705Y-14550689D01*
X10529705Y-14550689D02*
X10558277Y-14550689D01*
X10558277Y-14550689D02*
X10577325Y-14560213D01*
X10577325Y-14560213D02*
X10586848Y-14579261D01*
X10586848Y-14579261D02*
X10586848Y-14684023D01*
X10682086Y-14684023D02*
X10682086Y-14550689D01*
X10682086Y-14569737D02*
X10691610Y-14560213D01*
X10691610Y-14560213D02*
X10710658Y-14550689D01*
X10710658Y-14550689D02*
X10739229Y-14550689D01*
X10739229Y-14550689D02*
X10758277Y-14560213D01*
X10758277Y-14560213D02*
X10767801Y-14579261D01*
X10767801Y-14579261D02*
X10767801Y-14684023D01*
X10767801Y-14579261D02*
X10777325Y-14560213D01*
X10777325Y-14560213D02*
X10796372Y-14550689D01*
X10796372Y-14550689D02*
X10824944Y-14550689D01*
X10824944Y-14550689D02*
X10843991Y-14560213D01*
X10843991Y-14560213D02*
X10853515Y-14579261D01*
X10853515Y-14579261D02*
X10853515Y-14684023D01*
X11243991Y-14474499D02*
X11072563Y-14731642D01*
X11501134Y-14484023D02*
X11520182Y-14484023D01*
X11520182Y-14484023D02*
X11539229Y-14493547D01*
X11539229Y-14493547D02*
X11548753Y-14503070D01*
X11548753Y-14503070D02*
X11558277Y-14522118D01*
X11558277Y-14522118D02*
X11567801Y-14560213D01*
X11567801Y-14560213D02*
X11567801Y-14607832D01*
X11567801Y-14607832D02*
X11558277Y-14645928D01*
X11558277Y-14645928D02*
X11548753Y-14664975D01*
X11548753Y-14664975D02*
X11539229Y-14674499D01*
X11539229Y-14674499D02*
X11520182Y-14684023D01*
X11520182Y-14684023D02*
X11501134Y-14684023D01*
X11501134Y-14684023D02*
X11482086Y-14674499D01*
X11482086Y-14674499D02*
X11472563Y-14664975D01*
X11472563Y-14664975D02*
X11463039Y-14645928D01*
X11463039Y-14645928D02*
X11453515Y-14607832D01*
X11453515Y-14607832D02*
X11453515Y-14560213D01*
X11453515Y-14560213D02*
X11463039Y-14522118D01*
X11463039Y-14522118D02*
X11472563Y-14503070D01*
X11472563Y-14503070D02*
X11482086Y-14493547D01*
X11482086Y-14493547D02*
X11501134Y-14484023D01*
X11653515Y-14664975D02*
X11663039Y-14674499D01*
X11663039Y-14674499D02*
X11653515Y-14684023D01*
X11653515Y-14684023D02*
X11643991Y-14674499D01*
X11643991Y-14674499D02*
X11653515Y-14664975D01*
X11653515Y-14664975D02*
X11653515Y-14684023D01*
X11786848Y-14484023D02*
X11805896Y-14484023D01*
X11805896Y-14484023D02*
X11824944Y-14493547D01*
X11824944Y-14493547D02*
X11834467Y-14503070D01*
X11834467Y-14503070D02*
X11843991Y-14522118D01*
X11843991Y-14522118D02*
X11853515Y-14560213D01*
X11853515Y-14560213D02*
X11853515Y-14607832D01*
X11853515Y-14607832D02*
X11843991Y-14645928D01*
X11843991Y-14645928D02*
X11834467Y-14664975D01*
X11834467Y-14664975D02*
X11824944Y-14674499D01*
X11824944Y-14674499D02*
X11805896Y-14684023D01*
X11805896Y-14684023D02*
X11786848Y-14684023D01*
X11786848Y-14684023D02*
X11767801Y-14674499D01*
X11767801Y-14674499D02*
X11758277Y-14664975D01*
X11758277Y-14664975D02*
X11748753Y-14645928D01*
X11748753Y-14645928D02*
X11739229Y-14607832D01*
X11739229Y-14607832D02*
X11739229Y-14560213D01*
X11739229Y-14560213D02*
X11748753Y-14522118D01*
X11748753Y-14522118D02*
X11758277Y-14503070D01*
X11758277Y-14503070D02*
X11767801Y-14493547D01*
X11767801Y-14493547D02*
X11786848Y-14484023D01*
X11977325Y-14484023D02*
X11996372Y-14484023D01*
X11996372Y-14484023D02*
X12015420Y-14493547D01*
X12015420Y-14493547D02*
X12024944Y-14503070D01*
X12024944Y-14503070D02*
X12034467Y-14522118D01*
X12034467Y-14522118D02*
X12043991Y-14560213D01*
X12043991Y-14560213D02*
X12043991Y-14607832D01*
X12043991Y-14607832D02*
X12034467Y-14645928D01*
X12034467Y-14645928D02*
X12024944Y-14664975D01*
X12024944Y-14664975D02*
X12015420Y-14674499D01*
X12015420Y-14674499D02*
X11996372Y-14684023D01*
X11996372Y-14684023D02*
X11977325Y-14684023D01*
X11977325Y-14684023D02*
X11958277Y-14674499D01*
X11958277Y-14674499D02*
X11948753Y-14664975D01*
X11948753Y-14664975D02*
X11939229Y-14645928D01*
X11939229Y-14645928D02*
X11929706Y-14607832D01*
X11929706Y-14607832D02*
X11929706Y-14560213D01*
X11929706Y-14560213D02*
X11939229Y-14522118D01*
X11939229Y-14522118D02*
X11948753Y-14503070D01*
X11948753Y-14503070D02*
X11958277Y-14493547D01*
X11958277Y-14493547D02*
X11977325Y-14484023D01*
X12110658Y-14484023D02*
X12243991Y-14484023D01*
X12243991Y-14484023D02*
X12158277Y-14684023D01*
X12329706Y-14684023D02*
X12367801Y-14684023D01*
X12367801Y-14684023D02*
X12386848Y-14674499D01*
X12386848Y-14674499D02*
X12396372Y-14664975D01*
X12396372Y-14664975D02*
X12415420Y-14636404D01*
X12415420Y-14636404D02*
X12424944Y-14598309D01*
X12424944Y-14598309D02*
X12424944Y-14522118D01*
X12424944Y-14522118D02*
X12415420Y-14503070D01*
X12415420Y-14503070D02*
X12405896Y-14493547D01*
X12405896Y-14493547D02*
X12386848Y-14484023D01*
X12386848Y-14484023D02*
X12348753Y-14484023D01*
X12348753Y-14484023D02*
X12329706Y-14493547D01*
X12329706Y-14493547D02*
X12320182Y-14503070D01*
X12320182Y-14503070D02*
X12310658Y-14522118D01*
X12310658Y-14522118D02*
X12310658Y-14569737D01*
X12310658Y-14569737D02*
X12320182Y-14588785D01*
X12320182Y-14588785D02*
X12329706Y-14598309D01*
X12329706Y-14598309D02*
X12348753Y-14607832D01*
X12348753Y-14607832D02*
X12386848Y-14607832D01*
X12386848Y-14607832D02*
X12405896Y-14598309D01*
X12405896Y-14598309D02*
X12415420Y-14588785D01*
X12415420Y-14588785D02*
X12424944Y-14569737D01*
X12501134Y-14484023D02*
X12501134Y-14522118D01*
X12577325Y-14484023D02*
X12577325Y-14522118D01*
X12872563Y-14760213D02*
X12863039Y-14750689D01*
X12863039Y-14750689D02*
X12843991Y-14722118D01*
X12843991Y-14722118D02*
X12834468Y-14703070D01*
X12834468Y-14703070D02*
X12824944Y-14674499D01*
X12824944Y-14674499D02*
X12815420Y-14626880D01*
X12815420Y-14626880D02*
X12815420Y-14588785D01*
X12815420Y-14588785D02*
X12824944Y-14541166D01*
X12824944Y-14541166D02*
X12834468Y-14512594D01*
X12834468Y-14512594D02*
X12843991Y-14493547D01*
X12843991Y-14493547D02*
X12863039Y-14464975D01*
X12863039Y-14464975D02*
X12872563Y-14455451D01*
X12929706Y-14484023D02*
X13053515Y-14484023D01*
X13053515Y-14484023D02*
X12986848Y-14560213D01*
X12986848Y-14560213D02*
X13015420Y-14560213D01*
X13015420Y-14560213D02*
X13034468Y-14569737D01*
X13034468Y-14569737D02*
X13043991Y-14579261D01*
X13043991Y-14579261D02*
X13053515Y-14598309D01*
X13053515Y-14598309D02*
X13053515Y-14645928D01*
X13053515Y-14645928D02*
X13043991Y-14664975D01*
X13043991Y-14664975D02*
X13034468Y-14674499D01*
X13034468Y-14674499D02*
X13015420Y-14684023D01*
X13015420Y-14684023D02*
X12958277Y-14684023D01*
X12958277Y-14684023D02*
X12939229Y-14674499D01*
X12939229Y-14674499D02*
X12929706Y-14664975D01*
X13177325Y-14484023D02*
X13196372Y-14484023D01*
X13196372Y-14484023D02*
X13215420Y-14493547D01*
X13215420Y-14493547D02*
X13224944Y-14503070D01*
X13224944Y-14503070D02*
X13234468Y-14522118D01*
X13234468Y-14522118D02*
X13243991Y-14560213D01*
X13243991Y-14560213D02*
X13243991Y-14607832D01*
X13243991Y-14607832D02*
X13234468Y-14645928D01*
X13234468Y-14645928D02*
X13224944Y-14664975D01*
X13224944Y-14664975D02*
X13215420Y-14674499D01*
X13215420Y-14674499D02*
X13196372Y-14684023D01*
X13196372Y-14684023D02*
X13177325Y-14684023D01*
X13177325Y-14684023D02*
X13158277Y-14674499D01*
X13158277Y-14674499D02*
X13148753Y-14664975D01*
X13148753Y-14664975D02*
X13139229Y-14645928D01*
X13139229Y-14645928D02*
X13129706Y-14607832D01*
X13129706Y-14607832D02*
X13129706Y-14560213D01*
X13129706Y-14560213D02*
X13139229Y-14522118D01*
X13139229Y-14522118D02*
X13148753Y-14503070D01*
X13148753Y-14503070D02*
X13158277Y-14493547D01*
X13158277Y-14493547D02*
X13177325Y-14484023D01*
X13367801Y-14484023D02*
X13386849Y-14484023D01*
X13386849Y-14484023D02*
X13405896Y-14493547D01*
X13405896Y-14493547D02*
X13415420Y-14503070D01*
X13415420Y-14503070D02*
X13424944Y-14522118D01*
X13424944Y-14522118D02*
X13434468Y-14560213D01*
X13434468Y-14560213D02*
X13434468Y-14607832D01*
X13434468Y-14607832D02*
X13424944Y-14645928D01*
X13424944Y-14645928D02*
X13415420Y-14664975D01*
X13415420Y-14664975D02*
X13405896Y-14674499D01*
X13405896Y-14674499D02*
X13386849Y-14684023D01*
X13386849Y-14684023D02*
X13367801Y-14684023D01*
X13367801Y-14684023D02*
X13348753Y-14674499D01*
X13348753Y-14674499D02*
X13339229Y-14664975D01*
X13339229Y-14664975D02*
X13329706Y-14645928D01*
X13329706Y-14645928D02*
X13320182Y-14607832D01*
X13320182Y-14607832D02*
X13320182Y-14560213D01*
X13320182Y-14560213D02*
X13329706Y-14522118D01*
X13329706Y-14522118D02*
X13339229Y-14503070D01*
X13339229Y-14503070D02*
X13348753Y-14493547D01*
X13348753Y-14493547D02*
X13367801Y-14484023D01*
X13672563Y-14684023D02*
X13672563Y-14484023D01*
X13758277Y-14684023D02*
X13758277Y-14579261D01*
X13758277Y-14579261D02*
X13748753Y-14560213D01*
X13748753Y-14560213D02*
X13729706Y-14550689D01*
X13729706Y-14550689D02*
X13701134Y-14550689D01*
X13701134Y-14550689D02*
X13682087Y-14560213D01*
X13682087Y-14560213D02*
X13672563Y-14569737D01*
X13882087Y-14684023D02*
X13863039Y-14674499D01*
X13863039Y-14674499D02*
X13853515Y-14664975D01*
X13853515Y-14664975D02*
X13843991Y-14645928D01*
X13843991Y-14645928D02*
X13843991Y-14588785D01*
X13843991Y-14588785D02*
X13853515Y-14569737D01*
X13853515Y-14569737D02*
X13863039Y-14560213D01*
X13863039Y-14560213D02*
X13882087Y-14550689D01*
X13882087Y-14550689D02*
X13910658Y-14550689D01*
X13910658Y-14550689D02*
X13929706Y-14560213D01*
X13929706Y-14560213D02*
X13939230Y-14569737D01*
X13939230Y-14569737D02*
X13948753Y-14588785D01*
X13948753Y-14588785D02*
X13948753Y-14645928D01*
X13948753Y-14645928D02*
X13939230Y-14664975D01*
X13939230Y-14664975D02*
X13929706Y-14674499D01*
X13929706Y-14674499D02*
X13910658Y-14684023D01*
X13910658Y-14684023D02*
X13882087Y-14684023D01*
X14063039Y-14684023D02*
X14043991Y-14674499D01*
X14043991Y-14674499D02*
X14034468Y-14655451D01*
X14034468Y-14655451D02*
X14034468Y-14484023D01*
X14215420Y-14674499D02*
X14196372Y-14684023D01*
X14196372Y-14684023D02*
X14158277Y-14684023D01*
X14158277Y-14684023D02*
X14139230Y-14674499D01*
X14139230Y-14674499D02*
X14129706Y-14655451D01*
X14129706Y-14655451D02*
X14129706Y-14579261D01*
X14129706Y-14579261D02*
X14139230Y-14560213D01*
X14139230Y-14560213D02*
X14158277Y-14550689D01*
X14158277Y-14550689D02*
X14196372Y-14550689D01*
X14196372Y-14550689D02*
X14215420Y-14560213D01*
X14215420Y-14560213D02*
X14224944Y-14579261D01*
X14224944Y-14579261D02*
X14224944Y-14598309D01*
X14224944Y-14598309D02*
X14129706Y-14617356D01*
X14301134Y-14674499D02*
X14320182Y-14684023D01*
X14320182Y-14684023D02*
X14358277Y-14684023D01*
X14358277Y-14684023D02*
X14377325Y-14674499D01*
X14377325Y-14674499D02*
X14386849Y-14655451D01*
X14386849Y-14655451D02*
X14386849Y-14645928D01*
X14386849Y-14645928D02*
X14377325Y-14626880D01*
X14377325Y-14626880D02*
X14358277Y-14617356D01*
X14358277Y-14617356D02*
X14329706Y-14617356D01*
X14329706Y-14617356D02*
X14310658Y-14607832D01*
X14310658Y-14607832D02*
X14301134Y-14588785D01*
X14301134Y-14588785D02*
X14301134Y-14579261D01*
X14301134Y-14579261D02*
X14310658Y-14560213D01*
X14310658Y-14560213D02*
X14329706Y-14550689D01*
X14329706Y-14550689D02*
X14358277Y-14550689D01*
X14358277Y-14550689D02*
X14377325Y-14560213D01*
X14453515Y-14760213D02*
X14463039Y-14750689D01*
X14463039Y-14750689D02*
X14482087Y-14722118D01*
X14482087Y-14722118D02*
X14491611Y-14703070D01*
X14491611Y-14703070D02*
X14501134Y-14674499D01*
X14501134Y-14674499D02*
X14510658Y-14626880D01*
X14510658Y-14626880D02*
X14510658Y-14588785D01*
X14510658Y-14588785D02*
X14501134Y-14541166D01*
X14501134Y-14541166D02*
X14491611Y-14512594D01*
X14491611Y-14512594D02*
X14482087Y-14493547D01*
X14482087Y-14493547D02*
X14463039Y-14464975D01*
X14463039Y-14464975D02*
X14453515Y-14455451D01*
D12*
X9297500Y-14856539D02*
G75*
G02*
X9272500Y-14856539I-12500J0D01*
G01*
X9272500Y-14856539D02*
G75*
G02*
X9297500Y-14856539I12500J0D01*
G01*
D11*
X9596372Y-14748023D02*
X9615420Y-14748023D01*
X9615420Y-14748023D02*
X9634467Y-14757547D01*
X9634467Y-14757547D02*
X9643991Y-14767070D01*
X9643991Y-14767070D02*
X9653515Y-14786118D01*
X9653515Y-14786118D02*
X9663039Y-14824213D01*
X9663039Y-14824213D02*
X9663039Y-14871832D01*
X9663039Y-14871832D02*
X9653515Y-14909928D01*
X9653515Y-14909928D02*
X9643991Y-14928975D01*
X9643991Y-14928975D02*
X9634467Y-14938499D01*
X9634467Y-14938499D02*
X9615420Y-14948023D01*
X9615420Y-14948023D02*
X9596372Y-14948023D01*
X9596372Y-14948023D02*
X9577324Y-14938499D01*
X9577324Y-14938499D02*
X9567801Y-14928975D01*
X9567801Y-14928975D02*
X9558277Y-14909928D01*
X9558277Y-14909928D02*
X9548753Y-14871832D01*
X9548753Y-14871832D02*
X9548753Y-14824213D01*
X9548753Y-14824213D02*
X9558277Y-14786118D01*
X9558277Y-14786118D02*
X9567801Y-14767070D01*
X9567801Y-14767070D02*
X9577324Y-14757547D01*
X9577324Y-14757547D02*
X9596372Y-14748023D01*
X9748753Y-14928975D02*
X9758277Y-14938499D01*
X9758277Y-14938499D02*
X9748753Y-14948023D01*
X9748753Y-14948023D02*
X9739229Y-14938499D01*
X9739229Y-14938499D02*
X9748753Y-14928975D01*
X9748753Y-14928975D02*
X9748753Y-14948023D01*
X9834467Y-14767070D02*
X9843991Y-14757547D01*
X9843991Y-14757547D02*
X9863039Y-14748023D01*
X9863039Y-14748023D02*
X9910658Y-14748023D01*
X9910658Y-14748023D02*
X9929705Y-14757547D01*
X9929705Y-14757547D02*
X9939229Y-14767070D01*
X9939229Y-14767070D02*
X9948753Y-14786118D01*
X9948753Y-14786118D02*
X9948753Y-14805166D01*
X9948753Y-14805166D02*
X9939229Y-14833737D01*
X9939229Y-14833737D02*
X9824944Y-14948023D01*
X9824944Y-14948023D02*
X9948753Y-14948023D01*
X10129705Y-14748023D02*
X10034467Y-14748023D01*
X10034467Y-14748023D02*
X10024944Y-14843261D01*
X10024944Y-14843261D02*
X10034467Y-14833737D01*
X10034467Y-14833737D02*
X10053515Y-14824213D01*
X10053515Y-14824213D02*
X10101134Y-14824213D01*
X10101134Y-14824213D02*
X10120182Y-14833737D01*
X10120182Y-14833737D02*
X10129705Y-14843261D01*
X10129705Y-14843261D02*
X10139229Y-14862309D01*
X10139229Y-14862309D02*
X10139229Y-14909928D01*
X10139229Y-14909928D02*
X10129705Y-14928975D01*
X10129705Y-14928975D02*
X10120182Y-14938499D01*
X10120182Y-14938499D02*
X10101134Y-14948023D01*
X10101134Y-14948023D02*
X10053515Y-14948023D01*
X10053515Y-14948023D02*
X10034467Y-14938499D01*
X10034467Y-14938499D02*
X10024944Y-14928975D01*
X10263039Y-14748023D02*
X10282086Y-14748023D01*
X10282086Y-14748023D02*
X10301134Y-14757547D01*
X10301134Y-14757547D02*
X10310658Y-14767070D01*
X10310658Y-14767070D02*
X10320182Y-14786118D01*
X10320182Y-14786118D02*
X10329705Y-14824213D01*
X10329705Y-14824213D02*
X10329705Y-14871832D01*
X10329705Y-14871832D02*
X10320182Y-14909928D01*
X10320182Y-14909928D02*
X10310658Y-14928975D01*
X10310658Y-14928975D02*
X10301134Y-14938499D01*
X10301134Y-14938499D02*
X10282086Y-14948023D01*
X10282086Y-14948023D02*
X10263039Y-14948023D01*
X10263039Y-14948023D02*
X10243991Y-14938499D01*
X10243991Y-14938499D02*
X10234467Y-14928975D01*
X10234467Y-14928975D02*
X10224944Y-14909928D01*
X10224944Y-14909928D02*
X10215420Y-14871832D01*
X10215420Y-14871832D02*
X10215420Y-14824213D01*
X10215420Y-14824213D02*
X10224944Y-14786118D01*
X10224944Y-14786118D02*
X10234467Y-14767070D01*
X10234467Y-14767070D02*
X10243991Y-14757547D01*
X10243991Y-14757547D02*
X10263039Y-14748023D01*
X10415420Y-14948023D02*
X10415420Y-14814689D01*
X10415420Y-14833737D02*
X10424944Y-14824213D01*
X10424944Y-14824213D02*
X10443991Y-14814689D01*
X10443991Y-14814689D02*
X10472563Y-14814689D01*
X10472563Y-14814689D02*
X10491610Y-14824213D01*
X10491610Y-14824213D02*
X10501134Y-14843261D01*
X10501134Y-14843261D02*
X10501134Y-14948023D01*
X10501134Y-14843261D02*
X10510658Y-14824213D01*
X10510658Y-14824213D02*
X10529705Y-14814689D01*
X10529705Y-14814689D02*
X10558277Y-14814689D01*
X10558277Y-14814689D02*
X10577325Y-14824213D01*
X10577325Y-14824213D02*
X10586848Y-14843261D01*
X10586848Y-14843261D02*
X10586848Y-14948023D01*
X10682086Y-14948023D02*
X10682086Y-14814689D01*
X10682086Y-14833737D02*
X10691610Y-14824213D01*
X10691610Y-14824213D02*
X10710658Y-14814689D01*
X10710658Y-14814689D02*
X10739229Y-14814689D01*
X10739229Y-14814689D02*
X10758277Y-14824213D01*
X10758277Y-14824213D02*
X10767801Y-14843261D01*
X10767801Y-14843261D02*
X10767801Y-14948023D01*
X10767801Y-14843261D02*
X10777325Y-14824213D01*
X10777325Y-14824213D02*
X10796372Y-14814689D01*
X10796372Y-14814689D02*
X10824944Y-14814689D01*
X10824944Y-14814689D02*
X10843991Y-14824213D01*
X10843991Y-14824213D02*
X10853515Y-14843261D01*
X10853515Y-14843261D02*
X10853515Y-14948023D01*
X11243991Y-14738499D02*
X11072563Y-14995642D01*
X11501134Y-14748023D02*
X11520182Y-14748023D01*
X11520182Y-14748023D02*
X11539229Y-14757547D01*
X11539229Y-14757547D02*
X11548753Y-14767070D01*
X11548753Y-14767070D02*
X11558277Y-14786118D01*
X11558277Y-14786118D02*
X11567801Y-14824213D01*
X11567801Y-14824213D02*
X11567801Y-14871832D01*
X11567801Y-14871832D02*
X11558277Y-14909928D01*
X11558277Y-14909928D02*
X11548753Y-14928975D01*
X11548753Y-14928975D02*
X11539229Y-14938499D01*
X11539229Y-14938499D02*
X11520182Y-14948023D01*
X11520182Y-14948023D02*
X11501134Y-14948023D01*
X11501134Y-14948023D02*
X11482086Y-14938499D01*
X11482086Y-14938499D02*
X11472563Y-14928975D01*
X11472563Y-14928975D02*
X11463039Y-14909928D01*
X11463039Y-14909928D02*
X11453515Y-14871832D01*
X11453515Y-14871832D02*
X11453515Y-14824213D01*
X11453515Y-14824213D02*
X11463039Y-14786118D01*
X11463039Y-14786118D02*
X11472563Y-14767070D01*
X11472563Y-14767070D02*
X11482086Y-14757547D01*
X11482086Y-14757547D02*
X11501134Y-14748023D01*
X11653515Y-14928975D02*
X11663039Y-14938499D01*
X11663039Y-14938499D02*
X11653515Y-14948023D01*
X11653515Y-14948023D02*
X11643991Y-14938499D01*
X11643991Y-14938499D02*
X11653515Y-14928975D01*
X11653515Y-14928975D02*
X11653515Y-14948023D01*
X11786848Y-14748023D02*
X11805896Y-14748023D01*
X11805896Y-14748023D02*
X11824944Y-14757547D01*
X11824944Y-14757547D02*
X11834467Y-14767070D01*
X11834467Y-14767070D02*
X11843991Y-14786118D01*
X11843991Y-14786118D02*
X11853515Y-14824213D01*
X11853515Y-14824213D02*
X11853515Y-14871832D01*
X11853515Y-14871832D02*
X11843991Y-14909928D01*
X11843991Y-14909928D02*
X11834467Y-14928975D01*
X11834467Y-14928975D02*
X11824944Y-14938499D01*
X11824944Y-14938499D02*
X11805896Y-14948023D01*
X11805896Y-14948023D02*
X11786848Y-14948023D01*
X11786848Y-14948023D02*
X11767801Y-14938499D01*
X11767801Y-14938499D02*
X11758277Y-14928975D01*
X11758277Y-14928975D02*
X11748753Y-14909928D01*
X11748753Y-14909928D02*
X11739229Y-14871832D01*
X11739229Y-14871832D02*
X11739229Y-14824213D01*
X11739229Y-14824213D02*
X11748753Y-14786118D01*
X11748753Y-14786118D02*
X11758277Y-14767070D01*
X11758277Y-14767070D02*
X11767801Y-14757547D01*
X11767801Y-14757547D02*
X11786848Y-14748023D01*
X11977325Y-14748023D02*
X11996372Y-14748023D01*
X11996372Y-14748023D02*
X12015420Y-14757547D01*
X12015420Y-14757547D02*
X12024944Y-14767070D01*
X12024944Y-14767070D02*
X12034467Y-14786118D01*
X12034467Y-14786118D02*
X12043991Y-14824213D01*
X12043991Y-14824213D02*
X12043991Y-14871832D01*
X12043991Y-14871832D02*
X12034467Y-14909928D01*
X12034467Y-14909928D02*
X12024944Y-14928975D01*
X12024944Y-14928975D02*
X12015420Y-14938499D01*
X12015420Y-14938499D02*
X11996372Y-14948023D01*
X11996372Y-14948023D02*
X11977325Y-14948023D01*
X11977325Y-14948023D02*
X11958277Y-14938499D01*
X11958277Y-14938499D02*
X11948753Y-14928975D01*
X11948753Y-14928975D02*
X11939229Y-14909928D01*
X11939229Y-14909928D02*
X11929706Y-14871832D01*
X11929706Y-14871832D02*
X11929706Y-14824213D01*
X11929706Y-14824213D02*
X11939229Y-14786118D01*
X11939229Y-14786118D02*
X11948753Y-14767070D01*
X11948753Y-14767070D02*
X11958277Y-14757547D01*
X11958277Y-14757547D02*
X11977325Y-14748023D01*
X12139229Y-14948023D02*
X12177325Y-14948023D01*
X12177325Y-14948023D02*
X12196372Y-14938499D01*
X12196372Y-14938499D02*
X12205896Y-14928975D01*
X12205896Y-14928975D02*
X12224944Y-14900404D01*
X12224944Y-14900404D02*
X12234467Y-14862309D01*
X12234467Y-14862309D02*
X12234467Y-14786118D01*
X12234467Y-14786118D02*
X12224944Y-14767070D01*
X12224944Y-14767070D02*
X12215420Y-14757547D01*
X12215420Y-14757547D02*
X12196372Y-14748023D01*
X12196372Y-14748023D02*
X12158277Y-14748023D01*
X12158277Y-14748023D02*
X12139229Y-14757547D01*
X12139229Y-14757547D02*
X12129706Y-14767070D01*
X12129706Y-14767070D02*
X12120182Y-14786118D01*
X12120182Y-14786118D02*
X12120182Y-14833737D01*
X12120182Y-14833737D02*
X12129706Y-14852785D01*
X12129706Y-14852785D02*
X12139229Y-14862309D01*
X12139229Y-14862309D02*
X12158277Y-14871832D01*
X12158277Y-14871832D02*
X12196372Y-14871832D01*
X12196372Y-14871832D02*
X12215420Y-14862309D01*
X12215420Y-14862309D02*
X12224944Y-14852785D01*
X12224944Y-14852785D02*
X12234467Y-14833737D01*
X12348753Y-14833737D02*
X12329706Y-14824213D01*
X12329706Y-14824213D02*
X12320182Y-14814689D01*
X12320182Y-14814689D02*
X12310658Y-14795642D01*
X12310658Y-14795642D02*
X12310658Y-14786118D01*
X12310658Y-14786118D02*
X12320182Y-14767070D01*
X12320182Y-14767070D02*
X12329706Y-14757547D01*
X12329706Y-14757547D02*
X12348753Y-14748023D01*
X12348753Y-14748023D02*
X12386848Y-14748023D01*
X12386848Y-14748023D02*
X12405896Y-14757547D01*
X12405896Y-14757547D02*
X12415420Y-14767070D01*
X12415420Y-14767070D02*
X12424944Y-14786118D01*
X12424944Y-14786118D02*
X12424944Y-14795642D01*
X12424944Y-14795642D02*
X12415420Y-14814689D01*
X12415420Y-14814689D02*
X12405896Y-14824213D01*
X12405896Y-14824213D02*
X12386848Y-14833737D01*
X12386848Y-14833737D02*
X12348753Y-14833737D01*
X12348753Y-14833737D02*
X12329706Y-14843261D01*
X12329706Y-14843261D02*
X12320182Y-14852785D01*
X12320182Y-14852785D02*
X12310658Y-14871832D01*
X12310658Y-14871832D02*
X12310658Y-14909928D01*
X12310658Y-14909928D02*
X12320182Y-14928975D01*
X12320182Y-14928975D02*
X12329706Y-14938499D01*
X12329706Y-14938499D02*
X12348753Y-14948023D01*
X12348753Y-14948023D02*
X12386848Y-14948023D01*
X12386848Y-14948023D02*
X12405896Y-14938499D01*
X12405896Y-14938499D02*
X12415420Y-14928975D01*
X12415420Y-14928975D02*
X12424944Y-14909928D01*
X12424944Y-14909928D02*
X12424944Y-14871832D01*
X12424944Y-14871832D02*
X12415420Y-14852785D01*
X12415420Y-14852785D02*
X12405896Y-14843261D01*
X12405896Y-14843261D02*
X12386848Y-14833737D01*
X12501134Y-14748023D02*
X12501134Y-14786118D01*
X12577325Y-14748023D02*
X12577325Y-14786118D01*
X12872563Y-15024213D02*
X12863039Y-15014689D01*
X12863039Y-15014689D02*
X12843991Y-14986118D01*
X12843991Y-14986118D02*
X12834468Y-14967070D01*
X12834468Y-14967070D02*
X12824944Y-14938499D01*
X12824944Y-14938499D02*
X12815420Y-14890880D01*
X12815420Y-14890880D02*
X12815420Y-14852785D01*
X12815420Y-14852785D02*
X12824944Y-14805166D01*
X12824944Y-14805166D02*
X12834468Y-14776594D01*
X12834468Y-14776594D02*
X12843991Y-14757547D01*
X12843991Y-14757547D02*
X12863039Y-14728975D01*
X12863039Y-14728975D02*
X12872563Y-14719451D01*
X13034468Y-14748023D02*
X12996372Y-14748023D01*
X12996372Y-14748023D02*
X12977325Y-14757547D01*
X12977325Y-14757547D02*
X12967801Y-14767070D01*
X12967801Y-14767070D02*
X12948753Y-14795642D01*
X12948753Y-14795642D02*
X12939229Y-14833737D01*
X12939229Y-14833737D02*
X12939229Y-14909928D01*
X12939229Y-14909928D02*
X12948753Y-14928975D01*
X12948753Y-14928975D02*
X12958277Y-14938499D01*
X12958277Y-14938499D02*
X12977325Y-14948023D01*
X12977325Y-14948023D02*
X13015420Y-14948023D01*
X13015420Y-14948023D02*
X13034468Y-14938499D01*
X13034468Y-14938499D02*
X13043991Y-14928975D01*
X13043991Y-14928975D02*
X13053515Y-14909928D01*
X13053515Y-14909928D02*
X13053515Y-14862309D01*
X13053515Y-14862309D02*
X13043991Y-14843261D01*
X13043991Y-14843261D02*
X13034468Y-14833737D01*
X13034468Y-14833737D02*
X13015420Y-14824213D01*
X13015420Y-14824213D02*
X12977325Y-14824213D01*
X12977325Y-14824213D02*
X12958277Y-14833737D01*
X12958277Y-14833737D02*
X12948753Y-14843261D01*
X12948753Y-14843261D02*
X12939229Y-14862309D01*
X13291610Y-14948023D02*
X13291610Y-14748023D01*
X13377325Y-14948023D02*
X13377325Y-14843261D01*
X13377325Y-14843261D02*
X13367801Y-14824213D01*
X13367801Y-14824213D02*
X13348753Y-14814689D01*
X13348753Y-14814689D02*
X13320182Y-14814689D01*
X13320182Y-14814689D02*
X13301134Y-14824213D01*
X13301134Y-14824213D02*
X13291610Y-14833737D01*
X13501134Y-14948023D02*
X13482087Y-14938499D01*
X13482087Y-14938499D02*
X13472563Y-14928975D01*
X13472563Y-14928975D02*
X13463039Y-14909928D01*
X13463039Y-14909928D02*
X13463039Y-14852785D01*
X13463039Y-14852785D02*
X13472563Y-14833737D01*
X13472563Y-14833737D02*
X13482087Y-14824213D01*
X13482087Y-14824213D02*
X13501134Y-14814689D01*
X13501134Y-14814689D02*
X13529706Y-14814689D01*
X13529706Y-14814689D02*
X13548753Y-14824213D01*
X13548753Y-14824213D02*
X13558277Y-14833737D01*
X13558277Y-14833737D02*
X13567801Y-14852785D01*
X13567801Y-14852785D02*
X13567801Y-14909928D01*
X13567801Y-14909928D02*
X13558277Y-14928975D01*
X13558277Y-14928975D02*
X13548753Y-14938499D01*
X13548753Y-14938499D02*
X13529706Y-14948023D01*
X13529706Y-14948023D02*
X13501134Y-14948023D01*
X13682087Y-14948023D02*
X13663039Y-14938499D01*
X13663039Y-14938499D02*
X13653515Y-14919451D01*
X13653515Y-14919451D02*
X13653515Y-14748023D01*
X13834468Y-14938499D02*
X13815420Y-14948023D01*
X13815420Y-14948023D02*
X13777325Y-14948023D01*
X13777325Y-14948023D02*
X13758277Y-14938499D01*
X13758277Y-14938499D02*
X13748753Y-14919451D01*
X13748753Y-14919451D02*
X13748753Y-14843261D01*
X13748753Y-14843261D02*
X13758277Y-14824213D01*
X13758277Y-14824213D02*
X13777325Y-14814689D01*
X13777325Y-14814689D02*
X13815420Y-14814689D01*
X13815420Y-14814689D02*
X13834468Y-14824213D01*
X13834468Y-14824213D02*
X13843991Y-14843261D01*
X13843991Y-14843261D02*
X13843991Y-14862309D01*
X13843991Y-14862309D02*
X13748753Y-14881356D01*
X13920182Y-14938499D02*
X13939230Y-14948023D01*
X13939230Y-14948023D02*
X13977325Y-14948023D01*
X13977325Y-14948023D02*
X13996372Y-14938499D01*
X13996372Y-14938499D02*
X14005896Y-14919451D01*
X14005896Y-14919451D02*
X14005896Y-14909928D01*
X14005896Y-14909928D02*
X13996372Y-14890880D01*
X13996372Y-14890880D02*
X13977325Y-14881356D01*
X13977325Y-14881356D02*
X13948753Y-14881356D01*
X13948753Y-14881356D02*
X13929706Y-14871832D01*
X13929706Y-14871832D02*
X13920182Y-14852785D01*
X13920182Y-14852785D02*
X13920182Y-14843261D01*
X13920182Y-14843261D02*
X13929706Y-14824213D01*
X13929706Y-14824213D02*
X13948753Y-14814689D01*
X13948753Y-14814689D02*
X13977325Y-14814689D01*
X13977325Y-14814689D02*
X13996372Y-14824213D01*
X14072563Y-15024213D02*
X14082087Y-15014689D01*
X14082087Y-15014689D02*
X14101134Y-14986118D01*
X14101134Y-14986118D02*
X14110658Y-14967070D01*
X14110658Y-14967070D02*
X14120182Y-14938499D01*
X14120182Y-14938499D02*
X14129706Y-14890880D01*
X14129706Y-14890880D02*
X14129706Y-14852785D01*
X14129706Y-14852785D02*
X14120182Y-14805166D01*
X14120182Y-14805166D02*
X14110658Y-14776594D01*
X14110658Y-14776594D02*
X14101134Y-14757547D01*
X14101134Y-14757547D02*
X14082087Y-14728975D01*
X14082087Y-14728975D02*
X14072563Y-14719451D01*
D12*
X9282500Y-15105539D02*
X9282500Y-15135539D01*
X9267500Y-15120539D02*
X9297500Y-15120539D01*
D11*
X9596372Y-15012023D02*
X9615420Y-15012023D01*
X9615420Y-15012023D02*
X9634467Y-15021547D01*
X9634467Y-15021547D02*
X9643991Y-15031070D01*
X9643991Y-15031070D02*
X9653515Y-15050118D01*
X9653515Y-15050118D02*
X9663039Y-15088213D01*
X9663039Y-15088213D02*
X9663039Y-15135832D01*
X9663039Y-15135832D02*
X9653515Y-15173928D01*
X9653515Y-15173928D02*
X9643991Y-15192975D01*
X9643991Y-15192975D02*
X9634467Y-15202499D01*
X9634467Y-15202499D02*
X9615420Y-15212023D01*
X9615420Y-15212023D02*
X9596372Y-15212023D01*
X9596372Y-15212023D02*
X9577324Y-15202499D01*
X9577324Y-15202499D02*
X9567801Y-15192975D01*
X9567801Y-15192975D02*
X9558277Y-15173928D01*
X9558277Y-15173928D02*
X9548753Y-15135832D01*
X9548753Y-15135832D02*
X9548753Y-15088213D01*
X9548753Y-15088213D02*
X9558277Y-15050118D01*
X9558277Y-15050118D02*
X9567801Y-15031070D01*
X9567801Y-15031070D02*
X9577324Y-15021547D01*
X9577324Y-15021547D02*
X9596372Y-15012023D01*
X9748753Y-15192975D02*
X9758277Y-15202499D01*
X9758277Y-15202499D02*
X9748753Y-15212023D01*
X9748753Y-15212023D02*
X9739229Y-15202499D01*
X9739229Y-15202499D02*
X9748753Y-15192975D01*
X9748753Y-15192975D02*
X9748753Y-15212023D01*
X9824944Y-15012023D02*
X9948753Y-15012023D01*
X9948753Y-15012023D02*
X9882086Y-15088213D01*
X9882086Y-15088213D02*
X9910658Y-15088213D01*
X9910658Y-15088213D02*
X9929705Y-15097737D01*
X9929705Y-15097737D02*
X9939229Y-15107261D01*
X9939229Y-15107261D02*
X9948753Y-15126309D01*
X9948753Y-15126309D02*
X9948753Y-15173928D01*
X9948753Y-15173928D02*
X9939229Y-15192975D01*
X9939229Y-15192975D02*
X9929705Y-15202499D01*
X9929705Y-15202499D02*
X9910658Y-15212023D01*
X9910658Y-15212023D02*
X9853515Y-15212023D01*
X9853515Y-15212023D02*
X9834467Y-15202499D01*
X9834467Y-15202499D02*
X9824944Y-15192975D01*
X10072563Y-15012023D02*
X10091610Y-15012023D01*
X10091610Y-15012023D02*
X10110658Y-15021547D01*
X10110658Y-15021547D02*
X10120182Y-15031070D01*
X10120182Y-15031070D02*
X10129705Y-15050118D01*
X10129705Y-15050118D02*
X10139229Y-15088213D01*
X10139229Y-15088213D02*
X10139229Y-15135832D01*
X10139229Y-15135832D02*
X10129705Y-15173928D01*
X10129705Y-15173928D02*
X10120182Y-15192975D01*
X10120182Y-15192975D02*
X10110658Y-15202499D01*
X10110658Y-15202499D02*
X10091610Y-15212023D01*
X10091610Y-15212023D02*
X10072563Y-15212023D01*
X10072563Y-15212023D02*
X10053515Y-15202499D01*
X10053515Y-15202499D02*
X10043991Y-15192975D01*
X10043991Y-15192975D02*
X10034467Y-15173928D01*
X10034467Y-15173928D02*
X10024944Y-15135832D01*
X10024944Y-15135832D02*
X10024944Y-15088213D01*
X10024944Y-15088213D02*
X10034467Y-15050118D01*
X10034467Y-15050118D02*
X10043991Y-15031070D01*
X10043991Y-15031070D02*
X10053515Y-15021547D01*
X10053515Y-15021547D02*
X10072563Y-15012023D01*
X10263039Y-15012023D02*
X10282086Y-15012023D01*
X10282086Y-15012023D02*
X10301134Y-15021547D01*
X10301134Y-15021547D02*
X10310658Y-15031070D01*
X10310658Y-15031070D02*
X10320182Y-15050118D01*
X10320182Y-15050118D02*
X10329705Y-15088213D01*
X10329705Y-15088213D02*
X10329705Y-15135832D01*
X10329705Y-15135832D02*
X10320182Y-15173928D01*
X10320182Y-15173928D02*
X10310658Y-15192975D01*
X10310658Y-15192975D02*
X10301134Y-15202499D01*
X10301134Y-15202499D02*
X10282086Y-15212023D01*
X10282086Y-15212023D02*
X10263039Y-15212023D01*
X10263039Y-15212023D02*
X10243991Y-15202499D01*
X10243991Y-15202499D02*
X10234467Y-15192975D01*
X10234467Y-15192975D02*
X10224944Y-15173928D01*
X10224944Y-15173928D02*
X10215420Y-15135832D01*
X10215420Y-15135832D02*
X10215420Y-15088213D01*
X10215420Y-15088213D02*
X10224944Y-15050118D01*
X10224944Y-15050118D02*
X10234467Y-15031070D01*
X10234467Y-15031070D02*
X10243991Y-15021547D01*
X10243991Y-15021547D02*
X10263039Y-15012023D01*
X10415420Y-15212023D02*
X10415420Y-15078689D01*
X10415420Y-15097737D02*
X10424944Y-15088213D01*
X10424944Y-15088213D02*
X10443991Y-15078689D01*
X10443991Y-15078689D02*
X10472563Y-15078689D01*
X10472563Y-15078689D02*
X10491610Y-15088213D01*
X10491610Y-15088213D02*
X10501134Y-15107261D01*
X10501134Y-15107261D02*
X10501134Y-15212023D01*
X10501134Y-15107261D02*
X10510658Y-15088213D01*
X10510658Y-15088213D02*
X10529705Y-15078689D01*
X10529705Y-15078689D02*
X10558277Y-15078689D01*
X10558277Y-15078689D02*
X10577325Y-15088213D01*
X10577325Y-15088213D02*
X10586848Y-15107261D01*
X10586848Y-15107261D02*
X10586848Y-15212023D01*
X10682086Y-15212023D02*
X10682086Y-15078689D01*
X10682086Y-15097737D02*
X10691610Y-15088213D01*
X10691610Y-15088213D02*
X10710658Y-15078689D01*
X10710658Y-15078689D02*
X10739229Y-15078689D01*
X10739229Y-15078689D02*
X10758277Y-15088213D01*
X10758277Y-15088213D02*
X10767801Y-15107261D01*
X10767801Y-15107261D02*
X10767801Y-15212023D01*
X10767801Y-15107261D02*
X10777325Y-15088213D01*
X10777325Y-15088213D02*
X10796372Y-15078689D01*
X10796372Y-15078689D02*
X10824944Y-15078689D01*
X10824944Y-15078689D02*
X10843991Y-15088213D01*
X10843991Y-15088213D02*
X10853515Y-15107261D01*
X10853515Y-15107261D02*
X10853515Y-15212023D01*
X11243991Y-15002499D02*
X11072563Y-15259642D01*
X11501134Y-15012023D02*
X11520182Y-15012023D01*
X11520182Y-15012023D02*
X11539229Y-15021547D01*
X11539229Y-15021547D02*
X11548753Y-15031070D01*
X11548753Y-15031070D02*
X11558277Y-15050118D01*
X11558277Y-15050118D02*
X11567801Y-15088213D01*
X11567801Y-15088213D02*
X11567801Y-15135832D01*
X11567801Y-15135832D02*
X11558277Y-15173928D01*
X11558277Y-15173928D02*
X11548753Y-15192975D01*
X11548753Y-15192975D02*
X11539229Y-15202499D01*
X11539229Y-15202499D02*
X11520182Y-15212023D01*
X11520182Y-15212023D02*
X11501134Y-15212023D01*
X11501134Y-15212023D02*
X11482086Y-15202499D01*
X11482086Y-15202499D02*
X11472563Y-15192975D01*
X11472563Y-15192975D02*
X11463039Y-15173928D01*
X11463039Y-15173928D02*
X11453515Y-15135832D01*
X11453515Y-15135832D02*
X11453515Y-15088213D01*
X11453515Y-15088213D02*
X11463039Y-15050118D01*
X11463039Y-15050118D02*
X11472563Y-15031070D01*
X11472563Y-15031070D02*
X11482086Y-15021547D01*
X11482086Y-15021547D02*
X11501134Y-15012023D01*
X11653515Y-15192975D02*
X11663039Y-15202499D01*
X11663039Y-15202499D02*
X11653515Y-15212023D01*
X11653515Y-15212023D02*
X11643991Y-15202499D01*
X11643991Y-15202499D02*
X11653515Y-15192975D01*
X11653515Y-15192975D02*
X11653515Y-15212023D01*
X11786848Y-15012023D02*
X11805896Y-15012023D01*
X11805896Y-15012023D02*
X11824944Y-15021547D01*
X11824944Y-15021547D02*
X11834467Y-15031070D01*
X11834467Y-15031070D02*
X11843991Y-15050118D01*
X11843991Y-15050118D02*
X11853515Y-15088213D01*
X11853515Y-15088213D02*
X11853515Y-15135832D01*
X11853515Y-15135832D02*
X11843991Y-15173928D01*
X11843991Y-15173928D02*
X11834467Y-15192975D01*
X11834467Y-15192975D02*
X11824944Y-15202499D01*
X11824944Y-15202499D02*
X11805896Y-15212023D01*
X11805896Y-15212023D02*
X11786848Y-15212023D01*
X11786848Y-15212023D02*
X11767801Y-15202499D01*
X11767801Y-15202499D02*
X11758277Y-15192975D01*
X11758277Y-15192975D02*
X11748753Y-15173928D01*
X11748753Y-15173928D02*
X11739229Y-15135832D01*
X11739229Y-15135832D02*
X11739229Y-15088213D01*
X11739229Y-15088213D02*
X11748753Y-15050118D01*
X11748753Y-15050118D02*
X11758277Y-15031070D01*
X11758277Y-15031070D02*
X11767801Y-15021547D01*
X11767801Y-15021547D02*
X11786848Y-15012023D01*
X12043991Y-15212023D02*
X11929706Y-15212023D01*
X11986848Y-15212023D02*
X11986848Y-15012023D01*
X11986848Y-15012023D02*
X11967801Y-15040594D01*
X11967801Y-15040594D02*
X11948753Y-15059642D01*
X11948753Y-15059642D02*
X11929706Y-15069166D01*
X12234467Y-15212023D02*
X12120182Y-15212023D01*
X12177325Y-15212023D02*
X12177325Y-15012023D01*
X12177325Y-15012023D02*
X12158277Y-15040594D01*
X12158277Y-15040594D02*
X12139229Y-15059642D01*
X12139229Y-15059642D02*
X12120182Y-15069166D01*
X12348753Y-15097737D02*
X12329706Y-15088213D01*
X12329706Y-15088213D02*
X12320182Y-15078689D01*
X12320182Y-15078689D02*
X12310658Y-15059642D01*
X12310658Y-15059642D02*
X12310658Y-15050118D01*
X12310658Y-15050118D02*
X12320182Y-15031070D01*
X12320182Y-15031070D02*
X12329706Y-15021547D01*
X12329706Y-15021547D02*
X12348753Y-15012023D01*
X12348753Y-15012023D02*
X12386848Y-15012023D01*
X12386848Y-15012023D02*
X12405896Y-15021547D01*
X12405896Y-15021547D02*
X12415420Y-15031070D01*
X12415420Y-15031070D02*
X12424944Y-15050118D01*
X12424944Y-15050118D02*
X12424944Y-15059642D01*
X12424944Y-15059642D02*
X12415420Y-15078689D01*
X12415420Y-15078689D02*
X12405896Y-15088213D01*
X12405896Y-15088213D02*
X12386848Y-15097737D01*
X12386848Y-15097737D02*
X12348753Y-15097737D01*
X12348753Y-15097737D02*
X12329706Y-15107261D01*
X12329706Y-15107261D02*
X12320182Y-15116785D01*
X12320182Y-15116785D02*
X12310658Y-15135832D01*
X12310658Y-15135832D02*
X12310658Y-15173928D01*
X12310658Y-15173928D02*
X12320182Y-15192975D01*
X12320182Y-15192975D02*
X12329706Y-15202499D01*
X12329706Y-15202499D02*
X12348753Y-15212023D01*
X12348753Y-15212023D02*
X12386848Y-15212023D01*
X12386848Y-15212023D02*
X12405896Y-15202499D01*
X12405896Y-15202499D02*
X12415420Y-15192975D01*
X12415420Y-15192975D02*
X12424944Y-15173928D01*
X12424944Y-15173928D02*
X12424944Y-15135832D01*
X12424944Y-15135832D02*
X12415420Y-15116785D01*
X12415420Y-15116785D02*
X12405896Y-15107261D01*
X12405896Y-15107261D02*
X12386848Y-15097737D01*
X12501134Y-15012023D02*
X12501134Y-15050118D01*
X12577325Y-15012023D02*
X12577325Y-15050118D01*
X12872563Y-15288213D02*
X12863039Y-15278689D01*
X12863039Y-15278689D02*
X12843991Y-15250118D01*
X12843991Y-15250118D02*
X12834468Y-15231070D01*
X12834468Y-15231070D02*
X12824944Y-15202499D01*
X12824944Y-15202499D02*
X12815420Y-15154880D01*
X12815420Y-15154880D02*
X12815420Y-15116785D01*
X12815420Y-15116785D02*
X12824944Y-15069166D01*
X12824944Y-15069166D02*
X12834468Y-15040594D01*
X12834468Y-15040594D02*
X12843991Y-15021547D01*
X12843991Y-15021547D02*
X12863039Y-14992975D01*
X12863039Y-14992975D02*
X12872563Y-14983451D01*
X13043991Y-15012023D02*
X12948753Y-15012023D01*
X12948753Y-15012023D02*
X12939229Y-15107261D01*
X12939229Y-15107261D02*
X12948753Y-15097737D01*
X12948753Y-15097737D02*
X12967801Y-15088213D01*
X12967801Y-15088213D02*
X13015420Y-15088213D01*
X13015420Y-15088213D02*
X13034468Y-15097737D01*
X13034468Y-15097737D02*
X13043991Y-15107261D01*
X13043991Y-15107261D02*
X13053515Y-15126309D01*
X13053515Y-15126309D02*
X13053515Y-15173928D01*
X13053515Y-15173928D02*
X13043991Y-15192975D01*
X13043991Y-15192975D02*
X13034468Y-15202499D01*
X13034468Y-15202499D02*
X13015420Y-15212023D01*
X13015420Y-15212023D02*
X12967801Y-15212023D01*
X12967801Y-15212023D02*
X12948753Y-15202499D01*
X12948753Y-15202499D02*
X12939229Y-15192975D01*
X13167801Y-15097737D02*
X13148753Y-15088213D01*
X13148753Y-15088213D02*
X13139229Y-15078689D01*
X13139229Y-15078689D02*
X13129706Y-15059642D01*
X13129706Y-15059642D02*
X13129706Y-15050118D01*
X13129706Y-15050118D02*
X13139229Y-15031070D01*
X13139229Y-15031070D02*
X13148753Y-15021547D01*
X13148753Y-15021547D02*
X13167801Y-15012023D01*
X13167801Y-15012023D02*
X13205896Y-15012023D01*
X13205896Y-15012023D02*
X13224944Y-15021547D01*
X13224944Y-15021547D02*
X13234468Y-15031070D01*
X13234468Y-15031070D02*
X13243991Y-15050118D01*
X13243991Y-15050118D02*
X13243991Y-15059642D01*
X13243991Y-15059642D02*
X13234468Y-15078689D01*
X13234468Y-15078689D02*
X13224944Y-15088213D01*
X13224944Y-15088213D02*
X13205896Y-15097737D01*
X13205896Y-15097737D02*
X13167801Y-15097737D01*
X13167801Y-15097737D02*
X13148753Y-15107261D01*
X13148753Y-15107261D02*
X13139229Y-15116785D01*
X13139229Y-15116785D02*
X13129706Y-15135832D01*
X13129706Y-15135832D02*
X13129706Y-15173928D01*
X13129706Y-15173928D02*
X13139229Y-15192975D01*
X13139229Y-15192975D02*
X13148753Y-15202499D01*
X13148753Y-15202499D02*
X13167801Y-15212023D01*
X13167801Y-15212023D02*
X13205896Y-15212023D01*
X13205896Y-15212023D02*
X13224944Y-15202499D01*
X13224944Y-15202499D02*
X13234468Y-15192975D01*
X13234468Y-15192975D02*
X13243991Y-15173928D01*
X13243991Y-15173928D02*
X13243991Y-15135832D01*
X13243991Y-15135832D02*
X13234468Y-15116785D01*
X13234468Y-15116785D02*
X13224944Y-15107261D01*
X13224944Y-15107261D02*
X13205896Y-15097737D01*
X13482087Y-15212023D02*
X13482087Y-15012023D01*
X13567801Y-15212023D02*
X13567801Y-15107261D01*
X13567801Y-15107261D02*
X13558277Y-15088213D01*
X13558277Y-15088213D02*
X13539230Y-15078689D01*
X13539230Y-15078689D02*
X13510658Y-15078689D01*
X13510658Y-15078689D02*
X13491610Y-15088213D01*
X13491610Y-15088213D02*
X13482087Y-15097737D01*
X13691610Y-15212023D02*
X13672563Y-15202499D01*
X13672563Y-15202499D02*
X13663039Y-15192975D01*
X13663039Y-15192975D02*
X13653515Y-15173928D01*
X13653515Y-15173928D02*
X13653515Y-15116785D01*
X13653515Y-15116785D02*
X13663039Y-15097737D01*
X13663039Y-15097737D02*
X13672563Y-15088213D01*
X13672563Y-15088213D02*
X13691610Y-15078689D01*
X13691610Y-15078689D02*
X13720182Y-15078689D01*
X13720182Y-15078689D02*
X13739230Y-15088213D01*
X13739230Y-15088213D02*
X13748753Y-15097737D01*
X13748753Y-15097737D02*
X13758277Y-15116785D01*
X13758277Y-15116785D02*
X13758277Y-15173928D01*
X13758277Y-15173928D02*
X13748753Y-15192975D01*
X13748753Y-15192975D02*
X13739230Y-15202499D01*
X13739230Y-15202499D02*
X13720182Y-15212023D01*
X13720182Y-15212023D02*
X13691610Y-15212023D01*
X13872563Y-15212023D02*
X13853515Y-15202499D01*
X13853515Y-15202499D02*
X13843991Y-15183451D01*
X13843991Y-15183451D02*
X13843991Y-15012023D01*
X14024944Y-15202499D02*
X14005896Y-15212023D01*
X14005896Y-15212023D02*
X13967801Y-15212023D01*
X13967801Y-15212023D02*
X13948753Y-15202499D01*
X13948753Y-15202499D02*
X13939230Y-15183451D01*
X13939230Y-15183451D02*
X13939230Y-15107261D01*
X13939230Y-15107261D02*
X13948753Y-15088213D01*
X13948753Y-15088213D02*
X13967801Y-15078689D01*
X13967801Y-15078689D02*
X14005896Y-15078689D01*
X14005896Y-15078689D02*
X14024944Y-15088213D01*
X14024944Y-15088213D02*
X14034468Y-15107261D01*
X14034468Y-15107261D02*
X14034468Y-15126309D01*
X14034468Y-15126309D02*
X13939230Y-15145356D01*
X14110658Y-15202499D02*
X14129706Y-15212023D01*
X14129706Y-15212023D02*
X14167801Y-15212023D01*
X14167801Y-15212023D02*
X14186849Y-15202499D01*
X14186849Y-15202499D02*
X14196372Y-15183451D01*
X14196372Y-15183451D02*
X14196372Y-15173928D01*
X14196372Y-15173928D02*
X14186849Y-15154880D01*
X14186849Y-15154880D02*
X14167801Y-15145356D01*
X14167801Y-15145356D02*
X14139230Y-15145356D01*
X14139230Y-15145356D02*
X14120182Y-15135832D01*
X14120182Y-15135832D02*
X14110658Y-15116785D01*
X14110658Y-15116785D02*
X14110658Y-15107261D01*
X14110658Y-15107261D02*
X14120182Y-15088213D01*
X14120182Y-15088213D02*
X14139230Y-15078689D01*
X14139230Y-15078689D02*
X14167801Y-15078689D01*
X14167801Y-15078689D02*
X14186849Y-15088213D01*
X14263039Y-15288213D02*
X14272563Y-15278689D01*
X14272563Y-15278689D02*
X14291611Y-15250118D01*
X14291611Y-15250118D02*
X14301134Y-15231070D01*
X14301134Y-15231070D02*
X14310658Y-15202499D01*
X14310658Y-15202499D02*
X14320182Y-15154880D01*
X14320182Y-15154880D02*
X14320182Y-15116785D01*
X14320182Y-15116785D02*
X14310658Y-15069166D01*
X14310658Y-15069166D02*
X14301134Y-15040594D01*
X14301134Y-15040594D02*
X14291611Y-15021547D01*
X14291611Y-15021547D02*
X14272563Y-14992975D01*
X14272563Y-14992975D02*
X14263039Y-14983451D01*
D12*
X9288573Y-15406092D02*
X9288573Y-15362986D01*
X9245467Y-15362986D01*
X9245467Y-15406092D01*
X9288573Y-15406092D01*
D11*
X9596372Y-15276023D02*
X9615420Y-15276023D01*
X9615420Y-15276023D02*
X9634467Y-15285547D01*
X9634467Y-15285547D02*
X9643991Y-15295070D01*
X9643991Y-15295070D02*
X9653515Y-15314118D01*
X9653515Y-15314118D02*
X9663039Y-15352213D01*
X9663039Y-15352213D02*
X9663039Y-15399832D01*
X9663039Y-15399832D02*
X9653515Y-15437928D01*
X9653515Y-15437928D02*
X9643991Y-15456975D01*
X9643991Y-15456975D02*
X9634467Y-15466499D01*
X9634467Y-15466499D02*
X9615420Y-15476023D01*
X9615420Y-15476023D02*
X9596372Y-15476023D01*
X9596372Y-15476023D02*
X9577324Y-15466499D01*
X9577324Y-15466499D02*
X9567801Y-15456975D01*
X9567801Y-15456975D02*
X9558277Y-15437928D01*
X9558277Y-15437928D02*
X9548753Y-15399832D01*
X9548753Y-15399832D02*
X9548753Y-15352213D01*
X9548753Y-15352213D02*
X9558277Y-15314118D01*
X9558277Y-15314118D02*
X9567801Y-15295070D01*
X9567801Y-15295070D02*
X9577324Y-15285547D01*
X9577324Y-15285547D02*
X9596372Y-15276023D01*
X9748753Y-15456975D02*
X9758277Y-15466499D01*
X9758277Y-15466499D02*
X9748753Y-15476023D01*
X9748753Y-15476023D02*
X9739229Y-15466499D01*
X9739229Y-15466499D02*
X9748753Y-15456975D01*
X9748753Y-15456975D02*
X9748753Y-15476023D01*
X9929705Y-15276023D02*
X9891610Y-15276023D01*
X9891610Y-15276023D02*
X9872563Y-15285547D01*
X9872563Y-15285547D02*
X9863039Y-15295070D01*
X9863039Y-15295070D02*
X9843991Y-15323642D01*
X9843991Y-15323642D02*
X9834467Y-15361737D01*
X9834467Y-15361737D02*
X9834467Y-15437928D01*
X9834467Y-15437928D02*
X9843991Y-15456975D01*
X9843991Y-15456975D02*
X9853515Y-15466499D01*
X9853515Y-15466499D02*
X9872563Y-15476023D01*
X9872563Y-15476023D02*
X9910658Y-15476023D01*
X9910658Y-15476023D02*
X9929705Y-15466499D01*
X9929705Y-15466499D02*
X9939229Y-15456975D01*
X9939229Y-15456975D02*
X9948753Y-15437928D01*
X9948753Y-15437928D02*
X9948753Y-15390309D01*
X9948753Y-15390309D02*
X9939229Y-15371261D01*
X9939229Y-15371261D02*
X9929705Y-15361737D01*
X9929705Y-15361737D02*
X9910658Y-15352213D01*
X9910658Y-15352213D02*
X9872563Y-15352213D01*
X9872563Y-15352213D02*
X9853515Y-15361737D01*
X9853515Y-15361737D02*
X9843991Y-15371261D01*
X9843991Y-15371261D02*
X9834467Y-15390309D01*
X10139229Y-15476023D02*
X10024944Y-15476023D01*
X10082086Y-15476023D02*
X10082086Y-15276023D01*
X10082086Y-15276023D02*
X10063039Y-15304594D01*
X10063039Y-15304594D02*
X10043991Y-15323642D01*
X10043991Y-15323642D02*
X10024944Y-15333166D01*
X10263039Y-15276023D02*
X10282086Y-15276023D01*
X10282086Y-15276023D02*
X10301134Y-15285547D01*
X10301134Y-15285547D02*
X10310658Y-15295070D01*
X10310658Y-15295070D02*
X10320182Y-15314118D01*
X10320182Y-15314118D02*
X10329705Y-15352213D01*
X10329705Y-15352213D02*
X10329705Y-15399832D01*
X10329705Y-15399832D02*
X10320182Y-15437928D01*
X10320182Y-15437928D02*
X10310658Y-15456975D01*
X10310658Y-15456975D02*
X10301134Y-15466499D01*
X10301134Y-15466499D02*
X10282086Y-15476023D01*
X10282086Y-15476023D02*
X10263039Y-15476023D01*
X10263039Y-15476023D02*
X10243991Y-15466499D01*
X10243991Y-15466499D02*
X10234467Y-15456975D01*
X10234467Y-15456975D02*
X10224944Y-15437928D01*
X10224944Y-15437928D02*
X10215420Y-15399832D01*
X10215420Y-15399832D02*
X10215420Y-15352213D01*
X10215420Y-15352213D02*
X10224944Y-15314118D01*
X10224944Y-15314118D02*
X10234467Y-15295070D01*
X10234467Y-15295070D02*
X10243991Y-15285547D01*
X10243991Y-15285547D02*
X10263039Y-15276023D01*
X10415420Y-15476023D02*
X10415420Y-15342689D01*
X10415420Y-15361737D02*
X10424944Y-15352213D01*
X10424944Y-15352213D02*
X10443991Y-15342689D01*
X10443991Y-15342689D02*
X10472563Y-15342689D01*
X10472563Y-15342689D02*
X10491610Y-15352213D01*
X10491610Y-15352213D02*
X10501134Y-15371261D01*
X10501134Y-15371261D02*
X10501134Y-15476023D01*
X10501134Y-15371261D02*
X10510658Y-15352213D01*
X10510658Y-15352213D02*
X10529705Y-15342689D01*
X10529705Y-15342689D02*
X10558277Y-15342689D01*
X10558277Y-15342689D02*
X10577325Y-15352213D01*
X10577325Y-15352213D02*
X10586848Y-15371261D01*
X10586848Y-15371261D02*
X10586848Y-15476023D01*
X10682086Y-15476023D02*
X10682086Y-15342689D01*
X10682086Y-15361737D02*
X10691610Y-15352213D01*
X10691610Y-15352213D02*
X10710658Y-15342689D01*
X10710658Y-15342689D02*
X10739229Y-15342689D01*
X10739229Y-15342689D02*
X10758277Y-15352213D01*
X10758277Y-15352213D02*
X10767801Y-15371261D01*
X10767801Y-15371261D02*
X10767801Y-15476023D01*
X10767801Y-15371261D02*
X10777325Y-15352213D01*
X10777325Y-15352213D02*
X10796372Y-15342689D01*
X10796372Y-15342689D02*
X10824944Y-15342689D01*
X10824944Y-15342689D02*
X10843991Y-15352213D01*
X10843991Y-15352213D02*
X10853515Y-15371261D01*
X10853515Y-15371261D02*
X10853515Y-15476023D01*
X11243991Y-15266499D02*
X11072563Y-15523642D01*
X11501134Y-15276023D02*
X11520182Y-15276023D01*
X11520182Y-15276023D02*
X11539229Y-15285547D01*
X11539229Y-15285547D02*
X11548753Y-15295070D01*
X11548753Y-15295070D02*
X11558277Y-15314118D01*
X11558277Y-15314118D02*
X11567801Y-15352213D01*
X11567801Y-15352213D02*
X11567801Y-15399832D01*
X11567801Y-15399832D02*
X11558277Y-15437928D01*
X11558277Y-15437928D02*
X11548753Y-15456975D01*
X11548753Y-15456975D02*
X11539229Y-15466499D01*
X11539229Y-15466499D02*
X11520182Y-15476023D01*
X11520182Y-15476023D02*
X11501134Y-15476023D01*
X11501134Y-15476023D02*
X11482086Y-15466499D01*
X11482086Y-15466499D02*
X11472563Y-15456975D01*
X11472563Y-15456975D02*
X11463039Y-15437928D01*
X11463039Y-15437928D02*
X11453515Y-15399832D01*
X11453515Y-15399832D02*
X11453515Y-15352213D01*
X11453515Y-15352213D02*
X11463039Y-15314118D01*
X11463039Y-15314118D02*
X11472563Y-15295070D01*
X11472563Y-15295070D02*
X11482086Y-15285547D01*
X11482086Y-15285547D02*
X11501134Y-15276023D01*
X11653515Y-15456975D02*
X11663039Y-15466499D01*
X11663039Y-15466499D02*
X11653515Y-15476023D01*
X11653515Y-15476023D02*
X11643991Y-15466499D01*
X11643991Y-15466499D02*
X11653515Y-15456975D01*
X11653515Y-15456975D02*
X11653515Y-15476023D01*
X11786848Y-15276023D02*
X11805896Y-15276023D01*
X11805896Y-15276023D02*
X11824944Y-15285547D01*
X11824944Y-15285547D02*
X11834467Y-15295070D01*
X11834467Y-15295070D02*
X11843991Y-15314118D01*
X11843991Y-15314118D02*
X11853515Y-15352213D01*
X11853515Y-15352213D02*
X11853515Y-15399832D01*
X11853515Y-15399832D02*
X11843991Y-15437928D01*
X11843991Y-15437928D02*
X11834467Y-15456975D01*
X11834467Y-15456975D02*
X11824944Y-15466499D01*
X11824944Y-15466499D02*
X11805896Y-15476023D01*
X11805896Y-15476023D02*
X11786848Y-15476023D01*
X11786848Y-15476023D02*
X11767801Y-15466499D01*
X11767801Y-15466499D02*
X11758277Y-15456975D01*
X11758277Y-15456975D02*
X11748753Y-15437928D01*
X11748753Y-15437928D02*
X11739229Y-15399832D01*
X11739229Y-15399832D02*
X11739229Y-15352213D01*
X11739229Y-15352213D02*
X11748753Y-15314118D01*
X11748753Y-15314118D02*
X11758277Y-15295070D01*
X11758277Y-15295070D02*
X11767801Y-15285547D01*
X11767801Y-15285547D02*
X11786848Y-15276023D01*
X11929706Y-15295070D02*
X11939229Y-15285547D01*
X11939229Y-15285547D02*
X11958277Y-15276023D01*
X11958277Y-15276023D02*
X12005896Y-15276023D01*
X12005896Y-15276023D02*
X12024944Y-15285547D01*
X12024944Y-15285547D02*
X12034467Y-15295070D01*
X12034467Y-15295070D02*
X12043991Y-15314118D01*
X12043991Y-15314118D02*
X12043991Y-15333166D01*
X12043991Y-15333166D02*
X12034467Y-15361737D01*
X12034467Y-15361737D02*
X11920182Y-15476023D01*
X11920182Y-15476023D02*
X12043991Y-15476023D01*
X12215420Y-15342689D02*
X12215420Y-15476023D01*
X12167801Y-15266499D02*
X12120182Y-15409356D01*
X12120182Y-15409356D02*
X12243991Y-15409356D01*
X12358277Y-15276023D02*
X12377325Y-15276023D01*
X12377325Y-15276023D02*
X12396372Y-15285547D01*
X12396372Y-15285547D02*
X12405896Y-15295070D01*
X12405896Y-15295070D02*
X12415420Y-15314118D01*
X12415420Y-15314118D02*
X12424944Y-15352213D01*
X12424944Y-15352213D02*
X12424944Y-15399832D01*
X12424944Y-15399832D02*
X12415420Y-15437928D01*
X12415420Y-15437928D02*
X12405896Y-15456975D01*
X12405896Y-15456975D02*
X12396372Y-15466499D01*
X12396372Y-15466499D02*
X12377325Y-15476023D01*
X12377325Y-15476023D02*
X12358277Y-15476023D01*
X12358277Y-15476023D02*
X12339229Y-15466499D01*
X12339229Y-15466499D02*
X12329706Y-15456975D01*
X12329706Y-15456975D02*
X12320182Y-15437928D01*
X12320182Y-15437928D02*
X12310658Y-15399832D01*
X12310658Y-15399832D02*
X12310658Y-15352213D01*
X12310658Y-15352213D02*
X12320182Y-15314118D01*
X12320182Y-15314118D02*
X12329706Y-15295070D01*
X12329706Y-15295070D02*
X12339229Y-15285547D01*
X12339229Y-15285547D02*
X12358277Y-15276023D01*
X12501134Y-15276023D02*
X12501134Y-15314118D01*
X12577325Y-15276023D02*
X12577325Y-15314118D01*
X12872563Y-15552213D02*
X12863039Y-15542689D01*
X12863039Y-15542689D02*
X12843991Y-15514118D01*
X12843991Y-15514118D02*
X12834468Y-15495070D01*
X12834468Y-15495070D02*
X12824944Y-15466499D01*
X12824944Y-15466499D02*
X12815420Y-15418880D01*
X12815420Y-15418880D02*
X12815420Y-15380785D01*
X12815420Y-15380785D02*
X12824944Y-15333166D01*
X12824944Y-15333166D02*
X12834468Y-15304594D01*
X12834468Y-15304594D02*
X12843991Y-15285547D01*
X12843991Y-15285547D02*
X12863039Y-15256975D01*
X12863039Y-15256975D02*
X12872563Y-15247451D01*
X13053515Y-15476023D02*
X12939229Y-15476023D01*
X12996372Y-15476023D02*
X12996372Y-15276023D01*
X12996372Y-15276023D02*
X12977325Y-15304594D01*
X12977325Y-15304594D02*
X12958277Y-15323642D01*
X12958277Y-15323642D02*
X12939229Y-15333166D01*
X13129706Y-15295070D02*
X13139229Y-15285547D01*
X13139229Y-15285547D02*
X13158277Y-15276023D01*
X13158277Y-15276023D02*
X13205896Y-15276023D01*
X13205896Y-15276023D02*
X13224944Y-15285547D01*
X13224944Y-15285547D02*
X13234468Y-15295070D01*
X13234468Y-15295070D02*
X13243991Y-15314118D01*
X13243991Y-15314118D02*
X13243991Y-15333166D01*
X13243991Y-15333166D02*
X13234468Y-15361737D01*
X13234468Y-15361737D02*
X13120182Y-15476023D01*
X13120182Y-15476023D02*
X13243991Y-15476023D01*
X13482087Y-15476023D02*
X13482087Y-15276023D01*
X13567801Y-15476023D02*
X13567801Y-15371261D01*
X13567801Y-15371261D02*
X13558277Y-15352213D01*
X13558277Y-15352213D02*
X13539230Y-15342689D01*
X13539230Y-15342689D02*
X13510658Y-15342689D01*
X13510658Y-15342689D02*
X13491610Y-15352213D01*
X13491610Y-15352213D02*
X13482087Y-15361737D01*
X13691610Y-15476023D02*
X13672563Y-15466499D01*
X13672563Y-15466499D02*
X13663039Y-15456975D01*
X13663039Y-15456975D02*
X13653515Y-15437928D01*
X13653515Y-15437928D02*
X13653515Y-15380785D01*
X13653515Y-15380785D02*
X13663039Y-15361737D01*
X13663039Y-15361737D02*
X13672563Y-15352213D01*
X13672563Y-15352213D02*
X13691610Y-15342689D01*
X13691610Y-15342689D02*
X13720182Y-15342689D01*
X13720182Y-15342689D02*
X13739230Y-15352213D01*
X13739230Y-15352213D02*
X13748753Y-15361737D01*
X13748753Y-15361737D02*
X13758277Y-15380785D01*
X13758277Y-15380785D02*
X13758277Y-15437928D01*
X13758277Y-15437928D02*
X13748753Y-15456975D01*
X13748753Y-15456975D02*
X13739230Y-15466499D01*
X13739230Y-15466499D02*
X13720182Y-15476023D01*
X13720182Y-15476023D02*
X13691610Y-15476023D01*
X13872563Y-15476023D02*
X13853515Y-15466499D01*
X13853515Y-15466499D02*
X13843991Y-15447451D01*
X13843991Y-15447451D02*
X13843991Y-15276023D01*
X14024944Y-15466499D02*
X14005896Y-15476023D01*
X14005896Y-15476023D02*
X13967801Y-15476023D01*
X13967801Y-15476023D02*
X13948753Y-15466499D01*
X13948753Y-15466499D02*
X13939230Y-15447451D01*
X13939230Y-15447451D02*
X13939230Y-15371261D01*
X13939230Y-15371261D02*
X13948753Y-15352213D01*
X13948753Y-15352213D02*
X13967801Y-15342689D01*
X13967801Y-15342689D02*
X14005896Y-15342689D01*
X14005896Y-15342689D02*
X14024944Y-15352213D01*
X14024944Y-15352213D02*
X14034468Y-15371261D01*
X14034468Y-15371261D02*
X14034468Y-15390309D01*
X14034468Y-15390309D02*
X13939230Y-15409356D01*
X14110658Y-15466499D02*
X14129706Y-15476023D01*
X14129706Y-15476023D02*
X14167801Y-15476023D01*
X14167801Y-15476023D02*
X14186849Y-15466499D01*
X14186849Y-15466499D02*
X14196372Y-15447451D01*
X14196372Y-15447451D02*
X14196372Y-15437928D01*
X14196372Y-15437928D02*
X14186849Y-15418880D01*
X14186849Y-15418880D02*
X14167801Y-15409356D01*
X14167801Y-15409356D02*
X14139230Y-15409356D01*
X14139230Y-15409356D02*
X14120182Y-15399832D01*
X14120182Y-15399832D02*
X14110658Y-15380785D01*
X14110658Y-15380785D02*
X14110658Y-15371261D01*
X14110658Y-15371261D02*
X14120182Y-15352213D01*
X14120182Y-15352213D02*
X14139230Y-15342689D01*
X14139230Y-15342689D02*
X14167801Y-15342689D01*
X14167801Y-15342689D02*
X14186849Y-15352213D01*
X14263039Y-15552213D02*
X14272563Y-15542689D01*
X14272563Y-15542689D02*
X14291611Y-15514118D01*
X14291611Y-15514118D02*
X14301134Y-15495070D01*
X14301134Y-15495070D02*
X14310658Y-15466499D01*
X14310658Y-15466499D02*
X14320182Y-15418880D01*
X14320182Y-15418880D02*
X14320182Y-15380785D01*
X14320182Y-15380785D02*
X14310658Y-15333166D01*
X14310658Y-15333166D02*
X14301134Y-15304594D01*
X14301134Y-15304594D02*
X14291611Y-15285547D01*
X14291611Y-15285547D02*
X14272563Y-15256975D01*
X14272563Y-15256975D02*
X14263039Y-15247451D01*
D12*
X9247500Y-15698539D02*
X9297500Y-15648539D01*
X9247500Y-15598539D01*
X9197500Y-15648539D01*
X9247500Y-15698539D01*
D11*
X9663039Y-15740023D02*
X9548753Y-15740023D01*
X9605896Y-15740023D02*
X9605896Y-15540023D01*
X9605896Y-15540023D02*
X9586848Y-15568594D01*
X9586848Y-15568594D02*
X9567801Y-15587642D01*
X9567801Y-15587642D02*
X9548753Y-15597166D01*
X9748753Y-15720975D02*
X9758277Y-15730499D01*
X9758277Y-15730499D02*
X9748753Y-15740023D01*
X9748753Y-15740023D02*
X9739229Y-15730499D01*
X9739229Y-15730499D02*
X9748753Y-15720975D01*
X9748753Y-15720975D02*
X9748753Y-15740023D01*
X9882086Y-15540023D02*
X9901134Y-15540023D01*
X9901134Y-15540023D02*
X9920182Y-15549547D01*
X9920182Y-15549547D02*
X9929705Y-15559070D01*
X9929705Y-15559070D02*
X9939229Y-15578118D01*
X9939229Y-15578118D02*
X9948753Y-15616213D01*
X9948753Y-15616213D02*
X9948753Y-15663832D01*
X9948753Y-15663832D02*
X9939229Y-15701928D01*
X9939229Y-15701928D02*
X9929705Y-15720975D01*
X9929705Y-15720975D02*
X9920182Y-15730499D01*
X9920182Y-15730499D02*
X9901134Y-15740023D01*
X9901134Y-15740023D02*
X9882086Y-15740023D01*
X9882086Y-15740023D02*
X9863039Y-15730499D01*
X9863039Y-15730499D02*
X9853515Y-15720975D01*
X9853515Y-15720975D02*
X9843991Y-15701928D01*
X9843991Y-15701928D02*
X9834467Y-15663832D01*
X9834467Y-15663832D02*
X9834467Y-15616213D01*
X9834467Y-15616213D02*
X9843991Y-15578118D01*
X9843991Y-15578118D02*
X9853515Y-15559070D01*
X9853515Y-15559070D02*
X9863039Y-15549547D01*
X9863039Y-15549547D02*
X9882086Y-15540023D01*
X10072563Y-15540023D02*
X10091610Y-15540023D01*
X10091610Y-15540023D02*
X10110658Y-15549547D01*
X10110658Y-15549547D02*
X10120182Y-15559070D01*
X10120182Y-15559070D02*
X10129705Y-15578118D01*
X10129705Y-15578118D02*
X10139229Y-15616213D01*
X10139229Y-15616213D02*
X10139229Y-15663832D01*
X10139229Y-15663832D02*
X10129705Y-15701928D01*
X10129705Y-15701928D02*
X10120182Y-15720975D01*
X10120182Y-15720975D02*
X10110658Y-15730499D01*
X10110658Y-15730499D02*
X10091610Y-15740023D01*
X10091610Y-15740023D02*
X10072563Y-15740023D01*
X10072563Y-15740023D02*
X10053515Y-15730499D01*
X10053515Y-15730499D02*
X10043991Y-15720975D01*
X10043991Y-15720975D02*
X10034467Y-15701928D01*
X10034467Y-15701928D02*
X10024944Y-15663832D01*
X10024944Y-15663832D02*
X10024944Y-15616213D01*
X10024944Y-15616213D02*
X10034467Y-15578118D01*
X10034467Y-15578118D02*
X10043991Y-15559070D01*
X10043991Y-15559070D02*
X10053515Y-15549547D01*
X10053515Y-15549547D02*
X10072563Y-15540023D01*
X10263039Y-15540023D02*
X10282086Y-15540023D01*
X10282086Y-15540023D02*
X10301134Y-15549547D01*
X10301134Y-15549547D02*
X10310658Y-15559070D01*
X10310658Y-15559070D02*
X10320182Y-15578118D01*
X10320182Y-15578118D02*
X10329705Y-15616213D01*
X10329705Y-15616213D02*
X10329705Y-15663832D01*
X10329705Y-15663832D02*
X10320182Y-15701928D01*
X10320182Y-15701928D02*
X10310658Y-15720975D01*
X10310658Y-15720975D02*
X10301134Y-15730499D01*
X10301134Y-15730499D02*
X10282086Y-15740023D01*
X10282086Y-15740023D02*
X10263039Y-15740023D01*
X10263039Y-15740023D02*
X10243991Y-15730499D01*
X10243991Y-15730499D02*
X10234467Y-15720975D01*
X10234467Y-15720975D02*
X10224944Y-15701928D01*
X10224944Y-15701928D02*
X10215420Y-15663832D01*
X10215420Y-15663832D02*
X10215420Y-15616213D01*
X10215420Y-15616213D02*
X10224944Y-15578118D01*
X10224944Y-15578118D02*
X10234467Y-15559070D01*
X10234467Y-15559070D02*
X10243991Y-15549547D01*
X10243991Y-15549547D02*
X10263039Y-15540023D01*
X10415420Y-15740023D02*
X10415420Y-15606689D01*
X10415420Y-15625737D02*
X10424944Y-15616213D01*
X10424944Y-15616213D02*
X10443991Y-15606689D01*
X10443991Y-15606689D02*
X10472563Y-15606689D01*
X10472563Y-15606689D02*
X10491610Y-15616213D01*
X10491610Y-15616213D02*
X10501134Y-15635261D01*
X10501134Y-15635261D02*
X10501134Y-15740023D01*
X10501134Y-15635261D02*
X10510658Y-15616213D01*
X10510658Y-15616213D02*
X10529705Y-15606689D01*
X10529705Y-15606689D02*
X10558277Y-15606689D01*
X10558277Y-15606689D02*
X10577325Y-15616213D01*
X10577325Y-15616213D02*
X10586848Y-15635261D01*
X10586848Y-15635261D02*
X10586848Y-15740023D01*
X10682086Y-15740023D02*
X10682086Y-15606689D01*
X10682086Y-15625737D02*
X10691610Y-15616213D01*
X10691610Y-15616213D02*
X10710658Y-15606689D01*
X10710658Y-15606689D02*
X10739229Y-15606689D01*
X10739229Y-15606689D02*
X10758277Y-15616213D01*
X10758277Y-15616213D02*
X10767801Y-15635261D01*
X10767801Y-15635261D02*
X10767801Y-15740023D01*
X10767801Y-15635261D02*
X10777325Y-15616213D01*
X10777325Y-15616213D02*
X10796372Y-15606689D01*
X10796372Y-15606689D02*
X10824944Y-15606689D01*
X10824944Y-15606689D02*
X10843991Y-15616213D01*
X10843991Y-15616213D02*
X10853515Y-15635261D01*
X10853515Y-15635261D02*
X10853515Y-15740023D01*
X11243991Y-15530499D02*
X11072563Y-15787642D01*
X11501134Y-15540023D02*
X11520182Y-15540023D01*
X11520182Y-15540023D02*
X11539229Y-15549547D01*
X11539229Y-15549547D02*
X11548753Y-15559070D01*
X11548753Y-15559070D02*
X11558277Y-15578118D01*
X11558277Y-15578118D02*
X11567801Y-15616213D01*
X11567801Y-15616213D02*
X11567801Y-15663832D01*
X11567801Y-15663832D02*
X11558277Y-15701928D01*
X11558277Y-15701928D02*
X11548753Y-15720975D01*
X11548753Y-15720975D02*
X11539229Y-15730499D01*
X11539229Y-15730499D02*
X11520182Y-15740023D01*
X11520182Y-15740023D02*
X11501134Y-15740023D01*
X11501134Y-15740023D02*
X11482086Y-15730499D01*
X11482086Y-15730499D02*
X11472563Y-15720975D01*
X11472563Y-15720975D02*
X11463039Y-15701928D01*
X11463039Y-15701928D02*
X11453515Y-15663832D01*
X11453515Y-15663832D02*
X11453515Y-15616213D01*
X11453515Y-15616213D02*
X11463039Y-15578118D01*
X11463039Y-15578118D02*
X11472563Y-15559070D01*
X11472563Y-15559070D02*
X11482086Y-15549547D01*
X11482086Y-15549547D02*
X11501134Y-15540023D01*
X11653515Y-15720975D02*
X11663039Y-15730499D01*
X11663039Y-15730499D02*
X11653515Y-15740023D01*
X11653515Y-15740023D02*
X11643991Y-15730499D01*
X11643991Y-15730499D02*
X11653515Y-15720975D01*
X11653515Y-15720975D02*
X11653515Y-15740023D01*
X11786848Y-15540023D02*
X11805896Y-15540023D01*
X11805896Y-15540023D02*
X11824944Y-15549547D01*
X11824944Y-15549547D02*
X11834467Y-15559070D01*
X11834467Y-15559070D02*
X11843991Y-15578118D01*
X11843991Y-15578118D02*
X11853515Y-15616213D01*
X11853515Y-15616213D02*
X11853515Y-15663832D01*
X11853515Y-15663832D02*
X11843991Y-15701928D01*
X11843991Y-15701928D02*
X11834467Y-15720975D01*
X11834467Y-15720975D02*
X11824944Y-15730499D01*
X11824944Y-15730499D02*
X11805896Y-15740023D01*
X11805896Y-15740023D02*
X11786848Y-15740023D01*
X11786848Y-15740023D02*
X11767801Y-15730499D01*
X11767801Y-15730499D02*
X11758277Y-15720975D01*
X11758277Y-15720975D02*
X11748753Y-15701928D01*
X11748753Y-15701928D02*
X11739229Y-15663832D01*
X11739229Y-15663832D02*
X11739229Y-15616213D01*
X11739229Y-15616213D02*
X11748753Y-15578118D01*
X11748753Y-15578118D02*
X11758277Y-15559070D01*
X11758277Y-15559070D02*
X11767801Y-15549547D01*
X11767801Y-15549547D02*
X11786848Y-15540023D01*
X11920182Y-15540023D02*
X12043991Y-15540023D01*
X12043991Y-15540023D02*
X11977325Y-15616213D01*
X11977325Y-15616213D02*
X12005896Y-15616213D01*
X12005896Y-15616213D02*
X12024944Y-15625737D01*
X12024944Y-15625737D02*
X12034467Y-15635261D01*
X12034467Y-15635261D02*
X12043991Y-15654309D01*
X12043991Y-15654309D02*
X12043991Y-15701928D01*
X12043991Y-15701928D02*
X12034467Y-15720975D01*
X12034467Y-15720975D02*
X12024944Y-15730499D01*
X12024944Y-15730499D02*
X12005896Y-15740023D01*
X12005896Y-15740023D02*
X11948753Y-15740023D01*
X11948753Y-15740023D02*
X11929706Y-15730499D01*
X11929706Y-15730499D02*
X11920182Y-15720975D01*
X12139229Y-15740023D02*
X12177325Y-15740023D01*
X12177325Y-15740023D02*
X12196372Y-15730499D01*
X12196372Y-15730499D02*
X12205896Y-15720975D01*
X12205896Y-15720975D02*
X12224944Y-15692404D01*
X12224944Y-15692404D02*
X12234467Y-15654309D01*
X12234467Y-15654309D02*
X12234467Y-15578118D01*
X12234467Y-15578118D02*
X12224944Y-15559070D01*
X12224944Y-15559070D02*
X12215420Y-15549547D01*
X12215420Y-15549547D02*
X12196372Y-15540023D01*
X12196372Y-15540023D02*
X12158277Y-15540023D01*
X12158277Y-15540023D02*
X12139229Y-15549547D01*
X12139229Y-15549547D02*
X12129706Y-15559070D01*
X12129706Y-15559070D02*
X12120182Y-15578118D01*
X12120182Y-15578118D02*
X12120182Y-15625737D01*
X12120182Y-15625737D02*
X12129706Y-15644785D01*
X12129706Y-15644785D02*
X12139229Y-15654309D01*
X12139229Y-15654309D02*
X12158277Y-15663832D01*
X12158277Y-15663832D02*
X12196372Y-15663832D01*
X12196372Y-15663832D02*
X12215420Y-15654309D01*
X12215420Y-15654309D02*
X12224944Y-15644785D01*
X12224944Y-15644785D02*
X12234467Y-15625737D01*
X12405896Y-15606689D02*
X12405896Y-15740023D01*
X12358277Y-15530499D02*
X12310658Y-15673356D01*
X12310658Y-15673356D02*
X12434467Y-15673356D01*
X12501134Y-15540023D02*
X12501134Y-15578118D01*
X12577325Y-15540023D02*
X12577325Y-15578118D01*
X12872563Y-15816213D02*
X12863039Y-15806689D01*
X12863039Y-15806689D02*
X12843991Y-15778118D01*
X12843991Y-15778118D02*
X12834468Y-15759070D01*
X12834468Y-15759070D02*
X12824944Y-15730499D01*
X12824944Y-15730499D02*
X12815420Y-15682880D01*
X12815420Y-15682880D02*
X12815420Y-15644785D01*
X12815420Y-15644785D02*
X12824944Y-15597166D01*
X12824944Y-15597166D02*
X12834468Y-15568594D01*
X12834468Y-15568594D02*
X12843991Y-15549547D01*
X12843991Y-15549547D02*
X12863039Y-15520975D01*
X12863039Y-15520975D02*
X12872563Y-15511451D01*
X13053515Y-15740023D02*
X12939229Y-15740023D01*
X12996372Y-15740023D02*
X12996372Y-15540023D01*
X12996372Y-15540023D02*
X12977325Y-15568594D01*
X12977325Y-15568594D02*
X12958277Y-15587642D01*
X12958277Y-15587642D02*
X12939229Y-15597166D01*
X13234468Y-15540023D02*
X13139229Y-15540023D01*
X13139229Y-15540023D02*
X13129706Y-15635261D01*
X13129706Y-15635261D02*
X13139229Y-15625737D01*
X13139229Y-15625737D02*
X13158277Y-15616213D01*
X13158277Y-15616213D02*
X13205896Y-15616213D01*
X13205896Y-15616213D02*
X13224944Y-15625737D01*
X13224944Y-15625737D02*
X13234468Y-15635261D01*
X13234468Y-15635261D02*
X13243991Y-15654309D01*
X13243991Y-15654309D02*
X13243991Y-15701928D01*
X13243991Y-15701928D02*
X13234468Y-15720975D01*
X13234468Y-15720975D02*
X13224944Y-15730499D01*
X13224944Y-15730499D02*
X13205896Y-15740023D01*
X13205896Y-15740023D02*
X13158277Y-15740023D01*
X13158277Y-15740023D02*
X13139229Y-15730499D01*
X13139229Y-15730499D02*
X13129706Y-15720975D01*
X13482087Y-15740023D02*
X13482087Y-15540023D01*
X13567801Y-15740023D02*
X13567801Y-15635261D01*
X13567801Y-15635261D02*
X13558277Y-15616213D01*
X13558277Y-15616213D02*
X13539230Y-15606689D01*
X13539230Y-15606689D02*
X13510658Y-15606689D01*
X13510658Y-15606689D02*
X13491610Y-15616213D01*
X13491610Y-15616213D02*
X13482087Y-15625737D01*
X13691610Y-15740023D02*
X13672563Y-15730499D01*
X13672563Y-15730499D02*
X13663039Y-15720975D01*
X13663039Y-15720975D02*
X13653515Y-15701928D01*
X13653515Y-15701928D02*
X13653515Y-15644785D01*
X13653515Y-15644785D02*
X13663039Y-15625737D01*
X13663039Y-15625737D02*
X13672563Y-15616213D01*
X13672563Y-15616213D02*
X13691610Y-15606689D01*
X13691610Y-15606689D02*
X13720182Y-15606689D01*
X13720182Y-15606689D02*
X13739230Y-15616213D01*
X13739230Y-15616213D02*
X13748753Y-15625737D01*
X13748753Y-15625737D02*
X13758277Y-15644785D01*
X13758277Y-15644785D02*
X13758277Y-15701928D01*
X13758277Y-15701928D02*
X13748753Y-15720975D01*
X13748753Y-15720975D02*
X13739230Y-15730499D01*
X13739230Y-15730499D02*
X13720182Y-15740023D01*
X13720182Y-15740023D02*
X13691610Y-15740023D01*
X13872563Y-15740023D02*
X13853515Y-15730499D01*
X13853515Y-15730499D02*
X13843991Y-15711451D01*
X13843991Y-15711451D02*
X13843991Y-15540023D01*
X14024944Y-15730499D02*
X14005896Y-15740023D01*
X14005896Y-15740023D02*
X13967801Y-15740023D01*
X13967801Y-15740023D02*
X13948753Y-15730499D01*
X13948753Y-15730499D02*
X13939230Y-15711451D01*
X13939230Y-15711451D02*
X13939230Y-15635261D01*
X13939230Y-15635261D02*
X13948753Y-15616213D01*
X13948753Y-15616213D02*
X13967801Y-15606689D01*
X13967801Y-15606689D02*
X14005896Y-15606689D01*
X14005896Y-15606689D02*
X14024944Y-15616213D01*
X14024944Y-15616213D02*
X14034468Y-15635261D01*
X14034468Y-15635261D02*
X14034468Y-15654309D01*
X14034468Y-15654309D02*
X13939230Y-15673356D01*
X14110658Y-15730499D02*
X14129706Y-15740023D01*
X14129706Y-15740023D02*
X14167801Y-15740023D01*
X14167801Y-15740023D02*
X14186849Y-15730499D01*
X14186849Y-15730499D02*
X14196372Y-15711451D01*
X14196372Y-15711451D02*
X14196372Y-15701928D01*
X14196372Y-15701928D02*
X14186849Y-15682880D01*
X14186849Y-15682880D02*
X14167801Y-15673356D01*
X14167801Y-15673356D02*
X14139230Y-15673356D01*
X14139230Y-15673356D02*
X14120182Y-15663832D01*
X14120182Y-15663832D02*
X14110658Y-15644785D01*
X14110658Y-15644785D02*
X14110658Y-15635261D01*
X14110658Y-15635261D02*
X14120182Y-15616213D01*
X14120182Y-15616213D02*
X14139230Y-15606689D01*
X14139230Y-15606689D02*
X14167801Y-15606689D01*
X14167801Y-15606689D02*
X14186849Y-15616213D01*
X14263039Y-15816213D02*
X14272563Y-15806689D01*
X14272563Y-15806689D02*
X14291611Y-15778118D01*
X14291611Y-15778118D02*
X14301134Y-15759070D01*
X14301134Y-15759070D02*
X14310658Y-15730499D01*
X14310658Y-15730499D02*
X14320182Y-15682880D01*
X14320182Y-15682880D02*
X14320182Y-15644785D01*
X14320182Y-15644785D02*
X14310658Y-15597166D01*
X14310658Y-15597166D02*
X14301134Y-15568594D01*
X14301134Y-15568594D02*
X14291611Y-15549547D01*
X14291611Y-15549547D02*
X14272563Y-15520975D01*
X14272563Y-15520975D02*
X14263039Y-15511451D01*
D13*
X9167500Y-15847539D02*
X9297500Y-15977539D01*
X9297500Y-15847539D02*
X9167500Y-15977539D01*
X9297500Y-15912539D02*
G75*
G02*
X9167500Y-15912539I-65000J0D01*
G01*
X9167500Y-15912539D02*
G75*
G02*
X9297500Y-15912539I65000J0D01*
G01*
D11*
X9663039Y-16004023D02*
X9548753Y-16004023D01*
X9605896Y-16004023D02*
X9605896Y-15804023D01*
X9605896Y-15804023D02*
X9586848Y-15832594D01*
X9586848Y-15832594D02*
X9567801Y-15851642D01*
X9567801Y-15851642D02*
X9548753Y-15861166D01*
X9748753Y-15984975D02*
X9758277Y-15994499D01*
X9758277Y-15994499D02*
X9748753Y-16004023D01*
X9748753Y-16004023D02*
X9739229Y-15994499D01*
X9739229Y-15994499D02*
X9748753Y-15984975D01*
X9748753Y-15984975D02*
X9748753Y-16004023D01*
X9824944Y-15804023D02*
X9948753Y-15804023D01*
X9948753Y-15804023D02*
X9882086Y-15880213D01*
X9882086Y-15880213D02*
X9910658Y-15880213D01*
X9910658Y-15880213D02*
X9929705Y-15889737D01*
X9929705Y-15889737D02*
X9939229Y-15899261D01*
X9939229Y-15899261D02*
X9948753Y-15918309D01*
X9948753Y-15918309D02*
X9948753Y-15965928D01*
X9948753Y-15965928D02*
X9939229Y-15984975D01*
X9939229Y-15984975D02*
X9929705Y-15994499D01*
X9929705Y-15994499D02*
X9910658Y-16004023D01*
X9910658Y-16004023D02*
X9853515Y-16004023D01*
X9853515Y-16004023D02*
X9834467Y-15994499D01*
X9834467Y-15994499D02*
X9824944Y-15984975D01*
X10072563Y-15804023D02*
X10091610Y-15804023D01*
X10091610Y-15804023D02*
X10110658Y-15813547D01*
X10110658Y-15813547D02*
X10120182Y-15823070D01*
X10120182Y-15823070D02*
X10129705Y-15842118D01*
X10129705Y-15842118D02*
X10139229Y-15880213D01*
X10139229Y-15880213D02*
X10139229Y-15927832D01*
X10139229Y-15927832D02*
X10129705Y-15965928D01*
X10129705Y-15965928D02*
X10120182Y-15984975D01*
X10120182Y-15984975D02*
X10110658Y-15994499D01*
X10110658Y-15994499D02*
X10091610Y-16004023D01*
X10091610Y-16004023D02*
X10072563Y-16004023D01*
X10072563Y-16004023D02*
X10053515Y-15994499D01*
X10053515Y-15994499D02*
X10043991Y-15984975D01*
X10043991Y-15984975D02*
X10034467Y-15965928D01*
X10034467Y-15965928D02*
X10024944Y-15927832D01*
X10024944Y-15927832D02*
X10024944Y-15880213D01*
X10024944Y-15880213D02*
X10034467Y-15842118D01*
X10034467Y-15842118D02*
X10043991Y-15823070D01*
X10043991Y-15823070D02*
X10053515Y-15813547D01*
X10053515Y-15813547D02*
X10072563Y-15804023D01*
X10263039Y-15804023D02*
X10282086Y-15804023D01*
X10282086Y-15804023D02*
X10301134Y-15813547D01*
X10301134Y-15813547D02*
X10310658Y-15823070D01*
X10310658Y-15823070D02*
X10320182Y-15842118D01*
X10320182Y-15842118D02*
X10329705Y-15880213D01*
X10329705Y-15880213D02*
X10329705Y-15927832D01*
X10329705Y-15927832D02*
X10320182Y-15965928D01*
X10320182Y-15965928D02*
X10310658Y-15984975D01*
X10310658Y-15984975D02*
X10301134Y-15994499D01*
X10301134Y-15994499D02*
X10282086Y-16004023D01*
X10282086Y-16004023D02*
X10263039Y-16004023D01*
X10263039Y-16004023D02*
X10243991Y-15994499D01*
X10243991Y-15994499D02*
X10234467Y-15984975D01*
X10234467Y-15984975D02*
X10224944Y-15965928D01*
X10224944Y-15965928D02*
X10215420Y-15927832D01*
X10215420Y-15927832D02*
X10215420Y-15880213D01*
X10215420Y-15880213D02*
X10224944Y-15842118D01*
X10224944Y-15842118D02*
X10234467Y-15823070D01*
X10234467Y-15823070D02*
X10243991Y-15813547D01*
X10243991Y-15813547D02*
X10263039Y-15804023D01*
X10415420Y-16004023D02*
X10415420Y-15870689D01*
X10415420Y-15889737D02*
X10424944Y-15880213D01*
X10424944Y-15880213D02*
X10443991Y-15870689D01*
X10443991Y-15870689D02*
X10472563Y-15870689D01*
X10472563Y-15870689D02*
X10491610Y-15880213D01*
X10491610Y-15880213D02*
X10501134Y-15899261D01*
X10501134Y-15899261D02*
X10501134Y-16004023D01*
X10501134Y-15899261D02*
X10510658Y-15880213D01*
X10510658Y-15880213D02*
X10529705Y-15870689D01*
X10529705Y-15870689D02*
X10558277Y-15870689D01*
X10558277Y-15870689D02*
X10577325Y-15880213D01*
X10577325Y-15880213D02*
X10586848Y-15899261D01*
X10586848Y-15899261D02*
X10586848Y-16004023D01*
X10682086Y-16004023D02*
X10682086Y-15870689D01*
X10682086Y-15889737D02*
X10691610Y-15880213D01*
X10691610Y-15880213D02*
X10710658Y-15870689D01*
X10710658Y-15870689D02*
X10739229Y-15870689D01*
X10739229Y-15870689D02*
X10758277Y-15880213D01*
X10758277Y-15880213D02*
X10767801Y-15899261D01*
X10767801Y-15899261D02*
X10767801Y-16004023D01*
X10767801Y-15899261D02*
X10777325Y-15880213D01*
X10777325Y-15880213D02*
X10796372Y-15870689D01*
X10796372Y-15870689D02*
X10824944Y-15870689D01*
X10824944Y-15870689D02*
X10843991Y-15880213D01*
X10843991Y-15880213D02*
X10853515Y-15899261D01*
X10853515Y-15899261D02*
X10853515Y-16004023D01*
X11243991Y-15794499D02*
X11072563Y-16051642D01*
X11501134Y-15804023D02*
X11520182Y-15804023D01*
X11520182Y-15804023D02*
X11539229Y-15813547D01*
X11539229Y-15813547D02*
X11548753Y-15823070D01*
X11548753Y-15823070D02*
X11558277Y-15842118D01*
X11558277Y-15842118D02*
X11567801Y-15880213D01*
X11567801Y-15880213D02*
X11567801Y-15927832D01*
X11567801Y-15927832D02*
X11558277Y-15965928D01*
X11558277Y-15965928D02*
X11548753Y-15984975D01*
X11548753Y-15984975D02*
X11539229Y-15994499D01*
X11539229Y-15994499D02*
X11520182Y-16004023D01*
X11520182Y-16004023D02*
X11501134Y-16004023D01*
X11501134Y-16004023D02*
X11482086Y-15994499D01*
X11482086Y-15994499D02*
X11472563Y-15984975D01*
X11472563Y-15984975D02*
X11463039Y-15965928D01*
X11463039Y-15965928D02*
X11453515Y-15927832D01*
X11453515Y-15927832D02*
X11453515Y-15880213D01*
X11453515Y-15880213D02*
X11463039Y-15842118D01*
X11463039Y-15842118D02*
X11472563Y-15823070D01*
X11472563Y-15823070D02*
X11482086Y-15813547D01*
X11482086Y-15813547D02*
X11501134Y-15804023D01*
X11653515Y-15984975D02*
X11663039Y-15994499D01*
X11663039Y-15994499D02*
X11653515Y-16004023D01*
X11653515Y-16004023D02*
X11643991Y-15994499D01*
X11643991Y-15994499D02*
X11653515Y-15984975D01*
X11653515Y-15984975D02*
X11653515Y-16004023D01*
X11786848Y-15804023D02*
X11805896Y-15804023D01*
X11805896Y-15804023D02*
X11824944Y-15813547D01*
X11824944Y-15813547D02*
X11834467Y-15823070D01*
X11834467Y-15823070D02*
X11843991Y-15842118D01*
X11843991Y-15842118D02*
X11853515Y-15880213D01*
X11853515Y-15880213D02*
X11853515Y-15927832D01*
X11853515Y-15927832D02*
X11843991Y-15965928D01*
X11843991Y-15965928D02*
X11834467Y-15984975D01*
X11834467Y-15984975D02*
X11824944Y-15994499D01*
X11824944Y-15994499D02*
X11805896Y-16004023D01*
X11805896Y-16004023D02*
X11786848Y-16004023D01*
X11786848Y-16004023D02*
X11767801Y-15994499D01*
X11767801Y-15994499D02*
X11758277Y-15984975D01*
X11758277Y-15984975D02*
X11748753Y-15965928D01*
X11748753Y-15965928D02*
X11739229Y-15927832D01*
X11739229Y-15927832D02*
X11739229Y-15880213D01*
X11739229Y-15880213D02*
X11748753Y-15842118D01*
X11748753Y-15842118D02*
X11758277Y-15823070D01*
X11758277Y-15823070D02*
X11767801Y-15813547D01*
X11767801Y-15813547D02*
X11786848Y-15804023D01*
X12034467Y-15804023D02*
X11939229Y-15804023D01*
X11939229Y-15804023D02*
X11929706Y-15899261D01*
X11929706Y-15899261D02*
X11939229Y-15889737D01*
X11939229Y-15889737D02*
X11958277Y-15880213D01*
X11958277Y-15880213D02*
X12005896Y-15880213D01*
X12005896Y-15880213D02*
X12024944Y-15889737D01*
X12024944Y-15889737D02*
X12034467Y-15899261D01*
X12034467Y-15899261D02*
X12043991Y-15918309D01*
X12043991Y-15918309D02*
X12043991Y-15965928D01*
X12043991Y-15965928D02*
X12034467Y-15984975D01*
X12034467Y-15984975D02*
X12024944Y-15994499D01*
X12024944Y-15994499D02*
X12005896Y-16004023D01*
X12005896Y-16004023D02*
X11958277Y-16004023D01*
X11958277Y-16004023D02*
X11939229Y-15994499D01*
X11939229Y-15994499D02*
X11929706Y-15984975D01*
X12234467Y-16004023D02*
X12120182Y-16004023D01*
X12177325Y-16004023D02*
X12177325Y-15804023D01*
X12177325Y-15804023D02*
X12158277Y-15832594D01*
X12158277Y-15832594D02*
X12139229Y-15851642D01*
X12139229Y-15851642D02*
X12120182Y-15861166D01*
X12310658Y-15823070D02*
X12320182Y-15813547D01*
X12320182Y-15813547D02*
X12339229Y-15804023D01*
X12339229Y-15804023D02*
X12386848Y-15804023D01*
X12386848Y-15804023D02*
X12405896Y-15813547D01*
X12405896Y-15813547D02*
X12415420Y-15823070D01*
X12415420Y-15823070D02*
X12424944Y-15842118D01*
X12424944Y-15842118D02*
X12424944Y-15861166D01*
X12424944Y-15861166D02*
X12415420Y-15889737D01*
X12415420Y-15889737D02*
X12301134Y-16004023D01*
X12301134Y-16004023D02*
X12424944Y-16004023D01*
X12501134Y-15804023D02*
X12501134Y-15842118D01*
X12577325Y-15804023D02*
X12577325Y-15842118D01*
X12872563Y-16080213D02*
X12863039Y-16070689D01*
X12863039Y-16070689D02*
X12843991Y-16042118D01*
X12843991Y-16042118D02*
X12834468Y-16023070D01*
X12834468Y-16023070D02*
X12824944Y-15994499D01*
X12824944Y-15994499D02*
X12815420Y-15946880D01*
X12815420Y-15946880D02*
X12815420Y-15908785D01*
X12815420Y-15908785D02*
X12824944Y-15861166D01*
X12824944Y-15861166D02*
X12834468Y-15832594D01*
X12834468Y-15832594D02*
X12843991Y-15813547D01*
X12843991Y-15813547D02*
X12863039Y-15784975D01*
X12863039Y-15784975D02*
X12872563Y-15775451D01*
X13053515Y-16004023D02*
X12939229Y-16004023D01*
X12996372Y-16004023D02*
X12996372Y-15804023D01*
X12996372Y-15804023D02*
X12977325Y-15832594D01*
X12977325Y-15832594D02*
X12958277Y-15851642D01*
X12958277Y-15851642D02*
X12939229Y-15861166D01*
X13129706Y-15823070D02*
X13139229Y-15813547D01*
X13139229Y-15813547D02*
X13158277Y-15804023D01*
X13158277Y-15804023D02*
X13205896Y-15804023D01*
X13205896Y-15804023D02*
X13224944Y-15813547D01*
X13224944Y-15813547D02*
X13234468Y-15823070D01*
X13234468Y-15823070D02*
X13243991Y-15842118D01*
X13243991Y-15842118D02*
X13243991Y-15861166D01*
X13243991Y-15861166D02*
X13234468Y-15889737D01*
X13234468Y-15889737D02*
X13120182Y-16004023D01*
X13120182Y-16004023D02*
X13243991Y-16004023D01*
X13482087Y-16004023D02*
X13482087Y-15804023D01*
X13567801Y-16004023D02*
X13567801Y-15899261D01*
X13567801Y-15899261D02*
X13558277Y-15880213D01*
X13558277Y-15880213D02*
X13539230Y-15870689D01*
X13539230Y-15870689D02*
X13510658Y-15870689D01*
X13510658Y-15870689D02*
X13491610Y-15880213D01*
X13491610Y-15880213D02*
X13482087Y-15889737D01*
X13691610Y-16004023D02*
X13672563Y-15994499D01*
X13672563Y-15994499D02*
X13663039Y-15984975D01*
X13663039Y-15984975D02*
X13653515Y-15965928D01*
X13653515Y-15965928D02*
X13653515Y-15908785D01*
X13653515Y-15908785D02*
X13663039Y-15889737D01*
X13663039Y-15889737D02*
X13672563Y-15880213D01*
X13672563Y-15880213D02*
X13691610Y-15870689D01*
X13691610Y-15870689D02*
X13720182Y-15870689D01*
X13720182Y-15870689D02*
X13739230Y-15880213D01*
X13739230Y-15880213D02*
X13748753Y-15889737D01*
X13748753Y-15889737D02*
X13758277Y-15908785D01*
X13758277Y-15908785D02*
X13758277Y-15965928D01*
X13758277Y-15965928D02*
X13748753Y-15984975D01*
X13748753Y-15984975D02*
X13739230Y-15994499D01*
X13739230Y-15994499D02*
X13720182Y-16004023D01*
X13720182Y-16004023D02*
X13691610Y-16004023D01*
X13872563Y-16004023D02*
X13853515Y-15994499D01*
X13853515Y-15994499D02*
X13843991Y-15975451D01*
X13843991Y-15975451D02*
X13843991Y-15804023D01*
X14024944Y-15994499D02*
X14005896Y-16004023D01*
X14005896Y-16004023D02*
X13967801Y-16004023D01*
X13967801Y-16004023D02*
X13948753Y-15994499D01*
X13948753Y-15994499D02*
X13939230Y-15975451D01*
X13939230Y-15975451D02*
X13939230Y-15899261D01*
X13939230Y-15899261D02*
X13948753Y-15880213D01*
X13948753Y-15880213D02*
X13967801Y-15870689D01*
X13967801Y-15870689D02*
X14005896Y-15870689D01*
X14005896Y-15870689D02*
X14024944Y-15880213D01*
X14024944Y-15880213D02*
X14034468Y-15899261D01*
X14034468Y-15899261D02*
X14034468Y-15918309D01*
X14034468Y-15918309D02*
X13939230Y-15937356D01*
X14110658Y-15994499D02*
X14129706Y-16004023D01*
X14129706Y-16004023D02*
X14167801Y-16004023D01*
X14167801Y-16004023D02*
X14186849Y-15994499D01*
X14186849Y-15994499D02*
X14196372Y-15975451D01*
X14196372Y-15975451D02*
X14196372Y-15965928D01*
X14196372Y-15965928D02*
X14186849Y-15946880D01*
X14186849Y-15946880D02*
X14167801Y-15937356D01*
X14167801Y-15937356D02*
X14139230Y-15937356D01*
X14139230Y-15937356D02*
X14120182Y-15927832D01*
X14120182Y-15927832D02*
X14110658Y-15908785D01*
X14110658Y-15908785D02*
X14110658Y-15899261D01*
X14110658Y-15899261D02*
X14120182Y-15880213D01*
X14120182Y-15880213D02*
X14139230Y-15870689D01*
X14139230Y-15870689D02*
X14167801Y-15870689D01*
X14167801Y-15870689D02*
X14186849Y-15880213D01*
X14263039Y-16080213D02*
X14272563Y-16070689D01*
X14272563Y-16070689D02*
X14291611Y-16042118D01*
X14291611Y-16042118D02*
X14301134Y-16023070D01*
X14301134Y-16023070D02*
X14310658Y-15994499D01*
X14310658Y-15994499D02*
X14320182Y-15946880D01*
X14320182Y-15946880D02*
X14320182Y-15908785D01*
X14320182Y-15908785D02*
X14310658Y-15861166D01*
X14310658Y-15861166D02*
X14301134Y-15832594D01*
X14301134Y-15832594D02*
X14291611Y-15813547D01*
X14291611Y-15813547D02*
X14272563Y-15784975D01*
X14272563Y-15784975D02*
X14263039Y-15775451D01*
D14*
X9117500Y-16086539D02*
X9297500Y-16266539D01*
X9297500Y-16086539D02*
X9117500Y-16266539D01*
X9207500Y-16086539D02*
X9207500Y-16266539D01*
X9117500Y-16176539D02*
X9297500Y-16176539D01*
D11*
X9663039Y-16268023D02*
X9548753Y-16268023D01*
X9605896Y-16268023D02*
X9605896Y-16068023D01*
X9605896Y-16068023D02*
X9586848Y-16096594D01*
X9586848Y-16096594D02*
X9567801Y-16115642D01*
X9567801Y-16115642D02*
X9548753Y-16125166D01*
X9748753Y-16248975D02*
X9758277Y-16258499D01*
X9758277Y-16258499D02*
X9748753Y-16268023D01*
X9748753Y-16268023D02*
X9739229Y-16258499D01*
X9739229Y-16258499D02*
X9748753Y-16248975D01*
X9748753Y-16248975D02*
X9748753Y-16268023D01*
X9872563Y-16153737D02*
X9853515Y-16144213D01*
X9853515Y-16144213D02*
X9843991Y-16134689D01*
X9843991Y-16134689D02*
X9834467Y-16115642D01*
X9834467Y-16115642D02*
X9834467Y-16106118D01*
X9834467Y-16106118D02*
X9843991Y-16087070D01*
X9843991Y-16087070D02*
X9853515Y-16077547D01*
X9853515Y-16077547D02*
X9872563Y-16068023D01*
X9872563Y-16068023D02*
X9910658Y-16068023D01*
X9910658Y-16068023D02*
X9929705Y-16077547D01*
X9929705Y-16077547D02*
X9939229Y-16087070D01*
X9939229Y-16087070D02*
X9948753Y-16106118D01*
X9948753Y-16106118D02*
X9948753Y-16115642D01*
X9948753Y-16115642D02*
X9939229Y-16134689D01*
X9939229Y-16134689D02*
X9929705Y-16144213D01*
X9929705Y-16144213D02*
X9910658Y-16153737D01*
X9910658Y-16153737D02*
X9872563Y-16153737D01*
X9872563Y-16153737D02*
X9853515Y-16163261D01*
X9853515Y-16163261D02*
X9843991Y-16172785D01*
X9843991Y-16172785D02*
X9834467Y-16191832D01*
X9834467Y-16191832D02*
X9834467Y-16229928D01*
X9834467Y-16229928D02*
X9843991Y-16248975D01*
X9843991Y-16248975D02*
X9853515Y-16258499D01*
X9853515Y-16258499D02*
X9872563Y-16268023D01*
X9872563Y-16268023D02*
X9910658Y-16268023D01*
X9910658Y-16268023D02*
X9929705Y-16258499D01*
X9929705Y-16258499D02*
X9939229Y-16248975D01*
X9939229Y-16248975D02*
X9948753Y-16229928D01*
X9948753Y-16229928D02*
X9948753Y-16191832D01*
X9948753Y-16191832D02*
X9939229Y-16172785D01*
X9939229Y-16172785D02*
X9929705Y-16163261D01*
X9929705Y-16163261D02*
X9910658Y-16153737D01*
X10072563Y-16068023D02*
X10091610Y-16068023D01*
X10091610Y-16068023D02*
X10110658Y-16077547D01*
X10110658Y-16077547D02*
X10120182Y-16087070D01*
X10120182Y-16087070D02*
X10129705Y-16106118D01*
X10129705Y-16106118D02*
X10139229Y-16144213D01*
X10139229Y-16144213D02*
X10139229Y-16191832D01*
X10139229Y-16191832D02*
X10129705Y-16229928D01*
X10129705Y-16229928D02*
X10120182Y-16248975D01*
X10120182Y-16248975D02*
X10110658Y-16258499D01*
X10110658Y-16258499D02*
X10091610Y-16268023D01*
X10091610Y-16268023D02*
X10072563Y-16268023D01*
X10072563Y-16268023D02*
X10053515Y-16258499D01*
X10053515Y-16258499D02*
X10043991Y-16248975D01*
X10043991Y-16248975D02*
X10034467Y-16229928D01*
X10034467Y-16229928D02*
X10024944Y-16191832D01*
X10024944Y-16191832D02*
X10024944Y-16144213D01*
X10024944Y-16144213D02*
X10034467Y-16106118D01*
X10034467Y-16106118D02*
X10043991Y-16087070D01*
X10043991Y-16087070D02*
X10053515Y-16077547D01*
X10053515Y-16077547D02*
X10072563Y-16068023D01*
X10263039Y-16068023D02*
X10282086Y-16068023D01*
X10282086Y-16068023D02*
X10301134Y-16077547D01*
X10301134Y-16077547D02*
X10310658Y-16087070D01*
X10310658Y-16087070D02*
X10320182Y-16106118D01*
X10320182Y-16106118D02*
X10329705Y-16144213D01*
X10329705Y-16144213D02*
X10329705Y-16191832D01*
X10329705Y-16191832D02*
X10320182Y-16229928D01*
X10320182Y-16229928D02*
X10310658Y-16248975D01*
X10310658Y-16248975D02*
X10301134Y-16258499D01*
X10301134Y-16258499D02*
X10282086Y-16268023D01*
X10282086Y-16268023D02*
X10263039Y-16268023D01*
X10263039Y-16268023D02*
X10243991Y-16258499D01*
X10243991Y-16258499D02*
X10234467Y-16248975D01*
X10234467Y-16248975D02*
X10224944Y-16229928D01*
X10224944Y-16229928D02*
X10215420Y-16191832D01*
X10215420Y-16191832D02*
X10215420Y-16144213D01*
X10215420Y-16144213D02*
X10224944Y-16106118D01*
X10224944Y-16106118D02*
X10234467Y-16087070D01*
X10234467Y-16087070D02*
X10243991Y-16077547D01*
X10243991Y-16077547D02*
X10263039Y-16068023D01*
X10415420Y-16268023D02*
X10415420Y-16134689D01*
X10415420Y-16153737D02*
X10424944Y-16144213D01*
X10424944Y-16144213D02*
X10443991Y-16134689D01*
X10443991Y-16134689D02*
X10472563Y-16134689D01*
X10472563Y-16134689D02*
X10491610Y-16144213D01*
X10491610Y-16144213D02*
X10501134Y-16163261D01*
X10501134Y-16163261D02*
X10501134Y-16268023D01*
X10501134Y-16163261D02*
X10510658Y-16144213D01*
X10510658Y-16144213D02*
X10529705Y-16134689D01*
X10529705Y-16134689D02*
X10558277Y-16134689D01*
X10558277Y-16134689D02*
X10577325Y-16144213D01*
X10577325Y-16144213D02*
X10586848Y-16163261D01*
X10586848Y-16163261D02*
X10586848Y-16268023D01*
X10682086Y-16268023D02*
X10682086Y-16134689D01*
X10682086Y-16153737D02*
X10691610Y-16144213D01*
X10691610Y-16144213D02*
X10710658Y-16134689D01*
X10710658Y-16134689D02*
X10739229Y-16134689D01*
X10739229Y-16134689D02*
X10758277Y-16144213D01*
X10758277Y-16144213D02*
X10767801Y-16163261D01*
X10767801Y-16163261D02*
X10767801Y-16268023D01*
X10767801Y-16163261D02*
X10777325Y-16144213D01*
X10777325Y-16144213D02*
X10796372Y-16134689D01*
X10796372Y-16134689D02*
X10824944Y-16134689D01*
X10824944Y-16134689D02*
X10843991Y-16144213D01*
X10843991Y-16144213D02*
X10853515Y-16163261D01*
X10853515Y-16163261D02*
X10853515Y-16268023D01*
X11243991Y-16058499D02*
X11072563Y-16315642D01*
X11501134Y-16068023D02*
X11520182Y-16068023D01*
X11520182Y-16068023D02*
X11539229Y-16077547D01*
X11539229Y-16077547D02*
X11548753Y-16087070D01*
X11548753Y-16087070D02*
X11558277Y-16106118D01*
X11558277Y-16106118D02*
X11567801Y-16144213D01*
X11567801Y-16144213D02*
X11567801Y-16191832D01*
X11567801Y-16191832D02*
X11558277Y-16229928D01*
X11558277Y-16229928D02*
X11548753Y-16248975D01*
X11548753Y-16248975D02*
X11539229Y-16258499D01*
X11539229Y-16258499D02*
X11520182Y-16268023D01*
X11520182Y-16268023D02*
X11501134Y-16268023D01*
X11501134Y-16268023D02*
X11482086Y-16258499D01*
X11482086Y-16258499D02*
X11472563Y-16248975D01*
X11472563Y-16248975D02*
X11463039Y-16229928D01*
X11463039Y-16229928D02*
X11453515Y-16191832D01*
X11453515Y-16191832D02*
X11453515Y-16144213D01*
X11453515Y-16144213D02*
X11463039Y-16106118D01*
X11463039Y-16106118D02*
X11472563Y-16087070D01*
X11472563Y-16087070D02*
X11482086Y-16077547D01*
X11482086Y-16077547D02*
X11501134Y-16068023D01*
X11653515Y-16248975D02*
X11663039Y-16258499D01*
X11663039Y-16258499D02*
X11653515Y-16268023D01*
X11653515Y-16268023D02*
X11643991Y-16258499D01*
X11643991Y-16258499D02*
X11653515Y-16248975D01*
X11653515Y-16248975D02*
X11653515Y-16268023D01*
X11786848Y-16068023D02*
X11805896Y-16068023D01*
X11805896Y-16068023D02*
X11824944Y-16077547D01*
X11824944Y-16077547D02*
X11834467Y-16087070D01*
X11834467Y-16087070D02*
X11843991Y-16106118D01*
X11843991Y-16106118D02*
X11853515Y-16144213D01*
X11853515Y-16144213D02*
X11853515Y-16191832D01*
X11853515Y-16191832D02*
X11843991Y-16229928D01*
X11843991Y-16229928D02*
X11834467Y-16248975D01*
X11834467Y-16248975D02*
X11824944Y-16258499D01*
X11824944Y-16258499D02*
X11805896Y-16268023D01*
X11805896Y-16268023D02*
X11786848Y-16268023D01*
X11786848Y-16268023D02*
X11767801Y-16258499D01*
X11767801Y-16258499D02*
X11758277Y-16248975D01*
X11758277Y-16248975D02*
X11748753Y-16229928D01*
X11748753Y-16229928D02*
X11739229Y-16191832D01*
X11739229Y-16191832D02*
X11739229Y-16144213D01*
X11739229Y-16144213D02*
X11748753Y-16106118D01*
X11748753Y-16106118D02*
X11758277Y-16087070D01*
X11758277Y-16087070D02*
X11767801Y-16077547D01*
X11767801Y-16077547D02*
X11786848Y-16068023D01*
X11920182Y-16068023D02*
X12053515Y-16068023D01*
X12053515Y-16068023D02*
X11967801Y-16268023D01*
X12167801Y-16068023D02*
X12186848Y-16068023D01*
X12186848Y-16068023D02*
X12205896Y-16077547D01*
X12205896Y-16077547D02*
X12215420Y-16087070D01*
X12215420Y-16087070D02*
X12224944Y-16106118D01*
X12224944Y-16106118D02*
X12234467Y-16144213D01*
X12234467Y-16144213D02*
X12234467Y-16191832D01*
X12234467Y-16191832D02*
X12224944Y-16229928D01*
X12224944Y-16229928D02*
X12215420Y-16248975D01*
X12215420Y-16248975D02*
X12205896Y-16258499D01*
X12205896Y-16258499D02*
X12186848Y-16268023D01*
X12186848Y-16268023D02*
X12167801Y-16268023D01*
X12167801Y-16268023D02*
X12148753Y-16258499D01*
X12148753Y-16258499D02*
X12139229Y-16248975D01*
X12139229Y-16248975D02*
X12129706Y-16229928D01*
X12129706Y-16229928D02*
X12120182Y-16191832D01*
X12120182Y-16191832D02*
X12120182Y-16144213D01*
X12120182Y-16144213D02*
X12129706Y-16106118D01*
X12129706Y-16106118D02*
X12139229Y-16087070D01*
X12139229Y-16087070D02*
X12148753Y-16077547D01*
X12148753Y-16077547D02*
X12167801Y-16068023D01*
X12329706Y-16268023D02*
X12367801Y-16268023D01*
X12367801Y-16268023D02*
X12386848Y-16258499D01*
X12386848Y-16258499D02*
X12396372Y-16248975D01*
X12396372Y-16248975D02*
X12415420Y-16220404D01*
X12415420Y-16220404D02*
X12424944Y-16182309D01*
X12424944Y-16182309D02*
X12424944Y-16106118D01*
X12424944Y-16106118D02*
X12415420Y-16087070D01*
X12415420Y-16087070D02*
X12405896Y-16077547D01*
X12405896Y-16077547D02*
X12386848Y-16068023D01*
X12386848Y-16068023D02*
X12348753Y-16068023D01*
X12348753Y-16068023D02*
X12329706Y-16077547D01*
X12329706Y-16077547D02*
X12320182Y-16087070D01*
X12320182Y-16087070D02*
X12310658Y-16106118D01*
X12310658Y-16106118D02*
X12310658Y-16153737D01*
X12310658Y-16153737D02*
X12320182Y-16172785D01*
X12320182Y-16172785D02*
X12329706Y-16182309D01*
X12329706Y-16182309D02*
X12348753Y-16191832D01*
X12348753Y-16191832D02*
X12386848Y-16191832D01*
X12386848Y-16191832D02*
X12405896Y-16182309D01*
X12405896Y-16182309D02*
X12415420Y-16172785D01*
X12415420Y-16172785D02*
X12424944Y-16153737D01*
X12501134Y-16068023D02*
X12501134Y-16106118D01*
X12577325Y-16068023D02*
X12577325Y-16106118D01*
X12872563Y-16344213D02*
X12863039Y-16334689D01*
X12863039Y-16334689D02*
X12843991Y-16306118D01*
X12843991Y-16306118D02*
X12834468Y-16287070D01*
X12834468Y-16287070D02*
X12824944Y-16258499D01*
X12824944Y-16258499D02*
X12815420Y-16210880D01*
X12815420Y-16210880D02*
X12815420Y-16172785D01*
X12815420Y-16172785D02*
X12824944Y-16125166D01*
X12824944Y-16125166D02*
X12834468Y-16096594D01*
X12834468Y-16096594D02*
X12843991Y-16077547D01*
X12843991Y-16077547D02*
X12863039Y-16048975D01*
X12863039Y-16048975D02*
X12872563Y-16039451D01*
X12977325Y-16153737D02*
X12958277Y-16144213D01*
X12958277Y-16144213D02*
X12948753Y-16134689D01*
X12948753Y-16134689D02*
X12939229Y-16115642D01*
X12939229Y-16115642D02*
X12939229Y-16106118D01*
X12939229Y-16106118D02*
X12948753Y-16087070D01*
X12948753Y-16087070D02*
X12958277Y-16077547D01*
X12958277Y-16077547D02*
X12977325Y-16068023D01*
X12977325Y-16068023D02*
X13015420Y-16068023D01*
X13015420Y-16068023D02*
X13034468Y-16077547D01*
X13034468Y-16077547D02*
X13043991Y-16087070D01*
X13043991Y-16087070D02*
X13053515Y-16106118D01*
X13053515Y-16106118D02*
X13053515Y-16115642D01*
X13053515Y-16115642D02*
X13043991Y-16134689D01*
X13043991Y-16134689D02*
X13034468Y-16144213D01*
X13034468Y-16144213D02*
X13015420Y-16153737D01*
X13015420Y-16153737D02*
X12977325Y-16153737D01*
X12977325Y-16153737D02*
X12958277Y-16163261D01*
X12958277Y-16163261D02*
X12948753Y-16172785D01*
X12948753Y-16172785D02*
X12939229Y-16191832D01*
X12939229Y-16191832D02*
X12939229Y-16229928D01*
X12939229Y-16229928D02*
X12948753Y-16248975D01*
X12948753Y-16248975D02*
X12958277Y-16258499D01*
X12958277Y-16258499D02*
X12977325Y-16268023D01*
X12977325Y-16268023D02*
X13015420Y-16268023D01*
X13015420Y-16268023D02*
X13034468Y-16258499D01*
X13034468Y-16258499D02*
X13043991Y-16248975D01*
X13043991Y-16248975D02*
X13053515Y-16229928D01*
X13053515Y-16229928D02*
X13053515Y-16191832D01*
X13053515Y-16191832D02*
X13043991Y-16172785D01*
X13043991Y-16172785D02*
X13034468Y-16163261D01*
X13034468Y-16163261D02*
X13015420Y-16153737D01*
X13291610Y-16268023D02*
X13291610Y-16068023D01*
X13377325Y-16268023D02*
X13377325Y-16163261D01*
X13377325Y-16163261D02*
X13367801Y-16144213D01*
X13367801Y-16144213D02*
X13348753Y-16134689D01*
X13348753Y-16134689D02*
X13320182Y-16134689D01*
X13320182Y-16134689D02*
X13301134Y-16144213D01*
X13301134Y-16144213D02*
X13291610Y-16153737D01*
X13501134Y-16268023D02*
X13482087Y-16258499D01*
X13482087Y-16258499D02*
X13472563Y-16248975D01*
X13472563Y-16248975D02*
X13463039Y-16229928D01*
X13463039Y-16229928D02*
X13463039Y-16172785D01*
X13463039Y-16172785D02*
X13472563Y-16153737D01*
X13472563Y-16153737D02*
X13482087Y-16144213D01*
X13482087Y-16144213D02*
X13501134Y-16134689D01*
X13501134Y-16134689D02*
X13529706Y-16134689D01*
X13529706Y-16134689D02*
X13548753Y-16144213D01*
X13548753Y-16144213D02*
X13558277Y-16153737D01*
X13558277Y-16153737D02*
X13567801Y-16172785D01*
X13567801Y-16172785D02*
X13567801Y-16229928D01*
X13567801Y-16229928D02*
X13558277Y-16248975D01*
X13558277Y-16248975D02*
X13548753Y-16258499D01*
X13548753Y-16258499D02*
X13529706Y-16268023D01*
X13529706Y-16268023D02*
X13501134Y-16268023D01*
X13682087Y-16268023D02*
X13663039Y-16258499D01*
X13663039Y-16258499D02*
X13653515Y-16239451D01*
X13653515Y-16239451D02*
X13653515Y-16068023D01*
X13834468Y-16258499D02*
X13815420Y-16268023D01*
X13815420Y-16268023D02*
X13777325Y-16268023D01*
X13777325Y-16268023D02*
X13758277Y-16258499D01*
X13758277Y-16258499D02*
X13748753Y-16239451D01*
X13748753Y-16239451D02*
X13748753Y-16163261D01*
X13748753Y-16163261D02*
X13758277Y-16144213D01*
X13758277Y-16144213D02*
X13777325Y-16134689D01*
X13777325Y-16134689D02*
X13815420Y-16134689D01*
X13815420Y-16134689D02*
X13834468Y-16144213D01*
X13834468Y-16144213D02*
X13843991Y-16163261D01*
X13843991Y-16163261D02*
X13843991Y-16182309D01*
X13843991Y-16182309D02*
X13748753Y-16201356D01*
X13920182Y-16258499D02*
X13939230Y-16268023D01*
X13939230Y-16268023D02*
X13977325Y-16268023D01*
X13977325Y-16268023D02*
X13996372Y-16258499D01*
X13996372Y-16258499D02*
X14005896Y-16239451D01*
X14005896Y-16239451D02*
X14005896Y-16229928D01*
X14005896Y-16229928D02*
X13996372Y-16210880D01*
X13996372Y-16210880D02*
X13977325Y-16201356D01*
X13977325Y-16201356D02*
X13948753Y-16201356D01*
X13948753Y-16201356D02*
X13929706Y-16191832D01*
X13929706Y-16191832D02*
X13920182Y-16172785D01*
X13920182Y-16172785D02*
X13920182Y-16163261D01*
X13920182Y-16163261D02*
X13929706Y-16144213D01*
X13929706Y-16144213D02*
X13948753Y-16134689D01*
X13948753Y-16134689D02*
X13977325Y-16134689D01*
X13977325Y-16134689D02*
X13996372Y-16144213D01*
X14072563Y-16344213D02*
X14082087Y-16334689D01*
X14082087Y-16334689D02*
X14101134Y-16306118D01*
X14101134Y-16306118D02*
X14110658Y-16287070D01*
X14110658Y-16287070D02*
X14120182Y-16258499D01*
X14120182Y-16258499D02*
X14129706Y-16210880D01*
X14129706Y-16210880D02*
X14129706Y-16172785D01*
X14129706Y-16172785D02*
X14120182Y-16125166D01*
X14120182Y-16125166D02*
X14110658Y-16096594D01*
X14110658Y-16096594D02*
X14101134Y-16077547D01*
X14101134Y-16077547D02*
X14082087Y-16048975D01*
X14082087Y-16048975D02*
X14072563Y-16039451D01*
M02*
