%TF.GenerationSoftware,KiCad,Pcbnew,9.0.3+1*%
%TF.CreationDate,2025-08-21T21:39:02+01:00*%
%TF.ProjectId,Elytra,456c7974-7261-42e6-9b69-6361645f7063,rev?*%
%TF.SameCoordinates,Original*%
%TF.FileFunction,Legend,Top*%
%TF.FilePolarity,Positive*%
%FSLAX46Y46*%
G04 Gerber Fmt 4.6, Leading zero omitted, Abs format (unit mm)*
G04 Created by KiCad (PCBNEW 9.0.3+1) date 2025-08-21 21:39:02*
%MOMM*%
%LPD*%
G01*
G04 APERTURE LIST*
%ADD10C,0.300000*%
%ADD11C,0.200000*%
%ADD12C,0.150000*%
%ADD13C,0.127000*%
%ADD14C,0.152400*%
%ADD15C,0.120000*%
%ADD16C,0.160000*%
%ADD17C,0.100000*%
%ADD18C,0.050000*%
%ADD19C,0.000000*%
%ADD20C,0.250000*%
G04 APERTURE END LIST*
D10*
X122325000Y-120575000D02*
X122325000Y-123275000D01*
X119625000Y-120575000D02*
X122325000Y-120575000D01*
X122325000Y-123275000D02*
X119625000Y-123275000D01*
X119625000Y-123275000D02*
X119625000Y-120575000D01*
D11*
X141350000Y-99674999D02*
X144100000Y-99674999D01*
X144100000Y-102424999D01*
X141350000Y-102424999D01*
X141350000Y-99674999D01*
X119600000Y-115275000D02*
X122350000Y-115275000D01*
X122350000Y-118025000D01*
X119600000Y-118025000D01*
X119600000Y-115275000D01*
X172250000Y-119325000D02*
X175900000Y-119325000D01*
X175900000Y-122975000D01*
X172250000Y-122975000D01*
X172250000Y-119325000D01*
G36*
X153128410Y-84310041D02*
G01*
X153838180Y-84310041D01*
X153838180Y-84509344D01*
X153391399Y-84509344D01*
X153391399Y-84696922D01*
X153811557Y-84696922D01*
X153811557Y-84896224D01*
X153391399Y-84896224D01*
X153391399Y-85330000D01*
X153128410Y-85330000D01*
X153128410Y-84310041D01*
G37*
G36*
X154083888Y-84310041D02*
G01*
X154346877Y-84310041D01*
X154346877Y-85330000D01*
X154083888Y-85330000D01*
X154083888Y-84310041D01*
G37*
G36*
X154604614Y-84310041D02*
G01*
X154867602Y-84310041D01*
X154867602Y-85130697D01*
X155329405Y-85130697D01*
X155329405Y-85330000D01*
X154604614Y-85330000D01*
X154604614Y-84310041D01*
G37*
G36*
X155496589Y-84310041D02*
G01*
X155759577Y-84310041D01*
X155759577Y-85130697D01*
X156221379Y-85130697D01*
X156221379Y-85330000D01*
X155496589Y-85330000D01*
X155496589Y-84310041D01*
G37*
G36*
X157380539Y-84315157D02*
G01*
X157465572Y-84328852D01*
X157529888Y-84349045D01*
X157577660Y-84374277D01*
X157618418Y-84410129D01*
X157647783Y-84454937D01*
X157666314Y-84510586D01*
X157672976Y-84579991D01*
X157668851Y-84628605D01*
X157657084Y-84670446D01*
X157638110Y-84706753D01*
X157611920Y-84738113D01*
X157578614Y-84763901D01*
X157537055Y-84784300D01*
X157590164Y-84805814D01*
X157633393Y-84835977D01*
X157668213Y-84875158D01*
X157693492Y-84921353D01*
X157709173Y-84974962D01*
X157714680Y-85037702D01*
X157707802Y-85109991D01*
X157688518Y-85169092D01*
X157657753Y-85217715D01*
X157614907Y-85257643D01*
X157564354Y-85286733D01*
X157499251Y-85309411D01*
X157416294Y-85324463D01*
X157311618Y-85330000D01*
X156875095Y-85330000D01*
X156875095Y-85150237D01*
X157138084Y-85150237D01*
X157292506Y-85150237D01*
X157344433Y-85145932D01*
X157383142Y-85134401D01*
X157411697Y-85116959D01*
X157433234Y-85092086D01*
X157446767Y-85059376D01*
X157451692Y-85016331D01*
X157446830Y-84974215D01*
X157433440Y-84942062D01*
X157412063Y-84917473D01*
X157383711Y-84900238D01*
X157344924Y-84888791D01*
X157292506Y-84884501D01*
X157138084Y-84884501D01*
X157138084Y-85150237D01*
X156875095Y-85150237D01*
X156875095Y-84704738D01*
X157138084Y-84704738D01*
X157283592Y-84704738D01*
X157324225Y-84701260D01*
X157354894Y-84691880D01*
X157377869Y-84677566D01*
X157395230Y-84657339D01*
X157406068Y-84631191D01*
X157409987Y-84597271D01*
X157406092Y-84563797D01*
X157395274Y-84537737D01*
X157377869Y-84517342D01*
X157354864Y-84502821D01*
X157324193Y-84493323D01*
X157283592Y-84489804D01*
X157138084Y-84489804D01*
X157138084Y-84704738D01*
X156875095Y-84704738D01*
X156875095Y-84310041D01*
X157269975Y-84310041D01*
X157380539Y-84315157D01*
G37*
G36*
X158889427Y-85330000D02*
G01*
X158625095Y-85330000D01*
X158560860Y-85142421D01*
X158149616Y-85142421D01*
X158084708Y-85330000D01*
X157820376Y-85330000D01*
X157959331Y-84954842D01*
X158215195Y-84954842D01*
X158494609Y-84954842D01*
X158355268Y-84549094D01*
X158215195Y-84954842D01*
X157959331Y-84954842D01*
X158198159Y-84310041D01*
X158511706Y-84310041D01*
X158889427Y-85330000D01*
G37*
G36*
X158794417Y-84310041D02*
G01*
X159734385Y-84310041D01*
X159734385Y-84509344D01*
X159396231Y-84509344D01*
X159396231Y-85330000D01*
X159133243Y-85330000D01*
X159133243Y-84509344D01*
X158794417Y-84509344D01*
X158794417Y-84310041D01*
G37*
G36*
X90980000Y-74938442D02*
G01*
X90792421Y-75002677D01*
X90792421Y-75413921D01*
X90980000Y-75478829D01*
X90980000Y-75743161D01*
X89960041Y-75365378D01*
X89960041Y-75208269D01*
X90199094Y-75208269D01*
X90604842Y-75348342D01*
X90604842Y-75068928D01*
X90199094Y-75208269D01*
X89960041Y-75208269D01*
X89960041Y-75051831D01*
X90980000Y-74674110D01*
X90980000Y-74938442D01*
G37*
G36*
X89960041Y-74581114D02*
G01*
X89960041Y-74318126D01*
X90572602Y-74318126D01*
X90656718Y-74312422D01*
X90714805Y-74297755D01*
X90753647Y-74276788D01*
X90782696Y-74245297D01*
X90801202Y-74201721D01*
X90808053Y-74141905D01*
X90804097Y-74094913D01*
X90793242Y-74057936D01*
X90776406Y-74028891D01*
X90753647Y-74006289D01*
X90714805Y-73985322D01*
X90656718Y-73970655D01*
X90572602Y-73964951D01*
X89960041Y-73964951D01*
X89960041Y-73701901D01*
X90572602Y-73701901D01*
X90661305Y-73707043D01*
X90735782Y-73721420D01*
X90798222Y-73743820D01*
X90850485Y-73773560D01*
X90894026Y-73810528D01*
X90929676Y-73854958D01*
X90958547Y-73908555D01*
X90980408Y-73972881D01*
X90994491Y-74049887D01*
X90999539Y-74141844D01*
X90994497Y-74233486D01*
X90980427Y-74310286D01*
X90958574Y-74374496D01*
X90929698Y-74428047D01*
X90894026Y-74472487D01*
X90850485Y-74509455D01*
X90798222Y-74539195D01*
X90735782Y-74561596D01*
X90661305Y-74575972D01*
X90572602Y-74581114D01*
X89960041Y-74581114D01*
G37*
G36*
X90459457Y-72876543D02*
G01*
X90980000Y-72522697D01*
X90980000Y-72796615D01*
X90631587Y-73034996D01*
X90980000Y-73271362D01*
X90980000Y-73546685D01*
X90459457Y-73192838D01*
X89960041Y-73533007D01*
X89960041Y-73258356D01*
X90288670Y-73034996D01*
X89960041Y-72812308D01*
X89960041Y-72536313D01*
X90459457Y-72876543D01*
G37*
G36*
X90759991Y-71047082D02*
G01*
X90819092Y-71066366D01*
X90867715Y-71097131D01*
X90907643Y-71139977D01*
X90936733Y-71190530D01*
X90959411Y-71255633D01*
X90974463Y-71338590D01*
X90980000Y-71443265D01*
X90980000Y-71879788D01*
X89960041Y-71879788D01*
X89960041Y-71484909D01*
X89960671Y-71471292D01*
X90139804Y-71471292D01*
X90139804Y-71616800D01*
X90354738Y-71616800D01*
X90354738Y-71471292D01*
X90353975Y-71462377D01*
X90534501Y-71462377D01*
X90534501Y-71616800D01*
X90800237Y-71616800D01*
X90800237Y-71462377D01*
X90795932Y-71410451D01*
X90784401Y-71371742D01*
X90766959Y-71343187D01*
X90742086Y-71321649D01*
X90709376Y-71308117D01*
X90666331Y-71303192D01*
X90624215Y-71308054D01*
X90592062Y-71321444D01*
X90567473Y-71342821D01*
X90550238Y-71371173D01*
X90538791Y-71409959D01*
X90534501Y-71462377D01*
X90353975Y-71462377D01*
X90351260Y-71430659D01*
X90341880Y-71399990D01*
X90327566Y-71377015D01*
X90307339Y-71359654D01*
X90281191Y-71348816D01*
X90247271Y-71344897D01*
X90213797Y-71348791D01*
X90187737Y-71359610D01*
X90167342Y-71377015D01*
X90152821Y-71400020D01*
X90143323Y-71430691D01*
X90139804Y-71471292D01*
X89960671Y-71471292D01*
X89965157Y-71374345D01*
X89978852Y-71289312D01*
X89999045Y-71224996D01*
X90024277Y-71177224D01*
X90060129Y-71136466D01*
X90104937Y-71107101D01*
X90160586Y-71088569D01*
X90229991Y-71081908D01*
X90278605Y-71086033D01*
X90320446Y-71097800D01*
X90356753Y-71116774D01*
X90388113Y-71142964D01*
X90413901Y-71176270D01*
X90434300Y-71217829D01*
X90455814Y-71164720D01*
X90485977Y-71121491D01*
X90525158Y-71086671D01*
X90571353Y-71061392D01*
X90624962Y-71045711D01*
X90687702Y-71040204D01*
X90759991Y-71047082D01*
G37*
G36*
X90980000Y-70129788D02*
G01*
X90792421Y-70194024D01*
X90792421Y-70605268D01*
X90980000Y-70670176D01*
X90980000Y-70934508D01*
X89960041Y-70556725D01*
X89960041Y-70399616D01*
X90199094Y-70399616D01*
X90604842Y-70539689D01*
X90604842Y-70260275D01*
X90199094Y-70399616D01*
X89960041Y-70399616D01*
X89960041Y-70243178D01*
X90980000Y-69865457D01*
X90980000Y-70129788D01*
G37*
G36*
X89960041Y-69960467D02*
G01*
X89960041Y-69020498D01*
X90159344Y-69020498D01*
X90159344Y-69358653D01*
X90980000Y-69358653D01*
X90980000Y-69621641D01*
X90159344Y-69621641D01*
X90159344Y-69960467D01*
X89960041Y-69960467D01*
G37*
G36*
X119488948Y-119221329D02*
G01*
X119721222Y-119221329D01*
X119721222Y-118564804D01*
X119482780Y-118615607D01*
X119482780Y-118435844D01*
X119719818Y-118385041D01*
X119969862Y-118385041D01*
X119969862Y-119221329D01*
X120202137Y-119221329D01*
X120202137Y-119405000D01*
X119488948Y-119405000D01*
X119488948Y-119221329D01*
G37*
G36*
X121062787Y-119029842D02*
G01*
X121208295Y-119029842D01*
X121208295Y-119221329D01*
X121062787Y-119221329D01*
X121062787Y-119405000D01*
X120814087Y-119405000D01*
X120814087Y-119221329D01*
X120361871Y-119221329D01*
X120361871Y-119029842D01*
X120525819Y-119029842D01*
X120814087Y-119029842D01*
X120814087Y-118602051D01*
X120525819Y-119029842D01*
X120361871Y-119029842D01*
X120361871Y-118995282D01*
X120770368Y-118385041D01*
X121062787Y-118385041D01*
X121062787Y-119029842D01*
G37*
G36*
X121279919Y-118385041D02*
G01*
X121544251Y-118385041D01*
X121814811Y-119137859D01*
X122084638Y-118385041D01*
X122348970Y-118385041D01*
X121971249Y-119405000D01*
X121657702Y-119405000D01*
X121279919Y-118385041D01*
G37*
G36*
X173194505Y-123310041D02*
G01*
X173848221Y-123310041D01*
X173848221Y-123501528D01*
X173404187Y-123501528D01*
X173404187Y-123659309D01*
X173464637Y-123646669D01*
X173527835Y-123642212D01*
X173621270Y-123648838D01*
X173699092Y-123667379D01*
X173763996Y-123696476D01*
X173818118Y-123735696D01*
X173862627Y-123785684D01*
X173894778Y-123844485D01*
X173914876Y-123913855D01*
X173921982Y-123996242D01*
X173917083Y-124062092D01*
X173903050Y-124119783D01*
X173880453Y-124170649D01*
X173849272Y-124215738D01*
X173808898Y-124255750D01*
X173750464Y-124294900D01*
X173680292Y-124324139D01*
X173596090Y-124342844D01*
X173495046Y-124349539D01*
X173408744Y-124345417D01*
X173323282Y-124333053D01*
X173238925Y-124312483D01*
X173154205Y-124283105D01*
X173154205Y-124075987D01*
X173237468Y-124117929D01*
X173312352Y-124146329D01*
X173386509Y-124164160D01*
X173453402Y-124169776D01*
X173515533Y-124163996D01*
X173564810Y-124148013D01*
X173603978Y-124122882D01*
X173634276Y-124088348D01*
X173652571Y-124046742D01*
X173658994Y-123995875D01*
X173652544Y-123944572D01*
X173634227Y-123902892D01*
X173603978Y-123868564D01*
X173564834Y-123843606D01*
X173515556Y-123827722D01*
X173453402Y-123821974D01*
X173395944Y-123825427D01*
X173332441Y-123836324D01*
X173267608Y-123853979D01*
X173194505Y-123880593D01*
X173194505Y-123310041D01*
G37*
G36*
X174027129Y-123310041D02*
G01*
X174291461Y-123310041D01*
X174562021Y-124062859D01*
X174831848Y-123310041D01*
X175096180Y-123310041D01*
X174718458Y-124330000D01*
X174404911Y-124330000D01*
X174027129Y-123310041D01*
G37*
G36*
X89960041Y-88596589D02*
G01*
X89960041Y-88261854D01*
X90506352Y-88029579D01*
X89960041Y-87795961D01*
X89960041Y-87461898D01*
X90980000Y-87461898D01*
X90980000Y-87710598D01*
X90234204Y-87710598D01*
X90784605Y-87945560D01*
X90784605Y-88112255D01*
X90234204Y-88347217D01*
X90980000Y-88347217D01*
X90980000Y-88596589D01*
X89960041Y-88596589D01*
G37*
G36*
X90980000Y-86520280D02*
G01*
X90792421Y-86584516D01*
X90792421Y-86995760D01*
X90980000Y-87060668D01*
X90980000Y-87325000D01*
X89960041Y-86947217D01*
X89960041Y-86790108D01*
X90199094Y-86790108D01*
X90604842Y-86930181D01*
X90604842Y-86650767D01*
X90199094Y-86790108D01*
X89960041Y-86790108D01*
X89960041Y-86633670D01*
X90980000Y-86255949D01*
X90980000Y-86520280D01*
G37*
G36*
X89960041Y-86119966D02*
G01*
X89960041Y-85856978D01*
X90980000Y-85856978D01*
X90980000Y-86119966D01*
X89960041Y-86119966D01*
G37*
G36*
X89960041Y-85599241D02*
G01*
X89960041Y-85305478D01*
X90659614Y-84934534D01*
X89960041Y-84934534D01*
X89960041Y-84685223D01*
X90980000Y-84685223D01*
X90980000Y-84978925D01*
X90280427Y-85349869D01*
X90980000Y-85349869D01*
X90980000Y-85599241D01*
X89960041Y-85599241D01*
G37*
G36*
X90759991Y-83108614D02*
G01*
X90819092Y-83127897D01*
X90867715Y-83158663D01*
X90907643Y-83201509D01*
X90936733Y-83252062D01*
X90959411Y-83317165D01*
X90974463Y-83400122D01*
X90980000Y-83504797D01*
X90980000Y-83941320D01*
X89960041Y-83941320D01*
X89960041Y-83546441D01*
X89960671Y-83532824D01*
X90139804Y-83532824D01*
X90139804Y-83678332D01*
X90354738Y-83678332D01*
X90354738Y-83532824D01*
X90353975Y-83523909D01*
X90534501Y-83523909D01*
X90534501Y-83678332D01*
X90800237Y-83678332D01*
X90800237Y-83523909D01*
X90795932Y-83471983D01*
X90784401Y-83433274D01*
X90766959Y-83404719D01*
X90742086Y-83383181D01*
X90709376Y-83369649D01*
X90666331Y-83364724D01*
X90624215Y-83369585D01*
X90592062Y-83382976D01*
X90567473Y-83404352D01*
X90550238Y-83432705D01*
X90538791Y-83471491D01*
X90534501Y-83523909D01*
X90353975Y-83523909D01*
X90351260Y-83492191D01*
X90341880Y-83461522D01*
X90327566Y-83438546D01*
X90307339Y-83421186D01*
X90281191Y-83410348D01*
X90247271Y-83406428D01*
X90213797Y-83410323D01*
X90187737Y-83421142D01*
X90167342Y-83438546D01*
X90152821Y-83461552D01*
X90143323Y-83492222D01*
X90139804Y-83532824D01*
X89960671Y-83532824D01*
X89965157Y-83435877D01*
X89978852Y-83350844D01*
X89999045Y-83286527D01*
X90024277Y-83238756D01*
X90060129Y-83197997D01*
X90104937Y-83168632D01*
X90160586Y-83150101D01*
X90229991Y-83143440D01*
X90278605Y-83147564D01*
X90320446Y-83159331D01*
X90356753Y-83178306D01*
X90388113Y-83204496D01*
X90413901Y-83237802D01*
X90434300Y-83279361D01*
X90455814Y-83226251D01*
X90485977Y-83183023D01*
X90525158Y-83148203D01*
X90571353Y-83122924D01*
X90624962Y-83107243D01*
X90687702Y-83101735D01*
X90759991Y-83108614D01*
G37*
G36*
X90980000Y-82191320D02*
G01*
X90792421Y-82255556D01*
X90792421Y-82666800D01*
X90980000Y-82731707D01*
X90980000Y-82996039D01*
X89960041Y-82618257D01*
X89960041Y-82461147D01*
X90199094Y-82461147D01*
X90604842Y-82601221D01*
X90604842Y-82321807D01*
X90199094Y-82461147D01*
X89960041Y-82461147D01*
X89960041Y-82304710D01*
X90980000Y-81926988D01*
X90980000Y-82191320D01*
G37*
G36*
X89960041Y-82021999D02*
G01*
X89960041Y-81082030D01*
X90159344Y-81082030D01*
X90159344Y-81420184D01*
X90980000Y-81420184D01*
X90980000Y-81683173D01*
X90159344Y-81683173D01*
X90159344Y-82021999D01*
X89960041Y-82021999D01*
G37*
G36*
X122983205Y-121347050D02*
G01*
X124111167Y-121347050D01*
X124111167Y-121586212D01*
X123705382Y-121586212D01*
X123705382Y-122571000D01*
X123389796Y-122571000D01*
X123389796Y-121586212D01*
X122983205Y-121586212D01*
X122983205Y-121347050D01*
G37*
G36*
X124274493Y-121347050D02*
G01*
X125126216Y-121347050D01*
X125126216Y-121586212D01*
X124590079Y-121586212D01*
X124590079Y-121811307D01*
X125094269Y-121811307D01*
X125094269Y-122050469D01*
X124590079Y-122050469D01*
X124590079Y-122331837D01*
X125144241Y-122331837D01*
X125144241Y-122571000D01*
X124274493Y-122571000D01*
X124274493Y-121347050D01*
G37*
G36*
X126272790Y-121384565D02*
G01*
X126272790Y-121642486D01*
X126171816Y-121603277D01*
X126076052Y-121575881D01*
X125981149Y-121558805D01*
X125894922Y-121553386D01*
X125819368Y-121557608D01*
X125765288Y-121568582D01*
X125727640Y-121584307D01*
X125697532Y-121608752D01*
X125679802Y-121639972D01*
X125673564Y-121680221D01*
X125677786Y-121710928D01*
X125689847Y-121735805D01*
X125710054Y-121756279D01*
X125754884Y-121779221D01*
X125842458Y-121803027D01*
X125976841Y-121830064D01*
X126081490Y-121856307D01*
X126161941Y-121886493D01*
X126222538Y-121919586D01*
X126267001Y-121954995D01*
X126303404Y-121999358D01*
X126330127Y-122052578D01*
X126347057Y-122116451D01*
X126353097Y-122193351D01*
X126344579Y-122294125D01*
X126320907Y-122375720D01*
X126283726Y-122441922D01*
X126233003Y-122495455D01*
X126171313Y-122535626D01*
X126092369Y-122566575D01*
X125992237Y-122586970D01*
X125866199Y-122594447D01*
X125749911Y-122588911D01*
X125632532Y-122572172D01*
X125516030Y-122544794D01*
X125398132Y-122506300D01*
X125398132Y-122238048D01*
X125515657Y-122294105D01*
X125624765Y-122332789D01*
X125733774Y-122356920D01*
X125835864Y-122364663D01*
X125904278Y-122360146D01*
X125955797Y-122348089D01*
X125994060Y-122330152D01*
X126024881Y-122303452D01*
X126042813Y-122271163D01*
X126049015Y-122231380D01*
X126044556Y-122194667D01*
X126032061Y-122165645D01*
X126011719Y-122142500D01*
X125963970Y-122116017D01*
X125862902Y-122086519D01*
X125740756Y-122059482D01*
X125647799Y-122034539D01*
X125574086Y-122004849D01*
X125516468Y-121971275D01*
X125472284Y-121934258D01*
X125436051Y-121888898D01*
X125409752Y-121836189D01*
X125393306Y-121774711D01*
X125387507Y-121702570D01*
X125395585Y-121612846D01*
X125418385Y-121537928D01*
X125454871Y-121474933D01*
X125505550Y-121421861D01*
X125566473Y-121381242D01*
X125641320Y-121350582D01*
X125732957Y-121330759D01*
X125844876Y-121323602D01*
X125946293Y-121327351D01*
X126052239Y-121338843D01*
X126159398Y-121357628D01*
X126272790Y-121384565D01*
G37*
G36*
X126485061Y-121347050D02*
G01*
X127613024Y-121347050D01*
X127613024Y-121586212D01*
X127207239Y-121586212D01*
X127207239Y-122571000D01*
X126891652Y-122571000D01*
X126891652Y-121586212D01*
X126485061Y-121586212D01*
X126485061Y-121347050D01*
G37*
G36*
X127776349Y-121347050D02*
G01*
X128628072Y-121347050D01*
X128628072Y-121586212D01*
X128091935Y-121586212D01*
X128091935Y-121811307D01*
X128596126Y-121811307D01*
X128596126Y-122050469D01*
X128091935Y-122050469D01*
X128091935Y-122331837D01*
X128646098Y-122331837D01*
X128646098Y-122571000D01*
X127776349Y-122571000D01*
X127776349Y-121347050D01*
G37*
G36*
X129443478Y-121352559D02*
G01*
X129578047Y-121366825D01*
X129670965Y-121386837D01*
X129758391Y-121419823D01*
X129836005Y-121464655D01*
X129904999Y-121521659D01*
X129957777Y-121580076D01*
X130000205Y-121643559D01*
X130032860Y-121712681D01*
X130055612Y-121785956D01*
X130069778Y-121867269D01*
X130074698Y-121957779D01*
X130069763Y-122049430D01*
X130055583Y-122131432D01*
X130032860Y-122205002D01*
X130000187Y-122274359D01*
X129957755Y-122337961D01*
X129904999Y-122396390D01*
X129835430Y-122453369D01*
X129757114Y-122498235D01*
X129668840Y-122531286D01*
X129575243Y-122551320D01*
X129441168Y-122565531D01*
X129255728Y-122571000D01*
X128922922Y-122571000D01*
X128922922Y-122331837D01*
X129238509Y-122331837D01*
X129351642Y-122331837D01*
X129448820Y-122324950D01*
X129528487Y-122305814D01*
X129593772Y-122276005D01*
X129647151Y-122236069D01*
X129690213Y-122185182D01*
X129721884Y-122123460D01*
X129742013Y-122048657D01*
X129749220Y-121957779D01*
X129742033Y-121867298D01*
X129721969Y-121792916D01*
X129690413Y-121731626D01*
X129647518Y-121681174D01*
X129594409Y-121641652D01*
X129529195Y-121612087D01*
X129449338Y-121593068D01*
X129351642Y-121586212D01*
X129238509Y-121586212D01*
X129238509Y-122331837D01*
X128922922Y-122331837D01*
X128922922Y-121347050D01*
X129255728Y-121347050D01*
X129443478Y-121352559D01*
G37*
G36*
X145338424Y-100566319D02*
G01*
X145419125Y-100583711D01*
X145485089Y-100610616D01*
X145538825Y-100646259D01*
X145583613Y-100692870D01*
X145615802Y-100748059D01*
X145635887Y-100813551D01*
X145642995Y-100891845D01*
X145635875Y-100970536D01*
X145615771Y-101036275D01*
X145583579Y-101091589D01*
X145538825Y-101138225D01*
X145485093Y-101173841D01*
X145419131Y-101200728D01*
X145338429Y-101218108D01*
X145239933Y-101224382D01*
X145066399Y-101224382D01*
X145066399Y-101580000D01*
X144803410Y-101580000D01*
X144803410Y-101032896D01*
X145066399Y-101032896D01*
X145211906Y-101032896D01*
X145261655Y-101028299D01*
X145300214Y-101015719D01*
X145330059Y-100996137D01*
X145352720Y-100969063D01*
X145366742Y-100935005D01*
X145371763Y-100891845D01*
X145366735Y-100848737D01*
X145352709Y-100814832D01*
X145330059Y-100787981D01*
X145300238Y-100768573D01*
X145261680Y-100756091D01*
X145211906Y-100751528D01*
X145066399Y-100751528D01*
X145066399Y-101032896D01*
X144803410Y-101032896D01*
X144803410Y-100560041D01*
X145239933Y-100560041D01*
X145338424Y-100566319D01*
G37*
G36*
X146745996Y-101503429D02*
G01*
X146645648Y-101545521D01*
X146541748Y-101575542D01*
X146434651Y-101593485D01*
X146323150Y-101599539D01*
X146220283Y-101593187D01*
X146130145Y-101575064D01*
X146050916Y-101546157D01*
X145981064Y-101506874D01*
X145919417Y-101457023D01*
X145866836Y-101397339D01*
X145825765Y-101330095D01*
X145795755Y-101254220D01*
X145777034Y-101168248D01*
X145770490Y-101070387D01*
X145777172Y-100971396D01*
X145796261Y-100884769D01*
X145826819Y-100808622D01*
X145868609Y-100741417D01*
X145922103Y-100682041D01*
X145984619Y-100632814D01*
X146055963Y-100593829D01*
X146137415Y-100565012D01*
X146230615Y-100546876D01*
X146337500Y-100540502D01*
X146437945Y-100545389D01*
X146532527Y-100559736D01*
X146623618Y-100583755D01*
X146708443Y-100616706D01*
X146708443Y-100829685D01*
X146622108Y-100786189D01*
X146538695Y-100756229D01*
X146453866Y-100737996D01*
X146369617Y-100731988D01*
X146291441Y-100738140D01*
X146226539Y-100755382D01*
X146172485Y-100782597D01*
X146127451Y-100819672D01*
X146091748Y-100865709D01*
X146065304Y-100921426D01*
X146048436Y-100988804D01*
X146042393Y-101070387D01*
X146048221Y-101151364D01*
X146064496Y-101218425D01*
X146089991Y-101274015D01*
X146124337Y-101320064D01*
X146167983Y-101357443D01*
X146220112Y-101384722D01*
X146282439Y-101401929D01*
X146357283Y-101408053D01*
X146433426Y-101402984D01*
X146467486Y-101396233D01*
X146496624Y-101386926D01*
X146496624Y-101189211D01*
X146336095Y-101189211D01*
X146336095Y-101013356D01*
X146745996Y-101013356D01*
X146745996Y-101503429D01*
G37*
G36*
X147543313Y-100546804D02*
G01*
X147629752Y-100564743D01*
X147705250Y-100593307D01*
X147771382Y-100632102D01*
X147829335Y-100681369D01*
X147877967Y-100739774D01*
X147916338Y-100806488D01*
X147944635Y-100882719D01*
X147962423Y-100970053D01*
X147968675Y-101070387D01*
X147962432Y-101170384D01*
X147944659Y-101257500D01*
X147916373Y-101333612D01*
X147877996Y-101400291D01*
X147829335Y-101458733D01*
X147771386Y-101507976D01*
X147705255Y-101546754D01*
X147629757Y-101575307D01*
X147543316Y-101593240D01*
X147444042Y-101599539D01*
X147345114Y-101593251D01*
X147258859Y-101575340D01*
X147183412Y-101546801D01*
X147117220Y-101508015D01*
X147059115Y-101458733D01*
X147010312Y-101400272D01*
X146971834Y-101333581D01*
X146943479Y-101257469D01*
X146925666Y-101170363D01*
X146919408Y-101070387D01*
X147191311Y-101070387D01*
X147196133Y-101151663D01*
X147209518Y-101218772D01*
X147230223Y-101274032D01*
X147257562Y-101319392D01*
X147293960Y-101358097D01*
X147336279Y-101385395D01*
X147385689Y-101402171D01*
X147444042Y-101408053D01*
X147502788Y-101402157D01*
X147552434Y-101385359D01*
X147594859Y-101358056D01*
X147631254Y-101319392D01*
X147658593Y-101274032D01*
X147679298Y-101218772D01*
X147692683Y-101151663D01*
X147697505Y-101070387D01*
X147692673Y-100988699D01*
X147679274Y-100921366D01*
X147658567Y-100866031D01*
X147631254Y-100820710D01*
X147594855Y-100782016D01*
X147552428Y-100754695D01*
X147502784Y-100737887D01*
X147444042Y-100731988D01*
X147385693Y-100737873D01*
X147336285Y-100754659D01*
X147293964Y-100781976D01*
X147257562Y-100820710D01*
X147230249Y-100866031D01*
X147209542Y-100921366D01*
X147196143Y-100988699D01*
X147191311Y-101070387D01*
X146919408Y-101070387D01*
X146925674Y-100970074D01*
X146943503Y-100882750D01*
X146971868Y-100806519D01*
X147010341Y-100739794D01*
X147059115Y-100681369D01*
X147117223Y-100632063D01*
X147183417Y-100593260D01*
X147258864Y-100564710D01*
X147345117Y-100546792D01*
X147444042Y-100540502D01*
X147543313Y-100546804D01*
G37*
G36*
X148733264Y-100546804D02*
G01*
X148819703Y-100564743D01*
X148895201Y-100593307D01*
X148961334Y-100632102D01*
X149019286Y-100681369D01*
X149067918Y-100739774D01*
X149106290Y-100806488D01*
X149134586Y-100882719D01*
X149152375Y-100970053D01*
X149158627Y-101070387D01*
X149152383Y-101170384D01*
X149134610Y-101257500D01*
X149106324Y-101333612D01*
X149067948Y-101400291D01*
X149019286Y-101458733D01*
X148961337Y-101507976D01*
X148895206Y-101546754D01*
X148819708Y-101575307D01*
X148733267Y-101593240D01*
X148633993Y-101599539D01*
X148535065Y-101593251D01*
X148448810Y-101575340D01*
X148373363Y-101546801D01*
X148307171Y-101508015D01*
X148249066Y-101458733D01*
X148200263Y-101400272D01*
X148161785Y-101333581D01*
X148133430Y-101257469D01*
X148115617Y-101170363D01*
X148109359Y-101070387D01*
X148381263Y-101070387D01*
X148386085Y-101151663D01*
X148399470Y-101218772D01*
X148420174Y-101274032D01*
X148447513Y-101319392D01*
X148483911Y-101358097D01*
X148526230Y-101385395D01*
X148575640Y-101402171D01*
X148633993Y-101408053D01*
X148692740Y-101402157D01*
X148742385Y-101385359D01*
X148784810Y-101358056D01*
X148821205Y-101319392D01*
X148848544Y-101274032D01*
X148869249Y-101218772D01*
X148882634Y-101151663D01*
X148887456Y-101070387D01*
X148882624Y-100988699D01*
X148869225Y-100921366D01*
X148848519Y-100866031D01*
X148821205Y-100820710D01*
X148784806Y-100782016D01*
X148742379Y-100754695D01*
X148692736Y-100737887D01*
X148633993Y-100731988D01*
X148575644Y-100737873D01*
X148526236Y-100754659D01*
X148483915Y-100781976D01*
X148447513Y-100820710D01*
X148420200Y-100866031D01*
X148399494Y-100921366D01*
X148386094Y-100988699D01*
X148381263Y-101070387D01*
X148109359Y-101070387D01*
X148115625Y-100970074D01*
X148133454Y-100882750D01*
X148161819Y-100806519D01*
X148200292Y-100739794D01*
X148249066Y-100681369D01*
X148307174Y-100632063D01*
X148373368Y-100593260D01*
X148448815Y-100564710D01*
X148535069Y-100546792D01*
X148633993Y-100540502D01*
X148733264Y-100546804D01*
G37*
G36*
X149791847Y-100564633D02*
G01*
X149903988Y-100576520D01*
X149981420Y-100593197D01*
X150054275Y-100620686D01*
X150118953Y-100658046D01*
X150176448Y-100705549D01*
X150220429Y-100754230D01*
X150255786Y-100807133D01*
X150282998Y-100864734D01*
X150301959Y-100925797D01*
X150313764Y-100993557D01*
X150317864Y-101068982D01*
X150313751Y-101145358D01*
X150301935Y-101213693D01*
X150282998Y-101275001D01*
X150255771Y-101332799D01*
X150220411Y-101385800D01*
X150176448Y-101434492D01*
X150118474Y-101481974D01*
X150053210Y-101519362D01*
X149979649Y-101546905D01*
X149901651Y-101563600D01*
X149789922Y-101575443D01*
X149635389Y-101580000D01*
X149358051Y-101580000D01*
X149358051Y-101380697D01*
X149621039Y-101380697D01*
X149715317Y-101380697D01*
X149796299Y-101374958D01*
X149862688Y-101359011D01*
X149917092Y-101334171D01*
X149961575Y-101300891D01*
X149997460Y-101258485D01*
X150023852Y-101207050D01*
X150040626Y-101144714D01*
X150046632Y-101068982D01*
X150040643Y-100993581D01*
X150023923Y-100931597D01*
X149997626Y-100880522D01*
X149961880Y-100838478D01*
X149917623Y-100805543D01*
X149863278Y-100780906D01*
X149796731Y-100765056D01*
X149715317Y-100759344D01*
X149621039Y-100759344D01*
X149621039Y-101380697D01*
X149358051Y-101380697D01*
X149358051Y-100560041D01*
X149635389Y-100560041D01*
X149791847Y-100564633D01*
G37*
G36*
X125076893Y-102980041D02*
G01*
X125339882Y-102980041D01*
X125339882Y-103352390D01*
X125719008Y-102980041D01*
X126024372Y-102980041D01*
X125533261Y-103463032D01*
X126074931Y-104000000D01*
X125745691Y-104000000D01*
X125339882Y-103598281D01*
X125339882Y-104000000D01*
X125076893Y-104000000D01*
X125076893Y-102980041D01*
G37*
G36*
X126161331Y-102980041D02*
G01*
X126871101Y-102980041D01*
X126871101Y-103179344D01*
X126424320Y-103179344D01*
X126424320Y-103366922D01*
X126844479Y-103366922D01*
X126844479Y-103566224D01*
X126424320Y-103566224D01*
X126424320Y-103800697D01*
X126886122Y-103800697D01*
X126886122Y-104000000D01*
X126161331Y-104000000D01*
X126161331Y-102980041D01*
G37*
G36*
X126974721Y-102980041D02*
G01*
X127262317Y-102980041D01*
X127494592Y-103343475D01*
X127726867Y-102980041D01*
X128015135Y-102980041D01*
X127626422Y-103570315D01*
X127626422Y-104000000D01*
X127363434Y-104000000D01*
X127363434Y-103570315D01*
X126974721Y-102980041D01*
G37*
G36*
X122976723Y-104665302D02*
G01*
X123057965Y-104679490D01*
X123120497Y-104700641D01*
X123167952Y-104727452D01*
X123207915Y-104764675D01*
X123236896Y-104811123D01*
X123255256Y-104868772D01*
X123261864Y-104940554D01*
X123255982Y-105006131D01*
X123239428Y-105060538D01*
X123213015Y-105105968D01*
X123176599Y-105143965D01*
X123128357Y-105175811D01*
X123065859Y-105201284D01*
X123100147Y-105212821D01*
X123132214Y-105231282D01*
X123162518Y-105257337D01*
X123202703Y-105308070D01*
X123248919Y-105389656D01*
X123391679Y-105680000D01*
X123111593Y-105680000D01*
X122987274Y-105425987D01*
X122959454Y-105376061D01*
X122934170Y-105342410D01*
X122911131Y-105321207D01*
X122884035Y-105306200D01*
X122850311Y-105296592D01*
X122808305Y-105293119D01*
X122733811Y-105293119D01*
X122733811Y-105680000D01*
X122470822Y-105680000D01*
X122470822Y-105109448D01*
X122733811Y-105109448D01*
X122844514Y-105109448D01*
X122899067Y-105105333D01*
X122937126Y-105094663D01*
X122962972Y-105079162D01*
X122981910Y-105056376D01*
X122994248Y-105024224D01*
X122998875Y-104979450D01*
X122994246Y-104935194D01*
X122981913Y-104903536D01*
X122962972Y-104881203D01*
X122937181Y-104866037D01*
X122899126Y-104855570D01*
X122844514Y-104851528D01*
X122733811Y-104851528D01*
X122733811Y-105109448D01*
X122470822Y-105109448D01*
X122470822Y-104660041D01*
X122872541Y-104660041D01*
X122976723Y-104665302D01*
G37*
G36*
X123548422Y-104660041D02*
G01*
X124258191Y-104660041D01*
X124258191Y-104859344D01*
X123811410Y-104859344D01*
X123811410Y-105046922D01*
X124231569Y-105046922D01*
X124231569Y-105246224D01*
X123811410Y-105246224D01*
X123811410Y-105480697D01*
X124273212Y-105480697D01*
X124273212Y-105680000D01*
X123548422Y-105680000D01*
X123548422Y-104660041D01*
G37*
G36*
X125312710Y-105623335D02*
G01*
X125238666Y-105656477D01*
X125161707Y-105680305D01*
X125082011Y-105694667D01*
X124997820Y-105699539D01*
X124894953Y-105693187D01*
X124804815Y-105675064D01*
X124725585Y-105646157D01*
X124655734Y-105606874D01*
X124594086Y-105557023D01*
X124541505Y-105497339D01*
X124500434Y-105430095D01*
X124470425Y-105354220D01*
X124451703Y-105268248D01*
X124445159Y-105170387D01*
X124451712Y-105072192D01*
X124470450Y-104986001D01*
X124500471Y-104910007D01*
X124541537Y-104842727D01*
X124594086Y-104783079D01*
X124655737Y-104733205D01*
X124725590Y-104693904D01*
X124804820Y-104664986D01*
X124894956Y-104646856D01*
X124997820Y-104640502D01*
X125082011Y-104645374D01*
X125161707Y-104659736D01*
X125238666Y-104683564D01*
X125312710Y-104716706D01*
X125312710Y-104929685D01*
X125238560Y-104885073D01*
X125168545Y-104855558D01*
X125096090Y-104837950D01*
X125019008Y-104831988D01*
X124949823Y-104838089D01*
X124891093Y-104855414D01*
X124840840Y-104883275D01*
X124797663Y-104922053D01*
X124763732Y-104969013D01*
X124738653Y-105024829D01*
X124722733Y-105091228D01*
X124717063Y-105170387D01*
X124722723Y-105249143D01*
X124738627Y-105315305D01*
X124763704Y-105371021D01*
X124797663Y-105417988D01*
X124840840Y-105456765D01*
X124891093Y-105484627D01*
X124949823Y-105501952D01*
X125019008Y-105508053D01*
X125096090Y-105502091D01*
X125168545Y-105484483D01*
X125238560Y-105454967D01*
X125312710Y-105410355D01*
X125312710Y-105623335D01*
G37*
G36*
X126095861Y-104646804D02*
G01*
X126182300Y-104664743D01*
X126257798Y-104693307D01*
X126323930Y-104732102D01*
X126381883Y-104781369D01*
X126430515Y-104839774D01*
X126468886Y-104906488D01*
X126497183Y-104982719D01*
X126514972Y-105070053D01*
X126521223Y-105170387D01*
X126514980Y-105270384D01*
X126497207Y-105357500D01*
X126468921Y-105433612D01*
X126430545Y-105500291D01*
X126381883Y-105558733D01*
X126323934Y-105607976D01*
X126257803Y-105646754D01*
X126182305Y-105675307D01*
X126095864Y-105693240D01*
X125996590Y-105699539D01*
X125897662Y-105693251D01*
X125811407Y-105675340D01*
X125735960Y-105646801D01*
X125669768Y-105608015D01*
X125611663Y-105558733D01*
X125562860Y-105500272D01*
X125524382Y-105433581D01*
X125496027Y-105357469D01*
X125478214Y-105270363D01*
X125471956Y-105170387D01*
X125743860Y-105170387D01*
X125748682Y-105251663D01*
X125762066Y-105318772D01*
X125782771Y-105374032D01*
X125810110Y-105419392D01*
X125846508Y-105458097D01*
X125888827Y-105485395D01*
X125938237Y-105502171D01*
X125996590Y-105508053D01*
X126055337Y-105502157D01*
X126104982Y-105485359D01*
X126147407Y-105458056D01*
X126183802Y-105419392D01*
X126211141Y-105374032D01*
X126231846Y-105318772D01*
X126245231Y-105251663D01*
X126250053Y-105170387D01*
X126245221Y-105088699D01*
X126231822Y-105021366D01*
X126211115Y-104966031D01*
X126183802Y-104920710D01*
X126147403Y-104882016D01*
X126104976Y-104854695D01*
X126055332Y-104837887D01*
X125996590Y-104831988D01*
X125938241Y-104837873D01*
X125888833Y-104854659D01*
X125846512Y-104881976D01*
X125810110Y-104920710D01*
X125782797Y-104966031D01*
X125762091Y-105021366D01*
X125748691Y-105088699D01*
X125743860Y-105170387D01*
X125471956Y-105170387D01*
X125478222Y-105070074D01*
X125496051Y-104982750D01*
X125524416Y-104906519D01*
X125562889Y-104839794D01*
X125611663Y-104781369D01*
X125669771Y-104732063D01*
X125735965Y-104693260D01*
X125811412Y-104664710D01*
X125897665Y-104646792D01*
X125996590Y-104640502D01*
X126095861Y-104646804D01*
G37*
G36*
X126560974Y-104660041D02*
G01*
X126825306Y-104660041D01*
X127095866Y-105412859D01*
X127365693Y-104660041D01*
X127630025Y-104660041D01*
X127252303Y-105680000D01*
X126938757Y-105680000D01*
X126560974Y-104660041D01*
G37*
G36*
X127766007Y-104660041D02*
G01*
X128475777Y-104660041D01*
X128475777Y-104859344D01*
X128028996Y-104859344D01*
X128028996Y-105046922D01*
X128449154Y-105046922D01*
X128449154Y-105246224D01*
X128028996Y-105246224D01*
X128028996Y-105480697D01*
X128490798Y-105480697D01*
X128490798Y-105680000D01*
X127766007Y-105680000D01*
X127766007Y-104660041D01*
G37*
G36*
X129227386Y-104665302D02*
G01*
X129308628Y-104679490D01*
X129371160Y-104700641D01*
X129418615Y-104727452D01*
X129458578Y-104764675D01*
X129487559Y-104811123D01*
X129505919Y-104868772D01*
X129512527Y-104940554D01*
X129506645Y-105006131D01*
X129490091Y-105060538D01*
X129463678Y-105105968D01*
X129427262Y-105143965D01*
X129379020Y-105175811D01*
X129316522Y-105201284D01*
X129350810Y-105212821D01*
X129382877Y-105231282D01*
X129413181Y-105257337D01*
X129453366Y-105308070D01*
X129499582Y-105389656D01*
X129642342Y-105680000D01*
X129362256Y-105680000D01*
X129237937Y-105425987D01*
X129210117Y-105376061D01*
X129184833Y-105342410D01*
X129161794Y-105321207D01*
X129134698Y-105306200D01*
X129100974Y-105296592D01*
X129058968Y-105293119D01*
X128984474Y-105293119D01*
X128984474Y-105680000D01*
X128721485Y-105680000D01*
X128721485Y-105109448D01*
X128984474Y-105109448D01*
X129095177Y-105109448D01*
X129149730Y-105105333D01*
X129187789Y-105094663D01*
X129213634Y-105079162D01*
X129232573Y-105056376D01*
X129244911Y-105024224D01*
X129249538Y-104979450D01*
X129244909Y-104935194D01*
X129232576Y-104903536D01*
X129213634Y-104881203D01*
X129187844Y-104866037D01*
X129149789Y-104855570D01*
X129095177Y-104851528D01*
X128984474Y-104851528D01*
X128984474Y-105109448D01*
X128721485Y-105109448D01*
X128721485Y-104660041D01*
X129123204Y-104660041D01*
X129227386Y-104665302D01*
G37*
G36*
X129580793Y-104660041D02*
G01*
X129868388Y-104660041D01*
X130100663Y-105023475D01*
X130332938Y-104660041D01*
X130621206Y-104660041D01*
X130232493Y-105250315D01*
X130232493Y-105680000D01*
X129969505Y-105680000D01*
X129969505Y-105250315D01*
X129580793Y-104660041D01*
G37*
D12*
%TO.C,R31*%
X163912600Y-75400000D02*
X163912600Y-74800000D01*
X170412600Y-75400000D02*
X170412600Y-74800000D01*
D13*
%TO.C,R29*%
X168337600Y-79940000D02*
X168337600Y-80540000D01*
X174837600Y-79940000D02*
X174837600Y-80540000D01*
%TO.C,R30*%
X161237600Y-79950000D02*
X161237600Y-80550000D01*
X167737600Y-79950000D02*
X167737600Y-80550000D01*
D14*
%TO.C,R2*%
X109939610Y-67528500D02*
X109517392Y-67528500D01*
X109517392Y-68671500D02*
X109939610Y-68671500D01*
%TO.C,R1*%
X109517392Y-70271500D02*
X109939610Y-70271500D01*
X109939610Y-69128500D02*
X109517392Y-69128500D01*
%TO.C,R3*%
X116578500Y-71138891D02*
X116578500Y-71561109D01*
X117721500Y-71561109D02*
X117721500Y-71138891D01*
%TO.C,R5*%
X113938891Y-74146500D02*
X114361109Y-74146500D01*
X114361109Y-73003500D02*
X113938891Y-73003500D01*
%TO.C,R37*%
X112471500Y-92111109D02*
X112471500Y-91688891D01*
X111328500Y-91688891D02*
X111328500Y-92111109D01*
%TO.C,R36*%
X117961109Y-86928500D02*
X117538891Y-86928500D01*
X117538891Y-88071500D02*
X117961109Y-88071500D01*
%TO.C,R6*%
X114911109Y-87028500D02*
X114488891Y-87028500D01*
X114488891Y-88171500D02*
X114911109Y-88171500D01*
%TO.C,T1*%
X117728801Y-95385900D02*
X117728801Y-92591900D01*
X117728801Y-92591900D02*
X117415241Y-92591900D01*
X116537541Y-95385900D02*
X117728801Y-95385900D01*
X116241761Y-92591900D02*
X116071598Y-92591900D01*
X114568649Y-92591900D02*
X114415241Y-92591900D01*
X113241761Y-92591900D02*
X112928201Y-92591900D01*
X112928201Y-95385900D02*
X114119461Y-95385900D01*
X112928201Y-92591900D02*
X112928201Y-95385900D01*
X116955501Y-90638900D02*
G75*
G02*
X116701501Y-90638900I-127000J0D01*
G01*
X116701501Y-90638900D02*
G75*
G02*
X116955501Y-90638900I127000J0D01*
G01*
%TO.C,T3*%
X111299700Y-67570200D02*
X111299700Y-70364200D01*
X111299700Y-70364200D02*
X111613260Y-70364200D01*
X112490960Y-67570200D02*
X111299700Y-67570200D01*
X112786740Y-70364200D02*
X112956903Y-70364200D01*
X114459852Y-70364200D02*
X114613260Y-70364200D01*
X115786740Y-70364200D02*
X116100300Y-70364200D01*
X116100300Y-67570200D02*
X114909040Y-67570200D01*
X116100300Y-70364200D02*
X116100300Y-67570200D01*
X112327000Y-72317200D02*
G75*
G02*
X112073000Y-72317200I-127000J0D01*
G01*
X112073000Y-72317200D02*
G75*
G02*
X112327000Y-72317200I127000J0D01*
G01*
%TO.C,T4*%
X119975300Y-77379800D02*
X119975300Y-74585800D01*
X119975300Y-74585800D02*
X119661740Y-74585800D01*
X118784040Y-77379800D02*
X119975300Y-77379800D01*
X118488260Y-74585800D02*
X118318097Y-74585800D01*
X116815148Y-74585800D02*
X116661740Y-74585800D01*
X115488260Y-74585800D02*
X115174700Y-74585800D01*
X115174700Y-77379800D02*
X116365960Y-77379800D01*
X115174700Y-74585800D02*
X115174700Y-77379800D01*
X119202000Y-72632800D02*
G75*
G02*
X118948000Y-72632800I-127000J0D01*
G01*
X118948000Y-72632800D02*
G75*
G02*
X119202000Y-72632800I127000J0D01*
G01*
%TO.C,T2*%
X113071200Y-82014100D02*
X113071200Y-84808100D01*
X113071200Y-84808100D02*
X113384760Y-84808100D01*
X114262460Y-82014100D02*
X113071200Y-82014100D01*
X114558240Y-84808100D02*
X114728403Y-84808100D01*
X116231352Y-84808100D02*
X116384760Y-84808100D01*
X117558240Y-84808100D02*
X117871800Y-84808100D01*
X117871800Y-82014100D02*
X116680540Y-82014100D01*
X117871800Y-84808100D02*
X117871800Y-82014100D01*
X114098500Y-86761100D02*
G75*
G02*
X113844500Y-86761100I-127000J0D01*
G01*
X113844500Y-86761100D02*
G75*
G02*
X114098500Y-86761100I127000J0D01*
G01*
%TO.C,R_FF1*%
X134828840Y-98576604D02*
X134828840Y-98154386D01*
X133685840Y-98154386D02*
X133685840Y-98576604D01*
%TO.C,U7*%
X184260799Y-119092500D02*
X184260799Y-118688640D01*
X184260799Y-112511360D02*
X184260799Y-112107500D01*
X184260799Y-112107500D02*
X177783799Y-112107500D01*
X177783799Y-119092500D02*
X184260799Y-119092500D01*
X177783799Y-116171500D02*
X177783799Y-119092500D01*
X177783799Y-115028500D02*
X176767799Y-115028500D01*
X177783799Y-112107500D02*
X177783799Y-115028500D01*
X177301199Y-118330500D02*
X176208999Y-118330500D01*
X177301199Y-117441500D02*
X176208999Y-117441500D01*
X177301199Y-113758500D02*
X176208999Y-113758500D01*
X177301199Y-112869500D02*
X176208999Y-112869500D01*
X176767799Y-116171500D02*
X177783799Y-116171500D01*
%TO.C,CR11*%
X168116300Y-85000100D02*
X168116300Y-84735940D01*
X168116300Y-83664060D02*
X168116300Y-83399900D01*
X168116300Y-83399900D02*
X166058900Y-83399900D01*
X166058900Y-85000100D02*
X168116300Y-85000100D01*
X166058900Y-84735940D02*
X166058900Y-85000100D01*
X166058900Y-83399900D02*
X166058900Y-83664060D01*
D15*
%TO.C,JP2*%
X185987599Y-121800001D02*
G75*
G02*
X185287599Y-122500001I-700000J0D01*
G01*
X185287599Y-119700001D02*
G75*
G02*
X185987599Y-120400001I1J-699999D01*
G01*
X184687599Y-122500001D02*
G75*
G02*
X183987599Y-121800001I0J700000D01*
G01*
X183987599Y-120400001D02*
G75*
G02*
X184687599Y-119700001I699999J1D01*
G01*
X185987599Y-120400001D02*
X185987599Y-121800001D01*
X185287599Y-122500001D02*
X184687599Y-122500001D01*
X184687599Y-119700001D02*
X185287599Y-119700001D01*
X183987599Y-121800001D02*
X183987599Y-120400001D01*
D14*
%TO.C,R_RT1*%
X137228841Y-104105104D02*
X137228841Y-103682886D01*
X136085841Y-103682886D02*
X136085841Y-104105104D01*
%TO.C,F6*%
X198579700Y-69483050D02*
X198579700Y-68116950D01*
X196725500Y-68116950D02*
X196725500Y-69483050D01*
D11*
%TO.C,R9*%
X174562600Y-111675000D02*
X174962600Y-111675000D01*
X174562600Y-110425000D02*
X174962600Y-110425000D01*
D15*
%TO.C,JP5*%
X184702600Y-69500000D02*
G75*
G02*
X184002600Y-70200000I-699999J-1D01*
G01*
X184002600Y-67400000D02*
G75*
G02*
X184702600Y-68100000I0J-700000D01*
G01*
X183402600Y-70200000D02*
G75*
G02*
X182702600Y-69500000I-1J699999D01*
G01*
X182702600Y-68100000D02*
G75*
G02*
X183402600Y-67400000I700000J0D01*
G01*
X184702600Y-68100000D02*
X184702600Y-69500000D01*
X184002600Y-70200000D02*
X183402600Y-70200000D01*
X183402600Y-67400000D02*
X184002600Y-67400000D01*
X182702600Y-69500000D02*
X182702600Y-68100000D01*
D11*
%TO.C,D1*%
X120187599Y-66099999D02*
G75*
G02*
X119987599Y-66099999I-100000J0D01*
G01*
X119987599Y-66099999D02*
G75*
G02*
X120187599Y-66099999I100000J0D01*
G01*
D16*
X120037599Y-69599999D02*
X120037599Y-66799999D01*
X118137599Y-66799999D02*
X118137599Y-69599999D01*
D11*
%TO.C,R34*%
X177062600Y-69425000D02*
X177462600Y-69425000D01*
X177062600Y-68175000D02*
X177462600Y-68175000D01*
D12*
%TO.C,R24*%
X170337600Y-93100000D02*
X170337600Y-93700000D01*
X163837600Y-93100000D02*
X163837600Y-93700000D01*
D11*
%TO.C,R32*%
X194337600Y-70200000D02*
X194337600Y-69800000D01*
X193087600Y-70200000D02*
X193087600Y-69800000D01*
%TO.C,C_IN1*%
X134972602Y-110524998D02*
X133572602Y-110524998D01*
D14*
%TO.C,F3*%
X169870650Y-98622900D02*
X168504550Y-98622900D01*
X168504550Y-100477100D02*
X169870650Y-100477100D01*
D13*
%TO.C,R12*%
X165637600Y-115400000D02*
X165637600Y-114800000D01*
X159137600Y-115400000D02*
X159137600Y-114800000D01*
D14*
%TO.C,R_RT2*%
X135528839Y-104105105D02*
X135528839Y-103682887D01*
X134385839Y-103682887D02*
X134385839Y-104105105D01*
D13*
%TO.C,R14*%
X172737600Y-115400000D02*
X172737600Y-114800000D01*
X166237600Y-115400000D02*
X166237600Y-114800000D01*
D12*
%TO.C,R26*%
X163200000Y-88760000D02*
X163200000Y-88160000D01*
X156700000Y-88760000D02*
X156700000Y-88160000D01*
D11*
%TO.C,K1*%
X122037598Y-77199999D02*
G75*
G02*
X121737598Y-77199999I-150000J0D01*
G01*
X121737598Y-77199999D02*
G75*
G02*
X122037598Y-77199999I150000J0D01*
G01*
D12*
X151287598Y-79699999D02*
X151287598Y-66999999D01*
X151287598Y-66999999D02*
X122337598Y-66999999D01*
X122337598Y-79699999D02*
X151287598Y-79699999D01*
X122337598Y-66999999D02*
X122337598Y-79699999D01*
D15*
%TO.C,JP1*%
X202277601Y-121424998D02*
G75*
G02*
X201577601Y-122124998I-700000J0D01*
G01*
X201577601Y-119324998D02*
G75*
G02*
X202277601Y-120024998I1J-699999D01*
G01*
X200977601Y-122124998D02*
G75*
G02*
X200277601Y-121424998I0J700000D01*
G01*
X200277601Y-120024998D02*
G75*
G02*
X200977601Y-119324998I699999J1D01*
G01*
X202277601Y-120024998D02*
X202277601Y-121424998D01*
X201577601Y-122124998D02*
X200977601Y-122124998D01*
X200977601Y-119324998D02*
X201577601Y-119324998D01*
X200277601Y-121424998D02*
X200277601Y-120024998D01*
D12*
%TO.C,L_SW1*%
X142557337Y-121243996D02*
X141757337Y-121243996D01*
X142557337Y-114543996D02*
X142557337Y-121243996D01*
X141757337Y-114543996D02*
X142557337Y-114543996D01*
X136757337Y-121243996D02*
X136257337Y-121243996D01*
X136757337Y-114543996D02*
X135957337Y-114543996D01*
X135957337Y-121243996D02*
X136257337Y-121243996D01*
X135957337Y-114543996D02*
X135957337Y-121243996D01*
D11*
%TO.C,D7*%
X179587598Y-101800000D02*
X174587598Y-101800000D01*
X174587598Y-104400000D02*
X179887598Y-104400000D01*
D14*
%TO.C,R_FBB2*%
X137228839Y-101355104D02*
X137228839Y-100932886D01*
X136085839Y-100932886D02*
X136085839Y-101355104D01*
D11*
%TO.C,CR9*%
X188352600Y-73025000D02*
X188352600Y-71275000D01*
X188352600Y-71275000D02*
X187052600Y-71275000D01*
X187052600Y-73025000D02*
X188352600Y-73025000D01*
%TO.C,K5*%
X187337600Y-87450000D02*
G75*
G02*
X187137600Y-87450000I-100000J0D01*
G01*
X187137600Y-87450000D02*
G75*
G02*
X187337600Y-87450000I100000J0D01*
G01*
D17*
X191937600Y-86350000D02*
X191937600Y-86350000D01*
D12*
X191937600Y-79950000D02*
X191937600Y-86350000D01*
D17*
X191937600Y-79950000D02*
X191937600Y-79950000D01*
X187357600Y-86350000D02*
X187357600Y-86350000D01*
D12*
X187357600Y-86350000D02*
X187357600Y-79950000D01*
D17*
X187357600Y-79950000D02*
X187357600Y-79950000D01*
D11*
%TO.C,R27*%
X174587600Y-107925000D02*
X174987600Y-107925000D01*
X174587600Y-106675000D02*
X174987600Y-106675000D01*
D14*
%TO.C,U9*%
X181976100Y-77992500D02*
X181976100Y-77588640D01*
X181976100Y-71411360D02*
X181976100Y-71007500D01*
X181976100Y-71007500D02*
X175499100Y-71007500D01*
X175499100Y-77992500D02*
X181976100Y-77992500D01*
X175499100Y-75071500D02*
X175499100Y-77992500D01*
X175499100Y-73928500D02*
X174483100Y-73928500D01*
X175499100Y-71007500D02*
X175499100Y-73928500D01*
X175016500Y-77230500D02*
X173924300Y-77230500D01*
X175016500Y-76341500D02*
X173924300Y-76341500D01*
X175016500Y-72658500D02*
X173924300Y-72658500D01*
X175016500Y-71769500D02*
X173924300Y-71769500D01*
X174483100Y-75071500D02*
X175499100Y-75071500D01*
X174483100Y-73928500D02*
X174483100Y-75071500D01*
D15*
%TO.C,JP4*%
X170587600Y-106199998D02*
G75*
G02*
X169887600Y-106899998I-699999J-1D01*
G01*
X169887600Y-104899998D02*
G75*
G02*
X170587600Y-105599998I1J-699999D01*
G01*
X168487600Y-106899998D02*
G75*
G02*
X167787600Y-106199998I0J700000D01*
G01*
X167787600Y-105599998D02*
G75*
G02*
X168487600Y-104899998I700000J0D01*
G01*
X170587600Y-105599998D02*
X170587600Y-106199998D01*
X169887600Y-106899998D02*
X168487600Y-106899998D01*
X168487600Y-104899998D02*
X169887600Y-104899998D01*
X167787600Y-106199998D02*
X167787600Y-105599998D01*
D14*
%TO.C,R_BIAS1*%
X142998709Y-103028500D02*
X142576491Y-103028500D01*
X142576491Y-104171500D02*
X142998709Y-104171500D01*
D13*
%TO.C,R13*%
X170937600Y-119900000D02*
X170937600Y-120500000D01*
X164437600Y-119900000D02*
X164437600Y-120500000D01*
D11*
%TO.C,CR6*%
X189637599Y-118625003D02*
X189637599Y-116875003D01*
X189637599Y-116875003D02*
X188337599Y-116875003D01*
X188337599Y-118625003D02*
X189637599Y-118625003D01*
D18*
%TO.C,C_IN-BLK1*%
X149051086Y-108912744D02*
G75*
G02*
X149051086Y-108862744I0J25000D01*
G01*
X149051086Y-108862744D02*
G75*
G02*
X149051086Y-108912744I0J-25000D01*
G01*
D11*
X151201086Y-106287744D02*
X151201086Y-103137744D01*
X151201086Y-103137744D02*
X150551086Y-103137744D01*
D18*
X149051086Y-108912744D02*
X149051086Y-108912744D01*
X149051086Y-108862744D02*
X149051086Y-108862744D01*
D11*
X147551086Y-103137744D02*
X146901086Y-103137744D01*
X146901086Y-106287744D02*
X146901086Y-103137744D01*
X146901086Y-103137744D02*
X147551086Y-103137744D01*
X146901086Y-103137744D02*
X146901086Y-106287744D01*
D14*
%TO.C,R20*%
X116361109Y-113278500D02*
X115938891Y-113278500D01*
X115938891Y-114421500D02*
X116361109Y-114421500D01*
D11*
%TO.C,CR8*%
X173512600Y-105450000D02*
X173512600Y-104150000D01*
X171762600Y-105450000D02*
X173512600Y-105450000D01*
X171762600Y-104150000D02*
X171762600Y-105450000D01*
%TO.C,CR7*%
X173512600Y-98700000D02*
X173512600Y-97400000D01*
X173512600Y-97400000D02*
X171762600Y-97400000D01*
X171762600Y-97400000D02*
X171762600Y-98700000D01*
%TO.C,K3*%
X192157600Y-102325000D02*
G75*
G02*
X191957600Y-102325000I-100000J0D01*
G01*
X191957600Y-102325000D02*
G75*
G02*
X192157600Y-102325000I100000J0D01*
G01*
D17*
X191937600Y-109825000D02*
X191937600Y-109825000D01*
D12*
X191937600Y-103425000D02*
X191937600Y-109825000D01*
D17*
X191937600Y-103425000D02*
X191937600Y-103425000D01*
X187357600Y-109825000D02*
X187357600Y-109825000D01*
D12*
X187357600Y-109825000D02*
X187357600Y-103425000D01*
D17*
X187357600Y-103425000D02*
X187357600Y-103425000D01*
D11*
%TO.C,C_OUT5*%
X157001086Y-118787744D02*
X147551086Y-118787744D01*
X153776086Y-110487744D02*
X147551086Y-110487744D01*
%TO.C,R15*%
X192112600Y-119724999D02*
X192112600Y-120124999D01*
X190862600Y-119724999D02*
X190862600Y-120124999D01*
D14*
%TO.C,F1*%
X199764699Y-121833052D02*
X199764699Y-120466952D01*
X197910499Y-120466952D02*
X197910499Y-121833052D01*
D11*
%TO.C,C_IN2*%
X145457339Y-111493996D02*
X144057339Y-111493996D01*
D14*
%TO.C,U8*%
X181881850Y-92342500D02*
X181881850Y-91938640D01*
X181881850Y-85761360D02*
X181881850Y-85357500D01*
X181881850Y-85357500D02*
X175404850Y-85357500D01*
X175404850Y-92342500D02*
X181881850Y-92342500D01*
X175404850Y-89421500D02*
X175404850Y-92342500D01*
X175404850Y-88278500D02*
X174388850Y-88278500D01*
X175404850Y-85357500D02*
X175404850Y-88278500D01*
X174922250Y-91580500D02*
X173830050Y-91580500D01*
X174922250Y-90691500D02*
X173830050Y-90691500D01*
X174922250Y-87008500D02*
X173830050Y-87008500D01*
X174922250Y-86119500D02*
X173830050Y-86119500D01*
X174388850Y-89421500D02*
X175404850Y-89421500D01*
X174388850Y-88278500D02*
X174388850Y-89421500D01*
D11*
%TO.C,R28*%
X190782600Y-70200000D02*
X190782600Y-69800000D01*
X189532600Y-70200000D02*
X189532600Y-69800000D01*
D14*
%TO.C,R_ENB1*%
X134909100Y-106911109D02*
X134909100Y-106488891D01*
X133766100Y-106488891D02*
X133766100Y-106911109D01*
D11*
%TO.C,D5*%
X192177599Y-112924999D02*
X187177599Y-112924999D01*
X187177599Y-115524999D02*
X192477599Y-115524999D01*
%TO.C,R18*%
X174582598Y-96145000D02*
X174982598Y-96145000D01*
X174582598Y-94895000D02*
X174982598Y-94895000D01*
D14*
%TO.C,R_BT1*%
X143959099Y-107536109D02*
X143959099Y-107113891D01*
X142816099Y-107113891D02*
X142816099Y-107536109D01*
%TO.C,F2*%
X188414699Y-121783051D02*
X188414699Y-120416951D01*
X186560499Y-120416951D02*
X186560499Y-121783051D01*
D19*
%TO.C,U1*%
G36*
X142220938Y-109384494D02*
G01*
X141966938Y-109384494D01*
X141966938Y-109003494D01*
X142220938Y-109003494D01*
X142220938Y-109384494D01*
G37*
G36*
X141074839Y-105996495D02*
G01*
X140693839Y-105996495D01*
X140693839Y-106250495D01*
X141074839Y-106250495D01*
X141074839Y-105996495D01*
G37*
D14*
X141687739Y-110865695D02*
X141443279Y-110865695D01*
X138071399Y-110865695D02*
X137826939Y-110865695D01*
%TO.C,F4*%
X169870650Y-102372900D02*
X168504550Y-102372900D01*
X168504550Y-104227100D02*
X169870650Y-104227100D01*
D11*
%TO.C,R11*%
X127687600Y-113625000D02*
X127287600Y-113625000D01*
X127687600Y-112375000D02*
X127287600Y-112375000D01*
%TO.C,J4*%
X159712600Y-75800000D02*
X159712600Y-76800000D01*
X159212600Y-81300000D02*
X160212600Y-81300000D01*
X159212600Y-76300000D02*
X160212600Y-76300000D01*
X158712600Y-83900000D02*
X153512600Y-83900000D01*
X158712600Y-73700000D02*
X158712600Y-83900000D01*
X153512600Y-83900000D02*
X153512600Y-73700000D01*
X153512600Y-73700000D02*
X158712600Y-73700000D01*
%TO.C,K2*%
X122037600Y-92000000D02*
G75*
G02*
X121737600Y-92000000I-150000J0D01*
G01*
X121737600Y-92000000D02*
G75*
G02*
X122037600Y-92000000I150000J0D01*
G01*
D12*
X151287600Y-94500000D02*
X151287600Y-81800000D01*
X151287600Y-81800000D02*
X122337600Y-81800000D01*
X122337600Y-94500000D02*
X151287600Y-94500000D01*
X122337600Y-81800000D02*
X122337600Y-94500000D01*
D11*
%TO.C,D9*%
X197937600Y-73550000D02*
X192637600Y-73550000D01*
X192937600Y-76150000D02*
X197937600Y-76150000D01*
%TO.C,R33*%
X172062600Y-84825000D02*
X172462600Y-84825000D01*
X172062600Y-83575000D02*
X172462600Y-83575000D01*
D15*
%TO.C,JP3*%
X170587600Y-97300000D02*
G75*
G02*
X169887600Y-98000000I-699999J-1D01*
G01*
X169887600Y-96000000D02*
G75*
G02*
X170587600Y-96700000I1J-699999D01*
G01*
X168487600Y-98000000D02*
G75*
G02*
X167787600Y-97300000I0J700000D01*
G01*
X167787600Y-96700000D02*
G75*
G02*
X168487600Y-96000000I700000J0D01*
G01*
X170587600Y-96700000D02*
X170587600Y-97300000D01*
X169887600Y-98000000D02*
X168487600Y-98000000D01*
X168487600Y-96000000D02*
X169887600Y-96000000D01*
X167787600Y-97300000D02*
X167787600Y-96700000D01*
%TO.C,JP6*%
X201152600Y-69500000D02*
G75*
G02*
X200452600Y-70200000I-699999J-1D01*
G01*
X200452600Y-67400000D02*
G75*
G02*
X201152600Y-68100000I0J-700000D01*
G01*
X199852600Y-70200000D02*
G75*
G02*
X199152600Y-69500000I-1J699999D01*
G01*
X199152600Y-68100000D02*
G75*
G02*
X199852600Y-67400000I700000J0D01*
G01*
X201152600Y-68100000D02*
X201152600Y-69500000D01*
X200452600Y-70200000D02*
X199852600Y-70200000D01*
X199852600Y-67400000D02*
X200452600Y-67400000D01*
X199152600Y-69500000D02*
X199152600Y-68100000D01*
D14*
%TO.C,F5*%
X187139700Y-69483050D02*
X187139700Y-68116950D01*
X185285500Y-68116950D02*
X185285500Y-69483050D01*
D11*
%TO.C,CR10*%
X196812600Y-71275000D02*
X195512600Y-71275000D01*
X195512600Y-73025000D02*
X196812600Y-73025000D01*
X195512600Y-71275000D02*
X195512600Y-73025000D01*
D14*
%TO.C,CR3*%
X170722500Y-111800100D02*
X170722500Y-111535940D01*
X170722500Y-110464060D02*
X170722500Y-110199900D01*
X170722500Y-110199900D02*
X168665100Y-110199900D01*
X168665100Y-111800100D02*
X170722500Y-111800100D01*
X168665100Y-111535940D02*
X168665100Y-111800100D01*
X168665100Y-110199900D02*
X168665100Y-110464060D01*
D11*
%TO.C,J5*%
X131487600Y-102425000D02*
X121287600Y-102425000D01*
X131487600Y-97225000D02*
X131487600Y-102425000D01*
X128887600Y-103915000D02*
X128887600Y-102915000D01*
X123887600Y-103915000D02*
X123887600Y-102915000D01*
X123387600Y-103415000D02*
X124387600Y-103415000D01*
X121287600Y-102425000D02*
X121287600Y-97225000D01*
X121287600Y-97225000D02*
X131487600Y-97225000D01*
%TO.C,R10*%
X195512600Y-119725004D02*
X195512600Y-120125004D01*
X194262600Y-119725004D02*
X194262600Y-120125004D01*
D14*
%TO.C,R_FBT1*%
X137646341Y-98535005D02*
X137646341Y-98112787D01*
X136503341Y-98112787D02*
X136503341Y-98535005D01*
D20*
%TO.C,J1*%
X169457701Y-71358700D02*
G75*
G02*
X169157701Y-71358700I-150000J0D01*
G01*
X169157701Y-71358700D02*
G75*
G02*
X169457701Y-71358700I150000J0D01*
G01*
D14*
X169755200Y-71710700D02*
X169755200Y-69170874D01*
X169755200Y-68246526D02*
X169755200Y-66554501D01*
X169755200Y-66554501D02*
X152610200Y-66554501D01*
X152610200Y-71710700D02*
X153468868Y-71710700D01*
X152610200Y-69170874D02*
X152610200Y-71710700D01*
X152610200Y-66554501D02*
X152610200Y-68246526D01*
D11*
%TO.C,D4*%
X199077601Y-112925000D02*
X193777601Y-112925000D01*
X194077601Y-115525000D02*
X199077601Y-115525000D01*
D14*
%TO.C,CR12*%
X173210100Y-69500100D02*
X173210100Y-69235940D01*
X173210100Y-68164060D02*
X173210100Y-67899900D01*
X173210100Y-67899900D02*
X171152700Y-67899900D01*
X171152700Y-69500100D02*
X173210100Y-69500100D01*
X171152700Y-69235940D02*
X171152700Y-69500100D01*
X171152700Y-67899900D02*
X171152700Y-68164060D01*
%TO.C,R_ENT1*%
X136628839Y-106905103D02*
X136628839Y-106482885D01*
X135485839Y-106482885D02*
X135485839Y-106905103D01*
D11*
%TO.C,K4*%
X191537600Y-99740000D02*
G75*
G02*
X191337600Y-99740000I-100000J0D01*
G01*
X191337600Y-99740000D02*
G75*
G02*
X191537600Y-99740000I100000J0D01*
G01*
D17*
X190337600Y-99620000D02*
X190337600Y-99620000D01*
D12*
X190337600Y-99620000D02*
X183937600Y-99620000D01*
D17*
X190337600Y-95040000D02*
X190337600Y-95040000D01*
X183937600Y-99620000D02*
X183937600Y-99620000D01*
D12*
X183937600Y-95040000D02*
X190337600Y-95040000D01*
D17*
X183937600Y-95040000D02*
X183937600Y-95040000D01*
D11*
%TO.C,D3*%
X159887600Y-119900000D02*
X154887600Y-119900000D01*
X154887600Y-122500000D02*
X160187600Y-122500000D01*
D14*
%TO.C,R_FBB1*%
X135628840Y-101355104D02*
X135628840Y-100932886D01*
X134485840Y-100932886D02*
X134485840Y-101355104D01*
D11*
%TO.C,D6*%
X179587598Y-98424999D02*
X174587598Y-98424999D01*
X174587598Y-101024999D02*
X179887598Y-101024999D01*
%TO.C,CR4*%
X198014130Y-116902360D02*
X196714130Y-116902360D01*
X196714130Y-118652360D02*
X198014130Y-118652360D01*
X196714130Y-116902360D02*
X196714130Y-118652360D01*
D12*
%TO.C,R25*%
X170343350Y-88750000D02*
X170343350Y-88150000D01*
X163843350Y-88750000D02*
X163843350Y-88150000D01*
D11*
%TO.C,D8*%
X190927600Y-73560000D02*
X185927600Y-73560000D01*
X187927600Y-76160000D02*
X191227600Y-76160000D01*
X185927600Y-76160000D02*
X186827600Y-76160000D01*
D14*
%TO.C,R_PG1*%
X139968449Y-101322495D02*
X139546231Y-101322495D01*
X139546231Y-102465495D02*
X139968449Y-102465495D01*
D11*
%TO.C,D2*%
X120187500Y-91220000D02*
G75*
G02*
X119987500Y-91220000I-100000J0D01*
G01*
X119987500Y-91220000D02*
G75*
G02*
X120187500Y-91220000I100000J0D01*
G01*
D16*
X120037500Y-94720000D02*
X120037500Y-91920000D01*
X118137500Y-91920000D02*
X118137500Y-94720000D01*
D11*
%TO.C,IC1*%
X203752600Y-118363000D02*
X203752600Y-114663000D01*
X206752600Y-118363000D02*
X203752600Y-118363000D01*
X203752600Y-114663000D02*
X206752600Y-114663000D01*
X206752600Y-114663000D02*
X206752600Y-118363000D01*
X206802600Y-112838000D02*
X206802600Y-114313000D01*
%TO.C,IC2*%
X186837600Y-90150000D02*
X190537600Y-90150000D01*
X186837600Y-93150000D02*
X186837600Y-90150000D01*
X190537600Y-90150000D02*
X190537600Y-93150000D01*
X190537600Y-93150000D02*
X186837600Y-93150000D01*
X192362600Y-93200000D02*
X190887600Y-93200000D01*
%TO.C,IC3*%
X203752600Y-74462000D02*
X203752600Y-70762000D01*
X206752600Y-74462000D02*
X203752600Y-74462000D01*
X203752600Y-70762000D02*
X206752600Y-70762000D01*
X206752600Y-70762000D02*
X206752600Y-74462000D01*
X206802600Y-68937000D02*
X206802600Y-70412000D01*
D14*
%TO.C,U11*%
X101309671Y-79673126D02*
X107786671Y-79673126D01*
X107786671Y-79673126D02*
X107786671Y-76752126D01*
X101309671Y-79294666D02*
X101309671Y-79673126D01*
X108269271Y-78911126D02*
X109336071Y-78911126D01*
X108269271Y-78022126D02*
X109336071Y-78022126D01*
X107786671Y-76752126D02*
X108802671Y-76752126D01*
X108802671Y-76752126D02*
X108802671Y-75609126D01*
X107786671Y-75609126D02*
X107786671Y-72688126D01*
X108802671Y-75609126D02*
X107786671Y-75609126D01*
X108269271Y-74339126D02*
X109336071Y-74339126D01*
X108269271Y-73450126D02*
X109336071Y-73450126D01*
X101309671Y-72688126D02*
X101309671Y-73066586D01*
X107786671Y-72688126D02*
X101309671Y-72688126D01*
D11*
X112823171Y-78480626D02*
G75*
G02*
X112540329Y-78480626I-141421J0D01*
G01*
X112540329Y-78480626D02*
G75*
G02*
X112823171Y-78480626I141421J0D01*
G01*
D14*
%TO.C,U3*%
X101309671Y-87173126D02*
X107786671Y-87173126D01*
X107786671Y-87173126D02*
X107786671Y-84252126D01*
X101309671Y-86794666D02*
X101309671Y-87173126D01*
X108269271Y-86411126D02*
X109336071Y-86411126D01*
X108269271Y-85522126D02*
X109336071Y-85522126D01*
X107786671Y-84252126D02*
X108802671Y-84252126D01*
X108802671Y-84252126D02*
X108802671Y-83109126D01*
X107786671Y-83109126D02*
X107786671Y-80188126D01*
X108802671Y-83109126D02*
X107786671Y-83109126D01*
X108269271Y-81839126D02*
X109336071Y-81839126D01*
X108269271Y-80950126D02*
X109336071Y-80950126D01*
X101309671Y-80188126D02*
X101309671Y-80566586D01*
X107786671Y-80188126D02*
X101309671Y-80188126D01*
D11*
X112823171Y-85980626D02*
G75*
G02*
X112540329Y-85980626I-141421J0D01*
G01*
X112540329Y-85980626D02*
G75*
G02*
X112823171Y-85980626I141421J0D01*
G01*
D14*
%TO.C,R35*%
X114488891Y-89771500D02*
X114911109Y-89771500D01*
X114911109Y-88628500D02*
X114488891Y-88628500D01*
D11*
%TO.C,J2*%
X91307870Y-79350627D02*
X96507870Y-79350627D01*
X91307870Y-89550627D02*
X91307870Y-79350627D01*
X93407870Y-78350627D02*
X94407870Y-78350627D01*
X93407870Y-90150627D02*
X94407870Y-90150627D01*
X93907870Y-77850627D02*
X93907870Y-78850627D01*
X96507870Y-79350627D02*
X96507870Y-89550627D01*
X96507870Y-89550627D02*
X91307870Y-89550627D01*
D14*
%TO.C,R23*%
X112471766Y-119827127D02*
X112893984Y-119827127D01*
X112893984Y-118684127D02*
X112471766Y-118684127D01*
%TO.C,R17*%
X106721766Y-113478598D02*
X107143984Y-113478598D01*
X107143984Y-112335598D02*
X106721766Y-112335598D01*
%TO.C,R19*%
X113226262Y-114365261D02*
X113648480Y-114365261D01*
X113648480Y-113222261D02*
X113226262Y-113222261D01*
D11*
%TO.C,R8*%
X107107869Y-88455626D02*
X106707869Y-88455626D01*
X107107869Y-89705626D02*
X106707869Y-89705626D01*
%TO.C,J3*%
X91282871Y-66980627D02*
X96482871Y-66980627D01*
X91282871Y-77180627D02*
X91282871Y-66980627D01*
X94382871Y-66380627D02*
X93382871Y-66380627D01*
X96482871Y-66980627D02*
X96482871Y-77180627D01*
X96482871Y-77180627D02*
X91282871Y-77180627D01*
D14*
%TO.C,U10*%
X104738621Y-100111655D02*
X104738621Y-100515515D01*
X104738621Y-106692795D02*
X104738621Y-107096655D01*
X104738621Y-107096655D02*
X111215621Y-107096655D01*
X111215621Y-100111655D02*
X104738621Y-100111655D01*
X111215621Y-103032655D02*
X111215621Y-100111655D01*
X111215621Y-104175655D02*
X112231621Y-104175655D01*
X111215621Y-107096655D02*
X111215621Y-104175655D01*
X111698221Y-100873655D02*
X112790421Y-100873655D01*
X111698221Y-101762655D02*
X112790421Y-101762655D01*
X111698221Y-105445655D02*
X112790421Y-105445655D01*
X111698221Y-106334655D02*
X112790421Y-106334655D01*
X112231621Y-103032655D02*
X111215621Y-103032655D01*
X112231621Y-104175655D02*
X112231621Y-103032655D01*
%TO.C,L2*%
X90405071Y-107602827D02*
X90405071Y-120658427D01*
X90405071Y-120658427D02*
X93985990Y-120658427D01*
X93985990Y-107602827D02*
X90405071Y-107602827D01*
X99879752Y-120658427D02*
X103460671Y-120658427D01*
X103460671Y-107602827D02*
X99879752Y-107602827D01*
X103460671Y-120658427D02*
X103460671Y-107602827D01*
D11*
%TO.C,C1*%
X92382872Y-94650625D02*
X92382872Y-93250625D01*
%TO.C,C3*%
X105532871Y-97180627D02*
X106932871Y-97180627D01*
D14*
%TO.C,U6*%
X107506472Y-114735398D02*
X107723131Y-114735398D01*
X107506472Y-116421958D02*
X107506472Y-114735398D01*
X107506472Y-119078798D02*
X107506472Y-117392238D01*
X107723131Y-119078798D02*
X107506472Y-119078798D01*
X110642613Y-114735398D02*
X110859272Y-114735398D01*
X110859272Y-114735398D02*
X110859272Y-115921959D01*
X110859272Y-117892237D02*
X110859272Y-119078798D01*
X110859272Y-119078798D02*
X110642613Y-119078798D01*
D17*
X106995372Y-116794598D02*
X107070372Y-116794598D01*
X107070372Y-117019598D01*
X106995372Y-117019598D01*
X106995372Y-116794598D01*
D11*
%TO.C,C4*%
X103332871Y-97180627D02*
X104732871Y-97180627D01*
%TO.C,R4*%
X104025000Y-67125000D02*
X103625000Y-67125000D01*
X104025000Y-68375000D02*
X103625000Y-68375000D01*
D12*
%TO.C,L1*%
X91332871Y-95330627D02*
X91332871Y-97760627D01*
X91332871Y-95330627D02*
X101832871Y-95330627D01*
X91332871Y-105330627D02*
X91332871Y-102900627D01*
X91332871Y-105330627D02*
X101832871Y-105330627D01*
X101832871Y-95330627D02*
X101832871Y-97760627D01*
X101832871Y-105330627D02*
X101832871Y-102900627D01*
D14*
%TO.C,CR2*%
X100441111Y-92749227D02*
X100806871Y-92749227D01*
X100806871Y-87212027D02*
X100441111Y-87212027D01*
X100806871Y-92749227D02*
X100806871Y-87212027D01*
D11*
X99373370Y-86660627D02*
G75*
G02*
X99172372Y-86660627I-100499J0D01*
G01*
X99172372Y-86660627D02*
G75*
G02*
X99373370Y-86660627I100499J0D01*
G01*
D14*
%TO.C,R21*%
X112471767Y-122978596D02*
X112893985Y-122978596D01*
X112893985Y-121835596D02*
X112471767Y-121835596D01*
D11*
%TO.C,C2*%
X92382872Y-92380627D02*
X92382872Y-90980627D01*
%TO.C,C6*%
X107732871Y-97180627D02*
X109132871Y-97180627D01*
D14*
%TO.C,CR5*%
X112404171Y-107130527D02*
X112404171Y-107394687D01*
X112404171Y-108466567D02*
X112404171Y-108730727D01*
X112404171Y-108730727D02*
X114461571Y-108730727D01*
X114461571Y-107130527D02*
X112404171Y-107130527D01*
X114461571Y-107394687D02*
X114461571Y-107130527D01*
X114461571Y-108730727D02*
X114461571Y-108466567D01*
%TO.C,CR1*%
X100441111Y-71801027D02*
X100806871Y-71801027D01*
X100806871Y-66263827D02*
X100441111Y-66263827D01*
X100806871Y-71801027D02*
X100806871Y-66263827D01*
D11*
X99393370Y-72352427D02*
G75*
G02*
X99192372Y-72352427I-100499J0D01*
G01*
X99192372Y-72352427D02*
G75*
G02*
X99393370Y-72352427I100499J0D01*
G01*
%TO.C,C5*%
X109932871Y-97180627D02*
X111332871Y-97180627D01*
D14*
%TO.C,R16*%
X110261050Y-113494027D02*
X110683268Y-113494027D01*
X110683268Y-112351027D02*
X110261050Y-112351027D01*
%TO.C,R22*%
X112471762Y-121427126D02*
X112893980Y-121427126D01*
X112893980Y-120284126D02*
X112471762Y-120284126D01*
%TD*%
M02*
