%TF.GenerationSoftware,KiCad,Pcbnew,9.0.3*%
%TF.CreationDate,2025-08-13T20:37:10+01:00*%
%TF.ProjectId,Elytra,456c7974-7261-42e6-9b69-6361645f7063,rev?*%
%TF.SameCoordinates,Original*%
%TF.FileFunction,Copper,L3,Inr*%
%TF.FilePolarity,Positive*%
%FSLAX46Y46*%
G04 Gerber Fmt 4.6, Leading zero omitted, Abs format (unit mm)*
G04 Created by KiCad (PCBNEW 9.0.3) date 2025-08-13 20:37:10*
%MOMM*%
%LPD*%
G01*
G04 APERTURE LIST*
%TA.AperFunction,ComponentPad*%
%ADD10R,2.700000X2.700000*%
%TD*%
%TA.AperFunction,ComponentPad*%
%ADD11C,2.700000*%
%TD*%
%TA.AperFunction,ComponentPad*%
%ADD12C,1.950000*%
%TD*%
%TA.AperFunction,ComponentPad*%
%ADD13C,1.500000*%
%TD*%
%TA.AperFunction,ComponentPad*%
%ADD14C,1.117600*%
%TD*%
%TA.AperFunction,ViaPad*%
%ADD15C,0.500000*%
%TD*%
%TA.AperFunction,ViaPad*%
%ADD16C,0.600000*%
%TD*%
%TA.AperFunction,ViaPad*%
%ADD17C,0.700000*%
%TD*%
G04 APERTURE END LIST*
D10*
%TO.N,GND*%
%TO.C,J2*%
X97624999Y-101470000D03*
D11*
%TO.N,VBAT1*%
X97624999Y-96470000D03*
%TD*%
D10*
%TO.N,GND*%
%TO.C,J3*%
X97600000Y-84100000D03*
D11*
%TO.N,VBAT2*%
X97600000Y-89100000D03*
%TD*%
D12*
%TO.N,Net-(K1-COIL_1)*%
%TO.C,K1*%
X124299998Y-91699999D03*
%TO.N,unconnected-(K1-COM_1-Pad3)*%
X144299998Y-91699999D03*
%TO.N,unconnected-(K1-NO_1-Pad4)*%
X149299998Y-91699999D03*
%TO.N,Net-(K1-NO_2)*%
X149299998Y-84199999D03*
%TO.N,VFill*%
X144299998Y-84199999D03*
%TO.N,+14V*%
X124299998Y-84199999D03*
%TD*%
D10*
%TO.N,GND*%
%TO.C,J4*%
X155825000Y-95800000D03*
D11*
%TO.N,VFill*%
X155825000Y-90800000D03*
%TD*%
D12*
%TO.N,Net-(K2-COIL_1)*%
%TO.C,K2*%
X124300000Y-106500000D03*
%TO.N,unconnected-(K2-COM_1-Pad3)*%
X144300000Y-106500000D03*
%TO.N,unconnected-(K2-NO_1-Pad4)*%
X149300000Y-106500000D03*
%TO.N,Net-(K2-NO_2)*%
X149300000Y-99000000D03*
%TO.N,VFill*%
X144300000Y-99000000D03*
%TO.N,+14V*%
X124300000Y-99000000D03*
%TD*%
D13*
%TO.N,+3.3V*%
%TO.C,DSUB1*%
X194960000Y-114340000D03*
%TO.N,+5V*%
X194960000Y-112050000D03*
%TO.N,/V2_OUT*%
X194960000Y-109760000D03*
%TO.N,/V1_OUT*%
X194960000Y-107470000D03*
%TO.N,/V0_OUT*%
X194960000Y-105180000D03*
%TO.N,/V3_OUT*%
X197500000Y-113195000D03*
%TO.N,/V4_OUT*%
X197500000Y-110905000D03*
%TO.N,/V5_OUT*%
X197500000Y-108615000D03*
%TO.N,/FIRE_OUT1*%
X197500000Y-106325000D03*
%TO.N,/FIRE_OUT2*%
X197500000Y-104035000D03*
%TO.N,GND*%
X200040000Y-114340000D03*
X200040000Y-112050000D03*
X200040000Y-109760000D03*
X200040000Y-107470000D03*
%TO.N,/FIRE_OUT3*%
X200040000Y-105180000D03*
%TD*%
D10*
%TO.N,/KEY_OUT*%
%TO.C,J5*%
X128600000Y-114325000D03*
D11*
%TO.N,VDC*%
X123600000Y-114325000D03*
%TD*%
D14*
%TO.N,+14V*%
%TO.C,J1*%
X167750002Y-85550000D03*
%TO.N,/PYRO1_OUT*%
X166500002Y-85550000D03*
%TO.N,+14V*%
X165250002Y-85550000D03*
%TO.N,/PYRO2_OUT*%
X164000002Y-85550000D03*
%TO.N,+14V*%
X162750002Y-85550000D03*
%TO.N,/PYRO3_OUT*%
X161500002Y-85550000D03*
%TO.N,+14V*%
X160250001Y-85550000D03*
%TO.N,/PYRO4_OUT*%
X159000001Y-85550000D03*
%TO.N,+14V*%
X157750001Y-85550000D03*
%TO.N,/PYRO5_OUT*%
X156500001Y-85550000D03*
%TO.N,+14V*%
X155250001Y-85550000D03*
%TO.N,/PYRO6_OUT*%
X154000001Y-85550000D03*
%TD*%
D15*
%TO.N,VDC*%
X136869739Y-124093994D03*
%TO.N,+14V*%
X185250000Y-108000000D03*
X164500000Y-98500000D03*
X205811690Y-91055783D03*
X207000000Y-123250000D03*
X206000000Y-135475000D03*
D16*
%TO.N,/DC.DC3 VCC*%
X139994738Y-120550000D03*
X138698559Y-117050000D03*
%TO.N,+5V*%
X173000000Y-137800000D03*
X156000000Y-137600000D03*
%TO.N,/PYRO1_OUT*%
X201000000Y-137600000D03*
D15*
X166600000Y-83000000D03*
X170800000Y-81800000D03*
D16*
X166600000Y-86600000D03*
%TO.N,/PYRO2_OUT*%
X182000000Y-136400000D03*
X164200000Y-86800000D03*
%TO.N,/PYRO4_OUT*%
X159200000Y-86800000D03*
X166800000Y-117200000D03*
%TO.N,/FIRE_OUT1*%
X197000000Y-116800000D03*
%TO.N,/FIRE_OUT2*%
X189600000Y-110400000D03*
%TO.N,Net-(U1-FB)*%
X136898560Y-116950000D03*
X138944741Y-120549999D03*
D15*
%TO.N,Net-(D3-A)*%
X137750000Y-112250000D03*
D16*
X141898561Y-120800000D03*
X138948561Y-132900000D03*
D15*
%TO.N,GND*%
X108800000Y-132600000D03*
D16*
X117800000Y-133600000D03*
X136107240Y-126683994D03*
D17*
X176200000Y-95800000D03*
D15*
X116000000Y-110200000D03*
X111049999Y-82799999D03*
D16*
X113600000Y-101600000D03*
X133669739Y-116393995D03*
X178200000Y-109800000D03*
D17*
X178400000Y-121600000D03*
D15*
X203000000Y-128000000D03*
D16*
X157400000Y-100400000D03*
X101800000Y-80200000D03*
D17*
X144600000Y-137800000D03*
D16*
X134533490Y-126457744D03*
D15*
X149600000Y-136650000D03*
D17*
X149200000Y-115800000D03*
D16*
X137669740Y-114793996D03*
X189800000Y-81400000D03*
D17*
X177600000Y-125200000D03*
X174800000Y-98400000D03*
D16*
X193200000Y-81400000D03*
D17*
X145337872Y-128262128D03*
D16*
X133568490Y-122545244D03*
D15*
X194400000Y-137200000D03*
D16*
X191166409Y-104233591D03*
X117800000Y-136800000D03*
X102400000Y-107800000D03*
X137643492Y-126420244D03*
X203000000Y-84400000D03*
D15*
X169200000Y-136000000D03*
D16*
X94700002Y-104800000D03*
D15*
X109600000Y-136800000D03*
X121400000Y-128400000D03*
D16*
X94700002Y-107400000D03*
D15*
X115600000Y-121600000D03*
D16*
X170400000Y-109200000D03*
D15*
X147500000Y-136650000D03*
D16*
X158860000Y-95010000D03*
D15*
X113400000Y-125800000D03*
D16*
X99400000Y-80200000D03*
X100600000Y-80200000D03*
D15*
X145400000Y-136680000D03*
X116290000Y-125740000D03*
D16*
X114400000Y-136800000D03*
X133719741Y-119143995D03*
D15*
X98715000Y-80885000D03*
D16*
X143413489Y-126337744D03*
X122400000Y-132200000D03*
X163200000Y-101610000D03*
D15*
X191400000Y-137200000D03*
X115150000Y-126430000D03*
D16*
X139469741Y-122093995D03*
%TO.N,/V4_OUT*%
X207200000Y-84600000D03*
%TO.N,/V2_OUT*%
X192600000Y-107000000D03*
%TO.N,/V0_OUT*%
X206000000Y-126800000D03*
%TD*%
%TA.AperFunction,Conductor*%
%TO.N,GND*%
G36*
X208642539Y-79820185D02*
G01*
X208688294Y-79872989D01*
X208699500Y-79924500D01*
X208699500Y-139075500D01*
X208679815Y-139142539D01*
X208627011Y-139188294D01*
X208575500Y-139199500D01*
X93424500Y-139199500D01*
X93357461Y-139179815D01*
X93311706Y-139127011D01*
X93300500Y-139075500D01*
X93300500Y-137521153D01*
X155199500Y-137521153D01*
X155199500Y-137678846D01*
X155230261Y-137833489D01*
X155230264Y-137833501D01*
X155290602Y-137979172D01*
X155290609Y-137979185D01*
X155378210Y-138110288D01*
X155378213Y-138110292D01*
X155489707Y-138221786D01*
X155489711Y-138221789D01*
X155620814Y-138309390D01*
X155620827Y-138309397D01*
X155766498Y-138369735D01*
X155766503Y-138369737D01*
X155921153Y-138400499D01*
X155921156Y-138400500D01*
X155921158Y-138400500D01*
X156078844Y-138400500D01*
X156078845Y-138400499D01*
X156233497Y-138369737D01*
X156379179Y-138309394D01*
X156510289Y-138221789D01*
X156621789Y-138110289D01*
X156709394Y-137979179D01*
X156769737Y-137833497D01*
X156792083Y-137721158D01*
X156792084Y-137721153D01*
X172199500Y-137721153D01*
X172199500Y-137878846D01*
X172230261Y-138033489D01*
X172230264Y-138033501D01*
X172290602Y-138179172D01*
X172290609Y-138179185D01*
X172378210Y-138310288D01*
X172378213Y-138310292D01*
X172489707Y-138421786D01*
X172489711Y-138421789D01*
X172620814Y-138509390D01*
X172620827Y-138509397D01*
X172766498Y-138569735D01*
X172766503Y-138569737D01*
X172921153Y-138600499D01*
X172921156Y-138600500D01*
X172921158Y-138600500D01*
X173078844Y-138600500D01*
X173078845Y-138600499D01*
X173233497Y-138569737D01*
X173379179Y-138509394D01*
X173510289Y-138421789D01*
X173621789Y-138310289D01*
X173709394Y-138179179D01*
X173769737Y-138033497D01*
X173800500Y-137878842D01*
X173800500Y-137721158D01*
X173800500Y-137721155D01*
X173800499Y-137721153D01*
X173794476Y-137690874D01*
X173769737Y-137566503D01*
X173750955Y-137521158D01*
X173750953Y-137521153D01*
X200199500Y-137521153D01*
X200199500Y-137678846D01*
X200230261Y-137833489D01*
X200230264Y-137833501D01*
X200290602Y-137979172D01*
X200290609Y-137979185D01*
X200378210Y-138110288D01*
X200378213Y-138110292D01*
X200489707Y-138221786D01*
X200489711Y-138221789D01*
X200620814Y-138309390D01*
X200620827Y-138309397D01*
X200766498Y-138369735D01*
X200766503Y-138369737D01*
X200921153Y-138400499D01*
X200921156Y-138400500D01*
X200921158Y-138400500D01*
X201078844Y-138400500D01*
X201078845Y-138400499D01*
X201233497Y-138369737D01*
X201379179Y-138309394D01*
X201510289Y-138221789D01*
X201621789Y-138110289D01*
X201709394Y-137979179D01*
X201769737Y-137833497D01*
X201800500Y-137678842D01*
X201800500Y-137521158D01*
X201800500Y-137521155D01*
X201800499Y-137521153D01*
X201780543Y-137420827D01*
X201769737Y-137366503D01*
X201737929Y-137289711D01*
X201709397Y-137220827D01*
X201709390Y-137220814D01*
X201621789Y-137089711D01*
X201621786Y-137089707D01*
X201510292Y-136978213D01*
X201510288Y-136978210D01*
X201379185Y-136890609D01*
X201379172Y-136890602D01*
X201233501Y-136830264D01*
X201233489Y-136830261D01*
X201078845Y-136799500D01*
X201078842Y-136799500D01*
X200921158Y-136799500D01*
X200921155Y-136799500D01*
X200766510Y-136830261D01*
X200766498Y-136830264D01*
X200620827Y-136890602D01*
X200620814Y-136890609D01*
X200489711Y-136978210D01*
X200489707Y-136978213D01*
X200378213Y-137089707D01*
X200378210Y-137089711D01*
X200290609Y-137220814D01*
X200290602Y-137220827D01*
X200230264Y-137366498D01*
X200230261Y-137366510D01*
X200199500Y-137521153D01*
X173750953Y-137521153D01*
X173709397Y-137420827D01*
X173709390Y-137420814D01*
X173621789Y-137289711D01*
X173621786Y-137289707D01*
X173510292Y-137178213D01*
X173510288Y-137178210D01*
X173379185Y-137090609D01*
X173379172Y-137090602D01*
X173233501Y-137030264D01*
X173233489Y-137030261D01*
X173078845Y-136999500D01*
X173078842Y-136999500D01*
X172921158Y-136999500D01*
X172921155Y-136999500D01*
X172766510Y-137030261D01*
X172766498Y-137030264D01*
X172620827Y-137090602D01*
X172620814Y-137090609D01*
X172489711Y-137178210D01*
X172489707Y-137178213D01*
X172378213Y-137289707D01*
X172378210Y-137289711D01*
X172290609Y-137420814D01*
X172290602Y-137420827D01*
X172230264Y-137566498D01*
X172230261Y-137566510D01*
X172199500Y-137721153D01*
X156792084Y-137721153D01*
X156798107Y-137690875D01*
X156798107Y-137690874D01*
X156800500Y-137678844D01*
X156800500Y-137521155D01*
X156800499Y-137521153D01*
X156780543Y-137420827D01*
X156769737Y-137366503D01*
X156737929Y-137289711D01*
X156709397Y-137220827D01*
X156709390Y-137220814D01*
X156621789Y-137089711D01*
X156621786Y-137089707D01*
X156510292Y-136978213D01*
X156510288Y-136978210D01*
X156379185Y-136890609D01*
X156379172Y-136890602D01*
X156233501Y-136830264D01*
X156233489Y-136830261D01*
X156078845Y-136799500D01*
X156078842Y-136799500D01*
X155921158Y-136799500D01*
X155921155Y-136799500D01*
X155766510Y-136830261D01*
X155766498Y-136830264D01*
X155620827Y-136890602D01*
X155620814Y-136890609D01*
X155489711Y-136978210D01*
X155489707Y-136978213D01*
X155378213Y-137089707D01*
X155378210Y-137089711D01*
X155290609Y-137220814D01*
X155290602Y-137220827D01*
X155230264Y-137366498D01*
X155230261Y-137366510D01*
X155199500Y-137521153D01*
X93300500Y-137521153D01*
X93300500Y-136321153D01*
X181199500Y-136321153D01*
X181199500Y-136478846D01*
X181230261Y-136633489D01*
X181230264Y-136633501D01*
X181290602Y-136779172D01*
X181290609Y-136779185D01*
X181378210Y-136910288D01*
X181378213Y-136910292D01*
X181489707Y-137021786D01*
X181489711Y-137021789D01*
X181620814Y-137109390D01*
X181620827Y-137109397D01*
X181766498Y-137169735D01*
X181766503Y-137169737D01*
X181921153Y-137200499D01*
X181921156Y-137200500D01*
X181921158Y-137200500D01*
X182078844Y-137200500D01*
X182078845Y-137200499D01*
X182233497Y-137169737D01*
X182379179Y-137109394D01*
X182510289Y-137021789D01*
X182621789Y-136910289D01*
X182709394Y-136779179D01*
X182769737Y-136633497D01*
X182800500Y-136478842D01*
X182800500Y-136321158D01*
X182800500Y-136321155D01*
X182800499Y-136321153D01*
X182769738Y-136166510D01*
X182769737Y-136166503D01*
X182724774Y-136057951D01*
X182709397Y-136020827D01*
X182709390Y-136020814D01*
X182621789Y-135889711D01*
X182621786Y-135889707D01*
X182510292Y-135778213D01*
X182510288Y-135778210D01*
X182379185Y-135690609D01*
X182379172Y-135690602D01*
X182233501Y-135630264D01*
X182233489Y-135630261D01*
X182078845Y-135599500D01*
X182078842Y-135599500D01*
X181921158Y-135599500D01*
X181921155Y-135599500D01*
X181766510Y-135630261D01*
X181766498Y-135630264D01*
X181620827Y-135690602D01*
X181620814Y-135690609D01*
X181489711Y-135778210D01*
X181489707Y-135778213D01*
X181378213Y-135889707D01*
X181378210Y-135889711D01*
X181290609Y-136020814D01*
X181290602Y-136020827D01*
X181230264Y-136166498D01*
X181230261Y-136166510D01*
X181199500Y-136321153D01*
X93300500Y-136321153D01*
X93300500Y-135548920D01*
X205249499Y-135548920D01*
X205278340Y-135693907D01*
X205278343Y-135693917D01*
X205334912Y-135830488D01*
X205334919Y-135830501D01*
X205417048Y-135953415D01*
X205417051Y-135953419D01*
X205521580Y-136057948D01*
X205521584Y-136057951D01*
X205644498Y-136140080D01*
X205644511Y-136140087D01*
X205781082Y-136196656D01*
X205781087Y-136196658D01*
X205781091Y-136196658D01*
X205781092Y-136196659D01*
X205926079Y-136225500D01*
X205926082Y-136225500D01*
X206073920Y-136225500D01*
X206171462Y-136206096D01*
X206218913Y-136196658D01*
X206355495Y-136140084D01*
X206478416Y-136057951D01*
X206582951Y-135953416D01*
X206665084Y-135830495D01*
X206721658Y-135693913D01*
X206734319Y-135630263D01*
X206750500Y-135548920D01*
X206750500Y-135401079D01*
X206721659Y-135256092D01*
X206721658Y-135256091D01*
X206721658Y-135256087D01*
X206721656Y-135256082D01*
X206665087Y-135119511D01*
X206665080Y-135119498D01*
X206582951Y-134996584D01*
X206582948Y-134996580D01*
X206478419Y-134892051D01*
X206478415Y-134892048D01*
X206355501Y-134809919D01*
X206355488Y-134809912D01*
X206218917Y-134753343D01*
X206218907Y-134753340D01*
X206073920Y-134724500D01*
X206073918Y-134724500D01*
X205926082Y-134724500D01*
X205926080Y-134724500D01*
X205781092Y-134753340D01*
X205781082Y-134753343D01*
X205644511Y-134809912D01*
X205644498Y-134809919D01*
X205521584Y-134892048D01*
X205521580Y-134892051D01*
X205417051Y-134996580D01*
X205417048Y-134996584D01*
X205334919Y-135119498D01*
X205334912Y-135119511D01*
X205278343Y-135256082D01*
X205278340Y-135256092D01*
X205249500Y-135401079D01*
X205249500Y-135401082D01*
X205249500Y-135548918D01*
X205249500Y-135548920D01*
X205249499Y-135548920D01*
X93300500Y-135548920D01*
X93300500Y-132821153D01*
X138148061Y-132821153D01*
X138148061Y-132978846D01*
X138178822Y-133133489D01*
X138178825Y-133133501D01*
X138239163Y-133279172D01*
X138239170Y-133279185D01*
X138326771Y-133410288D01*
X138326774Y-133410292D01*
X138438268Y-133521786D01*
X138438272Y-133521789D01*
X138569375Y-133609390D01*
X138569388Y-133609397D01*
X138715059Y-133669735D01*
X138715064Y-133669737D01*
X138869714Y-133700499D01*
X138869717Y-133700500D01*
X138869719Y-133700500D01*
X139027405Y-133700500D01*
X139027406Y-133700499D01*
X139182058Y-133669737D01*
X139327740Y-133609394D01*
X139458850Y-133521789D01*
X139570350Y-133410289D01*
X139657955Y-133279179D01*
X139718298Y-133133497D01*
X139749061Y-132978842D01*
X139749061Y-132821158D01*
X139749061Y-132821155D01*
X139749060Y-132821153D01*
X139718299Y-132666510D01*
X139718298Y-132666503D01*
X139718296Y-132666498D01*
X139657958Y-132520827D01*
X139657951Y-132520814D01*
X139570350Y-132389711D01*
X139570347Y-132389707D01*
X139458853Y-132278213D01*
X139458849Y-132278210D01*
X139327746Y-132190609D01*
X139327733Y-132190602D01*
X139182062Y-132130264D01*
X139182050Y-132130261D01*
X139027406Y-132099500D01*
X139027403Y-132099500D01*
X138869719Y-132099500D01*
X138869716Y-132099500D01*
X138715071Y-132130261D01*
X138715059Y-132130264D01*
X138569388Y-132190602D01*
X138569375Y-132190609D01*
X138438272Y-132278210D01*
X138438268Y-132278213D01*
X138326774Y-132389707D01*
X138326771Y-132389711D01*
X138239170Y-132520814D01*
X138239163Y-132520827D01*
X138178825Y-132666498D01*
X138178822Y-132666510D01*
X138148061Y-132821153D01*
X93300500Y-132821153D01*
X93300500Y-126721153D01*
X205199500Y-126721153D01*
X205199500Y-126878846D01*
X205230261Y-127033489D01*
X205230264Y-127033501D01*
X205290602Y-127179172D01*
X205290609Y-127179185D01*
X205378210Y-127310288D01*
X205378213Y-127310292D01*
X205489707Y-127421786D01*
X205489711Y-127421789D01*
X205620814Y-127509390D01*
X205620827Y-127509397D01*
X205766498Y-127569735D01*
X205766503Y-127569737D01*
X205921153Y-127600499D01*
X205921156Y-127600500D01*
X205921158Y-127600500D01*
X206078844Y-127600500D01*
X206078845Y-127600499D01*
X206233497Y-127569737D01*
X206379179Y-127509394D01*
X206510289Y-127421789D01*
X206621789Y-127310289D01*
X206709394Y-127179179D01*
X206769737Y-127033497D01*
X206800500Y-126878842D01*
X206800500Y-126721158D01*
X206800500Y-126721155D01*
X206800499Y-126721153D01*
X206769738Y-126566510D01*
X206769737Y-126566503D01*
X206769735Y-126566498D01*
X206709397Y-126420827D01*
X206709390Y-126420814D01*
X206621789Y-126289711D01*
X206621786Y-126289707D01*
X206510292Y-126178213D01*
X206510288Y-126178210D01*
X206379185Y-126090609D01*
X206379172Y-126090602D01*
X206233501Y-126030264D01*
X206233489Y-126030261D01*
X206078845Y-125999500D01*
X206078842Y-125999500D01*
X205921158Y-125999500D01*
X205921155Y-125999500D01*
X205766510Y-126030261D01*
X205766498Y-126030264D01*
X205620827Y-126090602D01*
X205620814Y-126090609D01*
X205489711Y-126178210D01*
X205489707Y-126178213D01*
X205378213Y-126289707D01*
X205378210Y-126289711D01*
X205290609Y-126420814D01*
X205290602Y-126420827D01*
X205230264Y-126566498D01*
X205230261Y-126566510D01*
X205199500Y-126721153D01*
X93300500Y-126721153D01*
X93300500Y-122881995D01*
X120799500Y-122881995D01*
X120799500Y-123118004D01*
X120799501Y-123118020D01*
X120824501Y-123307919D01*
X120830307Y-123352014D01*
X120861630Y-123468913D01*
X120891394Y-123579993D01*
X120981714Y-123798045D01*
X120981719Y-123798056D01*
X121026190Y-123875081D01*
X121099727Y-124002450D01*
X121099729Y-124002453D01*
X121099730Y-124002454D01*
X121243406Y-124189697D01*
X121243412Y-124189704D01*
X121410295Y-124356587D01*
X121410301Y-124356592D01*
X121597550Y-124500273D01*
X121722493Y-124572409D01*
X121801943Y-124618280D01*
X121801948Y-124618282D01*
X121801951Y-124618284D01*
X122020007Y-124708606D01*
X122247986Y-124769693D01*
X122481989Y-124800500D01*
X122481996Y-124800500D01*
X122718004Y-124800500D01*
X122718011Y-124800500D01*
X122952014Y-124769693D01*
X123179993Y-124708606D01*
X123398049Y-124618284D01*
X123602450Y-124500273D01*
X123789699Y-124356592D01*
X123956592Y-124189699D01*
X123973308Y-124167914D01*
X136119238Y-124167914D01*
X136148079Y-124312901D01*
X136148082Y-124312911D01*
X136204651Y-124449482D01*
X136204658Y-124449495D01*
X136286787Y-124572409D01*
X136286790Y-124572413D01*
X136391319Y-124676942D01*
X136391323Y-124676945D01*
X136514237Y-124759074D01*
X136514250Y-124759081D01*
X136650821Y-124815650D01*
X136650826Y-124815652D01*
X136650830Y-124815652D01*
X136650831Y-124815653D01*
X136795818Y-124844494D01*
X136795821Y-124844494D01*
X136943659Y-124844494D01*
X137041201Y-124825090D01*
X137088652Y-124815652D01*
X137225234Y-124759078D01*
X137348155Y-124676945D01*
X137452690Y-124572410D01*
X137534823Y-124449489D01*
X137591397Y-124312907D01*
X137600835Y-124265456D01*
X137620239Y-124167914D01*
X137620239Y-124020073D01*
X137591398Y-123875086D01*
X137591397Y-123875085D01*
X137591397Y-123875081D01*
X137573945Y-123832948D01*
X137534826Y-123738505D01*
X137534819Y-123738492D01*
X137452690Y-123615578D01*
X137452687Y-123615574D01*
X137348158Y-123511045D01*
X137348154Y-123511042D01*
X137225240Y-123428913D01*
X137225227Y-123428906D01*
X137088656Y-123372337D01*
X137088646Y-123372334D01*
X136943659Y-123343494D01*
X136943657Y-123343494D01*
X136795821Y-123343494D01*
X136795819Y-123343494D01*
X136650831Y-123372334D01*
X136650821Y-123372337D01*
X136514250Y-123428906D01*
X136514237Y-123428913D01*
X136391323Y-123511042D01*
X136391319Y-123511045D01*
X136286790Y-123615574D01*
X136286787Y-123615578D01*
X136204658Y-123738492D01*
X136204651Y-123738505D01*
X136148082Y-123875076D01*
X136148079Y-123875086D01*
X136119239Y-124020073D01*
X136119239Y-124020076D01*
X136119239Y-124167912D01*
X136119239Y-124167914D01*
X136119238Y-124167914D01*
X123973308Y-124167914D01*
X124100273Y-124002450D01*
X124218284Y-123798049D01*
X124308606Y-123579993D01*
X124369693Y-123352014D01*
X124400500Y-123118011D01*
X124400500Y-122881995D01*
X180799500Y-122881995D01*
X180799500Y-123118004D01*
X180799501Y-123118020D01*
X180824501Y-123307919D01*
X180830307Y-123352014D01*
X180861630Y-123468913D01*
X180891394Y-123579993D01*
X180981714Y-123798045D01*
X180981719Y-123798056D01*
X181026190Y-123875081D01*
X181099727Y-124002450D01*
X181099729Y-124002453D01*
X181099730Y-124002454D01*
X181243406Y-124189697D01*
X181243412Y-124189704D01*
X181410295Y-124356587D01*
X181410301Y-124356592D01*
X181597550Y-124500273D01*
X181722493Y-124572409D01*
X181801943Y-124618280D01*
X181801948Y-124618282D01*
X181801951Y-124618284D01*
X182020007Y-124708606D01*
X182247986Y-124769693D01*
X182481989Y-124800500D01*
X182481996Y-124800500D01*
X182718004Y-124800500D01*
X182718011Y-124800500D01*
X182952014Y-124769693D01*
X183179993Y-124708606D01*
X183398049Y-124618284D01*
X183602450Y-124500273D01*
X183789699Y-124356592D01*
X183956592Y-124189699D01*
X184100273Y-124002450D01*
X184218284Y-123798049D01*
X184308606Y-123579993D01*
X184369693Y-123352014D01*
X184400500Y-123118011D01*
X184400500Y-122881989D01*
X184369693Y-122647986D01*
X184308606Y-122420007D01*
X184218284Y-122201951D01*
X184218282Y-122201948D01*
X184218280Y-122201943D01*
X184161574Y-122103727D01*
X184100273Y-121997550D01*
X184005668Y-121874258D01*
X195749500Y-121874258D01*
X195749500Y-122103741D01*
X195762431Y-122201954D01*
X195779452Y-122331238D01*
X195824537Y-122499500D01*
X195838842Y-122552887D01*
X195926650Y-122764876D01*
X195926657Y-122764890D01*
X196041392Y-122963617D01*
X196181081Y-123145661D01*
X196181089Y-123145670D01*
X196343330Y-123307911D01*
X196343338Y-123307918D01*
X196525382Y-123447607D01*
X196525385Y-123447608D01*
X196525388Y-123447611D01*
X196724112Y-123562344D01*
X196724117Y-123562346D01*
X196724123Y-123562349D01*
X196766720Y-123579993D01*
X196936113Y-123650158D01*
X197157762Y-123709548D01*
X197374312Y-123738057D01*
X197377609Y-123738492D01*
X197385266Y-123739500D01*
X197385273Y-123739500D01*
X197614727Y-123739500D01*
X197614734Y-123739500D01*
X197842238Y-123709548D01*
X198063887Y-123650158D01*
X198275888Y-123562344D01*
X198474612Y-123447611D01*
X198635808Y-123323920D01*
X206249499Y-123323920D01*
X206278340Y-123468907D01*
X206278343Y-123468917D01*
X206334912Y-123605488D01*
X206334919Y-123605501D01*
X206417048Y-123728415D01*
X206417051Y-123728419D01*
X206521580Y-123832948D01*
X206521584Y-123832951D01*
X206644498Y-123915080D01*
X206644511Y-123915087D01*
X206781082Y-123971656D01*
X206781087Y-123971658D01*
X206781091Y-123971658D01*
X206781092Y-123971659D01*
X206926079Y-124000500D01*
X206926082Y-124000500D01*
X207073920Y-124000500D01*
X207171462Y-123981096D01*
X207218913Y-123971658D01*
X207355495Y-123915084D01*
X207478416Y-123832951D01*
X207582951Y-123728416D01*
X207665084Y-123605495D01*
X207721658Y-123468913D01*
X207740869Y-123372334D01*
X207750500Y-123323920D01*
X207750500Y-123176079D01*
X207721659Y-123031092D01*
X207721658Y-123031091D01*
X207721658Y-123031087D01*
X207693709Y-122963612D01*
X207665087Y-122894511D01*
X207665080Y-122894498D01*
X207582951Y-122771584D01*
X207582948Y-122771580D01*
X207478419Y-122667051D01*
X207478415Y-122667048D01*
X207355501Y-122584919D01*
X207355488Y-122584912D01*
X207218917Y-122528343D01*
X207218907Y-122528340D01*
X207073920Y-122499500D01*
X207073918Y-122499500D01*
X206926082Y-122499500D01*
X206926080Y-122499500D01*
X206781092Y-122528340D01*
X206781082Y-122528343D01*
X206644511Y-122584912D01*
X206644498Y-122584919D01*
X206521584Y-122667048D01*
X206521580Y-122667051D01*
X206417051Y-122771580D01*
X206417048Y-122771584D01*
X206334919Y-122894498D01*
X206334912Y-122894511D01*
X206278343Y-123031082D01*
X206278340Y-123031092D01*
X206249500Y-123176079D01*
X206249500Y-123176082D01*
X206249500Y-123323918D01*
X206249500Y-123323920D01*
X206249499Y-123323920D01*
X198635808Y-123323920D01*
X198656661Y-123307919D01*
X198656665Y-123307914D01*
X198656670Y-123307911D01*
X198818910Y-123145670D01*
X198818919Y-123145661D01*
X198958611Y-122963612D01*
X199073344Y-122764888D01*
X199161158Y-122552887D01*
X199220548Y-122331238D01*
X199250500Y-122103734D01*
X199250500Y-121874266D01*
X199220548Y-121646762D01*
X199161158Y-121425113D01*
X199092515Y-121259394D01*
X199073349Y-121213123D01*
X199073346Y-121213117D01*
X199073344Y-121213112D01*
X198958611Y-121014388D01*
X198958608Y-121014385D01*
X198958607Y-121014382D01*
X198818918Y-120832338D01*
X198818911Y-120832330D01*
X198656670Y-120670089D01*
X198656661Y-120670081D01*
X198474617Y-120530392D01*
X198275890Y-120415657D01*
X198275876Y-120415650D01*
X198063887Y-120327842D01*
X198021591Y-120316509D01*
X197842238Y-120268452D01*
X197804215Y-120263446D01*
X197614741Y-120238500D01*
X197614734Y-120238500D01*
X197385266Y-120238500D01*
X197385258Y-120238500D01*
X197168715Y-120267009D01*
X197157762Y-120268452D01*
X197064076Y-120293554D01*
X196936112Y-120327842D01*
X196724123Y-120415650D01*
X196724109Y-120415657D01*
X196525382Y-120530392D01*
X196343338Y-120670081D01*
X196181081Y-120832338D01*
X196041392Y-121014382D01*
X195926657Y-121213109D01*
X195926650Y-121213123D01*
X195838842Y-121425112D01*
X195779453Y-121646759D01*
X195779451Y-121646770D01*
X195749500Y-121874258D01*
X184005668Y-121874258D01*
X183956592Y-121810301D01*
X183956587Y-121810295D01*
X183789704Y-121643412D01*
X183789697Y-121643406D01*
X183602454Y-121499730D01*
X183602453Y-121499729D01*
X183602450Y-121499727D01*
X183473215Y-121425113D01*
X183398056Y-121381719D01*
X183398045Y-121381714D01*
X183179993Y-121291394D01*
X182952010Y-121230306D01*
X182718020Y-121199501D01*
X182718017Y-121199500D01*
X182718011Y-121199500D01*
X182481989Y-121199500D01*
X182481983Y-121199500D01*
X182481979Y-121199501D01*
X182247989Y-121230306D01*
X182020006Y-121291394D01*
X181801954Y-121381714D01*
X181801943Y-121381719D01*
X181597545Y-121499730D01*
X181410302Y-121643406D01*
X181410295Y-121643412D01*
X181243412Y-121810295D01*
X181243406Y-121810302D01*
X181099730Y-121997545D01*
X180981719Y-122201943D01*
X180981714Y-122201954D01*
X180891394Y-122420006D01*
X180830306Y-122647989D01*
X180799501Y-122881979D01*
X180799500Y-122881995D01*
X124400500Y-122881995D01*
X124400500Y-122881989D01*
X124369693Y-122647986D01*
X124308606Y-122420007D01*
X124218284Y-122201951D01*
X124218282Y-122201948D01*
X124218280Y-122201943D01*
X124161574Y-122103727D01*
X124100273Y-121997550D01*
X123956592Y-121810301D01*
X123956587Y-121810295D01*
X123789704Y-121643412D01*
X123789697Y-121643406D01*
X123602454Y-121499730D01*
X123602453Y-121499729D01*
X123602450Y-121499727D01*
X123473215Y-121425113D01*
X123398056Y-121381719D01*
X123398045Y-121381714D01*
X123179993Y-121291394D01*
X122952010Y-121230306D01*
X122718020Y-121199501D01*
X122718017Y-121199500D01*
X122718011Y-121199500D01*
X122481989Y-121199500D01*
X122481983Y-121199500D01*
X122481979Y-121199501D01*
X122247989Y-121230306D01*
X122020006Y-121291394D01*
X121801954Y-121381714D01*
X121801943Y-121381719D01*
X121597545Y-121499730D01*
X121410302Y-121643406D01*
X121410295Y-121643412D01*
X121243412Y-121810295D01*
X121243406Y-121810302D01*
X121099730Y-121997545D01*
X120981719Y-122201943D01*
X120981714Y-122201954D01*
X120891394Y-122420006D01*
X120830306Y-122647989D01*
X120799501Y-122881979D01*
X120799500Y-122881995D01*
X93300500Y-122881995D01*
X93300500Y-120471152D01*
X138144241Y-120471152D01*
X138144241Y-120628845D01*
X138175002Y-120783488D01*
X138175005Y-120783500D01*
X138235343Y-120929171D01*
X138235350Y-120929184D01*
X138322951Y-121060287D01*
X138322954Y-121060291D01*
X138434448Y-121171785D01*
X138434452Y-121171788D01*
X138565555Y-121259389D01*
X138565568Y-121259396D01*
X138688444Y-121310292D01*
X138711244Y-121319736D01*
X138865894Y-121350498D01*
X138865897Y-121350499D01*
X138865899Y-121350499D01*
X139023585Y-121350499D01*
X139023586Y-121350498D01*
X139178238Y-121319736D01*
X139290907Y-121273066D01*
X139323913Y-121259396D01*
X139323913Y-121259395D01*
X139323920Y-121259393D01*
X139400847Y-121207991D01*
X139467523Y-121187113D01*
X139534903Y-121205597D01*
X139538629Y-121207991D01*
X139546289Y-121213109D01*
X139615559Y-121259394D01*
X139615561Y-121259395D01*
X139615565Y-121259397D01*
X139761234Y-121319734D01*
X139761241Y-121319737D01*
X139915886Y-121350498D01*
X139915891Y-121350499D01*
X139915894Y-121350500D01*
X139915896Y-121350500D01*
X140073582Y-121350500D01*
X140073583Y-121350499D01*
X140228235Y-121319737D01*
X140373917Y-121259394D01*
X140505027Y-121171789D01*
X140616527Y-121060289D01*
X140704132Y-120929179D01*
X140764475Y-120783497D01*
X140776876Y-120721153D01*
X141098061Y-120721153D01*
X141098061Y-120878846D01*
X141128822Y-121033489D01*
X141128825Y-121033501D01*
X141189163Y-121179172D01*
X141189170Y-121179185D01*
X141276771Y-121310288D01*
X141276774Y-121310292D01*
X141388268Y-121421786D01*
X141388272Y-121421789D01*
X141519375Y-121509390D01*
X141519388Y-121509397D01*
X141665059Y-121569735D01*
X141665064Y-121569737D01*
X141819714Y-121600499D01*
X141819717Y-121600500D01*
X141819719Y-121600500D01*
X141977405Y-121600500D01*
X141977406Y-121600499D01*
X142132058Y-121569737D01*
X142277740Y-121509394D01*
X142408850Y-121421789D01*
X142520350Y-121310289D01*
X142607955Y-121179179D01*
X142611017Y-121171788D01*
X142657199Y-121060292D01*
X142668298Y-121033497D01*
X142699061Y-120878842D01*
X142699061Y-120721158D01*
X142699061Y-120721155D01*
X142699060Y-120721153D01*
X142688901Y-120670081D01*
X142668298Y-120566503D01*
X142668296Y-120566498D01*
X142607958Y-120420827D01*
X142607951Y-120420814D01*
X142520350Y-120289711D01*
X142520347Y-120289707D01*
X142408853Y-120178213D01*
X142408849Y-120178210D01*
X142277746Y-120090609D01*
X142277733Y-120090602D01*
X142132062Y-120030264D01*
X142132050Y-120030261D01*
X141977406Y-119999500D01*
X141977403Y-119999500D01*
X141819719Y-119999500D01*
X141819716Y-119999500D01*
X141665071Y-120030261D01*
X141665059Y-120030264D01*
X141519388Y-120090602D01*
X141519375Y-120090609D01*
X141388272Y-120178210D01*
X141388268Y-120178213D01*
X141276774Y-120289707D01*
X141276771Y-120289711D01*
X141189170Y-120420814D01*
X141189163Y-120420827D01*
X141128825Y-120566498D01*
X141128822Y-120566510D01*
X141098061Y-120721153D01*
X140776876Y-120721153D01*
X140782899Y-120690874D01*
X140795238Y-120628844D01*
X140795238Y-120471155D01*
X140795237Y-120471153D01*
X140764476Y-120316510D01*
X140764476Y-120316509D01*
X140764475Y-120316503D01*
X140764473Y-120316497D01*
X140704135Y-120170827D01*
X140704128Y-120170814D01*
X140616527Y-120039711D01*
X140616524Y-120039707D01*
X140505030Y-119928213D01*
X140505026Y-119928210D01*
X140373923Y-119840609D01*
X140373910Y-119840602D01*
X140228239Y-119780264D01*
X140228227Y-119780261D01*
X140073583Y-119749500D01*
X140073580Y-119749500D01*
X139915896Y-119749500D01*
X139915893Y-119749500D01*
X139761248Y-119780261D01*
X139761236Y-119780264D01*
X139615565Y-119840602D01*
X139615552Y-119840609D01*
X139538631Y-119892007D01*
X139471953Y-119912885D01*
X139404573Y-119894400D01*
X139400849Y-119892007D01*
X139323926Y-119840608D01*
X139323913Y-119840601D01*
X139178242Y-119780263D01*
X139178230Y-119780260D01*
X139023586Y-119749499D01*
X139023583Y-119749499D01*
X138865899Y-119749499D01*
X138865896Y-119749499D01*
X138711251Y-119780260D01*
X138711239Y-119780263D01*
X138565568Y-119840601D01*
X138565555Y-119840608D01*
X138434452Y-119928209D01*
X138434448Y-119928212D01*
X138322954Y-120039706D01*
X138322951Y-120039710D01*
X138235350Y-120170813D01*
X138235343Y-120170826D01*
X138175005Y-120316497D01*
X138175002Y-120316509D01*
X138144241Y-120471152D01*
X93300500Y-120471152D01*
X93300500Y-116871153D01*
X136098060Y-116871153D01*
X136098060Y-117028846D01*
X136128821Y-117183489D01*
X136128824Y-117183501D01*
X136189162Y-117329172D01*
X136189169Y-117329185D01*
X136276770Y-117460288D01*
X136276773Y-117460292D01*
X136388267Y-117571786D01*
X136388271Y-117571789D01*
X136519374Y-117659390D01*
X136519387Y-117659397D01*
X136665058Y-117719735D01*
X136665063Y-117719737D01*
X136819713Y-117750499D01*
X136819716Y-117750500D01*
X136819718Y-117750500D01*
X136977404Y-117750500D01*
X136977405Y-117750499D01*
X137132057Y-117719737D01*
X137277739Y-117659394D01*
X137408849Y-117571789D01*
X137520349Y-117460289D01*
X137607954Y-117329179D01*
X137668297Y-117183497D01*
X137668299Y-117183485D01*
X137669928Y-117178118D01*
X137708224Y-117119678D01*
X137772035Y-117091219D01*
X137841102Y-117101777D01*
X137893497Y-117148000D01*
X137910207Y-117189917D01*
X137928820Y-117283491D01*
X137928823Y-117283501D01*
X137989161Y-117429172D01*
X137989168Y-117429185D01*
X138076769Y-117560288D01*
X138076772Y-117560292D01*
X138188266Y-117671786D01*
X138188270Y-117671789D01*
X138319373Y-117759390D01*
X138319386Y-117759397D01*
X138465057Y-117819735D01*
X138465062Y-117819737D01*
X138619712Y-117850499D01*
X138619715Y-117850500D01*
X138619717Y-117850500D01*
X138777403Y-117850500D01*
X138777404Y-117850499D01*
X138932056Y-117819737D01*
X139077738Y-117759394D01*
X139208848Y-117671789D01*
X139320348Y-117560289D01*
X139407953Y-117429179D01*
X139468296Y-117283497D01*
X139499059Y-117128842D01*
X139499059Y-117121153D01*
X165999500Y-117121153D01*
X165999500Y-117278846D01*
X166030261Y-117433489D01*
X166030264Y-117433501D01*
X166090602Y-117579172D01*
X166090609Y-117579185D01*
X166178210Y-117710288D01*
X166178213Y-117710292D01*
X166289707Y-117821786D01*
X166289711Y-117821789D01*
X166420814Y-117909390D01*
X166420827Y-117909397D01*
X166566498Y-117969735D01*
X166566503Y-117969737D01*
X166721153Y-118000499D01*
X166721156Y-118000500D01*
X166721158Y-118000500D01*
X166878844Y-118000500D01*
X166878845Y-118000499D01*
X167033497Y-117969737D01*
X167179179Y-117909394D01*
X167310289Y-117821789D01*
X167421789Y-117710289D01*
X167509394Y-117579179D01*
X167569737Y-117433497D01*
X167600500Y-117278842D01*
X167600500Y-117121158D01*
X167600500Y-117121155D01*
X167600499Y-117121153D01*
X167569738Y-116966510D01*
X167569737Y-116966503D01*
X167569735Y-116966498D01*
X167509397Y-116820827D01*
X167509390Y-116820814D01*
X167484763Y-116783957D01*
X167442798Y-116721153D01*
X196199500Y-116721153D01*
X196199500Y-116878846D01*
X196230261Y-117033489D01*
X196230264Y-117033501D01*
X196290602Y-117179172D01*
X196290609Y-117179185D01*
X196378210Y-117310288D01*
X196378213Y-117310292D01*
X196489707Y-117421786D01*
X196489711Y-117421789D01*
X196620814Y-117509390D01*
X196620827Y-117509397D01*
X196766498Y-117569735D01*
X196766503Y-117569737D01*
X196921153Y-117600499D01*
X196921156Y-117600500D01*
X196921158Y-117600500D01*
X197078844Y-117600500D01*
X197078845Y-117600499D01*
X197233497Y-117569737D01*
X197379179Y-117509394D01*
X197510289Y-117421789D01*
X197621789Y-117310289D01*
X197709394Y-117179179D01*
X197709834Y-117178118D01*
X197769735Y-117033501D01*
X197769737Y-117033497D01*
X197800500Y-116878842D01*
X197800500Y-116721158D01*
X197800500Y-116721155D01*
X197800499Y-116721153D01*
X197772066Y-116578211D01*
X197769737Y-116566503D01*
X197769735Y-116566498D01*
X197709397Y-116420827D01*
X197709390Y-116420814D01*
X197621789Y-116289711D01*
X197621786Y-116289707D01*
X197510292Y-116178213D01*
X197510288Y-116178210D01*
X197379185Y-116090609D01*
X197379172Y-116090602D01*
X197233501Y-116030264D01*
X197233489Y-116030261D01*
X197078845Y-115999500D01*
X197078842Y-115999500D01*
X196921158Y-115999500D01*
X196921155Y-115999500D01*
X196766510Y-116030261D01*
X196766498Y-116030264D01*
X196620827Y-116090602D01*
X196620814Y-116090609D01*
X196489711Y-116178210D01*
X196489707Y-116178213D01*
X196378213Y-116289707D01*
X196378210Y-116289711D01*
X196290609Y-116420814D01*
X196290602Y-116420827D01*
X196230264Y-116566498D01*
X196230261Y-116566510D01*
X196199500Y-116721153D01*
X167442798Y-116721153D01*
X167421789Y-116689711D01*
X167421786Y-116689707D01*
X167310292Y-116578213D01*
X167310288Y-116578210D01*
X167179185Y-116490609D01*
X167179172Y-116490602D01*
X167033501Y-116430264D01*
X167033489Y-116430261D01*
X166878845Y-116399500D01*
X166878842Y-116399500D01*
X166721158Y-116399500D01*
X166721155Y-116399500D01*
X166566510Y-116430261D01*
X166566498Y-116430264D01*
X166420827Y-116490602D01*
X166420814Y-116490609D01*
X166289711Y-116578210D01*
X166289707Y-116578213D01*
X166178213Y-116689707D01*
X166178210Y-116689711D01*
X166090609Y-116820814D01*
X166090602Y-116820827D01*
X166030264Y-116966498D01*
X166030261Y-116966510D01*
X165999500Y-117121153D01*
X139499059Y-117121153D01*
X139499059Y-116971158D01*
X139499059Y-116971155D01*
X139499058Y-116971153D01*
X139498132Y-116966498D01*
X139468296Y-116816503D01*
X139426873Y-116716498D01*
X139407956Y-116670827D01*
X139407949Y-116670814D01*
X139320348Y-116539711D01*
X139320345Y-116539707D01*
X139208851Y-116428213D01*
X139208847Y-116428210D01*
X139077744Y-116340609D01*
X139077731Y-116340602D01*
X138932060Y-116280264D01*
X138932048Y-116280261D01*
X138777404Y-116249500D01*
X138777401Y-116249500D01*
X138619717Y-116249500D01*
X138619714Y-116249500D01*
X138465069Y-116280261D01*
X138465057Y-116280264D01*
X138319386Y-116340602D01*
X138319373Y-116340609D01*
X138188270Y-116428210D01*
X138188266Y-116428213D01*
X138076772Y-116539707D01*
X138076769Y-116539711D01*
X137989168Y-116670814D01*
X137989161Y-116670827D01*
X137928821Y-116816502D01*
X137927186Y-116821894D01*
X137888884Y-116880330D01*
X137825070Y-116908782D01*
X137756004Y-116898216D01*
X137703614Y-116851988D01*
X137686911Y-116810081D01*
X137684705Y-116798995D01*
X137668297Y-116716503D01*
X137668295Y-116716498D01*
X137607957Y-116570827D01*
X137607950Y-116570814D01*
X137520349Y-116439711D01*
X137520346Y-116439707D01*
X137408852Y-116328213D01*
X137408848Y-116328210D01*
X137277745Y-116240609D01*
X137277732Y-116240602D01*
X137132061Y-116180264D01*
X137132049Y-116180261D01*
X136977405Y-116149500D01*
X136977402Y-116149500D01*
X136819718Y-116149500D01*
X136819715Y-116149500D01*
X136665070Y-116180261D01*
X136665058Y-116180264D01*
X136519387Y-116240602D01*
X136519374Y-116240609D01*
X136388271Y-116328210D01*
X136388267Y-116328213D01*
X136276773Y-116439707D01*
X136276770Y-116439711D01*
X136189169Y-116570814D01*
X136189162Y-116570827D01*
X136128824Y-116716498D01*
X136128821Y-116716510D01*
X136098060Y-116871153D01*
X93300500Y-116871153D01*
X93300500Y-114203711D01*
X121749500Y-114203711D01*
X121749500Y-114446288D01*
X121775924Y-114647007D01*
X121781162Y-114686789D01*
X121812554Y-114803944D01*
X121843947Y-114921104D01*
X121889106Y-115030126D01*
X121936776Y-115145212D01*
X122058064Y-115355289D01*
X122058066Y-115355292D01*
X122058067Y-115355293D01*
X122205733Y-115547736D01*
X122205739Y-115547743D01*
X122377256Y-115719260D01*
X122377263Y-115719266D01*
X122381964Y-115722873D01*
X122569711Y-115866936D01*
X122779788Y-115988224D01*
X123003900Y-116081054D01*
X123238211Y-116143838D01*
X123418586Y-116167584D01*
X123478711Y-116175500D01*
X123478712Y-116175500D01*
X123721289Y-116175500D01*
X123769970Y-116169091D01*
X123961789Y-116143838D01*
X124196100Y-116081054D01*
X124420212Y-115988224D01*
X124630289Y-115866936D01*
X124822738Y-115719265D01*
X124994265Y-115547738D01*
X125141936Y-115355289D01*
X125263224Y-115145212D01*
X125356054Y-114921100D01*
X125418838Y-114686789D01*
X125450500Y-114446288D01*
X125450500Y-114203712D01*
X125418838Y-113963211D01*
X125356054Y-113728900D01*
X125263224Y-113504788D01*
X125141936Y-113294711D01*
X124994265Y-113102262D01*
X124994260Y-113102256D01*
X124822743Y-112930739D01*
X124822736Y-112930733D01*
X124818047Y-112927135D01*
X126749500Y-112927135D01*
X126749500Y-115722870D01*
X126749501Y-115722876D01*
X126755908Y-115782483D01*
X126806202Y-115917328D01*
X126806206Y-115917335D01*
X126892452Y-116032544D01*
X126892455Y-116032547D01*
X127007664Y-116118793D01*
X127007671Y-116118797D01*
X127142517Y-116169091D01*
X127142516Y-116169091D01*
X127149444Y-116169835D01*
X127202127Y-116175500D01*
X129997872Y-116175499D01*
X130057483Y-116169091D01*
X130192331Y-116118796D01*
X130307546Y-116032546D01*
X130393796Y-115917331D01*
X130444091Y-115782483D01*
X130450500Y-115722873D01*
X130450499Y-112927128D01*
X130444091Y-112867517D01*
X130443020Y-112864646D01*
X130393797Y-112732671D01*
X130393793Y-112732664D01*
X130307547Y-112617455D01*
X130307544Y-112617452D01*
X130192335Y-112531206D01*
X130192328Y-112531202D01*
X130057482Y-112480908D01*
X130057483Y-112480908D01*
X129997883Y-112474501D01*
X129997881Y-112474500D01*
X129997873Y-112474500D01*
X129997864Y-112474500D01*
X127202129Y-112474500D01*
X127202123Y-112474501D01*
X127142516Y-112480908D01*
X127007671Y-112531202D01*
X127007664Y-112531206D01*
X126892455Y-112617452D01*
X126892452Y-112617455D01*
X126806206Y-112732664D01*
X126806202Y-112732671D01*
X126755908Y-112867517D01*
X126750794Y-112915087D01*
X126749501Y-112927123D01*
X126749500Y-112927135D01*
X124818047Y-112927135D01*
X124630293Y-112783067D01*
X124630292Y-112783066D01*
X124630289Y-112783064D01*
X124420212Y-112661776D01*
X124420205Y-112661773D01*
X124196104Y-112568947D01*
X123961785Y-112506161D01*
X123721289Y-112474500D01*
X123721288Y-112474500D01*
X123478712Y-112474500D01*
X123478711Y-112474500D01*
X123238214Y-112506161D01*
X123003895Y-112568947D01*
X122779794Y-112661773D01*
X122779785Y-112661777D01*
X122569706Y-112783067D01*
X122377263Y-112930733D01*
X122377256Y-112930739D01*
X122205739Y-113102256D01*
X122205733Y-113102263D01*
X122058067Y-113294706D01*
X121936777Y-113504785D01*
X121936773Y-113504794D01*
X121843947Y-113728895D01*
X121781161Y-113963214D01*
X121749500Y-114203711D01*
X93300500Y-114203711D01*
X93300500Y-112323920D01*
X136999499Y-112323920D01*
X137028340Y-112468907D01*
X137028343Y-112468917D01*
X137084912Y-112605488D01*
X137084919Y-112605501D01*
X137167048Y-112728415D01*
X137167051Y-112728419D01*
X137271580Y-112832948D01*
X137271584Y-112832951D01*
X137394498Y-112915080D01*
X137394511Y-112915087D01*
X137531082Y-112971656D01*
X137531087Y-112971658D01*
X137531091Y-112971658D01*
X137531092Y-112971659D01*
X137676079Y-113000500D01*
X137676082Y-113000500D01*
X137823920Y-113000500D01*
X137921462Y-112981096D01*
X137968913Y-112971658D01*
X138105495Y-112915084D01*
X138228416Y-112832951D01*
X138332951Y-112728416D01*
X138415084Y-112605495D01*
X138471658Y-112468913D01*
X138500500Y-112323918D01*
X138500500Y-112176082D01*
X138500500Y-112176079D01*
X138471659Y-112031092D01*
X138471658Y-112031091D01*
X138471658Y-112031087D01*
X138445259Y-111967354D01*
X138415087Y-111894511D01*
X138415080Y-111894498D01*
X138332951Y-111771584D01*
X138332948Y-111771580D01*
X138228419Y-111667051D01*
X138228415Y-111667048D01*
X138105501Y-111584919D01*
X138105488Y-111584912D01*
X137968917Y-111528343D01*
X137968907Y-111528340D01*
X137823920Y-111499500D01*
X137823918Y-111499500D01*
X137676082Y-111499500D01*
X137676080Y-111499500D01*
X137531092Y-111528340D01*
X137531082Y-111528343D01*
X137394511Y-111584912D01*
X137394498Y-111584919D01*
X137271584Y-111667048D01*
X137271580Y-111667051D01*
X137167051Y-111771580D01*
X137167048Y-111771584D01*
X137084919Y-111894498D01*
X137084912Y-111894511D01*
X137028343Y-112031082D01*
X137028340Y-112031092D01*
X136999500Y-112176079D01*
X136999500Y-112176082D01*
X136999500Y-112323918D01*
X136999500Y-112323920D01*
X136999499Y-112323920D01*
X93300500Y-112323920D01*
X93300500Y-110321153D01*
X188799500Y-110321153D01*
X188799500Y-110478846D01*
X188830261Y-110633489D01*
X188830264Y-110633501D01*
X188890602Y-110779172D01*
X188890609Y-110779185D01*
X188978210Y-110910288D01*
X188978213Y-110910292D01*
X189089707Y-111021786D01*
X189089711Y-111021789D01*
X189220814Y-111109390D01*
X189220827Y-111109397D01*
X189366498Y-111169735D01*
X189366503Y-111169737D01*
X189507715Y-111197826D01*
X189521153Y-111200499D01*
X189521156Y-111200500D01*
X189521158Y-111200500D01*
X189678844Y-111200500D01*
X189678845Y-111200499D01*
X189833497Y-111169737D01*
X189979179Y-111109394D01*
X190110289Y-111021789D01*
X190221789Y-110910289D01*
X190309394Y-110779179D01*
X190369737Y-110633497D01*
X190400500Y-110478842D01*
X190400500Y-110321158D01*
X190400500Y-110321155D01*
X190400499Y-110321153D01*
X190384362Y-110240029D01*
X190369737Y-110166503D01*
X190347805Y-110113553D01*
X190309397Y-110020827D01*
X190309390Y-110020814D01*
X190221789Y-109889711D01*
X190221786Y-109889707D01*
X190110292Y-109778213D01*
X190110288Y-109778210D01*
X189979185Y-109690609D01*
X189979172Y-109690602D01*
X189833501Y-109630264D01*
X189833489Y-109630261D01*
X189678845Y-109599500D01*
X189678842Y-109599500D01*
X189521158Y-109599500D01*
X189521155Y-109599500D01*
X189366510Y-109630261D01*
X189366498Y-109630264D01*
X189220827Y-109690602D01*
X189220814Y-109690609D01*
X189089711Y-109778210D01*
X189089707Y-109778213D01*
X188978213Y-109889707D01*
X188978210Y-109889711D01*
X188890609Y-110020814D01*
X188890602Y-110020827D01*
X188830264Y-110166498D01*
X188830261Y-110166510D01*
X188799500Y-110321153D01*
X93300500Y-110321153D01*
X93300500Y-108073920D01*
X184499499Y-108073920D01*
X184528340Y-108218907D01*
X184528343Y-108218917D01*
X184584912Y-108355488D01*
X184584919Y-108355501D01*
X184667048Y-108478415D01*
X184667051Y-108478419D01*
X184771580Y-108582948D01*
X184771584Y-108582951D01*
X184894498Y-108665080D01*
X184894511Y-108665087D01*
X184982230Y-108701421D01*
X185031087Y-108721658D01*
X185031091Y-108721658D01*
X185031092Y-108721659D01*
X185176079Y-108750500D01*
X185176082Y-108750500D01*
X185323920Y-108750500D01*
X185421462Y-108731096D01*
X185468913Y-108721658D01*
X185605495Y-108665084D01*
X185728416Y-108582951D01*
X185832951Y-108478416D01*
X185915084Y-108355495D01*
X185971658Y-108218913D01*
X185988356Y-108134970D01*
X186000500Y-108073920D01*
X186000500Y-107926079D01*
X185971659Y-107781092D01*
X185971658Y-107781091D01*
X185971658Y-107781087D01*
X185921989Y-107661174D01*
X185915087Y-107644511D01*
X185915080Y-107644498D01*
X185832951Y-107521584D01*
X185832948Y-107521580D01*
X185728419Y-107417051D01*
X185728415Y-107417048D01*
X185605501Y-107334919D01*
X185605488Y-107334912D01*
X185468917Y-107278343D01*
X185468907Y-107278340D01*
X185323920Y-107249500D01*
X185323918Y-107249500D01*
X185176082Y-107249500D01*
X185176080Y-107249500D01*
X185031092Y-107278340D01*
X185031082Y-107278343D01*
X184894511Y-107334912D01*
X184894498Y-107334919D01*
X184771584Y-107417048D01*
X184771580Y-107417051D01*
X184667051Y-107521580D01*
X184667048Y-107521584D01*
X184584919Y-107644498D01*
X184584912Y-107644511D01*
X184528343Y-107781082D01*
X184528340Y-107781092D01*
X184499500Y-107926079D01*
X184499500Y-107926082D01*
X184499500Y-108073918D01*
X184499500Y-108073920D01*
X184499499Y-108073920D01*
X93300500Y-108073920D01*
X93300500Y-106383870D01*
X122824500Y-106383870D01*
X122824500Y-106616129D01*
X122860831Y-106845514D01*
X122932601Y-107066400D01*
X123025896Y-107249500D01*
X123038039Y-107273331D01*
X123174551Y-107461224D01*
X123338776Y-107625449D01*
X123526669Y-107761961D01*
X123602019Y-107800354D01*
X123733599Y-107867398D01*
X123733601Y-107867398D01*
X123733604Y-107867400D01*
X123954486Y-107939169D01*
X124072668Y-107957886D01*
X124183871Y-107975500D01*
X124183876Y-107975500D01*
X124416129Y-107975500D01*
X124517502Y-107959443D01*
X124645514Y-107939169D01*
X124866396Y-107867400D01*
X125073331Y-107761961D01*
X125261224Y-107625449D01*
X125425449Y-107461224D01*
X125561961Y-107273331D01*
X125667400Y-107066396D01*
X125739169Y-106845514D01*
X125769287Y-106655354D01*
X125775500Y-106616129D01*
X125775500Y-106383870D01*
X142824500Y-106383870D01*
X142824500Y-106616129D01*
X142860831Y-106845514D01*
X142932601Y-107066400D01*
X143025896Y-107249500D01*
X143038039Y-107273331D01*
X143174551Y-107461224D01*
X143338776Y-107625449D01*
X143526669Y-107761961D01*
X143602019Y-107800354D01*
X143733599Y-107867398D01*
X143733601Y-107867398D01*
X143733604Y-107867400D01*
X143954486Y-107939169D01*
X144072668Y-107957886D01*
X144183871Y-107975500D01*
X144183876Y-107975500D01*
X144416129Y-107975500D01*
X144517502Y-107959443D01*
X144645514Y-107939169D01*
X144866396Y-107867400D01*
X145073331Y-107761961D01*
X145261224Y-107625449D01*
X145425449Y-107461224D01*
X145561961Y-107273331D01*
X145667400Y-107066396D01*
X145739169Y-106845514D01*
X145769287Y-106655354D01*
X145775500Y-106616129D01*
X145775500Y-106383870D01*
X147824500Y-106383870D01*
X147824500Y-106616129D01*
X147860831Y-106845514D01*
X147932601Y-107066400D01*
X148025896Y-107249500D01*
X148038039Y-107273331D01*
X148174551Y-107461224D01*
X148338776Y-107625449D01*
X148526669Y-107761961D01*
X148602019Y-107800354D01*
X148733599Y-107867398D01*
X148733601Y-107867398D01*
X148733604Y-107867400D01*
X148954486Y-107939169D01*
X149072668Y-107957886D01*
X149183871Y-107975500D01*
X149183876Y-107975500D01*
X149416129Y-107975500D01*
X149517502Y-107959443D01*
X149645514Y-107939169D01*
X149866396Y-107867400D01*
X150073331Y-107761961D01*
X150261224Y-107625449D01*
X150425449Y-107461224D01*
X150561961Y-107273331D01*
X150667400Y-107066396D01*
X150714592Y-106921153D01*
X191799500Y-106921153D01*
X191799500Y-107078846D01*
X191830261Y-107233489D01*
X191830264Y-107233501D01*
X191890602Y-107379172D01*
X191890609Y-107379185D01*
X191978210Y-107510288D01*
X191978213Y-107510292D01*
X192089707Y-107621786D01*
X192089711Y-107621789D01*
X192220814Y-107709390D01*
X192220827Y-107709397D01*
X192347730Y-107761961D01*
X192366503Y-107769737D01*
X192520409Y-107800351D01*
X192521153Y-107800499D01*
X192521156Y-107800500D01*
X192521158Y-107800500D01*
X192678844Y-107800500D01*
X192678845Y-107800499D01*
X192833497Y-107769737D01*
X192979179Y-107709394D01*
X193110289Y-107621789D01*
X193221789Y-107510289D01*
X193309394Y-107379179D01*
X193369737Y-107233497D01*
X193400500Y-107078842D01*
X193400500Y-106921158D01*
X193400500Y-106921155D01*
X193400499Y-106921153D01*
X193385454Y-106845518D01*
X193369737Y-106766503D01*
X193323698Y-106655354D01*
X193309397Y-106620827D01*
X193309390Y-106620814D01*
X193221789Y-106489711D01*
X193221786Y-106489707D01*
X193110292Y-106378213D01*
X193110288Y-106378210D01*
X192979185Y-106290609D01*
X192979172Y-106290602D01*
X192833501Y-106230264D01*
X192833489Y-106230261D01*
X192678845Y-106199500D01*
X192678842Y-106199500D01*
X192521158Y-106199500D01*
X192521155Y-106199500D01*
X192366510Y-106230261D01*
X192366498Y-106230264D01*
X192220827Y-106290602D01*
X192220814Y-106290609D01*
X192089711Y-106378210D01*
X192089707Y-106378213D01*
X191978213Y-106489707D01*
X191978210Y-106489711D01*
X191890609Y-106620814D01*
X191890602Y-106620827D01*
X191830264Y-106766498D01*
X191830261Y-106766510D01*
X191799500Y-106921153D01*
X150714592Y-106921153D01*
X150739169Y-106845514D01*
X150769287Y-106655354D01*
X150775500Y-106616129D01*
X150775500Y-106383870D01*
X150754221Y-106249524D01*
X150739169Y-106154486D01*
X150667400Y-105933604D01*
X150667398Y-105933601D01*
X150667398Y-105933599D01*
X150561960Y-105726668D01*
X150520494Y-105669595D01*
X150425449Y-105538776D01*
X150261224Y-105374551D01*
X150073331Y-105238039D01*
X149926350Y-105163148D01*
X149866400Y-105132601D01*
X149709364Y-105081577D01*
X193709500Y-105081577D01*
X193709500Y-105278422D01*
X193740290Y-105472826D01*
X193801117Y-105660029D01*
X193890476Y-105835405D01*
X194006172Y-105994646D01*
X194145354Y-106133828D01*
X194235743Y-106199500D01*
X194270403Y-106224682D01*
X194313068Y-106280013D01*
X194319047Y-106349626D01*
X194286441Y-106411421D01*
X194270403Y-106425318D01*
X194145352Y-106516173D01*
X194006174Y-106655351D01*
X194006174Y-106655352D01*
X194006172Y-106655354D01*
X193956485Y-106723741D01*
X193890476Y-106814594D01*
X193801117Y-106989970D01*
X193740290Y-107177173D01*
X193709500Y-107371577D01*
X193709500Y-107568422D01*
X193740290Y-107762826D01*
X193801117Y-107950029D01*
X193864242Y-108073918D01*
X193890476Y-108125405D01*
X194006172Y-108284646D01*
X194145354Y-108423828D01*
X194220486Y-108478415D01*
X194270403Y-108514682D01*
X194313068Y-108570013D01*
X194319047Y-108639626D01*
X194286441Y-108701421D01*
X194270403Y-108715318D01*
X194145352Y-108806173D01*
X194006174Y-108945351D01*
X194006174Y-108945352D01*
X194006172Y-108945354D01*
X193956485Y-109013741D01*
X193890476Y-109104594D01*
X193801117Y-109279970D01*
X193740290Y-109467173D01*
X193709500Y-109661577D01*
X193709500Y-109858422D01*
X193740290Y-110052826D01*
X193801117Y-110240029D01*
X193842455Y-110321158D01*
X193890476Y-110415405D01*
X194006172Y-110574646D01*
X194145354Y-110713828D01*
X194235310Y-110779185D01*
X194270403Y-110804682D01*
X194313068Y-110860013D01*
X194319047Y-110929626D01*
X194286441Y-110991421D01*
X194270403Y-111005318D01*
X194145352Y-111096173D01*
X194006174Y-111235351D01*
X194006174Y-111235352D01*
X194006172Y-111235354D01*
X193956485Y-111303741D01*
X193890476Y-111394594D01*
X193801117Y-111569970D01*
X193740290Y-111757173D01*
X193709500Y-111951577D01*
X193709500Y-112148422D01*
X193740290Y-112342826D01*
X193801117Y-112530029D01*
X193890343Y-112705143D01*
X193890476Y-112705405D01*
X194006172Y-112864646D01*
X194145354Y-113003828D01*
X194254477Y-113083111D01*
X194270403Y-113094682D01*
X194313068Y-113150013D01*
X194319047Y-113219626D01*
X194286441Y-113281421D01*
X194270403Y-113295318D01*
X194145352Y-113386173D01*
X194006174Y-113525351D01*
X194006174Y-113525352D01*
X194006172Y-113525354D01*
X193956485Y-113593741D01*
X193890476Y-113684594D01*
X193801117Y-113859970D01*
X193740290Y-114047173D01*
X193709500Y-114241577D01*
X193709500Y-114438422D01*
X193740290Y-114632826D01*
X193801117Y-114820029D01*
X193852616Y-114921100D01*
X193890476Y-114995405D01*
X194006172Y-115154646D01*
X194145354Y-115293828D01*
X194304595Y-115409524D01*
X194387455Y-115451743D01*
X194479970Y-115498882D01*
X194479972Y-115498882D01*
X194479975Y-115498884D01*
X194580317Y-115531487D01*
X194667173Y-115559709D01*
X194861578Y-115590500D01*
X194861583Y-115590500D01*
X195058422Y-115590500D01*
X195252826Y-115559709D01*
X195289653Y-115547743D01*
X195440025Y-115498884D01*
X195615405Y-115409524D01*
X195774646Y-115293828D01*
X195913828Y-115154646D01*
X196029524Y-114995405D01*
X196118884Y-114820025D01*
X196179709Y-114632826D01*
X196195521Y-114532993D01*
X196210500Y-114438422D01*
X196210500Y-114241577D01*
X196179709Y-114047173D01*
X196118882Y-113859970D01*
X196052096Y-113728895D01*
X196029524Y-113684595D01*
X195913828Y-113525354D01*
X195774646Y-113386172D01*
X195649594Y-113295316D01*
X195606931Y-113239988D01*
X195600952Y-113170374D01*
X195633558Y-113108579D01*
X195649591Y-113094686D01*
X195774646Y-113003828D01*
X195913828Y-112864646D01*
X196029524Y-112705405D01*
X196118884Y-112530025D01*
X196179709Y-112342826D01*
X196195809Y-112241173D01*
X196210500Y-112148422D01*
X196210500Y-111951577D01*
X196179709Y-111757173D01*
X196144854Y-111649901D01*
X196118884Y-111569975D01*
X196118882Y-111569972D01*
X196118882Y-111569970D01*
X196071743Y-111477455D01*
X196029524Y-111394595D01*
X195913828Y-111235354D01*
X195774646Y-111096172D01*
X195649594Y-111005316D01*
X195606931Y-110949988D01*
X195600952Y-110880374D01*
X195633558Y-110818579D01*
X195649591Y-110804686D01*
X195774646Y-110713828D01*
X195913828Y-110574646D01*
X196029524Y-110415405D01*
X196118884Y-110240025D01*
X196179709Y-110052826D01*
X196195809Y-109951173D01*
X196210500Y-109858422D01*
X196210500Y-109661577D01*
X196179709Y-109467173D01*
X196118882Y-109279970D01*
X196071743Y-109187455D01*
X196029524Y-109104595D01*
X195913828Y-108945354D01*
X195774646Y-108806172D01*
X195649594Y-108715316D01*
X195606931Y-108659988D01*
X195600952Y-108590374D01*
X195633558Y-108528579D01*
X195649591Y-108514686D01*
X195774646Y-108423828D01*
X195913828Y-108284646D01*
X196029524Y-108125405D01*
X196118884Y-107950025D01*
X196179709Y-107762826D01*
X196188172Y-107709394D01*
X196210500Y-107568422D01*
X196210500Y-107371577D01*
X196179709Y-107177173D01*
X196118882Y-106989970D01*
X196045278Y-106845514D01*
X196029524Y-106814595D01*
X195913828Y-106655354D01*
X195774646Y-106516172D01*
X195649594Y-106425316D01*
X195606931Y-106369988D01*
X195600952Y-106300374D01*
X195633558Y-106238579D01*
X195649591Y-106224686D01*
X195774646Y-106133828D01*
X195913828Y-105994646D01*
X196029524Y-105835405D01*
X196118884Y-105660025D01*
X196179709Y-105472826D01*
X196195809Y-105371173D01*
X196210500Y-105278422D01*
X196210500Y-105081577D01*
X196179709Y-104887173D01*
X196118882Y-104699970D01*
X196029523Y-104524594D01*
X196022571Y-104515025D01*
X195913828Y-104365354D01*
X195774646Y-104226172D01*
X195615405Y-104110476D01*
X195479555Y-104041257D01*
X195440029Y-104021117D01*
X195252826Y-103960290D01*
X195103105Y-103936577D01*
X196249500Y-103936577D01*
X196249500Y-104133422D01*
X196280290Y-104327826D01*
X196341117Y-104515029D01*
X196430476Y-104690405D01*
X196546172Y-104849646D01*
X196685354Y-104988828D01*
X196734452Y-105024500D01*
X196810403Y-105079682D01*
X196853068Y-105135013D01*
X196859047Y-105204626D01*
X196826441Y-105266421D01*
X196810403Y-105280318D01*
X196685352Y-105371173D01*
X196546174Y-105510351D01*
X196546174Y-105510352D01*
X196546172Y-105510354D01*
X196525522Y-105538776D01*
X196430476Y-105669594D01*
X196341117Y-105844970D01*
X196280290Y-106032173D01*
X196249500Y-106226577D01*
X196249500Y-106423422D01*
X196280290Y-106617826D01*
X196341117Y-106805029D01*
X196400288Y-106921158D01*
X196430476Y-106980405D01*
X196546172Y-107139646D01*
X196685354Y-107278828D01*
X196762547Y-107334912D01*
X196810403Y-107369682D01*
X196853068Y-107425013D01*
X196859047Y-107494626D01*
X196826441Y-107556421D01*
X196810403Y-107570318D01*
X196685352Y-107661173D01*
X196546174Y-107800351D01*
X196546174Y-107800352D01*
X196546172Y-107800354D01*
X196529317Y-107823553D01*
X196430476Y-107959594D01*
X196341117Y-108134970D01*
X196280290Y-108322173D01*
X196249500Y-108516577D01*
X196249500Y-108713422D01*
X196280290Y-108907826D01*
X196341117Y-109095029D01*
X196425174Y-109260000D01*
X196430476Y-109270405D01*
X196546172Y-109429646D01*
X196685354Y-109568828D01*
X196769909Y-109630261D01*
X196810403Y-109659682D01*
X196853068Y-109715013D01*
X196859047Y-109784626D01*
X196826441Y-109846421D01*
X196810403Y-109860318D01*
X196685352Y-109951173D01*
X196546174Y-110090351D01*
X196546174Y-110090352D01*
X196546172Y-110090354D01*
X196529317Y-110113553D01*
X196430476Y-110249594D01*
X196341117Y-110424970D01*
X196280290Y-110612173D01*
X196249500Y-110806577D01*
X196249500Y-111003422D01*
X196280290Y-111197826D01*
X196341117Y-111385029D01*
X196414138Y-111528340D01*
X196430476Y-111560405D01*
X196546172Y-111719646D01*
X196685354Y-111858828D01*
X196794477Y-111938111D01*
X196810403Y-111949682D01*
X196853068Y-112005013D01*
X196859047Y-112074626D01*
X196826441Y-112136421D01*
X196810403Y-112150318D01*
X196685352Y-112241173D01*
X196546174Y-112380351D01*
X196546174Y-112380352D01*
X196546172Y-112380354D01*
X196529317Y-112403553D01*
X196430476Y-112539594D01*
X196341117Y-112714970D01*
X196280290Y-112902173D01*
X196249500Y-113096577D01*
X196249500Y-113293422D01*
X196280290Y-113487826D01*
X196341117Y-113675029D01*
X196425174Y-113840000D01*
X196430476Y-113850405D01*
X196546172Y-114009646D01*
X196685354Y-114148828D01*
X196844595Y-114264524D01*
X196927455Y-114306743D01*
X197019970Y-114353882D01*
X197019972Y-114353882D01*
X197019975Y-114353884D01*
X197120317Y-114386487D01*
X197207173Y-114414709D01*
X197401578Y-114445500D01*
X197401583Y-114445500D01*
X197598422Y-114445500D01*
X197792826Y-114414709D01*
X197820165Y-114405826D01*
X197980025Y-114353884D01*
X198155405Y-114264524D01*
X198314646Y-114148828D01*
X198453828Y-114009646D01*
X198569524Y-113850405D01*
X198658884Y-113675025D01*
X198719709Y-113487826D01*
X198735809Y-113386173D01*
X198745628Y-113324181D01*
X198745628Y-113324180D01*
X198750500Y-113293421D01*
X198750500Y-113096577D01*
X198719709Y-112902173D01*
X198691487Y-112815317D01*
X198658884Y-112714975D01*
X198658882Y-112714972D01*
X198658882Y-112714970D01*
X198609194Y-112617452D01*
X198569524Y-112539595D01*
X198453828Y-112380354D01*
X198314646Y-112241172D01*
X198189594Y-112150316D01*
X198172725Y-112128439D01*
X198153307Y-112108795D01*
X198151693Y-112101163D01*
X198146931Y-112094988D01*
X198144567Y-112067468D01*
X198138851Y-112040438D01*
X198141619Y-112033144D01*
X198140952Y-112025374D01*
X198153843Y-112000941D01*
X198163647Y-111975116D01*
X198171566Y-111967354D01*
X198173558Y-111963579D01*
X198188748Y-111950304D01*
X198189149Y-111950006D01*
X198314646Y-111858828D01*
X198453828Y-111719646D01*
X198569524Y-111560405D01*
X198658884Y-111385025D01*
X198719709Y-111197826D01*
X198735809Y-111096173D01*
X198745628Y-111034181D01*
X198745628Y-111034180D01*
X198750500Y-111003421D01*
X198750500Y-110806577D01*
X198719709Y-110612173D01*
X198676387Y-110478844D01*
X198658884Y-110424975D01*
X198658882Y-110424972D01*
X198658882Y-110424970D01*
X198605984Y-110321153D01*
X198569524Y-110249595D01*
X198453828Y-110090354D01*
X198314646Y-109951172D01*
X198189594Y-109860316D01*
X198172725Y-109838439D01*
X198153307Y-109818795D01*
X198151693Y-109811163D01*
X198146931Y-109804988D01*
X198144567Y-109777468D01*
X198138851Y-109750438D01*
X198141619Y-109743144D01*
X198140952Y-109735374D01*
X198153843Y-109710941D01*
X198163647Y-109685116D01*
X198171566Y-109677354D01*
X198173558Y-109673579D01*
X198188748Y-109660304D01*
X198189149Y-109660006D01*
X198314646Y-109568828D01*
X198453828Y-109429646D01*
X198569524Y-109270405D01*
X198658884Y-109095025D01*
X198719709Y-108907826D01*
X198735809Y-108806173D01*
X198745628Y-108744181D01*
X198745628Y-108744180D01*
X198750500Y-108713421D01*
X198750500Y-108516577D01*
X198719709Y-108322173D01*
X198667056Y-108160126D01*
X198658884Y-108134975D01*
X198658882Y-108134972D01*
X198658882Y-108134970D01*
X198577628Y-107975500D01*
X198569524Y-107959595D01*
X198453828Y-107800354D01*
X198314646Y-107661172D01*
X198189594Y-107570316D01*
X198172725Y-107548439D01*
X198153307Y-107528795D01*
X198151693Y-107521163D01*
X198146931Y-107514988D01*
X198144567Y-107487468D01*
X198138851Y-107460438D01*
X198141619Y-107453144D01*
X198140952Y-107445374D01*
X198153843Y-107420941D01*
X198163647Y-107395116D01*
X198171566Y-107387354D01*
X198173558Y-107383579D01*
X198188748Y-107370304D01*
X198189149Y-107370006D01*
X198314646Y-107278828D01*
X198453828Y-107139646D01*
X198569524Y-106980405D01*
X198658884Y-106805025D01*
X198719709Y-106617826D01*
X198735809Y-106516173D01*
X198750500Y-106423422D01*
X198750500Y-106226577D01*
X198719709Y-106032173D01*
X198658882Y-105844970D01*
X198569523Y-105669594D01*
X198562571Y-105660025D01*
X198453828Y-105510354D01*
X198314646Y-105371172D01*
X198189594Y-105280316D01*
X198172729Y-105258444D01*
X198153310Y-105238801D01*
X198151695Y-105231166D01*
X198146931Y-105224988D01*
X198144567Y-105197469D01*
X198138851Y-105170444D01*
X198141619Y-105163148D01*
X198140952Y-105155374D01*
X198153842Y-105130944D01*
X198163643Y-105105121D01*
X198171565Y-105097355D01*
X198173558Y-105093579D01*
X198187291Y-105081577D01*
X198789500Y-105081577D01*
X198789500Y-105278422D01*
X198820290Y-105472826D01*
X198881117Y-105660029D01*
X198970476Y-105835405D01*
X199086172Y-105994646D01*
X199225354Y-106133828D01*
X199315743Y-106199500D01*
X199350827Y-106224990D01*
X199393492Y-106280321D01*
X199399471Y-106349934D01*
X199366865Y-106411729D01*
X199350825Y-106425627D01*
X199349873Y-106426318D01*
X199349872Y-106426320D01*
X199910590Y-106987037D01*
X199847007Y-107004075D01*
X199732993Y-107069901D01*
X199639901Y-107162993D01*
X199574075Y-107277007D01*
X199557037Y-107340590D01*
X198996320Y-106779872D01*
X198996320Y-106779873D01*
X198970902Y-106814859D01*
X198970899Y-106814863D01*
X198881582Y-106990161D01*
X198820778Y-107177294D01*
X198790000Y-107371617D01*
X198790000Y-107568382D01*
X198820778Y-107762705D01*
X198881581Y-107949835D01*
X198970905Y-108125145D01*
X198996319Y-108160125D01*
X198996320Y-108160125D01*
X199557037Y-107599408D01*
X199574075Y-107662993D01*
X199639901Y-107777007D01*
X199732993Y-107870099D01*
X199847007Y-107935925D01*
X199910590Y-107952962D01*
X199349873Y-108513677D01*
X199349873Y-108513679D01*
X199351252Y-108514681D01*
X199368163Y-108536612D01*
X199387610Y-108556331D01*
X199389199Y-108563891D01*
X199393918Y-108570010D01*
X199396287Y-108597600D01*
X199401987Y-108624705D01*
X199399547Y-108635554D01*
X199399897Y-108639624D01*
X199397693Y-108643800D01*
X199394244Y-108659140D01*
X199366231Y-108732678D01*
X199910591Y-109277037D01*
X199847007Y-109294075D01*
X199732993Y-109359901D01*
X199639901Y-109452993D01*
X199574075Y-109567007D01*
X199557037Y-109630590D01*
X198996320Y-109069872D01*
X198996320Y-109069873D01*
X198970902Y-109104859D01*
X198970899Y-109104863D01*
X198881582Y-109280161D01*
X198820778Y-109467294D01*
X198790000Y-109661617D01*
X198790000Y-109858382D01*
X198820778Y-110052705D01*
X198881581Y-110239835D01*
X198970905Y-110415145D01*
X198996319Y-110450125D01*
X198996320Y-110450125D01*
X199557037Y-109889408D01*
X199574075Y-109952993D01*
X199639901Y-110067007D01*
X199732993Y-110160099D01*
X199847007Y-110225925D01*
X199910590Y-110242962D01*
X199349873Y-110803677D01*
X199349873Y-110803679D01*
X199351252Y-110804681D01*
X199368163Y-110826612D01*
X199387610Y-110846331D01*
X199389199Y-110853891D01*
X199393918Y-110860010D01*
X199396287Y-110887600D01*
X199401987Y-110914705D01*
X199399547Y-110925554D01*
X199399897Y-110929624D01*
X199397693Y-110933800D01*
X199394244Y-110949140D01*
X199366231Y-111022678D01*
X199910591Y-111567037D01*
X199847007Y-111584075D01*
X199732993Y-111649901D01*
X199639901Y-111742993D01*
X199574075Y-111857007D01*
X199557037Y-111920590D01*
X198996320Y-111359872D01*
X198996320Y-111359873D01*
X198970902Y-111394859D01*
X198970899Y-111394863D01*
X198881582Y-111570161D01*
X198820778Y-111757294D01*
X198790000Y-111951617D01*
X198790000Y-112148382D01*
X198820778Y-112342705D01*
X198881581Y-112529835D01*
X198970905Y-112705145D01*
X198996319Y-112740125D01*
X198996320Y-112740125D01*
X199557037Y-112179408D01*
X199574075Y-112242993D01*
X199639901Y-112357007D01*
X199732993Y-112450099D01*
X199847007Y-112515925D01*
X199910590Y-112532962D01*
X199349873Y-113093677D01*
X199349873Y-113093679D01*
X199351252Y-113094681D01*
X199368163Y-113116612D01*
X199387610Y-113136331D01*
X199389199Y-113143891D01*
X199393918Y-113150010D01*
X199396287Y-113177600D01*
X199401987Y-113204705D01*
X199399547Y-113215554D01*
X199399897Y-113219624D01*
X199397693Y-113223800D01*
X199394244Y-113239140D01*
X199366231Y-113312678D01*
X199910591Y-113857037D01*
X199847007Y-113874075D01*
X199732993Y-113939901D01*
X199639901Y-114032993D01*
X199574075Y-114147007D01*
X199557037Y-114210590D01*
X198996320Y-113649872D01*
X198996320Y-113649873D01*
X198970902Y-113684859D01*
X198970899Y-113684863D01*
X198881582Y-113860161D01*
X198820778Y-114047294D01*
X198790000Y-114241617D01*
X198790000Y-114438382D01*
X198820778Y-114632705D01*
X198881581Y-114819835D01*
X198970905Y-114995145D01*
X198996319Y-115030125D01*
X198996320Y-115030125D01*
X199557037Y-114469408D01*
X199574075Y-114532993D01*
X199639901Y-114647007D01*
X199732993Y-114740099D01*
X199847007Y-114805925D01*
X199910590Y-114822962D01*
X199349873Y-115383677D01*
X199349873Y-115383678D01*
X199384858Y-115409096D01*
X199560164Y-115498418D01*
X199747294Y-115559221D01*
X199941618Y-115590000D01*
X200138382Y-115590000D01*
X200332705Y-115559221D01*
X200519835Y-115498418D01*
X200695143Y-115409095D01*
X200730125Y-115383678D01*
X200730126Y-115383678D01*
X200169410Y-114822962D01*
X200232993Y-114805925D01*
X200347007Y-114740099D01*
X200440099Y-114647007D01*
X200505925Y-114532993D01*
X200522962Y-114469410D01*
X201083678Y-115030126D01*
X201083678Y-115030125D01*
X201109095Y-114995143D01*
X201198418Y-114819835D01*
X201259221Y-114632705D01*
X201290000Y-114438382D01*
X201290000Y-114241617D01*
X201259221Y-114047294D01*
X201198418Y-113860164D01*
X201109096Y-113684858D01*
X201083678Y-113649873D01*
X201083677Y-113649873D01*
X200522962Y-114210589D01*
X200505925Y-114147007D01*
X200440099Y-114032993D01*
X200347007Y-113939901D01*
X200232993Y-113874075D01*
X200169409Y-113857037D01*
X200730125Y-113296320D01*
X200730125Y-113296319D01*
X200728747Y-113295318D01*
X200686081Y-113239989D01*
X200680100Y-113170376D01*
X200712705Y-113108580D01*
X200728747Y-113094680D01*
X200730126Y-113093678D01*
X200169410Y-112532962D01*
X200232993Y-112515925D01*
X200347007Y-112450099D01*
X200440099Y-112357007D01*
X200505925Y-112242993D01*
X200522962Y-112179410D01*
X201083678Y-112740126D01*
X201083678Y-112740125D01*
X201109095Y-112705143D01*
X201198418Y-112529835D01*
X201259221Y-112342705D01*
X201290000Y-112148382D01*
X201290000Y-111951617D01*
X201259221Y-111757294D01*
X201198418Y-111570164D01*
X201109096Y-111394858D01*
X201083678Y-111359873D01*
X201083677Y-111359873D01*
X200522962Y-111920589D01*
X200505925Y-111857007D01*
X200440099Y-111742993D01*
X200347007Y-111649901D01*
X200232993Y-111584075D01*
X200169409Y-111567037D01*
X200730125Y-111006320D01*
X200730125Y-111006319D01*
X200728747Y-111005318D01*
X200686081Y-110949989D01*
X200680100Y-110880376D01*
X200712705Y-110818580D01*
X200728747Y-110804680D01*
X200730126Y-110803678D01*
X200169410Y-110242962D01*
X200232993Y-110225925D01*
X200347007Y-110160099D01*
X200440099Y-110067007D01*
X200505925Y-109952993D01*
X200522962Y-109889410D01*
X201083678Y-110450126D01*
X201083678Y-110450125D01*
X201109095Y-110415143D01*
X201198418Y-110239835D01*
X201259221Y-110052705D01*
X201290000Y-109858382D01*
X201290000Y-109661617D01*
X201259221Y-109467294D01*
X201198418Y-109280164D01*
X201109096Y-109104858D01*
X201083678Y-109069873D01*
X201083677Y-109069873D01*
X200522962Y-109630589D01*
X200505925Y-109567007D01*
X200440099Y-109452993D01*
X200347007Y-109359901D01*
X200232993Y-109294075D01*
X200169409Y-109277037D01*
X200730125Y-108716320D01*
X200730125Y-108716319D01*
X200728747Y-108715318D01*
X200686081Y-108659989D01*
X200680100Y-108590376D01*
X200712705Y-108528580D01*
X200728747Y-108514680D01*
X200730126Y-108513678D01*
X200169410Y-107952962D01*
X200232993Y-107935925D01*
X200347007Y-107870099D01*
X200440099Y-107777007D01*
X200505925Y-107662993D01*
X200522962Y-107599410D01*
X201083678Y-108160126D01*
X201083678Y-108160125D01*
X201109095Y-108125143D01*
X201198418Y-107949835D01*
X201259221Y-107762705D01*
X201290000Y-107568382D01*
X201290000Y-107371617D01*
X201259221Y-107177294D01*
X201198418Y-106990164D01*
X201109096Y-106814858D01*
X201083678Y-106779873D01*
X201083677Y-106779873D01*
X200522962Y-107340589D01*
X200505925Y-107277007D01*
X200440099Y-107162993D01*
X200347007Y-107069901D01*
X200232993Y-107004075D01*
X200169409Y-106987037D01*
X200730125Y-106426320D01*
X200730125Y-106426319D01*
X200729172Y-106425627D01*
X200686506Y-106370297D01*
X200680527Y-106300684D01*
X200713132Y-106238888D01*
X200729166Y-106224994D01*
X200854646Y-106133828D01*
X200993828Y-105994646D01*
X201109524Y-105835405D01*
X201198884Y-105660025D01*
X201259709Y-105472826D01*
X201275809Y-105371173D01*
X201290500Y-105278422D01*
X201290500Y-105081577D01*
X201259709Y-104887173D01*
X201198882Y-104699970D01*
X201109523Y-104524594D01*
X201102571Y-104515025D01*
X200993828Y-104365354D01*
X200854646Y-104226172D01*
X200695405Y-104110476D01*
X200520029Y-104021117D01*
X200332826Y-103960290D01*
X200138422Y-103929500D01*
X200138417Y-103929500D01*
X199941583Y-103929500D01*
X199941578Y-103929500D01*
X199747173Y-103960290D01*
X199559970Y-104021117D01*
X199384594Y-104110476D01*
X199293741Y-104176485D01*
X199225354Y-104226172D01*
X199225352Y-104226174D01*
X199225351Y-104226174D01*
X199086174Y-104365351D01*
X199086174Y-104365352D01*
X199086172Y-104365354D01*
X199036485Y-104433741D01*
X198970476Y-104524594D01*
X198881117Y-104699970D01*
X198820290Y-104887173D01*
X198789500Y-105081577D01*
X198187291Y-105081577D01*
X198188743Y-105080308D01*
X198189170Y-105079991D01*
X198314646Y-104988828D01*
X198453828Y-104849646D01*
X198569524Y-104690405D01*
X198658884Y-104515025D01*
X198719709Y-104327826D01*
X198735809Y-104226174D01*
X198750500Y-104133422D01*
X198750500Y-103936577D01*
X198719709Y-103742173D01*
X198658882Y-103554970D01*
X198569523Y-103379594D01*
X198526225Y-103320000D01*
X198453828Y-103220354D01*
X198314646Y-103081172D01*
X198155405Y-102965476D01*
X197980029Y-102876117D01*
X197792826Y-102815290D01*
X197598422Y-102784500D01*
X197598417Y-102784500D01*
X197401583Y-102784500D01*
X197401578Y-102784500D01*
X197207173Y-102815290D01*
X197019970Y-102876117D01*
X196844594Y-102965476D01*
X196753741Y-103031485D01*
X196685354Y-103081172D01*
X196685352Y-103081174D01*
X196685351Y-103081174D01*
X196546174Y-103220351D01*
X196546174Y-103220352D01*
X196546172Y-103220354D01*
X196496485Y-103288741D01*
X196430476Y-103379594D01*
X196341117Y-103554970D01*
X196280290Y-103742173D01*
X196249500Y-103936577D01*
X195103105Y-103936577D01*
X195058422Y-103929500D01*
X195058417Y-103929500D01*
X194861583Y-103929500D01*
X194861578Y-103929500D01*
X194667173Y-103960290D01*
X194479970Y-104021117D01*
X194304594Y-104110476D01*
X194213741Y-104176485D01*
X194145354Y-104226172D01*
X194145352Y-104226174D01*
X194145351Y-104226174D01*
X194006174Y-104365351D01*
X194006174Y-104365352D01*
X194006172Y-104365354D01*
X193956485Y-104433741D01*
X193890476Y-104524594D01*
X193801117Y-104699970D01*
X193740290Y-104887173D01*
X193709500Y-105081577D01*
X149709364Y-105081577D01*
X149645514Y-105060831D01*
X149416129Y-105024500D01*
X149416124Y-105024500D01*
X149183876Y-105024500D01*
X149183871Y-105024500D01*
X148954485Y-105060831D01*
X148733599Y-105132601D01*
X148526668Y-105238039D01*
X148338773Y-105374553D01*
X148174553Y-105538773D01*
X148038039Y-105726668D01*
X147932601Y-105933599D01*
X147860831Y-106154485D01*
X147824500Y-106383870D01*
X145775500Y-106383870D01*
X145754221Y-106249524D01*
X145739169Y-106154486D01*
X145667400Y-105933604D01*
X145667398Y-105933601D01*
X145667398Y-105933599D01*
X145561960Y-105726668D01*
X145520494Y-105669595D01*
X145425449Y-105538776D01*
X145261224Y-105374551D01*
X145073331Y-105238039D01*
X145007755Y-105204626D01*
X144866400Y-105132601D01*
X144645514Y-105060831D01*
X144416129Y-105024500D01*
X144416124Y-105024500D01*
X144183876Y-105024500D01*
X144183871Y-105024500D01*
X143954485Y-105060831D01*
X143733599Y-105132601D01*
X143526668Y-105238039D01*
X143338773Y-105374553D01*
X143174553Y-105538773D01*
X143038039Y-105726668D01*
X142932601Y-105933599D01*
X142860831Y-106154485D01*
X142824500Y-106383870D01*
X125775500Y-106383870D01*
X125754221Y-106249524D01*
X125739169Y-106154486D01*
X125667400Y-105933604D01*
X125667398Y-105933601D01*
X125667398Y-105933599D01*
X125561960Y-105726668D01*
X125520494Y-105669595D01*
X125425449Y-105538776D01*
X125261224Y-105374551D01*
X125073331Y-105238039D01*
X125007755Y-105204626D01*
X124866400Y-105132601D01*
X124645514Y-105060831D01*
X124416129Y-105024500D01*
X124416124Y-105024500D01*
X124183876Y-105024500D01*
X124183871Y-105024500D01*
X123954485Y-105060831D01*
X123733599Y-105132601D01*
X123526668Y-105238039D01*
X123338773Y-105374553D01*
X123174553Y-105538773D01*
X123038039Y-105726668D01*
X122932601Y-105933599D01*
X122860831Y-106154485D01*
X122824500Y-106383870D01*
X93300500Y-106383870D01*
X93300500Y-100072155D01*
X95774999Y-100072155D01*
X95774999Y-101220000D01*
X96757095Y-101220000D01*
X96724999Y-101381358D01*
X96724999Y-101558642D01*
X96757095Y-101720000D01*
X95774999Y-101720000D01*
X95774999Y-102867844D01*
X95781400Y-102927372D01*
X95781402Y-102927379D01*
X95831644Y-103062086D01*
X95831648Y-103062093D01*
X95917808Y-103177187D01*
X95917811Y-103177190D01*
X96032905Y-103263350D01*
X96032912Y-103263354D01*
X96167619Y-103313596D01*
X96167626Y-103313598D01*
X96227154Y-103319999D01*
X96227171Y-103320000D01*
X97374999Y-103320000D01*
X97374999Y-102337904D01*
X97536357Y-102370000D01*
X97713641Y-102370000D01*
X97874999Y-102337904D01*
X97874999Y-103320000D01*
X99022827Y-103320000D01*
X99022843Y-103319999D01*
X99082371Y-103313598D01*
X99082378Y-103313596D01*
X99217085Y-103263354D01*
X99217092Y-103263350D01*
X99332186Y-103177190D01*
X99332189Y-103177187D01*
X99418349Y-103062093D01*
X99418353Y-103062086D01*
X99468595Y-102927379D01*
X99468597Y-102927372D01*
X99474998Y-102867844D01*
X99474999Y-102867827D01*
X99474999Y-101720000D01*
X98492903Y-101720000D01*
X98524999Y-101558642D01*
X98524999Y-101381358D01*
X98492903Y-101220000D01*
X99474999Y-101220000D01*
X99474999Y-100072172D01*
X99474998Y-100072155D01*
X99468597Y-100012627D01*
X99468595Y-100012620D01*
X99418353Y-99877913D01*
X99418349Y-99877906D01*
X99332189Y-99762812D01*
X99332186Y-99762809D01*
X99217092Y-99676649D01*
X99217085Y-99676645D01*
X99082378Y-99626403D01*
X99082371Y-99626401D01*
X99022843Y-99620000D01*
X97874999Y-99620000D01*
X97874999Y-100602095D01*
X97713641Y-100570000D01*
X97536357Y-100570000D01*
X97374999Y-100602095D01*
X97374999Y-99620000D01*
X96227154Y-99620000D01*
X96167626Y-99626401D01*
X96167619Y-99626403D01*
X96032912Y-99676645D01*
X96032905Y-99676649D01*
X95917811Y-99762809D01*
X95917808Y-99762812D01*
X95831648Y-99877906D01*
X95831644Y-99877913D01*
X95781402Y-100012620D01*
X95781400Y-100012627D01*
X95774999Y-100072155D01*
X93300500Y-100072155D01*
X93300500Y-98883870D01*
X122824500Y-98883870D01*
X122824500Y-99116129D01*
X122860831Y-99345514D01*
X122932601Y-99566400D01*
X123032678Y-99762809D01*
X123038039Y-99773331D01*
X123174551Y-99961224D01*
X123338776Y-100125449D01*
X123526669Y-100261961D01*
X123624436Y-100311776D01*
X123733599Y-100367398D01*
X123733601Y-100367398D01*
X123733604Y-100367400D01*
X123954486Y-100439169D01*
X124072668Y-100457886D01*
X124183871Y-100475500D01*
X124183876Y-100475500D01*
X124416129Y-100475500D01*
X124517502Y-100459443D01*
X124645514Y-100439169D01*
X124866396Y-100367400D01*
X125073331Y-100261961D01*
X125261224Y-100125449D01*
X125425449Y-99961224D01*
X125561961Y-99773331D01*
X125667400Y-99566396D01*
X125739169Y-99345514D01*
X125759443Y-99217502D01*
X125775500Y-99116129D01*
X125775500Y-98883870D01*
X142824500Y-98883870D01*
X142824500Y-99116129D01*
X142860831Y-99345514D01*
X142932601Y-99566400D01*
X143032678Y-99762809D01*
X143038039Y-99773331D01*
X143174551Y-99961224D01*
X143338776Y-100125449D01*
X143526669Y-100261961D01*
X143624436Y-100311776D01*
X143733599Y-100367398D01*
X143733601Y-100367398D01*
X143733604Y-100367400D01*
X143954486Y-100439169D01*
X144072668Y-100457886D01*
X144183871Y-100475500D01*
X144183876Y-100475500D01*
X144416129Y-100475500D01*
X144517502Y-100459443D01*
X144645514Y-100439169D01*
X144866396Y-100367400D01*
X145073331Y-100261961D01*
X145261224Y-100125449D01*
X145425449Y-99961224D01*
X145561961Y-99773331D01*
X145667400Y-99566396D01*
X145739169Y-99345514D01*
X145759443Y-99217502D01*
X145775500Y-99116129D01*
X145775500Y-98883870D01*
X147824500Y-98883870D01*
X147824500Y-99116129D01*
X147860831Y-99345514D01*
X147932601Y-99566400D01*
X148032678Y-99762809D01*
X148038039Y-99773331D01*
X148174551Y-99961224D01*
X148338776Y-100125449D01*
X148526669Y-100261961D01*
X148624436Y-100311776D01*
X148733599Y-100367398D01*
X148733601Y-100367398D01*
X148733604Y-100367400D01*
X148954486Y-100439169D01*
X149072668Y-100457886D01*
X149183871Y-100475500D01*
X149183876Y-100475500D01*
X149416129Y-100475500D01*
X149517502Y-100459443D01*
X149645514Y-100439169D01*
X149866396Y-100367400D01*
X150073331Y-100261961D01*
X150261224Y-100125449D01*
X150425449Y-99961224D01*
X150561961Y-99773331D01*
X150667400Y-99566396D01*
X150739169Y-99345514D01*
X150759443Y-99217502D01*
X150775500Y-99116129D01*
X150775500Y-98883870D01*
X150754217Y-98749499D01*
X150739169Y-98654486D01*
X150739168Y-98654482D01*
X150739168Y-98654481D01*
X150712992Y-98573920D01*
X163749499Y-98573920D01*
X163778340Y-98718907D01*
X163778343Y-98718917D01*
X163834912Y-98855488D01*
X163834919Y-98855501D01*
X163917048Y-98978415D01*
X163917051Y-98978419D01*
X164021580Y-99082948D01*
X164021584Y-99082951D01*
X164144498Y-99165080D01*
X164144511Y-99165087D01*
X164281082Y-99221656D01*
X164281087Y-99221658D01*
X164281091Y-99221658D01*
X164281092Y-99221659D01*
X164426079Y-99250500D01*
X164426082Y-99250500D01*
X164573920Y-99250500D01*
X164671462Y-99231096D01*
X164718913Y-99221658D01*
X164855495Y-99165084D01*
X164978416Y-99082951D01*
X165082951Y-98978416D01*
X165165084Y-98855495D01*
X165221658Y-98718913D01*
X165250500Y-98573918D01*
X165250500Y-98426082D01*
X165250500Y-98426079D01*
X165221659Y-98281092D01*
X165221658Y-98281091D01*
X165221658Y-98281087D01*
X165221656Y-98281082D01*
X165165087Y-98144511D01*
X165165080Y-98144498D01*
X165082951Y-98021584D01*
X165082948Y-98021580D01*
X164978419Y-97917051D01*
X164978415Y-97917048D01*
X164855501Y-97834919D01*
X164855488Y-97834912D01*
X164718917Y-97778343D01*
X164718907Y-97778340D01*
X164573920Y-97749500D01*
X164573918Y-97749500D01*
X164426082Y-97749500D01*
X164426080Y-97749500D01*
X164281092Y-97778340D01*
X164281082Y-97778343D01*
X164144511Y-97834912D01*
X164144498Y-97834919D01*
X164021584Y-97917048D01*
X164021580Y-97917051D01*
X163917051Y-98021580D01*
X163917048Y-98021584D01*
X163834919Y-98144498D01*
X163834912Y-98144511D01*
X163778343Y-98281082D01*
X163778340Y-98281092D01*
X163749500Y-98426079D01*
X163749500Y-98426082D01*
X163749500Y-98573918D01*
X163749500Y-98573920D01*
X163749499Y-98573920D01*
X150712992Y-98573920D01*
X150675427Y-98458308D01*
X150675426Y-98458306D01*
X150667400Y-98433603D01*
X150561960Y-98226668D01*
X150561514Y-98226054D01*
X150425449Y-98038776D01*
X150261224Y-97874551D01*
X150073331Y-97738039D01*
X150015564Y-97708605D01*
X149866400Y-97632601D01*
X149645514Y-97560831D01*
X149416129Y-97524500D01*
X149416124Y-97524500D01*
X149183876Y-97524500D01*
X149183871Y-97524500D01*
X148954485Y-97560831D01*
X148733599Y-97632601D01*
X148526668Y-97738039D01*
X148338773Y-97874553D01*
X148174553Y-98038773D01*
X148038039Y-98226668D01*
X147932601Y-98433599D01*
X147860831Y-98654485D01*
X147824500Y-98883870D01*
X145775500Y-98883870D01*
X145754217Y-98749499D01*
X145739169Y-98654486D01*
X145667400Y-98433604D01*
X145667398Y-98433601D01*
X145667398Y-98433599D01*
X145561960Y-98226668D01*
X145561514Y-98226054D01*
X145425449Y-98038776D01*
X145261224Y-97874551D01*
X145073331Y-97738039D01*
X145015564Y-97708605D01*
X144866400Y-97632601D01*
X144645514Y-97560831D01*
X144416129Y-97524500D01*
X144416124Y-97524500D01*
X144183876Y-97524500D01*
X144183871Y-97524500D01*
X143954485Y-97560831D01*
X143733599Y-97632601D01*
X143526668Y-97738039D01*
X143338773Y-97874553D01*
X143174553Y-98038773D01*
X143038039Y-98226668D01*
X142932601Y-98433599D01*
X142860831Y-98654485D01*
X142824500Y-98883870D01*
X125775500Y-98883870D01*
X125754217Y-98749499D01*
X125739169Y-98654486D01*
X125667400Y-98433604D01*
X125667398Y-98433601D01*
X125667398Y-98433599D01*
X125561960Y-98226668D01*
X125561514Y-98226054D01*
X125425449Y-98038776D01*
X125261224Y-97874551D01*
X125073331Y-97738039D01*
X125015564Y-97708605D01*
X124866400Y-97632601D01*
X124645514Y-97560831D01*
X124416129Y-97524500D01*
X124416124Y-97524500D01*
X124183876Y-97524500D01*
X124183871Y-97524500D01*
X123954485Y-97560831D01*
X123733599Y-97632601D01*
X123526668Y-97738039D01*
X123338773Y-97874553D01*
X123174553Y-98038773D01*
X123038039Y-98226668D01*
X122932601Y-98433599D01*
X122860831Y-98654485D01*
X122824500Y-98883870D01*
X93300500Y-98883870D01*
X93300500Y-96348711D01*
X95774499Y-96348711D01*
X95774499Y-96591288D01*
X95806160Y-96831785D01*
X95868946Y-97066104D01*
X95888678Y-97113741D01*
X95961775Y-97290212D01*
X96083063Y-97500289D01*
X96083065Y-97500292D01*
X96083066Y-97500293D01*
X96230732Y-97692736D01*
X96230738Y-97692743D01*
X96402255Y-97864260D01*
X96402262Y-97864266D01*
X96471053Y-97917051D01*
X96594710Y-98011936D01*
X96804787Y-98133224D01*
X97028899Y-98226054D01*
X97263210Y-98288838D01*
X97443585Y-98312584D01*
X97503710Y-98320500D01*
X97503711Y-98320500D01*
X97746288Y-98320500D01*
X97794387Y-98314167D01*
X97986788Y-98288838D01*
X98221099Y-98226054D01*
X98445211Y-98133224D01*
X98655288Y-98011936D01*
X98847737Y-97864265D01*
X99019264Y-97692738D01*
X99166935Y-97500289D01*
X99288223Y-97290212D01*
X99381053Y-97066100D01*
X99443837Y-96831789D01*
X99475499Y-96591288D01*
X99475499Y-96348712D01*
X99443837Y-96108211D01*
X99381053Y-95873900D01*
X99288223Y-95649788D01*
X99166935Y-95439711D01*
X99019264Y-95247262D01*
X99019259Y-95247256D01*
X98847742Y-95075739D01*
X98847735Y-95075733D01*
X98655292Y-94928067D01*
X98655291Y-94928066D01*
X98655288Y-94928064D01*
X98451318Y-94810302D01*
X98445213Y-94806777D01*
X98445204Y-94806773D01*
X98221103Y-94713947D01*
X97986784Y-94651161D01*
X97746288Y-94619500D01*
X97746287Y-94619500D01*
X97503711Y-94619500D01*
X97503710Y-94619500D01*
X97263213Y-94651161D01*
X97028894Y-94713947D01*
X96804793Y-94806773D01*
X96804784Y-94806777D01*
X96594705Y-94928067D01*
X96402262Y-95075733D01*
X96402255Y-95075739D01*
X96230738Y-95247256D01*
X96230732Y-95247263D01*
X96083066Y-95439706D01*
X95961776Y-95649785D01*
X95961772Y-95649794D01*
X95868946Y-95873895D01*
X95806160Y-96108214D01*
X95774499Y-96348711D01*
X93300500Y-96348711D01*
X93300500Y-94402155D01*
X153975000Y-94402155D01*
X153975000Y-95550000D01*
X154957096Y-95550000D01*
X154925000Y-95711358D01*
X154925000Y-95888642D01*
X154957096Y-96050000D01*
X153975000Y-96050000D01*
X153975000Y-97197844D01*
X153981401Y-97257372D01*
X153981403Y-97257379D01*
X154031645Y-97392086D01*
X154031649Y-97392093D01*
X154117809Y-97507187D01*
X154117812Y-97507190D01*
X154232906Y-97593350D01*
X154232913Y-97593354D01*
X154367620Y-97643596D01*
X154367627Y-97643598D01*
X154427155Y-97649999D01*
X154427172Y-97650000D01*
X155575000Y-97650000D01*
X155575000Y-96667904D01*
X155736358Y-96700000D01*
X155913642Y-96700000D01*
X156075000Y-96667904D01*
X156075000Y-97650000D01*
X157222828Y-97650000D01*
X157222844Y-97649999D01*
X157282372Y-97643598D01*
X157282379Y-97643596D01*
X157417086Y-97593354D01*
X157417093Y-97593350D01*
X157532187Y-97507190D01*
X157532190Y-97507187D01*
X157618350Y-97392093D01*
X157618354Y-97392086D01*
X157668596Y-97257379D01*
X157668598Y-97257372D01*
X157674999Y-97197844D01*
X157675000Y-97197827D01*
X157675000Y-96050000D01*
X156692904Y-96050000D01*
X156725000Y-95888642D01*
X156725000Y-95881995D01*
X180799498Y-95881995D01*
X180799498Y-96118004D01*
X180799499Y-96118020D01*
X180830304Y-96352010D01*
X180891392Y-96579993D01*
X180981712Y-96798045D01*
X180981717Y-96798056D01*
X181031491Y-96884266D01*
X181099725Y-97002450D01*
X181099727Y-97002453D01*
X181099728Y-97002454D01*
X181243404Y-97189697D01*
X181243410Y-97189704D01*
X181410293Y-97356587D01*
X181410299Y-97356592D01*
X181597548Y-97500273D01*
X181702438Y-97560831D01*
X181801941Y-97618280D01*
X181801946Y-97618282D01*
X181801949Y-97618284D01*
X182020005Y-97708606D01*
X182247984Y-97769693D01*
X182481987Y-97800500D01*
X182481994Y-97800500D01*
X182718002Y-97800500D01*
X182718009Y-97800500D01*
X182952012Y-97769693D01*
X183179991Y-97708606D01*
X183398047Y-97618284D01*
X183602448Y-97500273D01*
X183789697Y-97356592D01*
X183956590Y-97189699D01*
X184100271Y-97002450D01*
X184168509Y-96884258D01*
X195749500Y-96884258D01*
X195749500Y-97113741D01*
X195772733Y-97290205D01*
X195779452Y-97341238D01*
X195823918Y-97507190D01*
X195838842Y-97562887D01*
X195926650Y-97774876D01*
X195926657Y-97774890D01*
X196041392Y-97973617D01*
X196181081Y-98155661D01*
X196181089Y-98155670D01*
X196343330Y-98317911D01*
X196343338Y-98317918D01*
X196525382Y-98457607D01*
X196525385Y-98457608D01*
X196525388Y-98457611D01*
X196724112Y-98572344D01*
X196724117Y-98572346D01*
X196724123Y-98572349D01*
X196815480Y-98610190D01*
X196936113Y-98660158D01*
X197157762Y-98719548D01*
X197385266Y-98749500D01*
X197385273Y-98749500D01*
X197614727Y-98749500D01*
X197614734Y-98749500D01*
X197842238Y-98719548D01*
X198063887Y-98660158D01*
X198275888Y-98572344D01*
X198474612Y-98457611D01*
X198656661Y-98317919D01*
X198656665Y-98317914D01*
X198656670Y-98317911D01*
X198818911Y-98155670D01*
X198818914Y-98155665D01*
X198818919Y-98155661D01*
X198958611Y-97973612D01*
X199073344Y-97774888D01*
X199161158Y-97562887D01*
X199220548Y-97341238D01*
X199250500Y-97113734D01*
X199250500Y-96884266D01*
X199220548Y-96656762D01*
X199161158Y-96435113D01*
X199073344Y-96223112D01*
X198958611Y-96024388D01*
X198958608Y-96024385D01*
X198958607Y-96024382D01*
X198818918Y-95842338D01*
X198818911Y-95842330D01*
X198656670Y-95680089D01*
X198656661Y-95680081D01*
X198474617Y-95540392D01*
X198275890Y-95425657D01*
X198275876Y-95425650D01*
X198063887Y-95337842D01*
X197842238Y-95278452D01*
X197804215Y-95273446D01*
X197614741Y-95248500D01*
X197614734Y-95248500D01*
X197385266Y-95248500D01*
X197385258Y-95248500D01*
X197168715Y-95277009D01*
X197157762Y-95278452D01*
X197064076Y-95303554D01*
X196936112Y-95337842D01*
X196724123Y-95425650D01*
X196724109Y-95425657D01*
X196525382Y-95540392D01*
X196343338Y-95680081D01*
X196181081Y-95842338D01*
X196041392Y-96024382D01*
X195926657Y-96223109D01*
X195926650Y-96223123D01*
X195838842Y-96435112D01*
X195779453Y-96656759D01*
X195779451Y-96656770D01*
X195749500Y-96884258D01*
X184168509Y-96884258D01*
X184218282Y-96798049D01*
X184308604Y-96579993D01*
X184369691Y-96352014D01*
X184400498Y-96118011D01*
X184400498Y-95881989D01*
X184369691Y-95647986D01*
X184308604Y-95420007D01*
X184218282Y-95201951D01*
X184218280Y-95201948D01*
X184218278Y-95201943D01*
X184145410Y-95075733D01*
X184100271Y-94997550D01*
X183956590Y-94810301D01*
X183956585Y-94810295D01*
X183789702Y-94643412D01*
X183789695Y-94643406D01*
X183602452Y-94499730D01*
X183602451Y-94499729D01*
X183602448Y-94499727D01*
X183520955Y-94452677D01*
X183398054Y-94381719D01*
X183398043Y-94381714D01*
X183179991Y-94291394D01*
X182952008Y-94230306D01*
X182718018Y-94199501D01*
X182718015Y-94199500D01*
X182718009Y-94199500D01*
X182481987Y-94199500D01*
X182481981Y-94199500D01*
X182481977Y-94199501D01*
X182247987Y-94230306D01*
X182020004Y-94291394D01*
X181801952Y-94381714D01*
X181801941Y-94381719D01*
X181597543Y-94499730D01*
X181410300Y-94643406D01*
X181410293Y-94643412D01*
X181243410Y-94810295D01*
X181243404Y-94810302D01*
X181099728Y-94997545D01*
X180981717Y-95201943D01*
X180981712Y-95201954D01*
X180891392Y-95420006D01*
X180830304Y-95647989D01*
X180799499Y-95881979D01*
X180799498Y-95881995D01*
X156725000Y-95881995D01*
X156725000Y-95711358D01*
X156692904Y-95550000D01*
X157675000Y-95550000D01*
X157675000Y-94402172D01*
X157674999Y-94402155D01*
X157668598Y-94342627D01*
X157668596Y-94342620D01*
X157618354Y-94207913D01*
X157618350Y-94207906D01*
X157532190Y-94092812D01*
X157532187Y-94092809D01*
X157417093Y-94006649D01*
X157417086Y-94006645D01*
X157282379Y-93956403D01*
X157282372Y-93956401D01*
X157222844Y-93950000D01*
X156075000Y-93950000D01*
X156075000Y-94932095D01*
X155913642Y-94900000D01*
X155736358Y-94900000D01*
X155575000Y-94932095D01*
X155575000Y-93950000D01*
X154427155Y-93950000D01*
X154367627Y-93956401D01*
X154367620Y-93956403D01*
X154232913Y-94006645D01*
X154232906Y-94006649D01*
X154117812Y-94092809D01*
X154117809Y-94092812D01*
X154031649Y-94207906D01*
X154031645Y-94207913D01*
X153981403Y-94342620D01*
X153981401Y-94342627D01*
X153975000Y-94402155D01*
X93300500Y-94402155D01*
X93300500Y-91583869D01*
X122824498Y-91583869D01*
X122824498Y-91816128D01*
X122860829Y-92045513D01*
X122932599Y-92266399D01*
X122971088Y-92341936D01*
X123038037Y-92473330D01*
X123174549Y-92661223D01*
X123338774Y-92825448D01*
X123526667Y-92961960D01*
X123624434Y-93011775D01*
X123733597Y-93067397D01*
X123733599Y-93067397D01*
X123733602Y-93067399D01*
X123954484Y-93139168D01*
X124072666Y-93157885D01*
X124183869Y-93175499D01*
X124183874Y-93175499D01*
X124416127Y-93175499D01*
X124517500Y-93159442D01*
X124645512Y-93139168D01*
X124866394Y-93067399D01*
X125073329Y-92961960D01*
X125261222Y-92825448D01*
X125425447Y-92661223D01*
X125561959Y-92473330D01*
X125667398Y-92266395D01*
X125739167Y-92045513D01*
X125773254Y-91830293D01*
X125775498Y-91816128D01*
X125775498Y-91583869D01*
X142824498Y-91583869D01*
X142824498Y-91816128D01*
X142860829Y-92045513D01*
X142932599Y-92266399D01*
X142971088Y-92341936D01*
X143038037Y-92473330D01*
X143174549Y-92661223D01*
X143338774Y-92825448D01*
X143526667Y-92961960D01*
X143624434Y-93011775D01*
X143733597Y-93067397D01*
X143733599Y-93067397D01*
X143733602Y-93067399D01*
X143954484Y-93139168D01*
X144072666Y-93157885D01*
X144183869Y-93175499D01*
X144183874Y-93175499D01*
X144416127Y-93175499D01*
X144517500Y-93159442D01*
X144645512Y-93139168D01*
X144866394Y-93067399D01*
X145073329Y-92961960D01*
X145261222Y-92825448D01*
X145425447Y-92661223D01*
X145561959Y-92473330D01*
X145667398Y-92266395D01*
X145739167Y-92045513D01*
X145773254Y-91830293D01*
X145775498Y-91816128D01*
X145775498Y-91583869D01*
X147824498Y-91583869D01*
X147824498Y-91816128D01*
X147860829Y-92045513D01*
X147932599Y-92266399D01*
X147971088Y-92341936D01*
X148038037Y-92473330D01*
X148174549Y-92661223D01*
X148338774Y-92825448D01*
X148526667Y-92961960D01*
X148624434Y-93011775D01*
X148733597Y-93067397D01*
X148733599Y-93067397D01*
X148733602Y-93067399D01*
X148954484Y-93139168D01*
X149072666Y-93157885D01*
X149183869Y-93175499D01*
X149183874Y-93175499D01*
X149416127Y-93175499D01*
X149517500Y-93159442D01*
X149645512Y-93139168D01*
X149866394Y-93067399D01*
X150073329Y-92961960D01*
X150261222Y-92825448D01*
X150425447Y-92661223D01*
X150561959Y-92473330D01*
X150667398Y-92266395D01*
X150739167Y-92045513D01*
X150773254Y-91830293D01*
X150775498Y-91816128D01*
X150775498Y-91583869D01*
X150756230Y-91462221D01*
X150739167Y-91354485D01*
X150667398Y-91133603D01*
X150667396Y-91133600D01*
X150667396Y-91133598D01*
X150590083Y-90981865D01*
X150561959Y-90926668D01*
X150496717Y-90836870D01*
X150431814Y-90747538D01*
X150425447Y-90738775D01*
X150365383Y-90678711D01*
X153974500Y-90678711D01*
X153974500Y-90921288D01*
X154006161Y-91161785D01*
X154068947Y-91396104D01*
X154146722Y-91583869D01*
X154161776Y-91620212D01*
X154283064Y-91830289D01*
X154283066Y-91830292D01*
X154283067Y-91830293D01*
X154430733Y-92022736D01*
X154430739Y-92022743D01*
X154602256Y-92194260D01*
X154602262Y-92194265D01*
X154794711Y-92341936D01*
X155004788Y-92463224D01*
X155228900Y-92556054D01*
X155463211Y-92618838D01*
X155643586Y-92642584D01*
X155703711Y-92650500D01*
X155703712Y-92650500D01*
X155946289Y-92650500D01*
X155994388Y-92644167D01*
X156186789Y-92618838D01*
X156421100Y-92556054D01*
X156645212Y-92463224D01*
X156855289Y-92341936D01*
X157047738Y-92194265D01*
X157219265Y-92022738D01*
X157366936Y-91830289D01*
X157488224Y-91620212D01*
X157581054Y-91396100D01*
X157643838Y-91161789D01*
X157648062Y-91129703D01*
X205061189Y-91129703D01*
X205090030Y-91274690D01*
X205090033Y-91274700D01*
X205146602Y-91411271D01*
X205146609Y-91411284D01*
X205228738Y-91534198D01*
X205228741Y-91534202D01*
X205333270Y-91638731D01*
X205333274Y-91638734D01*
X205456188Y-91720863D01*
X205456201Y-91720870D01*
X205592772Y-91777439D01*
X205592777Y-91777441D01*
X205592781Y-91777441D01*
X205592782Y-91777442D01*
X205737769Y-91806283D01*
X205737772Y-91806283D01*
X205885610Y-91806283D01*
X205983152Y-91786879D01*
X206030603Y-91777441D01*
X206167185Y-91720867D01*
X206290106Y-91638734D01*
X206394641Y-91534199D01*
X206476774Y-91411278D01*
X206533348Y-91274696D01*
X206562190Y-91129701D01*
X206562190Y-90981865D01*
X206562190Y-90981862D01*
X206533349Y-90836875D01*
X206533348Y-90836874D01*
X206533348Y-90836870D01*
X206492715Y-90738772D01*
X206476777Y-90700294D01*
X206476770Y-90700281D01*
X206394641Y-90577367D01*
X206394638Y-90577363D01*
X206290109Y-90472834D01*
X206290105Y-90472831D01*
X206167191Y-90390702D01*
X206167178Y-90390695D01*
X206030607Y-90334126D01*
X206030597Y-90334123D01*
X205885610Y-90305283D01*
X205885608Y-90305283D01*
X205737772Y-90305283D01*
X205737770Y-90305283D01*
X205592782Y-90334123D01*
X205592772Y-90334126D01*
X205456201Y-90390695D01*
X205456188Y-90390702D01*
X205333274Y-90472831D01*
X205333270Y-90472834D01*
X205228741Y-90577363D01*
X205228738Y-90577367D01*
X205146609Y-90700281D01*
X205146602Y-90700294D01*
X205090033Y-90836865D01*
X205090030Y-90836875D01*
X205061190Y-90981862D01*
X205061190Y-90981865D01*
X205061190Y-91129701D01*
X205061190Y-91129703D01*
X205061189Y-91129703D01*
X157648062Y-91129703D01*
X157667525Y-90981865D01*
X157670458Y-90959588D01*
X157675500Y-90921288D01*
X157675500Y-90678711D01*
X157661787Y-90574550D01*
X157643838Y-90438211D01*
X157581054Y-90203900D01*
X157488224Y-89979788D01*
X157366936Y-89769711D01*
X157219265Y-89577262D01*
X157219260Y-89577256D01*
X157047743Y-89405739D01*
X157047736Y-89405733D01*
X156855293Y-89258067D01*
X156855292Y-89258066D01*
X156855289Y-89258064D01*
X156645212Y-89136776D01*
X156645205Y-89136773D01*
X156421104Y-89043947D01*
X156186785Y-88981161D01*
X155946289Y-88949500D01*
X155946288Y-88949500D01*
X155703712Y-88949500D01*
X155703711Y-88949500D01*
X155463214Y-88981161D01*
X155228895Y-89043947D01*
X155004794Y-89136773D01*
X155004785Y-89136777D01*
X154794706Y-89258067D01*
X154602263Y-89405733D01*
X154602256Y-89405739D01*
X154430739Y-89577256D01*
X154430733Y-89577263D01*
X154283067Y-89769706D01*
X154161777Y-89979785D01*
X154161773Y-89979794D01*
X154068947Y-90203895D01*
X154006161Y-90438214D01*
X153974500Y-90678711D01*
X150365383Y-90678711D01*
X150261224Y-90574552D01*
X150261222Y-90574550D01*
X150073329Y-90438038D01*
X149866398Y-90332600D01*
X149645512Y-90260830D01*
X149416127Y-90224499D01*
X149416122Y-90224499D01*
X149183874Y-90224499D01*
X149183869Y-90224499D01*
X148954483Y-90260830D01*
X148733597Y-90332600D01*
X148526666Y-90438038D01*
X148338771Y-90574552D01*
X148174551Y-90738772D01*
X148038037Y-90926667D01*
X147932599Y-91133598D01*
X147860829Y-91354484D01*
X147824498Y-91583869D01*
X145775498Y-91583869D01*
X145756230Y-91462221D01*
X145739167Y-91354485D01*
X145667398Y-91133603D01*
X145667396Y-91133600D01*
X145667396Y-91133598D01*
X145590082Y-90981862D01*
X145561959Y-90926668D01*
X145425447Y-90738775D01*
X145261222Y-90574550D01*
X145073329Y-90438038D01*
X144866398Y-90332600D01*
X144645512Y-90260830D01*
X144416127Y-90224499D01*
X144416122Y-90224499D01*
X144183874Y-90224499D01*
X144183869Y-90224499D01*
X143954483Y-90260830D01*
X143733597Y-90332600D01*
X143526666Y-90438038D01*
X143338771Y-90574552D01*
X143174551Y-90738772D01*
X143038037Y-90926667D01*
X142932599Y-91133598D01*
X142860829Y-91354484D01*
X142824498Y-91583869D01*
X125775498Y-91583869D01*
X125756230Y-91462221D01*
X125739167Y-91354485D01*
X125667398Y-91133603D01*
X125667396Y-91133600D01*
X125667396Y-91133598D01*
X125590082Y-90981862D01*
X125561959Y-90926668D01*
X125425447Y-90738775D01*
X125261222Y-90574550D01*
X125073329Y-90438038D01*
X124866398Y-90332600D01*
X124645512Y-90260830D01*
X124416127Y-90224499D01*
X124416122Y-90224499D01*
X124183874Y-90224499D01*
X124183869Y-90224499D01*
X123954483Y-90260830D01*
X123733597Y-90332600D01*
X123526666Y-90438038D01*
X123338771Y-90574552D01*
X123174551Y-90738772D01*
X123038037Y-90926667D01*
X122932599Y-91133598D01*
X122860829Y-91354484D01*
X122824498Y-91583869D01*
X93300500Y-91583869D01*
X93300500Y-88978711D01*
X95749500Y-88978711D01*
X95749500Y-89221288D01*
X95781161Y-89461785D01*
X95843947Y-89696104D01*
X95936773Y-89920205D01*
X95936776Y-89920212D01*
X96058064Y-90130289D01*
X96058066Y-90130292D01*
X96058067Y-90130293D01*
X96205733Y-90322736D01*
X96205739Y-90322743D01*
X96377256Y-90494260D01*
X96377262Y-90494265D01*
X96569711Y-90641936D01*
X96779788Y-90763224D01*
X97003900Y-90856054D01*
X97238211Y-90918838D01*
X97418586Y-90942584D01*
X97478711Y-90950500D01*
X97478712Y-90950500D01*
X97721289Y-90950500D01*
X97769388Y-90944167D01*
X97961789Y-90918838D01*
X98196100Y-90856054D01*
X98420212Y-90763224D01*
X98630289Y-90641936D01*
X98822738Y-90494265D01*
X98994265Y-90322738D01*
X99141936Y-90130289D01*
X99263224Y-89920212D01*
X99356054Y-89696100D01*
X99418838Y-89461789D01*
X99450500Y-89221288D01*
X99450500Y-88978712D01*
X99418838Y-88738211D01*
X99356054Y-88503900D01*
X99263224Y-88279788D01*
X99141936Y-88069711D01*
X98994265Y-87877262D01*
X98994260Y-87877256D01*
X98822743Y-87705739D01*
X98822736Y-87705733D01*
X98630293Y-87558067D01*
X98630292Y-87558066D01*
X98630289Y-87558064D01*
X98420212Y-87436776D01*
X98420205Y-87436773D01*
X98196104Y-87343947D01*
X98070488Y-87310288D01*
X97961789Y-87281162D01*
X97961788Y-87281161D01*
X97961785Y-87281161D01*
X97721289Y-87249500D01*
X97721288Y-87249500D01*
X97478712Y-87249500D01*
X97478711Y-87249500D01*
X97238214Y-87281161D01*
X97003895Y-87343947D01*
X96779794Y-87436773D01*
X96779785Y-87436777D01*
X96569706Y-87558067D01*
X96377263Y-87705733D01*
X96377256Y-87705739D01*
X96205739Y-87877256D01*
X96205733Y-87877263D01*
X96058067Y-88069706D01*
X95936777Y-88279785D01*
X95936773Y-88279794D01*
X95843947Y-88503895D01*
X95781161Y-88738214D01*
X95749500Y-88978711D01*
X93300500Y-88978711D01*
X93300500Y-82702155D01*
X95750000Y-82702155D01*
X95750000Y-83850000D01*
X96732096Y-83850000D01*
X96700000Y-84011358D01*
X96700000Y-84188642D01*
X96732096Y-84350000D01*
X95750000Y-84350000D01*
X95750000Y-85497844D01*
X95756401Y-85557372D01*
X95756403Y-85557379D01*
X95806645Y-85692086D01*
X95806649Y-85692093D01*
X95892809Y-85807187D01*
X95892812Y-85807190D01*
X96007906Y-85893350D01*
X96007913Y-85893354D01*
X96142620Y-85943596D01*
X96142627Y-85943598D01*
X96202155Y-85949999D01*
X96202172Y-85950000D01*
X97350000Y-85950000D01*
X97350000Y-84967904D01*
X97511358Y-85000000D01*
X97688642Y-85000000D01*
X97850000Y-84967904D01*
X97850000Y-85950000D01*
X98997828Y-85950000D01*
X98997844Y-85949999D01*
X99057372Y-85943598D01*
X99057379Y-85943596D01*
X99192086Y-85893354D01*
X99192093Y-85893350D01*
X99307187Y-85807190D01*
X99307190Y-85807187D01*
X99393350Y-85692093D01*
X99393354Y-85692086D01*
X99443596Y-85557379D01*
X99443598Y-85557372D01*
X99449999Y-85497844D01*
X99450000Y-85497827D01*
X99450000Y-84350000D01*
X98467904Y-84350000D01*
X98500000Y-84188642D01*
X98500000Y-84083869D01*
X122824498Y-84083869D01*
X122824498Y-84316128D01*
X122860829Y-84545513D01*
X122932599Y-84766399D01*
X122999435Y-84897570D01*
X123038037Y-84973330D01*
X123174549Y-85161223D01*
X123338774Y-85325448D01*
X123526667Y-85461960D01*
X123597060Y-85497827D01*
X123733597Y-85567397D01*
X123733599Y-85567397D01*
X123733602Y-85567399D01*
X123954484Y-85639168D01*
X124072666Y-85657885D01*
X124183869Y-85675499D01*
X124183874Y-85675499D01*
X124416127Y-85675499D01*
X124517500Y-85659442D01*
X124645512Y-85639168D01*
X124866394Y-85567399D01*
X125073329Y-85461960D01*
X125261222Y-85325448D01*
X125425447Y-85161223D01*
X125561959Y-84973330D01*
X125667398Y-84766395D01*
X125739167Y-84545513D01*
X125770133Y-84350000D01*
X125775498Y-84316128D01*
X125775498Y-84083869D01*
X142824498Y-84083869D01*
X142824498Y-84316128D01*
X142860829Y-84545513D01*
X142932599Y-84766399D01*
X142999435Y-84897570D01*
X143038037Y-84973330D01*
X143174549Y-85161223D01*
X143338774Y-85325448D01*
X143526667Y-85461960D01*
X143597060Y-85497827D01*
X143733597Y-85567397D01*
X143733599Y-85567397D01*
X143733602Y-85567399D01*
X143954484Y-85639168D01*
X144072666Y-85657885D01*
X144183869Y-85675499D01*
X144183874Y-85675499D01*
X144416127Y-85675499D01*
X144517500Y-85659442D01*
X144645512Y-85639168D01*
X144866394Y-85567399D01*
X145073329Y-85461960D01*
X145261222Y-85325448D01*
X145425447Y-85161223D01*
X145561959Y-84973330D01*
X145667398Y-84766395D01*
X145739167Y-84545513D01*
X145770133Y-84350000D01*
X145775498Y-84316128D01*
X145775498Y-84083869D01*
X147824498Y-84083869D01*
X147824498Y-84316128D01*
X147860829Y-84545513D01*
X147932599Y-84766399D01*
X147999435Y-84897570D01*
X148038037Y-84973330D01*
X148174549Y-85161223D01*
X148338774Y-85325448D01*
X148526667Y-85461960D01*
X148597060Y-85497827D01*
X148733597Y-85567397D01*
X148733599Y-85567397D01*
X148733602Y-85567399D01*
X148954484Y-85639168D01*
X149072666Y-85657885D01*
X149183869Y-85675499D01*
X149183874Y-85675499D01*
X149416127Y-85675499D01*
X149517500Y-85659442D01*
X149549752Y-85654334D01*
X152940700Y-85654334D01*
X152981408Y-85858980D01*
X152981410Y-85858986D01*
X153061262Y-86051768D01*
X153177185Y-86225259D01*
X153177191Y-86225267D01*
X153324733Y-86372809D01*
X153324741Y-86372815D01*
X153498232Y-86488738D01*
X153501185Y-86489961D01*
X153691015Y-86568591D01*
X153691019Y-86568591D01*
X153691020Y-86568592D01*
X153895666Y-86609300D01*
X153895669Y-86609300D01*
X154104335Y-86609300D01*
X154242015Y-86581912D01*
X154308987Y-86568591D01*
X154501767Y-86488739D01*
X154556110Y-86452427D01*
X154622787Y-86431550D01*
X154690168Y-86450034D01*
X154693879Y-86452420D01*
X154748235Y-86488739D01*
X154941015Y-86568591D01*
X154941019Y-86568591D01*
X154941020Y-86568592D01*
X155145666Y-86609300D01*
X155145669Y-86609300D01*
X155354335Y-86609300D01*
X155492015Y-86581912D01*
X155558987Y-86568591D01*
X155751767Y-86488739D01*
X155806110Y-86452427D01*
X155872787Y-86431550D01*
X155940168Y-86450034D01*
X155943879Y-86452420D01*
X155998235Y-86488739D01*
X156191015Y-86568591D01*
X156191019Y-86568591D01*
X156191020Y-86568592D01*
X156395666Y-86609300D01*
X156395669Y-86609300D01*
X156604335Y-86609300D01*
X156742015Y-86581912D01*
X156808987Y-86568591D01*
X157001767Y-86488739D01*
X157056110Y-86452427D01*
X157122787Y-86431550D01*
X157190168Y-86450034D01*
X157193879Y-86452420D01*
X157248235Y-86488739D01*
X157441015Y-86568591D01*
X157441019Y-86568591D01*
X157441020Y-86568592D01*
X157645666Y-86609300D01*
X157645669Y-86609300D01*
X157854335Y-86609300D01*
X157992015Y-86581912D01*
X158058987Y-86568591D01*
X158248819Y-86489959D01*
X158318287Y-86482491D01*
X158380767Y-86513766D01*
X158416419Y-86573855D01*
X158417888Y-86628712D01*
X158399500Y-86721153D01*
X158399500Y-86878846D01*
X158430261Y-87033489D01*
X158430264Y-87033501D01*
X158490602Y-87179172D01*
X158490609Y-87179185D01*
X158578210Y-87310288D01*
X158578213Y-87310292D01*
X158689707Y-87421786D01*
X158689711Y-87421789D01*
X158820814Y-87509390D01*
X158820827Y-87509397D01*
X158938329Y-87558067D01*
X158966503Y-87569737D01*
X159121153Y-87600499D01*
X159121156Y-87600500D01*
X159121158Y-87600500D01*
X159278844Y-87600500D01*
X159278845Y-87600499D01*
X159433497Y-87569737D01*
X159579179Y-87509394D01*
X159710289Y-87421789D01*
X159821789Y-87310289D01*
X159909394Y-87179179D01*
X159969737Y-87033497D01*
X160000500Y-86878842D01*
X160000500Y-86731518D01*
X160020185Y-86664479D01*
X160072989Y-86618724D01*
X160139559Y-86609152D01*
X160139604Y-86608703D01*
X160141431Y-86608882D01*
X160142147Y-86608780D01*
X160144525Y-86609187D01*
X160145667Y-86609300D01*
X160145669Y-86609300D01*
X160354335Y-86609300D01*
X160492015Y-86581912D01*
X160558987Y-86568591D01*
X160751767Y-86488739D01*
X160806112Y-86452426D01*
X160872785Y-86431549D01*
X160940165Y-86450032D01*
X160943891Y-86452427D01*
X160998230Y-86488735D01*
X160998238Y-86488740D01*
X161001186Y-86489961D01*
X161191016Y-86568591D01*
X161191020Y-86568591D01*
X161191021Y-86568592D01*
X161395667Y-86609300D01*
X161395670Y-86609300D01*
X161604336Y-86609300D01*
X161742016Y-86581912D01*
X161808988Y-86568591D01*
X162001768Y-86488739D01*
X162056111Y-86452427D01*
X162122788Y-86431550D01*
X162190169Y-86450034D01*
X162193880Y-86452420D01*
X162248236Y-86488739D01*
X162441016Y-86568591D01*
X162441020Y-86568591D01*
X162441021Y-86568592D01*
X162645667Y-86609300D01*
X162645670Y-86609300D01*
X162854336Y-86609300D01*
X162992016Y-86581912D01*
X163058988Y-86568591D01*
X163248818Y-86489960D01*
X163318287Y-86482492D01*
X163380766Y-86513767D01*
X163416418Y-86573856D01*
X163417888Y-86628712D01*
X163399500Y-86721158D01*
X163399500Y-86878846D01*
X163430261Y-87033489D01*
X163430264Y-87033501D01*
X163490602Y-87179172D01*
X163490609Y-87179185D01*
X163578210Y-87310288D01*
X163578213Y-87310292D01*
X163689707Y-87421786D01*
X163689711Y-87421789D01*
X163820814Y-87509390D01*
X163820827Y-87509397D01*
X163938329Y-87558067D01*
X163966503Y-87569737D01*
X164121153Y-87600499D01*
X164121156Y-87600500D01*
X164121158Y-87600500D01*
X164278844Y-87600500D01*
X164278845Y-87600499D01*
X164433497Y-87569737D01*
X164579179Y-87509394D01*
X164710289Y-87421789D01*
X164821789Y-87310289D01*
X164909394Y-87179179D01*
X164969737Y-87033497D01*
X165000500Y-86878842D01*
X165000500Y-86731518D01*
X165020185Y-86664479D01*
X165072989Y-86618724D01*
X165139560Y-86609151D01*
X165139605Y-86608703D01*
X165141431Y-86608882D01*
X165142147Y-86608780D01*
X165144527Y-86609187D01*
X165145668Y-86609300D01*
X165145670Y-86609300D01*
X165354336Y-86609300D01*
X165492016Y-86581912D01*
X165558988Y-86568591D01*
X165628050Y-86539984D01*
X165697516Y-86532516D01*
X165759995Y-86563790D01*
X165795648Y-86623879D01*
X165799500Y-86654546D01*
X165799500Y-86678846D01*
X165830261Y-86833489D01*
X165830264Y-86833501D01*
X165890602Y-86979172D01*
X165890609Y-86979185D01*
X165978210Y-87110288D01*
X165978213Y-87110292D01*
X166089707Y-87221786D01*
X166089711Y-87221789D01*
X166220814Y-87309390D01*
X166220827Y-87309397D01*
X166366498Y-87369735D01*
X166366503Y-87369737D01*
X166521153Y-87400499D01*
X166521156Y-87400500D01*
X166521158Y-87400500D01*
X166678844Y-87400500D01*
X166678845Y-87400499D01*
X166833497Y-87369737D01*
X166979179Y-87309394D01*
X167110289Y-87221789D01*
X167221789Y-87110289D01*
X167309394Y-86979179D01*
X167369737Y-86833497D01*
X167398946Y-86686652D01*
X167431330Y-86624742D01*
X167492046Y-86590168D01*
X167544754Y-86589227D01*
X167645665Y-86609299D01*
X167645668Y-86609300D01*
X167645670Y-86609300D01*
X167854336Y-86609300D01*
X167992016Y-86581912D01*
X168058988Y-86568591D01*
X168251768Y-86488739D01*
X168251768Y-86488738D01*
X168251770Y-86488738D01*
X168375002Y-86406397D01*
X168425266Y-86372812D01*
X168572814Y-86225264D01*
X168688741Y-86051766D01*
X168768593Y-85858986D01*
X168809302Y-85654332D01*
X168809302Y-85445668D01*
X168809302Y-85445665D01*
X168768594Y-85241019D01*
X168768593Y-85241018D01*
X168768593Y-85241014D01*
X168688741Y-85048234D01*
X168688740Y-85048231D01*
X168572817Y-84874740D01*
X168572811Y-84874732D01*
X168425268Y-84727189D01*
X168351580Y-84677953D01*
X168251768Y-84611261D01*
X168251769Y-84611261D01*
X168251767Y-84611260D01*
X168058988Y-84531409D01*
X168058982Y-84531407D01*
X168007432Y-84521153D01*
X206399500Y-84521153D01*
X206399500Y-84678846D01*
X206430261Y-84833489D01*
X206430264Y-84833501D01*
X206490602Y-84979172D01*
X206490609Y-84979185D01*
X206578210Y-85110288D01*
X206578213Y-85110292D01*
X206689707Y-85221786D01*
X206689711Y-85221789D01*
X206820814Y-85309390D01*
X206820827Y-85309397D01*
X206966498Y-85369735D01*
X206966503Y-85369737D01*
X207121153Y-85400499D01*
X207121156Y-85400500D01*
X207121158Y-85400500D01*
X207278844Y-85400500D01*
X207278845Y-85400499D01*
X207433497Y-85369737D01*
X207579179Y-85309394D01*
X207710289Y-85221789D01*
X207821789Y-85110289D01*
X207909394Y-84979179D01*
X207969737Y-84833497D01*
X208000500Y-84678842D01*
X208000500Y-84521158D01*
X208000500Y-84521155D01*
X208000499Y-84521153D01*
X207969738Y-84366510D01*
X207969737Y-84366503D01*
X207948869Y-84316123D01*
X207909397Y-84220827D01*
X207909390Y-84220814D01*
X207821789Y-84089711D01*
X207821786Y-84089707D01*
X207710292Y-83978213D01*
X207710288Y-83978210D01*
X207579185Y-83890609D01*
X207579172Y-83890602D01*
X207433501Y-83830264D01*
X207433489Y-83830261D01*
X207278845Y-83799500D01*
X207278842Y-83799500D01*
X207121158Y-83799500D01*
X207121155Y-83799500D01*
X206966510Y-83830261D01*
X206966498Y-83830264D01*
X206820827Y-83890602D01*
X206820814Y-83890609D01*
X206689711Y-83978210D01*
X206689707Y-83978213D01*
X206578213Y-84089707D01*
X206578210Y-84089711D01*
X206490609Y-84220814D01*
X206490602Y-84220827D01*
X206430264Y-84366498D01*
X206430261Y-84366510D01*
X206399500Y-84521153D01*
X168007432Y-84521153D01*
X167854336Y-84490700D01*
X167854334Y-84490700D01*
X167645670Y-84490700D01*
X167645668Y-84490700D01*
X167441021Y-84531407D01*
X167441015Y-84531409D01*
X167248237Y-84611260D01*
X167193892Y-84647572D01*
X167127214Y-84668449D01*
X167059834Y-84649964D01*
X167056112Y-84647572D01*
X167001768Y-84611261D01*
X166808988Y-84531409D01*
X166808982Y-84531407D01*
X166604336Y-84490700D01*
X166604334Y-84490700D01*
X166395670Y-84490700D01*
X166395668Y-84490700D01*
X166191021Y-84531407D01*
X166191015Y-84531409D01*
X165998237Y-84611260D01*
X165943892Y-84647572D01*
X165877214Y-84668449D01*
X165809834Y-84649964D01*
X165806112Y-84647572D01*
X165751768Y-84611261D01*
X165558988Y-84531409D01*
X165558982Y-84531407D01*
X165354336Y-84490700D01*
X165354334Y-84490700D01*
X165145670Y-84490700D01*
X165145668Y-84490700D01*
X164941021Y-84531407D01*
X164941015Y-84531409D01*
X164748237Y-84611260D01*
X164693892Y-84647572D01*
X164627214Y-84668449D01*
X164559834Y-84649964D01*
X164556112Y-84647572D01*
X164501768Y-84611261D01*
X164308988Y-84531409D01*
X164308982Y-84531407D01*
X164104336Y-84490700D01*
X164104334Y-84490700D01*
X163895670Y-84490700D01*
X163895668Y-84490700D01*
X163691021Y-84531407D01*
X163691015Y-84531409D01*
X163498237Y-84611260D01*
X163443892Y-84647572D01*
X163377214Y-84668449D01*
X163309834Y-84649964D01*
X163306112Y-84647572D01*
X163251768Y-84611261D01*
X163058988Y-84531409D01*
X163058982Y-84531407D01*
X162854336Y-84490700D01*
X162854334Y-84490700D01*
X162645670Y-84490700D01*
X162645668Y-84490700D01*
X162441021Y-84531407D01*
X162441015Y-84531409D01*
X162248237Y-84611260D01*
X162193892Y-84647572D01*
X162127214Y-84668449D01*
X162059834Y-84649964D01*
X162056112Y-84647572D01*
X162001768Y-84611261D01*
X161808988Y-84531409D01*
X161808982Y-84531407D01*
X161604336Y-84490700D01*
X161604334Y-84490700D01*
X161395670Y-84490700D01*
X161395668Y-84490700D01*
X161191021Y-84531407D01*
X161191015Y-84531409D01*
X160998234Y-84611261D01*
X160943890Y-84647572D01*
X160877212Y-84668449D01*
X160809832Y-84649963D01*
X160806111Y-84647572D01*
X160778166Y-84628900D01*
X160751767Y-84611261D01*
X160558987Y-84531409D01*
X160558981Y-84531407D01*
X160354335Y-84490700D01*
X160354333Y-84490700D01*
X160145669Y-84490700D01*
X160145667Y-84490700D01*
X159941020Y-84531407D01*
X159941014Y-84531409D01*
X159748236Y-84611260D01*
X159693891Y-84647572D01*
X159627213Y-84668449D01*
X159559833Y-84649964D01*
X159556111Y-84647572D01*
X159501767Y-84611261D01*
X159308987Y-84531409D01*
X159308981Y-84531407D01*
X159104335Y-84490700D01*
X159104333Y-84490700D01*
X158895669Y-84490700D01*
X158895667Y-84490700D01*
X158691020Y-84531407D01*
X158691014Y-84531409D01*
X158498236Y-84611260D01*
X158443891Y-84647572D01*
X158377213Y-84668449D01*
X158309833Y-84649964D01*
X158306111Y-84647572D01*
X158251767Y-84611261D01*
X158058987Y-84531409D01*
X158058981Y-84531407D01*
X157854335Y-84490700D01*
X157854333Y-84490700D01*
X157645669Y-84490700D01*
X157645667Y-84490700D01*
X157441020Y-84531407D01*
X157441014Y-84531409D01*
X157248236Y-84611260D01*
X157193891Y-84647572D01*
X157127213Y-84668449D01*
X157059833Y-84649964D01*
X157056111Y-84647572D01*
X157001767Y-84611261D01*
X156808987Y-84531409D01*
X156808981Y-84531407D01*
X156604335Y-84490700D01*
X156604333Y-84490700D01*
X156395669Y-84490700D01*
X156395667Y-84490700D01*
X156191020Y-84531407D01*
X156191014Y-84531409D01*
X155998236Y-84611260D01*
X155943891Y-84647572D01*
X155877213Y-84668449D01*
X155809833Y-84649964D01*
X155806111Y-84647572D01*
X155751767Y-84611261D01*
X155558987Y-84531409D01*
X155558981Y-84531407D01*
X155354335Y-84490700D01*
X155354333Y-84490700D01*
X155145669Y-84490700D01*
X155145667Y-84490700D01*
X154941020Y-84531407D01*
X154941014Y-84531409D01*
X154748236Y-84611260D01*
X154693891Y-84647572D01*
X154627213Y-84668449D01*
X154559833Y-84649964D01*
X154556111Y-84647572D01*
X154501767Y-84611261D01*
X154308987Y-84531409D01*
X154308981Y-84531407D01*
X154104335Y-84490700D01*
X154104333Y-84490700D01*
X153895669Y-84490700D01*
X153895667Y-84490700D01*
X153691020Y-84531407D01*
X153691014Y-84531409D01*
X153498232Y-84611261D01*
X153324741Y-84727184D01*
X153324733Y-84727190D01*
X153177191Y-84874732D01*
X153177185Y-84874740D01*
X153061262Y-85048231D01*
X152981410Y-85241013D01*
X152981408Y-85241019D01*
X152940701Y-85445665D01*
X152940701Y-85445668D01*
X152940701Y-85654332D01*
X152940701Y-85654334D01*
X152940700Y-85654334D01*
X149549752Y-85654334D01*
X149645512Y-85639168D01*
X149866394Y-85567399D01*
X150073329Y-85461960D01*
X150261222Y-85325448D01*
X150425447Y-85161223D01*
X150561959Y-84973330D01*
X150667398Y-84766395D01*
X150739167Y-84545513D01*
X150770133Y-84350000D01*
X150775498Y-84316128D01*
X150775498Y-84083869D01*
X150744888Y-83890609D01*
X150739167Y-83854485D01*
X150667398Y-83633603D01*
X150667396Y-83633600D01*
X150667396Y-83633598D01*
X150605246Y-83511624D01*
X150561959Y-83426668D01*
X150425447Y-83238775D01*
X150261222Y-83074550D01*
X150073329Y-82938038D01*
X150044867Y-82923536D01*
X152303400Y-82923536D01*
X152332091Y-83067769D01*
X152332094Y-83067779D01*
X152388369Y-83203640D01*
X152388376Y-83203653D01*
X152470078Y-83325928D01*
X152470081Y-83325932D01*
X152574068Y-83429919D01*
X152574072Y-83429922D01*
X152696347Y-83511624D01*
X152696360Y-83511631D01*
X152832221Y-83567906D01*
X152832226Y-83567908D01*
X152832230Y-83567908D01*
X152832231Y-83567909D01*
X152976464Y-83596600D01*
X152976467Y-83596600D01*
X153123537Y-83596600D01*
X153220572Y-83577297D01*
X153267776Y-83567908D01*
X153403648Y-83511628D01*
X153525930Y-83429922D01*
X153629923Y-83325929D01*
X153711629Y-83203647D01*
X153765364Y-83073920D01*
X165849499Y-83073920D01*
X165878340Y-83218907D01*
X165878343Y-83218917D01*
X165934912Y-83355488D01*
X165934919Y-83355501D01*
X166017048Y-83478415D01*
X166017051Y-83478419D01*
X166121580Y-83582948D01*
X166121584Y-83582951D01*
X166244498Y-83665080D01*
X166244511Y-83665087D01*
X166381082Y-83721656D01*
X166381087Y-83721658D01*
X166381091Y-83721658D01*
X166381092Y-83721659D01*
X166526079Y-83750500D01*
X166526082Y-83750500D01*
X166673920Y-83750500D01*
X166771462Y-83731096D01*
X166818913Y-83721658D01*
X166955495Y-83665084D01*
X167078416Y-83582951D01*
X167182951Y-83478416D01*
X167265084Y-83355495D01*
X167321658Y-83218913D01*
X167350374Y-83074552D01*
X167350500Y-83073920D01*
X167350500Y-82926079D01*
X167350499Y-82926077D01*
X167349994Y-82923536D01*
X167953401Y-82923536D01*
X167982092Y-83067769D01*
X167982095Y-83067779D01*
X168038370Y-83203640D01*
X168038377Y-83203653D01*
X168120079Y-83325928D01*
X168120082Y-83325932D01*
X168224069Y-83429919D01*
X168224073Y-83429922D01*
X168346348Y-83511624D01*
X168346361Y-83511631D01*
X168482222Y-83567906D01*
X168482227Y-83567908D01*
X168482231Y-83567908D01*
X168482232Y-83567909D01*
X168626465Y-83596600D01*
X168626468Y-83596600D01*
X168773538Y-83596600D01*
X168870573Y-83577297D01*
X168917777Y-83567908D01*
X169053649Y-83511628D01*
X169175931Y-83429922D01*
X169279924Y-83325929D01*
X169361630Y-83203647D01*
X169417910Y-83067775D01*
X169443717Y-82938038D01*
X169446602Y-82923536D01*
X169446602Y-82776463D01*
X169417911Y-82632230D01*
X169417910Y-82632229D01*
X169417910Y-82632225D01*
X169417908Y-82632220D01*
X169361633Y-82496359D01*
X169361626Y-82496346D01*
X169279924Y-82374071D01*
X169279921Y-82374067D01*
X169175934Y-82270080D01*
X169175930Y-82270077D01*
X169053655Y-82188375D01*
X169053642Y-82188368D01*
X168917781Y-82132093D01*
X168917771Y-82132090D01*
X168773538Y-82103400D01*
X168773536Y-82103400D01*
X168626468Y-82103400D01*
X168626466Y-82103400D01*
X168482232Y-82132090D01*
X168482222Y-82132093D01*
X168346361Y-82188368D01*
X168346348Y-82188375D01*
X168224073Y-82270077D01*
X168224069Y-82270080D01*
X168120082Y-82374067D01*
X168120079Y-82374071D01*
X168038377Y-82496346D01*
X168038370Y-82496359D01*
X167982095Y-82632220D01*
X167982092Y-82632230D01*
X167953402Y-82776463D01*
X167953402Y-82776466D01*
X167953402Y-82923534D01*
X167953402Y-82923536D01*
X167953401Y-82923536D01*
X167349994Y-82923536D01*
X167324342Y-82794575D01*
X167324340Y-82794569D01*
X167321658Y-82781088D01*
X167321656Y-82781082D01*
X167265087Y-82644511D01*
X167265080Y-82644498D01*
X167182951Y-82521584D01*
X167182948Y-82521580D01*
X167078419Y-82417051D01*
X167078415Y-82417048D01*
X166955501Y-82334919D01*
X166955488Y-82334912D01*
X166818917Y-82278343D01*
X166818907Y-82278340D01*
X166673920Y-82249500D01*
X166673918Y-82249500D01*
X166526082Y-82249500D01*
X166526080Y-82249500D01*
X166381092Y-82278340D01*
X166381082Y-82278343D01*
X166244511Y-82334912D01*
X166244498Y-82334919D01*
X166121584Y-82417048D01*
X166121580Y-82417051D01*
X166017051Y-82521580D01*
X166017048Y-82521584D01*
X165934919Y-82644498D01*
X165934912Y-82644511D01*
X165878343Y-82781082D01*
X165878340Y-82781092D01*
X165849500Y-82926079D01*
X165849500Y-82926082D01*
X165849500Y-83073918D01*
X165849500Y-83073920D01*
X165849499Y-83073920D01*
X153765364Y-83073920D01*
X153767909Y-83067775D01*
X153793716Y-82938038D01*
X153796601Y-82923536D01*
X153796601Y-82776463D01*
X153767910Y-82632230D01*
X153767909Y-82632229D01*
X153767909Y-82632225D01*
X153767907Y-82632220D01*
X153711632Y-82496359D01*
X153711625Y-82496346D01*
X153629923Y-82374071D01*
X153629920Y-82374067D01*
X153525933Y-82270080D01*
X153525929Y-82270077D01*
X153403654Y-82188375D01*
X153403641Y-82188368D01*
X153267780Y-82132093D01*
X153267770Y-82132090D01*
X153123537Y-82103400D01*
X153123535Y-82103400D01*
X152976467Y-82103400D01*
X152976465Y-82103400D01*
X152832231Y-82132090D01*
X152832221Y-82132093D01*
X152696360Y-82188368D01*
X152696347Y-82188375D01*
X152574072Y-82270077D01*
X152574068Y-82270080D01*
X152470081Y-82374067D01*
X152470078Y-82374071D01*
X152388376Y-82496346D01*
X152388369Y-82496359D01*
X152332094Y-82632220D01*
X152332091Y-82632230D01*
X152303401Y-82776463D01*
X152303401Y-82776466D01*
X152303401Y-82923534D01*
X152303401Y-82923536D01*
X152303400Y-82923536D01*
X150044867Y-82923536D01*
X149950113Y-82875256D01*
X149866398Y-82832600D01*
X149645512Y-82760830D01*
X149416127Y-82724499D01*
X149416122Y-82724499D01*
X149183874Y-82724499D01*
X149183869Y-82724499D01*
X148954483Y-82760830D01*
X148733597Y-82832600D01*
X148526666Y-82938038D01*
X148338771Y-83074552D01*
X148174551Y-83238772D01*
X148038037Y-83426667D01*
X147932599Y-83633598D01*
X147860829Y-83854484D01*
X147824498Y-84083869D01*
X145775498Y-84083869D01*
X145744888Y-83890609D01*
X145739167Y-83854485D01*
X145667398Y-83633603D01*
X145667396Y-83633600D01*
X145667396Y-83633598D01*
X145605246Y-83511624D01*
X145561959Y-83426668D01*
X145425447Y-83238775D01*
X145261222Y-83074550D01*
X145073329Y-82938038D01*
X145049858Y-82926079D01*
X144866398Y-82832600D01*
X144645512Y-82760830D01*
X144416127Y-82724499D01*
X144416122Y-82724499D01*
X144183874Y-82724499D01*
X144183869Y-82724499D01*
X143954483Y-82760830D01*
X143733597Y-82832600D01*
X143526666Y-82938038D01*
X143338771Y-83074552D01*
X143174551Y-83238772D01*
X143038037Y-83426667D01*
X142932599Y-83633598D01*
X142860829Y-83854484D01*
X142824498Y-84083869D01*
X125775498Y-84083869D01*
X125744888Y-83890609D01*
X125739167Y-83854485D01*
X125667398Y-83633603D01*
X125667396Y-83633600D01*
X125667396Y-83633598D01*
X125605246Y-83511624D01*
X125561959Y-83426668D01*
X125425447Y-83238775D01*
X125261222Y-83074550D01*
X125073329Y-82938038D01*
X125049858Y-82926079D01*
X124866398Y-82832600D01*
X124645512Y-82760830D01*
X124416127Y-82724499D01*
X124416122Y-82724499D01*
X124183874Y-82724499D01*
X124183869Y-82724499D01*
X123954483Y-82760830D01*
X123733597Y-82832600D01*
X123526666Y-82938038D01*
X123338771Y-83074552D01*
X123174551Y-83238772D01*
X123038037Y-83426667D01*
X122932599Y-83633598D01*
X122860829Y-83854484D01*
X122824498Y-84083869D01*
X98500000Y-84083869D01*
X98500000Y-84011358D01*
X98467904Y-83850000D01*
X99450000Y-83850000D01*
X99450000Y-82702172D01*
X99449999Y-82702155D01*
X99443598Y-82642627D01*
X99443596Y-82642620D01*
X99393354Y-82507913D01*
X99393350Y-82507906D01*
X99307190Y-82392812D01*
X99307187Y-82392809D01*
X99192093Y-82306649D01*
X99192086Y-82306645D01*
X99057379Y-82256403D01*
X99057372Y-82256401D01*
X98997844Y-82250000D01*
X97850000Y-82250000D01*
X97850000Y-83232095D01*
X97688642Y-83200000D01*
X97511358Y-83200000D01*
X97350000Y-83232095D01*
X97350000Y-82250000D01*
X96202155Y-82250000D01*
X96142627Y-82256401D01*
X96142620Y-82256403D01*
X96007913Y-82306645D01*
X96007906Y-82306649D01*
X95892812Y-82392809D01*
X95892809Y-82392812D01*
X95806649Y-82507906D01*
X95806645Y-82507913D01*
X95756403Y-82642620D01*
X95756401Y-82642627D01*
X95750000Y-82702155D01*
X93300500Y-82702155D01*
X93300500Y-81873920D01*
X170049499Y-81873920D01*
X170078340Y-82018907D01*
X170078343Y-82018917D01*
X170134912Y-82155488D01*
X170134919Y-82155501D01*
X170217048Y-82278415D01*
X170217051Y-82278419D01*
X170321580Y-82382948D01*
X170321584Y-82382951D01*
X170444498Y-82465080D01*
X170444511Y-82465087D01*
X170580899Y-82521580D01*
X170581087Y-82521658D01*
X170581091Y-82521658D01*
X170581092Y-82521659D01*
X170726079Y-82550500D01*
X170726082Y-82550500D01*
X170873920Y-82550500D01*
X170971462Y-82531096D01*
X171018913Y-82521658D01*
X171155495Y-82465084D01*
X171278416Y-82382951D01*
X171382951Y-82278416D01*
X171465084Y-82155495D01*
X171521658Y-82018913D01*
X171550500Y-81873918D01*
X171550500Y-81726082D01*
X171550500Y-81726079D01*
X171521659Y-81581092D01*
X171521658Y-81581091D01*
X171521658Y-81581087D01*
X171521656Y-81581082D01*
X171465087Y-81444511D01*
X171465080Y-81444498D01*
X171382951Y-81321584D01*
X171382948Y-81321580D01*
X171278419Y-81217051D01*
X171278415Y-81217048D01*
X171155501Y-81134919D01*
X171155488Y-81134912D01*
X171018917Y-81078343D01*
X171018907Y-81078340D01*
X170873920Y-81049500D01*
X170873918Y-81049500D01*
X170726082Y-81049500D01*
X170726080Y-81049500D01*
X170581092Y-81078340D01*
X170581082Y-81078343D01*
X170444511Y-81134912D01*
X170444498Y-81134919D01*
X170321584Y-81217048D01*
X170321580Y-81217051D01*
X170217051Y-81321580D01*
X170217048Y-81321584D01*
X170134919Y-81444498D01*
X170134912Y-81444511D01*
X170078343Y-81581082D01*
X170078340Y-81581092D01*
X170049500Y-81726079D01*
X170049500Y-81726082D01*
X170049500Y-81873918D01*
X170049500Y-81873920D01*
X170049499Y-81873920D01*
X93300500Y-81873920D01*
X93300500Y-79924500D01*
X93320185Y-79857461D01*
X93372989Y-79811706D01*
X93424500Y-79800500D01*
X208575500Y-79800500D01*
X208642539Y-79820185D01*
G37*
%TD.AperFunction*%
%TD*%
M02*
