%TF.GenerationSoftware,KiCad,Pcbnew,9.0.3*%
%TF.CreationDate,2025-08-13T20:37:09+01:00*%
%TF.ProjectId,Elytra,456c7974-7261-42e6-9b69-6361645f7063,rev?*%
%TF.SameCoordinates,Original*%
%TF.FileFunction,Copper,L1,Top*%
%TF.FilePolarity,Positive*%
%FSLAX46Y46*%
G04 Gerber Fmt 4.6, Leading zero omitted, Abs format (unit mm)*
G04 Created by KiCad (PCBNEW 9.0.3) date 2025-08-13 20:37:09*
%MOMM*%
%LPD*%
G01*
G04 APERTURE LIST*
G04 Aperture macros list*
%AMRoundRect*
0 Rectangle with rounded corners*
0 $1 Rounding radius*
0 $2 $3 $4 $5 $6 $7 $8 $9 X,Y pos of 4 corners*
0 Add a 4 corners polygon primitive as box body*
4,1,4,$2,$3,$4,$5,$6,$7,$8,$9,$2,$3,0*
0 Add four circle primitives for the rounded corners*
1,1,$1+$1,$2,$3*
1,1,$1+$1,$4,$5*
1,1,$1+$1,$6,$7*
1,1,$1+$1,$8,$9*
0 Add four rect primitives between the rounded corners*
20,1,$1+$1,$2,$3,$4,$5,0*
20,1,$1+$1,$4,$5,$6,$7,0*
20,1,$1+$1,$6,$7,$8,$9,0*
20,1,$1+$1,$8,$9,$2,$3,0*%
%AMFreePoly0*
4,1,23,0.500000,-0.750000,0.000000,-0.750000,0.000000,-0.745722,-0.065263,-0.745722,-0.191342,-0.711940,-0.304381,-0.646677,-0.396677,-0.554381,-0.461940,-0.441342,-0.495722,-0.315263,-0.495722,-0.250000,-0.500000,-0.250000,-0.500000,0.250000,-0.495722,0.250000,-0.495722,0.315263,-0.461940,0.441342,-0.396677,0.554381,-0.304381,0.646677,-0.191342,0.711940,-0.065263,0.745722,0.000000,0.745722,
0.000000,0.750000,0.500000,0.750000,0.500000,-0.750000,0.500000,-0.750000,$1*%
%AMFreePoly1*
4,1,23,0.000000,0.745722,0.065263,0.745722,0.191342,0.711940,0.304381,0.646677,0.396677,0.554381,0.461940,0.441342,0.495722,0.315263,0.495722,0.250000,0.500000,0.250000,0.500000,-0.250000,0.495722,-0.250000,0.495722,-0.315263,0.461940,-0.441342,0.396677,-0.554381,0.304381,-0.646677,0.191342,-0.711940,0.065263,-0.745722,0.000000,-0.745722,0.000000,-0.750000,-0.500000,-0.750000,
-0.500000,0.750000,0.000000,0.750000,0.000000,0.745722,0.000000,0.745722,$1*%
G04 Aperture macros list end*
%TA.AperFunction,SMDPad,CuDef*%
%ADD10R,6.520000X1.440000*%
%TD*%
%TA.AperFunction,SMDPad,CuDef*%
%ADD11R,5.918200X5.511800*%
%TD*%
%TA.AperFunction,SMDPad,CuDef*%
%ADD12R,2.489200X0.939800*%
%TD*%
%TA.AperFunction,SMDPad,CuDef*%
%ADD13R,6.299200X5.562600*%
%TD*%
%TA.AperFunction,SMDPad,CuDef*%
%ADD14R,0.450000X1.475000*%
%TD*%
%TA.AperFunction,SMDPad,CuDef*%
%ADD15R,1.475000X0.450000*%
%TD*%
%TA.AperFunction,SMDPad,CuDef*%
%ADD16R,1.422400X0.558800*%
%TD*%
%TA.AperFunction,SMDPad,CuDef*%
%ADD17RoundRect,0.125000X-0.281400X0.125000X-0.281400X-0.125000X0.281400X-0.125000X0.281400X0.125000X0*%
%TD*%
%TA.AperFunction,SMDPad,CuDef*%
%ADD18R,1.300000X1.500000*%
%TD*%
%TA.AperFunction,SMDPad,CuDef*%
%ADD19R,2.250000X1.600000*%
%TD*%
%TA.AperFunction,ComponentPad*%
%ADD20R,2.700000X2.700000*%
%TD*%
%TA.AperFunction,ComponentPad*%
%ADD21C,2.700000*%
%TD*%
%TA.AperFunction,SMDPad,CuDef*%
%ADD22RoundRect,0.125000X-0.125000X-0.281400X0.125000X-0.281400X0.125000X0.281400X-0.125000X0.281400X0*%
%TD*%
%TA.AperFunction,SMDPad,CuDef*%
%ADD23RoundRect,0.125000X0.281400X-0.125000X0.281400X0.125000X-0.281400X0.125000X-0.281400X-0.125000X0*%
%TD*%
%TA.AperFunction,SMDPad,CuDef*%
%ADD24RoundRect,0.250000X-0.475000X0.325000X-0.475000X-0.325000X0.475000X-0.325000X0.475000X0.325000X0*%
%TD*%
%TA.AperFunction,SMDPad,CuDef*%
%ADD25RoundRect,0.230000X-0.260000X0.230000X-0.260000X-0.230000X0.260000X-0.230000X0.260000X0.230000X0*%
%TD*%
%TA.AperFunction,SMDPad,CuDef*%
%ADD26RoundRect,0.230000X-0.230000X-0.260000X0.230000X-0.260000X0.230000X0.260000X-0.230000X0.260000X0*%
%TD*%
%TA.AperFunction,SMDPad,CuDef*%
%ADD27RoundRect,0.227500X-0.307500X0.227500X-0.307500X-0.227500X0.307500X-0.227500X0.307500X0.227500X0*%
%TD*%
%TA.AperFunction,SMDPad,CuDef*%
%ADD28RoundRect,0.250000X0.325000X0.325000X-0.325000X0.325000X-0.325000X-0.325000X0.325000X-0.325000X0*%
%TD*%
%TA.AperFunction,SMDPad,CuDef*%
%ADD29R,1.050000X1.000000*%
%TD*%
%TA.AperFunction,SMDPad,CuDef*%
%ADD30R,2.000000X2.000000*%
%TD*%
%TA.AperFunction,SMDPad,CuDef*%
%ADD31R,0.711200X0.406400*%
%TD*%
%TA.AperFunction,SMDPad,CuDef*%
%ADD32FreePoly0,270.000000*%
%TD*%
%TA.AperFunction,SMDPad,CuDef*%
%ADD33FreePoly1,270.000000*%
%TD*%
%TA.AperFunction,SMDPad,CuDef*%
%ADD34R,5.410200X2.895600*%
%TD*%
%TA.AperFunction,SMDPad,CuDef*%
%ADD35R,1.820000X0.820000*%
%TD*%
%TA.AperFunction,SMDPad,CuDef*%
%ADD36RoundRect,0.250000X-0.325000X-0.325000X0.325000X-0.325000X0.325000X0.325000X-0.325000X0.325000X0*%
%TD*%
%TA.AperFunction,SMDPad,CuDef*%
%ADD37RoundRect,0.250000X0.260000X0.660000X-0.260000X0.660000X-0.260000X-0.660000X0.260000X-0.660000X0*%
%TD*%
%TA.AperFunction,SMDPad,CuDef*%
%ADD38RoundRect,0.230000X0.230000X0.260000X-0.230000X0.260000X-0.230000X-0.260000X0.230000X-0.260000X0*%
%TD*%
%TA.AperFunction,SMDPad,CuDef*%
%ADD39FreePoly0,90.000000*%
%TD*%
%TA.AperFunction,SMDPad,CuDef*%
%ADD40FreePoly1,90.000000*%
%TD*%
%TA.AperFunction,SMDPad,CuDef*%
%ADD41RoundRect,0.250000X0.660000X-0.260000X0.660000X0.260000X-0.660000X0.260000X-0.660000X-0.260000X0*%
%TD*%
%TA.AperFunction,SMDPad,CuDef*%
%ADD42RoundRect,0.250000X0.325000X-0.325000X0.325000X0.325000X-0.325000X0.325000X-0.325000X-0.325000X0*%
%TD*%
%TA.AperFunction,SMDPad,CuDef*%
%ADD43R,0.820000X1.820000*%
%TD*%
%TA.AperFunction,ComponentPad*%
%ADD44C,1.950000*%
%TD*%
%TA.AperFunction,SMDPad,CuDef*%
%ADD45R,3.500000X2.950000*%
%TD*%
%TA.AperFunction,SMDPad,CuDef*%
%ADD46R,1.500000X1.300000*%
%TD*%
%TA.AperFunction,SMDPad,CuDef*%
%ADD47FreePoly0,180.000000*%
%TD*%
%TA.AperFunction,SMDPad,CuDef*%
%ADD48FreePoly1,180.000000*%
%TD*%
%TA.AperFunction,SMDPad,CuDef*%
%ADD49R,1.600000X2.500000*%
%TD*%
%TA.AperFunction,SMDPad,CuDef*%
%ADD50RoundRect,0.230000X0.260000X-0.230000X0.260000X0.230000X-0.260000X0.230000X-0.260000X-0.230000X0*%
%TD*%
%TA.AperFunction,SMDPad,CuDef*%
%ADD51R,1.000000X1.050000*%
%TD*%
%TA.AperFunction,SMDPad,CuDef*%
%ADD52R,2.311400X0.304800*%
%TD*%
%TA.AperFunction,SMDPad,CuDef*%
%ADD53R,0.254000X0.889000*%
%TD*%
%TA.AperFunction,SMDPad,CuDef*%
%ADD54R,3.900000X2.100000*%
%TD*%
%TA.AperFunction,SMDPad,CuDef*%
%ADD55RoundRect,0.250000X-0.325000X0.325000X-0.325000X-0.325000X0.325000X-0.325000X0.325000X0.325000X0*%
%TD*%
%TA.AperFunction,SMDPad,CuDef*%
%ADD56RoundRect,0.250000X-0.660000X0.260000X-0.660000X-0.260000X0.660000X-0.260000X0.660000X0.260000X0*%
%TD*%
%TA.AperFunction,SMDPad,CuDef*%
%ADD57R,2.950000X4.500000*%
%TD*%
%TA.AperFunction,SMDPad,CuDef*%
%ADD58R,1.651000X2.184400*%
%TD*%
%TA.AperFunction,SMDPad,CuDef*%
%ADD59RoundRect,0.050000X-0.150000X-0.300000X0.150000X-0.300000X0.150000X0.300000X-0.150000X0.300000X0*%
%TD*%
%TA.AperFunction,SMDPad,CuDef*%
%ADD60RoundRect,0.050000X0.450000X0.125000X-0.450000X0.125000X-0.450000X-0.125000X0.450000X-0.125000X0*%
%TD*%
%TA.AperFunction,SMDPad,CuDef*%
%ADD61RoundRect,0.062500X-0.062500X-0.287500X0.062500X-0.287500X0.062500X0.287500X-0.062500X0.287500X0*%
%TD*%
%TA.AperFunction,SMDPad,CuDef*%
%ADD62RoundRect,0.075000X-0.075000X-0.275000X0.075000X-0.275000X0.075000X0.275000X-0.075000X0.275000X0*%
%TD*%
%TA.AperFunction,SMDPad,CuDef*%
%ADD63RoundRect,0.050000X-0.075000X-0.300000X0.075000X-0.300000X0.075000X0.300000X-0.075000X0.300000X0*%
%TD*%
%TA.AperFunction,SMDPad,CuDef*%
%ADD64RoundRect,0.050000X-0.300000X0.075000X-0.300000X-0.075000X0.300000X-0.075000X0.300000X0.075000X0*%
%TD*%
%TA.AperFunction,SMDPad,CuDef*%
%ADD65RoundRect,0.050000X-0.450000X0.150000X-0.450000X-0.150000X0.450000X-0.150000X0.450000X0.150000X0*%
%TD*%
%TA.AperFunction,SMDPad,CuDef*%
%ADD66RoundRect,0.050000X-0.150000X-0.350000X0.150000X-0.350000X0.150000X0.350000X-0.150000X0.350000X0*%
%TD*%
%TA.AperFunction,SMDPad,CuDef*%
%ADD67RoundRect,0.050000X-0.150000X-1.150000X0.150000X-1.150000X0.150000X1.150000X-0.150000X1.150000X0*%
%TD*%
%TA.AperFunction,SMDPad,CuDef*%
%ADD68RoundRect,0.050000X0.450000X-0.150000X0.450000X0.150000X-0.450000X0.150000X-0.450000X-0.150000X0*%
%TD*%
%TA.AperFunction,SMDPad,CuDef*%
%ADD69RoundRect,0.062500X-0.287500X0.062500X-0.287500X-0.062500X0.287500X-0.062500X0.287500X0.062500X0*%
%TD*%
%TA.AperFunction,ComponentPad*%
%ADD70C,1.500000*%
%TD*%
%TA.AperFunction,SMDPad,CuDef*%
%ADD71RoundRect,0.127000X-0.127000X0.152400X-0.127000X-0.152400X0.127000X-0.152400X0.127000X0.152400X0*%
%TD*%
%TA.AperFunction,ComponentPad*%
%ADD72C,1.117600*%
%TD*%
%TA.AperFunction,SMDPad,CuDef*%
%ADD73RoundRect,0.125000X0.125000X0.281400X-0.125000X0.281400X-0.125000X-0.281400X0.125000X-0.281400X0*%
%TD*%
%TA.AperFunction,ViaPad*%
%ADD74C,0.500000*%
%TD*%
%TA.AperFunction,ViaPad*%
%ADD75C,0.600000*%
%TD*%
%TA.AperFunction,ViaPad*%
%ADD76C,0.700000*%
%TD*%
%TA.AperFunction,Conductor*%
%ADD77C,0.250000*%
%TD*%
%TA.AperFunction,Conductor*%
%ADD78C,0.750000*%
%TD*%
%TA.AperFunction,Conductor*%
%ADD79C,0.500000*%
%TD*%
%TA.AperFunction,Conductor*%
%ADD80C,1.000000*%
%TD*%
%TA.AperFunction,Conductor*%
%ADD81C,0.185000*%
%TD*%
%TA.AperFunction,Conductor*%
%ADD82C,1.500000*%
%TD*%
G04 APERTURE END LIST*
D10*
%TO.P,R26,2*%
%TO.N,GND*%
X159705750Y-101610000D03*
%TO.P,R26,1*%
%TO.N,Net-(U8-E)*%
X159705750Y-104290000D03*
%TD*%
D11*
%TO.P,U10,3,E*%
%TO.N,Net-(U10-E)*%
X109928950Y-118123528D03*
D12*
%TO.P,U10,2,C*%
%TO.N,VDC*%
X118107750Y-115837528D03*
%TO.P,U10,1,B*%
%TO.N,Net-(U10-B)*%
X118107750Y-120409528D03*
%TD*%
%TO.P,U11,1*%
%TO.N,Net-(K1-NO_2)*%
X114653400Y-92985999D03*
%TO.P,U11,2*%
X114653400Y-88413999D03*
D13*
%TO.P,U11,3,K*%
%TO.N,VBAT2*%
X106500000Y-90699999D03*
%TD*%
D12*
%TO.P,U3,1*%
%TO.N,Net-(K2-NO_2)*%
X114653400Y-100485999D03*
%TO.P,U3,2*%
X114653400Y-95913999D03*
D13*
%TO.P,U3,3,K*%
%TO.N,VBAT1*%
X106500000Y-98199999D03*
%TD*%
D14*
%TO.P,IC3,1,OUT1*%
%TO.N,/V4_OUT*%
X205940000Y-84174000D03*
%TO.P,IC3,2,IN1-*%
X205290000Y-84174000D03*
%TO.P,IC3,3,IN1+*%
%TO.N,/V4_IN*%
X204640000Y-84174000D03*
%TO.P,IC3,4,V-*%
%TO.N,GND*%
X203990000Y-84174000D03*
%TO.P,IC3,5,IN2+*%
%TO.N,/V1_IN*%
X203990000Y-90050000D03*
%TO.P,IC3,6,IN2-*%
%TO.N,/V1_OUT*%
X204640000Y-90050000D03*
%TO.P,IC3,7,OUT2*%
X205290000Y-90050000D03*
%TO.P,IC3,8,V+*%
%TO.N,+14V*%
X205940000Y-90050000D03*
%TD*%
D15*
%TO.P,IC2,1,OUT1*%
%TO.N,/V2_OUT*%
X191338000Y-107125000D03*
%TO.P,IC2,2,IN1-*%
X191338000Y-106475000D03*
%TO.P,IC2,3,IN1+*%
%TO.N,/V2_IN*%
X191338000Y-105825000D03*
%TO.P,IC2,4,V-*%
%TO.N,GND*%
X191338000Y-105175000D03*
%TO.P,IC2,5,IN2+*%
%TO.N,/V3_IN*%
X185462000Y-105175000D03*
%TO.P,IC2,6,IN2-*%
%TO.N,/V3_OUT*%
X185462000Y-105825000D03*
%TO.P,IC2,7,OUT2*%
X185462000Y-106475000D03*
%TO.P,IC2,8,V+*%
%TO.N,+14V*%
X185462000Y-107125000D03*
%TD*%
D14*
%TO.P,IC1,1,OUT1*%
%TO.N,/V0_OUT*%
X205940000Y-128075000D03*
%TO.P,IC1,2,IN1-*%
X205290000Y-128075000D03*
%TO.P,IC1,3,IN1+*%
%TO.N,/V0_IN*%
X204640000Y-128075000D03*
%TO.P,IC1,4,V-*%
%TO.N,GND*%
X203990000Y-128075000D03*
%TO.P,IC1,5,IN2+*%
%TO.N,/V5_IN*%
X203990000Y-133951000D03*
%TO.P,IC1,6,IN2-*%
%TO.N,/V5_OUT*%
X204640000Y-133951000D03*
%TO.P,IC1,7,OUT2*%
X205290000Y-133951000D03*
%TO.P,IC1,8,V+*%
%TO.N,+14V*%
X205940000Y-133951000D03*
%TD*%
D16*
%TO.P,U4,1,B*%
%TO.N,Net-(U4-B)*%
X115034799Y-105297499D03*
%TO.P,U4,2,E*%
%TO.N,GND*%
X115034799Y-107202499D03*
%TO.P,U4,3,C*%
%TO.N,Net-(U4-C)*%
X116965199Y-106249999D03*
%TD*%
D17*
%TO.P,R_ENT1,1*%
%TO.N,Net-(U1-EN{slash}SYNC)*%
X135769739Y-120443994D03*
%TO.P,R_ENT1,2*%
%TO.N,VDC*%
X135769739Y-121943994D03*
%TD*%
D18*
%TO.P,K4,1*%
%TO.N,+3.3V*%
X191125000Y-113100000D03*
%TO.P,K4,2*%
%TO.N,/FIRE_OUT2*%
X191125000Y-110560000D03*
%TO.P,K4,3*%
%TO.N,Net-(U8-C)*%
X182575000Y-110560000D03*
%TO.P,K4,4*%
%TO.N,Net-(D6-K)*%
X182575000Y-113100000D03*
%TD*%
D19*
%TO.P,D3,1,K*%
%TO.N,+5V*%
X157148560Y-135649999D03*
%TO.P,D3,2,A*%
%TO.N,Net-(D3-A)*%
X153148560Y-135649999D03*
%TD*%
D20*
%TO.P,J2,1,1*%
%TO.N,GND*%
X97624999Y-101470000D03*
D21*
%TO.P,J2,2,2*%
%TO.N,VBAT1*%
X97624999Y-96470000D03*
%TD*%
D22*
%TO.P,R23,1*%
%TO.N,Net-(U6-FB)*%
X115650004Y-133726470D03*
%TO.P,R23,2*%
%TO.N,GND*%
X117150004Y-133726470D03*
%TD*%
%TO.P,R17,1*%
%TO.N,Net-(U10-E)*%
X109900004Y-127426471D03*
%TO.P,R17,2*%
%TO.N,Net-(U6-EN)*%
X111400004Y-127426471D03*
%TD*%
D23*
%TO.P,R1,1*%
%TO.N,Net-(U2-B)*%
X116799999Y-82499999D03*
%TO.P,R1,2*%
%TO.N,+14V*%
X116799999Y-80999999D03*
%TD*%
D22*
%TO.P,R_PG1,1*%
%TO.N,/DC.DC3 VCC*%
X138719740Y-116393995D03*
%TO.P,R_PG1,2*%
%TO.N,/DC.DC3 PGOOD*%
X140219740Y-116393995D03*
%TD*%
D24*
%TO.P,C_OUT1,1*%
%TO.N,Net-(D3-A)*%
X150650000Y-134850000D03*
%TO.P,C_OUT1,2*%
%TO.N,GND*%
X150650000Y-136650000D03*
%TD*%
D25*
%TO.P,C18,1*%
%TO.N,Net-(U6-COMP)*%
X113623199Y-135385124D03*
%TO.P,C18,2*%
%TO.N,GND*%
X113623199Y-136935124D03*
%TD*%
D26*
%TO.P,C11,1*%
%TO.N,Net-(U10-E)*%
X111075000Y-125826471D03*
%TO.P,C11,2*%
%TO.N,GND*%
X112625000Y-125826471D03*
%TD*%
D27*
%TO.P,D2,A*%
%TO.N,Net-(U4-C)*%
X118199999Y-104854999D03*
%TO.P,D2,C*%
%TO.N,+14V*%
X118199999Y-101644999D03*
%TD*%
D22*
%TO.P,R19,1*%
%TO.N,Net-(U6-ILIM)*%
X116404500Y-128313134D03*
%TO.P,R19,2*%
%TO.N,Net-(C15-Pad1)*%
X117904500Y-128313134D03*
%TD*%
D28*
%TO.P,R8,1*%
%TO.N,Net-(K2-NO_2)*%
X111799998Y-103599999D03*
%TO.P,R8,2*%
%TO.N,Net-(C8-Pad2)*%
X109449998Y-103599999D03*
%TD*%
D26*
%TO.P,C10,1*%
%TO.N,Net-(U10-E)*%
X111085714Y-124261037D03*
%TO.P,C10,2*%
%TO.N,GND*%
X112635714Y-124261037D03*
%TD*%
D23*
%TO.P,R_FBB1,1*%
%TO.N,GND*%
X134769740Y-116393995D03*
%TO.P,R_FBB1,2*%
%TO.N,Net-(R_FBB1-Pad2)*%
X134769740Y-114893995D03*
%TD*%
D29*
%TO.P,CR4,1*%
%TO.N,Net-(CR4-Pad1)*%
X197276530Y-132277360D03*
%TO.P,CR4,2*%
%TO.N,/V0_IN*%
X198776530Y-132277360D03*
%TD*%
D20*
%TO.P,J3,1,1*%
%TO.N,GND*%
X97600000Y-84100000D03*
D21*
%TO.P,J3,2,2*%
%TO.N,VBAT2*%
X97600000Y-89100000D03*
%TD*%
D25*
%TO.P,C19,1*%
%TO.N,+14V*%
X117427358Y-130468589D03*
%TO.P,C19,2*%
%TO.N,GND*%
X117427358Y-132018589D03*
%TD*%
D10*
%TO.P,R25,1*%
%TO.N,Net-(U8-E)*%
X166805750Y-104290000D03*
%TO.P,R25,2*%
%TO.N,GND*%
X166805750Y-101610000D03*
%TD*%
D23*
%TO.P,R5,1*%
%TO.N,Net-(U4-B)*%
X116299998Y-103399999D03*
%TO.P,R5,2*%
%TO.N,+14V*%
X116299998Y-101899999D03*
%TD*%
D22*
%TO.P,R2,1*%
%TO.N,GND*%
X111649999Y-82799999D03*
%TO.P,R2,2*%
%TO.N,Net-(U2-B)*%
X113149999Y-82799999D03*
%TD*%
D19*
%TO.P,D8,1,K*%
%TO.N,Net-(D8-K)*%
X190140000Y-89360000D03*
%TO.P,D8,2,A*%
%TO.N,/V1_IN*%
X186140000Y-89360000D03*
%TD*%
D30*
%TO.P,TP2,1,1*%
%TO.N,+14V*%
X124450001Y-131176471D03*
%TD*%
D23*
%TO.P,R_FF1,1*%
%TO.N,Net-(D3-A)*%
X133969740Y-113615495D03*
%TO.P,R_FF1,2*%
%TO.N,Net-(C_FF1-Pad1)*%
X133969740Y-112115495D03*
%TD*%
D12*
%TO.P,U7,1,B*%
%TO.N,/VB1*%
X174321199Y-127814000D03*
%TO.P,U7,2,E*%
%TO.N,Net-(U7-E)*%
X174321199Y-132386000D03*
D11*
%TO.P,U7,3,C*%
%TO.N,Net-(U7-C)*%
X182499999Y-130100000D03*
%TD*%
D24*
%TO.P,C20,1*%
%TO.N,+14V*%
X121227022Y-130334831D03*
%TO.P,C20,2*%
%TO.N,GND*%
X121227022Y-132134831D03*
%TD*%
D25*
%TO.P,C13,1*%
%TO.N,Net-(U6-SS)*%
X110396201Y-135402943D03*
%TO.P,C13,2*%
%TO.N,GND*%
X110396201Y-136952943D03*
%TD*%
D10*
%TO.P,R31,1*%
%TO.N,Net-(U9-E)*%
X168000000Y-90900000D03*
%TO.P,R31,2*%
%TO.N,GND*%
X168000000Y-88220000D03*
%TD*%
D30*
%TO.P,TP3,1,1*%
%TO.N,+5V*%
X173800000Y-136050000D03*
%TD*%
D31*
%TO.P,CR11,1*%
%TO.N,+14V*%
X165606200Y-98700000D03*
%TO.P,CR11,2*%
%TO.N,/VB2*%
X167993800Y-98700000D03*
%TD*%
D32*
%TO.P,JP2,1,A*%
%TO.N,/V5_IN*%
X184699999Y-134950001D03*
D33*
%TO.P,JP2,2,B*%
%TO.N,/PYRO2_OUT*%
X184699999Y-136250001D03*
%TD*%
D17*
%TO.P,R_RT1,1*%
%TO.N,Net-(R_RT1-Pad1)*%
X136369741Y-117643995D03*
%TO.P,R_RT1,2*%
%TO.N,Net-(U1-RT)*%
X136369741Y-119143995D03*
%TD*%
D34*
%TO.P,L2,1,1*%
%TO.N,Net-(U10-E)*%
X100600000Y-123148600D03*
%TO.P,L2,2,2*%
%TO.N,Net-(U6-SW)*%
X100600000Y-132851400D03*
%TD*%
D35*
%TO.P,F6,1,1*%
%TO.N,/V4_IN*%
X197365000Y-84950000D03*
%TO.P,F6,2,2*%
%TO.N,/PYRO6_OUT*%
X197365000Y-81650000D03*
%TD*%
D19*
%TO.P,D6,1,K*%
%TO.N,Net-(D6-K)*%
X179550000Y-114224999D03*
%TO.P,D6,2,A*%
%TO.N,/V2_IN*%
X175550000Y-114224999D03*
%TD*%
D36*
%TO.P,R9,1*%
%TO.N,/VB1*%
X173300000Y-125500000D03*
%TO.P,R9,2*%
%TO.N,GND*%
X175650000Y-125500000D03*
%TD*%
D16*
%TO.P,U2,1,B*%
%TO.N,Net-(U2-B)*%
X115634799Y-84847499D03*
%TO.P,U2,2,E*%
%TO.N,GND*%
X115634799Y-86752499D03*
%TO.P,U2,3,C*%
%TO.N,Net-(U2-C)*%
X117565199Y-85799999D03*
%TD*%
D37*
%TO.P,C1,1*%
%TO.N,VBAT1*%
X97500001Y-108469998D03*
%TO.P,C1,2*%
%TO.N,GND*%
X94700001Y-108469998D03*
%TD*%
D38*
%TO.P,C_BIAS1,1*%
%TO.N,Net-(U1-BIAS)*%
X140344740Y-118093995D03*
%TO.P,C_BIAS1,2*%
%TO.N,/DC.DC3 PGOOD*%
X138794740Y-118093995D03*
%TD*%
D25*
%TO.P,C_IN_HFI2,1*%
%TO.N,VDC*%
X142569740Y-124618995D03*
%TO.P,C_IN_HFI2,2*%
%TO.N,GND*%
X142569740Y-126168995D03*
%TD*%
D24*
%TO.P,C_OUT3,1*%
%TO.N,Net-(D3-A)*%
X146450003Y-134850000D03*
%TO.P,C_OUT3,2*%
%TO.N,GND*%
X146450003Y-136650000D03*
%TD*%
D39*
%TO.P,JP5,1,A*%
%TO.N,/V1_IN*%
X183415000Y-83950000D03*
D40*
%TO.P,JP5,2,B*%
%TO.N,/PYRO5_OUT*%
X183415000Y-82650000D03*
%TD*%
D41*
%TO.P,C3,1*%
%TO.N,VDC*%
X114650002Y-113100000D03*
%TO.P,C3,2*%
%TO.N,GND*%
X114650002Y-110300000D03*
%TD*%
D27*
%TO.P,D1,A*%
%TO.N,Net-(U2-C)*%
X118799999Y-84304999D03*
%TO.P,D1,C*%
%TO.N,+14V*%
X118799999Y-81094999D03*
%TD*%
D36*
%TO.P,R34,1*%
%TO.N,/VB3*%
X175800000Y-83300000D03*
%TO.P,R34,2*%
%TO.N,GND*%
X178150000Y-83300000D03*
%TD*%
D10*
%TO.P,R24,1*%
%TO.N,Net-(U8-E)*%
X166800000Y-106360000D03*
%TO.P,R24,2*%
%TO.N,GND*%
X166800000Y-109040000D03*
%TD*%
D42*
%TO.P,R32,1*%
%TO.N,Net-(CR10-Pad1)*%
X193425000Y-85675000D03*
%TO.P,R32,2*%
%TO.N,GND*%
X193425000Y-83325000D03*
%TD*%
D37*
%TO.P,C_IN1,1*%
%TO.N,VDC*%
X135769739Y-123693995D03*
%TO.P,C_IN1,2*%
%TO.N,GND*%
X132969739Y-123693995D03*
%TD*%
D43*
%TO.P,F3,1,1*%
%TO.N,/V2_IN*%
X171300002Y-114050000D03*
%TO.P,F3,2,2*%
%TO.N,/PYRO3_OUT*%
X168000002Y-114050000D03*
%TD*%
D10*
%TO.P,R12,1*%
%TO.N,Net-(U7-E)*%
X162050000Y-131550000D03*
%TO.P,R12,2*%
%TO.N,GND*%
X162050000Y-128870000D03*
%TD*%
D23*
%TO.P,R_RT2,1*%
%TO.N,GND*%
X134669739Y-119143996D03*
%TO.P,R_RT2,2*%
%TO.N,Net-(R_RT1-Pad1)*%
X134669739Y-117643996D03*
%TD*%
D38*
%TO.P,C_IN_HFI1,1*%
%TO.N,VDC*%
X135744740Y-125593996D03*
%TO.P,C_IN_HFI1,2*%
%TO.N,GND*%
X134194740Y-125593996D03*
%TD*%
D10*
%TO.P,R14,1*%
%TO.N,Net-(U7-E)*%
X169150000Y-131550000D03*
%TO.P,R14,2*%
%TO.N,GND*%
X169150000Y-128870000D03*
%TD*%
D44*
%TO.P,K1,1,COIL_1*%
%TO.N,Net-(K1-COIL_1)*%
X124299998Y-91699999D03*
%TO.P,K1,3,COM_1*%
%TO.N,unconnected-(K1-COM_1-Pad3)*%
X144299998Y-91699999D03*
%TO.P,K1,4,NO_1*%
%TO.N,unconnected-(K1-NO_1-Pad4)*%
X149299998Y-91699999D03*
%TO.P,K1,5,NO_2*%
%TO.N,Net-(K1-NO_2)*%
X149299998Y-84199999D03*
%TO.P,K1,6,COM_2*%
%TO.N,VFill*%
X144299998Y-84199999D03*
%TO.P,K1,8,COIL_2*%
%TO.N,+14V*%
X124299998Y-84199999D03*
%TD*%
D32*
%TO.P,JP1,1,A*%
%TO.N,/V0_IN*%
X200990001Y-134574998D03*
D33*
%TO.P,JP1,2,B*%
%TO.N,/PYRO1_OUT*%
X200990001Y-135874998D03*
%TD*%
D45*
%TO.P,L_SW1,1,1*%
%TO.N,Net-(U1-SW)*%
X138969740Y-129568996D03*
%TO.P,L_SW1,2,2*%
%TO.N,Net-(D3-A)*%
X138969740Y-135018996D03*
%TD*%
D19*
%TO.P,D7,1,K*%
%TO.N,Net-(D6-K)*%
X179550000Y-117600000D03*
%TO.P,D7,2,A*%
%TO.N,/V3_IN*%
X175550000Y-117600000D03*
%TD*%
D17*
%TO.P,R_FBB2,1*%
%TO.N,Net-(R_FBB1-Pad2)*%
X136369739Y-114893995D03*
%TO.P,R_FBB2,2*%
%TO.N,Net-(U1-FB)*%
X136369739Y-116393995D03*
%TD*%
D29*
%TO.P,CR9,1*%
%TO.N,Net-(CR9-Pad1)*%
X187215000Y-86650000D03*
%TO.P,CR9,2*%
%TO.N,/V1_IN*%
X185715000Y-86650000D03*
%TD*%
D46*
%TO.P,K5,1*%
%TO.N,+3.3V*%
X188090000Y-101925000D03*
%TO.P,K5,2*%
%TO.N,/FIRE_OUT3*%
X190630000Y-101925000D03*
%TO.P,K5,3*%
%TO.N,Net-(U9-C)*%
X190630000Y-93375000D03*
%TO.P,K5,4*%
%TO.N,Net-(D8-K)*%
X188090000Y-93375000D03*
%TD*%
D36*
%TO.P,R27,1*%
%TO.N,Net-(CR8-Pad1)*%
X174075002Y-121800000D03*
%TO.P,R27,2*%
%TO.N,GND*%
X176425002Y-121800000D03*
%TD*%
D12*
%TO.P,U9,1,B*%
%TO.N,/VB3*%
X173236500Y-86714000D03*
%TO.P,U9,2,E*%
%TO.N,Net-(U9-E)*%
X173236500Y-91286000D03*
D11*
%TO.P,U9,3,C*%
%TO.N,Net-(U9-C)*%
X181415300Y-89000000D03*
%TD*%
D47*
%TO.P,JP4,1,A*%
%TO.N,/V3_IN*%
X170300002Y-120399998D03*
D48*
%TO.P,JP4,2,B*%
%TO.N,/PYRO4_OUT*%
X169000002Y-120399998D03*
%TD*%
D17*
%TO.P,R_BIAS1,1*%
%TO.N,Net-(U1-BIAS)*%
X141869739Y-118543997D03*
%TO.P,R_BIAS1,2*%
%TO.N,Net-(D3-A)*%
X141869739Y-120043997D03*
%TD*%
D10*
%TO.P,R13,1*%
%TO.N,Net-(U7-E)*%
X165600000Y-133560000D03*
%TO.P,R13,2*%
%TO.N,GND*%
X165600000Y-136240000D03*
%TD*%
D29*
%TO.P,CR6,1*%
%TO.N,Net-(CR6-Pad1)*%
X188499999Y-132250003D03*
%TO.P,CR6,2*%
%TO.N,/V5_IN*%
X186999999Y-132250003D03*
%TD*%
D49*
%TO.P,C_IN-BLK1,1*%
%TO.N,VDC*%
X148763489Y-121437744D03*
%TO.P,C_IN-BLK1,2*%
%TO.N,GND*%
X148763489Y-117937744D03*
%TD*%
D22*
%TO.P,R20,1*%
%TO.N,Net-(C15-Pad1)*%
X119089289Y-128306898D03*
%TO.P,R20,2*%
%TO.N,GND*%
X120589289Y-128306898D03*
%TD*%
D50*
%TO.P,C14,1*%
%TO.N,Net-(U6-SW)*%
X109650004Y-130826467D03*
%TO.P,C14,2*%
%TO.N,Net-(U6-BST)*%
X109650004Y-129276467D03*
%TD*%
D24*
%TO.P,C_OUT2,1*%
%TO.N,Net-(D3-A)*%
X148550002Y-134850000D03*
%TO.P,C_OUT2,2*%
%TO.N,GND*%
X148550002Y-136650000D03*
%TD*%
D51*
%TO.P,CR8,1*%
%TO.N,Net-(CR8-Pad1)*%
X173100002Y-119100000D03*
%TO.P,CR8,2*%
%TO.N,/V3_IN*%
X173100002Y-117600000D03*
%TD*%
D52*
%TO.P,U6,1,SW*%
%TO.N,Net-(U6-SW)*%
X112250002Y-131426471D03*
D53*
%TO.P,U6,2,VDD*%
%TO.N,Net-(U6-MODE)*%
X111900000Y-133276470D03*
%TO.P,U6,3,SS*%
%TO.N,Net-(U6-SS)*%
X112400002Y-133276470D03*
%TO.P,U6,4,COMP*%
%TO.N,Net-(U6-COMP)*%
X112900001Y-133276470D03*
%TO.P,U6,5,FB*%
%TO.N,Net-(U6-FB)*%
X113400000Y-133276470D03*
%TO.P,U6,6,AGND*%
%TO.N,GND*%
X113900002Y-133276470D03*
D52*
%TO.P,U6,7,PGND*%
X113550000Y-132026470D03*
%TO.P,U6,8,VOUT*%
%TO.N,+14V*%
X113550000Y-130826472D03*
D53*
%TO.P,U6,9,ILIM*%
%TO.N,Net-(U6-ILIM)*%
X113900002Y-129576472D03*
%TO.P,U6,10,MODE*%
%TO.N,Net-(U6-MODE)*%
X113400000Y-129576472D03*
%TO.P,U6,11,EN*%
%TO.N,Net-(U6-EN)*%
X112900001Y-129576472D03*
%TO.P,U6,12,VIN*%
%TO.N,Net-(U10-E)*%
X112400002Y-129576472D03*
%TO.P,U6,13,BST*%
%TO.N,Net-(U6-BST)*%
X111900000Y-129576472D03*
%TD*%
D38*
%TO.P,C12,1*%
%TO.N,Net-(U6-MODE)*%
X110250006Y-133276470D03*
%TO.P,C12,2*%
%TO.N,GND*%
X108700006Y-133276470D03*
%TD*%
%TO.P,C_VCC1,1*%
%TO.N,/DC.DC3 VCC*%
X140144739Y-114793995D03*
%TO.P,C_VCC1,2*%
%TO.N,GND*%
X138594739Y-114793995D03*
%TD*%
D41*
%TO.P,C4,1*%
%TO.N,VDC*%
X107750000Y-113100000D03*
%TO.P,C4,2*%
%TO.N,GND*%
X107750000Y-110300000D03*
%TD*%
D51*
%TO.P,CR7,1*%
%TO.N,Net-(CR7-Pad1)*%
X173100002Y-112750000D03*
%TO.P,CR7,2*%
%TO.N,/V2_IN*%
X173100002Y-114250000D03*
%TD*%
D46*
%TO.P,K3,1*%
%TO.N,+3.3V*%
X190630000Y-116850000D03*
%TO.P,K3,2*%
%TO.N,/FIRE_OUT1*%
X188090000Y-116850000D03*
%TO.P,K3,3*%
%TO.N,Net-(U7-C)*%
X188090000Y-125400000D03*
%TO.P,K3,4*%
%TO.N,Net-(D4-K)*%
X190630000Y-125400000D03*
%TD*%
D10*
%TO.P,R29,1*%
%TO.N,Net-(U9-E)*%
X172700000Y-92960000D03*
%TO.P,R29,2*%
%TO.N,GND*%
X172700000Y-95640000D03*
%TD*%
D22*
%TO.P,R7,1*%
%TO.N,Net-(U4-C)*%
X117849999Y-107699999D03*
%TO.P,R7,2*%
%TO.N,Net-(K2-COIL_1)*%
X119349999Y-107699999D03*
%TD*%
D54*
%TO.P,C_OUT5,1*%
%TO.N,Net-(D3-A)*%
X154763489Y-129037744D03*
%TO.P,C_OUT5,2*%
%TO.N,GND*%
X148063489Y-129037744D03*
%TD*%
D55*
%TO.P,R15,1*%
%TO.N,Net-(CR6-Pad1)*%
X191200000Y-133249999D03*
%TO.P,R15,2*%
%TO.N,GND*%
X191200000Y-135599999D03*
%TD*%
D24*
%TO.P,C_OUT4,1*%
%TO.N,Net-(D3-A)*%
X144348560Y-134850000D03*
%TO.P,C_OUT4,2*%
%TO.N,GND*%
X144348560Y-136650000D03*
%TD*%
D35*
%TO.P,F1,1,1*%
%TO.N,/V0_IN*%
X198549999Y-134000002D03*
%TO.P,F1,2,2*%
%TO.N,/PYRO1_OUT*%
X198549999Y-137300002D03*
%TD*%
D28*
%TO.P,R4,1*%
%TO.N,Net-(K1-NO_2)*%
X111749998Y-85299999D03*
%TO.P,R4,2*%
%TO.N,Net-(C7-Pad2)*%
X109399998Y-85299999D03*
%TD*%
D30*
%TO.P,TP1,1,1*%
%TO.N,/DC.DC3 PGOOD*%
X142448559Y-115599999D03*
%TD*%
D56*
%TO.P,C_IN2,1*%
%TO.N,VDC*%
X144469739Y-124593996D03*
%TO.P,C_IN2,2*%
%TO.N,GND*%
X144469739Y-127393996D03*
%TD*%
D12*
%TO.P,U8,1,B*%
%TO.N,/VB2*%
X171942250Y-101064000D03*
%TO.P,U8,2,E*%
%TO.N,Net-(U8-E)*%
X171942250Y-105636000D03*
D11*
%TO.P,U8,3,C*%
%TO.N,Net-(U8-C)*%
X180121050Y-103350000D03*
%TD*%
D42*
%TO.P,R28,1*%
%TO.N,Net-(CR9-Pad1)*%
X189870000Y-85675000D03*
%TO.P,R28,2*%
%TO.N,GND*%
X189870000Y-83325000D03*
%TD*%
D23*
%TO.P,R_ENB1,1*%
%TO.N,GND*%
X134169738Y-121943995D03*
%TO.P,R_ENB1,2*%
%TO.N,Net-(U1-EN{slash}SYNC)*%
X134169738Y-120443995D03*
%TD*%
D19*
%TO.P,D5,1,K*%
%TO.N,Net-(D4-K)*%
X191389999Y-128724999D03*
%TO.P,D5,2,A*%
%TO.N,/V5_IN*%
X187389999Y-128724999D03*
%TD*%
D36*
%TO.P,R18,1*%
%TO.N,Net-(CR7-Pad1)*%
X174070000Y-110020000D03*
%TO.P,R18,2*%
%TO.N,GND*%
X176420000Y-110020000D03*
%TD*%
D57*
%TO.P,L1,1,1*%
%TO.N,VBAT1*%
X95775000Y-114850000D03*
%TO.P,L1,2,2*%
%TO.N,VDC*%
X104825000Y-114850000D03*
%TD*%
D17*
%TO.P,R_BT1,1*%
%TO.N,Net-(U1-CBOOT)*%
X142969740Y-121518995D03*
%TO.P,R_BT1,2*%
%TO.N,Net-(U1-RBOOT)*%
X142969740Y-123018995D03*
%TD*%
D35*
%TO.P,F2,1,1*%
%TO.N,/V5_IN*%
X187199999Y-133950001D03*
%TO.P,F2,2,2*%
%TO.N,/PYRO2_OUT*%
X187199999Y-137250001D03*
%TD*%
D58*
%TO.P,CR2,1*%
%TO.N,VBAT1*%
X103000000Y-102798200D03*
%TO.P,CR2,2*%
%TO.N,GND*%
X103000000Y-106201800D03*
%TD*%
D59*
%TO.P,U1,1,BIAS*%
%TO.N,Net-(U1-BIAS)*%
X140619739Y-121343996D03*
D60*
X140919739Y-121518995D03*
D61*
%TO.P,U1,2,VCC*%
%TO.N,/DC.DC3 VCC*%
X139994739Y-121343996D03*
D62*
%TO.P,U1,3,AGND*%
%TO.N,GND*%
X139469739Y-121343996D03*
D63*
%TO.P,U1,4,FB*%
%TO.N,Net-(U1-FB)*%
X138944739Y-121343996D03*
D59*
%TO.P,U1,5,PGOOD*%
%TO.N,/DC.DC3 PGOOD*%
X138319739Y-121343996D03*
D60*
X138019739Y-121518995D03*
D64*
%TO.P,U1,6,RT*%
%TO.N,Net-(U1-RT)*%
X137869740Y-122068996D03*
%TO.P,U1,7,EN/SYNC*%
%TO.N,Net-(U1-EN{slash}SYNC)*%
X137869740Y-122568995D03*
D65*
%TO.P,U1,8,VIN1*%
%TO.N,VDC*%
X138019739Y-123643994D03*
%TO.P,U1,9,PGND1*%
%TO.N,GND*%
X138019739Y-124783995D03*
D66*
X138319739Y-124983994D03*
D67*
%TO.P,U1,10,SW*%
%TO.N,Net-(U1-SW)*%
X139469739Y-124193996D03*
D68*
%TO.P,U1,11,PGND2*%
%TO.N,GND*%
X140919739Y-124793995D03*
D66*
X140619739Y-124993994D03*
D65*
%TO.P,U1,12,VIN2*%
%TO.N,VDC*%
X140919739Y-123643994D03*
D69*
%TO.P,U1,13,RBOOT*%
%TO.N,Net-(U1-RBOOT)*%
X141069738Y-122568995D03*
%TO.P,U1,14,CBOOT*%
%TO.N,Net-(U1-CBOOT)*%
X141069738Y-122068996D03*
%TD*%
D43*
%TO.P,F4,1,1*%
%TO.N,/V3_IN*%
X171300002Y-117800000D03*
%TO.P,F4,2,2*%
%TO.N,/PYRO4_OUT*%
X168000002Y-117800000D03*
%TD*%
D22*
%TO.P,R21,1*%
%TO.N,Net-(C17-Pad2)*%
X115650005Y-136926469D03*
%TO.P,R21,2*%
%TO.N,GND*%
X117150005Y-136926469D03*
%TD*%
D28*
%TO.P,R11,1*%
%TO.N,/KEY_OUT*%
X129349999Y-119800000D03*
%TO.P,R11,2*%
%TO.N,Net-(U10-B)*%
X126999999Y-119800000D03*
%TD*%
D20*
%TO.P,J4,1,1*%
%TO.N,GND*%
X155825000Y-95800000D03*
D21*
%TO.P,J4,2,2*%
%TO.N,VFill*%
X155825000Y-90800000D03*
%TD*%
D26*
%TO.P,C9,1*%
%TO.N,Net-(U10-E)*%
X111085716Y-122661036D03*
%TO.P,C9,2*%
%TO.N,GND*%
X112635716Y-122661036D03*
%TD*%
D44*
%TO.P,K2,1,COIL_1*%
%TO.N,Net-(K2-COIL_1)*%
X124300000Y-106500000D03*
%TO.P,K2,3,COM_1*%
%TO.N,unconnected-(K2-COM_1-Pad3)*%
X144300000Y-106500000D03*
%TO.P,K2,4,NO_1*%
%TO.N,unconnected-(K2-NO_1-Pad4)*%
X149300000Y-106500000D03*
%TO.P,K2,5,NO_2*%
%TO.N,Net-(K2-NO_2)*%
X149300000Y-99000000D03*
%TO.P,K2,6,COM_2*%
%TO.N,VFill*%
X144300000Y-99000000D03*
%TO.P,K2,8,COIL_2*%
%TO.N,+14V*%
X124300000Y-99000000D03*
%TD*%
D10*
%TO.P,R30,1*%
%TO.N,Net-(U9-E)*%
X165600000Y-92970000D03*
%TO.P,R30,2*%
%TO.N,GND*%
X165600000Y-95650000D03*
%TD*%
D19*
%TO.P,D9,1,K*%
%TO.N,Net-(D8-K)*%
X193150000Y-89350000D03*
%TO.P,D9,2,A*%
%TO.N,/V4_IN*%
X197150000Y-89350000D03*
%TD*%
D36*
%TO.P,R33,1*%
%TO.N,/VB2*%
X170800000Y-98700000D03*
%TO.P,R33,2*%
%TO.N,GND*%
X173150000Y-98700000D03*
%TD*%
D70*
%TO.P,DSUB1,1,1*%
%TO.N,+3.3V*%
X194960000Y-114340000D03*
%TO.P,DSUB1,2,2*%
%TO.N,+5V*%
X194960000Y-112050000D03*
%TO.P,DSUB1,3,3*%
%TO.N,/V2_OUT*%
X194960000Y-109760000D03*
%TO.P,DSUB1,4,4*%
%TO.N,/V1_OUT*%
X194960000Y-107470000D03*
%TO.P,DSUB1,5,5*%
%TO.N,/V0_OUT*%
X194960000Y-105180000D03*
%TO.P,DSUB1,6,6*%
%TO.N,/V3_OUT*%
X197500000Y-113195000D03*
%TO.P,DSUB1,7,7*%
%TO.N,/V4_OUT*%
X197500000Y-110905000D03*
%TO.P,DSUB1,8,8*%
%TO.N,/V5_OUT*%
X197500000Y-108615000D03*
%TO.P,DSUB1,9,9*%
%TO.N,/FIRE_OUT1*%
X197500000Y-106325000D03*
%TO.P,DSUB1,10,10*%
%TO.N,/FIRE_OUT2*%
X197500000Y-104035000D03*
%TO.P,DSUB1,11,11*%
%TO.N,GND*%
X200040000Y-114340000D03*
%TO.P,DSUB1,12,12*%
X200040000Y-112050000D03*
%TO.P,DSUB1,13,13*%
X200040000Y-109760000D03*
%TO.P,DSUB1,14,14*%
X200040000Y-107470000D03*
%TO.P,DSUB1,15,15*%
%TO.N,/FIRE_OUT3*%
X200040000Y-105180000D03*
%TD*%
D47*
%TO.P,JP3,1,A*%
%TO.N,/V2_IN*%
X170300002Y-111500000D03*
D48*
%TO.P,JP3,2,B*%
%TO.N,/PYRO3_OUT*%
X169000002Y-111500000D03*
%TD*%
D39*
%TO.P,JP6,1,A*%
%TO.N,/V4_IN*%
X199865000Y-83950000D03*
D40*
%TO.P,JP6,2,B*%
%TO.N,/PYRO6_OUT*%
X199865000Y-82650000D03*
%TD*%
D50*
%TO.P,C_BT1,1*%
%TO.N,Net-(U1-SW)*%
X144569741Y-123043995D03*
%TO.P,C_BT1,2*%
%TO.N,Net-(U1-CBOOT)*%
X144569741Y-121493995D03*
%TD*%
D24*
%TO.P,C21,1*%
%TO.N,+14V*%
X119227025Y-130334825D03*
%TO.P,C21,2*%
%TO.N,GND*%
X119227025Y-132134825D03*
%TD*%
D35*
%TO.P,F5,1,1*%
%TO.N,/V1_IN*%
X185925000Y-84950000D03*
%TO.P,F5,2,2*%
%TO.N,/PYRO5_OUT*%
X185925000Y-81650000D03*
%TD*%
D37*
%TO.P,C2,1*%
%TO.N,VBAT1*%
X97500001Y-106200000D03*
%TO.P,C2,2*%
%TO.N,GND*%
X94700001Y-106200000D03*
%TD*%
D41*
%TO.P,C6,1*%
%TO.N,VDC*%
X112350000Y-113100000D03*
%TO.P,C6,2*%
%TO.N,GND*%
X112350000Y-110300000D03*
%TD*%
D17*
%TO.P,R6,1*%
%TO.N,GND*%
X114700000Y-101899999D03*
%TO.P,R6,2*%
%TO.N,Net-(U4-B)*%
X114700000Y-103399999D03*
%TD*%
D31*
%TO.P,CR5,1*%
%TO.N,Net-(U10-B)*%
X118343800Y-122450000D03*
%TO.P,CR5,2*%
%TO.N,GND*%
X115956200Y-122450000D03*
%TD*%
D25*
%TO.P,C17,1*%
%TO.N,Net-(U6-COMP)*%
X112050005Y-135401468D03*
%TO.P,C17,2*%
%TO.N,Net-(C17-Pad2)*%
X112050005Y-136951468D03*
%TD*%
D71*
%TO.P,C_FF1,1*%
%TO.N,Net-(C_FF1-Pad1)*%
X135369739Y-112293997D03*
%TO.P,C_FF1,2*%
%TO.N,Net-(U1-FB)*%
X135369739Y-113436997D03*
%TD*%
D29*
%TO.P,CR10,1*%
%TO.N,Net-(CR10-Pad1)*%
X196075000Y-86650000D03*
%TO.P,CR10,2*%
%TO.N,/V4_IN*%
X197575000Y-86650000D03*
%TD*%
D31*
%TO.P,CR3,1*%
%TO.N,+14V*%
X168212400Y-125500000D03*
%TO.P,CR3,2*%
%TO.N,/VB1*%
X170600000Y-125500000D03*
%TD*%
D17*
%TO.P,R3,1*%
%TO.N,Net-(U2-C)*%
X118799999Y-87349999D03*
%TO.P,R3,2*%
%TO.N,Net-(K1-COIL_1)*%
X118799999Y-88849999D03*
%TD*%
D38*
%TO.P,C15,1*%
%TO.N,Net-(C15-Pad1)*%
X118025005Y-126726469D03*
%TO.P,C15,2*%
%TO.N,GND*%
X116475005Y-126726469D03*
%TD*%
D58*
%TO.P,CR1,1*%
%TO.N,VBAT2*%
X102999999Y-85301799D03*
%TO.P,CR1,2*%
%TO.N,GND*%
X102999999Y-81898199D03*
%TD*%
D20*
%TO.P,J5,1,1*%
%TO.N,/KEY_OUT*%
X128600000Y-114325000D03*
D21*
%TO.P,J5,2,2*%
%TO.N,VDC*%
X123600000Y-114325000D03*
%TD*%
D55*
%TO.P,R10,1*%
%TO.N,Net-(CR4-Pad1)*%
X194600000Y-133250004D03*
%TO.P,R10,2*%
%TO.N,GND*%
X194600000Y-135600004D03*
%TD*%
D17*
%TO.P,R_FBT1,1*%
%TO.N,Net-(D3-A)*%
X136787241Y-112073896D03*
%TO.P,R_FBT1,2*%
%TO.N,Net-(U1-FB)*%
X136787241Y-113573896D03*
%TD*%
D72*
%TO.P,J1,1,1*%
%TO.N,+14V*%
X167750002Y-85550000D03*
%TO.P,J1,2,2*%
%TO.N,/PYRO1_OUT*%
X166500002Y-85550000D03*
%TO.P,J1,3,3*%
%TO.N,+14V*%
X165250002Y-85550000D03*
%TO.P,J1,4,4*%
%TO.N,/PYRO2_OUT*%
X164000002Y-85550000D03*
%TO.P,J1,5,5*%
%TO.N,+14V*%
X162750002Y-85550000D03*
%TO.P,J1,6,6*%
%TO.N,/PYRO3_OUT*%
X161500002Y-85550000D03*
%TO.P,J1,7,7*%
%TO.N,+14V*%
X160250001Y-85550000D03*
%TO.P,J1,8,8*%
%TO.N,/PYRO4_OUT*%
X159000001Y-85550000D03*
%TO.P,J1,9,9*%
%TO.N,+14V*%
X157750001Y-85550000D03*
%TO.P,J1,10,10*%
%TO.N,/PYRO5_OUT*%
X156500001Y-85550000D03*
%TO.P,J1,11,11*%
%TO.N,+14V*%
X155250001Y-85550000D03*
%TO.P,J1,12,12*%
%TO.N,/PYRO6_OUT*%
X154000001Y-85550000D03*
%TD*%
D26*
%TO.P,C8,1*%
%TO.N,VBAT1*%
X105549999Y-103632396D03*
%TO.P,C8,2*%
%TO.N,Net-(C8-Pad2)*%
X107099999Y-103632396D03*
%TD*%
D19*
%TO.P,D4,1,K*%
%TO.N,Net-(D4-K)*%
X194290001Y-128725000D03*
%TO.P,D4,2,A*%
%TO.N,/V0_IN*%
X198290001Y-128725000D03*
%TD*%
D41*
%TO.P,C5,1*%
%TO.N,VDC*%
X110050001Y-113100000D03*
%TO.P,C5,2*%
%TO.N,GND*%
X110050001Y-110300000D03*
%TD*%
D31*
%TO.P,CR12,1*%
%TO.N,+14V*%
X170700000Y-83200000D03*
%TO.P,CR12,2*%
%TO.N,/VB3*%
X173087600Y-83200000D03*
%TD*%
D26*
%TO.P,C7,1*%
%TO.N,VBAT2*%
X105545383Y-85299999D03*
%TO.P,C7,2*%
%TO.N,Net-(C7-Pad2)*%
X107095383Y-85299999D03*
%TD*%
D25*
%TO.P,C16,1*%
%TO.N,+14V*%
X115850005Y-130476469D03*
%TO.P,C16,2*%
%TO.N,GND*%
X115850005Y-132026469D03*
%TD*%
D73*
%TO.P,R16,1*%
%TO.N,GND*%
X114939288Y-127441900D03*
%TO.P,R16,2*%
%TO.N,Net-(U6-EN)*%
X113439288Y-127441900D03*
%TD*%
%TO.P,R22,1*%
%TO.N,+14V*%
X117150000Y-135326469D03*
%TO.P,R22,2*%
%TO.N,Net-(U6-FB)*%
X115650000Y-135326469D03*
%TD*%
D74*
%TO.N,VDC*%
X136869739Y-124093994D03*
%TO.N,+14V*%
X185250000Y-108000000D03*
X164500000Y-98500000D03*
X205811690Y-91055783D03*
X207000000Y-123250000D03*
X206000000Y-135475000D03*
D75*
%TO.N,/DC.DC3 VCC*%
X139994738Y-120550000D03*
X138698559Y-117050000D03*
%TO.N,+5V*%
X173000000Y-137800000D03*
X156000000Y-137600000D03*
%TO.N,/PYRO1_OUT*%
X201000000Y-137600000D03*
D74*
X166600000Y-83000000D03*
X170800000Y-81800000D03*
D75*
X166600000Y-86600000D03*
%TO.N,/PYRO2_OUT*%
X182000000Y-136400000D03*
X164200000Y-86800000D03*
%TO.N,/PYRO4_OUT*%
X159200000Y-86800000D03*
X166800000Y-117200000D03*
%TO.N,/FIRE_OUT1*%
X197000000Y-116800000D03*
%TO.N,/FIRE_OUT2*%
X189600000Y-110400000D03*
%TO.N,Net-(U1-FB)*%
X136898560Y-116950000D03*
X138944741Y-120549999D03*
D74*
%TO.N,Net-(D3-A)*%
X137750000Y-112250000D03*
D75*
X141898561Y-120800000D03*
X138948561Y-132900000D03*
D74*
%TO.N,GND*%
X108800000Y-132600000D03*
D75*
X117800000Y-133600000D03*
X136107240Y-126683994D03*
D76*
X176200000Y-95800000D03*
D74*
X116000000Y-110200000D03*
X111049999Y-82799999D03*
D75*
X113600000Y-101600000D03*
X133669739Y-116393995D03*
X178200000Y-109800000D03*
D76*
X178400000Y-121600000D03*
D74*
X203000000Y-128000000D03*
D75*
X157400000Y-100400000D03*
X101800000Y-80200000D03*
D76*
X144600000Y-137800000D03*
D75*
X134533490Y-126457744D03*
D74*
X149600000Y-136650000D03*
D76*
X149200000Y-115800000D03*
D75*
X137669740Y-114793996D03*
X189800000Y-81400000D03*
D76*
X177600000Y-125200000D03*
X174800000Y-98400000D03*
D75*
X193200000Y-81400000D03*
D76*
X145337872Y-128262128D03*
D75*
X133568490Y-122545244D03*
D74*
X194400000Y-137200000D03*
D75*
X191166409Y-104233591D03*
X117800000Y-136800000D03*
X102400000Y-107800000D03*
X137643492Y-126420244D03*
X203000000Y-84400000D03*
D74*
X169200000Y-136000000D03*
D75*
X94700002Y-104800000D03*
D74*
X109600000Y-136800000D03*
X121400000Y-128400000D03*
D75*
X94700002Y-107400000D03*
D74*
X115600000Y-121600000D03*
D75*
X170400000Y-109200000D03*
D74*
X147500000Y-136650000D03*
D75*
X158860000Y-95010000D03*
D74*
X113400000Y-125800000D03*
D75*
X99400000Y-80200000D03*
X100600000Y-80200000D03*
D74*
X145400000Y-136680000D03*
X116290000Y-125740000D03*
D75*
X114400000Y-136800000D03*
X133719741Y-119143995D03*
D74*
X98715000Y-80885000D03*
D75*
X143413489Y-126337744D03*
X122400000Y-132200000D03*
X163200000Y-101610000D03*
D74*
X191400000Y-137200000D03*
X115150000Y-126430000D03*
D75*
X139469741Y-122093995D03*
%TO.N,/V4_OUT*%
X207200000Y-84600000D03*
%TO.N,/V2_OUT*%
X192600000Y-107000000D03*
%TO.N,/V0_OUT*%
X206000000Y-126800000D03*
%TD*%
D77*
%TO.N,Net-(U10-E)*%
X105629593Y-123148600D02*
X108800000Y-126319007D01*
X108800000Y-127600000D02*
X109308871Y-128108871D01*
X100600000Y-123148600D02*
X105629593Y-123148600D01*
X111675971Y-128108871D02*
X109900004Y-128108871D01*
D78*
X111085716Y-119280295D02*
X109928949Y-118123528D01*
D77*
X109308871Y-128108871D02*
X111675971Y-128108871D01*
X109900004Y-128108871D02*
X109900004Y-127426471D01*
X112400002Y-129576472D02*
X112400002Y-128832902D01*
D78*
X111075000Y-122671752D02*
X111085716Y-122661036D01*
D77*
X111675971Y-128108871D02*
X112400002Y-128832902D01*
X108800000Y-126319007D02*
X108800000Y-127600000D01*
D78*
X111075000Y-125826471D02*
X111075000Y-122671752D01*
X111085716Y-122661036D02*
X111085716Y-119280295D01*
D77*
X109900004Y-127426471D02*
X109900004Y-127001467D01*
X109900004Y-127001467D02*
X111075000Y-125826471D01*
D79*
%TO.N,VDC*%
X144444738Y-124618995D02*
X144469741Y-124593995D01*
D78*
X144469739Y-124593997D02*
X145607236Y-124593997D01*
D79*
X144469741Y-124593995D02*
X144869740Y-124593996D01*
X137319741Y-123643992D02*
X138019739Y-123643993D01*
D78*
X122087472Y-115837528D02*
X123600000Y-114325000D01*
D79*
X135754739Y-123693995D02*
X135744737Y-123683993D01*
X135744737Y-123683993D02*
X135744738Y-121968995D01*
X135744740Y-125593997D02*
X136069739Y-125593996D01*
X135744738Y-121968995D02*
X135769741Y-121943995D01*
X135769738Y-123693995D02*
X135754739Y-123693995D01*
D78*
X107750000Y-113099999D02*
X114650002Y-113099999D01*
D79*
X136869739Y-124793994D02*
X136869739Y-124093994D01*
D78*
X107750000Y-113099999D02*
X106575001Y-113099999D01*
X106575001Y-113099999D02*
X104825000Y-114850000D01*
X145607236Y-124593997D02*
X148763489Y-121437744D01*
D79*
X136069739Y-125593996D02*
X136869739Y-124793994D01*
D78*
X118107750Y-115837528D02*
X122087472Y-115837528D01*
D79*
X140919739Y-123643992D02*
X141594739Y-123643994D01*
D80*
X115370221Y-113099999D02*
X118107750Y-115837528D01*
D79*
X142569741Y-124618996D02*
X144444738Y-124618995D01*
X135744740Y-125593997D02*
X135744737Y-123683993D01*
D80*
X114650002Y-113099999D02*
X115370221Y-113099999D01*
D79*
X136869739Y-124093994D02*
X137319741Y-123643992D01*
X141594739Y-123643994D02*
X142569741Y-124618996D01*
D78*
%TO.N,Net-(CR4-Pad1)*%
X197276530Y-132277360D02*
X195572645Y-132277360D01*
X195572645Y-132277360D02*
X194600000Y-133250005D01*
%TO.N,Net-(CR6-Pad1)*%
X190200003Y-132250003D02*
X191200000Y-133250000D01*
X188499999Y-132250003D02*
X190200003Y-132250003D01*
D79*
%TO.N,+14V*%
X140500000Y-113500000D02*
X150250000Y-113500000D01*
X129050000Y-103750000D02*
X130750000Y-103750000D01*
X118876469Y-133600000D02*
X122600000Y-133600000D01*
D78*
X122823529Y-131176471D02*
X124450001Y-131176471D01*
X122800000Y-131200000D02*
X122823529Y-131176471D01*
D79*
X116799999Y-80999999D02*
X118704998Y-80999999D01*
X162250000Y-125500000D02*
X168212400Y-125500000D01*
D78*
X121934831Y-130334831D02*
X122800000Y-131200000D01*
D79*
X116554997Y-101645000D02*
X116299998Y-101899999D01*
X117150000Y-135326469D02*
X118876469Y-133600000D01*
D78*
X121655000Y-101645000D02*
X124300000Y-99000000D01*
D79*
X206000000Y-135475000D02*
X206000000Y-134011000D01*
X124450001Y-131749999D02*
X124450001Y-131176471D01*
X124450001Y-131176471D02*
X124450001Y-128299999D01*
X164700000Y-98700000D02*
X164500000Y-98500000D01*
X118704998Y-80999999D02*
X118799999Y-81095000D01*
D78*
X121085384Y-130476469D02*
X121227022Y-130334831D01*
D79*
X205811690Y-122061690D02*
X207000000Y-123250000D01*
X122600000Y-133600000D02*
X124450001Y-131749999D01*
D78*
X121227022Y-130334831D02*
X121934831Y-130334831D01*
D79*
X124450001Y-128299999D02*
X132250000Y-120500000D01*
D78*
X129050000Y-103750000D02*
X124300000Y-99000000D01*
D77*
X205940000Y-90050000D02*
X205940000Y-90927473D01*
D79*
X170700000Y-83200000D02*
X170100002Y-83200000D01*
D77*
X185462000Y-107788000D02*
X185250000Y-108000000D01*
D79*
X132250000Y-106950000D02*
X129050000Y-103750000D01*
D77*
X115500002Y-130826472D02*
X115850005Y-130476469D01*
X113550000Y-130826472D02*
X115500002Y-130826472D01*
D78*
X118199999Y-101645000D02*
X121655000Y-101645000D01*
D79*
X150250000Y-113500000D02*
X162250000Y-125500000D01*
X118799999Y-81095000D02*
X121194999Y-81095000D01*
X206000000Y-134011000D02*
X205940000Y-133951000D01*
D78*
X115850005Y-130476469D02*
X121085384Y-130476469D01*
D79*
X118199999Y-101645000D02*
X116554997Y-101645000D01*
D77*
X185462000Y-107125000D02*
X185462000Y-107788000D01*
D79*
X170100002Y-83200000D02*
X167750002Y-85550000D01*
D77*
X205940000Y-90927473D02*
X205811690Y-91055783D01*
D79*
X165606200Y-98700000D02*
X164700000Y-98700000D01*
X205811690Y-91055783D02*
X205811690Y-122061690D01*
X121194999Y-81095000D02*
X124299998Y-84199999D01*
X130750000Y-103750000D02*
X140500000Y-113500000D01*
X132250000Y-120500000D02*
X132250000Y-106950000D01*
%TO.N,/DC.DC3 PGOOD*%
X142448559Y-115599999D02*
X141548559Y-115599999D01*
D77*
X138794739Y-118093994D02*
X138319740Y-118568995D01*
D79*
X141548559Y-115599999D02*
X140754565Y-116393995D01*
D81*
X138794739Y-118093994D02*
X140219738Y-116668995D01*
D77*
X138319740Y-118568995D02*
X138319739Y-121343995D01*
D79*
X140754565Y-116393995D02*
X140219741Y-116393995D01*
D81*
X138926137Y-118093995D02*
X138794739Y-118093994D01*
D77*
X138719739Y-118018994D02*
X138794739Y-118093994D01*
%TO.N,Net-(C_FF1-Pad1)*%
X135369739Y-112293994D02*
X135191240Y-112115496D01*
%TO.N,/DC.DC3 VCC*%
X138698559Y-116415175D02*
X138719739Y-116393995D01*
X138698559Y-117050000D02*
X138698559Y-116415175D01*
D81*
X139836004Y-114793996D02*
X138719739Y-115910261D01*
X140144741Y-114793996D02*
X139836004Y-114793996D01*
D77*
X139994738Y-121343995D02*
X139994738Y-120550000D01*
D81*
X138719739Y-115910261D02*
X138719739Y-116393995D01*
D78*
%TO.N,+5V*%
X156000000Y-136798560D02*
X157148561Y-135649999D01*
X156000000Y-137600000D02*
X156000000Y-136798560D01*
X173000000Y-137800000D02*
X173000000Y-136850000D01*
X173000000Y-136850000D02*
X173800000Y-136050000D01*
D77*
%TO.N,/PYRO1_OUT*%
X170800000Y-81800000D02*
X170600000Y-81800000D01*
D78*
X198549999Y-137300002D02*
X199564996Y-137300002D01*
D77*
X167800000Y-81800000D02*
X170800000Y-81800000D01*
X200700002Y-137300002D02*
X198549999Y-137300002D01*
X166600000Y-83000000D02*
X167800000Y-81800000D01*
X166500003Y-86500003D02*
X166600000Y-86600000D01*
X201000000Y-137600000D02*
X200700002Y-137300002D01*
D78*
X199564996Y-137300002D02*
X200990001Y-135874997D01*
D77*
X166500003Y-85550000D02*
X166500003Y-86500003D01*
%TO.N,/PYRO2_OUT*%
X182150000Y-136250000D02*
X184699999Y-136250000D01*
D78*
X187199999Y-137250001D02*
X185700000Y-137250001D01*
D77*
X182000000Y-136400000D02*
X182150000Y-136250000D01*
D78*
X185700000Y-137250001D02*
X184699999Y-136250000D01*
D77*
X164000003Y-85550000D02*
X164000003Y-86600003D01*
X164000003Y-86600003D02*
X164200000Y-86800000D01*
%TO.N,/PYRO4_OUT*%
X166800000Y-117200000D02*
X167400002Y-117200000D01*
X159000001Y-86600001D02*
X159200000Y-86800000D01*
D78*
X169000003Y-120399998D02*
X169000003Y-118800001D01*
X169000003Y-118800001D02*
X168000002Y-117800000D01*
D77*
X167400002Y-117200000D02*
X168000002Y-117800000D01*
X159000001Y-85550000D02*
X159000001Y-86600001D01*
%TO.N,/PYRO3_OUT*%
X155400000Y-105400000D02*
X160374147Y-110374147D01*
X157000000Y-98800000D02*
X155400000Y-100400000D01*
D78*
X169000003Y-111500000D02*
X169000003Y-113049999D01*
D77*
X160400000Y-86650003D02*
X160400000Y-97600000D01*
X155400000Y-100400000D02*
X155400000Y-105400000D01*
D78*
X169000003Y-113049999D02*
X168000002Y-114050000D01*
D77*
X159200000Y-98800000D02*
X157000000Y-98800000D01*
X161500003Y-85550000D02*
X160400000Y-86650003D01*
X160374147Y-110374147D02*
X164324149Y-110374147D01*
X164324149Y-110374147D02*
X168000002Y-114050000D01*
X160400000Y-97600000D02*
X159200000Y-98800000D01*
%TO.N,/PYRO6_OUT*%
X196464000Y-80749000D02*
X197365000Y-81650000D01*
X154000001Y-85550000D02*
X158801001Y-80749000D01*
D78*
X198365001Y-82650001D02*
X197365000Y-81650000D01*
D77*
X158801001Y-80749000D02*
X196464000Y-80749000D01*
D78*
X199865000Y-82650001D02*
X198365001Y-82650001D01*
%TO.N,/PYRO5_OUT*%
X183415000Y-82650000D02*
X184925000Y-82650000D01*
D77*
X160850001Y-81200000D02*
X184200000Y-81200000D01*
X184200000Y-81200000D02*
X184650000Y-81650000D01*
X184650000Y-81650000D02*
X185925000Y-81650000D01*
D78*
X184925000Y-82650000D02*
X185925000Y-81650000D01*
D77*
X156500001Y-85550000D02*
X160850001Y-81200000D01*
%TO.N,/FIRE_OUT1*%
X189016000Y-117776000D02*
X188090000Y-116850000D01*
X196024000Y-117776000D02*
X189016000Y-117776000D01*
X197000000Y-116800000D02*
X196024000Y-117776000D01*
%TO.N,/FIRE_OUT2*%
X189600000Y-110400000D02*
X190965000Y-110400000D01*
X190965000Y-110400000D02*
X191125000Y-110560000D01*
%TO.N,/FIRE_OUT3*%
X200040000Y-104119340D02*
X197845660Y-101925000D01*
X190200000Y-102355000D02*
X190630000Y-101925000D01*
X200040000Y-105180000D02*
X200040000Y-104119340D01*
X197845660Y-101925000D02*
X190630000Y-101925000D01*
D78*
%TO.N,/KEY_OUT*%
X129349998Y-115074998D02*
X128600000Y-114325000D01*
X129349998Y-119800000D02*
X129349998Y-115074998D01*
%TO.N,VBAT1*%
X97500000Y-108469998D02*
X97500000Y-113125000D01*
D79*
X105549999Y-99150000D02*
X106500000Y-98199999D01*
X105549999Y-103632396D02*
X105549999Y-99150000D01*
X103000000Y-101699999D02*
X103000000Y-102798200D01*
D82*
X99354998Y-98199999D02*
X97624999Y-96470000D01*
D78*
X97500000Y-108469998D02*
X97500000Y-106200000D01*
X97500000Y-113125000D02*
X95775000Y-114850000D01*
D79*
X106500000Y-98199999D02*
X103000000Y-101699999D01*
D82*
X106500000Y-98199999D02*
X99354998Y-98199999D01*
%TO.N,VBAT2*%
X99199999Y-90699999D02*
X97600000Y-89100000D01*
D78*
X105545383Y-89745382D02*
X106500000Y-90699999D01*
X105545383Y-85299999D02*
X105545383Y-89745382D01*
D82*
X106500000Y-90699999D02*
X99199999Y-90699999D01*
D78*
%TO.N,VFill*%
X155825000Y-90800000D02*
X152600000Y-90800000D01*
X152600000Y-90800000D02*
X146000000Y-84200000D01*
X147300001Y-96000000D02*
X150625000Y-96000000D01*
X146000000Y-84200000D02*
X144299998Y-84200000D01*
X144300000Y-99000001D02*
X147300001Y-96000000D01*
X150625000Y-96000000D02*
X155825000Y-90800000D01*
%TO.N,+3.3V*%
X194960000Y-114340000D02*
X192365000Y-114340000D01*
X194960000Y-114340000D02*
X193140000Y-114340000D01*
X192365000Y-114340000D02*
X191125000Y-113100000D01*
X193140000Y-114340000D02*
X190630000Y-116850000D01*
%TO.N,Net-(C7-Pad2)*%
X109399999Y-85299999D02*
X107095383Y-85299999D01*
D79*
%TO.N,Net-(K1-NO_2)*%
X114653400Y-88413999D02*
X114653400Y-88203402D01*
X114653400Y-88203402D02*
X111749997Y-85299999D01*
X114653400Y-92985999D02*
X114653400Y-88413999D01*
%TO.N,Net-(K2-NO_2)*%
X112908800Y-100485999D02*
X114653400Y-100485999D01*
X117400000Y-98200000D02*
X115113999Y-95913999D01*
X124869958Y-97624000D02*
X117976000Y-97624000D01*
X117976000Y-97624000D02*
X117400000Y-98200000D01*
X116939399Y-98200000D02*
X114653400Y-100485999D01*
X147924000Y-100376001D02*
X127621959Y-100376001D01*
X111799997Y-101594802D02*
X112908800Y-100485999D01*
X117400000Y-98200000D02*
X116939399Y-98200000D01*
X111799997Y-103599999D02*
X111799997Y-101594802D01*
X115113999Y-95913999D02*
X114653400Y-95913999D01*
X149300000Y-99000001D02*
X147924000Y-100376001D01*
X127621959Y-100376001D02*
X124869958Y-97624000D01*
%TO.N,Net-(C8-Pad2)*%
X107099999Y-103632396D02*
X109417602Y-103632396D01*
X109417602Y-103632396D02*
X109449999Y-103599999D01*
D77*
%TO.N,Net-(U6-MODE)*%
X111900000Y-133276470D02*
X110250006Y-133276470D01*
%TO.N,Net-(U6-SS)*%
X111000000Y-134400000D02*
X111740000Y-134400000D01*
X111000000Y-134400000D02*
X110396201Y-135003799D01*
X112400002Y-133276470D02*
X112400002Y-133739998D01*
X111740000Y-134400000D02*
X112400002Y-133739998D01*
X110396201Y-135003799D02*
X110396201Y-135402943D01*
D78*
%TO.N,Net-(U6-SW)*%
X106148600Y-132851400D02*
X108173533Y-130826467D01*
D77*
X110250008Y-131426471D02*
X109650004Y-130826467D01*
X112250002Y-131426471D02*
X110250008Y-131426471D01*
D78*
X100600000Y-132851400D02*
X106148600Y-132851400D01*
X108173533Y-130826467D02*
X109650004Y-130826467D01*
D77*
%TO.N,Net-(U6-BST)*%
X111600000Y-128600000D02*
X110326471Y-128600000D01*
X111900000Y-129576472D02*
X111900000Y-128900000D01*
X110326471Y-128600000D02*
X109650004Y-129276467D01*
X111900000Y-128900000D02*
X111600000Y-128600000D01*
%TO.N,Net-(C15-Pad1)*%
X119083053Y-128313134D02*
X119089289Y-128306898D01*
X117904500Y-128313134D02*
X119083053Y-128313134D01*
X117904500Y-128313134D02*
X117904500Y-126846974D01*
X117904500Y-126846974D02*
X118025005Y-126726469D01*
%TO.N,Net-(C17-Pad2)*%
X112600000Y-137800000D02*
X114800000Y-137800000D01*
X112050005Y-137250005D02*
X112600000Y-137800000D01*
X114800000Y-137776474D02*
X115650005Y-136926469D01*
X112050005Y-136951468D02*
X112050005Y-137250005D01*
X114800000Y-137800000D02*
X114800000Y-137776474D01*
%TO.N,Net-(U6-COMP)*%
X112900001Y-134139999D02*
X112900001Y-133276470D01*
X112050005Y-134989995D02*
X112900001Y-134139999D01*
X113606855Y-135401468D02*
X113623199Y-135385124D01*
X112050005Y-135401468D02*
X112050005Y-134989995D01*
X112050005Y-135401468D02*
X113606855Y-135401468D01*
D78*
%TO.N,Net-(CR7-Pad1)*%
X174075003Y-111774999D02*
X173100002Y-112750000D01*
X174075003Y-110050000D02*
X174075003Y-111774999D01*
%TO.N,Net-(CR8-Pad1)*%
X174075003Y-121800000D02*
X174075003Y-120075001D01*
X174075003Y-120075001D02*
X173100002Y-119100000D01*
%TO.N,Net-(CR9-Pad1)*%
X187215000Y-86650000D02*
X188894999Y-86650000D01*
X188894999Y-86650000D02*
X189870000Y-85674999D01*
%TO.N,Net-(CR10-Pad1)*%
X196075000Y-86650000D02*
X194400001Y-86650000D01*
X194400001Y-86650000D02*
X193425000Y-85674999D01*
D77*
%TO.N,Net-(U1-BIAS)*%
X141419739Y-118093995D02*
X141869740Y-118543996D01*
X140619740Y-121343994D02*
X140619740Y-118368995D01*
X140619740Y-118368995D02*
X140344740Y-118093995D01*
X140344740Y-118093995D02*
X141419739Y-118093995D01*
X140619740Y-118368995D02*
X140344740Y-118093995D01*
%TO.N,Net-(U1-CBOOT)*%
X142479565Y-121518994D02*
X142969740Y-121518995D01*
X141069739Y-122068995D02*
X141929565Y-122068994D01*
X142969740Y-121518995D02*
X144744742Y-121518994D01*
X141929565Y-122068994D02*
X142479565Y-121518994D01*
D79*
%TO.N,Net-(U1-SW)*%
X139469740Y-124193996D02*
X139469739Y-129068996D01*
D77*
%TO.N,Net-(U1-FB)*%
X138944741Y-120549999D02*
X138944739Y-121343994D01*
X137093740Y-113880395D02*
X137093740Y-116076393D01*
X136898560Y-116950000D02*
X136898560Y-116922816D01*
X136898560Y-116922816D02*
X136369740Y-116393995D01*
X136787240Y-113573897D02*
X135506640Y-113573896D01*
X136776138Y-116393995D02*
X136369739Y-116393995D01*
X137093740Y-116076393D02*
X136776138Y-116393995D01*
X135506640Y-113573896D02*
X135369740Y-113436995D01*
X136787241Y-113573896D02*
X137093740Y-113880395D01*
D78*
%TO.N,Net-(D3-A)*%
X139138736Y-134850000D02*
X138969740Y-135018996D01*
D77*
X133969739Y-113615496D02*
X133563339Y-113615496D01*
X133332240Y-111218996D02*
X136132238Y-111218995D01*
X132932241Y-111618995D02*
X133332240Y-111218996D01*
X136787241Y-112073896D02*
X137573896Y-112073896D01*
X132932239Y-112984396D02*
X132932241Y-111618995D01*
X141898561Y-120800000D02*
X141898558Y-120072816D01*
D78*
X154763489Y-129037744D02*
X154763489Y-134035069D01*
D77*
X133563339Y-113615496D02*
X132932239Y-112984396D01*
X136787238Y-111873995D02*
X136787241Y-112073895D01*
D78*
X154763489Y-134035069D02*
X153148559Y-135649999D01*
D77*
X141898558Y-120072816D02*
X141869740Y-120043995D01*
D78*
X144348560Y-134850000D02*
X139138736Y-134850000D01*
D77*
X137573896Y-112073896D02*
X137750000Y-112250000D01*
D78*
X150650000Y-134850000D02*
X144348560Y-134850000D01*
D77*
X136132238Y-111218995D02*
X136787238Y-111873995D01*
X138948561Y-132900000D02*
X138948561Y-134997816D01*
D78*
X150650000Y-134850000D02*
X152348560Y-134850000D01*
X152348560Y-134850000D02*
X153148559Y-135649999D01*
D77*
X138948561Y-134997816D02*
X138969740Y-135018996D01*
%TO.N,Net-(U2-C)*%
X118799999Y-84304998D02*
X118799999Y-84565198D01*
X117565198Y-85799999D02*
X117565198Y-86115198D01*
X118799999Y-84565198D02*
X117565198Y-85799999D01*
X117565198Y-86115198D02*
X118799999Y-87349999D01*
D79*
%TO.N,Net-(U4-C)*%
X117849999Y-107134800D02*
X116965198Y-106249999D01*
X118199999Y-105015198D02*
X116965198Y-106249999D01*
X118199999Y-104854998D02*
X118199999Y-105015198D01*
X117849999Y-107699999D02*
X117849999Y-107134800D01*
D78*
%TO.N,Net-(D4-K)*%
X194290000Y-128725000D02*
X191390000Y-128724999D01*
X191390000Y-128724999D02*
X191390000Y-126160000D01*
X191390000Y-126160000D02*
X190630000Y-125400000D01*
%TO.N,Net-(D6-K)*%
X179550001Y-114224999D02*
X181450001Y-114224999D01*
X181450001Y-114224999D02*
X182575000Y-113100000D01*
X179550001Y-114224999D02*
X179550001Y-117600000D01*
%TO.N,Net-(D8-K)*%
X188090000Y-91410000D02*
X190140000Y-89360000D01*
X193140000Y-89360000D02*
X193150000Y-89350000D01*
X190140000Y-89360000D02*
X193140000Y-89360000D01*
X188090000Y-93375000D02*
X188090000Y-91410000D01*
D77*
%TO.N,GND*%
X113550000Y-132026470D02*
X115850004Y-132026470D01*
D79*
X103000000Y-107200000D02*
X102400000Y-107800000D01*
D78*
X176425001Y-110050000D02*
X177950000Y-110050000D01*
X112635716Y-122661036D02*
X112635716Y-125815755D01*
X194600000Y-137000000D02*
X194400000Y-137200000D01*
X146113488Y-129037744D02*
X145337872Y-128262128D01*
D79*
X109752943Y-136952943D02*
X109600000Y-136800000D01*
D78*
X173150000Y-98700000D02*
X174500000Y-98700000D01*
X161600000Y-91000000D02*
X161600000Y-94190000D01*
D79*
X115956200Y-121956200D02*
X115600000Y-121600000D01*
D78*
X145337872Y-128262128D02*
X144469739Y-127393995D01*
D79*
X137379742Y-126683994D02*
X136107240Y-126683994D01*
X140619740Y-125743996D02*
X141044741Y-126168996D01*
D78*
X158860000Y-95010000D02*
X158070000Y-95800000D01*
D79*
X117150004Y-133726470D02*
X117673530Y-133726470D01*
D78*
X161708000Y-136240000D02*
X165600000Y-136240000D01*
X102999999Y-81898199D02*
X102999999Y-80709999D01*
X172690000Y-95650000D02*
X172700000Y-95640000D01*
X194600000Y-135600003D02*
X194600000Y-137000000D01*
D79*
X94700002Y-108469998D02*
X94700002Y-107400000D01*
D78*
X97600000Y-84100000D02*
X97600000Y-82000000D01*
D79*
X134533490Y-126457744D02*
X134194740Y-126118995D01*
D77*
X134669740Y-119143997D02*
X134263342Y-119143995D01*
D78*
X149600000Y-136650000D02*
X147500000Y-136650000D01*
X144348560Y-137548560D02*
X144600000Y-137800000D01*
X175649999Y-125500000D02*
X177300000Y-125500000D01*
X176040000Y-95640000D02*
X176200000Y-95800000D01*
D79*
X203990000Y-84174000D02*
X203226000Y-84174000D01*
X114939288Y-127441900D02*
X114900876Y-127403488D01*
X117673531Y-136926469D02*
X117800000Y-136800000D01*
D77*
X115850004Y-132026470D02*
X115850005Y-132026469D01*
D78*
X148063489Y-129037744D02*
X146113488Y-129037744D01*
D79*
X94700002Y-107400000D02*
X94700002Y-106200000D01*
D77*
X113373529Y-125826471D02*
X113400000Y-125800000D01*
X203990000Y-128075000D02*
X203075000Y-128075000D01*
D78*
X177950000Y-110050000D02*
X178200000Y-109800000D01*
X163200000Y-101610000D02*
X159705750Y-101610000D01*
X158200000Y-129200000D02*
X158200000Y-132732000D01*
X121118660Y-132026469D02*
X121227022Y-132134831D01*
D77*
X134769740Y-116393995D02*
X133669739Y-116393995D01*
D78*
X166805750Y-101610000D02*
X163200000Y-101610000D01*
D79*
X140619739Y-124993994D02*
X140619740Y-125743996D01*
D77*
X139469741Y-122093995D02*
X139469741Y-121343995D01*
D78*
X191200000Y-135599998D02*
X191200000Y-137000000D01*
X168000000Y-88220000D02*
X164380000Y-88220000D01*
D77*
X94700002Y-104324996D02*
X94770003Y-104324996D01*
D79*
X114264876Y-136935124D02*
X114400000Y-136800000D01*
X136107240Y-126683994D02*
X134759738Y-126683993D01*
D78*
X193425000Y-81625000D02*
X193425000Y-83325001D01*
X158200000Y-132732000D02*
X161708000Y-136240000D01*
X158610000Y-101610000D02*
X159705750Y-101610000D01*
D77*
X191166409Y-104233591D02*
X191164016Y-104231198D01*
D78*
X172700000Y-95640000D02*
X176040000Y-95640000D01*
D79*
X94700002Y-104800000D02*
X94700002Y-104324996D01*
D78*
X165600000Y-95650000D02*
X172690000Y-95650000D01*
X161600000Y-94190000D02*
X163060000Y-95650000D01*
X162050000Y-128870000D02*
X169150000Y-128870000D01*
X158070000Y-95800000D02*
X155825000Y-95800000D01*
D79*
X117673530Y-133726470D02*
X117800000Y-133600000D01*
X122334831Y-132134831D02*
X122400000Y-132200000D01*
X121227022Y-132134831D02*
X122334831Y-132134831D01*
X133568490Y-122545244D02*
X134169738Y-121943996D01*
D77*
X112625000Y-125826471D02*
X113373529Y-125826471D01*
D79*
X120589289Y-128306898D02*
X121306898Y-128306898D01*
X108700006Y-132699994D02*
X108800000Y-132600000D01*
D78*
X191200000Y-137000000D02*
X191400000Y-137200000D01*
D79*
X134194740Y-125593995D02*
X134194740Y-124918995D01*
D78*
X170240000Y-109040000D02*
X170400000Y-109200000D01*
X193425000Y-81625000D02*
X193200000Y-81400000D01*
X97600000Y-82000000D02*
X98715000Y-80885000D01*
D79*
X115120000Y-126460000D02*
X115150000Y-126430000D01*
D78*
X194599995Y-135599998D02*
X194600000Y-135600003D01*
D79*
X137643492Y-126420244D02*
X137379742Y-126683994D01*
X134194740Y-124918995D02*
X132969741Y-123693995D01*
D77*
X111649999Y-82799999D02*
X111049999Y-82799999D01*
X191338000Y-104405182D02*
X191166409Y-104233591D01*
D79*
X142569739Y-126168995D02*
X143244740Y-126168995D01*
D78*
X148763489Y-116236511D02*
X149200000Y-115800000D01*
D77*
X203075000Y-128075000D02*
X203000000Y-128000000D01*
X94770003Y-104324996D02*
X97624999Y-101470000D01*
D78*
X165600000Y-136240000D02*
X168960000Y-136240000D01*
X178200000Y-121800000D02*
X178400000Y-121600000D01*
D79*
X121306898Y-128306898D02*
X121400000Y-128400000D01*
D78*
X101800000Y-80200000D02*
X100600000Y-80200000D01*
X112635716Y-125815755D02*
X112625000Y-125826471D01*
D77*
X137669740Y-114793996D02*
X138594738Y-114793996D01*
D79*
X114900876Y-127403488D02*
X114900876Y-126679124D01*
X113623199Y-136935124D02*
X114264876Y-136935124D01*
D77*
X133719741Y-119143995D02*
X134669740Y-119143997D01*
D78*
X164380000Y-88220000D02*
X161600000Y-91000000D01*
D79*
X132969739Y-123143995D02*
X133568490Y-122545244D01*
D81*
X113900002Y-133276470D02*
X113900002Y-132376472D01*
D77*
X191338000Y-105175000D02*
X191338000Y-104405182D01*
D79*
X138019740Y-124783994D02*
X138019740Y-126043997D01*
D78*
X189870000Y-81470000D02*
X189800000Y-81400000D01*
X115850005Y-132026469D02*
X121118660Y-132026469D01*
D79*
X103000000Y-106201800D02*
X103000000Y-107200000D01*
X108700006Y-133276470D02*
X108700006Y-132699994D01*
X134759738Y-126683993D02*
X134533490Y-126457744D01*
D78*
X148763489Y-117937744D02*
X148763489Y-116236511D01*
D79*
X117150005Y-136926469D02*
X117673531Y-136926469D01*
X113899999Y-101899999D02*
X113600000Y-101600000D01*
D78*
X107750000Y-110300001D02*
X115899999Y-110300001D01*
X150650000Y-136650000D02*
X149600000Y-136650000D01*
D81*
X113900002Y-132376472D02*
X113550000Y-132026470D01*
D78*
X163060000Y-95650000D02*
X165600000Y-95650000D01*
X176425001Y-121800000D02*
X178200000Y-121800000D01*
D79*
X114900876Y-126679124D02*
X115120000Y-126460000D01*
D78*
X115899999Y-110300001D02*
X116000000Y-110200000D01*
D77*
X116475005Y-125925005D02*
X116290000Y-125740000D01*
D79*
X141044741Y-126168996D02*
X142569739Y-126168995D01*
X134194740Y-126118995D02*
X134194740Y-125593995D01*
X94700002Y-106200000D02*
X94700002Y-104800000D01*
X144469739Y-127393994D02*
X144569741Y-127393996D01*
D77*
X116475005Y-126726469D02*
X116475005Y-125925005D01*
D78*
X162050000Y-128870000D02*
X158530000Y-128870000D01*
X100600000Y-80200000D02*
X99400000Y-80200000D01*
X157400000Y-100400000D02*
X158610000Y-101610000D01*
X98715000Y-80885000D02*
X99400000Y-80200000D01*
D79*
X203226000Y-84174000D02*
X203000000Y-84400000D01*
D78*
X189870000Y-83325001D02*
X189870000Y-81470000D01*
X166800000Y-109040000D02*
X170240000Y-109040000D01*
D79*
X143244740Y-126168995D02*
X144469739Y-127393994D01*
D78*
X102490000Y-80200000D02*
X101800000Y-80200000D01*
X147500000Y-136650000D02*
X144348560Y-136650000D01*
X144348560Y-136650000D02*
X144348560Y-137548560D01*
X177300000Y-125500000D02*
X177600000Y-125200000D01*
X102999999Y-80709999D02*
X102490000Y-80200000D01*
X174500000Y-98700000D02*
X174800000Y-98400000D01*
X158530000Y-128870000D02*
X158200000Y-129200000D01*
D79*
X110396201Y-136952943D02*
X109752943Y-136952943D01*
X115956200Y-122450000D02*
X115956200Y-121956200D01*
D78*
X168960000Y-136240000D02*
X169200000Y-136000000D01*
D77*
X111000000Y-82750000D02*
X111049999Y-82799999D01*
D79*
X138019740Y-126043997D02*
X137643492Y-126420244D01*
X114700000Y-101899999D02*
X113899999Y-101899999D01*
%TO.N,Net-(K1-COIL_1)*%
X121449998Y-88849999D02*
X118799999Y-88849999D01*
X124299998Y-91699999D02*
X121449998Y-88849999D01*
%TO.N,Net-(K2-COIL_1)*%
X120549998Y-106500000D02*
X124300000Y-106500000D01*
X119349999Y-107699999D02*
X120549998Y-106500000D01*
D77*
%TO.N,Net-(U2-B)*%
X115634799Y-83665199D02*
X115634799Y-84847499D01*
X113449999Y-82499999D02*
X116799999Y-82499999D01*
X113149999Y-82799999D02*
X113449999Y-82499999D01*
X116799999Y-82499999D02*
X115634799Y-83665199D01*
D79*
%TO.N,Net-(U4-B)*%
X116299998Y-104032300D02*
X115034799Y-105297499D01*
X116299998Y-103399999D02*
X116299998Y-104032300D01*
X114700000Y-103399999D02*
X116299998Y-103399999D01*
D77*
%TO.N,Net-(U6-EN)*%
X112900001Y-127981187D02*
X113439288Y-127441900D01*
X111400004Y-127426471D02*
X113423859Y-127426471D01*
X112900001Y-129576472D02*
X112900001Y-127981187D01*
X113423859Y-127426471D02*
X113439288Y-127441900D01*
%TO.N,Net-(U6-ILIM)*%
X116117634Y-128600000D02*
X116404500Y-128313134D01*
X113900002Y-128899998D02*
X114200000Y-128600000D01*
X114200000Y-128600000D02*
X116117634Y-128600000D01*
X113900002Y-129576472D02*
X113900002Y-128899998D01*
%TO.N,Net-(U6-FB)*%
X115650004Y-133726470D02*
X115650004Y-135326465D01*
X113400000Y-133276470D02*
X113400000Y-134000000D01*
X113800000Y-134400000D02*
X114976474Y-134400000D01*
X113400000Y-134000000D02*
X113800000Y-134400000D01*
X115650004Y-135326465D02*
X115650000Y-135326469D01*
X114976474Y-134400000D02*
X115650004Y-133726470D01*
%TO.N,Net-(U1-RBOOT)*%
X141417554Y-122568996D02*
X141867555Y-123018996D01*
X141069738Y-122568996D02*
X141417554Y-122568996D01*
X141867555Y-123018996D02*
X142969741Y-123018996D01*
%TO.N,Net-(U1-EN{slash}SYNC)*%
X136569739Y-122093996D02*
X136569739Y-120837596D01*
X137044738Y-122568995D02*
X136569739Y-122093996D01*
X136569739Y-120837596D02*
X136176139Y-120443994D01*
X136176139Y-120443994D02*
X135769739Y-120443994D01*
X134169738Y-120443995D02*
X135769739Y-120443994D01*
X137869740Y-122568993D02*
X137044738Y-122568995D01*
%TO.N,Net-(R_RT1-Pad1)*%
X136369739Y-117643994D02*
X134669740Y-117643994D01*
%TO.N,Net-(U1-RT)*%
X137344741Y-122068995D02*
X137190000Y-121914254D01*
X137190000Y-119964254D02*
X136369741Y-119143995D01*
X137869740Y-122068995D02*
X137344741Y-122068995D01*
X137190000Y-121914254D02*
X137190000Y-119964254D01*
%TO.N,Net-(U10-B)*%
X118343800Y-120645578D02*
X118107750Y-120409528D01*
X118343800Y-122450000D02*
X118343800Y-120645578D01*
D78*
%TO.N,Net-(U7-E)*%
X169150000Y-131550000D02*
X173485199Y-131550000D01*
X169150000Y-131550000D02*
X162050000Y-131550000D01*
X163590000Y-131550000D02*
X165600000Y-133560000D01*
X173485199Y-131550000D02*
X174321199Y-132386000D01*
X162050000Y-131550000D02*
X163590000Y-131550000D01*
%TO.N,Net-(U8-E)*%
X166800000Y-104295750D02*
X166805750Y-104290000D01*
X159705750Y-104290000D02*
X166805750Y-104290000D01*
X170596250Y-104290000D02*
X171942250Y-105636000D01*
X166805750Y-104290000D02*
X170596250Y-104290000D01*
X166800000Y-106360000D02*
X166800000Y-104295750D01*
%TO.N,Net-(U9-E)*%
X172690000Y-92970000D02*
X172700000Y-92960000D01*
X172850500Y-90900000D02*
X173236500Y-91286000D01*
X168000000Y-90900000D02*
X172850500Y-90900000D01*
X168000000Y-90900000D02*
X167670000Y-90900000D01*
X167670000Y-90900000D02*
X165600000Y-92970000D01*
X165600000Y-92970000D02*
X172690000Y-92970000D01*
%TO.N,Net-(U7-C)*%
X188090000Y-125400000D02*
X187200000Y-125400000D01*
X187200000Y-125400000D02*
X182500000Y-130100000D01*
%TO.N,Net-(U8-C)*%
X180121050Y-108106050D02*
X182575000Y-110560000D01*
X180121050Y-103350000D02*
X180121050Y-108106050D01*
%TO.N,Net-(U9-C)*%
X181415301Y-89152301D02*
X181415301Y-89000000D01*
X188063000Y-95800000D02*
X181415301Y-89152301D01*
X190630000Y-94370000D02*
X189200000Y-95800000D01*
X190630000Y-93375000D02*
X190630000Y-94370000D01*
X189200000Y-95800000D02*
X188063000Y-95800000D01*
%TO.N,/V0_IN*%
X198776530Y-133773471D02*
X198549999Y-134000002D01*
D77*
X204400000Y-126600000D02*
X200415002Y-126600000D01*
X204640000Y-126840000D02*
X204400000Y-126600000D01*
D78*
X198776530Y-129211528D02*
X198290002Y-128725000D01*
X198776530Y-132277360D02*
X198776530Y-133773471D01*
X198776530Y-132277360D02*
X198776530Y-129211528D01*
X198549999Y-134000002D02*
X200415004Y-134000002D01*
X200415004Y-134000002D02*
X200990001Y-134574999D01*
D77*
X204640000Y-128075000D02*
X204640000Y-126840000D01*
X200415002Y-126600000D02*
X198290002Y-128725000D01*
D78*
%TO.N,/V5_IN*%
X186999999Y-133750001D02*
X187199999Y-133950001D01*
X187199999Y-133950001D02*
X185700000Y-133950001D01*
X186999999Y-129114998D02*
X187389998Y-128724999D01*
X186999999Y-132250003D02*
X186999999Y-133750001D01*
D77*
X189000000Y-135750002D02*
X187199999Y-133950001D01*
X202600000Y-138200000D02*
X189200000Y-138200000D01*
D78*
X186999999Y-132250003D02*
X186999999Y-129114998D01*
D77*
X203990000Y-133951000D02*
X203990000Y-136810000D01*
D78*
X185700000Y-133950001D02*
X184699999Y-134950002D01*
D77*
X203990000Y-136810000D02*
X202600000Y-138200000D01*
X189000000Y-138000000D02*
X189000000Y-135750002D01*
X189200000Y-138200000D02*
X189000000Y-138000000D01*
%TO.N,/V2_IN*%
X188000000Y-104200000D02*
X184400000Y-104200000D01*
X183487000Y-111600000D02*
X178174998Y-111600000D01*
D78*
X173125003Y-114224999D02*
X173100002Y-114250000D01*
D77*
X189625000Y-105825000D02*
X188000000Y-104200000D01*
X183501000Y-111586000D02*
X183473000Y-111586000D01*
D78*
X170300001Y-111500000D02*
X170300001Y-113049999D01*
D77*
X183501000Y-105099000D02*
X183501000Y-111586000D01*
D78*
X173100002Y-114250000D02*
X171500002Y-114250000D01*
D77*
X178174998Y-111600000D02*
X175549999Y-114224999D01*
X183473000Y-111586000D02*
X183487000Y-111600000D01*
D78*
X171500002Y-114250000D02*
X171300002Y-114050000D01*
X170300001Y-113049999D02*
X171300002Y-114050000D01*
D77*
X191338000Y-105825000D02*
X189625000Y-105825000D01*
D78*
X175549999Y-114224999D02*
X173125003Y-114224999D01*
D77*
X184400000Y-104200000D02*
X183501000Y-105099000D01*
%TO.N,/V3_IN*%
X183580100Y-112074000D02*
X178526000Y-112074000D01*
X185462000Y-105175000D02*
X184474500Y-105175000D01*
X184250000Y-111404100D02*
X183580100Y-112074000D01*
X177400000Y-115749999D02*
X175549999Y-117600000D01*
D78*
X171500002Y-117600000D02*
X171300002Y-117800000D01*
X170300001Y-118800001D02*
X171300002Y-117800000D01*
D77*
X184250000Y-105399500D02*
X184250000Y-111404100D01*
X177400000Y-113200000D02*
X177400000Y-115749999D01*
D78*
X175549999Y-117600000D02*
X173100002Y-117600000D01*
X173100002Y-117600000D02*
X171500002Y-117600000D01*
X170300001Y-120399998D02*
X170300001Y-118800001D01*
D77*
X184474500Y-105175000D02*
X184250000Y-105399500D01*
X178526000Y-112074000D02*
X177400000Y-113200000D01*
D79*
%TO.N,/V1_IN*%
X186140000Y-87075000D02*
X185715000Y-86650000D01*
X203040000Y-91000000D02*
X196200000Y-91000000D01*
X186140000Y-89360000D02*
X186140000Y-87075000D01*
X203990000Y-90050000D02*
X203040000Y-91000000D01*
D78*
X184925000Y-83950000D02*
X185925000Y-84950000D01*
D79*
X196200000Y-91000000D02*
X195200000Y-90000000D01*
D78*
X185715000Y-86650000D02*
X185715000Y-85160000D01*
D79*
X195200000Y-88800000D02*
X194400000Y-88000000D01*
X187500000Y-88000000D02*
X186140000Y-89360000D01*
D78*
X185715000Y-85160000D02*
X185925000Y-84950000D01*
X183415000Y-83950000D02*
X184925000Y-83950000D01*
D79*
X194400000Y-88000000D02*
X187500000Y-88000000D01*
X195200000Y-90000000D02*
X195200000Y-88800000D01*
%TO.N,/V4_IN*%
X204640000Y-84174000D02*
X204640000Y-83040000D01*
D78*
X198365001Y-83949999D02*
X197365000Y-84950000D01*
D79*
X201600000Y-85000000D02*
X197250000Y-89350000D01*
X197250000Y-89350000D02*
X197150000Y-89350000D01*
X201600000Y-83600000D02*
X201600000Y-85000000D01*
X202400000Y-82800000D02*
X201600000Y-83600000D01*
X204400000Y-82800000D02*
X202400000Y-82800000D01*
D78*
X197575000Y-86650000D02*
X197575000Y-85160000D01*
X199865000Y-83949999D02*
X198365001Y-83949999D01*
X197575000Y-85160000D02*
X197365000Y-84950000D01*
D79*
X197575000Y-86650000D02*
X197575000Y-88925000D01*
X204640000Y-83040000D02*
X204400000Y-82800000D01*
X197575000Y-88925000D02*
X197150000Y-89350000D01*
D77*
%TO.N,/V4_OUT*%
X207200000Y-84600000D02*
X206366000Y-84600000D01*
X205290000Y-84174000D02*
X205940000Y-84174000D01*
X206366000Y-84600000D02*
X205940000Y-84174000D01*
%TO.N,/V5_OUT*%
X205200000Y-136000000D02*
X204640000Y-135440000D01*
X207600000Y-125000000D02*
X207600000Y-134800000D01*
X204640000Y-133951000D02*
X205290000Y-133951000D01*
X197500000Y-108615000D02*
X198600000Y-109715000D01*
X206400000Y-136000000D02*
X205200000Y-136000000D01*
X207600000Y-134800000D02*
X206400000Y-136000000D01*
X198600000Y-109715000D02*
X198600000Y-116000000D01*
X198600000Y-116000000D02*
X207600000Y-125000000D01*
X204640000Y-135440000D02*
X204640000Y-133951000D01*
%TO.N,/V1_OUT*%
X204640000Y-90050000D02*
X204640000Y-102268984D01*
X198530000Y-107470000D02*
X194960000Y-107470000D01*
X205290000Y-90050000D02*
X204640000Y-90050000D01*
X199556000Y-106444000D02*
X198530000Y-107470000D01*
X204640000Y-102268984D02*
X200464984Y-106444000D01*
X200464984Y-106444000D02*
X199556000Y-106444000D01*
%TO.N,/V3_OUT*%
X192600000Y-110200000D02*
X188875000Y-106475000D01*
X194395000Y-113195000D02*
X192600000Y-111400000D01*
X185462000Y-106475000D02*
X185462000Y-105825000D01*
X192600000Y-111400000D02*
X192600000Y-110200000D01*
X197500000Y-113195000D02*
X194395000Y-113195000D01*
X188875000Y-106475000D02*
X185462000Y-106475000D01*
%TO.N,/V2_OUT*%
X191338000Y-106475000D02*
X191338000Y-107125000D01*
D79*
X191338000Y-107125000D02*
X192475000Y-107125000D01*
%TO.N,/V0_OUT*%
X205925000Y-126875000D02*
X206000000Y-126800000D01*
D77*
X205940000Y-128075000D02*
X205290000Y-128075000D01*
D79*
X205925000Y-128060000D02*
X205925000Y-126875000D01*
X205940000Y-128075000D02*
X205925000Y-128060000D01*
D78*
%TO.N,/VB1*%
X173300001Y-125500000D02*
X173300001Y-126792802D01*
X170600000Y-125500000D02*
X173300001Y-125500000D01*
X173300001Y-126792802D02*
X174321199Y-127814000D01*
%TO.N,/VB2*%
X167993800Y-98700000D02*
X170800000Y-98700000D01*
%TO.N,/VB3*%
X173087600Y-83200000D02*
X175700000Y-83200000D01*
X175700000Y-83200000D02*
X175800000Y-83300000D01*
%TD*%
%TA.AperFunction,Conductor*%
%TO.N,/DC.DC3 VCC*%
G36*
X140276350Y-120605973D02*
G01*
X140276439Y-120605991D01*
X140283868Y-120610991D01*
X140285587Y-120619779D01*
X140285336Y-120620787D01*
X140245930Y-120753589D01*
X140245150Y-120755548D01*
X140196193Y-120852186D01*
X140195977Y-120852594D01*
X140181096Y-120879302D01*
X140137290Y-120985139D01*
X140124431Y-121054666D01*
X140120319Y-121133148D01*
X140116464Y-121141231D01*
X140108635Y-121144236D01*
X139880746Y-121144236D01*
X139872473Y-121140809D01*
X139869068Y-121133248D01*
X139863560Y-121042880D01*
X139863560Y-121042878D01*
X139846901Y-120966906D01*
X139846900Y-120966905D01*
X139846900Y-120966902D01*
X139793396Y-120852411D01*
X139748215Y-120764624D01*
X139747431Y-120762692D01*
X139704252Y-120620846D01*
X139705121Y-120611936D01*
X139712038Y-120606248D01*
X139713120Y-120605974D01*
X139992420Y-120549469D01*
X139997056Y-120549469D01*
X140276350Y-120605973D01*
G37*
%TD.AperFunction*%
%TD*%
%TA.AperFunction,Conductor*%
%TO.N,Net-(U1-FB)*%
G36*
X139226353Y-120605972D02*
G01*
X139226442Y-120605990D01*
X139233871Y-120610990D01*
X139235590Y-120619778D01*
X139235339Y-120620786D01*
X139195932Y-120753588D01*
X139195152Y-120755547D01*
X139146195Y-120852185D01*
X139145979Y-120852592D01*
X139131100Y-120879296D01*
X139087291Y-120985140D01*
X139074432Y-121054666D01*
X139070320Y-121133146D01*
X139066465Y-121141229D01*
X139058636Y-121144234D01*
X138830748Y-121144234D01*
X138822475Y-121140807D01*
X138819070Y-121133246D01*
X138813563Y-121042887D01*
X138813562Y-121042883D01*
X138813562Y-121042879D01*
X138796903Y-120966900D01*
X138743398Y-120852409D01*
X138698218Y-120764623D01*
X138697434Y-120762691D01*
X138654255Y-120620845D01*
X138655124Y-120611935D01*
X138662041Y-120606247D01*
X138663122Y-120605973D01*
X138942423Y-120549469D01*
X138947059Y-120549469D01*
X139226353Y-120605972D01*
G37*
%TD.AperFunction*%
%TD*%
%TA.AperFunction,Conductor*%
%TO.N,Net-(U1-FB)*%
G36*
X136588603Y-116435256D02*
G01*
X136656542Y-116496395D01*
X136656549Y-116496400D01*
X136721221Y-116540418D01*
X136721222Y-116540419D01*
X136721224Y-116540420D01*
X136721226Y-116540421D01*
X136837637Y-116589723D01*
X136900007Y-116612856D01*
X136912760Y-116617586D01*
X136914291Y-116618283D01*
X137054026Y-116694451D01*
X137059650Y-116701419D01*
X137058699Y-116710324D01*
X137058175Y-116711192D01*
X136900575Y-116948734D01*
X136897294Y-116952015D01*
X136659383Y-117109861D01*
X136650595Y-117111580D01*
X136643166Y-117106580D01*
X136642846Y-117106070D01*
X136605565Y-117043067D01*
X136604929Y-117041828D01*
X136577304Y-116978890D01*
X136576728Y-116977263D01*
X136547285Y-116869163D01*
X136547168Y-116868695D01*
X136537390Y-116825919D01*
X136497794Y-116723769D01*
X136460017Y-116667703D01*
X136410953Y-116612855D01*
X136407992Y-116604405D01*
X136411400Y-116596783D01*
X136572505Y-116435679D01*
X136580777Y-116432253D01*
X136588603Y-116435256D01*
G37*
%TD.AperFunction*%
%TD*%
%TA.AperFunction,Conductor*%
%TO.N,Net-(D3-A)*%
G36*
X142020822Y-120209191D02*
G01*
X142024227Y-120216752D01*
X142029736Y-120307113D01*
X142029736Y-120307117D01*
X142029737Y-120307118D01*
X142046396Y-120383097D01*
X142087337Y-120470704D01*
X142099908Y-120497602D01*
X142145080Y-120585368D01*
X142145869Y-120587313D01*
X142176098Y-120686618D01*
X142189046Y-120729151D01*
X142188177Y-120738063D01*
X142181260Y-120743751D01*
X142180173Y-120744026D01*
X141900881Y-120800529D01*
X141896241Y-120800529D01*
X141616859Y-120744008D01*
X141609430Y-120739008D01*
X141607711Y-120730220D01*
X141607956Y-120729235D01*
X141647370Y-120596402D01*
X141648145Y-120594457D01*
X141697125Y-120497771D01*
X141697321Y-120497404D01*
X141712198Y-120470704D01*
X141712197Y-120470704D01*
X141712202Y-120470697D01*
X141756007Y-120364860D01*
X141768865Y-120295338D01*
X141772978Y-120216849D01*
X141776832Y-120208769D01*
X141784658Y-120205764D01*
X142012549Y-120205764D01*
X142020822Y-120209191D01*
G37*
%TD.AperFunction*%
%TD*%
%TA.AperFunction,Conductor*%
%TO.N,GND*%
G36*
X133740508Y-116103391D02*
G01*
X133873332Y-116142803D01*
X133875284Y-116143581D01*
X133971948Y-116192551D01*
X133972315Y-116192745D01*
X133999043Y-116207637D01*
X134104880Y-116251443D01*
X134174402Y-116264301D01*
X134252889Y-116268414D01*
X134260970Y-116272268D01*
X134263975Y-116280097D01*
X134263975Y-116507986D01*
X134260548Y-116516259D01*
X134252987Y-116519664D01*
X134162619Y-116525172D01*
X134162617Y-116525172D01*
X134086644Y-116541831D01*
X133972145Y-116595339D01*
X133884371Y-116640514D01*
X133882424Y-116641304D01*
X133740587Y-116684480D01*
X133731675Y-116683611D01*
X133725987Y-116676694D01*
X133725712Y-116675607D01*
X133709473Y-116595339D01*
X133669208Y-116396313D01*
X133669208Y-116391675D01*
X133691782Y-116280097D01*
X133725730Y-116112292D01*
X133730730Y-116104864D01*
X133739518Y-116103145D01*
X133740508Y-116103391D01*
G37*
%TD.AperFunction*%
%TD*%
%TA.AperFunction,Conductor*%
%TO.N,GND*%
G36*
X139592006Y-121503186D02*
G01*
X139595411Y-121510747D01*
X139600917Y-121601104D01*
X139600919Y-121601113D01*
X139617577Y-121677090D01*
X139671090Y-121791597D01*
X139716260Y-121879362D01*
X139717049Y-121881307D01*
X139744434Y-121971268D01*
X139760226Y-122023146D01*
X139759357Y-122032058D01*
X139752440Y-122037746D01*
X139751353Y-122038021D01*
X139472061Y-122094525D01*
X139467421Y-122094525D01*
X139188039Y-122038003D01*
X139180610Y-122033003D01*
X139178891Y-122024215D01*
X139179136Y-122023230D01*
X139218550Y-121890396D01*
X139219325Y-121888451D01*
X139268308Y-121791760D01*
X139268480Y-121791436D01*
X139283383Y-121764690D01*
X139327189Y-121658854D01*
X139340047Y-121589332D01*
X139344160Y-121510847D01*
X139348015Y-121502764D01*
X139355844Y-121499759D01*
X139583733Y-121499759D01*
X139592006Y-121503186D01*
G37*
%TD.AperFunction*%
%TD*%
%TA.AperFunction,Conductor*%
%TO.N,GND*%
G36*
X142878195Y-125919416D02*
G01*
X142987508Y-125923232D01*
X142988572Y-125923319D01*
X143076161Y-125934669D01*
X143078222Y-125934937D01*
X143079896Y-125935280D01*
X143105568Y-125942525D01*
X143221892Y-125975357D01*
X143222377Y-125975507D01*
X143254481Y-125986281D01*
X143461404Y-126040716D01*
X143468533Y-126046135D01*
X143469910Y-126054276D01*
X143414942Y-126335425D01*
X143413169Y-126339707D01*
X143253589Y-126577110D01*
X143246130Y-126582064D01*
X143237352Y-126580293D01*
X143236999Y-126580047D01*
X143144202Y-126512589D01*
X143144004Y-126512441D01*
X143112337Y-126488382D01*
X143112334Y-126488381D01*
X143112335Y-126488381D01*
X143112333Y-126488380D01*
X143026351Y-126439467D01*
X143026348Y-126439466D01*
X142959597Y-126424053D01*
X142959602Y-126424053D01*
X142877194Y-126419593D01*
X142869118Y-126415724D01*
X142866126Y-126407910D01*
X142866126Y-125931110D01*
X142869553Y-125922837D01*
X142877826Y-125919410D01*
X142878195Y-125919416D01*
G37*
%TD.AperFunction*%
%TD*%
%TA.AperFunction,Conductor*%
%TO.N,GND*%
G36*
X137740509Y-114503392D02*
G01*
X137873333Y-114542804D01*
X137875285Y-114543582D01*
X137971949Y-114592552D01*
X137972316Y-114592746D01*
X137999044Y-114607638D01*
X138104881Y-114651444D01*
X138174403Y-114664302D01*
X138252890Y-114668415D01*
X138260971Y-114672269D01*
X138263976Y-114680098D01*
X138263976Y-114907987D01*
X138260549Y-114916260D01*
X138252988Y-114919665D01*
X138162620Y-114925173D01*
X138162618Y-114925173D01*
X138086645Y-114941832D01*
X137972146Y-114995340D01*
X137884372Y-115040515D01*
X137882425Y-115041305D01*
X137740588Y-115084481D01*
X137731676Y-115083612D01*
X137725988Y-115076695D01*
X137725713Y-115075608D01*
X137709474Y-114995340D01*
X137669209Y-114796314D01*
X137669209Y-114791676D01*
X137691783Y-114680098D01*
X137725731Y-114512293D01*
X137730731Y-114504865D01*
X137739519Y-114503146D01*
X137740509Y-114503392D01*
G37*
%TD.AperFunction*%
%TD*%
%TA.AperFunction,Conductor*%
%TO.N,GND*%
G36*
X133790510Y-118853391D02*
G01*
X133923337Y-118892804D01*
X133925282Y-118893578D01*
X134021940Y-118942546D01*
X134022343Y-118942760D01*
X134049046Y-118957638D01*
X134154882Y-119001444D01*
X134224404Y-119014303D01*
X134302890Y-119018415D01*
X134310971Y-119022270D01*
X134313976Y-119030099D01*
X134313976Y-119257987D01*
X134310549Y-119266260D01*
X134302988Y-119269665D01*
X134212630Y-119275172D01*
X134212620Y-119275174D01*
X134136642Y-119291833D01*
X134022146Y-119345339D01*
X133934372Y-119390514D01*
X133932425Y-119391304D01*
X133790589Y-119434480D01*
X133781677Y-119433611D01*
X133775989Y-119426694D01*
X133775714Y-119425607D01*
X133768712Y-119390997D01*
X133719211Y-119146313D01*
X133719211Y-119141675D01*
X133743368Y-119022270D01*
X133775732Y-118862292D01*
X133780732Y-118854864D01*
X133789520Y-118853145D01*
X133790510Y-118853391D01*
G37*
%TD.AperFunction*%
%TD*%
%TA.AperFunction,Conductor*%
%TO.N,GND*%
G36*
X143669500Y-126180255D02*
G01*
X143803945Y-126368130D01*
X143943822Y-126514907D01*
X144002132Y-126572882D01*
X144005583Y-126581144D01*
X144002180Y-126589427D01*
X143665196Y-126926411D01*
X143656923Y-126929838D01*
X143648651Y-126926411D01*
X143590652Y-126868077D01*
X143443875Y-126728200D01*
X143256000Y-126593755D01*
X143251268Y-126586155D01*
X143253060Y-126577775D01*
X143411474Y-126339007D01*
X143414752Y-126335729D01*
X143653520Y-126177315D01*
X143662307Y-126175597D01*
X143669500Y-126180255D01*
G37*
%TD.AperFunction*%
%TD*%
M02*
