%TF.GenerationSoftware,KiCad,Pcbnew,9.0.3*%
%TF.CreationDate,2025-08-13T20:37:11+01:00*%
%TF.ProjectId,Elytra,456c7974-7261-42e6-9b69-6361645f7063,rev?*%
%TF.SameCoordinates,Original*%
%TF.FileFunction,Legend,Top*%
%TF.FilePolarity,Positive*%
%FSLAX46Y46*%
G04 Gerber Fmt 4.6, Leading zero omitted, Abs format (unit mm)*
G04 Created by KiCad (PCBNEW 9.0.3) date 2025-08-13 20:37:11*
%MOMM*%
%LPD*%
G01*
G04 APERTURE LIST*
%ADD10C,0.150000*%
%ADD11C,0.152400*%
%ADD12C,0.000000*%
%ADD13C,0.200000*%
%ADD14C,0.100000*%
%ADD15C,0.160000*%
%ADD16C,0.120000*%
%ADD17C,0.127000*%
%ADD18C,0.050000*%
%ADD19C,0.508000*%
G04 APERTURE END LIST*
D10*
X117562569Y-123330527D02*
X117800664Y-123330527D01*
X117705426Y-123568622D02*
X117800664Y-123330527D01*
X117800664Y-123330527D02*
X117705426Y-123092432D01*
X117991140Y-123473384D02*
X117800664Y-123330527D01*
X117800664Y-123330527D02*
X117991140Y-123187670D01*
X117562569Y-123330527D02*
X117800664Y-123330527D01*
X117705426Y-123568622D02*
X117800664Y-123330527D01*
X117800664Y-123330527D02*
X117705426Y-123092432D01*
X117991140Y-123473384D02*
X117800664Y-123330527D01*
X117800664Y-123330527D02*
X117991140Y-123187670D01*
X114108219Y-94255998D02*
X114346314Y-94255998D01*
X114251076Y-94494093D02*
X114346314Y-94255998D01*
X114346314Y-94255998D02*
X114251076Y-94017903D01*
X114536790Y-94398855D02*
X114346314Y-94255998D01*
X114346314Y-94255998D02*
X114536790Y-94113141D01*
X114108219Y-94255998D02*
X114346314Y-94255998D01*
X114251076Y-94494093D02*
X114346314Y-94255998D01*
X114346314Y-94255998D02*
X114251076Y-94017903D01*
X114536790Y-94398855D02*
X114346314Y-94255998D01*
X114346314Y-94255998D02*
X114536790Y-94113141D01*
X178825180Y-129298095D02*
X178015657Y-129298095D01*
X178015657Y-129298095D02*
X177920419Y-129345714D01*
X177920419Y-129345714D02*
X177872800Y-129393333D01*
X177872800Y-129393333D02*
X177825180Y-129488571D01*
X177825180Y-129488571D02*
X177825180Y-129679047D01*
X177825180Y-129679047D02*
X177872800Y-129774285D01*
X177872800Y-129774285D02*
X177920419Y-129821904D01*
X177920419Y-129821904D02*
X178015657Y-129869523D01*
X178015657Y-129869523D02*
X178825180Y-129869523D01*
X178825180Y-130250476D02*
X178825180Y-130917142D01*
X178825180Y-130917142D02*
X177825180Y-130488571D01*
X173781680Y-83793000D02*
X173543585Y-83793000D01*
X173638823Y-83554905D02*
X173543585Y-83793000D01*
X173543585Y-83793000D02*
X173638823Y-84031095D01*
X173353109Y-83650143D02*
X173543585Y-83793000D01*
X173543585Y-83793000D02*
X173353109Y-83935857D01*
X173705180Y-84250000D02*
X173467085Y-84250000D01*
X173562323Y-84011905D02*
X173467085Y-84250000D01*
X173467085Y-84250000D02*
X173562323Y-84488095D01*
X173276609Y-84107143D02*
X173467085Y-84250000D01*
X173467085Y-84250000D02*
X173276609Y-84392857D01*
X119080399Y-122995180D02*
X119080399Y-122757085D01*
X119318494Y-122852323D02*
X119080399Y-122757085D01*
X119080399Y-122757085D02*
X118842304Y-122852323D01*
X119223256Y-122566609D02*
X119080399Y-122757085D01*
X119080399Y-122757085D02*
X118937542Y-122566609D01*
X118809999Y-123805180D02*
X118809999Y-123567085D01*
X119048094Y-123662323D02*
X118809999Y-123567085D01*
X118809999Y-123567085D02*
X118571904Y-123662323D01*
X118952856Y-123376609D02*
X118809999Y-123567085D01*
X118809999Y-123567085D02*
X118667142Y-123376609D01*
X161893333Y-87795180D02*
X161893333Y-87080895D01*
X161893333Y-87080895D02*
X161940952Y-86938038D01*
X161940952Y-86938038D02*
X162036190Y-86842800D01*
X162036190Y-86842800D02*
X162179047Y-86795180D01*
X162179047Y-86795180D02*
X162274285Y-86795180D01*
X160893333Y-86795180D02*
X161464761Y-86795180D01*
X161179047Y-86795180D02*
X161179047Y-87795180D01*
X161179047Y-87795180D02*
X161274285Y-87652323D01*
X161274285Y-87652323D02*
X161369523Y-87557085D01*
X161369523Y-87557085D02*
X161464761Y-87509466D01*
X169963400Y-82654819D02*
X169963400Y-82892914D01*
X169725305Y-82797676D02*
X169963400Y-82892914D01*
X169963400Y-82892914D02*
X170201495Y-82797676D01*
X169820543Y-83083390D02*
X169963400Y-82892914D01*
X169963400Y-82892914D02*
X170106257Y-83083390D01*
X169963400Y-82654819D02*
X169963400Y-82892914D01*
X169725305Y-82797676D02*
X169963400Y-82892914D01*
X169963400Y-82892914D02*
X170201495Y-82797676D01*
X169820543Y-83083390D02*
X169963400Y-82892914D01*
X169963400Y-82892914D02*
X170106257Y-83083390D01*
%TO.C,R26*%
X162955750Y-103250000D02*
X162955750Y-102650000D01*
X156455750Y-103250000D02*
X156455750Y-102650000D01*
D11*
%TO.C,U10*%
X115948750Y-118695028D02*
X115948750Y-117552028D01*
X115948750Y-117552028D02*
X114932750Y-117552028D01*
X115415350Y-120854028D02*
X116507550Y-120854028D01*
X115415350Y-119965028D02*
X116507550Y-119965028D01*
X115415350Y-116282028D02*
X116507550Y-116282028D01*
X115415350Y-115393028D02*
X116507550Y-115393028D01*
X114932750Y-121616028D02*
X114932750Y-118695028D01*
X114932750Y-118695028D02*
X115948750Y-118695028D01*
X114932750Y-117552028D02*
X114932750Y-114631028D01*
X114932750Y-114631028D02*
X108455750Y-114631028D01*
X108455750Y-121616028D02*
X114932750Y-121616028D01*
X108455750Y-121212168D02*
X108455750Y-121616028D01*
X108455750Y-114631028D02*
X108455750Y-115034888D01*
D12*
%TO.C,G\u002A\u002A\u002A*%
G36*
X158752617Y-117950074D02*
G01*
X158973366Y-117951497D01*
X159153859Y-117953898D01*
X159295131Y-117957301D01*
X159398214Y-117961730D01*
X159464143Y-117967211D01*
X159492674Y-117973110D01*
X159535967Y-117999317D01*
X159565278Y-118036305D01*
X159582416Y-118091179D01*
X159589190Y-118171046D01*
X159587407Y-118283009D01*
X159584870Y-118335322D01*
X159553075Y-118641994D01*
X159492115Y-118955304D01*
X159404765Y-119268384D01*
X159293803Y-119574369D01*
X159162005Y-119866392D01*
X159012146Y-120137586D01*
X158847003Y-120381086D01*
X158676065Y-120583042D01*
X158598492Y-120660376D01*
X158537774Y-120706338D01*
X158485244Y-120720615D01*
X158432233Y-120702894D01*
X158370073Y-120652861D01*
X158290096Y-120570202D01*
X158289020Y-120569040D01*
X158094921Y-120332128D01*
X157918699Y-120062598D01*
X157892753Y-120013356D01*
X157919080Y-120013356D01*
X157929663Y-120023939D01*
X157940247Y-120013356D01*
X157929663Y-120002772D01*
X157919080Y-120013356D01*
X157892753Y-120013356D01*
X157763153Y-119767390D01*
X157631085Y-119453445D01*
X157525295Y-119127704D01*
X157448584Y-118797106D01*
X157435471Y-118701022D01*
X157453413Y-118701022D01*
X157463997Y-118711606D01*
X157474580Y-118701022D01*
X157463997Y-118690439D01*
X157453413Y-118701022D01*
X157435471Y-118701022D01*
X157429694Y-118658689D01*
X159506579Y-118658689D01*
X159517162Y-118669272D01*
X159527746Y-118658689D01*
X159517162Y-118648106D01*
X159506579Y-118658689D01*
X157429694Y-118658689D01*
X157403752Y-118468593D01*
X157396162Y-118356446D01*
X157391677Y-118226535D01*
X157394011Y-118131755D01*
X157404822Y-118065215D01*
X157425771Y-118020029D01*
X157444430Y-118002522D01*
X157495747Y-118002522D01*
X157506330Y-118013106D01*
X157516913Y-118002522D01*
X157506330Y-117991939D01*
X157495747Y-118002522D01*
X157444430Y-118002522D01*
X157458516Y-117989307D01*
X157488485Y-117973110D01*
X157521609Y-117966656D01*
X157590950Y-117961274D01*
X157697542Y-117956941D01*
X157842418Y-117953632D01*
X158026612Y-117951324D01*
X158251158Y-117949991D01*
X158490579Y-117949606D01*
X158752617Y-117950074D01*
G37*
G36*
X158552803Y-107607339D02*
G01*
X158613128Y-107634580D01*
X158679245Y-107686180D01*
X158758843Y-107767211D01*
X158779031Y-107789606D01*
X159135886Y-108220437D01*
X159460929Y-108675657D01*
X159752698Y-109152145D01*
X160009725Y-109646780D01*
X160230548Y-110156443D01*
X160413702Y-110678013D01*
X160557721Y-111208369D01*
X160661141Y-111744391D01*
X160673007Y-111824708D01*
X160686990Y-111932348D01*
X160698350Y-112042400D01*
X160707462Y-112161701D01*
X160714704Y-112297087D01*
X160720454Y-112455396D01*
X160725087Y-112643464D01*
X160728388Y-112829149D01*
X160739137Y-113518943D01*
X161101816Y-113426491D01*
X161169142Y-113409356D01*
X163231912Y-113409356D01*
X163242496Y-113419940D01*
X163253079Y-113409356D01*
X163242496Y-113398773D01*
X163231912Y-113409356D01*
X161169142Y-113409356D01*
X161194828Y-113402819D01*
X161252416Y-113388190D01*
X163316579Y-113388190D01*
X163327162Y-113398773D01*
X163337746Y-113388190D01*
X163327162Y-113377606D01*
X163316579Y-113388190D01*
X161252416Y-113388190D01*
X161323244Y-113370196D01*
X161335746Y-113367023D01*
X163401246Y-113367023D01*
X163411829Y-113377606D01*
X163422412Y-113367023D01*
X163411829Y-113356440D01*
X163401246Y-113367023D01*
X161335746Y-113367023D01*
X161481427Y-113330049D01*
X161663740Y-113283809D01*
X161864546Y-113232904D01*
X162003520Y-113197690D01*
X164078579Y-113197690D01*
X164089162Y-113208273D01*
X164099746Y-113197690D01*
X164089162Y-113187106D01*
X164078579Y-113197690D01*
X162003520Y-113197690D01*
X162078209Y-113178764D01*
X162170625Y-113155356D01*
X164247912Y-113155356D01*
X164258496Y-113165940D01*
X164269079Y-113155356D01*
X164258496Y-113144773D01*
X164247912Y-113155356D01*
X162170625Y-113155356D01*
X162254194Y-113134190D01*
X164332579Y-113134190D01*
X164343162Y-113144773D01*
X164353746Y-113134190D01*
X164343162Y-113123606D01*
X164332579Y-113134190D01*
X162254194Y-113134190D01*
X162299091Y-113122818D01*
X162421382Y-113091856D01*
X162554579Y-113091856D01*
X162565162Y-113102440D01*
X162575746Y-113091856D01*
X162565162Y-113081273D01*
X162554579Y-113091856D01*
X162421382Y-113091856D01*
X162521555Y-113066495D01*
X162554579Y-113058136D01*
X162588600Y-113049523D01*
X164671246Y-113049523D01*
X164681829Y-113060106D01*
X164692412Y-113049523D01*
X164681829Y-113038940D01*
X164671246Y-113049523D01*
X162588600Y-113049523D01*
X162755807Y-113007190D01*
X162893246Y-113007190D01*
X162903829Y-113017773D01*
X162914412Y-113007190D01*
X162903829Y-112996606D01*
X162893246Y-113007190D01*
X162755807Y-113007190D01*
X162990665Y-112947729D01*
X163387767Y-112847117D01*
X163747956Y-112755769D01*
X164073302Y-112673153D01*
X164365876Y-112598739D01*
X164424268Y-112583856D01*
X164565412Y-112583856D01*
X164575996Y-112594440D01*
X164586579Y-112583856D01*
X164575996Y-112573273D01*
X164565412Y-112583856D01*
X164424268Y-112583856D01*
X164627747Y-112531995D01*
X164860988Y-112472389D01*
X165067668Y-112419390D01*
X165249858Y-112372466D01*
X165409628Y-112331087D01*
X165549049Y-112294720D01*
X165670191Y-112262834D01*
X165736470Y-112245190D01*
X165877746Y-112245190D01*
X165888329Y-112255773D01*
X165898912Y-112245190D01*
X165888329Y-112234606D01*
X165877746Y-112245190D01*
X165736470Y-112245190D01*
X165775126Y-112234899D01*
X165865923Y-112210381D01*
X165944653Y-112188751D01*
X165976725Y-112179810D01*
X166079883Y-112152054D01*
X166172447Y-112129241D01*
X166244551Y-112113664D01*
X166286331Y-112107618D01*
X166287309Y-112107606D01*
X166337179Y-112120974D01*
X166394575Y-112154118D01*
X166407593Y-112164343D01*
X166447610Y-112201967D01*
X166465922Y-112237322D01*
X166468656Y-112287705D01*
X166465716Y-112328385D01*
X166452832Y-112404236D01*
X166426232Y-112509971D01*
X166388926Y-112636584D01*
X166343925Y-112775071D01*
X166294240Y-112916426D01*
X166242881Y-113051645D01*
X166192860Y-113171722D01*
X166160280Y-113241892D01*
X166003906Y-113511481D01*
X165811766Y-113758675D01*
X165584375Y-113982895D01*
X165328851Y-114179085D01*
X165153338Y-114298356D01*
X165106120Y-114478272D01*
X165010992Y-114765504D01*
X164883278Y-115025954D01*
X164722724Y-115259906D01*
X164529078Y-115467641D01*
X164302083Y-115649441D01*
X164041487Y-115805591D01*
X163819682Y-115907741D01*
X163644662Y-115979341D01*
X163578593Y-116169871D01*
X163471691Y-116414719D01*
X163327127Y-116645375D01*
X163148100Y-116858721D01*
X162937808Y-117051636D01*
X162699449Y-117221003D01*
X162436222Y-117363702D01*
X162289996Y-117426560D01*
X162209943Y-117457127D01*
X162132432Y-117484260D01*
X162048730Y-117510562D01*
X161950108Y-117538634D01*
X161827835Y-117571079D01*
X161673181Y-117610498D01*
X161670871Y-117611080D01*
X161613571Y-117629306D01*
X161587259Y-117651755D01*
X161580912Y-117687858D01*
X161580912Y-117688058D01*
X161576584Y-117734281D01*
X161564400Y-117815169D01*
X161545566Y-117924035D01*
X161521287Y-118054191D01*
X161492766Y-118198950D01*
X161462539Y-118345331D01*
X161441225Y-118432367D01*
X161417410Y-118491285D01*
X161384270Y-118536079D01*
X161356738Y-118562289D01*
X161280939Y-118612601D01*
X161204589Y-118624852D01*
X161123246Y-118604790D01*
X161095498Y-118585221D01*
X161041590Y-118539024D01*
X160965177Y-118469627D01*
X160869913Y-118380455D01*
X160759452Y-118274937D01*
X160637450Y-118156497D01*
X160507559Y-118028563D01*
X160488080Y-118009222D01*
X159911170Y-117435803D01*
X159844826Y-117491627D01*
X159787085Y-117532319D01*
X159730403Y-117560577D01*
X159721906Y-117563320D01*
X159690670Y-117566260D01*
X159621110Y-117569024D01*
X159517232Y-117571560D01*
X159383044Y-117573818D01*
X159222556Y-117575747D01*
X159039774Y-117577297D01*
X158838706Y-117578416D01*
X158623361Y-117579055D01*
X158467544Y-117579189D01*
X157269759Y-117579189D01*
X157156788Y-117508962D01*
X157043818Y-117438736D01*
X156470740Y-118009439D01*
X156340933Y-118138129D01*
X156219014Y-118257895D01*
X156108564Y-118365298D01*
X156013166Y-118456903D01*
X155936405Y-118529272D01*
X155881862Y-118578967D01*
X155853121Y-118602553D01*
X155851430Y-118603540D01*
X155764501Y-118624939D01*
X155672591Y-118605198D01*
X155649221Y-118593805D01*
X155597685Y-118551858D01*
X155558171Y-118498342D01*
X155541950Y-118453299D01*
X155520695Y-118374128D01*
X155496076Y-118268502D01*
X155469765Y-118144091D01*
X155443432Y-118008568D01*
X155418749Y-117869602D01*
X155410976Y-117822606D01*
X155395839Y-117728773D01*
X155391120Y-117706189D01*
X155421413Y-117706189D01*
X155431997Y-117716772D01*
X155442580Y-117706189D01*
X155887080Y-117706189D01*
X155897663Y-117716772D01*
X155908247Y-117706189D01*
X155897663Y-117695606D01*
X155887080Y-117706189D01*
X155442580Y-117706189D01*
X155431997Y-117695606D01*
X155421413Y-117706189D01*
X155391120Y-117706189D01*
X155383152Y-117668058D01*
X155366997Y-117632082D01*
X155341461Y-117612465D01*
X155300626Y-117600826D01*
X155247111Y-117590483D01*
X155115066Y-117558022D01*
X155252080Y-117558022D01*
X155262663Y-117568606D01*
X155273247Y-117558022D01*
X155865913Y-117558022D01*
X155876497Y-117568606D01*
X155887080Y-117558022D01*
X155876497Y-117547439D01*
X155865913Y-117558022D01*
X155273247Y-117558022D01*
X155262663Y-117547439D01*
X155252080Y-117558022D01*
X155115066Y-117558022D01*
X154908107Y-117507144D01*
X154608475Y-117399272D01*
X155844747Y-117399272D01*
X155852491Y-117416695D01*
X155858858Y-117413383D01*
X155861391Y-117388263D01*
X155858858Y-117385161D01*
X155846274Y-117388067D01*
X155844747Y-117399272D01*
X154608475Y-117399272D01*
X154600504Y-117396403D01*
X154322834Y-117257529D01*
X154073626Y-117089795D01*
X153863191Y-116904341D01*
X153677562Y-116695845D01*
X153530229Y-116478340D01*
X153427618Y-116266856D01*
X153452913Y-116266856D01*
X153463497Y-116277439D01*
X153474080Y-116266856D01*
X153463497Y-116256272D01*
X153452913Y-116266856D01*
X153427618Y-116266856D01*
X153417240Y-116245466D01*
X153393831Y-116179942D01*
X153987854Y-116179942D01*
X153996847Y-116198315D01*
X154026130Y-116241777D01*
X154070005Y-116302000D01*
X154084861Y-116321696D01*
X154266050Y-116529159D01*
X154469295Y-116702509D01*
X154697455Y-116843633D01*
X154953386Y-116954423D01*
X155121539Y-117007143D01*
X155203597Y-117029595D01*
X155268677Y-117047264D01*
X155307113Y-117057532D01*
X155313211Y-117059055D01*
X155315456Y-117040721D01*
X155313295Y-116991282D01*
X155309210Y-116944189D01*
X155336747Y-116944189D01*
X155347330Y-116954772D01*
X155357913Y-116944189D01*
X155347330Y-116933606D01*
X155336747Y-116944189D01*
X155309210Y-116944189D01*
X155307612Y-116925773D01*
X155297577Y-116824351D01*
X155287108Y-116713291D01*
X155281952Y-116656092D01*
X155274412Y-116584966D01*
X155266436Y-116532555D01*
X155260332Y-116511469D01*
X155238059Y-116503662D01*
X155181117Y-116487144D01*
X155095547Y-116463487D01*
X154987388Y-116434264D01*
X154862678Y-116401051D01*
X154755047Y-116372689D01*
X154892247Y-116372689D01*
X154902830Y-116383272D01*
X154913413Y-116372689D01*
X154902830Y-116362106D01*
X154892247Y-116372689D01*
X154755047Y-116372689D01*
X154727458Y-116365419D01*
X154587766Y-116328942D01*
X154449642Y-116293195D01*
X154443753Y-116291686D01*
X155758122Y-116291686D01*
X155799973Y-116628521D01*
X155817036Y-116767050D01*
X155837100Y-116931826D01*
X155858252Y-117107045D01*
X155878584Y-117276906D01*
X155890044Y-117373486D01*
X155938264Y-117781616D01*
X156361683Y-117362902D01*
X156471479Y-117254471D01*
X156571223Y-117156243D01*
X156657031Y-117072021D01*
X156725020Y-117005607D01*
X156771306Y-116960803D01*
X156792007Y-116941412D01*
X156792673Y-116940926D01*
X156790357Y-116920311D01*
X156786839Y-116901856D01*
X157305247Y-116901856D01*
X157315830Y-116912439D01*
X157326413Y-116901856D01*
X157315830Y-116891272D01*
X157305247Y-116901856D01*
X156786839Y-116901856D01*
X156779690Y-116864346D01*
X156769877Y-116817189D01*
X157284080Y-116817189D01*
X157294663Y-116827772D01*
X157305247Y-116817189D01*
X157294663Y-116806606D01*
X157284080Y-116817189D01*
X156769877Y-116817189D01*
X156761912Y-116778915D01*
X156738264Y-116669900D01*
X156709984Y-116543184D01*
X156695290Y-116478522D01*
X157199413Y-116478522D01*
X157209997Y-116489106D01*
X157220580Y-116478522D01*
X157209997Y-116467939D01*
X157199413Y-116478522D01*
X156695290Y-116478522D01*
X156694548Y-116475259D01*
X156690477Y-116457356D01*
X156712580Y-116457356D01*
X156723163Y-116467939D01*
X156733747Y-116457356D01*
X156723163Y-116446772D01*
X156712580Y-116457356D01*
X156690477Y-116457356D01*
X156649388Y-116276669D01*
X156647190Y-116266856D01*
X156670247Y-116266856D01*
X156680830Y-116277439D01*
X156691413Y-116266856D01*
X156680830Y-116256272D01*
X156670247Y-116266856D01*
X156647190Y-116266856D01*
X156628224Y-116182189D01*
X156649080Y-116182189D01*
X156659663Y-116192772D01*
X156670247Y-116182189D01*
X156659663Y-116171606D01*
X156649080Y-116182189D01*
X156628224Y-116182189D01*
X156612684Y-116112814D01*
X156583033Y-115977263D01*
X156559035Y-115863582D01*
X156539289Y-115765338D01*
X156533942Y-115737689D01*
X156529071Y-115708348D01*
X156519526Y-115648065D01*
X156517003Y-115631856D01*
X156543247Y-115631856D01*
X156553830Y-115642439D01*
X156564413Y-115631856D01*
X156553830Y-115621272D01*
X156543247Y-115631856D01*
X156517003Y-115631856D01*
X156507025Y-115567742D01*
X156503856Y-115547189D01*
X156987747Y-115547189D01*
X156998330Y-115557772D01*
X157008913Y-115547189D01*
X156998330Y-115536606D01*
X156987747Y-115547189D01*
X156503856Y-115547189D01*
X156501409Y-115531314D01*
X156486676Y-115449012D01*
X156471354Y-115385500D01*
X156468439Y-115377856D01*
X156500913Y-115377856D01*
X156511497Y-115388439D01*
X156522080Y-115377856D01*
X156511497Y-115367272D01*
X156500913Y-115377856D01*
X156468439Y-115377856D01*
X156457908Y-115350237D01*
X156453114Y-115346106D01*
X156424122Y-115361373D01*
X156374729Y-115402719D01*
X156311342Y-115463461D01*
X156240370Y-115536917D01*
X156168222Y-115616405D01*
X156101305Y-115695242D01*
X156046029Y-115766744D01*
X156035663Y-115781411D01*
X155973572Y-115877998D01*
X155907629Y-115991270D01*
X155850680Y-116099013D01*
X155843454Y-116113851D01*
X155758122Y-116291686D01*
X154443753Y-116291686D01*
X154319126Y-116259750D01*
X154202256Y-116230180D01*
X154105073Y-116206060D01*
X154033615Y-116188962D01*
X153993922Y-116180461D01*
X153987854Y-116179942D01*
X153393831Y-116179942D01*
X153387072Y-116161022D01*
X154066747Y-116161022D01*
X154077330Y-116171606D01*
X154087913Y-116161022D01*
X154077330Y-116150439D01*
X154066747Y-116161022D01*
X153387072Y-116161022D01*
X153368167Y-116108106D01*
X153363774Y-116097522D01*
X153389413Y-116097522D01*
X153399997Y-116108106D01*
X153410580Y-116097522D01*
X153399997Y-116086939D01*
X153389413Y-116097522D01*
X153363774Y-116097522D01*
X153331802Y-116020491D01*
X153289937Y-115971895D01*
X153287568Y-115970522D01*
X155252080Y-115970522D01*
X155262663Y-115981106D01*
X155273247Y-115970522D01*
X155262663Y-115959939D01*
X155252080Y-115970522D01*
X153287568Y-115970522D01*
X153280977Y-115966701D01*
X153242999Y-115948244D01*
X153175988Y-115916068D01*
X153089162Y-115874586D01*
X152991742Y-115828211D01*
X152984574Y-115824805D01*
X152942253Y-115801189D01*
X152987247Y-115801189D01*
X152997830Y-115811772D01*
X153008413Y-115801189D01*
X152997830Y-115790606D01*
X152987247Y-115801189D01*
X152942253Y-115801189D01*
X152866391Y-115758856D01*
X154447747Y-115758856D01*
X154458330Y-115769439D01*
X154468913Y-115758856D01*
X154458330Y-115748272D01*
X154447747Y-115758856D01*
X152866391Y-115758856D01*
X152790529Y-115716522D01*
X154278413Y-115716522D01*
X154288997Y-115727106D01*
X154299580Y-115716522D01*
X154288997Y-115705939D01*
X154278413Y-115716522D01*
X152790529Y-115716522D01*
X152719028Y-115676622D01*
X152631642Y-115610689D01*
X153876247Y-115610689D01*
X153886830Y-115621272D01*
X153897413Y-115610689D01*
X153886830Y-115600106D01*
X153876247Y-115610689D01*
X152631642Y-115610689D01*
X152519428Y-115526022D01*
X153516413Y-115526022D01*
X153526997Y-115536606D01*
X153537580Y-115526022D01*
X153526997Y-115515439D01*
X153516413Y-115526022D01*
X152519428Y-115526022D01*
X152484049Y-115499328D01*
X152280510Y-115293984D01*
X152109287Y-115061654D01*
X151971252Y-114803398D01*
X151925699Y-114679356D01*
X152479247Y-114679356D01*
X152489830Y-114689939D01*
X152500413Y-114679356D01*
X152489830Y-114668772D01*
X152479247Y-114679356D01*
X151925699Y-114679356D01*
X151867280Y-114520280D01*
X151858649Y-114488856D01*
X151886580Y-114488856D01*
X151897163Y-114499439D01*
X151907747Y-114488856D01*
X151906579Y-114487688D01*
X152441608Y-114487688D01*
X152445606Y-114510793D01*
X152467789Y-114561605D01*
X152503827Y-114631980D01*
X152549392Y-114713773D01*
X152600156Y-114798841D01*
X152641045Y-114862937D01*
X152783426Y-115041410D01*
X152959844Y-115199721D01*
X153165278Y-115334037D01*
X153394708Y-115440523D01*
X153399997Y-115442527D01*
X153481184Y-115469887D01*
X153589032Y-115501705D01*
X153708756Y-115533808D01*
X153812747Y-115559104D01*
X153905257Y-115581121D01*
X154030040Y-115611990D01*
X154178504Y-115649522D01*
X154342053Y-115691527D01*
X154512094Y-115735815D01*
X154669997Y-115777525D01*
X154822505Y-115817941D01*
X154962266Y-115854650D01*
X155083892Y-115886262D01*
X155181999Y-115911389D01*
X155251201Y-115928643D01*
X155286111Y-115936635D01*
X155288691Y-115937015D01*
X155312774Y-115920764D01*
X155344449Y-115877508D01*
X155351603Y-115864689D01*
X155379080Y-115864689D01*
X155389663Y-115875272D01*
X155400247Y-115864689D01*
X155389663Y-115854106D01*
X155379080Y-115864689D01*
X155351603Y-115864689D01*
X155360462Y-115848814D01*
X155419779Y-115744416D01*
X155495880Y-115627556D01*
X155577053Y-115515322D01*
X155649641Y-115426943D01*
X155689681Y-115379886D01*
X155712888Y-115347170D01*
X155715423Y-115338279D01*
X155693706Y-115331721D01*
X155635609Y-115316056D01*
X155548462Y-115293189D01*
X156945413Y-115293189D01*
X156955997Y-115303772D01*
X156966580Y-115293189D01*
X156955997Y-115282606D01*
X156945413Y-115293189D01*
X155548462Y-115293189D01*
X155545812Y-115292494D01*
X155428992Y-115262246D01*
X155289827Y-115226525D01*
X155132993Y-115186543D01*
X154976913Y-115146983D01*
X154750138Y-115089481D01*
X154552897Y-115039189D01*
X154680580Y-115039189D01*
X154691163Y-115049772D01*
X154701747Y-115039189D01*
X154691163Y-115028606D01*
X154680580Y-115039189D01*
X154552897Y-115039189D01*
X154515740Y-115029715D01*
X154470106Y-115018022D01*
X156903080Y-115018022D01*
X156913663Y-115028606D01*
X156924247Y-115018022D01*
X156913663Y-115007439D01*
X156903080Y-115018022D01*
X154470106Y-115018022D01*
X154277616Y-114968701D01*
X154039662Y-114907458D01*
X153805776Y-114847003D01*
X153579855Y-114788353D01*
X153567721Y-114785189D01*
X153706913Y-114785189D01*
X153717497Y-114795772D01*
X153728080Y-114785189D01*
X153717497Y-114774606D01*
X153706913Y-114785189D01*
X153567721Y-114785189D01*
X153365794Y-114732527D01*
X153243712Y-114700522D01*
X155294413Y-114700522D01*
X155304997Y-114711106D01*
X155315580Y-114700522D01*
X155304997Y-114689939D01*
X155294413Y-114700522D01*
X153243712Y-114700522D01*
X153167492Y-114680541D01*
X152988844Y-114633413D01*
X152922836Y-114615856D01*
X153050747Y-114615856D01*
X153061330Y-114626439D01*
X153071913Y-114615856D01*
X153061330Y-114605272D01*
X153050747Y-114615856D01*
X152922836Y-114615856D01*
X152833748Y-114592160D01*
X152706100Y-114557800D01*
X152609797Y-114531351D01*
X152548737Y-114513829D01*
X152532990Y-114508855D01*
X152479566Y-114492740D01*
X152446033Y-114486718D01*
X152441608Y-114487688D01*
X151906579Y-114487688D01*
X151897163Y-114478272D01*
X151886580Y-114488856D01*
X151858649Y-114488856D01*
X151845300Y-114440256D01*
X151823143Y-114363043D01*
X151801624Y-114303658D01*
X151798732Y-114298356D01*
X153749247Y-114298356D01*
X153759830Y-114308939D01*
X153770413Y-114298356D01*
X153759830Y-114287772D01*
X153749247Y-114298356D01*
X151798732Y-114298356D01*
X151784659Y-114272549D01*
X151781657Y-114270437D01*
X151754880Y-114256137D01*
X151754690Y-114256022D01*
X153579913Y-114256022D01*
X153590497Y-114266606D01*
X153601080Y-114256022D01*
X153590497Y-114245439D01*
X153579913Y-114256022D01*
X151754690Y-114256022D01*
X151702384Y-114224299D01*
X151652249Y-114192522D01*
X151696080Y-114192522D01*
X151706663Y-114203106D01*
X151717247Y-114192522D01*
X151706663Y-114181939D01*
X151696080Y-114192522D01*
X151652249Y-114192522D01*
X151633727Y-114180782D01*
X151619194Y-114171356D01*
X153262413Y-114171356D01*
X153272997Y-114181939D01*
X153283580Y-114171356D01*
X153272997Y-114160772D01*
X153262413Y-114171356D01*
X151619194Y-114171356D01*
X151604933Y-114162105D01*
X151394015Y-114002023D01*
X152606247Y-114002023D01*
X152616830Y-114012606D01*
X152627413Y-114002023D01*
X152616830Y-113991440D01*
X152606247Y-114002023D01*
X151394015Y-114002023D01*
X151373004Y-113986076D01*
X151162131Y-113775831D01*
X150976246Y-113535869D01*
X150819279Y-113270689D01*
X150809947Y-113252241D01*
X150760614Y-113145410D01*
X150707686Y-113016775D01*
X150672072Y-112922523D01*
X151230413Y-112922523D01*
X151240997Y-112933106D01*
X151251580Y-112922523D01*
X151240997Y-112911940D01*
X151230413Y-112922523D01*
X150672072Y-112922523D01*
X150654373Y-112875683D01*
X150641131Y-112837856D01*
X150658913Y-112837856D01*
X150669497Y-112848440D01*
X150675304Y-112842632D01*
X151249726Y-112842632D01*
X151261850Y-112880914D01*
X151289222Y-112940497D01*
X151328033Y-113014218D01*
X151374476Y-113094913D01*
X151424742Y-113175419D01*
X151475025Y-113248572D01*
X151484372Y-113261190D01*
X151662698Y-113463709D01*
X151869631Y-113636546D01*
X152100630Y-113776345D01*
X152296839Y-113861111D01*
X152355031Y-113880094D01*
X152448766Y-113908106D01*
X152572589Y-113943626D01*
X152721046Y-113985135D01*
X152888681Y-114031114D01*
X153070040Y-114080042D01*
X153259668Y-114130401D01*
X153325913Y-114147803D01*
X153474849Y-114186754D01*
X153645474Y-114231272D01*
X153833870Y-114280345D01*
X154036123Y-114332957D01*
X154248317Y-114388095D01*
X154466535Y-114444745D01*
X154686864Y-114501893D01*
X154905386Y-114558525D01*
X155118186Y-114613627D01*
X155321348Y-114666185D01*
X155510958Y-114715186D01*
X155683098Y-114759615D01*
X155833853Y-114798459D01*
X155959309Y-114830703D01*
X156055548Y-114855334D01*
X156118655Y-114871337D01*
X156144715Y-114877699D01*
X156144726Y-114877701D01*
X156168090Y-114867383D01*
X156213070Y-114837924D01*
X156250559Y-114810370D01*
X156303873Y-114766653D01*
X156321709Y-114742856D01*
X156860747Y-114742856D01*
X156871330Y-114753439D01*
X156881913Y-114742856D01*
X156871330Y-114732272D01*
X156860747Y-114742856D01*
X156321709Y-114742856D01*
X156331028Y-114730421D01*
X156340683Y-114685076D01*
X156341650Y-114635745D01*
X156339081Y-114556899D01*
X156332807Y-114459084D01*
X156328157Y-114404189D01*
X156818413Y-114404189D01*
X156828997Y-114414772D01*
X156839580Y-114404189D01*
X156828997Y-114393606D01*
X156818413Y-114404189D01*
X156328157Y-114404189D01*
X156324013Y-114355262D01*
X156313886Y-114258393D01*
X156303615Y-114181438D01*
X156296738Y-114145405D01*
X156267373Y-114103108D01*
X156207630Y-114077350D01*
X156177410Y-114069653D01*
X156108763Y-114052345D01*
X156004330Y-114026088D01*
X155866753Y-113991544D01*
X155781966Y-113970273D01*
X156776080Y-113970273D01*
X156783824Y-113987695D01*
X156790191Y-113984384D01*
X156792724Y-113959264D01*
X156790191Y-113956162D01*
X156777607Y-113959067D01*
X156776080Y-113970273D01*
X155781966Y-113970273D01*
X155698673Y-113949376D01*
X155502731Y-113900245D01*
X155281567Y-113844814D01*
X155037824Y-113783744D01*
X154979718Y-113769190D01*
X155103913Y-113769190D01*
X155114497Y-113779773D01*
X155125080Y-113769190D01*
X155114497Y-113758606D01*
X155103913Y-113769190D01*
X154979718Y-113769190D01*
X154774142Y-113717697D01*
X154493163Y-113647336D01*
X154197528Y-113573323D01*
X153889878Y-113496319D01*
X153710698Y-113451478D01*
X153398352Y-113373280D01*
X153097160Y-113297799D01*
X152809703Y-113225687D01*
X152782503Y-113218856D01*
X152902580Y-113218856D01*
X152913163Y-113229440D01*
X152923747Y-113218856D01*
X152913163Y-113208273D01*
X152902580Y-113218856D01*
X152782503Y-113218856D01*
X152538560Y-113157594D01*
X152286313Y-113094171D01*
X152193049Y-113070690D01*
X154278413Y-113070690D01*
X154288997Y-113081273D01*
X154299580Y-113070690D01*
X154288997Y-113060106D01*
X154278413Y-113070690D01*
X152193049Y-113070690D01*
X152108979Y-113049523D01*
X152225247Y-113049523D01*
X152235830Y-113060106D01*
X152246413Y-113049523D01*
X152235830Y-113038940D01*
X152225247Y-113049523D01*
X152108979Y-113049523D01*
X152055542Y-113036069D01*
X151857100Y-112986023D01*
X153939747Y-112986023D01*
X153950330Y-112996606D01*
X153960913Y-112986023D01*
X153950330Y-112975440D01*
X153939747Y-112986023D01*
X151857100Y-112986023D01*
X151848828Y-112983937D01*
X151668752Y-112938427D01*
X151517895Y-112900189D01*
X151398837Y-112869874D01*
X151356574Y-112859023D01*
X151484413Y-112859023D01*
X151494997Y-112869606D01*
X151505580Y-112859023D01*
X151494997Y-112848440D01*
X151484413Y-112859023D01*
X151356574Y-112859023D01*
X151314159Y-112848132D01*
X151266442Y-112835615D01*
X151256658Y-112832815D01*
X151249726Y-112842632D01*
X150675304Y-112842632D01*
X150680080Y-112837856D01*
X150669497Y-112827273D01*
X150658913Y-112837856D01*
X150641131Y-112837856D01*
X150603889Y-112731476D01*
X150559444Y-112593501D01*
X150550585Y-112562690D01*
X150574247Y-112562690D01*
X150584830Y-112573273D01*
X150595413Y-112562690D01*
X150584830Y-112552106D01*
X150574247Y-112562690D01*
X150550585Y-112562690D01*
X150524250Y-112471102D01*
X150501520Y-112373625D01*
X150496035Y-112338897D01*
X150491344Y-112273619D01*
X150500952Y-112230571D01*
X150530956Y-112190451D01*
X150548643Y-112172287D01*
X150600362Y-112131637D01*
X150650455Y-112109169D01*
X150662823Y-112107606D01*
X150700682Y-112113362D01*
X150770068Y-112129144D01*
X150861989Y-112152724D01*
X150967450Y-112181872D01*
X150997826Y-112190625D01*
X151075343Y-112212423D01*
X151185392Y-112242180D01*
X151328663Y-112280072D01*
X151505844Y-112326274D01*
X151717624Y-112380961D01*
X151964692Y-112444309D01*
X152247738Y-112516495D01*
X152567449Y-112597692D01*
X152924516Y-112688077D01*
X153319627Y-112787825D01*
X153753471Y-112897112D01*
X154226737Y-113016113D01*
X154740114Y-113145004D01*
X154976913Y-113204400D01*
X155194248Y-113258886D01*
X155400380Y-113310535D01*
X155591453Y-113358384D01*
X155763612Y-113401469D01*
X155913003Y-113438825D01*
X156035770Y-113469490D01*
X156128059Y-113492497D01*
X156186014Y-113506884D01*
X156204580Y-113511425D01*
X156257497Y-113523867D01*
X156257497Y-112978160D01*
X156787125Y-112978160D01*
X156795112Y-113401785D01*
X156797119Y-113451690D01*
X156803598Y-113597732D01*
X156810123Y-113732765D01*
X156816325Y-113850006D01*
X156821833Y-113942675D01*
X156826277Y-114003992D01*
X156828321Y-114023190D01*
X156835331Y-114078397D01*
X156843663Y-114156785D01*
X156849979Y-114224272D01*
X156879199Y-114502111D01*
X156920520Y-114811173D01*
X156972301Y-115142639D01*
X157032901Y-115487689D01*
X157100680Y-115837507D01*
X157173997Y-116183272D01*
X157251211Y-116516167D01*
X157330680Y-116827374D01*
X157342274Y-116870106D01*
X157379908Y-117007689D01*
X157781786Y-117018272D01*
X157908269Y-117021252D01*
X158020106Y-117023222D01*
X158110452Y-117024114D01*
X158172460Y-117023863D01*
X158199285Y-117022403D01*
X158199538Y-117022315D01*
X158202830Y-117000469D01*
X158205891Y-116940579D01*
X158208649Y-116846934D01*
X158211033Y-116723821D01*
X158212971Y-116575531D01*
X158214391Y-116406352D01*
X158215221Y-116220572D01*
X158215413Y-116074426D01*
X158215543Y-115837412D01*
X158216176Y-115638985D01*
X158217675Y-115475399D01*
X158220402Y-115342908D01*
X158224722Y-115237766D01*
X158230997Y-115156227D01*
X158239590Y-115094546D01*
X158242812Y-115081522D01*
X158257747Y-115081522D01*
X158268330Y-115092106D01*
X158278913Y-115081522D01*
X158268330Y-115070939D01*
X158257747Y-115081522D01*
X158242812Y-115081522D01*
X158250865Y-115048976D01*
X158255086Y-115039189D01*
X158681079Y-115039189D01*
X158691662Y-115049772D01*
X158702246Y-115039189D01*
X158691662Y-115028606D01*
X158681079Y-115039189D01*
X158255086Y-115039189D01*
X158265185Y-115015771D01*
X158282913Y-114991185D01*
X158304412Y-114971473D01*
X158323720Y-114957288D01*
X158330802Y-114954522D01*
X158427080Y-114954522D01*
X158437663Y-114965106D01*
X158448247Y-114954522D01*
X158437663Y-114943939D01*
X158427080Y-114954522D01*
X158330802Y-114954522D01*
X158387026Y-114932558D01*
X158472099Y-114923684D01*
X158561415Y-114930765D01*
X158637451Y-114953896D01*
X158640706Y-114955536D01*
X158693605Y-114996133D01*
X158729613Y-115045494D01*
X158736536Y-115075911D01*
X158742687Y-115135675D01*
X158748138Y-115226802D01*
X158752960Y-115351307D01*
X158757225Y-115511206D01*
X158761004Y-115708514D01*
X158764369Y-115945246D01*
X158765746Y-116063197D01*
X158776329Y-117023706D01*
X159167912Y-117019892D01*
X159326781Y-117017213D01*
X159445651Y-117012565D01*
X159526817Y-117005789D01*
X159572575Y-116996723D01*
X159583467Y-116990717D01*
X159600912Y-116956230D01*
X159614703Y-116915634D01*
X160177668Y-116915634D01*
X160598832Y-117344751D01*
X160707800Y-117455431D01*
X160807214Y-117555749D01*
X160893210Y-117641855D01*
X160961922Y-117709902D01*
X161009485Y-117756044D01*
X161032034Y-117776432D01*
X161033136Y-117777070D01*
X161041311Y-117759344D01*
X161050779Y-117709593D01*
X161056458Y-117663856D01*
X161538579Y-117663856D01*
X161549162Y-117674439D01*
X161559746Y-117663856D01*
X161549162Y-117653272D01*
X161538579Y-117663856D01*
X161056458Y-117663856D01*
X161059667Y-117638009D01*
X161060759Y-117626814D01*
X161074531Y-117483283D01*
X161086498Y-117365407D01*
X161098464Y-117256665D01*
X161112233Y-117140531D01*
X161120813Y-117071189D01*
X161729079Y-117071189D01*
X161739662Y-117081772D01*
X161750246Y-117071189D01*
X161739662Y-117060606D01*
X161729079Y-117071189D01*
X161120813Y-117071189D01*
X161121831Y-117062962D01*
X161638237Y-117062962D01*
X161699533Y-117048367D01*
X161748646Y-117035213D01*
X161823712Y-117013469D01*
X161910327Y-116987331D01*
X161930162Y-116981202D01*
X162165386Y-116893705D01*
X162373456Y-116783467D01*
X162566569Y-116643354D01*
X162679007Y-116543236D01*
X162741688Y-116480331D01*
X162806855Y-116409363D01*
X162868648Y-116337486D01*
X162921203Y-116271856D01*
X162958658Y-116219627D01*
X162975150Y-116187955D01*
X162974504Y-116182585D01*
X162952778Y-116185515D01*
X162896585Y-116197788D01*
X162812370Y-116217865D01*
X162706576Y-116244208D01*
X162585648Y-116275277D01*
X162579345Y-116276921D01*
X162434782Y-116314389D01*
X162283155Y-116353256D01*
X162137493Y-116390211D01*
X162010828Y-116421943D01*
X161941886Y-116438922D01*
X161692412Y-116499689D01*
X161678953Y-116669022D01*
X161670427Y-116768382D01*
X161660817Y-116868496D01*
X161652152Y-116948282D01*
X161651866Y-116950659D01*
X161638237Y-117062962D01*
X161121831Y-117062962D01*
X161126052Y-117028856D01*
X161129988Y-116997106D01*
X161157579Y-116997106D01*
X161165324Y-117014528D01*
X161171690Y-117011217D01*
X161174223Y-116986097D01*
X161171690Y-116982994D01*
X161159107Y-116985900D01*
X161157579Y-116997106D01*
X161129988Y-116997106D01*
X161139882Y-116917288D01*
X161151114Y-116823404D01*
X161153012Y-116806606D01*
X161178746Y-116806606D01*
X161186490Y-116824028D01*
X161192857Y-116820717D01*
X161195390Y-116795597D01*
X161192857Y-116792494D01*
X161180273Y-116795400D01*
X161178746Y-116806606D01*
X161153012Y-116806606D01*
X161161238Y-116733817D01*
X161171745Y-116635139D01*
X161184125Y-116513983D01*
X161190992Y-116445693D01*
X161195026Y-116381195D01*
X161191262Y-116322696D01*
X161176931Y-116262983D01*
X161149260Y-116194842D01*
X161142648Y-116182189D01*
X162808579Y-116182189D01*
X162819162Y-116192772D01*
X162829746Y-116182189D01*
X162819162Y-116171606D01*
X162808579Y-116182189D01*
X161142648Y-116182189D01*
X161105479Y-116111061D01*
X161042817Y-116004424D01*
X161021990Y-115970522D01*
X161051746Y-115970522D01*
X161062329Y-115981106D01*
X161072912Y-115970522D01*
X161686746Y-115970522D01*
X161697329Y-115981106D01*
X161707912Y-115970522D01*
X161697329Y-115959939D01*
X161686746Y-115970522D01*
X161072912Y-115970522D01*
X161062329Y-115959939D01*
X161051746Y-115970522D01*
X161021990Y-115970522D01*
X160985915Y-115911800D01*
X160934895Y-115834181D01*
X160872503Y-115746326D01*
X160803449Y-115654055D01*
X160732446Y-115563187D01*
X160664204Y-115479539D01*
X160603434Y-115408932D01*
X160554848Y-115357183D01*
X160545230Y-115348968D01*
X161242734Y-115348968D01*
X161355532Y-115490412D01*
X161425052Y-115582542D01*
X161499028Y-115688298D01*
X161561483Y-115784837D01*
X161561663Y-115785133D01*
X161604532Y-115854616D01*
X161638355Y-115907711D01*
X161657759Y-115936052D01*
X161660227Y-115938591D01*
X161681166Y-115933606D01*
X161739022Y-115919266D01*
X161829673Y-115896606D01*
X161949000Y-115866660D01*
X162092880Y-115830465D01*
X162209050Y-115801189D01*
X163972746Y-115801189D01*
X163983329Y-115811772D01*
X163993912Y-115801189D01*
X163983329Y-115790606D01*
X163972746Y-115801189D01*
X162209050Y-115801189D01*
X162257192Y-115789056D01*
X162437816Y-115743468D01*
X162591005Y-115704757D01*
X162787969Y-115654430D01*
X162977012Y-115605127D01*
X163153156Y-115558217D01*
X163311421Y-115515069D01*
X163446829Y-115477053D01*
X163554402Y-115445538D01*
X163629160Y-115421895D01*
X163658227Y-115411216D01*
X163872612Y-115303338D01*
X164059428Y-115169797D01*
X164223913Y-115005930D01*
X164293395Y-114912189D01*
X164332579Y-114912189D01*
X164343162Y-114922772D01*
X164353746Y-114912189D01*
X164343162Y-114901606D01*
X164332579Y-114912189D01*
X164293395Y-114912189D01*
X164371307Y-114807075D01*
X164413598Y-114738854D01*
X164473846Y-114633562D01*
X164509584Y-114560386D01*
X164521471Y-114517404D01*
X164510168Y-114502693D01*
X164493393Y-114506301D01*
X164461786Y-114515799D01*
X164392012Y-114534922D01*
X164286947Y-114562928D01*
X164149469Y-114599075D01*
X163982454Y-114642621D01*
X163788779Y-114692822D01*
X163571321Y-114748936D01*
X163332956Y-114810222D01*
X163076562Y-114875937D01*
X162805015Y-114945338D01*
X162521193Y-115017683D01*
X162227972Y-115092230D01*
X161930162Y-115167746D01*
X161788441Y-115203794D01*
X161653781Y-115238337D01*
X161533935Y-115269366D01*
X161436654Y-115294868D01*
X161369689Y-115312833D01*
X161353615Y-115317319D01*
X161242734Y-115348968D01*
X160545230Y-115348968D01*
X160523156Y-115330113D01*
X160513759Y-115328622D01*
X160508618Y-115350859D01*
X160497975Y-115407058D01*
X160483248Y-115489415D01*
X160465855Y-115590128D01*
X160460580Y-115621272D01*
X160438238Y-115747562D01*
X160412034Y-115883310D01*
X160380691Y-116034457D01*
X160342930Y-116206945D01*
X160297471Y-116406713D01*
X160243036Y-116639703D01*
X160224461Y-116718245D01*
X160177668Y-116915634D01*
X159614703Y-116915634D01*
X159625126Y-116884955D01*
X159655014Y-116781699D01*
X159679197Y-116690189D01*
X160183912Y-116690189D01*
X160194496Y-116700772D01*
X160205079Y-116690189D01*
X160194496Y-116679606D01*
X160183912Y-116690189D01*
X159679197Y-116690189D01*
X159689481Y-116651272D01*
X159727432Y-116498481D01*
X159767772Y-116328134D01*
X159809406Y-116145040D01*
X159851238Y-115954007D01*
X159874532Y-115843522D01*
X160374412Y-115843522D01*
X160384996Y-115854106D01*
X160395579Y-115843522D01*
X160384996Y-115832939D01*
X160374412Y-115843522D01*
X159874532Y-115843522D01*
X159892174Y-115759842D01*
X159926634Y-115589522D01*
X160416746Y-115589522D01*
X160427329Y-115600106D01*
X160437912Y-115589522D01*
X160427329Y-115578939D01*
X160416746Y-115589522D01*
X159926634Y-115589522D01*
X159931119Y-115567355D01*
X159966977Y-115381352D01*
X159998654Y-115206643D01*
X160023108Y-115060356D01*
X160032725Y-114996856D01*
X162448746Y-114996856D01*
X162459329Y-115007439D01*
X162469912Y-114996856D01*
X162459329Y-114986272D01*
X162448746Y-114996856D01*
X160032725Y-114996856D01*
X160051961Y-114869856D01*
X160078079Y-114869856D01*
X160088662Y-114880439D01*
X160099246Y-114869856D01*
X160088662Y-114859272D01*
X160078079Y-114869856D01*
X160051961Y-114869856D01*
X160073238Y-114729371D01*
X160084988Y-114640930D01*
X160632763Y-114640930D01*
X160634391Y-114687938D01*
X160635531Y-114694254D01*
X160656578Y-114728429D01*
X160699453Y-114775053D01*
X160752041Y-114823107D01*
X160802226Y-114861570D01*
X160837891Y-114879424D01*
X160839317Y-114879600D01*
X160861032Y-114874617D01*
X160920106Y-114859971D01*
X161012908Y-114836588D01*
X161135807Y-114805393D01*
X161285175Y-114767311D01*
X161298036Y-114764022D01*
X163358912Y-114764022D01*
X163369496Y-114774606D01*
X163380079Y-114764022D01*
X163369496Y-114753439D01*
X163358912Y-114764022D01*
X161298036Y-114764022D01*
X161380795Y-114742856D01*
X161517412Y-114742856D01*
X161527996Y-114753439D01*
X161538579Y-114742856D01*
X161527996Y-114732272D01*
X161517412Y-114742856D01*
X161380795Y-114742856D01*
X161457380Y-114723268D01*
X161546094Y-114700522D01*
X163612912Y-114700522D01*
X163623496Y-114711106D01*
X163634079Y-114700522D01*
X163623496Y-114689939D01*
X163612912Y-114700522D01*
X161546094Y-114700522D01*
X161648794Y-114674190D01*
X161855785Y-114621000D01*
X161875766Y-114615856D01*
X163930412Y-114615856D01*
X163940996Y-114626439D01*
X163951579Y-114615856D01*
X163940996Y-114605272D01*
X163930412Y-114615856D01*
X161875766Y-114615856D01*
X161957980Y-114594689D01*
X164015079Y-114594689D01*
X164025662Y-114605272D01*
X164036246Y-114594689D01*
X164025662Y-114584106D01*
X164015079Y-114594689D01*
X161957980Y-114594689D01*
X162040194Y-114573522D01*
X164099746Y-114573522D01*
X164110329Y-114584106D01*
X164120912Y-114573522D01*
X164110329Y-114562939D01*
X164099746Y-114573522D01*
X162040194Y-114573522D01*
X162045817Y-114572075D01*
X162204377Y-114531189D01*
X164269079Y-114531189D01*
X164279662Y-114541772D01*
X164290246Y-114531189D01*
X164279662Y-114520606D01*
X164269079Y-114531189D01*
X162204377Y-114531189D01*
X162271438Y-114513897D01*
X162368423Y-114488856D01*
X164417246Y-114488856D01*
X164427829Y-114499439D01*
X164438412Y-114488856D01*
X164427829Y-114478272D01*
X164417246Y-114488856D01*
X162368423Y-114488856D01*
X162490961Y-114457217D01*
X162699848Y-114403212D01*
X162893564Y-114353057D01*
X162941254Y-114340689D01*
X163062579Y-114340689D01*
X163073162Y-114351272D01*
X163083746Y-114340689D01*
X163073162Y-114330106D01*
X163062579Y-114340689D01*
X162941254Y-114340689D01*
X163067571Y-114307929D01*
X163217331Y-114269005D01*
X163338308Y-114237460D01*
X163425965Y-114214472D01*
X163464746Y-114204187D01*
X163579490Y-114173691D01*
X163588363Y-114171356D01*
X163718746Y-114171356D01*
X163729329Y-114181939D01*
X163739912Y-114171356D01*
X163729329Y-114160772D01*
X163718746Y-114171356D01*
X163588363Y-114171356D01*
X163716074Y-114137745D01*
X163855325Y-114101381D01*
X163951579Y-114076446D01*
X164177826Y-114017065D01*
X164367996Y-113964494D01*
X164527426Y-113916765D01*
X164661453Y-113871905D01*
X164763113Y-113832690D01*
X164840579Y-113832690D01*
X164851162Y-113843273D01*
X164861746Y-113832690D01*
X164851162Y-113822106D01*
X164840579Y-113832690D01*
X164763113Y-113832690D01*
X164775413Y-113827945D01*
X164874641Y-113782914D01*
X164964475Y-113734842D01*
X165050251Y-113681758D01*
X165086576Y-113657339D01*
X165207976Y-113561957D01*
X165334481Y-113441496D01*
X165452788Y-113309002D01*
X165490567Y-113261190D01*
X165526478Y-113209551D01*
X165570266Y-113140103D01*
X165617115Y-113061389D01*
X165662208Y-112981952D01*
X165700730Y-112910336D01*
X165727863Y-112855086D01*
X165738791Y-112824744D01*
X165738249Y-112821832D01*
X165715921Y-112823845D01*
X165660546Y-112835104D01*
X165579957Y-112853857D01*
X165481988Y-112878353D01*
X165459965Y-112884056D01*
X165366463Y-112908247D01*
X165235047Y-112941993D01*
X165068854Y-112984499D01*
X164871019Y-113034967D01*
X164644676Y-113092603D01*
X164392961Y-113156609D01*
X164119009Y-113226189D01*
X163825956Y-113300548D01*
X163516936Y-113378889D01*
X163195086Y-113460416D01*
X162863539Y-113544332D01*
X162525431Y-113629842D01*
X162183898Y-113716149D01*
X162099496Y-113737467D01*
X161820062Y-113808130D01*
X161579015Y-113869310D01*
X161373656Y-113921731D01*
X161201286Y-113966114D01*
X161059206Y-114003182D01*
X160944718Y-114033656D01*
X160855123Y-114058258D01*
X160787722Y-114077711D01*
X160739818Y-114092737D01*
X160708710Y-114104058D01*
X160691701Y-114112396D01*
X160688174Y-114115122D01*
X160679375Y-114142287D01*
X160669376Y-114201871D01*
X160659075Y-114284013D01*
X160649366Y-114378852D01*
X160641147Y-114476526D01*
X160635314Y-114567172D01*
X160632763Y-114640930D01*
X160084988Y-114640930D01*
X160113229Y-114428360D01*
X160143980Y-114146428D01*
X160159267Y-113959690D01*
X161072912Y-113959690D01*
X161083496Y-113970273D01*
X161094079Y-113959690D01*
X161083496Y-113949106D01*
X161072912Y-113959690D01*
X160159267Y-113959690D01*
X160166198Y-113875023D01*
X161390412Y-113875023D01*
X161400996Y-113885606D01*
X161411579Y-113875023D01*
X161400996Y-113864440D01*
X161390412Y-113875023D01*
X160166198Y-113875023D01*
X160166390Y-113872678D01*
X160168555Y-113832690D01*
X161559746Y-113832690D01*
X161570329Y-113843273D01*
X161580912Y-113832690D01*
X161570329Y-113822106D01*
X161559746Y-113832690D01*
X160168555Y-113832690D01*
X160171420Y-113779773D01*
X160205079Y-113779773D01*
X160212824Y-113797195D01*
X160219190Y-113793884D01*
X160221723Y-113768764D01*
X160219190Y-113765662D01*
X160206607Y-113768567D01*
X160205079Y-113779773D01*
X160171420Y-113779773D01*
X160174285Y-113726856D01*
X160205079Y-113726856D01*
X160215662Y-113737440D01*
X160226246Y-113726856D01*
X160215662Y-113716273D01*
X160205079Y-113726856D01*
X160174285Y-113726856D01*
X160181358Y-113596217D01*
X160181868Y-113578690D01*
X162554579Y-113578690D01*
X162565162Y-113589273D01*
X162575746Y-113578690D01*
X162565162Y-113568106D01*
X162554579Y-113578690D01*
X160181868Y-113578690D01*
X160183712Y-113515190D01*
X160691912Y-113515190D01*
X160702496Y-113525773D01*
X160713079Y-113515190D01*
X160702496Y-113504606D01*
X160691912Y-113515190D01*
X160183712Y-113515190D01*
X160188016Y-113367023D01*
X160226246Y-113367023D01*
X160236829Y-113377606D01*
X160247412Y-113367023D01*
X160236829Y-113356440D01*
X160226246Y-113367023D01*
X160188016Y-113367023D01*
X160189784Y-113306148D01*
X160190200Y-113261190D01*
X160226246Y-113261190D01*
X160236829Y-113271773D01*
X160247412Y-113261190D01*
X160236829Y-113250606D01*
X160226246Y-113261190D01*
X160190200Y-113261190D01*
X160190787Y-113197690D01*
X160226246Y-113197690D01*
X160236829Y-113208273D01*
X160247412Y-113197690D01*
X160236829Y-113187106D01*
X160226246Y-113197690D01*
X160190787Y-113197690D01*
X160192549Y-113007190D01*
X160691912Y-113007190D01*
X160702496Y-113017773D01*
X160713079Y-113007190D01*
X160702496Y-112996606D01*
X160691912Y-113007190D01*
X160192549Y-113007190D01*
X160192420Y-112880190D01*
X160691912Y-112880190D01*
X160702496Y-112890773D01*
X160713079Y-112880190D01*
X160702496Y-112869606D01*
X160691912Y-112880190D01*
X160192420Y-112880190D01*
X160192327Y-112788047D01*
X160192196Y-112774356D01*
X160691912Y-112774356D01*
X160702496Y-112784940D01*
X160713079Y-112774356D01*
X160702496Y-112763773D01*
X160691912Y-112774356D01*
X160192196Y-112774356D01*
X160190774Y-112626190D01*
X160691912Y-112626190D01*
X160702496Y-112636773D01*
X160713079Y-112626190D01*
X160702496Y-112615606D01*
X160691912Y-112626190D01*
X160190774Y-112626190D01*
X160190553Y-112603225D01*
X160186623Y-112444723D01*
X160179931Y-112304539D01*
X160169874Y-112174671D01*
X160155846Y-112047119D01*
X160137244Y-111913880D01*
X160113463Y-111766952D01*
X160102710Y-111705440D01*
X160607246Y-111705440D01*
X160614990Y-111722862D01*
X160621357Y-111719551D01*
X160623890Y-111694431D01*
X160621357Y-111691328D01*
X160608773Y-111694234D01*
X160607246Y-111705440D01*
X160102710Y-111705440D01*
X160087744Y-111619825D01*
X160071688Y-111546690D01*
X160099246Y-111546690D01*
X160109829Y-111557273D01*
X160120412Y-111546690D01*
X160109829Y-111536106D01*
X160099246Y-111546690D01*
X160071688Y-111546690D01*
X160043806Y-111419690D01*
X160078079Y-111419690D01*
X160088662Y-111430273D01*
X160099246Y-111419690D01*
X160088662Y-111409106D01*
X160078079Y-111419690D01*
X160043806Y-111419690D01*
X160006630Y-111250356D01*
X160522579Y-111250356D01*
X160533162Y-111260940D01*
X160543746Y-111250356D01*
X160533162Y-111239773D01*
X160522579Y-111250356D01*
X160006630Y-111250356D01*
X160001983Y-111229190D01*
X160035746Y-111229190D01*
X160046329Y-111239773D01*
X160056912Y-111229190D01*
X160046329Y-111218606D01*
X160035746Y-111229190D01*
X160001983Y-111229190D01*
X159990663Y-111177625D01*
X159987125Y-111165690D01*
X160014579Y-111165690D01*
X160025162Y-111176273D01*
X160035746Y-111165690D01*
X160025162Y-111155106D01*
X160014579Y-111165690D01*
X159987125Y-111165690D01*
X159911842Y-110911690D01*
X160437912Y-110911690D01*
X160448496Y-110922273D01*
X160459079Y-110911690D01*
X160448496Y-110901106D01*
X160437912Y-110911690D01*
X159911842Y-110911690D01*
X159857271Y-110727570D01*
X159768948Y-110488356D01*
X159802912Y-110488356D01*
X159813496Y-110498940D01*
X159824079Y-110488356D01*
X159813496Y-110477773D01*
X159802912Y-110488356D01*
X159768948Y-110488356D01*
X159690842Y-110276815D01*
X159578626Y-110022690D01*
X159612412Y-110022690D01*
X159622996Y-110033273D01*
X159633579Y-110022690D01*
X159622996Y-110012106D01*
X159612412Y-110022690D01*
X159578626Y-110022690D01*
X159494649Y-109832514D01*
X159271963Y-109401824D01*
X159111115Y-109133690D01*
X159146746Y-109133690D01*
X159157329Y-109144273D01*
X159167912Y-109133690D01*
X159157329Y-109123106D01*
X159146746Y-109133690D01*
X159111115Y-109133690D01*
X159026058Y-108991899D01*
X158760205Y-108609894D01*
X158640859Y-108456356D01*
X158589792Y-108392856D01*
X158617579Y-108392856D01*
X158628162Y-108403440D01*
X158638746Y-108392856D01*
X158628162Y-108382273D01*
X158617579Y-108392856D01*
X158589792Y-108392856D01*
X158583576Y-108385127D01*
X158536985Y-108327121D01*
X158506949Y-108289641D01*
X158498898Y-108279508D01*
X158482222Y-108289615D01*
X158444020Y-108328957D01*
X158388307Y-108393014D01*
X158319106Y-108477265D01*
X158285191Y-108519856D01*
X158024350Y-108878196D01*
X157779923Y-109269387D01*
X157555331Y-109685991D01*
X157353997Y-110120569D01*
X157179342Y-110565683D01*
X157034788Y-111013894D01*
X156923755Y-111457763D01*
X156915404Y-111497830D01*
X156860034Y-111823654D01*
X156819953Y-112183028D01*
X156795528Y-112569886D01*
X156787125Y-112978160D01*
X156257497Y-112978160D01*
X156257497Y-112895112D01*
X156258441Y-112795523D01*
X156733747Y-112795523D01*
X156744330Y-112806106D01*
X156754913Y-112795523D01*
X156744330Y-112784940D01*
X156733747Y-112795523D01*
X156258441Y-112795523D01*
X156260530Y-112575295D01*
X156270389Y-112288783D01*
X156288208Y-112026929D01*
X156315122Y-111781089D01*
X156346688Y-111578440D01*
X156373913Y-111578440D01*
X156381658Y-111595862D01*
X156388024Y-111592551D01*
X156390558Y-111567431D01*
X156388024Y-111564328D01*
X156375441Y-111567234D01*
X156373913Y-111578440D01*
X156346688Y-111578440D01*
X156352268Y-111542618D01*
X156355727Y-111525523D01*
X156860747Y-111525523D01*
X156871330Y-111536106D01*
X156881913Y-111525523D01*
X156871330Y-111514940D01*
X156860747Y-111525523D01*
X156355727Y-111525523D01*
X156400780Y-111302870D01*
X156461793Y-111053201D01*
X156495216Y-110932856D01*
X156522080Y-110932856D01*
X156532663Y-110943440D01*
X156543247Y-110932856D01*
X156532663Y-110922273D01*
X156522080Y-110932856D01*
X156495216Y-110932856D01*
X156533140Y-110796303D01*
X156705547Y-110274038D01*
X156914567Y-109764247D01*
X157157896Y-109271128D01*
X157433232Y-108798881D01*
X157681325Y-108435190D01*
X157707413Y-108435190D01*
X157717997Y-108445773D01*
X157728580Y-108435190D01*
X157717997Y-108424606D01*
X157707413Y-108435190D01*
X157681325Y-108435190D01*
X157738273Y-108351707D01*
X157823405Y-108244690D01*
X159104412Y-108244690D01*
X159114996Y-108255273D01*
X159125579Y-108244690D01*
X159114996Y-108234106D01*
X159104412Y-108244690D01*
X157823405Y-108244690D01*
X158070715Y-107933803D01*
X158095051Y-107906023D01*
X158130747Y-107906023D01*
X158141330Y-107916606D01*
X158151913Y-107906023D01*
X158141330Y-107895440D01*
X158130747Y-107906023D01*
X158095051Y-107906023D01*
X158155848Y-107836621D01*
X158246413Y-107738931D01*
X158318689Y-107670963D01*
X158379167Y-107628116D01*
X158434338Y-107605790D01*
X158490579Y-107599385D01*
X158552803Y-107607339D01*
G37*
G36*
X158595687Y-110761765D02*
G01*
X158685329Y-110776331D01*
X158880481Y-110837627D01*
X159055504Y-110933535D01*
X159206909Y-111059738D01*
X159331204Y-111211920D01*
X159424900Y-111385767D01*
X159484504Y-111576961D01*
X159506527Y-111781187D01*
X159506579Y-111791718D01*
X159486488Y-111995925D01*
X159428408Y-112187834D01*
X159335627Y-112362799D01*
X159211434Y-112516176D01*
X159059117Y-112643321D01*
X158881964Y-112739589D01*
X158818277Y-112763905D01*
X158675984Y-112798833D01*
X158517221Y-112815088D01*
X158361604Y-112811499D01*
X158266444Y-112796868D01*
X158069945Y-112731835D01*
X157995925Y-112689690D01*
X158046080Y-112689690D01*
X158056663Y-112700273D01*
X158067247Y-112689690D01*
X158056663Y-112679106D01*
X158046080Y-112689690D01*
X157995925Y-112689690D01*
X157894553Y-112631970D01*
X157814811Y-112562690D01*
X159104412Y-112562690D01*
X159114996Y-112573273D01*
X159125579Y-112562690D01*
X159114996Y-112552106D01*
X159104412Y-112562690D01*
X157814811Y-112562690D01*
X157743699Y-112500908D01*
X157620812Y-112342280D01*
X157603978Y-112308690D01*
X157622747Y-112308690D01*
X157633330Y-112319273D01*
X157643913Y-112308690D01*
X158532912Y-112308690D01*
X158543496Y-112319273D01*
X158554079Y-112308690D01*
X158543496Y-112298106D01*
X158532912Y-112308690D01*
X157643913Y-112308690D01*
X157633330Y-112298106D01*
X157622747Y-112308690D01*
X157603978Y-112308690D01*
X157529320Y-112159720D01*
X157499980Y-112054690D01*
X157516913Y-112054690D01*
X157527497Y-112065273D01*
X157538080Y-112054690D01*
X157527497Y-112044106D01*
X157516913Y-112054690D01*
X157499980Y-112054690D01*
X157472653Y-111956863D01*
X157472411Y-111955515D01*
X157463586Y-111843023D01*
X157961413Y-111843023D01*
X157971997Y-111853606D01*
X157981272Y-111844331D01*
X158009810Y-111844331D01*
X158041710Y-111967310D01*
X158105262Y-112078841D01*
X158198570Y-112172086D01*
X158319736Y-112240212D01*
X158337079Y-112246740D01*
X158452492Y-112273364D01*
X158566497Y-112266066D01*
X158620575Y-112252374D01*
X158737173Y-112196446D01*
X158834743Y-112108616D01*
X158907210Y-111997286D01*
X158943765Y-111885356D01*
X158977412Y-111885356D01*
X158987996Y-111895940D01*
X158998579Y-111885356D01*
X158987996Y-111874773D01*
X158977412Y-111885356D01*
X158943765Y-111885356D01*
X158948500Y-111870857D01*
X158955781Y-111788715D01*
X158943000Y-111694856D01*
X158977412Y-111694856D01*
X158987996Y-111705440D01*
X158998579Y-111694856D01*
X158987996Y-111684273D01*
X158977412Y-111694856D01*
X158943000Y-111694856D01*
X158937108Y-111651590D01*
X158900923Y-111567856D01*
X158935079Y-111567856D01*
X158945662Y-111578440D01*
X158956246Y-111567856D01*
X158945662Y-111557273D01*
X158935079Y-111567856D01*
X158900923Y-111567856D01*
X158886327Y-111534083D01*
X158809520Y-111438484D01*
X158712767Y-111367084D01*
X158602152Y-111322173D01*
X158483755Y-111306043D01*
X158363661Y-111320983D01*
X158247949Y-111369286D01*
X158142702Y-111453241D01*
X158122983Y-111475049D01*
X158048550Y-111591365D01*
X158011458Y-111716737D01*
X158009810Y-111844331D01*
X157981272Y-111844331D01*
X157982580Y-111843023D01*
X157971997Y-111832440D01*
X157961413Y-111843023D01*
X157463586Y-111843023D01*
X157458605Y-111779523D01*
X157961413Y-111779523D01*
X157971997Y-111790106D01*
X157982580Y-111779523D01*
X157971997Y-111768940D01*
X157961413Y-111779523D01*
X157458605Y-111779523D01*
X157456819Y-111756756D01*
X157479591Y-111565977D01*
X157537002Y-111386799D01*
X157599103Y-111271523D01*
X158532912Y-111271523D01*
X158543496Y-111282106D01*
X158554079Y-111271523D01*
X158543496Y-111260940D01*
X158532912Y-111271523D01*
X157599103Y-111271523D01*
X157625325Y-111222847D01*
X157740832Y-111077743D01*
X157879796Y-110955111D01*
X158038490Y-110858573D01*
X158213188Y-110791755D01*
X158400163Y-110758277D01*
X158595687Y-110761765D01*
G37*
D11*
%TO.C,U11*%
X111986400Y-93430499D02*
X113053200Y-93430499D01*
X111986400Y-92541499D02*
X113053200Y-92541499D01*
X111986400Y-88858499D02*
X113053200Y-88858499D01*
X111986400Y-87969499D02*
X113053200Y-87969499D01*
X111503800Y-94192499D02*
X111503800Y-91271499D01*
X111503800Y-91271499D02*
X112519800Y-91271499D01*
X112519800Y-91271499D02*
X112519800Y-90128499D01*
X112519800Y-90128499D02*
X111503800Y-90128499D01*
X111503800Y-90128499D02*
X111503800Y-87207499D01*
X111503800Y-87207499D02*
X105026800Y-87207499D01*
X105026800Y-87207499D02*
X105026800Y-87585959D01*
X105026800Y-94192499D02*
X111503800Y-94192499D01*
X105026800Y-93814039D02*
X105026800Y-94192499D01*
%TO.C,U3*%
X111986400Y-100930499D02*
X113053200Y-100930499D01*
X111986400Y-100041499D02*
X113053200Y-100041499D01*
X111986400Y-96358499D02*
X113053200Y-96358499D01*
X111986400Y-95469499D02*
X113053200Y-95469499D01*
X111503800Y-101692499D02*
X111503800Y-98771499D01*
X111503800Y-98771499D02*
X112519800Y-98771499D01*
X112519800Y-98771499D02*
X112519800Y-97628499D01*
X112519800Y-97628499D02*
X111503800Y-97628499D01*
X111503800Y-97628499D02*
X111503800Y-94707499D01*
X111503800Y-94707499D02*
X105026800Y-94707499D01*
X105026800Y-94707499D02*
X105026800Y-95085959D01*
X105026800Y-101692499D02*
X111503800Y-101692499D01*
X105026800Y-101314039D02*
X105026800Y-101692499D01*
D13*
%TO.C,IC3*%
X206465000Y-85262000D02*
X206465000Y-88962000D01*
X206465000Y-88962000D02*
X203465000Y-88962000D01*
X203465000Y-88962000D02*
X203465000Y-85262000D01*
X203465000Y-85262000D02*
X206465000Y-85262000D01*
X206515000Y-83437000D02*
X206515000Y-84912000D01*
%TO.C,IC2*%
X190250000Y-107650000D02*
X186550000Y-107650000D01*
X186550000Y-107650000D02*
X186550000Y-104650000D01*
X186550000Y-104650000D02*
X190250000Y-104650000D01*
X190250000Y-104650000D02*
X190250000Y-107650000D01*
X192075000Y-107700000D02*
X190600000Y-107700000D01*
%TO.C,IC1*%
X206465000Y-129163000D02*
X206465000Y-132863000D01*
X206465000Y-132863000D02*
X203465000Y-132863000D01*
X203465000Y-132863000D02*
X203465000Y-129163000D01*
X203465000Y-129163000D02*
X206465000Y-129163000D01*
X206515000Y-127338000D02*
X206515000Y-128813000D01*
D11*
%TO.C,U4*%
X116825499Y-104598999D02*
X115174499Y-104598999D01*
X116825499Y-105637859D02*
X116825499Y-104598999D01*
X115174499Y-105909639D02*
X115174499Y-106590359D01*
X116825499Y-107900999D02*
X116825499Y-106862139D01*
X115174499Y-107900999D02*
X116825499Y-107900999D01*
%TO.C,R_ENT1*%
X135198239Y-120982885D02*
X135198239Y-121405103D01*
X136341239Y-121405103D02*
X136341239Y-120982885D01*
D14*
%TO.C,K4*%
X183650000Y-109540000D02*
X183650000Y-109540000D01*
D10*
X183650000Y-109540000D02*
X190050000Y-109540000D01*
D14*
X183650000Y-114120000D02*
X183650000Y-114120000D01*
X190050000Y-109540000D02*
X190050000Y-109540000D01*
D10*
X190050000Y-114120000D02*
X183650000Y-114120000D01*
D14*
X190050000Y-114120000D02*
X190050000Y-114120000D01*
D13*
X192300000Y-114190000D02*
X192300000Y-114190000D01*
X192300000Y-114290000D02*
X192300000Y-114290000D01*
X192300000Y-114290000D02*
X192300000Y-114290000D01*
X192300000Y-114190000D02*
G75*
G02*
X192300000Y-114290000I0J-50000D01*
G01*
X192300000Y-114190000D02*
G75*
G02*
X192300000Y-114290000I0J-50000D01*
G01*
X192300000Y-114290000D02*
G75*
G02*
X192300000Y-114190000I0J50000D01*
G01*
%TO.C,D3*%
X152648560Y-136949999D02*
X157948560Y-136949999D01*
X157648560Y-134349999D02*
X152648560Y-134349999D01*
%TO.C,J2*%
X95024999Y-93870000D02*
X100224999Y-93870000D01*
X95024999Y-104070000D02*
X95024999Y-93870000D01*
X100224999Y-93870000D02*
X100224999Y-104070000D01*
X100224999Y-104070000D02*
X95024999Y-104070000D01*
X100724999Y-96370000D02*
X101724999Y-96370000D01*
X100724999Y-101470000D02*
X101724999Y-101470000D01*
X101224999Y-95870000D02*
X101224999Y-96870000D01*
D11*
%TO.C,R23*%
X116188895Y-134297970D02*
X116611113Y-134297970D01*
X116611113Y-133154970D02*
X116188895Y-133154970D01*
%TO.C,R17*%
X110438895Y-127997971D02*
X110861113Y-127997971D01*
X110861113Y-126854971D02*
X110438895Y-126854971D01*
%TO.C,R1*%
X116228499Y-81538890D02*
X116228499Y-81961108D01*
X117371499Y-81961108D02*
X117371499Y-81538890D01*
%TO.C,R_PG1*%
X139258631Y-116965495D02*
X139680849Y-116965495D01*
X139680849Y-115822495D02*
X139258631Y-115822495D01*
D15*
%TO.C,D2*%
X117249999Y-101849999D02*
X117249999Y-104649999D01*
X119149999Y-104649999D02*
X119149999Y-101849999D01*
D13*
X119299999Y-101149999D02*
G75*
G02*
X119099999Y-101149999I-100000J0D01*
G01*
X119099999Y-101149999D02*
G75*
G02*
X119299999Y-101149999I100000J0D01*
G01*
D11*
%TO.C,R19*%
X116943391Y-128884634D02*
X117365609Y-128884634D01*
X117365609Y-127741634D02*
X116943391Y-127741634D01*
D13*
%TO.C,R8*%
X110824998Y-102974999D02*
X110424998Y-102974999D01*
X110824998Y-104224999D02*
X110424998Y-104224999D01*
X113124998Y-103499999D02*
X113124998Y-103499999D01*
X113124998Y-103699999D02*
X113124998Y-103699999D01*
X113124998Y-103499999D02*
G75*
G02*
X113124998Y-103699999I0J-100000D01*
G01*
X113124998Y-103699999D02*
G75*
G02*
X113124998Y-103499999I0J100000D01*
G01*
D11*
%TO.C,R_FBB1*%
X134198240Y-115432886D02*
X134198240Y-115855104D01*
X135341240Y-115855104D02*
X135341240Y-115432886D01*
D13*
%TO.C,CR4*%
X196426530Y-131402360D02*
X196426530Y-133152360D01*
X196426530Y-133152360D02*
X197726530Y-133152360D01*
X197726530Y-131402360D02*
X196426530Y-131402360D01*
%TO.C,J3*%
X94000000Y-89700000D02*
X94000000Y-88700000D01*
X94500000Y-84100000D02*
X93500000Y-84100000D01*
X94500000Y-89200000D02*
X93500000Y-89200000D01*
X95000000Y-81500000D02*
X100200000Y-81500000D01*
X95000000Y-91700000D02*
X95000000Y-81500000D01*
X100200000Y-81500000D02*
X100200000Y-91700000D01*
X100200000Y-91700000D02*
X95000000Y-91700000D01*
D10*
%TO.C,R25*%
X163555750Y-103250000D02*
X163555750Y-102650000D01*
X170055750Y-103250000D02*
X170055750Y-102650000D01*
D11*
%TO.C,R5*%
X115728498Y-102438890D02*
X115728498Y-102861108D01*
X116871498Y-102861108D02*
X116871498Y-102438890D01*
%TO.C,R2*%
X112188890Y-83371499D02*
X112611108Y-83371499D01*
X112611108Y-82228499D02*
X112188890Y-82228499D01*
D13*
%TO.C,D8*%
X185640000Y-90660000D02*
X190940000Y-90660000D01*
X190640000Y-88060000D02*
X185640000Y-88060000D01*
D16*
%TO.C,TP2*%
X123250001Y-129976471D02*
X125650001Y-129976471D01*
X123250001Y-132376471D02*
X123250001Y-129976471D01*
X125650001Y-129976471D02*
X125650001Y-132376471D01*
X125650001Y-132376471D02*
X123250001Y-132376471D01*
D11*
%TO.C,R_FF1*%
X133398240Y-112654386D02*
X133398240Y-113076604D01*
X134541240Y-113076604D02*
X134541240Y-112654386D01*
%TO.C,U7*%
X176480199Y-129528500D02*
X176480199Y-130671500D01*
X176480199Y-130671500D02*
X177496199Y-130671500D01*
X177013599Y-127369500D02*
X175921399Y-127369500D01*
X177013599Y-128258500D02*
X175921399Y-128258500D01*
X177013599Y-131941500D02*
X175921399Y-131941500D01*
X177013599Y-132830500D02*
X175921399Y-132830500D01*
X177496199Y-126607500D02*
X177496199Y-129528500D01*
X177496199Y-129528500D02*
X176480199Y-129528500D01*
X177496199Y-130671500D02*
X177496199Y-133592500D01*
X177496199Y-133592500D02*
X183973199Y-133592500D01*
X183973199Y-126607500D02*
X177496199Y-126607500D01*
X183973199Y-127011360D02*
X183973199Y-126607500D01*
X183973199Y-133592500D02*
X183973199Y-133188640D01*
D10*
%TO.C,R31*%
X164750000Y-89860000D02*
X164750000Y-89260000D01*
X171250000Y-89860000D02*
X171250000Y-89260000D01*
D16*
%TO.C,TP3*%
X172600000Y-134850000D02*
X175000000Y-134850000D01*
X172600000Y-137250000D02*
X172600000Y-134850000D01*
X175000000Y-134850000D02*
X175000000Y-137250000D01*
X175000000Y-137250000D02*
X172600000Y-137250000D01*
D11*
%TO.C,CR11*%
X165771300Y-97899900D02*
X165771300Y-98164060D01*
X165771300Y-99235940D02*
X165771300Y-99500100D01*
X165771300Y-99500100D02*
X167828700Y-99500100D01*
X167828700Y-97899900D02*
X165771300Y-97899900D01*
X167828700Y-98164060D02*
X167828700Y-97899900D01*
X167828700Y-99500100D02*
X167828700Y-99235940D01*
D16*
%TO.C,JP2*%
X183699999Y-136300001D02*
X183699999Y-134900001D01*
X184399999Y-134200001D02*
X184999999Y-134200001D01*
X184999999Y-137000001D02*
X184399999Y-137000001D01*
X185699999Y-134900001D02*
X185699999Y-136300001D01*
X183699999Y-134900001D02*
G75*
G02*
X184399999Y-134200001I699999J1D01*
G01*
X184399999Y-137000001D02*
G75*
G02*
X183699999Y-136300001I0J700000D01*
G01*
X184999999Y-134200001D02*
G75*
G02*
X185699999Y-134900001I1J-699999D01*
G01*
X185699999Y-136300001D02*
G75*
G02*
X184999999Y-137000001I-700000J0D01*
G01*
D11*
%TO.C,R_RT1*%
X135798241Y-118182886D02*
X135798241Y-118605104D01*
X136941241Y-118605104D02*
X136941241Y-118182886D01*
%TO.C,L2*%
X94072200Y-121472200D02*
X94072200Y-134527800D01*
X94072200Y-134527800D02*
X97653119Y-134527800D01*
X97653119Y-121472200D02*
X94072200Y-121472200D01*
X103546881Y-134527800D02*
X107127800Y-134527800D01*
X107127800Y-121472200D02*
X103546881Y-121472200D01*
X107127800Y-134527800D02*
X107127800Y-121472200D01*
D13*
%TO.C,F6*%
X196665000Y-83300000D02*
X198065000Y-83300000D01*
%TO.C,D6*%
X175050000Y-115524999D02*
X180350000Y-115524999D01*
X180050000Y-112924999D02*
X175050000Y-112924999D01*
%TO.C,R9*%
X171975000Y-125400000D02*
X171975000Y-125400000D01*
X171975000Y-125600000D02*
X171975000Y-125600000D01*
X174275000Y-124875000D02*
X174675000Y-124875000D01*
X174275000Y-126125000D02*
X174675000Y-126125000D01*
X171975000Y-125400000D02*
G75*
G02*
X171975000Y-125600000I0J-100000D01*
G01*
X171975000Y-125600000D02*
G75*
G02*
X171975000Y-125400000I0J100000D01*
G01*
D11*
%TO.C,U2*%
X115774499Y-85459639D02*
X115774499Y-86140359D01*
X115774499Y-87450999D02*
X117425499Y-87450999D01*
X117425499Y-84148999D02*
X115774499Y-84148999D01*
X117425499Y-85187859D02*
X117425499Y-84148999D01*
X117425499Y-87450999D02*
X117425499Y-86412139D01*
X115406199Y-83005999D02*
G75*
G02*
X115152199Y-83005999I-127000J0D01*
G01*
X115152199Y-83005999D02*
G75*
G02*
X115406199Y-83005999I127000J0D01*
G01*
D13*
%TO.C,C1*%
X96100001Y-109169998D02*
X96100001Y-107769998D01*
D16*
%TO.C,JP5*%
X182415000Y-84000000D02*
X182415000Y-82600000D01*
X183115000Y-81900000D02*
X183715000Y-81900000D01*
X183715000Y-84700000D02*
X183115000Y-84700000D01*
X184415000Y-82600000D02*
X184415000Y-84000000D01*
X182415000Y-82600000D02*
G75*
G02*
X183115000Y-81900000I700000J0D01*
G01*
X183115000Y-84700000D02*
G75*
G02*
X182415000Y-84000000I-1J699999D01*
G01*
X183715000Y-81900000D02*
G75*
G02*
X184415000Y-82600000I0J-700000D01*
G01*
X184415000Y-84000000D02*
G75*
G02*
X183715000Y-84700000I-699999J-1D01*
G01*
D13*
%TO.C,C3*%
X113950002Y-111700000D02*
X115350002Y-111700000D01*
D15*
%TO.C,D1*%
X117849999Y-81299999D02*
X117849999Y-84099999D01*
X119749999Y-84099999D02*
X119749999Y-81299999D01*
D13*
X119899999Y-80599999D02*
G75*
G02*
X119699999Y-80599999I-100000J0D01*
G01*
X119699999Y-80599999D02*
G75*
G02*
X119899999Y-80599999I100000J0D01*
G01*
%TO.C,R34*%
X174475000Y-83200000D02*
X174475000Y-83200000D01*
X174475000Y-83400000D02*
X174475000Y-83400000D01*
X176775000Y-82675000D02*
X177175000Y-82675000D01*
X176775000Y-83925000D02*
X177175000Y-83925000D01*
X174475000Y-83200000D02*
G75*
G02*
X174475000Y-83400000I0J-100000D01*
G01*
X174475000Y-83400000D02*
G75*
G02*
X174475000Y-83200000I0J100000D01*
G01*
D10*
%TO.C,R24*%
X163550000Y-107400000D02*
X163550000Y-108000000D01*
X170050000Y-107400000D02*
X170050000Y-108000000D01*
D13*
%TO.C,R32*%
X192800000Y-84700000D02*
X192800000Y-84300000D01*
X193325000Y-87000000D02*
X193325000Y-87000000D01*
X193525000Y-87000000D02*
X193525000Y-87000000D01*
X194050000Y-84700000D02*
X194050000Y-84300000D01*
X193325000Y-87000000D02*
G75*
G02*
X193525000Y-87000000I100000J0D01*
G01*
X193525000Y-87000000D02*
G75*
G02*
X193325000Y-87000000I-100000J0D01*
G01*
%TO.C,C_IN1*%
X134369739Y-124393995D02*
X134369739Y-122993995D01*
%TO.C,F3*%
X169650002Y-114750000D02*
X169650002Y-113350000D01*
D17*
%TO.C,R12*%
X158800000Y-130510000D02*
X158800000Y-129910000D01*
X165300000Y-130510000D02*
X165300000Y-129910000D01*
D11*
%TO.C,R_RT2*%
X134098239Y-118182887D02*
X134098239Y-118605105D01*
X135241239Y-118605105D02*
X135241239Y-118182887D01*
D17*
%TO.C,R14*%
X165900000Y-130510000D02*
X165900000Y-129910000D01*
X172400000Y-130510000D02*
X172400000Y-129910000D01*
D13*
%TO.C,K1*%
X120999998Y-91699999D02*
X120999998Y-91699999D01*
X120999998Y-91699999D02*
X120999998Y-91699999D01*
X121099998Y-91699999D02*
X121099998Y-91699999D01*
D10*
X122049998Y-81499999D02*
X122049998Y-94199999D01*
X122049998Y-94199999D02*
X150999998Y-94199999D01*
X150999998Y-81499999D02*
X122049998Y-81499999D01*
X150999998Y-94199999D02*
X150999998Y-81499999D01*
D13*
X120999998Y-91699999D02*
G75*
G02*
X121099998Y-91699999I50000J0D01*
G01*
X121099998Y-91699999D02*
G75*
G02*
X120999998Y-91699999I-50000J0D01*
G01*
X121099998Y-91699999D02*
G75*
G02*
X120999998Y-91699999I-50000J0D01*
G01*
D16*
%TO.C,JP1*%
X199990001Y-135924998D02*
X199990001Y-134524998D01*
X200690001Y-133824998D02*
X201290001Y-133824998D01*
X201290001Y-136624998D02*
X200690001Y-136624998D01*
X201990001Y-134524998D02*
X201990001Y-135924998D01*
X199990001Y-134524998D02*
G75*
G02*
X200690001Y-133824998I699999J1D01*
G01*
X200690001Y-136624998D02*
G75*
G02*
X199990001Y-135924998I0J700000D01*
G01*
X201290001Y-133824998D02*
G75*
G02*
X201990001Y-134524998I1J-699999D01*
G01*
X201990001Y-135924998D02*
G75*
G02*
X201290001Y-136624998I-700000J0D01*
G01*
D10*
%TO.C,L_SW1*%
X135669740Y-128943996D02*
X135669740Y-135643996D01*
X135669740Y-135643996D02*
X135969740Y-135643996D01*
X136469740Y-128943996D02*
X135669740Y-128943996D01*
X136469740Y-135643996D02*
X135969740Y-135643996D01*
X141469740Y-128943996D02*
X142269740Y-128943996D01*
X142269740Y-128943996D02*
X142269740Y-135643996D01*
X142269740Y-135643996D02*
X141469740Y-135643996D01*
D13*
%TO.C,D7*%
X175050000Y-118900000D02*
X180350000Y-118900000D01*
X180050000Y-116300000D02*
X175050000Y-116300000D01*
D11*
%TO.C,R_FBB2*%
X135798239Y-115432886D02*
X135798239Y-115855104D01*
X136941239Y-115855104D02*
X136941239Y-115432886D01*
D13*
%TO.C,CR9*%
X186765000Y-87525000D02*
X188065000Y-87525000D01*
X188065000Y-85775000D02*
X186765000Y-85775000D01*
X188065000Y-87525000D02*
X188065000Y-85775000D01*
%TO.C,K5*%
X186900000Y-103100000D02*
X186900000Y-103100000D01*
X186900000Y-103100000D02*
X186900000Y-103100000D01*
X187000000Y-103100000D02*
X187000000Y-103100000D01*
D14*
X187070000Y-94450000D02*
X187070000Y-94450000D01*
D10*
X187070000Y-100850000D02*
X187070000Y-94450000D01*
D14*
X187070000Y-100850000D02*
X187070000Y-100850000D01*
X191650000Y-94450000D02*
X191650000Y-94450000D01*
D10*
X191650000Y-94450000D02*
X191650000Y-100850000D01*
D14*
X191650000Y-100850000D02*
X191650000Y-100850000D01*
D13*
X186900000Y-103100000D02*
G75*
G02*
X187000000Y-103100000I50000J0D01*
G01*
X187000000Y-103100000D02*
G75*
G02*
X186900000Y-103100000I-50000J0D01*
G01*
X187000000Y-103100000D02*
G75*
G02*
X186900000Y-103100000I-50000J0D01*
G01*
%TO.C,R27*%
X172750002Y-121700000D02*
X172750002Y-121700000D01*
X172750002Y-121900000D02*
X172750002Y-121900000D01*
X175050002Y-121175000D02*
X175450002Y-121175000D01*
X175050002Y-122425000D02*
X175450002Y-122425000D01*
X172750002Y-121700000D02*
G75*
G02*
X172750002Y-121900000I0J-100000D01*
G01*
X172750002Y-121900000D02*
G75*
G02*
X172750002Y-121700000I0J100000D01*
G01*
D11*
%TO.C,U9*%
X175395500Y-88428500D02*
X175395500Y-89571500D01*
X175395500Y-89571500D02*
X176411500Y-89571500D01*
X175928900Y-86269500D02*
X174836700Y-86269500D01*
X175928900Y-87158500D02*
X174836700Y-87158500D01*
X175928900Y-90841500D02*
X174836700Y-90841500D01*
X175928900Y-91730500D02*
X174836700Y-91730500D01*
X176411500Y-85507500D02*
X176411500Y-88428500D01*
X176411500Y-88428500D02*
X175395500Y-88428500D01*
X176411500Y-89571500D02*
X176411500Y-92492500D01*
X176411500Y-92492500D02*
X182888500Y-92492500D01*
X182888500Y-85507500D02*
X176411500Y-85507500D01*
X182888500Y-85911360D02*
X182888500Y-85507500D01*
X182888500Y-92492500D02*
X182888500Y-92088640D01*
D16*
%TO.C,JP4*%
X168250002Y-120699998D02*
X168250002Y-120099998D01*
X168950002Y-119399998D02*
X170350002Y-119399998D01*
X170350002Y-121399998D02*
X168950002Y-121399998D01*
X171050002Y-120099998D02*
X171050002Y-120699998D01*
X168250002Y-120099998D02*
G75*
G02*
X168950002Y-119399998I700000J0D01*
G01*
X168950002Y-121399998D02*
G75*
G02*
X168250002Y-120699998I0J700000D01*
G01*
X170350002Y-119399998D02*
G75*
G02*
X171050002Y-120099998I1J-699999D01*
G01*
X171050002Y-120699998D02*
G75*
G02*
X170350002Y-121399998I-699999J-1D01*
G01*
D11*
%TO.C,R_BIAS1*%
X141298239Y-119082888D02*
X141298239Y-119505106D01*
X142441239Y-119505106D02*
X142441239Y-119082888D01*
D17*
%TO.C,R13*%
X162350000Y-134600000D02*
X162350000Y-135200000D01*
X168850000Y-134600000D02*
X168850000Y-135200000D01*
D13*
%TO.C,CR6*%
X188049999Y-133125003D02*
X189349999Y-133125003D01*
X189349999Y-131375003D02*
X188049999Y-131375003D01*
X189349999Y-133125003D02*
X189349999Y-131375003D01*
%TO.C,C_IN-BLK1*%
X146613489Y-117537744D02*
X146613489Y-120687744D01*
X146613489Y-117537744D02*
X147263489Y-117537744D01*
X146613489Y-120687744D02*
X146613489Y-117537744D01*
X147263489Y-117537744D02*
X146613489Y-117537744D01*
D18*
X148763489Y-123262744D02*
X148763489Y-123262744D01*
X148763489Y-123312744D02*
X148763489Y-123312744D01*
D13*
X150913489Y-117537744D02*
X150263489Y-117537744D01*
X150913489Y-120687744D02*
X150913489Y-117537744D01*
D18*
X148763489Y-123262744D02*
G75*
G02*
X148763489Y-123312744I0J-25000D01*
G01*
X148763489Y-123312744D02*
G75*
G02*
X148763489Y-123262744I0J25000D01*
G01*
D11*
%TO.C,R20*%
X119628180Y-128878398D02*
X120050398Y-128878398D01*
X120050398Y-127735398D02*
X119628180Y-127735398D01*
D13*
%TO.C,CR8*%
X172225002Y-118650000D02*
X172225002Y-119950000D01*
X172225002Y-119950000D02*
X173975002Y-119950000D01*
X173975002Y-119950000D02*
X173975002Y-118650000D01*
D11*
%TO.C,U6*%
X111223601Y-129254771D02*
X111440260Y-129254771D01*
X111223601Y-130941331D02*
X111223601Y-129254771D01*
X111223601Y-133598171D02*
X111223601Y-131911611D01*
X111440260Y-133598171D02*
X111223601Y-133598171D01*
X114359742Y-129254771D02*
X114576401Y-129254771D01*
X114576401Y-129254771D02*
X114576401Y-130441332D01*
X114576401Y-132411610D02*
X114576401Y-133598171D01*
X114576401Y-133598171D02*
X114359742Y-133598171D01*
D13*
%TO.C,C4*%
X107050000Y-111700000D02*
X108450000Y-111700000D01*
%TO.C,CR7*%
X172225002Y-111900000D02*
X172225002Y-113200000D01*
X173975002Y-111900000D02*
X172225002Y-111900000D01*
X173975002Y-113200000D02*
X173975002Y-111900000D01*
D14*
%TO.C,K3*%
X187070000Y-117925000D02*
X187070000Y-117925000D01*
D10*
X187070000Y-124325000D02*
X187070000Y-117925000D01*
D14*
X187070000Y-124325000D02*
X187070000Y-124325000D01*
X191650000Y-117925000D02*
X191650000Y-117925000D01*
D10*
X191650000Y-117925000D02*
X191650000Y-124325000D01*
D14*
X191650000Y-124325000D02*
X191650000Y-124325000D01*
D13*
X191720000Y-115675000D02*
X191720000Y-115675000D01*
X191820000Y-115675000D02*
X191820000Y-115675000D01*
X191820000Y-115675000D02*
X191820000Y-115675000D01*
X191720000Y-115675000D02*
G75*
G02*
X191820000Y-115675000I50000J0D01*
G01*
X191720000Y-115675000D02*
G75*
G02*
X191820000Y-115675000I50000J0D01*
G01*
X191820000Y-115675000D02*
G75*
G02*
X191720000Y-115675000I-50000J0D01*
G01*
D17*
%TO.C,R29*%
X169450000Y-94000000D02*
X169450000Y-94600000D01*
X175950000Y-94000000D02*
X175950000Y-94600000D01*
D11*
%TO.C,R7*%
X118388890Y-108271499D02*
X118811108Y-108271499D01*
X118811108Y-107128499D02*
X118388890Y-107128499D01*
D13*
%TO.C,C_OUT5*%
X153488489Y-124887744D02*
X147263489Y-124887744D01*
X156713489Y-133187744D02*
X147263489Y-133187744D01*
%TO.C,R15*%
X190575000Y-134224999D02*
X190575000Y-134624999D01*
X191100000Y-131924999D02*
X191100000Y-131924999D01*
X191300000Y-131924999D02*
X191300000Y-131924999D01*
X191825000Y-134224999D02*
X191825000Y-134624999D01*
X191100000Y-131924999D02*
G75*
G02*
X191300000Y-131924999I100000J0D01*
G01*
X191300000Y-131924999D02*
G75*
G02*
X191100000Y-131924999I-100000J0D01*
G01*
%TO.C,F1*%
X199249999Y-135650002D02*
X197849999Y-135650002D01*
%TO.C,R4*%
X110774998Y-84674999D02*
X110374998Y-84674999D01*
X110774998Y-85924999D02*
X110374998Y-85924999D01*
X113074998Y-85199999D02*
X113074998Y-85199999D01*
X113074998Y-85399999D02*
X113074998Y-85399999D01*
X113074998Y-85199999D02*
G75*
G02*
X113074998Y-85399999I0J-100000D01*
G01*
X113074998Y-85399999D02*
G75*
G02*
X113074998Y-85199999I0J100000D01*
G01*
D16*
%TO.C,TP1*%
X141248559Y-114399999D02*
X143648559Y-114399999D01*
X141248559Y-116799999D02*
X141248559Y-114399999D01*
X143648559Y-114399999D02*
X143648559Y-116799999D01*
X143648559Y-116799999D02*
X141248559Y-116799999D01*
D13*
%TO.C,C_IN2*%
X145169739Y-125993996D02*
X143769739Y-125993996D01*
D11*
%TO.C,U8*%
X174101250Y-102778500D02*
X174101250Y-103921500D01*
X174101250Y-103921500D02*
X175117250Y-103921500D01*
X174634650Y-100619500D02*
X173542450Y-100619500D01*
X174634650Y-101508500D02*
X173542450Y-101508500D01*
X174634650Y-105191500D02*
X173542450Y-105191500D01*
X174634650Y-106080500D02*
X173542450Y-106080500D01*
X175117250Y-99857500D02*
X175117250Y-102778500D01*
X175117250Y-102778500D02*
X174101250Y-102778500D01*
X175117250Y-103921500D02*
X175117250Y-106842500D01*
X175117250Y-106842500D02*
X181594250Y-106842500D01*
X181594250Y-99857500D02*
X175117250Y-99857500D01*
X181594250Y-100261360D02*
X181594250Y-99857500D01*
X181594250Y-106842500D02*
X181594250Y-106438640D01*
D13*
%TO.C,R28*%
X189245000Y-84700000D02*
X189245000Y-84300000D01*
X189770000Y-87000000D02*
X189770000Y-87000000D01*
X189970000Y-87000000D02*
X189970000Y-87000000D01*
X190495000Y-84700000D02*
X190495000Y-84300000D01*
X189770000Y-87000000D02*
G75*
G02*
X189970000Y-87000000I100000J0D01*
G01*
X189970000Y-87000000D02*
G75*
G02*
X189770000Y-87000000I-100000J0D01*
G01*
D11*
%TO.C,R_ENB1*%
X133598238Y-120982886D02*
X133598238Y-121405104D01*
X134741238Y-121405104D02*
X134741238Y-120982886D01*
D13*
%TO.C,D5*%
X186889999Y-130024999D02*
X192189999Y-130024999D01*
X191889999Y-127424999D02*
X186889999Y-127424999D01*
%TO.C,R18*%
X172745000Y-109920000D02*
X172745000Y-109920000D01*
X172745000Y-110120000D02*
X172745000Y-110120000D01*
X175045000Y-109395000D02*
X175445000Y-109395000D01*
X175045000Y-110645000D02*
X175445000Y-110645000D01*
X172745000Y-109920000D02*
G75*
G02*
X172745000Y-110120000I0J-100000D01*
G01*
X172745000Y-110120000D02*
G75*
G02*
X172745000Y-109920000I0J100000D01*
G01*
D10*
%TO.C,L1*%
X95050000Y-109850000D02*
X95050000Y-112280000D01*
X95050000Y-109850000D02*
X105550000Y-109850000D01*
X95050000Y-119850000D02*
X95050000Y-117420000D01*
X95050000Y-119850000D02*
X105550000Y-119850000D01*
X105550000Y-109850000D02*
X105550000Y-112280000D01*
X105550000Y-119850000D02*
X105550000Y-117420000D01*
D11*
%TO.C,R_BT1*%
X142398240Y-122057886D02*
X142398240Y-122480104D01*
X143541240Y-122480104D02*
X143541240Y-122057886D01*
D13*
%TO.C,F2*%
X187899999Y-135600001D02*
X186499999Y-135600001D01*
D11*
%TO.C,CR2*%
X101476000Y-101731400D02*
X101476000Y-107268600D01*
X101476000Y-107268600D02*
X101841760Y-107268600D01*
X101841760Y-101731400D02*
X101476000Y-101731400D01*
X102177000Y-99938000D02*
X101542000Y-100700000D01*
X102177000Y-99938000D02*
X101669000Y-100700000D01*
X102177000Y-99938000D02*
X101796000Y-100700000D01*
X102177000Y-99938000D02*
X101923000Y-100700000D01*
X102177000Y-99938000D02*
X102050000Y-100700000D01*
X102177000Y-99938000D02*
X102304000Y-100700000D01*
X102177000Y-99938000D02*
X102431000Y-100700000D01*
X102177000Y-99938000D02*
X102558000Y-100700000D01*
X102177000Y-99938000D02*
X102685000Y-100700000D01*
X102177000Y-99938000D02*
X102812000Y-100700000D01*
X102177000Y-100954000D02*
X102177000Y-99684000D01*
X102812000Y-99938000D02*
X101542000Y-99938000D01*
X102812000Y-100700000D02*
X101542000Y-100700000D01*
X104158240Y-107268600D02*
X104524000Y-107268600D01*
X104524000Y-101731400D02*
X104158240Y-101731400D01*
X104524000Y-107268600D02*
X104524000Y-101731400D01*
%TO.C,U1*%
X137783799Y-125365695D02*
X137539339Y-125365695D01*
X141400139Y-125365695D02*
X141155679Y-125365695D01*
G36*
X140787239Y-120496495D02*
G01*
X140406239Y-120496495D01*
X140406239Y-120750495D01*
X140787239Y-120750495D01*
X140787239Y-120496495D01*
G37*
D12*
G36*
X141933338Y-123884494D02*
G01*
X141679338Y-123884494D01*
X141679338Y-123503494D01*
X141933338Y-123503494D01*
X141933338Y-123884494D01*
G37*
D13*
%TO.C,F4*%
X169650002Y-118500000D02*
X169650002Y-117100000D01*
D11*
%TO.C,R21*%
X116188896Y-137497969D02*
X116611114Y-137497969D01*
X116611114Y-136354969D02*
X116188896Y-136354969D01*
D13*
%TO.C,R11*%
X128374999Y-119175000D02*
X127974999Y-119175000D01*
X128374999Y-120425000D02*
X127974999Y-120425000D01*
X130674999Y-119700000D02*
X130674999Y-119700000D01*
X130674999Y-119900000D02*
X130674999Y-119900000D01*
X130674999Y-119700000D02*
G75*
G02*
X130674999Y-119900000I0J-100000D01*
G01*
X130674999Y-119900000D02*
G75*
G02*
X130674999Y-119700000I0J100000D01*
G01*
%TO.C,J4*%
X153225000Y-88200000D02*
X158425000Y-88200000D01*
X153225000Y-98400000D02*
X153225000Y-88200000D01*
X158425000Y-88200000D02*
X158425000Y-98400000D01*
X158425000Y-98400000D02*
X153225000Y-98400000D01*
X158925000Y-90700000D02*
X159925000Y-90700000D01*
X158925000Y-95800000D02*
X159925000Y-95800000D01*
X159425000Y-90200000D02*
X159425000Y-91200000D01*
%TO.C,K2*%
X121000000Y-106500000D02*
X121000000Y-106500000D01*
X121000000Y-106500000D02*
X121000000Y-106500000D01*
X121100000Y-106500000D02*
X121100000Y-106500000D01*
D10*
X122050000Y-96300000D02*
X122050000Y-109000000D01*
X122050000Y-109000000D02*
X151000000Y-109000000D01*
X151000000Y-96300000D02*
X122050000Y-96300000D01*
X151000000Y-109000000D02*
X151000000Y-96300000D01*
D13*
X121000000Y-106500000D02*
G75*
G02*
X121100000Y-106500000I50000J0D01*
G01*
X121100000Y-106500000D02*
G75*
G02*
X121000000Y-106500000I-50000J0D01*
G01*
X121100000Y-106500000D02*
G75*
G02*
X121000000Y-106500000I-50000J0D01*
G01*
D17*
%TO.C,R30*%
X162350000Y-94010000D02*
X162350000Y-94610000D01*
X168850000Y-94010000D02*
X168850000Y-94610000D01*
D13*
%TO.C,D9*%
X192650000Y-90650000D02*
X197650000Y-90650000D01*
X197650000Y-88050000D02*
X192350000Y-88050000D01*
%TO.C,R33*%
X169475000Y-98600000D02*
X169475000Y-98600000D01*
X169475000Y-98800000D02*
X169475000Y-98800000D01*
X171775000Y-98075000D02*
X172175000Y-98075000D01*
X171775000Y-99325000D02*
X172175000Y-99325000D01*
X169475000Y-98600000D02*
G75*
G02*
X169475000Y-98800000I0J-100000D01*
G01*
X169475000Y-98800000D02*
G75*
G02*
X169475000Y-98600000I0J100000D01*
G01*
D16*
%TO.C,JP3*%
X168250002Y-111800000D02*
X168250002Y-111200000D01*
X168950002Y-110500000D02*
X170350002Y-110500000D01*
X170350002Y-112500000D02*
X168950002Y-112500000D01*
X171050002Y-111200000D02*
X171050002Y-111800000D01*
X168250002Y-111200000D02*
G75*
G02*
X168950002Y-110500000I700000J0D01*
G01*
X168950002Y-112500000D02*
G75*
G02*
X168250002Y-111800000I0J700000D01*
G01*
X170350002Y-110500000D02*
G75*
G02*
X171050002Y-111200000I1J-699999D01*
G01*
X171050002Y-111800000D02*
G75*
G02*
X170350002Y-112500000I-699999J-1D01*
G01*
%TO.C,JP6*%
X198865000Y-84000000D02*
X198865000Y-82600000D01*
X199565000Y-81900000D02*
X200165000Y-81900000D01*
X200165000Y-84700000D02*
X199565000Y-84700000D01*
X200865000Y-82600000D02*
X200865000Y-84000000D01*
X198865000Y-82600000D02*
G75*
G02*
X199565000Y-81900000I700000J0D01*
G01*
X199565000Y-84700000D02*
G75*
G02*
X198865000Y-84000000I-1J699999D01*
G01*
X200165000Y-81900000D02*
G75*
G02*
X200865000Y-82600000I0J-700000D01*
G01*
X200865000Y-84000000D02*
G75*
G02*
X200165000Y-84700000I-699999J-1D01*
G01*
D13*
%TO.C,F5*%
X185225000Y-83300000D02*
X186625000Y-83300000D01*
%TO.C,C2*%
X96100001Y-106900000D02*
X96100001Y-105500000D01*
%TO.C,C6*%
X111650000Y-111700000D02*
X113050000Y-111700000D01*
D11*
%TO.C,R6*%
X114128500Y-102438890D02*
X114128500Y-102861108D01*
X115271500Y-102861108D02*
X115271500Y-102438890D01*
%TO.C,CR5*%
X116121300Y-121649900D02*
X116121300Y-121914060D01*
X116121300Y-122985940D02*
X116121300Y-123250100D01*
X116121300Y-123250100D02*
X118178700Y-123250100D01*
X118178700Y-121649900D02*
X116121300Y-121649900D01*
X118178700Y-121914060D02*
X118178700Y-121649900D01*
X118178700Y-123250100D02*
X118178700Y-122985940D01*
D13*
%TO.C,CR10*%
X195225000Y-85775000D02*
X195225000Y-87525000D01*
X195225000Y-87525000D02*
X196525000Y-87525000D01*
X196525000Y-85775000D02*
X195225000Y-85775000D01*
D11*
%TO.C,CR3*%
X168377500Y-124699900D02*
X168377500Y-124964060D01*
X168377500Y-126035940D02*
X168377500Y-126300100D01*
X168377500Y-126300100D02*
X170434900Y-126300100D01*
X170434900Y-124699900D02*
X168377500Y-124699900D01*
X170434900Y-124964060D02*
X170434900Y-124699900D01*
X170434900Y-126300100D02*
X170434900Y-126035940D01*
%TO.C,R3*%
X118228499Y-87888890D02*
X118228499Y-88311108D01*
X119371499Y-88311108D02*
X119371499Y-87888890D01*
%TO.C,CR1*%
X101475999Y-80831399D02*
X101475999Y-86368599D01*
X101475999Y-86368599D02*
X101841759Y-86368599D01*
X101478499Y-87418999D02*
X102748499Y-87418999D01*
X101478499Y-88180999D02*
X102748499Y-88180999D01*
X101841759Y-80831399D02*
X101475999Y-80831399D01*
X102113499Y-87164999D02*
X102113499Y-88434999D01*
X102113499Y-88180999D02*
X101478499Y-87418999D01*
X102113499Y-88180999D02*
X101605499Y-87418999D01*
X102113499Y-88180999D02*
X101732499Y-87418999D01*
X102113499Y-88180999D02*
X101859499Y-87418999D01*
X102113499Y-88180999D02*
X101986499Y-87418999D01*
X102113499Y-88180999D02*
X102240499Y-87418999D01*
X102113499Y-88180999D02*
X102367499Y-87418999D01*
X102113499Y-88180999D02*
X102494499Y-87418999D01*
X102113499Y-88180999D02*
X102621499Y-87418999D01*
X102113499Y-88180999D02*
X102748499Y-87418999D01*
X104158239Y-86368599D02*
X104523999Y-86368599D01*
X104523999Y-80831399D02*
X104158239Y-80831399D01*
X104523999Y-86368599D02*
X104523999Y-80831399D01*
D13*
%TO.C,J5*%
X121000000Y-111725000D02*
X131200000Y-111725000D01*
X121000000Y-116925000D02*
X121000000Y-111725000D01*
X123000000Y-110725000D02*
X124000000Y-110725000D01*
X123500000Y-111225000D02*
X123500000Y-110225000D01*
X128600000Y-111225000D02*
X128600000Y-110225000D01*
X131200000Y-111725000D02*
X131200000Y-116925000D01*
X131200000Y-116925000D02*
X121000000Y-116925000D01*
%TO.C,R10*%
X193975000Y-134225004D02*
X193975000Y-134625004D01*
X194500000Y-131925004D02*
X194500000Y-131925004D01*
X194700000Y-131925004D02*
X194700000Y-131925004D01*
X195225000Y-134225004D02*
X195225000Y-134625004D01*
X194500000Y-131925004D02*
G75*
G02*
X194700000Y-131925004I100000J0D01*
G01*
X194700000Y-131925004D02*
G75*
G02*
X194500000Y-131925004I-100000J0D01*
G01*
D11*
%TO.C,R_FBT1*%
X136215741Y-112612787D02*
X136215741Y-113035005D01*
X137358741Y-113035005D02*
X137358741Y-112612787D01*
%TO.C,J1*%
X152302501Y-80695801D02*
X152302501Y-82387826D01*
X152302501Y-83312174D02*
X152302501Y-85852000D01*
X152302501Y-85852000D02*
X153161169Y-85852000D01*
X168588834Y-85852000D02*
X169447501Y-85852000D01*
X169447501Y-80695801D02*
X152302501Y-80695801D01*
X169447501Y-82387826D02*
X169447501Y-80695801D01*
X169447501Y-85852000D02*
X169447501Y-83312174D01*
D19*
X171606501Y-85550000D02*
G75*
G02*
X170844501Y-85550000I-381000J0D01*
G01*
X170844501Y-85550000D02*
G75*
G02*
X171606501Y-85550000I381000J0D01*
G01*
D13*
%TO.C,D4*%
X193790001Y-130025000D02*
X198790001Y-130025000D01*
X198790001Y-127425000D02*
X193490001Y-127425000D01*
%TO.C,C5*%
X109350001Y-111700000D02*
X110750001Y-111700000D01*
D11*
%TO.C,CR12*%
X170865100Y-82399900D02*
X170865100Y-82664060D01*
X170865100Y-83735940D02*
X170865100Y-84000100D01*
X170865100Y-84000100D02*
X172922500Y-84000100D01*
X172922500Y-82399900D02*
X170865100Y-82399900D01*
X172922500Y-82664060D02*
X172922500Y-82399900D01*
X172922500Y-84000100D02*
X172922500Y-83735940D01*
%TO.C,R16*%
X113978179Y-128013400D02*
X114400397Y-128013400D01*
X114400397Y-126870400D02*
X113978179Y-126870400D01*
%TO.C,R22*%
X116188891Y-135897969D02*
X116611109Y-135897969D01*
X116611109Y-134754969D02*
X116188891Y-134754969D01*
%TD*%
M02*
