%TF.GenerationSoftware,KiCad,Pcbnew,9.0.2+1*%
%TF.CreationDate,2025-08-16T03:16:36+01:00*%
%TF.ProjectId,Elytra,456c7974-7261-42e6-9b69-6361645f7063,rev?*%
%TF.SameCoordinates,Original*%
%TF.FileFunction,Legend,Top*%
%TF.FilePolarity,Positive*%
%FSLAX46Y46*%
G04 Gerber Fmt 4.6, Leading zero omitted, Abs format (unit mm)*
G04 Created by KiCad (PCBNEW 9.0.2+1) date 2025-08-16 03:16:36*
%MOMM*%
%LPD*%
G01*
G04 APERTURE LIST*
%ADD10C,0.200000*%
%ADD11C,0.152400*%
%ADD12C,0.250000*%
%ADD13C,0.100000*%
%ADD14C,0.000000*%
%ADD15C,0.150000*%
%ADD16C,0.160000*%
%ADD17C,0.120000*%
%ADD18C,0.127000*%
%ADD19C,0.050000*%
G04 APERTURE END LIST*
D10*
X141075000Y-114224999D02*
X143825000Y-114224999D01*
X143825000Y-116974999D01*
X141075000Y-116974999D01*
X141075000Y-114224999D01*
X171975000Y-133875000D02*
X175625000Y-133875000D01*
X175625000Y-137525000D01*
X171975000Y-137525000D01*
X171975000Y-133875000D01*
X123325000Y-129800000D02*
X126075000Y-129800000D01*
X126075000Y-132550000D01*
X123325000Y-132550000D01*
X123325000Y-129800000D01*
G36*
X152582371Y-98860041D02*
G01*
X153292141Y-98860041D01*
X153292141Y-99059344D01*
X152845360Y-99059344D01*
X152845360Y-99246922D01*
X153265518Y-99246922D01*
X153265518Y-99446224D01*
X152845360Y-99446224D01*
X152845360Y-99880000D01*
X152582371Y-99880000D01*
X152582371Y-98860041D01*
G37*
G36*
X153537849Y-98860041D02*
G01*
X153800838Y-98860041D01*
X153800838Y-99880000D01*
X153537849Y-99880000D01*
X153537849Y-98860041D01*
G37*
G36*
X154058575Y-98860041D02*
G01*
X154321563Y-98860041D01*
X154321563Y-99680697D01*
X154783366Y-99680697D01*
X154783366Y-99880000D01*
X154058575Y-99880000D01*
X154058575Y-98860041D01*
G37*
G36*
X154950550Y-98860041D02*
G01*
X155213538Y-98860041D01*
X155213538Y-99680697D01*
X155675340Y-99680697D01*
X155675340Y-99880000D01*
X154950550Y-99880000D01*
X154950550Y-98860041D01*
G37*
G36*
X156834500Y-98865157D02*
G01*
X156919533Y-98878852D01*
X156983849Y-98899045D01*
X157031621Y-98924277D01*
X157072379Y-98960129D01*
X157101744Y-99004937D01*
X157120275Y-99060586D01*
X157126937Y-99129991D01*
X157122812Y-99178605D01*
X157111045Y-99220446D01*
X157092071Y-99256753D01*
X157065881Y-99288113D01*
X157032575Y-99313901D01*
X156991016Y-99334300D01*
X157044125Y-99355814D01*
X157087354Y-99385977D01*
X157122174Y-99425158D01*
X157147453Y-99471353D01*
X157163134Y-99524962D01*
X157168641Y-99587702D01*
X157161763Y-99659991D01*
X157142479Y-99719092D01*
X157111714Y-99767715D01*
X157068868Y-99807643D01*
X157018315Y-99836733D01*
X156953212Y-99859411D01*
X156870255Y-99874463D01*
X156765579Y-99880000D01*
X156329056Y-99880000D01*
X156329056Y-99700237D01*
X156592045Y-99700237D01*
X156746467Y-99700237D01*
X156798394Y-99695932D01*
X156837103Y-99684401D01*
X156865658Y-99666959D01*
X156887195Y-99642086D01*
X156900728Y-99609376D01*
X156905653Y-99566331D01*
X156900791Y-99524215D01*
X156887401Y-99492062D01*
X156866024Y-99467473D01*
X156837672Y-99450238D01*
X156798885Y-99438791D01*
X156746467Y-99434501D01*
X156592045Y-99434501D01*
X156592045Y-99700237D01*
X156329056Y-99700237D01*
X156329056Y-99254738D01*
X156592045Y-99254738D01*
X156737553Y-99254738D01*
X156778186Y-99251260D01*
X156808855Y-99241880D01*
X156831830Y-99227566D01*
X156849191Y-99207339D01*
X156860029Y-99181191D01*
X156863948Y-99147271D01*
X156860053Y-99113797D01*
X156849235Y-99087737D01*
X156831830Y-99067342D01*
X156808825Y-99052821D01*
X156778154Y-99043323D01*
X156737553Y-99039804D01*
X156592045Y-99039804D01*
X156592045Y-99254738D01*
X156329056Y-99254738D01*
X156329056Y-98860041D01*
X156723936Y-98860041D01*
X156834500Y-98865157D01*
G37*
G36*
X158343388Y-99880000D02*
G01*
X158079056Y-99880000D01*
X158014821Y-99692421D01*
X157603577Y-99692421D01*
X157538669Y-99880000D01*
X157274337Y-99880000D01*
X157413292Y-99504842D01*
X157669156Y-99504842D01*
X157948570Y-99504842D01*
X157809229Y-99099094D01*
X157669156Y-99504842D01*
X157413292Y-99504842D01*
X157652120Y-98860041D01*
X157965667Y-98860041D01*
X158343388Y-99880000D01*
G37*
G36*
X158248378Y-98860041D02*
G01*
X159188346Y-98860041D01*
X159188346Y-99059344D01*
X158850192Y-99059344D01*
X158850192Y-99880000D01*
X158587204Y-99880000D01*
X158587204Y-99059344D01*
X158248378Y-99059344D01*
X158248378Y-98860041D01*
G37*
G36*
X101580000Y-89157039D02*
G01*
X101392421Y-89221274D01*
X101392421Y-89632518D01*
X101580000Y-89697426D01*
X101580000Y-89961758D01*
X100560041Y-89583975D01*
X100560041Y-89426866D01*
X100799094Y-89426866D01*
X101204842Y-89566939D01*
X101204842Y-89287525D01*
X100799094Y-89426866D01*
X100560041Y-89426866D01*
X100560041Y-89270428D01*
X101580000Y-88892707D01*
X101580000Y-89157039D01*
G37*
G36*
X100560041Y-88799711D02*
G01*
X100560041Y-88536723D01*
X101172602Y-88536723D01*
X101256718Y-88531019D01*
X101314805Y-88516352D01*
X101353647Y-88495385D01*
X101382696Y-88463894D01*
X101401202Y-88420318D01*
X101408053Y-88360502D01*
X101404097Y-88313510D01*
X101393242Y-88276533D01*
X101376406Y-88247488D01*
X101353647Y-88224886D01*
X101314805Y-88203919D01*
X101256718Y-88189252D01*
X101172602Y-88183548D01*
X100560041Y-88183548D01*
X100560041Y-87920498D01*
X101172602Y-87920498D01*
X101261305Y-87925640D01*
X101335782Y-87940017D01*
X101398222Y-87962417D01*
X101450485Y-87992157D01*
X101494026Y-88029125D01*
X101529676Y-88073555D01*
X101558547Y-88127152D01*
X101580408Y-88191478D01*
X101594491Y-88268484D01*
X101599539Y-88360441D01*
X101594497Y-88452083D01*
X101580427Y-88528883D01*
X101558574Y-88593093D01*
X101529698Y-88646644D01*
X101494026Y-88691084D01*
X101450485Y-88728052D01*
X101398222Y-88757792D01*
X101335782Y-88780193D01*
X101261305Y-88794569D01*
X101172602Y-88799711D01*
X100560041Y-88799711D01*
G37*
G36*
X101059457Y-87095140D02*
G01*
X101580000Y-86741294D01*
X101580000Y-87015212D01*
X101231587Y-87253593D01*
X101580000Y-87489959D01*
X101580000Y-87765282D01*
X101059457Y-87411435D01*
X100560041Y-87751604D01*
X100560041Y-87476953D01*
X100888670Y-87253593D01*
X100560041Y-87030905D01*
X100560041Y-86754910D01*
X101059457Y-87095140D01*
G37*
G36*
X101359991Y-85265679D02*
G01*
X101419092Y-85284963D01*
X101467715Y-85315728D01*
X101507643Y-85358574D01*
X101536733Y-85409127D01*
X101559411Y-85474230D01*
X101574463Y-85557187D01*
X101580000Y-85661862D01*
X101580000Y-86098385D01*
X100560041Y-86098385D01*
X100560041Y-85703506D01*
X100560671Y-85689889D01*
X100739804Y-85689889D01*
X100739804Y-85835397D01*
X100954738Y-85835397D01*
X100954738Y-85689889D01*
X100953975Y-85680974D01*
X101134501Y-85680974D01*
X101134501Y-85835397D01*
X101400237Y-85835397D01*
X101400237Y-85680974D01*
X101395932Y-85629048D01*
X101384401Y-85590339D01*
X101366959Y-85561784D01*
X101342086Y-85540246D01*
X101309376Y-85526714D01*
X101266331Y-85521789D01*
X101224215Y-85526651D01*
X101192062Y-85540041D01*
X101167473Y-85561418D01*
X101150238Y-85589770D01*
X101138791Y-85628556D01*
X101134501Y-85680974D01*
X100953975Y-85680974D01*
X100951260Y-85649256D01*
X100941880Y-85618587D01*
X100927566Y-85595612D01*
X100907339Y-85578251D01*
X100881191Y-85567413D01*
X100847271Y-85563494D01*
X100813797Y-85567388D01*
X100787737Y-85578207D01*
X100767342Y-85595612D01*
X100752821Y-85618617D01*
X100743323Y-85649288D01*
X100739804Y-85689889D01*
X100560671Y-85689889D01*
X100565157Y-85592942D01*
X100578852Y-85507909D01*
X100599045Y-85443593D01*
X100624277Y-85395821D01*
X100660129Y-85355063D01*
X100704937Y-85325698D01*
X100760586Y-85307166D01*
X100829991Y-85300505D01*
X100878605Y-85304630D01*
X100920446Y-85316397D01*
X100956753Y-85335371D01*
X100988113Y-85361561D01*
X101013901Y-85394867D01*
X101034300Y-85436426D01*
X101055814Y-85383317D01*
X101085977Y-85340088D01*
X101125158Y-85305268D01*
X101171353Y-85279989D01*
X101224962Y-85264308D01*
X101287702Y-85258801D01*
X101359991Y-85265679D01*
G37*
G36*
X101580000Y-84348385D02*
G01*
X101392421Y-84412621D01*
X101392421Y-84823865D01*
X101580000Y-84888773D01*
X101580000Y-85153105D01*
X100560041Y-84775322D01*
X100560041Y-84618213D01*
X100799094Y-84618213D01*
X101204842Y-84758286D01*
X101204842Y-84478872D01*
X100799094Y-84618213D01*
X100560041Y-84618213D01*
X100560041Y-84461775D01*
X101580000Y-84084054D01*
X101580000Y-84348385D01*
G37*
G36*
X100560041Y-84179064D02*
G01*
X100560041Y-83239095D01*
X100759344Y-83239095D01*
X100759344Y-83577250D01*
X101580000Y-83577250D01*
X101580000Y-83840238D01*
X100759344Y-83840238D01*
X100759344Y-84179064D01*
X100560041Y-84179064D01*
G37*
G36*
X123213948Y-133746329D02*
G01*
X123446222Y-133746329D01*
X123446222Y-133089804D01*
X123207780Y-133140607D01*
X123207780Y-132960844D01*
X123444818Y-132910041D01*
X123694862Y-132910041D01*
X123694862Y-133746329D01*
X123927137Y-133746329D01*
X123927137Y-133930000D01*
X123213948Y-133930000D01*
X123213948Y-133746329D01*
G37*
G36*
X124787787Y-133554842D02*
G01*
X124933295Y-133554842D01*
X124933295Y-133746329D01*
X124787787Y-133746329D01*
X124787787Y-133930000D01*
X124539087Y-133930000D01*
X124539087Y-133746329D01*
X124086871Y-133746329D01*
X124086871Y-133554842D01*
X124250819Y-133554842D01*
X124539087Y-133554842D01*
X124539087Y-133127051D01*
X124250819Y-133554842D01*
X124086871Y-133554842D01*
X124086871Y-133520282D01*
X124495368Y-132910041D01*
X124787787Y-132910041D01*
X124787787Y-133554842D01*
G37*
G36*
X125004919Y-132910041D02*
G01*
X125269251Y-132910041D01*
X125539811Y-133662859D01*
X125809638Y-132910041D01*
X126073970Y-132910041D01*
X125696249Y-133930000D01*
X125382702Y-133930000D01*
X125004919Y-132910041D01*
G37*
G36*
X172919505Y-137860041D02*
G01*
X173573221Y-137860041D01*
X173573221Y-138051528D01*
X173129187Y-138051528D01*
X173129187Y-138209309D01*
X173189637Y-138196669D01*
X173252835Y-138192212D01*
X173346270Y-138198838D01*
X173424092Y-138217379D01*
X173488996Y-138246476D01*
X173543118Y-138285696D01*
X173587627Y-138335684D01*
X173619778Y-138394485D01*
X173639876Y-138463855D01*
X173646982Y-138546242D01*
X173642083Y-138612092D01*
X173628050Y-138669783D01*
X173605453Y-138720649D01*
X173574272Y-138765738D01*
X173533898Y-138805750D01*
X173475464Y-138844900D01*
X173405292Y-138874139D01*
X173321090Y-138892844D01*
X173220046Y-138899539D01*
X173133744Y-138895417D01*
X173048282Y-138883053D01*
X172963925Y-138862483D01*
X172879205Y-138833105D01*
X172879205Y-138625987D01*
X172962468Y-138667929D01*
X173037352Y-138696329D01*
X173111509Y-138714160D01*
X173178402Y-138719776D01*
X173240533Y-138713996D01*
X173289810Y-138698013D01*
X173328978Y-138672882D01*
X173359276Y-138638348D01*
X173377571Y-138596742D01*
X173383994Y-138545875D01*
X173377544Y-138494572D01*
X173359227Y-138452892D01*
X173328978Y-138418564D01*
X173289834Y-138393606D01*
X173240556Y-138377722D01*
X173178402Y-138371974D01*
X173120944Y-138375427D01*
X173057441Y-138386324D01*
X172992608Y-138403979D01*
X172919505Y-138430593D01*
X172919505Y-137860041D01*
G37*
G36*
X173752129Y-137860041D02*
G01*
X174016461Y-137860041D01*
X174287021Y-138612859D01*
X174556848Y-137860041D01*
X174821180Y-137860041D01*
X174443458Y-138880000D01*
X174129911Y-138880000D01*
X173752129Y-137860041D01*
G37*
G36*
X100610041Y-102391920D02*
G01*
X100610041Y-102057185D01*
X101156352Y-101824910D01*
X100610041Y-101591292D01*
X100610041Y-101257229D01*
X101630000Y-101257229D01*
X101630000Y-101505929D01*
X100884204Y-101505929D01*
X101434605Y-101740891D01*
X101434605Y-101907586D01*
X100884204Y-102142548D01*
X101630000Y-102142548D01*
X101630000Y-102391920D01*
X100610041Y-102391920D01*
G37*
G36*
X101630000Y-100315611D02*
G01*
X101442421Y-100379847D01*
X101442421Y-100791091D01*
X101630000Y-100855999D01*
X101630000Y-101120331D01*
X100610041Y-100742548D01*
X100610041Y-100585439D01*
X100849094Y-100585439D01*
X101254842Y-100725512D01*
X101254842Y-100446098D01*
X100849094Y-100585439D01*
X100610041Y-100585439D01*
X100610041Y-100429001D01*
X101630000Y-100051280D01*
X101630000Y-100315611D01*
G37*
G36*
X100610041Y-99915297D02*
G01*
X100610041Y-99652309D01*
X101630000Y-99652309D01*
X101630000Y-99915297D01*
X100610041Y-99915297D01*
G37*
G36*
X100610041Y-99394572D02*
G01*
X100610041Y-99100809D01*
X101309614Y-98729865D01*
X100610041Y-98729865D01*
X100610041Y-98480554D01*
X101630000Y-98480554D01*
X101630000Y-98774256D01*
X100930427Y-99145200D01*
X101630000Y-99145200D01*
X101630000Y-99394572D01*
X100610041Y-99394572D01*
G37*
G36*
X101409991Y-96903945D02*
G01*
X101469092Y-96923228D01*
X101517715Y-96953994D01*
X101557643Y-96996840D01*
X101586733Y-97047393D01*
X101609411Y-97112496D01*
X101624463Y-97195453D01*
X101630000Y-97300128D01*
X101630000Y-97736651D01*
X100610041Y-97736651D01*
X100610041Y-97341772D01*
X100610671Y-97328155D01*
X100789804Y-97328155D01*
X100789804Y-97473663D01*
X101004738Y-97473663D01*
X101004738Y-97328155D01*
X101003975Y-97319240D01*
X101184501Y-97319240D01*
X101184501Y-97473663D01*
X101450237Y-97473663D01*
X101450237Y-97319240D01*
X101445932Y-97267314D01*
X101434401Y-97228605D01*
X101416959Y-97200050D01*
X101392086Y-97178512D01*
X101359376Y-97164980D01*
X101316331Y-97160055D01*
X101274215Y-97164916D01*
X101242062Y-97178307D01*
X101217473Y-97199683D01*
X101200238Y-97228036D01*
X101188791Y-97266822D01*
X101184501Y-97319240D01*
X101003975Y-97319240D01*
X101001260Y-97287522D01*
X100991880Y-97256853D01*
X100977566Y-97233877D01*
X100957339Y-97216517D01*
X100931191Y-97205679D01*
X100897271Y-97201759D01*
X100863797Y-97205654D01*
X100837737Y-97216473D01*
X100817342Y-97233877D01*
X100802821Y-97256883D01*
X100793323Y-97287553D01*
X100789804Y-97328155D01*
X100610671Y-97328155D01*
X100615157Y-97231208D01*
X100628852Y-97146175D01*
X100649045Y-97081858D01*
X100674277Y-97034087D01*
X100710129Y-96993328D01*
X100754937Y-96963963D01*
X100810586Y-96945432D01*
X100879991Y-96938771D01*
X100928605Y-96942895D01*
X100970446Y-96954662D01*
X101006753Y-96973637D01*
X101038113Y-96999827D01*
X101063901Y-97033133D01*
X101084300Y-97074692D01*
X101105814Y-97021582D01*
X101135977Y-96978354D01*
X101175158Y-96943534D01*
X101221353Y-96918255D01*
X101274962Y-96902574D01*
X101337702Y-96897066D01*
X101409991Y-96903945D01*
G37*
G36*
X101630000Y-95986651D02*
G01*
X101442421Y-96050887D01*
X101442421Y-96462131D01*
X101630000Y-96527038D01*
X101630000Y-96791370D01*
X100610041Y-96413588D01*
X100610041Y-96256478D01*
X100849094Y-96256478D01*
X101254842Y-96396552D01*
X101254842Y-96117138D01*
X100849094Y-96256478D01*
X100610041Y-96256478D01*
X100610041Y-96100041D01*
X101630000Y-95722319D01*
X101630000Y-95986651D01*
G37*
G36*
X100610041Y-95817330D02*
G01*
X100610041Y-94877361D01*
X100809344Y-94877361D01*
X100809344Y-95215515D01*
X101630000Y-95215515D01*
X101630000Y-95478504D01*
X100809344Y-95478504D01*
X100809344Y-95817330D01*
X100610041Y-95817330D01*
G37*
G36*
X145063424Y-115116319D02*
G01*
X145144125Y-115133711D01*
X145210089Y-115160616D01*
X145263825Y-115196259D01*
X145308613Y-115242870D01*
X145340802Y-115298059D01*
X145360887Y-115363551D01*
X145367995Y-115441845D01*
X145360875Y-115520536D01*
X145340771Y-115586275D01*
X145308579Y-115641589D01*
X145263825Y-115688225D01*
X145210093Y-115723841D01*
X145144131Y-115750728D01*
X145063429Y-115768108D01*
X144964933Y-115774382D01*
X144791399Y-115774382D01*
X144791399Y-116130000D01*
X144528410Y-116130000D01*
X144528410Y-115582896D01*
X144791399Y-115582896D01*
X144936906Y-115582896D01*
X144986655Y-115578299D01*
X145025214Y-115565719D01*
X145055059Y-115546137D01*
X145077720Y-115519063D01*
X145091742Y-115485005D01*
X145096763Y-115441845D01*
X145091735Y-115398737D01*
X145077709Y-115364832D01*
X145055059Y-115337981D01*
X145025238Y-115318573D01*
X144986680Y-115306091D01*
X144936906Y-115301528D01*
X144791399Y-115301528D01*
X144791399Y-115582896D01*
X144528410Y-115582896D01*
X144528410Y-115110041D01*
X144964933Y-115110041D01*
X145063424Y-115116319D01*
G37*
G36*
X146470996Y-116053429D02*
G01*
X146370648Y-116095521D01*
X146266748Y-116125542D01*
X146159651Y-116143485D01*
X146048150Y-116149539D01*
X145945283Y-116143187D01*
X145855145Y-116125064D01*
X145775916Y-116096157D01*
X145706064Y-116056874D01*
X145644417Y-116007023D01*
X145591836Y-115947339D01*
X145550765Y-115880095D01*
X145520755Y-115804220D01*
X145502034Y-115718248D01*
X145495490Y-115620387D01*
X145502172Y-115521396D01*
X145521261Y-115434769D01*
X145551819Y-115358622D01*
X145593609Y-115291417D01*
X145647103Y-115232041D01*
X145709619Y-115182814D01*
X145780963Y-115143829D01*
X145862415Y-115115012D01*
X145955615Y-115096876D01*
X146062500Y-115090502D01*
X146162945Y-115095389D01*
X146257527Y-115109736D01*
X146348618Y-115133755D01*
X146433443Y-115166706D01*
X146433443Y-115379685D01*
X146347108Y-115336189D01*
X146263695Y-115306229D01*
X146178866Y-115287996D01*
X146094617Y-115281988D01*
X146016441Y-115288140D01*
X145951539Y-115305382D01*
X145897485Y-115332597D01*
X145852451Y-115369672D01*
X145816748Y-115415709D01*
X145790304Y-115471426D01*
X145773436Y-115538804D01*
X145767393Y-115620387D01*
X145773221Y-115701364D01*
X145789496Y-115768425D01*
X145814991Y-115824015D01*
X145849337Y-115870064D01*
X145892983Y-115907443D01*
X145945112Y-115934722D01*
X146007439Y-115951929D01*
X146082283Y-115958053D01*
X146158426Y-115952984D01*
X146192486Y-115946233D01*
X146221624Y-115936926D01*
X146221624Y-115739211D01*
X146061095Y-115739211D01*
X146061095Y-115563356D01*
X146470996Y-115563356D01*
X146470996Y-116053429D01*
G37*
G36*
X147268313Y-115096804D02*
G01*
X147354752Y-115114743D01*
X147430250Y-115143307D01*
X147496382Y-115182102D01*
X147554335Y-115231369D01*
X147602967Y-115289774D01*
X147641338Y-115356488D01*
X147669635Y-115432719D01*
X147687423Y-115520053D01*
X147693675Y-115620387D01*
X147687432Y-115720384D01*
X147669659Y-115807500D01*
X147641373Y-115883612D01*
X147602996Y-115950291D01*
X147554335Y-116008733D01*
X147496386Y-116057976D01*
X147430255Y-116096754D01*
X147354757Y-116125307D01*
X147268316Y-116143240D01*
X147169042Y-116149539D01*
X147070114Y-116143251D01*
X146983859Y-116125340D01*
X146908412Y-116096801D01*
X146842220Y-116058015D01*
X146784115Y-116008733D01*
X146735312Y-115950272D01*
X146696834Y-115883581D01*
X146668479Y-115807469D01*
X146650666Y-115720363D01*
X146644408Y-115620387D01*
X146916311Y-115620387D01*
X146921133Y-115701663D01*
X146934518Y-115768772D01*
X146955223Y-115824032D01*
X146982562Y-115869392D01*
X147018960Y-115908097D01*
X147061279Y-115935395D01*
X147110689Y-115952171D01*
X147169042Y-115958053D01*
X147227788Y-115952157D01*
X147277434Y-115935359D01*
X147319859Y-115908056D01*
X147356254Y-115869392D01*
X147383593Y-115824032D01*
X147404298Y-115768772D01*
X147417683Y-115701663D01*
X147422505Y-115620387D01*
X147417673Y-115538699D01*
X147404274Y-115471366D01*
X147383567Y-115416031D01*
X147356254Y-115370710D01*
X147319855Y-115332016D01*
X147277428Y-115304695D01*
X147227784Y-115287887D01*
X147169042Y-115281988D01*
X147110693Y-115287873D01*
X147061285Y-115304659D01*
X147018964Y-115331976D01*
X146982562Y-115370710D01*
X146955249Y-115416031D01*
X146934542Y-115471366D01*
X146921143Y-115538699D01*
X146916311Y-115620387D01*
X146644408Y-115620387D01*
X146650674Y-115520074D01*
X146668503Y-115432750D01*
X146696868Y-115356519D01*
X146735341Y-115289794D01*
X146784115Y-115231369D01*
X146842223Y-115182063D01*
X146908417Y-115143260D01*
X146983864Y-115114710D01*
X147070117Y-115096792D01*
X147169042Y-115090502D01*
X147268313Y-115096804D01*
G37*
G36*
X148458264Y-115096804D02*
G01*
X148544703Y-115114743D01*
X148620201Y-115143307D01*
X148686334Y-115182102D01*
X148744286Y-115231369D01*
X148792918Y-115289774D01*
X148831290Y-115356488D01*
X148859586Y-115432719D01*
X148877375Y-115520053D01*
X148883627Y-115620387D01*
X148877383Y-115720384D01*
X148859610Y-115807500D01*
X148831324Y-115883612D01*
X148792948Y-115950291D01*
X148744286Y-116008733D01*
X148686337Y-116057976D01*
X148620206Y-116096754D01*
X148544708Y-116125307D01*
X148458267Y-116143240D01*
X148358993Y-116149539D01*
X148260065Y-116143251D01*
X148173810Y-116125340D01*
X148098363Y-116096801D01*
X148032171Y-116058015D01*
X147974066Y-116008733D01*
X147925263Y-115950272D01*
X147886785Y-115883581D01*
X147858430Y-115807469D01*
X147840617Y-115720363D01*
X147834359Y-115620387D01*
X148106263Y-115620387D01*
X148111085Y-115701663D01*
X148124470Y-115768772D01*
X148145174Y-115824032D01*
X148172513Y-115869392D01*
X148208911Y-115908097D01*
X148251230Y-115935395D01*
X148300640Y-115952171D01*
X148358993Y-115958053D01*
X148417740Y-115952157D01*
X148467385Y-115935359D01*
X148509810Y-115908056D01*
X148546205Y-115869392D01*
X148573544Y-115824032D01*
X148594249Y-115768772D01*
X148607634Y-115701663D01*
X148612456Y-115620387D01*
X148607624Y-115538699D01*
X148594225Y-115471366D01*
X148573519Y-115416031D01*
X148546205Y-115370710D01*
X148509806Y-115332016D01*
X148467379Y-115304695D01*
X148417736Y-115287887D01*
X148358993Y-115281988D01*
X148300644Y-115287873D01*
X148251236Y-115304659D01*
X148208915Y-115331976D01*
X148172513Y-115370710D01*
X148145200Y-115416031D01*
X148124494Y-115471366D01*
X148111094Y-115538699D01*
X148106263Y-115620387D01*
X147834359Y-115620387D01*
X147840625Y-115520074D01*
X147858454Y-115432750D01*
X147886819Y-115356519D01*
X147925292Y-115289794D01*
X147974066Y-115231369D01*
X148032174Y-115182063D01*
X148098368Y-115143260D01*
X148173815Y-115114710D01*
X148260069Y-115096792D01*
X148358993Y-115090502D01*
X148458264Y-115096804D01*
G37*
G36*
X149516847Y-115114633D02*
G01*
X149628988Y-115126520D01*
X149706420Y-115143197D01*
X149779275Y-115170686D01*
X149843953Y-115208046D01*
X149901448Y-115255549D01*
X149945429Y-115304230D01*
X149980786Y-115357133D01*
X150007998Y-115414734D01*
X150026959Y-115475797D01*
X150038764Y-115543557D01*
X150042864Y-115618982D01*
X150038751Y-115695358D01*
X150026935Y-115763693D01*
X150007998Y-115825001D01*
X149980771Y-115882799D01*
X149945411Y-115935800D01*
X149901448Y-115984492D01*
X149843474Y-116031974D01*
X149778210Y-116069362D01*
X149704649Y-116096905D01*
X149626651Y-116113600D01*
X149514922Y-116125443D01*
X149360389Y-116130000D01*
X149083051Y-116130000D01*
X149083051Y-115930697D01*
X149346039Y-115930697D01*
X149440317Y-115930697D01*
X149521299Y-115924958D01*
X149587688Y-115909011D01*
X149642092Y-115884171D01*
X149686575Y-115850891D01*
X149722460Y-115808485D01*
X149748852Y-115757050D01*
X149765626Y-115694714D01*
X149771632Y-115618982D01*
X149765643Y-115543581D01*
X149748923Y-115481597D01*
X149722626Y-115430522D01*
X149686880Y-115388478D01*
X149642623Y-115355543D01*
X149588278Y-115330906D01*
X149521731Y-115315056D01*
X149440317Y-115309344D01*
X149346039Y-115309344D01*
X149346039Y-115930697D01*
X149083051Y-115930697D01*
X149083051Y-115110041D01*
X149360389Y-115110041D01*
X149516847Y-115114633D01*
G37*
G36*
X124801893Y-117530041D02*
G01*
X125064882Y-117530041D01*
X125064882Y-117902390D01*
X125444008Y-117530041D01*
X125749372Y-117530041D01*
X125258261Y-118013032D01*
X125799931Y-118550000D01*
X125470691Y-118550000D01*
X125064882Y-118148281D01*
X125064882Y-118550000D01*
X124801893Y-118550000D01*
X124801893Y-117530041D01*
G37*
G36*
X125886331Y-117530041D02*
G01*
X126596101Y-117530041D01*
X126596101Y-117729344D01*
X126149320Y-117729344D01*
X126149320Y-117916922D01*
X126569479Y-117916922D01*
X126569479Y-118116224D01*
X126149320Y-118116224D01*
X126149320Y-118350697D01*
X126611122Y-118350697D01*
X126611122Y-118550000D01*
X125886331Y-118550000D01*
X125886331Y-117530041D01*
G37*
G36*
X126699721Y-117530041D02*
G01*
X126987317Y-117530041D01*
X127219592Y-117893475D01*
X127451867Y-117530041D01*
X127740135Y-117530041D01*
X127351422Y-118120315D01*
X127351422Y-118550000D01*
X127088434Y-118550000D01*
X127088434Y-118120315D01*
X126699721Y-117530041D01*
G37*
G36*
X122701723Y-119215302D02*
G01*
X122782965Y-119229490D01*
X122845497Y-119250641D01*
X122892952Y-119277452D01*
X122932915Y-119314675D01*
X122961896Y-119361123D01*
X122980256Y-119418772D01*
X122986864Y-119490554D01*
X122980982Y-119556131D01*
X122964428Y-119610538D01*
X122938015Y-119655968D01*
X122901599Y-119693965D01*
X122853357Y-119725811D01*
X122790859Y-119751284D01*
X122825147Y-119762821D01*
X122857214Y-119781282D01*
X122887518Y-119807337D01*
X122927703Y-119858070D01*
X122973919Y-119939656D01*
X123116679Y-120230000D01*
X122836593Y-120230000D01*
X122712274Y-119975987D01*
X122684454Y-119926061D01*
X122659170Y-119892410D01*
X122636131Y-119871207D01*
X122609035Y-119856200D01*
X122575311Y-119846592D01*
X122533305Y-119843119D01*
X122458811Y-119843119D01*
X122458811Y-120230000D01*
X122195822Y-120230000D01*
X122195822Y-119659448D01*
X122458811Y-119659448D01*
X122569514Y-119659448D01*
X122624067Y-119655333D01*
X122662126Y-119644663D01*
X122687972Y-119629162D01*
X122706910Y-119606376D01*
X122719248Y-119574224D01*
X122723875Y-119529450D01*
X122719246Y-119485194D01*
X122706913Y-119453536D01*
X122687972Y-119431203D01*
X122662181Y-119416037D01*
X122624126Y-119405570D01*
X122569514Y-119401528D01*
X122458811Y-119401528D01*
X122458811Y-119659448D01*
X122195822Y-119659448D01*
X122195822Y-119210041D01*
X122597541Y-119210041D01*
X122701723Y-119215302D01*
G37*
G36*
X123273422Y-119210041D02*
G01*
X123983191Y-119210041D01*
X123983191Y-119409344D01*
X123536410Y-119409344D01*
X123536410Y-119596922D01*
X123956569Y-119596922D01*
X123956569Y-119796224D01*
X123536410Y-119796224D01*
X123536410Y-120030697D01*
X123998212Y-120030697D01*
X123998212Y-120230000D01*
X123273422Y-120230000D01*
X123273422Y-119210041D01*
G37*
G36*
X125037710Y-120173335D02*
G01*
X124963666Y-120206477D01*
X124886707Y-120230305D01*
X124807011Y-120244667D01*
X124722820Y-120249539D01*
X124619953Y-120243187D01*
X124529815Y-120225064D01*
X124450585Y-120196157D01*
X124380734Y-120156874D01*
X124319086Y-120107023D01*
X124266505Y-120047339D01*
X124225434Y-119980095D01*
X124195425Y-119904220D01*
X124176703Y-119818248D01*
X124170159Y-119720387D01*
X124176712Y-119622192D01*
X124195450Y-119536001D01*
X124225471Y-119460007D01*
X124266537Y-119392727D01*
X124319086Y-119333079D01*
X124380737Y-119283205D01*
X124450590Y-119243904D01*
X124529820Y-119214986D01*
X124619956Y-119196856D01*
X124722820Y-119190502D01*
X124807011Y-119195374D01*
X124886707Y-119209736D01*
X124963666Y-119233564D01*
X125037710Y-119266706D01*
X125037710Y-119479685D01*
X124963560Y-119435073D01*
X124893545Y-119405558D01*
X124821090Y-119387950D01*
X124744008Y-119381988D01*
X124674823Y-119388089D01*
X124616093Y-119405414D01*
X124565840Y-119433275D01*
X124522663Y-119472053D01*
X124488732Y-119519013D01*
X124463653Y-119574829D01*
X124447733Y-119641228D01*
X124442063Y-119720387D01*
X124447723Y-119799143D01*
X124463627Y-119865305D01*
X124488704Y-119921021D01*
X124522663Y-119967988D01*
X124565840Y-120006765D01*
X124616093Y-120034627D01*
X124674823Y-120051952D01*
X124744008Y-120058053D01*
X124821090Y-120052091D01*
X124893545Y-120034483D01*
X124963560Y-120004967D01*
X125037710Y-119960355D01*
X125037710Y-120173335D01*
G37*
G36*
X125820861Y-119196804D02*
G01*
X125907300Y-119214743D01*
X125982798Y-119243307D01*
X126048930Y-119282102D01*
X126106883Y-119331369D01*
X126155515Y-119389774D01*
X126193886Y-119456488D01*
X126222183Y-119532719D01*
X126239972Y-119620053D01*
X126246223Y-119720387D01*
X126239980Y-119820384D01*
X126222207Y-119907500D01*
X126193921Y-119983612D01*
X126155545Y-120050291D01*
X126106883Y-120108733D01*
X126048934Y-120157976D01*
X125982803Y-120196754D01*
X125907305Y-120225307D01*
X125820864Y-120243240D01*
X125721590Y-120249539D01*
X125622662Y-120243251D01*
X125536407Y-120225340D01*
X125460960Y-120196801D01*
X125394768Y-120158015D01*
X125336663Y-120108733D01*
X125287860Y-120050272D01*
X125249382Y-119983581D01*
X125221027Y-119907469D01*
X125203214Y-119820363D01*
X125196956Y-119720387D01*
X125468860Y-119720387D01*
X125473682Y-119801663D01*
X125487066Y-119868772D01*
X125507771Y-119924032D01*
X125535110Y-119969392D01*
X125571508Y-120008097D01*
X125613827Y-120035395D01*
X125663237Y-120052171D01*
X125721590Y-120058053D01*
X125780337Y-120052157D01*
X125829982Y-120035359D01*
X125872407Y-120008056D01*
X125908802Y-119969392D01*
X125936141Y-119924032D01*
X125956846Y-119868772D01*
X125970231Y-119801663D01*
X125975053Y-119720387D01*
X125970221Y-119638699D01*
X125956822Y-119571366D01*
X125936115Y-119516031D01*
X125908802Y-119470710D01*
X125872403Y-119432016D01*
X125829976Y-119404695D01*
X125780332Y-119387887D01*
X125721590Y-119381988D01*
X125663241Y-119387873D01*
X125613833Y-119404659D01*
X125571512Y-119431976D01*
X125535110Y-119470710D01*
X125507797Y-119516031D01*
X125487091Y-119571366D01*
X125473691Y-119638699D01*
X125468860Y-119720387D01*
X125196956Y-119720387D01*
X125203222Y-119620074D01*
X125221051Y-119532750D01*
X125249416Y-119456519D01*
X125287889Y-119389794D01*
X125336663Y-119331369D01*
X125394771Y-119282063D01*
X125460965Y-119243260D01*
X125536412Y-119214710D01*
X125622665Y-119196792D01*
X125721590Y-119190502D01*
X125820861Y-119196804D01*
G37*
G36*
X126285974Y-119210041D02*
G01*
X126550306Y-119210041D01*
X126820866Y-119962859D01*
X127090693Y-119210041D01*
X127355025Y-119210041D01*
X126977303Y-120230000D01*
X126663757Y-120230000D01*
X126285974Y-119210041D01*
G37*
G36*
X127491007Y-119210041D02*
G01*
X128200777Y-119210041D01*
X128200777Y-119409344D01*
X127753996Y-119409344D01*
X127753996Y-119596922D01*
X128174154Y-119596922D01*
X128174154Y-119796224D01*
X127753996Y-119796224D01*
X127753996Y-120030697D01*
X128215798Y-120030697D01*
X128215798Y-120230000D01*
X127491007Y-120230000D01*
X127491007Y-119210041D01*
G37*
G36*
X128952386Y-119215302D02*
G01*
X129033628Y-119229490D01*
X129096160Y-119250641D01*
X129143615Y-119277452D01*
X129183578Y-119314675D01*
X129212559Y-119361123D01*
X129230919Y-119418772D01*
X129237527Y-119490554D01*
X129231645Y-119556131D01*
X129215091Y-119610538D01*
X129188678Y-119655968D01*
X129152262Y-119693965D01*
X129104020Y-119725811D01*
X129041522Y-119751284D01*
X129075810Y-119762821D01*
X129107877Y-119781282D01*
X129138181Y-119807337D01*
X129178366Y-119858070D01*
X129224582Y-119939656D01*
X129367342Y-120230000D01*
X129087256Y-120230000D01*
X128962937Y-119975987D01*
X128935117Y-119926061D01*
X128909833Y-119892410D01*
X128886794Y-119871207D01*
X128859698Y-119856200D01*
X128825974Y-119846592D01*
X128783968Y-119843119D01*
X128709474Y-119843119D01*
X128709474Y-120230000D01*
X128446485Y-120230000D01*
X128446485Y-119659448D01*
X128709474Y-119659448D01*
X128820177Y-119659448D01*
X128874730Y-119655333D01*
X128912789Y-119644663D01*
X128938634Y-119629162D01*
X128957573Y-119606376D01*
X128969911Y-119574224D01*
X128974538Y-119529450D01*
X128969909Y-119485194D01*
X128957576Y-119453536D01*
X128938634Y-119431203D01*
X128912844Y-119416037D01*
X128874789Y-119405570D01*
X128820177Y-119401528D01*
X128709474Y-119401528D01*
X128709474Y-119659448D01*
X128446485Y-119659448D01*
X128446485Y-119210041D01*
X128848204Y-119210041D01*
X128952386Y-119215302D01*
G37*
G36*
X129305793Y-119210041D02*
G01*
X129593388Y-119210041D01*
X129825663Y-119573475D01*
X130057938Y-119210041D01*
X130346206Y-119210041D01*
X129957493Y-119800315D01*
X129957493Y-120230000D01*
X129694505Y-120230000D01*
X129694505Y-119800315D01*
X129305793Y-119210041D01*
G37*
D11*
%TO.C,U11*%
X105026800Y-94192499D02*
X111503800Y-94192499D01*
X111503800Y-94192499D02*
X111503800Y-91271499D01*
X105026800Y-93814039D02*
X105026800Y-94192499D01*
X111986400Y-93430499D02*
X113053200Y-93430499D01*
X111986400Y-92541499D02*
X113053200Y-92541499D01*
X111503800Y-91271499D02*
X112519800Y-91271499D01*
X112519800Y-91271499D02*
X112519800Y-90128499D01*
X111503800Y-90128499D02*
X111503800Y-87207499D01*
X112519800Y-90128499D02*
X111503800Y-90128499D01*
X111986400Y-88858499D02*
X113053200Y-88858499D01*
X111986400Y-87969499D02*
X113053200Y-87969499D01*
X105026800Y-87207499D02*
X105026800Y-87585959D01*
X111503800Y-87207499D02*
X105026800Y-87207499D01*
D10*
X116540300Y-92999999D02*
G75*
G02*
X116257458Y-92999999I-141421J0D01*
G01*
X116257458Y-92999999D02*
G75*
G02*
X116540300Y-92999999I141421J0D01*
G01*
D11*
%TO.C,U3*%
X105026800Y-101692499D02*
X111503800Y-101692499D01*
X111503800Y-101692499D02*
X111503800Y-98771499D01*
X105026800Y-101314039D02*
X105026800Y-101692499D01*
X111986400Y-100930499D02*
X113053200Y-100930499D01*
X111986400Y-100041499D02*
X113053200Y-100041499D01*
X111503800Y-98771499D02*
X112519800Y-98771499D01*
X112519800Y-98771499D02*
X112519800Y-97628499D01*
X111503800Y-97628499D02*
X111503800Y-94707499D01*
X112519800Y-97628499D02*
X111503800Y-97628499D01*
X111986400Y-96358499D02*
X113053200Y-96358499D01*
X111986400Y-95469499D02*
X113053200Y-95469499D01*
X105026800Y-94707499D02*
X105026800Y-95085959D01*
X111503800Y-94707499D02*
X105026800Y-94707499D01*
D10*
X116540300Y-100499999D02*
G75*
G02*
X116257458Y-100499999I-141421J0D01*
G01*
X116257458Y-100499999D02*
G75*
G02*
X116540300Y-100499999I141421J0D01*
G01*
D11*
%TO.C,J1*%
X169467600Y-86210700D02*
X169467600Y-83670874D01*
X169467600Y-82746526D02*
X169467600Y-81054501D01*
X169467600Y-81054501D02*
X152322600Y-81054501D01*
X152322600Y-86210700D02*
X153181268Y-86210700D01*
X152322600Y-83670874D02*
X152322600Y-86210700D01*
X152322600Y-81054501D02*
X152322600Y-82746526D01*
D12*
X169170101Y-85858700D02*
G75*
G02*
X168870101Y-85858700I-150000J0D01*
G01*
X168870101Y-85858700D02*
G75*
G02*
X169170101Y-85858700I150000J0D01*
G01*
D11*
%TO.C,U6*%
X111223601Y-129254771D02*
X111440260Y-129254771D01*
X111223601Y-130941331D02*
X111223601Y-129254771D01*
X111223601Y-133598171D02*
X111223601Y-131911611D01*
X111440260Y-133598171D02*
X111223601Y-133598171D01*
X114359742Y-129254771D02*
X114576401Y-129254771D01*
X114576401Y-129254771D02*
X114576401Y-130441332D01*
X114576401Y-132411610D02*
X114576401Y-133598171D01*
X114576401Y-133598171D02*
X114359742Y-133598171D01*
D13*
X110712501Y-131313971D02*
X110787501Y-131313971D01*
X110787501Y-131538971D01*
X110712501Y-131538971D01*
X110712501Y-131313971D01*
D10*
%TO.C,D8*%
X185640000Y-90660000D02*
X186540000Y-90660000D01*
X187640000Y-90660000D02*
X190940000Y-90660000D01*
X190640000Y-88060000D02*
X185640000Y-88060000D01*
D11*
%TO.C,U7*%
X176480199Y-130671500D02*
X177496199Y-130671500D01*
X177013599Y-127369500D02*
X175921399Y-127369500D01*
X177013599Y-128258500D02*
X175921399Y-128258500D01*
X177013599Y-131941500D02*
X175921399Y-131941500D01*
X177013599Y-132830500D02*
X175921399Y-132830500D01*
X177496199Y-126607500D02*
X177496199Y-129528500D01*
X177496199Y-129528500D02*
X176480199Y-129528500D01*
X177496199Y-130671500D02*
X177496199Y-133592500D01*
X177496199Y-133592500D02*
X183973199Y-133592500D01*
X183973199Y-126607500D02*
X177496199Y-126607500D01*
X183973199Y-127011360D02*
X183973199Y-126607500D01*
X183973199Y-133592500D02*
X183973199Y-133188640D01*
%TO.C,U1*%
X141400139Y-125365695D02*
X141155679Y-125365695D01*
X137783799Y-125365695D02*
X137539339Y-125365695D01*
G36*
X140787239Y-120496495D02*
G01*
X140406239Y-120496495D01*
X140406239Y-120750495D01*
X140787239Y-120750495D01*
X140787239Y-120496495D01*
G37*
D14*
G36*
X141933338Y-123884494D02*
G01*
X141679338Y-123884494D01*
X141679338Y-123503494D01*
X141933338Y-123503494D01*
X141933338Y-123884494D01*
G37*
D10*
%TO.C,IC2*%
X192075000Y-107700000D02*
X190600000Y-107700000D01*
X190250000Y-107650000D02*
X186550000Y-107650000D01*
X190250000Y-104650000D02*
X190250000Y-107650000D01*
X186550000Y-107650000D02*
X186550000Y-104650000D01*
X186550000Y-104650000D02*
X190250000Y-104650000D01*
%TO.C,IC3*%
X206515000Y-83437000D02*
X206515000Y-84912000D01*
X206465000Y-85262000D02*
X206465000Y-88962000D01*
X203465000Y-85262000D02*
X206465000Y-85262000D01*
X206465000Y-88962000D02*
X203465000Y-88962000D01*
X203465000Y-88962000D02*
X203465000Y-85262000D01*
%TO.C,IC1*%
X206515000Y-127338000D02*
X206515000Y-128813000D01*
X206465000Y-129163000D02*
X206465000Y-132863000D01*
X203465000Y-129163000D02*
X206465000Y-129163000D01*
X206465000Y-132863000D02*
X203465000Y-132863000D01*
X203465000Y-132863000D02*
X203465000Y-129163000D01*
D13*
%TO.C,K4*%
X183650000Y-109540000D02*
X183650000Y-109540000D01*
D15*
X183650000Y-109540000D02*
X190050000Y-109540000D01*
D13*
X183650000Y-114120000D02*
X183650000Y-114120000D01*
X190050000Y-109540000D02*
X190050000Y-109540000D01*
D15*
X190050000Y-114120000D02*
X183650000Y-114120000D01*
D13*
X190050000Y-114120000D02*
X190050000Y-114120000D01*
D10*
X191250000Y-114240000D02*
G75*
G02*
X191050000Y-114240000I-100000J0D01*
G01*
X191050000Y-114240000D02*
G75*
G02*
X191250000Y-114240000I100000J0D01*
G01*
%TO.C,D3*%
X154600000Y-137000000D02*
X159900000Y-137000000D01*
X159600000Y-134400000D02*
X154600000Y-134400000D01*
D11*
%TO.C,U4*%
X115174499Y-105909639D02*
X115174499Y-106590359D01*
X115174499Y-107900999D02*
X116825499Y-107900999D01*
X116825499Y-104598999D02*
X115174499Y-104598999D01*
X116825499Y-105637859D02*
X116825499Y-104598999D01*
X116825499Y-107900999D02*
X116825499Y-106862139D01*
D10*
%TO.C,J2*%
X95024999Y-93870000D02*
X100224999Y-93870000D01*
X95024999Y-104070000D02*
X95024999Y-93870000D01*
X97124999Y-92870000D02*
X98124999Y-92870000D01*
X97124999Y-104670000D02*
X98124999Y-104670000D01*
X97624999Y-92370000D02*
X97624999Y-93370000D01*
X100224999Y-93870000D02*
X100224999Y-104070000D01*
X100224999Y-104070000D02*
X95024999Y-104070000D01*
D11*
%TO.C,R23*%
X116188895Y-134346500D02*
X116611113Y-134346500D01*
X116611113Y-133203500D02*
X116188895Y-133203500D01*
%TO.C,R17*%
X110438895Y-127997971D02*
X110861113Y-127997971D01*
X110861113Y-126854971D02*
X110438895Y-126854971D01*
%TO.C,R1*%
X116228499Y-81538890D02*
X116228499Y-81961108D01*
X117371499Y-81961108D02*
X117371499Y-81538890D01*
%TO.C,R_PG1*%
X139258631Y-116965495D02*
X139680849Y-116965495D01*
X139680849Y-115822495D02*
X139258631Y-115822495D01*
D16*
%TO.C,D2*%
X117249999Y-101849999D02*
X117249999Y-104649999D01*
X119149999Y-104649999D02*
X119149999Y-101849999D01*
D10*
X119299999Y-101149999D02*
G75*
G02*
X119099999Y-101149999I-100000J0D01*
G01*
X119099999Y-101149999D02*
G75*
G02*
X119299999Y-101149999I100000J0D01*
G01*
D11*
%TO.C,R19*%
X116943391Y-128884634D02*
X117365609Y-128884634D01*
X117365609Y-127741634D02*
X116943391Y-127741634D01*
D10*
%TO.C,R8*%
X110824998Y-102974999D02*
X110424998Y-102974999D01*
X110824998Y-104224999D02*
X110424998Y-104224999D01*
D11*
%TO.C,R_FBB1*%
X134198240Y-115432886D02*
X134198240Y-115855104D01*
X135341240Y-115855104D02*
X135341240Y-115432886D01*
D10*
%TO.C,CR4*%
X196426530Y-131402360D02*
X196426530Y-133152360D01*
X196426530Y-133152360D02*
X197726530Y-133152360D01*
X197726530Y-131402360D02*
X196426530Y-131402360D01*
%TO.C,J3*%
X95000000Y-81500000D02*
X100200000Y-81500000D01*
X95000000Y-91700000D02*
X95000000Y-81500000D01*
X98100000Y-80900000D02*
X97100000Y-80900000D01*
X100200000Y-81500000D02*
X100200000Y-91700000D01*
X100200000Y-91700000D02*
X95000000Y-91700000D01*
D11*
%TO.C,U10*%
X108455750Y-114631028D02*
X108455750Y-115034888D01*
X108455750Y-121212168D02*
X108455750Y-121616028D01*
X108455750Y-121616028D02*
X114932750Y-121616028D01*
X114932750Y-114631028D02*
X108455750Y-114631028D01*
X114932750Y-117552028D02*
X114932750Y-114631028D01*
X114932750Y-118695028D02*
X115948750Y-118695028D01*
X114932750Y-121616028D02*
X114932750Y-118695028D01*
X115415350Y-115393028D02*
X116507550Y-115393028D01*
X115415350Y-116282028D02*
X116507550Y-116282028D01*
X115415350Y-119965028D02*
X116507550Y-119965028D01*
X115415350Y-120854028D02*
X116507550Y-120854028D01*
X115948750Y-117552028D02*
X114932750Y-117552028D01*
X115948750Y-118695028D02*
X115948750Y-117552028D01*
D15*
%TO.C,R25*%
X163555750Y-103250000D02*
X163555750Y-102650000D01*
X170055750Y-103250000D02*
X170055750Y-102650000D01*
D11*
%TO.C,R5*%
X115678498Y-102813891D02*
X115678498Y-103236109D01*
X116821498Y-103236109D02*
X116821498Y-102813891D01*
%TO.C,R2*%
X112188890Y-83371499D02*
X112611108Y-83371499D01*
X112611108Y-82228499D02*
X112188890Y-82228499D01*
%TO.C,R_FF1*%
X133398240Y-112654386D02*
X133398240Y-113076604D01*
X134541240Y-113076604D02*
X134541240Y-112654386D01*
D15*
%TO.C,R31*%
X163625000Y-89800000D02*
X163625000Y-89200000D01*
X170125000Y-89800000D02*
X170125000Y-89200000D01*
D11*
%TO.C,CR11*%
X165771300Y-97899900D02*
X165771300Y-98164060D01*
X165771300Y-99235940D02*
X165771300Y-99500100D01*
X165771300Y-99500100D02*
X167828700Y-99500100D01*
X167828700Y-97899900D02*
X165771300Y-97899900D01*
X167828700Y-98164060D02*
X167828700Y-97899900D01*
X167828700Y-99500100D02*
X167828700Y-99235940D01*
D17*
%TO.C,JP2*%
X183699999Y-136300001D02*
X183699999Y-134900001D01*
X184399999Y-134200001D02*
X184999999Y-134200001D01*
X184999999Y-137000001D02*
X184399999Y-137000001D01*
X185699999Y-134900001D02*
X185699999Y-136300001D01*
X183699999Y-134900001D02*
G75*
G02*
X184399999Y-134200001I699999J1D01*
G01*
X184399999Y-137000001D02*
G75*
G02*
X183699999Y-136300001I0J700000D01*
G01*
X184999999Y-134200001D02*
G75*
G02*
X185699999Y-134900001I1J-699999D01*
G01*
X185699999Y-136300001D02*
G75*
G02*
X184999999Y-137000001I-700000J0D01*
G01*
D11*
%TO.C,R_RT1*%
X135798241Y-118182886D02*
X135798241Y-118605104D01*
X136941241Y-118605104D02*
X136941241Y-118182886D01*
%TO.C,L2*%
X94122200Y-122122200D02*
X94122200Y-135177800D01*
X94122200Y-135177800D02*
X97703119Y-135177800D01*
X97703119Y-122122200D02*
X94122200Y-122122200D01*
X103596881Y-135177800D02*
X107177800Y-135177800D01*
X107177800Y-122122200D02*
X103596881Y-122122200D01*
X107177800Y-135177800D02*
X107177800Y-122122200D01*
%TO.C,F6*%
X196437900Y-82616950D02*
X196437900Y-83983050D01*
X198292100Y-83983050D02*
X198292100Y-82616950D01*
D10*
%TO.C,D6*%
X174299998Y-115524999D02*
X179599998Y-115524999D01*
X179299998Y-112924999D02*
X174299998Y-112924999D01*
%TO.C,R9*%
X174275000Y-124925000D02*
X174675000Y-124925000D01*
X174275000Y-126175000D02*
X174675000Y-126175000D01*
D11*
%TO.C,U2*%
X115474500Y-85259640D02*
X115474500Y-85940360D01*
X115474500Y-87251000D02*
X117125500Y-87251000D01*
X117125500Y-83949000D02*
X115474500Y-83949000D01*
X117125500Y-84987860D02*
X117125500Y-83949000D01*
X117125500Y-87251000D02*
X117125500Y-86212140D01*
D10*
%TO.C,C1*%
X96100001Y-109169998D02*
X96100001Y-107769998D01*
D17*
%TO.C,JP5*%
X182415000Y-84000000D02*
X182415000Y-82600000D01*
X183115000Y-81900000D02*
X183715000Y-81900000D01*
X183715000Y-84700000D02*
X183115000Y-84700000D01*
X184415000Y-82600000D02*
X184415000Y-84000000D01*
X182415000Y-82600000D02*
G75*
G02*
X183115000Y-81900000I700000J0D01*
G01*
X183115000Y-84700000D02*
G75*
G02*
X182415000Y-84000000I-1J699999D01*
G01*
X183715000Y-81900000D02*
G75*
G02*
X184415000Y-82600000I0J-700000D01*
G01*
X184415000Y-84000000D02*
G75*
G02*
X183715000Y-84700000I-699999J-1D01*
G01*
D10*
%TO.C,C3*%
X109250000Y-111700000D02*
X110650000Y-111700000D01*
D16*
%TO.C,D1*%
X117849999Y-81299999D02*
X117849999Y-84099999D01*
X119749999Y-84099999D02*
X119749999Y-81299999D01*
D10*
X119899999Y-80599999D02*
G75*
G02*
X119699999Y-80599999I-100000J0D01*
G01*
X119699999Y-80599999D02*
G75*
G02*
X119899999Y-80599999I100000J0D01*
G01*
%TO.C,R34*%
X176775000Y-82675000D02*
X177175000Y-82675000D01*
X176775000Y-83925000D02*
X177175000Y-83925000D01*
D15*
%TO.C,R24*%
X163550000Y-107600000D02*
X163550000Y-108200000D01*
X170050000Y-107600000D02*
X170050000Y-108200000D01*
D10*
%TO.C,R32*%
X192800000Y-84700000D02*
X192800000Y-84300000D01*
X194050000Y-84700000D02*
X194050000Y-84300000D01*
%TO.C,C_IN1*%
X134685002Y-125024998D02*
X133285002Y-125024998D01*
D11*
%TO.C,F3*%
X168216950Y-114977100D02*
X169583050Y-114977100D01*
X169583050Y-113122900D02*
X168216950Y-113122900D01*
D18*
%TO.C,R12*%
X158850000Y-129900000D02*
X158850000Y-129300000D01*
X165350000Y-129900000D02*
X165350000Y-129300000D01*
D11*
%TO.C,R_RT2*%
X134098239Y-118182887D02*
X134098239Y-118605105D01*
X135241239Y-118605105D02*
X135241239Y-118182887D01*
D18*
%TO.C,R14*%
X165950000Y-129900000D02*
X165950000Y-129300000D01*
X172450000Y-129900000D02*
X172450000Y-129300000D01*
D15*
%TO.C,R26*%
X156455750Y-103250000D02*
X156455750Y-102650000D01*
X162955750Y-103250000D02*
X162955750Y-102650000D01*
%TO.C,K1*%
X122049998Y-81499999D02*
X122049998Y-94199999D01*
X122049998Y-94199999D02*
X150999998Y-94199999D01*
X150999998Y-81499999D02*
X122049998Y-81499999D01*
X150999998Y-94199999D02*
X150999998Y-81499999D01*
D10*
X121749998Y-91699999D02*
G75*
G02*
X121449998Y-91699999I-150000J0D01*
G01*
X121449998Y-91699999D02*
G75*
G02*
X121749998Y-91699999I150000J0D01*
G01*
D17*
%TO.C,JP1*%
X199990001Y-135924998D02*
X199990001Y-134524998D01*
X200690001Y-133824998D02*
X201290001Y-133824998D01*
X201290001Y-136624998D02*
X200690001Y-136624998D01*
X201990001Y-134524998D02*
X201990001Y-135924998D01*
X199990001Y-134524998D02*
G75*
G02*
X200690001Y-133824998I699999J1D01*
G01*
X200690001Y-136624998D02*
G75*
G02*
X199990001Y-135924998I0J700000D01*
G01*
X201290001Y-133824998D02*
G75*
G02*
X201990001Y-134524998I1J-699999D01*
G01*
X201990001Y-135924998D02*
G75*
G02*
X201290001Y-136624998I-700000J0D01*
G01*
D15*
%TO.C,L_SW1*%
X135669737Y-129043996D02*
X135669737Y-135743996D01*
X135669737Y-135743996D02*
X135969737Y-135743996D01*
X136469737Y-129043996D02*
X135669737Y-129043996D01*
X136469737Y-135743996D02*
X135969737Y-135743996D01*
X141469737Y-129043996D02*
X142269737Y-129043996D01*
X142269737Y-129043996D02*
X142269737Y-135743996D01*
X142269737Y-135743996D02*
X141469737Y-135743996D01*
D10*
%TO.C,D7*%
X174299998Y-118900000D02*
X179599998Y-118900000D01*
X179299998Y-116300000D02*
X174299998Y-116300000D01*
D11*
%TO.C,R_FBB2*%
X135798239Y-115432886D02*
X135798239Y-115855104D01*
X136941239Y-115855104D02*
X136941239Y-115432886D01*
D10*
%TO.C,CR9*%
X186765000Y-87525000D02*
X188065000Y-87525000D01*
X188065000Y-85775000D02*
X186765000Y-85775000D01*
X188065000Y-87525000D02*
X188065000Y-85775000D01*
D13*
%TO.C,K5*%
X187070000Y-94450000D02*
X187070000Y-94450000D01*
D15*
X187070000Y-100850000D02*
X187070000Y-94450000D01*
D13*
X187070000Y-100850000D02*
X187070000Y-100850000D01*
X191650000Y-94450000D02*
X191650000Y-94450000D01*
D15*
X191650000Y-94450000D02*
X191650000Y-100850000D01*
D13*
X191650000Y-100850000D02*
X191650000Y-100850000D01*
D10*
X187050000Y-101950000D02*
G75*
G02*
X186850000Y-101950000I-100000J0D01*
G01*
X186850000Y-101950000D02*
G75*
G02*
X187050000Y-101950000I100000J0D01*
G01*
%TO.C,R27*%
X174300000Y-121175000D02*
X174700000Y-121175000D01*
X174300000Y-122425000D02*
X174700000Y-122425000D01*
D11*
%TO.C,U9*%
X174195500Y-88428500D02*
X174195500Y-89571500D01*
X174195500Y-89571500D02*
X175211500Y-89571500D01*
X174728900Y-86269500D02*
X173636700Y-86269500D01*
X174728900Y-87158500D02*
X173636700Y-87158500D01*
X174728900Y-90841500D02*
X173636700Y-90841500D01*
X174728900Y-91730500D02*
X173636700Y-91730500D01*
X175211500Y-85507500D02*
X175211500Y-88428500D01*
X175211500Y-88428500D02*
X174195500Y-88428500D01*
X175211500Y-89571500D02*
X175211500Y-92492500D01*
X175211500Y-92492500D02*
X181688500Y-92492500D01*
X181688500Y-85507500D02*
X175211500Y-85507500D01*
X181688500Y-85911360D02*
X181688500Y-85507500D01*
X181688500Y-92492500D02*
X181688500Y-92088640D01*
D17*
%TO.C,JP4*%
X167500000Y-120699998D02*
X167500000Y-120099998D01*
X168200000Y-119399998D02*
X169600000Y-119399998D01*
X169600000Y-121399998D02*
X168200000Y-121399998D01*
X170300000Y-120099998D02*
X170300000Y-120699998D01*
X167500000Y-120099998D02*
G75*
G02*
X168200000Y-119399998I700000J0D01*
G01*
X168200000Y-121399998D02*
G75*
G02*
X167500000Y-120699998I0J700000D01*
G01*
X169600000Y-119399998D02*
G75*
G02*
X170300000Y-120099998I1J-699999D01*
G01*
X170300000Y-120699998D02*
G75*
G02*
X169600000Y-121399998I-699999J-1D01*
G01*
D11*
%TO.C,R_BIAS1*%
X142288891Y-118671500D02*
X142711109Y-118671500D01*
X142711109Y-117528500D02*
X142288891Y-117528500D01*
D18*
%TO.C,R13*%
X164150000Y-134400000D02*
X164150000Y-135000000D01*
X170650000Y-134400000D02*
X170650000Y-135000000D01*
D10*
%TO.C,CR6*%
X188049999Y-133125003D02*
X189349999Y-133125003D01*
X189349999Y-131375003D02*
X188049999Y-131375003D01*
X189349999Y-133125003D02*
X189349999Y-131375003D01*
%TO.C,C_IN-BLK1*%
X146613486Y-117637744D02*
X146613486Y-120787744D01*
X146613486Y-117637744D02*
X147263486Y-117637744D01*
X146613486Y-120787744D02*
X146613486Y-117637744D01*
X147263486Y-117637744D02*
X146613486Y-117637744D01*
D19*
X148763486Y-123362744D02*
X148763486Y-123362744D01*
X148763486Y-123412744D02*
X148763486Y-123412744D01*
D10*
X150913486Y-117637744D02*
X150263486Y-117637744D01*
X150913486Y-120787744D02*
X150913486Y-117637744D01*
D19*
X148763486Y-123362744D02*
G75*
G02*
X148763486Y-123412744I0J-25000D01*
G01*
X148763486Y-123412744D02*
G75*
G02*
X148763486Y-123362744I0J25000D01*
G01*
D11*
%TO.C,R20*%
X119628180Y-128878398D02*
X120050398Y-128878398D01*
X120050398Y-127735398D02*
X119628180Y-127735398D01*
D10*
%TO.C,CR8*%
X171475000Y-118650000D02*
X171475000Y-119950000D01*
X171475000Y-119950000D02*
X173225000Y-119950000D01*
X173225000Y-119950000D02*
X173225000Y-118650000D01*
%TO.C,C4*%
X107050000Y-111700000D02*
X108450000Y-111700000D01*
%TO.C,CR7*%
X171475000Y-111900000D02*
X171475000Y-113200000D01*
X173225000Y-111900000D02*
X171475000Y-111900000D01*
X173225000Y-113200000D02*
X173225000Y-111900000D01*
D13*
%TO.C,K3*%
X187070000Y-117925000D02*
X187070000Y-117925000D01*
D15*
X187070000Y-124325000D02*
X187070000Y-117925000D01*
D13*
X187070000Y-124325000D02*
X187070000Y-124325000D01*
X191650000Y-117925000D02*
X191650000Y-117925000D01*
D15*
X191650000Y-117925000D02*
X191650000Y-124325000D01*
D13*
X191650000Y-124325000D02*
X191650000Y-124325000D01*
D10*
X191870000Y-116825000D02*
G75*
G02*
X191670000Y-116825000I-100000J0D01*
G01*
X191670000Y-116825000D02*
G75*
G02*
X191870000Y-116825000I100000J0D01*
G01*
D18*
%TO.C,R29*%
X168050000Y-94340000D02*
X168050000Y-94940000D01*
X174550000Y-94340000D02*
X174550000Y-94940000D01*
D11*
%TO.C,R7*%
X118388890Y-108271499D02*
X118811108Y-108271499D01*
X118811108Y-107128499D02*
X118388890Y-107128499D01*
D10*
%TO.C,C_OUT5*%
X153488486Y-124987744D02*
X147263486Y-124987744D01*
X156713486Y-133287744D02*
X147263486Y-133287744D01*
%TO.C,R15*%
X190575000Y-134224999D02*
X190575000Y-134624999D01*
X191825000Y-134224999D02*
X191825000Y-134624999D01*
D11*
%TO.C,F1*%
X197622899Y-134966952D02*
X197622899Y-136333052D01*
X199477099Y-136333052D02*
X199477099Y-134966952D01*
D10*
%TO.C,R4*%
X110774998Y-84674999D02*
X110374998Y-84674999D01*
X110774998Y-85924999D02*
X110374998Y-85924999D01*
%TO.C,C_IN2*%
X145169739Y-125993996D02*
X143769739Y-125993996D01*
D11*
%TO.C,U8*%
X174101250Y-102778500D02*
X174101250Y-103921500D01*
X174101250Y-103921500D02*
X175117250Y-103921500D01*
X174634650Y-100619500D02*
X173542450Y-100619500D01*
X174634650Y-101508500D02*
X173542450Y-101508500D01*
X174634650Y-105191500D02*
X173542450Y-105191500D01*
X174634650Y-106080500D02*
X173542450Y-106080500D01*
X175117250Y-99857500D02*
X175117250Y-102778500D01*
X175117250Y-102778500D02*
X174101250Y-102778500D01*
X175117250Y-103921500D02*
X175117250Y-106842500D01*
X175117250Y-106842500D02*
X181594250Y-106842500D01*
X181594250Y-99857500D02*
X175117250Y-99857500D01*
X181594250Y-100261360D02*
X181594250Y-99857500D01*
X181594250Y-106842500D02*
X181594250Y-106438640D01*
D10*
%TO.C,R28*%
X189245000Y-84700000D02*
X189245000Y-84300000D01*
X190495000Y-84700000D02*
X190495000Y-84300000D01*
D11*
%TO.C,R_ENB1*%
X133478500Y-120988891D02*
X133478500Y-121411109D01*
X134621500Y-121411109D02*
X134621500Y-120988891D01*
D10*
%TO.C,D5*%
X186889999Y-130024999D02*
X192189999Y-130024999D01*
X191889999Y-127424999D02*
X186889999Y-127424999D01*
%TO.C,R18*%
X174294998Y-109395000D02*
X174694998Y-109395000D01*
X174294998Y-110645000D02*
X174694998Y-110645000D01*
D15*
%TO.C,L1*%
X95050000Y-109850000D02*
X95050000Y-112280000D01*
X95050000Y-109850000D02*
X105550000Y-109850000D01*
X95050000Y-119850000D02*
X95050000Y-117420000D01*
X95050000Y-119850000D02*
X105550000Y-119850000D01*
X105550000Y-109850000D02*
X105550000Y-112280000D01*
X105550000Y-119850000D02*
X105550000Y-117420000D01*
D11*
%TO.C,R_BT1*%
X142528499Y-121613891D02*
X142528499Y-122036109D01*
X143671499Y-122036109D02*
X143671499Y-121613891D01*
%TO.C,F2*%
X186272899Y-134916951D02*
X186272899Y-136283051D01*
X188127099Y-136283051D02*
X188127099Y-134916951D01*
%TO.C,CR2*%
X104158240Y-107268600D02*
X104524000Y-107268600D01*
X104524000Y-101731400D02*
X104158240Y-101731400D01*
X104524000Y-107268600D02*
X104524000Y-101731400D01*
D10*
X103090499Y-101180000D02*
G75*
G02*
X102889501Y-101180000I-100499J0D01*
G01*
X102889501Y-101180000D02*
G75*
G02*
X103090499Y-101180000I100499J0D01*
G01*
D11*
%TO.C,F4*%
X168216950Y-118727100D02*
X169583050Y-118727100D01*
X169583050Y-116872900D02*
X168216950Y-116872900D01*
%TO.C,R21*%
X116188896Y-137497969D02*
X116611114Y-137497969D01*
X116611114Y-136354969D02*
X116188896Y-136354969D01*
D10*
%TO.C,R11*%
X127400000Y-126875000D02*
X127000000Y-126875000D01*
X127400000Y-128125000D02*
X127000000Y-128125000D01*
%TO.C,J4*%
X153225000Y-88200000D02*
X158425000Y-88200000D01*
X153225000Y-98400000D02*
X153225000Y-88200000D01*
X158425000Y-88200000D02*
X158425000Y-98400000D01*
X158425000Y-98400000D02*
X153225000Y-98400000D01*
X158925000Y-90800000D02*
X159925000Y-90800000D01*
X158925000Y-95800000D02*
X159925000Y-95800000D01*
X159425000Y-90300000D02*
X159425000Y-91300000D01*
D15*
%TO.C,K2*%
X122050000Y-96300000D02*
X122050000Y-109000000D01*
X122050000Y-109000000D02*
X151000000Y-109000000D01*
X151000000Y-96300000D02*
X122050000Y-96300000D01*
X151000000Y-109000000D02*
X151000000Y-96300000D01*
D10*
X121750000Y-106500000D02*
G75*
G02*
X121450000Y-106500000I-150000J0D01*
G01*
X121450000Y-106500000D02*
G75*
G02*
X121750000Y-106500000I150000J0D01*
G01*
D18*
%TO.C,R30*%
X160950000Y-94350000D02*
X160950000Y-94950000D01*
X167450000Y-94350000D02*
X167450000Y-94950000D01*
D10*
%TO.C,D9*%
X192650000Y-90650000D02*
X197650000Y-90650000D01*
X197650000Y-88050000D02*
X192350000Y-88050000D01*
%TO.C,R33*%
X171775000Y-98075000D02*
X172175000Y-98075000D01*
X171775000Y-99325000D02*
X172175000Y-99325000D01*
D17*
%TO.C,JP3*%
X167500000Y-111800000D02*
X167500000Y-111200000D01*
X168200000Y-110500000D02*
X169600000Y-110500000D01*
X169600000Y-112500000D02*
X168200000Y-112500000D01*
X170300000Y-111200000D02*
X170300000Y-111800000D01*
X167500000Y-111200000D02*
G75*
G02*
X168200000Y-110500000I700000J0D01*
G01*
X168200000Y-112500000D02*
G75*
G02*
X167500000Y-111800000I0J700000D01*
G01*
X169600000Y-110500000D02*
G75*
G02*
X170300000Y-111200000I1J-699999D01*
G01*
X170300000Y-111800000D02*
G75*
G02*
X169600000Y-112500000I-699999J-1D01*
G01*
%TO.C,JP6*%
X198865000Y-84000000D02*
X198865000Y-82600000D01*
X199565000Y-81900000D02*
X200165000Y-81900000D01*
X200165000Y-84700000D02*
X199565000Y-84700000D01*
X200865000Y-82600000D02*
X200865000Y-84000000D01*
X198865000Y-82600000D02*
G75*
G02*
X199565000Y-81900000I700000J0D01*
G01*
X199565000Y-84700000D02*
G75*
G02*
X198865000Y-84000000I-1J699999D01*
G01*
X200165000Y-81900000D02*
G75*
G02*
X200865000Y-82600000I0J-700000D01*
G01*
X200865000Y-84000000D02*
G75*
G02*
X200165000Y-84700000I-699999J-1D01*
G01*
D11*
%TO.C,F5*%
X184997900Y-82616950D02*
X184997900Y-83983050D01*
X186852100Y-83983050D02*
X186852100Y-82616950D01*
D10*
%TO.C,C2*%
X96100001Y-106900000D02*
X96100001Y-105500000D01*
%TO.C,C6*%
X111450000Y-111700000D02*
X112850000Y-111700000D01*
D11*
%TO.C,R6*%
X114078500Y-102813891D02*
X114078500Y-103236109D01*
X115221500Y-103236109D02*
X115221500Y-102813891D01*
%TO.C,CR5*%
X116121300Y-121649900D02*
X116121300Y-121914060D01*
X116121300Y-122985940D02*
X116121300Y-123250100D01*
X116121300Y-123250100D02*
X118178700Y-123250100D01*
X118178700Y-121649900D02*
X116121300Y-121649900D01*
X118178700Y-121914060D02*
X118178700Y-121649900D01*
X118178700Y-123250100D02*
X118178700Y-122985940D01*
D10*
%TO.C,CR10*%
X195225000Y-85775000D02*
X195225000Y-87525000D01*
X195225000Y-87525000D02*
X196525000Y-87525000D01*
X196525000Y-85775000D02*
X195225000Y-85775000D01*
D11*
%TO.C,CR3*%
X168377500Y-124699900D02*
X168377500Y-124964060D01*
X168377500Y-126035940D02*
X168377500Y-126300100D01*
X168377500Y-126300100D02*
X170434900Y-126300100D01*
X170434900Y-124699900D02*
X168377500Y-124699900D01*
X170434900Y-124964060D02*
X170434900Y-124699900D01*
X170434900Y-126300100D02*
X170434900Y-126035940D01*
%TO.C,R3*%
X118228499Y-87888890D02*
X118228499Y-88311108D01*
X119371499Y-88311108D02*
X119371499Y-87888890D01*
%TO.C,CR1*%
X104158240Y-86320400D02*
X104524000Y-86320400D01*
X104524000Y-80783200D02*
X104158240Y-80783200D01*
X104524000Y-86320400D02*
X104524000Y-80783200D01*
D10*
X103110499Y-86871800D02*
G75*
G02*
X102909501Y-86871800I-100499J0D01*
G01*
X102909501Y-86871800D02*
G75*
G02*
X103110499Y-86871800I100499J0D01*
G01*
%TO.C,J5*%
X121000000Y-111725000D02*
X131200000Y-111725000D01*
X121000000Y-116925000D02*
X121000000Y-111725000D01*
X123100000Y-117915000D02*
X124100000Y-117915000D01*
X123600000Y-118415000D02*
X123600000Y-117415000D01*
X128600000Y-118415000D02*
X128600000Y-117415000D01*
X131200000Y-111725000D02*
X131200000Y-116925000D01*
X131200000Y-116925000D02*
X121000000Y-116925000D01*
%TO.C,R10*%
X193975000Y-134225004D02*
X193975000Y-134625004D01*
X195225000Y-134225004D02*
X195225000Y-134625004D01*
D11*
%TO.C,R_FBT1*%
X136215741Y-112612787D02*
X136215741Y-113035005D01*
X137358741Y-113035005D02*
X137358741Y-112612787D01*
D10*
%TO.C,D4*%
X193790001Y-130025000D02*
X198790001Y-130025000D01*
X198790001Y-127425000D02*
X193490001Y-127425000D01*
%TO.C,C5*%
X113650000Y-111700000D02*
X115050000Y-111700000D01*
D11*
%TO.C,CR12*%
X170865100Y-82399900D02*
X170865100Y-82664060D01*
X170865100Y-83735940D02*
X170865100Y-84000100D01*
X170865100Y-84000100D02*
X172922500Y-84000100D01*
X172922500Y-82399900D02*
X170865100Y-82399900D01*
X172922500Y-82664060D02*
X172922500Y-82399900D01*
X172922500Y-84000100D02*
X172922500Y-83735940D01*
%TO.C,R16*%
X113978179Y-128013400D02*
X114400397Y-128013400D01*
X114400397Y-126870400D02*
X113978179Y-126870400D01*
%TO.C,R22*%
X116188891Y-135946499D02*
X116611109Y-135946499D01*
X116611109Y-134803499D02*
X116188891Y-134803499D01*
%TO.C,R_ENT1*%
X135198239Y-120982885D02*
X135198239Y-121405103D01*
X136341239Y-121405103D02*
X136341239Y-120982885D01*
%TD*%
M02*
