%TF.GenerationSoftware,KiCad,Pcbnew,9.0.3+1*%
%TF.CreationDate,2025-08-21T21:39:02+01:00*%
%TF.ProjectId,Elytra,456c7974-7261-42e6-9b69-6361645f7063,rev?*%
%TF.SameCoordinates,Original*%
%TF.FileFunction,Soldermask,Top*%
%TF.FilePolarity,Negative*%
%FSLAX46Y46*%
G04 Gerber Fmt 4.6, Leading zero omitted, Abs format (unit mm)*
G04 Created by KiCad (PCBNEW 9.0.3+1) date 2025-08-21 21:39:02*
%MOMM*%
%LPD*%
G01*
G04 APERTURE LIST*
G04 Aperture macros list*
%AMRoundRect*
0 Rectangle with rounded corners*
0 $1 Rounding radius*
0 $2 $3 $4 $5 $6 $7 $8 $9 X,Y pos of 4 corners*
0 Add a 4 corners polygon primitive as box body*
4,1,4,$2,$3,$4,$5,$6,$7,$8,$9,$2,$3,0*
0 Add four circle primitives for the rounded corners*
1,1,$1+$1,$2,$3*
1,1,$1+$1,$4,$5*
1,1,$1+$1,$6,$7*
1,1,$1+$1,$8,$9*
0 Add four rect primitives between the rounded corners*
20,1,$1+$1,$2,$3,$4,$5,0*
20,1,$1+$1,$4,$5,$6,$7,0*
20,1,$1+$1,$6,$7,$8,$9,0*
20,1,$1+$1,$8,$9,$2,$3,0*%
%AMFreePoly0*
4,1,23,0.000000,0.745722,0.065263,0.745722,0.191342,0.711940,0.304381,0.646677,0.396677,0.554381,0.461940,0.441342,0.495722,0.315263,0.495722,0.250000,0.500000,0.250000,0.500000,-0.250000,0.495722,-0.250000,0.495722,-0.315263,0.461940,-0.441342,0.396677,-0.554381,0.304381,-0.646677,0.191342,-0.711940,0.065263,-0.745722,0.000000,-0.745722,0.000000,-0.750000,-0.500000,-0.750000,
-0.500000,0.750000,0.000000,0.750000,0.000000,0.745722,0.000000,0.745722,$1*%
%AMFreePoly1*
4,1,23,0.500000,-0.750000,0.000000,-0.750000,0.000000,-0.745722,-0.065263,-0.745722,-0.191342,-0.711940,-0.304381,-0.646677,-0.396677,-0.554381,-0.461940,-0.441342,-0.495722,-0.315263,-0.495722,-0.250000,-0.500000,-0.250000,-0.500000,0.250000,-0.495722,0.250000,-0.495722,0.315263,-0.461940,0.441342,-0.396677,0.554381,-0.304381,0.646677,-0.191342,0.711940,-0.065263,0.745722,0.000000,0.745722,
0.000000,0.750000,0.500000,0.750000,0.500000,-0.750000,0.500000,-0.750000,$1*%
G04 Aperture macros list end*
%ADD10C,0.000000*%
%ADD11RoundRect,0.102000X3.260000X-0.720000X3.260000X0.720000X-3.260000X0.720000X-3.260000X-0.720000X0*%
%ADD12RoundRect,0.102000X-3.260000X0.720000X-3.260000X-0.720000X3.260000X-0.720000X3.260000X0.720000X0*%
%ADD13RoundRect,0.125000X0.125000X0.281400X-0.125000X0.281400X-0.125000X-0.281400X0.125000X-0.281400X0*%
%ADD14RoundRect,0.125000X-0.125000X-0.281400X0.125000X-0.281400X0.125000X0.281400X-0.125000X0.281400X0*%
%ADD15RoundRect,0.125000X-0.281400X0.125000X-0.281400X-0.125000X0.281400X-0.125000X0.281400X0.125000X0*%
%ADD16RoundRect,0.281000X0.281000X0.311000X-0.281000X0.311000X-0.281000X-0.311000X0.281000X-0.311000X0*%
%ADD17RoundRect,0.125000X0.281400X-0.125000X0.281400X0.125000X-0.281400X0.125000X-0.281400X-0.125000X0*%
%ADD18R,0.508000X1.625600*%
%ADD19R,0.609600X1.625600*%
%ADD20C,3.200000*%
%ADD21R,2.000000X2.000000*%
%ADD22R,5.918200X5.511800*%
%ADD23R,2.489200X0.939800*%
%ADD24RoundRect,0.294348X-0.532652X0.382652X-0.532652X-0.382652X0.532652X-0.382652X0.532652X0.382652X0*%
%ADD25R,0.711200X0.406400*%
%ADD26FreePoly0,270.000000*%
%ADD27FreePoly1,270.000000*%
%ADD28R,1.600000X1.000000*%
%ADD29RoundRect,0.250000X-0.325000X-0.325000X0.325000X-0.325000X0.325000X0.325000X-0.325000X0.325000X0*%
%ADD30FreePoly0,90.000000*%
%ADD31FreePoly1,90.000000*%
%ADD32RoundRect,0.278500X-0.358500X0.278500X-0.358500X-0.278500X0.358500X-0.278500X0.358500X0.278500X0*%
%ADD33RoundRect,0.250000X0.325000X-0.325000X0.325000X0.325000X-0.325000X0.325000X-0.325000X-0.325000X0*%
%ADD34RoundRect,0.250000X-0.660000X0.260000X-0.660000X-0.260000X0.660000X-0.260000X0.660000X0.260000X0*%
%ADD35R,1.000000X1.600000*%
%ADD36C,1.950000*%
%ADD37R,3.500000X2.950000*%
%ADD38R,2.250000X1.600000*%
%ADD39R,1.050000X1.000000*%
%ADD40R,1.500000X1.300000*%
%ADD41FreePoly0,180.000000*%
%ADD42FreePoly1,180.000000*%
%ADD43R,1.600000X2.500000*%
%ADD44R,1.000000X1.050000*%
%ADD45R,3.900000X2.100000*%
%ADD46RoundRect,0.250000X-0.325000X0.325000X-0.325000X-0.325000X0.325000X-0.325000X0.325000X0.325000X0*%
%ADD47RoundRect,0.075200X-0.300200X0.075200X-0.300200X-0.075200X0.300200X-0.075200X0.300200X0.075200X0*%
%ADD48RoundRect,0.067500X-0.502500X0.202500X-0.502500X-0.202500X0.502500X-0.202500X0.502500X0.202500X0*%
%ADD49RoundRect,0.067500X-0.202500X-0.402500X0.202500X-0.402500X0.202500X0.402500X-0.202500X0.402500X0*%
%ADD50RoundRect,0.067500X0.502500X-0.202500X0.502500X0.202500X-0.502500X0.202500X-0.502500X-0.202500X0*%
%ADD51RoundRect,0.067500X-0.202500X-1.202500X0.202500X-1.202500X0.202500X1.202500X-0.202500X1.202500X0*%
%ADD52RoundRect,0.056350X-0.469050X0.169050X-0.469050X-0.169050X0.469050X-0.169050X0.469050X0.169050X0*%
%ADD53RoundRect,0.060160X-0.315240X0.090240X-0.315240X-0.090240X0.315240X-0.090240X0.315240X0.090240X0*%
%ADD54RoundRect,0.070000X0.500000X0.175000X-0.500000X0.175000X-0.500000X-0.175000X0.500000X-0.175000X0*%
%ADD55RoundRect,0.067500X-0.202500X-0.352500X0.202500X-0.352500X0.202500X0.352500X-0.202500X0.352500X0*%
%ADD56RoundRect,0.060160X-0.090240X-0.315240X0.090240X-0.315240X0.090240X0.315240X-0.090240X0.315240X0*%
%ADD57RoundRect,0.087700X-0.087700X-0.287700X0.087700X-0.287700X0.087700X0.287700X-0.087700X0.287700X0*%
%ADD58RoundRect,0.075200X-0.075200X-0.300200X0.075200X-0.300200X0.075200X0.300200X-0.075200X0.300200X0*%
%ADD59RoundRect,0.250000X0.325000X0.325000X-0.325000X0.325000X-0.325000X-0.325000X0.325000X-0.325000X0*%
%ADD60C,2.700000*%
%ADD61R,2.700000X2.700000*%
%ADD62C,1.500000*%
%ADD63C,3.100000*%
%ADD64RoundRect,0.127000X-0.127000X0.152400X-0.127000X-0.152400X0.127000X-0.152400X0.127000X0.152400X0*%
%ADD65C,1.117600*%
%ADD66R,1.300000X1.500000*%
%ADD67RoundRect,0.025400X-0.225000X-0.737500X0.225000X-0.737500X0.225000X0.737500X-0.225000X0.737500X0*%
%ADD68RoundRect,0.025400X-0.737500X0.225000X-0.737500X-0.225000X0.737500X-0.225000X0.737500X0.225000X0*%
%ADD69R,6.299200X5.562600*%
%ADD70R,5.410200X2.895600*%
%ADD71RoundRect,0.250000X0.260000X0.660000X-0.260000X0.660000X-0.260000X-0.660000X0.260000X-0.660000X0*%
%ADD72RoundRect,0.250000X0.660000X-0.260000X0.660000X0.260000X-0.660000X0.260000X-0.660000X-0.260000X0*%
%ADD73RoundRect,0.025400X-1.155700X-0.152400X1.155700X-0.152400X1.155700X0.152400X-1.155700X0.152400X0*%
%ADD74RoundRect,0.025400X0.127000X-0.444500X0.127000X0.444500X-0.127000X0.444500X-0.127000X-0.444500X0*%
%ADD75RoundRect,0.102000X-1.475000X-2.250000X1.475000X-2.250000X1.475000X2.250000X-1.475000X2.250000X0*%
%ADD76R,1.651000X2.184400*%
%ADD77RoundRect,0.281000X-0.311000X0.281000X-0.311000X-0.281000X0.311000X-0.281000X0.311000X0.281000X0*%
%ADD78RoundRect,0.281000X0.311000X-0.281000X0.311000X0.281000X-0.311000X0.281000X-0.311000X-0.281000X0*%
%ADD79RoundRect,0.281000X-0.281000X-0.311000X0.281000X-0.311000X0.281000X0.311000X-0.281000X0.311000X0*%
G04 APERTURE END LIST*
D10*
%TO.C,T1*%
G36*
X116179401Y-93188800D02*
G01*
X116179401Y-96554300D01*
X114477601Y-96554300D01*
X114477601Y-93188800D01*
X115023701Y-92642700D01*
X115023701Y-92718900D01*
X115633301Y-92718900D01*
X115633301Y-92642700D01*
X116179401Y-93188800D01*
G37*
%TO.C,T3*%
G36*
X114550900Y-69767300D02*
G01*
X114004800Y-70313400D01*
X114004800Y-70237200D01*
X113395200Y-70237200D01*
X113395200Y-70313400D01*
X112849100Y-69767300D01*
X112849100Y-66401800D01*
X114550900Y-66401800D01*
X114550900Y-69767300D01*
G37*
%TO.C,T4*%
G36*
X118425900Y-75182700D02*
G01*
X118425900Y-78548200D01*
X116724100Y-78548200D01*
X116724100Y-75182700D01*
X117270200Y-74636600D01*
X117270200Y-74712800D01*
X117879800Y-74712800D01*
X117879800Y-74636600D01*
X118425900Y-75182700D01*
G37*
%TO.C,T2*%
G36*
X116322400Y-84211200D02*
G01*
X115776300Y-84757300D01*
X115776300Y-84681100D01*
X115166700Y-84681100D01*
X115166700Y-84757300D01*
X114620600Y-84211200D01*
X114620600Y-80845700D01*
X116322400Y-80845700D01*
X116322400Y-84211200D01*
G37*
%TO.C,JP2*%
G36*
X185737599Y-120950001D02*
G01*
X184237599Y-120950001D01*
X184237599Y-121250001D01*
X185737599Y-121250001D01*
X185737599Y-120950001D01*
G37*
%TO.C,JP5*%
G36*
X182952600Y-68950000D02*
G01*
X184452600Y-68950000D01*
X184452600Y-68650000D01*
X182952600Y-68650000D01*
X182952600Y-68950000D01*
G37*
%TO.C,JP1*%
G36*
X202027601Y-120574998D02*
G01*
X200527601Y-120574998D01*
X200527601Y-120874998D01*
X202027601Y-120874998D01*
X202027601Y-120574998D01*
G37*
%TO.C,JP4*%
G36*
X169337600Y-106649998D02*
G01*
X169037600Y-106649998D01*
X169037600Y-105149998D01*
X169337600Y-105149998D01*
X169337600Y-106649998D01*
G37*
%TO.C,JP3*%
G36*
X169337600Y-97750000D02*
G01*
X169037600Y-97750000D01*
X169037600Y-96250000D01*
X169337600Y-96250000D01*
X169337600Y-97750000D01*
G37*
%TO.C,JP6*%
G36*
X199402600Y-68950000D02*
G01*
X200902600Y-68950000D01*
X200902600Y-68650000D01*
X199402600Y-68650000D01*
X199402600Y-68950000D01*
G37*
%TD*%
D11*
%TO.C,R31*%
X167162600Y-76440000D03*
X167162600Y-73760000D03*
%TD*%
D12*
%TO.C,R29*%
X171587600Y-78900000D03*
X171587600Y-81580000D03*
%TD*%
%TO.C,R30*%
X164487600Y-78910000D03*
X164487600Y-81590000D03*
%TD*%
D13*
%TO.C,R2*%
X110478501Y-68100000D03*
X108978501Y-68100000D03*
%TD*%
D14*
%TO.C,R1*%
X108978501Y-69700000D03*
X110478501Y-69700000D03*
%TD*%
D15*
%TO.C,R3*%
X117150000Y-70600000D03*
X117150000Y-72100000D03*
%TD*%
D14*
%TO.C,R5*%
X113400000Y-73575000D03*
X114900000Y-73575000D03*
%TD*%
D16*
%TO.C,C15*%
X112757876Y-112207096D03*
X114307876Y-112207096D03*
%TD*%
D17*
%TO.C,R37*%
X111900000Y-92650000D03*
X111900000Y-91150000D03*
%TD*%
D13*
%TO.C,R36*%
X118500000Y-87500000D03*
X117000000Y-87500000D03*
%TD*%
%TO.C,R6*%
X115450000Y-87600000D03*
X113950000Y-87600000D03*
%TD*%
D18*
%TO.C,T1*%
X116828501Y-91906100D03*
D19*
X115328501Y-91906100D03*
D18*
X113828501Y-91906100D03*
%TD*%
%TO.C,T3*%
X112200000Y-71050000D03*
D19*
X113700000Y-71050000D03*
D18*
X115200000Y-71050000D03*
%TD*%
%TO.C,T4*%
X119075000Y-73900000D03*
D19*
X117575000Y-73900000D03*
D18*
X116075000Y-73900000D03*
%TD*%
%TO.C,T2*%
X113971500Y-85493900D03*
D19*
X115471500Y-85493900D03*
D18*
X116971500Y-85493900D03*
%TD*%
D20*
%TO.C,H2*%
X182000000Y-81500000D03*
%TD*%
D21*
%TO.C,TP2*%
X120982871Y-116655627D03*
%TD*%
D17*
%TO.C,R_FF1*%
X134257340Y-97615495D03*
X134257340Y-99115495D03*
%TD*%
D22*
%TO.C,U7*%
X182787599Y-115600000D03*
D23*
X174608799Y-117886000D03*
X174608799Y-113314000D03*
%TD*%
D24*
%TO.C,C20*%
X117509893Y-117615458D03*
X117509893Y-115815458D03*
%TD*%
D21*
%TO.C,TP3*%
X174087600Y-121200000D03*
%TD*%
D25*
%TO.C,CR11*%
X168281400Y-84200000D03*
X165893800Y-84200000D03*
%TD*%
D26*
%TO.C,JP2*%
X184987599Y-121750001D03*
D27*
X184987599Y-120450001D03*
%TD*%
D15*
%TO.C,R_RT1*%
X136657341Y-104643995D03*
X136657341Y-103143995D03*
%TD*%
D28*
%TO.C,F6*%
X197652600Y-67300000D03*
X197652600Y-70300000D03*
%TD*%
D24*
%TO.C,C_OUT4*%
X144636157Y-122250000D03*
X144636157Y-120450000D03*
%TD*%
D29*
%TO.C,R9*%
X175937600Y-111050000D03*
X173587600Y-111050000D03*
%TD*%
D24*
%TO.C,C_OUT3*%
X146737600Y-122250000D03*
X146737600Y-120450000D03*
%TD*%
D30*
%TO.C,JP5*%
X183702600Y-68150000D03*
D31*
X183702600Y-69450000D03*
%TD*%
D32*
%TO.C,D1*%
X119087599Y-66594999D03*
X119087599Y-69804999D03*
%TD*%
D29*
%TO.C,R34*%
X178437600Y-68800000D03*
X176087600Y-68800000D03*
%TD*%
D12*
%TO.C,R24*%
X167087600Y-94740000D03*
X167087600Y-92060000D03*
%TD*%
D33*
%TO.C,R32*%
X193712600Y-68825000D03*
X193712600Y-71175000D03*
%TD*%
D34*
%TO.C,C_IN1*%
X134272602Y-111924997D03*
X134272602Y-109124999D03*
%TD*%
D35*
%TO.C,F3*%
X167687600Y-99550000D03*
X170687600Y-99550000D03*
%TD*%
D11*
%TO.C,R12*%
X162387600Y-113760000D03*
X162387600Y-116440000D03*
%TD*%
D17*
%TO.C,R_RT2*%
X134957339Y-103143996D03*
X134957339Y-104643996D03*
%TD*%
D11*
%TO.C,R14*%
X169487600Y-113760000D03*
X169487600Y-116440000D03*
%TD*%
%TO.C,R26*%
X159950000Y-87120000D03*
X159950000Y-89800000D03*
%TD*%
D36*
%TO.C,K1*%
X124587598Y-69699999D03*
X144587598Y-69699999D03*
X149587598Y-69699999D03*
X149587598Y-77199999D03*
X144587598Y-77199999D03*
X124587598Y-77199999D03*
%TD*%
D26*
%TO.C,JP1*%
X201277601Y-121374998D03*
D27*
X201277601Y-120074998D03*
%TD*%
D37*
%TO.C,L_SW1*%
X139257337Y-120618996D03*
X139257337Y-115168996D03*
%TD*%
D38*
%TO.C,D7*%
X175087598Y-103100000D03*
X179087598Y-103100000D03*
%TD*%
D15*
%TO.C,R_FBB2*%
X136657339Y-101893995D03*
X136657339Y-100393995D03*
%TD*%
D39*
%TO.C,CR9*%
X186002600Y-72150000D03*
X187502600Y-72150000D03*
%TD*%
D40*
%TO.C,K5*%
X188377600Y-78875000D03*
X190917600Y-78875000D03*
X190917600Y-87425000D03*
X188377600Y-87425000D03*
%TD*%
D29*
%TO.C,R27*%
X175962600Y-107300000D03*
X173612600Y-107300000D03*
%TD*%
D22*
%TO.C,U9*%
X180502900Y-74500000D03*
D23*
X172324100Y-76786000D03*
X172324100Y-72214000D03*
%TD*%
D41*
%TO.C,JP4*%
X168537600Y-105899998D03*
D42*
X169837600Y-105899998D03*
%TD*%
D14*
%TO.C,R_BIAS1*%
X143537600Y-103600000D03*
X142037600Y-103600000D03*
%TD*%
D12*
%TO.C,R13*%
X167687600Y-121540000D03*
X167687600Y-118860000D03*
%TD*%
D39*
%TO.C,CR6*%
X187287599Y-117750003D03*
X188787599Y-117750003D03*
%TD*%
D43*
%TO.C,C_IN-BLK1*%
X149051086Y-103537744D03*
X149051086Y-107037744D03*
%TD*%
D14*
%TO.C,R20*%
X116900000Y-113850000D03*
X115400000Y-113850000D03*
%TD*%
D24*
%TO.C,C_OUT2*%
X148837599Y-122250000D03*
X148837599Y-120450000D03*
%TD*%
D44*
%TO.C,CR8*%
X172637600Y-103100000D03*
X172637600Y-104600000D03*
%TD*%
%TO.C,CR7*%
X172637600Y-99750000D03*
X172637600Y-98250000D03*
%TD*%
D40*
%TO.C,K3*%
X190917600Y-110900000D03*
X188377600Y-110900000D03*
X188377600Y-102350000D03*
X190917600Y-102350000D03*
%TD*%
D45*
%TO.C,C_OUT5*%
X148351086Y-114637744D03*
X155051086Y-114637744D03*
%TD*%
D46*
%TO.C,R15*%
X191487600Y-121099999D03*
X191487600Y-118749999D03*
%TD*%
D28*
%TO.C,F1*%
X198837599Y-122650002D03*
X198837599Y-119650002D03*
%TD*%
D21*
%TO.C,TP1*%
X142736159Y-101099999D03*
%TD*%
D34*
%TO.C,C_IN2*%
X144757339Y-112893996D03*
X144757339Y-110093996D03*
%TD*%
D22*
%TO.C,U8*%
X180408650Y-88850000D03*
D23*
X172229850Y-91136000D03*
X172229850Y-86564000D03*
%TD*%
D33*
%TO.C,R28*%
X190157600Y-68825000D03*
X190157600Y-71175000D03*
%TD*%
D17*
%TO.C,R_ENB1*%
X134337600Y-105950000D03*
X134337600Y-107450000D03*
%TD*%
D38*
%TO.C,D5*%
X187677599Y-114224999D03*
X191677599Y-114224999D03*
%TD*%
D29*
%TO.C,R18*%
X175957598Y-95520000D03*
X173607598Y-95520000D03*
%TD*%
D15*
%TO.C,R_BT1*%
X143387599Y-108075000D03*
X143387599Y-106575000D03*
%TD*%
D28*
%TO.C,F2*%
X187487599Y-122600001D03*
X187487599Y-119600001D03*
%TD*%
D47*
%TO.C,U1*%
X141357338Y-107568996D03*
X141357338Y-108068995D03*
D48*
X141207339Y-109143994D03*
D49*
X140907339Y-110493994D03*
D50*
X141207339Y-110293995D03*
D51*
X139757339Y-109693996D03*
D49*
X138607339Y-110483994D03*
D48*
X138307339Y-110283995D03*
D52*
X138307339Y-109143994D03*
D53*
X138157340Y-108068995D03*
X138157340Y-107568996D03*
D54*
X138307339Y-107018995D03*
D55*
X138607339Y-106843996D03*
D56*
X139232339Y-106843996D03*
D57*
X139757339Y-106843996D03*
D58*
X140282339Y-106843996D03*
D54*
X141207339Y-107018995D03*
D55*
X140907339Y-106843996D03*
%TD*%
D35*
%TO.C,F4*%
X167687600Y-103300000D03*
X170687600Y-103300000D03*
%TD*%
D59*
%TO.C,R11*%
X126312600Y-113000000D03*
X128662600Y-113000000D03*
%TD*%
D60*
%TO.C,J4*%
X156112600Y-76300000D03*
D61*
X156112600Y-81300000D03*
%TD*%
D36*
%TO.C,K2*%
X124587600Y-84500000D03*
X144587600Y-84500000D03*
X149587600Y-84500000D03*
X149587600Y-92000000D03*
X144587600Y-92000000D03*
X124587600Y-92000000D03*
%TD*%
D38*
%TO.C,D9*%
X197437600Y-74850000D03*
X193437600Y-74850000D03*
%TD*%
D29*
%TO.C,R33*%
X173437600Y-84200000D03*
X171087600Y-84200000D03*
%TD*%
D62*
%TO.C,DSUB1*%
X200327600Y-90680000D03*
X200327600Y-92970000D03*
X200327600Y-95260000D03*
X200327600Y-97550000D03*
X200327600Y-99840000D03*
X197787600Y-89535000D03*
X197787600Y-91825000D03*
X197787600Y-94115000D03*
X197787600Y-96405000D03*
X197787600Y-98695000D03*
X195247600Y-90680000D03*
X195247600Y-92970000D03*
X195247600Y-95260000D03*
X195247600Y-97550000D03*
X195247600Y-99840000D03*
D63*
X197787600Y-82499000D03*
X197787600Y-107489000D03*
%TD*%
D41*
%TO.C,JP3*%
X168537600Y-97000000D03*
D42*
X169837600Y-97000000D03*
%TD*%
D30*
%TO.C,JP6*%
X200152600Y-68150000D03*
D31*
X200152600Y-69450000D03*
%TD*%
D20*
%TO.C,H1*%
X182000000Y-108500000D03*
%TD*%
D24*
%TO.C,C21*%
X115509896Y-117615452D03*
X115509896Y-115815452D03*
%TD*%
D28*
%TO.C,F5*%
X186212600Y-67300000D03*
X186212600Y-70300000D03*
%TD*%
D64*
%TO.C,C_FF1*%
X135657339Y-99050000D03*
X135657339Y-97907000D03*
%TD*%
D39*
%TO.C,CR10*%
X197862600Y-72150000D03*
X196362600Y-72150000D03*
%TD*%
D25*
%TO.C,CR3*%
X170887600Y-111000000D03*
X168500000Y-111000000D03*
%TD*%
D60*
%TO.C,J5*%
X123887600Y-99825000D03*
D61*
X128887600Y-99825000D03*
%TD*%
D46*
%TO.C,R10*%
X194887600Y-121100004D03*
X194887600Y-118750004D03*
%TD*%
D15*
%TO.C,R_FBT1*%
X137074841Y-99073896D03*
X137074841Y-97573896D03*
%TD*%
D65*
%TO.C,J1*%
X154307700Y-71408700D03*
X155557700Y-71408700D03*
X156807700Y-71408700D03*
X158057700Y-71408700D03*
X159307700Y-71408700D03*
X160557700Y-71408700D03*
X161807701Y-71408700D03*
X163057701Y-71408700D03*
X164307701Y-71408700D03*
X165557701Y-71408700D03*
X166807701Y-71408700D03*
X168057701Y-71408700D03*
%TD*%
D38*
%TO.C,D4*%
X198577601Y-114225000D03*
X194577601Y-114225000D03*
%TD*%
D25*
%TO.C,CR12*%
X173375200Y-68700000D03*
X170987600Y-68700000D03*
%TD*%
D15*
%TO.C,R_ENT1*%
X136057339Y-107443994D03*
X136057339Y-105943994D03*
%TD*%
D66*
%TO.C,K4*%
X182862600Y-98600000D03*
X182862600Y-96060000D03*
X191412600Y-96060000D03*
X191412600Y-98600000D03*
%TD*%
D38*
%TO.C,D3*%
X155387600Y-121200000D03*
X159387600Y-121200000D03*
%TD*%
D17*
%TO.C,R_FBB1*%
X135057340Y-100393995D03*
X135057340Y-101893995D03*
%TD*%
D38*
%TO.C,D6*%
X175087598Y-99724999D03*
X179087598Y-99724999D03*
%TD*%
D39*
%TO.C,CR4*%
X199064130Y-117777360D03*
X197564130Y-117777360D03*
%TD*%
D11*
%TO.C,R25*%
X167093350Y-87110000D03*
X167093350Y-89790000D03*
%TD*%
D20*
%TO.C,H3*%
X122000000Y-108500000D03*
%TD*%
D38*
%TO.C,D8*%
X186427600Y-74860000D03*
X190427600Y-74860000D03*
%TD*%
D14*
%TO.C,R_PG1*%
X140507340Y-101893995D03*
X139007340Y-101893995D03*
%TD*%
D24*
%TO.C,C_OUT1*%
X150937597Y-122250000D03*
X150937597Y-120450000D03*
%TD*%
D32*
%TO.C,D2*%
X119087500Y-91715000D03*
X119087500Y-94925000D03*
%TD*%
D67*
%TO.C,IC1*%
X206227600Y-119451000D03*
X205577600Y-119451000D03*
X204927600Y-119451000D03*
X204277600Y-119451000D03*
X204277600Y-113575000D03*
X204927600Y-113575000D03*
X205577600Y-113575000D03*
X206227600Y-113575000D03*
%TD*%
D68*
%TO.C,IC2*%
X185749600Y-92625000D03*
X185749600Y-91975000D03*
X185749600Y-91325000D03*
X185749600Y-90675000D03*
X191625600Y-90675000D03*
X191625600Y-91325000D03*
X191625600Y-91975000D03*
X191625600Y-92625000D03*
%TD*%
D67*
%TO.C,IC3*%
X206227600Y-75550000D03*
X205577600Y-75550000D03*
X204927600Y-75550000D03*
X204277600Y-75550000D03*
X204277600Y-69674000D03*
X204927600Y-69674000D03*
X205577600Y-69674000D03*
X206227600Y-69674000D03*
%TD*%
D23*
%TO.C,U11*%
X110936271Y-78466626D03*
X110936271Y-73894626D03*
D69*
X102782871Y-76180626D03*
%TD*%
D23*
%TO.C,U3*%
X110936271Y-85966626D03*
X110936271Y-81394626D03*
D69*
X102782871Y-83680626D03*
%TD*%
D14*
%TO.C,R35*%
X113950000Y-89200000D03*
X115450000Y-89200000D03*
%TD*%
D61*
%TO.C,J2*%
X93907870Y-86950627D03*
D60*
X93907870Y-81950627D03*
%TD*%
D14*
%TO.C,R23*%
X111932875Y-119255627D03*
X113432875Y-119255627D03*
%TD*%
%TO.C,R17*%
X106182875Y-112907098D03*
X107682875Y-112907098D03*
%TD*%
%TO.C,R19*%
X112687371Y-113793761D03*
X114187371Y-113793761D03*
%TD*%
D59*
%TO.C,R8*%
X108082869Y-89080626D03*
X105732869Y-89080626D03*
%TD*%
D61*
%TO.C,J3*%
X93882871Y-69580627D03*
D60*
X93882871Y-74580627D03*
%TD*%
D23*
%TO.C,U10*%
X114390621Y-105890155D03*
X114390621Y-101318155D03*
D22*
X106211821Y-103604155D03*
%TD*%
D70*
%TO.C,L2*%
X96932871Y-109279227D03*
X96932871Y-118982027D03*
%TD*%
D71*
%TO.C,C1*%
X93782872Y-93950625D03*
X90982872Y-93950625D03*
%TD*%
D72*
%TO.C,C3*%
X106232871Y-98580627D03*
X106232871Y-95780627D03*
%TD*%
D73*
%TO.C,U6*%
X108532873Y-116907098D03*
D74*
X108182871Y-118757097D03*
X108682873Y-118757097D03*
X109182872Y-118757097D03*
X109682871Y-118757097D03*
X110182873Y-118757097D03*
D73*
X109832871Y-117507097D03*
X109832871Y-116307099D03*
D74*
X110182873Y-115057099D03*
X109682871Y-115057099D03*
X109182872Y-115057099D03*
X108682873Y-115057099D03*
X108182871Y-115057099D03*
%TD*%
D72*
%TO.C,C4*%
X104032871Y-98580627D03*
X104032871Y-95780627D03*
%TD*%
D59*
%TO.C,R4*%
X105000000Y-67750000D03*
X102650000Y-67750000D03*
%TD*%
D75*
%TO.C,L1*%
X92057871Y-100330627D03*
X101107871Y-100330627D03*
%TD*%
D76*
%TO.C,CR2*%
X99282871Y-88278827D03*
X99282871Y-91682427D03*
%TD*%
D14*
%TO.C,R21*%
X111932876Y-122407096D03*
X113432876Y-122407096D03*
%TD*%
D71*
%TO.C,C2*%
X93782872Y-91680627D03*
X90982872Y-91680627D03*
%TD*%
D72*
%TO.C,C6*%
X108432871Y-98580627D03*
X108432871Y-95780627D03*
%TD*%
D25*
%TO.C,CR5*%
X114626671Y-107930627D03*
X112239071Y-107930627D03*
%TD*%
D76*
%TO.C,CR1*%
X99282871Y-70734227D03*
X99282871Y-67330627D03*
%TD*%
D72*
%TO.C,C5*%
X110632871Y-98580627D03*
X110632871Y-95780627D03*
%TD*%
D13*
%TO.C,R16*%
X111222159Y-112922527D03*
X109722159Y-112922527D03*
%TD*%
%TO.C,R22*%
X113432871Y-120855626D03*
X111932871Y-120855626D03*
%TD*%
D16*
%TO.C,C_BIAS1*%
X139082340Y-103593995D03*
X140632340Y-103593995D03*
%TD*%
D77*
%TO.C,C_IN_HFI2*%
X142857340Y-111668995D03*
X142857340Y-110118995D03*
%TD*%
%TO.C,C_IN_HFI1*%
X136172603Y-110699997D03*
X136172603Y-109149997D03*
%TD*%
D16*
%TO.C,C_VCC1*%
X138882339Y-100293995D03*
X140432339Y-100293995D03*
%TD*%
D78*
%TO.C,C_BT1*%
X144987600Y-106550000D03*
X144987600Y-108100000D03*
%TD*%
D77*
%TO.C,C19*%
X113710229Y-117499216D03*
X113710229Y-115949216D03*
%TD*%
%TO.C,C18*%
X109906070Y-120865751D03*
X109906070Y-122415751D03*
%TD*%
D79*
%TO.C,C11*%
X106182871Y-111355627D03*
X107732871Y-111355627D03*
%TD*%
%TO.C,C10*%
X106193585Y-109790193D03*
X107743585Y-109790193D03*
%TD*%
D77*
%TO.C,C13*%
X106679072Y-120883570D03*
X106679072Y-122433570D03*
%TD*%
D78*
%TO.C,C14*%
X105932875Y-116307094D03*
X105932875Y-114757094D03*
%TD*%
D16*
%TO.C,C12*%
X106532877Y-118757097D03*
X104982877Y-118757097D03*
%TD*%
D79*
%TO.C,C9*%
X106193587Y-108190192D03*
X107743587Y-108190192D03*
%TD*%
D77*
%TO.C,C17*%
X108332876Y-120882095D03*
X108332876Y-122432095D03*
%TD*%
D78*
%TO.C,C7*%
X101800000Y-71725000D03*
X101800000Y-70175000D03*
%TD*%
D77*
%TO.C,C16*%
X112132876Y-115957096D03*
X112132876Y-117507096D03*
%TD*%
D79*
%TO.C,C8*%
X101832870Y-89113023D03*
X103382870Y-89113023D03*
%TD*%
M02*
