%TF.GenerationSoftware,KiCad,Pcbnew,9.0.3+1*%
%TF.CreationDate,2025-08-21T21:39:01+01:00*%
%TF.ProjectId,Elytra,456c7974-7261-42e6-9b69-6361645f7063,rev?*%
%TF.SameCoordinates,Original*%
%TF.FileFunction,Drillmap*%
%TF.FilePolarity,Positive*%
%FSLAX45Y45*%
G04 Gerber Fmt 4.5, Leading zero omitted, Abs format (unit mm)*
G04 Created by KiCad (PCBNEW 9.0.3+1) date 2025-08-21 21:39:01*
%MOMM*%
%LPD*%
G01*
G04 APERTURE LIST*
%ADD10C,0.050000*%
%ADD11C,0.200000*%
%ADD12C,0.109220*%
%ADD13C,0.310000*%
%ADD14C,0.320000*%
G04 APERTURE END LIST*
D10*
X20928760Y-12185000D02*
X20928760Y-6820000D01*
X20928760Y-12185000D02*
G75*
G02*
X20608760Y-12500039I-320000J5000D01*
G01*
X20608760Y-6500000D02*
G75*
G02*
X20928760Y-6820000I0J-320000D01*
G01*
X9248287Y-12498063D02*
G75*
G02*
X8928287Y-12178063I0J320000D01*
G01*
X9248287Y-12498063D02*
X20608760Y-12500039D01*
X20608760Y-6500000D02*
X9250787Y-6498063D01*
X8930787Y-6818063D02*
G75*
G02*
X9250787Y-6498063I320000J0D01*
G01*
X8930787Y-6818063D02*
X8928287Y-12178063D01*
D11*
D12*
X15281160Y-6816260D02*
X15390380Y-6925480D01*
X15390380Y-6816260D02*
X15281160Y-6925480D01*
X16846160Y-6816260D02*
X16955380Y-6925480D01*
X16955380Y-6816260D02*
X16846160Y-6925480D01*
D13*
X19933760Y-8249900D02*
G75*
G02*
X19623760Y-8249900I-155000J0D01*
G01*
X19623760Y-8249900D02*
G75*
G02*
X19933760Y-8249900I155000J0D01*
G01*
X19933760Y-10748900D02*
G75*
G02*
X19623760Y-10748900I-155000J0D01*
G01*
X19623760Y-10748900D02*
G75*
G02*
X19933760Y-10748900I155000J0D01*
G01*
D14*
X12200000Y-10690000D02*
X12200000Y-11010000D01*
X12040000Y-10850000D02*
X12360000Y-10850000D01*
X18200000Y-7990000D02*
X18200000Y-8310000D01*
X18040000Y-8150000D02*
X18360000Y-8150000D01*
X18200000Y-10690000D02*
X18200000Y-11010000D01*
X18040000Y-10850000D02*
X18360000Y-10850000D01*
D11*
X9186564Y-12814023D02*
X9186564Y-12614023D01*
X9186564Y-12614023D02*
X9234183Y-12614023D01*
X9234183Y-12614023D02*
X9262754Y-12623547D01*
X9262754Y-12623547D02*
X9281802Y-12642594D01*
X9281802Y-12642594D02*
X9291326Y-12661642D01*
X9291326Y-12661642D02*
X9300850Y-12699737D01*
X9300850Y-12699737D02*
X9300850Y-12728309D01*
X9300850Y-12728309D02*
X9291326Y-12766404D01*
X9291326Y-12766404D02*
X9281802Y-12785451D01*
X9281802Y-12785451D02*
X9262754Y-12804499D01*
X9262754Y-12804499D02*
X9234183Y-12814023D01*
X9234183Y-12814023D02*
X9186564Y-12814023D01*
X9386564Y-12814023D02*
X9386564Y-12680689D01*
X9386564Y-12718785D02*
X9396088Y-12699737D01*
X9396088Y-12699737D02*
X9405612Y-12690213D01*
X9405612Y-12690213D02*
X9424659Y-12680689D01*
X9424659Y-12680689D02*
X9443707Y-12680689D01*
X9510373Y-12814023D02*
X9510373Y-12680689D01*
X9510373Y-12614023D02*
X9500850Y-12623547D01*
X9500850Y-12623547D02*
X9510373Y-12633070D01*
X9510373Y-12633070D02*
X9519897Y-12623547D01*
X9519897Y-12623547D02*
X9510373Y-12614023D01*
X9510373Y-12614023D02*
X9510373Y-12633070D01*
X9634183Y-12814023D02*
X9615135Y-12804499D01*
X9615135Y-12804499D02*
X9605612Y-12785451D01*
X9605612Y-12785451D02*
X9605612Y-12614023D01*
X9738945Y-12814023D02*
X9719897Y-12804499D01*
X9719897Y-12804499D02*
X9710373Y-12785451D01*
X9710373Y-12785451D02*
X9710373Y-12614023D01*
X9967516Y-12814023D02*
X9967516Y-12614023D01*
X9967516Y-12614023D02*
X10034183Y-12756880D01*
X10034183Y-12756880D02*
X10100850Y-12614023D01*
X10100850Y-12614023D02*
X10100850Y-12814023D01*
X10281802Y-12814023D02*
X10281802Y-12709261D01*
X10281802Y-12709261D02*
X10272278Y-12690213D01*
X10272278Y-12690213D02*
X10253231Y-12680689D01*
X10253231Y-12680689D02*
X10215135Y-12680689D01*
X10215135Y-12680689D02*
X10196088Y-12690213D01*
X10281802Y-12804499D02*
X10262754Y-12814023D01*
X10262754Y-12814023D02*
X10215135Y-12814023D01*
X10215135Y-12814023D02*
X10196088Y-12804499D01*
X10196088Y-12804499D02*
X10186564Y-12785451D01*
X10186564Y-12785451D02*
X10186564Y-12766404D01*
X10186564Y-12766404D02*
X10196088Y-12747356D01*
X10196088Y-12747356D02*
X10215135Y-12737832D01*
X10215135Y-12737832D02*
X10262754Y-12737832D01*
X10262754Y-12737832D02*
X10281802Y-12728309D01*
X10377040Y-12680689D02*
X10377040Y-12880689D01*
X10377040Y-12690213D02*
X10396088Y-12680689D01*
X10396088Y-12680689D02*
X10434183Y-12680689D01*
X10434183Y-12680689D02*
X10453231Y-12690213D01*
X10453231Y-12690213D02*
X10462754Y-12699737D01*
X10462754Y-12699737D02*
X10472278Y-12718785D01*
X10472278Y-12718785D02*
X10472278Y-12775928D01*
X10472278Y-12775928D02*
X10462754Y-12794975D01*
X10462754Y-12794975D02*
X10453231Y-12804499D01*
X10453231Y-12804499D02*
X10434183Y-12814023D01*
X10434183Y-12814023D02*
X10396088Y-12814023D01*
X10396088Y-12814023D02*
X10377040Y-12804499D01*
X10557993Y-12794975D02*
X10567516Y-12804499D01*
X10567516Y-12804499D02*
X10557993Y-12814023D01*
X10557993Y-12814023D02*
X10548469Y-12804499D01*
X10548469Y-12804499D02*
X10557993Y-12794975D01*
X10557993Y-12794975D02*
X10557993Y-12814023D01*
X10557993Y-12690213D02*
X10567516Y-12699737D01*
X10567516Y-12699737D02*
X10557993Y-12709261D01*
X10557993Y-12709261D02*
X10548469Y-12699737D01*
X10548469Y-12699737D02*
X10557993Y-12690213D01*
X10557993Y-12690213D02*
X10557993Y-12709261D01*
D12*
X8816567Y-13087929D02*
X8925787Y-13197149D01*
X8925787Y-13087929D02*
X8816567Y-13197149D01*
D11*
X9291326Y-13234023D02*
X9177040Y-13234023D01*
X9234183Y-13234023D02*
X9234183Y-13034023D01*
X9234183Y-13034023D02*
X9215135Y-13062594D01*
X9215135Y-13062594D02*
X9196088Y-13081642D01*
X9196088Y-13081642D02*
X9177040Y-13091166D01*
X9377040Y-13214975D02*
X9386564Y-13224499D01*
X9386564Y-13224499D02*
X9377040Y-13234023D01*
X9377040Y-13234023D02*
X9367516Y-13224499D01*
X9367516Y-13224499D02*
X9377040Y-13214975D01*
X9377040Y-13214975D02*
X9377040Y-13234023D01*
X9510373Y-13034023D02*
X9529421Y-13034023D01*
X9529421Y-13034023D02*
X9548469Y-13043547D01*
X9548469Y-13043547D02*
X9557993Y-13053070D01*
X9557993Y-13053070D02*
X9567516Y-13072118D01*
X9567516Y-13072118D02*
X9577040Y-13110213D01*
X9577040Y-13110213D02*
X9577040Y-13157832D01*
X9577040Y-13157832D02*
X9567516Y-13195928D01*
X9567516Y-13195928D02*
X9557993Y-13214975D01*
X9557993Y-13214975D02*
X9548469Y-13224499D01*
X9548469Y-13224499D02*
X9529421Y-13234023D01*
X9529421Y-13234023D02*
X9510373Y-13234023D01*
X9510373Y-13234023D02*
X9491326Y-13224499D01*
X9491326Y-13224499D02*
X9481802Y-13214975D01*
X9481802Y-13214975D02*
X9472278Y-13195928D01*
X9472278Y-13195928D02*
X9462754Y-13157832D01*
X9462754Y-13157832D02*
X9462754Y-13110213D01*
X9462754Y-13110213D02*
X9472278Y-13072118D01*
X9472278Y-13072118D02*
X9481802Y-13053070D01*
X9481802Y-13053070D02*
X9491326Y-13043547D01*
X9491326Y-13043547D02*
X9510373Y-13034023D01*
X9672278Y-13234023D02*
X9710373Y-13234023D01*
X9710373Y-13234023D02*
X9729421Y-13224499D01*
X9729421Y-13224499D02*
X9738945Y-13214975D01*
X9738945Y-13214975D02*
X9757993Y-13186404D01*
X9757993Y-13186404D02*
X9767516Y-13148309D01*
X9767516Y-13148309D02*
X9767516Y-13072118D01*
X9767516Y-13072118D02*
X9757993Y-13053070D01*
X9757993Y-13053070D02*
X9748469Y-13043547D01*
X9748469Y-13043547D02*
X9729421Y-13034023D01*
X9729421Y-13034023D02*
X9691326Y-13034023D01*
X9691326Y-13034023D02*
X9672278Y-13043547D01*
X9672278Y-13043547D02*
X9662754Y-13053070D01*
X9662754Y-13053070D02*
X9653231Y-13072118D01*
X9653231Y-13072118D02*
X9653231Y-13119737D01*
X9653231Y-13119737D02*
X9662754Y-13138785D01*
X9662754Y-13138785D02*
X9672278Y-13148309D01*
X9672278Y-13148309D02*
X9691326Y-13157832D01*
X9691326Y-13157832D02*
X9729421Y-13157832D01*
X9729421Y-13157832D02*
X9748469Y-13148309D01*
X9748469Y-13148309D02*
X9757993Y-13138785D01*
X9757993Y-13138785D02*
X9767516Y-13119737D01*
X9843707Y-13053070D02*
X9853231Y-13043547D01*
X9853231Y-13043547D02*
X9872278Y-13034023D01*
X9872278Y-13034023D02*
X9919897Y-13034023D01*
X9919897Y-13034023D02*
X9938945Y-13043547D01*
X9938945Y-13043547D02*
X9948469Y-13053070D01*
X9948469Y-13053070D02*
X9957993Y-13072118D01*
X9957993Y-13072118D02*
X9957993Y-13091166D01*
X9957993Y-13091166D02*
X9948469Y-13119737D01*
X9948469Y-13119737D02*
X9834183Y-13234023D01*
X9834183Y-13234023D02*
X9957993Y-13234023D01*
X10043707Y-13234023D02*
X10043707Y-13100689D01*
X10043707Y-13119737D02*
X10053231Y-13110213D01*
X10053231Y-13110213D02*
X10072278Y-13100689D01*
X10072278Y-13100689D02*
X10100850Y-13100689D01*
X10100850Y-13100689D02*
X10119897Y-13110213D01*
X10119897Y-13110213D02*
X10129421Y-13129261D01*
X10129421Y-13129261D02*
X10129421Y-13234023D01*
X10129421Y-13129261D02*
X10138945Y-13110213D01*
X10138945Y-13110213D02*
X10157993Y-13100689D01*
X10157993Y-13100689D02*
X10186564Y-13100689D01*
X10186564Y-13100689D02*
X10205612Y-13110213D01*
X10205612Y-13110213D02*
X10215135Y-13129261D01*
X10215135Y-13129261D02*
X10215135Y-13234023D01*
X10310374Y-13234023D02*
X10310374Y-13100689D01*
X10310374Y-13119737D02*
X10319897Y-13110213D01*
X10319897Y-13110213D02*
X10338945Y-13100689D01*
X10338945Y-13100689D02*
X10367516Y-13100689D01*
X10367516Y-13100689D02*
X10386564Y-13110213D01*
X10386564Y-13110213D02*
X10396088Y-13129261D01*
X10396088Y-13129261D02*
X10396088Y-13234023D01*
X10396088Y-13129261D02*
X10405612Y-13110213D01*
X10405612Y-13110213D02*
X10424659Y-13100689D01*
X10424659Y-13100689D02*
X10453231Y-13100689D01*
X10453231Y-13100689D02*
X10472278Y-13110213D01*
X10472278Y-13110213D02*
X10481802Y-13129261D01*
X10481802Y-13129261D02*
X10481802Y-13234023D01*
X10872278Y-13024499D02*
X10700850Y-13281642D01*
X11129421Y-13034023D02*
X11148469Y-13034023D01*
X11148469Y-13034023D02*
X11167517Y-13043547D01*
X11167517Y-13043547D02*
X11177040Y-13053070D01*
X11177040Y-13053070D02*
X11186564Y-13072118D01*
X11186564Y-13072118D02*
X11196088Y-13110213D01*
X11196088Y-13110213D02*
X11196088Y-13157832D01*
X11196088Y-13157832D02*
X11186564Y-13195928D01*
X11186564Y-13195928D02*
X11177040Y-13214975D01*
X11177040Y-13214975D02*
X11167517Y-13224499D01*
X11167517Y-13224499D02*
X11148469Y-13234023D01*
X11148469Y-13234023D02*
X11129421Y-13234023D01*
X11129421Y-13234023D02*
X11110374Y-13224499D01*
X11110374Y-13224499D02*
X11100850Y-13214975D01*
X11100850Y-13214975D02*
X11091326Y-13195928D01*
X11091326Y-13195928D02*
X11081802Y-13157832D01*
X11081802Y-13157832D02*
X11081802Y-13110213D01*
X11081802Y-13110213D02*
X11091326Y-13072118D01*
X11091326Y-13072118D02*
X11100850Y-13053070D01*
X11100850Y-13053070D02*
X11110374Y-13043547D01*
X11110374Y-13043547D02*
X11129421Y-13034023D01*
X11281802Y-13214975D02*
X11291326Y-13224499D01*
X11291326Y-13224499D02*
X11281802Y-13234023D01*
X11281802Y-13234023D02*
X11272278Y-13224499D01*
X11272278Y-13224499D02*
X11281802Y-13214975D01*
X11281802Y-13214975D02*
X11281802Y-13234023D01*
X11415135Y-13034023D02*
X11434183Y-13034023D01*
X11434183Y-13034023D02*
X11453231Y-13043547D01*
X11453231Y-13043547D02*
X11462755Y-13053070D01*
X11462755Y-13053070D02*
X11472278Y-13072118D01*
X11472278Y-13072118D02*
X11481802Y-13110213D01*
X11481802Y-13110213D02*
X11481802Y-13157832D01*
X11481802Y-13157832D02*
X11472278Y-13195928D01*
X11472278Y-13195928D02*
X11462755Y-13214975D01*
X11462755Y-13214975D02*
X11453231Y-13224499D01*
X11453231Y-13224499D02*
X11434183Y-13234023D01*
X11434183Y-13234023D02*
X11415135Y-13234023D01*
X11415135Y-13234023D02*
X11396088Y-13224499D01*
X11396088Y-13224499D02*
X11386564Y-13214975D01*
X11386564Y-13214975D02*
X11377040Y-13195928D01*
X11377040Y-13195928D02*
X11367516Y-13157832D01*
X11367516Y-13157832D02*
X11367516Y-13110213D01*
X11367516Y-13110213D02*
X11377040Y-13072118D01*
X11377040Y-13072118D02*
X11386564Y-13053070D01*
X11386564Y-13053070D02*
X11396088Y-13043547D01*
X11396088Y-13043547D02*
X11415135Y-13034023D01*
X11653231Y-13100689D02*
X11653231Y-13234023D01*
X11605612Y-13024499D02*
X11557993Y-13167356D01*
X11557993Y-13167356D02*
X11681802Y-13167356D01*
X11738945Y-13034023D02*
X11862755Y-13034023D01*
X11862755Y-13034023D02*
X11796088Y-13110213D01*
X11796088Y-13110213D02*
X11824659Y-13110213D01*
X11824659Y-13110213D02*
X11843707Y-13119737D01*
X11843707Y-13119737D02*
X11853231Y-13129261D01*
X11853231Y-13129261D02*
X11862755Y-13148309D01*
X11862755Y-13148309D02*
X11862755Y-13195928D01*
X11862755Y-13195928D02*
X11853231Y-13214975D01*
X11853231Y-13214975D02*
X11843707Y-13224499D01*
X11843707Y-13224499D02*
X11824659Y-13234023D01*
X11824659Y-13234023D02*
X11767516Y-13234023D01*
X11767516Y-13234023D02*
X11748469Y-13224499D01*
X11748469Y-13224499D02*
X11738945Y-13214975D01*
X11986564Y-13034023D02*
X12005612Y-13034023D01*
X12005612Y-13034023D02*
X12024659Y-13043547D01*
X12024659Y-13043547D02*
X12034183Y-13053070D01*
X12034183Y-13053070D02*
X12043707Y-13072118D01*
X12043707Y-13072118D02*
X12053231Y-13110213D01*
X12053231Y-13110213D02*
X12053231Y-13157832D01*
X12053231Y-13157832D02*
X12043707Y-13195928D01*
X12043707Y-13195928D02*
X12034183Y-13214975D01*
X12034183Y-13214975D02*
X12024659Y-13224499D01*
X12024659Y-13224499D02*
X12005612Y-13234023D01*
X12005612Y-13234023D02*
X11986564Y-13234023D01*
X11986564Y-13234023D02*
X11967516Y-13224499D01*
X11967516Y-13224499D02*
X11957993Y-13214975D01*
X11957993Y-13214975D02*
X11948469Y-13195928D01*
X11948469Y-13195928D02*
X11938945Y-13157832D01*
X11938945Y-13157832D02*
X11938945Y-13110213D01*
X11938945Y-13110213D02*
X11948469Y-13072118D01*
X11948469Y-13072118D02*
X11957993Y-13053070D01*
X11957993Y-13053070D02*
X11967516Y-13043547D01*
X11967516Y-13043547D02*
X11986564Y-13034023D01*
X12129421Y-13034023D02*
X12129421Y-13072118D01*
X12205612Y-13034023D02*
X12205612Y-13072118D01*
X12500850Y-13310213D02*
X12491326Y-13300689D01*
X12491326Y-13300689D02*
X12472278Y-13272118D01*
X12472278Y-13272118D02*
X12462755Y-13253070D01*
X12462755Y-13253070D02*
X12453231Y-13224499D01*
X12453231Y-13224499D02*
X12443707Y-13176880D01*
X12443707Y-13176880D02*
X12443707Y-13138785D01*
X12443707Y-13138785D02*
X12453231Y-13091166D01*
X12453231Y-13091166D02*
X12462755Y-13062594D01*
X12462755Y-13062594D02*
X12472278Y-13043547D01*
X12472278Y-13043547D02*
X12491326Y-13014975D01*
X12491326Y-13014975D02*
X12500850Y-13005451D01*
X12567517Y-13053070D02*
X12577040Y-13043547D01*
X12577040Y-13043547D02*
X12596088Y-13034023D01*
X12596088Y-13034023D02*
X12643707Y-13034023D01*
X12643707Y-13034023D02*
X12662755Y-13043547D01*
X12662755Y-13043547D02*
X12672278Y-13053070D01*
X12672278Y-13053070D02*
X12681802Y-13072118D01*
X12681802Y-13072118D02*
X12681802Y-13091166D01*
X12681802Y-13091166D02*
X12672278Y-13119737D01*
X12672278Y-13119737D02*
X12557993Y-13234023D01*
X12557993Y-13234023D02*
X12681802Y-13234023D01*
X12919898Y-13234023D02*
X12919898Y-13034023D01*
X13005612Y-13234023D02*
X13005612Y-13129261D01*
X13005612Y-13129261D02*
X12996088Y-13110213D01*
X12996088Y-13110213D02*
X12977040Y-13100689D01*
X12977040Y-13100689D02*
X12948469Y-13100689D01*
X12948469Y-13100689D02*
X12929421Y-13110213D01*
X12929421Y-13110213D02*
X12919898Y-13119737D01*
X13129421Y-13234023D02*
X13110374Y-13224499D01*
X13110374Y-13224499D02*
X13100850Y-13214975D01*
X13100850Y-13214975D02*
X13091326Y-13195928D01*
X13091326Y-13195928D02*
X13091326Y-13138785D01*
X13091326Y-13138785D02*
X13100850Y-13119737D01*
X13100850Y-13119737D02*
X13110374Y-13110213D01*
X13110374Y-13110213D02*
X13129421Y-13100689D01*
X13129421Y-13100689D02*
X13157993Y-13100689D01*
X13157993Y-13100689D02*
X13177040Y-13110213D01*
X13177040Y-13110213D02*
X13186564Y-13119737D01*
X13186564Y-13119737D02*
X13196088Y-13138785D01*
X13196088Y-13138785D02*
X13196088Y-13195928D01*
X13196088Y-13195928D02*
X13186564Y-13214975D01*
X13186564Y-13214975D02*
X13177040Y-13224499D01*
X13177040Y-13224499D02*
X13157993Y-13234023D01*
X13157993Y-13234023D02*
X13129421Y-13234023D01*
X13310374Y-13234023D02*
X13291326Y-13224499D01*
X13291326Y-13224499D02*
X13281802Y-13205451D01*
X13281802Y-13205451D02*
X13281802Y-13034023D01*
X13462755Y-13224499D02*
X13443707Y-13234023D01*
X13443707Y-13234023D02*
X13405612Y-13234023D01*
X13405612Y-13234023D02*
X13386564Y-13224499D01*
X13386564Y-13224499D02*
X13377040Y-13205451D01*
X13377040Y-13205451D02*
X13377040Y-13129261D01*
X13377040Y-13129261D02*
X13386564Y-13110213D01*
X13386564Y-13110213D02*
X13405612Y-13100689D01*
X13405612Y-13100689D02*
X13443707Y-13100689D01*
X13443707Y-13100689D02*
X13462755Y-13110213D01*
X13462755Y-13110213D02*
X13472279Y-13129261D01*
X13472279Y-13129261D02*
X13472279Y-13148309D01*
X13472279Y-13148309D02*
X13377040Y-13167356D01*
X13548469Y-13224499D02*
X13567517Y-13234023D01*
X13567517Y-13234023D02*
X13605612Y-13234023D01*
X13605612Y-13234023D02*
X13624660Y-13224499D01*
X13624660Y-13224499D02*
X13634183Y-13205451D01*
X13634183Y-13205451D02*
X13634183Y-13195928D01*
X13634183Y-13195928D02*
X13624660Y-13176880D01*
X13624660Y-13176880D02*
X13605612Y-13167356D01*
X13605612Y-13167356D02*
X13577040Y-13167356D01*
X13577040Y-13167356D02*
X13557993Y-13157832D01*
X13557993Y-13157832D02*
X13548469Y-13138785D01*
X13548469Y-13138785D02*
X13548469Y-13129261D01*
X13548469Y-13129261D02*
X13557993Y-13110213D01*
X13557993Y-13110213D02*
X13577040Y-13100689D01*
X13577040Y-13100689D02*
X13605612Y-13100689D01*
X13605612Y-13100689D02*
X13624660Y-13110213D01*
X13700850Y-13310213D02*
X13710374Y-13300689D01*
X13710374Y-13300689D02*
X13729421Y-13272118D01*
X13729421Y-13272118D02*
X13738945Y-13253070D01*
X13738945Y-13253070D02*
X13748469Y-13224499D01*
X13748469Y-13224499D02*
X13757993Y-13176880D01*
X13757993Y-13176880D02*
X13757993Y-13138785D01*
X13757993Y-13138785D02*
X13748469Y-13091166D01*
X13748469Y-13091166D02*
X13738945Y-13062594D01*
X13738945Y-13062594D02*
X13729421Y-13043547D01*
X13729421Y-13043547D02*
X13710374Y-13014975D01*
X13710374Y-13014975D02*
X13700850Y-13005451D01*
X14062755Y-13310213D02*
X14053231Y-13300689D01*
X14053231Y-13300689D02*
X14034183Y-13272118D01*
X14034183Y-13272118D02*
X14024660Y-13253070D01*
X14024660Y-13253070D02*
X14015136Y-13224499D01*
X14015136Y-13224499D02*
X14005612Y-13176880D01*
X14005612Y-13176880D02*
X14005612Y-13138785D01*
X14005612Y-13138785D02*
X14015136Y-13091166D01*
X14015136Y-13091166D02*
X14024660Y-13062594D01*
X14024660Y-13062594D02*
X14034183Y-13043547D01*
X14034183Y-13043547D02*
X14053231Y-13014975D01*
X14053231Y-13014975D02*
X14062755Y-13005451D01*
X14138945Y-13100689D02*
X14138945Y-13234023D01*
X14138945Y-13119737D02*
X14148469Y-13110213D01*
X14148469Y-13110213D02*
X14167517Y-13100689D01*
X14167517Y-13100689D02*
X14196088Y-13100689D01*
X14196088Y-13100689D02*
X14215136Y-13110213D01*
X14215136Y-13110213D02*
X14224660Y-13129261D01*
X14224660Y-13129261D02*
X14224660Y-13234023D01*
X14348469Y-13234023D02*
X14329421Y-13224499D01*
X14329421Y-13224499D02*
X14319898Y-13214975D01*
X14319898Y-13214975D02*
X14310374Y-13195928D01*
X14310374Y-13195928D02*
X14310374Y-13138785D01*
X14310374Y-13138785D02*
X14319898Y-13119737D01*
X14319898Y-13119737D02*
X14329421Y-13110213D01*
X14329421Y-13110213D02*
X14348469Y-13100689D01*
X14348469Y-13100689D02*
X14377041Y-13100689D01*
X14377041Y-13100689D02*
X14396088Y-13110213D01*
X14396088Y-13110213D02*
X14405612Y-13119737D01*
X14405612Y-13119737D02*
X14415136Y-13138785D01*
X14415136Y-13138785D02*
X14415136Y-13195928D01*
X14415136Y-13195928D02*
X14405612Y-13214975D01*
X14405612Y-13214975D02*
X14396088Y-13224499D01*
X14396088Y-13224499D02*
X14377041Y-13234023D01*
X14377041Y-13234023D02*
X14348469Y-13234023D01*
X14472279Y-13100689D02*
X14548469Y-13100689D01*
X14500850Y-13034023D02*
X14500850Y-13205451D01*
X14500850Y-13205451D02*
X14510374Y-13224499D01*
X14510374Y-13224499D02*
X14529421Y-13234023D01*
X14529421Y-13234023D02*
X14548469Y-13234023D01*
X14767517Y-13100689D02*
X14767517Y-13300689D01*
X14767517Y-13110213D02*
X14786564Y-13100689D01*
X14786564Y-13100689D02*
X14824660Y-13100689D01*
X14824660Y-13100689D02*
X14843707Y-13110213D01*
X14843707Y-13110213D02*
X14853231Y-13119737D01*
X14853231Y-13119737D02*
X14862755Y-13138785D01*
X14862755Y-13138785D02*
X14862755Y-13195928D01*
X14862755Y-13195928D02*
X14853231Y-13214975D01*
X14853231Y-13214975D02*
X14843707Y-13224499D01*
X14843707Y-13224499D02*
X14824660Y-13234023D01*
X14824660Y-13234023D02*
X14786564Y-13234023D01*
X14786564Y-13234023D02*
X14767517Y-13224499D01*
X14977041Y-13234023D02*
X14957993Y-13224499D01*
X14957993Y-13224499D02*
X14948469Y-13205451D01*
X14948469Y-13205451D02*
X14948469Y-13034023D01*
X15138945Y-13234023D02*
X15138945Y-13129261D01*
X15138945Y-13129261D02*
X15129422Y-13110213D01*
X15129422Y-13110213D02*
X15110374Y-13100689D01*
X15110374Y-13100689D02*
X15072279Y-13100689D01*
X15072279Y-13100689D02*
X15053231Y-13110213D01*
X15138945Y-13224499D02*
X15119898Y-13234023D01*
X15119898Y-13234023D02*
X15072279Y-13234023D01*
X15072279Y-13234023D02*
X15053231Y-13224499D01*
X15053231Y-13224499D02*
X15043707Y-13205451D01*
X15043707Y-13205451D02*
X15043707Y-13186404D01*
X15043707Y-13186404D02*
X15053231Y-13167356D01*
X15053231Y-13167356D02*
X15072279Y-13157832D01*
X15072279Y-13157832D02*
X15119898Y-13157832D01*
X15119898Y-13157832D02*
X15138945Y-13148309D01*
X15205612Y-13100689D02*
X15281802Y-13100689D01*
X15234183Y-13034023D02*
X15234183Y-13205451D01*
X15234183Y-13205451D02*
X15243707Y-13224499D01*
X15243707Y-13224499D02*
X15262755Y-13234023D01*
X15262755Y-13234023D02*
X15281802Y-13234023D01*
X15424660Y-13224499D02*
X15405612Y-13234023D01*
X15405612Y-13234023D02*
X15367517Y-13234023D01*
X15367517Y-13234023D02*
X15348469Y-13224499D01*
X15348469Y-13224499D02*
X15338945Y-13205451D01*
X15338945Y-13205451D02*
X15338945Y-13129261D01*
X15338945Y-13129261D02*
X15348469Y-13110213D01*
X15348469Y-13110213D02*
X15367517Y-13100689D01*
X15367517Y-13100689D02*
X15405612Y-13100689D01*
X15405612Y-13100689D02*
X15424660Y-13110213D01*
X15424660Y-13110213D02*
X15434183Y-13129261D01*
X15434183Y-13129261D02*
X15434183Y-13148309D01*
X15434183Y-13148309D02*
X15338945Y-13167356D01*
X15605612Y-13234023D02*
X15605612Y-13034023D01*
X15605612Y-13224499D02*
X15586564Y-13234023D01*
X15586564Y-13234023D02*
X15548469Y-13234023D01*
X15548469Y-13234023D02*
X15529422Y-13224499D01*
X15529422Y-13224499D02*
X15519898Y-13214975D01*
X15519898Y-13214975D02*
X15510374Y-13195928D01*
X15510374Y-13195928D02*
X15510374Y-13138785D01*
X15510374Y-13138785D02*
X15519898Y-13119737D01*
X15519898Y-13119737D02*
X15529422Y-13110213D01*
X15529422Y-13110213D02*
X15548469Y-13100689D01*
X15548469Y-13100689D02*
X15586564Y-13100689D01*
X15586564Y-13100689D02*
X15605612Y-13110213D01*
X15681803Y-13310213D02*
X15691326Y-13300689D01*
X15691326Y-13300689D02*
X15710374Y-13272118D01*
X15710374Y-13272118D02*
X15719898Y-13253070D01*
X15719898Y-13253070D02*
X15729422Y-13224499D01*
X15729422Y-13224499D02*
X15738945Y-13176880D01*
X15738945Y-13176880D02*
X15738945Y-13138785D01*
X15738945Y-13138785D02*
X15729422Y-13091166D01*
X15729422Y-13091166D02*
X15719898Y-13062594D01*
X15719898Y-13062594D02*
X15710374Y-13043547D01*
X15710374Y-13043547D02*
X15691326Y-13014975D01*
X15691326Y-13014975D02*
X15681803Y-13005451D01*
X8925787Y-13406539D02*
G75*
G02*
X8725787Y-13406539I-100000J0D01*
G01*
X8725787Y-13406539D02*
G75*
G02*
X8925787Y-13406539I100000J0D01*
G01*
X9167516Y-13298023D02*
X9291326Y-13298023D01*
X9291326Y-13298023D02*
X9224659Y-13374213D01*
X9224659Y-13374213D02*
X9253231Y-13374213D01*
X9253231Y-13374213D02*
X9272278Y-13383737D01*
X9272278Y-13383737D02*
X9281802Y-13393261D01*
X9281802Y-13393261D02*
X9291326Y-13412309D01*
X9291326Y-13412309D02*
X9291326Y-13459928D01*
X9291326Y-13459928D02*
X9281802Y-13478975D01*
X9281802Y-13478975D02*
X9272278Y-13488499D01*
X9272278Y-13488499D02*
X9253231Y-13498023D01*
X9253231Y-13498023D02*
X9196088Y-13498023D01*
X9196088Y-13498023D02*
X9177040Y-13488499D01*
X9177040Y-13488499D02*
X9167516Y-13478975D01*
X9377040Y-13478975D02*
X9386564Y-13488499D01*
X9386564Y-13488499D02*
X9377040Y-13498023D01*
X9377040Y-13498023D02*
X9367516Y-13488499D01*
X9367516Y-13488499D02*
X9377040Y-13478975D01*
X9377040Y-13478975D02*
X9377040Y-13498023D01*
X9577040Y-13498023D02*
X9462754Y-13498023D01*
X9519897Y-13498023D02*
X9519897Y-13298023D01*
X9519897Y-13298023D02*
X9500850Y-13326594D01*
X9500850Y-13326594D02*
X9481802Y-13345642D01*
X9481802Y-13345642D02*
X9462754Y-13355166D01*
X9700850Y-13298023D02*
X9719897Y-13298023D01*
X9719897Y-13298023D02*
X9738945Y-13307547D01*
X9738945Y-13307547D02*
X9748469Y-13317070D01*
X9748469Y-13317070D02*
X9757993Y-13336118D01*
X9757993Y-13336118D02*
X9767516Y-13374213D01*
X9767516Y-13374213D02*
X9767516Y-13421832D01*
X9767516Y-13421832D02*
X9757993Y-13459928D01*
X9757993Y-13459928D02*
X9748469Y-13478975D01*
X9748469Y-13478975D02*
X9738945Y-13488499D01*
X9738945Y-13488499D02*
X9719897Y-13498023D01*
X9719897Y-13498023D02*
X9700850Y-13498023D01*
X9700850Y-13498023D02*
X9681802Y-13488499D01*
X9681802Y-13488499D02*
X9672278Y-13478975D01*
X9672278Y-13478975D02*
X9662754Y-13459928D01*
X9662754Y-13459928D02*
X9653231Y-13421832D01*
X9653231Y-13421832D02*
X9653231Y-13374213D01*
X9653231Y-13374213D02*
X9662754Y-13336118D01*
X9662754Y-13336118D02*
X9672278Y-13317070D01*
X9672278Y-13317070D02*
X9681802Y-13307547D01*
X9681802Y-13307547D02*
X9700850Y-13298023D01*
X9891326Y-13298023D02*
X9910374Y-13298023D01*
X9910374Y-13298023D02*
X9929421Y-13307547D01*
X9929421Y-13307547D02*
X9938945Y-13317070D01*
X9938945Y-13317070D02*
X9948469Y-13336118D01*
X9948469Y-13336118D02*
X9957993Y-13374213D01*
X9957993Y-13374213D02*
X9957993Y-13421832D01*
X9957993Y-13421832D02*
X9948469Y-13459928D01*
X9948469Y-13459928D02*
X9938945Y-13478975D01*
X9938945Y-13478975D02*
X9929421Y-13488499D01*
X9929421Y-13488499D02*
X9910374Y-13498023D01*
X9910374Y-13498023D02*
X9891326Y-13498023D01*
X9891326Y-13498023D02*
X9872278Y-13488499D01*
X9872278Y-13488499D02*
X9862754Y-13478975D01*
X9862754Y-13478975D02*
X9853231Y-13459928D01*
X9853231Y-13459928D02*
X9843707Y-13421832D01*
X9843707Y-13421832D02*
X9843707Y-13374213D01*
X9843707Y-13374213D02*
X9853231Y-13336118D01*
X9853231Y-13336118D02*
X9862754Y-13317070D01*
X9862754Y-13317070D02*
X9872278Y-13307547D01*
X9872278Y-13307547D02*
X9891326Y-13298023D01*
X10043707Y-13498023D02*
X10043707Y-13364689D01*
X10043707Y-13383737D02*
X10053231Y-13374213D01*
X10053231Y-13374213D02*
X10072278Y-13364689D01*
X10072278Y-13364689D02*
X10100850Y-13364689D01*
X10100850Y-13364689D02*
X10119897Y-13374213D01*
X10119897Y-13374213D02*
X10129421Y-13393261D01*
X10129421Y-13393261D02*
X10129421Y-13498023D01*
X10129421Y-13393261D02*
X10138945Y-13374213D01*
X10138945Y-13374213D02*
X10157993Y-13364689D01*
X10157993Y-13364689D02*
X10186564Y-13364689D01*
X10186564Y-13364689D02*
X10205612Y-13374213D01*
X10205612Y-13374213D02*
X10215135Y-13393261D01*
X10215135Y-13393261D02*
X10215135Y-13498023D01*
X10310374Y-13498023D02*
X10310374Y-13364689D01*
X10310374Y-13383737D02*
X10319897Y-13374213D01*
X10319897Y-13374213D02*
X10338945Y-13364689D01*
X10338945Y-13364689D02*
X10367516Y-13364689D01*
X10367516Y-13364689D02*
X10386564Y-13374213D01*
X10386564Y-13374213D02*
X10396088Y-13393261D01*
X10396088Y-13393261D02*
X10396088Y-13498023D01*
X10396088Y-13393261D02*
X10405612Y-13374213D01*
X10405612Y-13374213D02*
X10424659Y-13364689D01*
X10424659Y-13364689D02*
X10453231Y-13364689D01*
X10453231Y-13364689D02*
X10472278Y-13374213D01*
X10472278Y-13374213D02*
X10481802Y-13393261D01*
X10481802Y-13393261D02*
X10481802Y-13498023D01*
X10872278Y-13288499D02*
X10700850Y-13545642D01*
X11129421Y-13298023D02*
X11148469Y-13298023D01*
X11148469Y-13298023D02*
X11167517Y-13307547D01*
X11167517Y-13307547D02*
X11177040Y-13317070D01*
X11177040Y-13317070D02*
X11186564Y-13336118D01*
X11186564Y-13336118D02*
X11196088Y-13374213D01*
X11196088Y-13374213D02*
X11196088Y-13421832D01*
X11196088Y-13421832D02*
X11186564Y-13459928D01*
X11186564Y-13459928D02*
X11177040Y-13478975D01*
X11177040Y-13478975D02*
X11167517Y-13488499D01*
X11167517Y-13488499D02*
X11148469Y-13498023D01*
X11148469Y-13498023D02*
X11129421Y-13498023D01*
X11129421Y-13498023D02*
X11110374Y-13488499D01*
X11110374Y-13488499D02*
X11100850Y-13478975D01*
X11100850Y-13478975D02*
X11091326Y-13459928D01*
X11091326Y-13459928D02*
X11081802Y-13421832D01*
X11081802Y-13421832D02*
X11081802Y-13374213D01*
X11081802Y-13374213D02*
X11091326Y-13336118D01*
X11091326Y-13336118D02*
X11100850Y-13317070D01*
X11100850Y-13317070D02*
X11110374Y-13307547D01*
X11110374Y-13307547D02*
X11129421Y-13298023D01*
X11281802Y-13478975D02*
X11291326Y-13488499D01*
X11291326Y-13488499D02*
X11281802Y-13498023D01*
X11281802Y-13498023D02*
X11272278Y-13488499D01*
X11272278Y-13488499D02*
X11281802Y-13478975D01*
X11281802Y-13478975D02*
X11281802Y-13498023D01*
X11481802Y-13498023D02*
X11367516Y-13498023D01*
X11424659Y-13498023D02*
X11424659Y-13298023D01*
X11424659Y-13298023D02*
X11405612Y-13326594D01*
X11405612Y-13326594D02*
X11386564Y-13345642D01*
X11386564Y-13345642D02*
X11367516Y-13355166D01*
X11557993Y-13317070D02*
X11567516Y-13307547D01*
X11567516Y-13307547D02*
X11586564Y-13298023D01*
X11586564Y-13298023D02*
X11634183Y-13298023D01*
X11634183Y-13298023D02*
X11653231Y-13307547D01*
X11653231Y-13307547D02*
X11662755Y-13317070D01*
X11662755Y-13317070D02*
X11672278Y-13336118D01*
X11672278Y-13336118D02*
X11672278Y-13355166D01*
X11672278Y-13355166D02*
X11662755Y-13383737D01*
X11662755Y-13383737D02*
X11548469Y-13498023D01*
X11548469Y-13498023D02*
X11672278Y-13498023D01*
X11748469Y-13317070D02*
X11757993Y-13307547D01*
X11757993Y-13307547D02*
X11777040Y-13298023D01*
X11777040Y-13298023D02*
X11824659Y-13298023D01*
X11824659Y-13298023D02*
X11843707Y-13307547D01*
X11843707Y-13307547D02*
X11853231Y-13317070D01*
X11853231Y-13317070D02*
X11862755Y-13336118D01*
X11862755Y-13336118D02*
X11862755Y-13355166D01*
X11862755Y-13355166D02*
X11853231Y-13383737D01*
X11853231Y-13383737D02*
X11738945Y-13498023D01*
X11738945Y-13498023D02*
X11862755Y-13498023D01*
X11986564Y-13298023D02*
X12005612Y-13298023D01*
X12005612Y-13298023D02*
X12024659Y-13307547D01*
X12024659Y-13307547D02*
X12034183Y-13317070D01*
X12034183Y-13317070D02*
X12043707Y-13336118D01*
X12043707Y-13336118D02*
X12053231Y-13374213D01*
X12053231Y-13374213D02*
X12053231Y-13421832D01*
X12053231Y-13421832D02*
X12043707Y-13459928D01*
X12043707Y-13459928D02*
X12034183Y-13478975D01*
X12034183Y-13478975D02*
X12024659Y-13488499D01*
X12024659Y-13488499D02*
X12005612Y-13498023D01*
X12005612Y-13498023D02*
X11986564Y-13498023D01*
X11986564Y-13498023D02*
X11967516Y-13488499D01*
X11967516Y-13488499D02*
X11957993Y-13478975D01*
X11957993Y-13478975D02*
X11948469Y-13459928D01*
X11948469Y-13459928D02*
X11938945Y-13421832D01*
X11938945Y-13421832D02*
X11938945Y-13374213D01*
X11938945Y-13374213D02*
X11948469Y-13336118D01*
X11948469Y-13336118D02*
X11957993Y-13317070D01*
X11957993Y-13317070D02*
X11967516Y-13307547D01*
X11967516Y-13307547D02*
X11986564Y-13298023D01*
X12129421Y-13298023D02*
X12129421Y-13336118D01*
X12205612Y-13298023D02*
X12205612Y-13336118D01*
X12500850Y-13574213D02*
X12491326Y-13564689D01*
X12491326Y-13564689D02*
X12472278Y-13536118D01*
X12472278Y-13536118D02*
X12462755Y-13517070D01*
X12462755Y-13517070D02*
X12453231Y-13488499D01*
X12453231Y-13488499D02*
X12443707Y-13440880D01*
X12443707Y-13440880D02*
X12443707Y-13402785D01*
X12443707Y-13402785D02*
X12453231Y-13355166D01*
X12453231Y-13355166D02*
X12462755Y-13326594D01*
X12462755Y-13326594D02*
X12472278Y-13307547D01*
X12472278Y-13307547D02*
X12491326Y-13278975D01*
X12491326Y-13278975D02*
X12500850Y-13269451D01*
X12567517Y-13317070D02*
X12577040Y-13307547D01*
X12577040Y-13307547D02*
X12596088Y-13298023D01*
X12596088Y-13298023D02*
X12643707Y-13298023D01*
X12643707Y-13298023D02*
X12662755Y-13307547D01*
X12662755Y-13307547D02*
X12672278Y-13317070D01*
X12672278Y-13317070D02*
X12681802Y-13336118D01*
X12681802Y-13336118D02*
X12681802Y-13355166D01*
X12681802Y-13355166D02*
X12672278Y-13383737D01*
X12672278Y-13383737D02*
X12557993Y-13498023D01*
X12557993Y-13498023D02*
X12681802Y-13498023D01*
X12919898Y-13498023D02*
X12919898Y-13298023D01*
X13005612Y-13498023D02*
X13005612Y-13393261D01*
X13005612Y-13393261D02*
X12996088Y-13374213D01*
X12996088Y-13374213D02*
X12977040Y-13364689D01*
X12977040Y-13364689D02*
X12948469Y-13364689D01*
X12948469Y-13364689D02*
X12929421Y-13374213D01*
X12929421Y-13374213D02*
X12919898Y-13383737D01*
X13129421Y-13498023D02*
X13110374Y-13488499D01*
X13110374Y-13488499D02*
X13100850Y-13478975D01*
X13100850Y-13478975D02*
X13091326Y-13459928D01*
X13091326Y-13459928D02*
X13091326Y-13402785D01*
X13091326Y-13402785D02*
X13100850Y-13383737D01*
X13100850Y-13383737D02*
X13110374Y-13374213D01*
X13110374Y-13374213D02*
X13129421Y-13364689D01*
X13129421Y-13364689D02*
X13157993Y-13364689D01*
X13157993Y-13364689D02*
X13177040Y-13374213D01*
X13177040Y-13374213D02*
X13186564Y-13383737D01*
X13186564Y-13383737D02*
X13196088Y-13402785D01*
X13196088Y-13402785D02*
X13196088Y-13459928D01*
X13196088Y-13459928D02*
X13186564Y-13478975D01*
X13186564Y-13478975D02*
X13177040Y-13488499D01*
X13177040Y-13488499D02*
X13157993Y-13498023D01*
X13157993Y-13498023D02*
X13129421Y-13498023D01*
X13310374Y-13498023D02*
X13291326Y-13488499D01*
X13291326Y-13488499D02*
X13281802Y-13469451D01*
X13281802Y-13469451D02*
X13281802Y-13298023D01*
X13462755Y-13488499D02*
X13443707Y-13498023D01*
X13443707Y-13498023D02*
X13405612Y-13498023D01*
X13405612Y-13498023D02*
X13386564Y-13488499D01*
X13386564Y-13488499D02*
X13377040Y-13469451D01*
X13377040Y-13469451D02*
X13377040Y-13393261D01*
X13377040Y-13393261D02*
X13386564Y-13374213D01*
X13386564Y-13374213D02*
X13405612Y-13364689D01*
X13405612Y-13364689D02*
X13443707Y-13364689D01*
X13443707Y-13364689D02*
X13462755Y-13374213D01*
X13462755Y-13374213D02*
X13472279Y-13393261D01*
X13472279Y-13393261D02*
X13472279Y-13412309D01*
X13472279Y-13412309D02*
X13377040Y-13431356D01*
X13548469Y-13488499D02*
X13567517Y-13498023D01*
X13567517Y-13498023D02*
X13605612Y-13498023D01*
X13605612Y-13498023D02*
X13624660Y-13488499D01*
X13624660Y-13488499D02*
X13634183Y-13469451D01*
X13634183Y-13469451D02*
X13634183Y-13459928D01*
X13634183Y-13459928D02*
X13624660Y-13440880D01*
X13624660Y-13440880D02*
X13605612Y-13431356D01*
X13605612Y-13431356D02*
X13577040Y-13431356D01*
X13577040Y-13431356D02*
X13557993Y-13421832D01*
X13557993Y-13421832D02*
X13548469Y-13402785D01*
X13548469Y-13402785D02*
X13548469Y-13393261D01*
X13548469Y-13393261D02*
X13557993Y-13374213D01*
X13557993Y-13374213D02*
X13577040Y-13364689D01*
X13577040Y-13364689D02*
X13605612Y-13364689D01*
X13605612Y-13364689D02*
X13624660Y-13374213D01*
X13700850Y-13574213D02*
X13710374Y-13564689D01*
X13710374Y-13564689D02*
X13729421Y-13536118D01*
X13729421Y-13536118D02*
X13738945Y-13517070D01*
X13738945Y-13517070D02*
X13748469Y-13488499D01*
X13748469Y-13488499D02*
X13757993Y-13440880D01*
X13757993Y-13440880D02*
X13757993Y-13402785D01*
X13757993Y-13402785D02*
X13748469Y-13355166D01*
X13748469Y-13355166D02*
X13738945Y-13326594D01*
X13738945Y-13326594D02*
X13729421Y-13307547D01*
X13729421Y-13307547D02*
X13710374Y-13278975D01*
X13710374Y-13278975D02*
X13700850Y-13269451D01*
X14062755Y-13574213D02*
X14053231Y-13564689D01*
X14053231Y-13564689D02*
X14034183Y-13536118D01*
X14034183Y-13536118D02*
X14024660Y-13517070D01*
X14024660Y-13517070D02*
X14015136Y-13488499D01*
X14015136Y-13488499D02*
X14005612Y-13440880D01*
X14005612Y-13440880D02*
X14005612Y-13402785D01*
X14005612Y-13402785D02*
X14015136Y-13355166D01*
X14015136Y-13355166D02*
X14024660Y-13326594D01*
X14024660Y-13326594D02*
X14034183Y-13307547D01*
X14034183Y-13307547D02*
X14053231Y-13278975D01*
X14053231Y-13278975D02*
X14062755Y-13269451D01*
X14138945Y-13364689D02*
X14138945Y-13498023D01*
X14138945Y-13383737D02*
X14148469Y-13374213D01*
X14148469Y-13374213D02*
X14167517Y-13364689D01*
X14167517Y-13364689D02*
X14196088Y-13364689D01*
X14196088Y-13364689D02*
X14215136Y-13374213D01*
X14215136Y-13374213D02*
X14224660Y-13393261D01*
X14224660Y-13393261D02*
X14224660Y-13498023D01*
X14348469Y-13498023D02*
X14329421Y-13488499D01*
X14329421Y-13488499D02*
X14319898Y-13478975D01*
X14319898Y-13478975D02*
X14310374Y-13459928D01*
X14310374Y-13459928D02*
X14310374Y-13402785D01*
X14310374Y-13402785D02*
X14319898Y-13383737D01*
X14319898Y-13383737D02*
X14329421Y-13374213D01*
X14329421Y-13374213D02*
X14348469Y-13364689D01*
X14348469Y-13364689D02*
X14377041Y-13364689D01*
X14377041Y-13364689D02*
X14396088Y-13374213D01*
X14396088Y-13374213D02*
X14405612Y-13383737D01*
X14405612Y-13383737D02*
X14415136Y-13402785D01*
X14415136Y-13402785D02*
X14415136Y-13459928D01*
X14415136Y-13459928D02*
X14405612Y-13478975D01*
X14405612Y-13478975D02*
X14396088Y-13488499D01*
X14396088Y-13488499D02*
X14377041Y-13498023D01*
X14377041Y-13498023D02*
X14348469Y-13498023D01*
X14472279Y-13364689D02*
X14548469Y-13364689D01*
X14500850Y-13298023D02*
X14500850Y-13469451D01*
X14500850Y-13469451D02*
X14510374Y-13488499D01*
X14510374Y-13488499D02*
X14529421Y-13498023D01*
X14529421Y-13498023D02*
X14548469Y-13498023D01*
X14767517Y-13364689D02*
X14767517Y-13564689D01*
X14767517Y-13374213D02*
X14786564Y-13364689D01*
X14786564Y-13364689D02*
X14824660Y-13364689D01*
X14824660Y-13364689D02*
X14843707Y-13374213D01*
X14843707Y-13374213D02*
X14853231Y-13383737D01*
X14853231Y-13383737D02*
X14862755Y-13402785D01*
X14862755Y-13402785D02*
X14862755Y-13459928D01*
X14862755Y-13459928D02*
X14853231Y-13478975D01*
X14853231Y-13478975D02*
X14843707Y-13488499D01*
X14843707Y-13488499D02*
X14824660Y-13498023D01*
X14824660Y-13498023D02*
X14786564Y-13498023D01*
X14786564Y-13498023D02*
X14767517Y-13488499D01*
X14977041Y-13498023D02*
X14957993Y-13488499D01*
X14957993Y-13488499D02*
X14948469Y-13469451D01*
X14948469Y-13469451D02*
X14948469Y-13298023D01*
X15138945Y-13498023D02*
X15138945Y-13393261D01*
X15138945Y-13393261D02*
X15129422Y-13374213D01*
X15129422Y-13374213D02*
X15110374Y-13364689D01*
X15110374Y-13364689D02*
X15072279Y-13364689D01*
X15072279Y-13364689D02*
X15053231Y-13374213D01*
X15138945Y-13488499D02*
X15119898Y-13498023D01*
X15119898Y-13498023D02*
X15072279Y-13498023D01*
X15072279Y-13498023D02*
X15053231Y-13488499D01*
X15053231Y-13488499D02*
X15043707Y-13469451D01*
X15043707Y-13469451D02*
X15043707Y-13450404D01*
X15043707Y-13450404D02*
X15053231Y-13431356D01*
X15053231Y-13431356D02*
X15072279Y-13421832D01*
X15072279Y-13421832D02*
X15119898Y-13421832D01*
X15119898Y-13421832D02*
X15138945Y-13412309D01*
X15205612Y-13364689D02*
X15281802Y-13364689D01*
X15234183Y-13298023D02*
X15234183Y-13469451D01*
X15234183Y-13469451D02*
X15243707Y-13488499D01*
X15243707Y-13488499D02*
X15262755Y-13498023D01*
X15262755Y-13498023D02*
X15281802Y-13498023D01*
X15424660Y-13488499D02*
X15405612Y-13498023D01*
X15405612Y-13498023D02*
X15367517Y-13498023D01*
X15367517Y-13498023D02*
X15348469Y-13488499D01*
X15348469Y-13488499D02*
X15338945Y-13469451D01*
X15338945Y-13469451D02*
X15338945Y-13393261D01*
X15338945Y-13393261D02*
X15348469Y-13374213D01*
X15348469Y-13374213D02*
X15367517Y-13364689D01*
X15367517Y-13364689D02*
X15405612Y-13364689D01*
X15405612Y-13364689D02*
X15424660Y-13374213D01*
X15424660Y-13374213D02*
X15434183Y-13393261D01*
X15434183Y-13393261D02*
X15434183Y-13412309D01*
X15434183Y-13412309D02*
X15338945Y-13431356D01*
X15605612Y-13498023D02*
X15605612Y-13298023D01*
X15605612Y-13488499D02*
X15586564Y-13498023D01*
X15586564Y-13498023D02*
X15548469Y-13498023D01*
X15548469Y-13498023D02*
X15529422Y-13488499D01*
X15529422Y-13488499D02*
X15519898Y-13478975D01*
X15519898Y-13478975D02*
X15510374Y-13459928D01*
X15510374Y-13459928D02*
X15510374Y-13402785D01*
X15510374Y-13402785D02*
X15519898Y-13383737D01*
X15519898Y-13383737D02*
X15529422Y-13374213D01*
X15529422Y-13374213D02*
X15548469Y-13364689D01*
X15548469Y-13364689D02*
X15586564Y-13364689D01*
X15586564Y-13364689D02*
X15605612Y-13374213D01*
X15681803Y-13574213D02*
X15691326Y-13564689D01*
X15691326Y-13564689D02*
X15710374Y-13536118D01*
X15710374Y-13536118D02*
X15719898Y-13517070D01*
X15719898Y-13517070D02*
X15729422Y-13488499D01*
X15729422Y-13488499D02*
X15738945Y-13440880D01*
X15738945Y-13440880D02*
X15738945Y-13402785D01*
X15738945Y-13402785D02*
X15729422Y-13355166D01*
X15729422Y-13355166D02*
X15719898Y-13326594D01*
X15719898Y-13326594D02*
X15710374Y-13307547D01*
X15710374Y-13307547D02*
X15691326Y-13278975D01*
X15691326Y-13278975D02*
X15681803Y-13269451D01*
X8825787Y-13626539D02*
X8825787Y-13826539D01*
X8725787Y-13726539D02*
X8925787Y-13726539D01*
X9167516Y-13618023D02*
X9291326Y-13618023D01*
X9291326Y-13618023D02*
X9224659Y-13694213D01*
X9224659Y-13694213D02*
X9253231Y-13694213D01*
X9253231Y-13694213D02*
X9272278Y-13703737D01*
X9272278Y-13703737D02*
X9281802Y-13713261D01*
X9281802Y-13713261D02*
X9291326Y-13732309D01*
X9291326Y-13732309D02*
X9291326Y-13779928D01*
X9291326Y-13779928D02*
X9281802Y-13798975D01*
X9281802Y-13798975D02*
X9272278Y-13808499D01*
X9272278Y-13808499D02*
X9253231Y-13818023D01*
X9253231Y-13818023D02*
X9196088Y-13818023D01*
X9196088Y-13818023D02*
X9177040Y-13808499D01*
X9177040Y-13808499D02*
X9167516Y-13798975D01*
X9377040Y-13798975D02*
X9386564Y-13808499D01*
X9386564Y-13808499D02*
X9377040Y-13818023D01*
X9377040Y-13818023D02*
X9367516Y-13808499D01*
X9367516Y-13808499D02*
X9377040Y-13798975D01*
X9377040Y-13798975D02*
X9377040Y-13818023D01*
X9462754Y-13637070D02*
X9472278Y-13627547D01*
X9472278Y-13627547D02*
X9491326Y-13618023D01*
X9491326Y-13618023D02*
X9538945Y-13618023D01*
X9538945Y-13618023D02*
X9557993Y-13627547D01*
X9557993Y-13627547D02*
X9567516Y-13637070D01*
X9567516Y-13637070D02*
X9577040Y-13656118D01*
X9577040Y-13656118D02*
X9577040Y-13675166D01*
X9577040Y-13675166D02*
X9567516Y-13703737D01*
X9567516Y-13703737D02*
X9453231Y-13818023D01*
X9453231Y-13818023D02*
X9577040Y-13818023D01*
X9700850Y-13618023D02*
X9719897Y-13618023D01*
X9719897Y-13618023D02*
X9738945Y-13627547D01*
X9738945Y-13627547D02*
X9748469Y-13637070D01*
X9748469Y-13637070D02*
X9757993Y-13656118D01*
X9757993Y-13656118D02*
X9767516Y-13694213D01*
X9767516Y-13694213D02*
X9767516Y-13741832D01*
X9767516Y-13741832D02*
X9757993Y-13779928D01*
X9757993Y-13779928D02*
X9748469Y-13798975D01*
X9748469Y-13798975D02*
X9738945Y-13808499D01*
X9738945Y-13808499D02*
X9719897Y-13818023D01*
X9719897Y-13818023D02*
X9700850Y-13818023D01*
X9700850Y-13818023D02*
X9681802Y-13808499D01*
X9681802Y-13808499D02*
X9672278Y-13798975D01*
X9672278Y-13798975D02*
X9662754Y-13779928D01*
X9662754Y-13779928D02*
X9653231Y-13741832D01*
X9653231Y-13741832D02*
X9653231Y-13694213D01*
X9653231Y-13694213D02*
X9662754Y-13656118D01*
X9662754Y-13656118D02*
X9672278Y-13637070D01*
X9672278Y-13637070D02*
X9681802Y-13627547D01*
X9681802Y-13627547D02*
X9700850Y-13618023D01*
X9891326Y-13618023D02*
X9910374Y-13618023D01*
X9910374Y-13618023D02*
X9929421Y-13627547D01*
X9929421Y-13627547D02*
X9938945Y-13637070D01*
X9938945Y-13637070D02*
X9948469Y-13656118D01*
X9948469Y-13656118D02*
X9957993Y-13694213D01*
X9957993Y-13694213D02*
X9957993Y-13741832D01*
X9957993Y-13741832D02*
X9948469Y-13779928D01*
X9948469Y-13779928D02*
X9938945Y-13798975D01*
X9938945Y-13798975D02*
X9929421Y-13808499D01*
X9929421Y-13808499D02*
X9910374Y-13818023D01*
X9910374Y-13818023D02*
X9891326Y-13818023D01*
X9891326Y-13818023D02*
X9872278Y-13808499D01*
X9872278Y-13808499D02*
X9862754Y-13798975D01*
X9862754Y-13798975D02*
X9853231Y-13779928D01*
X9853231Y-13779928D02*
X9843707Y-13741832D01*
X9843707Y-13741832D02*
X9843707Y-13694213D01*
X9843707Y-13694213D02*
X9853231Y-13656118D01*
X9853231Y-13656118D02*
X9862754Y-13637070D01*
X9862754Y-13637070D02*
X9872278Y-13627547D01*
X9872278Y-13627547D02*
X9891326Y-13618023D01*
X10043707Y-13818023D02*
X10043707Y-13684689D01*
X10043707Y-13703737D02*
X10053231Y-13694213D01*
X10053231Y-13694213D02*
X10072278Y-13684689D01*
X10072278Y-13684689D02*
X10100850Y-13684689D01*
X10100850Y-13684689D02*
X10119897Y-13694213D01*
X10119897Y-13694213D02*
X10129421Y-13713261D01*
X10129421Y-13713261D02*
X10129421Y-13818023D01*
X10129421Y-13713261D02*
X10138945Y-13694213D01*
X10138945Y-13694213D02*
X10157993Y-13684689D01*
X10157993Y-13684689D02*
X10186564Y-13684689D01*
X10186564Y-13684689D02*
X10205612Y-13694213D01*
X10205612Y-13694213D02*
X10215135Y-13713261D01*
X10215135Y-13713261D02*
X10215135Y-13818023D01*
X10310374Y-13818023D02*
X10310374Y-13684689D01*
X10310374Y-13703737D02*
X10319897Y-13694213D01*
X10319897Y-13694213D02*
X10338945Y-13684689D01*
X10338945Y-13684689D02*
X10367516Y-13684689D01*
X10367516Y-13684689D02*
X10386564Y-13694213D01*
X10386564Y-13694213D02*
X10396088Y-13713261D01*
X10396088Y-13713261D02*
X10396088Y-13818023D01*
X10396088Y-13713261D02*
X10405612Y-13694213D01*
X10405612Y-13694213D02*
X10424659Y-13684689D01*
X10424659Y-13684689D02*
X10453231Y-13684689D01*
X10453231Y-13684689D02*
X10472278Y-13694213D01*
X10472278Y-13694213D02*
X10481802Y-13713261D01*
X10481802Y-13713261D02*
X10481802Y-13818023D01*
X10872278Y-13608499D02*
X10700850Y-13865642D01*
X11129421Y-13618023D02*
X11148469Y-13618023D01*
X11148469Y-13618023D02*
X11167517Y-13627547D01*
X11167517Y-13627547D02*
X11177040Y-13637070D01*
X11177040Y-13637070D02*
X11186564Y-13656118D01*
X11186564Y-13656118D02*
X11196088Y-13694213D01*
X11196088Y-13694213D02*
X11196088Y-13741832D01*
X11196088Y-13741832D02*
X11186564Y-13779928D01*
X11186564Y-13779928D02*
X11177040Y-13798975D01*
X11177040Y-13798975D02*
X11167517Y-13808499D01*
X11167517Y-13808499D02*
X11148469Y-13818023D01*
X11148469Y-13818023D02*
X11129421Y-13818023D01*
X11129421Y-13818023D02*
X11110374Y-13808499D01*
X11110374Y-13808499D02*
X11100850Y-13798975D01*
X11100850Y-13798975D02*
X11091326Y-13779928D01*
X11091326Y-13779928D02*
X11081802Y-13741832D01*
X11081802Y-13741832D02*
X11081802Y-13694213D01*
X11081802Y-13694213D02*
X11091326Y-13656118D01*
X11091326Y-13656118D02*
X11100850Y-13637070D01*
X11100850Y-13637070D02*
X11110374Y-13627547D01*
X11110374Y-13627547D02*
X11129421Y-13618023D01*
X11281802Y-13798975D02*
X11291326Y-13808499D01*
X11291326Y-13808499D02*
X11281802Y-13818023D01*
X11281802Y-13818023D02*
X11272278Y-13808499D01*
X11272278Y-13808499D02*
X11281802Y-13798975D01*
X11281802Y-13798975D02*
X11281802Y-13818023D01*
X11481802Y-13818023D02*
X11367516Y-13818023D01*
X11424659Y-13818023D02*
X11424659Y-13618023D01*
X11424659Y-13618023D02*
X11405612Y-13646594D01*
X11405612Y-13646594D02*
X11386564Y-13665642D01*
X11386564Y-13665642D02*
X11367516Y-13675166D01*
X11557993Y-13637070D02*
X11567516Y-13627547D01*
X11567516Y-13627547D02*
X11586564Y-13618023D01*
X11586564Y-13618023D02*
X11634183Y-13618023D01*
X11634183Y-13618023D02*
X11653231Y-13627547D01*
X11653231Y-13627547D02*
X11662755Y-13637070D01*
X11662755Y-13637070D02*
X11672278Y-13656118D01*
X11672278Y-13656118D02*
X11672278Y-13675166D01*
X11672278Y-13675166D02*
X11662755Y-13703737D01*
X11662755Y-13703737D02*
X11548469Y-13818023D01*
X11548469Y-13818023D02*
X11672278Y-13818023D01*
X11843707Y-13618023D02*
X11805612Y-13618023D01*
X11805612Y-13618023D02*
X11786564Y-13627547D01*
X11786564Y-13627547D02*
X11777040Y-13637070D01*
X11777040Y-13637070D02*
X11757993Y-13665642D01*
X11757993Y-13665642D02*
X11748469Y-13703737D01*
X11748469Y-13703737D02*
X11748469Y-13779928D01*
X11748469Y-13779928D02*
X11757993Y-13798975D01*
X11757993Y-13798975D02*
X11767516Y-13808499D01*
X11767516Y-13808499D02*
X11786564Y-13818023D01*
X11786564Y-13818023D02*
X11824659Y-13818023D01*
X11824659Y-13818023D02*
X11843707Y-13808499D01*
X11843707Y-13808499D02*
X11853231Y-13798975D01*
X11853231Y-13798975D02*
X11862755Y-13779928D01*
X11862755Y-13779928D02*
X11862755Y-13732309D01*
X11862755Y-13732309D02*
X11853231Y-13713261D01*
X11853231Y-13713261D02*
X11843707Y-13703737D01*
X11843707Y-13703737D02*
X11824659Y-13694213D01*
X11824659Y-13694213D02*
X11786564Y-13694213D01*
X11786564Y-13694213D02*
X11767516Y-13703737D01*
X11767516Y-13703737D02*
X11757993Y-13713261D01*
X11757993Y-13713261D02*
X11748469Y-13732309D01*
X11986564Y-13618023D02*
X12005612Y-13618023D01*
X12005612Y-13618023D02*
X12024659Y-13627547D01*
X12024659Y-13627547D02*
X12034183Y-13637070D01*
X12034183Y-13637070D02*
X12043707Y-13656118D01*
X12043707Y-13656118D02*
X12053231Y-13694213D01*
X12053231Y-13694213D02*
X12053231Y-13741832D01*
X12053231Y-13741832D02*
X12043707Y-13779928D01*
X12043707Y-13779928D02*
X12034183Y-13798975D01*
X12034183Y-13798975D02*
X12024659Y-13808499D01*
X12024659Y-13808499D02*
X12005612Y-13818023D01*
X12005612Y-13818023D02*
X11986564Y-13818023D01*
X11986564Y-13818023D02*
X11967516Y-13808499D01*
X11967516Y-13808499D02*
X11957993Y-13798975D01*
X11957993Y-13798975D02*
X11948469Y-13779928D01*
X11948469Y-13779928D02*
X11938945Y-13741832D01*
X11938945Y-13741832D02*
X11938945Y-13694213D01*
X11938945Y-13694213D02*
X11948469Y-13656118D01*
X11948469Y-13656118D02*
X11957993Y-13637070D01*
X11957993Y-13637070D02*
X11967516Y-13627547D01*
X11967516Y-13627547D02*
X11986564Y-13618023D01*
X12129421Y-13618023D02*
X12129421Y-13656118D01*
X12205612Y-13618023D02*
X12205612Y-13656118D01*
X12500850Y-13894213D02*
X12491326Y-13884689D01*
X12491326Y-13884689D02*
X12472278Y-13856118D01*
X12472278Y-13856118D02*
X12462755Y-13837070D01*
X12462755Y-13837070D02*
X12453231Y-13808499D01*
X12453231Y-13808499D02*
X12443707Y-13760880D01*
X12443707Y-13760880D02*
X12443707Y-13722785D01*
X12443707Y-13722785D02*
X12453231Y-13675166D01*
X12453231Y-13675166D02*
X12462755Y-13646594D01*
X12462755Y-13646594D02*
X12472278Y-13627547D01*
X12472278Y-13627547D02*
X12491326Y-13598975D01*
X12491326Y-13598975D02*
X12500850Y-13589451D01*
X12557993Y-13618023D02*
X12681802Y-13618023D01*
X12681802Y-13618023D02*
X12615136Y-13694213D01*
X12615136Y-13694213D02*
X12643707Y-13694213D01*
X12643707Y-13694213D02*
X12662755Y-13703737D01*
X12662755Y-13703737D02*
X12672278Y-13713261D01*
X12672278Y-13713261D02*
X12681802Y-13732309D01*
X12681802Y-13732309D02*
X12681802Y-13779928D01*
X12681802Y-13779928D02*
X12672278Y-13798975D01*
X12672278Y-13798975D02*
X12662755Y-13808499D01*
X12662755Y-13808499D02*
X12643707Y-13818023D01*
X12643707Y-13818023D02*
X12586564Y-13818023D01*
X12586564Y-13818023D02*
X12567517Y-13808499D01*
X12567517Y-13808499D02*
X12557993Y-13798975D01*
X12919898Y-13818023D02*
X12919898Y-13618023D01*
X13005612Y-13818023D02*
X13005612Y-13713261D01*
X13005612Y-13713261D02*
X12996088Y-13694213D01*
X12996088Y-13694213D02*
X12977040Y-13684689D01*
X12977040Y-13684689D02*
X12948469Y-13684689D01*
X12948469Y-13684689D02*
X12929421Y-13694213D01*
X12929421Y-13694213D02*
X12919898Y-13703737D01*
X13129421Y-13818023D02*
X13110374Y-13808499D01*
X13110374Y-13808499D02*
X13100850Y-13798975D01*
X13100850Y-13798975D02*
X13091326Y-13779928D01*
X13091326Y-13779928D02*
X13091326Y-13722785D01*
X13091326Y-13722785D02*
X13100850Y-13703737D01*
X13100850Y-13703737D02*
X13110374Y-13694213D01*
X13110374Y-13694213D02*
X13129421Y-13684689D01*
X13129421Y-13684689D02*
X13157993Y-13684689D01*
X13157993Y-13684689D02*
X13177040Y-13694213D01*
X13177040Y-13694213D02*
X13186564Y-13703737D01*
X13186564Y-13703737D02*
X13196088Y-13722785D01*
X13196088Y-13722785D02*
X13196088Y-13779928D01*
X13196088Y-13779928D02*
X13186564Y-13798975D01*
X13186564Y-13798975D02*
X13177040Y-13808499D01*
X13177040Y-13808499D02*
X13157993Y-13818023D01*
X13157993Y-13818023D02*
X13129421Y-13818023D01*
X13310374Y-13818023D02*
X13291326Y-13808499D01*
X13291326Y-13808499D02*
X13281802Y-13789451D01*
X13281802Y-13789451D02*
X13281802Y-13618023D01*
X13462755Y-13808499D02*
X13443707Y-13818023D01*
X13443707Y-13818023D02*
X13405612Y-13818023D01*
X13405612Y-13818023D02*
X13386564Y-13808499D01*
X13386564Y-13808499D02*
X13377040Y-13789451D01*
X13377040Y-13789451D02*
X13377040Y-13713261D01*
X13377040Y-13713261D02*
X13386564Y-13694213D01*
X13386564Y-13694213D02*
X13405612Y-13684689D01*
X13405612Y-13684689D02*
X13443707Y-13684689D01*
X13443707Y-13684689D02*
X13462755Y-13694213D01*
X13462755Y-13694213D02*
X13472279Y-13713261D01*
X13472279Y-13713261D02*
X13472279Y-13732309D01*
X13472279Y-13732309D02*
X13377040Y-13751356D01*
X13548469Y-13808499D02*
X13567517Y-13818023D01*
X13567517Y-13818023D02*
X13605612Y-13818023D01*
X13605612Y-13818023D02*
X13624660Y-13808499D01*
X13624660Y-13808499D02*
X13634183Y-13789451D01*
X13634183Y-13789451D02*
X13634183Y-13779928D01*
X13634183Y-13779928D02*
X13624660Y-13760880D01*
X13624660Y-13760880D02*
X13605612Y-13751356D01*
X13605612Y-13751356D02*
X13577040Y-13751356D01*
X13577040Y-13751356D02*
X13557993Y-13741832D01*
X13557993Y-13741832D02*
X13548469Y-13722785D01*
X13548469Y-13722785D02*
X13548469Y-13713261D01*
X13548469Y-13713261D02*
X13557993Y-13694213D01*
X13557993Y-13694213D02*
X13577040Y-13684689D01*
X13577040Y-13684689D02*
X13605612Y-13684689D01*
X13605612Y-13684689D02*
X13624660Y-13694213D01*
X13700850Y-13894213D02*
X13710374Y-13884689D01*
X13710374Y-13884689D02*
X13729421Y-13856118D01*
X13729421Y-13856118D02*
X13738945Y-13837070D01*
X13738945Y-13837070D02*
X13748469Y-13808499D01*
X13748469Y-13808499D02*
X13757993Y-13760880D01*
X13757993Y-13760880D02*
X13757993Y-13722785D01*
X13757993Y-13722785D02*
X13748469Y-13675166D01*
X13748469Y-13675166D02*
X13738945Y-13646594D01*
X13738945Y-13646594D02*
X13729421Y-13627547D01*
X13729421Y-13627547D02*
X13710374Y-13598975D01*
X13710374Y-13598975D02*
X13700850Y-13589451D01*
X14062755Y-13894213D02*
X14053231Y-13884689D01*
X14053231Y-13884689D02*
X14034183Y-13856118D01*
X14034183Y-13856118D02*
X14024660Y-13837070D01*
X14024660Y-13837070D02*
X14015136Y-13808499D01*
X14015136Y-13808499D02*
X14005612Y-13760880D01*
X14005612Y-13760880D02*
X14005612Y-13722785D01*
X14005612Y-13722785D02*
X14015136Y-13675166D01*
X14015136Y-13675166D02*
X14024660Y-13646594D01*
X14024660Y-13646594D02*
X14034183Y-13627547D01*
X14034183Y-13627547D02*
X14053231Y-13598975D01*
X14053231Y-13598975D02*
X14062755Y-13589451D01*
X14138945Y-13684689D02*
X14138945Y-13818023D01*
X14138945Y-13703737D02*
X14148469Y-13694213D01*
X14148469Y-13694213D02*
X14167517Y-13684689D01*
X14167517Y-13684689D02*
X14196088Y-13684689D01*
X14196088Y-13684689D02*
X14215136Y-13694213D01*
X14215136Y-13694213D02*
X14224660Y-13713261D01*
X14224660Y-13713261D02*
X14224660Y-13818023D01*
X14348469Y-13818023D02*
X14329421Y-13808499D01*
X14329421Y-13808499D02*
X14319898Y-13798975D01*
X14319898Y-13798975D02*
X14310374Y-13779928D01*
X14310374Y-13779928D02*
X14310374Y-13722785D01*
X14310374Y-13722785D02*
X14319898Y-13703737D01*
X14319898Y-13703737D02*
X14329421Y-13694213D01*
X14329421Y-13694213D02*
X14348469Y-13684689D01*
X14348469Y-13684689D02*
X14377041Y-13684689D01*
X14377041Y-13684689D02*
X14396088Y-13694213D01*
X14396088Y-13694213D02*
X14405612Y-13703737D01*
X14405612Y-13703737D02*
X14415136Y-13722785D01*
X14415136Y-13722785D02*
X14415136Y-13779928D01*
X14415136Y-13779928D02*
X14405612Y-13798975D01*
X14405612Y-13798975D02*
X14396088Y-13808499D01*
X14396088Y-13808499D02*
X14377041Y-13818023D01*
X14377041Y-13818023D02*
X14348469Y-13818023D01*
X14472279Y-13684689D02*
X14548469Y-13684689D01*
X14500850Y-13618023D02*
X14500850Y-13789451D01*
X14500850Y-13789451D02*
X14510374Y-13808499D01*
X14510374Y-13808499D02*
X14529421Y-13818023D01*
X14529421Y-13818023D02*
X14548469Y-13818023D01*
X14767517Y-13684689D02*
X14767517Y-13884689D01*
X14767517Y-13694213D02*
X14786564Y-13684689D01*
X14786564Y-13684689D02*
X14824660Y-13684689D01*
X14824660Y-13684689D02*
X14843707Y-13694213D01*
X14843707Y-13694213D02*
X14853231Y-13703737D01*
X14853231Y-13703737D02*
X14862755Y-13722785D01*
X14862755Y-13722785D02*
X14862755Y-13779928D01*
X14862755Y-13779928D02*
X14853231Y-13798975D01*
X14853231Y-13798975D02*
X14843707Y-13808499D01*
X14843707Y-13808499D02*
X14824660Y-13818023D01*
X14824660Y-13818023D02*
X14786564Y-13818023D01*
X14786564Y-13818023D02*
X14767517Y-13808499D01*
X14977041Y-13818023D02*
X14957993Y-13808499D01*
X14957993Y-13808499D02*
X14948469Y-13789451D01*
X14948469Y-13789451D02*
X14948469Y-13618023D01*
X15138945Y-13818023D02*
X15138945Y-13713261D01*
X15138945Y-13713261D02*
X15129422Y-13694213D01*
X15129422Y-13694213D02*
X15110374Y-13684689D01*
X15110374Y-13684689D02*
X15072279Y-13684689D01*
X15072279Y-13684689D02*
X15053231Y-13694213D01*
X15138945Y-13808499D02*
X15119898Y-13818023D01*
X15119898Y-13818023D02*
X15072279Y-13818023D01*
X15072279Y-13818023D02*
X15053231Y-13808499D01*
X15053231Y-13808499D02*
X15043707Y-13789451D01*
X15043707Y-13789451D02*
X15043707Y-13770404D01*
X15043707Y-13770404D02*
X15053231Y-13751356D01*
X15053231Y-13751356D02*
X15072279Y-13741832D01*
X15072279Y-13741832D02*
X15119898Y-13741832D01*
X15119898Y-13741832D02*
X15138945Y-13732309D01*
X15205612Y-13684689D02*
X15281802Y-13684689D01*
X15234183Y-13618023D02*
X15234183Y-13789451D01*
X15234183Y-13789451D02*
X15243707Y-13808499D01*
X15243707Y-13808499D02*
X15262755Y-13818023D01*
X15262755Y-13818023D02*
X15281802Y-13818023D01*
X15424660Y-13808499D02*
X15405612Y-13818023D01*
X15405612Y-13818023D02*
X15367517Y-13818023D01*
X15367517Y-13818023D02*
X15348469Y-13808499D01*
X15348469Y-13808499D02*
X15338945Y-13789451D01*
X15338945Y-13789451D02*
X15338945Y-13713261D01*
X15338945Y-13713261D02*
X15348469Y-13694213D01*
X15348469Y-13694213D02*
X15367517Y-13684689D01*
X15367517Y-13684689D02*
X15405612Y-13684689D01*
X15405612Y-13684689D02*
X15424660Y-13694213D01*
X15424660Y-13694213D02*
X15434183Y-13713261D01*
X15434183Y-13713261D02*
X15434183Y-13732309D01*
X15434183Y-13732309D02*
X15338945Y-13751356D01*
X15605612Y-13818023D02*
X15605612Y-13618023D01*
X15605612Y-13808499D02*
X15586564Y-13818023D01*
X15586564Y-13818023D02*
X15548469Y-13818023D01*
X15548469Y-13818023D02*
X15529422Y-13808499D01*
X15529422Y-13808499D02*
X15519898Y-13798975D01*
X15519898Y-13798975D02*
X15510374Y-13779928D01*
X15510374Y-13779928D02*
X15510374Y-13722785D01*
X15510374Y-13722785D02*
X15519898Y-13703737D01*
X15519898Y-13703737D02*
X15529422Y-13694213D01*
X15529422Y-13694213D02*
X15548469Y-13684689D01*
X15548469Y-13684689D02*
X15586564Y-13684689D01*
X15586564Y-13684689D02*
X15605612Y-13694213D01*
X15681803Y-13894213D02*
X15691326Y-13884689D01*
X15691326Y-13884689D02*
X15710374Y-13856118D01*
X15710374Y-13856118D02*
X15719898Y-13837070D01*
X15719898Y-13837070D02*
X15729422Y-13808499D01*
X15729422Y-13808499D02*
X15738945Y-13760880D01*
X15738945Y-13760880D02*
X15738945Y-13722785D01*
X15738945Y-13722785D02*
X15729422Y-13675166D01*
X15729422Y-13675166D02*
X15719898Y-13646594D01*
X15719898Y-13646594D02*
X15710374Y-13627547D01*
X15710374Y-13627547D02*
X15691326Y-13598975D01*
X15691326Y-13598975D02*
X15681803Y-13589451D01*
M02*
