%TF.GenerationSoftware,KiCad,Pcbnew,9.0.3+1*%
%TF.CreationDate,2025-08-21T21:39:01+01:00*%
%TF.ProjectId,Elytra,456c7974-7261-42e6-9b69-6361645f7063,rev?*%
%TF.SameCoordinates,Original*%
%TF.FileFunction,Drillmap*%
%TF.FilePolarity,Positive*%
%FSLAX45Y45*%
G04 Gerber Fmt 4.5, Leading zero omitted, Abs format (unit mm)*
G04 Created by KiCad (PCBNEW 9.0.3+1) date 2025-08-21 21:39:01*
%MOMM*%
%LPD*%
G01*
G04 APERTURE LIST*
%ADD10C,0.050000*%
%ADD11C,0.200000*%
%ADD12C,0.100000*%
%ADD13C,0.130000*%
%ADD14C,0.180000*%
G04 APERTURE END LIST*
D10*
X20928760Y-12185000D02*
X20928760Y-6820000D01*
X20928760Y-12185000D02*
G75*
G02*
X20608760Y-12500039I-320000J5000D01*
G01*
X20608760Y-6500000D02*
G75*
G02*
X20928760Y-6820000I0J-320000D01*
G01*
X9248287Y-12498063D02*
G75*
G02*
X8928287Y-12178063I0J320000D01*
G01*
X9248287Y-12498063D02*
X20608760Y-12500039D01*
X20608760Y-6500000D02*
X9250787Y-6498063D01*
X8930787Y-6818063D02*
G75*
G02*
X9250787Y-6498063I320000J0D01*
G01*
X8930787Y-6818063D02*
X8928287Y-12178063D01*
D11*
D12*
X8998287Y-9155563D02*
X9018287Y-9175563D01*
X9018287Y-9155563D02*
X8998287Y-9175563D01*
X8998287Y-9385563D02*
X9018287Y-9405563D01*
X9018287Y-9385563D02*
X8998287Y-9405563D01*
X9073287Y-9531063D02*
X9093287Y-9551063D01*
X9093287Y-9531063D02*
X9073287Y-9551063D01*
X9085787Y-9018063D02*
X9105787Y-9038063D01*
X9105787Y-9018063D02*
X9085787Y-9038063D01*
X9173287Y-8685563D02*
X9193287Y-8705563D01*
X9193287Y-8685563D02*
X9173287Y-8705563D01*
X9183287Y-9158063D02*
X9203287Y-9178063D01*
X9203287Y-9158063D02*
X9183287Y-9178063D01*
X9183287Y-9385063D02*
X9203287Y-9405063D01*
X9203287Y-9385063D02*
X9183287Y-9405063D01*
X9188287Y-6948063D02*
X9208287Y-6968063D01*
X9208287Y-6948063D02*
X9188287Y-6968063D01*
X9378287Y-6763063D02*
X9398287Y-6783063D01*
X9398287Y-6763063D02*
X9378287Y-6783063D01*
X9378287Y-7133063D02*
X9398287Y-7153063D01*
X9398287Y-7133063D02*
X9378287Y-7153063D01*
X9563287Y-6948063D02*
X9583287Y-6968063D01*
X9583287Y-6948063D02*
X9563287Y-6968063D01*
X9918287Y-6563063D02*
X9938287Y-6583063D01*
X9938287Y-6563063D02*
X9918287Y-6583063D01*
X9918287Y-9315563D02*
X9938287Y-9335563D01*
X9938287Y-9315563D02*
X9918287Y-9335563D01*
X9918287Y-9393063D02*
X9938287Y-9413063D01*
X9938287Y-9393063D02*
X9918287Y-9413063D01*
X10258287Y-9565563D02*
X10278287Y-9585563D01*
X10278287Y-9565563D02*
X10258287Y-9585563D01*
X10390787Y-11865563D02*
X10410787Y-11885563D01*
X10410787Y-11865563D02*
X10390787Y-11885563D01*
X10393287Y-9473063D02*
X10413287Y-9493063D01*
X10413287Y-9473063D02*
X10393287Y-9493063D01*
X10393287Y-9648063D02*
X10413287Y-9668063D01*
X10413287Y-9648063D02*
X10393287Y-9668063D01*
X10488288Y-11970562D02*
X10508288Y-11990562D01*
X10508288Y-11970562D02*
X10488288Y-11990562D01*
X10548287Y-12233063D02*
X10568287Y-12253063D01*
X10568287Y-12233063D02*
X10548287Y-12253063D01*
X10613287Y-9470563D02*
X10633287Y-9490563D01*
X10633287Y-9470563D02*
X10613287Y-9490563D01*
X10613287Y-9648063D02*
X10633287Y-9668063D01*
X10633287Y-9648063D02*
X10613287Y-9668063D01*
X10643287Y-11780563D02*
X10663287Y-11800563D01*
X10663287Y-11780563D02*
X10643287Y-11800563D01*
X10657907Y-12342683D02*
X10677907Y-12362683D01*
X10677907Y-12342683D02*
X10657907Y-12362683D01*
X10763287Y-10888063D02*
X10783287Y-10908063D01*
X10783287Y-10888063D02*
X10763287Y-10908063D01*
X10763287Y-11048063D02*
X10783287Y-11068063D01*
X10783287Y-11048063D02*
X10763287Y-11068063D01*
X10793287Y-11760563D02*
X10813287Y-11780563D01*
X10813287Y-11760563D02*
X10793287Y-11780563D01*
X10833287Y-9470563D02*
X10853287Y-9490563D01*
X10853287Y-9470563D02*
X10833287Y-9490563D01*
X10833287Y-9648063D02*
X10853287Y-9668063D01*
X10853287Y-9648063D02*
X10833287Y-9668063D01*
X10885787Y-11125563D02*
X10905787Y-11145563D01*
X10905787Y-11125563D02*
X10885787Y-11145563D01*
X10889244Y-10969019D02*
X10909244Y-10989019D01*
X10909244Y-10969019D02*
X10889244Y-10989019D01*
X10892331Y-10809019D02*
X10912331Y-10829019D01*
X10912331Y-10809019D02*
X10892331Y-10829019D01*
X10988946Y-11383721D02*
X11008946Y-11403721D01*
X11008946Y-11383721D02*
X10988946Y-11403721D01*
X11053287Y-9470563D02*
X11073287Y-9490563D01*
X11073287Y-9470563D02*
X11053287Y-9490563D01*
X11053287Y-9648063D02*
X11073287Y-9668063D01*
X11073287Y-9648063D02*
X11053287Y-9668063D01*
X11093287Y-12083063D02*
X11113287Y-12103063D01*
X11113287Y-12083063D02*
X11093287Y-12103063D01*
X11093287Y-12233063D02*
X11113287Y-12253063D01*
X11113287Y-12233063D02*
X11093287Y-12253063D01*
X11112216Y-11174134D02*
X11132216Y-11194134D01*
X11132216Y-11174134D02*
X11112216Y-11194134D01*
X11120000Y-7070000D02*
X11140000Y-7090000D01*
X11140000Y-7070000D02*
X11120000Y-7090000D01*
X11120000Y-7160000D02*
X11140000Y-7180000D01*
X11140000Y-7160000D02*
X11120000Y-7180000D01*
X11128287Y-10783063D02*
X11148287Y-10803063D01*
X11148287Y-10783063D02*
X11128287Y-10803063D01*
X11134287Y-11829063D02*
X11154287Y-11849063D01*
X11154287Y-11829063D02*
X11134287Y-11849063D01*
X11178287Y-10703063D02*
X11198287Y-10723063D01*
X11198287Y-10703063D02*
X11178287Y-10723063D01*
X11178287Y-11213063D02*
X11198287Y-11233063D01*
X11198287Y-11213063D02*
X11178287Y-11233063D01*
X11180000Y-6800000D02*
X11200000Y-6820000D01*
X11200000Y-6800000D02*
X11180000Y-6820000D01*
X11180000Y-9340000D02*
X11200000Y-9360000D01*
X11200000Y-9340000D02*
X11180000Y-9360000D01*
X11188287Y-10863063D02*
X11208287Y-10883063D01*
X11208287Y-10863063D02*
X11188287Y-10883063D01*
X11193287Y-9568063D02*
X11213287Y-9588063D01*
X11213287Y-9568063D02*
X11193287Y-9588063D01*
X11265788Y-11100563D02*
X11285788Y-11120563D01*
X11285788Y-11100563D02*
X11265788Y-11120563D01*
X11280000Y-11740000D02*
X11300000Y-11760000D01*
X11300000Y-11740000D02*
X11280000Y-11760000D01*
X11300000Y-8910000D02*
X11320000Y-8930000D01*
X11320000Y-8910000D02*
X11300000Y-8930000D01*
X11330000Y-7455000D02*
X11350000Y-7475000D01*
X11350000Y-7455000D02*
X11330000Y-7475000D01*
X11333288Y-12338062D02*
X11353288Y-12358062D01*
X11353288Y-12338062D02*
X11333288Y-12358062D01*
X11406667Y-7950000D02*
X11426667Y-7970000D01*
X11426667Y-7950000D02*
X11406667Y-7970000D01*
X11423287Y-12230710D02*
X11443287Y-12250710D01*
X11443287Y-12230710D02*
X11423287Y-12250710D01*
X11435000Y-11740000D02*
X11455000Y-11760000D01*
X11455000Y-11740000D02*
X11435000Y-11760000D01*
X11523333Y-7950000D02*
X11543333Y-7970000D01*
X11543333Y-7950000D02*
X11523333Y-7970000D01*
X11543287Y-11878063D02*
X11563287Y-11898063D01*
X11563287Y-11878063D02*
X11543287Y-11898063D01*
X11543287Y-11968063D02*
X11563287Y-11988063D01*
X11563287Y-11968063D02*
X11543287Y-11988063D01*
X11640000Y-7950000D02*
X11660000Y-7970000D01*
X11660000Y-7950000D02*
X11640000Y-7970000D01*
X11678571Y-11286810D02*
X11698571Y-11306810D01*
X11698571Y-11286810D02*
X11678571Y-11306810D01*
X11705000Y-6962500D02*
X11725000Y-6982500D01*
X11725000Y-6962500D02*
X11705000Y-6982500D01*
X11743287Y-11878063D02*
X11763287Y-11898063D01*
X11763287Y-11878063D02*
X11743287Y-11898063D01*
X11756667Y-7950000D02*
X11776667Y-7970000D01*
X11776667Y-7950000D02*
X11756667Y-7970000D01*
X11766071Y-11376810D02*
X11786071Y-11396810D01*
X11786071Y-11376810D02*
X11766071Y-11396810D01*
X11840000Y-8850000D02*
X11860000Y-8870000D01*
X11860000Y-8850000D02*
X11840000Y-8870000D01*
X12708760Y-11892500D02*
X12728760Y-11912500D01*
X12728760Y-11892500D02*
X12708760Y-11912500D01*
X12793760Y-11977500D02*
X12813760Y-11997500D01*
X12813760Y-11977500D02*
X12793760Y-11997500D01*
X12856260Y-11179779D02*
X12876260Y-11199779D01*
X12876260Y-11179779D02*
X12856260Y-11199779D01*
X12883760Y-11892500D02*
X12903760Y-11912500D01*
X12903760Y-11892500D02*
X12883760Y-11912500D01*
X12968760Y-11977500D02*
X12988760Y-11997500D01*
X12988760Y-11977500D02*
X12968760Y-11997500D01*
X12977500Y-11179779D02*
X12997500Y-11199779D01*
X12997500Y-11179779D02*
X12977500Y-11199779D01*
X12980000Y-11271029D02*
X13000000Y-11291029D01*
X13000000Y-11271029D02*
X12980000Y-11291029D01*
X12980000Y-11362279D02*
X13000000Y-11382279D01*
X13000000Y-11362279D02*
X12980000Y-11382279D01*
X13053760Y-11892500D02*
X13073760Y-11912500D01*
X13073760Y-11892500D02*
X13053760Y-11912500D01*
X13138760Y-11977500D02*
X13158760Y-11997500D01*
X13158760Y-11977500D02*
X13138760Y-11997500D01*
X13223760Y-11892500D02*
X13243760Y-11912500D01*
X13243760Y-11892500D02*
X13223760Y-11912500D01*
X13331260Y-10735000D02*
X13351260Y-10755000D01*
X13351260Y-10735000D02*
X13331260Y-10755000D01*
X13368760Y-11460000D02*
X13388760Y-11480000D01*
X13388760Y-11460000D02*
X13368760Y-11480000D01*
X13368760Y-11630000D02*
X13388760Y-11650000D01*
X13388760Y-11630000D02*
X13368760Y-11650000D01*
X13368760Y-11805000D02*
X13388760Y-11825000D01*
X13388760Y-11805000D02*
X13368760Y-11825000D01*
X13374360Y-10454400D02*
X13394360Y-10474400D01*
X13394360Y-10454400D02*
X13374360Y-10474400D01*
X13383760Y-10180000D02*
X13403760Y-10200000D01*
X13403760Y-10180000D02*
X13383760Y-10200000D01*
X13415000Y-11295000D02*
X13435000Y-11315000D01*
X13435000Y-11295000D02*
X13415000Y-11315000D01*
X13416260Y-11087500D02*
X13436260Y-11107500D01*
X13436260Y-11087500D02*
X13416260Y-11107500D01*
X13423760Y-10792500D02*
X13443760Y-10812500D01*
X13443760Y-10792500D02*
X13423760Y-10812500D01*
X13483760Y-7477500D02*
X13503760Y-7497500D01*
X13503760Y-7477500D02*
X13483760Y-7497500D01*
X13483760Y-7650000D02*
X13503760Y-7670000D01*
X13503760Y-7650000D02*
X13483760Y-7670000D01*
X13483760Y-7815000D02*
X13503760Y-7835000D01*
X13503760Y-7815000D02*
X13483760Y-7835000D01*
X13483760Y-8755000D02*
X13503760Y-8775000D01*
X13503760Y-8755000D02*
X13483760Y-8775000D01*
X13485734Y-11500000D02*
X13505734Y-11520000D01*
X13505734Y-11500000D02*
X13485734Y-11520000D01*
X13485734Y-11670000D02*
X13505734Y-11690000D01*
X13505734Y-11670000D02*
X13485734Y-11690000D01*
X13485734Y-11845000D02*
X13505734Y-11865000D01*
X13505734Y-11845000D02*
X13485734Y-11865000D01*
X13558760Y-11182500D02*
X13578760Y-11202500D01*
X13578760Y-11182500D02*
X13558760Y-11202500D01*
X13705010Y-7477500D02*
X13725010Y-7497500D01*
X13725010Y-7477500D02*
X13705010Y-7497500D01*
X13705010Y-7650000D02*
X13725010Y-7670000D01*
X13725010Y-7650000D02*
X13705010Y-7670000D01*
X13705010Y-7815000D02*
X13725010Y-7835000D01*
X13725010Y-7815000D02*
X13705010Y-7835000D01*
X13705010Y-8755000D02*
X13725010Y-8775000D01*
X13725010Y-8755000D02*
X13705010Y-8775000D01*
X13711260Y-10942500D02*
X13731260Y-10962500D01*
X13731260Y-10942500D02*
X13711260Y-10962500D01*
X13713760Y-10865000D02*
X13733760Y-10885000D01*
X13733760Y-10865000D02*
X13713760Y-10885000D01*
X13713760Y-11032500D02*
X13733760Y-11052500D01*
X13733760Y-11032500D02*
X13713760Y-11052500D01*
X13764760Y-10245000D02*
X13784760Y-10265000D01*
X13784760Y-10245000D02*
X13764760Y-10265000D01*
X13851260Y-11157500D02*
X13871260Y-11177500D01*
X13871260Y-11157500D02*
X13851260Y-11177500D01*
X13878760Y-9832500D02*
X13898760Y-9852500D01*
X13898760Y-9832500D02*
X13878760Y-9852500D01*
X13878760Y-9920000D02*
X13898760Y-9940000D01*
X13898760Y-9920000D02*
X13878760Y-9940000D01*
X13921260Y-10480000D02*
X13941260Y-10500000D01*
X13941260Y-10480000D02*
X13921260Y-10500000D01*
X13926260Y-7477500D02*
X13946260Y-7497500D01*
X13946260Y-7477500D02*
X13926260Y-7497500D01*
X13926260Y-7650000D02*
X13946260Y-7670000D01*
X13946260Y-7650000D02*
X13926260Y-7670000D01*
X13926260Y-7815000D02*
X13946260Y-7835000D01*
X13946260Y-7815000D02*
X13926260Y-7835000D01*
X13926260Y-8755000D02*
X13946260Y-8775000D01*
X13946260Y-8755000D02*
X13926260Y-8775000D01*
X13968760Y-10780000D02*
X13988760Y-10800000D01*
X13988760Y-10780000D02*
X13968760Y-10800000D01*
X14001260Y-10520000D02*
X14021260Y-10540000D01*
X14021260Y-10520000D02*
X14001260Y-10540000D01*
X14035760Y-10456000D02*
X14055760Y-10476000D01*
X14055760Y-10456000D02*
X14035760Y-10476000D01*
X14066760Y-9924000D02*
X14086760Y-9944000D01*
X14086760Y-9924000D02*
X14066760Y-9944000D01*
X14098010Y-10533250D02*
X14118010Y-10553250D01*
X14118010Y-10533250D02*
X14098010Y-10553250D01*
X14166860Y-11156900D02*
X14186860Y-11176900D01*
X14186860Y-11156900D02*
X14166860Y-11176900D01*
X14244760Y-10901000D02*
X14264760Y-10921000D01*
X14264760Y-10901000D02*
X14244760Y-10921000D01*
X14270000Y-7925000D02*
X14290000Y-7945000D01*
X14290000Y-7925000D02*
X14270000Y-7945000D01*
X14318760Y-10900000D02*
X14338760Y-10920000D01*
X14338760Y-10900000D02*
X14318760Y-10920000D01*
X14321260Y-11277500D02*
X14341260Y-11297500D01*
X14341260Y-11277500D02*
X14321260Y-11297500D01*
X14386667Y-7925000D02*
X14406667Y-7945000D01*
X14406667Y-7925000D02*
X14386667Y-7945000D01*
X14453760Y-12332500D02*
X14473760Y-12352500D01*
X14473760Y-12332500D02*
X14453760Y-12352500D01*
X14466260Y-11190000D02*
X14486260Y-11210000D01*
X14486260Y-11190000D02*
X14466260Y-11210000D01*
X14466260Y-11377500D02*
X14486260Y-11397500D01*
X14486260Y-11377500D02*
X14466260Y-11397500D01*
X14488760Y-10882500D02*
X14508760Y-10902500D01*
X14508760Y-10882500D02*
X14488760Y-10902500D01*
X14503333Y-7925000D02*
X14523333Y-7945000D01*
X14523333Y-7925000D02*
X14503333Y-7945000D01*
X14558760Y-12215000D02*
X14578760Y-12235000D01*
X14578760Y-12215000D02*
X14558760Y-12235000D01*
X14581260Y-11452500D02*
X14601260Y-11472500D01*
X14601260Y-11452500D02*
X14581260Y-11472500D01*
X14603760Y-11280000D02*
X14623760Y-11300000D01*
X14623760Y-11280000D02*
X14603760Y-11300000D01*
X14620000Y-7925000D02*
X14640000Y-7945000D01*
X14640000Y-7925000D02*
X14620000Y-7945000D01*
X14663760Y-12335000D02*
X14683760Y-12355000D01*
X14683760Y-12335000D02*
X14663760Y-12355000D01*
X14768760Y-12215000D02*
X14788760Y-12235000D01*
X14788760Y-12215000D02*
X14768760Y-12235000D01*
X14823760Y-11615000D02*
X14843760Y-11635000D01*
X14843760Y-11615000D02*
X14823760Y-11635000D01*
X14826260Y-11287500D02*
X14846260Y-11307500D01*
X14846260Y-11287500D02*
X14826260Y-11307500D01*
X14873760Y-12335000D02*
X14893760Y-12355000D01*
X14893760Y-12335000D02*
X14873760Y-12355000D01*
X14978760Y-12215000D02*
X14998760Y-12235000D01*
X14998760Y-12215000D02*
X14978760Y-12235000D01*
X15073760Y-11452500D02*
X15093760Y-11472500D01*
X15093760Y-11452500D02*
X15073760Y-11472500D01*
X15083760Y-12332500D02*
X15103760Y-12352500D01*
X15103760Y-12332500D02*
X15083760Y-12352500D01*
X15218760Y-11197500D02*
X15238760Y-11217500D01*
X15238760Y-11197500D02*
X15218760Y-11217500D01*
X15348760Y-11197500D02*
X15368760Y-11217500D01*
X15368760Y-11197500D02*
X15348760Y-11217500D01*
X15383760Y-8120000D02*
X15403760Y-8140000D01*
X15403760Y-8120000D02*
X15383760Y-8140000D01*
X15486260Y-11197500D02*
X15506260Y-11217500D01*
X15506260Y-11197500D02*
X15486260Y-11217500D01*
X15598760Y-8335000D02*
X15618760Y-8355000D01*
X15618760Y-8335000D02*
X15598760Y-8355000D01*
X15601260Y-7945000D02*
X15621260Y-7965000D01*
X15621260Y-7945000D02*
X15601260Y-7965000D01*
X15613760Y-8702500D02*
X15633760Y-8722500D01*
X15633760Y-8702500D02*
X15613760Y-8722500D01*
X15663760Y-9190000D02*
X15683760Y-9210000D01*
X15683760Y-9190000D02*
X15663760Y-9210000D01*
X15816260Y-8120000D02*
X15836260Y-8140000D01*
X15836260Y-8120000D02*
X15816260Y-8140000D01*
X15846260Y-11367500D02*
X15866260Y-11387500D01*
X15866260Y-11367500D02*
X15846260Y-11387500D01*
X16038760Y-8272500D02*
X16058760Y-8292500D01*
X16058760Y-8272500D02*
X16038760Y-8292500D01*
X16046260Y-9187500D02*
X16066260Y-9207500D01*
X16066260Y-9187500D02*
X16046260Y-9207500D01*
X16063760Y-7352500D02*
X16083760Y-7372500D01*
X16083760Y-7352500D02*
X16063760Y-7372500D01*
X16063760Y-7620000D02*
X16083760Y-7640000D01*
X16083760Y-7620000D02*
X16063760Y-7640000D01*
X16063760Y-8140000D02*
X16083760Y-8160000D01*
X16083760Y-8140000D02*
X16063760Y-8160000D01*
X16158760Y-11847500D02*
X16178760Y-11867500D01*
X16178760Y-11847500D02*
X16158760Y-11867500D01*
X16166260Y-10237500D02*
X16186260Y-10257500D01*
X16186260Y-10237500D02*
X16166260Y-10257500D01*
X16193760Y-9922500D02*
X16213760Y-9942500D01*
X16213760Y-9922500D02*
X16193760Y-9942500D01*
X16226260Y-11242500D02*
X16246260Y-11262500D01*
X16246260Y-11242500D02*
X16226260Y-11262500D01*
X16286260Y-7355000D02*
X16306260Y-7375000D01*
X16306260Y-7355000D02*
X16286260Y-7375000D01*
X16303760Y-8285000D02*
X16323760Y-8305000D01*
X16323760Y-8285000D02*
X16303760Y-8305000D01*
X16311260Y-10097500D02*
X16331260Y-10117500D01*
X16331260Y-10097500D02*
X16311260Y-10117500D01*
X16316260Y-9465000D02*
X16336260Y-9485000D01*
X16336260Y-9465000D02*
X16316260Y-9485000D01*
X16320000Y-8572000D02*
X16340000Y-8592000D01*
X16340000Y-8572000D02*
X16320000Y-8592000D01*
X16328760Y-9780000D02*
X16348760Y-9800000D01*
X16348760Y-9780000D02*
X16328760Y-9800000D01*
X16383760Y-12145000D02*
X16403760Y-12165000D01*
X16403760Y-12145000D02*
X16383760Y-12165000D01*
X16541260Y-9600000D02*
X16561260Y-9620000D01*
X16561260Y-9600000D02*
X16541260Y-9620000D01*
X16568760Y-10195000D02*
X16588760Y-10215000D01*
X16588760Y-10195000D02*
X16568760Y-10215000D01*
X16583760Y-11365000D02*
X16603760Y-11385000D01*
X16603760Y-11365000D02*
X16583760Y-11385000D01*
X16758760Y-12260000D02*
X16778760Y-12280000D01*
X16778760Y-12260000D02*
X16758760Y-12280000D01*
X16908760Y-10180000D02*
X16928760Y-10200000D01*
X16928760Y-10180000D02*
X16908760Y-10200000D01*
X16938760Y-11247500D02*
X16958760Y-11267500D01*
X16958760Y-11247500D02*
X16938760Y-11267500D01*
X17078760Y-9462500D02*
X17098760Y-9482500D01*
X17098760Y-9462500D02*
X17078760Y-9482500D01*
X17108760Y-7357500D02*
X17128760Y-7377500D01*
X17128760Y-7357500D02*
X17108760Y-7377500D01*
X17133760Y-12142500D02*
X17153760Y-12162500D01*
X17153760Y-12142500D02*
X17133760Y-12162500D01*
X17150000Y-8290000D02*
X17170000Y-8310000D01*
X17170000Y-8290000D02*
X17150000Y-8310000D01*
X17308760Y-10132500D02*
X17328760Y-10152500D01*
X17328760Y-10132500D02*
X17308760Y-10152500D01*
X17386260Y-7355000D02*
X17406260Y-7375000D01*
X17406260Y-7355000D02*
X17386260Y-7375000D01*
X17391260Y-11437500D02*
X17411260Y-11457500D01*
X17411260Y-11437500D02*
X17391260Y-11457500D01*
X17478760Y-8875000D02*
X17498760Y-8895000D01*
X17498760Y-8875000D02*
X17478760Y-8895000D01*
X17478760Y-10715000D02*
X17498760Y-10735000D01*
X17498760Y-10715000D02*
X17478760Y-10735000D01*
X17481260Y-9542500D02*
X17501260Y-9562500D01*
X17501260Y-9542500D02*
X17481260Y-9562500D01*
X17483760Y-7567500D02*
X17503760Y-7587500D01*
X17503760Y-7567500D02*
X17483760Y-7587500D01*
X17536260Y-8150000D02*
X17556260Y-8170000D01*
X17556260Y-8150000D02*
X17536260Y-8170000D01*
X17540424Y-11438336D02*
X17560424Y-11458336D01*
X17560424Y-11438336D02*
X17540424Y-11458336D01*
X17556260Y-11212500D02*
X17576260Y-11232500D01*
X17576260Y-11212500D02*
X17556260Y-11232500D01*
X17583760Y-9432500D02*
X17603760Y-9452500D01*
X17603760Y-9432500D02*
X17583760Y-9452500D01*
X17586260Y-9640000D02*
X17606260Y-9660000D01*
X17606260Y-9640000D02*
X17586260Y-9660000D01*
X17588760Y-10625000D02*
X17608760Y-10645000D01*
X17608760Y-10625000D02*
X17588760Y-10645000D01*
X17666260Y-9967500D02*
X17686260Y-9987500D01*
X17686260Y-9967500D02*
X17666260Y-9987500D01*
X17666260Y-11317500D02*
X17686260Y-11337500D01*
X17686260Y-11317500D02*
X17666260Y-11337500D01*
X17673760Y-10725000D02*
X17693760Y-10745000D01*
X17693760Y-10725000D02*
X17673760Y-10745000D01*
X17691260Y-9540000D02*
X17711260Y-9560000D01*
X17711260Y-9540000D02*
X17691260Y-9560000D01*
X17691260Y-11092500D02*
X17711260Y-11112500D01*
X17711260Y-11092500D02*
X17691260Y-11112500D01*
X17721260Y-6867500D02*
X17741260Y-6887500D01*
X17741260Y-6867500D02*
X17721260Y-6887500D01*
X17723760Y-9895000D02*
X17743760Y-9915000D01*
X17743760Y-9895000D02*
X17723760Y-9915000D01*
X17731260Y-10042500D02*
X17751260Y-10062500D01*
X17751260Y-10042500D02*
X17731260Y-10062500D01*
X17812760Y-9787500D02*
X17832760Y-9807500D01*
X17832760Y-9787500D02*
X17812760Y-9807500D01*
X17833760Y-6980000D02*
X17853760Y-7000000D01*
X17853760Y-6980000D02*
X17833760Y-7000000D01*
X17873760Y-9730000D02*
X17893760Y-9750000D01*
X17893760Y-9730000D02*
X17873760Y-9750000D01*
X17916260Y-12130000D02*
X17936260Y-12150000D01*
X17936260Y-12130000D02*
X17916260Y-12150000D01*
X17943760Y-6870000D02*
X17963760Y-6890000D01*
X17963760Y-6870000D02*
X17943760Y-6890000D01*
X17968760Y-11072500D02*
X17988760Y-11092500D01*
X17988760Y-11072500D02*
X17968760Y-11092500D01*
X18031260Y-12132500D02*
X18051260Y-12152500D01*
X18051260Y-12132500D02*
X18031260Y-12152500D01*
X18086260Y-6852500D02*
X18106260Y-6872500D01*
X18106260Y-6852500D02*
X18086260Y-6872500D01*
X18151260Y-12135000D02*
X18171260Y-12155000D01*
X18171260Y-12135000D02*
X18151260Y-12155000D01*
X18303760Y-12135000D02*
X18323760Y-12155000D01*
X18323760Y-12135000D02*
X18303760Y-12155000D01*
X18448760Y-9060000D02*
X18468760Y-9080000D01*
X18468760Y-9060000D02*
X18448760Y-9080000D01*
X18451260Y-8980000D02*
X18471260Y-9000000D01*
X18471260Y-8980000D02*
X18451260Y-9000000D01*
X18458760Y-9650000D02*
X18478760Y-9670000D01*
X18478760Y-9650000D02*
X18458760Y-9670000D01*
X18661260Y-7652500D02*
X18681260Y-7672500D01*
X18681260Y-7652500D02*
X18661260Y-7672500D01*
X18671260Y-10695000D02*
X18691260Y-10715000D01*
X18691260Y-10695000D02*
X18671260Y-10715000D01*
X18724206Y-7611722D02*
X18744206Y-7631722D01*
X18744206Y-7611722D02*
X18724206Y-7631722D01*
X18851260Y-10005000D02*
X18871260Y-10025000D01*
X18871260Y-10005000D02*
X18851260Y-10025000D01*
X18878760Y-11935000D02*
X18898760Y-11955000D01*
X18898760Y-11935000D02*
X18878760Y-11955000D01*
X18893760Y-6872500D02*
X18913760Y-6892500D01*
X18913760Y-6872500D02*
X18893760Y-6892500D01*
X18946760Y-9051000D02*
X18966760Y-9071000D01*
X18966760Y-9051000D02*
X18946760Y-9071000D01*
X18953760Y-11415000D02*
X18973760Y-11435000D01*
X18973760Y-11415000D02*
X18953760Y-11435000D01*
X18958760Y-11935000D02*
X18978760Y-11955000D01*
X18978760Y-11935000D02*
X18958760Y-11955000D01*
X18988760Y-9120000D02*
X19008760Y-9140000D01*
X19008760Y-9120000D02*
X18988760Y-9140000D01*
X19001260Y-11860000D02*
X19021260Y-11880000D01*
X19021260Y-11860000D02*
X19001260Y-11880000D01*
X19003760Y-6762500D02*
X19023760Y-6782500D01*
X19023760Y-6762500D02*
X19003760Y-6782500D01*
X19006260Y-6982500D02*
X19026260Y-7002500D01*
X19026260Y-6982500D02*
X19006260Y-7002500D01*
X19008760Y-9355000D02*
X19028760Y-9375000D01*
X19028760Y-9355000D02*
X19008760Y-9375000D01*
X19008760Y-9452500D02*
X19028760Y-9472500D01*
X19028760Y-9452500D02*
X19008760Y-9472500D01*
X19023760Y-12112500D02*
X19043760Y-12132500D01*
X19043760Y-12112500D02*
X19023760Y-12132500D01*
X19118760Y-6872500D02*
X19138760Y-6892500D01*
X19138760Y-6872500D02*
X19118760Y-6892500D01*
X19138760Y-12207500D02*
X19158760Y-12227500D01*
X19158760Y-12207500D02*
X19138760Y-12227500D01*
X19221260Y-11155000D02*
X19241260Y-11175000D01*
X19241260Y-11155000D02*
X19221260Y-11175000D01*
X19231260Y-11030000D02*
X19251260Y-11050000D01*
X19251260Y-11030000D02*
X19231260Y-11050000D01*
X19248760Y-9422500D02*
X19268760Y-9442500D01*
X19268760Y-9422500D02*
X19248760Y-9442500D01*
X19248760Y-12112500D02*
X19268760Y-12132500D01*
X19268760Y-12112500D02*
X19248760Y-12132500D01*
X19258760Y-6872500D02*
X19278760Y-6892500D01*
X19278760Y-6872500D02*
X19258760Y-6892500D01*
X19271260Y-10030000D02*
X19291260Y-10050000D01*
X19291260Y-10030000D02*
X19271260Y-10050000D01*
X19276260Y-9762500D02*
X19296260Y-9782500D01*
X19296260Y-9762500D02*
X19276260Y-9782500D01*
X19283760Y-10977500D02*
X19303760Y-10997500D01*
X19303760Y-10977500D02*
X19283760Y-10997500D01*
X19301260Y-11052500D02*
X19321260Y-11072500D01*
X19321260Y-11052500D02*
X19301260Y-11072500D01*
X19303760Y-11225000D02*
X19323760Y-11245000D01*
X19323760Y-11225000D02*
X19303760Y-11245000D01*
X19308760Y-11732500D02*
X19328760Y-11752500D01*
X19328760Y-11732500D02*
X19308760Y-11752500D01*
X19326260Y-11125000D02*
X19346260Y-11145000D01*
X19346260Y-11125000D02*
X19326260Y-11145000D01*
X19346260Y-10902500D02*
X19366260Y-10922500D01*
X19366260Y-10902500D02*
X19346260Y-10922500D01*
X19361260Y-6770000D02*
X19381260Y-6790000D01*
X19381260Y-6770000D02*
X19361260Y-6790000D01*
X19361260Y-6972500D02*
X19381260Y-6992500D01*
X19381260Y-6972500D02*
X19361260Y-6992500D01*
X19363760Y-8615000D02*
X19383760Y-8635000D01*
X19383760Y-8615000D02*
X19363760Y-8635000D01*
X19366260Y-12112500D02*
X19386260Y-12132500D01*
X19386260Y-12112500D02*
X19366260Y-12132500D01*
X19378760Y-11072500D02*
X19398760Y-11092500D01*
X19398760Y-11072500D02*
X19378760Y-11092500D01*
X19426260Y-10987500D02*
X19446260Y-11007500D01*
X19446260Y-10987500D02*
X19426260Y-11007500D01*
X19463760Y-8617500D02*
X19483760Y-8637500D01*
X19483760Y-8617500D02*
X19463760Y-8637500D01*
X19466260Y-6872500D02*
X19486260Y-6892500D01*
X19486260Y-6872500D02*
X19466260Y-6892500D01*
X19478760Y-12205000D02*
X19498760Y-12225000D01*
X19498760Y-12205000D02*
X19478760Y-12225000D01*
X19498760Y-11085000D02*
X19518760Y-11105000D01*
X19518760Y-11085000D02*
X19498760Y-11105000D01*
X19593760Y-6817500D02*
X19613760Y-6837500D01*
X19613760Y-6817500D02*
X19593760Y-6837500D01*
X19698760Y-12065000D02*
X19718760Y-12085000D01*
X19718760Y-12065000D02*
X19698760Y-12085000D01*
X19748760Y-10090000D02*
X19768760Y-10110000D01*
X19768760Y-10090000D02*
X19748760Y-10110000D01*
X19766260Y-11200000D02*
X19786260Y-11220000D01*
X19786260Y-11200000D02*
X19766260Y-11220000D01*
X19836260Y-11105000D02*
X19856260Y-11125000D01*
X19856260Y-11105000D02*
X19836260Y-11125000D01*
X19878760Y-11200000D02*
X19898760Y-11220000D01*
X19898760Y-11200000D02*
X19878760Y-11220000D01*
X19943760Y-11135000D02*
X19963760Y-11155000D01*
X19963760Y-11135000D02*
X19943760Y-11155000D01*
X19968760Y-6620000D02*
X19988760Y-6640000D01*
X19988760Y-6620000D02*
X19968760Y-6640000D01*
X19976260Y-11227500D02*
X19996260Y-11247500D01*
X19996260Y-11227500D02*
X19976260Y-11247500D01*
X20046260Y-11777500D02*
X20066260Y-11797500D01*
X20066260Y-11777500D02*
X20046260Y-11797500D01*
X20093760Y-6620000D02*
X20113760Y-6640000D01*
X20113760Y-6620000D02*
X20093760Y-6640000D01*
X20116260Y-11417500D02*
X20136260Y-11437500D01*
X20136260Y-11417500D02*
X20116260Y-11437500D01*
X20131260Y-11807500D02*
X20151260Y-11827500D01*
X20151260Y-11807500D02*
X20131260Y-11827500D01*
X20168760Y-6952500D02*
X20188760Y-6972500D01*
X20188760Y-6952500D02*
X20168760Y-6972500D01*
X20178760Y-11877500D02*
X20198760Y-11897500D01*
X20198760Y-11877500D02*
X20178760Y-11897500D01*
X20208760Y-6620000D02*
X20228760Y-6640000D01*
X20228760Y-6620000D02*
X20208760Y-6640000D01*
X20223760Y-8987500D02*
X20243760Y-9007500D01*
X20243760Y-8987500D02*
X20223760Y-9007500D01*
X20226260Y-11807500D02*
X20246260Y-11827500D01*
X20246260Y-11807500D02*
X20226260Y-11827500D01*
X20228760Y-7017500D02*
X20248760Y-7037500D01*
X20248760Y-7017500D02*
X20228760Y-7037500D01*
X20273760Y-7677500D02*
X20293760Y-7697500D01*
X20293760Y-7677500D02*
X20273760Y-7697500D01*
X20283760Y-7850000D02*
X20303760Y-7870000D01*
X20303760Y-7850000D02*
X20283760Y-7870000D01*
X20286260Y-7080000D02*
X20306260Y-7100000D01*
X20306260Y-7080000D02*
X20286260Y-7100000D01*
X20318760Y-7765000D02*
X20338760Y-7785000D01*
X20338760Y-7765000D02*
X20318760Y-7785000D01*
X20321260Y-7235000D02*
X20341260Y-7255000D01*
X20341260Y-7235000D02*
X20321260Y-7255000D01*
X20351260Y-6625000D02*
X20371260Y-6645000D01*
X20371260Y-6625000D02*
X20351260Y-6645000D01*
X20356260Y-11347500D02*
X20376260Y-11367500D01*
X20376260Y-11347500D02*
X20356260Y-11367500D01*
X20361260Y-12125000D02*
X20381260Y-12145000D01*
X20381260Y-12125000D02*
X20361260Y-12145000D01*
X20376260Y-11215000D02*
X20396260Y-11235000D01*
X20396260Y-11215000D02*
X20376260Y-11235000D01*
X20408760Y-11125000D02*
X20428760Y-11145000D01*
X20428760Y-11125000D02*
X20408760Y-11145000D01*
X20416260Y-10127500D02*
X20436260Y-10147500D01*
X20436260Y-10127500D02*
X20416260Y-10147500D01*
X20416260Y-10985000D02*
X20436260Y-11005000D01*
X20436260Y-10985000D02*
X20416260Y-11005000D01*
X20418760Y-11497500D02*
X20438760Y-11517500D01*
X20438760Y-11497500D02*
X20418760Y-11517500D01*
X20468760Y-11185000D02*
X20488760Y-11205000D01*
X20488760Y-11185000D02*
X20468760Y-11205000D01*
X20476260Y-11082500D02*
X20496260Y-11102500D01*
X20496260Y-11082500D02*
X20476260Y-11102500D01*
X20488760Y-7305000D02*
X20508760Y-7325000D01*
X20508760Y-7305000D02*
X20488760Y-7325000D01*
X20526260Y-11595000D02*
X20546260Y-11615000D01*
X20546260Y-11595000D02*
X20526260Y-11615000D01*
X20608760Y-11785000D02*
X20628760Y-11805000D01*
X20628760Y-11785000D02*
X20608760Y-11805000D01*
X20613760Y-7660000D02*
X20633760Y-7680000D01*
X20633760Y-7660000D02*
X20613760Y-7680000D01*
X20613760Y-12122500D02*
X20633760Y-12142500D01*
X20633760Y-12122500D02*
X20613760Y-12142500D01*
X20621260Y-7760000D02*
X20641260Y-7780000D01*
X20641260Y-7760000D02*
X20621260Y-7780000D01*
X20621260Y-11690000D02*
X20641260Y-11710000D01*
X20641260Y-11690000D02*
X20621260Y-11710000D01*
X20653760Y-12317500D02*
X20673760Y-12337500D01*
X20673760Y-12317500D02*
X20653760Y-12337500D01*
X20696260Y-11937500D02*
X20716260Y-11957500D01*
X20716260Y-11937500D02*
X20696260Y-11957500D01*
X20698760Y-12122500D02*
X20718760Y-12142500D01*
X20718760Y-12122500D02*
X20698760Y-12142500D01*
X20703760Y-7420000D02*
X20723760Y-7440000D01*
X20723760Y-7420000D02*
X20703760Y-7440000D01*
X20703760Y-7545000D02*
X20723760Y-7565000D01*
X20723760Y-7545000D02*
X20703760Y-7565000D01*
X20703760Y-7660000D02*
X20723760Y-7680000D01*
X20723760Y-7660000D02*
X20703760Y-7680000D01*
X20708760Y-7760000D02*
X20728760Y-7780000D01*
X20728760Y-7760000D02*
X20708760Y-7780000D01*
X20723760Y-10257500D02*
X20743760Y-10277500D01*
X20743760Y-10257500D02*
X20723760Y-10277500D01*
X20723760Y-11115000D02*
X20743760Y-11135000D01*
X20743760Y-11115000D02*
X20723760Y-11135000D01*
X20793760Y-7482500D02*
X20813760Y-7502500D01*
X20813760Y-7482500D02*
X20793760Y-7502500D01*
X20793760Y-7607500D02*
X20813760Y-7627500D01*
X20813760Y-7607500D02*
X20793760Y-7627500D01*
X17278760Y-12120000D02*
G75*
G02*
X17253760Y-12120000I-12500J0D01*
G01*
X17253760Y-12120000D02*
G75*
G02*
X17278760Y-12120000I12500J0D01*
G01*
X17421260Y-11977500D02*
G75*
G02*
X17396260Y-11977500I-12500J0D01*
G01*
X17396260Y-11977500D02*
G75*
G02*
X17421260Y-11977500I12500J0D01*
G01*
X17421260Y-12260000D02*
G75*
G02*
X17396260Y-12260000I-12500J0D01*
G01*
X17396260Y-12260000D02*
G75*
G02*
X17421260Y-12260000I12500J0D01*
G01*
X17561260Y-12120000D02*
G75*
G02*
X17536260Y-12120000I-12500J0D01*
G01*
X17536260Y-12120000D02*
G75*
G02*
X17561260Y-12120000I12500J0D01*
G01*
X19296260Y-9870000D02*
G75*
G02*
X19271260Y-9870000I-12500J0D01*
G01*
X19271260Y-9870000D02*
G75*
G02*
X19296260Y-9870000I12500J0D01*
G01*
X20446260Y-7250000D02*
G75*
G02*
X20421260Y-7250000I-12500J0D01*
G01*
X20421260Y-7250000D02*
G75*
G02*
X20446260Y-7250000I12500J0D01*
G01*
X11005787Y-8265563D02*
X11005787Y-8295563D01*
X10990787Y-8280563D02*
X11020787Y-8280563D01*
X11005787Y-8435563D02*
X11005787Y-8465563D01*
X10990787Y-8450563D02*
X11020787Y-8450563D01*
X11008287Y-7515563D02*
X11008287Y-7545563D01*
X10993287Y-7530563D02*
X11023287Y-7530563D01*
X11008287Y-7685563D02*
X11008287Y-7715563D01*
X10993287Y-7700563D02*
X11023287Y-7700563D01*
X11090787Y-8350563D02*
X11090787Y-8380563D01*
X11075787Y-8365563D02*
X11105787Y-8365563D01*
X11093287Y-7600563D02*
X11093287Y-7630563D01*
X11078287Y-7615563D02*
X11108287Y-7615563D01*
X11180787Y-8265563D02*
X11180787Y-8295563D01*
X11165787Y-8280563D02*
X11195787Y-8280563D01*
X11180787Y-8435563D02*
X11180787Y-8465563D01*
X11165787Y-8450563D02*
X11195787Y-8450563D01*
X11183287Y-7515563D02*
X11183287Y-7545563D01*
X11168287Y-7530563D02*
X11198287Y-7530563D01*
X11183287Y-7685563D02*
X11183287Y-7715563D01*
X11168287Y-7700563D02*
X11198287Y-7700563D01*
X12711760Y-9308000D02*
X12711760Y-9338000D01*
X12696760Y-9323000D02*
X12726760Y-9323000D01*
X12711760Y-9478000D02*
X12711760Y-9508000D01*
X12696760Y-9493000D02*
X12726760Y-9493000D01*
X12726260Y-11562500D02*
X12726260Y-11592500D01*
X12711260Y-11577500D02*
X12741260Y-11577500D01*
X12726260Y-11732500D02*
X12726260Y-11762500D01*
X12711260Y-11747500D02*
X12741260Y-11747500D01*
X12796760Y-9393000D02*
X12796760Y-9423000D01*
X12781760Y-9408000D02*
X12811760Y-9408000D01*
X12811260Y-11647500D02*
X12811260Y-11677500D01*
X12796260Y-11662500D02*
X12826260Y-11662500D01*
X12886760Y-9308000D02*
X12886760Y-9338000D01*
X12871760Y-9323000D02*
X12901760Y-9323000D01*
X12886760Y-9478000D02*
X12886760Y-9508000D01*
X12871760Y-9493000D02*
X12901760Y-9493000D01*
X12901260Y-11562500D02*
X12901260Y-11592500D01*
X12886260Y-11577500D02*
X12916260Y-11577500D01*
X12901260Y-11732500D02*
X12901260Y-11762500D01*
X12886260Y-11747500D02*
X12916260Y-11747500D01*
X12971760Y-9393000D02*
X12971760Y-9423000D01*
X12956760Y-9408000D02*
X12986760Y-9408000D01*
X12986260Y-11647500D02*
X12986260Y-11677500D01*
X12971260Y-11662500D02*
X13001260Y-11662500D01*
X13056760Y-9308000D02*
X13056760Y-9338000D01*
X13041760Y-9323000D02*
X13071760Y-9323000D01*
X13056760Y-9478000D02*
X13056760Y-9508000D01*
X13041760Y-9493000D02*
X13071760Y-9493000D01*
X13071260Y-11562500D02*
X13071260Y-11592500D01*
X13056260Y-11577500D02*
X13086260Y-11577500D01*
X13071260Y-11732500D02*
X13071260Y-11762500D01*
X13056260Y-11747500D02*
X13086260Y-11747500D01*
X13141760Y-9393000D02*
X13141760Y-9423000D01*
X13126760Y-9408000D02*
X13156760Y-9408000D01*
X13156260Y-11647500D02*
X13156260Y-11677500D01*
X13141260Y-11662500D02*
X13171260Y-11662500D01*
X13226760Y-9308000D02*
X13226760Y-9338000D01*
X13211760Y-9323000D02*
X13241760Y-9323000D01*
X13226760Y-9478000D02*
X13226760Y-9508000D01*
X13211760Y-9493000D02*
X13241760Y-9493000D01*
X13241260Y-11562500D02*
X13241260Y-11592500D01*
X13226260Y-11577500D02*
X13256260Y-11577500D01*
X13241260Y-11732500D02*
X13241260Y-11762500D01*
X13226260Y-11747500D02*
X13256260Y-11747500D01*
X14388760Y-10480000D02*
X14388760Y-10510000D01*
X14373760Y-10495000D02*
X14403760Y-10495000D01*
X15213760Y-11295000D02*
X15213760Y-11325000D01*
X15198760Y-11310000D02*
X15228760Y-11310000D01*
X15358760Y-11295000D02*
X15358760Y-11325000D01*
X15343760Y-11310000D02*
X15373760Y-11310000D01*
X15503760Y-11295000D02*
X15503760Y-11325000D01*
X15488760Y-11310000D02*
X15518760Y-11310000D01*
X15853760Y-11835000D02*
X15853760Y-11865000D01*
X15838760Y-11850000D02*
X15868760Y-11850000D01*
X15938760Y-11920000D02*
X15938760Y-11950000D01*
X15923760Y-11935000D02*
X15953760Y-11935000D01*
X16023760Y-11835000D02*
X16023760Y-11865000D01*
X16008760Y-11850000D02*
X16038760Y-11850000D01*
X16223760Y-10135000D02*
X16223760Y-10165000D01*
X16208760Y-10150000D02*
X16238760Y-10150000D01*
X16243760Y-9820000D02*
X16243760Y-9850000D01*
X16228760Y-9835000D02*
X16258760Y-9835000D01*
X16273760Y-10185000D02*
X16273760Y-10215000D01*
X16258760Y-10200000D02*
X16288760Y-10200000D01*
X16291260Y-9867500D02*
X16291260Y-9897500D01*
X16276260Y-9882500D02*
X16306260Y-9882500D01*
X17673760Y-11440000D02*
X17673760Y-11470000D01*
X17658760Y-11455000D02*
X17688760Y-11455000D01*
X17688760Y-11545000D02*
X17688760Y-11575000D01*
X17673760Y-11560000D02*
X17703760Y-11560000D01*
X17828760Y-11410000D02*
X17828760Y-11440000D01*
X17813760Y-11425000D02*
X17843760Y-11425000D01*
X17828760Y-11515000D02*
X17828760Y-11545000D01*
X17813760Y-11530000D02*
X17843760Y-11530000D01*
X17983760Y-12025000D02*
X17983760Y-12055000D01*
X17968760Y-12040000D02*
X17998760Y-12040000D01*
X18088760Y-12025000D02*
X18088760Y-12055000D01*
X18073760Y-12040000D02*
X18103760Y-12040000D01*
X18188760Y-6785000D02*
X18188760Y-6815000D01*
X18173760Y-6800000D02*
X18203760Y-6800000D01*
X18473760Y-9545000D02*
X18473760Y-9575000D01*
X18458760Y-9560000D02*
X18488760Y-9560000D01*
X19141260Y-9372500D02*
X19141260Y-9402500D01*
X19126260Y-9387500D02*
X19156260Y-9387500D01*
X19143760Y-9460000D02*
X19143760Y-9490000D01*
X19128760Y-9475000D02*
X19158760Y-9475000D01*
X19376260Y-8727500D02*
X19376260Y-8757500D01*
X19361260Y-8742500D02*
X19391260Y-8742500D01*
X19468760Y-8727500D02*
X19468760Y-8757500D01*
X19453760Y-8742500D02*
X19483760Y-8742500D01*
X19618760Y-6700000D02*
X19618760Y-6730000D01*
X19603760Y-6715000D02*
X19633760Y-6715000D01*
X19663760Y-12185000D02*
X19663760Y-12215000D01*
X19648760Y-12200000D02*
X19678760Y-12200000D01*
X19726260Y-12247500D02*
X19726260Y-12277500D01*
X19711260Y-12262500D02*
X19741260Y-12262500D01*
X15452323Y-7162423D02*
X15452323Y-7119317D01*
X15409217Y-7119317D01*
X15409217Y-7162423D01*
X15452323Y-7162423D01*
X15577323Y-7162423D02*
X15577323Y-7119317D01*
X15534217Y-7119317D01*
X15534217Y-7162423D01*
X15577323Y-7162423D01*
X15702323Y-7162423D02*
X15702323Y-7119317D01*
X15659217Y-7119317D01*
X15659217Y-7162423D01*
X15702323Y-7162423D01*
X15827323Y-7162423D02*
X15827323Y-7119317D01*
X15784217Y-7119317D01*
X15784217Y-7162423D01*
X15827323Y-7162423D01*
X15952323Y-7162423D02*
X15952323Y-7119317D01*
X15909217Y-7119317D01*
X15909217Y-7162423D01*
X15952323Y-7162423D01*
X16077323Y-7162423D02*
X16077323Y-7119317D01*
X16034217Y-7119317D01*
X16034217Y-7162423D01*
X16077323Y-7162423D01*
X16202323Y-7162423D02*
X16202323Y-7119317D01*
X16159217Y-7119317D01*
X16159217Y-7162423D01*
X16202323Y-7162423D01*
X16327323Y-7162423D02*
X16327323Y-7119317D01*
X16284217Y-7119317D01*
X16284217Y-7162423D01*
X16327323Y-7162423D01*
X16452323Y-7162423D02*
X16452323Y-7119317D01*
X16409217Y-7119317D01*
X16409217Y-7162423D01*
X16452323Y-7162423D01*
X16577323Y-7162423D02*
X16577323Y-7119317D01*
X16534217Y-7119317D01*
X16534217Y-7162423D01*
X16577323Y-7162423D01*
X16702323Y-7162423D02*
X16702323Y-7119317D01*
X16659217Y-7119317D01*
X16659217Y-7162423D01*
X16702323Y-7162423D01*
X16827323Y-7162423D02*
X16827323Y-7119317D01*
X16784217Y-7119317D01*
X16784217Y-7162423D01*
X16827323Y-7162423D01*
X19524760Y-9118000D02*
X19574760Y-9068000D01*
X19524760Y-9018000D01*
X19474760Y-9068000D01*
X19524760Y-9118000D01*
X19524760Y-9347000D02*
X19574760Y-9297000D01*
X19524760Y-9247000D01*
X19474760Y-9297000D01*
X19524760Y-9347000D01*
X19524760Y-9576000D02*
X19574760Y-9526000D01*
X19524760Y-9476000D01*
X19474760Y-9526000D01*
X19524760Y-9576000D01*
X19524760Y-9805000D02*
X19574760Y-9755000D01*
X19524760Y-9705000D01*
X19474760Y-9755000D01*
X19524760Y-9805000D01*
X19524760Y-10034000D02*
X19574760Y-9984000D01*
X19524760Y-9934000D01*
X19474760Y-9984000D01*
X19524760Y-10034000D01*
X19778760Y-9003500D02*
X19828760Y-8953500D01*
X19778760Y-8903500D01*
X19728760Y-8953500D01*
X19778760Y-9003500D01*
X19778760Y-9232500D02*
X19828760Y-9182500D01*
X19778760Y-9132500D01*
X19728760Y-9182500D01*
X19778760Y-9232500D01*
X19778760Y-9461500D02*
X19828760Y-9411500D01*
X19778760Y-9361500D01*
X19728760Y-9411500D01*
X19778760Y-9461500D01*
X19778760Y-9690500D02*
X19828760Y-9640500D01*
X19778760Y-9590500D01*
X19728760Y-9640500D01*
X19778760Y-9690500D01*
X19778760Y-9919500D02*
X19828760Y-9869500D01*
X19778760Y-9819500D01*
X19728760Y-9869500D01*
X19778760Y-9919500D01*
X20032760Y-9118000D02*
X20082760Y-9068000D01*
X20032760Y-9018000D01*
X19982760Y-9068000D01*
X20032760Y-9118000D01*
X20032760Y-9347000D02*
X20082760Y-9297000D01*
X20032760Y-9247000D01*
X19982760Y-9297000D01*
X20032760Y-9347000D01*
X20032760Y-9576000D02*
X20082760Y-9526000D01*
X20032760Y-9476000D01*
X19982760Y-9526000D01*
X20032760Y-9576000D01*
X20032760Y-9805000D02*
X20082760Y-9755000D01*
X20032760Y-9705000D01*
X19982760Y-9755000D01*
X20032760Y-9805000D01*
X20032760Y-10034000D02*
X20082760Y-9984000D01*
X20032760Y-9934000D01*
X19982760Y-9984000D01*
X20032760Y-10034000D01*
D13*
X12393760Y-6905000D02*
X12523760Y-7035000D01*
X12523760Y-6905000D02*
X12393760Y-7035000D01*
X12523760Y-6970000D02*
G75*
G02*
X12393760Y-6970000I-65000J0D01*
G01*
X12393760Y-6970000D02*
G75*
G02*
X12523760Y-6970000I65000J0D01*
G01*
X12393760Y-7655000D02*
X12523760Y-7785000D01*
X12523760Y-7655000D02*
X12393760Y-7785000D01*
X12523760Y-7720000D02*
G75*
G02*
X12393760Y-7720000I-65000J0D01*
G01*
X12393760Y-7720000D02*
G75*
G02*
X12523760Y-7720000I65000J0D01*
G01*
X12393760Y-8385000D02*
X12523760Y-8515000D01*
X12523760Y-8385000D02*
X12393760Y-8515000D01*
X12523760Y-8450000D02*
G75*
G02*
X12393760Y-8450000I-65000J0D01*
G01*
X12393760Y-8450000D02*
G75*
G02*
X12523760Y-8450000I65000J0D01*
G01*
X12393760Y-9135000D02*
X12523760Y-9265000D01*
X12523760Y-9135000D02*
X12393760Y-9265000D01*
X12523760Y-9200000D02*
G75*
G02*
X12393760Y-9200000I-65000J0D01*
G01*
X12393760Y-9200000D02*
G75*
G02*
X12523760Y-9200000I65000J0D01*
G01*
X14393760Y-6905000D02*
X14523760Y-7035000D01*
X14523760Y-6905000D02*
X14393760Y-7035000D01*
X14523760Y-6970000D02*
G75*
G02*
X14393760Y-6970000I-65000J0D01*
G01*
X14393760Y-6970000D02*
G75*
G02*
X14523760Y-6970000I65000J0D01*
G01*
X14393760Y-7655000D02*
X14523760Y-7785000D01*
X14523760Y-7655000D02*
X14393760Y-7785000D01*
X14523760Y-7720000D02*
G75*
G02*
X14393760Y-7720000I-65000J0D01*
G01*
X14393760Y-7720000D02*
G75*
G02*
X14523760Y-7720000I65000J0D01*
G01*
X14393760Y-8385000D02*
X14523760Y-8515000D01*
X14523760Y-8385000D02*
X14393760Y-8515000D01*
X14523760Y-8450000D02*
G75*
G02*
X14393760Y-8450000I-65000J0D01*
G01*
X14393760Y-8450000D02*
G75*
G02*
X14523760Y-8450000I65000J0D01*
G01*
X14393760Y-9135000D02*
X14523760Y-9265000D01*
X14523760Y-9135000D02*
X14393760Y-9265000D01*
X14523760Y-9200000D02*
G75*
G02*
X14393760Y-9200000I-65000J0D01*
G01*
X14393760Y-9200000D02*
G75*
G02*
X14523760Y-9200000I65000J0D01*
G01*
X14893760Y-6905000D02*
X15023760Y-7035000D01*
X15023760Y-6905000D02*
X14893760Y-7035000D01*
X15023760Y-6970000D02*
G75*
G02*
X14893760Y-6970000I-65000J0D01*
G01*
X14893760Y-6970000D02*
G75*
G02*
X15023760Y-6970000I65000J0D01*
G01*
X14893760Y-7655000D02*
X15023760Y-7785000D01*
X15023760Y-7655000D02*
X14893760Y-7785000D01*
X15023760Y-7720000D02*
G75*
G02*
X14893760Y-7720000I-65000J0D01*
G01*
X14893760Y-7720000D02*
G75*
G02*
X15023760Y-7720000I65000J0D01*
G01*
X14893760Y-8385000D02*
X15023760Y-8515000D01*
X15023760Y-8385000D02*
X14893760Y-8515000D01*
X15023760Y-8450000D02*
G75*
G02*
X14893760Y-8450000I-65000J0D01*
G01*
X14893760Y-8450000D02*
G75*
G02*
X15023760Y-8450000I65000J0D01*
G01*
X14893760Y-9135000D02*
X15023760Y-9265000D01*
X15023760Y-9135000D02*
X14893760Y-9265000D01*
X15023760Y-9200000D02*
G75*
G02*
X14893760Y-9200000I-65000J0D01*
G01*
X14893760Y-9200000D02*
G75*
G02*
X15023760Y-9200000I65000J0D01*
G01*
D14*
X9298287Y-6868063D02*
X9478287Y-7048063D01*
X9478287Y-6868063D02*
X9298287Y-7048063D01*
X9388287Y-6868063D02*
X9388287Y-7048063D01*
X9298287Y-6958063D02*
X9478287Y-6958063D01*
X9298287Y-7368063D02*
X9478287Y-7548063D01*
X9478287Y-7368063D02*
X9298287Y-7548063D01*
X9388287Y-7368063D02*
X9388287Y-7548063D01*
X9298287Y-7458063D02*
X9478287Y-7458063D01*
X9300787Y-8105063D02*
X9480787Y-8285063D01*
X9480787Y-8105063D02*
X9300787Y-8285063D01*
X9390787Y-8105063D02*
X9390787Y-8285063D01*
X9300787Y-8195063D02*
X9480787Y-8195063D01*
X9300787Y-8605063D02*
X9480787Y-8785063D01*
X9480787Y-8605063D02*
X9300787Y-8785063D01*
X9390787Y-8605063D02*
X9390787Y-8785063D01*
X9300787Y-8695063D02*
X9480787Y-8695063D01*
X12298760Y-9892500D02*
X12478760Y-10072500D01*
X12478760Y-9892500D02*
X12298760Y-10072500D01*
X12388760Y-9892500D02*
X12388760Y-10072500D01*
X12298760Y-9982500D02*
X12478760Y-9982500D01*
X12798760Y-9892500D02*
X12978760Y-10072500D01*
X12978760Y-9892500D02*
X12798760Y-10072500D01*
X12888760Y-9892500D02*
X12888760Y-10072500D01*
X12798760Y-9982500D02*
X12978760Y-9982500D01*
X15521260Y-7540000D02*
X15701260Y-7720000D01*
X15701260Y-7540000D02*
X15521260Y-7720000D01*
X15611260Y-7540000D02*
X15611260Y-7720000D01*
X15521260Y-7630000D02*
X15701260Y-7630000D01*
X15521260Y-8040000D02*
X15701260Y-8220000D01*
X15701260Y-8040000D02*
X15521260Y-8220000D01*
X15611260Y-8040000D02*
X15611260Y-8220000D01*
X15521260Y-8130000D02*
X15701260Y-8130000D01*
D11*
X9186564Y-12814023D02*
X9186564Y-12614023D01*
X9186564Y-12614023D02*
X9234183Y-12614023D01*
X9234183Y-12614023D02*
X9262754Y-12623547D01*
X9262754Y-12623547D02*
X9281802Y-12642594D01*
X9281802Y-12642594D02*
X9291326Y-12661642D01*
X9291326Y-12661642D02*
X9300850Y-12699737D01*
X9300850Y-12699737D02*
X9300850Y-12728309D01*
X9300850Y-12728309D02*
X9291326Y-12766404D01*
X9291326Y-12766404D02*
X9281802Y-12785451D01*
X9281802Y-12785451D02*
X9262754Y-12804499D01*
X9262754Y-12804499D02*
X9234183Y-12814023D01*
X9234183Y-12814023D02*
X9186564Y-12814023D01*
X9386564Y-12814023D02*
X9386564Y-12680689D01*
X9386564Y-12718785D02*
X9396088Y-12699737D01*
X9396088Y-12699737D02*
X9405612Y-12690213D01*
X9405612Y-12690213D02*
X9424659Y-12680689D01*
X9424659Y-12680689D02*
X9443707Y-12680689D01*
X9510373Y-12814023D02*
X9510373Y-12680689D01*
X9510373Y-12614023D02*
X9500850Y-12623547D01*
X9500850Y-12623547D02*
X9510373Y-12633070D01*
X9510373Y-12633070D02*
X9519897Y-12623547D01*
X9519897Y-12623547D02*
X9510373Y-12614023D01*
X9510373Y-12614023D02*
X9510373Y-12633070D01*
X9634183Y-12814023D02*
X9615135Y-12804499D01*
X9615135Y-12804499D02*
X9605612Y-12785451D01*
X9605612Y-12785451D02*
X9605612Y-12614023D01*
X9738945Y-12814023D02*
X9719897Y-12804499D01*
X9719897Y-12804499D02*
X9710373Y-12785451D01*
X9710373Y-12785451D02*
X9710373Y-12614023D01*
X9967516Y-12814023D02*
X9967516Y-12614023D01*
X9967516Y-12614023D02*
X10034183Y-12756880D01*
X10034183Y-12756880D02*
X10100850Y-12614023D01*
X10100850Y-12614023D02*
X10100850Y-12814023D01*
X10281802Y-12814023D02*
X10281802Y-12709261D01*
X10281802Y-12709261D02*
X10272278Y-12690213D01*
X10272278Y-12690213D02*
X10253231Y-12680689D01*
X10253231Y-12680689D02*
X10215135Y-12680689D01*
X10215135Y-12680689D02*
X10196088Y-12690213D01*
X10281802Y-12804499D02*
X10262754Y-12814023D01*
X10262754Y-12814023D02*
X10215135Y-12814023D01*
X10215135Y-12814023D02*
X10196088Y-12804499D01*
X10196088Y-12804499D02*
X10186564Y-12785451D01*
X10186564Y-12785451D02*
X10186564Y-12766404D01*
X10186564Y-12766404D02*
X10196088Y-12747356D01*
X10196088Y-12747356D02*
X10215135Y-12737832D01*
X10215135Y-12737832D02*
X10262754Y-12737832D01*
X10262754Y-12737832D02*
X10281802Y-12728309D01*
X10377040Y-12680689D02*
X10377040Y-12880689D01*
X10377040Y-12690213D02*
X10396088Y-12680689D01*
X10396088Y-12680689D02*
X10434183Y-12680689D01*
X10434183Y-12680689D02*
X10453231Y-12690213D01*
X10453231Y-12690213D02*
X10462754Y-12699737D01*
X10462754Y-12699737D02*
X10472278Y-12718785D01*
X10472278Y-12718785D02*
X10472278Y-12775928D01*
X10472278Y-12775928D02*
X10462754Y-12794975D01*
X10462754Y-12794975D02*
X10453231Y-12804499D01*
X10453231Y-12804499D02*
X10434183Y-12814023D01*
X10434183Y-12814023D02*
X10396088Y-12814023D01*
X10396088Y-12814023D02*
X10377040Y-12804499D01*
X10557993Y-12794975D02*
X10567516Y-12804499D01*
X10567516Y-12804499D02*
X10557993Y-12814023D01*
X10557993Y-12814023D02*
X10548469Y-12804499D01*
X10548469Y-12804499D02*
X10557993Y-12794975D01*
X10557993Y-12794975D02*
X10557993Y-12814023D01*
X10557993Y-12690213D02*
X10567516Y-12699737D01*
X10567516Y-12699737D02*
X10557993Y-12709261D01*
X10557993Y-12709261D02*
X10548469Y-12699737D01*
X10548469Y-12699737D02*
X10557993Y-12690213D01*
X10557993Y-12690213D02*
X10557993Y-12709261D01*
D12*
X8905787Y-13132539D02*
X8925787Y-13152539D01*
X8925787Y-13132539D02*
X8905787Y-13152539D01*
D11*
X9224659Y-13034023D02*
X9243707Y-13034023D01*
X9243707Y-13034023D02*
X9262754Y-13043547D01*
X9262754Y-13043547D02*
X9272278Y-13053070D01*
X9272278Y-13053070D02*
X9281802Y-13072118D01*
X9281802Y-13072118D02*
X9291326Y-13110213D01*
X9291326Y-13110213D02*
X9291326Y-13157832D01*
X9291326Y-13157832D02*
X9281802Y-13195928D01*
X9281802Y-13195928D02*
X9272278Y-13214975D01*
X9272278Y-13214975D02*
X9262754Y-13224499D01*
X9262754Y-13224499D02*
X9243707Y-13234023D01*
X9243707Y-13234023D02*
X9224659Y-13234023D01*
X9224659Y-13234023D02*
X9205612Y-13224499D01*
X9205612Y-13224499D02*
X9196088Y-13214975D01*
X9196088Y-13214975D02*
X9186564Y-13195928D01*
X9186564Y-13195928D02*
X9177040Y-13157832D01*
X9177040Y-13157832D02*
X9177040Y-13110213D01*
X9177040Y-13110213D02*
X9186564Y-13072118D01*
X9186564Y-13072118D02*
X9196088Y-13053070D01*
X9196088Y-13053070D02*
X9205612Y-13043547D01*
X9205612Y-13043547D02*
X9224659Y-13034023D01*
X9377040Y-13214975D02*
X9386564Y-13224499D01*
X9386564Y-13224499D02*
X9377040Y-13234023D01*
X9377040Y-13234023D02*
X9367516Y-13224499D01*
X9367516Y-13224499D02*
X9377040Y-13214975D01*
X9377040Y-13214975D02*
X9377040Y-13234023D01*
X9462754Y-13053070D02*
X9472278Y-13043547D01*
X9472278Y-13043547D02*
X9491326Y-13034023D01*
X9491326Y-13034023D02*
X9538945Y-13034023D01*
X9538945Y-13034023D02*
X9557993Y-13043547D01*
X9557993Y-13043547D02*
X9567516Y-13053070D01*
X9567516Y-13053070D02*
X9577040Y-13072118D01*
X9577040Y-13072118D02*
X9577040Y-13091166D01*
X9577040Y-13091166D02*
X9567516Y-13119737D01*
X9567516Y-13119737D02*
X9453231Y-13234023D01*
X9453231Y-13234023D02*
X9577040Y-13234023D01*
X9700850Y-13034023D02*
X9719897Y-13034023D01*
X9719897Y-13034023D02*
X9738945Y-13043547D01*
X9738945Y-13043547D02*
X9748469Y-13053070D01*
X9748469Y-13053070D02*
X9757993Y-13072118D01*
X9757993Y-13072118D02*
X9767516Y-13110213D01*
X9767516Y-13110213D02*
X9767516Y-13157832D01*
X9767516Y-13157832D02*
X9757993Y-13195928D01*
X9757993Y-13195928D02*
X9748469Y-13214975D01*
X9748469Y-13214975D02*
X9738945Y-13224499D01*
X9738945Y-13224499D02*
X9719897Y-13234023D01*
X9719897Y-13234023D02*
X9700850Y-13234023D01*
X9700850Y-13234023D02*
X9681802Y-13224499D01*
X9681802Y-13224499D02*
X9672278Y-13214975D01*
X9672278Y-13214975D02*
X9662754Y-13195928D01*
X9662754Y-13195928D02*
X9653231Y-13157832D01*
X9653231Y-13157832D02*
X9653231Y-13110213D01*
X9653231Y-13110213D02*
X9662754Y-13072118D01*
X9662754Y-13072118D02*
X9672278Y-13053070D01*
X9672278Y-13053070D02*
X9681802Y-13043547D01*
X9681802Y-13043547D02*
X9700850Y-13034023D01*
X9891326Y-13034023D02*
X9910374Y-13034023D01*
X9910374Y-13034023D02*
X9929421Y-13043547D01*
X9929421Y-13043547D02*
X9938945Y-13053070D01*
X9938945Y-13053070D02*
X9948469Y-13072118D01*
X9948469Y-13072118D02*
X9957993Y-13110213D01*
X9957993Y-13110213D02*
X9957993Y-13157832D01*
X9957993Y-13157832D02*
X9948469Y-13195928D01*
X9948469Y-13195928D02*
X9938945Y-13214975D01*
X9938945Y-13214975D02*
X9929421Y-13224499D01*
X9929421Y-13224499D02*
X9910374Y-13234023D01*
X9910374Y-13234023D02*
X9891326Y-13234023D01*
X9891326Y-13234023D02*
X9872278Y-13224499D01*
X9872278Y-13224499D02*
X9862754Y-13214975D01*
X9862754Y-13214975D02*
X9853231Y-13195928D01*
X9853231Y-13195928D02*
X9843707Y-13157832D01*
X9843707Y-13157832D02*
X9843707Y-13110213D01*
X9843707Y-13110213D02*
X9853231Y-13072118D01*
X9853231Y-13072118D02*
X9862754Y-13053070D01*
X9862754Y-13053070D02*
X9872278Y-13043547D01*
X9872278Y-13043547D02*
X9891326Y-13034023D01*
X10043707Y-13234023D02*
X10043707Y-13100689D01*
X10043707Y-13119737D02*
X10053231Y-13110213D01*
X10053231Y-13110213D02*
X10072278Y-13100689D01*
X10072278Y-13100689D02*
X10100850Y-13100689D01*
X10100850Y-13100689D02*
X10119897Y-13110213D01*
X10119897Y-13110213D02*
X10129421Y-13129261D01*
X10129421Y-13129261D02*
X10129421Y-13234023D01*
X10129421Y-13129261D02*
X10138945Y-13110213D01*
X10138945Y-13110213D02*
X10157993Y-13100689D01*
X10157993Y-13100689D02*
X10186564Y-13100689D01*
X10186564Y-13100689D02*
X10205612Y-13110213D01*
X10205612Y-13110213D02*
X10215135Y-13129261D01*
X10215135Y-13129261D02*
X10215135Y-13234023D01*
X10310374Y-13234023D02*
X10310374Y-13100689D01*
X10310374Y-13119737D02*
X10319897Y-13110213D01*
X10319897Y-13110213D02*
X10338945Y-13100689D01*
X10338945Y-13100689D02*
X10367516Y-13100689D01*
X10367516Y-13100689D02*
X10386564Y-13110213D01*
X10386564Y-13110213D02*
X10396088Y-13129261D01*
X10396088Y-13129261D02*
X10396088Y-13234023D01*
X10396088Y-13129261D02*
X10405612Y-13110213D01*
X10405612Y-13110213D02*
X10424659Y-13100689D01*
X10424659Y-13100689D02*
X10453231Y-13100689D01*
X10453231Y-13100689D02*
X10472278Y-13110213D01*
X10472278Y-13110213D02*
X10481802Y-13129261D01*
X10481802Y-13129261D02*
X10481802Y-13234023D01*
X10872278Y-13024499D02*
X10700850Y-13281642D01*
X11129421Y-13034023D02*
X11148469Y-13034023D01*
X11148469Y-13034023D02*
X11167517Y-13043547D01*
X11167517Y-13043547D02*
X11177040Y-13053070D01*
X11177040Y-13053070D02*
X11186564Y-13072118D01*
X11186564Y-13072118D02*
X11196088Y-13110213D01*
X11196088Y-13110213D02*
X11196088Y-13157832D01*
X11196088Y-13157832D02*
X11186564Y-13195928D01*
X11186564Y-13195928D02*
X11177040Y-13214975D01*
X11177040Y-13214975D02*
X11167517Y-13224499D01*
X11167517Y-13224499D02*
X11148469Y-13234023D01*
X11148469Y-13234023D02*
X11129421Y-13234023D01*
X11129421Y-13234023D02*
X11110374Y-13224499D01*
X11110374Y-13224499D02*
X11100850Y-13214975D01*
X11100850Y-13214975D02*
X11091326Y-13195928D01*
X11091326Y-13195928D02*
X11081802Y-13157832D01*
X11081802Y-13157832D02*
X11081802Y-13110213D01*
X11081802Y-13110213D02*
X11091326Y-13072118D01*
X11091326Y-13072118D02*
X11100850Y-13053070D01*
X11100850Y-13053070D02*
X11110374Y-13043547D01*
X11110374Y-13043547D02*
X11129421Y-13034023D01*
X11281802Y-13214975D02*
X11291326Y-13224499D01*
X11291326Y-13224499D02*
X11281802Y-13234023D01*
X11281802Y-13234023D02*
X11272278Y-13224499D01*
X11272278Y-13224499D02*
X11281802Y-13214975D01*
X11281802Y-13214975D02*
X11281802Y-13234023D01*
X11415135Y-13034023D02*
X11434183Y-13034023D01*
X11434183Y-13034023D02*
X11453231Y-13043547D01*
X11453231Y-13043547D02*
X11462755Y-13053070D01*
X11462755Y-13053070D02*
X11472278Y-13072118D01*
X11472278Y-13072118D02*
X11481802Y-13110213D01*
X11481802Y-13110213D02*
X11481802Y-13157832D01*
X11481802Y-13157832D02*
X11472278Y-13195928D01*
X11472278Y-13195928D02*
X11462755Y-13214975D01*
X11462755Y-13214975D02*
X11453231Y-13224499D01*
X11453231Y-13224499D02*
X11434183Y-13234023D01*
X11434183Y-13234023D02*
X11415135Y-13234023D01*
X11415135Y-13234023D02*
X11396088Y-13224499D01*
X11396088Y-13224499D02*
X11386564Y-13214975D01*
X11386564Y-13214975D02*
X11377040Y-13195928D01*
X11377040Y-13195928D02*
X11367516Y-13157832D01*
X11367516Y-13157832D02*
X11367516Y-13110213D01*
X11367516Y-13110213D02*
X11377040Y-13072118D01*
X11377040Y-13072118D02*
X11386564Y-13053070D01*
X11386564Y-13053070D02*
X11396088Y-13043547D01*
X11396088Y-13043547D02*
X11415135Y-13034023D01*
X11605612Y-13034023D02*
X11624659Y-13034023D01*
X11624659Y-13034023D02*
X11643707Y-13043547D01*
X11643707Y-13043547D02*
X11653231Y-13053070D01*
X11653231Y-13053070D02*
X11662755Y-13072118D01*
X11662755Y-13072118D02*
X11672278Y-13110213D01*
X11672278Y-13110213D02*
X11672278Y-13157832D01*
X11672278Y-13157832D02*
X11662755Y-13195928D01*
X11662755Y-13195928D02*
X11653231Y-13214975D01*
X11653231Y-13214975D02*
X11643707Y-13224499D01*
X11643707Y-13224499D02*
X11624659Y-13234023D01*
X11624659Y-13234023D02*
X11605612Y-13234023D01*
X11605612Y-13234023D02*
X11586564Y-13224499D01*
X11586564Y-13224499D02*
X11577040Y-13214975D01*
X11577040Y-13214975D02*
X11567516Y-13195928D01*
X11567516Y-13195928D02*
X11557993Y-13157832D01*
X11557993Y-13157832D02*
X11557993Y-13110213D01*
X11557993Y-13110213D02*
X11567516Y-13072118D01*
X11567516Y-13072118D02*
X11577040Y-13053070D01*
X11577040Y-13053070D02*
X11586564Y-13043547D01*
X11586564Y-13043547D02*
X11605612Y-13034023D01*
X11738945Y-13034023D02*
X11872278Y-13034023D01*
X11872278Y-13034023D02*
X11786564Y-13234023D01*
X11957993Y-13234023D02*
X11996088Y-13234023D01*
X11996088Y-13234023D02*
X12015136Y-13224499D01*
X12015136Y-13224499D02*
X12024659Y-13214975D01*
X12024659Y-13214975D02*
X12043707Y-13186404D01*
X12043707Y-13186404D02*
X12053231Y-13148309D01*
X12053231Y-13148309D02*
X12053231Y-13072118D01*
X12053231Y-13072118D02*
X12043707Y-13053070D01*
X12043707Y-13053070D02*
X12034183Y-13043547D01*
X12034183Y-13043547D02*
X12015136Y-13034023D01*
X12015136Y-13034023D02*
X11977040Y-13034023D01*
X11977040Y-13034023D02*
X11957993Y-13043547D01*
X11957993Y-13043547D02*
X11948469Y-13053070D01*
X11948469Y-13053070D02*
X11938945Y-13072118D01*
X11938945Y-13072118D02*
X11938945Y-13119737D01*
X11938945Y-13119737D02*
X11948469Y-13138785D01*
X11948469Y-13138785D02*
X11957993Y-13148309D01*
X11957993Y-13148309D02*
X11977040Y-13157832D01*
X11977040Y-13157832D02*
X12015136Y-13157832D01*
X12015136Y-13157832D02*
X12034183Y-13148309D01*
X12034183Y-13148309D02*
X12043707Y-13138785D01*
X12043707Y-13138785D02*
X12053231Y-13119737D01*
X12129421Y-13034023D02*
X12129421Y-13072118D01*
X12205612Y-13034023D02*
X12205612Y-13072118D01*
X12500850Y-13310213D02*
X12491326Y-13300689D01*
X12491326Y-13300689D02*
X12472278Y-13272118D01*
X12472278Y-13272118D02*
X12462755Y-13253070D01*
X12462755Y-13253070D02*
X12453231Y-13224499D01*
X12453231Y-13224499D02*
X12443707Y-13176880D01*
X12443707Y-13176880D02*
X12443707Y-13138785D01*
X12443707Y-13138785D02*
X12453231Y-13091166D01*
X12453231Y-13091166D02*
X12462755Y-13062594D01*
X12462755Y-13062594D02*
X12472278Y-13043547D01*
X12472278Y-13043547D02*
X12491326Y-13014975D01*
X12491326Y-13014975D02*
X12500850Y-13005451D01*
X12557993Y-13034023D02*
X12681802Y-13034023D01*
X12681802Y-13034023D02*
X12615136Y-13110213D01*
X12615136Y-13110213D02*
X12643707Y-13110213D01*
X12643707Y-13110213D02*
X12662755Y-13119737D01*
X12662755Y-13119737D02*
X12672278Y-13129261D01*
X12672278Y-13129261D02*
X12681802Y-13148309D01*
X12681802Y-13148309D02*
X12681802Y-13195928D01*
X12681802Y-13195928D02*
X12672278Y-13214975D01*
X12672278Y-13214975D02*
X12662755Y-13224499D01*
X12662755Y-13224499D02*
X12643707Y-13234023D01*
X12643707Y-13234023D02*
X12586564Y-13234023D01*
X12586564Y-13234023D02*
X12567517Y-13224499D01*
X12567517Y-13224499D02*
X12557993Y-13214975D01*
X12805612Y-13034023D02*
X12824659Y-13034023D01*
X12824659Y-13034023D02*
X12843707Y-13043547D01*
X12843707Y-13043547D02*
X12853231Y-13053070D01*
X12853231Y-13053070D02*
X12862755Y-13072118D01*
X12862755Y-13072118D02*
X12872278Y-13110213D01*
X12872278Y-13110213D02*
X12872278Y-13157832D01*
X12872278Y-13157832D02*
X12862755Y-13195928D01*
X12862755Y-13195928D02*
X12853231Y-13214975D01*
X12853231Y-13214975D02*
X12843707Y-13224499D01*
X12843707Y-13224499D02*
X12824659Y-13234023D01*
X12824659Y-13234023D02*
X12805612Y-13234023D01*
X12805612Y-13234023D02*
X12786564Y-13224499D01*
X12786564Y-13224499D02*
X12777040Y-13214975D01*
X12777040Y-13214975D02*
X12767517Y-13195928D01*
X12767517Y-13195928D02*
X12757993Y-13157832D01*
X12757993Y-13157832D02*
X12757993Y-13110213D01*
X12757993Y-13110213D02*
X12767517Y-13072118D01*
X12767517Y-13072118D02*
X12777040Y-13053070D01*
X12777040Y-13053070D02*
X12786564Y-13043547D01*
X12786564Y-13043547D02*
X12805612Y-13034023D01*
X13062755Y-13234023D02*
X12948469Y-13234023D01*
X13005612Y-13234023D02*
X13005612Y-13034023D01*
X13005612Y-13034023D02*
X12986564Y-13062594D01*
X12986564Y-13062594D02*
X12967517Y-13081642D01*
X12967517Y-13081642D02*
X12948469Y-13091166D01*
X13300850Y-13234023D02*
X13300850Y-13034023D01*
X13386564Y-13234023D02*
X13386564Y-13129261D01*
X13386564Y-13129261D02*
X13377040Y-13110213D01*
X13377040Y-13110213D02*
X13357993Y-13100689D01*
X13357993Y-13100689D02*
X13329421Y-13100689D01*
X13329421Y-13100689D02*
X13310374Y-13110213D01*
X13310374Y-13110213D02*
X13300850Y-13119737D01*
X13510374Y-13234023D02*
X13491326Y-13224499D01*
X13491326Y-13224499D02*
X13481802Y-13214975D01*
X13481802Y-13214975D02*
X13472279Y-13195928D01*
X13472279Y-13195928D02*
X13472279Y-13138785D01*
X13472279Y-13138785D02*
X13481802Y-13119737D01*
X13481802Y-13119737D02*
X13491326Y-13110213D01*
X13491326Y-13110213D02*
X13510374Y-13100689D01*
X13510374Y-13100689D02*
X13538945Y-13100689D01*
X13538945Y-13100689D02*
X13557993Y-13110213D01*
X13557993Y-13110213D02*
X13567517Y-13119737D01*
X13567517Y-13119737D02*
X13577040Y-13138785D01*
X13577040Y-13138785D02*
X13577040Y-13195928D01*
X13577040Y-13195928D02*
X13567517Y-13214975D01*
X13567517Y-13214975D02*
X13557993Y-13224499D01*
X13557993Y-13224499D02*
X13538945Y-13234023D01*
X13538945Y-13234023D02*
X13510374Y-13234023D01*
X13691326Y-13234023D02*
X13672279Y-13224499D01*
X13672279Y-13224499D02*
X13662755Y-13205451D01*
X13662755Y-13205451D02*
X13662755Y-13034023D01*
X13843707Y-13224499D02*
X13824660Y-13234023D01*
X13824660Y-13234023D02*
X13786564Y-13234023D01*
X13786564Y-13234023D02*
X13767517Y-13224499D01*
X13767517Y-13224499D02*
X13757993Y-13205451D01*
X13757993Y-13205451D02*
X13757993Y-13129261D01*
X13757993Y-13129261D02*
X13767517Y-13110213D01*
X13767517Y-13110213D02*
X13786564Y-13100689D01*
X13786564Y-13100689D02*
X13824660Y-13100689D01*
X13824660Y-13100689D02*
X13843707Y-13110213D01*
X13843707Y-13110213D02*
X13853231Y-13129261D01*
X13853231Y-13129261D02*
X13853231Y-13148309D01*
X13853231Y-13148309D02*
X13757993Y-13167356D01*
X13929421Y-13224499D02*
X13948469Y-13234023D01*
X13948469Y-13234023D02*
X13986564Y-13234023D01*
X13986564Y-13234023D02*
X14005612Y-13224499D01*
X14005612Y-13224499D02*
X14015136Y-13205451D01*
X14015136Y-13205451D02*
X14015136Y-13195928D01*
X14015136Y-13195928D02*
X14005612Y-13176880D01*
X14005612Y-13176880D02*
X13986564Y-13167356D01*
X13986564Y-13167356D02*
X13957993Y-13167356D01*
X13957993Y-13167356D02*
X13938945Y-13157832D01*
X13938945Y-13157832D02*
X13929421Y-13138785D01*
X13929421Y-13138785D02*
X13929421Y-13129261D01*
X13929421Y-13129261D02*
X13938945Y-13110213D01*
X13938945Y-13110213D02*
X13957993Y-13100689D01*
X13957993Y-13100689D02*
X13986564Y-13100689D01*
X13986564Y-13100689D02*
X14005612Y-13110213D01*
X14081802Y-13310213D02*
X14091326Y-13300689D01*
X14091326Y-13300689D02*
X14110374Y-13272118D01*
X14110374Y-13272118D02*
X14119898Y-13253070D01*
X14119898Y-13253070D02*
X14129421Y-13224499D01*
X14129421Y-13224499D02*
X14138945Y-13176880D01*
X14138945Y-13176880D02*
X14138945Y-13138785D01*
X14138945Y-13138785D02*
X14129421Y-13091166D01*
X14129421Y-13091166D02*
X14119898Y-13062594D01*
X14119898Y-13062594D02*
X14110374Y-13043547D01*
X14110374Y-13043547D02*
X14091326Y-13014975D01*
X14091326Y-13014975D02*
X14081802Y-13005451D01*
D12*
X8925787Y-13406539D02*
G75*
G02*
X8900787Y-13406539I-12500J0D01*
G01*
X8900787Y-13406539D02*
G75*
G02*
X8925787Y-13406539I12500J0D01*
G01*
D11*
X9224659Y-13298023D02*
X9243707Y-13298023D01*
X9243707Y-13298023D02*
X9262754Y-13307547D01*
X9262754Y-13307547D02*
X9272278Y-13317070D01*
X9272278Y-13317070D02*
X9281802Y-13336118D01*
X9281802Y-13336118D02*
X9291326Y-13374213D01*
X9291326Y-13374213D02*
X9291326Y-13421832D01*
X9291326Y-13421832D02*
X9281802Y-13459928D01*
X9281802Y-13459928D02*
X9272278Y-13478975D01*
X9272278Y-13478975D02*
X9262754Y-13488499D01*
X9262754Y-13488499D02*
X9243707Y-13498023D01*
X9243707Y-13498023D02*
X9224659Y-13498023D01*
X9224659Y-13498023D02*
X9205612Y-13488499D01*
X9205612Y-13488499D02*
X9196088Y-13478975D01*
X9196088Y-13478975D02*
X9186564Y-13459928D01*
X9186564Y-13459928D02*
X9177040Y-13421832D01*
X9177040Y-13421832D02*
X9177040Y-13374213D01*
X9177040Y-13374213D02*
X9186564Y-13336118D01*
X9186564Y-13336118D02*
X9196088Y-13317070D01*
X9196088Y-13317070D02*
X9205612Y-13307547D01*
X9205612Y-13307547D02*
X9224659Y-13298023D01*
X9377040Y-13478975D02*
X9386564Y-13488499D01*
X9386564Y-13488499D02*
X9377040Y-13498023D01*
X9377040Y-13498023D02*
X9367516Y-13488499D01*
X9367516Y-13488499D02*
X9377040Y-13478975D01*
X9377040Y-13478975D02*
X9377040Y-13498023D01*
X9462754Y-13317070D02*
X9472278Y-13307547D01*
X9472278Y-13307547D02*
X9491326Y-13298023D01*
X9491326Y-13298023D02*
X9538945Y-13298023D01*
X9538945Y-13298023D02*
X9557993Y-13307547D01*
X9557993Y-13307547D02*
X9567516Y-13317070D01*
X9567516Y-13317070D02*
X9577040Y-13336118D01*
X9577040Y-13336118D02*
X9577040Y-13355166D01*
X9577040Y-13355166D02*
X9567516Y-13383737D01*
X9567516Y-13383737D02*
X9453231Y-13498023D01*
X9453231Y-13498023D02*
X9577040Y-13498023D01*
X9757993Y-13298023D02*
X9662754Y-13298023D01*
X9662754Y-13298023D02*
X9653231Y-13393261D01*
X9653231Y-13393261D02*
X9662754Y-13383737D01*
X9662754Y-13383737D02*
X9681802Y-13374213D01*
X9681802Y-13374213D02*
X9729421Y-13374213D01*
X9729421Y-13374213D02*
X9748469Y-13383737D01*
X9748469Y-13383737D02*
X9757993Y-13393261D01*
X9757993Y-13393261D02*
X9767516Y-13412309D01*
X9767516Y-13412309D02*
X9767516Y-13459928D01*
X9767516Y-13459928D02*
X9757993Y-13478975D01*
X9757993Y-13478975D02*
X9748469Y-13488499D01*
X9748469Y-13488499D02*
X9729421Y-13498023D01*
X9729421Y-13498023D02*
X9681802Y-13498023D01*
X9681802Y-13498023D02*
X9662754Y-13488499D01*
X9662754Y-13488499D02*
X9653231Y-13478975D01*
X9891326Y-13298023D02*
X9910374Y-13298023D01*
X9910374Y-13298023D02*
X9929421Y-13307547D01*
X9929421Y-13307547D02*
X9938945Y-13317070D01*
X9938945Y-13317070D02*
X9948469Y-13336118D01*
X9948469Y-13336118D02*
X9957993Y-13374213D01*
X9957993Y-13374213D02*
X9957993Y-13421832D01*
X9957993Y-13421832D02*
X9948469Y-13459928D01*
X9948469Y-13459928D02*
X9938945Y-13478975D01*
X9938945Y-13478975D02*
X9929421Y-13488499D01*
X9929421Y-13488499D02*
X9910374Y-13498023D01*
X9910374Y-13498023D02*
X9891326Y-13498023D01*
X9891326Y-13498023D02*
X9872278Y-13488499D01*
X9872278Y-13488499D02*
X9862754Y-13478975D01*
X9862754Y-13478975D02*
X9853231Y-13459928D01*
X9853231Y-13459928D02*
X9843707Y-13421832D01*
X9843707Y-13421832D02*
X9843707Y-13374213D01*
X9843707Y-13374213D02*
X9853231Y-13336118D01*
X9853231Y-13336118D02*
X9862754Y-13317070D01*
X9862754Y-13317070D02*
X9872278Y-13307547D01*
X9872278Y-13307547D02*
X9891326Y-13298023D01*
X10043707Y-13498023D02*
X10043707Y-13364689D01*
X10043707Y-13383737D02*
X10053231Y-13374213D01*
X10053231Y-13374213D02*
X10072278Y-13364689D01*
X10072278Y-13364689D02*
X10100850Y-13364689D01*
X10100850Y-13364689D02*
X10119897Y-13374213D01*
X10119897Y-13374213D02*
X10129421Y-13393261D01*
X10129421Y-13393261D02*
X10129421Y-13498023D01*
X10129421Y-13393261D02*
X10138945Y-13374213D01*
X10138945Y-13374213D02*
X10157993Y-13364689D01*
X10157993Y-13364689D02*
X10186564Y-13364689D01*
X10186564Y-13364689D02*
X10205612Y-13374213D01*
X10205612Y-13374213D02*
X10215135Y-13393261D01*
X10215135Y-13393261D02*
X10215135Y-13498023D01*
X10310374Y-13498023D02*
X10310374Y-13364689D01*
X10310374Y-13383737D02*
X10319897Y-13374213D01*
X10319897Y-13374213D02*
X10338945Y-13364689D01*
X10338945Y-13364689D02*
X10367516Y-13364689D01*
X10367516Y-13364689D02*
X10386564Y-13374213D01*
X10386564Y-13374213D02*
X10396088Y-13393261D01*
X10396088Y-13393261D02*
X10396088Y-13498023D01*
X10396088Y-13393261D02*
X10405612Y-13374213D01*
X10405612Y-13374213D02*
X10424659Y-13364689D01*
X10424659Y-13364689D02*
X10453231Y-13364689D01*
X10453231Y-13364689D02*
X10472278Y-13374213D01*
X10472278Y-13374213D02*
X10481802Y-13393261D01*
X10481802Y-13393261D02*
X10481802Y-13498023D01*
X10872278Y-13288499D02*
X10700850Y-13545642D01*
X11129421Y-13298023D02*
X11148469Y-13298023D01*
X11148469Y-13298023D02*
X11167517Y-13307547D01*
X11167517Y-13307547D02*
X11177040Y-13317070D01*
X11177040Y-13317070D02*
X11186564Y-13336118D01*
X11186564Y-13336118D02*
X11196088Y-13374213D01*
X11196088Y-13374213D02*
X11196088Y-13421832D01*
X11196088Y-13421832D02*
X11186564Y-13459928D01*
X11186564Y-13459928D02*
X11177040Y-13478975D01*
X11177040Y-13478975D02*
X11167517Y-13488499D01*
X11167517Y-13488499D02*
X11148469Y-13498023D01*
X11148469Y-13498023D02*
X11129421Y-13498023D01*
X11129421Y-13498023D02*
X11110374Y-13488499D01*
X11110374Y-13488499D02*
X11100850Y-13478975D01*
X11100850Y-13478975D02*
X11091326Y-13459928D01*
X11091326Y-13459928D02*
X11081802Y-13421832D01*
X11081802Y-13421832D02*
X11081802Y-13374213D01*
X11081802Y-13374213D02*
X11091326Y-13336118D01*
X11091326Y-13336118D02*
X11100850Y-13317070D01*
X11100850Y-13317070D02*
X11110374Y-13307547D01*
X11110374Y-13307547D02*
X11129421Y-13298023D01*
X11281802Y-13478975D02*
X11291326Y-13488499D01*
X11291326Y-13488499D02*
X11281802Y-13498023D01*
X11281802Y-13498023D02*
X11272278Y-13488499D01*
X11272278Y-13488499D02*
X11281802Y-13478975D01*
X11281802Y-13478975D02*
X11281802Y-13498023D01*
X11415135Y-13298023D02*
X11434183Y-13298023D01*
X11434183Y-13298023D02*
X11453231Y-13307547D01*
X11453231Y-13307547D02*
X11462755Y-13317070D01*
X11462755Y-13317070D02*
X11472278Y-13336118D01*
X11472278Y-13336118D02*
X11481802Y-13374213D01*
X11481802Y-13374213D02*
X11481802Y-13421832D01*
X11481802Y-13421832D02*
X11472278Y-13459928D01*
X11472278Y-13459928D02*
X11462755Y-13478975D01*
X11462755Y-13478975D02*
X11453231Y-13488499D01*
X11453231Y-13488499D02*
X11434183Y-13498023D01*
X11434183Y-13498023D02*
X11415135Y-13498023D01*
X11415135Y-13498023D02*
X11396088Y-13488499D01*
X11396088Y-13488499D02*
X11386564Y-13478975D01*
X11386564Y-13478975D02*
X11377040Y-13459928D01*
X11377040Y-13459928D02*
X11367516Y-13421832D01*
X11367516Y-13421832D02*
X11367516Y-13374213D01*
X11367516Y-13374213D02*
X11377040Y-13336118D01*
X11377040Y-13336118D02*
X11386564Y-13317070D01*
X11386564Y-13317070D02*
X11396088Y-13307547D01*
X11396088Y-13307547D02*
X11415135Y-13298023D01*
X11605612Y-13298023D02*
X11624659Y-13298023D01*
X11624659Y-13298023D02*
X11643707Y-13307547D01*
X11643707Y-13307547D02*
X11653231Y-13317070D01*
X11653231Y-13317070D02*
X11662755Y-13336118D01*
X11662755Y-13336118D02*
X11672278Y-13374213D01*
X11672278Y-13374213D02*
X11672278Y-13421832D01*
X11672278Y-13421832D02*
X11662755Y-13459928D01*
X11662755Y-13459928D02*
X11653231Y-13478975D01*
X11653231Y-13478975D02*
X11643707Y-13488499D01*
X11643707Y-13488499D02*
X11624659Y-13498023D01*
X11624659Y-13498023D02*
X11605612Y-13498023D01*
X11605612Y-13498023D02*
X11586564Y-13488499D01*
X11586564Y-13488499D02*
X11577040Y-13478975D01*
X11577040Y-13478975D02*
X11567516Y-13459928D01*
X11567516Y-13459928D02*
X11557993Y-13421832D01*
X11557993Y-13421832D02*
X11557993Y-13374213D01*
X11557993Y-13374213D02*
X11567516Y-13336118D01*
X11567516Y-13336118D02*
X11577040Y-13317070D01*
X11577040Y-13317070D02*
X11586564Y-13307547D01*
X11586564Y-13307547D02*
X11605612Y-13298023D01*
X11767516Y-13498023D02*
X11805612Y-13498023D01*
X11805612Y-13498023D02*
X11824659Y-13488499D01*
X11824659Y-13488499D02*
X11834183Y-13478975D01*
X11834183Y-13478975D02*
X11853231Y-13450404D01*
X11853231Y-13450404D02*
X11862755Y-13412309D01*
X11862755Y-13412309D02*
X11862755Y-13336118D01*
X11862755Y-13336118D02*
X11853231Y-13317070D01*
X11853231Y-13317070D02*
X11843707Y-13307547D01*
X11843707Y-13307547D02*
X11824659Y-13298023D01*
X11824659Y-13298023D02*
X11786564Y-13298023D01*
X11786564Y-13298023D02*
X11767516Y-13307547D01*
X11767516Y-13307547D02*
X11757993Y-13317070D01*
X11757993Y-13317070D02*
X11748469Y-13336118D01*
X11748469Y-13336118D02*
X11748469Y-13383737D01*
X11748469Y-13383737D02*
X11757993Y-13402785D01*
X11757993Y-13402785D02*
X11767516Y-13412309D01*
X11767516Y-13412309D02*
X11786564Y-13421832D01*
X11786564Y-13421832D02*
X11824659Y-13421832D01*
X11824659Y-13421832D02*
X11843707Y-13412309D01*
X11843707Y-13412309D02*
X11853231Y-13402785D01*
X11853231Y-13402785D02*
X11862755Y-13383737D01*
X11977040Y-13383737D02*
X11957993Y-13374213D01*
X11957993Y-13374213D02*
X11948469Y-13364689D01*
X11948469Y-13364689D02*
X11938945Y-13345642D01*
X11938945Y-13345642D02*
X11938945Y-13336118D01*
X11938945Y-13336118D02*
X11948469Y-13317070D01*
X11948469Y-13317070D02*
X11957993Y-13307547D01*
X11957993Y-13307547D02*
X11977040Y-13298023D01*
X11977040Y-13298023D02*
X12015136Y-13298023D01*
X12015136Y-13298023D02*
X12034183Y-13307547D01*
X12034183Y-13307547D02*
X12043707Y-13317070D01*
X12043707Y-13317070D02*
X12053231Y-13336118D01*
X12053231Y-13336118D02*
X12053231Y-13345642D01*
X12053231Y-13345642D02*
X12043707Y-13364689D01*
X12043707Y-13364689D02*
X12034183Y-13374213D01*
X12034183Y-13374213D02*
X12015136Y-13383737D01*
X12015136Y-13383737D02*
X11977040Y-13383737D01*
X11977040Y-13383737D02*
X11957993Y-13393261D01*
X11957993Y-13393261D02*
X11948469Y-13402785D01*
X11948469Y-13402785D02*
X11938945Y-13421832D01*
X11938945Y-13421832D02*
X11938945Y-13459928D01*
X11938945Y-13459928D02*
X11948469Y-13478975D01*
X11948469Y-13478975D02*
X11957993Y-13488499D01*
X11957993Y-13488499D02*
X11977040Y-13498023D01*
X11977040Y-13498023D02*
X12015136Y-13498023D01*
X12015136Y-13498023D02*
X12034183Y-13488499D01*
X12034183Y-13488499D02*
X12043707Y-13478975D01*
X12043707Y-13478975D02*
X12053231Y-13459928D01*
X12053231Y-13459928D02*
X12053231Y-13421832D01*
X12053231Y-13421832D02*
X12043707Y-13402785D01*
X12043707Y-13402785D02*
X12034183Y-13393261D01*
X12034183Y-13393261D02*
X12015136Y-13383737D01*
X12129421Y-13298023D02*
X12129421Y-13336118D01*
X12205612Y-13298023D02*
X12205612Y-13336118D01*
X12500850Y-13574213D02*
X12491326Y-13564689D01*
X12491326Y-13564689D02*
X12472278Y-13536118D01*
X12472278Y-13536118D02*
X12462755Y-13517070D01*
X12462755Y-13517070D02*
X12453231Y-13488499D01*
X12453231Y-13488499D02*
X12443707Y-13440880D01*
X12443707Y-13440880D02*
X12443707Y-13402785D01*
X12443707Y-13402785D02*
X12453231Y-13355166D01*
X12453231Y-13355166D02*
X12462755Y-13326594D01*
X12462755Y-13326594D02*
X12472278Y-13307547D01*
X12472278Y-13307547D02*
X12491326Y-13278975D01*
X12491326Y-13278975D02*
X12500850Y-13269451D01*
X12662755Y-13298023D02*
X12624659Y-13298023D01*
X12624659Y-13298023D02*
X12605612Y-13307547D01*
X12605612Y-13307547D02*
X12596088Y-13317070D01*
X12596088Y-13317070D02*
X12577040Y-13345642D01*
X12577040Y-13345642D02*
X12567517Y-13383737D01*
X12567517Y-13383737D02*
X12567517Y-13459928D01*
X12567517Y-13459928D02*
X12577040Y-13478975D01*
X12577040Y-13478975D02*
X12586564Y-13488499D01*
X12586564Y-13488499D02*
X12605612Y-13498023D01*
X12605612Y-13498023D02*
X12643707Y-13498023D01*
X12643707Y-13498023D02*
X12662755Y-13488499D01*
X12662755Y-13488499D02*
X12672278Y-13478975D01*
X12672278Y-13478975D02*
X12681802Y-13459928D01*
X12681802Y-13459928D02*
X12681802Y-13412309D01*
X12681802Y-13412309D02*
X12672278Y-13393261D01*
X12672278Y-13393261D02*
X12662755Y-13383737D01*
X12662755Y-13383737D02*
X12643707Y-13374213D01*
X12643707Y-13374213D02*
X12605612Y-13374213D01*
X12605612Y-13374213D02*
X12586564Y-13383737D01*
X12586564Y-13383737D02*
X12577040Y-13393261D01*
X12577040Y-13393261D02*
X12567517Y-13412309D01*
X12919898Y-13498023D02*
X12919898Y-13298023D01*
X13005612Y-13498023D02*
X13005612Y-13393261D01*
X13005612Y-13393261D02*
X12996088Y-13374213D01*
X12996088Y-13374213D02*
X12977040Y-13364689D01*
X12977040Y-13364689D02*
X12948469Y-13364689D01*
X12948469Y-13364689D02*
X12929421Y-13374213D01*
X12929421Y-13374213D02*
X12919898Y-13383737D01*
X13129421Y-13498023D02*
X13110374Y-13488499D01*
X13110374Y-13488499D02*
X13100850Y-13478975D01*
X13100850Y-13478975D02*
X13091326Y-13459928D01*
X13091326Y-13459928D02*
X13091326Y-13402785D01*
X13091326Y-13402785D02*
X13100850Y-13383737D01*
X13100850Y-13383737D02*
X13110374Y-13374213D01*
X13110374Y-13374213D02*
X13129421Y-13364689D01*
X13129421Y-13364689D02*
X13157993Y-13364689D01*
X13157993Y-13364689D02*
X13177040Y-13374213D01*
X13177040Y-13374213D02*
X13186564Y-13383737D01*
X13186564Y-13383737D02*
X13196088Y-13402785D01*
X13196088Y-13402785D02*
X13196088Y-13459928D01*
X13196088Y-13459928D02*
X13186564Y-13478975D01*
X13186564Y-13478975D02*
X13177040Y-13488499D01*
X13177040Y-13488499D02*
X13157993Y-13498023D01*
X13157993Y-13498023D02*
X13129421Y-13498023D01*
X13310374Y-13498023D02*
X13291326Y-13488499D01*
X13291326Y-13488499D02*
X13281802Y-13469451D01*
X13281802Y-13469451D02*
X13281802Y-13298023D01*
X13462755Y-13488499D02*
X13443707Y-13498023D01*
X13443707Y-13498023D02*
X13405612Y-13498023D01*
X13405612Y-13498023D02*
X13386564Y-13488499D01*
X13386564Y-13488499D02*
X13377040Y-13469451D01*
X13377040Y-13469451D02*
X13377040Y-13393261D01*
X13377040Y-13393261D02*
X13386564Y-13374213D01*
X13386564Y-13374213D02*
X13405612Y-13364689D01*
X13405612Y-13364689D02*
X13443707Y-13364689D01*
X13443707Y-13364689D02*
X13462755Y-13374213D01*
X13462755Y-13374213D02*
X13472279Y-13393261D01*
X13472279Y-13393261D02*
X13472279Y-13412309D01*
X13472279Y-13412309D02*
X13377040Y-13431356D01*
X13548469Y-13488499D02*
X13567517Y-13498023D01*
X13567517Y-13498023D02*
X13605612Y-13498023D01*
X13605612Y-13498023D02*
X13624660Y-13488499D01*
X13624660Y-13488499D02*
X13634183Y-13469451D01*
X13634183Y-13469451D02*
X13634183Y-13459928D01*
X13634183Y-13459928D02*
X13624660Y-13440880D01*
X13624660Y-13440880D02*
X13605612Y-13431356D01*
X13605612Y-13431356D02*
X13577040Y-13431356D01*
X13577040Y-13431356D02*
X13557993Y-13421832D01*
X13557993Y-13421832D02*
X13548469Y-13402785D01*
X13548469Y-13402785D02*
X13548469Y-13393261D01*
X13548469Y-13393261D02*
X13557993Y-13374213D01*
X13557993Y-13374213D02*
X13577040Y-13364689D01*
X13577040Y-13364689D02*
X13605612Y-13364689D01*
X13605612Y-13364689D02*
X13624660Y-13374213D01*
X13700850Y-13574213D02*
X13710374Y-13564689D01*
X13710374Y-13564689D02*
X13729421Y-13536118D01*
X13729421Y-13536118D02*
X13738945Y-13517070D01*
X13738945Y-13517070D02*
X13748469Y-13488499D01*
X13748469Y-13488499D02*
X13757993Y-13440880D01*
X13757993Y-13440880D02*
X13757993Y-13402785D01*
X13757993Y-13402785D02*
X13748469Y-13355166D01*
X13748469Y-13355166D02*
X13738945Y-13326594D01*
X13738945Y-13326594D02*
X13729421Y-13307547D01*
X13729421Y-13307547D02*
X13710374Y-13278975D01*
X13710374Y-13278975D02*
X13700850Y-13269451D01*
D12*
X8910787Y-13655539D02*
X8910787Y-13685539D01*
X8895787Y-13670539D02*
X8925787Y-13670539D01*
D11*
X9224659Y-13562023D02*
X9243707Y-13562023D01*
X9243707Y-13562023D02*
X9262754Y-13571547D01*
X9262754Y-13571547D02*
X9272278Y-13581070D01*
X9272278Y-13581070D02*
X9281802Y-13600118D01*
X9281802Y-13600118D02*
X9291326Y-13638213D01*
X9291326Y-13638213D02*
X9291326Y-13685832D01*
X9291326Y-13685832D02*
X9281802Y-13723928D01*
X9281802Y-13723928D02*
X9272278Y-13742975D01*
X9272278Y-13742975D02*
X9262754Y-13752499D01*
X9262754Y-13752499D02*
X9243707Y-13762023D01*
X9243707Y-13762023D02*
X9224659Y-13762023D01*
X9224659Y-13762023D02*
X9205612Y-13752499D01*
X9205612Y-13752499D02*
X9196088Y-13742975D01*
X9196088Y-13742975D02*
X9186564Y-13723928D01*
X9186564Y-13723928D02*
X9177040Y-13685832D01*
X9177040Y-13685832D02*
X9177040Y-13638213D01*
X9177040Y-13638213D02*
X9186564Y-13600118D01*
X9186564Y-13600118D02*
X9196088Y-13581070D01*
X9196088Y-13581070D02*
X9205612Y-13571547D01*
X9205612Y-13571547D02*
X9224659Y-13562023D01*
X9377040Y-13742975D02*
X9386564Y-13752499D01*
X9386564Y-13752499D02*
X9377040Y-13762023D01*
X9377040Y-13762023D02*
X9367516Y-13752499D01*
X9367516Y-13752499D02*
X9377040Y-13742975D01*
X9377040Y-13742975D02*
X9377040Y-13762023D01*
X9453231Y-13562023D02*
X9577040Y-13562023D01*
X9577040Y-13562023D02*
X9510373Y-13638213D01*
X9510373Y-13638213D02*
X9538945Y-13638213D01*
X9538945Y-13638213D02*
X9557993Y-13647737D01*
X9557993Y-13647737D02*
X9567516Y-13657261D01*
X9567516Y-13657261D02*
X9577040Y-13676309D01*
X9577040Y-13676309D02*
X9577040Y-13723928D01*
X9577040Y-13723928D02*
X9567516Y-13742975D01*
X9567516Y-13742975D02*
X9557993Y-13752499D01*
X9557993Y-13752499D02*
X9538945Y-13762023D01*
X9538945Y-13762023D02*
X9481802Y-13762023D01*
X9481802Y-13762023D02*
X9462754Y-13752499D01*
X9462754Y-13752499D02*
X9453231Y-13742975D01*
X9700850Y-13562023D02*
X9719897Y-13562023D01*
X9719897Y-13562023D02*
X9738945Y-13571547D01*
X9738945Y-13571547D02*
X9748469Y-13581070D01*
X9748469Y-13581070D02*
X9757993Y-13600118D01*
X9757993Y-13600118D02*
X9767516Y-13638213D01*
X9767516Y-13638213D02*
X9767516Y-13685832D01*
X9767516Y-13685832D02*
X9757993Y-13723928D01*
X9757993Y-13723928D02*
X9748469Y-13742975D01*
X9748469Y-13742975D02*
X9738945Y-13752499D01*
X9738945Y-13752499D02*
X9719897Y-13762023D01*
X9719897Y-13762023D02*
X9700850Y-13762023D01*
X9700850Y-13762023D02*
X9681802Y-13752499D01*
X9681802Y-13752499D02*
X9672278Y-13742975D01*
X9672278Y-13742975D02*
X9662754Y-13723928D01*
X9662754Y-13723928D02*
X9653231Y-13685832D01*
X9653231Y-13685832D02*
X9653231Y-13638213D01*
X9653231Y-13638213D02*
X9662754Y-13600118D01*
X9662754Y-13600118D02*
X9672278Y-13581070D01*
X9672278Y-13581070D02*
X9681802Y-13571547D01*
X9681802Y-13571547D02*
X9700850Y-13562023D01*
X9891326Y-13562023D02*
X9910374Y-13562023D01*
X9910374Y-13562023D02*
X9929421Y-13571547D01*
X9929421Y-13571547D02*
X9938945Y-13581070D01*
X9938945Y-13581070D02*
X9948469Y-13600118D01*
X9948469Y-13600118D02*
X9957993Y-13638213D01*
X9957993Y-13638213D02*
X9957993Y-13685832D01*
X9957993Y-13685832D02*
X9948469Y-13723928D01*
X9948469Y-13723928D02*
X9938945Y-13742975D01*
X9938945Y-13742975D02*
X9929421Y-13752499D01*
X9929421Y-13752499D02*
X9910374Y-13762023D01*
X9910374Y-13762023D02*
X9891326Y-13762023D01*
X9891326Y-13762023D02*
X9872278Y-13752499D01*
X9872278Y-13752499D02*
X9862754Y-13742975D01*
X9862754Y-13742975D02*
X9853231Y-13723928D01*
X9853231Y-13723928D02*
X9843707Y-13685832D01*
X9843707Y-13685832D02*
X9843707Y-13638213D01*
X9843707Y-13638213D02*
X9853231Y-13600118D01*
X9853231Y-13600118D02*
X9862754Y-13581070D01*
X9862754Y-13581070D02*
X9872278Y-13571547D01*
X9872278Y-13571547D02*
X9891326Y-13562023D01*
X10043707Y-13762023D02*
X10043707Y-13628689D01*
X10043707Y-13647737D02*
X10053231Y-13638213D01*
X10053231Y-13638213D02*
X10072278Y-13628689D01*
X10072278Y-13628689D02*
X10100850Y-13628689D01*
X10100850Y-13628689D02*
X10119897Y-13638213D01*
X10119897Y-13638213D02*
X10129421Y-13657261D01*
X10129421Y-13657261D02*
X10129421Y-13762023D01*
X10129421Y-13657261D02*
X10138945Y-13638213D01*
X10138945Y-13638213D02*
X10157993Y-13628689D01*
X10157993Y-13628689D02*
X10186564Y-13628689D01*
X10186564Y-13628689D02*
X10205612Y-13638213D01*
X10205612Y-13638213D02*
X10215135Y-13657261D01*
X10215135Y-13657261D02*
X10215135Y-13762023D01*
X10310374Y-13762023D02*
X10310374Y-13628689D01*
X10310374Y-13647737D02*
X10319897Y-13638213D01*
X10319897Y-13638213D02*
X10338945Y-13628689D01*
X10338945Y-13628689D02*
X10367516Y-13628689D01*
X10367516Y-13628689D02*
X10386564Y-13638213D01*
X10386564Y-13638213D02*
X10396088Y-13657261D01*
X10396088Y-13657261D02*
X10396088Y-13762023D01*
X10396088Y-13657261D02*
X10405612Y-13638213D01*
X10405612Y-13638213D02*
X10424659Y-13628689D01*
X10424659Y-13628689D02*
X10453231Y-13628689D01*
X10453231Y-13628689D02*
X10472278Y-13638213D01*
X10472278Y-13638213D02*
X10481802Y-13657261D01*
X10481802Y-13657261D02*
X10481802Y-13762023D01*
X10872278Y-13552499D02*
X10700850Y-13809642D01*
X11129421Y-13562023D02*
X11148469Y-13562023D01*
X11148469Y-13562023D02*
X11167517Y-13571547D01*
X11167517Y-13571547D02*
X11177040Y-13581070D01*
X11177040Y-13581070D02*
X11186564Y-13600118D01*
X11186564Y-13600118D02*
X11196088Y-13638213D01*
X11196088Y-13638213D02*
X11196088Y-13685832D01*
X11196088Y-13685832D02*
X11186564Y-13723928D01*
X11186564Y-13723928D02*
X11177040Y-13742975D01*
X11177040Y-13742975D02*
X11167517Y-13752499D01*
X11167517Y-13752499D02*
X11148469Y-13762023D01*
X11148469Y-13762023D02*
X11129421Y-13762023D01*
X11129421Y-13762023D02*
X11110374Y-13752499D01*
X11110374Y-13752499D02*
X11100850Y-13742975D01*
X11100850Y-13742975D02*
X11091326Y-13723928D01*
X11091326Y-13723928D02*
X11081802Y-13685832D01*
X11081802Y-13685832D02*
X11081802Y-13638213D01*
X11081802Y-13638213D02*
X11091326Y-13600118D01*
X11091326Y-13600118D02*
X11100850Y-13581070D01*
X11100850Y-13581070D02*
X11110374Y-13571547D01*
X11110374Y-13571547D02*
X11129421Y-13562023D01*
X11281802Y-13742975D02*
X11291326Y-13752499D01*
X11291326Y-13752499D02*
X11281802Y-13762023D01*
X11281802Y-13762023D02*
X11272278Y-13752499D01*
X11272278Y-13752499D02*
X11281802Y-13742975D01*
X11281802Y-13742975D02*
X11281802Y-13762023D01*
X11415135Y-13562023D02*
X11434183Y-13562023D01*
X11434183Y-13562023D02*
X11453231Y-13571547D01*
X11453231Y-13571547D02*
X11462755Y-13581070D01*
X11462755Y-13581070D02*
X11472278Y-13600118D01*
X11472278Y-13600118D02*
X11481802Y-13638213D01*
X11481802Y-13638213D02*
X11481802Y-13685832D01*
X11481802Y-13685832D02*
X11472278Y-13723928D01*
X11472278Y-13723928D02*
X11462755Y-13742975D01*
X11462755Y-13742975D02*
X11453231Y-13752499D01*
X11453231Y-13752499D02*
X11434183Y-13762023D01*
X11434183Y-13762023D02*
X11415135Y-13762023D01*
X11415135Y-13762023D02*
X11396088Y-13752499D01*
X11396088Y-13752499D02*
X11386564Y-13742975D01*
X11386564Y-13742975D02*
X11377040Y-13723928D01*
X11377040Y-13723928D02*
X11367516Y-13685832D01*
X11367516Y-13685832D02*
X11367516Y-13638213D01*
X11367516Y-13638213D02*
X11377040Y-13600118D01*
X11377040Y-13600118D02*
X11386564Y-13581070D01*
X11386564Y-13581070D02*
X11396088Y-13571547D01*
X11396088Y-13571547D02*
X11415135Y-13562023D01*
X11672278Y-13762023D02*
X11557993Y-13762023D01*
X11615135Y-13762023D02*
X11615135Y-13562023D01*
X11615135Y-13562023D02*
X11596088Y-13590594D01*
X11596088Y-13590594D02*
X11577040Y-13609642D01*
X11577040Y-13609642D02*
X11557993Y-13619166D01*
X11862755Y-13762023D02*
X11748469Y-13762023D01*
X11805612Y-13762023D02*
X11805612Y-13562023D01*
X11805612Y-13562023D02*
X11786564Y-13590594D01*
X11786564Y-13590594D02*
X11767516Y-13609642D01*
X11767516Y-13609642D02*
X11748469Y-13619166D01*
X11977040Y-13647737D02*
X11957993Y-13638213D01*
X11957993Y-13638213D02*
X11948469Y-13628689D01*
X11948469Y-13628689D02*
X11938945Y-13609642D01*
X11938945Y-13609642D02*
X11938945Y-13600118D01*
X11938945Y-13600118D02*
X11948469Y-13581070D01*
X11948469Y-13581070D02*
X11957993Y-13571547D01*
X11957993Y-13571547D02*
X11977040Y-13562023D01*
X11977040Y-13562023D02*
X12015136Y-13562023D01*
X12015136Y-13562023D02*
X12034183Y-13571547D01*
X12034183Y-13571547D02*
X12043707Y-13581070D01*
X12043707Y-13581070D02*
X12053231Y-13600118D01*
X12053231Y-13600118D02*
X12053231Y-13609642D01*
X12053231Y-13609642D02*
X12043707Y-13628689D01*
X12043707Y-13628689D02*
X12034183Y-13638213D01*
X12034183Y-13638213D02*
X12015136Y-13647737D01*
X12015136Y-13647737D02*
X11977040Y-13647737D01*
X11977040Y-13647737D02*
X11957993Y-13657261D01*
X11957993Y-13657261D02*
X11948469Y-13666785D01*
X11948469Y-13666785D02*
X11938945Y-13685832D01*
X11938945Y-13685832D02*
X11938945Y-13723928D01*
X11938945Y-13723928D02*
X11948469Y-13742975D01*
X11948469Y-13742975D02*
X11957993Y-13752499D01*
X11957993Y-13752499D02*
X11977040Y-13762023D01*
X11977040Y-13762023D02*
X12015136Y-13762023D01*
X12015136Y-13762023D02*
X12034183Y-13752499D01*
X12034183Y-13752499D02*
X12043707Y-13742975D01*
X12043707Y-13742975D02*
X12053231Y-13723928D01*
X12053231Y-13723928D02*
X12053231Y-13685832D01*
X12053231Y-13685832D02*
X12043707Y-13666785D01*
X12043707Y-13666785D02*
X12034183Y-13657261D01*
X12034183Y-13657261D02*
X12015136Y-13647737D01*
X12129421Y-13562023D02*
X12129421Y-13600118D01*
X12205612Y-13562023D02*
X12205612Y-13600118D01*
X12500850Y-13838213D02*
X12491326Y-13828689D01*
X12491326Y-13828689D02*
X12472278Y-13800118D01*
X12472278Y-13800118D02*
X12462755Y-13781070D01*
X12462755Y-13781070D02*
X12453231Y-13752499D01*
X12453231Y-13752499D02*
X12443707Y-13704880D01*
X12443707Y-13704880D02*
X12443707Y-13666785D01*
X12443707Y-13666785D02*
X12453231Y-13619166D01*
X12453231Y-13619166D02*
X12462755Y-13590594D01*
X12462755Y-13590594D02*
X12472278Y-13571547D01*
X12472278Y-13571547D02*
X12491326Y-13542975D01*
X12491326Y-13542975D02*
X12500850Y-13533451D01*
X12672278Y-13562023D02*
X12577040Y-13562023D01*
X12577040Y-13562023D02*
X12567517Y-13657261D01*
X12567517Y-13657261D02*
X12577040Y-13647737D01*
X12577040Y-13647737D02*
X12596088Y-13638213D01*
X12596088Y-13638213D02*
X12643707Y-13638213D01*
X12643707Y-13638213D02*
X12662755Y-13647737D01*
X12662755Y-13647737D02*
X12672278Y-13657261D01*
X12672278Y-13657261D02*
X12681802Y-13676309D01*
X12681802Y-13676309D02*
X12681802Y-13723928D01*
X12681802Y-13723928D02*
X12672278Y-13742975D01*
X12672278Y-13742975D02*
X12662755Y-13752499D01*
X12662755Y-13752499D02*
X12643707Y-13762023D01*
X12643707Y-13762023D02*
X12596088Y-13762023D01*
X12596088Y-13762023D02*
X12577040Y-13752499D01*
X12577040Y-13752499D02*
X12567517Y-13742975D01*
X12796088Y-13647737D02*
X12777040Y-13638213D01*
X12777040Y-13638213D02*
X12767517Y-13628689D01*
X12767517Y-13628689D02*
X12757993Y-13609642D01*
X12757993Y-13609642D02*
X12757993Y-13600118D01*
X12757993Y-13600118D02*
X12767517Y-13581070D01*
X12767517Y-13581070D02*
X12777040Y-13571547D01*
X12777040Y-13571547D02*
X12796088Y-13562023D01*
X12796088Y-13562023D02*
X12834183Y-13562023D01*
X12834183Y-13562023D02*
X12853231Y-13571547D01*
X12853231Y-13571547D02*
X12862755Y-13581070D01*
X12862755Y-13581070D02*
X12872278Y-13600118D01*
X12872278Y-13600118D02*
X12872278Y-13609642D01*
X12872278Y-13609642D02*
X12862755Y-13628689D01*
X12862755Y-13628689D02*
X12853231Y-13638213D01*
X12853231Y-13638213D02*
X12834183Y-13647737D01*
X12834183Y-13647737D02*
X12796088Y-13647737D01*
X12796088Y-13647737D02*
X12777040Y-13657261D01*
X12777040Y-13657261D02*
X12767517Y-13666785D01*
X12767517Y-13666785D02*
X12757993Y-13685832D01*
X12757993Y-13685832D02*
X12757993Y-13723928D01*
X12757993Y-13723928D02*
X12767517Y-13742975D01*
X12767517Y-13742975D02*
X12777040Y-13752499D01*
X12777040Y-13752499D02*
X12796088Y-13762023D01*
X12796088Y-13762023D02*
X12834183Y-13762023D01*
X12834183Y-13762023D02*
X12853231Y-13752499D01*
X12853231Y-13752499D02*
X12862755Y-13742975D01*
X12862755Y-13742975D02*
X12872278Y-13723928D01*
X12872278Y-13723928D02*
X12872278Y-13685832D01*
X12872278Y-13685832D02*
X12862755Y-13666785D01*
X12862755Y-13666785D02*
X12853231Y-13657261D01*
X12853231Y-13657261D02*
X12834183Y-13647737D01*
X13110374Y-13762023D02*
X13110374Y-13562023D01*
X13196088Y-13762023D02*
X13196088Y-13657261D01*
X13196088Y-13657261D02*
X13186564Y-13638213D01*
X13186564Y-13638213D02*
X13167517Y-13628689D01*
X13167517Y-13628689D02*
X13138945Y-13628689D01*
X13138945Y-13628689D02*
X13119898Y-13638213D01*
X13119898Y-13638213D02*
X13110374Y-13647737D01*
X13319898Y-13762023D02*
X13300850Y-13752499D01*
X13300850Y-13752499D02*
X13291326Y-13742975D01*
X13291326Y-13742975D02*
X13281802Y-13723928D01*
X13281802Y-13723928D02*
X13281802Y-13666785D01*
X13281802Y-13666785D02*
X13291326Y-13647737D01*
X13291326Y-13647737D02*
X13300850Y-13638213D01*
X13300850Y-13638213D02*
X13319898Y-13628689D01*
X13319898Y-13628689D02*
X13348469Y-13628689D01*
X13348469Y-13628689D02*
X13367517Y-13638213D01*
X13367517Y-13638213D02*
X13377040Y-13647737D01*
X13377040Y-13647737D02*
X13386564Y-13666785D01*
X13386564Y-13666785D02*
X13386564Y-13723928D01*
X13386564Y-13723928D02*
X13377040Y-13742975D01*
X13377040Y-13742975D02*
X13367517Y-13752499D01*
X13367517Y-13752499D02*
X13348469Y-13762023D01*
X13348469Y-13762023D02*
X13319898Y-13762023D01*
X13500850Y-13762023D02*
X13481802Y-13752499D01*
X13481802Y-13752499D02*
X13472279Y-13733451D01*
X13472279Y-13733451D02*
X13472279Y-13562023D01*
X13653231Y-13752499D02*
X13634183Y-13762023D01*
X13634183Y-13762023D02*
X13596088Y-13762023D01*
X13596088Y-13762023D02*
X13577040Y-13752499D01*
X13577040Y-13752499D02*
X13567517Y-13733451D01*
X13567517Y-13733451D02*
X13567517Y-13657261D01*
X13567517Y-13657261D02*
X13577040Y-13638213D01*
X13577040Y-13638213D02*
X13596088Y-13628689D01*
X13596088Y-13628689D02*
X13634183Y-13628689D01*
X13634183Y-13628689D02*
X13653231Y-13638213D01*
X13653231Y-13638213D02*
X13662755Y-13657261D01*
X13662755Y-13657261D02*
X13662755Y-13676309D01*
X13662755Y-13676309D02*
X13567517Y-13695356D01*
X13738945Y-13752499D02*
X13757993Y-13762023D01*
X13757993Y-13762023D02*
X13796088Y-13762023D01*
X13796088Y-13762023D02*
X13815136Y-13752499D01*
X13815136Y-13752499D02*
X13824660Y-13733451D01*
X13824660Y-13733451D02*
X13824660Y-13723928D01*
X13824660Y-13723928D02*
X13815136Y-13704880D01*
X13815136Y-13704880D02*
X13796088Y-13695356D01*
X13796088Y-13695356D02*
X13767517Y-13695356D01*
X13767517Y-13695356D02*
X13748469Y-13685832D01*
X13748469Y-13685832D02*
X13738945Y-13666785D01*
X13738945Y-13666785D02*
X13738945Y-13657261D01*
X13738945Y-13657261D02*
X13748469Y-13638213D01*
X13748469Y-13638213D02*
X13767517Y-13628689D01*
X13767517Y-13628689D02*
X13796088Y-13628689D01*
X13796088Y-13628689D02*
X13815136Y-13638213D01*
X13891326Y-13838213D02*
X13900850Y-13828689D01*
X13900850Y-13828689D02*
X13919898Y-13800118D01*
X13919898Y-13800118D02*
X13929421Y-13781070D01*
X13929421Y-13781070D02*
X13938945Y-13752499D01*
X13938945Y-13752499D02*
X13948469Y-13704880D01*
X13948469Y-13704880D02*
X13948469Y-13666785D01*
X13948469Y-13666785D02*
X13938945Y-13619166D01*
X13938945Y-13619166D02*
X13929421Y-13590594D01*
X13929421Y-13590594D02*
X13919898Y-13571547D01*
X13919898Y-13571547D02*
X13900850Y-13542975D01*
X13900850Y-13542975D02*
X13891326Y-13533451D01*
D12*
X8916860Y-13956092D02*
X8916860Y-13912986D01*
X8873754Y-13912986D01*
X8873754Y-13956092D01*
X8916860Y-13956092D01*
D11*
X9224659Y-13826023D02*
X9243707Y-13826023D01*
X9243707Y-13826023D02*
X9262754Y-13835547D01*
X9262754Y-13835547D02*
X9272278Y-13845070D01*
X9272278Y-13845070D02*
X9281802Y-13864118D01*
X9281802Y-13864118D02*
X9291326Y-13902213D01*
X9291326Y-13902213D02*
X9291326Y-13949832D01*
X9291326Y-13949832D02*
X9281802Y-13987928D01*
X9281802Y-13987928D02*
X9272278Y-14006975D01*
X9272278Y-14006975D02*
X9262754Y-14016499D01*
X9262754Y-14016499D02*
X9243707Y-14026023D01*
X9243707Y-14026023D02*
X9224659Y-14026023D01*
X9224659Y-14026023D02*
X9205612Y-14016499D01*
X9205612Y-14016499D02*
X9196088Y-14006975D01*
X9196088Y-14006975D02*
X9186564Y-13987928D01*
X9186564Y-13987928D02*
X9177040Y-13949832D01*
X9177040Y-13949832D02*
X9177040Y-13902213D01*
X9177040Y-13902213D02*
X9186564Y-13864118D01*
X9186564Y-13864118D02*
X9196088Y-13845070D01*
X9196088Y-13845070D02*
X9205612Y-13835547D01*
X9205612Y-13835547D02*
X9224659Y-13826023D01*
X9377040Y-14006975D02*
X9386564Y-14016499D01*
X9386564Y-14016499D02*
X9377040Y-14026023D01*
X9377040Y-14026023D02*
X9367516Y-14016499D01*
X9367516Y-14016499D02*
X9377040Y-14006975D01*
X9377040Y-14006975D02*
X9377040Y-14026023D01*
X9557993Y-13826023D02*
X9519897Y-13826023D01*
X9519897Y-13826023D02*
X9500850Y-13835547D01*
X9500850Y-13835547D02*
X9491326Y-13845070D01*
X9491326Y-13845070D02*
X9472278Y-13873642D01*
X9472278Y-13873642D02*
X9462754Y-13911737D01*
X9462754Y-13911737D02*
X9462754Y-13987928D01*
X9462754Y-13987928D02*
X9472278Y-14006975D01*
X9472278Y-14006975D02*
X9481802Y-14016499D01*
X9481802Y-14016499D02*
X9500850Y-14026023D01*
X9500850Y-14026023D02*
X9538945Y-14026023D01*
X9538945Y-14026023D02*
X9557993Y-14016499D01*
X9557993Y-14016499D02*
X9567516Y-14006975D01*
X9567516Y-14006975D02*
X9577040Y-13987928D01*
X9577040Y-13987928D02*
X9577040Y-13940309D01*
X9577040Y-13940309D02*
X9567516Y-13921261D01*
X9567516Y-13921261D02*
X9557993Y-13911737D01*
X9557993Y-13911737D02*
X9538945Y-13902213D01*
X9538945Y-13902213D02*
X9500850Y-13902213D01*
X9500850Y-13902213D02*
X9481802Y-13911737D01*
X9481802Y-13911737D02*
X9472278Y-13921261D01*
X9472278Y-13921261D02*
X9462754Y-13940309D01*
X9767516Y-14026023D02*
X9653231Y-14026023D01*
X9710373Y-14026023D02*
X9710373Y-13826023D01*
X9710373Y-13826023D02*
X9691326Y-13854594D01*
X9691326Y-13854594D02*
X9672278Y-13873642D01*
X9672278Y-13873642D02*
X9653231Y-13883166D01*
X9891326Y-13826023D02*
X9910374Y-13826023D01*
X9910374Y-13826023D02*
X9929421Y-13835547D01*
X9929421Y-13835547D02*
X9938945Y-13845070D01*
X9938945Y-13845070D02*
X9948469Y-13864118D01*
X9948469Y-13864118D02*
X9957993Y-13902213D01*
X9957993Y-13902213D02*
X9957993Y-13949832D01*
X9957993Y-13949832D02*
X9948469Y-13987928D01*
X9948469Y-13987928D02*
X9938945Y-14006975D01*
X9938945Y-14006975D02*
X9929421Y-14016499D01*
X9929421Y-14016499D02*
X9910374Y-14026023D01*
X9910374Y-14026023D02*
X9891326Y-14026023D01*
X9891326Y-14026023D02*
X9872278Y-14016499D01*
X9872278Y-14016499D02*
X9862754Y-14006975D01*
X9862754Y-14006975D02*
X9853231Y-13987928D01*
X9853231Y-13987928D02*
X9843707Y-13949832D01*
X9843707Y-13949832D02*
X9843707Y-13902213D01*
X9843707Y-13902213D02*
X9853231Y-13864118D01*
X9853231Y-13864118D02*
X9862754Y-13845070D01*
X9862754Y-13845070D02*
X9872278Y-13835547D01*
X9872278Y-13835547D02*
X9891326Y-13826023D01*
X10043707Y-14026023D02*
X10043707Y-13892689D01*
X10043707Y-13911737D02*
X10053231Y-13902213D01*
X10053231Y-13902213D02*
X10072278Y-13892689D01*
X10072278Y-13892689D02*
X10100850Y-13892689D01*
X10100850Y-13892689D02*
X10119897Y-13902213D01*
X10119897Y-13902213D02*
X10129421Y-13921261D01*
X10129421Y-13921261D02*
X10129421Y-14026023D01*
X10129421Y-13921261D02*
X10138945Y-13902213D01*
X10138945Y-13902213D02*
X10157993Y-13892689D01*
X10157993Y-13892689D02*
X10186564Y-13892689D01*
X10186564Y-13892689D02*
X10205612Y-13902213D01*
X10205612Y-13902213D02*
X10215135Y-13921261D01*
X10215135Y-13921261D02*
X10215135Y-14026023D01*
X10310374Y-14026023D02*
X10310374Y-13892689D01*
X10310374Y-13911737D02*
X10319897Y-13902213D01*
X10319897Y-13902213D02*
X10338945Y-13892689D01*
X10338945Y-13892689D02*
X10367516Y-13892689D01*
X10367516Y-13892689D02*
X10386564Y-13902213D01*
X10386564Y-13902213D02*
X10396088Y-13921261D01*
X10396088Y-13921261D02*
X10396088Y-14026023D01*
X10396088Y-13921261D02*
X10405612Y-13902213D01*
X10405612Y-13902213D02*
X10424659Y-13892689D01*
X10424659Y-13892689D02*
X10453231Y-13892689D01*
X10453231Y-13892689D02*
X10472278Y-13902213D01*
X10472278Y-13902213D02*
X10481802Y-13921261D01*
X10481802Y-13921261D02*
X10481802Y-14026023D01*
X10872278Y-13816499D02*
X10700850Y-14073642D01*
X11129421Y-13826023D02*
X11148469Y-13826023D01*
X11148469Y-13826023D02*
X11167517Y-13835547D01*
X11167517Y-13835547D02*
X11177040Y-13845070D01*
X11177040Y-13845070D02*
X11186564Y-13864118D01*
X11186564Y-13864118D02*
X11196088Y-13902213D01*
X11196088Y-13902213D02*
X11196088Y-13949832D01*
X11196088Y-13949832D02*
X11186564Y-13987928D01*
X11186564Y-13987928D02*
X11177040Y-14006975D01*
X11177040Y-14006975D02*
X11167517Y-14016499D01*
X11167517Y-14016499D02*
X11148469Y-14026023D01*
X11148469Y-14026023D02*
X11129421Y-14026023D01*
X11129421Y-14026023D02*
X11110374Y-14016499D01*
X11110374Y-14016499D02*
X11100850Y-14006975D01*
X11100850Y-14006975D02*
X11091326Y-13987928D01*
X11091326Y-13987928D02*
X11081802Y-13949832D01*
X11081802Y-13949832D02*
X11081802Y-13902213D01*
X11081802Y-13902213D02*
X11091326Y-13864118D01*
X11091326Y-13864118D02*
X11100850Y-13845070D01*
X11100850Y-13845070D02*
X11110374Y-13835547D01*
X11110374Y-13835547D02*
X11129421Y-13826023D01*
X11281802Y-14006975D02*
X11291326Y-14016499D01*
X11291326Y-14016499D02*
X11281802Y-14026023D01*
X11281802Y-14026023D02*
X11272278Y-14016499D01*
X11272278Y-14016499D02*
X11281802Y-14006975D01*
X11281802Y-14006975D02*
X11281802Y-14026023D01*
X11415135Y-13826023D02*
X11434183Y-13826023D01*
X11434183Y-13826023D02*
X11453231Y-13835547D01*
X11453231Y-13835547D02*
X11462755Y-13845070D01*
X11462755Y-13845070D02*
X11472278Y-13864118D01*
X11472278Y-13864118D02*
X11481802Y-13902213D01*
X11481802Y-13902213D02*
X11481802Y-13949832D01*
X11481802Y-13949832D02*
X11472278Y-13987928D01*
X11472278Y-13987928D02*
X11462755Y-14006975D01*
X11462755Y-14006975D02*
X11453231Y-14016499D01*
X11453231Y-14016499D02*
X11434183Y-14026023D01*
X11434183Y-14026023D02*
X11415135Y-14026023D01*
X11415135Y-14026023D02*
X11396088Y-14016499D01*
X11396088Y-14016499D02*
X11386564Y-14006975D01*
X11386564Y-14006975D02*
X11377040Y-13987928D01*
X11377040Y-13987928D02*
X11367516Y-13949832D01*
X11367516Y-13949832D02*
X11367516Y-13902213D01*
X11367516Y-13902213D02*
X11377040Y-13864118D01*
X11377040Y-13864118D02*
X11386564Y-13845070D01*
X11386564Y-13845070D02*
X11396088Y-13835547D01*
X11396088Y-13835547D02*
X11415135Y-13826023D01*
X11557993Y-13845070D02*
X11567516Y-13835547D01*
X11567516Y-13835547D02*
X11586564Y-13826023D01*
X11586564Y-13826023D02*
X11634183Y-13826023D01*
X11634183Y-13826023D02*
X11653231Y-13835547D01*
X11653231Y-13835547D02*
X11662755Y-13845070D01*
X11662755Y-13845070D02*
X11672278Y-13864118D01*
X11672278Y-13864118D02*
X11672278Y-13883166D01*
X11672278Y-13883166D02*
X11662755Y-13911737D01*
X11662755Y-13911737D02*
X11548469Y-14026023D01*
X11548469Y-14026023D02*
X11672278Y-14026023D01*
X11843707Y-13892689D02*
X11843707Y-14026023D01*
X11796088Y-13816499D02*
X11748469Y-13959356D01*
X11748469Y-13959356D02*
X11872278Y-13959356D01*
X11986564Y-13826023D02*
X12005612Y-13826023D01*
X12005612Y-13826023D02*
X12024659Y-13835547D01*
X12024659Y-13835547D02*
X12034183Y-13845070D01*
X12034183Y-13845070D02*
X12043707Y-13864118D01*
X12043707Y-13864118D02*
X12053231Y-13902213D01*
X12053231Y-13902213D02*
X12053231Y-13949832D01*
X12053231Y-13949832D02*
X12043707Y-13987928D01*
X12043707Y-13987928D02*
X12034183Y-14006975D01*
X12034183Y-14006975D02*
X12024659Y-14016499D01*
X12024659Y-14016499D02*
X12005612Y-14026023D01*
X12005612Y-14026023D02*
X11986564Y-14026023D01*
X11986564Y-14026023D02*
X11967516Y-14016499D01*
X11967516Y-14016499D02*
X11957993Y-14006975D01*
X11957993Y-14006975D02*
X11948469Y-13987928D01*
X11948469Y-13987928D02*
X11938945Y-13949832D01*
X11938945Y-13949832D02*
X11938945Y-13902213D01*
X11938945Y-13902213D02*
X11948469Y-13864118D01*
X11948469Y-13864118D02*
X11957993Y-13845070D01*
X11957993Y-13845070D02*
X11967516Y-13835547D01*
X11967516Y-13835547D02*
X11986564Y-13826023D01*
X12129421Y-13826023D02*
X12129421Y-13864118D01*
X12205612Y-13826023D02*
X12205612Y-13864118D01*
X12500850Y-14102213D02*
X12491326Y-14092689D01*
X12491326Y-14092689D02*
X12472278Y-14064118D01*
X12472278Y-14064118D02*
X12462755Y-14045070D01*
X12462755Y-14045070D02*
X12453231Y-14016499D01*
X12453231Y-14016499D02*
X12443707Y-13968880D01*
X12443707Y-13968880D02*
X12443707Y-13930785D01*
X12443707Y-13930785D02*
X12453231Y-13883166D01*
X12453231Y-13883166D02*
X12462755Y-13854594D01*
X12462755Y-13854594D02*
X12472278Y-13835547D01*
X12472278Y-13835547D02*
X12491326Y-13806975D01*
X12491326Y-13806975D02*
X12500850Y-13797451D01*
X12681802Y-14026023D02*
X12567517Y-14026023D01*
X12624659Y-14026023D02*
X12624659Y-13826023D01*
X12624659Y-13826023D02*
X12605612Y-13854594D01*
X12605612Y-13854594D02*
X12586564Y-13873642D01*
X12586564Y-13873642D02*
X12567517Y-13883166D01*
X12757993Y-13845070D02*
X12767517Y-13835547D01*
X12767517Y-13835547D02*
X12786564Y-13826023D01*
X12786564Y-13826023D02*
X12834183Y-13826023D01*
X12834183Y-13826023D02*
X12853231Y-13835547D01*
X12853231Y-13835547D02*
X12862755Y-13845070D01*
X12862755Y-13845070D02*
X12872278Y-13864118D01*
X12872278Y-13864118D02*
X12872278Y-13883166D01*
X12872278Y-13883166D02*
X12862755Y-13911737D01*
X12862755Y-13911737D02*
X12748469Y-14026023D01*
X12748469Y-14026023D02*
X12872278Y-14026023D01*
X13110374Y-14026023D02*
X13110374Y-13826023D01*
X13196088Y-14026023D02*
X13196088Y-13921261D01*
X13196088Y-13921261D02*
X13186564Y-13902213D01*
X13186564Y-13902213D02*
X13167517Y-13892689D01*
X13167517Y-13892689D02*
X13138945Y-13892689D01*
X13138945Y-13892689D02*
X13119898Y-13902213D01*
X13119898Y-13902213D02*
X13110374Y-13911737D01*
X13319898Y-14026023D02*
X13300850Y-14016499D01*
X13300850Y-14016499D02*
X13291326Y-14006975D01*
X13291326Y-14006975D02*
X13281802Y-13987928D01*
X13281802Y-13987928D02*
X13281802Y-13930785D01*
X13281802Y-13930785D02*
X13291326Y-13911737D01*
X13291326Y-13911737D02*
X13300850Y-13902213D01*
X13300850Y-13902213D02*
X13319898Y-13892689D01*
X13319898Y-13892689D02*
X13348469Y-13892689D01*
X13348469Y-13892689D02*
X13367517Y-13902213D01*
X13367517Y-13902213D02*
X13377040Y-13911737D01*
X13377040Y-13911737D02*
X13386564Y-13930785D01*
X13386564Y-13930785D02*
X13386564Y-13987928D01*
X13386564Y-13987928D02*
X13377040Y-14006975D01*
X13377040Y-14006975D02*
X13367517Y-14016499D01*
X13367517Y-14016499D02*
X13348469Y-14026023D01*
X13348469Y-14026023D02*
X13319898Y-14026023D01*
X13500850Y-14026023D02*
X13481802Y-14016499D01*
X13481802Y-14016499D02*
X13472279Y-13997451D01*
X13472279Y-13997451D02*
X13472279Y-13826023D01*
X13653231Y-14016499D02*
X13634183Y-14026023D01*
X13634183Y-14026023D02*
X13596088Y-14026023D01*
X13596088Y-14026023D02*
X13577040Y-14016499D01*
X13577040Y-14016499D02*
X13567517Y-13997451D01*
X13567517Y-13997451D02*
X13567517Y-13921261D01*
X13567517Y-13921261D02*
X13577040Y-13902213D01*
X13577040Y-13902213D02*
X13596088Y-13892689D01*
X13596088Y-13892689D02*
X13634183Y-13892689D01*
X13634183Y-13892689D02*
X13653231Y-13902213D01*
X13653231Y-13902213D02*
X13662755Y-13921261D01*
X13662755Y-13921261D02*
X13662755Y-13940309D01*
X13662755Y-13940309D02*
X13567517Y-13959356D01*
X13738945Y-14016499D02*
X13757993Y-14026023D01*
X13757993Y-14026023D02*
X13796088Y-14026023D01*
X13796088Y-14026023D02*
X13815136Y-14016499D01*
X13815136Y-14016499D02*
X13824660Y-13997451D01*
X13824660Y-13997451D02*
X13824660Y-13987928D01*
X13824660Y-13987928D02*
X13815136Y-13968880D01*
X13815136Y-13968880D02*
X13796088Y-13959356D01*
X13796088Y-13959356D02*
X13767517Y-13959356D01*
X13767517Y-13959356D02*
X13748469Y-13949832D01*
X13748469Y-13949832D02*
X13738945Y-13930785D01*
X13738945Y-13930785D02*
X13738945Y-13921261D01*
X13738945Y-13921261D02*
X13748469Y-13902213D01*
X13748469Y-13902213D02*
X13767517Y-13892689D01*
X13767517Y-13892689D02*
X13796088Y-13892689D01*
X13796088Y-13892689D02*
X13815136Y-13902213D01*
X13891326Y-14102213D02*
X13900850Y-14092689D01*
X13900850Y-14092689D02*
X13919898Y-14064118D01*
X13919898Y-14064118D02*
X13929421Y-14045070D01*
X13929421Y-14045070D02*
X13938945Y-14016499D01*
X13938945Y-14016499D02*
X13948469Y-13968880D01*
X13948469Y-13968880D02*
X13948469Y-13930785D01*
X13948469Y-13930785D02*
X13938945Y-13883166D01*
X13938945Y-13883166D02*
X13929421Y-13854594D01*
X13929421Y-13854594D02*
X13919898Y-13835547D01*
X13919898Y-13835547D02*
X13900850Y-13806975D01*
X13900850Y-13806975D02*
X13891326Y-13797451D01*
D12*
X8875787Y-14248539D02*
X8925787Y-14198539D01*
X8875787Y-14148539D01*
X8825787Y-14198539D01*
X8875787Y-14248539D01*
D11*
X9291326Y-14290023D02*
X9177040Y-14290023D01*
X9234183Y-14290023D02*
X9234183Y-14090023D01*
X9234183Y-14090023D02*
X9215135Y-14118594D01*
X9215135Y-14118594D02*
X9196088Y-14137642D01*
X9196088Y-14137642D02*
X9177040Y-14147166D01*
X9377040Y-14270975D02*
X9386564Y-14280499D01*
X9386564Y-14280499D02*
X9377040Y-14290023D01*
X9377040Y-14290023D02*
X9367516Y-14280499D01*
X9367516Y-14280499D02*
X9377040Y-14270975D01*
X9377040Y-14270975D02*
X9377040Y-14290023D01*
X9510373Y-14090023D02*
X9529421Y-14090023D01*
X9529421Y-14090023D02*
X9548469Y-14099547D01*
X9548469Y-14099547D02*
X9557993Y-14109070D01*
X9557993Y-14109070D02*
X9567516Y-14128118D01*
X9567516Y-14128118D02*
X9577040Y-14166213D01*
X9577040Y-14166213D02*
X9577040Y-14213832D01*
X9577040Y-14213832D02*
X9567516Y-14251928D01*
X9567516Y-14251928D02*
X9557993Y-14270975D01*
X9557993Y-14270975D02*
X9548469Y-14280499D01*
X9548469Y-14280499D02*
X9529421Y-14290023D01*
X9529421Y-14290023D02*
X9510373Y-14290023D01*
X9510373Y-14290023D02*
X9491326Y-14280499D01*
X9491326Y-14280499D02*
X9481802Y-14270975D01*
X9481802Y-14270975D02*
X9472278Y-14251928D01*
X9472278Y-14251928D02*
X9462754Y-14213832D01*
X9462754Y-14213832D02*
X9462754Y-14166213D01*
X9462754Y-14166213D02*
X9472278Y-14128118D01*
X9472278Y-14128118D02*
X9481802Y-14109070D01*
X9481802Y-14109070D02*
X9491326Y-14099547D01*
X9491326Y-14099547D02*
X9510373Y-14090023D01*
X9700850Y-14090023D02*
X9719897Y-14090023D01*
X9719897Y-14090023D02*
X9738945Y-14099547D01*
X9738945Y-14099547D02*
X9748469Y-14109070D01*
X9748469Y-14109070D02*
X9757993Y-14128118D01*
X9757993Y-14128118D02*
X9767516Y-14166213D01*
X9767516Y-14166213D02*
X9767516Y-14213832D01*
X9767516Y-14213832D02*
X9757993Y-14251928D01*
X9757993Y-14251928D02*
X9748469Y-14270975D01*
X9748469Y-14270975D02*
X9738945Y-14280499D01*
X9738945Y-14280499D02*
X9719897Y-14290023D01*
X9719897Y-14290023D02*
X9700850Y-14290023D01*
X9700850Y-14290023D02*
X9681802Y-14280499D01*
X9681802Y-14280499D02*
X9672278Y-14270975D01*
X9672278Y-14270975D02*
X9662754Y-14251928D01*
X9662754Y-14251928D02*
X9653231Y-14213832D01*
X9653231Y-14213832D02*
X9653231Y-14166213D01*
X9653231Y-14166213D02*
X9662754Y-14128118D01*
X9662754Y-14128118D02*
X9672278Y-14109070D01*
X9672278Y-14109070D02*
X9681802Y-14099547D01*
X9681802Y-14099547D02*
X9700850Y-14090023D01*
X9891326Y-14090023D02*
X9910374Y-14090023D01*
X9910374Y-14090023D02*
X9929421Y-14099547D01*
X9929421Y-14099547D02*
X9938945Y-14109070D01*
X9938945Y-14109070D02*
X9948469Y-14128118D01*
X9948469Y-14128118D02*
X9957993Y-14166213D01*
X9957993Y-14166213D02*
X9957993Y-14213832D01*
X9957993Y-14213832D02*
X9948469Y-14251928D01*
X9948469Y-14251928D02*
X9938945Y-14270975D01*
X9938945Y-14270975D02*
X9929421Y-14280499D01*
X9929421Y-14280499D02*
X9910374Y-14290023D01*
X9910374Y-14290023D02*
X9891326Y-14290023D01*
X9891326Y-14290023D02*
X9872278Y-14280499D01*
X9872278Y-14280499D02*
X9862754Y-14270975D01*
X9862754Y-14270975D02*
X9853231Y-14251928D01*
X9853231Y-14251928D02*
X9843707Y-14213832D01*
X9843707Y-14213832D02*
X9843707Y-14166213D01*
X9843707Y-14166213D02*
X9853231Y-14128118D01*
X9853231Y-14128118D02*
X9862754Y-14109070D01*
X9862754Y-14109070D02*
X9872278Y-14099547D01*
X9872278Y-14099547D02*
X9891326Y-14090023D01*
X10043707Y-14290023D02*
X10043707Y-14156689D01*
X10043707Y-14175737D02*
X10053231Y-14166213D01*
X10053231Y-14166213D02*
X10072278Y-14156689D01*
X10072278Y-14156689D02*
X10100850Y-14156689D01*
X10100850Y-14156689D02*
X10119897Y-14166213D01*
X10119897Y-14166213D02*
X10129421Y-14185261D01*
X10129421Y-14185261D02*
X10129421Y-14290023D01*
X10129421Y-14185261D02*
X10138945Y-14166213D01*
X10138945Y-14166213D02*
X10157993Y-14156689D01*
X10157993Y-14156689D02*
X10186564Y-14156689D01*
X10186564Y-14156689D02*
X10205612Y-14166213D01*
X10205612Y-14166213D02*
X10215135Y-14185261D01*
X10215135Y-14185261D02*
X10215135Y-14290023D01*
X10310374Y-14290023D02*
X10310374Y-14156689D01*
X10310374Y-14175737D02*
X10319897Y-14166213D01*
X10319897Y-14166213D02*
X10338945Y-14156689D01*
X10338945Y-14156689D02*
X10367516Y-14156689D01*
X10367516Y-14156689D02*
X10386564Y-14166213D01*
X10386564Y-14166213D02*
X10396088Y-14185261D01*
X10396088Y-14185261D02*
X10396088Y-14290023D01*
X10396088Y-14185261D02*
X10405612Y-14166213D01*
X10405612Y-14166213D02*
X10424659Y-14156689D01*
X10424659Y-14156689D02*
X10453231Y-14156689D01*
X10453231Y-14156689D02*
X10472278Y-14166213D01*
X10472278Y-14166213D02*
X10481802Y-14185261D01*
X10481802Y-14185261D02*
X10481802Y-14290023D01*
X10872278Y-14080499D02*
X10700850Y-14337642D01*
X11129421Y-14090023D02*
X11148469Y-14090023D01*
X11148469Y-14090023D02*
X11167517Y-14099547D01*
X11167517Y-14099547D02*
X11177040Y-14109070D01*
X11177040Y-14109070D02*
X11186564Y-14128118D01*
X11186564Y-14128118D02*
X11196088Y-14166213D01*
X11196088Y-14166213D02*
X11196088Y-14213832D01*
X11196088Y-14213832D02*
X11186564Y-14251928D01*
X11186564Y-14251928D02*
X11177040Y-14270975D01*
X11177040Y-14270975D02*
X11167517Y-14280499D01*
X11167517Y-14280499D02*
X11148469Y-14290023D01*
X11148469Y-14290023D02*
X11129421Y-14290023D01*
X11129421Y-14290023D02*
X11110374Y-14280499D01*
X11110374Y-14280499D02*
X11100850Y-14270975D01*
X11100850Y-14270975D02*
X11091326Y-14251928D01*
X11091326Y-14251928D02*
X11081802Y-14213832D01*
X11081802Y-14213832D02*
X11081802Y-14166213D01*
X11081802Y-14166213D02*
X11091326Y-14128118D01*
X11091326Y-14128118D02*
X11100850Y-14109070D01*
X11100850Y-14109070D02*
X11110374Y-14099547D01*
X11110374Y-14099547D02*
X11129421Y-14090023D01*
X11281802Y-14270975D02*
X11291326Y-14280499D01*
X11291326Y-14280499D02*
X11281802Y-14290023D01*
X11281802Y-14290023D02*
X11272278Y-14280499D01*
X11272278Y-14280499D02*
X11281802Y-14270975D01*
X11281802Y-14270975D02*
X11281802Y-14290023D01*
X11415135Y-14090023D02*
X11434183Y-14090023D01*
X11434183Y-14090023D02*
X11453231Y-14099547D01*
X11453231Y-14099547D02*
X11462755Y-14109070D01*
X11462755Y-14109070D02*
X11472278Y-14128118D01*
X11472278Y-14128118D02*
X11481802Y-14166213D01*
X11481802Y-14166213D02*
X11481802Y-14213832D01*
X11481802Y-14213832D02*
X11472278Y-14251928D01*
X11472278Y-14251928D02*
X11462755Y-14270975D01*
X11462755Y-14270975D02*
X11453231Y-14280499D01*
X11453231Y-14280499D02*
X11434183Y-14290023D01*
X11434183Y-14290023D02*
X11415135Y-14290023D01*
X11415135Y-14290023D02*
X11396088Y-14280499D01*
X11396088Y-14280499D02*
X11386564Y-14270975D01*
X11386564Y-14270975D02*
X11377040Y-14251928D01*
X11377040Y-14251928D02*
X11367516Y-14213832D01*
X11367516Y-14213832D02*
X11367516Y-14166213D01*
X11367516Y-14166213D02*
X11377040Y-14128118D01*
X11377040Y-14128118D02*
X11386564Y-14109070D01*
X11386564Y-14109070D02*
X11396088Y-14099547D01*
X11396088Y-14099547D02*
X11415135Y-14090023D01*
X11548469Y-14090023D02*
X11672278Y-14090023D01*
X11672278Y-14090023D02*
X11605612Y-14166213D01*
X11605612Y-14166213D02*
X11634183Y-14166213D01*
X11634183Y-14166213D02*
X11653231Y-14175737D01*
X11653231Y-14175737D02*
X11662755Y-14185261D01*
X11662755Y-14185261D02*
X11672278Y-14204309D01*
X11672278Y-14204309D02*
X11672278Y-14251928D01*
X11672278Y-14251928D02*
X11662755Y-14270975D01*
X11662755Y-14270975D02*
X11653231Y-14280499D01*
X11653231Y-14280499D02*
X11634183Y-14290023D01*
X11634183Y-14290023D02*
X11577040Y-14290023D01*
X11577040Y-14290023D02*
X11557993Y-14280499D01*
X11557993Y-14280499D02*
X11548469Y-14270975D01*
X11767516Y-14290023D02*
X11805612Y-14290023D01*
X11805612Y-14290023D02*
X11824659Y-14280499D01*
X11824659Y-14280499D02*
X11834183Y-14270975D01*
X11834183Y-14270975D02*
X11853231Y-14242404D01*
X11853231Y-14242404D02*
X11862755Y-14204309D01*
X11862755Y-14204309D02*
X11862755Y-14128118D01*
X11862755Y-14128118D02*
X11853231Y-14109070D01*
X11853231Y-14109070D02*
X11843707Y-14099547D01*
X11843707Y-14099547D02*
X11824659Y-14090023D01*
X11824659Y-14090023D02*
X11786564Y-14090023D01*
X11786564Y-14090023D02*
X11767516Y-14099547D01*
X11767516Y-14099547D02*
X11757993Y-14109070D01*
X11757993Y-14109070D02*
X11748469Y-14128118D01*
X11748469Y-14128118D02*
X11748469Y-14175737D01*
X11748469Y-14175737D02*
X11757993Y-14194785D01*
X11757993Y-14194785D02*
X11767516Y-14204309D01*
X11767516Y-14204309D02*
X11786564Y-14213832D01*
X11786564Y-14213832D02*
X11824659Y-14213832D01*
X11824659Y-14213832D02*
X11843707Y-14204309D01*
X11843707Y-14204309D02*
X11853231Y-14194785D01*
X11853231Y-14194785D02*
X11862755Y-14175737D01*
X12034183Y-14156689D02*
X12034183Y-14290023D01*
X11986564Y-14080499D02*
X11938945Y-14223356D01*
X11938945Y-14223356D02*
X12062755Y-14223356D01*
X12129421Y-14090023D02*
X12129421Y-14128118D01*
X12205612Y-14090023D02*
X12205612Y-14128118D01*
X12500850Y-14366213D02*
X12491326Y-14356689D01*
X12491326Y-14356689D02*
X12472278Y-14328118D01*
X12472278Y-14328118D02*
X12462755Y-14309070D01*
X12462755Y-14309070D02*
X12453231Y-14280499D01*
X12453231Y-14280499D02*
X12443707Y-14232880D01*
X12443707Y-14232880D02*
X12443707Y-14194785D01*
X12443707Y-14194785D02*
X12453231Y-14147166D01*
X12453231Y-14147166D02*
X12462755Y-14118594D01*
X12462755Y-14118594D02*
X12472278Y-14099547D01*
X12472278Y-14099547D02*
X12491326Y-14070975D01*
X12491326Y-14070975D02*
X12500850Y-14061451D01*
X12681802Y-14290023D02*
X12567517Y-14290023D01*
X12624659Y-14290023D02*
X12624659Y-14090023D01*
X12624659Y-14090023D02*
X12605612Y-14118594D01*
X12605612Y-14118594D02*
X12586564Y-14137642D01*
X12586564Y-14137642D02*
X12567517Y-14147166D01*
X12862755Y-14090023D02*
X12767517Y-14090023D01*
X12767517Y-14090023D02*
X12757993Y-14185261D01*
X12757993Y-14185261D02*
X12767517Y-14175737D01*
X12767517Y-14175737D02*
X12786564Y-14166213D01*
X12786564Y-14166213D02*
X12834183Y-14166213D01*
X12834183Y-14166213D02*
X12853231Y-14175737D01*
X12853231Y-14175737D02*
X12862755Y-14185261D01*
X12862755Y-14185261D02*
X12872278Y-14204309D01*
X12872278Y-14204309D02*
X12872278Y-14251928D01*
X12872278Y-14251928D02*
X12862755Y-14270975D01*
X12862755Y-14270975D02*
X12853231Y-14280499D01*
X12853231Y-14280499D02*
X12834183Y-14290023D01*
X12834183Y-14290023D02*
X12786564Y-14290023D01*
X12786564Y-14290023D02*
X12767517Y-14280499D01*
X12767517Y-14280499D02*
X12757993Y-14270975D01*
X13110374Y-14290023D02*
X13110374Y-14090023D01*
X13196088Y-14290023D02*
X13196088Y-14185261D01*
X13196088Y-14185261D02*
X13186564Y-14166213D01*
X13186564Y-14166213D02*
X13167517Y-14156689D01*
X13167517Y-14156689D02*
X13138945Y-14156689D01*
X13138945Y-14156689D02*
X13119898Y-14166213D01*
X13119898Y-14166213D02*
X13110374Y-14175737D01*
X13319898Y-14290023D02*
X13300850Y-14280499D01*
X13300850Y-14280499D02*
X13291326Y-14270975D01*
X13291326Y-14270975D02*
X13281802Y-14251928D01*
X13281802Y-14251928D02*
X13281802Y-14194785D01*
X13281802Y-14194785D02*
X13291326Y-14175737D01*
X13291326Y-14175737D02*
X13300850Y-14166213D01*
X13300850Y-14166213D02*
X13319898Y-14156689D01*
X13319898Y-14156689D02*
X13348469Y-14156689D01*
X13348469Y-14156689D02*
X13367517Y-14166213D01*
X13367517Y-14166213D02*
X13377040Y-14175737D01*
X13377040Y-14175737D02*
X13386564Y-14194785D01*
X13386564Y-14194785D02*
X13386564Y-14251928D01*
X13386564Y-14251928D02*
X13377040Y-14270975D01*
X13377040Y-14270975D02*
X13367517Y-14280499D01*
X13367517Y-14280499D02*
X13348469Y-14290023D01*
X13348469Y-14290023D02*
X13319898Y-14290023D01*
X13500850Y-14290023D02*
X13481802Y-14280499D01*
X13481802Y-14280499D02*
X13472279Y-14261451D01*
X13472279Y-14261451D02*
X13472279Y-14090023D01*
X13653231Y-14280499D02*
X13634183Y-14290023D01*
X13634183Y-14290023D02*
X13596088Y-14290023D01*
X13596088Y-14290023D02*
X13577040Y-14280499D01*
X13577040Y-14280499D02*
X13567517Y-14261451D01*
X13567517Y-14261451D02*
X13567517Y-14185261D01*
X13567517Y-14185261D02*
X13577040Y-14166213D01*
X13577040Y-14166213D02*
X13596088Y-14156689D01*
X13596088Y-14156689D02*
X13634183Y-14156689D01*
X13634183Y-14156689D02*
X13653231Y-14166213D01*
X13653231Y-14166213D02*
X13662755Y-14185261D01*
X13662755Y-14185261D02*
X13662755Y-14204309D01*
X13662755Y-14204309D02*
X13567517Y-14223356D01*
X13738945Y-14280499D02*
X13757993Y-14290023D01*
X13757993Y-14290023D02*
X13796088Y-14290023D01*
X13796088Y-14290023D02*
X13815136Y-14280499D01*
X13815136Y-14280499D02*
X13824660Y-14261451D01*
X13824660Y-14261451D02*
X13824660Y-14251928D01*
X13824660Y-14251928D02*
X13815136Y-14232880D01*
X13815136Y-14232880D02*
X13796088Y-14223356D01*
X13796088Y-14223356D02*
X13767517Y-14223356D01*
X13767517Y-14223356D02*
X13748469Y-14213832D01*
X13748469Y-14213832D02*
X13738945Y-14194785D01*
X13738945Y-14194785D02*
X13738945Y-14185261D01*
X13738945Y-14185261D02*
X13748469Y-14166213D01*
X13748469Y-14166213D02*
X13767517Y-14156689D01*
X13767517Y-14156689D02*
X13796088Y-14156689D01*
X13796088Y-14156689D02*
X13815136Y-14166213D01*
X13891326Y-14366213D02*
X13900850Y-14356689D01*
X13900850Y-14356689D02*
X13919898Y-14328118D01*
X13919898Y-14328118D02*
X13929421Y-14309070D01*
X13929421Y-14309070D02*
X13938945Y-14280499D01*
X13938945Y-14280499D02*
X13948469Y-14232880D01*
X13948469Y-14232880D02*
X13948469Y-14194785D01*
X13948469Y-14194785D02*
X13938945Y-14147166D01*
X13938945Y-14147166D02*
X13929421Y-14118594D01*
X13929421Y-14118594D02*
X13919898Y-14099547D01*
X13919898Y-14099547D02*
X13900850Y-14070975D01*
X13900850Y-14070975D02*
X13891326Y-14061451D01*
D13*
X8795787Y-14397539D02*
X8925787Y-14527539D01*
X8925787Y-14397539D02*
X8795787Y-14527539D01*
X8925787Y-14462539D02*
G75*
G02*
X8795787Y-14462539I-65000J0D01*
G01*
X8795787Y-14462539D02*
G75*
G02*
X8925787Y-14462539I65000J0D01*
G01*
D11*
X9291326Y-14554023D02*
X9177040Y-14554023D01*
X9234183Y-14554023D02*
X9234183Y-14354023D01*
X9234183Y-14354023D02*
X9215135Y-14382594D01*
X9215135Y-14382594D02*
X9196088Y-14401642D01*
X9196088Y-14401642D02*
X9177040Y-14411166D01*
X9377040Y-14534975D02*
X9386564Y-14544499D01*
X9386564Y-14544499D02*
X9377040Y-14554023D01*
X9377040Y-14554023D02*
X9367516Y-14544499D01*
X9367516Y-14544499D02*
X9377040Y-14534975D01*
X9377040Y-14534975D02*
X9377040Y-14554023D01*
X9453231Y-14354023D02*
X9577040Y-14354023D01*
X9577040Y-14354023D02*
X9510373Y-14430213D01*
X9510373Y-14430213D02*
X9538945Y-14430213D01*
X9538945Y-14430213D02*
X9557993Y-14439737D01*
X9557993Y-14439737D02*
X9567516Y-14449261D01*
X9567516Y-14449261D02*
X9577040Y-14468309D01*
X9577040Y-14468309D02*
X9577040Y-14515928D01*
X9577040Y-14515928D02*
X9567516Y-14534975D01*
X9567516Y-14534975D02*
X9557993Y-14544499D01*
X9557993Y-14544499D02*
X9538945Y-14554023D01*
X9538945Y-14554023D02*
X9481802Y-14554023D01*
X9481802Y-14554023D02*
X9462754Y-14544499D01*
X9462754Y-14544499D02*
X9453231Y-14534975D01*
X9700850Y-14354023D02*
X9719897Y-14354023D01*
X9719897Y-14354023D02*
X9738945Y-14363547D01*
X9738945Y-14363547D02*
X9748469Y-14373070D01*
X9748469Y-14373070D02*
X9757993Y-14392118D01*
X9757993Y-14392118D02*
X9767516Y-14430213D01*
X9767516Y-14430213D02*
X9767516Y-14477832D01*
X9767516Y-14477832D02*
X9757993Y-14515928D01*
X9757993Y-14515928D02*
X9748469Y-14534975D01*
X9748469Y-14534975D02*
X9738945Y-14544499D01*
X9738945Y-14544499D02*
X9719897Y-14554023D01*
X9719897Y-14554023D02*
X9700850Y-14554023D01*
X9700850Y-14554023D02*
X9681802Y-14544499D01*
X9681802Y-14544499D02*
X9672278Y-14534975D01*
X9672278Y-14534975D02*
X9662754Y-14515928D01*
X9662754Y-14515928D02*
X9653231Y-14477832D01*
X9653231Y-14477832D02*
X9653231Y-14430213D01*
X9653231Y-14430213D02*
X9662754Y-14392118D01*
X9662754Y-14392118D02*
X9672278Y-14373070D01*
X9672278Y-14373070D02*
X9681802Y-14363547D01*
X9681802Y-14363547D02*
X9700850Y-14354023D01*
X9891326Y-14354023D02*
X9910374Y-14354023D01*
X9910374Y-14354023D02*
X9929421Y-14363547D01*
X9929421Y-14363547D02*
X9938945Y-14373070D01*
X9938945Y-14373070D02*
X9948469Y-14392118D01*
X9948469Y-14392118D02*
X9957993Y-14430213D01*
X9957993Y-14430213D02*
X9957993Y-14477832D01*
X9957993Y-14477832D02*
X9948469Y-14515928D01*
X9948469Y-14515928D02*
X9938945Y-14534975D01*
X9938945Y-14534975D02*
X9929421Y-14544499D01*
X9929421Y-14544499D02*
X9910374Y-14554023D01*
X9910374Y-14554023D02*
X9891326Y-14554023D01*
X9891326Y-14554023D02*
X9872278Y-14544499D01*
X9872278Y-14544499D02*
X9862754Y-14534975D01*
X9862754Y-14534975D02*
X9853231Y-14515928D01*
X9853231Y-14515928D02*
X9843707Y-14477832D01*
X9843707Y-14477832D02*
X9843707Y-14430213D01*
X9843707Y-14430213D02*
X9853231Y-14392118D01*
X9853231Y-14392118D02*
X9862754Y-14373070D01*
X9862754Y-14373070D02*
X9872278Y-14363547D01*
X9872278Y-14363547D02*
X9891326Y-14354023D01*
X10043707Y-14554023D02*
X10043707Y-14420689D01*
X10043707Y-14439737D02*
X10053231Y-14430213D01*
X10053231Y-14430213D02*
X10072278Y-14420689D01*
X10072278Y-14420689D02*
X10100850Y-14420689D01*
X10100850Y-14420689D02*
X10119897Y-14430213D01*
X10119897Y-14430213D02*
X10129421Y-14449261D01*
X10129421Y-14449261D02*
X10129421Y-14554023D01*
X10129421Y-14449261D02*
X10138945Y-14430213D01*
X10138945Y-14430213D02*
X10157993Y-14420689D01*
X10157993Y-14420689D02*
X10186564Y-14420689D01*
X10186564Y-14420689D02*
X10205612Y-14430213D01*
X10205612Y-14430213D02*
X10215135Y-14449261D01*
X10215135Y-14449261D02*
X10215135Y-14554023D01*
X10310374Y-14554023D02*
X10310374Y-14420689D01*
X10310374Y-14439737D02*
X10319897Y-14430213D01*
X10319897Y-14430213D02*
X10338945Y-14420689D01*
X10338945Y-14420689D02*
X10367516Y-14420689D01*
X10367516Y-14420689D02*
X10386564Y-14430213D01*
X10386564Y-14430213D02*
X10396088Y-14449261D01*
X10396088Y-14449261D02*
X10396088Y-14554023D01*
X10396088Y-14449261D02*
X10405612Y-14430213D01*
X10405612Y-14430213D02*
X10424659Y-14420689D01*
X10424659Y-14420689D02*
X10453231Y-14420689D01*
X10453231Y-14420689D02*
X10472278Y-14430213D01*
X10472278Y-14430213D02*
X10481802Y-14449261D01*
X10481802Y-14449261D02*
X10481802Y-14554023D01*
X10872278Y-14344499D02*
X10700850Y-14601642D01*
X11129421Y-14354023D02*
X11148469Y-14354023D01*
X11148469Y-14354023D02*
X11167517Y-14363547D01*
X11167517Y-14363547D02*
X11177040Y-14373070D01*
X11177040Y-14373070D02*
X11186564Y-14392118D01*
X11186564Y-14392118D02*
X11196088Y-14430213D01*
X11196088Y-14430213D02*
X11196088Y-14477832D01*
X11196088Y-14477832D02*
X11186564Y-14515928D01*
X11186564Y-14515928D02*
X11177040Y-14534975D01*
X11177040Y-14534975D02*
X11167517Y-14544499D01*
X11167517Y-14544499D02*
X11148469Y-14554023D01*
X11148469Y-14554023D02*
X11129421Y-14554023D01*
X11129421Y-14554023D02*
X11110374Y-14544499D01*
X11110374Y-14544499D02*
X11100850Y-14534975D01*
X11100850Y-14534975D02*
X11091326Y-14515928D01*
X11091326Y-14515928D02*
X11081802Y-14477832D01*
X11081802Y-14477832D02*
X11081802Y-14430213D01*
X11081802Y-14430213D02*
X11091326Y-14392118D01*
X11091326Y-14392118D02*
X11100850Y-14373070D01*
X11100850Y-14373070D02*
X11110374Y-14363547D01*
X11110374Y-14363547D02*
X11129421Y-14354023D01*
X11281802Y-14534975D02*
X11291326Y-14544499D01*
X11291326Y-14544499D02*
X11281802Y-14554023D01*
X11281802Y-14554023D02*
X11272278Y-14544499D01*
X11272278Y-14544499D02*
X11281802Y-14534975D01*
X11281802Y-14534975D02*
X11281802Y-14554023D01*
X11415135Y-14354023D02*
X11434183Y-14354023D01*
X11434183Y-14354023D02*
X11453231Y-14363547D01*
X11453231Y-14363547D02*
X11462755Y-14373070D01*
X11462755Y-14373070D02*
X11472278Y-14392118D01*
X11472278Y-14392118D02*
X11481802Y-14430213D01*
X11481802Y-14430213D02*
X11481802Y-14477832D01*
X11481802Y-14477832D02*
X11472278Y-14515928D01*
X11472278Y-14515928D02*
X11462755Y-14534975D01*
X11462755Y-14534975D02*
X11453231Y-14544499D01*
X11453231Y-14544499D02*
X11434183Y-14554023D01*
X11434183Y-14554023D02*
X11415135Y-14554023D01*
X11415135Y-14554023D02*
X11396088Y-14544499D01*
X11396088Y-14544499D02*
X11386564Y-14534975D01*
X11386564Y-14534975D02*
X11377040Y-14515928D01*
X11377040Y-14515928D02*
X11367516Y-14477832D01*
X11367516Y-14477832D02*
X11367516Y-14430213D01*
X11367516Y-14430213D02*
X11377040Y-14392118D01*
X11377040Y-14392118D02*
X11386564Y-14373070D01*
X11386564Y-14373070D02*
X11396088Y-14363547D01*
X11396088Y-14363547D02*
X11415135Y-14354023D01*
X11662755Y-14354023D02*
X11567516Y-14354023D01*
X11567516Y-14354023D02*
X11557993Y-14449261D01*
X11557993Y-14449261D02*
X11567516Y-14439737D01*
X11567516Y-14439737D02*
X11586564Y-14430213D01*
X11586564Y-14430213D02*
X11634183Y-14430213D01*
X11634183Y-14430213D02*
X11653231Y-14439737D01*
X11653231Y-14439737D02*
X11662755Y-14449261D01*
X11662755Y-14449261D02*
X11672278Y-14468309D01*
X11672278Y-14468309D02*
X11672278Y-14515928D01*
X11672278Y-14515928D02*
X11662755Y-14534975D01*
X11662755Y-14534975D02*
X11653231Y-14544499D01*
X11653231Y-14544499D02*
X11634183Y-14554023D01*
X11634183Y-14554023D02*
X11586564Y-14554023D01*
X11586564Y-14554023D02*
X11567516Y-14544499D01*
X11567516Y-14544499D02*
X11557993Y-14534975D01*
X11862755Y-14554023D02*
X11748469Y-14554023D01*
X11805612Y-14554023D02*
X11805612Y-14354023D01*
X11805612Y-14354023D02*
X11786564Y-14382594D01*
X11786564Y-14382594D02*
X11767516Y-14401642D01*
X11767516Y-14401642D02*
X11748469Y-14411166D01*
X11938945Y-14373070D02*
X11948469Y-14363547D01*
X11948469Y-14363547D02*
X11967516Y-14354023D01*
X11967516Y-14354023D02*
X12015136Y-14354023D01*
X12015136Y-14354023D02*
X12034183Y-14363547D01*
X12034183Y-14363547D02*
X12043707Y-14373070D01*
X12043707Y-14373070D02*
X12053231Y-14392118D01*
X12053231Y-14392118D02*
X12053231Y-14411166D01*
X12053231Y-14411166D02*
X12043707Y-14439737D01*
X12043707Y-14439737D02*
X11929421Y-14554023D01*
X11929421Y-14554023D02*
X12053231Y-14554023D01*
X12129421Y-14354023D02*
X12129421Y-14392118D01*
X12205612Y-14354023D02*
X12205612Y-14392118D01*
X12500850Y-14630213D02*
X12491326Y-14620689D01*
X12491326Y-14620689D02*
X12472278Y-14592118D01*
X12472278Y-14592118D02*
X12462755Y-14573070D01*
X12462755Y-14573070D02*
X12453231Y-14544499D01*
X12453231Y-14544499D02*
X12443707Y-14496880D01*
X12443707Y-14496880D02*
X12443707Y-14458785D01*
X12443707Y-14458785D02*
X12453231Y-14411166D01*
X12453231Y-14411166D02*
X12462755Y-14382594D01*
X12462755Y-14382594D02*
X12472278Y-14363547D01*
X12472278Y-14363547D02*
X12491326Y-14334975D01*
X12491326Y-14334975D02*
X12500850Y-14325451D01*
X12681802Y-14554023D02*
X12567517Y-14554023D01*
X12624659Y-14554023D02*
X12624659Y-14354023D01*
X12624659Y-14354023D02*
X12605612Y-14382594D01*
X12605612Y-14382594D02*
X12586564Y-14401642D01*
X12586564Y-14401642D02*
X12567517Y-14411166D01*
X12757993Y-14373070D02*
X12767517Y-14363547D01*
X12767517Y-14363547D02*
X12786564Y-14354023D01*
X12786564Y-14354023D02*
X12834183Y-14354023D01*
X12834183Y-14354023D02*
X12853231Y-14363547D01*
X12853231Y-14363547D02*
X12862755Y-14373070D01*
X12862755Y-14373070D02*
X12872278Y-14392118D01*
X12872278Y-14392118D02*
X12872278Y-14411166D01*
X12872278Y-14411166D02*
X12862755Y-14439737D01*
X12862755Y-14439737D02*
X12748469Y-14554023D01*
X12748469Y-14554023D02*
X12872278Y-14554023D01*
X13110374Y-14554023D02*
X13110374Y-14354023D01*
X13196088Y-14554023D02*
X13196088Y-14449261D01*
X13196088Y-14449261D02*
X13186564Y-14430213D01*
X13186564Y-14430213D02*
X13167517Y-14420689D01*
X13167517Y-14420689D02*
X13138945Y-14420689D01*
X13138945Y-14420689D02*
X13119898Y-14430213D01*
X13119898Y-14430213D02*
X13110374Y-14439737D01*
X13319898Y-14554023D02*
X13300850Y-14544499D01*
X13300850Y-14544499D02*
X13291326Y-14534975D01*
X13291326Y-14534975D02*
X13281802Y-14515928D01*
X13281802Y-14515928D02*
X13281802Y-14458785D01*
X13281802Y-14458785D02*
X13291326Y-14439737D01*
X13291326Y-14439737D02*
X13300850Y-14430213D01*
X13300850Y-14430213D02*
X13319898Y-14420689D01*
X13319898Y-14420689D02*
X13348469Y-14420689D01*
X13348469Y-14420689D02*
X13367517Y-14430213D01*
X13367517Y-14430213D02*
X13377040Y-14439737D01*
X13377040Y-14439737D02*
X13386564Y-14458785D01*
X13386564Y-14458785D02*
X13386564Y-14515928D01*
X13386564Y-14515928D02*
X13377040Y-14534975D01*
X13377040Y-14534975D02*
X13367517Y-14544499D01*
X13367517Y-14544499D02*
X13348469Y-14554023D01*
X13348469Y-14554023D02*
X13319898Y-14554023D01*
X13500850Y-14554023D02*
X13481802Y-14544499D01*
X13481802Y-14544499D02*
X13472279Y-14525451D01*
X13472279Y-14525451D02*
X13472279Y-14354023D01*
X13653231Y-14544499D02*
X13634183Y-14554023D01*
X13634183Y-14554023D02*
X13596088Y-14554023D01*
X13596088Y-14554023D02*
X13577040Y-14544499D01*
X13577040Y-14544499D02*
X13567517Y-14525451D01*
X13567517Y-14525451D02*
X13567517Y-14449261D01*
X13567517Y-14449261D02*
X13577040Y-14430213D01*
X13577040Y-14430213D02*
X13596088Y-14420689D01*
X13596088Y-14420689D02*
X13634183Y-14420689D01*
X13634183Y-14420689D02*
X13653231Y-14430213D01*
X13653231Y-14430213D02*
X13662755Y-14449261D01*
X13662755Y-14449261D02*
X13662755Y-14468309D01*
X13662755Y-14468309D02*
X13567517Y-14487356D01*
X13738945Y-14544499D02*
X13757993Y-14554023D01*
X13757993Y-14554023D02*
X13796088Y-14554023D01*
X13796088Y-14554023D02*
X13815136Y-14544499D01*
X13815136Y-14544499D02*
X13824660Y-14525451D01*
X13824660Y-14525451D02*
X13824660Y-14515928D01*
X13824660Y-14515928D02*
X13815136Y-14496880D01*
X13815136Y-14496880D02*
X13796088Y-14487356D01*
X13796088Y-14487356D02*
X13767517Y-14487356D01*
X13767517Y-14487356D02*
X13748469Y-14477832D01*
X13748469Y-14477832D02*
X13738945Y-14458785D01*
X13738945Y-14458785D02*
X13738945Y-14449261D01*
X13738945Y-14449261D02*
X13748469Y-14430213D01*
X13748469Y-14430213D02*
X13767517Y-14420689D01*
X13767517Y-14420689D02*
X13796088Y-14420689D01*
X13796088Y-14420689D02*
X13815136Y-14430213D01*
X13891326Y-14630213D02*
X13900850Y-14620689D01*
X13900850Y-14620689D02*
X13919898Y-14592118D01*
X13919898Y-14592118D02*
X13929421Y-14573070D01*
X13929421Y-14573070D02*
X13938945Y-14544499D01*
X13938945Y-14544499D02*
X13948469Y-14496880D01*
X13948469Y-14496880D02*
X13948469Y-14458785D01*
X13948469Y-14458785D02*
X13938945Y-14411166D01*
X13938945Y-14411166D02*
X13929421Y-14382594D01*
X13929421Y-14382594D02*
X13919898Y-14363547D01*
X13919898Y-14363547D02*
X13900850Y-14334975D01*
X13900850Y-14334975D02*
X13891326Y-14325451D01*
D14*
X8745787Y-14636539D02*
X8925787Y-14816539D01*
X8925787Y-14636539D02*
X8745787Y-14816539D01*
X8835787Y-14636539D02*
X8835787Y-14816539D01*
X8745787Y-14726539D02*
X8925787Y-14726539D01*
D11*
X9291326Y-14818023D02*
X9177040Y-14818023D01*
X9234183Y-14818023D02*
X9234183Y-14618023D01*
X9234183Y-14618023D02*
X9215135Y-14646594D01*
X9215135Y-14646594D02*
X9196088Y-14665642D01*
X9196088Y-14665642D02*
X9177040Y-14675166D01*
X9377040Y-14798975D02*
X9386564Y-14808499D01*
X9386564Y-14808499D02*
X9377040Y-14818023D01*
X9377040Y-14818023D02*
X9367516Y-14808499D01*
X9367516Y-14808499D02*
X9377040Y-14798975D01*
X9377040Y-14798975D02*
X9377040Y-14818023D01*
X9500850Y-14703737D02*
X9481802Y-14694213D01*
X9481802Y-14694213D02*
X9472278Y-14684689D01*
X9472278Y-14684689D02*
X9462754Y-14665642D01*
X9462754Y-14665642D02*
X9462754Y-14656118D01*
X9462754Y-14656118D02*
X9472278Y-14637070D01*
X9472278Y-14637070D02*
X9481802Y-14627547D01*
X9481802Y-14627547D02*
X9500850Y-14618023D01*
X9500850Y-14618023D02*
X9538945Y-14618023D01*
X9538945Y-14618023D02*
X9557993Y-14627547D01*
X9557993Y-14627547D02*
X9567516Y-14637070D01*
X9567516Y-14637070D02*
X9577040Y-14656118D01*
X9577040Y-14656118D02*
X9577040Y-14665642D01*
X9577040Y-14665642D02*
X9567516Y-14684689D01*
X9567516Y-14684689D02*
X9557993Y-14694213D01*
X9557993Y-14694213D02*
X9538945Y-14703737D01*
X9538945Y-14703737D02*
X9500850Y-14703737D01*
X9500850Y-14703737D02*
X9481802Y-14713261D01*
X9481802Y-14713261D02*
X9472278Y-14722785D01*
X9472278Y-14722785D02*
X9462754Y-14741832D01*
X9462754Y-14741832D02*
X9462754Y-14779928D01*
X9462754Y-14779928D02*
X9472278Y-14798975D01*
X9472278Y-14798975D02*
X9481802Y-14808499D01*
X9481802Y-14808499D02*
X9500850Y-14818023D01*
X9500850Y-14818023D02*
X9538945Y-14818023D01*
X9538945Y-14818023D02*
X9557993Y-14808499D01*
X9557993Y-14808499D02*
X9567516Y-14798975D01*
X9567516Y-14798975D02*
X9577040Y-14779928D01*
X9577040Y-14779928D02*
X9577040Y-14741832D01*
X9577040Y-14741832D02*
X9567516Y-14722785D01*
X9567516Y-14722785D02*
X9557993Y-14713261D01*
X9557993Y-14713261D02*
X9538945Y-14703737D01*
X9700850Y-14618023D02*
X9719897Y-14618023D01*
X9719897Y-14618023D02*
X9738945Y-14627547D01*
X9738945Y-14627547D02*
X9748469Y-14637070D01*
X9748469Y-14637070D02*
X9757993Y-14656118D01*
X9757993Y-14656118D02*
X9767516Y-14694213D01*
X9767516Y-14694213D02*
X9767516Y-14741832D01*
X9767516Y-14741832D02*
X9757993Y-14779928D01*
X9757993Y-14779928D02*
X9748469Y-14798975D01*
X9748469Y-14798975D02*
X9738945Y-14808499D01*
X9738945Y-14808499D02*
X9719897Y-14818023D01*
X9719897Y-14818023D02*
X9700850Y-14818023D01*
X9700850Y-14818023D02*
X9681802Y-14808499D01*
X9681802Y-14808499D02*
X9672278Y-14798975D01*
X9672278Y-14798975D02*
X9662754Y-14779928D01*
X9662754Y-14779928D02*
X9653231Y-14741832D01*
X9653231Y-14741832D02*
X9653231Y-14694213D01*
X9653231Y-14694213D02*
X9662754Y-14656118D01*
X9662754Y-14656118D02*
X9672278Y-14637070D01*
X9672278Y-14637070D02*
X9681802Y-14627547D01*
X9681802Y-14627547D02*
X9700850Y-14618023D01*
X9891326Y-14618023D02*
X9910374Y-14618023D01*
X9910374Y-14618023D02*
X9929421Y-14627547D01*
X9929421Y-14627547D02*
X9938945Y-14637070D01*
X9938945Y-14637070D02*
X9948469Y-14656118D01*
X9948469Y-14656118D02*
X9957993Y-14694213D01*
X9957993Y-14694213D02*
X9957993Y-14741832D01*
X9957993Y-14741832D02*
X9948469Y-14779928D01*
X9948469Y-14779928D02*
X9938945Y-14798975D01*
X9938945Y-14798975D02*
X9929421Y-14808499D01*
X9929421Y-14808499D02*
X9910374Y-14818023D01*
X9910374Y-14818023D02*
X9891326Y-14818023D01*
X9891326Y-14818023D02*
X9872278Y-14808499D01*
X9872278Y-14808499D02*
X9862754Y-14798975D01*
X9862754Y-14798975D02*
X9853231Y-14779928D01*
X9853231Y-14779928D02*
X9843707Y-14741832D01*
X9843707Y-14741832D02*
X9843707Y-14694213D01*
X9843707Y-14694213D02*
X9853231Y-14656118D01*
X9853231Y-14656118D02*
X9862754Y-14637070D01*
X9862754Y-14637070D02*
X9872278Y-14627547D01*
X9872278Y-14627547D02*
X9891326Y-14618023D01*
X10043707Y-14818023D02*
X10043707Y-14684689D01*
X10043707Y-14703737D02*
X10053231Y-14694213D01*
X10053231Y-14694213D02*
X10072278Y-14684689D01*
X10072278Y-14684689D02*
X10100850Y-14684689D01*
X10100850Y-14684689D02*
X10119897Y-14694213D01*
X10119897Y-14694213D02*
X10129421Y-14713261D01*
X10129421Y-14713261D02*
X10129421Y-14818023D01*
X10129421Y-14713261D02*
X10138945Y-14694213D01*
X10138945Y-14694213D02*
X10157993Y-14684689D01*
X10157993Y-14684689D02*
X10186564Y-14684689D01*
X10186564Y-14684689D02*
X10205612Y-14694213D01*
X10205612Y-14694213D02*
X10215135Y-14713261D01*
X10215135Y-14713261D02*
X10215135Y-14818023D01*
X10310374Y-14818023D02*
X10310374Y-14684689D01*
X10310374Y-14703737D02*
X10319897Y-14694213D01*
X10319897Y-14694213D02*
X10338945Y-14684689D01*
X10338945Y-14684689D02*
X10367516Y-14684689D01*
X10367516Y-14684689D02*
X10386564Y-14694213D01*
X10386564Y-14694213D02*
X10396088Y-14713261D01*
X10396088Y-14713261D02*
X10396088Y-14818023D01*
X10396088Y-14713261D02*
X10405612Y-14694213D01*
X10405612Y-14694213D02*
X10424659Y-14684689D01*
X10424659Y-14684689D02*
X10453231Y-14684689D01*
X10453231Y-14684689D02*
X10472278Y-14694213D01*
X10472278Y-14694213D02*
X10481802Y-14713261D01*
X10481802Y-14713261D02*
X10481802Y-14818023D01*
X10872278Y-14608499D02*
X10700850Y-14865642D01*
X11129421Y-14618023D02*
X11148469Y-14618023D01*
X11148469Y-14618023D02*
X11167517Y-14627547D01*
X11167517Y-14627547D02*
X11177040Y-14637070D01*
X11177040Y-14637070D02*
X11186564Y-14656118D01*
X11186564Y-14656118D02*
X11196088Y-14694213D01*
X11196088Y-14694213D02*
X11196088Y-14741832D01*
X11196088Y-14741832D02*
X11186564Y-14779928D01*
X11186564Y-14779928D02*
X11177040Y-14798975D01*
X11177040Y-14798975D02*
X11167517Y-14808499D01*
X11167517Y-14808499D02*
X11148469Y-14818023D01*
X11148469Y-14818023D02*
X11129421Y-14818023D01*
X11129421Y-14818023D02*
X11110374Y-14808499D01*
X11110374Y-14808499D02*
X11100850Y-14798975D01*
X11100850Y-14798975D02*
X11091326Y-14779928D01*
X11091326Y-14779928D02*
X11081802Y-14741832D01*
X11081802Y-14741832D02*
X11081802Y-14694213D01*
X11081802Y-14694213D02*
X11091326Y-14656118D01*
X11091326Y-14656118D02*
X11100850Y-14637070D01*
X11100850Y-14637070D02*
X11110374Y-14627547D01*
X11110374Y-14627547D02*
X11129421Y-14618023D01*
X11281802Y-14798975D02*
X11291326Y-14808499D01*
X11291326Y-14808499D02*
X11281802Y-14818023D01*
X11281802Y-14818023D02*
X11272278Y-14808499D01*
X11272278Y-14808499D02*
X11281802Y-14798975D01*
X11281802Y-14798975D02*
X11281802Y-14818023D01*
X11415135Y-14618023D02*
X11434183Y-14618023D01*
X11434183Y-14618023D02*
X11453231Y-14627547D01*
X11453231Y-14627547D02*
X11462755Y-14637070D01*
X11462755Y-14637070D02*
X11472278Y-14656118D01*
X11472278Y-14656118D02*
X11481802Y-14694213D01*
X11481802Y-14694213D02*
X11481802Y-14741832D01*
X11481802Y-14741832D02*
X11472278Y-14779928D01*
X11472278Y-14779928D02*
X11462755Y-14798975D01*
X11462755Y-14798975D02*
X11453231Y-14808499D01*
X11453231Y-14808499D02*
X11434183Y-14818023D01*
X11434183Y-14818023D02*
X11415135Y-14818023D01*
X11415135Y-14818023D02*
X11396088Y-14808499D01*
X11396088Y-14808499D02*
X11386564Y-14798975D01*
X11386564Y-14798975D02*
X11377040Y-14779928D01*
X11377040Y-14779928D02*
X11367516Y-14741832D01*
X11367516Y-14741832D02*
X11367516Y-14694213D01*
X11367516Y-14694213D02*
X11377040Y-14656118D01*
X11377040Y-14656118D02*
X11386564Y-14637070D01*
X11386564Y-14637070D02*
X11396088Y-14627547D01*
X11396088Y-14627547D02*
X11415135Y-14618023D01*
X11548469Y-14618023D02*
X11681802Y-14618023D01*
X11681802Y-14618023D02*
X11596088Y-14818023D01*
X11796088Y-14618023D02*
X11815136Y-14618023D01*
X11815136Y-14618023D02*
X11834183Y-14627547D01*
X11834183Y-14627547D02*
X11843707Y-14637070D01*
X11843707Y-14637070D02*
X11853231Y-14656118D01*
X11853231Y-14656118D02*
X11862755Y-14694213D01*
X11862755Y-14694213D02*
X11862755Y-14741832D01*
X11862755Y-14741832D02*
X11853231Y-14779928D01*
X11853231Y-14779928D02*
X11843707Y-14798975D01*
X11843707Y-14798975D02*
X11834183Y-14808499D01*
X11834183Y-14808499D02*
X11815136Y-14818023D01*
X11815136Y-14818023D02*
X11796088Y-14818023D01*
X11796088Y-14818023D02*
X11777040Y-14808499D01*
X11777040Y-14808499D02*
X11767516Y-14798975D01*
X11767516Y-14798975D02*
X11757993Y-14779928D01*
X11757993Y-14779928D02*
X11748469Y-14741832D01*
X11748469Y-14741832D02*
X11748469Y-14694213D01*
X11748469Y-14694213D02*
X11757993Y-14656118D01*
X11757993Y-14656118D02*
X11767516Y-14637070D01*
X11767516Y-14637070D02*
X11777040Y-14627547D01*
X11777040Y-14627547D02*
X11796088Y-14618023D01*
X11957993Y-14818023D02*
X11996088Y-14818023D01*
X11996088Y-14818023D02*
X12015136Y-14808499D01*
X12015136Y-14808499D02*
X12024659Y-14798975D01*
X12024659Y-14798975D02*
X12043707Y-14770404D01*
X12043707Y-14770404D02*
X12053231Y-14732309D01*
X12053231Y-14732309D02*
X12053231Y-14656118D01*
X12053231Y-14656118D02*
X12043707Y-14637070D01*
X12043707Y-14637070D02*
X12034183Y-14627547D01*
X12034183Y-14627547D02*
X12015136Y-14618023D01*
X12015136Y-14618023D02*
X11977040Y-14618023D01*
X11977040Y-14618023D02*
X11957993Y-14627547D01*
X11957993Y-14627547D02*
X11948469Y-14637070D01*
X11948469Y-14637070D02*
X11938945Y-14656118D01*
X11938945Y-14656118D02*
X11938945Y-14703737D01*
X11938945Y-14703737D02*
X11948469Y-14722785D01*
X11948469Y-14722785D02*
X11957993Y-14732309D01*
X11957993Y-14732309D02*
X11977040Y-14741832D01*
X11977040Y-14741832D02*
X12015136Y-14741832D01*
X12015136Y-14741832D02*
X12034183Y-14732309D01*
X12034183Y-14732309D02*
X12043707Y-14722785D01*
X12043707Y-14722785D02*
X12053231Y-14703737D01*
X12129421Y-14618023D02*
X12129421Y-14656118D01*
X12205612Y-14618023D02*
X12205612Y-14656118D01*
X12500850Y-14894213D02*
X12491326Y-14884689D01*
X12491326Y-14884689D02*
X12472278Y-14856118D01*
X12472278Y-14856118D02*
X12462755Y-14837070D01*
X12462755Y-14837070D02*
X12453231Y-14808499D01*
X12453231Y-14808499D02*
X12443707Y-14760880D01*
X12443707Y-14760880D02*
X12443707Y-14722785D01*
X12443707Y-14722785D02*
X12453231Y-14675166D01*
X12453231Y-14675166D02*
X12462755Y-14646594D01*
X12462755Y-14646594D02*
X12472278Y-14627547D01*
X12472278Y-14627547D02*
X12491326Y-14598975D01*
X12491326Y-14598975D02*
X12500850Y-14589451D01*
X12605612Y-14703737D02*
X12586564Y-14694213D01*
X12586564Y-14694213D02*
X12577040Y-14684689D01*
X12577040Y-14684689D02*
X12567517Y-14665642D01*
X12567517Y-14665642D02*
X12567517Y-14656118D01*
X12567517Y-14656118D02*
X12577040Y-14637070D01*
X12577040Y-14637070D02*
X12586564Y-14627547D01*
X12586564Y-14627547D02*
X12605612Y-14618023D01*
X12605612Y-14618023D02*
X12643707Y-14618023D01*
X12643707Y-14618023D02*
X12662755Y-14627547D01*
X12662755Y-14627547D02*
X12672278Y-14637070D01*
X12672278Y-14637070D02*
X12681802Y-14656118D01*
X12681802Y-14656118D02*
X12681802Y-14665642D01*
X12681802Y-14665642D02*
X12672278Y-14684689D01*
X12672278Y-14684689D02*
X12662755Y-14694213D01*
X12662755Y-14694213D02*
X12643707Y-14703737D01*
X12643707Y-14703737D02*
X12605612Y-14703737D01*
X12605612Y-14703737D02*
X12586564Y-14713261D01*
X12586564Y-14713261D02*
X12577040Y-14722785D01*
X12577040Y-14722785D02*
X12567517Y-14741832D01*
X12567517Y-14741832D02*
X12567517Y-14779928D01*
X12567517Y-14779928D02*
X12577040Y-14798975D01*
X12577040Y-14798975D02*
X12586564Y-14808499D01*
X12586564Y-14808499D02*
X12605612Y-14818023D01*
X12605612Y-14818023D02*
X12643707Y-14818023D01*
X12643707Y-14818023D02*
X12662755Y-14808499D01*
X12662755Y-14808499D02*
X12672278Y-14798975D01*
X12672278Y-14798975D02*
X12681802Y-14779928D01*
X12681802Y-14779928D02*
X12681802Y-14741832D01*
X12681802Y-14741832D02*
X12672278Y-14722785D01*
X12672278Y-14722785D02*
X12662755Y-14713261D01*
X12662755Y-14713261D02*
X12643707Y-14703737D01*
X12919898Y-14818023D02*
X12919898Y-14618023D01*
X13005612Y-14818023D02*
X13005612Y-14713261D01*
X13005612Y-14713261D02*
X12996088Y-14694213D01*
X12996088Y-14694213D02*
X12977040Y-14684689D01*
X12977040Y-14684689D02*
X12948469Y-14684689D01*
X12948469Y-14684689D02*
X12929421Y-14694213D01*
X12929421Y-14694213D02*
X12919898Y-14703737D01*
X13129421Y-14818023D02*
X13110374Y-14808499D01*
X13110374Y-14808499D02*
X13100850Y-14798975D01*
X13100850Y-14798975D02*
X13091326Y-14779928D01*
X13091326Y-14779928D02*
X13091326Y-14722785D01*
X13091326Y-14722785D02*
X13100850Y-14703737D01*
X13100850Y-14703737D02*
X13110374Y-14694213D01*
X13110374Y-14694213D02*
X13129421Y-14684689D01*
X13129421Y-14684689D02*
X13157993Y-14684689D01*
X13157993Y-14684689D02*
X13177040Y-14694213D01*
X13177040Y-14694213D02*
X13186564Y-14703737D01*
X13186564Y-14703737D02*
X13196088Y-14722785D01*
X13196088Y-14722785D02*
X13196088Y-14779928D01*
X13196088Y-14779928D02*
X13186564Y-14798975D01*
X13186564Y-14798975D02*
X13177040Y-14808499D01*
X13177040Y-14808499D02*
X13157993Y-14818023D01*
X13157993Y-14818023D02*
X13129421Y-14818023D01*
X13310374Y-14818023D02*
X13291326Y-14808499D01*
X13291326Y-14808499D02*
X13281802Y-14789451D01*
X13281802Y-14789451D02*
X13281802Y-14618023D01*
X13462755Y-14808499D02*
X13443707Y-14818023D01*
X13443707Y-14818023D02*
X13405612Y-14818023D01*
X13405612Y-14818023D02*
X13386564Y-14808499D01*
X13386564Y-14808499D02*
X13377040Y-14789451D01*
X13377040Y-14789451D02*
X13377040Y-14713261D01*
X13377040Y-14713261D02*
X13386564Y-14694213D01*
X13386564Y-14694213D02*
X13405612Y-14684689D01*
X13405612Y-14684689D02*
X13443707Y-14684689D01*
X13443707Y-14684689D02*
X13462755Y-14694213D01*
X13462755Y-14694213D02*
X13472279Y-14713261D01*
X13472279Y-14713261D02*
X13472279Y-14732309D01*
X13472279Y-14732309D02*
X13377040Y-14751356D01*
X13548469Y-14808499D02*
X13567517Y-14818023D01*
X13567517Y-14818023D02*
X13605612Y-14818023D01*
X13605612Y-14818023D02*
X13624660Y-14808499D01*
X13624660Y-14808499D02*
X13634183Y-14789451D01*
X13634183Y-14789451D02*
X13634183Y-14779928D01*
X13634183Y-14779928D02*
X13624660Y-14760880D01*
X13624660Y-14760880D02*
X13605612Y-14751356D01*
X13605612Y-14751356D02*
X13577040Y-14751356D01*
X13577040Y-14751356D02*
X13557993Y-14741832D01*
X13557993Y-14741832D02*
X13548469Y-14722785D01*
X13548469Y-14722785D02*
X13548469Y-14713261D01*
X13548469Y-14713261D02*
X13557993Y-14694213D01*
X13557993Y-14694213D02*
X13577040Y-14684689D01*
X13577040Y-14684689D02*
X13605612Y-14684689D01*
X13605612Y-14684689D02*
X13624660Y-14694213D01*
X13700850Y-14894213D02*
X13710374Y-14884689D01*
X13710374Y-14884689D02*
X13729421Y-14856118D01*
X13729421Y-14856118D02*
X13738945Y-14837070D01*
X13738945Y-14837070D02*
X13748469Y-14808499D01*
X13748469Y-14808499D02*
X13757993Y-14760880D01*
X13757993Y-14760880D02*
X13757993Y-14722785D01*
X13757993Y-14722785D02*
X13748469Y-14675166D01*
X13748469Y-14675166D02*
X13738945Y-14646594D01*
X13738945Y-14646594D02*
X13729421Y-14627547D01*
X13729421Y-14627547D02*
X13710374Y-14598975D01*
X13710374Y-14598975D02*
X13700850Y-14589451D01*
M02*
