%TF.GenerationSoftware,KiCad,Pcbnew,9.0.2+1*%
%TF.CreationDate,2025-08-01T20:38:58+01:00*%
%TF.ProjectId,PocketSat,506f636b-6574-4536-9174-2e6b69636164,rev?*%
%TF.SameCoordinates,Original*%
%TF.FileFunction,Drillmap*%
%TF.FilePolarity,Positive*%
%FSLAX45Y45*%
G04 Gerber Fmt 4.5, Leading zero omitted, Abs format (unit mm)*
G04 Created by KiCad (PCBNEW 9.0.2+1) date 2025-08-01 20:38:58*
%MOMM*%
%LPD*%
G01*
G04 APERTURE LIST*
%ADD10C,0.050000*%
%ADD11C,0.200000*%
%ADD12C,0.100000*%
G04 APERTURE END LIST*
D10*
X14550000Y-9790000D02*
G75*
G02*
X14340000Y-10000000I-210000J0D01*
G01*
X10210000Y-10000000D02*
G75*
G02*
X10000000Y-9790000I0J210000D01*
G01*
X10000000Y-5660000D02*
G75*
G02*
X10210000Y-5450000I210000J0D01*
G01*
X14550000Y-5660000D02*
X14550000Y-9790000D01*
X14340000Y-5450000D02*
G75*
G02*
X14550000Y-5660000I0J-210000D01*
G01*
X10000000Y-9790000D02*
X10000000Y-5660000D01*
X10210000Y-5450000D02*
X14340000Y-5450000D01*
X14340000Y-10000000D02*
X10210000Y-10000000D01*
D11*
D12*
X10200000Y-5980000D02*
X10220000Y-6000000D01*
X10220000Y-5980000D02*
X10200000Y-6000000D01*
X10200000Y-6180000D02*
X10220000Y-6200000D01*
X10220000Y-6180000D02*
X10200000Y-6200000D01*
X10200000Y-8725000D02*
X10220000Y-8745000D01*
X10220000Y-8725000D02*
X10200000Y-8745000D01*
X10200000Y-9015000D02*
X10220000Y-9035000D01*
X10220000Y-9015000D02*
X10200000Y-9035000D01*
X10200000Y-9300000D02*
X10220000Y-9320000D01*
X10220000Y-9300000D02*
X10200000Y-9320000D01*
X10434000Y-8956000D02*
X10454000Y-8976000D01*
X10454000Y-8956000D02*
X10434000Y-8976000D01*
X10445000Y-9380000D02*
X10465000Y-9400000D01*
X10465000Y-9380000D02*
X10445000Y-9400000D01*
X10460000Y-9580000D02*
X10480000Y-9600000D01*
X10480000Y-9580000D02*
X10460000Y-9600000D01*
X10460000Y-9780000D02*
X10480000Y-9800000D01*
X10480000Y-9780000D02*
X10460000Y-9800000D01*
X10510000Y-8959350D02*
X10530000Y-8979350D01*
X10530000Y-8959350D02*
X10510000Y-8979350D01*
X10520000Y-5580000D02*
X10540000Y-5600000D01*
X10540000Y-5580000D02*
X10520000Y-5600000D01*
X10520000Y-7980000D02*
X10540000Y-8000000D01*
X10540000Y-7980000D02*
X10520000Y-8000000D01*
X10770000Y-9324350D02*
X10790000Y-9344350D01*
X10790000Y-9324350D02*
X10770000Y-9344350D01*
X10815000Y-9055000D02*
X10835000Y-9075000D01*
X10835000Y-9055000D02*
X10815000Y-9075000D01*
X10870000Y-9580000D02*
X10890000Y-9600000D01*
X10890000Y-9580000D02*
X10870000Y-9600000D01*
X10870000Y-9780000D02*
X10890000Y-9800000D01*
X10890000Y-9780000D02*
X10870000Y-9800000D01*
X10899650Y-8704350D02*
X10919650Y-8724350D01*
X10919650Y-8704350D02*
X10899650Y-8724350D01*
X10916000Y-8959350D02*
X10936000Y-8979350D01*
X10936000Y-8959350D02*
X10916000Y-8979350D01*
X10920000Y-5780000D02*
X10940000Y-5800000D01*
X10940000Y-5780000D02*
X10920000Y-5800000D01*
X10920000Y-6180000D02*
X10940000Y-6200000D01*
X10940000Y-6180000D02*
X10920000Y-6200000D01*
X10920000Y-6380000D02*
X10940000Y-6400000D01*
X10940000Y-6380000D02*
X10920000Y-6400000D01*
X10920000Y-7780000D02*
X10940000Y-7800000D01*
X10940000Y-7780000D02*
X10920000Y-7800000D01*
X10920000Y-7980000D02*
X10940000Y-8000000D01*
X10940000Y-7980000D02*
X10920000Y-8000000D01*
X10920000Y-8180000D02*
X10940000Y-8200000D01*
X10940000Y-8180000D02*
X10920000Y-8200000D01*
X10920000Y-8380000D02*
X10940000Y-8400000D01*
X10940000Y-8380000D02*
X10920000Y-8400000D01*
X10920000Y-8585000D02*
X10940000Y-8605000D01*
X10940000Y-8585000D02*
X10920000Y-8605000D01*
X11040000Y-9151850D02*
X11060000Y-9171850D01*
X11060000Y-9151850D02*
X11040000Y-9171850D01*
X11070000Y-8959350D02*
X11090000Y-8979350D01*
X11090000Y-8959350D02*
X11070000Y-8979350D01*
X11130000Y-9151850D02*
X11150000Y-9171850D01*
X11150000Y-9151850D02*
X11130000Y-9171850D01*
X11150000Y-9346250D02*
X11170000Y-9366250D01*
X11170000Y-9346250D02*
X11150000Y-9366250D01*
X11455000Y-9535000D02*
X11475000Y-9555000D01*
X11475000Y-9535000D02*
X11455000Y-9555000D01*
X11487850Y-8617850D02*
X11507850Y-8637850D01*
X11507850Y-8617850D02*
X11487850Y-8637850D01*
X11490000Y-9780000D02*
X11510000Y-9800000D01*
X11510000Y-9780000D02*
X11490000Y-9800000D01*
X11602000Y-9074000D02*
X11622000Y-9094000D01*
X11622000Y-9074000D02*
X11602000Y-9094000D01*
X11605509Y-8918350D02*
X11625509Y-8938350D01*
X11625509Y-8918350D02*
X11605509Y-8938350D01*
X11605509Y-8997850D02*
X11625509Y-9017850D01*
X11625509Y-8997850D02*
X11605509Y-9017850D01*
X11640000Y-9280000D02*
X11660000Y-9300000D01*
X11660000Y-9280000D02*
X11640000Y-9300000D01*
X11672000Y-8857000D02*
X11692000Y-8877000D01*
X11692000Y-8857000D02*
X11672000Y-8877000D01*
X11682500Y-9210000D02*
X11702500Y-9230000D01*
X11702500Y-9210000D02*
X11682500Y-9230000D01*
X11696000Y-9116000D02*
X11716000Y-9136000D01*
X11716000Y-9116000D02*
X11696000Y-9136000D01*
X11720000Y-7380000D02*
X11740000Y-7400000D01*
X11740000Y-7380000D02*
X11720000Y-7400000D01*
X11720000Y-7580000D02*
X11740000Y-7600000D01*
X11740000Y-7580000D02*
X11720000Y-7600000D01*
X11720000Y-7780000D02*
X11740000Y-7800000D01*
X11740000Y-7780000D02*
X11720000Y-7800000D01*
X11720000Y-7980000D02*
X11740000Y-8000000D01*
X11740000Y-7980000D02*
X11720000Y-8000000D01*
X11720000Y-8180000D02*
X11740000Y-8200000D01*
X11740000Y-8180000D02*
X11720000Y-8200000D01*
X11720000Y-8380000D02*
X11740000Y-8400000D01*
X11740000Y-8380000D02*
X11720000Y-8400000D01*
X11760000Y-9070000D02*
X11780000Y-9090000D01*
X11780000Y-9070000D02*
X11760000Y-9090000D01*
X11760000Y-9240000D02*
X11780000Y-9260000D01*
X11780000Y-9240000D02*
X11760000Y-9260000D01*
X11791000Y-9144000D02*
X11811000Y-9164000D01*
X11811000Y-9144000D02*
X11791000Y-9164000D01*
X11795000Y-9585000D02*
X11815000Y-9605000D01*
X11815000Y-9585000D02*
X11795000Y-9605000D01*
X11839000Y-9226000D02*
X11859000Y-9246000D01*
X11859000Y-9226000D02*
X11839000Y-9246000D01*
X11870000Y-9120000D02*
X11890000Y-9140000D01*
X11890000Y-9120000D02*
X11870000Y-9140000D01*
X11890000Y-9780000D02*
X11910000Y-9800000D01*
X11910000Y-9780000D02*
X11890000Y-9800000D01*
X11927500Y-9220000D02*
X11947500Y-9240000D01*
X11947500Y-9220000D02*
X11927500Y-9240000D01*
X11951000Y-9145000D02*
X11971000Y-9165000D01*
X11971000Y-9145000D02*
X11951000Y-9165000D01*
X12018000Y-9255000D02*
X12038000Y-9275000D01*
X12038000Y-9255000D02*
X12018000Y-9275000D01*
X12037500Y-9150000D02*
X12057500Y-9170000D01*
X12057500Y-9150000D02*
X12037500Y-9170000D01*
X12038000Y-9013000D02*
X12058000Y-9033000D01*
X12058000Y-9013000D02*
X12038000Y-9033000D01*
X12048005Y-9531995D02*
X12068005Y-9551995D01*
X12068005Y-9531995D02*
X12048005Y-9551995D01*
X12110000Y-9415000D02*
X12130000Y-9435000D01*
X12130000Y-9415000D02*
X12110000Y-9435000D01*
X12115000Y-9010000D02*
X12135000Y-9030000D01*
X12135000Y-9010000D02*
X12115000Y-9030000D01*
X12120000Y-7180000D02*
X12140000Y-7200000D01*
X12140000Y-7180000D02*
X12120000Y-7200000D01*
X12120000Y-7780000D02*
X12140000Y-7800000D01*
X12140000Y-7780000D02*
X12120000Y-7800000D01*
X12120000Y-7980000D02*
X12140000Y-8000000D01*
X12140000Y-7980000D02*
X12120000Y-8000000D01*
X12120000Y-8380000D02*
X12140000Y-8400000D01*
X12140000Y-8380000D02*
X12120000Y-8400000D01*
X12140000Y-9790000D02*
X12160000Y-9810000D01*
X12160000Y-9790000D02*
X12140000Y-9810000D01*
X12170000Y-9541423D02*
X12190000Y-9561423D01*
X12190000Y-9541423D02*
X12170000Y-9561423D01*
X12216000Y-9256000D02*
X12236000Y-9276000D01*
X12236000Y-9256000D02*
X12216000Y-9276000D01*
X12235000Y-8945000D02*
X12255000Y-8965000D01*
X12255000Y-8945000D02*
X12235000Y-8965000D01*
X12235700Y-8680700D02*
X12255700Y-8700700D01*
X12255700Y-8680700D02*
X12235700Y-8700700D01*
X12235700Y-8795000D02*
X12255700Y-8815000D01*
X12255700Y-8795000D02*
X12235700Y-8815000D01*
X12239351Y-9759351D02*
X12259351Y-9779351D01*
X12259351Y-9759351D02*
X12239351Y-9779351D01*
X12239433Y-9470000D02*
X12259433Y-9490000D01*
X12259433Y-9470000D02*
X12239433Y-9490000D01*
X12280000Y-9203250D02*
X12300000Y-9223250D01*
X12300000Y-9203250D02*
X12280000Y-9223250D01*
X12303000Y-5543000D02*
X12323000Y-5563000D01*
X12323000Y-5543000D02*
X12303000Y-5563000D01*
X12304300Y-5655000D02*
X12324300Y-5675000D01*
X12324300Y-5655000D02*
X12304300Y-5675000D01*
X12311000Y-9592000D02*
X12331000Y-9612000D01*
X12331000Y-9592000D02*
X12311000Y-9612000D01*
X12338000Y-5782000D02*
X12358000Y-5802000D01*
X12358000Y-5782000D02*
X12338000Y-5802000D01*
X12350000Y-8953000D02*
X12370000Y-8973000D01*
X12370000Y-8953000D02*
X12350000Y-8973000D01*
X12351000Y-9253000D02*
X12371000Y-9273000D01*
X12371000Y-9253000D02*
X12351000Y-9273000D01*
X12415000Y-8655000D02*
X12435000Y-8675000D01*
X12435000Y-8655000D02*
X12415000Y-8675000D01*
X12428000Y-9275000D02*
X12448000Y-9295000D01*
X12448000Y-9275000D02*
X12428000Y-9295000D01*
X12429000Y-9147000D02*
X12449000Y-9167000D01*
X12449000Y-9147000D02*
X12429000Y-9167000D01*
X12443000Y-9364000D02*
X12463000Y-9384000D01*
X12463000Y-9364000D02*
X12443000Y-9384000D01*
X12470000Y-9750000D02*
X12490000Y-9770000D01*
X12490000Y-9750000D02*
X12470000Y-9770000D01*
X12520000Y-5580000D02*
X12540000Y-5600000D01*
X12540000Y-5580000D02*
X12520000Y-5600000D01*
X12520000Y-6780000D02*
X12540000Y-6800000D01*
X12540000Y-6780000D02*
X12520000Y-6800000D01*
X12520000Y-7180000D02*
X12540000Y-7200000D01*
X12540000Y-7180000D02*
X12520000Y-7200000D01*
X12530000Y-6995000D02*
X12550000Y-7015000D01*
X12550000Y-6995000D02*
X12530000Y-7015000D01*
X12537071Y-9334071D02*
X12557071Y-9354071D01*
X12557071Y-9334071D02*
X12537071Y-9354071D01*
X12550000Y-8412850D02*
X12570000Y-8432850D01*
X12570000Y-8412850D02*
X12550000Y-8432850D01*
X12582850Y-7450000D02*
X12602850Y-7470000D01*
X12602850Y-7450000D02*
X12582850Y-7470000D01*
X12583916Y-9668916D02*
X12603916Y-9688916D01*
X12603916Y-9668916D02*
X12583916Y-9688916D01*
X12597000Y-8757000D02*
X12617000Y-8777000D01*
X12617000Y-8757000D02*
X12597000Y-8777000D01*
X12603000Y-9502000D02*
X12623000Y-9522000D01*
X12623000Y-9502000D02*
X12603000Y-9522000D01*
X12605280Y-9156000D02*
X12625280Y-9176000D01*
X12625280Y-9156000D02*
X12605280Y-9176000D01*
X12609024Y-9238144D02*
X12629024Y-9258144D01*
X12629024Y-9238144D02*
X12609024Y-9258144D01*
X12609397Y-9080000D02*
X12629397Y-9100000D01*
X12629397Y-9080000D02*
X12609397Y-9100000D01*
X12611580Y-7850000D02*
X12631580Y-7870000D01*
X12631580Y-7850000D02*
X12611580Y-7870000D01*
X12622389Y-8863641D02*
X12642389Y-8883641D01*
X12642389Y-8863641D02*
X12622389Y-8883641D01*
X12622500Y-8955150D02*
X12642500Y-8975150D01*
X12642500Y-8955150D02*
X12622500Y-8975150D01*
X12665000Y-7915000D02*
X12685000Y-7935000D01*
X12685000Y-7915000D02*
X12665000Y-7935000D01*
X12670000Y-8412850D02*
X12690000Y-8432850D01*
X12690000Y-8412850D02*
X12670000Y-8432850D01*
X12685485Y-9261484D02*
X12705485Y-9281484D01*
X12705485Y-9261484D02*
X12685485Y-9281484D01*
X12688000Y-8766000D02*
X12708000Y-8786000D01*
X12708000Y-8766000D02*
X12688000Y-8786000D01*
X12690000Y-8340000D02*
X12710000Y-8360000D01*
X12710000Y-8340000D02*
X12690000Y-8360000D01*
X12717104Y-9707104D02*
X12737104Y-9727104D01*
X12737104Y-9707104D02*
X12717104Y-9727104D01*
X12740000Y-9580000D02*
X12760000Y-9600000D01*
X12760000Y-9580000D02*
X12740000Y-9600000D01*
X12744419Y-8079419D02*
X12764419Y-8099419D01*
X12764419Y-8079419D02*
X12744419Y-8099419D01*
X12745000Y-7995000D02*
X12765000Y-8015000D01*
X12765000Y-7995000D02*
X12745000Y-8015000D01*
X12760000Y-9270000D02*
X12780000Y-9290000D01*
X12780000Y-9270000D02*
X12760000Y-9290000D01*
X12770000Y-8340000D02*
X12790000Y-8360000D01*
X12790000Y-8340000D02*
X12770000Y-8360000D01*
X12780000Y-9500000D02*
X12800000Y-9520000D01*
X12800000Y-9500000D02*
X12780000Y-9520000D01*
X12783000Y-9757000D02*
X12803000Y-9777000D01*
X12803000Y-9757000D02*
X12783000Y-9777000D01*
X12833000Y-5543000D02*
X12853000Y-5563000D01*
X12853000Y-5543000D02*
X12833000Y-5563000D01*
X12850000Y-8235000D02*
X12870000Y-8255000D01*
X12870000Y-8235000D02*
X12850000Y-8255000D01*
X12860000Y-9270000D02*
X12880000Y-9290000D01*
X12880000Y-9270000D02*
X12860000Y-9290000D01*
X12885000Y-9465000D02*
X12905000Y-9485000D01*
X12905000Y-9465000D02*
X12885000Y-9485000D01*
X12887850Y-7530000D02*
X12907850Y-7550000D01*
X12907850Y-7530000D02*
X12887850Y-7550000D01*
X12888000Y-8768000D02*
X12908000Y-8788000D01*
X12908000Y-8768000D02*
X12888000Y-8788000D01*
X12890000Y-6900000D02*
X12910000Y-6920000D01*
X12910000Y-6900000D02*
X12890000Y-6920000D01*
X12920000Y-6580000D02*
X12940000Y-6600000D01*
X12940000Y-6580000D02*
X12920000Y-6600000D01*
X12920000Y-6980000D02*
X12940000Y-7000000D01*
X12940000Y-6980000D02*
X12920000Y-7000000D01*
X12937000Y-9267000D02*
X12957000Y-9287000D01*
X12957000Y-9267000D02*
X12937000Y-9287000D01*
X12945000Y-8155000D02*
X12965000Y-8175000D01*
X12965000Y-8155000D02*
X12945000Y-8175000D01*
X12955000Y-7360000D02*
X12975000Y-7380000D01*
X12975000Y-7360000D02*
X12955000Y-7380000D01*
X12960000Y-8350000D02*
X12980000Y-8370000D01*
X12980000Y-8350000D02*
X12960000Y-8370000D01*
X12960000Y-8002900D02*
X12980000Y-8022900D01*
X12980000Y-8002900D02*
X12960000Y-8022900D01*
X12968000Y-8772000D02*
X12988000Y-8792000D01*
X12988000Y-8772000D02*
X12968000Y-8792000D01*
X12982000Y-7865400D02*
X13002000Y-7885400D01*
X13002000Y-7865400D02*
X12982000Y-7885400D01*
X12995000Y-9778875D02*
X13015000Y-9798875D01*
X13015000Y-9778875D02*
X12995000Y-9798875D01*
X13002150Y-7730400D02*
X13022150Y-7750400D01*
X13022150Y-7730400D02*
X13002150Y-7750400D01*
X13018000Y-9270000D02*
X13038000Y-9290000D01*
X13038000Y-9270000D02*
X13018000Y-9290000D01*
X13020000Y-8170000D02*
X13040000Y-8190000D01*
X13040000Y-8170000D02*
X13020000Y-8190000D01*
X13030000Y-7390000D02*
X13050000Y-7410000D01*
X13050000Y-7390000D02*
X13030000Y-7410000D01*
X13032000Y-9535000D02*
X13052000Y-9555000D01*
X13052000Y-9535000D02*
X13032000Y-9555000D01*
X13050000Y-9840000D02*
X13070000Y-9860000D01*
X13070000Y-9840000D02*
X13050000Y-9860000D01*
X13070000Y-8305000D02*
X13090000Y-8325000D01*
X13090000Y-8305000D02*
X13070000Y-8325000D01*
X13086575Y-7550000D02*
X13106575Y-7570000D01*
X13106575Y-7550000D02*
X13086575Y-7570000D01*
X13090000Y-8790000D02*
X13110000Y-8810000D01*
X13110000Y-8790000D02*
X13090000Y-8810000D01*
X13097000Y-9276000D02*
X13117000Y-9296000D01*
X13117000Y-9276000D02*
X13097000Y-9296000D01*
X13109000Y-8906000D02*
X13129000Y-8926000D01*
X13129000Y-8906000D02*
X13109000Y-8926000D01*
X13110000Y-9019000D02*
X13130000Y-9039000D01*
X13130000Y-9019000D02*
X13110000Y-9039000D01*
X13110000Y-9200000D02*
X13130000Y-9220000D01*
X13130000Y-9200000D02*
X13110000Y-9220000D01*
X13113000Y-9113000D02*
X13133000Y-9133000D01*
X13133000Y-9113000D02*
X13113000Y-9133000D01*
X13181398Y-9792276D02*
X13201398Y-9812276D01*
X13201398Y-9792276D02*
X13181398Y-9812276D01*
X13235000Y-9595000D02*
X13255000Y-9615000D01*
X13255000Y-9595000D02*
X13235000Y-9615000D01*
X13245000Y-8610000D02*
X13265000Y-8630000D01*
X13265000Y-8610000D02*
X13245000Y-8630000D01*
X13260000Y-9400000D02*
X13280000Y-9420000D01*
X13280000Y-9400000D02*
X13260000Y-9420000D01*
X13289000Y-7091000D02*
X13309000Y-7111000D01*
X13309000Y-7091000D02*
X13289000Y-7111000D01*
X13308000Y-9133000D02*
X13328000Y-9153000D01*
X13328000Y-9133000D02*
X13308000Y-9153000D01*
X13309650Y-7327500D02*
X13329650Y-7347500D01*
X13329650Y-7327500D02*
X13309650Y-7347500D01*
X13330000Y-9370000D02*
X13350000Y-9390000D01*
X13350000Y-9370000D02*
X13330000Y-9390000D01*
X13352000Y-7141000D02*
X13372000Y-7161000D01*
X13372000Y-7141000D02*
X13352000Y-7161000D01*
X13365000Y-9199000D02*
X13385000Y-9219000D01*
X13385000Y-9199000D02*
X13365000Y-9219000D01*
X13430000Y-7915000D02*
X13450000Y-7935000D01*
X13450000Y-7915000D02*
X13430000Y-7935000D01*
X13432000Y-8617000D02*
X13452000Y-8637000D01*
X13452000Y-8617000D02*
X13432000Y-8637000D01*
X13435000Y-8345000D02*
X13455000Y-8365000D01*
X13455000Y-8345000D02*
X13435000Y-8365000D01*
X13439000Y-8948000D02*
X13459000Y-8968000D01*
X13459000Y-8948000D02*
X13439000Y-8968000D01*
X13450000Y-9196667D02*
X13470000Y-9216667D01*
X13470000Y-9196667D02*
X13450000Y-9216667D01*
X13450000Y-9308334D02*
X13470000Y-9328334D01*
X13470000Y-9308334D02*
X13450000Y-9328334D01*
X13450000Y-9420000D02*
X13470000Y-9440000D01*
X13470000Y-9420000D02*
X13450000Y-9440000D01*
X13450000Y-9531667D02*
X13470000Y-9551667D01*
X13470000Y-9531667D02*
X13450000Y-9551667D01*
X13450000Y-9730000D02*
X13470000Y-9750000D01*
X13470000Y-9730000D02*
X13450000Y-9750000D01*
X13471000Y-7506000D02*
X13491000Y-7526000D01*
X13491000Y-7506000D02*
X13471000Y-7526000D01*
X13472000Y-7243000D02*
X13492000Y-7263000D01*
X13492000Y-7243000D02*
X13472000Y-7263000D01*
X13475000Y-7135000D02*
X13495000Y-7155000D01*
X13495000Y-7135000D02*
X13475000Y-7155000D01*
X13475432Y-7592080D02*
X13495432Y-7612080D01*
X13495432Y-7592080D02*
X13475432Y-7612080D01*
X13495000Y-8415000D02*
X13515000Y-8435000D01*
X13515000Y-8415000D02*
X13495000Y-8435000D01*
X13512850Y-7835350D02*
X13532850Y-7855350D01*
X13532850Y-7835350D02*
X13512850Y-7855350D01*
X13540000Y-7085000D02*
X13560000Y-7105000D01*
X13560000Y-7085000D02*
X13540000Y-7105000D01*
X13580000Y-8180000D02*
X13600000Y-8200000D01*
X13600000Y-8180000D02*
X13580000Y-8200000D01*
X13646000Y-9544000D02*
X13666000Y-9564000D01*
X13666000Y-9544000D02*
X13646000Y-9564000D01*
X13654300Y-8930000D02*
X13674300Y-8950000D01*
X13674300Y-8930000D02*
X13654300Y-8950000D01*
X13680000Y-7950000D02*
X13700000Y-7970000D01*
X13700000Y-7950000D02*
X13680000Y-7970000D01*
X13690000Y-6910000D02*
X13710000Y-6930000D01*
X13710000Y-6910000D02*
X13690000Y-6930000D01*
X13698000Y-8027000D02*
X13718000Y-8047000D01*
X13718000Y-8027000D02*
X13698000Y-8047000D01*
X13700000Y-9110000D02*
X13720000Y-9130000D01*
X13720000Y-9110000D02*
X13700000Y-9130000D01*
X13750000Y-9780000D02*
X13770000Y-9800000D01*
X13770000Y-9780000D02*
X13750000Y-9800000D01*
X13782000Y-8133000D02*
X13802000Y-8153000D01*
X13802000Y-8133000D02*
X13782000Y-8153000D01*
X13829167Y-9110000D02*
X13849167Y-9130000D01*
X13849167Y-9110000D02*
X13829167Y-9130000D01*
X13858000Y-7703000D02*
X13878000Y-7723000D01*
X13878000Y-7703000D02*
X13858000Y-7723000D01*
X13864000Y-9198910D02*
X13884000Y-9218910D01*
X13884000Y-9198910D02*
X13864000Y-9218910D01*
X13864000Y-9310576D02*
X13884000Y-9330576D01*
X13884000Y-9310576D02*
X13864000Y-9330576D01*
X13864000Y-9422243D02*
X13884000Y-9442243D01*
X13884000Y-9422243D02*
X13864000Y-9442243D01*
X13864000Y-9533910D02*
X13884000Y-9553910D01*
X13884000Y-9533910D02*
X13864000Y-9553910D01*
X13870000Y-8379000D02*
X13890000Y-8399000D01*
X13890000Y-8379000D02*
X13870000Y-8399000D01*
X13880000Y-5580000D02*
X13900000Y-5600000D01*
X13900000Y-5580000D02*
X13880000Y-5600000D01*
X13905000Y-8525000D02*
X13925000Y-8545000D01*
X13925000Y-8525000D02*
X13905000Y-8545000D01*
X13960000Y-9580000D02*
X13980000Y-9600000D01*
X13980000Y-9580000D02*
X13960000Y-9600000D01*
X13960000Y-9780000D02*
X13980000Y-9800000D01*
X13980000Y-9780000D02*
X13960000Y-9800000D01*
X13972000Y-9202000D02*
X13992000Y-9222000D01*
X13992000Y-9202000D02*
X13972000Y-9222000D01*
X13991000Y-7992000D02*
X14011000Y-8012000D01*
X14011000Y-7992000D02*
X13991000Y-8012000D01*
X14000000Y-8935000D02*
X14020000Y-8955000D01*
X14020000Y-8935000D02*
X14000000Y-8955000D01*
X14025000Y-7305000D02*
X14045000Y-7325000D01*
X14045000Y-7305000D02*
X14025000Y-7325000D01*
X14030000Y-7455700D02*
X14050000Y-7475700D01*
X14050000Y-7455700D02*
X14030000Y-7475700D01*
X14194000Y-9420000D02*
X14214000Y-9440000D01*
X14214000Y-9420000D02*
X14194000Y-9440000D01*
X14215000Y-8981000D02*
X14235000Y-9001000D01*
X14235000Y-8981000D02*
X14215000Y-9001000D01*
X14240000Y-7708000D02*
X14260000Y-7728000D01*
X14260000Y-7708000D02*
X14240000Y-7728000D01*
X14330000Y-5900000D02*
X14350000Y-5920000D01*
X14350000Y-5900000D02*
X14330000Y-5920000D01*
X14340000Y-8865000D02*
X14360000Y-8885000D01*
X14360000Y-8865000D02*
X14340000Y-8885000D01*
X14340000Y-9075000D02*
X14360000Y-9095000D01*
X14360000Y-9075000D02*
X14340000Y-9095000D01*
X14340000Y-9325000D02*
X14360000Y-9345000D01*
X14360000Y-9325000D02*
X14340000Y-9345000D01*
X14345000Y-9535000D02*
X14365000Y-9555000D01*
X14365000Y-9535000D02*
X14345000Y-9555000D01*
X14385000Y-8341000D02*
X14405000Y-8361000D01*
X14405000Y-8341000D02*
X14385000Y-8361000D01*
X14385000Y-8530000D02*
X14405000Y-8550000D01*
X14405000Y-8530000D02*
X14385000Y-8550000D01*
X12895500Y-9766000D02*
G75*
G02*
X12870500Y-9766000I-12500J0D01*
G01*
X12870500Y-9766000D02*
G75*
G02*
X12895500Y-9766000I12500J0D01*
G01*
X13652500Y-7400000D02*
G75*
G02*
X13627500Y-7400000I-12500J0D01*
G01*
X13627500Y-7400000D02*
G75*
G02*
X13652500Y-7400000I12500J0D01*
G01*
X13652500Y-7490000D02*
G75*
G02*
X13627500Y-7490000I-12500J0D01*
G01*
X13627500Y-7490000D02*
G75*
G02*
X13652500Y-7490000I12500J0D01*
G01*
X13732500Y-7400000D02*
G75*
G02*
X13707500Y-7400000I-12500J0D01*
G01*
X13707500Y-7400000D02*
G75*
G02*
X13732500Y-7400000I12500J0D01*
G01*
X13732500Y-7490000D02*
G75*
G02*
X13707500Y-7490000I-12500J0D01*
G01*
X13707500Y-7490000D02*
G75*
G02*
X13732500Y-7490000I12500J0D01*
G01*
X13812500Y-7400000D02*
G75*
G02*
X13787500Y-7400000I-12500J0D01*
G01*
X13787500Y-7400000D02*
G75*
G02*
X13812500Y-7400000I12500J0D01*
G01*
X13812500Y-7490000D02*
G75*
G02*
X13787500Y-7490000I-12500J0D01*
G01*
X13787500Y-7490000D02*
G75*
G02*
X13812500Y-7490000I12500J0D01*
G01*
X11126000Y-9493000D02*
X11126000Y-9523000D01*
X11111000Y-9508000D02*
X11141000Y-9508000D01*
X11420000Y-9165000D02*
X11420000Y-9195000D01*
X11405000Y-9180000D02*
X11435000Y-9180000D01*
X11420000Y-9265000D02*
X11420000Y-9295000D01*
X11405000Y-9280000D02*
X11435000Y-9280000D01*
X11520000Y-9165000D02*
X11520000Y-9195000D01*
X11505000Y-9180000D02*
X11535000Y-9180000D01*
X11520000Y-9265000D02*
X11520000Y-9295000D01*
X11505000Y-9280000D02*
X11535000Y-9280000D01*
X11521000Y-8045667D02*
X11521000Y-8075667D01*
X11506000Y-8060667D02*
X11536000Y-8060667D01*
X11521000Y-8152333D02*
X11521000Y-8182333D01*
X11506000Y-8167333D02*
X11536000Y-8167333D01*
X11521000Y-8259000D02*
X11521000Y-8289000D01*
X11506000Y-8274000D02*
X11536000Y-8274000D01*
X11521000Y-8365667D02*
X11521000Y-8395667D01*
X11506000Y-8380667D02*
X11536000Y-8380667D01*
X12170596Y-6131389D02*
X12170596Y-6161389D01*
X12155596Y-6146389D02*
X12185596Y-6146389D01*
X12343596Y-5958389D02*
X12343596Y-5988389D01*
X12328596Y-5973389D02*
X12358596Y-5973389D01*
X12377500Y-6170000D02*
X12377500Y-6200000D01*
X12362500Y-6185000D02*
X12392500Y-6185000D01*
X12415096Y-6375889D02*
X12415096Y-6405889D01*
X12400096Y-6390889D02*
X12430096Y-6390889D01*
X12490000Y-7635000D02*
X12490000Y-7665000D01*
X12475000Y-7650000D02*
X12505000Y-7650000D01*
X12588096Y-6202889D02*
X12588096Y-6232889D01*
X12573096Y-6217889D02*
X12603096Y-6217889D01*
X12760000Y-8915000D02*
X12760000Y-8945000D01*
X12745000Y-8930000D02*
X12775000Y-8930000D01*
X12760000Y-9015000D02*
X12760000Y-9045000D01*
X12745000Y-9030000D02*
X12775000Y-9030000D01*
X12760000Y-9115000D02*
X12760000Y-9145000D01*
X12745000Y-9130000D02*
X12775000Y-9130000D01*
X12800000Y-7635000D02*
X12800000Y-7665000D01*
X12785000Y-7650000D02*
X12815000Y-7650000D01*
X12802557Y-6990000D02*
X12802557Y-7020000D01*
X12787557Y-7005000D02*
X12817557Y-7005000D01*
X12842500Y-5797500D02*
X12842500Y-5827500D01*
X12827500Y-5812500D02*
X12857500Y-5812500D01*
X12870000Y-8915000D02*
X12870000Y-8945000D01*
X12855000Y-8930000D02*
X12885000Y-8930000D01*
X12870000Y-9015000D02*
X12870000Y-9045000D01*
X12855000Y-9030000D02*
X12885000Y-9030000D01*
X12870000Y-9115000D02*
X12870000Y-9145000D01*
X12855000Y-9130000D02*
X12885000Y-9130000D01*
X12980000Y-6615000D02*
X12980000Y-6645000D01*
X12965000Y-6630000D02*
X12995000Y-6630000D01*
X12980000Y-8915000D02*
X12980000Y-8945000D01*
X12965000Y-8930000D02*
X12995000Y-8930000D01*
X12980000Y-9015000D02*
X12980000Y-9045000D01*
X12965000Y-9030000D02*
X12995000Y-9030000D01*
X12980000Y-9115000D02*
X12980000Y-9145000D01*
X12965000Y-9130000D02*
X12995000Y-9130000D01*
X13200770Y-7327500D02*
X13200770Y-7357500D01*
X13185770Y-7342500D02*
X13215770Y-7342500D01*
X13412500Y-5800000D02*
X13412500Y-5830000D01*
X13397500Y-5815000D02*
X13427500Y-5815000D01*
X13684000Y-7820360D02*
X13684000Y-7850360D01*
X13669000Y-7835360D02*
X13699000Y-7835360D01*
X13720000Y-7715000D02*
X13720000Y-7745000D01*
X13705000Y-7730000D02*
X13735000Y-7730000D01*
X13875000Y-7090000D02*
X13875000Y-7120000D01*
X13860000Y-7105000D02*
X13890000Y-7105000D01*
X10285481Y-8615331D02*
X10285481Y-8569369D01*
X10239519Y-8569369D01*
X10239519Y-8615331D01*
X10285481Y-8615331D01*
X10327500Y-8559850D02*
X10197500Y-8559850D01*
X10197500Y-8624850D02*
G75*
G02*
X10197500Y-8559850I0J32500D01*
G01*
X10197500Y-8624850D02*
X10327500Y-8624850D01*
X10327500Y-8624850D02*
G75*
G03*
X10327500Y-8559850I0J32500D01*
G01*
X10285481Y-9479331D02*
X10285481Y-9433369D01*
X10239519Y-9433369D01*
X10239519Y-9479331D01*
X10285481Y-9479331D01*
X10327500Y-9423850D02*
X10197500Y-9423850D01*
X10197500Y-9488850D02*
G75*
G02*
X10197500Y-9423850I0J32500D01*
G01*
X10197500Y-9488850D02*
X10327500Y-9488850D01*
X10327500Y-9488850D02*
G75*
G03*
X10327500Y-9423850I0J32500D01*
G01*
X10667981Y-8615331D02*
X10667981Y-8569369D01*
X10622019Y-8569369D01*
X10622019Y-8615331D01*
X10667981Y-8615331D01*
X10695000Y-8559850D02*
X10595000Y-8559850D01*
X10595000Y-8624850D02*
G75*
G02*
X10595000Y-8559850I0J32500D01*
G01*
X10595000Y-8624850D02*
X10695000Y-8624850D01*
X10695000Y-8624850D02*
G75*
G03*
X10695000Y-8559850I0J32500D01*
G01*
X10667981Y-9479331D02*
X10667981Y-9433369D01*
X10622019Y-9433369D01*
X10622019Y-9479331D01*
X10667981Y-9479331D01*
X10695000Y-9423850D02*
X10595000Y-9423850D01*
X10595000Y-9488850D02*
G75*
G02*
X10595000Y-9423850I0J32500D01*
G01*
X10595000Y-9488850D02*
X10695000Y-9488850D01*
X10695000Y-9488850D02*
G75*
G03*
X10695000Y-9423850I0J32500D01*
G01*
D11*
X10258277Y-10313984D02*
X10258277Y-10113984D01*
X10258277Y-10113984D02*
X10305896Y-10113984D01*
X10305896Y-10113984D02*
X10334467Y-10123508D01*
X10334467Y-10123508D02*
X10353515Y-10142555D01*
X10353515Y-10142555D02*
X10363039Y-10161603D01*
X10363039Y-10161603D02*
X10372563Y-10199698D01*
X10372563Y-10199698D02*
X10372563Y-10228270D01*
X10372563Y-10228270D02*
X10363039Y-10266365D01*
X10363039Y-10266365D02*
X10353515Y-10285412D01*
X10353515Y-10285412D02*
X10334467Y-10304460D01*
X10334467Y-10304460D02*
X10305896Y-10313984D01*
X10305896Y-10313984D02*
X10258277Y-10313984D01*
X10458277Y-10313984D02*
X10458277Y-10180650D01*
X10458277Y-10218746D02*
X10467801Y-10199698D01*
X10467801Y-10199698D02*
X10477324Y-10190174D01*
X10477324Y-10190174D02*
X10496372Y-10180650D01*
X10496372Y-10180650D02*
X10515420Y-10180650D01*
X10582086Y-10313984D02*
X10582086Y-10180650D01*
X10582086Y-10113984D02*
X10572563Y-10123508D01*
X10572563Y-10123508D02*
X10582086Y-10133031D01*
X10582086Y-10133031D02*
X10591610Y-10123508D01*
X10591610Y-10123508D02*
X10582086Y-10113984D01*
X10582086Y-10113984D02*
X10582086Y-10133031D01*
X10705896Y-10313984D02*
X10686848Y-10304460D01*
X10686848Y-10304460D02*
X10677324Y-10285412D01*
X10677324Y-10285412D02*
X10677324Y-10113984D01*
X10810658Y-10313984D02*
X10791610Y-10304460D01*
X10791610Y-10304460D02*
X10782086Y-10285412D01*
X10782086Y-10285412D02*
X10782086Y-10113984D01*
X11039229Y-10313984D02*
X11039229Y-10113984D01*
X11039229Y-10113984D02*
X11105896Y-10256841D01*
X11105896Y-10256841D02*
X11172563Y-10113984D01*
X11172563Y-10113984D02*
X11172563Y-10313984D01*
X11353515Y-10313984D02*
X11353515Y-10209222D01*
X11353515Y-10209222D02*
X11343991Y-10190174D01*
X11343991Y-10190174D02*
X11324943Y-10180650D01*
X11324943Y-10180650D02*
X11286848Y-10180650D01*
X11286848Y-10180650D02*
X11267801Y-10190174D01*
X11353515Y-10304460D02*
X11334467Y-10313984D01*
X11334467Y-10313984D02*
X11286848Y-10313984D01*
X11286848Y-10313984D02*
X11267801Y-10304460D01*
X11267801Y-10304460D02*
X11258277Y-10285412D01*
X11258277Y-10285412D02*
X11258277Y-10266365D01*
X11258277Y-10266365D02*
X11267801Y-10247317D01*
X11267801Y-10247317D02*
X11286848Y-10237793D01*
X11286848Y-10237793D02*
X11334467Y-10237793D01*
X11334467Y-10237793D02*
X11353515Y-10228270D01*
X11448753Y-10180650D02*
X11448753Y-10380650D01*
X11448753Y-10190174D02*
X11467801Y-10180650D01*
X11467801Y-10180650D02*
X11505896Y-10180650D01*
X11505896Y-10180650D02*
X11524943Y-10190174D01*
X11524943Y-10190174D02*
X11534467Y-10199698D01*
X11534467Y-10199698D02*
X11543991Y-10218746D01*
X11543991Y-10218746D02*
X11543991Y-10275889D01*
X11543991Y-10275889D02*
X11534467Y-10294936D01*
X11534467Y-10294936D02*
X11524943Y-10304460D01*
X11524943Y-10304460D02*
X11505896Y-10313984D01*
X11505896Y-10313984D02*
X11467801Y-10313984D01*
X11467801Y-10313984D02*
X11448753Y-10304460D01*
X11629705Y-10294936D02*
X11639229Y-10304460D01*
X11639229Y-10304460D02*
X11629705Y-10313984D01*
X11629705Y-10313984D02*
X11620182Y-10304460D01*
X11620182Y-10304460D02*
X11629705Y-10294936D01*
X11629705Y-10294936D02*
X11629705Y-10313984D01*
X11629705Y-10190174D02*
X11639229Y-10199698D01*
X11639229Y-10199698D02*
X11629705Y-10209222D01*
X11629705Y-10209222D02*
X11620182Y-10199698D01*
X11620182Y-10199698D02*
X11629705Y-10190174D01*
X11629705Y-10190174D02*
X11629705Y-10209222D01*
D12*
X9977500Y-10632500D02*
X9997500Y-10652500D01*
X9997500Y-10632500D02*
X9977500Y-10652500D01*
D11*
X10296372Y-10533984D02*
X10315420Y-10533984D01*
X10315420Y-10533984D02*
X10334467Y-10543508D01*
X10334467Y-10543508D02*
X10343991Y-10553031D01*
X10343991Y-10553031D02*
X10353515Y-10572079D01*
X10353515Y-10572079D02*
X10363039Y-10610174D01*
X10363039Y-10610174D02*
X10363039Y-10657793D01*
X10363039Y-10657793D02*
X10353515Y-10695889D01*
X10353515Y-10695889D02*
X10343991Y-10714936D01*
X10343991Y-10714936D02*
X10334467Y-10724460D01*
X10334467Y-10724460D02*
X10315420Y-10733984D01*
X10315420Y-10733984D02*
X10296372Y-10733984D01*
X10296372Y-10733984D02*
X10277324Y-10724460D01*
X10277324Y-10724460D02*
X10267801Y-10714936D01*
X10267801Y-10714936D02*
X10258277Y-10695889D01*
X10258277Y-10695889D02*
X10248753Y-10657793D01*
X10248753Y-10657793D02*
X10248753Y-10610174D01*
X10248753Y-10610174D02*
X10258277Y-10572079D01*
X10258277Y-10572079D02*
X10267801Y-10553031D01*
X10267801Y-10553031D02*
X10277324Y-10543508D01*
X10277324Y-10543508D02*
X10296372Y-10533984D01*
X10448753Y-10714936D02*
X10458277Y-10724460D01*
X10458277Y-10724460D02*
X10448753Y-10733984D01*
X10448753Y-10733984D02*
X10439229Y-10724460D01*
X10439229Y-10724460D02*
X10448753Y-10714936D01*
X10448753Y-10714936D02*
X10448753Y-10733984D01*
X10534467Y-10553031D02*
X10543991Y-10543508D01*
X10543991Y-10543508D02*
X10563039Y-10533984D01*
X10563039Y-10533984D02*
X10610658Y-10533984D01*
X10610658Y-10533984D02*
X10629705Y-10543508D01*
X10629705Y-10543508D02*
X10639229Y-10553031D01*
X10639229Y-10553031D02*
X10648753Y-10572079D01*
X10648753Y-10572079D02*
X10648753Y-10591127D01*
X10648753Y-10591127D02*
X10639229Y-10619698D01*
X10639229Y-10619698D02*
X10524944Y-10733984D01*
X10524944Y-10733984D02*
X10648753Y-10733984D01*
X10772563Y-10533984D02*
X10791610Y-10533984D01*
X10791610Y-10533984D02*
X10810658Y-10543508D01*
X10810658Y-10543508D02*
X10820182Y-10553031D01*
X10820182Y-10553031D02*
X10829705Y-10572079D01*
X10829705Y-10572079D02*
X10839229Y-10610174D01*
X10839229Y-10610174D02*
X10839229Y-10657793D01*
X10839229Y-10657793D02*
X10829705Y-10695889D01*
X10829705Y-10695889D02*
X10820182Y-10714936D01*
X10820182Y-10714936D02*
X10810658Y-10724460D01*
X10810658Y-10724460D02*
X10791610Y-10733984D01*
X10791610Y-10733984D02*
X10772563Y-10733984D01*
X10772563Y-10733984D02*
X10753515Y-10724460D01*
X10753515Y-10724460D02*
X10743991Y-10714936D01*
X10743991Y-10714936D02*
X10734467Y-10695889D01*
X10734467Y-10695889D02*
X10724944Y-10657793D01*
X10724944Y-10657793D02*
X10724944Y-10610174D01*
X10724944Y-10610174D02*
X10734467Y-10572079D01*
X10734467Y-10572079D02*
X10743991Y-10553031D01*
X10743991Y-10553031D02*
X10753515Y-10543508D01*
X10753515Y-10543508D02*
X10772563Y-10533984D01*
X10963039Y-10533984D02*
X10982086Y-10533984D01*
X10982086Y-10533984D02*
X11001134Y-10543508D01*
X11001134Y-10543508D02*
X11010658Y-10553031D01*
X11010658Y-10553031D02*
X11020182Y-10572079D01*
X11020182Y-10572079D02*
X11029705Y-10610174D01*
X11029705Y-10610174D02*
X11029705Y-10657793D01*
X11029705Y-10657793D02*
X11020182Y-10695889D01*
X11020182Y-10695889D02*
X11010658Y-10714936D01*
X11010658Y-10714936D02*
X11001134Y-10724460D01*
X11001134Y-10724460D02*
X10982086Y-10733984D01*
X10982086Y-10733984D02*
X10963039Y-10733984D01*
X10963039Y-10733984D02*
X10943991Y-10724460D01*
X10943991Y-10724460D02*
X10934467Y-10714936D01*
X10934467Y-10714936D02*
X10924944Y-10695889D01*
X10924944Y-10695889D02*
X10915420Y-10657793D01*
X10915420Y-10657793D02*
X10915420Y-10610174D01*
X10915420Y-10610174D02*
X10924944Y-10572079D01*
X10924944Y-10572079D02*
X10934467Y-10553031D01*
X10934467Y-10553031D02*
X10943991Y-10543508D01*
X10943991Y-10543508D02*
X10963039Y-10533984D01*
X11115420Y-10733984D02*
X11115420Y-10600650D01*
X11115420Y-10619698D02*
X11124944Y-10610174D01*
X11124944Y-10610174D02*
X11143991Y-10600650D01*
X11143991Y-10600650D02*
X11172563Y-10600650D01*
X11172563Y-10600650D02*
X11191610Y-10610174D01*
X11191610Y-10610174D02*
X11201134Y-10629222D01*
X11201134Y-10629222D02*
X11201134Y-10733984D01*
X11201134Y-10629222D02*
X11210658Y-10610174D01*
X11210658Y-10610174D02*
X11229705Y-10600650D01*
X11229705Y-10600650D02*
X11258277Y-10600650D01*
X11258277Y-10600650D02*
X11277324Y-10610174D01*
X11277324Y-10610174D02*
X11286848Y-10629222D01*
X11286848Y-10629222D02*
X11286848Y-10733984D01*
X11382086Y-10733984D02*
X11382086Y-10600650D01*
X11382086Y-10619698D02*
X11391610Y-10610174D01*
X11391610Y-10610174D02*
X11410658Y-10600650D01*
X11410658Y-10600650D02*
X11439229Y-10600650D01*
X11439229Y-10600650D02*
X11458277Y-10610174D01*
X11458277Y-10610174D02*
X11467801Y-10629222D01*
X11467801Y-10629222D02*
X11467801Y-10733984D01*
X11467801Y-10629222D02*
X11477324Y-10610174D01*
X11477324Y-10610174D02*
X11496372Y-10600650D01*
X11496372Y-10600650D02*
X11524943Y-10600650D01*
X11524943Y-10600650D02*
X11543991Y-10610174D01*
X11543991Y-10610174D02*
X11553515Y-10629222D01*
X11553515Y-10629222D02*
X11553515Y-10733984D01*
X11943991Y-10524460D02*
X11772563Y-10781603D01*
X12201134Y-10533984D02*
X12220182Y-10533984D01*
X12220182Y-10533984D02*
X12239229Y-10543508D01*
X12239229Y-10543508D02*
X12248753Y-10553031D01*
X12248753Y-10553031D02*
X12258277Y-10572079D01*
X12258277Y-10572079D02*
X12267801Y-10610174D01*
X12267801Y-10610174D02*
X12267801Y-10657793D01*
X12267801Y-10657793D02*
X12258277Y-10695889D01*
X12258277Y-10695889D02*
X12248753Y-10714936D01*
X12248753Y-10714936D02*
X12239229Y-10724460D01*
X12239229Y-10724460D02*
X12220182Y-10733984D01*
X12220182Y-10733984D02*
X12201134Y-10733984D01*
X12201134Y-10733984D02*
X12182086Y-10724460D01*
X12182086Y-10724460D02*
X12172563Y-10714936D01*
X12172563Y-10714936D02*
X12163039Y-10695889D01*
X12163039Y-10695889D02*
X12153515Y-10657793D01*
X12153515Y-10657793D02*
X12153515Y-10610174D01*
X12153515Y-10610174D02*
X12163039Y-10572079D01*
X12163039Y-10572079D02*
X12172563Y-10553031D01*
X12172563Y-10553031D02*
X12182086Y-10543508D01*
X12182086Y-10543508D02*
X12201134Y-10533984D01*
X12353515Y-10714936D02*
X12363039Y-10724460D01*
X12363039Y-10724460D02*
X12353515Y-10733984D01*
X12353515Y-10733984D02*
X12343991Y-10724460D01*
X12343991Y-10724460D02*
X12353515Y-10714936D01*
X12353515Y-10714936D02*
X12353515Y-10733984D01*
X12486848Y-10533984D02*
X12505896Y-10533984D01*
X12505896Y-10533984D02*
X12524944Y-10543508D01*
X12524944Y-10543508D02*
X12534467Y-10553031D01*
X12534467Y-10553031D02*
X12543991Y-10572079D01*
X12543991Y-10572079D02*
X12553515Y-10610174D01*
X12553515Y-10610174D02*
X12553515Y-10657793D01*
X12553515Y-10657793D02*
X12543991Y-10695889D01*
X12543991Y-10695889D02*
X12534467Y-10714936D01*
X12534467Y-10714936D02*
X12524944Y-10724460D01*
X12524944Y-10724460D02*
X12505896Y-10733984D01*
X12505896Y-10733984D02*
X12486848Y-10733984D01*
X12486848Y-10733984D02*
X12467801Y-10724460D01*
X12467801Y-10724460D02*
X12458277Y-10714936D01*
X12458277Y-10714936D02*
X12448753Y-10695889D01*
X12448753Y-10695889D02*
X12439229Y-10657793D01*
X12439229Y-10657793D02*
X12439229Y-10610174D01*
X12439229Y-10610174D02*
X12448753Y-10572079D01*
X12448753Y-10572079D02*
X12458277Y-10553031D01*
X12458277Y-10553031D02*
X12467801Y-10543508D01*
X12467801Y-10543508D02*
X12486848Y-10533984D01*
X12677325Y-10533984D02*
X12696372Y-10533984D01*
X12696372Y-10533984D02*
X12715420Y-10543508D01*
X12715420Y-10543508D02*
X12724944Y-10553031D01*
X12724944Y-10553031D02*
X12734467Y-10572079D01*
X12734467Y-10572079D02*
X12743991Y-10610174D01*
X12743991Y-10610174D02*
X12743991Y-10657793D01*
X12743991Y-10657793D02*
X12734467Y-10695889D01*
X12734467Y-10695889D02*
X12724944Y-10714936D01*
X12724944Y-10714936D02*
X12715420Y-10724460D01*
X12715420Y-10724460D02*
X12696372Y-10733984D01*
X12696372Y-10733984D02*
X12677325Y-10733984D01*
X12677325Y-10733984D02*
X12658277Y-10724460D01*
X12658277Y-10724460D02*
X12648753Y-10714936D01*
X12648753Y-10714936D02*
X12639229Y-10695889D01*
X12639229Y-10695889D02*
X12629706Y-10657793D01*
X12629706Y-10657793D02*
X12629706Y-10610174D01*
X12629706Y-10610174D02*
X12639229Y-10572079D01*
X12639229Y-10572079D02*
X12648753Y-10553031D01*
X12648753Y-10553031D02*
X12658277Y-10543508D01*
X12658277Y-10543508D02*
X12677325Y-10533984D01*
X12810658Y-10533984D02*
X12943991Y-10533984D01*
X12943991Y-10533984D02*
X12858277Y-10733984D01*
X13029706Y-10733984D02*
X13067801Y-10733984D01*
X13067801Y-10733984D02*
X13086848Y-10724460D01*
X13086848Y-10724460D02*
X13096372Y-10714936D01*
X13096372Y-10714936D02*
X13115420Y-10686365D01*
X13115420Y-10686365D02*
X13124944Y-10648270D01*
X13124944Y-10648270D02*
X13124944Y-10572079D01*
X13124944Y-10572079D02*
X13115420Y-10553031D01*
X13115420Y-10553031D02*
X13105896Y-10543508D01*
X13105896Y-10543508D02*
X13086848Y-10533984D01*
X13086848Y-10533984D02*
X13048753Y-10533984D01*
X13048753Y-10533984D02*
X13029706Y-10543508D01*
X13029706Y-10543508D02*
X13020182Y-10553031D01*
X13020182Y-10553031D02*
X13010658Y-10572079D01*
X13010658Y-10572079D02*
X13010658Y-10619698D01*
X13010658Y-10619698D02*
X13020182Y-10638746D01*
X13020182Y-10638746D02*
X13029706Y-10648270D01*
X13029706Y-10648270D02*
X13048753Y-10657793D01*
X13048753Y-10657793D02*
X13086848Y-10657793D01*
X13086848Y-10657793D02*
X13105896Y-10648270D01*
X13105896Y-10648270D02*
X13115420Y-10638746D01*
X13115420Y-10638746D02*
X13124944Y-10619698D01*
X13201134Y-10533984D02*
X13201134Y-10572079D01*
X13277325Y-10533984D02*
X13277325Y-10572079D01*
X13572563Y-10810174D02*
X13563039Y-10800650D01*
X13563039Y-10800650D02*
X13543991Y-10772079D01*
X13543991Y-10772079D02*
X13534468Y-10753031D01*
X13534468Y-10753031D02*
X13524944Y-10724460D01*
X13524944Y-10724460D02*
X13515420Y-10676841D01*
X13515420Y-10676841D02*
X13515420Y-10638746D01*
X13515420Y-10638746D02*
X13524944Y-10591127D01*
X13524944Y-10591127D02*
X13534468Y-10562555D01*
X13534468Y-10562555D02*
X13543991Y-10543508D01*
X13543991Y-10543508D02*
X13563039Y-10514936D01*
X13563039Y-10514936D02*
X13572563Y-10505412D01*
X13639229Y-10553031D02*
X13648753Y-10543508D01*
X13648753Y-10543508D02*
X13667801Y-10533984D01*
X13667801Y-10533984D02*
X13715420Y-10533984D01*
X13715420Y-10533984D02*
X13734468Y-10543508D01*
X13734468Y-10543508D02*
X13743991Y-10553031D01*
X13743991Y-10553031D02*
X13753515Y-10572079D01*
X13753515Y-10572079D02*
X13753515Y-10591127D01*
X13753515Y-10591127D02*
X13743991Y-10619698D01*
X13743991Y-10619698D02*
X13629706Y-10733984D01*
X13629706Y-10733984D02*
X13753515Y-10733984D01*
X13877325Y-10533984D02*
X13896372Y-10533984D01*
X13896372Y-10533984D02*
X13915420Y-10543508D01*
X13915420Y-10543508D02*
X13924944Y-10553031D01*
X13924944Y-10553031D02*
X13934468Y-10572079D01*
X13934468Y-10572079D02*
X13943991Y-10610174D01*
X13943991Y-10610174D02*
X13943991Y-10657793D01*
X13943991Y-10657793D02*
X13934468Y-10695889D01*
X13934468Y-10695889D02*
X13924944Y-10714936D01*
X13924944Y-10714936D02*
X13915420Y-10724460D01*
X13915420Y-10724460D02*
X13896372Y-10733984D01*
X13896372Y-10733984D02*
X13877325Y-10733984D01*
X13877325Y-10733984D02*
X13858277Y-10724460D01*
X13858277Y-10724460D02*
X13848753Y-10714936D01*
X13848753Y-10714936D02*
X13839229Y-10695889D01*
X13839229Y-10695889D02*
X13829706Y-10657793D01*
X13829706Y-10657793D02*
X13829706Y-10610174D01*
X13829706Y-10610174D02*
X13839229Y-10572079D01*
X13839229Y-10572079D02*
X13848753Y-10553031D01*
X13848753Y-10553031D02*
X13858277Y-10543508D01*
X13858277Y-10543508D02*
X13877325Y-10533984D01*
X14115420Y-10533984D02*
X14077325Y-10533984D01*
X14077325Y-10533984D02*
X14058277Y-10543508D01*
X14058277Y-10543508D02*
X14048753Y-10553031D01*
X14048753Y-10553031D02*
X14029706Y-10581603D01*
X14029706Y-10581603D02*
X14020182Y-10619698D01*
X14020182Y-10619698D02*
X14020182Y-10695889D01*
X14020182Y-10695889D02*
X14029706Y-10714936D01*
X14029706Y-10714936D02*
X14039229Y-10724460D01*
X14039229Y-10724460D02*
X14058277Y-10733984D01*
X14058277Y-10733984D02*
X14096372Y-10733984D01*
X14096372Y-10733984D02*
X14115420Y-10724460D01*
X14115420Y-10724460D02*
X14124944Y-10714936D01*
X14124944Y-10714936D02*
X14134468Y-10695889D01*
X14134468Y-10695889D02*
X14134468Y-10648270D01*
X14134468Y-10648270D02*
X14124944Y-10629222D01*
X14124944Y-10629222D02*
X14115420Y-10619698D01*
X14115420Y-10619698D02*
X14096372Y-10610174D01*
X14096372Y-10610174D02*
X14058277Y-10610174D01*
X14058277Y-10610174D02*
X14039229Y-10619698D01*
X14039229Y-10619698D02*
X14029706Y-10629222D01*
X14029706Y-10629222D02*
X14020182Y-10648270D01*
X14372563Y-10733984D02*
X14372563Y-10533984D01*
X14458277Y-10733984D02*
X14458277Y-10629222D01*
X14458277Y-10629222D02*
X14448753Y-10610174D01*
X14448753Y-10610174D02*
X14429706Y-10600650D01*
X14429706Y-10600650D02*
X14401134Y-10600650D01*
X14401134Y-10600650D02*
X14382087Y-10610174D01*
X14382087Y-10610174D02*
X14372563Y-10619698D01*
X14582087Y-10733984D02*
X14563039Y-10724460D01*
X14563039Y-10724460D02*
X14553515Y-10714936D01*
X14553515Y-10714936D02*
X14543991Y-10695889D01*
X14543991Y-10695889D02*
X14543991Y-10638746D01*
X14543991Y-10638746D02*
X14553515Y-10619698D01*
X14553515Y-10619698D02*
X14563039Y-10610174D01*
X14563039Y-10610174D02*
X14582087Y-10600650D01*
X14582087Y-10600650D02*
X14610658Y-10600650D01*
X14610658Y-10600650D02*
X14629706Y-10610174D01*
X14629706Y-10610174D02*
X14639230Y-10619698D01*
X14639230Y-10619698D02*
X14648753Y-10638746D01*
X14648753Y-10638746D02*
X14648753Y-10695889D01*
X14648753Y-10695889D02*
X14639230Y-10714936D01*
X14639230Y-10714936D02*
X14629706Y-10724460D01*
X14629706Y-10724460D02*
X14610658Y-10733984D01*
X14610658Y-10733984D02*
X14582087Y-10733984D01*
X14763039Y-10733984D02*
X14743991Y-10724460D01*
X14743991Y-10724460D02*
X14734468Y-10705412D01*
X14734468Y-10705412D02*
X14734468Y-10533984D01*
X14915420Y-10724460D02*
X14896372Y-10733984D01*
X14896372Y-10733984D02*
X14858277Y-10733984D01*
X14858277Y-10733984D02*
X14839230Y-10724460D01*
X14839230Y-10724460D02*
X14829706Y-10705412D01*
X14829706Y-10705412D02*
X14829706Y-10629222D01*
X14829706Y-10629222D02*
X14839230Y-10610174D01*
X14839230Y-10610174D02*
X14858277Y-10600650D01*
X14858277Y-10600650D02*
X14896372Y-10600650D01*
X14896372Y-10600650D02*
X14915420Y-10610174D01*
X14915420Y-10610174D02*
X14924944Y-10629222D01*
X14924944Y-10629222D02*
X14924944Y-10648270D01*
X14924944Y-10648270D02*
X14829706Y-10667317D01*
X15001134Y-10724460D02*
X15020182Y-10733984D01*
X15020182Y-10733984D02*
X15058277Y-10733984D01*
X15058277Y-10733984D02*
X15077325Y-10724460D01*
X15077325Y-10724460D02*
X15086849Y-10705412D01*
X15086849Y-10705412D02*
X15086849Y-10695889D01*
X15086849Y-10695889D02*
X15077325Y-10676841D01*
X15077325Y-10676841D02*
X15058277Y-10667317D01*
X15058277Y-10667317D02*
X15029706Y-10667317D01*
X15029706Y-10667317D02*
X15010658Y-10657793D01*
X15010658Y-10657793D02*
X15001134Y-10638746D01*
X15001134Y-10638746D02*
X15001134Y-10629222D01*
X15001134Y-10629222D02*
X15010658Y-10610174D01*
X15010658Y-10610174D02*
X15029706Y-10600650D01*
X15029706Y-10600650D02*
X15058277Y-10600650D01*
X15058277Y-10600650D02*
X15077325Y-10610174D01*
X15153515Y-10810174D02*
X15163039Y-10800650D01*
X15163039Y-10800650D02*
X15182087Y-10772079D01*
X15182087Y-10772079D02*
X15191611Y-10753031D01*
X15191611Y-10753031D02*
X15201134Y-10724460D01*
X15201134Y-10724460D02*
X15210658Y-10676841D01*
X15210658Y-10676841D02*
X15210658Y-10638746D01*
X15210658Y-10638746D02*
X15201134Y-10591127D01*
X15201134Y-10591127D02*
X15191611Y-10562555D01*
X15191611Y-10562555D02*
X15182087Y-10543508D01*
X15182087Y-10543508D02*
X15163039Y-10514936D01*
X15163039Y-10514936D02*
X15153515Y-10505412D01*
D12*
X9997500Y-10906500D02*
G75*
G02*
X9972500Y-10906500I-12500J0D01*
G01*
X9972500Y-10906500D02*
G75*
G02*
X9997500Y-10906500I12500J0D01*
G01*
D11*
X10296372Y-10797984D02*
X10315420Y-10797984D01*
X10315420Y-10797984D02*
X10334467Y-10807508D01*
X10334467Y-10807508D02*
X10343991Y-10817031D01*
X10343991Y-10817031D02*
X10353515Y-10836079D01*
X10353515Y-10836079D02*
X10363039Y-10874174D01*
X10363039Y-10874174D02*
X10363039Y-10921793D01*
X10363039Y-10921793D02*
X10353515Y-10959889D01*
X10353515Y-10959889D02*
X10343991Y-10978936D01*
X10343991Y-10978936D02*
X10334467Y-10988460D01*
X10334467Y-10988460D02*
X10315420Y-10997984D01*
X10315420Y-10997984D02*
X10296372Y-10997984D01*
X10296372Y-10997984D02*
X10277324Y-10988460D01*
X10277324Y-10988460D02*
X10267801Y-10978936D01*
X10267801Y-10978936D02*
X10258277Y-10959889D01*
X10258277Y-10959889D02*
X10248753Y-10921793D01*
X10248753Y-10921793D02*
X10248753Y-10874174D01*
X10248753Y-10874174D02*
X10258277Y-10836079D01*
X10258277Y-10836079D02*
X10267801Y-10817031D01*
X10267801Y-10817031D02*
X10277324Y-10807508D01*
X10277324Y-10807508D02*
X10296372Y-10797984D01*
X10448753Y-10978936D02*
X10458277Y-10988460D01*
X10458277Y-10988460D02*
X10448753Y-10997984D01*
X10448753Y-10997984D02*
X10439229Y-10988460D01*
X10439229Y-10988460D02*
X10448753Y-10978936D01*
X10448753Y-10978936D02*
X10448753Y-10997984D01*
X10534467Y-10817031D02*
X10543991Y-10807508D01*
X10543991Y-10807508D02*
X10563039Y-10797984D01*
X10563039Y-10797984D02*
X10610658Y-10797984D01*
X10610658Y-10797984D02*
X10629705Y-10807508D01*
X10629705Y-10807508D02*
X10639229Y-10817031D01*
X10639229Y-10817031D02*
X10648753Y-10836079D01*
X10648753Y-10836079D02*
X10648753Y-10855127D01*
X10648753Y-10855127D02*
X10639229Y-10883698D01*
X10639229Y-10883698D02*
X10524944Y-10997984D01*
X10524944Y-10997984D02*
X10648753Y-10997984D01*
X10829705Y-10797984D02*
X10734467Y-10797984D01*
X10734467Y-10797984D02*
X10724944Y-10893222D01*
X10724944Y-10893222D02*
X10734467Y-10883698D01*
X10734467Y-10883698D02*
X10753515Y-10874174D01*
X10753515Y-10874174D02*
X10801134Y-10874174D01*
X10801134Y-10874174D02*
X10820182Y-10883698D01*
X10820182Y-10883698D02*
X10829705Y-10893222D01*
X10829705Y-10893222D02*
X10839229Y-10912270D01*
X10839229Y-10912270D02*
X10839229Y-10959889D01*
X10839229Y-10959889D02*
X10829705Y-10978936D01*
X10829705Y-10978936D02*
X10820182Y-10988460D01*
X10820182Y-10988460D02*
X10801134Y-10997984D01*
X10801134Y-10997984D02*
X10753515Y-10997984D01*
X10753515Y-10997984D02*
X10734467Y-10988460D01*
X10734467Y-10988460D02*
X10724944Y-10978936D01*
X10963039Y-10797984D02*
X10982086Y-10797984D01*
X10982086Y-10797984D02*
X11001134Y-10807508D01*
X11001134Y-10807508D02*
X11010658Y-10817031D01*
X11010658Y-10817031D02*
X11020182Y-10836079D01*
X11020182Y-10836079D02*
X11029705Y-10874174D01*
X11029705Y-10874174D02*
X11029705Y-10921793D01*
X11029705Y-10921793D02*
X11020182Y-10959889D01*
X11020182Y-10959889D02*
X11010658Y-10978936D01*
X11010658Y-10978936D02*
X11001134Y-10988460D01*
X11001134Y-10988460D02*
X10982086Y-10997984D01*
X10982086Y-10997984D02*
X10963039Y-10997984D01*
X10963039Y-10997984D02*
X10943991Y-10988460D01*
X10943991Y-10988460D02*
X10934467Y-10978936D01*
X10934467Y-10978936D02*
X10924944Y-10959889D01*
X10924944Y-10959889D02*
X10915420Y-10921793D01*
X10915420Y-10921793D02*
X10915420Y-10874174D01*
X10915420Y-10874174D02*
X10924944Y-10836079D01*
X10924944Y-10836079D02*
X10934467Y-10817031D01*
X10934467Y-10817031D02*
X10943991Y-10807508D01*
X10943991Y-10807508D02*
X10963039Y-10797984D01*
X11115420Y-10997984D02*
X11115420Y-10864650D01*
X11115420Y-10883698D02*
X11124944Y-10874174D01*
X11124944Y-10874174D02*
X11143991Y-10864650D01*
X11143991Y-10864650D02*
X11172563Y-10864650D01*
X11172563Y-10864650D02*
X11191610Y-10874174D01*
X11191610Y-10874174D02*
X11201134Y-10893222D01*
X11201134Y-10893222D02*
X11201134Y-10997984D01*
X11201134Y-10893222D02*
X11210658Y-10874174D01*
X11210658Y-10874174D02*
X11229705Y-10864650D01*
X11229705Y-10864650D02*
X11258277Y-10864650D01*
X11258277Y-10864650D02*
X11277324Y-10874174D01*
X11277324Y-10874174D02*
X11286848Y-10893222D01*
X11286848Y-10893222D02*
X11286848Y-10997984D01*
X11382086Y-10997984D02*
X11382086Y-10864650D01*
X11382086Y-10883698D02*
X11391610Y-10874174D01*
X11391610Y-10874174D02*
X11410658Y-10864650D01*
X11410658Y-10864650D02*
X11439229Y-10864650D01*
X11439229Y-10864650D02*
X11458277Y-10874174D01*
X11458277Y-10874174D02*
X11467801Y-10893222D01*
X11467801Y-10893222D02*
X11467801Y-10997984D01*
X11467801Y-10893222D02*
X11477324Y-10874174D01*
X11477324Y-10874174D02*
X11496372Y-10864650D01*
X11496372Y-10864650D02*
X11524943Y-10864650D01*
X11524943Y-10864650D02*
X11543991Y-10874174D01*
X11543991Y-10874174D02*
X11553515Y-10893222D01*
X11553515Y-10893222D02*
X11553515Y-10997984D01*
X11943991Y-10788460D02*
X11772563Y-11045603D01*
X12201134Y-10797984D02*
X12220182Y-10797984D01*
X12220182Y-10797984D02*
X12239229Y-10807508D01*
X12239229Y-10807508D02*
X12248753Y-10817031D01*
X12248753Y-10817031D02*
X12258277Y-10836079D01*
X12258277Y-10836079D02*
X12267801Y-10874174D01*
X12267801Y-10874174D02*
X12267801Y-10921793D01*
X12267801Y-10921793D02*
X12258277Y-10959889D01*
X12258277Y-10959889D02*
X12248753Y-10978936D01*
X12248753Y-10978936D02*
X12239229Y-10988460D01*
X12239229Y-10988460D02*
X12220182Y-10997984D01*
X12220182Y-10997984D02*
X12201134Y-10997984D01*
X12201134Y-10997984D02*
X12182086Y-10988460D01*
X12182086Y-10988460D02*
X12172563Y-10978936D01*
X12172563Y-10978936D02*
X12163039Y-10959889D01*
X12163039Y-10959889D02*
X12153515Y-10921793D01*
X12153515Y-10921793D02*
X12153515Y-10874174D01*
X12153515Y-10874174D02*
X12163039Y-10836079D01*
X12163039Y-10836079D02*
X12172563Y-10817031D01*
X12172563Y-10817031D02*
X12182086Y-10807508D01*
X12182086Y-10807508D02*
X12201134Y-10797984D01*
X12353515Y-10978936D02*
X12363039Y-10988460D01*
X12363039Y-10988460D02*
X12353515Y-10997984D01*
X12353515Y-10997984D02*
X12343991Y-10988460D01*
X12343991Y-10988460D02*
X12353515Y-10978936D01*
X12353515Y-10978936D02*
X12353515Y-10997984D01*
X12486848Y-10797984D02*
X12505896Y-10797984D01*
X12505896Y-10797984D02*
X12524944Y-10807508D01*
X12524944Y-10807508D02*
X12534467Y-10817031D01*
X12534467Y-10817031D02*
X12543991Y-10836079D01*
X12543991Y-10836079D02*
X12553515Y-10874174D01*
X12553515Y-10874174D02*
X12553515Y-10921793D01*
X12553515Y-10921793D02*
X12543991Y-10959889D01*
X12543991Y-10959889D02*
X12534467Y-10978936D01*
X12534467Y-10978936D02*
X12524944Y-10988460D01*
X12524944Y-10988460D02*
X12505896Y-10997984D01*
X12505896Y-10997984D02*
X12486848Y-10997984D01*
X12486848Y-10997984D02*
X12467801Y-10988460D01*
X12467801Y-10988460D02*
X12458277Y-10978936D01*
X12458277Y-10978936D02*
X12448753Y-10959889D01*
X12448753Y-10959889D02*
X12439229Y-10921793D01*
X12439229Y-10921793D02*
X12439229Y-10874174D01*
X12439229Y-10874174D02*
X12448753Y-10836079D01*
X12448753Y-10836079D02*
X12458277Y-10817031D01*
X12458277Y-10817031D02*
X12467801Y-10807508D01*
X12467801Y-10807508D02*
X12486848Y-10797984D01*
X12677325Y-10797984D02*
X12696372Y-10797984D01*
X12696372Y-10797984D02*
X12715420Y-10807508D01*
X12715420Y-10807508D02*
X12724944Y-10817031D01*
X12724944Y-10817031D02*
X12734467Y-10836079D01*
X12734467Y-10836079D02*
X12743991Y-10874174D01*
X12743991Y-10874174D02*
X12743991Y-10921793D01*
X12743991Y-10921793D02*
X12734467Y-10959889D01*
X12734467Y-10959889D02*
X12724944Y-10978936D01*
X12724944Y-10978936D02*
X12715420Y-10988460D01*
X12715420Y-10988460D02*
X12696372Y-10997984D01*
X12696372Y-10997984D02*
X12677325Y-10997984D01*
X12677325Y-10997984D02*
X12658277Y-10988460D01*
X12658277Y-10988460D02*
X12648753Y-10978936D01*
X12648753Y-10978936D02*
X12639229Y-10959889D01*
X12639229Y-10959889D02*
X12629706Y-10921793D01*
X12629706Y-10921793D02*
X12629706Y-10874174D01*
X12629706Y-10874174D02*
X12639229Y-10836079D01*
X12639229Y-10836079D02*
X12648753Y-10817031D01*
X12648753Y-10817031D02*
X12658277Y-10807508D01*
X12658277Y-10807508D02*
X12677325Y-10797984D01*
X12839229Y-10997984D02*
X12877325Y-10997984D01*
X12877325Y-10997984D02*
X12896372Y-10988460D01*
X12896372Y-10988460D02*
X12905896Y-10978936D01*
X12905896Y-10978936D02*
X12924944Y-10950365D01*
X12924944Y-10950365D02*
X12934467Y-10912270D01*
X12934467Y-10912270D02*
X12934467Y-10836079D01*
X12934467Y-10836079D02*
X12924944Y-10817031D01*
X12924944Y-10817031D02*
X12915420Y-10807508D01*
X12915420Y-10807508D02*
X12896372Y-10797984D01*
X12896372Y-10797984D02*
X12858277Y-10797984D01*
X12858277Y-10797984D02*
X12839229Y-10807508D01*
X12839229Y-10807508D02*
X12829706Y-10817031D01*
X12829706Y-10817031D02*
X12820182Y-10836079D01*
X12820182Y-10836079D02*
X12820182Y-10883698D01*
X12820182Y-10883698D02*
X12829706Y-10902746D01*
X12829706Y-10902746D02*
X12839229Y-10912270D01*
X12839229Y-10912270D02*
X12858277Y-10921793D01*
X12858277Y-10921793D02*
X12896372Y-10921793D01*
X12896372Y-10921793D02*
X12915420Y-10912270D01*
X12915420Y-10912270D02*
X12924944Y-10902746D01*
X12924944Y-10902746D02*
X12934467Y-10883698D01*
X13048753Y-10883698D02*
X13029706Y-10874174D01*
X13029706Y-10874174D02*
X13020182Y-10864650D01*
X13020182Y-10864650D02*
X13010658Y-10845603D01*
X13010658Y-10845603D02*
X13010658Y-10836079D01*
X13010658Y-10836079D02*
X13020182Y-10817031D01*
X13020182Y-10817031D02*
X13029706Y-10807508D01*
X13029706Y-10807508D02*
X13048753Y-10797984D01*
X13048753Y-10797984D02*
X13086848Y-10797984D01*
X13086848Y-10797984D02*
X13105896Y-10807508D01*
X13105896Y-10807508D02*
X13115420Y-10817031D01*
X13115420Y-10817031D02*
X13124944Y-10836079D01*
X13124944Y-10836079D02*
X13124944Y-10845603D01*
X13124944Y-10845603D02*
X13115420Y-10864650D01*
X13115420Y-10864650D02*
X13105896Y-10874174D01*
X13105896Y-10874174D02*
X13086848Y-10883698D01*
X13086848Y-10883698D02*
X13048753Y-10883698D01*
X13048753Y-10883698D02*
X13029706Y-10893222D01*
X13029706Y-10893222D02*
X13020182Y-10902746D01*
X13020182Y-10902746D02*
X13010658Y-10921793D01*
X13010658Y-10921793D02*
X13010658Y-10959889D01*
X13010658Y-10959889D02*
X13020182Y-10978936D01*
X13020182Y-10978936D02*
X13029706Y-10988460D01*
X13029706Y-10988460D02*
X13048753Y-10997984D01*
X13048753Y-10997984D02*
X13086848Y-10997984D01*
X13086848Y-10997984D02*
X13105896Y-10988460D01*
X13105896Y-10988460D02*
X13115420Y-10978936D01*
X13115420Y-10978936D02*
X13124944Y-10959889D01*
X13124944Y-10959889D02*
X13124944Y-10921793D01*
X13124944Y-10921793D02*
X13115420Y-10902746D01*
X13115420Y-10902746D02*
X13105896Y-10893222D01*
X13105896Y-10893222D02*
X13086848Y-10883698D01*
X13201134Y-10797984D02*
X13201134Y-10836079D01*
X13277325Y-10797984D02*
X13277325Y-10836079D01*
X13572563Y-11074174D02*
X13563039Y-11064650D01*
X13563039Y-11064650D02*
X13543991Y-11036079D01*
X13543991Y-11036079D02*
X13534468Y-11017031D01*
X13534468Y-11017031D02*
X13524944Y-10988460D01*
X13524944Y-10988460D02*
X13515420Y-10940841D01*
X13515420Y-10940841D02*
X13515420Y-10902746D01*
X13515420Y-10902746D02*
X13524944Y-10855127D01*
X13524944Y-10855127D02*
X13534468Y-10826555D01*
X13534468Y-10826555D02*
X13543991Y-10807508D01*
X13543991Y-10807508D02*
X13563039Y-10778936D01*
X13563039Y-10778936D02*
X13572563Y-10769412D01*
X13629706Y-10797984D02*
X13763039Y-10797984D01*
X13763039Y-10797984D02*
X13677325Y-10997984D01*
X13991610Y-10997984D02*
X13991610Y-10797984D01*
X14077325Y-10997984D02*
X14077325Y-10893222D01*
X14077325Y-10893222D02*
X14067801Y-10874174D01*
X14067801Y-10874174D02*
X14048753Y-10864650D01*
X14048753Y-10864650D02*
X14020182Y-10864650D01*
X14020182Y-10864650D02*
X14001134Y-10874174D01*
X14001134Y-10874174D02*
X13991610Y-10883698D01*
X14201134Y-10997984D02*
X14182087Y-10988460D01*
X14182087Y-10988460D02*
X14172563Y-10978936D01*
X14172563Y-10978936D02*
X14163039Y-10959889D01*
X14163039Y-10959889D02*
X14163039Y-10902746D01*
X14163039Y-10902746D02*
X14172563Y-10883698D01*
X14172563Y-10883698D02*
X14182087Y-10874174D01*
X14182087Y-10874174D02*
X14201134Y-10864650D01*
X14201134Y-10864650D02*
X14229706Y-10864650D01*
X14229706Y-10864650D02*
X14248753Y-10874174D01*
X14248753Y-10874174D02*
X14258277Y-10883698D01*
X14258277Y-10883698D02*
X14267801Y-10902746D01*
X14267801Y-10902746D02*
X14267801Y-10959889D01*
X14267801Y-10959889D02*
X14258277Y-10978936D01*
X14258277Y-10978936D02*
X14248753Y-10988460D01*
X14248753Y-10988460D02*
X14229706Y-10997984D01*
X14229706Y-10997984D02*
X14201134Y-10997984D01*
X14382087Y-10997984D02*
X14363039Y-10988460D01*
X14363039Y-10988460D02*
X14353515Y-10969412D01*
X14353515Y-10969412D02*
X14353515Y-10797984D01*
X14534468Y-10988460D02*
X14515420Y-10997984D01*
X14515420Y-10997984D02*
X14477325Y-10997984D01*
X14477325Y-10997984D02*
X14458277Y-10988460D01*
X14458277Y-10988460D02*
X14448753Y-10969412D01*
X14448753Y-10969412D02*
X14448753Y-10893222D01*
X14448753Y-10893222D02*
X14458277Y-10874174D01*
X14458277Y-10874174D02*
X14477325Y-10864650D01*
X14477325Y-10864650D02*
X14515420Y-10864650D01*
X14515420Y-10864650D02*
X14534468Y-10874174D01*
X14534468Y-10874174D02*
X14543991Y-10893222D01*
X14543991Y-10893222D02*
X14543991Y-10912270D01*
X14543991Y-10912270D02*
X14448753Y-10931317D01*
X14620182Y-10988460D02*
X14639230Y-10997984D01*
X14639230Y-10997984D02*
X14677325Y-10997984D01*
X14677325Y-10997984D02*
X14696372Y-10988460D01*
X14696372Y-10988460D02*
X14705896Y-10969412D01*
X14705896Y-10969412D02*
X14705896Y-10959889D01*
X14705896Y-10959889D02*
X14696372Y-10940841D01*
X14696372Y-10940841D02*
X14677325Y-10931317D01*
X14677325Y-10931317D02*
X14648753Y-10931317D01*
X14648753Y-10931317D02*
X14629706Y-10921793D01*
X14629706Y-10921793D02*
X14620182Y-10902746D01*
X14620182Y-10902746D02*
X14620182Y-10893222D01*
X14620182Y-10893222D02*
X14629706Y-10874174D01*
X14629706Y-10874174D02*
X14648753Y-10864650D01*
X14648753Y-10864650D02*
X14677325Y-10864650D01*
X14677325Y-10864650D02*
X14696372Y-10874174D01*
X14772563Y-11074174D02*
X14782087Y-11064650D01*
X14782087Y-11064650D02*
X14801134Y-11036079D01*
X14801134Y-11036079D02*
X14810658Y-11017031D01*
X14810658Y-11017031D02*
X14820182Y-10988460D01*
X14820182Y-10988460D02*
X14829706Y-10940841D01*
X14829706Y-10940841D02*
X14829706Y-10902746D01*
X14829706Y-10902746D02*
X14820182Y-10855127D01*
X14820182Y-10855127D02*
X14810658Y-10826555D01*
X14810658Y-10826555D02*
X14801134Y-10807508D01*
X14801134Y-10807508D02*
X14782087Y-10778936D01*
X14782087Y-10778936D02*
X14772563Y-10769412D01*
D12*
X9982500Y-11155500D02*
X9982500Y-11185500D01*
X9967500Y-11170500D02*
X9997500Y-11170500D01*
D11*
X10296372Y-11061984D02*
X10315420Y-11061984D01*
X10315420Y-11061984D02*
X10334467Y-11071508D01*
X10334467Y-11071508D02*
X10343991Y-11081031D01*
X10343991Y-11081031D02*
X10353515Y-11100079D01*
X10353515Y-11100079D02*
X10363039Y-11138174D01*
X10363039Y-11138174D02*
X10363039Y-11185793D01*
X10363039Y-11185793D02*
X10353515Y-11223888D01*
X10353515Y-11223888D02*
X10343991Y-11242936D01*
X10343991Y-11242936D02*
X10334467Y-11252460D01*
X10334467Y-11252460D02*
X10315420Y-11261984D01*
X10315420Y-11261984D02*
X10296372Y-11261984D01*
X10296372Y-11261984D02*
X10277324Y-11252460D01*
X10277324Y-11252460D02*
X10267801Y-11242936D01*
X10267801Y-11242936D02*
X10258277Y-11223888D01*
X10258277Y-11223888D02*
X10248753Y-11185793D01*
X10248753Y-11185793D02*
X10248753Y-11138174D01*
X10248753Y-11138174D02*
X10258277Y-11100079D01*
X10258277Y-11100079D02*
X10267801Y-11081031D01*
X10267801Y-11081031D02*
X10277324Y-11071508D01*
X10277324Y-11071508D02*
X10296372Y-11061984D01*
X10448753Y-11242936D02*
X10458277Y-11252460D01*
X10458277Y-11252460D02*
X10448753Y-11261984D01*
X10448753Y-11261984D02*
X10439229Y-11252460D01*
X10439229Y-11252460D02*
X10448753Y-11242936D01*
X10448753Y-11242936D02*
X10448753Y-11261984D01*
X10524944Y-11061984D02*
X10648753Y-11061984D01*
X10648753Y-11061984D02*
X10582086Y-11138174D01*
X10582086Y-11138174D02*
X10610658Y-11138174D01*
X10610658Y-11138174D02*
X10629705Y-11147698D01*
X10629705Y-11147698D02*
X10639229Y-11157222D01*
X10639229Y-11157222D02*
X10648753Y-11176270D01*
X10648753Y-11176270D02*
X10648753Y-11223888D01*
X10648753Y-11223888D02*
X10639229Y-11242936D01*
X10639229Y-11242936D02*
X10629705Y-11252460D01*
X10629705Y-11252460D02*
X10610658Y-11261984D01*
X10610658Y-11261984D02*
X10553515Y-11261984D01*
X10553515Y-11261984D02*
X10534467Y-11252460D01*
X10534467Y-11252460D02*
X10524944Y-11242936D01*
X10772563Y-11061984D02*
X10791610Y-11061984D01*
X10791610Y-11061984D02*
X10810658Y-11071508D01*
X10810658Y-11071508D02*
X10820182Y-11081031D01*
X10820182Y-11081031D02*
X10829705Y-11100079D01*
X10829705Y-11100079D02*
X10839229Y-11138174D01*
X10839229Y-11138174D02*
X10839229Y-11185793D01*
X10839229Y-11185793D02*
X10829705Y-11223888D01*
X10829705Y-11223888D02*
X10820182Y-11242936D01*
X10820182Y-11242936D02*
X10810658Y-11252460D01*
X10810658Y-11252460D02*
X10791610Y-11261984D01*
X10791610Y-11261984D02*
X10772563Y-11261984D01*
X10772563Y-11261984D02*
X10753515Y-11252460D01*
X10753515Y-11252460D02*
X10743991Y-11242936D01*
X10743991Y-11242936D02*
X10734467Y-11223888D01*
X10734467Y-11223888D02*
X10724944Y-11185793D01*
X10724944Y-11185793D02*
X10724944Y-11138174D01*
X10724944Y-11138174D02*
X10734467Y-11100079D01*
X10734467Y-11100079D02*
X10743991Y-11081031D01*
X10743991Y-11081031D02*
X10753515Y-11071508D01*
X10753515Y-11071508D02*
X10772563Y-11061984D01*
X10963039Y-11061984D02*
X10982086Y-11061984D01*
X10982086Y-11061984D02*
X11001134Y-11071508D01*
X11001134Y-11071508D02*
X11010658Y-11081031D01*
X11010658Y-11081031D02*
X11020182Y-11100079D01*
X11020182Y-11100079D02*
X11029705Y-11138174D01*
X11029705Y-11138174D02*
X11029705Y-11185793D01*
X11029705Y-11185793D02*
X11020182Y-11223888D01*
X11020182Y-11223888D02*
X11010658Y-11242936D01*
X11010658Y-11242936D02*
X11001134Y-11252460D01*
X11001134Y-11252460D02*
X10982086Y-11261984D01*
X10982086Y-11261984D02*
X10963039Y-11261984D01*
X10963039Y-11261984D02*
X10943991Y-11252460D01*
X10943991Y-11252460D02*
X10934467Y-11242936D01*
X10934467Y-11242936D02*
X10924944Y-11223888D01*
X10924944Y-11223888D02*
X10915420Y-11185793D01*
X10915420Y-11185793D02*
X10915420Y-11138174D01*
X10915420Y-11138174D02*
X10924944Y-11100079D01*
X10924944Y-11100079D02*
X10934467Y-11081031D01*
X10934467Y-11081031D02*
X10943991Y-11071508D01*
X10943991Y-11071508D02*
X10963039Y-11061984D01*
X11115420Y-11261984D02*
X11115420Y-11128650D01*
X11115420Y-11147698D02*
X11124944Y-11138174D01*
X11124944Y-11138174D02*
X11143991Y-11128650D01*
X11143991Y-11128650D02*
X11172563Y-11128650D01*
X11172563Y-11128650D02*
X11191610Y-11138174D01*
X11191610Y-11138174D02*
X11201134Y-11157222D01*
X11201134Y-11157222D02*
X11201134Y-11261984D01*
X11201134Y-11157222D02*
X11210658Y-11138174D01*
X11210658Y-11138174D02*
X11229705Y-11128650D01*
X11229705Y-11128650D02*
X11258277Y-11128650D01*
X11258277Y-11128650D02*
X11277324Y-11138174D01*
X11277324Y-11138174D02*
X11286848Y-11157222D01*
X11286848Y-11157222D02*
X11286848Y-11261984D01*
X11382086Y-11261984D02*
X11382086Y-11128650D01*
X11382086Y-11147698D02*
X11391610Y-11138174D01*
X11391610Y-11138174D02*
X11410658Y-11128650D01*
X11410658Y-11128650D02*
X11439229Y-11128650D01*
X11439229Y-11128650D02*
X11458277Y-11138174D01*
X11458277Y-11138174D02*
X11467801Y-11157222D01*
X11467801Y-11157222D02*
X11467801Y-11261984D01*
X11467801Y-11157222D02*
X11477324Y-11138174D01*
X11477324Y-11138174D02*
X11496372Y-11128650D01*
X11496372Y-11128650D02*
X11524943Y-11128650D01*
X11524943Y-11128650D02*
X11543991Y-11138174D01*
X11543991Y-11138174D02*
X11553515Y-11157222D01*
X11553515Y-11157222D02*
X11553515Y-11261984D01*
X11943991Y-11052460D02*
X11772563Y-11309603D01*
X12201134Y-11061984D02*
X12220182Y-11061984D01*
X12220182Y-11061984D02*
X12239229Y-11071508D01*
X12239229Y-11071508D02*
X12248753Y-11081031D01*
X12248753Y-11081031D02*
X12258277Y-11100079D01*
X12258277Y-11100079D02*
X12267801Y-11138174D01*
X12267801Y-11138174D02*
X12267801Y-11185793D01*
X12267801Y-11185793D02*
X12258277Y-11223888D01*
X12258277Y-11223888D02*
X12248753Y-11242936D01*
X12248753Y-11242936D02*
X12239229Y-11252460D01*
X12239229Y-11252460D02*
X12220182Y-11261984D01*
X12220182Y-11261984D02*
X12201134Y-11261984D01*
X12201134Y-11261984D02*
X12182086Y-11252460D01*
X12182086Y-11252460D02*
X12172563Y-11242936D01*
X12172563Y-11242936D02*
X12163039Y-11223888D01*
X12163039Y-11223888D02*
X12153515Y-11185793D01*
X12153515Y-11185793D02*
X12153515Y-11138174D01*
X12153515Y-11138174D02*
X12163039Y-11100079D01*
X12163039Y-11100079D02*
X12172563Y-11081031D01*
X12172563Y-11081031D02*
X12182086Y-11071508D01*
X12182086Y-11071508D02*
X12201134Y-11061984D01*
X12353515Y-11242936D02*
X12363039Y-11252460D01*
X12363039Y-11252460D02*
X12353515Y-11261984D01*
X12353515Y-11261984D02*
X12343991Y-11252460D01*
X12343991Y-11252460D02*
X12353515Y-11242936D01*
X12353515Y-11242936D02*
X12353515Y-11261984D01*
X12486848Y-11061984D02*
X12505896Y-11061984D01*
X12505896Y-11061984D02*
X12524944Y-11071508D01*
X12524944Y-11071508D02*
X12534467Y-11081031D01*
X12534467Y-11081031D02*
X12543991Y-11100079D01*
X12543991Y-11100079D02*
X12553515Y-11138174D01*
X12553515Y-11138174D02*
X12553515Y-11185793D01*
X12553515Y-11185793D02*
X12543991Y-11223888D01*
X12543991Y-11223888D02*
X12534467Y-11242936D01*
X12534467Y-11242936D02*
X12524944Y-11252460D01*
X12524944Y-11252460D02*
X12505896Y-11261984D01*
X12505896Y-11261984D02*
X12486848Y-11261984D01*
X12486848Y-11261984D02*
X12467801Y-11252460D01*
X12467801Y-11252460D02*
X12458277Y-11242936D01*
X12458277Y-11242936D02*
X12448753Y-11223888D01*
X12448753Y-11223888D02*
X12439229Y-11185793D01*
X12439229Y-11185793D02*
X12439229Y-11138174D01*
X12439229Y-11138174D02*
X12448753Y-11100079D01*
X12448753Y-11100079D02*
X12458277Y-11081031D01*
X12458277Y-11081031D02*
X12467801Y-11071508D01*
X12467801Y-11071508D02*
X12486848Y-11061984D01*
X12743991Y-11261984D02*
X12629706Y-11261984D01*
X12686848Y-11261984D02*
X12686848Y-11061984D01*
X12686848Y-11061984D02*
X12667801Y-11090555D01*
X12667801Y-11090555D02*
X12648753Y-11109603D01*
X12648753Y-11109603D02*
X12629706Y-11119127D01*
X12934467Y-11261984D02*
X12820182Y-11261984D01*
X12877325Y-11261984D02*
X12877325Y-11061984D01*
X12877325Y-11061984D02*
X12858277Y-11090555D01*
X12858277Y-11090555D02*
X12839229Y-11109603D01*
X12839229Y-11109603D02*
X12820182Y-11119127D01*
X13048753Y-11147698D02*
X13029706Y-11138174D01*
X13029706Y-11138174D02*
X13020182Y-11128650D01*
X13020182Y-11128650D02*
X13010658Y-11109603D01*
X13010658Y-11109603D02*
X13010658Y-11100079D01*
X13010658Y-11100079D02*
X13020182Y-11081031D01*
X13020182Y-11081031D02*
X13029706Y-11071508D01*
X13029706Y-11071508D02*
X13048753Y-11061984D01*
X13048753Y-11061984D02*
X13086848Y-11061984D01*
X13086848Y-11061984D02*
X13105896Y-11071508D01*
X13105896Y-11071508D02*
X13115420Y-11081031D01*
X13115420Y-11081031D02*
X13124944Y-11100079D01*
X13124944Y-11100079D02*
X13124944Y-11109603D01*
X13124944Y-11109603D02*
X13115420Y-11128650D01*
X13115420Y-11128650D02*
X13105896Y-11138174D01*
X13105896Y-11138174D02*
X13086848Y-11147698D01*
X13086848Y-11147698D02*
X13048753Y-11147698D01*
X13048753Y-11147698D02*
X13029706Y-11157222D01*
X13029706Y-11157222D02*
X13020182Y-11166746D01*
X13020182Y-11166746D02*
X13010658Y-11185793D01*
X13010658Y-11185793D02*
X13010658Y-11223888D01*
X13010658Y-11223888D02*
X13020182Y-11242936D01*
X13020182Y-11242936D02*
X13029706Y-11252460D01*
X13029706Y-11252460D02*
X13048753Y-11261984D01*
X13048753Y-11261984D02*
X13086848Y-11261984D01*
X13086848Y-11261984D02*
X13105896Y-11252460D01*
X13105896Y-11252460D02*
X13115420Y-11242936D01*
X13115420Y-11242936D02*
X13124944Y-11223888D01*
X13124944Y-11223888D02*
X13124944Y-11185793D01*
X13124944Y-11185793D02*
X13115420Y-11166746D01*
X13115420Y-11166746D02*
X13105896Y-11157222D01*
X13105896Y-11157222D02*
X13086848Y-11147698D01*
X13201134Y-11061984D02*
X13201134Y-11100079D01*
X13277325Y-11061984D02*
X13277325Y-11100079D01*
X13572563Y-11338174D02*
X13563039Y-11328650D01*
X13563039Y-11328650D02*
X13543991Y-11300079D01*
X13543991Y-11300079D02*
X13534468Y-11281031D01*
X13534468Y-11281031D02*
X13524944Y-11252460D01*
X13524944Y-11252460D02*
X13515420Y-11204841D01*
X13515420Y-11204841D02*
X13515420Y-11166746D01*
X13515420Y-11166746D02*
X13524944Y-11119127D01*
X13524944Y-11119127D02*
X13534468Y-11090555D01*
X13534468Y-11090555D02*
X13543991Y-11071508D01*
X13543991Y-11071508D02*
X13563039Y-11042936D01*
X13563039Y-11042936D02*
X13572563Y-11033412D01*
X13629706Y-11061984D02*
X13753515Y-11061984D01*
X13753515Y-11061984D02*
X13686848Y-11138174D01*
X13686848Y-11138174D02*
X13715420Y-11138174D01*
X13715420Y-11138174D02*
X13734468Y-11147698D01*
X13734468Y-11147698D02*
X13743991Y-11157222D01*
X13743991Y-11157222D02*
X13753515Y-11176270D01*
X13753515Y-11176270D02*
X13753515Y-11223888D01*
X13753515Y-11223888D02*
X13743991Y-11242936D01*
X13743991Y-11242936D02*
X13734468Y-11252460D01*
X13734468Y-11252460D02*
X13715420Y-11261984D01*
X13715420Y-11261984D02*
X13658277Y-11261984D01*
X13658277Y-11261984D02*
X13639229Y-11252460D01*
X13639229Y-11252460D02*
X13629706Y-11242936D01*
X13820182Y-11061984D02*
X13943991Y-11061984D01*
X13943991Y-11061984D02*
X13877325Y-11138174D01*
X13877325Y-11138174D02*
X13905896Y-11138174D01*
X13905896Y-11138174D02*
X13924944Y-11147698D01*
X13924944Y-11147698D02*
X13934468Y-11157222D01*
X13934468Y-11157222D02*
X13943991Y-11176270D01*
X13943991Y-11176270D02*
X13943991Y-11223888D01*
X13943991Y-11223888D02*
X13934468Y-11242936D01*
X13934468Y-11242936D02*
X13924944Y-11252460D01*
X13924944Y-11252460D02*
X13905896Y-11261984D01*
X13905896Y-11261984D02*
X13848753Y-11261984D01*
X13848753Y-11261984D02*
X13829706Y-11252460D01*
X13829706Y-11252460D02*
X13820182Y-11242936D01*
X14182087Y-11261984D02*
X14182087Y-11061984D01*
X14267801Y-11261984D02*
X14267801Y-11157222D01*
X14267801Y-11157222D02*
X14258277Y-11138174D01*
X14258277Y-11138174D02*
X14239230Y-11128650D01*
X14239230Y-11128650D02*
X14210658Y-11128650D01*
X14210658Y-11128650D02*
X14191610Y-11138174D01*
X14191610Y-11138174D02*
X14182087Y-11147698D01*
X14391610Y-11261984D02*
X14372563Y-11252460D01*
X14372563Y-11252460D02*
X14363039Y-11242936D01*
X14363039Y-11242936D02*
X14353515Y-11223888D01*
X14353515Y-11223888D02*
X14353515Y-11166746D01*
X14353515Y-11166746D02*
X14363039Y-11147698D01*
X14363039Y-11147698D02*
X14372563Y-11138174D01*
X14372563Y-11138174D02*
X14391610Y-11128650D01*
X14391610Y-11128650D02*
X14420182Y-11128650D01*
X14420182Y-11128650D02*
X14439230Y-11138174D01*
X14439230Y-11138174D02*
X14448753Y-11147698D01*
X14448753Y-11147698D02*
X14458277Y-11166746D01*
X14458277Y-11166746D02*
X14458277Y-11223888D01*
X14458277Y-11223888D02*
X14448753Y-11242936D01*
X14448753Y-11242936D02*
X14439230Y-11252460D01*
X14439230Y-11252460D02*
X14420182Y-11261984D01*
X14420182Y-11261984D02*
X14391610Y-11261984D01*
X14572563Y-11261984D02*
X14553515Y-11252460D01*
X14553515Y-11252460D02*
X14543991Y-11233412D01*
X14543991Y-11233412D02*
X14543991Y-11061984D01*
X14724944Y-11252460D02*
X14705896Y-11261984D01*
X14705896Y-11261984D02*
X14667801Y-11261984D01*
X14667801Y-11261984D02*
X14648753Y-11252460D01*
X14648753Y-11252460D02*
X14639230Y-11233412D01*
X14639230Y-11233412D02*
X14639230Y-11157222D01*
X14639230Y-11157222D02*
X14648753Y-11138174D01*
X14648753Y-11138174D02*
X14667801Y-11128650D01*
X14667801Y-11128650D02*
X14705896Y-11128650D01*
X14705896Y-11128650D02*
X14724944Y-11138174D01*
X14724944Y-11138174D02*
X14734468Y-11157222D01*
X14734468Y-11157222D02*
X14734468Y-11176270D01*
X14734468Y-11176270D02*
X14639230Y-11195317D01*
X14810658Y-11252460D02*
X14829706Y-11261984D01*
X14829706Y-11261984D02*
X14867801Y-11261984D01*
X14867801Y-11261984D02*
X14886849Y-11252460D01*
X14886849Y-11252460D02*
X14896372Y-11233412D01*
X14896372Y-11233412D02*
X14896372Y-11223888D01*
X14896372Y-11223888D02*
X14886849Y-11204841D01*
X14886849Y-11204841D02*
X14867801Y-11195317D01*
X14867801Y-11195317D02*
X14839230Y-11195317D01*
X14839230Y-11195317D02*
X14820182Y-11185793D01*
X14820182Y-11185793D02*
X14810658Y-11166746D01*
X14810658Y-11166746D02*
X14810658Y-11157222D01*
X14810658Y-11157222D02*
X14820182Y-11138174D01*
X14820182Y-11138174D02*
X14839230Y-11128650D01*
X14839230Y-11128650D02*
X14867801Y-11128650D01*
X14867801Y-11128650D02*
X14886849Y-11138174D01*
X14963039Y-11338174D02*
X14972563Y-11328650D01*
X14972563Y-11328650D02*
X14991611Y-11300079D01*
X14991611Y-11300079D02*
X15001134Y-11281031D01*
X15001134Y-11281031D02*
X15010658Y-11252460D01*
X15010658Y-11252460D02*
X15020182Y-11204841D01*
X15020182Y-11204841D02*
X15020182Y-11166746D01*
X15020182Y-11166746D02*
X15010658Y-11119127D01*
X15010658Y-11119127D02*
X15001134Y-11090555D01*
X15001134Y-11090555D02*
X14991611Y-11071508D01*
X14991611Y-11071508D02*
X14972563Y-11042936D01*
X14972563Y-11042936D02*
X14963039Y-11033412D01*
D12*
X9987981Y-11457481D02*
X9987981Y-11411519D01*
X9942019Y-11411519D01*
X9942019Y-11457481D01*
X9987981Y-11457481D01*
D11*
X10296372Y-11325984D02*
X10315420Y-11325984D01*
X10315420Y-11325984D02*
X10334467Y-11335508D01*
X10334467Y-11335508D02*
X10343991Y-11345031D01*
X10343991Y-11345031D02*
X10353515Y-11364079D01*
X10353515Y-11364079D02*
X10363039Y-11402174D01*
X10363039Y-11402174D02*
X10363039Y-11449793D01*
X10363039Y-11449793D02*
X10353515Y-11487888D01*
X10353515Y-11487888D02*
X10343991Y-11506936D01*
X10343991Y-11506936D02*
X10334467Y-11516460D01*
X10334467Y-11516460D02*
X10315420Y-11525984D01*
X10315420Y-11525984D02*
X10296372Y-11525984D01*
X10296372Y-11525984D02*
X10277324Y-11516460D01*
X10277324Y-11516460D02*
X10267801Y-11506936D01*
X10267801Y-11506936D02*
X10258277Y-11487888D01*
X10258277Y-11487888D02*
X10248753Y-11449793D01*
X10248753Y-11449793D02*
X10248753Y-11402174D01*
X10248753Y-11402174D02*
X10258277Y-11364079D01*
X10258277Y-11364079D02*
X10267801Y-11345031D01*
X10267801Y-11345031D02*
X10277324Y-11335508D01*
X10277324Y-11335508D02*
X10296372Y-11325984D01*
X10448753Y-11506936D02*
X10458277Y-11516460D01*
X10458277Y-11516460D02*
X10448753Y-11525984D01*
X10448753Y-11525984D02*
X10439229Y-11516460D01*
X10439229Y-11516460D02*
X10448753Y-11506936D01*
X10448753Y-11506936D02*
X10448753Y-11525984D01*
X10629705Y-11325984D02*
X10591610Y-11325984D01*
X10591610Y-11325984D02*
X10572563Y-11335508D01*
X10572563Y-11335508D02*
X10563039Y-11345031D01*
X10563039Y-11345031D02*
X10543991Y-11373603D01*
X10543991Y-11373603D02*
X10534467Y-11411698D01*
X10534467Y-11411698D02*
X10534467Y-11487888D01*
X10534467Y-11487888D02*
X10543991Y-11506936D01*
X10543991Y-11506936D02*
X10553515Y-11516460D01*
X10553515Y-11516460D02*
X10572563Y-11525984D01*
X10572563Y-11525984D02*
X10610658Y-11525984D01*
X10610658Y-11525984D02*
X10629705Y-11516460D01*
X10629705Y-11516460D02*
X10639229Y-11506936D01*
X10639229Y-11506936D02*
X10648753Y-11487888D01*
X10648753Y-11487888D02*
X10648753Y-11440269D01*
X10648753Y-11440269D02*
X10639229Y-11421222D01*
X10639229Y-11421222D02*
X10629705Y-11411698D01*
X10629705Y-11411698D02*
X10610658Y-11402174D01*
X10610658Y-11402174D02*
X10572563Y-11402174D01*
X10572563Y-11402174D02*
X10553515Y-11411698D01*
X10553515Y-11411698D02*
X10543991Y-11421222D01*
X10543991Y-11421222D02*
X10534467Y-11440269D01*
X10829705Y-11325984D02*
X10734467Y-11325984D01*
X10734467Y-11325984D02*
X10724944Y-11421222D01*
X10724944Y-11421222D02*
X10734467Y-11411698D01*
X10734467Y-11411698D02*
X10753515Y-11402174D01*
X10753515Y-11402174D02*
X10801134Y-11402174D01*
X10801134Y-11402174D02*
X10820182Y-11411698D01*
X10820182Y-11411698D02*
X10829705Y-11421222D01*
X10829705Y-11421222D02*
X10839229Y-11440269D01*
X10839229Y-11440269D02*
X10839229Y-11487888D01*
X10839229Y-11487888D02*
X10829705Y-11506936D01*
X10829705Y-11506936D02*
X10820182Y-11516460D01*
X10820182Y-11516460D02*
X10801134Y-11525984D01*
X10801134Y-11525984D02*
X10753515Y-11525984D01*
X10753515Y-11525984D02*
X10734467Y-11516460D01*
X10734467Y-11516460D02*
X10724944Y-11506936D01*
X10963039Y-11325984D02*
X10982086Y-11325984D01*
X10982086Y-11325984D02*
X11001134Y-11335508D01*
X11001134Y-11335508D02*
X11010658Y-11345031D01*
X11010658Y-11345031D02*
X11020182Y-11364079D01*
X11020182Y-11364079D02*
X11029705Y-11402174D01*
X11029705Y-11402174D02*
X11029705Y-11449793D01*
X11029705Y-11449793D02*
X11020182Y-11487888D01*
X11020182Y-11487888D02*
X11010658Y-11506936D01*
X11010658Y-11506936D02*
X11001134Y-11516460D01*
X11001134Y-11516460D02*
X10982086Y-11525984D01*
X10982086Y-11525984D02*
X10963039Y-11525984D01*
X10963039Y-11525984D02*
X10943991Y-11516460D01*
X10943991Y-11516460D02*
X10934467Y-11506936D01*
X10934467Y-11506936D02*
X10924944Y-11487888D01*
X10924944Y-11487888D02*
X10915420Y-11449793D01*
X10915420Y-11449793D02*
X10915420Y-11402174D01*
X10915420Y-11402174D02*
X10924944Y-11364079D01*
X10924944Y-11364079D02*
X10934467Y-11345031D01*
X10934467Y-11345031D02*
X10943991Y-11335508D01*
X10943991Y-11335508D02*
X10963039Y-11325984D01*
X11115420Y-11525984D02*
X11115420Y-11392650D01*
X11115420Y-11411698D02*
X11124944Y-11402174D01*
X11124944Y-11402174D02*
X11143991Y-11392650D01*
X11143991Y-11392650D02*
X11172563Y-11392650D01*
X11172563Y-11392650D02*
X11191610Y-11402174D01*
X11191610Y-11402174D02*
X11201134Y-11421222D01*
X11201134Y-11421222D02*
X11201134Y-11525984D01*
X11201134Y-11421222D02*
X11210658Y-11402174D01*
X11210658Y-11402174D02*
X11229705Y-11392650D01*
X11229705Y-11392650D02*
X11258277Y-11392650D01*
X11258277Y-11392650D02*
X11277324Y-11402174D01*
X11277324Y-11402174D02*
X11286848Y-11421222D01*
X11286848Y-11421222D02*
X11286848Y-11525984D01*
X11382086Y-11525984D02*
X11382086Y-11392650D01*
X11382086Y-11411698D02*
X11391610Y-11402174D01*
X11391610Y-11402174D02*
X11410658Y-11392650D01*
X11410658Y-11392650D02*
X11439229Y-11392650D01*
X11439229Y-11392650D02*
X11458277Y-11402174D01*
X11458277Y-11402174D02*
X11467801Y-11421222D01*
X11467801Y-11421222D02*
X11467801Y-11525984D01*
X11467801Y-11421222D02*
X11477324Y-11402174D01*
X11477324Y-11402174D02*
X11496372Y-11392650D01*
X11496372Y-11392650D02*
X11524943Y-11392650D01*
X11524943Y-11392650D02*
X11543991Y-11402174D01*
X11543991Y-11402174D02*
X11553515Y-11421222D01*
X11553515Y-11421222D02*
X11553515Y-11525984D01*
X11943991Y-11316460D02*
X11772563Y-11573603D01*
X12201134Y-11325984D02*
X12220182Y-11325984D01*
X12220182Y-11325984D02*
X12239229Y-11335508D01*
X12239229Y-11335508D02*
X12248753Y-11345031D01*
X12248753Y-11345031D02*
X12258277Y-11364079D01*
X12258277Y-11364079D02*
X12267801Y-11402174D01*
X12267801Y-11402174D02*
X12267801Y-11449793D01*
X12267801Y-11449793D02*
X12258277Y-11487888D01*
X12258277Y-11487888D02*
X12248753Y-11506936D01*
X12248753Y-11506936D02*
X12239229Y-11516460D01*
X12239229Y-11516460D02*
X12220182Y-11525984D01*
X12220182Y-11525984D02*
X12201134Y-11525984D01*
X12201134Y-11525984D02*
X12182086Y-11516460D01*
X12182086Y-11516460D02*
X12172563Y-11506936D01*
X12172563Y-11506936D02*
X12163039Y-11487888D01*
X12163039Y-11487888D02*
X12153515Y-11449793D01*
X12153515Y-11449793D02*
X12153515Y-11402174D01*
X12153515Y-11402174D02*
X12163039Y-11364079D01*
X12163039Y-11364079D02*
X12172563Y-11345031D01*
X12172563Y-11345031D02*
X12182086Y-11335508D01*
X12182086Y-11335508D02*
X12201134Y-11325984D01*
X12353515Y-11506936D02*
X12363039Y-11516460D01*
X12363039Y-11516460D02*
X12353515Y-11525984D01*
X12353515Y-11525984D02*
X12343991Y-11516460D01*
X12343991Y-11516460D02*
X12353515Y-11506936D01*
X12353515Y-11506936D02*
X12353515Y-11525984D01*
X12486848Y-11325984D02*
X12505896Y-11325984D01*
X12505896Y-11325984D02*
X12524944Y-11335508D01*
X12524944Y-11335508D02*
X12534467Y-11345031D01*
X12534467Y-11345031D02*
X12543991Y-11364079D01*
X12543991Y-11364079D02*
X12553515Y-11402174D01*
X12553515Y-11402174D02*
X12553515Y-11449793D01*
X12553515Y-11449793D02*
X12543991Y-11487888D01*
X12543991Y-11487888D02*
X12534467Y-11506936D01*
X12534467Y-11506936D02*
X12524944Y-11516460D01*
X12524944Y-11516460D02*
X12505896Y-11525984D01*
X12505896Y-11525984D02*
X12486848Y-11525984D01*
X12486848Y-11525984D02*
X12467801Y-11516460D01*
X12467801Y-11516460D02*
X12458277Y-11506936D01*
X12458277Y-11506936D02*
X12448753Y-11487888D01*
X12448753Y-11487888D02*
X12439229Y-11449793D01*
X12439229Y-11449793D02*
X12439229Y-11402174D01*
X12439229Y-11402174D02*
X12448753Y-11364079D01*
X12448753Y-11364079D02*
X12458277Y-11345031D01*
X12458277Y-11345031D02*
X12467801Y-11335508D01*
X12467801Y-11335508D02*
X12486848Y-11325984D01*
X12629706Y-11345031D02*
X12639229Y-11335508D01*
X12639229Y-11335508D02*
X12658277Y-11325984D01*
X12658277Y-11325984D02*
X12705896Y-11325984D01*
X12705896Y-11325984D02*
X12724944Y-11335508D01*
X12724944Y-11335508D02*
X12734467Y-11345031D01*
X12734467Y-11345031D02*
X12743991Y-11364079D01*
X12743991Y-11364079D02*
X12743991Y-11383127D01*
X12743991Y-11383127D02*
X12734467Y-11411698D01*
X12734467Y-11411698D02*
X12620182Y-11525984D01*
X12620182Y-11525984D02*
X12743991Y-11525984D01*
X12924944Y-11325984D02*
X12829706Y-11325984D01*
X12829706Y-11325984D02*
X12820182Y-11421222D01*
X12820182Y-11421222D02*
X12829706Y-11411698D01*
X12829706Y-11411698D02*
X12848753Y-11402174D01*
X12848753Y-11402174D02*
X12896372Y-11402174D01*
X12896372Y-11402174D02*
X12915420Y-11411698D01*
X12915420Y-11411698D02*
X12924944Y-11421222D01*
X12924944Y-11421222D02*
X12934467Y-11440269D01*
X12934467Y-11440269D02*
X12934467Y-11487888D01*
X12934467Y-11487888D02*
X12924944Y-11506936D01*
X12924944Y-11506936D02*
X12915420Y-11516460D01*
X12915420Y-11516460D02*
X12896372Y-11525984D01*
X12896372Y-11525984D02*
X12848753Y-11525984D01*
X12848753Y-11525984D02*
X12829706Y-11516460D01*
X12829706Y-11516460D02*
X12820182Y-11506936D01*
X13105896Y-11325984D02*
X13067801Y-11325984D01*
X13067801Y-11325984D02*
X13048753Y-11335508D01*
X13048753Y-11335508D02*
X13039229Y-11345031D01*
X13039229Y-11345031D02*
X13020182Y-11373603D01*
X13020182Y-11373603D02*
X13010658Y-11411698D01*
X13010658Y-11411698D02*
X13010658Y-11487888D01*
X13010658Y-11487888D02*
X13020182Y-11506936D01*
X13020182Y-11506936D02*
X13029706Y-11516460D01*
X13029706Y-11516460D02*
X13048753Y-11525984D01*
X13048753Y-11525984D02*
X13086848Y-11525984D01*
X13086848Y-11525984D02*
X13105896Y-11516460D01*
X13105896Y-11516460D02*
X13115420Y-11506936D01*
X13115420Y-11506936D02*
X13124944Y-11487888D01*
X13124944Y-11487888D02*
X13124944Y-11440269D01*
X13124944Y-11440269D02*
X13115420Y-11421222D01*
X13115420Y-11421222D02*
X13105896Y-11411698D01*
X13105896Y-11411698D02*
X13086848Y-11402174D01*
X13086848Y-11402174D02*
X13048753Y-11402174D01*
X13048753Y-11402174D02*
X13029706Y-11411698D01*
X13029706Y-11411698D02*
X13020182Y-11421222D01*
X13020182Y-11421222D02*
X13010658Y-11440269D01*
X13201134Y-11325984D02*
X13201134Y-11364079D01*
X13277325Y-11325984D02*
X13277325Y-11364079D01*
X13572563Y-11602174D02*
X13563039Y-11592650D01*
X13563039Y-11592650D02*
X13543991Y-11564079D01*
X13543991Y-11564079D02*
X13534468Y-11545031D01*
X13534468Y-11545031D02*
X13524944Y-11516460D01*
X13524944Y-11516460D02*
X13515420Y-11468841D01*
X13515420Y-11468841D02*
X13515420Y-11430746D01*
X13515420Y-11430746D02*
X13524944Y-11383127D01*
X13524944Y-11383127D02*
X13534468Y-11354555D01*
X13534468Y-11354555D02*
X13543991Y-11335508D01*
X13543991Y-11335508D02*
X13563039Y-11306936D01*
X13563039Y-11306936D02*
X13572563Y-11297412D01*
X13686848Y-11325984D02*
X13705896Y-11325984D01*
X13705896Y-11325984D02*
X13724944Y-11335508D01*
X13724944Y-11335508D02*
X13734468Y-11345031D01*
X13734468Y-11345031D02*
X13743991Y-11364079D01*
X13743991Y-11364079D02*
X13753515Y-11402174D01*
X13753515Y-11402174D02*
X13753515Y-11449793D01*
X13753515Y-11449793D02*
X13743991Y-11487888D01*
X13743991Y-11487888D02*
X13734468Y-11506936D01*
X13734468Y-11506936D02*
X13724944Y-11516460D01*
X13724944Y-11516460D02*
X13705896Y-11525984D01*
X13705896Y-11525984D02*
X13686848Y-11525984D01*
X13686848Y-11525984D02*
X13667801Y-11516460D01*
X13667801Y-11516460D02*
X13658277Y-11506936D01*
X13658277Y-11506936D02*
X13648753Y-11487888D01*
X13648753Y-11487888D02*
X13639229Y-11449793D01*
X13639229Y-11449793D02*
X13639229Y-11402174D01*
X13639229Y-11402174D02*
X13648753Y-11364079D01*
X13648753Y-11364079D02*
X13658277Y-11345031D01*
X13658277Y-11345031D02*
X13667801Y-11335508D01*
X13667801Y-11335508D02*
X13686848Y-11325984D01*
X13991610Y-11525984D02*
X13991610Y-11325984D01*
X14077325Y-11525984D02*
X14077325Y-11421222D01*
X14077325Y-11421222D02*
X14067801Y-11402174D01*
X14067801Y-11402174D02*
X14048753Y-11392650D01*
X14048753Y-11392650D02*
X14020182Y-11392650D01*
X14020182Y-11392650D02*
X14001134Y-11402174D01*
X14001134Y-11402174D02*
X13991610Y-11411698D01*
X14201134Y-11525984D02*
X14182087Y-11516460D01*
X14182087Y-11516460D02*
X14172563Y-11506936D01*
X14172563Y-11506936D02*
X14163039Y-11487888D01*
X14163039Y-11487888D02*
X14163039Y-11430746D01*
X14163039Y-11430746D02*
X14172563Y-11411698D01*
X14172563Y-11411698D02*
X14182087Y-11402174D01*
X14182087Y-11402174D02*
X14201134Y-11392650D01*
X14201134Y-11392650D02*
X14229706Y-11392650D01*
X14229706Y-11392650D02*
X14248753Y-11402174D01*
X14248753Y-11402174D02*
X14258277Y-11411698D01*
X14258277Y-11411698D02*
X14267801Y-11430746D01*
X14267801Y-11430746D02*
X14267801Y-11487888D01*
X14267801Y-11487888D02*
X14258277Y-11506936D01*
X14258277Y-11506936D02*
X14248753Y-11516460D01*
X14248753Y-11516460D02*
X14229706Y-11525984D01*
X14229706Y-11525984D02*
X14201134Y-11525984D01*
X14382087Y-11525984D02*
X14363039Y-11516460D01*
X14363039Y-11516460D02*
X14353515Y-11497412D01*
X14353515Y-11497412D02*
X14353515Y-11325984D01*
X14534468Y-11516460D02*
X14515420Y-11525984D01*
X14515420Y-11525984D02*
X14477325Y-11525984D01*
X14477325Y-11525984D02*
X14458277Y-11516460D01*
X14458277Y-11516460D02*
X14448753Y-11497412D01*
X14448753Y-11497412D02*
X14448753Y-11421222D01*
X14448753Y-11421222D02*
X14458277Y-11402174D01*
X14458277Y-11402174D02*
X14477325Y-11392650D01*
X14477325Y-11392650D02*
X14515420Y-11392650D01*
X14515420Y-11392650D02*
X14534468Y-11402174D01*
X14534468Y-11402174D02*
X14543991Y-11421222D01*
X14543991Y-11421222D02*
X14543991Y-11440269D01*
X14543991Y-11440269D02*
X14448753Y-11459317D01*
X14620182Y-11516460D02*
X14639230Y-11525984D01*
X14639230Y-11525984D02*
X14677325Y-11525984D01*
X14677325Y-11525984D02*
X14696372Y-11516460D01*
X14696372Y-11516460D02*
X14705896Y-11497412D01*
X14705896Y-11497412D02*
X14705896Y-11487888D01*
X14705896Y-11487888D02*
X14696372Y-11468841D01*
X14696372Y-11468841D02*
X14677325Y-11459317D01*
X14677325Y-11459317D02*
X14648753Y-11459317D01*
X14648753Y-11459317D02*
X14629706Y-11449793D01*
X14629706Y-11449793D02*
X14620182Y-11430746D01*
X14620182Y-11430746D02*
X14620182Y-11421222D01*
X14620182Y-11421222D02*
X14629706Y-11402174D01*
X14629706Y-11402174D02*
X14648753Y-11392650D01*
X14648753Y-11392650D02*
X14677325Y-11392650D01*
X14677325Y-11392650D02*
X14696372Y-11402174D01*
X14943992Y-11449793D02*
X15096373Y-11449793D01*
X15020182Y-11525984D02*
X15020182Y-11373603D01*
X15429706Y-11392650D02*
X15429706Y-11525984D01*
X15382087Y-11316460D02*
X15334468Y-11459317D01*
X15334468Y-11459317D02*
X15458277Y-11459317D01*
X15677325Y-11516460D02*
X15696373Y-11525984D01*
X15696373Y-11525984D02*
X15734468Y-11525984D01*
X15734468Y-11525984D02*
X15753515Y-11516460D01*
X15753515Y-11516460D02*
X15763039Y-11497412D01*
X15763039Y-11497412D02*
X15763039Y-11487888D01*
X15763039Y-11487888D02*
X15753515Y-11468841D01*
X15753515Y-11468841D02*
X15734468Y-11459317D01*
X15734468Y-11459317D02*
X15705896Y-11459317D01*
X15705896Y-11459317D02*
X15686849Y-11449793D01*
X15686849Y-11449793D02*
X15677325Y-11430746D01*
X15677325Y-11430746D02*
X15677325Y-11421222D01*
X15677325Y-11421222D02*
X15686849Y-11402174D01*
X15686849Y-11402174D02*
X15705896Y-11392650D01*
X15705896Y-11392650D02*
X15734468Y-11392650D01*
X15734468Y-11392650D02*
X15753515Y-11402174D01*
X15877325Y-11525984D02*
X15858277Y-11516460D01*
X15858277Y-11516460D02*
X15848754Y-11497412D01*
X15848754Y-11497412D02*
X15848754Y-11325984D01*
X15982087Y-11525984D02*
X15963039Y-11516460D01*
X15963039Y-11516460D02*
X15953515Y-11506936D01*
X15953515Y-11506936D02*
X15943992Y-11487888D01*
X15943992Y-11487888D02*
X15943992Y-11430746D01*
X15943992Y-11430746D02*
X15953515Y-11411698D01*
X15953515Y-11411698D02*
X15963039Y-11402174D01*
X15963039Y-11402174D02*
X15982087Y-11392650D01*
X15982087Y-11392650D02*
X16010658Y-11392650D01*
X16010658Y-11392650D02*
X16029706Y-11402174D01*
X16029706Y-11402174D02*
X16039230Y-11411698D01*
X16039230Y-11411698D02*
X16048754Y-11430746D01*
X16048754Y-11430746D02*
X16048754Y-11487888D01*
X16048754Y-11487888D02*
X16039230Y-11506936D01*
X16039230Y-11506936D02*
X16029706Y-11516460D01*
X16029706Y-11516460D02*
X16010658Y-11525984D01*
X16010658Y-11525984D02*
X15982087Y-11525984D01*
X16105896Y-11392650D02*
X16182087Y-11392650D01*
X16134468Y-11325984D02*
X16134468Y-11497412D01*
X16134468Y-11497412D02*
X16143992Y-11516460D01*
X16143992Y-11516460D02*
X16163039Y-11525984D01*
X16163039Y-11525984D02*
X16182087Y-11525984D01*
X16239230Y-11516460D02*
X16258277Y-11525984D01*
X16258277Y-11525984D02*
X16296373Y-11525984D01*
X16296373Y-11525984D02*
X16315420Y-11516460D01*
X16315420Y-11516460D02*
X16324944Y-11497412D01*
X16324944Y-11497412D02*
X16324944Y-11487888D01*
X16324944Y-11487888D02*
X16315420Y-11468841D01*
X16315420Y-11468841D02*
X16296373Y-11459317D01*
X16296373Y-11459317D02*
X16267801Y-11459317D01*
X16267801Y-11459317D02*
X16248754Y-11449793D01*
X16248754Y-11449793D02*
X16239230Y-11430746D01*
X16239230Y-11430746D02*
X16239230Y-11421222D01*
X16239230Y-11421222D02*
X16248754Y-11402174D01*
X16248754Y-11402174D02*
X16267801Y-11392650D01*
X16267801Y-11392650D02*
X16296373Y-11392650D01*
X16296373Y-11392650D02*
X16315420Y-11402174D01*
X16391611Y-11602174D02*
X16401135Y-11592650D01*
X16401135Y-11592650D02*
X16420182Y-11564079D01*
X16420182Y-11564079D02*
X16429706Y-11545031D01*
X16429706Y-11545031D02*
X16439230Y-11516460D01*
X16439230Y-11516460D02*
X16448754Y-11468841D01*
X16448754Y-11468841D02*
X16448754Y-11430746D01*
X16448754Y-11430746D02*
X16439230Y-11383127D01*
X16439230Y-11383127D02*
X16429706Y-11354555D01*
X16429706Y-11354555D02*
X16420182Y-11335508D01*
X16420182Y-11335508D02*
X16401135Y-11306936D01*
X16401135Y-11306936D02*
X16391611Y-11297412D01*
M02*
