%TF.GenerationSoftware,KiCad,Pcbnew,9.0.2+1*%
%TF.CreationDate,2025-08-01T20:38:55+01:00*%
%TF.ProjectId,PocketSat,506f636b-6574-4536-9174-2e6b69636164,rev?*%
%TF.SameCoordinates,Original*%
%TF.FileFunction,Copper,L3,Inr*%
%TF.FilePolarity,Positive*%
%FSLAX46Y46*%
G04 Gerber Fmt 4.6, Leading zero omitted, Abs format (unit mm)*
G04 Created by KiCad (PCBNEW 9.0.2+1) date 2025-08-01 20:38:55*
%MOMM*%
%LPD*%
G01*
G04 APERTURE LIST*
%TA.AperFunction,ComponentPad*%
%ADD10O,2.316000X1.158000*%
%TD*%
%TA.AperFunction,ComponentPad*%
%ADD11O,2.400000X1.200000*%
%TD*%
%TA.AperFunction,ViaPad*%
%ADD12C,0.600000*%
%TD*%
%TA.AperFunction,ViaPad*%
%ADD13C,0.700000*%
%TD*%
G04 APERTURE END LIST*
D10*
%TO.N,unconnected-(J20-SHIELD-PadS1)_1*%
%TO.C,J20*%
X106450000Y-85923498D03*
%TO.N,unconnected-(J20-SHIELD-PadS1)_5*%
X106450000Y-94563498D03*
D11*
%TO.N,unconnected-(J20-SHIELD-PadS1)_3*%
X102625000Y-85923498D03*
%TO.N,unconnected-(J20-SHIELD-PadS1)_2*%
X102625000Y-94563498D03*
%TD*%
D12*
%TO.N,GND*%
X133620000Y-71510000D03*
X122456999Y-86906999D03*
X121300000Y-77900000D03*
X134600000Y-97400000D03*
X138900000Y-55900000D03*
X130965748Y-75600000D03*
X142040000Y-94300000D03*
X128950000Y-94750000D03*
X104550000Y-93900000D03*
X133196500Y-73375000D03*
X140400000Y-74656999D03*
X138680000Y-77130000D03*
X134490000Y-89580000D03*
X122494335Y-94800000D03*
X122260000Y-92660000D03*
X135500000Y-70950000D03*
D13*
X129800000Y-90300000D03*
D12*
X126130000Y-95120000D03*
X139700000Y-95900000D03*
D13*
X127600000Y-91300000D03*
D12*
X102100000Y-61900000D03*
X117300000Y-79900000D03*
X120480000Y-90230000D03*
X107800000Y-93343498D03*
X135900000Y-81900000D03*
X135228500Y-78453501D03*
X119610000Y-91550000D03*
X123210000Y-96020000D03*
X142500000Y-77180000D03*
X143950000Y-85400000D03*
X140100000Y-89450000D03*
D13*
X115210000Y-80606667D03*
D12*
X129700000Y-83600000D03*
X128430000Y-55530000D03*
X105300000Y-79900000D03*
X108800000Y-95900000D03*
X121300000Y-79900000D03*
X108800000Y-97900000D03*
X116120000Y-90840000D03*
X109300000Y-61900000D03*
X137600000Y-97900000D03*
X109300000Y-83900000D03*
X131190000Y-89160000D03*
X143500000Y-90850000D03*
D13*
X111260000Y-95080000D03*
D12*
X134600000Y-94300000D03*
X129650000Y-73700000D03*
X104440000Y-89660000D03*
X102100000Y-93100000D03*
X131200000Y-92100000D03*
X136560000Y-95540000D03*
X131913984Y-98022758D03*
X102100000Y-59900000D03*
X137200000Y-74000000D03*
X138800000Y-83890000D03*
D13*
X128000000Y-76500000D03*
X128700000Y-91300000D03*
D12*
X109096502Y-87143498D03*
X111400000Y-91618498D03*
D13*
X127600000Y-89300000D03*
D12*
X122456999Y-88050000D03*
D13*
X115210000Y-81673334D03*
D12*
X116925000Y-92200000D03*
X134810000Y-75160000D03*
X111600000Y-93562500D03*
X129300000Y-65900000D03*
X109300000Y-77900000D03*
X134600000Y-92066667D03*
X125939160Y-96789160D03*
X140350000Y-73150000D03*
X120580050Y-95419950D03*
X127900000Y-95100000D03*
X117300000Y-81900000D03*
X121800000Y-95514225D03*
X134420000Y-86270000D03*
D13*
X129800000Y-89300000D03*
D12*
X130420000Y-95450000D03*
X123480000Y-57920000D03*
X137000000Y-69200000D03*
X105300000Y-55900000D03*
X127930000Y-97670000D03*
X104700000Y-95900000D03*
D13*
X128700000Y-89300000D03*
D12*
X121300000Y-83900000D03*
X125300000Y-71900000D03*
X115000000Y-97900000D03*
D13*
X129800000Y-66300000D03*
D12*
X128980000Y-87780000D03*
X136400000Y-74000000D03*
D13*
X124900000Y-76500000D03*
D12*
X118050000Y-95950000D03*
X138740000Y-94322429D03*
X139700000Y-97900000D03*
X110799999Y-89693498D03*
X109300000Y-81900000D03*
X129700003Y-80128996D03*
D13*
X128700000Y-90300000D03*
D12*
X126215800Y-78600000D03*
X138740000Y-93205764D03*
X143550000Y-95450000D03*
D13*
X115200000Y-92800000D03*
D12*
X127000000Y-83500000D03*
X108250000Y-90650000D03*
D13*
X138750000Y-71050000D03*
D12*
X136400000Y-74900000D03*
X128600000Y-82450000D03*
X116820000Y-88670000D03*
D13*
X115210000Y-83806667D03*
D12*
X129920003Y-78753996D03*
X134450000Y-83550000D03*
D13*
X129800000Y-91300000D03*
D12*
X127550000Y-80050000D03*
X138391666Y-91200000D03*
X136643001Y-89400000D03*
X143500000Y-93350000D03*
X109300000Y-57900000D03*
X134600000Y-95416668D03*
X130300000Y-81800000D03*
X134600000Y-93183335D03*
X109300000Y-85950000D03*
X123130000Y-55530000D03*
X110500000Y-91618498D03*
X125400000Y-70050000D03*
X138740000Y-92089096D03*
D13*
X128025567Y-70050000D03*
D12*
X122450000Y-89550000D03*
X128830000Y-97660000D03*
X140010000Y-80020000D03*
X114650000Y-95450000D03*
X109300000Y-79900000D03*
X133400000Y-93800000D03*
X143400000Y-59100000D03*
D13*
X115210000Y-82740000D03*
D12*
X142250000Y-89910000D03*
D13*
X127600000Y-90300000D03*
D12*
X102100000Y-87350000D03*
X139820000Y-92120000D03*
X138000000Y-74900000D03*
X123143000Y-56650000D03*
X130600000Y-98500000D03*
X117300000Y-73900000D03*
X121200000Y-94250000D03*
X134400000Y-79250000D03*
X126800000Y-84228500D03*
X125300000Y-67900000D03*
X134820000Y-72530000D03*
X125300000Y-55900000D03*
X109300000Y-63900000D03*
X132550000Y-86200000D03*
X124250000Y-86650000D03*
X130121500Y-77403996D03*
X133180000Y-91430000D03*
X126190238Y-92481442D03*
X128700000Y-92800000D03*
X118490000Y-92360000D03*
X121300000Y-71900000D03*
X129300000Y-69900000D03*
X120280000Y-92650000D03*
X126980000Y-87760000D03*
X104700000Y-97900000D03*
X102100000Y-90250000D03*
X143950000Y-83510000D03*
X114978500Y-86278500D03*
X138740000Y-95439097D03*
X118010000Y-91540000D03*
X138000000Y-74000000D03*
X121500000Y-98000000D03*
D13*
X128425000Y-58125000D03*
D12*
X117300000Y-83900000D03*
X131000000Y-88000000D03*
X125928499Y-74600000D03*
X137200000Y-74900000D03*
X117300000Y-75900000D03*
X127500000Y-95900000D03*
X139150000Y-85350000D03*
X117060000Y-91260000D03*
X125600000Y-84228500D03*
X137080000Y-80370000D03*
X137100000Y-91200000D03*
D13*
X136840000Y-78353600D03*
D12*
X117300000Y-77900000D03*
X123610000Y-92630000D03*
X143500000Y-88750000D03*
X125470707Y-93440707D03*
X119000000Y-97900000D03*
D13*
X114200000Y-92800000D03*
X134125000Y-58150000D03*
D12*
%TO.N,+3.3V*%
X122493512Y-97693512D03*
X137920000Y-81430000D03*
X126954849Y-92714843D03*
D13*
X137200000Y-77300000D03*
D12*
X127271039Y-97171039D03*
X134854322Y-76020798D03*
X129780000Y-87820000D03*
X128978502Y-75400000D03*
X123599999Y-89630000D03*
X126070000Y-87670000D03*
X121250000Y-90200000D03*
D13*
X132007700Y-73425000D03*
D12*
X129470000Y-92770000D03*
X131200000Y-90290000D03*
X130050001Y-97888745D03*
X130800000Y-83150000D03*
%TO.N,VBUS*%
X109260000Y-89693498D03*
X105200000Y-89693498D03*
D13*
%TO.N,+5V*%
X123775000Y-61850000D03*
X123435962Y-59733890D03*
X124150963Y-63908890D03*
X121705962Y-61463890D03*
X125880962Y-62178891D03*
X115200000Y-91800000D03*
X114200000Y-91800000D03*
D12*
%TO.N,/SD-Card MOSI SPI*%
X132990000Y-71010000D03*
X130400000Y-74000000D03*
%TO.N,/SD-Card MISO SPI*%
X129000000Y-69100000D03*
X134850000Y-71450000D03*
%TO.N,/SCL1 I2C*%
X127700000Y-92800000D03*
X124800000Y-97600000D03*
%TO.N,/Humidity RDY*%
X126750000Y-79250000D03*
X127800000Y-83500000D03*
%TO.N,/SCK1 SPI*%
X131070000Y-92860000D03*
X132700000Y-94100000D03*
%TO.N,/MCU SD3 SPI*%
X117700000Y-90800000D03*
X126193970Y-90899999D03*
%TO.N,/MCU ~{CS} SPI*%
X116500000Y-92900000D03*
X124530000Y-93740000D03*
%TO.N,/MCU SD1 SPI*%
X124380000Y-92850000D03*
X117700000Y-92500000D03*
%TO.N,/SDA0 I2C*%
X127544189Y-80894189D03*
X129549997Y-81650000D03*
%TO.N,/MISO1 SPI*%
X130280000Y-92800000D03*
X132450000Y-96050000D03*
%TO.N,/MCU SCLK SPI*%
X118800000Y-91300000D03*
X126152802Y-91660000D03*
%TO.N,/MCU SD2 SPI*%
X119375000Y-92300000D03*
X122900000Y-92132500D03*
%TO.N,/MCU SD0 SPI*%
X124390000Y-91570000D03*
X120475000Y-91600000D03*
%TO.N,/D+*%
X116155094Y-90078498D03*
X126325000Y-89651500D03*
%TO.N,/D-*%
X116155094Y-89283498D03*
X126323895Y-88736406D03*
%TO.N,/Red Status*%
X131230000Y-91230000D03*
X135050000Y-84250000D03*
%TO.N,/Green Status*%
X136900000Y-79600000D03*
X133750000Y-92090000D03*
%TD*%
%TA.AperFunction,Conductor*%
%TO.N,GND*%
G36*
X143404043Y-54800765D02*
G01*
X143626790Y-54815364D01*
X143642848Y-54817479D01*
X143828875Y-54854482D01*
X143857771Y-54860230D01*
X143873438Y-54864428D01*
X143976719Y-54899487D01*
X144080944Y-54934867D01*
X144095921Y-54941070D01*
X144286791Y-55035196D01*
X144292460Y-55037992D01*
X144306508Y-55046102D01*
X144488712Y-55167848D01*
X144501576Y-55177719D01*
X144666328Y-55322202D01*
X144677797Y-55333671D01*
X144812887Y-55487713D01*
X144822280Y-55498423D01*
X144832154Y-55511291D01*
X144953897Y-55693492D01*
X144962007Y-55707539D01*
X145058926Y-55904071D01*
X145065133Y-55919057D01*
X145135571Y-56126561D01*
X145139769Y-56142228D01*
X145182518Y-56357140D01*
X145184636Y-56373221D01*
X145199235Y-56595956D01*
X145199500Y-56604066D01*
X145199500Y-97895933D01*
X145199235Y-97904043D01*
X145184636Y-98126778D01*
X145182518Y-98142859D01*
X145139769Y-98357771D01*
X145135571Y-98373438D01*
X145065133Y-98580942D01*
X145058926Y-98595928D01*
X144962007Y-98792460D01*
X144953897Y-98806507D01*
X144832154Y-98988708D01*
X144822280Y-99001576D01*
X144677797Y-99166328D01*
X144666328Y-99177797D01*
X144501576Y-99322280D01*
X144488708Y-99332154D01*
X144306507Y-99453897D01*
X144292460Y-99462007D01*
X144095928Y-99558926D01*
X144080942Y-99565133D01*
X143873438Y-99635571D01*
X143857771Y-99639769D01*
X143642859Y-99682518D01*
X143626778Y-99684636D01*
X143404043Y-99699235D01*
X143395933Y-99699500D01*
X102104067Y-99699500D01*
X102095957Y-99699235D01*
X101873221Y-99684636D01*
X101857140Y-99682518D01*
X101642228Y-99639769D01*
X101626561Y-99635571D01*
X101419057Y-99565133D01*
X101404071Y-99558926D01*
X101207539Y-99462007D01*
X101193492Y-99453897D01*
X101011291Y-99332154D01*
X100998423Y-99322280D01*
X100833671Y-99177797D01*
X100822202Y-99166328D01*
X100768610Y-99105218D01*
X100677716Y-99001573D01*
X100667845Y-98988708D01*
X100546102Y-98806507D01*
X100537992Y-98792460D01*
X100515679Y-98747213D01*
X100441070Y-98595921D01*
X100434866Y-98580942D01*
X100364428Y-98373438D01*
X100360230Y-98357771D01*
X100350438Y-98308542D01*
X100317479Y-98142848D01*
X100315364Y-98126790D01*
X100300765Y-97904043D01*
X100300500Y-97895933D01*
X100300500Y-97797648D01*
X100799500Y-97797648D01*
X100799500Y-98002351D01*
X100831522Y-98204534D01*
X100894781Y-98399223D01*
X100987715Y-98581613D01*
X101108028Y-98747213D01*
X101252786Y-98891971D01*
X101385936Y-98988708D01*
X101418390Y-99012287D01*
X101534607Y-99071503D01*
X101600776Y-99105218D01*
X101600778Y-99105218D01*
X101600781Y-99105220D01*
X101705137Y-99139127D01*
X101795465Y-99168477D01*
X101854309Y-99177797D01*
X101997648Y-99200500D01*
X101997649Y-99200500D01*
X102202351Y-99200500D01*
X102202352Y-99200500D01*
X102404534Y-99168477D01*
X102599219Y-99105220D01*
X102781610Y-99012287D01*
X102874590Y-98944732D01*
X102947213Y-98891971D01*
X102947215Y-98891968D01*
X102947219Y-98891966D01*
X103091966Y-98747219D01*
X103091968Y-98747215D01*
X103091971Y-98747213D01*
X103201884Y-98595928D01*
X103212287Y-98581610D01*
X103305220Y-98399219D01*
X103368477Y-98204534D01*
X103400500Y-98002352D01*
X103400500Y-97797648D01*
X103393400Y-97752818D01*
X103376398Y-97645474D01*
X103374612Y-97634203D01*
X122043012Y-97634203D01*
X122043012Y-97752821D01*
X122073713Y-97867398D01*
X122133023Y-97970125D01*
X122216899Y-98054001D01*
X122319626Y-98113311D01*
X122434203Y-98144012D01*
X122434206Y-98144012D01*
X122552818Y-98144012D01*
X122552821Y-98144012D01*
X122667398Y-98113311D01*
X122770125Y-98054001D01*
X122854001Y-97970125D01*
X122913311Y-97867398D01*
X122944012Y-97752821D01*
X122944012Y-97634203D01*
X122918955Y-97540691D01*
X124349500Y-97540691D01*
X124349500Y-97659309D01*
X124380201Y-97773886D01*
X124439511Y-97876613D01*
X124523387Y-97960489D01*
X124626114Y-98019799D01*
X124740691Y-98050500D01*
X124740694Y-98050500D01*
X124859306Y-98050500D01*
X124859309Y-98050500D01*
X124973886Y-98019799D01*
X125076613Y-97960489D01*
X125160489Y-97876613D01*
X125187727Y-97829436D01*
X129599501Y-97829436D01*
X129599501Y-97948054D01*
X129630202Y-98062631D01*
X129689512Y-98165358D01*
X129773388Y-98249234D01*
X129876115Y-98308544D01*
X129990692Y-98339245D01*
X129990695Y-98339245D01*
X130109307Y-98339245D01*
X130109310Y-98339245D01*
X130223887Y-98308544D01*
X130326614Y-98249234D01*
X130410490Y-98165358D01*
X130469800Y-98062631D01*
X130500501Y-97948054D01*
X130500501Y-97829436D01*
X130491983Y-97797648D01*
X142099500Y-97797648D01*
X142099500Y-98002351D01*
X142131522Y-98204534D01*
X142194781Y-98399223D01*
X142287715Y-98581613D01*
X142408028Y-98747213D01*
X142552786Y-98891971D01*
X142685936Y-98988708D01*
X142718390Y-99012287D01*
X142834607Y-99071503D01*
X142900776Y-99105218D01*
X142900778Y-99105218D01*
X142900781Y-99105220D01*
X143005137Y-99139127D01*
X143095465Y-99168477D01*
X143154309Y-99177797D01*
X143297648Y-99200500D01*
X143297649Y-99200500D01*
X143502351Y-99200500D01*
X143502352Y-99200500D01*
X143704534Y-99168477D01*
X143899219Y-99105220D01*
X144081610Y-99012287D01*
X144174590Y-98944732D01*
X144247213Y-98891971D01*
X144247215Y-98891968D01*
X144247219Y-98891966D01*
X144391966Y-98747219D01*
X144391968Y-98747215D01*
X144391971Y-98747213D01*
X144501884Y-98595928D01*
X144512287Y-98581610D01*
X144605220Y-98399219D01*
X144668477Y-98204534D01*
X144700500Y-98002352D01*
X144700500Y-97797648D01*
X144678589Y-97659309D01*
X144668477Y-97595465D01*
X144613451Y-97426114D01*
X144605220Y-97400781D01*
X144605218Y-97400778D01*
X144605218Y-97400776D01*
X144540476Y-97273714D01*
X144512287Y-97218390D01*
X144484542Y-97180202D01*
X144391971Y-97052786D01*
X144247213Y-96908028D01*
X144081613Y-96787715D01*
X144081612Y-96787714D01*
X144081610Y-96787713D01*
X144010028Y-96751240D01*
X143899223Y-96694781D01*
X143704534Y-96631522D01*
X143529995Y-96603878D01*
X143502352Y-96599500D01*
X143297648Y-96599500D01*
X143273329Y-96603351D01*
X143095465Y-96631522D01*
X142900776Y-96694781D01*
X142718386Y-96787715D01*
X142552786Y-96908028D01*
X142408028Y-97052786D01*
X142287715Y-97218386D01*
X142194781Y-97400776D01*
X142131522Y-97595465D01*
X142099500Y-97797648D01*
X130491983Y-97797648D01*
X130469800Y-97714859D01*
X130410490Y-97612132D01*
X130326614Y-97528256D01*
X130223887Y-97468946D01*
X130109310Y-97438245D01*
X129990692Y-97438245D01*
X129876115Y-97468946D01*
X129876113Y-97468946D01*
X129876113Y-97468947D01*
X129773388Y-97528256D01*
X129773385Y-97528258D01*
X129689514Y-97612129D01*
X129689512Y-97612132D01*
X129630202Y-97714859D01*
X129599501Y-97829436D01*
X125187727Y-97829436D01*
X125219799Y-97773886D01*
X125250500Y-97659309D01*
X125250500Y-97540691D01*
X125219799Y-97426114D01*
X125160489Y-97323387D01*
X125076613Y-97239511D01*
X124973886Y-97180201D01*
X124859309Y-97149500D01*
X124740691Y-97149500D01*
X124626114Y-97180201D01*
X124626112Y-97180201D01*
X124626112Y-97180202D01*
X124523387Y-97239511D01*
X124523384Y-97239513D01*
X124439513Y-97323384D01*
X124439511Y-97323387D01*
X124380201Y-97426114D01*
X124349500Y-97540691D01*
X122918955Y-97540691D01*
X122913311Y-97519626D01*
X122854001Y-97416899D01*
X122770125Y-97333023D01*
X122667398Y-97273713D01*
X122552821Y-97243012D01*
X122434203Y-97243012D01*
X122319626Y-97273713D01*
X122319624Y-97273713D01*
X122319624Y-97273714D01*
X122216899Y-97333023D01*
X122216896Y-97333025D01*
X122133025Y-97416896D01*
X122133023Y-97416899D01*
X122073713Y-97519626D01*
X122043012Y-97634203D01*
X103374612Y-97634203D01*
X103373552Y-97627509D01*
X103368477Y-97595466D01*
X103305220Y-97400781D01*
X103305218Y-97400778D01*
X103305218Y-97400776D01*
X103240476Y-97273714D01*
X103212287Y-97218390D01*
X103184542Y-97180202D01*
X103134795Y-97111730D01*
X126820539Y-97111730D01*
X126820539Y-97230348D01*
X126851240Y-97344925D01*
X126910550Y-97447652D01*
X126994426Y-97531528D01*
X127097153Y-97590838D01*
X127211730Y-97621539D01*
X127211733Y-97621539D01*
X127330345Y-97621539D01*
X127330348Y-97621539D01*
X127444925Y-97590838D01*
X127547652Y-97531528D01*
X127631528Y-97447652D01*
X127690838Y-97344925D01*
X127721539Y-97230348D01*
X127721539Y-97111730D01*
X127690838Y-96997153D01*
X127631528Y-96894426D01*
X127547652Y-96810550D01*
X127444925Y-96751240D01*
X127330348Y-96720539D01*
X127211730Y-96720539D01*
X127097153Y-96751240D01*
X127097151Y-96751240D01*
X127097151Y-96751241D01*
X126994426Y-96810550D01*
X126994423Y-96810552D01*
X126910552Y-96894423D01*
X126910550Y-96894426D01*
X126851240Y-96997153D01*
X126820539Y-97111730D01*
X103134795Y-97111730D01*
X103091971Y-97052786D01*
X102947213Y-96908028D01*
X102781613Y-96787715D01*
X102781612Y-96787714D01*
X102781610Y-96787713D01*
X102710028Y-96751240D01*
X102599223Y-96694781D01*
X102404534Y-96631522D01*
X102229995Y-96603878D01*
X102202352Y-96599500D01*
X101997648Y-96599500D01*
X101973329Y-96603351D01*
X101795465Y-96631522D01*
X101600776Y-96694781D01*
X101418386Y-96787715D01*
X101252786Y-96908028D01*
X101108028Y-97052786D01*
X100987715Y-97218386D01*
X100894781Y-97400776D01*
X100831522Y-97595465D01*
X100799500Y-97797648D01*
X100300500Y-97797648D01*
X100300500Y-95990691D01*
X131999500Y-95990691D01*
X131999500Y-96109309D01*
X132030201Y-96223886D01*
X132089511Y-96326613D01*
X132173387Y-96410489D01*
X132276114Y-96469799D01*
X132390691Y-96500500D01*
X132390694Y-96500500D01*
X132509306Y-96500500D01*
X132509309Y-96500500D01*
X132623886Y-96469799D01*
X132726613Y-96410489D01*
X132810489Y-96326613D01*
X132869799Y-96223886D01*
X132900500Y-96109309D01*
X132900500Y-95990691D01*
X132869799Y-95876114D01*
X132810489Y-95773387D01*
X132726613Y-95689511D01*
X132623886Y-95630201D01*
X132509309Y-95599500D01*
X132390691Y-95599500D01*
X132276114Y-95630201D01*
X132276112Y-95630201D01*
X132276112Y-95630202D01*
X132173387Y-95689511D01*
X132173384Y-95689513D01*
X132089513Y-95773384D01*
X132089511Y-95773387D01*
X132030201Y-95876114D01*
X131999500Y-95990691D01*
X100300500Y-95990691D01*
X100300500Y-94637418D01*
X101274499Y-94637418D01*
X101303340Y-94782405D01*
X101303343Y-94782415D01*
X101359912Y-94918986D01*
X101359919Y-94918999D01*
X101442048Y-95041913D01*
X101442051Y-95041917D01*
X101546580Y-95146446D01*
X101546584Y-95146449D01*
X101669498Y-95228578D01*
X101669511Y-95228585D01*
X101806082Y-95285154D01*
X101806087Y-95285156D01*
X101806091Y-95285156D01*
X101806092Y-95285157D01*
X101951079Y-95313998D01*
X101951082Y-95313998D01*
X103298920Y-95313998D01*
X103396462Y-95294594D01*
X103443913Y-95285156D01*
X103580495Y-95228582D01*
X103703416Y-95146449D01*
X103807951Y-95041914D01*
X103890084Y-94918993D01*
X103946658Y-94782411D01*
X103975500Y-94637416D01*
X103975500Y-94491643D01*
X105141500Y-94491643D01*
X105141500Y-94635352D01*
X105169531Y-94776277D01*
X105169534Y-94776286D01*
X105224521Y-94909039D01*
X105224528Y-94909052D01*
X105304359Y-95028526D01*
X105304362Y-95028530D01*
X105405967Y-95130135D01*
X105405971Y-95130138D01*
X105525445Y-95209969D01*
X105525458Y-95209976D01*
X105625022Y-95251216D01*
X105658213Y-95264964D01*
X105658215Y-95264964D01*
X105658220Y-95264966D01*
X105799145Y-95292997D01*
X105799149Y-95292998D01*
X105799150Y-95292998D01*
X107100851Y-95292998D01*
X107100852Y-95292997D01*
X107147829Y-95283653D01*
X107241779Y-95264966D01*
X107241782Y-95264964D01*
X107241787Y-95264964D01*
X107374548Y-95209973D01*
X107494029Y-95130138D01*
X107595640Y-95028527D01*
X107675475Y-94909046D01*
X107730466Y-94776285D01*
X107758500Y-94635348D01*
X107758500Y-94491648D01*
X107735619Y-94376615D01*
X107730468Y-94350718D01*
X107730465Y-94350709D01*
X107727930Y-94344590D01*
X107698645Y-94273887D01*
X107675478Y-94217956D01*
X107675471Y-94217943D01*
X107595640Y-94098469D01*
X107595637Y-94098465D01*
X107494032Y-93996860D01*
X107494028Y-93996857D01*
X107374554Y-93917026D01*
X107374541Y-93917019D01*
X107241788Y-93862032D01*
X107241779Y-93862029D01*
X107100854Y-93833998D01*
X107100850Y-93833998D01*
X106141676Y-93833998D01*
X106074637Y-93814313D01*
X106028882Y-93761509D01*
X106018938Y-93692351D01*
X106047963Y-93628795D01*
X106053995Y-93622317D01*
X106125500Y-93550812D01*
X106191392Y-93436684D01*
X106225500Y-93309390D01*
X106225500Y-93177606D01*
X106191392Y-93050312D01*
X106125500Y-92936184D01*
X106032314Y-92842998D01*
X106028318Y-92840691D01*
X116049500Y-92840691D01*
X116049500Y-92959309D01*
X116080201Y-93073886D01*
X116139511Y-93176613D01*
X116223387Y-93260489D01*
X116326114Y-93319799D01*
X116440691Y-93350500D01*
X116440694Y-93350500D01*
X116559306Y-93350500D01*
X116559309Y-93350500D01*
X116673886Y-93319799D01*
X116776613Y-93260489D01*
X116860489Y-93176613D01*
X116919799Y-93073886D01*
X116950500Y-92959309D01*
X116950500Y-92840691D01*
X116919799Y-92726114D01*
X116860489Y-92623387D01*
X116776613Y-92539511D01*
X116673886Y-92480201D01*
X116559309Y-92449500D01*
X116440691Y-92449500D01*
X116326114Y-92480201D01*
X116326112Y-92480201D01*
X116326112Y-92480202D01*
X116223387Y-92539511D01*
X116223384Y-92539513D01*
X116139513Y-92623384D01*
X116139511Y-92623387D01*
X116089106Y-92710691D01*
X116080201Y-92726114D01*
X116049500Y-92840691D01*
X106028318Y-92840691D01*
X105959040Y-92800693D01*
X105918187Y-92777106D01*
X105818890Y-92750500D01*
X105790892Y-92742998D01*
X105659108Y-92742998D01*
X105531812Y-92777106D01*
X105417686Y-92842998D01*
X105417683Y-92843000D01*
X105324502Y-92936181D01*
X105324500Y-92936184D01*
X105258608Y-93050310D01*
X105236012Y-93134642D01*
X105224500Y-93177606D01*
X105224500Y-93309390D01*
X105235515Y-93350500D01*
X105258608Y-93436685D01*
X105274023Y-93463384D01*
X105324500Y-93550812D01*
X105417686Y-93643998D01*
X105501436Y-93692351D01*
X105522009Y-93704229D01*
X105570224Y-93754796D01*
X105583446Y-93823404D01*
X105557478Y-93888268D01*
X105528900Y-93914718D01*
X105405967Y-93996860D01*
X105304362Y-94098465D01*
X105304359Y-94098469D01*
X105224528Y-94217943D01*
X105224521Y-94217956D01*
X105169534Y-94350709D01*
X105169531Y-94350718D01*
X105141500Y-94491643D01*
X103975500Y-94491643D01*
X103975500Y-94489580D01*
X103975500Y-94489577D01*
X103946659Y-94344590D01*
X103946658Y-94344589D01*
X103946658Y-94344585D01*
X103894207Y-94217956D01*
X103890087Y-94208009D01*
X103890080Y-94207996D01*
X103807951Y-94085082D01*
X103807948Y-94085078D01*
X103703419Y-93980549D01*
X103703415Y-93980546D01*
X103580501Y-93898417D01*
X103580488Y-93898410D01*
X103443917Y-93841841D01*
X103443907Y-93841838D01*
X103298920Y-93812998D01*
X103298918Y-93812998D01*
X101951082Y-93812998D01*
X101951080Y-93812998D01*
X101806092Y-93841838D01*
X101806082Y-93841841D01*
X101669511Y-93898410D01*
X101669498Y-93898417D01*
X101546584Y-93980546D01*
X101546580Y-93980549D01*
X101442051Y-94085078D01*
X101442048Y-94085082D01*
X101359919Y-94207996D01*
X101359912Y-94208009D01*
X101303343Y-94344580D01*
X101303340Y-94344590D01*
X101274500Y-94489577D01*
X101274500Y-94489580D01*
X101274500Y-94637416D01*
X101274500Y-94637418D01*
X101274499Y-94637418D01*
X100300500Y-94637418D01*
X100300500Y-92440691D01*
X117249500Y-92440691D01*
X117249500Y-92559309D01*
X117280201Y-92673886D01*
X117339511Y-92776613D01*
X117423387Y-92860489D01*
X117526114Y-92919799D01*
X117640691Y-92950500D01*
X117640694Y-92950500D01*
X117759306Y-92950500D01*
X117759309Y-92950500D01*
X117873886Y-92919799D01*
X117976613Y-92860489D01*
X118046411Y-92790691D01*
X123929500Y-92790691D01*
X123929500Y-92909309D01*
X123960201Y-93023886D01*
X124019511Y-93126613D01*
X124103387Y-93210489D01*
X124165689Y-93246459D01*
X124213905Y-93297026D01*
X124227128Y-93365633D01*
X124201160Y-93430498D01*
X124191372Y-93441526D01*
X124169511Y-93463387D01*
X124119035Y-93550814D01*
X124110201Y-93566114D01*
X124079500Y-93680691D01*
X124079500Y-93799309D01*
X124110201Y-93913886D01*
X124169511Y-94016613D01*
X124253387Y-94100489D01*
X124356114Y-94159799D01*
X124470691Y-94190500D01*
X124470694Y-94190500D01*
X124589306Y-94190500D01*
X124589309Y-94190500D01*
X124703886Y-94159799D01*
X124806613Y-94100489D01*
X124866411Y-94040691D01*
X132249500Y-94040691D01*
X132249500Y-94159309D01*
X132280201Y-94273886D01*
X132339511Y-94376613D01*
X132423387Y-94460489D01*
X132526114Y-94519799D01*
X132640691Y-94550500D01*
X132640694Y-94550500D01*
X132759306Y-94550500D01*
X132759309Y-94550500D01*
X132873886Y-94519799D01*
X132976613Y-94460489D01*
X133060489Y-94376613D01*
X133119799Y-94273886D01*
X133150500Y-94159309D01*
X133150500Y-94040691D01*
X133119799Y-93926114D01*
X133060489Y-93823387D01*
X132976613Y-93739511D01*
X132873886Y-93680201D01*
X132759309Y-93649500D01*
X132640691Y-93649500D01*
X132526114Y-93680201D01*
X132526112Y-93680201D01*
X132526112Y-93680202D01*
X132423387Y-93739511D01*
X132423384Y-93739513D01*
X132339513Y-93823384D01*
X132339511Y-93823387D01*
X132286781Y-93914718D01*
X132280201Y-93926114D01*
X132249500Y-94040691D01*
X124866411Y-94040691D01*
X124890489Y-94016613D01*
X124949799Y-93913886D01*
X124980500Y-93799309D01*
X124980500Y-93680691D01*
X124949799Y-93566114D01*
X124890489Y-93463387D01*
X124806613Y-93379511D01*
X124806611Y-93379510D01*
X124806609Y-93379508D01*
X124744310Y-93343540D01*
X124696094Y-93292973D01*
X124682872Y-93224366D01*
X124708840Y-93159501D01*
X124718614Y-93148487D01*
X124740489Y-93126613D01*
X124799799Y-93023886D01*
X124830500Y-92909309D01*
X124830500Y-92790691D01*
X124799799Y-92676114D01*
X124787917Y-92655534D01*
X126504349Y-92655534D01*
X126504349Y-92774152D01*
X126535050Y-92888729D01*
X126594360Y-92991456D01*
X126678236Y-93075332D01*
X126780963Y-93134642D01*
X126895540Y-93165343D01*
X126895543Y-93165343D01*
X127014155Y-93165343D01*
X127014158Y-93165343D01*
X127128735Y-93134642D01*
X127128737Y-93134640D01*
X127128739Y-93134640D01*
X127128740Y-93134639D01*
X127216748Y-93083826D01*
X127284647Y-93067353D01*
X127350675Y-93090205D01*
X127366430Y-93103532D01*
X127423387Y-93160489D01*
X127526114Y-93219799D01*
X127640691Y-93250500D01*
X127640694Y-93250500D01*
X127759306Y-93250500D01*
X127759309Y-93250500D01*
X127873886Y-93219799D01*
X127976613Y-93160489D01*
X128060489Y-93076613D01*
X128119799Y-92973886D01*
X128150500Y-92859309D01*
X128150500Y-92740691D01*
X128142461Y-92710691D01*
X129019500Y-92710691D01*
X129019500Y-92829309D01*
X129050201Y-92943886D01*
X129109511Y-93046613D01*
X129193387Y-93130489D01*
X129296114Y-93189799D01*
X129410691Y-93220500D01*
X129410694Y-93220500D01*
X129529306Y-93220500D01*
X129529309Y-93220500D01*
X129643886Y-93189799D01*
X129746613Y-93130489D01*
X129772319Y-93104783D01*
X129833642Y-93071298D01*
X129903334Y-93076282D01*
X129947681Y-93104783D01*
X130003387Y-93160489D01*
X130106114Y-93219799D01*
X130220691Y-93250500D01*
X130220694Y-93250500D01*
X130339306Y-93250500D01*
X130339309Y-93250500D01*
X130453886Y-93219799D01*
X130556613Y-93160489D01*
X130557319Y-93159783D01*
X130558058Y-93159379D01*
X130563059Y-93155542D01*
X130563657Y-93156321D01*
X130618642Y-93126298D01*
X130688334Y-93131282D01*
X130732681Y-93159783D01*
X130793387Y-93220489D01*
X130896114Y-93279799D01*
X131010691Y-93310500D01*
X131010694Y-93310500D01*
X131129306Y-93310500D01*
X131129309Y-93310500D01*
X131243886Y-93279799D01*
X131346613Y-93220489D01*
X131430489Y-93136613D01*
X131489799Y-93033886D01*
X131520500Y-92919309D01*
X131520500Y-92800691D01*
X131489799Y-92686114D01*
X131430489Y-92583387D01*
X131346613Y-92499511D01*
X131243886Y-92440201D01*
X131129309Y-92409500D01*
X131010691Y-92409500D01*
X130896114Y-92440201D01*
X130896112Y-92440201D01*
X130896112Y-92440202D01*
X130793387Y-92499511D01*
X130793380Y-92499516D01*
X130792667Y-92500230D01*
X130791918Y-92500638D01*
X130786941Y-92504458D01*
X130786344Y-92503680D01*
X130731338Y-92533705D01*
X130661647Y-92528710D01*
X130617318Y-92500216D01*
X130556615Y-92439513D01*
X130556613Y-92439511D01*
X130453886Y-92380201D01*
X130339309Y-92349500D01*
X130220691Y-92349500D01*
X130106114Y-92380201D01*
X130106112Y-92380201D01*
X130106112Y-92380202D01*
X130003387Y-92439511D01*
X130003382Y-92439515D01*
X129977677Y-92465219D01*
X129916353Y-92498702D01*
X129846662Y-92493715D01*
X129802318Y-92465216D01*
X129746615Y-92409513D01*
X129746613Y-92409511D01*
X129643886Y-92350201D01*
X129529309Y-92319500D01*
X129410691Y-92319500D01*
X129296114Y-92350201D01*
X129296112Y-92350201D01*
X129296112Y-92350202D01*
X129193387Y-92409511D01*
X129193384Y-92409513D01*
X129109513Y-92493384D01*
X129109511Y-92493387D01*
X129061461Y-92576612D01*
X129050201Y-92596114D01*
X129019500Y-92710691D01*
X128142461Y-92710691D01*
X128119799Y-92626114D01*
X128060489Y-92523387D01*
X127976613Y-92439511D01*
X127873886Y-92380201D01*
X127759309Y-92349500D01*
X127640691Y-92349500D01*
X127535505Y-92377684D01*
X127526110Y-92380202D01*
X127438099Y-92431016D01*
X127370199Y-92447489D01*
X127304172Y-92424636D01*
X127288418Y-92411310D01*
X127231464Y-92354356D01*
X127231462Y-92354354D01*
X127128735Y-92295044D01*
X127014158Y-92264343D01*
X126895540Y-92264343D01*
X126780963Y-92295044D01*
X126780961Y-92295044D01*
X126780961Y-92295045D01*
X126678236Y-92354354D01*
X126678233Y-92354356D01*
X126594362Y-92438227D01*
X126594360Y-92438230D01*
X126562517Y-92493384D01*
X126535050Y-92540957D01*
X126504349Y-92655534D01*
X124787917Y-92655534D01*
X124740489Y-92573387D01*
X124656613Y-92489511D01*
X124553886Y-92430201D01*
X124439309Y-92399500D01*
X124320691Y-92399500D01*
X124206114Y-92430201D01*
X124206112Y-92430201D01*
X124206112Y-92430202D01*
X124103387Y-92489511D01*
X124103384Y-92489513D01*
X124019513Y-92573384D01*
X124019511Y-92573387D01*
X123960201Y-92676114D01*
X123929500Y-92790691D01*
X118046411Y-92790691D01*
X118060489Y-92776613D01*
X118119799Y-92673886D01*
X118150500Y-92559309D01*
X118150500Y-92440691D01*
X118119799Y-92326114D01*
X118119797Y-92326110D01*
X118101585Y-92294566D01*
X118101584Y-92294565D01*
X118085318Y-92266392D01*
X118070479Y-92240691D01*
X118924500Y-92240691D01*
X118924500Y-92359309D01*
X118955201Y-92473886D01*
X119014511Y-92576613D01*
X119098387Y-92660489D01*
X119201114Y-92719799D01*
X119315691Y-92750500D01*
X119315694Y-92750500D01*
X119434306Y-92750500D01*
X119434309Y-92750500D01*
X119548886Y-92719799D01*
X119651613Y-92660489D01*
X119735489Y-92576613D01*
X119794799Y-92473886D01*
X119825500Y-92359309D01*
X119825500Y-92240691D01*
X119794799Y-92126114D01*
X119764244Y-92073191D01*
X122449500Y-92073191D01*
X122449500Y-92191809D01*
X122480201Y-92306386D01*
X122539511Y-92409113D01*
X122623387Y-92492989D01*
X122726114Y-92552299D01*
X122840691Y-92583000D01*
X122840694Y-92583000D01*
X122959306Y-92583000D01*
X122959309Y-92583000D01*
X123073886Y-92552299D01*
X123176613Y-92492989D01*
X123260489Y-92409113D01*
X123319799Y-92306386D01*
X123350500Y-92191809D01*
X123350500Y-92073191D01*
X123319799Y-91958614D01*
X123260489Y-91855887D01*
X123176613Y-91772011D01*
X123073886Y-91712701D01*
X122959309Y-91682000D01*
X122840691Y-91682000D01*
X122726114Y-91712701D01*
X122726112Y-91712701D01*
X122726112Y-91712702D01*
X122623387Y-91772011D01*
X122623384Y-91772013D01*
X122539513Y-91855884D01*
X122539511Y-91855887D01*
X122480201Y-91958614D01*
X122449500Y-92073191D01*
X119764244Y-92073191D01*
X119735489Y-92023387D01*
X119651613Y-91939511D01*
X119548886Y-91880201D01*
X119434309Y-91849500D01*
X119315691Y-91849500D01*
X119201114Y-91880201D01*
X119201112Y-91880201D01*
X119201112Y-91880202D01*
X119098387Y-91939511D01*
X119098384Y-91939513D01*
X119014513Y-92023384D01*
X119014511Y-92023387D01*
X118981709Y-92080202D01*
X118955201Y-92126114D01*
X118924500Y-92240691D01*
X118070479Y-92240691D01*
X118060489Y-92223387D01*
X117976613Y-92139511D01*
X117873886Y-92080201D01*
X117759309Y-92049500D01*
X117640691Y-92049500D01*
X117526114Y-92080201D01*
X117526112Y-92080201D01*
X117526112Y-92080202D01*
X117423387Y-92139511D01*
X117423384Y-92139513D01*
X117339513Y-92223384D01*
X117339511Y-92223387D01*
X117284020Y-92319500D01*
X117280201Y-92326114D01*
X117249500Y-92440691D01*
X100300500Y-92440691D01*
X100300500Y-91734108D01*
X113699500Y-91734108D01*
X113699500Y-91865892D01*
X113712956Y-91916112D01*
X113733608Y-91993187D01*
X113755263Y-92030693D01*
X113799500Y-92107314D01*
X113892686Y-92200500D01*
X114006814Y-92266392D01*
X114134108Y-92300500D01*
X114134110Y-92300500D01*
X114265890Y-92300500D01*
X114265892Y-92300500D01*
X114393186Y-92266392D01*
X114507314Y-92200500D01*
X114600500Y-92107314D01*
X114600504Y-92107306D01*
X114601625Y-92105847D01*
X114602892Y-92104921D01*
X114606247Y-92101567D01*
X114606770Y-92102090D01*
X114658053Y-92064645D01*
X114727799Y-92060491D01*
X114788719Y-92094704D01*
X114798375Y-92105847D01*
X114799498Y-92107311D01*
X114799500Y-92107314D01*
X114892686Y-92200500D01*
X115006814Y-92266392D01*
X115134108Y-92300500D01*
X115134110Y-92300500D01*
X115265890Y-92300500D01*
X115265892Y-92300500D01*
X115393186Y-92266392D01*
X115507314Y-92200500D01*
X115600500Y-92107314D01*
X115666392Y-91993186D01*
X115700500Y-91865892D01*
X115700500Y-91734108D01*
X115666392Y-91606814D01*
X115600500Y-91492686D01*
X115507314Y-91399500D01*
X115450250Y-91366554D01*
X115393187Y-91333608D01*
X115329539Y-91316554D01*
X115265892Y-91299500D01*
X115134108Y-91299500D01*
X115006812Y-91333608D01*
X114892686Y-91399500D01*
X114892683Y-91399502D01*
X114799498Y-91492687D01*
X114798370Y-91494158D01*
X114797102Y-91495083D01*
X114793753Y-91498433D01*
X114793230Y-91497910D01*
X114741940Y-91535356D01*
X114672193Y-91539506D01*
X114611275Y-91505289D01*
X114601630Y-91494158D01*
X114600501Y-91492687D01*
X114507316Y-91399502D01*
X114507314Y-91399500D01*
X114450250Y-91366554D01*
X114393187Y-91333608D01*
X114329539Y-91316554D01*
X114265892Y-91299500D01*
X114134108Y-91299500D01*
X114006812Y-91333608D01*
X113892686Y-91399500D01*
X113892683Y-91399502D01*
X113799502Y-91492683D01*
X113799500Y-91492686D01*
X113733608Y-91606812D01*
X113716623Y-91670202D01*
X113699500Y-91734108D01*
X100300500Y-91734108D01*
X100300500Y-90740691D01*
X117249500Y-90740691D01*
X117249500Y-90859309D01*
X117280201Y-90973886D01*
X117339511Y-91076613D01*
X117423387Y-91160489D01*
X117526114Y-91219799D01*
X117640691Y-91250500D01*
X117640694Y-91250500D01*
X117759306Y-91250500D01*
X117759309Y-91250500D01*
X117795916Y-91240691D01*
X118349500Y-91240691D01*
X118349500Y-91359309D01*
X118380201Y-91473886D01*
X118439511Y-91576613D01*
X118523387Y-91660489D01*
X118626114Y-91719799D01*
X118740691Y-91750500D01*
X118740694Y-91750500D01*
X118859306Y-91750500D01*
X118859309Y-91750500D01*
X118973886Y-91719799D01*
X119076613Y-91660489D01*
X119160489Y-91576613D01*
X119181229Y-91540691D01*
X120024500Y-91540691D01*
X120024500Y-91659309D01*
X120055201Y-91773886D01*
X120114511Y-91876613D01*
X120198387Y-91960489D01*
X120301114Y-92019799D01*
X120415691Y-92050500D01*
X120415694Y-92050500D01*
X120534306Y-92050500D01*
X120534309Y-92050500D01*
X120648886Y-92019799D01*
X120751613Y-91960489D01*
X120835489Y-91876613D01*
X120894799Y-91773886D01*
X120925500Y-91659309D01*
X120925500Y-91540691D01*
X120924383Y-91536524D01*
X120923885Y-91534663D01*
X120923883Y-91534658D01*
X120917461Y-91510691D01*
X123939500Y-91510691D01*
X123939500Y-91629309D01*
X123970201Y-91743886D01*
X124029511Y-91846613D01*
X124113387Y-91930489D01*
X124216114Y-91989799D01*
X124330691Y-92020500D01*
X124330694Y-92020500D01*
X124449306Y-92020500D01*
X124449309Y-92020500D01*
X124563886Y-91989799D01*
X124666613Y-91930489D01*
X124750489Y-91846613D01*
X124809799Y-91743886D01*
X124840500Y-91629309D01*
X124840500Y-91600691D01*
X125702302Y-91600691D01*
X125702302Y-91719309D01*
X125733003Y-91833886D01*
X125792313Y-91936613D01*
X125876189Y-92020489D01*
X125978916Y-92079799D01*
X126093493Y-92110500D01*
X126093496Y-92110500D01*
X126212108Y-92110500D01*
X126212111Y-92110500D01*
X126326688Y-92079799D01*
X126411745Y-92030691D01*
X133299500Y-92030691D01*
X133299500Y-92149309D01*
X133330201Y-92263886D01*
X133389511Y-92366613D01*
X133473387Y-92450489D01*
X133576114Y-92509799D01*
X133690691Y-92540500D01*
X133690694Y-92540500D01*
X133809306Y-92540500D01*
X133809309Y-92540500D01*
X133923886Y-92509799D01*
X134026613Y-92450489D01*
X134110489Y-92366613D01*
X134169799Y-92263886D01*
X134200500Y-92149309D01*
X134200500Y-92030691D01*
X134169799Y-91916114D01*
X134110489Y-91813387D01*
X134026613Y-91729511D01*
X133923886Y-91670201D01*
X133809309Y-91639500D01*
X133690691Y-91639500D01*
X133576114Y-91670201D01*
X133576112Y-91670201D01*
X133576112Y-91670202D01*
X133473387Y-91729511D01*
X133473384Y-91729513D01*
X133389513Y-91813384D01*
X133389511Y-91813387D01*
X133350936Y-91880201D01*
X133330201Y-91916114D01*
X133299500Y-92030691D01*
X126411745Y-92030691D01*
X126429415Y-92020489D01*
X126513291Y-91936613D01*
X126572601Y-91833886D01*
X126603302Y-91719309D01*
X126603302Y-91600691D01*
X126572601Y-91486114D01*
X126513291Y-91383387D01*
X126513286Y-91383382D01*
X126508344Y-91376941D01*
X126510909Y-91374971D01*
X126484683Y-91326941D01*
X126489667Y-91257249D01*
X126518167Y-91212903D01*
X126554459Y-91176612D01*
X126613769Y-91073885D01*
X126644470Y-90959308D01*
X126644470Y-90840690D01*
X126613769Y-90726113D01*
X126554459Y-90623386D01*
X126470583Y-90539510D01*
X126367856Y-90480200D01*
X126253279Y-90449499D01*
X126134661Y-90449499D01*
X126020084Y-90480200D01*
X126020082Y-90480200D01*
X126020082Y-90480201D01*
X125917357Y-90539510D01*
X125917354Y-90539512D01*
X125833483Y-90623383D01*
X125833481Y-90623386D01*
X125774171Y-90726113D01*
X125743470Y-90840690D01*
X125743470Y-90959308D01*
X125774171Y-91073885D01*
X125833481Y-91176612D01*
X125833483Y-91176614D01*
X125838428Y-91183058D01*
X125835861Y-91185027D01*
X125862088Y-91233057D01*
X125857104Y-91302749D01*
X125828604Y-91347095D01*
X125792316Y-91383383D01*
X125792313Y-91383387D01*
X125740061Y-91473890D01*
X125733003Y-91486114D01*
X125702302Y-91600691D01*
X124840500Y-91600691D01*
X124840500Y-91510691D01*
X124809799Y-91396114D01*
X124750489Y-91293387D01*
X124666613Y-91209511D01*
X124563886Y-91150201D01*
X124449309Y-91119500D01*
X124330691Y-91119500D01*
X124216114Y-91150201D01*
X124216112Y-91150201D01*
X124216112Y-91150202D01*
X124113387Y-91209511D01*
X124113384Y-91209513D01*
X124029513Y-91293384D01*
X124029511Y-91293387D01*
X123991451Y-91359309D01*
X123970201Y-91396114D01*
X123939500Y-91510691D01*
X120917461Y-91510691D01*
X120894799Y-91426114D01*
X120835489Y-91323387D01*
X120751613Y-91239511D01*
X120648886Y-91180201D01*
X120534309Y-91149500D01*
X120415691Y-91149500D01*
X120301114Y-91180201D01*
X120301112Y-91180201D01*
X120301112Y-91180202D01*
X120198387Y-91239511D01*
X120198384Y-91239513D01*
X120114513Y-91323384D01*
X120114511Y-91323387D01*
X120070566Y-91399502D01*
X120055201Y-91426114D01*
X120024500Y-91540691D01*
X119181229Y-91540691D01*
X119200904Y-91506613D01*
X119219795Y-91473894D01*
X119219797Y-91473890D01*
X119219798Y-91473887D01*
X119219799Y-91473886D01*
X119250500Y-91359309D01*
X119250500Y-91240691D01*
X119219799Y-91126114D01*
X119160489Y-91023387D01*
X119076613Y-90939511D01*
X118973886Y-90880201D01*
X118859309Y-90849500D01*
X118740691Y-90849500D01*
X118626114Y-90880201D01*
X118626112Y-90880201D01*
X118626112Y-90880202D01*
X118523387Y-90939511D01*
X118523384Y-90939513D01*
X118439513Y-91023384D01*
X118439511Y-91023387D01*
X118384020Y-91119500D01*
X118380201Y-91126114D01*
X118349500Y-91240691D01*
X117795916Y-91240691D01*
X117873886Y-91219799D01*
X117976613Y-91160489D01*
X118060489Y-91076613D01*
X118119799Y-90973886D01*
X118150500Y-90859309D01*
X118150500Y-90740691D01*
X118119799Y-90626114D01*
X118060489Y-90523387D01*
X117976613Y-90439511D01*
X117873886Y-90380201D01*
X117759309Y-90349500D01*
X117640691Y-90349500D01*
X117526114Y-90380201D01*
X117526112Y-90380201D01*
X117526112Y-90380202D01*
X117423387Y-90439511D01*
X117423384Y-90439513D01*
X117339513Y-90523384D01*
X117339511Y-90523387D01*
X117318091Y-90560488D01*
X117280201Y-90626114D01*
X117249500Y-90740691D01*
X100300500Y-90740691D01*
X100300500Y-89634189D01*
X104749500Y-89634189D01*
X104749500Y-89752807D01*
X104780201Y-89867384D01*
X104839511Y-89970111D01*
X104923387Y-90053987D01*
X105026114Y-90113297D01*
X105140691Y-90143998D01*
X105140694Y-90143998D01*
X105259306Y-90143998D01*
X105259309Y-90143998D01*
X105373886Y-90113297D01*
X105476613Y-90053987D01*
X105560489Y-89970111D01*
X105619799Y-89867384D01*
X105650500Y-89752807D01*
X105650500Y-89634189D01*
X108809500Y-89634189D01*
X108809500Y-89752807D01*
X108840201Y-89867384D01*
X108899511Y-89970111D01*
X108983387Y-90053987D01*
X109086114Y-90113297D01*
X109200691Y-90143998D01*
X109200694Y-90143998D01*
X109319306Y-90143998D01*
X109319309Y-90143998D01*
X109433886Y-90113297D01*
X109536613Y-90053987D01*
X109620489Y-89970111D01*
X109679799Y-89867384D01*
X109710500Y-89752807D01*
X109710500Y-89634189D01*
X109679799Y-89519612D01*
X109620489Y-89416885D01*
X109536613Y-89333009D01*
X109433886Y-89273699D01*
X109319309Y-89242998D01*
X109200691Y-89242998D01*
X109086114Y-89273699D01*
X109086112Y-89273699D01*
X109086112Y-89273700D01*
X108983387Y-89333009D01*
X108983384Y-89333011D01*
X108899513Y-89416882D01*
X108899511Y-89416885D01*
X108840201Y-89519612D01*
X108809500Y-89634189D01*
X105650500Y-89634189D01*
X105619799Y-89519612D01*
X105560489Y-89416885D01*
X105476613Y-89333009D01*
X105373886Y-89273699D01*
X105259309Y-89242998D01*
X105140691Y-89242998D01*
X105026114Y-89273699D01*
X105026112Y-89273699D01*
X105026112Y-89273700D01*
X104923387Y-89333009D01*
X104923384Y-89333011D01*
X104839513Y-89416882D01*
X104839511Y-89416885D01*
X104780201Y-89519612D01*
X104749500Y-89634189D01*
X100300500Y-89634189D01*
X100300500Y-89224189D01*
X115704594Y-89224189D01*
X115704594Y-89342807D01*
X115735295Y-89457384D01*
X115794605Y-89560111D01*
X115794607Y-89560113D01*
X115827811Y-89593317D01*
X115861296Y-89654640D01*
X115856312Y-89724332D01*
X115827811Y-89768679D01*
X115794607Y-89801882D01*
X115794605Y-89801885D01*
X115735295Y-89904612D01*
X115704594Y-90019189D01*
X115704594Y-90137807D01*
X115735295Y-90252384D01*
X115794605Y-90355111D01*
X115878481Y-90438987D01*
X115981208Y-90498297D01*
X116095785Y-90528998D01*
X116095788Y-90528998D01*
X116214400Y-90528998D01*
X116214403Y-90528998D01*
X116328980Y-90498297D01*
X116431707Y-90438987D01*
X116515583Y-90355111D01*
X116574893Y-90252384D01*
X116604821Y-90140691D01*
X120799500Y-90140691D01*
X120799500Y-90259309D01*
X120830201Y-90373886D01*
X120889511Y-90476613D01*
X120973387Y-90560489D01*
X121076114Y-90619799D01*
X121190691Y-90650500D01*
X121190694Y-90650500D01*
X121309306Y-90650500D01*
X121309309Y-90650500D01*
X121423886Y-90619799D01*
X121526613Y-90560489D01*
X121610489Y-90476613D01*
X121669799Y-90373886D01*
X121700500Y-90259309D01*
X121700500Y-90230691D01*
X130749500Y-90230691D01*
X130749500Y-90349309D01*
X130780201Y-90463886D01*
X130839511Y-90566613D01*
X130923387Y-90650489D01*
X130942670Y-90661622D01*
X130990886Y-90712189D01*
X131004109Y-90780796D01*
X130978141Y-90845661D01*
X130956167Y-90867377D01*
X130953388Y-90869509D01*
X130869513Y-90953384D01*
X130869511Y-90953387D01*
X130810201Y-91056114D01*
X130779500Y-91170691D01*
X130779500Y-91289309D01*
X130810201Y-91403886D01*
X130869511Y-91506613D01*
X130953387Y-91590489D01*
X131056114Y-91649799D01*
X131170691Y-91680500D01*
X131170694Y-91680500D01*
X131289306Y-91680500D01*
X131289309Y-91680500D01*
X131403886Y-91649799D01*
X131506613Y-91590489D01*
X131590489Y-91506613D01*
X131649799Y-91403886D01*
X131680500Y-91289309D01*
X131680500Y-91170691D01*
X131649799Y-91056114D01*
X131590489Y-90953387D01*
X131506613Y-90869511D01*
X131506610Y-90869509D01*
X131506606Y-90869506D01*
X131487328Y-90858376D01*
X131439113Y-90807809D01*
X131425891Y-90739202D01*
X131451859Y-90674337D01*
X131473844Y-90652613D01*
X131476605Y-90650493D01*
X131476613Y-90650489D01*
X131560489Y-90566613D01*
X131619799Y-90463886D01*
X131650500Y-90349309D01*
X131650500Y-90230691D01*
X131619799Y-90116114D01*
X131560489Y-90013387D01*
X131476613Y-89929511D01*
X131373886Y-89870201D01*
X131259309Y-89839500D01*
X131140691Y-89839500D01*
X131026114Y-89870201D01*
X131026112Y-89870201D01*
X131026112Y-89870202D01*
X130923387Y-89929511D01*
X130923384Y-89929513D01*
X130839513Y-90013384D01*
X130839511Y-90013387D01*
X130781829Y-90113295D01*
X130780201Y-90116114D01*
X130749500Y-90230691D01*
X121700500Y-90230691D01*
X121700500Y-90140691D01*
X121669799Y-90026114D01*
X121610489Y-89923387D01*
X121526613Y-89839511D01*
X121423886Y-89780201D01*
X121309309Y-89749500D01*
X121190691Y-89749500D01*
X121076114Y-89780201D01*
X121076112Y-89780201D01*
X121076112Y-89780202D01*
X120973387Y-89839511D01*
X120973384Y-89839513D01*
X120889513Y-89923384D01*
X120889511Y-89923387D01*
X120830201Y-90026114D01*
X120799500Y-90140691D01*
X116604821Y-90140691D01*
X116605594Y-90137807D01*
X116605594Y-90019189D01*
X116574893Y-89904612D01*
X116515583Y-89801885D01*
X116482377Y-89768679D01*
X116448892Y-89707356D01*
X116453876Y-89637664D01*
X116470241Y-89607428D01*
X116475776Y-89599917D01*
X116505003Y-89570691D01*
X123149499Y-89570691D01*
X123149499Y-89689309D01*
X123180200Y-89803886D01*
X123239510Y-89906613D01*
X123323386Y-89990489D01*
X123426113Y-90049799D01*
X123540690Y-90080500D01*
X123540693Y-90080500D01*
X123659305Y-90080500D01*
X123659308Y-90080500D01*
X123773885Y-90049799D01*
X123876612Y-89990489D01*
X123960488Y-89906613D01*
X124019798Y-89803886D01*
X124050499Y-89689309D01*
X124050499Y-89570691D01*
X124019798Y-89456114D01*
X123960488Y-89353387D01*
X123876612Y-89269511D01*
X123773885Y-89210201D01*
X123659308Y-89179500D01*
X123540690Y-89179500D01*
X123426113Y-89210201D01*
X123426111Y-89210201D01*
X123426111Y-89210202D01*
X123323386Y-89269511D01*
X123323383Y-89269513D01*
X123239512Y-89353384D01*
X123239510Y-89353387D01*
X123180200Y-89456114D01*
X123149499Y-89570691D01*
X116505003Y-89570691D01*
X116515583Y-89560111D01*
X116574893Y-89457384D01*
X116605594Y-89342807D01*
X116605594Y-89224189D01*
X116574893Y-89109612D01*
X116515583Y-89006885D01*
X116431707Y-88923009D01*
X116328980Y-88863699D01*
X116214403Y-88832998D01*
X116095785Y-88832998D01*
X115981208Y-88863699D01*
X115981206Y-88863699D01*
X115981206Y-88863700D01*
X115878481Y-88923009D01*
X115878478Y-88923011D01*
X115794607Y-89006882D01*
X115794605Y-89006885D01*
X115791064Y-89013019D01*
X115735295Y-89109612D01*
X115704594Y-89224189D01*
X100300500Y-89224189D01*
X100300500Y-85997418D01*
X101274499Y-85997418D01*
X101303340Y-86142405D01*
X101303343Y-86142415D01*
X101359912Y-86278986D01*
X101359919Y-86278999D01*
X101442048Y-86401913D01*
X101442051Y-86401917D01*
X101546580Y-86506446D01*
X101546584Y-86506449D01*
X101669498Y-86588578D01*
X101669511Y-86588585D01*
X101806082Y-86645154D01*
X101806087Y-86645156D01*
X101806091Y-86645156D01*
X101806092Y-86645157D01*
X101951079Y-86673998D01*
X101951082Y-86673998D01*
X103298920Y-86673998D01*
X103402901Y-86653314D01*
X103443913Y-86645156D01*
X103580495Y-86588582D01*
X103703416Y-86506449D01*
X103807951Y-86401914D01*
X103890084Y-86278993D01*
X103946658Y-86142411D01*
X103975500Y-85997416D01*
X103975500Y-85851643D01*
X105141500Y-85851643D01*
X105141500Y-85995352D01*
X105169531Y-86136277D01*
X105169534Y-86136286D01*
X105224521Y-86269039D01*
X105224528Y-86269052D01*
X105304359Y-86388526D01*
X105304362Y-86388530D01*
X105405967Y-86490135D01*
X105405971Y-86490138D01*
X105514994Y-86562986D01*
X105559799Y-86616599D01*
X105568506Y-86685924D01*
X105538351Y-86748951D01*
X105508104Y-86773475D01*
X105408476Y-86830996D01*
X105408473Y-86830998D01*
X105312500Y-86926971D01*
X105312495Y-86926977D01*
X105244632Y-87044519D01*
X105244631Y-87044523D01*
X105209500Y-87175631D01*
X105209500Y-87311365D01*
X105244631Y-87442473D01*
X105244632Y-87442476D01*
X105312495Y-87560018D01*
X105312497Y-87560020D01*
X105312498Y-87560022D01*
X105408476Y-87656000D01*
X105408477Y-87656001D01*
X105408479Y-87656002D01*
X105526021Y-87723865D01*
X105526022Y-87723865D01*
X105526025Y-87723867D01*
X105657133Y-87758998D01*
X105657135Y-87758998D01*
X105792865Y-87758998D01*
X105792867Y-87758998D01*
X105923975Y-87723867D01*
X106041524Y-87656000D01*
X106086833Y-87610691D01*
X125619500Y-87610691D01*
X125619500Y-87729309D01*
X125650201Y-87843886D01*
X125709511Y-87946613D01*
X125793387Y-88030489D01*
X125896114Y-88089799D01*
X126010691Y-88120500D01*
X126010694Y-88120500D01*
X126026902Y-88120500D01*
X126093941Y-88140185D01*
X126139696Y-88192989D01*
X126149640Y-88262147D01*
X126120615Y-88325703D01*
X126088903Y-88351886D01*
X126047288Y-88375913D01*
X126047279Y-88375919D01*
X125963408Y-88459790D01*
X125963406Y-88459793D01*
X125904096Y-88562520D01*
X125873395Y-88677097D01*
X125873395Y-88795715D01*
X125904096Y-88910292D01*
X125963406Y-89013019D01*
X125963408Y-89013021D01*
X126053029Y-89102642D01*
X126051835Y-89103835D01*
X126087316Y-89152417D01*
X126091478Y-89222163D01*
X126057271Y-89283086D01*
X126050073Y-89289324D01*
X125964513Y-89374884D01*
X125964511Y-89374887D01*
X125905201Y-89477614D01*
X125874500Y-89592191D01*
X125874500Y-89710809D01*
X125905201Y-89825386D01*
X125964511Y-89928113D01*
X126048387Y-90011989D01*
X126151114Y-90071299D01*
X126265691Y-90102000D01*
X126265694Y-90102000D01*
X126384306Y-90102000D01*
X126384309Y-90102000D01*
X126498886Y-90071299D01*
X126601613Y-90011989D01*
X126685489Y-89928113D01*
X126744799Y-89825386D01*
X126775500Y-89710809D01*
X126775500Y-89592191D01*
X126744799Y-89477614D01*
X126685489Y-89374887D01*
X126601613Y-89291011D01*
X126595866Y-89285264D01*
X126597058Y-89284071D01*
X126561577Y-89235485D01*
X126557417Y-89165739D01*
X126591625Y-89104816D01*
X126598826Y-89098576D01*
X126600505Y-89096896D01*
X126600508Y-89096895D01*
X126684384Y-89013019D01*
X126743694Y-88910292D01*
X126774395Y-88795715D01*
X126774395Y-88677097D01*
X126743694Y-88562520D01*
X126684384Y-88459793D01*
X126600508Y-88375917D01*
X126497781Y-88316607D01*
X126383204Y-88285906D01*
X126366993Y-88285906D01*
X126299954Y-88266221D01*
X126254199Y-88213417D01*
X126244255Y-88144259D01*
X126273280Y-88080703D01*
X126304992Y-88054520D01*
X126324121Y-88043474D01*
X126346613Y-88030489D01*
X126430489Y-87946613D01*
X126489799Y-87843886D01*
X126512091Y-87760691D01*
X129329500Y-87760691D01*
X129329500Y-87879309D01*
X129360201Y-87993886D01*
X129419511Y-88096613D01*
X129503387Y-88180489D01*
X129606114Y-88239799D01*
X129720691Y-88270500D01*
X129720694Y-88270500D01*
X129839306Y-88270500D01*
X129839309Y-88270500D01*
X129953886Y-88239799D01*
X130056613Y-88180489D01*
X130140489Y-88096613D01*
X130199799Y-87993886D01*
X130230500Y-87879309D01*
X130230500Y-87760691D01*
X130199799Y-87646114D01*
X130140489Y-87543387D01*
X130056613Y-87459511D01*
X129953886Y-87400201D01*
X129839309Y-87369500D01*
X129720691Y-87369500D01*
X129606114Y-87400201D01*
X129606112Y-87400201D01*
X129606112Y-87400202D01*
X129503387Y-87459511D01*
X129503384Y-87459513D01*
X129419513Y-87543384D01*
X129419511Y-87543387D01*
X129380652Y-87610693D01*
X129360201Y-87646114D01*
X129329500Y-87760691D01*
X126512091Y-87760691D01*
X126520500Y-87729309D01*
X126520500Y-87610691D01*
X126489799Y-87496114D01*
X126430489Y-87393387D01*
X126346613Y-87309511D01*
X126243886Y-87250201D01*
X126129309Y-87219500D01*
X126010691Y-87219500D01*
X125896114Y-87250201D01*
X125896112Y-87250201D01*
X125896112Y-87250202D01*
X125793387Y-87309511D01*
X125793384Y-87309513D01*
X125709513Y-87393384D01*
X125709511Y-87393387D01*
X125650201Y-87496114D01*
X125619500Y-87610691D01*
X106086833Y-87610691D01*
X106137502Y-87560022D01*
X106205369Y-87442473D01*
X106240500Y-87311365D01*
X106240500Y-87175631D01*
X106205369Y-87044523D01*
X106137502Y-86926974D01*
X106075207Y-86864679D01*
X106041722Y-86803356D01*
X106046706Y-86733664D01*
X106088578Y-86677731D01*
X106154042Y-86653314D01*
X106162888Y-86652998D01*
X107100851Y-86652998D01*
X107100852Y-86652997D01*
X107147829Y-86643653D01*
X107241779Y-86624966D01*
X107241782Y-86624964D01*
X107241787Y-86624964D01*
X107374548Y-86569973D01*
X107494029Y-86490138D01*
X107595640Y-86388527D01*
X107675475Y-86269046D01*
X107730466Y-86136285D01*
X107758500Y-85995348D01*
X107758500Y-85851648D01*
X107758088Y-85849577D01*
X107730468Y-85710718D01*
X107730465Y-85710709D01*
X107727930Y-85704590D01*
X107716718Y-85677520D01*
X107675478Y-85577956D01*
X107675471Y-85577943D01*
X107595640Y-85458469D01*
X107595637Y-85458465D01*
X107494032Y-85356860D01*
X107494028Y-85356857D01*
X107374554Y-85277026D01*
X107374541Y-85277019D01*
X107241788Y-85222032D01*
X107241779Y-85222029D01*
X107100854Y-85193998D01*
X107100850Y-85193998D01*
X105799150Y-85193998D01*
X105799145Y-85193998D01*
X105658220Y-85222029D01*
X105658211Y-85222032D01*
X105525458Y-85277019D01*
X105525445Y-85277026D01*
X105405971Y-85356857D01*
X105405967Y-85356860D01*
X105304362Y-85458465D01*
X105304359Y-85458469D01*
X105224528Y-85577943D01*
X105224521Y-85577956D01*
X105169534Y-85710709D01*
X105169531Y-85710718D01*
X105141500Y-85851643D01*
X103975500Y-85851643D01*
X103975500Y-85849580D01*
X103975500Y-85849577D01*
X103946659Y-85704590D01*
X103946658Y-85704589D01*
X103946658Y-85704585D01*
X103894207Y-85577956D01*
X103890087Y-85568009D01*
X103890080Y-85567996D01*
X103807951Y-85445082D01*
X103807948Y-85445078D01*
X103703419Y-85340549D01*
X103703415Y-85340546D01*
X103580501Y-85258417D01*
X103580488Y-85258410D01*
X103443917Y-85201841D01*
X103443907Y-85201838D01*
X103298920Y-85172998D01*
X103298918Y-85172998D01*
X101951082Y-85172998D01*
X101951080Y-85172998D01*
X101806092Y-85201838D01*
X101806082Y-85201841D01*
X101669511Y-85258410D01*
X101669498Y-85258417D01*
X101546584Y-85340546D01*
X101546580Y-85340549D01*
X101442051Y-85445078D01*
X101442048Y-85445082D01*
X101359919Y-85567996D01*
X101359912Y-85568009D01*
X101303343Y-85704580D01*
X101303340Y-85704590D01*
X101274500Y-85849577D01*
X101274500Y-85849580D01*
X101274500Y-85997416D01*
X101274500Y-85997418D01*
X101274499Y-85997418D01*
X100300500Y-85997418D01*
X100300500Y-84190691D01*
X134599500Y-84190691D01*
X134599500Y-84309309D01*
X134630201Y-84423886D01*
X134689511Y-84526613D01*
X134773387Y-84610489D01*
X134876114Y-84669799D01*
X134990691Y-84700500D01*
X134990694Y-84700500D01*
X135109306Y-84700500D01*
X135109309Y-84700500D01*
X135223886Y-84669799D01*
X135326613Y-84610489D01*
X135410489Y-84526613D01*
X135469799Y-84423886D01*
X135500500Y-84309309D01*
X135500500Y-84190691D01*
X135469799Y-84076114D01*
X135410489Y-83973387D01*
X135326613Y-83889511D01*
X135223886Y-83830201D01*
X135109309Y-83799500D01*
X134990691Y-83799500D01*
X134876114Y-83830201D01*
X134876112Y-83830201D01*
X134876112Y-83830202D01*
X134773387Y-83889511D01*
X134773384Y-83889513D01*
X134689513Y-83973384D01*
X134689511Y-83973387D01*
X134630201Y-84076114D01*
X134599500Y-84190691D01*
X100300500Y-84190691D01*
X100300500Y-83440691D01*
X127349500Y-83440691D01*
X127349500Y-83559309D01*
X127380201Y-83673886D01*
X127439511Y-83776613D01*
X127523387Y-83860489D01*
X127626114Y-83919799D01*
X127740691Y-83950500D01*
X127740694Y-83950500D01*
X127859306Y-83950500D01*
X127859309Y-83950500D01*
X127973886Y-83919799D01*
X128076613Y-83860489D01*
X128160489Y-83776613D01*
X128219799Y-83673886D01*
X128250500Y-83559309D01*
X128250500Y-83440691D01*
X128219799Y-83326114D01*
X128160489Y-83223387D01*
X128076613Y-83139511D01*
X127992055Y-83090691D01*
X130349500Y-83090691D01*
X130349500Y-83209309D01*
X130380201Y-83323886D01*
X130439511Y-83426613D01*
X130523387Y-83510489D01*
X130626114Y-83569799D01*
X130740691Y-83600500D01*
X130740694Y-83600500D01*
X130859306Y-83600500D01*
X130859309Y-83600500D01*
X130973886Y-83569799D01*
X131076613Y-83510489D01*
X131160489Y-83426613D01*
X131219799Y-83323886D01*
X131250500Y-83209309D01*
X131250500Y-83090691D01*
X131219799Y-82976114D01*
X131160489Y-82873387D01*
X131076613Y-82789511D01*
X130973886Y-82730201D01*
X130859309Y-82699500D01*
X130740691Y-82699500D01*
X130626114Y-82730201D01*
X130626112Y-82730201D01*
X130626112Y-82730202D01*
X130523387Y-82789511D01*
X130523384Y-82789513D01*
X130439513Y-82873384D01*
X130439511Y-82873387D01*
X130380201Y-82976114D01*
X130349500Y-83090691D01*
X127992055Y-83090691D01*
X127973886Y-83080201D01*
X127859309Y-83049500D01*
X127740691Y-83049500D01*
X127626114Y-83080201D01*
X127626112Y-83080201D01*
X127626112Y-83080202D01*
X127523387Y-83139511D01*
X127523384Y-83139513D01*
X127439513Y-83223384D01*
X127439511Y-83223387D01*
X127380201Y-83326114D01*
X127349500Y-83440691D01*
X100300500Y-83440691D01*
X100300500Y-81590691D01*
X129099497Y-81590691D01*
X129099497Y-81709309D01*
X129130198Y-81823886D01*
X129189508Y-81926613D01*
X129273384Y-82010489D01*
X129376111Y-82069799D01*
X129490688Y-82100500D01*
X129490691Y-82100500D01*
X129609303Y-82100500D01*
X129609306Y-82100500D01*
X129723883Y-82069799D01*
X129826610Y-82010489D01*
X129910486Y-81926613D01*
X129969796Y-81823886D01*
X130000497Y-81709309D01*
X130000497Y-81590691D01*
X129969796Y-81476114D01*
X129969794Y-81476110D01*
X129940034Y-81424564D01*
X129940033Y-81424562D01*
X129910490Y-81373393D01*
X129910487Y-81373390D01*
X129910486Y-81373387D01*
X129907790Y-81370691D01*
X137469500Y-81370691D01*
X137469500Y-81489309D01*
X137500201Y-81603886D01*
X137559511Y-81706613D01*
X137643387Y-81790489D01*
X137746114Y-81849799D01*
X137860691Y-81880500D01*
X137860694Y-81880500D01*
X137979306Y-81880500D01*
X137979309Y-81880500D01*
X138093886Y-81849799D01*
X138196613Y-81790489D01*
X138280489Y-81706613D01*
X138339799Y-81603886D01*
X138370500Y-81489309D01*
X138370500Y-81370691D01*
X138339799Y-81256114D01*
X138280489Y-81153387D01*
X138196613Y-81069511D01*
X138093886Y-81010201D01*
X137979309Y-80979500D01*
X137860691Y-80979500D01*
X137746114Y-81010201D01*
X137746112Y-81010201D01*
X137746112Y-81010202D01*
X137643387Y-81069511D01*
X137643384Y-81069513D01*
X137559513Y-81153384D01*
X137559511Y-81153387D01*
X137500201Y-81256114D01*
X137469500Y-81370691D01*
X129907790Y-81370691D01*
X129826610Y-81289511D01*
X129723883Y-81230201D01*
X129609306Y-81199500D01*
X129490688Y-81199500D01*
X129376111Y-81230201D01*
X129376109Y-81230201D01*
X129376109Y-81230202D01*
X129273384Y-81289511D01*
X129273381Y-81289513D01*
X129189510Y-81373384D01*
X129189508Y-81373387D01*
X129130198Y-81476114D01*
X129099497Y-81590691D01*
X100300500Y-81590691D01*
X100300500Y-80834880D01*
X127093689Y-80834880D01*
X127093689Y-80953498D01*
X127124390Y-81068075D01*
X127183700Y-81170802D01*
X127267576Y-81254678D01*
X127370303Y-81313988D01*
X127484880Y-81344689D01*
X127484883Y-81344689D01*
X127603495Y-81344689D01*
X127603498Y-81344689D01*
X127718075Y-81313988D01*
X127820802Y-81254678D01*
X127904678Y-81170802D01*
X127963988Y-81068075D01*
X127994689Y-80953498D01*
X127994689Y-80834880D01*
X127963988Y-80720303D01*
X127904678Y-80617576D01*
X127820802Y-80533700D01*
X127718075Y-80474390D01*
X127603498Y-80443689D01*
X127484880Y-80443689D01*
X127370303Y-80474390D01*
X127370301Y-80474390D01*
X127370301Y-80474391D01*
X127267576Y-80533700D01*
X127267573Y-80533702D01*
X127183702Y-80617573D01*
X127183700Y-80617576D01*
X127124390Y-80720303D01*
X127093689Y-80834880D01*
X100300500Y-80834880D01*
X100300500Y-79190691D01*
X126299500Y-79190691D01*
X126299500Y-79309309D01*
X126330201Y-79423886D01*
X126389511Y-79526613D01*
X126473387Y-79610489D01*
X126576114Y-79669799D01*
X126690691Y-79700500D01*
X126690694Y-79700500D01*
X126809306Y-79700500D01*
X126809309Y-79700500D01*
X126923886Y-79669799D01*
X127026613Y-79610489D01*
X127096411Y-79540691D01*
X136449500Y-79540691D01*
X136449500Y-79659309D01*
X136480201Y-79773886D01*
X136539511Y-79876613D01*
X136623387Y-79960489D01*
X136726114Y-80019799D01*
X136840691Y-80050500D01*
X136840694Y-80050500D01*
X136959306Y-80050500D01*
X136959309Y-80050500D01*
X137073886Y-80019799D01*
X137176613Y-79960489D01*
X137260489Y-79876613D01*
X137319799Y-79773886D01*
X137350500Y-79659309D01*
X137350500Y-79540691D01*
X137319799Y-79426114D01*
X137260489Y-79323387D01*
X137176613Y-79239511D01*
X137073886Y-79180201D01*
X136959309Y-79149500D01*
X136840691Y-79149500D01*
X136726114Y-79180201D01*
X136726112Y-79180201D01*
X136726112Y-79180202D01*
X136623387Y-79239511D01*
X136623384Y-79239513D01*
X136539513Y-79323384D01*
X136539511Y-79323387D01*
X136481486Y-79423889D01*
X136480201Y-79426114D01*
X136449500Y-79540691D01*
X127096411Y-79540691D01*
X127110489Y-79526613D01*
X127111554Y-79524767D01*
X127142851Y-79470563D01*
X127164955Y-79432274D01*
X127169799Y-79423886D01*
X127200500Y-79309309D01*
X127200500Y-79190691D01*
X127169799Y-79076114D01*
X127110489Y-78973387D01*
X127026613Y-78889511D01*
X126923886Y-78830201D01*
X126809309Y-78799500D01*
X126690691Y-78799500D01*
X126576114Y-78830201D01*
X126576112Y-78830201D01*
X126576112Y-78830202D01*
X126473387Y-78889511D01*
X126473384Y-78889513D01*
X126389513Y-78973384D01*
X126389511Y-78973387D01*
X126330201Y-79076114D01*
X126299500Y-79190691D01*
X100300500Y-79190691D01*
X100300500Y-77234108D01*
X136699500Y-77234108D01*
X136699500Y-77365891D01*
X136733608Y-77493187D01*
X136766554Y-77550250D01*
X136799500Y-77607314D01*
X136892686Y-77700500D01*
X137006814Y-77766392D01*
X137134108Y-77800500D01*
X137134110Y-77800500D01*
X137265890Y-77800500D01*
X137265892Y-77800500D01*
X137393186Y-77766392D01*
X137507314Y-77700500D01*
X137600500Y-77607314D01*
X137666392Y-77493186D01*
X137700500Y-77365892D01*
X137700500Y-77234108D01*
X137666392Y-77106814D01*
X137600500Y-76992686D01*
X137507314Y-76899500D01*
X137450250Y-76866554D01*
X137393187Y-76833608D01*
X137329539Y-76816554D01*
X137265892Y-76799500D01*
X137134108Y-76799500D01*
X137006812Y-76833608D01*
X136892686Y-76899500D01*
X136892683Y-76899502D01*
X136799502Y-76992683D01*
X136799500Y-76992686D01*
X136733608Y-77106812D01*
X136699500Y-77234108D01*
X100300500Y-77234108D01*
X100300500Y-75961489D01*
X134403822Y-75961489D01*
X134403822Y-76080107D01*
X134434523Y-76194684D01*
X134493833Y-76297411D01*
X134577709Y-76381287D01*
X134680436Y-76440597D01*
X134795013Y-76471298D01*
X134795016Y-76471298D01*
X134913628Y-76471298D01*
X134913631Y-76471298D01*
X135028208Y-76440597D01*
X135130935Y-76381287D01*
X135214811Y-76297411D01*
X135274121Y-76194684D01*
X135304822Y-76080107D01*
X135304822Y-75961489D01*
X135274121Y-75846912D01*
X135214811Y-75744185D01*
X135130935Y-75660309D01*
X135028208Y-75600999D01*
X134913631Y-75570298D01*
X134795013Y-75570298D01*
X134680436Y-75600999D01*
X134680434Y-75600999D01*
X134680434Y-75601000D01*
X134577709Y-75660309D01*
X134577706Y-75660311D01*
X134493835Y-75744182D01*
X134493833Y-75744185D01*
X134434523Y-75846912D01*
X134403822Y-75961489D01*
X100300500Y-75961489D01*
X100300500Y-75340691D01*
X128528002Y-75340691D01*
X128528002Y-75459309D01*
X128558703Y-75573886D01*
X128618013Y-75676613D01*
X128701889Y-75760489D01*
X128804616Y-75819799D01*
X128919193Y-75850500D01*
X128919196Y-75850500D01*
X129037808Y-75850500D01*
X129037811Y-75850500D01*
X129152388Y-75819799D01*
X129255115Y-75760489D01*
X129338991Y-75676613D01*
X129398301Y-75573886D01*
X129429002Y-75459309D01*
X129429002Y-75340691D01*
X129398301Y-75226114D01*
X129338991Y-75123387D01*
X129255115Y-75039511D01*
X129152388Y-74980201D01*
X129037811Y-74949500D01*
X128919193Y-74949500D01*
X128804616Y-74980201D01*
X128804614Y-74980201D01*
X128804614Y-74980202D01*
X128701889Y-75039511D01*
X128701886Y-75039513D01*
X128618015Y-75123384D01*
X128618013Y-75123387D01*
X128558703Y-75226114D01*
X128528002Y-75340691D01*
X100300500Y-75340691D01*
X100300500Y-73940691D01*
X129949500Y-73940691D01*
X129949500Y-74059309D01*
X129980201Y-74173886D01*
X130039511Y-74276613D01*
X130123387Y-74360489D01*
X130226114Y-74419799D01*
X130340691Y-74450500D01*
X130340694Y-74450500D01*
X130459306Y-74450500D01*
X130459309Y-74450500D01*
X130573886Y-74419799D01*
X130676613Y-74360489D01*
X130760489Y-74276613D01*
X130819799Y-74173886D01*
X130850500Y-74059309D01*
X130850500Y-73940691D01*
X130819799Y-73826114D01*
X130760489Y-73723387D01*
X130676613Y-73639511D01*
X130573886Y-73580201D01*
X130459309Y-73549500D01*
X130340691Y-73549500D01*
X130226114Y-73580201D01*
X130226112Y-73580201D01*
X130226112Y-73580202D01*
X130123387Y-73639511D01*
X130123384Y-73639513D01*
X130039513Y-73723384D01*
X130039511Y-73723387D01*
X129980201Y-73826114D01*
X129949500Y-73940691D01*
X100300500Y-73940691D01*
X100300500Y-73359108D01*
X131507200Y-73359108D01*
X131507200Y-73490891D01*
X131541308Y-73618187D01*
X131553620Y-73639511D01*
X131607200Y-73732314D01*
X131700386Y-73825500D01*
X131814514Y-73891392D01*
X131941808Y-73925500D01*
X131941810Y-73925500D01*
X132073590Y-73925500D01*
X132073592Y-73925500D01*
X132200886Y-73891392D01*
X132315014Y-73825500D01*
X132408200Y-73732314D01*
X132474092Y-73618186D01*
X132508200Y-73490892D01*
X132508200Y-73359108D01*
X132474092Y-73231814D01*
X132408200Y-73117686D01*
X132315014Y-73024500D01*
X132257950Y-72991554D01*
X132200887Y-72958608D01*
X132137239Y-72941554D01*
X132073592Y-72924500D01*
X131941808Y-72924500D01*
X131814512Y-72958608D01*
X131700386Y-73024500D01*
X131700383Y-73024502D01*
X131607202Y-73117683D01*
X131607200Y-73117686D01*
X131541308Y-73231812D01*
X131507200Y-73359108D01*
X100300500Y-73359108D01*
X100300500Y-70950691D01*
X132539500Y-70950691D01*
X132539500Y-71069309D01*
X132570201Y-71183886D01*
X132629511Y-71286613D01*
X132713387Y-71370489D01*
X132816114Y-71429799D01*
X132930691Y-71460500D01*
X132930694Y-71460500D01*
X133049306Y-71460500D01*
X133049309Y-71460500D01*
X133163886Y-71429799D01*
X133231622Y-71390691D01*
X134399500Y-71390691D01*
X134399500Y-71509309D01*
X134430201Y-71623886D01*
X134489511Y-71726613D01*
X134573387Y-71810489D01*
X134676114Y-71869799D01*
X134790691Y-71900500D01*
X134790694Y-71900500D01*
X134909306Y-71900500D01*
X134909309Y-71900500D01*
X135023886Y-71869799D01*
X135126613Y-71810489D01*
X135210489Y-71726613D01*
X135269799Y-71623886D01*
X135300500Y-71509309D01*
X135300500Y-71390691D01*
X135269799Y-71276114D01*
X135210489Y-71173387D01*
X135126613Y-71089511D01*
X135023886Y-71030201D01*
X134909309Y-70999500D01*
X134790691Y-70999500D01*
X134676114Y-71030201D01*
X134676112Y-71030201D01*
X134676112Y-71030202D01*
X134573387Y-71089511D01*
X134573384Y-71089513D01*
X134489513Y-71173384D01*
X134489511Y-71173387D01*
X134430201Y-71276114D01*
X134399500Y-71390691D01*
X133231622Y-71390691D01*
X133266613Y-71370489D01*
X133350489Y-71286613D01*
X133409799Y-71183886D01*
X133440500Y-71069309D01*
X133440500Y-70950691D01*
X133409799Y-70836114D01*
X133350489Y-70733387D01*
X133266613Y-70649511D01*
X133163886Y-70590201D01*
X133049309Y-70559500D01*
X132930691Y-70559500D01*
X132816114Y-70590201D01*
X132816112Y-70590201D01*
X132816112Y-70590202D01*
X132713387Y-70649511D01*
X132713384Y-70649513D01*
X132629513Y-70733384D01*
X132629511Y-70733387D01*
X132570201Y-70836114D01*
X132539500Y-70950691D01*
X100300500Y-70950691D01*
X100300500Y-69040691D01*
X128549500Y-69040691D01*
X128549500Y-69159309D01*
X128580201Y-69273886D01*
X128639511Y-69376613D01*
X128723387Y-69460489D01*
X128826114Y-69519799D01*
X128940691Y-69550500D01*
X128940694Y-69550500D01*
X129059306Y-69550500D01*
X129059309Y-69550500D01*
X129173886Y-69519799D01*
X129276613Y-69460489D01*
X129360489Y-69376613D01*
X129419799Y-69273886D01*
X129450500Y-69159309D01*
X129450500Y-69040691D01*
X129419799Y-68926114D01*
X129360489Y-68823387D01*
X129276613Y-68739511D01*
X129173886Y-68680201D01*
X129059309Y-68649500D01*
X128940691Y-68649500D01*
X128826114Y-68680201D01*
X128826112Y-68680201D01*
X128826112Y-68680202D01*
X128723387Y-68739511D01*
X128723384Y-68739513D01*
X128639513Y-68823384D01*
X128639511Y-68823387D01*
X128580201Y-68926114D01*
X128549500Y-69040691D01*
X100300500Y-69040691D01*
X100300500Y-63842998D01*
X123650463Y-63842998D01*
X123650463Y-63974781D01*
X123684571Y-64102077D01*
X123717517Y-64159140D01*
X123750463Y-64216204D01*
X123843649Y-64309390D01*
X123957777Y-64375282D01*
X124085071Y-64409390D01*
X124085073Y-64409390D01*
X124216853Y-64409390D01*
X124216855Y-64409390D01*
X124344149Y-64375282D01*
X124458277Y-64309390D01*
X124551463Y-64216204D01*
X124617355Y-64102076D01*
X124651463Y-63974782D01*
X124651463Y-63842998D01*
X124617355Y-63715704D01*
X124551463Y-63601576D01*
X124458277Y-63508390D01*
X124401213Y-63475444D01*
X124344150Y-63442498D01*
X124280502Y-63425444D01*
X124216855Y-63408390D01*
X124085071Y-63408390D01*
X123957775Y-63442498D01*
X123843649Y-63508390D01*
X123843646Y-63508392D01*
X123750465Y-63601573D01*
X123750463Y-63601576D01*
X123684571Y-63715702D01*
X123650463Y-63842998D01*
X100300500Y-63842998D01*
X100300500Y-61397998D01*
X121205462Y-61397998D01*
X121205462Y-61529781D01*
X121239570Y-61657077D01*
X121251876Y-61678391D01*
X121305462Y-61771204D01*
X121398648Y-61864390D01*
X121512776Y-61930282D01*
X121640070Y-61964390D01*
X121640072Y-61964390D01*
X121771852Y-61964390D01*
X121771854Y-61964390D01*
X121899148Y-61930282D01*
X122013276Y-61864390D01*
X122093558Y-61784108D01*
X123274500Y-61784108D01*
X123274500Y-61915892D01*
X123278356Y-61930282D01*
X123308608Y-62043187D01*
X123341554Y-62100250D01*
X123374500Y-62157314D01*
X123467686Y-62250500D01*
X123581814Y-62316392D01*
X123709108Y-62350500D01*
X123709110Y-62350500D01*
X123840890Y-62350500D01*
X123840892Y-62350500D01*
X123968186Y-62316392D01*
X124082314Y-62250500D01*
X124175500Y-62157314D01*
X124201085Y-62112999D01*
X125380462Y-62112999D01*
X125380462Y-62244782D01*
X125414570Y-62372078D01*
X125447516Y-62429141D01*
X125480462Y-62486205D01*
X125573648Y-62579391D01*
X125687776Y-62645283D01*
X125815070Y-62679391D01*
X125815072Y-62679391D01*
X125946852Y-62679391D01*
X125946854Y-62679391D01*
X126074148Y-62645283D01*
X126188276Y-62579391D01*
X126281462Y-62486205D01*
X126347354Y-62372077D01*
X126381462Y-62244783D01*
X126381462Y-62112999D01*
X126347354Y-61985705D01*
X126281462Y-61871577D01*
X126188276Y-61778391D01*
X126131212Y-61745445D01*
X126074149Y-61712499D01*
X126010501Y-61695445D01*
X125946854Y-61678391D01*
X125815070Y-61678391D01*
X125687774Y-61712499D01*
X125573648Y-61778391D01*
X125573645Y-61778393D01*
X125480464Y-61871574D01*
X125480462Y-61871577D01*
X125414570Y-61985703D01*
X125380462Y-62112999D01*
X124201085Y-62112999D01*
X124241392Y-62043186D01*
X124275500Y-61915892D01*
X124275500Y-61784108D01*
X124241392Y-61656814D01*
X124175500Y-61542686D01*
X124082314Y-61449500D01*
X123993114Y-61398000D01*
X123968187Y-61383608D01*
X123904539Y-61366554D01*
X123840892Y-61349500D01*
X123709108Y-61349500D01*
X123581812Y-61383608D01*
X123467686Y-61449500D01*
X123467683Y-61449502D01*
X123374502Y-61542683D01*
X123374500Y-61542686D01*
X123308608Y-61656812D01*
X123293290Y-61713981D01*
X123274500Y-61784108D01*
X122093558Y-61784108D01*
X122106462Y-61771204D01*
X122172354Y-61657076D01*
X122206462Y-61529782D01*
X122206462Y-61397998D01*
X122172354Y-61270704D01*
X122106462Y-61156576D01*
X122013276Y-61063390D01*
X121956212Y-61030444D01*
X121899149Y-60997498D01*
X121835501Y-60980444D01*
X121771854Y-60963390D01*
X121640070Y-60963390D01*
X121512774Y-60997498D01*
X121398648Y-61063390D01*
X121398645Y-61063392D01*
X121305464Y-61156573D01*
X121305462Y-61156576D01*
X121239570Y-61270702D01*
X121205462Y-61397998D01*
X100300500Y-61397998D01*
X100300500Y-59667998D01*
X122935462Y-59667998D01*
X122935462Y-59799781D01*
X122969570Y-59927077D01*
X123002516Y-59984140D01*
X123035462Y-60041204D01*
X123128648Y-60134390D01*
X123242776Y-60200282D01*
X123370070Y-60234390D01*
X123370072Y-60234390D01*
X123501852Y-60234390D01*
X123501854Y-60234390D01*
X123629148Y-60200282D01*
X123743276Y-60134390D01*
X123836462Y-60041204D01*
X123902354Y-59927076D01*
X123936462Y-59799782D01*
X123936462Y-59667998D01*
X123902354Y-59540704D01*
X123836462Y-59426576D01*
X123743276Y-59333390D01*
X123686212Y-59300444D01*
X123629149Y-59267498D01*
X123565501Y-59250444D01*
X123501854Y-59233390D01*
X123370070Y-59233390D01*
X123242774Y-59267498D01*
X123128648Y-59333390D01*
X123128645Y-59333392D01*
X123035464Y-59426573D01*
X123035462Y-59426576D01*
X122969570Y-59540702D01*
X122935462Y-59667998D01*
X100300500Y-59667998D01*
X100300500Y-56604066D01*
X100300765Y-56595956D01*
X100303093Y-56560438D01*
X100307208Y-56497648D01*
X100799500Y-56497648D01*
X100799500Y-56702351D01*
X100831522Y-56904534D01*
X100894781Y-57099223D01*
X100987715Y-57281613D01*
X101108028Y-57447213D01*
X101252786Y-57591971D01*
X101407749Y-57704556D01*
X101418390Y-57712287D01*
X101534607Y-57771503D01*
X101600776Y-57805218D01*
X101600778Y-57805218D01*
X101600781Y-57805220D01*
X101705137Y-57839127D01*
X101795465Y-57868477D01*
X101896557Y-57884488D01*
X101997648Y-57900500D01*
X101997649Y-57900500D01*
X102202351Y-57900500D01*
X102202352Y-57900500D01*
X102404534Y-57868477D01*
X102599219Y-57805220D01*
X102781610Y-57712287D01*
X102874590Y-57644732D01*
X102947213Y-57591971D01*
X102947215Y-57591968D01*
X102947219Y-57591966D01*
X103091966Y-57447219D01*
X103091968Y-57447215D01*
X103091971Y-57447213D01*
X103144732Y-57374590D01*
X103212287Y-57281610D01*
X103305220Y-57099219D01*
X103368477Y-56904534D01*
X103400500Y-56702352D01*
X103400500Y-56497648D01*
X142099500Y-56497648D01*
X142099500Y-56702351D01*
X142131522Y-56904534D01*
X142194781Y-57099223D01*
X142287715Y-57281613D01*
X142408028Y-57447213D01*
X142552786Y-57591971D01*
X142707749Y-57704556D01*
X142718390Y-57712287D01*
X142834607Y-57771503D01*
X142900776Y-57805218D01*
X142900778Y-57805218D01*
X142900781Y-57805220D01*
X143005137Y-57839127D01*
X143095465Y-57868477D01*
X143196557Y-57884488D01*
X143297648Y-57900500D01*
X143297649Y-57900500D01*
X143502351Y-57900500D01*
X143502352Y-57900500D01*
X143704534Y-57868477D01*
X143899219Y-57805220D01*
X144081610Y-57712287D01*
X144174590Y-57644732D01*
X144247213Y-57591971D01*
X144247215Y-57591968D01*
X144247219Y-57591966D01*
X144391966Y-57447219D01*
X144391968Y-57447215D01*
X144391971Y-57447213D01*
X144444732Y-57374590D01*
X144512287Y-57281610D01*
X144605220Y-57099219D01*
X144668477Y-56904534D01*
X144700500Y-56702352D01*
X144700500Y-56497648D01*
X144668477Y-56295466D01*
X144605220Y-56100781D01*
X144605218Y-56100778D01*
X144605218Y-56100776D01*
X144571503Y-56034607D01*
X144512287Y-55918390D01*
X144487692Y-55884538D01*
X144391971Y-55752786D01*
X144247213Y-55608028D01*
X144081613Y-55487715D01*
X144081612Y-55487714D01*
X144081610Y-55487713D01*
X144024653Y-55458691D01*
X143899223Y-55394781D01*
X143704534Y-55331522D01*
X143529995Y-55303878D01*
X143502352Y-55299500D01*
X143297648Y-55299500D01*
X143273329Y-55303351D01*
X143095465Y-55331522D01*
X142900776Y-55394781D01*
X142718386Y-55487715D01*
X142552786Y-55608028D01*
X142408028Y-55752786D01*
X142287715Y-55918386D01*
X142194781Y-56100776D01*
X142131522Y-56295465D01*
X142099500Y-56497648D01*
X103400500Y-56497648D01*
X103368477Y-56295466D01*
X103305220Y-56100781D01*
X103305218Y-56100778D01*
X103305218Y-56100776D01*
X103271503Y-56034607D01*
X103212287Y-55918390D01*
X103187692Y-55884538D01*
X103091971Y-55752786D01*
X102947213Y-55608028D01*
X102781613Y-55487715D01*
X102781612Y-55487714D01*
X102781610Y-55487713D01*
X102724653Y-55458691D01*
X102599223Y-55394781D01*
X102404534Y-55331522D01*
X102229995Y-55303878D01*
X102202352Y-55299500D01*
X101997648Y-55299500D01*
X101973329Y-55303351D01*
X101795465Y-55331522D01*
X101600776Y-55394781D01*
X101418386Y-55487715D01*
X101252786Y-55608028D01*
X101108028Y-55752786D01*
X100987715Y-55918386D01*
X100894781Y-56100776D01*
X100831522Y-56295465D01*
X100799500Y-56497648D01*
X100307208Y-56497648D01*
X100315364Y-56373209D01*
X100317479Y-56357153D01*
X100360230Y-56142226D01*
X100364428Y-56126561D01*
X100384606Y-56067118D01*
X100434868Y-55919049D01*
X100441067Y-55904083D01*
X100537995Y-55707533D01*
X100546098Y-55693498D01*
X100667853Y-55511279D01*
X100677710Y-55498433D01*
X100822207Y-55333665D01*
X100833665Y-55322207D01*
X100998433Y-55177710D01*
X101011279Y-55167853D01*
X101193498Y-55046098D01*
X101207533Y-55037995D01*
X101404083Y-54941067D01*
X101419049Y-54934868D01*
X101567118Y-54884606D01*
X101626561Y-54864428D01*
X101642228Y-54860230D01*
X101857153Y-54817479D01*
X101873209Y-54815364D01*
X102078058Y-54801938D01*
X102095958Y-54800765D01*
X102104067Y-54800500D01*
X102147595Y-54800500D01*
X143352405Y-54800500D01*
X143395933Y-54800500D01*
X143404043Y-54800765D01*
G37*
%TD.AperFunction*%
%TD*%
M02*
