%TF.GenerationSoftware,KiCad,Pcbnew,9.0.2+1*%
%TF.CreationDate,2025-08-01T20:38:56+01:00*%
%TF.ProjectId,PocketSat,506f636b-6574-4536-9174-2e6b69636164,rev?*%
%TF.SameCoordinates,Original*%
%TF.FileFunction,Soldermask,Bot*%
%TF.FilePolarity,Negative*%
%FSLAX46Y46*%
G04 Gerber Fmt 4.6, Leading zero omitted, Abs format (unit mm)*
G04 Created by KiCad (PCBNEW 9.0.2+1) date 2025-08-01 20:38:56*
%MOMM*%
%LPD*%
G01*
G04 APERTURE LIST*
%ADD10C,2.200000*%
%ADD11C,0.630000*%
%ADD12C,0.600000*%
%ADD13O,2.520000X1.362000*%
%ADD14O,2.604000X1.404000*%
G04 APERTURE END LIST*
D10*
%TO.C,H2*%
X143400000Y-97900000D03*
%TD*%
%TO.C,H3*%
X143400000Y-56600000D03*
%TD*%
D11*
%TO.C,J20*%
X105725000Y-87243498D03*
D12*
X105725000Y-93243498D03*
D13*
X106450000Y-85923498D03*
X106450000Y-94563498D03*
D14*
X102625000Y-85923498D03*
X102625000Y-94563498D03*
%TD*%
D10*
%TO.C,H4*%
X102100000Y-56600000D03*
%TD*%
%TO.C,H1*%
X102100000Y-97900000D03*
%TD*%
G36*
X138393039Y-73589685D02*
G01*
X138438794Y-73642489D01*
X138450000Y-73694000D01*
X138450000Y-75206000D01*
X138430315Y-75273039D01*
X138377511Y-75318794D01*
X138326000Y-75330000D01*
X136074000Y-75330000D01*
X136006961Y-75310315D01*
X135961206Y-75257511D01*
X135950000Y-75206000D01*
X135950000Y-73694000D01*
X135969685Y-73626961D01*
X136022489Y-73581206D01*
X136074000Y-73570000D01*
X138326000Y-73570000D01*
X138393039Y-73589685D01*
G37*
G36*
X130243039Y-88719685D02*
G01*
X130288794Y-88772489D01*
X130300000Y-88824000D01*
X130300000Y-91776000D01*
X130280315Y-91843039D01*
X130227511Y-91888794D01*
X130176000Y-91900000D01*
X127224000Y-91900000D01*
X127156961Y-91880315D01*
X127111206Y-91827511D01*
X127100000Y-91776000D01*
X127100000Y-88824000D01*
X127119685Y-88756961D01*
X127172489Y-88711206D01*
X127224000Y-88700000D01*
X130176000Y-88700000D01*
X130243039Y-88719685D01*
G37*
M02*
