%TF.GenerationSoftware,KiCad,Pcbnew,9.0.2+1*%
%TF.CreationDate,2025-08-01T20:38:58+01:00*%
%TF.ProjectId,PocketSat,506f636b-6574-4536-9174-2e6b69636164,rev?*%
%TF.SameCoordinates,Original*%
%TF.FileFunction,Drillmap*%
%TF.FilePolarity,Positive*%
%FSLAX45Y45*%
G04 Gerber Fmt 4.5, Leading zero omitted, Abs format (unit mm)*
G04 Created by KiCad (PCBNEW 9.0.2+1) date 2025-08-01 20:38:58*
%MOMM*%
%LPD*%
G01*
G04 APERTURE LIST*
%ADD10C,0.050000*%
%ADD11C,0.200000*%
%ADD12C,0.100000*%
%ADD13C,0.220000*%
G04 APERTURE END LIST*
D10*
X14550000Y-9790000D02*
G75*
G02*
X14340000Y-10000000I-210000J0D01*
G01*
X10210000Y-10000000D02*
G75*
G02*
X10000000Y-9790000I0J210000D01*
G01*
X10000000Y-5660000D02*
G75*
G02*
X10210000Y-5450000I210000J0D01*
G01*
X14550000Y-5660000D02*
X14550000Y-9790000D01*
X14340000Y-5450000D02*
G75*
G02*
X14550000Y-5660000I0J-210000D01*
G01*
X10000000Y-9790000D02*
X10000000Y-5660000D01*
X10210000Y-5450000D02*
X14340000Y-5450000D01*
X14340000Y-10000000D02*
X10210000Y-10000000D01*
D11*
D12*
X10542500Y-9294350D02*
X10602500Y-9354350D01*
X10602500Y-9294350D02*
X10542500Y-9354350D01*
X10604000Y-8724350D02*
G75*
G02*
X10541000Y-8724350I-31500J0D01*
G01*
X10541000Y-8724350D02*
G75*
G02*
X10604000Y-8724350I31500J0D01*
G01*
D13*
X10210000Y-5550000D02*
X10210000Y-5770000D01*
X10100000Y-5660000D02*
X10320000Y-5660000D01*
X10210000Y-9680000D02*
X10210000Y-9900000D01*
X10100000Y-9790000D02*
X10320000Y-9790000D01*
X14340000Y-5550000D02*
X14340000Y-5770000D01*
X14230000Y-5660000D02*
X14450000Y-5660000D01*
X14340000Y-9680000D02*
X14340000Y-9900000D01*
X14230000Y-9790000D02*
X14450000Y-9790000D01*
D11*
X10258277Y-10313984D02*
X10258277Y-10113984D01*
X10258277Y-10113984D02*
X10305896Y-10113984D01*
X10305896Y-10113984D02*
X10334467Y-10123508D01*
X10334467Y-10123508D02*
X10353515Y-10142555D01*
X10353515Y-10142555D02*
X10363039Y-10161603D01*
X10363039Y-10161603D02*
X10372563Y-10199698D01*
X10372563Y-10199698D02*
X10372563Y-10228270D01*
X10372563Y-10228270D02*
X10363039Y-10266365D01*
X10363039Y-10266365D02*
X10353515Y-10285412D01*
X10353515Y-10285412D02*
X10334467Y-10304460D01*
X10334467Y-10304460D02*
X10305896Y-10313984D01*
X10305896Y-10313984D02*
X10258277Y-10313984D01*
X10458277Y-10313984D02*
X10458277Y-10180650D01*
X10458277Y-10218746D02*
X10467801Y-10199698D01*
X10467801Y-10199698D02*
X10477324Y-10190174D01*
X10477324Y-10190174D02*
X10496372Y-10180650D01*
X10496372Y-10180650D02*
X10515420Y-10180650D01*
X10582086Y-10313984D02*
X10582086Y-10180650D01*
X10582086Y-10113984D02*
X10572563Y-10123508D01*
X10572563Y-10123508D02*
X10582086Y-10133031D01*
X10582086Y-10133031D02*
X10591610Y-10123508D01*
X10591610Y-10123508D02*
X10582086Y-10113984D01*
X10582086Y-10113984D02*
X10582086Y-10133031D01*
X10705896Y-10313984D02*
X10686848Y-10304460D01*
X10686848Y-10304460D02*
X10677324Y-10285412D01*
X10677324Y-10285412D02*
X10677324Y-10113984D01*
X10810658Y-10313984D02*
X10791610Y-10304460D01*
X10791610Y-10304460D02*
X10782086Y-10285412D01*
X10782086Y-10285412D02*
X10782086Y-10113984D01*
X11039229Y-10313984D02*
X11039229Y-10113984D01*
X11039229Y-10113984D02*
X11105896Y-10256841D01*
X11105896Y-10256841D02*
X11172563Y-10113984D01*
X11172563Y-10113984D02*
X11172563Y-10313984D01*
X11353515Y-10313984D02*
X11353515Y-10209222D01*
X11353515Y-10209222D02*
X11343991Y-10190174D01*
X11343991Y-10190174D02*
X11324943Y-10180650D01*
X11324943Y-10180650D02*
X11286848Y-10180650D01*
X11286848Y-10180650D02*
X11267801Y-10190174D01*
X11353515Y-10304460D02*
X11334467Y-10313984D01*
X11334467Y-10313984D02*
X11286848Y-10313984D01*
X11286848Y-10313984D02*
X11267801Y-10304460D01*
X11267801Y-10304460D02*
X11258277Y-10285412D01*
X11258277Y-10285412D02*
X11258277Y-10266365D01*
X11258277Y-10266365D02*
X11267801Y-10247317D01*
X11267801Y-10247317D02*
X11286848Y-10237793D01*
X11286848Y-10237793D02*
X11334467Y-10237793D01*
X11334467Y-10237793D02*
X11353515Y-10228270D01*
X11448753Y-10180650D02*
X11448753Y-10380650D01*
X11448753Y-10190174D02*
X11467801Y-10180650D01*
X11467801Y-10180650D02*
X11505896Y-10180650D01*
X11505896Y-10180650D02*
X11524943Y-10190174D01*
X11524943Y-10190174D02*
X11534467Y-10199698D01*
X11534467Y-10199698D02*
X11543991Y-10218746D01*
X11543991Y-10218746D02*
X11543991Y-10275889D01*
X11543991Y-10275889D02*
X11534467Y-10294936D01*
X11534467Y-10294936D02*
X11524943Y-10304460D01*
X11524943Y-10304460D02*
X11505896Y-10313984D01*
X11505896Y-10313984D02*
X11467801Y-10313984D01*
X11467801Y-10313984D02*
X11448753Y-10304460D01*
X11629705Y-10294936D02*
X11639229Y-10304460D01*
X11639229Y-10304460D02*
X11629705Y-10313984D01*
X11629705Y-10313984D02*
X11620182Y-10304460D01*
X11620182Y-10304460D02*
X11629705Y-10294936D01*
X11629705Y-10294936D02*
X11629705Y-10313984D01*
X11629705Y-10190174D02*
X11639229Y-10199698D01*
X11639229Y-10199698D02*
X11629705Y-10209222D01*
X11629705Y-10209222D02*
X11620182Y-10199698D01*
X11620182Y-10199698D02*
X11629705Y-10190174D01*
X11629705Y-10190174D02*
X11629705Y-10209222D01*
D12*
X9937500Y-10612500D02*
X9997500Y-10672500D01*
X9997500Y-10612500D02*
X9937500Y-10672500D01*
D11*
X10296372Y-10533984D02*
X10315420Y-10533984D01*
X10315420Y-10533984D02*
X10334467Y-10543508D01*
X10334467Y-10543508D02*
X10343991Y-10553031D01*
X10343991Y-10553031D02*
X10353515Y-10572079D01*
X10353515Y-10572079D02*
X10363039Y-10610174D01*
X10363039Y-10610174D02*
X10363039Y-10657793D01*
X10363039Y-10657793D02*
X10353515Y-10695889D01*
X10353515Y-10695889D02*
X10343991Y-10714936D01*
X10343991Y-10714936D02*
X10334467Y-10724460D01*
X10334467Y-10724460D02*
X10315420Y-10733984D01*
X10315420Y-10733984D02*
X10296372Y-10733984D01*
X10296372Y-10733984D02*
X10277324Y-10724460D01*
X10277324Y-10724460D02*
X10267801Y-10714936D01*
X10267801Y-10714936D02*
X10258277Y-10695889D01*
X10258277Y-10695889D02*
X10248753Y-10657793D01*
X10248753Y-10657793D02*
X10248753Y-10610174D01*
X10248753Y-10610174D02*
X10258277Y-10572079D01*
X10258277Y-10572079D02*
X10267801Y-10553031D01*
X10267801Y-10553031D02*
X10277324Y-10543508D01*
X10277324Y-10543508D02*
X10296372Y-10533984D01*
X10448753Y-10714936D02*
X10458277Y-10724460D01*
X10458277Y-10724460D02*
X10448753Y-10733984D01*
X10448753Y-10733984D02*
X10439229Y-10724460D01*
X10439229Y-10724460D02*
X10448753Y-10714936D01*
X10448753Y-10714936D02*
X10448753Y-10733984D01*
X10629705Y-10533984D02*
X10591610Y-10533984D01*
X10591610Y-10533984D02*
X10572563Y-10543508D01*
X10572563Y-10543508D02*
X10563039Y-10553031D01*
X10563039Y-10553031D02*
X10543991Y-10581603D01*
X10543991Y-10581603D02*
X10534467Y-10619698D01*
X10534467Y-10619698D02*
X10534467Y-10695889D01*
X10534467Y-10695889D02*
X10543991Y-10714936D01*
X10543991Y-10714936D02*
X10553515Y-10724460D01*
X10553515Y-10724460D02*
X10572563Y-10733984D01*
X10572563Y-10733984D02*
X10610658Y-10733984D01*
X10610658Y-10733984D02*
X10629705Y-10724460D01*
X10629705Y-10724460D02*
X10639229Y-10714936D01*
X10639229Y-10714936D02*
X10648753Y-10695889D01*
X10648753Y-10695889D02*
X10648753Y-10648270D01*
X10648753Y-10648270D02*
X10639229Y-10629222D01*
X10639229Y-10629222D02*
X10629705Y-10619698D01*
X10629705Y-10619698D02*
X10610658Y-10610174D01*
X10610658Y-10610174D02*
X10572563Y-10610174D01*
X10572563Y-10610174D02*
X10553515Y-10619698D01*
X10553515Y-10619698D02*
X10543991Y-10629222D01*
X10543991Y-10629222D02*
X10534467Y-10648270D01*
X10772563Y-10533984D02*
X10791610Y-10533984D01*
X10791610Y-10533984D02*
X10810658Y-10543508D01*
X10810658Y-10543508D02*
X10820182Y-10553031D01*
X10820182Y-10553031D02*
X10829705Y-10572079D01*
X10829705Y-10572079D02*
X10839229Y-10610174D01*
X10839229Y-10610174D02*
X10839229Y-10657793D01*
X10839229Y-10657793D02*
X10829705Y-10695889D01*
X10829705Y-10695889D02*
X10820182Y-10714936D01*
X10820182Y-10714936D02*
X10810658Y-10724460D01*
X10810658Y-10724460D02*
X10791610Y-10733984D01*
X10791610Y-10733984D02*
X10772563Y-10733984D01*
X10772563Y-10733984D02*
X10753515Y-10724460D01*
X10753515Y-10724460D02*
X10743991Y-10714936D01*
X10743991Y-10714936D02*
X10734467Y-10695889D01*
X10734467Y-10695889D02*
X10724944Y-10657793D01*
X10724944Y-10657793D02*
X10724944Y-10610174D01*
X10724944Y-10610174D02*
X10734467Y-10572079D01*
X10734467Y-10572079D02*
X10743991Y-10553031D01*
X10743991Y-10553031D02*
X10753515Y-10543508D01*
X10753515Y-10543508D02*
X10772563Y-10533984D01*
X10963039Y-10533984D02*
X10982086Y-10533984D01*
X10982086Y-10533984D02*
X11001134Y-10543508D01*
X11001134Y-10543508D02*
X11010658Y-10553031D01*
X11010658Y-10553031D02*
X11020182Y-10572079D01*
X11020182Y-10572079D02*
X11029705Y-10610174D01*
X11029705Y-10610174D02*
X11029705Y-10657793D01*
X11029705Y-10657793D02*
X11020182Y-10695889D01*
X11020182Y-10695889D02*
X11010658Y-10714936D01*
X11010658Y-10714936D02*
X11001134Y-10724460D01*
X11001134Y-10724460D02*
X10982086Y-10733984D01*
X10982086Y-10733984D02*
X10963039Y-10733984D01*
X10963039Y-10733984D02*
X10943991Y-10724460D01*
X10943991Y-10724460D02*
X10934467Y-10714936D01*
X10934467Y-10714936D02*
X10924944Y-10695889D01*
X10924944Y-10695889D02*
X10915420Y-10657793D01*
X10915420Y-10657793D02*
X10915420Y-10610174D01*
X10915420Y-10610174D02*
X10924944Y-10572079D01*
X10924944Y-10572079D02*
X10934467Y-10553031D01*
X10934467Y-10553031D02*
X10943991Y-10543508D01*
X10943991Y-10543508D02*
X10963039Y-10533984D01*
X11115420Y-10733984D02*
X11115420Y-10600650D01*
X11115420Y-10619698D02*
X11124944Y-10610174D01*
X11124944Y-10610174D02*
X11143991Y-10600650D01*
X11143991Y-10600650D02*
X11172563Y-10600650D01*
X11172563Y-10600650D02*
X11191610Y-10610174D01*
X11191610Y-10610174D02*
X11201134Y-10629222D01*
X11201134Y-10629222D02*
X11201134Y-10733984D01*
X11201134Y-10629222D02*
X11210658Y-10610174D01*
X11210658Y-10610174D02*
X11229705Y-10600650D01*
X11229705Y-10600650D02*
X11258277Y-10600650D01*
X11258277Y-10600650D02*
X11277324Y-10610174D01*
X11277324Y-10610174D02*
X11286848Y-10629222D01*
X11286848Y-10629222D02*
X11286848Y-10733984D01*
X11382086Y-10733984D02*
X11382086Y-10600650D01*
X11382086Y-10619698D02*
X11391610Y-10610174D01*
X11391610Y-10610174D02*
X11410658Y-10600650D01*
X11410658Y-10600650D02*
X11439229Y-10600650D01*
X11439229Y-10600650D02*
X11458277Y-10610174D01*
X11458277Y-10610174D02*
X11467801Y-10629222D01*
X11467801Y-10629222D02*
X11467801Y-10733984D01*
X11467801Y-10629222D02*
X11477324Y-10610174D01*
X11477324Y-10610174D02*
X11496372Y-10600650D01*
X11496372Y-10600650D02*
X11524943Y-10600650D01*
X11524943Y-10600650D02*
X11543991Y-10610174D01*
X11543991Y-10610174D02*
X11553515Y-10629222D01*
X11553515Y-10629222D02*
X11553515Y-10733984D01*
X11943991Y-10524460D02*
X11772563Y-10781603D01*
X12201134Y-10533984D02*
X12220182Y-10533984D01*
X12220182Y-10533984D02*
X12239229Y-10543508D01*
X12239229Y-10543508D02*
X12248753Y-10553031D01*
X12248753Y-10553031D02*
X12258277Y-10572079D01*
X12258277Y-10572079D02*
X12267801Y-10610174D01*
X12267801Y-10610174D02*
X12267801Y-10657793D01*
X12267801Y-10657793D02*
X12258277Y-10695889D01*
X12258277Y-10695889D02*
X12248753Y-10714936D01*
X12248753Y-10714936D02*
X12239229Y-10724460D01*
X12239229Y-10724460D02*
X12220182Y-10733984D01*
X12220182Y-10733984D02*
X12201134Y-10733984D01*
X12201134Y-10733984D02*
X12182086Y-10724460D01*
X12182086Y-10724460D02*
X12172563Y-10714936D01*
X12172563Y-10714936D02*
X12163039Y-10695889D01*
X12163039Y-10695889D02*
X12153515Y-10657793D01*
X12153515Y-10657793D02*
X12153515Y-10610174D01*
X12153515Y-10610174D02*
X12163039Y-10572079D01*
X12163039Y-10572079D02*
X12172563Y-10553031D01*
X12172563Y-10553031D02*
X12182086Y-10543508D01*
X12182086Y-10543508D02*
X12201134Y-10533984D01*
X12353515Y-10714936D02*
X12363039Y-10724460D01*
X12363039Y-10724460D02*
X12353515Y-10733984D01*
X12353515Y-10733984D02*
X12343991Y-10724460D01*
X12343991Y-10724460D02*
X12353515Y-10714936D01*
X12353515Y-10714936D02*
X12353515Y-10733984D01*
X12486848Y-10533984D02*
X12505896Y-10533984D01*
X12505896Y-10533984D02*
X12524944Y-10543508D01*
X12524944Y-10543508D02*
X12534467Y-10553031D01*
X12534467Y-10553031D02*
X12543991Y-10572079D01*
X12543991Y-10572079D02*
X12553515Y-10610174D01*
X12553515Y-10610174D02*
X12553515Y-10657793D01*
X12553515Y-10657793D02*
X12543991Y-10695889D01*
X12543991Y-10695889D02*
X12534467Y-10714936D01*
X12534467Y-10714936D02*
X12524944Y-10724460D01*
X12524944Y-10724460D02*
X12505896Y-10733984D01*
X12505896Y-10733984D02*
X12486848Y-10733984D01*
X12486848Y-10733984D02*
X12467801Y-10724460D01*
X12467801Y-10724460D02*
X12458277Y-10714936D01*
X12458277Y-10714936D02*
X12448753Y-10695889D01*
X12448753Y-10695889D02*
X12439229Y-10657793D01*
X12439229Y-10657793D02*
X12439229Y-10610174D01*
X12439229Y-10610174D02*
X12448753Y-10572079D01*
X12448753Y-10572079D02*
X12458277Y-10553031D01*
X12458277Y-10553031D02*
X12467801Y-10543508D01*
X12467801Y-10543508D02*
X12486848Y-10533984D01*
X12629706Y-10553031D02*
X12639229Y-10543508D01*
X12639229Y-10543508D02*
X12658277Y-10533984D01*
X12658277Y-10533984D02*
X12705896Y-10533984D01*
X12705896Y-10533984D02*
X12724944Y-10543508D01*
X12724944Y-10543508D02*
X12734467Y-10553031D01*
X12734467Y-10553031D02*
X12743991Y-10572079D01*
X12743991Y-10572079D02*
X12743991Y-10591127D01*
X12743991Y-10591127D02*
X12734467Y-10619698D01*
X12734467Y-10619698D02*
X12620182Y-10733984D01*
X12620182Y-10733984D02*
X12743991Y-10733984D01*
X12810658Y-10533984D02*
X12934467Y-10533984D01*
X12934467Y-10533984D02*
X12867801Y-10610174D01*
X12867801Y-10610174D02*
X12896372Y-10610174D01*
X12896372Y-10610174D02*
X12915420Y-10619698D01*
X12915420Y-10619698D02*
X12924944Y-10629222D01*
X12924944Y-10629222D02*
X12934467Y-10648270D01*
X12934467Y-10648270D02*
X12934467Y-10695889D01*
X12934467Y-10695889D02*
X12924944Y-10714936D01*
X12924944Y-10714936D02*
X12915420Y-10724460D01*
X12915420Y-10724460D02*
X12896372Y-10733984D01*
X12896372Y-10733984D02*
X12839229Y-10733984D01*
X12839229Y-10733984D02*
X12820182Y-10724460D01*
X12820182Y-10724460D02*
X12810658Y-10714936D01*
X13105896Y-10533984D02*
X13067801Y-10533984D01*
X13067801Y-10533984D02*
X13048753Y-10543508D01*
X13048753Y-10543508D02*
X13039229Y-10553031D01*
X13039229Y-10553031D02*
X13020182Y-10581603D01*
X13020182Y-10581603D02*
X13010658Y-10619698D01*
X13010658Y-10619698D02*
X13010658Y-10695889D01*
X13010658Y-10695889D02*
X13020182Y-10714936D01*
X13020182Y-10714936D02*
X13029706Y-10724460D01*
X13029706Y-10724460D02*
X13048753Y-10733984D01*
X13048753Y-10733984D02*
X13086848Y-10733984D01*
X13086848Y-10733984D02*
X13105896Y-10724460D01*
X13105896Y-10724460D02*
X13115420Y-10714936D01*
X13115420Y-10714936D02*
X13124944Y-10695889D01*
X13124944Y-10695889D02*
X13124944Y-10648270D01*
X13124944Y-10648270D02*
X13115420Y-10629222D01*
X13115420Y-10629222D02*
X13105896Y-10619698D01*
X13105896Y-10619698D02*
X13086848Y-10610174D01*
X13086848Y-10610174D02*
X13048753Y-10610174D01*
X13048753Y-10610174D02*
X13029706Y-10619698D01*
X13029706Y-10619698D02*
X13020182Y-10629222D01*
X13020182Y-10629222D02*
X13010658Y-10648270D01*
X13201134Y-10533984D02*
X13201134Y-10572079D01*
X13277325Y-10533984D02*
X13277325Y-10572079D01*
X13572563Y-10810174D02*
X13563039Y-10800650D01*
X13563039Y-10800650D02*
X13543991Y-10772079D01*
X13543991Y-10772079D02*
X13534468Y-10753031D01*
X13534468Y-10753031D02*
X13524944Y-10724460D01*
X13524944Y-10724460D02*
X13515420Y-10676841D01*
X13515420Y-10676841D02*
X13515420Y-10638746D01*
X13515420Y-10638746D02*
X13524944Y-10591127D01*
X13524944Y-10591127D02*
X13534468Y-10562555D01*
X13534468Y-10562555D02*
X13543991Y-10543508D01*
X13543991Y-10543508D02*
X13563039Y-10514936D01*
X13563039Y-10514936D02*
X13572563Y-10505412D01*
X13753515Y-10733984D02*
X13639229Y-10733984D01*
X13696372Y-10733984D02*
X13696372Y-10533984D01*
X13696372Y-10533984D02*
X13677325Y-10562555D01*
X13677325Y-10562555D02*
X13658277Y-10581603D01*
X13658277Y-10581603D02*
X13639229Y-10591127D01*
X13991610Y-10733984D02*
X13991610Y-10533984D01*
X14077325Y-10733984D02*
X14077325Y-10629222D01*
X14077325Y-10629222D02*
X14067801Y-10610174D01*
X14067801Y-10610174D02*
X14048753Y-10600650D01*
X14048753Y-10600650D02*
X14020182Y-10600650D01*
X14020182Y-10600650D02*
X14001134Y-10610174D01*
X14001134Y-10610174D02*
X13991610Y-10619698D01*
X14201134Y-10733984D02*
X14182087Y-10724460D01*
X14182087Y-10724460D02*
X14172563Y-10714936D01*
X14172563Y-10714936D02*
X14163039Y-10695889D01*
X14163039Y-10695889D02*
X14163039Y-10638746D01*
X14163039Y-10638746D02*
X14172563Y-10619698D01*
X14172563Y-10619698D02*
X14182087Y-10610174D01*
X14182087Y-10610174D02*
X14201134Y-10600650D01*
X14201134Y-10600650D02*
X14229706Y-10600650D01*
X14229706Y-10600650D02*
X14248753Y-10610174D01*
X14248753Y-10610174D02*
X14258277Y-10619698D01*
X14258277Y-10619698D02*
X14267801Y-10638746D01*
X14267801Y-10638746D02*
X14267801Y-10695889D01*
X14267801Y-10695889D02*
X14258277Y-10714936D01*
X14258277Y-10714936D02*
X14248753Y-10724460D01*
X14248753Y-10724460D02*
X14229706Y-10733984D01*
X14229706Y-10733984D02*
X14201134Y-10733984D01*
X14382087Y-10733984D02*
X14363039Y-10724460D01*
X14363039Y-10724460D02*
X14353515Y-10705412D01*
X14353515Y-10705412D02*
X14353515Y-10533984D01*
X14534468Y-10724460D02*
X14515420Y-10733984D01*
X14515420Y-10733984D02*
X14477325Y-10733984D01*
X14477325Y-10733984D02*
X14458277Y-10724460D01*
X14458277Y-10724460D02*
X14448753Y-10705412D01*
X14448753Y-10705412D02*
X14448753Y-10629222D01*
X14448753Y-10629222D02*
X14458277Y-10610174D01*
X14458277Y-10610174D02*
X14477325Y-10600650D01*
X14477325Y-10600650D02*
X14515420Y-10600650D01*
X14515420Y-10600650D02*
X14534468Y-10610174D01*
X14534468Y-10610174D02*
X14543991Y-10629222D01*
X14543991Y-10629222D02*
X14543991Y-10648270D01*
X14543991Y-10648270D02*
X14448753Y-10667317D01*
X14610658Y-10810174D02*
X14620182Y-10800650D01*
X14620182Y-10800650D02*
X14639230Y-10772079D01*
X14639230Y-10772079D02*
X14648753Y-10753031D01*
X14648753Y-10753031D02*
X14658277Y-10724460D01*
X14658277Y-10724460D02*
X14667801Y-10676841D01*
X14667801Y-10676841D02*
X14667801Y-10638746D01*
X14667801Y-10638746D02*
X14658277Y-10591127D01*
X14658277Y-10591127D02*
X14648753Y-10562555D01*
X14648753Y-10562555D02*
X14639230Y-10543508D01*
X14639230Y-10543508D02*
X14620182Y-10514936D01*
X14620182Y-10514936D02*
X14610658Y-10505412D01*
X14972563Y-10810174D02*
X14963039Y-10800650D01*
X14963039Y-10800650D02*
X14943991Y-10772079D01*
X14943991Y-10772079D02*
X14934468Y-10753031D01*
X14934468Y-10753031D02*
X14924944Y-10724460D01*
X14924944Y-10724460D02*
X14915420Y-10676841D01*
X14915420Y-10676841D02*
X14915420Y-10638746D01*
X14915420Y-10638746D02*
X14924944Y-10591127D01*
X14924944Y-10591127D02*
X14934468Y-10562555D01*
X14934468Y-10562555D02*
X14943991Y-10543508D01*
X14943991Y-10543508D02*
X14963039Y-10514936D01*
X14963039Y-10514936D02*
X14972563Y-10505412D01*
X15048753Y-10600650D02*
X15048753Y-10733984D01*
X15048753Y-10619698D02*
X15058277Y-10610174D01*
X15058277Y-10610174D02*
X15077325Y-10600650D01*
X15077325Y-10600650D02*
X15105896Y-10600650D01*
X15105896Y-10600650D02*
X15124944Y-10610174D01*
X15124944Y-10610174D02*
X15134468Y-10629222D01*
X15134468Y-10629222D02*
X15134468Y-10733984D01*
X15258277Y-10733984D02*
X15239230Y-10724460D01*
X15239230Y-10724460D02*
X15229706Y-10714936D01*
X15229706Y-10714936D02*
X15220182Y-10695889D01*
X15220182Y-10695889D02*
X15220182Y-10638746D01*
X15220182Y-10638746D02*
X15229706Y-10619698D01*
X15229706Y-10619698D02*
X15239230Y-10610174D01*
X15239230Y-10610174D02*
X15258277Y-10600650D01*
X15258277Y-10600650D02*
X15286849Y-10600650D01*
X15286849Y-10600650D02*
X15305896Y-10610174D01*
X15305896Y-10610174D02*
X15315420Y-10619698D01*
X15315420Y-10619698D02*
X15324944Y-10638746D01*
X15324944Y-10638746D02*
X15324944Y-10695889D01*
X15324944Y-10695889D02*
X15315420Y-10714936D01*
X15315420Y-10714936D02*
X15305896Y-10724460D01*
X15305896Y-10724460D02*
X15286849Y-10733984D01*
X15286849Y-10733984D02*
X15258277Y-10733984D01*
X15382087Y-10600650D02*
X15458277Y-10600650D01*
X15410658Y-10533984D02*
X15410658Y-10705412D01*
X15410658Y-10705412D02*
X15420182Y-10724460D01*
X15420182Y-10724460D02*
X15439230Y-10733984D01*
X15439230Y-10733984D02*
X15458277Y-10733984D01*
X15677325Y-10600650D02*
X15677325Y-10800650D01*
X15677325Y-10610174D02*
X15696372Y-10600650D01*
X15696372Y-10600650D02*
X15734468Y-10600650D01*
X15734468Y-10600650D02*
X15753515Y-10610174D01*
X15753515Y-10610174D02*
X15763039Y-10619698D01*
X15763039Y-10619698D02*
X15772563Y-10638746D01*
X15772563Y-10638746D02*
X15772563Y-10695889D01*
X15772563Y-10695889D02*
X15763039Y-10714936D01*
X15763039Y-10714936D02*
X15753515Y-10724460D01*
X15753515Y-10724460D02*
X15734468Y-10733984D01*
X15734468Y-10733984D02*
X15696372Y-10733984D01*
X15696372Y-10733984D02*
X15677325Y-10724460D01*
X15886849Y-10733984D02*
X15867801Y-10724460D01*
X15867801Y-10724460D02*
X15858277Y-10705412D01*
X15858277Y-10705412D02*
X15858277Y-10533984D01*
X16048753Y-10733984D02*
X16048753Y-10629222D01*
X16048753Y-10629222D02*
X16039230Y-10610174D01*
X16039230Y-10610174D02*
X16020182Y-10600650D01*
X16020182Y-10600650D02*
X15982087Y-10600650D01*
X15982087Y-10600650D02*
X15963039Y-10610174D01*
X16048753Y-10724460D02*
X16029706Y-10733984D01*
X16029706Y-10733984D02*
X15982087Y-10733984D01*
X15982087Y-10733984D02*
X15963039Y-10724460D01*
X15963039Y-10724460D02*
X15953515Y-10705412D01*
X15953515Y-10705412D02*
X15953515Y-10686365D01*
X15953515Y-10686365D02*
X15963039Y-10667317D01*
X15963039Y-10667317D02*
X15982087Y-10657793D01*
X15982087Y-10657793D02*
X16029706Y-10657793D01*
X16029706Y-10657793D02*
X16048753Y-10648270D01*
X16115420Y-10600650D02*
X16191611Y-10600650D01*
X16143992Y-10533984D02*
X16143992Y-10705412D01*
X16143992Y-10705412D02*
X16153515Y-10724460D01*
X16153515Y-10724460D02*
X16172563Y-10733984D01*
X16172563Y-10733984D02*
X16191611Y-10733984D01*
X16334468Y-10724460D02*
X16315420Y-10733984D01*
X16315420Y-10733984D02*
X16277325Y-10733984D01*
X16277325Y-10733984D02*
X16258277Y-10724460D01*
X16258277Y-10724460D02*
X16248753Y-10705412D01*
X16248753Y-10705412D02*
X16248753Y-10629222D01*
X16248753Y-10629222D02*
X16258277Y-10610174D01*
X16258277Y-10610174D02*
X16277325Y-10600650D01*
X16277325Y-10600650D02*
X16315420Y-10600650D01*
X16315420Y-10600650D02*
X16334468Y-10610174D01*
X16334468Y-10610174D02*
X16343992Y-10629222D01*
X16343992Y-10629222D02*
X16343992Y-10648270D01*
X16343992Y-10648270D02*
X16248753Y-10667317D01*
X16515420Y-10733984D02*
X16515420Y-10533984D01*
X16515420Y-10724460D02*
X16496373Y-10733984D01*
X16496373Y-10733984D02*
X16458277Y-10733984D01*
X16458277Y-10733984D02*
X16439230Y-10724460D01*
X16439230Y-10724460D02*
X16429706Y-10714936D01*
X16429706Y-10714936D02*
X16420182Y-10695889D01*
X16420182Y-10695889D02*
X16420182Y-10638746D01*
X16420182Y-10638746D02*
X16429706Y-10619698D01*
X16429706Y-10619698D02*
X16439230Y-10610174D01*
X16439230Y-10610174D02*
X16458277Y-10600650D01*
X16458277Y-10600650D02*
X16496373Y-10600650D01*
X16496373Y-10600650D02*
X16515420Y-10610174D01*
X16591611Y-10810174D02*
X16601134Y-10800650D01*
X16601134Y-10800650D02*
X16620182Y-10772079D01*
X16620182Y-10772079D02*
X16629706Y-10753031D01*
X16629706Y-10753031D02*
X16639230Y-10724460D01*
X16639230Y-10724460D02*
X16648753Y-10676841D01*
X16648753Y-10676841D02*
X16648753Y-10638746D01*
X16648753Y-10638746D02*
X16639230Y-10591127D01*
X16639230Y-10591127D02*
X16629706Y-10562555D01*
X16629706Y-10562555D02*
X16620182Y-10543508D01*
X16620182Y-10543508D02*
X16601134Y-10514936D01*
X16601134Y-10514936D02*
X16591611Y-10505412D01*
D12*
X9997500Y-10906500D02*
G75*
G02*
X9934500Y-10906500I-31500J0D01*
G01*
X9934500Y-10906500D02*
G75*
G02*
X9997500Y-10906500I31500J0D01*
G01*
D11*
X10296372Y-10797984D02*
X10315420Y-10797984D01*
X10315420Y-10797984D02*
X10334467Y-10807508D01*
X10334467Y-10807508D02*
X10343991Y-10817031D01*
X10343991Y-10817031D02*
X10353515Y-10836079D01*
X10353515Y-10836079D02*
X10363039Y-10874174D01*
X10363039Y-10874174D02*
X10363039Y-10921793D01*
X10363039Y-10921793D02*
X10353515Y-10959889D01*
X10353515Y-10959889D02*
X10343991Y-10978936D01*
X10343991Y-10978936D02*
X10334467Y-10988460D01*
X10334467Y-10988460D02*
X10315420Y-10997984D01*
X10315420Y-10997984D02*
X10296372Y-10997984D01*
X10296372Y-10997984D02*
X10277324Y-10988460D01*
X10277324Y-10988460D02*
X10267801Y-10978936D01*
X10267801Y-10978936D02*
X10258277Y-10959889D01*
X10258277Y-10959889D02*
X10248753Y-10921793D01*
X10248753Y-10921793D02*
X10248753Y-10874174D01*
X10248753Y-10874174D02*
X10258277Y-10836079D01*
X10258277Y-10836079D02*
X10267801Y-10817031D01*
X10267801Y-10817031D02*
X10277324Y-10807508D01*
X10277324Y-10807508D02*
X10296372Y-10797984D01*
X10448753Y-10978936D02*
X10458277Y-10988460D01*
X10458277Y-10988460D02*
X10448753Y-10997984D01*
X10448753Y-10997984D02*
X10439229Y-10988460D01*
X10439229Y-10988460D02*
X10448753Y-10978936D01*
X10448753Y-10978936D02*
X10448753Y-10997984D01*
X10629705Y-10797984D02*
X10591610Y-10797984D01*
X10591610Y-10797984D02*
X10572563Y-10807508D01*
X10572563Y-10807508D02*
X10563039Y-10817031D01*
X10563039Y-10817031D02*
X10543991Y-10845603D01*
X10543991Y-10845603D02*
X10534467Y-10883698D01*
X10534467Y-10883698D02*
X10534467Y-10959889D01*
X10534467Y-10959889D02*
X10543991Y-10978936D01*
X10543991Y-10978936D02*
X10553515Y-10988460D01*
X10553515Y-10988460D02*
X10572563Y-10997984D01*
X10572563Y-10997984D02*
X10610658Y-10997984D01*
X10610658Y-10997984D02*
X10629705Y-10988460D01*
X10629705Y-10988460D02*
X10639229Y-10978936D01*
X10639229Y-10978936D02*
X10648753Y-10959889D01*
X10648753Y-10959889D02*
X10648753Y-10912270D01*
X10648753Y-10912270D02*
X10639229Y-10893222D01*
X10639229Y-10893222D02*
X10629705Y-10883698D01*
X10629705Y-10883698D02*
X10610658Y-10874174D01*
X10610658Y-10874174D02*
X10572563Y-10874174D01*
X10572563Y-10874174D02*
X10553515Y-10883698D01*
X10553515Y-10883698D02*
X10543991Y-10893222D01*
X10543991Y-10893222D02*
X10534467Y-10912270D01*
X10715420Y-10797984D02*
X10839229Y-10797984D01*
X10839229Y-10797984D02*
X10772563Y-10874174D01*
X10772563Y-10874174D02*
X10801134Y-10874174D01*
X10801134Y-10874174D02*
X10820182Y-10883698D01*
X10820182Y-10883698D02*
X10829705Y-10893222D01*
X10829705Y-10893222D02*
X10839229Y-10912270D01*
X10839229Y-10912270D02*
X10839229Y-10959889D01*
X10839229Y-10959889D02*
X10829705Y-10978936D01*
X10829705Y-10978936D02*
X10820182Y-10988460D01*
X10820182Y-10988460D02*
X10801134Y-10997984D01*
X10801134Y-10997984D02*
X10743991Y-10997984D01*
X10743991Y-10997984D02*
X10724944Y-10988460D01*
X10724944Y-10988460D02*
X10715420Y-10978936D01*
X10963039Y-10797984D02*
X10982086Y-10797984D01*
X10982086Y-10797984D02*
X11001134Y-10807508D01*
X11001134Y-10807508D02*
X11010658Y-10817031D01*
X11010658Y-10817031D02*
X11020182Y-10836079D01*
X11020182Y-10836079D02*
X11029705Y-10874174D01*
X11029705Y-10874174D02*
X11029705Y-10921793D01*
X11029705Y-10921793D02*
X11020182Y-10959889D01*
X11020182Y-10959889D02*
X11010658Y-10978936D01*
X11010658Y-10978936D02*
X11001134Y-10988460D01*
X11001134Y-10988460D02*
X10982086Y-10997984D01*
X10982086Y-10997984D02*
X10963039Y-10997984D01*
X10963039Y-10997984D02*
X10943991Y-10988460D01*
X10943991Y-10988460D02*
X10934467Y-10978936D01*
X10934467Y-10978936D02*
X10924944Y-10959889D01*
X10924944Y-10959889D02*
X10915420Y-10921793D01*
X10915420Y-10921793D02*
X10915420Y-10874174D01*
X10915420Y-10874174D02*
X10924944Y-10836079D01*
X10924944Y-10836079D02*
X10934467Y-10817031D01*
X10934467Y-10817031D02*
X10943991Y-10807508D01*
X10943991Y-10807508D02*
X10963039Y-10797984D01*
X11115420Y-10997984D02*
X11115420Y-10864650D01*
X11115420Y-10883698D02*
X11124944Y-10874174D01*
X11124944Y-10874174D02*
X11143991Y-10864650D01*
X11143991Y-10864650D02*
X11172563Y-10864650D01*
X11172563Y-10864650D02*
X11191610Y-10874174D01*
X11191610Y-10874174D02*
X11201134Y-10893222D01*
X11201134Y-10893222D02*
X11201134Y-10997984D01*
X11201134Y-10893222D02*
X11210658Y-10874174D01*
X11210658Y-10874174D02*
X11229705Y-10864650D01*
X11229705Y-10864650D02*
X11258277Y-10864650D01*
X11258277Y-10864650D02*
X11277324Y-10874174D01*
X11277324Y-10874174D02*
X11286848Y-10893222D01*
X11286848Y-10893222D02*
X11286848Y-10997984D01*
X11382086Y-10997984D02*
X11382086Y-10864650D01*
X11382086Y-10883698D02*
X11391610Y-10874174D01*
X11391610Y-10874174D02*
X11410658Y-10864650D01*
X11410658Y-10864650D02*
X11439229Y-10864650D01*
X11439229Y-10864650D02*
X11458277Y-10874174D01*
X11458277Y-10874174D02*
X11467801Y-10893222D01*
X11467801Y-10893222D02*
X11467801Y-10997984D01*
X11467801Y-10893222D02*
X11477324Y-10874174D01*
X11477324Y-10874174D02*
X11496372Y-10864650D01*
X11496372Y-10864650D02*
X11524943Y-10864650D01*
X11524943Y-10864650D02*
X11543991Y-10874174D01*
X11543991Y-10874174D02*
X11553515Y-10893222D01*
X11553515Y-10893222D02*
X11553515Y-10997984D01*
X11943991Y-10788460D02*
X11772563Y-11045603D01*
X12201134Y-10797984D02*
X12220182Y-10797984D01*
X12220182Y-10797984D02*
X12239229Y-10807508D01*
X12239229Y-10807508D02*
X12248753Y-10817031D01*
X12248753Y-10817031D02*
X12258277Y-10836079D01*
X12258277Y-10836079D02*
X12267801Y-10874174D01*
X12267801Y-10874174D02*
X12267801Y-10921793D01*
X12267801Y-10921793D02*
X12258277Y-10959889D01*
X12258277Y-10959889D02*
X12248753Y-10978936D01*
X12248753Y-10978936D02*
X12239229Y-10988460D01*
X12239229Y-10988460D02*
X12220182Y-10997984D01*
X12220182Y-10997984D02*
X12201134Y-10997984D01*
X12201134Y-10997984D02*
X12182086Y-10988460D01*
X12182086Y-10988460D02*
X12172563Y-10978936D01*
X12172563Y-10978936D02*
X12163039Y-10959889D01*
X12163039Y-10959889D02*
X12153515Y-10921793D01*
X12153515Y-10921793D02*
X12153515Y-10874174D01*
X12153515Y-10874174D02*
X12163039Y-10836079D01*
X12163039Y-10836079D02*
X12172563Y-10817031D01*
X12172563Y-10817031D02*
X12182086Y-10807508D01*
X12182086Y-10807508D02*
X12201134Y-10797984D01*
X12353515Y-10978936D02*
X12363039Y-10988460D01*
X12363039Y-10988460D02*
X12353515Y-10997984D01*
X12353515Y-10997984D02*
X12343991Y-10988460D01*
X12343991Y-10988460D02*
X12353515Y-10978936D01*
X12353515Y-10978936D02*
X12353515Y-10997984D01*
X12486848Y-10797984D02*
X12505896Y-10797984D01*
X12505896Y-10797984D02*
X12524944Y-10807508D01*
X12524944Y-10807508D02*
X12534467Y-10817031D01*
X12534467Y-10817031D02*
X12543991Y-10836079D01*
X12543991Y-10836079D02*
X12553515Y-10874174D01*
X12553515Y-10874174D02*
X12553515Y-10921793D01*
X12553515Y-10921793D02*
X12543991Y-10959889D01*
X12543991Y-10959889D02*
X12534467Y-10978936D01*
X12534467Y-10978936D02*
X12524944Y-10988460D01*
X12524944Y-10988460D02*
X12505896Y-10997984D01*
X12505896Y-10997984D02*
X12486848Y-10997984D01*
X12486848Y-10997984D02*
X12467801Y-10988460D01*
X12467801Y-10988460D02*
X12458277Y-10978936D01*
X12458277Y-10978936D02*
X12448753Y-10959889D01*
X12448753Y-10959889D02*
X12439229Y-10921793D01*
X12439229Y-10921793D02*
X12439229Y-10874174D01*
X12439229Y-10874174D02*
X12448753Y-10836079D01*
X12448753Y-10836079D02*
X12458277Y-10817031D01*
X12458277Y-10817031D02*
X12467801Y-10807508D01*
X12467801Y-10807508D02*
X12486848Y-10797984D01*
X12629706Y-10817031D02*
X12639229Y-10807508D01*
X12639229Y-10807508D02*
X12658277Y-10797984D01*
X12658277Y-10797984D02*
X12705896Y-10797984D01*
X12705896Y-10797984D02*
X12724944Y-10807508D01*
X12724944Y-10807508D02*
X12734467Y-10817031D01*
X12734467Y-10817031D02*
X12743991Y-10836079D01*
X12743991Y-10836079D02*
X12743991Y-10855127D01*
X12743991Y-10855127D02*
X12734467Y-10883698D01*
X12734467Y-10883698D02*
X12620182Y-10997984D01*
X12620182Y-10997984D02*
X12743991Y-10997984D01*
X12915420Y-10864650D02*
X12915420Y-10997984D01*
X12867801Y-10788460D02*
X12820182Y-10931317D01*
X12820182Y-10931317D02*
X12943991Y-10931317D01*
X13048753Y-10883698D02*
X13029706Y-10874174D01*
X13029706Y-10874174D02*
X13020182Y-10864650D01*
X13020182Y-10864650D02*
X13010658Y-10845603D01*
X13010658Y-10845603D02*
X13010658Y-10836079D01*
X13010658Y-10836079D02*
X13020182Y-10817031D01*
X13020182Y-10817031D02*
X13029706Y-10807508D01*
X13029706Y-10807508D02*
X13048753Y-10797984D01*
X13048753Y-10797984D02*
X13086848Y-10797984D01*
X13086848Y-10797984D02*
X13105896Y-10807508D01*
X13105896Y-10807508D02*
X13115420Y-10817031D01*
X13115420Y-10817031D02*
X13124944Y-10836079D01*
X13124944Y-10836079D02*
X13124944Y-10845603D01*
X13124944Y-10845603D02*
X13115420Y-10864650D01*
X13115420Y-10864650D02*
X13105896Y-10874174D01*
X13105896Y-10874174D02*
X13086848Y-10883698D01*
X13086848Y-10883698D02*
X13048753Y-10883698D01*
X13048753Y-10883698D02*
X13029706Y-10893222D01*
X13029706Y-10893222D02*
X13020182Y-10902746D01*
X13020182Y-10902746D02*
X13010658Y-10921793D01*
X13010658Y-10921793D02*
X13010658Y-10959889D01*
X13010658Y-10959889D02*
X13020182Y-10978936D01*
X13020182Y-10978936D02*
X13029706Y-10988460D01*
X13029706Y-10988460D02*
X13048753Y-10997984D01*
X13048753Y-10997984D02*
X13086848Y-10997984D01*
X13086848Y-10997984D02*
X13105896Y-10988460D01*
X13105896Y-10988460D02*
X13115420Y-10978936D01*
X13115420Y-10978936D02*
X13124944Y-10959889D01*
X13124944Y-10959889D02*
X13124944Y-10921793D01*
X13124944Y-10921793D02*
X13115420Y-10902746D01*
X13115420Y-10902746D02*
X13105896Y-10893222D01*
X13105896Y-10893222D02*
X13086848Y-10883698D01*
X13201134Y-10797984D02*
X13201134Y-10836079D01*
X13277325Y-10797984D02*
X13277325Y-10836079D01*
X13572563Y-11074174D02*
X13563039Y-11064650D01*
X13563039Y-11064650D02*
X13543991Y-11036079D01*
X13543991Y-11036079D02*
X13534468Y-11017031D01*
X13534468Y-11017031D02*
X13524944Y-10988460D01*
X13524944Y-10988460D02*
X13515420Y-10940841D01*
X13515420Y-10940841D02*
X13515420Y-10902746D01*
X13515420Y-10902746D02*
X13524944Y-10855127D01*
X13524944Y-10855127D02*
X13534468Y-10826555D01*
X13534468Y-10826555D02*
X13543991Y-10807508D01*
X13543991Y-10807508D02*
X13563039Y-10778936D01*
X13563039Y-10778936D02*
X13572563Y-10769412D01*
X13753515Y-10997984D02*
X13639229Y-10997984D01*
X13696372Y-10997984D02*
X13696372Y-10797984D01*
X13696372Y-10797984D02*
X13677325Y-10826555D01*
X13677325Y-10826555D02*
X13658277Y-10845603D01*
X13658277Y-10845603D02*
X13639229Y-10855127D01*
X13991610Y-10997984D02*
X13991610Y-10797984D01*
X14077325Y-10997984D02*
X14077325Y-10893222D01*
X14077325Y-10893222D02*
X14067801Y-10874174D01*
X14067801Y-10874174D02*
X14048753Y-10864650D01*
X14048753Y-10864650D02*
X14020182Y-10864650D01*
X14020182Y-10864650D02*
X14001134Y-10874174D01*
X14001134Y-10874174D02*
X13991610Y-10883698D01*
X14201134Y-10997984D02*
X14182087Y-10988460D01*
X14182087Y-10988460D02*
X14172563Y-10978936D01*
X14172563Y-10978936D02*
X14163039Y-10959889D01*
X14163039Y-10959889D02*
X14163039Y-10902746D01*
X14163039Y-10902746D02*
X14172563Y-10883698D01*
X14172563Y-10883698D02*
X14182087Y-10874174D01*
X14182087Y-10874174D02*
X14201134Y-10864650D01*
X14201134Y-10864650D02*
X14229706Y-10864650D01*
X14229706Y-10864650D02*
X14248753Y-10874174D01*
X14248753Y-10874174D02*
X14258277Y-10883698D01*
X14258277Y-10883698D02*
X14267801Y-10902746D01*
X14267801Y-10902746D02*
X14267801Y-10959889D01*
X14267801Y-10959889D02*
X14258277Y-10978936D01*
X14258277Y-10978936D02*
X14248753Y-10988460D01*
X14248753Y-10988460D02*
X14229706Y-10997984D01*
X14229706Y-10997984D02*
X14201134Y-10997984D01*
X14382087Y-10997984D02*
X14363039Y-10988460D01*
X14363039Y-10988460D02*
X14353515Y-10969412D01*
X14353515Y-10969412D02*
X14353515Y-10797984D01*
X14534468Y-10988460D02*
X14515420Y-10997984D01*
X14515420Y-10997984D02*
X14477325Y-10997984D01*
X14477325Y-10997984D02*
X14458277Y-10988460D01*
X14458277Y-10988460D02*
X14448753Y-10969412D01*
X14448753Y-10969412D02*
X14448753Y-10893222D01*
X14448753Y-10893222D02*
X14458277Y-10874174D01*
X14458277Y-10874174D02*
X14477325Y-10864650D01*
X14477325Y-10864650D02*
X14515420Y-10864650D01*
X14515420Y-10864650D02*
X14534468Y-10874174D01*
X14534468Y-10874174D02*
X14543991Y-10893222D01*
X14543991Y-10893222D02*
X14543991Y-10912270D01*
X14543991Y-10912270D02*
X14448753Y-10931317D01*
X14610658Y-11074174D02*
X14620182Y-11064650D01*
X14620182Y-11064650D02*
X14639230Y-11036079D01*
X14639230Y-11036079D02*
X14648753Y-11017031D01*
X14648753Y-11017031D02*
X14658277Y-10988460D01*
X14658277Y-10988460D02*
X14667801Y-10940841D01*
X14667801Y-10940841D02*
X14667801Y-10902746D01*
X14667801Y-10902746D02*
X14658277Y-10855127D01*
X14658277Y-10855127D02*
X14648753Y-10826555D01*
X14648753Y-10826555D02*
X14639230Y-10807508D01*
X14639230Y-10807508D02*
X14620182Y-10778936D01*
X14620182Y-10778936D02*
X14610658Y-10769412D01*
X14972563Y-11074174D02*
X14963039Y-11064650D01*
X14963039Y-11064650D02*
X14943991Y-11036079D01*
X14943991Y-11036079D02*
X14934468Y-11017031D01*
X14934468Y-11017031D02*
X14924944Y-10988460D01*
X14924944Y-10988460D02*
X14915420Y-10940841D01*
X14915420Y-10940841D02*
X14915420Y-10902746D01*
X14915420Y-10902746D02*
X14924944Y-10855127D01*
X14924944Y-10855127D02*
X14934468Y-10826555D01*
X14934468Y-10826555D02*
X14943991Y-10807508D01*
X14943991Y-10807508D02*
X14963039Y-10778936D01*
X14963039Y-10778936D02*
X14972563Y-10769412D01*
X15048753Y-10864650D02*
X15048753Y-10997984D01*
X15048753Y-10883698D02*
X15058277Y-10874174D01*
X15058277Y-10874174D02*
X15077325Y-10864650D01*
X15077325Y-10864650D02*
X15105896Y-10864650D01*
X15105896Y-10864650D02*
X15124944Y-10874174D01*
X15124944Y-10874174D02*
X15134468Y-10893222D01*
X15134468Y-10893222D02*
X15134468Y-10997984D01*
X15258277Y-10997984D02*
X15239230Y-10988460D01*
X15239230Y-10988460D02*
X15229706Y-10978936D01*
X15229706Y-10978936D02*
X15220182Y-10959889D01*
X15220182Y-10959889D02*
X15220182Y-10902746D01*
X15220182Y-10902746D02*
X15229706Y-10883698D01*
X15229706Y-10883698D02*
X15239230Y-10874174D01*
X15239230Y-10874174D02*
X15258277Y-10864650D01*
X15258277Y-10864650D02*
X15286849Y-10864650D01*
X15286849Y-10864650D02*
X15305896Y-10874174D01*
X15305896Y-10874174D02*
X15315420Y-10883698D01*
X15315420Y-10883698D02*
X15324944Y-10902746D01*
X15324944Y-10902746D02*
X15324944Y-10959889D01*
X15324944Y-10959889D02*
X15315420Y-10978936D01*
X15315420Y-10978936D02*
X15305896Y-10988460D01*
X15305896Y-10988460D02*
X15286849Y-10997984D01*
X15286849Y-10997984D02*
X15258277Y-10997984D01*
X15382087Y-10864650D02*
X15458277Y-10864650D01*
X15410658Y-10797984D02*
X15410658Y-10969412D01*
X15410658Y-10969412D02*
X15420182Y-10988460D01*
X15420182Y-10988460D02*
X15439230Y-10997984D01*
X15439230Y-10997984D02*
X15458277Y-10997984D01*
X15677325Y-10864650D02*
X15677325Y-11064650D01*
X15677325Y-10874174D02*
X15696372Y-10864650D01*
X15696372Y-10864650D02*
X15734468Y-10864650D01*
X15734468Y-10864650D02*
X15753515Y-10874174D01*
X15753515Y-10874174D02*
X15763039Y-10883698D01*
X15763039Y-10883698D02*
X15772563Y-10902746D01*
X15772563Y-10902746D02*
X15772563Y-10959889D01*
X15772563Y-10959889D02*
X15763039Y-10978936D01*
X15763039Y-10978936D02*
X15753515Y-10988460D01*
X15753515Y-10988460D02*
X15734468Y-10997984D01*
X15734468Y-10997984D02*
X15696372Y-10997984D01*
X15696372Y-10997984D02*
X15677325Y-10988460D01*
X15886849Y-10997984D02*
X15867801Y-10988460D01*
X15867801Y-10988460D02*
X15858277Y-10969412D01*
X15858277Y-10969412D02*
X15858277Y-10797984D01*
X16048753Y-10997984D02*
X16048753Y-10893222D01*
X16048753Y-10893222D02*
X16039230Y-10874174D01*
X16039230Y-10874174D02*
X16020182Y-10864650D01*
X16020182Y-10864650D02*
X15982087Y-10864650D01*
X15982087Y-10864650D02*
X15963039Y-10874174D01*
X16048753Y-10988460D02*
X16029706Y-10997984D01*
X16029706Y-10997984D02*
X15982087Y-10997984D01*
X15982087Y-10997984D02*
X15963039Y-10988460D01*
X15963039Y-10988460D02*
X15953515Y-10969412D01*
X15953515Y-10969412D02*
X15953515Y-10950365D01*
X15953515Y-10950365D02*
X15963039Y-10931317D01*
X15963039Y-10931317D02*
X15982087Y-10921793D01*
X15982087Y-10921793D02*
X16029706Y-10921793D01*
X16029706Y-10921793D02*
X16048753Y-10912270D01*
X16115420Y-10864650D02*
X16191611Y-10864650D01*
X16143992Y-10797984D02*
X16143992Y-10969412D01*
X16143992Y-10969412D02*
X16153515Y-10988460D01*
X16153515Y-10988460D02*
X16172563Y-10997984D01*
X16172563Y-10997984D02*
X16191611Y-10997984D01*
X16334468Y-10988460D02*
X16315420Y-10997984D01*
X16315420Y-10997984D02*
X16277325Y-10997984D01*
X16277325Y-10997984D02*
X16258277Y-10988460D01*
X16258277Y-10988460D02*
X16248753Y-10969412D01*
X16248753Y-10969412D02*
X16248753Y-10893222D01*
X16248753Y-10893222D02*
X16258277Y-10874174D01*
X16258277Y-10874174D02*
X16277325Y-10864650D01*
X16277325Y-10864650D02*
X16315420Y-10864650D01*
X16315420Y-10864650D02*
X16334468Y-10874174D01*
X16334468Y-10874174D02*
X16343992Y-10893222D01*
X16343992Y-10893222D02*
X16343992Y-10912270D01*
X16343992Y-10912270D02*
X16248753Y-10931317D01*
X16515420Y-10997984D02*
X16515420Y-10797984D01*
X16515420Y-10988460D02*
X16496373Y-10997984D01*
X16496373Y-10997984D02*
X16458277Y-10997984D01*
X16458277Y-10997984D02*
X16439230Y-10988460D01*
X16439230Y-10988460D02*
X16429706Y-10978936D01*
X16429706Y-10978936D02*
X16420182Y-10959889D01*
X16420182Y-10959889D02*
X16420182Y-10902746D01*
X16420182Y-10902746D02*
X16429706Y-10883698D01*
X16429706Y-10883698D02*
X16439230Y-10874174D01*
X16439230Y-10874174D02*
X16458277Y-10864650D01*
X16458277Y-10864650D02*
X16496373Y-10864650D01*
X16496373Y-10864650D02*
X16515420Y-10874174D01*
X16591611Y-11074174D02*
X16601134Y-11064650D01*
X16601134Y-11064650D02*
X16620182Y-11036079D01*
X16620182Y-11036079D02*
X16629706Y-11017031D01*
X16629706Y-11017031D02*
X16639230Y-10988460D01*
X16639230Y-10988460D02*
X16648753Y-10940841D01*
X16648753Y-10940841D02*
X16648753Y-10902746D01*
X16648753Y-10902746D02*
X16639230Y-10855127D01*
X16639230Y-10855127D02*
X16629706Y-10826555D01*
X16629706Y-10826555D02*
X16620182Y-10807508D01*
X16620182Y-10807508D02*
X16601134Y-10778936D01*
X16601134Y-10778936D02*
X16591611Y-10769412D01*
X9897500Y-11070500D02*
X9897500Y-11270500D01*
X9797500Y-11170500D02*
X9997500Y-11170500D01*
X10248753Y-11081031D02*
X10258277Y-11071508D01*
X10258277Y-11071508D02*
X10277324Y-11061984D01*
X10277324Y-11061984D02*
X10324944Y-11061984D01*
X10324944Y-11061984D02*
X10343991Y-11071508D01*
X10343991Y-11071508D02*
X10353515Y-11081031D01*
X10353515Y-11081031D02*
X10363039Y-11100079D01*
X10363039Y-11100079D02*
X10363039Y-11119127D01*
X10363039Y-11119127D02*
X10353515Y-11147698D01*
X10353515Y-11147698D02*
X10239229Y-11261984D01*
X10239229Y-11261984D02*
X10363039Y-11261984D01*
X10448753Y-11242936D02*
X10458277Y-11252460D01*
X10458277Y-11252460D02*
X10448753Y-11261984D01*
X10448753Y-11261984D02*
X10439229Y-11252460D01*
X10439229Y-11252460D02*
X10448753Y-11242936D01*
X10448753Y-11242936D02*
X10448753Y-11261984D01*
X10534467Y-11081031D02*
X10543991Y-11071508D01*
X10543991Y-11071508D02*
X10563039Y-11061984D01*
X10563039Y-11061984D02*
X10610658Y-11061984D01*
X10610658Y-11061984D02*
X10629705Y-11071508D01*
X10629705Y-11071508D02*
X10639229Y-11081031D01*
X10639229Y-11081031D02*
X10648753Y-11100079D01*
X10648753Y-11100079D02*
X10648753Y-11119127D01*
X10648753Y-11119127D02*
X10639229Y-11147698D01*
X10639229Y-11147698D02*
X10524944Y-11261984D01*
X10524944Y-11261984D02*
X10648753Y-11261984D01*
X10772563Y-11061984D02*
X10791610Y-11061984D01*
X10791610Y-11061984D02*
X10810658Y-11071508D01*
X10810658Y-11071508D02*
X10820182Y-11081031D01*
X10820182Y-11081031D02*
X10829705Y-11100079D01*
X10829705Y-11100079D02*
X10839229Y-11138174D01*
X10839229Y-11138174D02*
X10839229Y-11185793D01*
X10839229Y-11185793D02*
X10829705Y-11223888D01*
X10829705Y-11223888D02*
X10820182Y-11242936D01*
X10820182Y-11242936D02*
X10810658Y-11252460D01*
X10810658Y-11252460D02*
X10791610Y-11261984D01*
X10791610Y-11261984D02*
X10772563Y-11261984D01*
X10772563Y-11261984D02*
X10753515Y-11252460D01*
X10753515Y-11252460D02*
X10743991Y-11242936D01*
X10743991Y-11242936D02*
X10734467Y-11223888D01*
X10734467Y-11223888D02*
X10724944Y-11185793D01*
X10724944Y-11185793D02*
X10724944Y-11138174D01*
X10724944Y-11138174D02*
X10734467Y-11100079D01*
X10734467Y-11100079D02*
X10743991Y-11081031D01*
X10743991Y-11081031D02*
X10753515Y-11071508D01*
X10753515Y-11071508D02*
X10772563Y-11061984D01*
X10963039Y-11061984D02*
X10982086Y-11061984D01*
X10982086Y-11061984D02*
X11001134Y-11071508D01*
X11001134Y-11071508D02*
X11010658Y-11081031D01*
X11010658Y-11081031D02*
X11020182Y-11100079D01*
X11020182Y-11100079D02*
X11029705Y-11138174D01*
X11029705Y-11138174D02*
X11029705Y-11185793D01*
X11029705Y-11185793D02*
X11020182Y-11223888D01*
X11020182Y-11223888D02*
X11010658Y-11242936D01*
X11010658Y-11242936D02*
X11001134Y-11252460D01*
X11001134Y-11252460D02*
X10982086Y-11261984D01*
X10982086Y-11261984D02*
X10963039Y-11261984D01*
X10963039Y-11261984D02*
X10943991Y-11252460D01*
X10943991Y-11252460D02*
X10934467Y-11242936D01*
X10934467Y-11242936D02*
X10924944Y-11223888D01*
X10924944Y-11223888D02*
X10915420Y-11185793D01*
X10915420Y-11185793D02*
X10915420Y-11138174D01*
X10915420Y-11138174D02*
X10924944Y-11100079D01*
X10924944Y-11100079D02*
X10934467Y-11081031D01*
X10934467Y-11081031D02*
X10943991Y-11071508D01*
X10943991Y-11071508D02*
X10963039Y-11061984D01*
X11115420Y-11261984D02*
X11115420Y-11128650D01*
X11115420Y-11147698D02*
X11124944Y-11138174D01*
X11124944Y-11138174D02*
X11143991Y-11128650D01*
X11143991Y-11128650D02*
X11172563Y-11128650D01*
X11172563Y-11128650D02*
X11191610Y-11138174D01*
X11191610Y-11138174D02*
X11201134Y-11157222D01*
X11201134Y-11157222D02*
X11201134Y-11261984D01*
X11201134Y-11157222D02*
X11210658Y-11138174D01*
X11210658Y-11138174D02*
X11229705Y-11128650D01*
X11229705Y-11128650D02*
X11258277Y-11128650D01*
X11258277Y-11128650D02*
X11277324Y-11138174D01*
X11277324Y-11138174D02*
X11286848Y-11157222D01*
X11286848Y-11157222D02*
X11286848Y-11261984D01*
X11382086Y-11261984D02*
X11382086Y-11128650D01*
X11382086Y-11147698D02*
X11391610Y-11138174D01*
X11391610Y-11138174D02*
X11410658Y-11128650D01*
X11410658Y-11128650D02*
X11439229Y-11128650D01*
X11439229Y-11128650D02*
X11458277Y-11138174D01*
X11458277Y-11138174D02*
X11467801Y-11157222D01*
X11467801Y-11157222D02*
X11467801Y-11261984D01*
X11467801Y-11157222D02*
X11477324Y-11138174D01*
X11477324Y-11138174D02*
X11496372Y-11128650D01*
X11496372Y-11128650D02*
X11524943Y-11128650D01*
X11524943Y-11128650D02*
X11543991Y-11138174D01*
X11543991Y-11138174D02*
X11553515Y-11157222D01*
X11553515Y-11157222D02*
X11553515Y-11261984D01*
X11943991Y-11052460D02*
X11772563Y-11309603D01*
X12201134Y-11061984D02*
X12220182Y-11061984D01*
X12220182Y-11061984D02*
X12239229Y-11071508D01*
X12239229Y-11071508D02*
X12248753Y-11081031D01*
X12248753Y-11081031D02*
X12258277Y-11100079D01*
X12258277Y-11100079D02*
X12267801Y-11138174D01*
X12267801Y-11138174D02*
X12267801Y-11185793D01*
X12267801Y-11185793D02*
X12258277Y-11223888D01*
X12258277Y-11223888D02*
X12248753Y-11242936D01*
X12248753Y-11242936D02*
X12239229Y-11252460D01*
X12239229Y-11252460D02*
X12220182Y-11261984D01*
X12220182Y-11261984D02*
X12201134Y-11261984D01*
X12201134Y-11261984D02*
X12182086Y-11252460D01*
X12182086Y-11252460D02*
X12172563Y-11242936D01*
X12172563Y-11242936D02*
X12163039Y-11223888D01*
X12163039Y-11223888D02*
X12153515Y-11185793D01*
X12153515Y-11185793D02*
X12153515Y-11138174D01*
X12153515Y-11138174D02*
X12163039Y-11100079D01*
X12163039Y-11100079D02*
X12172563Y-11081031D01*
X12172563Y-11081031D02*
X12182086Y-11071508D01*
X12182086Y-11071508D02*
X12201134Y-11061984D01*
X12353515Y-11242936D02*
X12363039Y-11252460D01*
X12363039Y-11252460D02*
X12353515Y-11261984D01*
X12353515Y-11261984D02*
X12343991Y-11252460D01*
X12343991Y-11252460D02*
X12353515Y-11242936D01*
X12353515Y-11242936D02*
X12353515Y-11261984D01*
X12486848Y-11061984D02*
X12505896Y-11061984D01*
X12505896Y-11061984D02*
X12524944Y-11071508D01*
X12524944Y-11071508D02*
X12534467Y-11081031D01*
X12534467Y-11081031D02*
X12543991Y-11100079D01*
X12543991Y-11100079D02*
X12553515Y-11138174D01*
X12553515Y-11138174D02*
X12553515Y-11185793D01*
X12553515Y-11185793D02*
X12543991Y-11223888D01*
X12543991Y-11223888D02*
X12534467Y-11242936D01*
X12534467Y-11242936D02*
X12524944Y-11252460D01*
X12524944Y-11252460D02*
X12505896Y-11261984D01*
X12505896Y-11261984D02*
X12486848Y-11261984D01*
X12486848Y-11261984D02*
X12467801Y-11252460D01*
X12467801Y-11252460D02*
X12458277Y-11242936D01*
X12458277Y-11242936D02*
X12448753Y-11223888D01*
X12448753Y-11223888D02*
X12439229Y-11185793D01*
X12439229Y-11185793D02*
X12439229Y-11138174D01*
X12439229Y-11138174D02*
X12448753Y-11100079D01*
X12448753Y-11100079D02*
X12458277Y-11081031D01*
X12458277Y-11081031D02*
X12467801Y-11071508D01*
X12467801Y-11071508D02*
X12486848Y-11061984D01*
X12667801Y-11147698D02*
X12648753Y-11138174D01*
X12648753Y-11138174D02*
X12639229Y-11128650D01*
X12639229Y-11128650D02*
X12629706Y-11109603D01*
X12629706Y-11109603D02*
X12629706Y-11100079D01*
X12629706Y-11100079D02*
X12639229Y-11081031D01*
X12639229Y-11081031D02*
X12648753Y-11071508D01*
X12648753Y-11071508D02*
X12667801Y-11061984D01*
X12667801Y-11061984D02*
X12705896Y-11061984D01*
X12705896Y-11061984D02*
X12724944Y-11071508D01*
X12724944Y-11071508D02*
X12734467Y-11081031D01*
X12734467Y-11081031D02*
X12743991Y-11100079D01*
X12743991Y-11100079D02*
X12743991Y-11109603D01*
X12743991Y-11109603D02*
X12734467Y-11128650D01*
X12734467Y-11128650D02*
X12724944Y-11138174D01*
X12724944Y-11138174D02*
X12705896Y-11147698D01*
X12705896Y-11147698D02*
X12667801Y-11147698D01*
X12667801Y-11147698D02*
X12648753Y-11157222D01*
X12648753Y-11157222D02*
X12639229Y-11166746D01*
X12639229Y-11166746D02*
X12629706Y-11185793D01*
X12629706Y-11185793D02*
X12629706Y-11223888D01*
X12629706Y-11223888D02*
X12639229Y-11242936D01*
X12639229Y-11242936D02*
X12648753Y-11252460D01*
X12648753Y-11252460D02*
X12667801Y-11261984D01*
X12667801Y-11261984D02*
X12705896Y-11261984D01*
X12705896Y-11261984D02*
X12724944Y-11252460D01*
X12724944Y-11252460D02*
X12734467Y-11242936D01*
X12734467Y-11242936D02*
X12743991Y-11223888D01*
X12743991Y-11223888D02*
X12743991Y-11185793D01*
X12743991Y-11185793D02*
X12734467Y-11166746D01*
X12734467Y-11166746D02*
X12724944Y-11157222D01*
X12724944Y-11157222D02*
X12705896Y-11147698D01*
X12915420Y-11061984D02*
X12877325Y-11061984D01*
X12877325Y-11061984D02*
X12858277Y-11071508D01*
X12858277Y-11071508D02*
X12848753Y-11081031D01*
X12848753Y-11081031D02*
X12829706Y-11109603D01*
X12829706Y-11109603D02*
X12820182Y-11147698D01*
X12820182Y-11147698D02*
X12820182Y-11223888D01*
X12820182Y-11223888D02*
X12829706Y-11242936D01*
X12829706Y-11242936D02*
X12839229Y-11252460D01*
X12839229Y-11252460D02*
X12858277Y-11261984D01*
X12858277Y-11261984D02*
X12896372Y-11261984D01*
X12896372Y-11261984D02*
X12915420Y-11252460D01*
X12915420Y-11252460D02*
X12924944Y-11242936D01*
X12924944Y-11242936D02*
X12934467Y-11223888D01*
X12934467Y-11223888D02*
X12934467Y-11176270D01*
X12934467Y-11176270D02*
X12924944Y-11157222D01*
X12924944Y-11157222D02*
X12915420Y-11147698D01*
X12915420Y-11147698D02*
X12896372Y-11138174D01*
X12896372Y-11138174D02*
X12858277Y-11138174D01*
X12858277Y-11138174D02*
X12839229Y-11147698D01*
X12839229Y-11147698D02*
X12829706Y-11157222D01*
X12829706Y-11157222D02*
X12820182Y-11176270D01*
X13105896Y-11061984D02*
X13067801Y-11061984D01*
X13067801Y-11061984D02*
X13048753Y-11071508D01*
X13048753Y-11071508D02*
X13039229Y-11081031D01*
X13039229Y-11081031D02*
X13020182Y-11109603D01*
X13020182Y-11109603D02*
X13010658Y-11147698D01*
X13010658Y-11147698D02*
X13010658Y-11223888D01*
X13010658Y-11223888D02*
X13020182Y-11242936D01*
X13020182Y-11242936D02*
X13029706Y-11252460D01*
X13029706Y-11252460D02*
X13048753Y-11261984D01*
X13048753Y-11261984D02*
X13086848Y-11261984D01*
X13086848Y-11261984D02*
X13105896Y-11252460D01*
X13105896Y-11252460D02*
X13115420Y-11242936D01*
X13115420Y-11242936D02*
X13124944Y-11223888D01*
X13124944Y-11223888D02*
X13124944Y-11176270D01*
X13124944Y-11176270D02*
X13115420Y-11157222D01*
X13115420Y-11157222D02*
X13105896Y-11147698D01*
X13105896Y-11147698D02*
X13086848Y-11138174D01*
X13086848Y-11138174D02*
X13048753Y-11138174D01*
X13048753Y-11138174D02*
X13029706Y-11147698D01*
X13029706Y-11147698D02*
X13020182Y-11157222D01*
X13020182Y-11157222D02*
X13010658Y-11176270D01*
X13201134Y-11061984D02*
X13201134Y-11100079D01*
X13277325Y-11061984D02*
X13277325Y-11100079D01*
X13572563Y-11338174D02*
X13563039Y-11328650D01*
X13563039Y-11328650D02*
X13543991Y-11300079D01*
X13543991Y-11300079D02*
X13534468Y-11281031D01*
X13534468Y-11281031D02*
X13524944Y-11252460D01*
X13524944Y-11252460D02*
X13515420Y-11204841D01*
X13515420Y-11204841D02*
X13515420Y-11166746D01*
X13515420Y-11166746D02*
X13524944Y-11119127D01*
X13524944Y-11119127D02*
X13534468Y-11090555D01*
X13534468Y-11090555D02*
X13543991Y-11071508D01*
X13543991Y-11071508D02*
X13563039Y-11042936D01*
X13563039Y-11042936D02*
X13572563Y-11033412D01*
X13734468Y-11128650D02*
X13734468Y-11261984D01*
X13686848Y-11052460D02*
X13639229Y-11195317D01*
X13639229Y-11195317D02*
X13763039Y-11195317D01*
X13991610Y-11261984D02*
X13991610Y-11061984D01*
X14077325Y-11261984D02*
X14077325Y-11157222D01*
X14077325Y-11157222D02*
X14067801Y-11138174D01*
X14067801Y-11138174D02*
X14048753Y-11128650D01*
X14048753Y-11128650D02*
X14020182Y-11128650D01*
X14020182Y-11128650D02*
X14001134Y-11138174D01*
X14001134Y-11138174D02*
X13991610Y-11147698D01*
X14201134Y-11261984D02*
X14182087Y-11252460D01*
X14182087Y-11252460D02*
X14172563Y-11242936D01*
X14172563Y-11242936D02*
X14163039Y-11223888D01*
X14163039Y-11223888D02*
X14163039Y-11166746D01*
X14163039Y-11166746D02*
X14172563Y-11147698D01*
X14172563Y-11147698D02*
X14182087Y-11138174D01*
X14182087Y-11138174D02*
X14201134Y-11128650D01*
X14201134Y-11128650D02*
X14229706Y-11128650D01*
X14229706Y-11128650D02*
X14248753Y-11138174D01*
X14248753Y-11138174D02*
X14258277Y-11147698D01*
X14258277Y-11147698D02*
X14267801Y-11166746D01*
X14267801Y-11166746D02*
X14267801Y-11223888D01*
X14267801Y-11223888D02*
X14258277Y-11242936D01*
X14258277Y-11242936D02*
X14248753Y-11252460D01*
X14248753Y-11252460D02*
X14229706Y-11261984D01*
X14229706Y-11261984D02*
X14201134Y-11261984D01*
X14382087Y-11261984D02*
X14363039Y-11252460D01*
X14363039Y-11252460D02*
X14353515Y-11233412D01*
X14353515Y-11233412D02*
X14353515Y-11061984D01*
X14534468Y-11252460D02*
X14515420Y-11261984D01*
X14515420Y-11261984D02*
X14477325Y-11261984D01*
X14477325Y-11261984D02*
X14458277Y-11252460D01*
X14458277Y-11252460D02*
X14448753Y-11233412D01*
X14448753Y-11233412D02*
X14448753Y-11157222D01*
X14448753Y-11157222D02*
X14458277Y-11138174D01*
X14458277Y-11138174D02*
X14477325Y-11128650D01*
X14477325Y-11128650D02*
X14515420Y-11128650D01*
X14515420Y-11128650D02*
X14534468Y-11138174D01*
X14534468Y-11138174D02*
X14543991Y-11157222D01*
X14543991Y-11157222D02*
X14543991Y-11176270D01*
X14543991Y-11176270D02*
X14448753Y-11195317D01*
X14620182Y-11252460D02*
X14639230Y-11261984D01*
X14639230Y-11261984D02*
X14677325Y-11261984D01*
X14677325Y-11261984D02*
X14696372Y-11252460D01*
X14696372Y-11252460D02*
X14705896Y-11233412D01*
X14705896Y-11233412D02*
X14705896Y-11223888D01*
X14705896Y-11223888D02*
X14696372Y-11204841D01*
X14696372Y-11204841D02*
X14677325Y-11195317D01*
X14677325Y-11195317D02*
X14648753Y-11195317D01*
X14648753Y-11195317D02*
X14629706Y-11185793D01*
X14629706Y-11185793D02*
X14620182Y-11166746D01*
X14620182Y-11166746D02*
X14620182Y-11157222D01*
X14620182Y-11157222D02*
X14629706Y-11138174D01*
X14629706Y-11138174D02*
X14648753Y-11128650D01*
X14648753Y-11128650D02*
X14677325Y-11128650D01*
X14677325Y-11128650D02*
X14696372Y-11138174D01*
X14772563Y-11338174D02*
X14782087Y-11328650D01*
X14782087Y-11328650D02*
X14801134Y-11300079D01*
X14801134Y-11300079D02*
X14810658Y-11281031D01*
X14810658Y-11281031D02*
X14820182Y-11252460D01*
X14820182Y-11252460D02*
X14829706Y-11204841D01*
X14829706Y-11204841D02*
X14829706Y-11166746D01*
X14829706Y-11166746D02*
X14820182Y-11119127D01*
X14820182Y-11119127D02*
X14810658Y-11090555D01*
X14810658Y-11090555D02*
X14801134Y-11071508D01*
X14801134Y-11071508D02*
X14782087Y-11042936D01*
X14782087Y-11042936D02*
X14772563Y-11033412D01*
X15134468Y-11338174D02*
X15124944Y-11328650D01*
X15124944Y-11328650D02*
X15105896Y-11300079D01*
X15105896Y-11300079D02*
X15096372Y-11281031D01*
X15096372Y-11281031D02*
X15086849Y-11252460D01*
X15086849Y-11252460D02*
X15077325Y-11204841D01*
X15077325Y-11204841D02*
X15077325Y-11166746D01*
X15077325Y-11166746D02*
X15086849Y-11119127D01*
X15086849Y-11119127D02*
X15096372Y-11090555D01*
X15096372Y-11090555D02*
X15105896Y-11071508D01*
X15105896Y-11071508D02*
X15124944Y-11042936D01*
X15124944Y-11042936D02*
X15134468Y-11033412D01*
X15210658Y-11128650D02*
X15210658Y-11261984D01*
X15210658Y-11147698D02*
X15220182Y-11138174D01*
X15220182Y-11138174D02*
X15239230Y-11128650D01*
X15239230Y-11128650D02*
X15267801Y-11128650D01*
X15267801Y-11128650D02*
X15286849Y-11138174D01*
X15286849Y-11138174D02*
X15296372Y-11157222D01*
X15296372Y-11157222D02*
X15296372Y-11261984D01*
X15420182Y-11261984D02*
X15401134Y-11252460D01*
X15401134Y-11252460D02*
X15391611Y-11242936D01*
X15391611Y-11242936D02*
X15382087Y-11223888D01*
X15382087Y-11223888D02*
X15382087Y-11166746D01*
X15382087Y-11166746D02*
X15391611Y-11147698D01*
X15391611Y-11147698D02*
X15401134Y-11138174D01*
X15401134Y-11138174D02*
X15420182Y-11128650D01*
X15420182Y-11128650D02*
X15448753Y-11128650D01*
X15448753Y-11128650D02*
X15467801Y-11138174D01*
X15467801Y-11138174D02*
X15477325Y-11147698D01*
X15477325Y-11147698D02*
X15486849Y-11166746D01*
X15486849Y-11166746D02*
X15486849Y-11223888D01*
X15486849Y-11223888D02*
X15477325Y-11242936D01*
X15477325Y-11242936D02*
X15467801Y-11252460D01*
X15467801Y-11252460D02*
X15448753Y-11261984D01*
X15448753Y-11261984D02*
X15420182Y-11261984D01*
X15543992Y-11128650D02*
X15620182Y-11128650D01*
X15572563Y-11061984D02*
X15572563Y-11233412D01*
X15572563Y-11233412D02*
X15582087Y-11252460D01*
X15582087Y-11252460D02*
X15601134Y-11261984D01*
X15601134Y-11261984D02*
X15620182Y-11261984D01*
X15839230Y-11128650D02*
X15839230Y-11328650D01*
X15839230Y-11138174D02*
X15858277Y-11128650D01*
X15858277Y-11128650D02*
X15896373Y-11128650D01*
X15896373Y-11128650D02*
X15915420Y-11138174D01*
X15915420Y-11138174D02*
X15924944Y-11147698D01*
X15924944Y-11147698D02*
X15934468Y-11166746D01*
X15934468Y-11166746D02*
X15934468Y-11223888D01*
X15934468Y-11223888D02*
X15924944Y-11242936D01*
X15924944Y-11242936D02*
X15915420Y-11252460D01*
X15915420Y-11252460D02*
X15896373Y-11261984D01*
X15896373Y-11261984D02*
X15858277Y-11261984D01*
X15858277Y-11261984D02*
X15839230Y-11252460D01*
X16048753Y-11261984D02*
X16029706Y-11252460D01*
X16029706Y-11252460D02*
X16020182Y-11233412D01*
X16020182Y-11233412D02*
X16020182Y-11061984D01*
X16210658Y-11261984D02*
X16210658Y-11157222D01*
X16210658Y-11157222D02*
X16201134Y-11138174D01*
X16201134Y-11138174D02*
X16182087Y-11128650D01*
X16182087Y-11128650D02*
X16143992Y-11128650D01*
X16143992Y-11128650D02*
X16124944Y-11138174D01*
X16210658Y-11252460D02*
X16191611Y-11261984D01*
X16191611Y-11261984D02*
X16143992Y-11261984D01*
X16143992Y-11261984D02*
X16124944Y-11252460D01*
X16124944Y-11252460D02*
X16115420Y-11233412D01*
X16115420Y-11233412D02*
X16115420Y-11214365D01*
X16115420Y-11214365D02*
X16124944Y-11195317D01*
X16124944Y-11195317D02*
X16143992Y-11185793D01*
X16143992Y-11185793D02*
X16191611Y-11185793D01*
X16191611Y-11185793D02*
X16210658Y-11176270D01*
X16277325Y-11128650D02*
X16353515Y-11128650D01*
X16305896Y-11061984D02*
X16305896Y-11233412D01*
X16305896Y-11233412D02*
X16315420Y-11252460D01*
X16315420Y-11252460D02*
X16334468Y-11261984D01*
X16334468Y-11261984D02*
X16353515Y-11261984D01*
X16496373Y-11252460D02*
X16477325Y-11261984D01*
X16477325Y-11261984D02*
X16439230Y-11261984D01*
X16439230Y-11261984D02*
X16420182Y-11252460D01*
X16420182Y-11252460D02*
X16410658Y-11233412D01*
X16410658Y-11233412D02*
X16410658Y-11157222D01*
X16410658Y-11157222D02*
X16420182Y-11138174D01*
X16420182Y-11138174D02*
X16439230Y-11128650D01*
X16439230Y-11128650D02*
X16477325Y-11128650D01*
X16477325Y-11128650D02*
X16496373Y-11138174D01*
X16496373Y-11138174D02*
X16505896Y-11157222D01*
X16505896Y-11157222D02*
X16505896Y-11176270D01*
X16505896Y-11176270D02*
X16410658Y-11195317D01*
X16677325Y-11261984D02*
X16677325Y-11061984D01*
X16677325Y-11252460D02*
X16658277Y-11261984D01*
X16658277Y-11261984D02*
X16620182Y-11261984D01*
X16620182Y-11261984D02*
X16601134Y-11252460D01*
X16601134Y-11252460D02*
X16591611Y-11242936D01*
X16591611Y-11242936D02*
X16582087Y-11223888D01*
X16582087Y-11223888D02*
X16582087Y-11166746D01*
X16582087Y-11166746D02*
X16591611Y-11147698D01*
X16591611Y-11147698D02*
X16601134Y-11138174D01*
X16601134Y-11138174D02*
X16620182Y-11128650D01*
X16620182Y-11128650D02*
X16658277Y-11128650D01*
X16658277Y-11128650D02*
X16677325Y-11138174D01*
X16753515Y-11338174D02*
X16763039Y-11328650D01*
X16763039Y-11328650D02*
X16782087Y-11300079D01*
X16782087Y-11300079D02*
X16791611Y-11281031D01*
X16791611Y-11281031D02*
X16801135Y-11252460D01*
X16801135Y-11252460D02*
X16810658Y-11204841D01*
X16810658Y-11204841D02*
X16810658Y-11166746D01*
X16810658Y-11166746D02*
X16801135Y-11119127D01*
X16801135Y-11119127D02*
X16791611Y-11090555D01*
X16791611Y-11090555D02*
X16782087Y-11071508D01*
X16782087Y-11071508D02*
X16763039Y-11042936D01*
X16763039Y-11042936D02*
X16753515Y-11033412D01*
M02*
