%TF.GenerationSoftware,KiCad,Pcbnew,9.0.7-9.0.7~ubuntu24.04.1*%
%TF.CreationDate,2026-03-04T19:00:44+00:00*%
%TF.ProjectId,Radio_dev_board,52616469-6f5f-4646-9576-5f626f617264,rev?*%
%TF.SameCoordinates,Original*%
%TF.FileFunction,Copper,L1,Top*%
%TF.FilePolarity,Positive*%
%FSLAX46Y46*%
G04 Gerber Fmt 4.6, Leading zero omitted, Abs format (unit mm)*
G04 Created by KiCad (PCBNEW 9.0.7-9.0.7~ubuntu24.04.1) date 2026-03-04 19:00:44*
%MOMM*%
%LPD*%
G01*
G04 APERTURE LIST*
G04 Aperture macros list*
%AMRoundRect*
0 Rectangle with rounded corners*
0 $1 Rounding radius*
0 $2 $3 $4 $5 $6 $7 $8 $9 X,Y pos of 4 corners*
0 Add a 4 corners polygon primitive as box body*
4,1,4,$2,$3,$4,$5,$6,$7,$8,$9,$2,$3,0*
0 Add four circle primitives for the rounded corners*
1,1,$1+$1,$2,$3*
1,1,$1+$1,$4,$5*
1,1,$1+$1,$6,$7*
1,1,$1+$1,$8,$9*
0 Add four rect primitives between the rounded corners*
20,1,$1+$1,$2,$3,$4,$5,0*
20,1,$1+$1,$4,$5,$6,$7,0*
20,1,$1+$1,$6,$7,$8,$9,0*
20,1,$1+$1,$8,$9,$2,$3,0*%
G04 Aperture macros list end*
%TA.AperFunction,SMDPad,CuDef*%
%ADD10RoundRect,0.155000X-0.155000X0.212500X-0.155000X-0.212500X0.155000X-0.212500X0.155000X0.212500X0*%
%TD*%
%TA.AperFunction,SMDPad,CuDef*%
%ADD11R,2.000000X0.900000*%
%TD*%
%TA.AperFunction,ComponentPad*%
%ADD12R,1.700000X1.700000*%
%TD*%
%TA.AperFunction,ComponentPad*%
%ADD13C,1.700000*%
%TD*%
%TA.AperFunction,ViaPad*%
%ADD14C,0.500000*%
%TD*%
%TA.AperFunction,Conductor*%
%ADD15C,0.250000*%
%TD*%
G04 APERTURE END LIST*
D10*
%TO.P,C2,1*%
%TO.N,VCC*%
X79000000Y-30832500D03*
%TO.P,C2,2*%
%TO.N,GND*%
X79000000Y-31967500D03*
%TD*%
D11*
%TO.P,U1,1,VCC*%
%TO.N,VCC*%
X82650000Y-32940000D03*
%TO.P,U1,2,GND*%
%TO.N,GND*%
X82650000Y-34210000D03*
%TO.P,U1,3,MISO_TX*%
%TO.N,Net-(J1-Pin_3)*%
X82650000Y-35480000D03*
%TO.P,U1,4,MOSI_RX*%
%TO.N,Net-(J1-Pin_4)*%
X82650000Y-36750000D03*
%TO.P,U1,5,SCK_RTSN*%
%TO.N,Net-(J1-Pin_5)*%
X82650000Y-38020000D03*
%TO.P,U1,6,NSS_CTS*%
%TO.N,Net-(J1-Pin_6)*%
X82650000Y-39290000D03*
%TO.P,U1,7,GND*%
%TO.N,GND*%
X82650000Y-40560000D03*
%TO.P,U1,8,RX_EN*%
%TO.N,Net-(J1-Pin_8)*%
X82650000Y-41830000D03*
%TO.P,U1,9,TX_EN*%
%TO.N,Net-(J2-Pin_8)*%
X97850000Y-41830000D03*
%TO.P,U1,10,GND*%
%TO.N,GND*%
X97850000Y-40560000D03*
%TO.P,U1,11,NRESET*%
%TO.N,Net-(J2-Pin_6)*%
X97850000Y-39290000D03*
%TO.P,U1,12,BUSY*%
%TO.N,Net-(J2-Pin_5)*%
X97850000Y-38020000D03*
%TO.P,U1,13,DIO1*%
%TO.N,Net-(J2-Pin_4)*%
X97850000Y-36750000D03*
%TO.P,U1,14,DIO2*%
%TO.N,Net-(J2-Pin_3)*%
X97850000Y-35480000D03*
%TO.P,U1,15,DIO3*%
%TO.N,Net-(J2-Pin_2)*%
X97850000Y-34210000D03*
%TO.P,U1,16,GND*%
%TO.N,GND*%
X97850000Y-32940000D03*
%TD*%
D10*
%TO.P,C1,1*%
%TO.N,VCC*%
X80000000Y-30832500D03*
%TO.P,C1,2*%
%TO.N,GND*%
X80000000Y-31967500D03*
%TD*%
D12*
%TO.P,J1,1,Pin_1*%
%TO.N,VCC*%
X78900000Y-34480000D03*
D13*
%TO.P,J1,2,Pin_2*%
%TO.N,GND*%
X78900000Y-37020000D03*
%TO.P,J1,3,Pin_3*%
%TO.N,Net-(J1-Pin_3)*%
X78900000Y-39560000D03*
%TO.P,J1,4,Pin_4*%
%TO.N,Net-(J1-Pin_4)*%
X78900000Y-42100000D03*
%TO.P,J1,5,Pin_5*%
%TO.N,Net-(J1-Pin_5)*%
X78900000Y-44640000D03*
%TO.P,J1,6,Pin_6*%
%TO.N,Net-(J1-Pin_6)*%
X78900000Y-47180000D03*
%TO.P,J1,7,Pin_7*%
%TO.N,GND*%
X78900000Y-49720000D03*
%TO.P,J1,8,Pin_8*%
%TO.N,Net-(J1-Pin_8)*%
X78900000Y-52260000D03*
%TD*%
%TO.P,J2,9,Pin_8*%
%TO.N,Net-(J2-Pin_8)*%
X101700000Y-52260000D03*
%TO.P,J2,10,Pin_7*%
%TO.N,GND*%
X101700000Y-49720000D03*
%TO.P,J2,11,Pin_6*%
%TO.N,Net-(J2-Pin_6)*%
X101700000Y-47180000D03*
%TO.P,J2,12,Pin_5*%
%TO.N,Net-(J2-Pin_5)*%
X101700000Y-44640000D03*
%TO.P,J2,13,Pin_4*%
%TO.N,Net-(J2-Pin_4)*%
X101700000Y-42100000D03*
%TO.P,J2,14,Pin_3*%
%TO.N,Net-(J2-Pin_3)*%
X101700000Y-39560000D03*
%TO.P,J2,15,Pin_2*%
%TO.N,Net-(J2-Pin_2)*%
X101700000Y-37020000D03*
D12*
%TO.P,J2,16,Pin_1*%
%TO.N,GND*%
X101700000Y-34480000D03*
%TD*%
D14*
%TO.N,GND*%
X96100000Y-40400000D03*
%TD*%
D15*
%TO.N,GND*%
X96260000Y-40560000D02*
X96100000Y-40400000D01*
X82650000Y-34210000D02*
X81910000Y-34210000D01*
X82625000Y-40535000D02*
X82650000Y-40560000D01*
X79000000Y-31967500D02*
X80000000Y-31967500D01*
X97850000Y-40560000D02*
X98150000Y-40260000D01*
X80000000Y-32300000D02*
X80000000Y-31967500D01*
X97850000Y-40560000D02*
X96260000Y-40560000D01*
%TO.N,VCC*%
X79000000Y-30832500D02*
X78367500Y-30832500D01*
X80000000Y-30832500D02*
X79000000Y-30832500D01*
X78000000Y-33580000D02*
X78900000Y-34480000D01*
X78367500Y-30832500D02*
X78000000Y-31200000D01*
X80542500Y-30832500D02*
X80000000Y-30832500D01*
X82650000Y-32940000D02*
X80542500Y-30832500D01*
X78000000Y-31200000D02*
X78000000Y-33580000D01*
%TO.N,Net-(J2-Pin_3)*%
X97850000Y-35480000D02*
X98080000Y-35710000D01*
X97850000Y-35480000D02*
X98531000Y-35480000D01*
X98531000Y-35480000D02*
X100800000Y-37749000D01*
X100800000Y-37749000D02*
X100800000Y-38660000D01*
X100800000Y-38660000D02*
X101700000Y-39560000D01*
%TO.N,Net-(J1-Pin_4)*%
X80200000Y-38300000D02*
X80200000Y-40800000D01*
X82650000Y-36750000D02*
X81750000Y-36750000D01*
X81750000Y-36750000D02*
X80200000Y-38300000D01*
X80200000Y-40800000D02*
X78900000Y-42100000D01*
%TO.N,Net-(J1-Pin_6)*%
X82570000Y-39210000D02*
X82650000Y-39290000D01*
X82650000Y-39290000D02*
X81810000Y-39290000D01*
X81810000Y-39290000D02*
X81100000Y-40000000D01*
X81100000Y-40000000D02*
X81100000Y-44980000D01*
X81100000Y-44980000D02*
X78900000Y-47180000D01*
%TO.N,Net-(J2-Pin_2)*%
X97850000Y-34210000D02*
X98125000Y-34485000D01*
X101700000Y-37020000D02*
X98890000Y-34210000D01*
X98890000Y-34210000D02*
X97850000Y-34210000D01*
%TO.N,Net-(J2-Pin_5)*%
X97850000Y-38020000D02*
X98582000Y-38020000D01*
X98582000Y-38020000D02*
X99998000Y-39436000D01*
X99998000Y-39436000D02*
X99998000Y-42938000D01*
X99998000Y-42938000D02*
X101700000Y-44640000D01*
X97850000Y-38020000D02*
X98085000Y-37785000D01*
%TO.N,Net-(J2-Pin_6)*%
X98582000Y-39290000D02*
X99500000Y-40208000D01*
X99500000Y-44980000D02*
X101700000Y-47180000D01*
X97850000Y-39290000D02*
X98582000Y-39290000D01*
X97850000Y-39290000D02*
X98180000Y-38960000D01*
X98120000Y-39560000D02*
X97850000Y-39290000D01*
X99500000Y-40208000D02*
X99500000Y-44980000D01*
%TO.N,Net-(J1-Pin_8)*%
X82650000Y-41830000D02*
X82650000Y-41850000D01*
X81600000Y-49560000D02*
X78900000Y-52260000D01*
X82585000Y-41765000D02*
X82650000Y-41830000D01*
X81600000Y-42900000D02*
X81600000Y-49560000D01*
X82650000Y-41850000D02*
X81600000Y-42900000D01*
%TO.N,Net-(J2-Pin_4)*%
X100399000Y-38599000D02*
X100399000Y-40799000D01*
X97850000Y-36750000D02*
X98550000Y-36750000D01*
X98550000Y-36750000D02*
X100399000Y-38599000D01*
X100399000Y-40799000D02*
X101700000Y-42100000D01*
%TO.N,Net-(J1-Pin_5)*%
X80601000Y-42939000D02*
X78900000Y-44640000D01*
X80601000Y-39099000D02*
X80601000Y-42939000D01*
X82650000Y-38020000D02*
X81680000Y-38020000D01*
X81680000Y-38020000D02*
X80601000Y-39099000D01*
%TO.N,Net-(J1-Pin_3)*%
X82032405Y-35480000D02*
X82650000Y-35480000D01*
X78900000Y-38612405D02*
X82032405Y-35480000D01*
X78900000Y-38612405D02*
X78900000Y-39560000D01*
%TO.N,Net-(J2-Pin_8)*%
X97850000Y-41830000D02*
X97850000Y-41950000D01*
X97850000Y-41950000D02*
X98800000Y-42900000D01*
X97945000Y-41735000D02*
X97850000Y-41830000D01*
X98800000Y-42900000D02*
X98800000Y-49360000D01*
X98800000Y-49360000D02*
X101700000Y-52260000D01*
%TD*%
%TA.AperFunction,Conductor*%
%TO.N,GND*%
G36*
X80893834Y-46173269D02*
G01*
X80949767Y-46215141D01*
X80974184Y-46280605D01*
X80974500Y-46289451D01*
X80974500Y-49249546D01*
X80954815Y-49316585D01*
X80938181Y-49337227D01*
X80461681Y-49813726D01*
X80400358Y-49847211D01*
X80330666Y-49842227D01*
X80274733Y-49800355D01*
X80250316Y-49734891D01*
X80250000Y-49726045D01*
X80250000Y-49613753D01*
X80216757Y-49403872D01*
X80216757Y-49403869D01*
X80151095Y-49201782D01*
X80054624Y-49012449D01*
X80015270Y-48958282D01*
X80015269Y-48958282D01*
X79382962Y-49590590D01*
X79365925Y-49527007D01*
X79300099Y-49412993D01*
X79207007Y-49319901D01*
X79092993Y-49254075D01*
X79029409Y-49237037D01*
X79661716Y-48604728D01*
X79607547Y-48565373D01*
X79607547Y-48565372D01*
X79598500Y-48560763D01*
X79547706Y-48512788D01*
X79530912Y-48444966D01*
X79553451Y-48378832D01*
X79598508Y-48339793D01*
X79607816Y-48335051D01*
X79687007Y-48277515D01*
X79779786Y-48210109D01*
X79779788Y-48210106D01*
X79779792Y-48210104D01*
X79930104Y-48059792D01*
X79930106Y-48059788D01*
X79930109Y-48059786D01*
X80055048Y-47887820D01*
X80055047Y-47887820D01*
X80055051Y-47887816D01*
X80151557Y-47698412D01*
X80217246Y-47496243D01*
X80250500Y-47286287D01*
X80250500Y-47073713D01*
X80217246Y-46863757D01*
X80212179Y-46848162D01*
X80210182Y-46778321D01*
X80242426Y-46722162D01*
X80762820Y-46201769D01*
X80824142Y-46168285D01*
X80893834Y-46173269D01*
G37*
%TD.AperFunction*%
%TA.AperFunction,Conductor*%
G36*
X99630703Y-45995739D02*
G01*
X99637181Y-46001771D01*
X100357571Y-46722161D01*
X100391056Y-46783484D01*
X100387822Y-46848158D01*
X100382753Y-46863757D01*
X100349500Y-47073713D01*
X100349500Y-47286286D01*
X100382753Y-47496239D01*
X100448444Y-47698414D01*
X100544951Y-47887820D01*
X100669890Y-48059786D01*
X100820213Y-48210109D01*
X100992179Y-48335048D01*
X100992181Y-48335049D01*
X100992184Y-48335051D01*
X101001493Y-48339794D01*
X101052290Y-48387766D01*
X101069087Y-48455587D01*
X101046552Y-48521722D01*
X101001505Y-48560760D01*
X100992446Y-48565376D01*
X100992440Y-48565380D01*
X100938282Y-48604727D01*
X100938282Y-48604728D01*
X101570591Y-49237037D01*
X101507007Y-49254075D01*
X101392993Y-49319901D01*
X101299901Y-49412993D01*
X101234075Y-49527007D01*
X101217037Y-49590591D01*
X100584728Y-48958282D01*
X100584727Y-48958282D01*
X100545380Y-49012439D01*
X100448904Y-49201782D01*
X100383242Y-49403869D01*
X100383242Y-49403872D01*
X100350000Y-49613753D01*
X100350000Y-49726047D01*
X100330315Y-49793086D01*
X100277511Y-49838841D01*
X100208353Y-49848785D01*
X100144797Y-49819760D01*
X100138319Y-49813728D01*
X99461819Y-49137228D01*
X99428334Y-49075905D01*
X99425500Y-49049547D01*
X99425500Y-46089452D01*
X99445185Y-46022413D01*
X99497989Y-45976658D01*
X99567147Y-45966714D01*
X99630703Y-45995739D01*
G37*
%TD.AperFunction*%
%TA.AperFunction,Conductor*%
G36*
X103442539Y-29520185D02*
G01*
X103488294Y-29572989D01*
X103499500Y-29624500D01*
X103499500Y-57075500D01*
X103479815Y-57142539D01*
X103427011Y-57188294D01*
X103375500Y-57199500D01*
X77224500Y-57199500D01*
X77157461Y-57179815D01*
X77111706Y-57127011D01*
X77100500Y-57075500D01*
X77100500Y-31138389D01*
X77374500Y-31138389D01*
X77374500Y-33641611D01*
X77398535Y-33762444D01*
X77398540Y-33762461D01*
X77445685Y-33876280D01*
X77445687Y-33876283D01*
X77445688Y-33876286D01*
X77479915Y-33927509D01*
X77514142Y-33978733D01*
X77520709Y-33985300D01*
X77526843Y-33994000D01*
X77534816Y-34017391D01*
X77546662Y-34039077D01*
X77548716Y-34058167D01*
X77549386Y-34060133D01*
X77549066Y-34061423D01*
X77549500Y-34065453D01*
X77549500Y-35377870D01*
X77549501Y-35377876D01*
X77555908Y-35437483D01*
X77606202Y-35572328D01*
X77606206Y-35572335D01*
X77692452Y-35687544D01*
X77692455Y-35687547D01*
X77807664Y-35773793D01*
X77807671Y-35773797D01*
X77852618Y-35790561D01*
X77942517Y-35824091D01*
X78002127Y-35830500D01*
X78012685Y-35830499D01*
X78079723Y-35850179D01*
X78100372Y-35866818D01*
X78770591Y-36537037D01*
X78707007Y-36554075D01*
X78592993Y-36619901D01*
X78499901Y-36712993D01*
X78434075Y-36827007D01*
X78417037Y-36890591D01*
X77784728Y-36258282D01*
X77784727Y-36258282D01*
X77745380Y-36312439D01*
X77648904Y-36501782D01*
X77583242Y-36703869D01*
X77583242Y-36703872D01*
X77550000Y-36913753D01*
X77550000Y-37126246D01*
X77583242Y-37336127D01*
X77583242Y-37336130D01*
X77648904Y-37538217D01*
X77745375Y-37727550D01*
X77784728Y-37781716D01*
X78417037Y-37149408D01*
X78434075Y-37212993D01*
X78499901Y-37327007D01*
X78592993Y-37420099D01*
X78707007Y-37485925D01*
X78770590Y-37502962D01*
X78138282Y-38135269D01*
X78138282Y-38135270D01*
X78192452Y-38174626D01*
X78192451Y-38174626D01*
X78201495Y-38179234D01*
X78252292Y-38227208D01*
X78269087Y-38295029D01*
X78246550Y-38361164D01*
X78201499Y-38400202D01*
X78192182Y-38404949D01*
X78020213Y-38529890D01*
X77869890Y-38680213D01*
X77744951Y-38852179D01*
X77648444Y-39041585D01*
X77582753Y-39243760D01*
X77549500Y-39453713D01*
X77549500Y-39666286D01*
X77578198Y-39847482D01*
X77582754Y-39876243D01*
X77643166Y-40062172D01*
X77648444Y-40078414D01*
X77744951Y-40267820D01*
X77869890Y-40439786D01*
X78020213Y-40590109D01*
X78192182Y-40715050D01*
X78200946Y-40719516D01*
X78251742Y-40767491D01*
X78268536Y-40835312D01*
X78245998Y-40901447D01*
X78200946Y-40940484D01*
X78192182Y-40944949D01*
X78020213Y-41069890D01*
X77869890Y-41220213D01*
X77744951Y-41392179D01*
X77648444Y-41581585D01*
X77582753Y-41783760D01*
X77549500Y-41993713D01*
X77549500Y-42206286D01*
X77578198Y-42387482D01*
X77582754Y-42416243D01*
X77617224Y-42522331D01*
X77648444Y-42618414D01*
X77744951Y-42807820D01*
X77869890Y-42979786D01*
X78020213Y-43130109D01*
X78192182Y-43255050D01*
X78200946Y-43259516D01*
X78251742Y-43307491D01*
X78268536Y-43375312D01*
X78245998Y-43441447D01*
X78200946Y-43480484D01*
X78192182Y-43484949D01*
X78020213Y-43609890D01*
X77869890Y-43760213D01*
X77744951Y-43932179D01*
X77648444Y-44121585D01*
X77582753Y-44323760D01*
X77549500Y-44533713D01*
X77549500Y-44746286D01*
X77582753Y-44956239D01*
X77648444Y-45158414D01*
X77744951Y-45347820D01*
X77869890Y-45519786D01*
X78020213Y-45670109D01*
X78192182Y-45795050D01*
X78200946Y-45799516D01*
X78251742Y-45847491D01*
X78268536Y-45915312D01*
X78245998Y-45981447D01*
X78200946Y-46020484D01*
X78192182Y-46024949D01*
X78020213Y-46149890D01*
X77869890Y-46300213D01*
X77744951Y-46472179D01*
X77648444Y-46661585D01*
X77582753Y-46863760D01*
X77549500Y-47073713D01*
X77549500Y-47286286D01*
X77582753Y-47496239D01*
X77648444Y-47698414D01*
X77744951Y-47887820D01*
X77869890Y-48059786D01*
X78020213Y-48210109D01*
X78192179Y-48335048D01*
X78192181Y-48335049D01*
X78192184Y-48335051D01*
X78201493Y-48339794D01*
X78252290Y-48387766D01*
X78269087Y-48455587D01*
X78246552Y-48521722D01*
X78201505Y-48560760D01*
X78192446Y-48565376D01*
X78192440Y-48565380D01*
X78138282Y-48604727D01*
X78138282Y-48604728D01*
X78770591Y-49237037D01*
X78707007Y-49254075D01*
X78592993Y-49319901D01*
X78499901Y-49412993D01*
X78434075Y-49527007D01*
X78417037Y-49590591D01*
X77784728Y-48958282D01*
X77784727Y-48958282D01*
X77745380Y-49012439D01*
X77648904Y-49201782D01*
X77583242Y-49403869D01*
X77583242Y-49403872D01*
X77550000Y-49613753D01*
X77550000Y-49826246D01*
X77583242Y-50036127D01*
X77583242Y-50036130D01*
X77648904Y-50238217D01*
X77745375Y-50427550D01*
X77784728Y-50481716D01*
X78417037Y-49849408D01*
X78434075Y-49912993D01*
X78499901Y-50027007D01*
X78592993Y-50120099D01*
X78707007Y-50185925D01*
X78770590Y-50202962D01*
X78138282Y-50835269D01*
X78138282Y-50835270D01*
X78192452Y-50874626D01*
X78192451Y-50874626D01*
X78201495Y-50879234D01*
X78252292Y-50927208D01*
X78269087Y-50995029D01*
X78246550Y-51061164D01*
X78201499Y-51100202D01*
X78192182Y-51104949D01*
X78020213Y-51229890D01*
X77869890Y-51380213D01*
X77744951Y-51552179D01*
X77648444Y-51741585D01*
X77582753Y-51943760D01*
X77549500Y-52153713D01*
X77549500Y-52366286D01*
X77582753Y-52576239D01*
X77648444Y-52778414D01*
X77744951Y-52967820D01*
X77869890Y-53139786D01*
X78020213Y-53290109D01*
X78192179Y-53415048D01*
X78192181Y-53415049D01*
X78192184Y-53415051D01*
X78381588Y-53511557D01*
X78583757Y-53577246D01*
X78793713Y-53610500D01*
X78793714Y-53610500D01*
X79006286Y-53610500D01*
X79006287Y-53610500D01*
X79216243Y-53577246D01*
X79418412Y-53511557D01*
X79607816Y-53415051D01*
X79629789Y-53399086D01*
X79779786Y-53290109D01*
X79779788Y-53290106D01*
X79779792Y-53290104D01*
X79930104Y-53139792D01*
X79930106Y-53139788D01*
X79930109Y-53139786D01*
X80055048Y-52967820D01*
X80055047Y-52967820D01*
X80055051Y-52967816D01*
X80151557Y-52778412D01*
X80217246Y-52576243D01*
X80250500Y-52366287D01*
X80250500Y-52153713D01*
X80217246Y-51943757D01*
X80212178Y-51928159D01*
X80210183Y-51858318D01*
X80242426Y-51802163D01*
X82085858Y-49958733D01*
X82154312Y-49856285D01*
X82201463Y-49742451D01*
X82225501Y-49621606D01*
X82225501Y-49498393D01*
X82225501Y-49493283D01*
X82225500Y-49493257D01*
X82225500Y-43210451D01*
X82245185Y-43143412D01*
X82261815Y-43122774D01*
X82567771Y-42816817D01*
X82629094Y-42783333D01*
X82655452Y-42780499D01*
X83697871Y-42780499D01*
X83697872Y-42780499D01*
X83757483Y-42774091D01*
X83892331Y-42723796D01*
X84007546Y-42637546D01*
X84093796Y-42522331D01*
X84144091Y-42387483D01*
X84150500Y-42327873D01*
X84150499Y-41332128D01*
X84144091Y-41272517D01*
X84131073Y-41237616D01*
X84126090Y-41167926D01*
X84131075Y-41150949D01*
X84143597Y-41117375D01*
X84143598Y-41117372D01*
X84149999Y-41057844D01*
X84150000Y-41057827D01*
X84150000Y-40810000D01*
X82774000Y-40810000D01*
X82706961Y-40790315D01*
X82661206Y-40737511D01*
X82650000Y-40686000D01*
X82650000Y-40434000D01*
X82669685Y-40366961D01*
X82722489Y-40321206D01*
X82774000Y-40310000D01*
X84150000Y-40310000D01*
X84150000Y-40062172D01*
X84149999Y-40062155D01*
X84143597Y-40002622D01*
X84143597Y-40002620D01*
X84131075Y-39969048D01*
X84126089Y-39899356D01*
X84131071Y-39882390D01*
X84144091Y-39847483D01*
X84150500Y-39787873D01*
X84150499Y-38792128D01*
X84144091Y-38732517D01*
X84131340Y-38698332D01*
X84126357Y-38628642D01*
X84131340Y-38611669D01*
X84144091Y-38577483D01*
X84150500Y-38517873D01*
X84150499Y-37522128D01*
X84144091Y-37462517D01*
X84131340Y-37428332D01*
X84126357Y-37358642D01*
X84131340Y-37341669D01*
X84144091Y-37307483D01*
X84150500Y-37247873D01*
X84150499Y-36252128D01*
X84144091Y-36192517D01*
X84131340Y-36158332D01*
X84126357Y-36088642D01*
X84131340Y-36071669D01*
X84144091Y-36037483D01*
X84150500Y-35977873D01*
X84150499Y-34982128D01*
X84144091Y-34922517D01*
X84131073Y-34887616D01*
X84126090Y-34817926D01*
X84131075Y-34800949D01*
X84143597Y-34767375D01*
X84143598Y-34767372D01*
X84149999Y-34707844D01*
X84150000Y-34707827D01*
X84150000Y-34460000D01*
X81150000Y-34460000D01*
X81150000Y-34707844D01*
X81156401Y-34767372D01*
X81156403Y-34767379D01*
X81168925Y-34800952D01*
X81173909Y-34870643D01*
X81168925Y-34887617D01*
X81155909Y-34922514D01*
X81155908Y-34922516D01*
X81149501Y-34982116D01*
X81149501Y-34982123D01*
X81149500Y-34982135D01*
X81149500Y-35426951D01*
X81129815Y-35493990D01*
X81113181Y-35514632D01*
X80263317Y-36364495D01*
X80201994Y-36397980D01*
X80132302Y-36392996D01*
X80076369Y-36351124D01*
X80065151Y-36333108D01*
X80054622Y-36312444D01*
X80015271Y-36258282D01*
X80015269Y-36258282D01*
X79382962Y-36890590D01*
X79365925Y-36827007D01*
X79300099Y-36712993D01*
X79207007Y-36619901D01*
X79092993Y-36554075D01*
X79029409Y-36537037D01*
X79699627Y-35866818D01*
X79760950Y-35833333D01*
X79787307Y-35830499D01*
X79797872Y-35830499D01*
X79857483Y-35824091D01*
X79992331Y-35773796D01*
X80107546Y-35687546D01*
X80193796Y-35572331D01*
X80244091Y-35437483D01*
X80250500Y-35377873D01*
X80250499Y-33582128D01*
X80244091Y-33522517D01*
X80234752Y-33497479D01*
X80193797Y-33387671D01*
X80193793Y-33387664D01*
X80107547Y-33272455D01*
X80107544Y-33272452D01*
X79992335Y-33186206D01*
X79992328Y-33186202D01*
X79857482Y-33135908D01*
X79857483Y-33135908D01*
X79797883Y-33129501D01*
X79797881Y-33129500D01*
X79797873Y-33129500D01*
X79797865Y-33129500D01*
X78749500Y-33129500D01*
X78682461Y-33109815D01*
X78636706Y-33057011D01*
X78625500Y-33005500D01*
X78625500Y-32957072D01*
X78645185Y-32890033D01*
X78697989Y-32844278D01*
X78746849Y-32835641D01*
X78750000Y-32832728D01*
X79250000Y-32832728D01*
X79250001Y-32832729D01*
X79258275Y-32832079D01*
X79258282Y-32832077D01*
X79417194Y-32785908D01*
X79417198Y-32785907D01*
X79436877Y-32774269D01*
X79504601Y-32757085D01*
X79563123Y-32774269D01*
X79582801Y-32785907D01*
X79582805Y-32785908D01*
X79741717Y-32832077D01*
X79741724Y-32832079D01*
X79749998Y-32832729D01*
X79750000Y-32832728D01*
X79750000Y-32217500D01*
X79250000Y-32217500D01*
X79250000Y-32832728D01*
X78750000Y-32832728D01*
X78750000Y-32091500D01*
X78769685Y-32024461D01*
X78822489Y-31978706D01*
X78874000Y-31967500D01*
X79000000Y-31967500D01*
X79000000Y-31841500D01*
X79019685Y-31774461D01*
X79072489Y-31728706D01*
X79124000Y-31717500D01*
X79876000Y-31717500D01*
X79943039Y-31737185D01*
X79988794Y-31789989D01*
X80000000Y-31841500D01*
X80000000Y-31967500D01*
X80126000Y-31967500D01*
X80193039Y-31987185D01*
X80238794Y-32039989D01*
X80250000Y-32091500D01*
X80250000Y-32832728D01*
X80250001Y-32832729D01*
X80258275Y-32832079D01*
X80258282Y-32832077D01*
X80417194Y-32785909D01*
X80417197Y-32785907D01*
X80559642Y-32701666D01*
X80559650Y-32701660D01*
X80676660Y-32584650D01*
X80676666Y-32584642D01*
X80760907Y-32442197D01*
X80760908Y-32442194D01*
X80807077Y-32283283D01*
X80807078Y-32283276D01*
X80807979Y-32271826D01*
X80814173Y-32255569D01*
X80815415Y-32238215D01*
X80826357Y-32223597D01*
X80832859Y-32206537D01*
X80846860Y-32196209D01*
X80857287Y-32182282D01*
X80874393Y-32175901D01*
X80889088Y-32165063D01*
X80906450Y-32163944D01*
X80922751Y-32157865D01*
X80940592Y-32161746D01*
X80958813Y-32160573D01*
X80974233Y-32169064D01*
X80991024Y-32172717D01*
X81019278Y-32193868D01*
X81119008Y-32293598D01*
X81152493Y-32354921D01*
X81154617Y-32394532D01*
X81149501Y-32442123D01*
X81149500Y-32442130D01*
X81149500Y-33437870D01*
X81149501Y-33437876D01*
X81155908Y-33497483D01*
X81168925Y-33532381D01*
X81173909Y-33602072D01*
X81168925Y-33619047D01*
X81156403Y-33652619D01*
X81156401Y-33652627D01*
X81150000Y-33712155D01*
X81150000Y-33960000D01*
X84150000Y-33960000D01*
X84150000Y-33721149D01*
X84148189Y-33712135D01*
X96349500Y-33712135D01*
X96349500Y-34707870D01*
X96349501Y-34707876D01*
X96355908Y-34767481D01*
X96368659Y-34801669D01*
X96373642Y-34871361D01*
X96368659Y-34888331D01*
X96355908Y-34922518D01*
X96349501Y-34982116D01*
X96349501Y-34982123D01*
X96349500Y-34982135D01*
X96349500Y-35977870D01*
X96349501Y-35977876D01*
X96355908Y-36037481D01*
X96368659Y-36071669D01*
X96373642Y-36141361D01*
X96368659Y-36158331D01*
X96355908Y-36192518D01*
X96349501Y-36252116D01*
X96349501Y-36252123D01*
X96349500Y-36252135D01*
X96349500Y-37247870D01*
X96349501Y-37247876D01*
X96355908Y-37307481D01*
X96368659Y-37341669D01*
X96373642Y-37411361D01*
X96368659Y-37428331D01*
X96355908Y-37462518D01*
X96349501Y-37522116D01*
X96349501Y-37522123D01*
X96349500Y-37522135D01*
X96349500Y-38517870D01*
X96349501Y-38517876D01*
X96355908Y-38577481D01*
X96368659Y-38611669D01*
X96373642Y-38681361D01*
X96368659Y-38698331D01*
X96355908Y-38732518D01*
X96349501Y-38792116D01*
X96349501Y-38792123D01*
X96349500Y-38792135D01*
X96349500Y-39787870D01*
X96349501Y-39787876D01*
X96355908Y-39847483D01*
X96368925Y-39882381D01*
X96373909Y-39952072D01*
X96368925Y-39969047D01*
X96356403Y-40002619D01*
X96356401Y-40002627D01*
X96350000Y-40062155D01*
X96350000Y-40310000D01*
X97726000Y-40310000D01*
X97793039Y-40329685D01*
X97838794Y-40382489D01*
X97850000Y-40434000D01*
X97850000Y-40686000D01*
X97830315Y-40753039D01*
X97777511Y-40798794D01*
X97726000Y-40810000D01*
X96350000Y-40810000D01*
X96350000Y-41057844D01*
X96356401Y-41117372D01*
X96356403Y-41117379D01*
X96368925Y-41150952D01*
X96373909Y-41220643D01*
X96368925Y-41237617D01*
X96355909Y-41272514D01*
X96355908Y-41272516D01*
X96349501Y-41332116D01*
X96349501Y-41332123D01*
X96349500Y-41332135D01*
X96349500Y-42327870D01*
X96349501Y-42327876D01*
X96355908Y-42387483D01*
X96406202Y-42522328D01*
X96406206Y-42522335D01*
X96492452Y-42637544D01*
X96492455Y-42637547D01*
X96607664Y-42723793D01*
X96607671Y-42723797D01*
X96742517Y-42774091D01*
X96742516Y-42774091D01*
X96749444Y-42774835D01*
X96802127Y-42780500D01*
X97744547Y-42780499D01*
X97811586Y-42800183D01*
X97832228Y-42816818D01*
X98138181Y-43122771D01*
X98171666Y-43184094D01*
X98174500Y-43210452D01*
X98174500Y-49421611D01*
X98198535Y-49542444D01*
X98198540Y-49542461D01*
X98245685Y-49656280D01*
X98245687Y-49656283D01*
X98245688Y-49656286D01*
X98279915Y-49707509D01*
X98314142Y-49758733D01*
X98401267Y-49845858D01*
X98401269Y-49845859D01*
X98411232Y-49855822D01*
X100357571Y-51802162D01*
X100391056Y-51863485D01*
X100387821Y-51928160D01*
X100382754Y-51943753D01*
X100349500Y-52153713D01*
X100349500Y-52366286D01*
X100382753Y-52576239D01*
X100448444Y-52778414D01*
X100544951Y-52967820D01*
X100669890Y-53139786D01*
X100820213Y-53290109D01*
X100992179Y-53415048D01*
X100992181Y-53415049D01*
X100992184Y-53415051D01*
X101181588Y-53511557D01*
X101383757Y-53577246D01*
X101593713Y-53610500D01*
X101593714Y-53610500D01*
X101806286Y-53610500D01*
X101806287Y-53610500D01*
X102016243Y-53577246D01*
X102218412Y-53511557D01*
X102407816Y-53415051D01*
X102429789Y-53399086D01*
X102579786Y-53290109D01*
X102579788Y-53290106D01*
X102579792Y-53290104D01*
X102730104Y-53139792D01*
X102730106Y-53139788D01*
X102730109Y-53139786D01*
X102855048Y-52967820D01*
X102855047Y-52967820D01*
X102855051Y-52967816D01*
X102951557Y-52778412D01*
X103017246Y-52576243D01*
X103050500Y-52366287D01*
X103050500Y-52153713D01*
X103017246Y-51943757D01*
X102951557Y-51741588D01*
X102855051Y-51552184D01*
X102855049Y-51552181D01*
X102855048Y-51552179D01*
X102730109Y-51380213D01*
X102579786Y-51229890D01*
X102407817Y-51104949D01*
X102398504Y-51100204D01*
X102347707Y-51052230D01*
X102330912Y-50984409D01*
X102353449Y-50918274D01*
X102398507Y-50879232D01*
X102407555Y-50874622D01*
X102461716Y-50835270D01*
X102461717Y-50835270D01*
X101829408Y-50202962D01*
X101892993Y-50185925D01*
X102007007Y-50120099D01*
X102100099Y-50027007D01*
X102165925Y-49912993D01*
X102182962Y-49849408D01*
X102815270Y-50481717D01*
X102815270Y-50481716D01*
X102854622Y-50427554D01*
X102951095Y-50238217D01*
X103016757Y-50036130D01*
X103016757Y-50036127D01*
X103050000Y-49826246D01*
X103050000Y-49613753D01*
X103016757Y-49403872D01*
X103016757Y-49403869D01*
X102951095Y-49201782D01*
X102854624Y-49012449D01*
X102815270Y-48958282D01*
X102815269Y-48958282D01*
X102182962Y-49590590D01*
X102165925Y-49527007D01*
X102100099Y-49412993D01*
X102007007Y-49319901D01*
X101892993Y-49254075D01*
X101829409Y-49237037D01*
X102461716Y-48604728D01*
X102407547Y-48565373D01*
X102407547Y-48565372D01*
X102398500Y-48560763D01*
X102347706Y-48512788D01*
X102330912Y-48444966D01*
X102353451Y-48378832D01*
X102398508Y-48339793D01*
X102407816Y-48335051D01*
X102487007Y-48277515D01*
X102579786Y-48210109D01*
X102579788Y-48210106D01*
X102579792Y-48210104D01*
X102730104Y-48059792D01*
X102730106Y-48059788D01*
X102730109Y-48059786D01*
X102855048Y-47887820D01*
X102855047Y-47887820D01*
X102855051Y-47887816D01*
X102951557Y-47698412D01*
X103017246Y-47496243D01*
X103050500Y-47286287D01*
X103050500Y-47073713D01*
X103017246Y-46863757D01*
X102951557Y-46661588D01*
X102855051Y-46472184D01*
X102855049Y-46472181D01*
X102855048Y-46472179D01*
X102730109Y-46300213D01*
X102579786Y-46149890D01*
X102407820Y-46024951D01*
X102407115Y-46024591D01*
X102399054Y-46020485D01*
X102348259Y-45972512D01*
X102331463Y-45904692D01*
X102353999Y-45838556D01*
X102399054Y-45799515D01*
X102407816Y-45795051D01*
X102429789Y-45779086D01*
X102579786Y-45670109D01*
X102579788Y-45670106D01*
X102579792Y-45670104D01*
X102730104Y-45519792D01*
X102730106Y-45519788D01*
X102730109Y-45519786D01*
X102855048Y-45347820D01*
X102855047Y-45347820D01*
X102855051Y-45347816D01*
X102951557Y-45158412D01*
X103017246Y-44956243D01*
X103050500Y-44746287D01*
X103050500Y-44533713D01*
X103017246Y-44323757D01*
X102951557Y-44121588D01*
X102855051Y-43932184D01*
X102855049Y-43932181D01*
X102855048Y-43932179D01*
X102730109Y-43760213D01*
X102579786Y-43609890D01*
X102407820Y-43484951D01*
X102407115Y-43484591D01*
X102399054Y-43480485D01*
X102348259Y-43432512D01*
X102331463Y-43364692D01*
X102353999Y-43298556D01*
X102399054Y-43259515D01*
X102407816Y-43255051D01*
X102505481Y-43184094D01*
X102579786Y-43130109D01*
X102579788Y-43130106D01*
X102579792Y-43130104D01*
X102730104Y-42979792D01*
X102730106Y-42979788D01*
X102730109Y-42979786D01*
X102855048Y-42807820D01*
X102855047Y-42807820D01*
X102855051Y-42807816D01*
X102951557Y-42618412D01*
X103017246Y-42416243D01*
X103050500Y-42206287D01*
X103050500Y-41993713D01*
X103017246Y-41783757D01*
X102951557Y-41581588D01*
X102855051Y-41392184D01*
X102855049Y-41392181D01*
X102855048Y-41392179D01*
X102730109Y-41220213D01*
X102579786Y-41069890D01*
X102407820Y-40944951D01*
X102407115Y-40944591D01*
X102399054Y-40940485D01*
X102348259Y-40892512D01*
X102331463Y-40824692D01*
X102353999Y-40758556D01*
X102399054Y-40719515D01*
X102407816Y-40715051D01*
X102447802Y-40686000D01*
X102579786Y-40590109D01*
X102579788Y-40590106D01*
X102579792Y-40590104D01*
X102730104Y-40439792D01*
X102730106Y-40439788D01*
X102730109Y-40439786D01*
X102855048Y-40267820D01*
X102855047Y-40267820D01*
X102855051Y-40267816D01*
X102951557Y-40078412D01*
X103017246Y-39876243D01*
X103050500Y-39666287D01*
X103050500Y-39453713D01*
X103017246Y-39243757D01*
X102951557Y-39041588D01*
X102855051Y-38852184D01*
X102855049Y-38852181D01*
X102855048Y-38852179D01*
X102730109Y-38680213D01*
X102579786Y-38529890D01*
X102407820Y-38404951D01*
X102407115Y-38404591D01*
X102399054Y-38400485D01*
X102348259Y-38352512D01*
X102331463Y-38284692D01*
X102353999Y-38218556D01*
X102399054Y-38179515D01*
X102407816Y-38175051D01*
X102462572Y-38135269D01*
X102579786Y-38050109D01*
X102579788Y-38050106D01*
X102579792Y-38050104D01*
X102730104Y-37899792D01*
X102730106Y-37899788D01*
X102730109Y-37899786D01*
X102855048Y-37727820D01*
X102855047Y-37727820D01*
X102855051Y-37727816D01*
X102951557Y-37538412D01*
X103017246Y-37336243D01*
X103050500Y-37126287D01*
X103050500Y-36913713D01*
X103017246Y-36703757D01*
X102951557Y-36501588D01*
X102855051Y-36312184D01*
X102855049Y-36312181D01*
X102855048Y-36312179D01*
X102730109Y-36140213D01*
X102616181Y-36026285D01*
X102582696Y-35964962D01*
X102587680Y-35895270D01*
X102629552Y-35839337D01*
X102660529Y-35822422D01*
X102792086Y-35773354D01*
X102792093Y-35773350D01*
X102907187Y-35687190D01*
X102907190Y-35687187D01*
X102993350Y-35572093D01*
X102993354Y-35572086D01*
X103043596Y-35437379D01*
X103043598Y-35437372D01*
X103049999Y-35377844D01*
X103050000Y-35377827D01*
X103050000Y-34730000D01*
X102133012Y-34730000D01*
X102165925Y-34672993D01*
X102200000Y-34545826D01*
X102200000Y-34414174D01*
X102165925Y-34287007D01*
X102133012Y-34230000D01*
X103050000Y-34230000D01*
X103050000Y-33582172D01*
X103049999Y-33582155D01*
X103043598Y-33522627D01*
X103043596Y-33522620D01*
X102993354Y-33387913D01*
X102993350Y-33387906D01*
X102907190Y-33272812D01*
X102907187Y-33272809D01*
X102792093Y-33186649D01*
X102792086Y-33186645D01*
X102657379Y-33136403D01*
X102657372Y-33136401D01*
X102597844Y-33130000D01*
X101950000Y-33130000D01*
X101950000Y-34046988D01*
X101892993Y-34014075D01*
X101765826Y-33980000D01*
X101634174Y-33980000D01*
X101507007Y-34014075D01*
X101450000Y-34046988D01*
X101450000Y-33130000D01*
X100802155Y-33130000D01*
X100742627Y-33136401D01*
X100742620Y-33136403D01*
X100607913Y-33186645D01*
X100607906Y-33186649D01*
X100492812Y-33272809D01*
X100492809Y-33272812D01*
X100406649Y-33387906D01*
X100406645Y-33387913D01*
X100356403Y-33522620D01*
X100356401Y-33522627D01*
X100350000Y-33582155D01*
X100350000Y-34230000D01*
X101266988Y-34230000D01*
X101234075Y-34287007D01*
X101200000Y-34414174D01*
X101200000Y-34545826D01*
X101234075Y-34672993D01*
X101266988Y-34730000D01*
X100345952Y-34730000D01*
X100278913Y-34710315D01*
X100258271Y-34693681D01*
X99386818Y-33822228D01*
X99353333Y-33760905D01*
X99352134Y-33754619D01*
X99350499Y-33744651D01*
X99350499Y-33712128D01*
X99344091Y-33652517D01*
X99328550Y-33610851D01*
X99326594Y-33598923D01*
X99328585Y-33582816D01*
X99326092Y-33547917D01*
X99331075Y-33530949D01*
X99343597Y-33497375D01*
X99343598Y-33497372D01*
X99349999Y-33437844D01*
X99350000Y-33437827D01*
X99350000Y-33190000D01*
X96350000Y-33190000D01*
X96350000Y-33437844D01*
X96356401Y-33497372D01*
X96356403Y-33497379D01*
X96368925Y-33530952D01*
X96373909Y-33600643D01*
X96368925Y-33617617D01*
X96355909Y-33652514D01*
X96355908Y-33652516D01*
X96349501Y-33712116D01*
X96349500Y-33712135D01*
X84148189Y-33712135D01*
X84125686Y-33600140D01*
X84127906Y-33574765D01*
X84126089Y-33549356D01*
X84131071Y-33532390D01*
X84144091Y-33497483D01*
X84150500Y-33437873D01*
X84150499Y-32442155D01*
X96350000Y-32442155D01*
X96350000Y-32690000D01*
X97600000Y-32690000D01*
X98100000Y-32690000D01*
X99350000Y-32690000D01*
X99350000Y-32442172D01*
X99349999Y-32442155D01*
X99343598Y-32382627D01*
X99343596Y-32382620D01*
X99293354Y-32247913D01*
X99293350Y-32247906D01*
X99207190Y-32132812D01*
X99207187Y-32132809D01*
X99092093Y-32046649D01*
X99092086Y-32046645D01*
X98957379Y-31996403D01*
X98957372Y-31996401D01*
X98897844Y-31990000D01*
X98100000Y-31990000D01*
X98100000Y-32690000D01*
X97600000Y-32690000D01*
X97600000Y-31990000D01*
X96802155Y-31990000D01*
X96742627Y-31996401D01*
X96742620Y-31996403D01*
X96607913Y-32046645D01*
X96607906Y-32046649D01*
X96492812Y-32132809D01*
X96492809Y-32132812D01*
X96406649Y-32247906D01*
X96406645Y-32247913D01*
X96356403Y-32382620D01*
X96356401Y-32382627D01*
X96350000Y-32442155D01*
X84150499Y-32442155D01*
X84150499Y-32442128D01*
X84144091Y-32382517D01*
X84133798Y-32354921D01*
X84093797Y-32247671D01*
X84093793Y-32247664D01*
X84007547Y-32132455D01*
X84007544Y-32132452D01*
X83892335Y-32046206D01*
X83892328Y-32046202D01*
X83757482Y-31995908D01*
X83757483Y-31995908D01*
X83697883Y-31989501D01*
X83697881Y-31989500D01*
X83697873Y-31989500D01*
X83697865Y-31989500D01*
X82635452Y-31989500D01*
X82568413Y-31969815D01*
X82547771Y-31953181D01*
X81035650Y-30441060D01*
X81028360Y-30433770D01*
X81028358Y-30433767D01*
X80941233Y-30346642D01*
X80890009Y-30312415D01*
X80838786Y-30278188D01*
X80838783Y-30278186D01*
X80838780Y-30278185D01*
X80760979Y-30245960D01*
X80758292Y-30244847D01*
X80724952Y-30231037D01*
X80712921Y-30228643D01*
X80704182Y-30225495D01*
X80683176Y-30210133D01*
X80660111Y-30198067D01*
X80658590Y-30196573D01*
X80559954Y-30097937D01*
X80559953Y-30097936D01*
X80559950Y-30097934D01*
X80417398Y-30013629D01*
X80417395Y-30013628D01*
X80258362Y-29967424D01*
X80258356Y-29967423D01*
X80221203Y-29964500D01*
X79778809Y-29964500D01*
X79778784Y-29964501D01*
X79741641Y-29967424D01*
X79582604Y-30013628D01*
X79582598Y-30013630D01*
X79563118Y-30025151D01*
X79495393Y-30042331D01*
X79436882Y-30025151D01*
X79417401Y-30013630D01*
X79417395Y-30013628D01*
X79258362Y-29967424D01*
X79258356Y-29967423D01*
X79221203Y-29964500D01*
X78778809Y-29964500D01*
X78778784Y-29964501D01*
X78741645Y-29967423D01*
X78582599Y-30013630D01*
X78440049Y-30097934D01*
X78440044Y-30097938D01*
X78363810Y-30174172D01*
X78302486Y-30207656D01*
X78300321Y-30208107D01*
X78185053Y-30231035D01*
X78185047Y-30231037D01*
X78071216Y-30278187D01*
X77968765Y-30346642D01*
X77968762Y-30346645D01*
X77601269Y-30714140D01*
X77514144Y-30801264D01*
X77514138Y-30801272D01*
X77445692Y-30903705D01*
X77445684Y-30903719D01*
X77412347Y-30984207D01*
X77406823Y-30997543D01*
X77398537Y-31017545D01*
X77398535Y-31017553D01*
X77374500Y-31138389D01*
X77100500Y-31138389D01*
X77100500Y-29624500D01*
X77120185Y-29557461D01*
X77172989Y-29511706D01*
X77224500Y-29500500D01*
X103375500Y-29500500D01*
X103442539Y-29520185D01*
G37*
%TD.AperFunction*%
%TD*%
M02*
