%TF.GenerationSoftware,KiCad,Pcbnew,9.0.2+1*%
%TF.CreationDate,2025-07-26T18:57:23+01:00*%
%TF.ProjectId,Navigator,4e617669-6761-4746-9f72-2e6b69636164,rev?*%
%TF.SameCoordinates,Original*%
%TF.FileFunction,Drillmap*%
%TF.FilePolarity,Positive*%
%FSLAX45Y45*%
G04 Gerber Fmt 4.5, Leading zero omitted, Abs format (unit mm)*
G04 Created by KiCad (PCBNEW 9.0.2+1) date 2025-07-26 18:57:23*
%MOMM*%
%LPD*%
G01*
G04 APERTURE LIST*
%ADD10C,0.050000*%
%ADD11C,0.200000*%
%ADD12C,0.100000*%
%ADD13C,0.111760*%
%ADD14C,0.140000*%
%ADD15C,0.160000*%
G04 APERTURE END LIST*
D10*
X20000000Y-7640000D02*
G75*
G02*
X20500000Y-7140000I500000J0D01*
G01*
X10000000Y-9680000D02*
X10000000Y-6820000D01*
X10320000Y-10000000D02*
G75*
G02*
X10000000Y-9680000I0J320000D01*
G01*
X10000000Y-6820000D02*
G75*
G02*
X10320000Y-6500000I320000J0D01*
G01*
X20680000Y-9360000D02*
X20500000Y-9360000D01*
X10320000Y-10000000D02*
X20680000Y-10000000D01*
X10320000Y-6500000D02*
X20680000Y-6500000D01*
X20500000Y-9360000D02*
G75*
G02*
X20000000Y-8860000I0J500000D01*
G01*
X20000000Y-7640000D02*
X20000000Y-8860000D01*
X20680000Y-7140000D02*
X20500000Y-7140000D01*
X20680000Y-6500000D02*
G75*
G02*
X20680000Y-7140000I0J-320000D01*
G01*
X20680000Y-9360000D02*
G75*
G02*
X20680000Y-10000000I0J-320000D01*
G01*
D11*
D12*
X10300000Y-9890000D02*
X10320000Y-9910000D01*
X10320000Y-9890000D02*
X10300000Y-9910000D01*
X10445000Y-9890000D02*
X10465000Y-9910000D01*
X10465000Y-9890000D02*
X10445000Y-9910000D01*
X10580000Y-9890000D02*
X10600000Y-9910000D01*
X10600000Y-9890000D02*
X10580000Y-9910000D01*
X10710000Y-9890000D02*
X10730000Y-9910000D01*
X10730000Y-9890000D02*
X10710000Y-9910000D01*
X10855000Y-9890000D02*
X10875000Y-9910000D01*
X10875000Y-9890000D02*
X10855000Y-9910000D01*
X10970000Y-7880000D02*
X10990000Y-7900000D01*
X10990000Y-7880000D02*
X10970000Y-7900000D01*
X11000000Y-9890000D02*
X11020000Y-9910000D01*
X11020000Y-9890000D02*
X11000000Y-9910000D01*
X11113000Y-8257500D02*
X11133000Y-8277500D01*
X11133000Y-8257500D02*
X11113000Y-8277500D01*
X11135000Y-9890000D02*
X11155000Y-9910000D01*
X11155000Y-9890000D02*
X11135000Y-9910000D01*
X11265000Y-9890000D02*
X11285000Y-9910000D01*
X11285000Y-9890000D02*
X11265000Y-9910000D01*
X11410000Y-9890000D02*
X11430000Y-9910000D01*
X11430000Y-9890000D02*
X11410000Y-9910000D01*
X11527000Y-7811000D02*
X11547000Y-7831000D01*
X11547000Y-7811000D02*
X11527000Y-7831000D01*
X11528000Y-7890000D02*
X11548000Y-7910000D01*
X11548000Y-7890000D02*
X11528000Y-7910000D01*
X11545000Y-9890000D02*
X11565000Y-9910000D01*
X11565000Y-9890000D02*
X11545000Y-9910000D01*
X11675000Y-9890000D02*
X11695000Y-9910000D01*
X11695000Y-9890000D02*
X11675000Y-9910000D01*
X11742486Y-8344850D02*
X11762486Y-8364850D01*
X11762486Y-8344850D02*
X11742486Y-8364850D01*
X11757486Y-8149850D02*
X11777486Y-8169850D01*
X11777486Y-8149850D02*
X11757486Y-8169850D01*
X11820000Y-9890000D02*
X11840000Y-9910000D01*
X11840000Y-9890000D02*
X11820000Y-9910000D01*
X11875000Y-9240000D02*
X11895000Y-9260000D01*
X11895000Y-9240000D02*
X11875000Y-9260000D01*
X12005000Y-9240000D02*
X12025000Y-9260000D01*
X12025000Y-9240000D02*
X12005000Y-9260000D01*
X12150000Y-9240000D02*
X12170000Y-9260000D01*
X12170000Y-9240000D02*
X12150000Y-9260000D01*
X12202486Y-8149850D02*
X12222486Y-8169850D01*
X12222486Y-8149850D02*
X12202486Y-8169850D01*
X12217486Y-8344850D02*
X12237486Y-8364850D01*
X12237486Y-8344850D02*
X12217486Y-8364850D01*
X12257000Y-7756000D02*
X12277000Y-7776000D01*
X12277000Y-7756000D02*
X12257000Y-7776000D01*
X12342000Y-7751000D02*
X12362000Y-7771000D01*
X12362000Y-7751000D02*
X12342000Y-7771000D01*
X12360000Y-7500000D02*
X12380000Y-7520000D01*
X12380000Y-7500000D02*
X12360000Y-7520000D01*
X12434260Y-7525514D02*
X12454260Y-7545514D01*
X12454260Y-7525514D02*
X12434260Y-7545514D01*
X12560000Y-7240000D02*
X12580000Y-7260000D01*
X12580000Y-7240000D02*
X12560000Y-7260000D01*
X12563310Y-7490000D02*
X12583310Y-7510000D01*
X12583310Y-7490000D02*
X12563310Y-7510000D01*
X12574869Y-7371869D02*
X12594869Y-7391869D01*
X12594869Y-7371869D02*
X12574869Y-7391869D01*
X12673000Y-7557850D02*
X12693000Y-7577850D01*
X12693000Y-7557850D02*
X12673000Y-7577850D01*
X12808000Y-7672150D02*
X12828000Y-7692150D01*
X12828000Y-7672150D02*
X12808000Y-7692150D01*
X12845000Y-8180000D02*
X12865000Y-8200000D01*
X12865000Y-8180000D02*
X12845000Y-8200000D01*
X12845000Y-8325000D02*
X12865000Y-8345000D01*
X12865000Y-8325000D02*
X12845000Y-8345000D01*
X12845000Y-8460000D02*
X12865000Y-8480000D01*
X12865000Y-8460000D02*
X12845000Y-8480000D01*
X12845000Y-8590000D02*
X12865000Y-8610000D01*
X12865000Y-8590000D02*
X12845000Y-8610000D01*
X12845000Y-8735000D02*
X12865000Y-8755000D01*
X12865000Y-8735000D02*
X12845000Y-8755000D01*
X12855000Y-9440000D02*
X12875000Y-9460000D01*
X12875000Y-9440000D02*
X12855000Y-9460000D01*
X13035850Y-8057858D02*
X13055850Y-8077858D01*
X13055850Y-8057858D02*
X13035850Y-8077858D01*
X13120000Y-8435000D02*
X13140000Y-8455000D01*
X13140000Y-8435000D02*
X13120000Y-8455000D01*
X13128000Y-7580000D02*
X13148000Y-7600000D01*
X13148000Y-7580000D02*
X13128000Y-7600000D01*
X13128000Y-7700000D02*
X13148000Y-7720000D01*
X13148000Y-7700000D02*
X13128000Y-7720000D01*
X13200000Y-7920000D02*
X13220000Y-7940000D01*
X13220000Y-7920000D02*
X13200000Y-7940000D01*
X13239527Y-7833849D02*
X13259527Y-7853849D01*
X13259527Y-7833849D02*
X13239527Y-7853849D01*
X13240000Y-6590000D02*
X13260000Y-6610000D01*
X13260000Y-6590000D02*
X13240000Y-6610000D01*
X13315500Y-7844500D02*
X13335500Y-7864500D01*
X13335500Y-7844500D02*
X13315500Y-7864500D01*
X13333058Y-8716855D02*
X13353058Y-8736855D01*
X13353058Y-8716855D02*
X13333058Y-8736855D01*
X13379100Y-8000000D02*
X13399100Y-8020000D01*
X13399100Y-8000000D02*
X13379100Y-8020000D01*
X13379100Y-8180000D02*
X13399100Y-8200000D01*
X13399100Y-8180000D02*
X13379100Y-8200000D01*
X13381810Y-7501000D02*
X13401810Y-7521000D01*
X13401810Y-7501000D02*
X13381810Y-7521000D01*
X13385000Y-6590000D02*
X13405000Y-6610000D01*
X13405000Y-6590000D02*
X13385000Y-6610000D01*
X13392516Y-7825000D02*
X13412516Y-7845000D01*
X13412516Y-7825000D02*
X13392516Y-7845000D01*
X13405000Y-7250000D02*
X13425000Y-7270000D01*
X13425000Y-7250000D02*
X13405000Y-7270000D01*
X13410000Y-8700000D02*
X13430000Y-8720000D01*
X13430000Y-8700000D02*
X13410000Y-8720000D01*
X13430000Y-8580000D02*
X13450000Y-8600000D01*
X13450000Y-8580000D02*
X13430000Y-8600000D01*
X13451686Y-7871085D02*
X13471686Y-7891085D01*
X13471686Y-7871085D02*
X13451686Y-7891085D01*
X13477000Y-8001000D02*
X13497000Y-8021000D01*
X13497000Y-8001000D02*
X13477000Y-8021000D01*
X13510000Y-9431500D02*
X13530000Y-9451500D01*
X13530000Y-9431500D02*
X13510000Y-9451500D01*
X13530000Y-6590000D02*
X13550000Y-6610000D01*
X13550000Y-6590000D02*
X13530000Y-6610000D01*
X13588000Y-7540000D02*
X13608000Y-7560000D01*
X13608000Y-7540000D02*
X13588000Y-7560000D01*
X13610000Y-7894500D02*
X13630000Y-7914500D01*
X13630000Y-7894500D02*
X13610000Y-7914500D01*
X13617000Y-7651000D02*
X13637000Y-7671000D01*
X13637000Y-7651000D02*
X13617000Y-7671000D01*
X13618000Y-7730000D02*
X13638000Y-7750000D01*
X13638000Y-7730000D02*
X13618000Y-7750000D01*
X13626618Y-9565000D02*
X13646618Y-9585000D01*
X13646618Y-9565000D02*
X13626618Y-9585000D01*
X13628500Y-9480043D02*
X13648500Y-9500043D01*
X13648500Y-9480043D02*
X13628500Y-9500043D01*
X13630000Y-8630000D02*
X13650000Y-8650000D01*
X13650000Y-8630000D02*
X13630000Y-8650000D01*
X13633000Y-7822500D02*
X13653000Y-7842500D01*
X13653000Y-7822500D02*
X13633000Y-7842500D01*
X13652000Y-7581000D02*
X13672000Y-7601000D01*
X13672000Y-7581000D02*
X13652000Y-7601000D01*
X13658000Y-8790000D02*
X13678000Y-8810000D01*
X13678000Y-8790000D02*
X13658000Y-8810000D01*
X13658744Y-8313243D02*
X13678744Y-8333243D01*
X13678744Y-8313243D02*
X13658744Y-8333243D01*
X13675000Y-6590000D02*
X13695000Y-6610000D01*
X13695000Y-6590000D02*
X13675000Y-6610000D01*
X13737000Y-8060000D02*
X13757000Y-8080000D01*
X13757000Y-8060000D02*
X13737000Y-8080000D01*
X13747486Y-8449850D02*
X13767486Y-8469850D01*
X13767486Y-8449850D02*
X13747486Y-8469850D01*
X13767500Y-8367500D02*
X13787500Y-8387500D01*
X13787500Y-8367500D02*
X13767500Y-8387500D01*
X13782000Y-7696000D02*
X13802000Y-7716000D01*
X13802000Y-7696000D02*
X13782000Y-7716000D01*
X13783000Y-7355700D02*
X13803000Y-7375700D01*
X13803000Y-7355700D02*
X13783000Y-7375700D01*
X13792000Y-8131000D02*
X13812000Y-8151000D01*
X13812000Y-8131000D02*
X13792000Y-8151000D01*
X13803952Y-7874000D02*
X13823952Y-7894000D01*
X13823952Y-7874000D02*
X13803952Y-7894000D01*
X13810000Y-9430000D02*
X13830000Y-9450000D01*
X13830000Y-9430000D02*
X13810000Y-9450000D01*
X13820000Y-6590000D02*
X13840000Y-6610000D01*
X13840000Y-6590000D02*
X13820000Y-6610000D01*
X13830000Y-7250000D02*
X13850000Y-7270000D01*
X13850000Y-7250000D02*
X13830000Y-7270000D01*
X13862000Y-7551000D02*
X13882000Y-7571000D01*
X13882000Y-7551000D02*
X13862000Y-7571000D01*
X13865000Y-9326900D02*
X13885000Y-9346900D01*
X13885000Y-9326900D02*
X13865000Y-9346900D01*
X13877486Y-8104850D02*
X13897486Y-8124850D01*
X13897486Y-8104850D02*
X13877486Y-8124850D01*
X13880166Y-7894500D02*
X13900166Y-7914500D01*
X13900166Y-7894500D02*
X13880166Y-7914500D01*
X13882500Y-8477500D02*
X13902500Y-8497500D01*
X13902500Y-8477500D02*
X13882500Y-8497500D01*
X13903350Y-7300350D02*
X13923350Y-7320350D01*
X13923350Y-7300350D02*
X13903350Y-7320350D01*
X13922000Y-7826000D02*
X13942000Y-7846000D01*
X13942000Y-7826000D02*
X13922000Y-7846000D01*
X13923493Y-8374507D02*
X13943493Y-8394507D01*
X13943493Y-8374507D02*
X13923493Y-8394507D01*
X13940000Y-7555000D02*
X13960000Y-7575000D01*
X13960000Y-7555000D02*
X13940000Y-7575000D01*
X13940000Y-9351500D02*
X13960000Y-9371500D01*
X13960000Y-9351500D02*
X13940000Y-9371500D01*
X13943651Y-8933325D02*
X13963651Y-8953325D01*
X13963651Y-8933325D02*
X13943651Y-8953325D01*
X13955000Y-6590000D02*
X13975000Y-6610000D01*
X13975000Y-6590000D02*
X13955000Y-6610000D01*
X13955000Y-9455000D02*
X13975000Y-9475000D01*
X13975000Y-9455000D02*
X13955000Y-9475000D01*
X13993587Y-9519312D02*
X14013587Y-9539312D01*
X14013587Y-9519312D02*
X13993587Y-9539312D01*
X14020000Y-8595000D02*
X14040000Y-8615000D01*
X14040000Y-8595000D02*
X14020000Y-8615000D01*
X14032000Y-8334850D02*
X14052000Y-8354850D01*
X14052000Y-8334850D02*
X14032000Y-8354850D01*
X14033000Y-7632850D02*
X14053000Y-7652850D01*
X14053000Y-7632850D02*
X14033000Y-7652850D01*
X14037486Y-8409850D02*
X14057486Y-8429850D01*
X14057486Y-8409850D02*
X14037486Y-8429850D01*
X14050000Y-8660000D02*
X14070000Y-8680000D01*
X14070000Y-8660000D02*
X14050000Y-8680000D01*
X14058651Y-8823325D02*
X14078651Y-8843325D01*
X14078651Y-8823325D02*
X14058651Y-8843325D01*
X14083651Y-9078325D02*
X14103651Y-9098325D01*
X14103651Y-9078325D02*
X14083651Y-9098325D01*
X14085000Y-6590000D02*
X14105000Y-6610000D01*
X14105000Y-6590000D02*
X14085000Y-6610000D01*
X14087000Y-7881000D02*
X14107000Y-7901000D01*
X14107000Y-7881000D02*
X14087000Y-7901000D01*
X14092850Y-9481500D02*
X14112850Y-9501500D01*
X14112850Y-9481500D02*
X14092850Y-9501500D01*
X14092850Y-9590000D02*
X14112850Y-9610000D01*
X14112850Y-9590000D02*
X14092850Y-9610000D01*
X14095000Y-8112500D02*
X14115000Y-8132500D01*
X14115000Y-8112500D02*
X14095000Y-8132500D01*
X14101975Y-9318600D02*
X14121975Y-9338600D01*
X14121975Y-9318600D02*
X14101975Y-9338600D01*
X14112500Y-8205000D02*
X14132500Y-8225000D01*
X14132500Y-8205000D02*
X14112500Y-8225000D01*
X14117486Y-8356000D02*
X14137486Y-8376000D01*
X14137486Y-8356000D02*
X14117486Y-8376000D01*
X14142500Y-8542500D02*
X14162500Y-8562500D01*
X14162500Y-8542500D02*
X14142500Y-8562500D01*
X14153000Y-7632850D02*
X14173000Y-7652850D01*
X14173000Y-7632850D02*
X14153000Y-7652850D01*
X14153000Y-7929600D02*
X14173000Y-7949600D01*
X14173000Y-7929600D02*
X14153000Y-7949600D01*
X14153651Y-8728396D02*
X14173651Y-8748396D01*
X14173651Y-8728396D02*
X14153651Y-8748396D01*
X14175000Y-7355000D02*
X14195000Y-7375000D01*
X14195000Y-7355000D02*
X14175000Y-7375000D01*
X14175000Y-9301500D02*
X14195000Y-9321500D01*
X14195000Y-9301500D02*
X14175000Y-9321500D01*
X14180000Y-9190000D02*
X14200000Y-9210000D01*
X14200000Y-9190000D02*
X14180000Y-9210000D01*
X14180500Y-8117500D02*
X14200500Y-8137500D01*
X14200500Y-8117500D02*
X14180500Y-8137500D01*
X14202500Y-8369500D02*
X14222500Y-8389500D01*
X14222500Y-8369500D02*
X14202500Y-8389500D01*
X14230000Y-6590000D02*
X14250000Y-6610000D01*
X14250000Y-6590000D02*
X14230000Y-6610000D01*
X14257651Y-8624396D02*
X14277651Y-8644396D01*
X14277651Y-8624396D02*
X14257651Y-8644396D01*
X14274585Y-8112750D02*
X14294585Y-8132750D01*
X14294585Y-8112750D02*
X14274585Y-8132750D01*
X14283000Y-7632850D02*
X14303000Y-7652850D01*
X14303000Y-7632850D02*
X14283000Y-7652850D01*
X14315000Y-9515000D02*
X14335000Y-9535000D01*
X14335000Y-9515000D02*
X14315000Y-9535000D01*
X14320000Y-9433000D02*
X14340000Y-9453000D01*
X14340000Y-9433000D02*
X14320000Y-9453000D01*
X14325151Y-9123825D02*
X14345151Y-9143825D01*
X14345151Y-9123825D02*
X14325151Y-9143825D01*
X14365000Y-6590000D02*
X14385000Y-6610000D01*
X14385000Y-6590000D02*
X14365000Y-6610000D01*
X14380000Y-8531000D02*
X14400000Y-8551000D01*
X14400000Y-8531000D02*
X14380000Y-8551000D01*
X14382000Y-7941000D02*
X14402000Y-7961000D01*
X14402000Y-7941000D02*
X14382000Y-7961000D01*
X14383651Y-8748325D02*
X14403651Y-8768325D01*
X14403651Y-8748325D02*
X14383651Y-8768325D01*
X14422000Y-7731000D02*
X14442000Y-7751000D01*
X14442000Y-7731000D02*
X14422000Y-7751000D01*
X14427651Y-9021325D02*
X14447651Y-9041325D01*
X14447651Y-9021325D02*
X14427651Y-9041325D01*
X14428000Y-7810000D02*
X14448000Y-7830000D01*
X14448000Y-7810000D02*
X14428000Y-7830000D01*
X14437000Y-8166000D02*
X14457000Y-8186000D01*
X14457000Y-8166000D02*
X14437000Y-8186000D01*
X14449536Y-8559102D02*
X14469536Y-8579102D01*
X14469536Y-8559102D02*
X14449536Y-8579102D01*
X14453651Y-8827325D02*
X14473651Y-8847325D01*
X14473651Y-8827325D02*
X14453651Y-8847325D01*
X14462000Y-7986000D02*
X14482000Y-8006000D01*
X14482000Y-7986000D02*
X14462000Y-8006000D01*
X14493000Y-8105000D02*
X14513000Y-8125000D01*
X14513000Y-8105000D02*
X14493000Y-8125000D01*
X14495000Y-6590000D02*
X14515000Y-6610000D01*
X14515000Y-6590000D02*
X14495000Y-6610000D01*
X14498000Y-7730000D02*
X14518000Y-7750000D01*
X14518000Y-7730000D02*
X14498000Y-7750000D01*
X14505000Y-9655000D02*
X14525000Y-9675000D01*
X14525000Y-9655000D02*
X14505000Y-9675000D01*
X14531651Y-8917325D02*
X14551651Y-8937325D01*
X14551651Y-8917325D02*
X14531651Y-8937325D01*
X14542525Y-9355415D02*
X14562525Y-9375415D01*
X14562525Y-9355415D02*
X14542525Y-9375415D01*
X14545000Y-9435000D02*
X14565000Y-9455000D01*
X14565000Y-9435000D02*
X14545000Y-9455000D01*
X14579678Y-8788322D02*
X14599678Y-8808322D01*
X14599678Y-8788322D02*
X14579678Y-8808322D01*
X14622486Y-8239850D02*
X14642486Y-8259850D01*
X14642486Y-8239850D02*
X14622486Y-8259850D01*
X14635000Y-9495000D02*
X14655000Y-9515000D01*
X14655000Y-9495000D02*
X14635000Y-9515000D01*
X14640000Y-6590000D02*
X14660000Y-6610000D01*
X14660000Y-6590000D02*
X14640000Y-6610000D01*
X14655000Y-9065000D02*
X14675000Y-9085000D01*
X14675000Y-9065000D02*
X14655000Y-9085000D01*
X14685000Y-8180000D02*
X14705000Y-8200000D01*
X14705000Y-8180000D02*
X14685000Y-8200000D01*
X14706315Y-6991594D02*
X14726315Y-7011594D01*
X14726315Y-6991594D02*
X14706315Y-7011594D01*
X14732486Y-8344850D02*
X14752486Y-8364850D01*
X14752486Y-8344850D02*
X14732486Y-8364850D01*
X14740000Y-9190000D02*
X14760000Y-9210000D01*
X14760000Y-9190000D02*
X14740000Y-9210000D01*
X14752000Y-9656000D02*
X14772000Y-9676000D01*
X14772000Y-9656000D02*
X14752000Y-9676000D01*
X14756213Y-6942500D02*
X14776213Y-6962500D01*
X14776213Y-6942500D02*
X14756213Y-6962500D01*
X14782000Y-8086000D02*
X14802000Y-8106000D01*
X14802000Y-8086000D02*
X14782000Y-8106000D01*
X14785000Y-6590000D02*
X14805000Y-6610000D01*
X14805000Y-6590000D02*
X14785000Y-6610000D01*
X14801707Y-9139922D02*
X14821707Y-9159922D01*
X14821707Y-9139922D02*
X14801707Y-9159922D01*
X14805388Y-6892172D02*
X14825388Y-6912172D01*
X14825388Y-6892172D02*
X14805388Y-6912172D01*
X14837000Y-8026000D02*
X14857000Y-8046000D01*
X14857000Y-8026000D02*
X14837000Y-8046000D01*
X14850000Y-9070000D02*
X14870000Y-9090000D01*
X14870000Y-9070000D02*
X14850000Y-9090000D01*
X14857486Y-9284850D02*
X14877486Y-9304850D01*
X14877486Y-9284850D02*
X14857486Y-9304850D01*
X14862000Y-6851000D02*
X14882000Y-6871000D01*
X14882000Y-6851000D02*
X14862000Y-6871000D01*
X14862500Y-8977500D02*
X14882500Y-8997500D01*
X14882500Y-8977500D02*
X14862500Y-8997500D01*
X14863000Y-8456000D02*
X14883000Y-8476000D01*
X14883000Y-8456000D02*
X14863000Y-8476000D01*
X14864327Y-8733327D02*
X14884327Y-8753327D01*
X14884327Y-8733327D02*
X14864327Y-8753327D01*
X14907000Y-6796000D02*
X14927000Y-6816000D01*
X14927000Y-6796000D02*
X14907000Y-6816000D01*
X14908000Y-7510000D02*
X14928000Y-7530000D01*
X14928000Y-7510000D02*
X14908000Y-7530000D01*
X14920000Y-6590000D02*
X14940000Y-6610000D01*
X14940000Y-6590000D02*
X14920000Y-6610000D01*
X14948172Y-6739388D02*
X14968172Y-6759388D01*
X14968172Y-6739388D02*
X14948172Y-6759388D01*
X14963656Y-8815027D02*
X14983656Y-8835027D01*
X14983656Y-8815027D02*
X14963656Y-8835027D01*
X14970000Y-7580000D02*
X14990000Y-7600000D01*
X14990000Y-7580000D02*
X14970000Y-7600000D01*
X14972000Y-9656000D02*
X14992000Y-9676000D01*
X14992000Y-9656000D02*
X14972000Y-9676000D01*
X14988617Y-8675338D02*
X15008617Y-8695338D01*
X15008617Y-8675338D02*
X14988617Y-8695338D01*
X14992916Y-8884084D02*
X15012916Y-8904084D01*
X15012916Y-8884084D02*
X14992916Y-8904084D01*
X14993000Y-8585000D02*
X15013000Y-8605000D01*
X15013000Y-8585000D02*
X14993000Y-8605000D01*
X15007486Y-9269850D02*
X15027486Y-9289850D01*
X15027486Y-9269850D02*
X15007486Y-9289850D01*
X15020000Y-7130000D02*
X15040000Y-7150000D01*
X15040000Y-7130000D02*
X15020000Y-7150000D01*
X15020514Y-7902201D02*
X15040514Y-7922201D01*
X15040514Y-7902201D02*
X15020514Y-7922201D01*
X15042000Y-8526000D02*
X15062000Y-8546000D01*
X15062000Y-8526000D02*
X15042000Y-8546000D01*
X15044823Y-8779850D02*
X15064823Y-8799850D01*
X15064823Y-8779850D02*
X15044823Y-8799850D01*
X15050000Y-6590000D02*
X15070000Y-6610000D01*
X15070000Y-6590000D02*
X15050000Y-6610000D01*
X15052000Y-7676000D02*
X15072000Y-7696000D01*
X15072000Y-7676000D02*
X15052000Y-7696000D01*
X15080000Y-9520381D02*
X15100000Y-9540381D01*
X15100000Y-9520381D02*
X15080000Y-9540381D01*
X15080500Y-7967500D02*
X15100500Y-7987500D01*
X15100500Y-7967500D02*
X15080500Y-7987500D01*
X15132000Y-8436000D02*
X15152000Y-8456000D01*
X15152000Y-8436000D02*
X15132000Y-8456000D01*
X15133000Y-7115000D02*
X15153000Y-7135000D01*
X15153000Y-7115000D02*
X15133000Y-7135000D01*
X15133000Y-7675000D02*
X15153000Y-7695000D01*
X15153000Y-7675000D02*
X15133000Y-7695000D01*
X15138000Y-8030000D02*
X15158000Y-8050000D01*
X15158000Y-8030000D02*
X15138000Y-8050000D01*
X15148500Y-8731000D02*
X15168500Y-8751000D01*
X15168500Y-8731000D02*
X15148500Y-8751000D01*
X15150000Y-9150000D02*
X15170000Y-9170000D01*
X15170000Y-9150000D02*
X15150000Y-9170000D01*
X15167486Y-9069850D02*
X15187486Y-9089850D01*
X15187486Y-9069850D02*
X15167486Y-9089850D01*
X15187000Y-7561000D02*
X15207000Y-7581000D01*
X15207000Y-7561000D02*
X15187000Y-7581000D01*
X15200000Y-9655000D02*
X15220000Y-9675000D01*
X15220000Y-9655000D02*
X15200000Y-9675000D01*
X15212486Y-8369850D02*
X15232486Y-8389850D01*
X15232486Y-8369850D02*
X15212486Y-8389850D01*
X15223967Y-8112967D02*
X15243967Y-8132967D01*
X15243967Y-8112967D02*
X15223967Y-8132967D01*
X15227000Y-8641000D02*
X15247000Y-8661000D01*
X15247000Y-8641000D02*
X15227000Y-8661000D01*
X15231415Y-8751429D02*
X15251415Y-8771429D01*
X15251415Y-8751429D02*
X15231415Y-8771429D01*
X15238084Y-8844916D02*
X15258084Y-8864916D01*
X15258084Y-8844916D02*
X15238084Y-8864916D01*
X15250000Y-7130000D02*
X15270000Y-7150000D01*
X15270000Y-7130000D02*
X15250000Y-7150000D01*
X15250500Y-7602500D02*
X15270500Y-7622500D01*
X15270500Y-7602500D02*
X15250500Y-7622500D01*
X15262000Y-8311000D02*
X15282000Y-8331000D01*
X15282000Y-8311000D02*
X15262000Y-8331000D01*
X15267000Y-7291000D02*
X15287000Y-7311000D01*
X15287000Y-7291000D02*
X15267000Y-7311000D01*
X15270500Y-8542500D02*
X15290500Y-8562500D01*
X15290500Y-8542500D02*
X15270500Y-8562500D01*
X15277000Y-8166000D02*
X15297000Y-8186000D01*
X15297000Y-8166000D02*
X15277000Y-8186000D01*
X15308582Y-8769418D02*
X15328582Y-8789418D01*
X15328582Y-8769418D02*
X15308582Y-8789418D01*
X15332000Y-7251000D02*
X15352000Y-7271000D01*
X15352000Y-7251000D02*
X15332000Y-7271000D01*
X15374416Y-8823584D02*
X15394416Y-8843584D01*
X15394416Y-8823584D02*
X15374416Y-8843584D01*
X15380000Y-8472500D02*
X15400000Y-8492500D01*
X15400000Y-8472500D02*
X15380000Y-8492500D01*
X15387000Y-7436000D02*
X15407000Y-7456000D01*
X15407000Y-7436000D02*
X15387000Y-7456000D01*
X15390000Y-9285000D02*
X15410000Y-9305000D01*
X15410000Y-9285000D02*
X15390000Y-9305000D01*
X15433000Y-7500000D02*
X15453000Y-7520000D01*
X15453000Y-7500000D02*
X15433000Y-7520000D01*
X15438902Y-8527434D02*
X15458902Y-8547434D01*
X15458902Y-8527434D02*
X15438902Y-8547434D01*
X15447486Y-9579850D02*
X15467486Y-9599850D01*
X15467486Y-9579850D02*
X15447486Y-9599850D01*
X15488822Y-7769178D02*
X15508822Y-7789178D01*
X15508822Y-7769178D02*
X15488822Y-7789178D01*
X15502000Y-8796000D02*
X15522000Y-8816000D01*
X15522000Y-8796000D02*
X15502000Y-8816000D01*
X15520000Y-8100000D02*
X15540000Y-8120000D01*
X15540000Y-8100000D02*
X15520000Y-8120000D01*
X15553679Y-8857934D02*
X15573679Y-8877934D01*
X15573679Y-8857934D02*
X15553679Y-8877934D01*
X15565000Y-7705000D02*
X15585000Y-7725000D01*
X15585000Y-7705000D02*
X15565000Y-7725000D01*
X15567407Y-9175593D02*
X15587407Y-9195593D01*
X15587407Y-9175593D02*
X15567407Y-9195593D01*
X15576416Y-8163584D02*
X15596416Y-8183584D01*
X15596416Y-8163584D02*
X15576416Y-8183584D01*
X15576982Y-8749347D02*
X15596982Y-8769347D01*
X15596982Y-8749347D02*
X15576982Y-8769347D01*
X15578822Y-7859178D02*
X15598822Y-7879178D01*
X15598822Y-7859178D02*
X15578822Y-7879178D01*
X15594076Y-8921125D02*
X15614076Y-8941125D01*
X15614076Y-8921125D02*
X15594076Y-8941125D01*
X15605000Y-7502000D02*
X15625000Y-7522000D01*
X15625000Y-7502000D02*
X15605000Y-7522000D01*
X15650000Y-7785000D02*
X15670000Y-7805000D01*
X15670000Y-7785000D02*
X15650000Y-7805000D01*
X15663822Y-7944178D02*
X15683822Y-7964178D01*
X15683822Y-7944178D02*
X15663822Y-7964178D01*
X15667000Y-8766000D02*
X15687000Y-8786000D01*
X15687000Y-8766000D02*
X15667000Y-8786000D01*
X15677897Y-8360261D02*
X15697897Y-8380261D01*
X15697897Y-8360261D02*
X15677897Y-8380261D01*
X15707486Y-8624850D02*
X15727486Y-8644850D01*
X15727486Y-8624850D02*
X15707486Y-8644850D01*
X15709874Y-7314015D02*
X15729874Y-7334015D01*
X15729874Y-7314015D02*
X15709874Y-7334015D01*
X15710000Y-7502000D02*
X15730000Y-7522000D01*
X15730000Y-7502000D02*
X15710000Y-7522000D01*
X15715000Y-7070000D02*
X15735000Y-7090000D01*
X15735000Y-7070000D02*
X15715000Y-7090000D01*
X15724156Y-7388757D02*
X15744156Y-7408757D01*
X15744156Y-7388757D02*
X15724156Y-7408757D01*
X15735000Y-7875000D02*
X15755000Y-7895000D01*
X15755000Y-7875000D02*
X15735000Y-7895000D01*
X15765000Y-8415000D02*
X15785000Y-8435000D01*
X15785000Y-8415000D02*
X15765000Y-8435000D01*
X15772897Y-8265261D02*
X15792897Y-8285261D01*
X15792897Y-8265261D02*
X15772897Y-8285261D01*
X15780000Y-9075000D02*
X15800000Y-9095000D01*
X15800000Y-9075000D02*
X15780000Y-9095000D01*
X15810656Y-8716000D02*
X15830656Y-8736000D01*
X15830656Y-8716000D02*
X15810656Y-8736000D01*
X15845000Y-8335000D02*
X15865000Y-8355000D01*
X15865000Y-8335000D02*
X15845000Y-8355000D01*
X15866543Y-8877928D02*
X15886543Y-8897928D01*
X15886543Y-8877928D02*
X15866543Y-8897928D01*
X15868437Y-8578898D02*
X15888437Y-8598898D01*
X15888437Y-8578898D02*
X15868437Y-8598898D01*
X15960000Y-8695000D02*
X15980000Y-8715000D01*
X15980000Y-8695000D02*
X15960000Y-8715000D01*
X15972486Y-7069500D02*
X15992486Y-7089500D01*
X15992486Y-7069500D02*
X15972486Y-7089500D01*
X16034486Y-9230000D02*
X16054486Y-9250000D01*
X16054486Y-9230000D02*
X16034486Y-9250000D01*
X16080000Y-7490000D02*
X16100000Y-7510000D01*
X16100000Y-7490000D02*
X16080000Y-7510000D01*
X16090000Y-7250000D02*
X16110000Y-7270000D01*
X16110000Y-7250000D02*
X16090000Y-7270000D01*
X16114486Y-9015255D02*
X16134486Y-9035255D01*
X16134486Y-9015255D02*
X16114486Y-9035255D01*
X16175000Y-8585000D02*
X16195000Y-8605000D01*
X16195000Y-8585000D02*
X16175000Y-8605000D01*
X16210000Y-7685000D02*
X16230000Y-7705000D01*
X16230000Y-7685000D02*
X16210000Y-7705000D01*
X16254735Y-8613873D02*
X16274735Y-8633873D01*
X16274735Y-8613873D02*
X16254735Y-8633873D01*
X16260000Y-7460000D02*
X16280000Y-7480000D01*
X16280000Y-7460000D02*
X16260000Y-7480000D01*
X16275000Y-7880000D02*
X16295000Y-7900000D01*
X16295000Y-7880000D02*
X16275000Y-7900000D01*
X16292500Y-8942500D02*
X16312500Y-8962500D01*
X16312500Y-8942500D02*
X16292500Y-8962500D01*
X16294486Y-9094850D02*
X16314486Y-9114850D01*
X16314486Y-9094850D02*
X16294486Y-9114850D01*
X16294486Y-9521000D02*
X16314486Y-9541000D01*
X16314486Y-9521000D02*
X16294486Y-9541000D01*
X16334235Y-8613873D02*
X16354235Y-8633873D01*
X16354235Y-8613873D02*
X16334235Y-8633873D01*
X16380000Y-8435000D02*
X16400000Y-8455000D01*
X16400000Y-8435000D02*
X16380000Y-8455000D01*
X16390000Y-7240000D02*
X16410000Y-7260000D01*
X16410000Y-7240000D02*
X16390000Y-7260000D01*
X16405000Y-8522500D02*
X16425000Y-8542500D01*
X16425000Y-8522500D02*
X16405000Y-8542500D01*
X16412500Y-8605000D02*
X16432500Y-8625000D01*
X16432500Y-8605000D02*
X16412500Y-8625000D01*
X16474485Y-9015255D02*
X16494485Y-9035255D01*
X16494485Y-9015255D02*
X16474485Y-9035255D01*
X16480000Y-6905000D02*
X16500000Y-6925000D01*
X16500000Y-6905000D02*
X16480000Y-6925000D01*
X16650000Y-8675000D02*
X16670000Y-8695000D01*
X16670000Y-8675000D02*
X16650000Y-8695000D01*
X16650000Y-9080000D02*
X16670000Y-9100000D01*
X16670000Y-9080000D02*
X16650000Y-9100000D01*
X16654486Y-9285255D02*
X16674486Y-9305255D01*
X16674486Y-9285255D02*
X16654486Y-9305255D01*
X16665000Y-8865000D02*
X16685000Y-8885000D01*
X16685000Y-8865000D02*
X16665000Y-8885000D01*
X16780000Y-6905000D02*
X16800000Y-6925000D01*
X16800000Y-6905000D02*
X16780000Y-6925000D01*
X16852486Y-8459850D02*
X16872486Y-8479850D01*
X16872486Y-8459850D02*
X16852486Y-8479850D01*
X16867486Y-8624850D02*
X16887486Y-8644850D01*
X16887486Y-8624850D02*
X16867486Y-8644850D01*
X16867486Y-8719850D02*
X16887486Y-8739850D01*
X16887486Y-8719850D02*
X16867486Y-8739850D01*
X16900000Y-7980000D02*
X16920000Y-8000000D01*
X16920000Y-7980000D02*
X16900000Y-8000000D01*
X16900000Y-8050000D02*
X16920000Y-8070000D01*
X16920000Y-8050000D02*
X16900000Y-8070000D01*
X16930000Y-7240000D02*
X16950000Y-7260000D01*
X16950000Y-7240000D02*
X16930000Y-7260000D01*
X16947486Y-8672700D02*
X16967486Y-8692700D01*
X16967486Y-8672700D02*
X16947486Y-8692700D01*
X16950000Y-9890000D02*
X16970000Y-9910000D01*
X16970000Y-9890000D02*
X16950000Y-9910000D01*
X17007486Y-9069850D02*
X17027486Y-9089850D01*
X17027486Y-9069850D02*
X17007486Y-9089850D01*
X17022486Y-8624850D02*
X17042486Y-8644850D01*
X17042486Y-8624850D02*
X17022486Y-8644850D01*
X17022486Y-8719850D02*
X17042486Y-8739850D01*
X17042486Y-8719850D02*
X17022486Y-8739850D01*
X17045000Y-7460000D02*
X17065000Y-7480000D01*
X17065000Y-7460000D02*
X17045000Y-7480000D01*
X17095000Y-9890000D02*
X17115000Y-9910000D01*
X17115000Y-9890000D02*
X17095000Y-9910000D01*
X17127486Y-9069850D02*
X17147486Y-9089850D01*
X17147486Y-9069850D02*
X17127486Y-9089850D01*
X17137486Y-8419850D02*
X17157486Y-8439850D01*
X17157486Y-8419850D02*
X17137486Y-8439850D01*
X17150000Y-9200000D02*
X17170000Y-9220000D01*
X17170000Y-9200000D02*
X17150000Y-9220000D01*
X17175000Y-7715000D02*
X17195000Y-7735000D01*
X17195000Y-7715000D02*
X17175000Y-7735000D01*
X17220000Y-7220000D02*
X17240000Y-7240000D01*
X17240000Y-7220000D02*
X17220000Y-7240000D01*
X17227486Y-8559850D02*
X17247486Y-8579850D01*
X17247486Y-8559850D02*
X17227486Y-8579850D01*
X17227486Y-8636000D02*
X17247486Y-8656000D01*
X17247486Y-8636000D02*
X17227486Y-8656000D01*
X17230000Y-9890000D02*
X17250000Y-9910000D01*
X17250000Y-9890000D02*
X17230000Y-9910000D01*
X17317000Y-8491000D02*
X17337000Y-8511000D01*
X17337000Y-8491000D02*
X17317000Y-8511000D01*
X17333616Y-9038784D02*
X17353616Y-9058784D01*
X17353616Y-9038784D02*
X17333616Y-9058784D01*
X17350000Y-8155000D02*
X17370000Y-8175000D01*
X17370000Y-8155000D02*
X17350000Y-8175000D01*
X17359880Y-6730000D02*
X17379880Y-6750000D01*
X17379880Y-6730000D02*
X17359880Y-6750000D01*
X17360000Y-9890000D02*
X17380000Y-9910000D01*
X17380000Y-9890000D02*
X17360000Y-9910000D01*
X17400000Y-7320000D02*
X17420000Y-7340000D01*
X17420000Y-7320000D02*
X17400000Y-7340000D01*
X17470000Y-6715000D02*
X17490000Y-6735000D01*
X17490000Y-6715000D02*
X17470000Y-6735000D01*
X17505000Y-9890000D02*
X17525000Y-9910000D01*
X17525000Y-9890000D02*
X17505000Y-9910000D01*
X17550000Y-8890000D02*
X17570000Y-8910000D01*
X17570000Y-8890000D02*
X17550000Y-8910000D01*
X17650000Y-9890000D02*
X17670000Y-9910000D01*
X17670000Y-9890000D02*
X17650000Y-9910000D01*
X17671412Y-7316000D02*
X17691412Y-7336000D01*
X17691412Y-7316000D02*
X17671412Y-7336000D01*
X17725810Y-7700000D02*
X17745810Y-7720000D01*
X17745810Y-7700000D02*
X17725810Y-7720000D01*
X17740000Y-6690000D02*
X17760000Y-6710000D01*
X17760000Y-6690000D02*
X17740000Y-6710000D01*
X17759972Y-9057692D02*
X17779972Y-9077692D01*
X17779972Y-9057692D02*
X17759972Y-9077692D01*
X17767000Y-7316000D02*
X17787000Y-7336000D01*
X17787000Y-7316000D02*
X17767000Y-7336000D01*
X17775000Y-8840000D02*
X17795000Y-8860000D01*
X17795000Y-8840000D02*
X17775000Y-8860000D01*
X17782000Y-8986000D02*
X17802000Y-9006000D01*
X17802000Y-8986000D02*
X17782000Y-9006000D01*
X17785000Y-9890000D02*
X17805000Y-9910000D01*
X17805000Y-9890000D02*
X17785000Y-9910000D01*
X17792000Y-7926000D02*
X17812000Y-7946000D01*
X17812000Y-7926000D02*
X17792000Y-7946000D01*
X17792000Y-8001000D02*
X17812000Y-8021000D01*
X17812000Y-8001000D02*
X17792000Y-8021000D01*
X17797000Y-8284140D02*
X17817000Y-8304140D01*
X17817000Y-8284140D02*
X17797000Y-8304140D01*
X17800000Y-7665000D02*
X17820000Y-7685000D01*
X17820000Y-7665000D02*
X17800000Y-7685000D01*
X17800000Y-8360000D02*
X17820000Y-8380000D01*
X17820000Y-8360000D02*
X17800000Y-8380000D01*
X17851360Y-6706640D02*
X17871360Y-6726640D01*
X17871360Y-6706640D02*
X17851360Y-6726640D01*
X17915000Y-9890000D02*
X17935000Y-9910000D01*
X17935000Y-9890000D02*
X17915000Y-9910000D01*
X17916686Y-8949050D02*
X17936686Y-8969050D01*
X17936686Y-8949050D02*
X17916686Y-8969050D01*
X18057000Y-7316000D02*
X18077000Y-7336000D01*
X18077000Y-7316000D02*
X18057000Y-7336000D01*
X18060000Y-9890000D02*
X18080000Y-9910000D01*
X18080000Y-9890000D02*
X18060000Y-9910000D01*
X18126720Y-6681280D02*
X18146720Y-6701280D01*
X18146720Y-6681280D02*
X18126720Y-6701280D01*
X18140000Y-8790000D02*
X18160000Y-8810000D01*
X18160000Y-8790000D02*
X18140000Y-8810000D01*
X18167000Y-7316000D02*
X18187000Y-7336000D01*
X18187000Y-7316000D02*
X18167000Y-7336000D01*
X18205000Y-9890000D02*
X18225000Y-9910000D01*
X18225000Y-9890000D02*
X18205000Y-9910000D01*
X18223336Y-9038784D02*
X18243336Y-9058784D01*
X18243336Y-9038784D02*
X18223336Y-9058784D01*
X18237000Y-6645000D02*
X18257000Y-6665000D01*
X18257000Y-6645000D02*
X18237000Y-6665000D01*
X18340000Y-9890000D02*
X18360000Y-9910000D01*
X18360000Y-9890000D02*
X18340000Y-9910000D01*
X18420000Y-6590000D02*
X18440000Y-6610000D01*
X18440000Y-6590000D02*
X18420000Y-6610000D01*
X18420000Y-6785000D02*
X18440000Y-6805000D01*
X18440000Y-6785000D02*
X18420000Y-6805000D01*
X18470000Y-9890000D02*
X18490000Y-9910000D01*
X18490000Y-9890000D02*
X18470000Y-9910000D01*
X18565000Y-6590000D02*
X18585000Y-6610000D01*
X18585000Y-6590000D02*
X18565000Y-6610000D01*
X18565000Y-6785000D02*
X18585000Y-6805000D01*
X18585000Y-6785000D02*
X18565000Y-6805000D01*
X18615000Y-9890000D02*
X18635000Y-9910000D01*
X18635000Y-9890000D02*
X18615000Y-9910000D01*
X18700000Y-6590000D02*
X18720000Y-6610000D01*
X18720000Y-6590000D02*
X18700000Y-6610000D01*
X18700000Y-6785000D02*
X18720000Y-6805000D01*
X18720000Y-6785000D02*
X18700000Y-6805000D01*
X18760000Y-9890000D02*
X18780000Y-9910000D01*
X18780000Y-9890000D02*
X18760000Y-9910000D01*
X18830000Y-6590000D02*
X18850000Y-6610000D01*
X18850000Y-6590000D02*
X18830000Y-6610000D01*
X18830000Y-6785000D02*
X18850000Y-6805000D01*
X18850000Y-6785000D02*
X18830000Y-6805000D01*
X18835000Y-9090000D02*
X18855000Y-9110000D01*
X18855000Y-9090000D02*
X18835000Y-9110000D01*
X18895000Y-9890000D02*
X18915000Y-9910000D01*
X18915000Y-9890000D02*
X18895000Y-9910000D01*
X18975000Y-6590000D02*
X18995000Y-6610000D01*
X18995000Y-6590000D02*
X18975000Y-6610000D01*
X18975000Y-6785000D02*
X18995000Y-6805000D01*
X18995000Y-6785000D02*
X18975000Y-6805000D01*
X18980000Y-9090000D02*
X19000000Y-9110000D01*
X19000000Y-9090000D02*
X18980000Y-9110000D01*
X19025000Y-9290000D02*
X19045000Y-9310000D01*
X19045000Y-9290000D02*
X19025000Y-9310000D01*
X19025000Y-9890000D02*
X19045000Y-9910000D01*
X19045000Y-9890000D02*
X19025000Y-9910000D01*
X19115000Y-9090000D02*
X19135000Y-9110000D01*
X19135000Y-9090000D02*
X19115000Y-9110000D01*
X19120000Y-6590000D02*
X19140000Y-6610000D01*
X19140000Y-6590000D02*
X19120000Y-6610000D01*
X19125000Y-6785000D02*
X19145000Y-6805000D01*
X19145000Y-6785000D02*
X19125000Y-6805000D01*
X19140000Y-6985000D02*
X19160000Y-7005000D01*
X19160000Y-6985000D02*
X19140000Y-7005000D01*
X19140000Y-7185000D02*
X19160000Y-7205000D01*
X19160000Y-7185000D02*
X19140000Y-7205000D01*
X19170000Y-9490000D02*
X19190000Y-9510000D01*
X19190000Y-9490000D02*
X19170000Y-9510000D01*
X19170000Y-9690000D02*
X19190000Y-9710000D01*
X19190000Y-9690000D02*
X19170000Y-9710000D01*
X19170000Y-9290000D02*
X19190000Y-9310000D01*
X19190000Y-9290000D02*
X19170000Y-9310000D01*
X19170000Y-9890000D02*
X19190000Y-9910000D01*
X19190000Y-9890000D02*
X19170000Y-9910000D01*
X19245000Y-9090000D02*
X19265000Y-9110000D01*
X19265000Y-9090000D02*
X19245000Y-9110000D01*
X19255000Y-6590000D02*
X19275000Y-6610000D01*
X19275000Y-6590000D02*
X19255000Y-6610000D01*
X19270000Y-6785000D02*
X19290000Y-6805000D01*
X19290000Y-6785000D02*
X19270000Y-6805000D01*
X19285000Y-6985000D02*
X19305000Y-7005000D01*
X19305000Y-6985000D02*
X19285000Y-7005000D01*
X19285000Y-7185000D02*
X19305000Y-7205000D01*
X19305000Y-7185000D02*
X19285000Y-7205000D01*
X19305000Y-9290000D02*
X19325000Y-9310000D01*
X19325000Y-9290000D02*
X19305000Y-9310000D01*
X19315000Y-9490000D02*
X19335000Y-9510000D01*
X19335000Y-9490000D02*
X19315000Y-9510000D01*
X19315000Y-9690000D02*
X19335000Y-9710000D01*
X19335000Y-9690000D02*
X19315000Y-9710000D01*
X19315000Y-9890000D02*
X19335000Y-9910000D01*
X19335000Y-9890000D02*
X19315000Y-9910000D01*
X19385000Y-6590000D02*
X19405000Y-6610000D01*
X19405000Y-6590000D02*
X19385000Y-6610000D01*
X19390000Y-9090000D02*
X19410000Y-9110000D01*
X19410000Y-9090000D02*
X19390000Y-9110000D01*
X19405000Y-6785000D02*
X19425000Y-6805000D01*
X19425000Y-6785000D02*
X19405000Y-6805000D01*
X19420000Y-6985000D02*
X19440000Y-7005000D01*
X19440000Y-6985000D02*
X19420000Y-7005000D01*
X19420000Y-7185000D02*
X19440000Y-7205000D01*
X19440000Y-7185000D02*
X19420000Y-7205000D01*
X19435000Y-9290000D02*
X19455000Y-9310000D01*
X19455000Y-9290000D02*
X19435000Y-9310000D01*
X19450000Y-9490000D02*
X19470000Y-9510000D01*
X19470000Y-9490000D02*
X19450000Y-9510000D01*
X19450000Y-9690000D02*
X19470000Y-9710000D01*
X19470000Y-9690000D02*
X19450000Y-9710000D01*
X19450000Y-9890000D02*
X19470000Y-9910000D01*
X19470000Y-9890000D02*
X19450000Y-9910000D01*
X19530000Y-6590000D02*
X19550000Y-6610000D01*
X19550000Y-6590000D02*
X19530000Y-6610000D01*
X19535000Y-6785000D02*
X19555000Y-6805000D01*
X19555000Y-6785000D02*
X19535000Y-6805000D01*
X19550000Y-6985000D02*
X19570000Y-7005000D01*
X19570000Y-6985000D02*
X19550000Y-7005000D01*
X19550000Y-7185000D02*
X19570000Y-7205000D01*
X19570000Y-7185000D02*
X19550000Y-7205000D01*
X19580000Y-9290000D02*
X19600000Y-9310000D01*
X19600000Y-9290000D02*
X19580000Y-9310000D01*
X19580000Y-9490000D02*
X19600000Y-9510000D01*
X19600000Y-9490000D02*
X19580000Y-9510000D01*
X19580000Y-9690000D02*
X19600000Y-9710000D01*
X19600000Y-9690000D02*
X19580000Y-9710000D01*
X19580000Y-9890000D02*
X19600000Y-9910000D01*
X19600000Y-9890000D02*
X19580000Y-9910000D01*
X19675000Y-6590000D02*
X19695000Y-6610000D01*
X19695000Y-6590000D02*
X19675000Y-6610000D01*
X19680000Y-6785000D02*
X19700000Y-6805000D01*
X19700000Y-6785000D02*
X19680000Y-6805000D01*
X19695000Y-6985000D02*
X19715000Y-7005000D01*
X19715000Y-6985000D02*
X19695000Y-7005000D01*
X19695000Y-7185000D02*
X19715000Y-7205000D01*
X19715000Y-7185000D02*
X19695000Y-7205000D01*
X19725000Y-9690000D02*
X19745000Y-9710000D01*
X19745000Y-9690000D02*
X19725000Y-9710000D01*
X19725000Y-9890000D02*
X19745000Y-9910000D01*
X19745000Y-9890000D02*
X19725000Y-9910000D01*
X19810000Y-6785000D02*
X19830000Y-6805000D01*
X19830000Y-6785000D02*
X19810000Y-6805000D01*
X19810000Y-6590000D02*
X19830000Y-6610000D01*
X19830000Y-6590000D02*
X19810000Y-6610000D01*
X19825000Y-6985000D02*
X19845000Y-7005000D01*
X19845000Y-6985000D02*
X19825000Y-7005000D01*
X19825000Y-7185000D02*
X19845000Y-7205000D01*
X19845000Y-7185000D02*
X19825000Y-7205000D01*
X19865000Y-7360000D02*
X19885000Y-7380000D01*
X19885000Y-7360000D02*
X19865000Y-7380000D01*
X19865000Y-7495000D02*
X19885000Y-7515000D01*
X19885000Y-7495000D02*
X19865000Y-7515000D01*
X19865000Y-7640000D02*
X19885000Y-7660000D01*
X19885000Y-7640000D02*
X19865000Y-7660000D01*
X19865000Y-7770000D02*
X19885000Y-7790000D01*
X19885000Y-7770000D02*
X19865000Y-7790000D01*
X19865000Y-7915000D02*
X19885000Y-7935000D01*
X19885000Y-7915000D02*
X19865000Y-7935000D01*
X19865000Y-8045000D02*
X19885000Y-8065000D01*
X19885000Y-8045000D02*
X19865000Y-8065000D01*
X19865000Y-8180000D02*
X19885000Y-8200000D01*
X19885000Y-8180000D02*
X19865000Y-8200000D01*
X19865000Y-8325000D02*
X19885000Y-8345000D01*
X19885000Y-8325000D02*
X19865000Y-8345000D01*
X19865000Y-8460000D02*
X19885000Y-8480000D01*
X19885000Y-8460000D02*
X19865000Y-8480000D01*
X19865000Y-8605000D02*
X19885000Y-8625000D01*
X19885000Y-8605000D02*
X19865000Y-8625000D01*
X19865000Y-8735000D02*
X19885000Y-8755000D01*
X19885000Y-8735000D02*
X19865000Y-8755000D01*
X19865000Y-8880000D02*
X19885000Y-8900000D01*
X19885000Y-8880000D02*
X19865000Y-8900000D01*
X19865000Y-9010000D02*
X19885000Y-9030000D01*
X19885000Y-9010000D02*
X19865000Y-9030000D01*
X19865000Y-9145000D02*
X19885000Y-9165000D01*
X19885000Y-9145000D02*
X19865000Y-9165000D01*
X19865000Y-9290000D02*
X19885000Y-9310000D01*
X19885000Y-9290000D02*
X19865000Y-9310000D01*
X19865000Y-9490000D02*
X19885000Y-9510000D01*
X19885000Y-9490000D02*
X19865000Y-9510000D01*
X19870000Y-9690000D02*
X19890000Y-9710000D01*
X19890000Y-9690000D02*
X19870000Y-9710000D01*
X19870000Y-9890000D02*
X19890000Y-9910000D01*
X19890000Y-9890000D02*
X19870000Y-9910000D01*
X19940000Y-6590000D02*
X19960000Y-6610000D01*
X19960000Y-6590000D02*
X19940000Y-6610000D01*
X19955000Y-6785000D02*
X19975000Y-6805000D01*
X19975000Y-6785000D02*
X19955000Y-6805000D01*
X19970000Y-6985000D02*
X19990000Y-7005000D01*
X19990000Y-6985000D02*
X19970000Y-7005000D01*
X19970000Y-7185000D02*
X19990000Y-7205000D01*
X19990000Y-7185000D02*
X19970000Y-7205000D01*
X20085000Y-6590000D02*
X20105000Y-6610000D01*
X20105000Y-6590000D02*
X20085000Y-6610000D01*
X20090000Y-6785000D02*
X20110000Y-6805000D01*
X20110000Y-6785000D02*
X20090000Y-6805000D01*
X20105000Y-6985000D02*
X20125000Y-7005000D01*
X20125000Y-6985000D02*
X20105000Y-7005000D01*
X20105000Y-7185000D02*
X20125000Y-7205000D01*
X20125000Y-7185000D02*
X20105000Y-7205000D01*
X11434986Y-8320850D02*
G75*
G02*
X11409986Y-8320850I-12500J0D01*
G01*
X11409986Y-8320850D02*
G75*
G02*
X11434986Y-8320850I12500J0D01*
G01*
X11437500Y-9045000D02*
G75*
G02*
X11412500Y-9045000I-12500J0D01*
G01*
X11412500Y-9045000D02*
G75*
G02*
X11437500Y-9045000I12500J0D01*
G01*
X11530500Y-8755000D02*
G75*
G02*
X11505500Y-8755000I-12500J0D01*
G01*
X11505500Y-8755000D02*
G75*
G02*
X11530500Y-8755000I12500J0D01*
G01*
X14843521Y-8239385D02*
G75*
G02*
X14818521Y-8239385I-12500J0D01*
G01*
X14818521Y-8239385D02*
G75*
G02*
X14843521Y-8239385I12500J0D01*
G01*
X14926771Y-8156135D02*
G75*
G02*
X14901771Y-8156135I-12500J0D01*
G01*
X14901771Y-8156135D02*
G75*
G02*
X14926771Y-8156135I12500J0D01*
G01*
X14928274Y-8320972D02*
G75*
G02*
X14903274Y-8320972I-12500J0D01*
G01*
X14903274Y-8320972D02*
G75*
G02*
X14928274Y-8320972I12500J0D01*
G01*
X15009524Y-8239722D02*
G75*
G02*
X14984524Y-8239722I-12500J0D01*
G01*
X14984524Y-8239722D02*
G75*
G02*
X15009524Y-8239722I12500J0D01*
G01*
X15009986Y-8409850D02*
G75*
G02*
X14984986Y-8409850I-12500J0D01*
G01*
X14984986Y-8409850D02*
G75*
G02*
X15009986Y-8409850I12500J0D01*
G01*
X15010021Y-8072885D02*
G75*
G02*
X14985021Y-8072885I-12500J0D01*
G01*
X14985021Y-8072885D02*
G75*
G02*
X15010021Y-8072885I12500J0D01*
G01*
X15090774Y-8158472D02*
G75*
G02*
X15065774Y-8158472I-12500J0D01*
G01*
X15065774Y-8158472D02*
G75*
G02*
X15090774Y-8158472I12500J0D01*
G01*
X15094986Y-8324850D02*
G75*
G02*
X15069986Y-8324850I-12500J0D01*
G01*
X15069986Y-8324850D02*
G75*
G02*
X15094986Y-8324850I12500J0D01*
G01*
X15179986Y-8239850D02*
G75*
G02*
X15154986Y-8239850I-12500J0D01*
G01*
X15154986Y-8239850D02*
G75*
G02*
X15179986Y-8239850I12500J0D01*
G01*
X15517500Y-6810000D02*
G75*
G02*
X15492500Y-6810000I-12500J0D01*
G01*
X15492500Y-6810000D02*
G75*
G02*
X15517500Y-6810000I12500J0D01*
G01*
X15762500Y-7760000D02*
G75*
G02*
X15737500Y-7760000I-12500J0D01*
G01*
X15737500Y-7760000D02*
G75*
G02*
X15762500Y-7760000I12500J0D01*
G01*
X16029986Y-8979850D02*
G75*
G02*
X16004986Y-8979850I-12500J0D01*
G01*
X16004986Y-8979850D02*
G75*
G02*
X16029986Y-8979850I12500J0D01*
G01*
X16549986Y-8449850D02*
G75*
G02*
X16524986Y-8449850I-12500J0D01*
G01*
X16524986Y-8449850D02*
G75*
G02*
X16549986Y-8449850I12500J0D01*
G01*
X16549986Y-8924850D02*
G75*
G02*
X16524986Y-8924850I-12500J0D01*
G01*
X16524986Y-8924850D02*
G75*
G02*
X16549986Y-8924850I12500J0D01*
G01*
X16869986Y-8965550D02*
G75*
G02*
X16844986Y-8965550I-12500J0D01*
G01*
X16844986Y-8965550D02*
G75*
G02*
X16869986Y-8965550I12500J0D01*
G01*
X17051200Y-9488097D02*
G75*
G02*
X17026200Y-9488097I-12500J0D01*
G01*
X17026200Y-9488097D02*
G75*
G02*
X17051200Y-9488097I12500J0D01*
G01*
X18094986Y-9569850D02*
G75*
G02*
X18069986Y-9569850I-12500J0D01*
G01*
X18069986Y-9569850D02*
G75*
G02*
X18094986Y-9569850I12500J0D01*
G01*
X10795000Y-8100000D02*
X10795000Y-8130000D01*
X10780000Y-8115000D02*
X10810000Y-8115000D01*
X11248000Y-7945000D02*
X11248000Y-7975000D01*
X11233000Y-7960000D02*
X11263000Y-7960000D01*
X11602486Y-8299850D02*
X11602486Y-8329850D01*
X11587486Y-8314850D02*
X11617486Y-8314850D01*
X11622486Y-8134850D02*
X11622486Y-8164850D01*
X11607486Y-8149850D02*
X11637486Y-8149850D01*
X11642486Y-8439850D02*
X11642486Y-8469850D01*
X11627486Y-8454850D02*
X11657486Y-8454850D01*
X11667486Y-7675000D02*
X11667486Y-7705000D01*
X11652486Y-7690000D02*
X11682486Y-7690000D01*
X11687486Y-8009850D02*
X11687486Y-8039850D01*
X11672486Y-8024850D02*
X11702486Y-8024850D01*
X11722486Y-8554850D02*
X11722486Y-8584850D01*
X11707486Y-8569850D02*
X11737486Y-8569850D01*
X11742486Y-8229850D02*
X11742486Y-8259850D01*
X11727486Y-8244850D02*
X11757486Y-8244850D01*
X11797486Y-7919850D02*
X11797486Y-7949850D01*
X11782486Y-7934850D02*
X11812486Y-7934850D01*
X11802486Y-8429850D02*
X11802486Y-8459850D01*
X11787486Y-8444850D02*
X11817486Y-8444850D01*
X11822486Y-8619850D02*
X11822486Y-8649850D01*
X11807486Y-8634850D02*
X11837486Y-8634850D01*
X11827486Y-8069850D02*
X11827486Y-8099850D01*
X11812486Y-8084850D02*
X11842486Y-8084850D01*
X11898000Y-7325000D02*
X11898000Y-7355000D01*
X11883000Y-7340000D02*
X11913000Y-7340000D01*
X11898000Y-8865000D02*
X11898000Y-8895000D01*
X11883000Y-8880000D02*
X11913000Y-8880000D01*
X11990500Y-7325000D02*
X11990500Y-7355000D01*
X11975500Y-7340000D02*
X12005500Y-7340000D01*
X11990500Y-8865000D02*
X11990500Y-8895000D01*
X11975500Y-8880000D02*
X12005500Y-8880000D01*
X12083000Y-7325000D02*
X12083000Y-7355000D01*
X12068000Y-7340000D02*
X12098000Y-7340000D01*
X12083000Y-8865000D02*
X12083000Y-8895000D01*
X12068000Y-8880000D02*
X12098000Y-8880000D01*
X12152486Y-8069850D02*
X12152486Y-8099850D01*
X12137486Y-8084850D02*
X12167486Y-8084850D01*
X12152486Y-8619850D02*
X12152486Y-8649850D01*
X12137486Y-8634850D02*
X12167486Y-8634850D01*
X12172486Y-8429850D02*
X12172486Y-8459850D01*
X12157486Y-8444850D02*
X12187486Y-8444850D01*
X12197486Y-7919850D02*
X12197486Y-7949850D01*
X12182486Y-7934850D02*
X12212486Y-7934850D01*
X12237486Y-8229850D02*
X12237486Y-8259850D01*
X12222486Y-8244850D02*
X12252486Y-8244850D01*
X12267486Y-8554850D02*
X12267486Y-8584850D01*
X12252486Y-8569850D02*
X12282486Y-8569850D01*
X12312486Y-8009850D02*
X12312486Y-8039850D01*
X12297486Y-8024850D02*
X12327486Y-8024850D01*
X12352486Y-8439850D02*
X12352486Y-8469850D01*
X12337486Y-8454850D02*
X12367486Y-8454850D01*
X12377486Y-8134850D02*
X12377486Y-8164850D01*
X12362486Y-8149850D02*
X12392486Y-8149850D01*
X12392486Y-8299850D02*
X12392486Y-8329850D01*
X12377486Y-8314850D02*
X12407486Y-8314850D01*
X12405000Y-7675000D02*
X12405000Y-7705000D01*
X12390000Y-7690000D02*
X12420000Y-7690000D01*
X12675000Y-8958850D02*
X12675000Y-8988850D01*
X12660000Y-8973850D02*
X12690000Y-8973850D01*
X14992486Y-7445500D02*
X14992486Y-7475500D01*
X14977486Y-7460500D02*
X15007486Y-7460500D01*
X17437486Y-8950550D02*
X17437486Y-8980550D01*
X17422486Y-8965550D02*
X17452486Y-8965550D01*
X17640850Y-9114850D02*
X17640850Y-9144850D01*
X17625850Y-9129850D02*
X17655850Y-9129850D01*
X15945467Y-9445331D02*
X15945467Y-9399369D01*
X15899504Y-9399369D01*
X15899504Y-9445331D01*
X15945467Y-9445331D01*
X15889986Y-9372350D02*
X15889986Y-9472350D01*
X15954986Y-9472350D02*
G75*
G02*
X15889986Y-9472350I-32500J0D01*
G01*
X15954986Y-9472350D02*
X15954986Y-9372350D01*
X15954986Y-9372350D02*
G75*
G03*
X15889986Y-9372350I-32500J0D01*
G01*
X15945467Y-9827831D02*
X15945467Y-9781869D01*
X15899504Y-9781869D01*
X15899504Y-9827831D01*
X15945467Y-9827831D01*
X15889986Y-9739850D02*
X15889986Y-9869850D01*
X15954986Y-9869850D02*
G75*
G02*
X15889986Y-9869850I-32500J0D01*
G01*
X15954986Y-9869850D02*
X15954986Y-9739850D01*
X15954986Y-9739850D02*
G75*
G03*
X15889986Y-9739850I-32500J0D01*
G01*
X16809467Y-9445331D02*
X16809467Y-9399369D01*
X16763504Y-9399369D01*
X16763504Y-9445331D01*
X16809467Y-9445331D01*
X16753986Y-9372350D02*
X16753986Y-9472350D01*
X16818986Y-9472350D02*
G75*
G02*
X16753986Y-9472350I-32500J0D01*
G01*
X16818986Y-9472350D02*
X16818986Y-9372350D01*
X16818986Y-9372350D02*
G75*
G03*
X16753986Y-9372350I-32500J0D01*
G01*
X16809467Y-9827831D02*
X16809467Y-9781869D01*
X16763504Y-9781869D01*
X16763504Y-9827831D01*
X16809467Y-9827831D01*
X16753986Y-9739850D02*
X16753986Y-9869850D01*
X16818986Y-9869850D02*
G75*
G02*
X16753986Y-9869850I-32500J0D01*
G01*
X16818986Y-9869850D02*
X16818986Y-9739850D01*
X16818986Y-9739850D02*
G75*
G03*
X16753986Y-9739850I-32500J0D01*
G01*
X18598000Y-7884000D02*
X18648000Y-7834000D01*
X18598000Y-7784000D01*
X18548000Y-7834000D01*
X18598000Y-7884000D01*
X18598000Y-8113000D02*
X18648000Y-8063000D01*
X18598000Y-8013000D01*
X18548000Y-8063000D01*
X18598000Y-8113000D01*
X18598000Y-8342000D02*
X18648000Y-8292000D01*
X18598000Y-8242000D01*
X18548000Y-8292000D01*
X18598000Y-8342000D01*
X18598000Y-8571000D02*
X18648000Y-8521000D01*
X18598000Y-8471000D01*
X18548000Y-8521000D01*
X18598000Y-8571000D01*
X18598000Y-8800000D02*
X18648000Y-8750000D01*
X18598000Y-8700000D01*
X18548000Y-8750000D01*
X18598000Y-8800000D01*
X18852000Y-7769500D02*
X18902000Y-7719500D01*
X18852000Y-7669500D01*
X18802000Y-7719500D01*
X18852000Y-7769500D01*
X18852000Y-7998500D02*
X18902000Y-7948500D01*
X18852000Y-7898500D01*
X18802000Y-7948500D01*
X18852000Y-7998500D01*
X18852000Y-8227500D02*
X18902000Y-8177500D01*
X18852000Y-8127500D01*
X18802000Y-8177500D01*
X18852000Y-8227500D01*
X18852000Y-8456500D02*
X18902000Y-8406500D01*
X18852000Y-8356500D01*
X18802000Y-8406500D01*
X18852000Y-8456500D01*
X18852000Y-8685500D02*
X18902000Y-8635500D01*
X18852000Y-8585500D01*
X18802000Y-8635500D01*
X18852000Y-8685500D01*
X19106000Y-7884000D02*
X19156000Y-7834000D01*
X19106000Y-7784000D01*
X19056000Y-7834000D01*
X19106000Y-7884000D01*
X19106000Y-8113000D02*
X19156000Y-8063000D01*
X19106000Y-8013000D01*
X19056000Y-8063000D01*
X19106000Y-8113000D01*
X19106000Y-8342000D02*
X19156000Y-8292000D01*
X19106000Y-8242000D01*
X19056000Y-8292000D01*
X19106000Y-8342000D01*
X19106000Y-8571000D02*
X19156000Y-8521000D01*
X19106000Y-8471000D01*
X19056000Y-8521000D01*
X19106000Y-8571000D01*
X19106000Y-8800000D02*
X19156000Y-8750000D01*
X19106000Y-8700000D01*
X19056000Y-8750000D01*
X19106000Y-8800000D01*
D13*
X12904120Y-9772820D02*
X13015880Y-9884580D01*
X13015880Y-9772820D02*
X12904120Y-9884580D01*
X13015880Y-9828700D02*
G75*
G02*
X12904120Y-9828700I-55880J0D01*
G01*
X12904120Y-9828700D02*
G75*
G02*
X13015880Y-9828700I55880J0D01*
G01*
X13158120Y-9772820D02*
X13269880Y-9884580D01*
X13269880Y-9772820D02*
X13158120Y-9884580D01*
X13269880Y-9828700D02*
G75*
G02*
X13158120Y-9828700I-55880J0D01*
G01*
X13158120Y-9828700D02*
G75*
G02*
X13269880Y-9828700I55880J0D01*
G01*
X13412120Y-9772820D02*
X13523880Y-9884580D01*
X13523880Y-9772820D02*
X13412120Y-9884580D01*
X13523880Y-9828700D02*
G75*
G02*
X13412120Y-9828700I-55880J0D01*
G01*
X13412120Y-9828700D02*
G75*
G02*
X13523880Y-9828700I55880J0D01*
G01*
X13666120Y-9772820D02*
X13777880Y-9884580D01*
X13777880Y-9772820D02*
X13666120Y-9884580D01*
X13777880Y-9828700D02*
G75*
G02*
X13666120Y-9828700I-55880J0D01*
G01*
X13666120Y-9828700D02*
G75*
G02*
X13777880Y-9828700I55880J0D01*
G01*
X13920120Y-9772820D02*
X14031880Y-9884580D01*
X14031880Y-9772820D02*
X13920120Y-9884580D01*
X14031880Y-9828700D02*
G75*
G02*
X13920120Y-9828700I-55880J0D01*
G01*
X13920120Y-9828700D02*
G75*
G02*
X14031880Y-9828700I55880J0D01*
G01*
X14174120Y-9772820D02*
X14285880Y-9884580D01*
X14285880Y-9772820D02*
X14174120Y-9884580D01*
X14285880Y-9828700D02*
G75*
G02*
X14174120Y-9828700I-55880J0D01*
G01*
X14174120Y-9828700D02*
G75*
G02*
X14285880Y-9828700I55880J0D01*
G01*
D14*
X10400000Y-8800000D02*
X10540000Y-8940000D01*
X10540000Y-8800000D02*
X10400000Y-8940000D01*
X10470000Y-8800000D02*
X10470000Y-8940000D01*
X10400000Y-8870000D02*
X10540000Y-8870000D01*
D15*
X10132500Y-8532500D02*
X10292500Y-8692500D01*
X10292500Y-8532500D02*
X10132500Y-8692500D01*
X10269069Y-8669069D02*
X10269069Y-8555931D01*
X10155931Y-8555931D01*
X10155931Y-8669069D01*
X10269069Y-8669069D01*
X10132500Y-9047500D02*
X10292500Y-9207500D01*
X10292500Y-9047500D02*
X10132500Y-9207500D01*
X10269069Y-9184069D02*
X10269069Y-9070931D01*
X10155931Y-9070931D01*
X10155931Y-9184069D01*
X10269069Y-9184069D01*
X10647500Y-8532500D02*
X10807500Y-8692500D01*
X10807500Y-8532500D02*
X10647500Y-8692500D01*
X10784069Y-8669069D02*
X10784069Y-8555931D01*
X10670931Y-8555931D01*
X10670931Y-8669069D01*
X10784069Y-8669069D01*
X10647500Y-9047500D02*
X10807500Y-9207500D01*
X10807500Y-9047500D02*
X10647500Y-9207500D01*
X10784069Y-9184069D02*
X10784069Y-9070931D01*
X10670931Y-9070931D01*
X10670931Y-9184069D01*
X10784069Y-9184069D01*
D11*
X10258277Y-10313984D02*
X10258277Y-10113984D01*
X10258277Y-10113984D02*
X10305896Y-10113984D01*
X10305896Y-10113984D02*
X10334467Y-10123508D01*
X10334467Y-10123508D02*
X10353515Y-10142555D01*
X10353515Y-10142555D02*
X10363039Y-10161603D01*
X10363039Y-10161603D02*
X10372563Y-10199698D01*
X10372563Y-10199698D02*
X10372563Y-10228270D01*
X10372563Y-10228270D02*
X10363039Y-10266365D01*
X10363039Y-10266365D02*
X10353515Y-10285412D01*
X10353515Y-10285412D02*
X10334467Y-10304460D01*
X10334467Y-10304460D02*
X10305896Y-10313984D01*
X10305896Y-10313984D02*
X10258277Y-10313984D01*
X10458277Y-10313984D02*
X10458277Y-10180650D01*
X10458277Y-10218746D02*
X10467801Y-10199698D01*
X10467801Y-10199698D02*
X10477324Y-10190174D01*
X10477324Y-10190174D02*
X10496372Y-10180650D01*
X10496372Y-10180650D02*
X10515420Y-10180650D01*
X10582086Y-10313984D02*
X10582086Y-10180650D01*
X10582086Y-10113984D02*
X10572563Y-10123508D01*
X10572563Y-10123508D02*
X10582086Y-10133031D01*
X10582086Y-10133031D02*
X10591610Y-10123508D01*
X10591610Y-10123508D02*
X10582086Y-10113984D01*
X10582086Y-10113984D02*
X10582086Y-10133031D01*
X10705896Y-10313984D02*
X10686848Y-10304460D01*
X10686848Y-10304460D02*
X10677324Y-10285412D01*
X10677324Y-10285412D02*
X10677324Y-10113984D01*
X10810658Y-10313984D02*
X10791610Y-10304460D01*
X10791610Y-10304460D02*
X10782086Y-10285412D01*
X10782086Y-10285412D02*
X10782086Y-10113984D01*
X11039229Y-10313984D02*
X11039229Y-10113984D01*
X11039229Y-10113984D02*
X11105896Y-10256841D01*
X11105896Y-10256841D02*
X11172563Y-10113984D01*
X11172563Y-10113984D02*
X11172563Y-10313984D01*
X11353515Y-10313984D02*
X11353515Y-10209222D01*
X11353515Y-10209222D02*
X11343991Y-10190174D01*
X11343991Y-10190174D02*
X11324943Y-10180650D01*
X11324943Y-10180650D02*
X11286848Y-10180650D01*
X11286848Y-10180650D02*
X11267801Y-10190174D01*
X11353515Y-10304460D02*
X11334467Y-10313984D01*
X11334467Y-10313984D02*
X11286848Y-10313984D01*
X11286848Y-10313984D02*
X11267801Y-10304460D01*
X11267801Y-10304460D02*
X11258277Y-10285412D01*
X11258277Y-10285412D02*
X11258277Y-10266365D01*
X11258277Y-10266365D02*
X11267801Y-10247317D01*
X11267801Y-10247317D02*
X11286848Y-10237793D01*
X11286848Y-10237793D02*
X11334467Y-10237793D01*
X11334467Y-10237793D02*
X11353515Y-10228270D01*
X11448753Y-10180650D02*
X11448753Y-10380650D01*
X11448753Y-10190174D02*
X11467801Y-10180650D01*
X11467801Y-10180650D02*
X11505896Y-10180650D01*
X11505896Y-10180650D02*
X11524943Y-10190174D01*
X11524943Y-10190174D02*
X11534467Y-10199698D01*
X11534467Y-10199698D02*
X11543991Y-10218746D01*
X11543991Y-10218746D02*
X11543991Y-10275889D01*
X11543991Y-10275889D02*
X11534467Y-10294936D01*
X11534467Y-10294936D02*
X11524943Y-10304460D01*
X11524943Y-10304460D02*
X11505896Y-10313984D01*
X11505896Y-10313984D02*
X11467801Y-10313984D01*
X11467801Y-10313984D02*
X11448753Y-10304460D01*
X11629705Y-10294936D02*
X11639229Y-10304460D01*
X11639229Y-10304460D02*
X11629705Y-10313984D01*
X11629705Y-10313984D02*
X11620182Y-10304460D01*
X11620182Y-10304460D02*
X11629705Y-10294936D01*
X11629705Y-10294936D02*
X11629705Y-10313984D01*
X11629705Y-10190174D02*
X11639229Y-10199698D01*
X11639229Y-10199698D02*
X11629705Y-10209222D01*
X11629705Y-10209222D02*
X11620182Y-10199698D01*
X11620182Y-10199698D02*
X11629705Y-10190174D01*
X11629705Y-10190174D02*
X11629705Y-10209222D01*
D12*
X9977500Y-10632500D02*
X9997500Y-10652500D01*
X9997500Y-10632500D02*
X9977500Y-10652500D01*
D11*
X10296372Y-10533984D02*
X10315420Y-10533984D01*
X10315420Y-10533984D02*
X10334467Y-10543508D01*
X10334467Y-10543508D02*
X10343991Y-10553031D01*
X10343991Y-10553031D02*
X10353515Y-10572079D01*
X10353515Y-10572079D02*
X10363039Y-10610174D01*
X10363039Y-10610174D02*
X10363039Y-10657793D01*
X10363039Y-10657793D02*
X10353515Y-10695889D01*
X10353515Y-10695889D02*
X10343991Y-10714936D01*
X10343991Y-10714936D02*
X10334467Y-10724460D01*
X10334467Y-10724460D02*
X10315420Y-10733984D01*
X10315420Y-10733984D02*
X10296372Y-10733984D01*
X10296372Y-10733984D02*
X10277324Y-10724460D01*
X10277324Y-10724460D02*
X10267801Y-10714936D01*
X10267801Y-10714936D02*
X10258277Y-10695889D01*
X10258277Y-10695889D02*
X10248753Y-10657793D01*
X10248753Y-10657793D02*
X10248753Y-10610174D01*
X10248753Y-10610174D02*
X10258277Y-10572079D01*
X10258277Y-10572079D02*
X10267801Y-10553031D01*
X10267801Y-10553031D02*
X10277324Y-10543508D01*
X10277324Y-10543508D02*
X10296372Y-10533984D01*
X10448753Y-10714936D02*
X10458277Y-10724460D01*
X10458277Y-10724460D02*
X10448753Y-10733984D01*
X10448753Y-10733984D02*
X10439229Y-10724460D01*
X10439229Y-10724460D02*
X10448753Y-10714936D01*
X10448753Y-10714936D02*
X10448753Y-10733984D01*
X10534467Y-10553031D02*
X10543991Y-10543508D01*
X10543991Y-10543508D02*
X10563039Y-10533984D01*
X10563039Y-10533984D02*
X10610658Y-10533984D01*
X10610658Y-10533984D02*
X10629705Y-10543508D01*
X10629705Y-10543508D02*
X10639229Y-10553031D01*
X10639229Y-10553031D02*
X10648753Y-10572079D01*
X10648753Y-10572079D02*
X10648753Y-10591127D01*
X10648753Y-10591127D02*
X10639229Y-10619698D01*
X10639229Y-10619698D02*
X10524944Y-10733984D01*
X10524944Y-10733984D02*
X10648753Y-10733984D01*
X10772563Y-10533984D02*
X10791610Y-10533984D01*
X10791610Y-10533984D02*
X10810658Y-10543508D01*
X10810658Y-10543508D02*
X10820182Y-10553031D01*
X10820182Y-10553031D02*
X10829705Y-10572079D01*
X10829705Y-10572079D02*
X10839229Y-10610174D01*
X10839229Y-10610174D02*
X10839229Y-10657793D01*
X10839229Y-10657793D02*
X10829705Y-10695889D01*
X10829705Y-10695889D02*
X10820182Y-10714936D01*
X10820182Y-10714936D02*
X10810658Y-10724460D01*
X10810658Y-10724460D02*
X10791610Y-10733984D01*
X10791610Y-10733984D02*
X10772563Y-10733984D01*
X10772563Y-10733984D02*
X10753515Y-10724460D01*
X10753515Y-10724460D02*
X10743991Y-10714936D01*
X10743991Y-10714936D02*
X10734467Y-10695889D01*
X10734467Y-10695889D02*
X10724944Y-10657793D01*
X10724944Y-10657793D02*
X10724944Y-10610174D01*
X10724944Y-10610174D02*
X10734467Y-10572079D01*
X10734467Y-10572079D02*
X10743991Y-10553031D01*
X10743991Y-10553031D02*
X10753515Y-10543508D01*
X10753515Y-10543508D02*
X10772563Y-10533984D01*
X10963039Y-10533984D02*
X10982086Y-10533984D01*
X10982086Y-10533984D02*
X11001134Y-10543508D01*
X11001134Y-10543508D02*
X11010658Y-10553031D01*
X11010658Y-10553031D02*
X11020182Y-10572079D01*
X11020182Y-10572079D02*
X11029705Y-10610174D01*
X11029705Y-10610174D02*
X11029705Y-10657793D01*
X11029705Y-10657793D02*
X11020182Y-10695889D01*
X11020182Y-10695889D02*
X11010658Y-10714936D01*
X11010658Y-10714936D02*
X11001134Y-10724460D01*
X11001134Y-10724460D02*
X10982086Y-10733984D01*
X10982086Y-10733984D02*
X10963039Y-10733984D01*
X10963039Y-10733984D02*
X10943991Y-10724460D01*
X10943991Y-10724460D02*
X10934467Y-10714936D01*
X10934467Y-10714936D02*
X10924944Y-10695889D01*
X10924944Y-10695889D02*
X10915420Y-10657793D01*
X10915420Y-10657793D02*
X10915420Y-10610174D01*
X10915420Y-10610174D02*
X10924944Y-10572079D01*
X10924944Y-10572079D02*
X10934467Y-10553031D01*
X10934467Y-10553031D02*
X10943991Y-10543508D01*
X10943991Y-10543508D02*
X10963039Y-10533984D01*
X11115420Y-10733984D02*
X11115420Y-10600650D01*
X11115420Y-10619698D02*
X11124944Y-10610174D01*
X11124944Y-10610174D02*
X11143991Y-10600650D01*
X11143991Y-10600650D02*
X11172563Y-10600650D01*
X11172563Y-10600650D02*
X11191610Y-10610174D01*
X11191610Y-10610174D02*
X11201134Y-10629222D01*
X11201134Y-10629222D02*
X11201134Y-10733984D01*
X11201134Y-10629222D02*
X11210658Y-10610174D01*
X11210658Y-10610174D02*
X11229705Y-10600650D01*
X11229705Y-10600650D02*
X11258277Y-10600650D01*
X11258277Y-10600650D02*
X11277324Y-10610174D01*
X11277324Y-10610174D02*
X11286848Y-10629222D01*
X11286848Y-10629222D02*
X11286848Y-10733984D01*
X11382086Y-10733984D02*
X11382086Y-10600650D01*
X11382086Y-10619698D02*
X11391610Y-10610174D01*
X11391610Y-10610174D02*
X11410658Y-10600650D01*
X11410658Y-10600650D02*
X11439229Y-10600650D01*
X11439229Y-10600650D02*
X11458277Y-10610174D01*
X11458277Y-10610174D02*
X11467801Y-10629222D01*
X11467801Y-10629222D02*
X11467801Y-10733984D01*
X11467801Y-10629222D02*
X11477324Y-10610174D01*
X11477324Y-10610174D02*
X11496372Y-10600650D01*
X11496372Y-10600650D02*
X11524943Y-10600650D01*
X11524943Y-10600650D02*
X11543991Y-10610174D01*
X11543991Y-10610174D02*
X11553515Y-10629222D01*
X11553515Y-10629222D02*
X11553515Y-10733984D01*
X11943991Y-10524460D02*
X11772563Y-10781603D01*
X12201134Y-10533984D02*
X12220182Y-10533984D01*
X12220182Y-10533984D02*
X12239229Y-10543508D01*
X12239229Y-10543508D02*
X12248753Y-10553031D01*
X12248753Y-10553031D02*
X12258277Y-10572079D01*
X12258277Y-10572079D02*
X12267801Y-10610174D01*
X12267801Y-10610174D02*
X12267801Y-10657793D01*
X12267801Y-10657793D02*
X12258277Y-10695889D01*
X12258277Y-10695889D02*
X12248753Y-10714936D01*
X12248753Y-10714936D02*
X12239229Y-10724460D01*
X12239229Y-10724460D02*
X12220182Y-10733984D01*
X12220182Y-10733984D02*
X12201134Y-10733984D01*
X12201134Y-10733984D02*
X12182086Y-10724460D01*
X12182086Y-10724460D02*
X12172563Y-10714936D01*
X12172563Y-10714936D02*
X12163039Y-10695889D01*
X12163039Y-10695889D02*
X12153515Y-10657793D01*
X12153515Y-10657793D02*
X12153515Y-10610174D01*
X12153515Y-10610174D02*
X12163039Y-10572079D01*
X12163039Y-10572079D02*
X12172563Y-10553031D01*
X12172563Y-10553031D02*
X12182086Y-10543508D01*
X12182086Y-10543508D02*
X12201134Y-10533984D01*
X12353515Y-10714936D02*
X12363039Y-10724460D01*
X12363039Y-10724460D02*
X12353515Y-10733984D01*
X12353515Y-10733984D02*
X12343991Y-10724460D01*
X12343991Y-10724460D02*
X12353515Y-10714936D01*
X12353515Y-10714936D02*
X12353515Y-10733984D01*
X12486848Y-10533984D02*
X12505896Y-10533984D01*
X12505896Y-10533984D02*
X12524944Y-10543508D01*
X12524944Y-10543508D02*
X12534467Y-10553031D01*
X12534467Y-10553031D02*
X12543991Y-10572079D01*
X12543991Y-10572079D02*
X12553515Y-10610174D01*
X12553515Y-10610174D02*
X12553515Y-10657793D01*
X12553515Y-10657793D02*
X12543991Y-10695889D01*
X12543991Y-10695889D02*
X12534467Y-10714936D01*
X12534467Y-10714936D02*
X12524944Y-10724460D01*
X12524944Y-10724460D02*
X12505896Y-10733984D01*
X12505896Y-10733984D02*
X12486848Y-10733984D01*
X12486848Y-10733984D02*
X12467801Y-10724460D01*
X12467801Y-10724460D02*
X12458277Y-10714936D01*
X12458277Y-10714936D02*
X12448753Y-10695889D01*
X12448753Y-10695889D02*
X12439229Y-10657793D01*
X12439229Y-10657793D02*
X12439229Y-10610174D01*
X12439229Y-10610174D02*
X12448753Y-10572079D01*
X12448753Y-10572079D02*
X12458277Y-10553031D01*
X12458277Y-10553031D02*
X12467801Y-10543508D01*
X12467801Y-10543508D02*
X12486848Y-10533984D01*
X12677325Y-10533984D02*
X12696372Y-10533984D01*
X12696372Y-10533984D02*
X12715420Y-10543508D01*
X12715420Y-10543508D02*
X12724944Y-10553031D01*
X12724944Y-10553031D02*
X12734467Y-10572079D01*
X12734467Y-10572079D02*
X12743991Y-10610174D01*
X12743991Y-10610174D02*
X12743991Y-10657793D01*
X12743991Y-10657793D02*
X12734467Y-10695889D01*
X12734467Y-10695889D02*
X12724944Y-10714936D01*
X12724944Y-10714936D02*
X12715420Y-10724460D01*
X12715420Y-10724460D02*
X12696372Y-10733984D01*
X12696372Y-10733984D02*
X12677325Y-10733984D01*
X12677325Y-10733984D02*
X12658277Y-10724460D01*
X12658277Y-10724460D02*
X12648753Y-10714936D01*
X12648753Y-10714936D02*
X12639229Y-10695889D01*
X12639229Y-10695889D02*
X12629706Y-10657793D01*
X12629706Y-10657793D02*
X12629706Y-10610174D01*
X12629706Y-10610174D02*
X12639229Y-10572079D01*
X12639229Y-10572079D02*
X12648753Y-10553031D01*
X12648753Y-10553031D02*
X12658277Y-10543508D01*
X12658277Y-10543508D02*
X12677325Y-10533984D01*
X12810658Y-10533984D02*
X12943991Y-10533984D01*
X12943991Y-10533984D02*
X12858277Y-10733984D01*
X13029706Y-10733984D02*
X13067801Y-10733984D01*
X13067801Y-10733984D02*
X13086848Y-10724460D01*
X13086848Y-10724460D02*
X13096372Y-10714936D01*
X13096372Y-10714936D02*
X13115420Y-10686365D01*
X13115420Y-10686365D02*
X13124944Y-10648270D01*
X13124944Y-10648270D02*
X13124944Y-10572079D01*
X13124944Y-10572079D02*
X13115420Y-10553031D01*
X13115420Y-10553031D02*
X13105896Y-10543508D01*
X13105896Y-10543508D02*
X13086848Y-10533984D01*
X13086848Y-10533984D02*
X13048753Y-10533984D01*
X13048753Y-10533984D02*
X13029706Y-10543508D01*
X13029706Y-10543508D02*
X13020182Y-10553031D01*
X13020182Y-10553031D02*
X13010658Y-10572079D01*
X13010658Y-10572079D02*
X13010658Y-10619698D01*
X13010658Y-10619698D02*
X13020182Y-10638746D01*
X13020182Y-10638746D02*
X13029706Y-10648270D01*
X13029706Y-10648270D02*
X13048753Y-10657793D01*
X13048753Y-10657793D02*
X13086848Y-10657793D01*
X13086848Y-10657793D02*
X13105896Y-10648270D01*
X13105896Y-10648270D02*
X13115420Y-10638746D01*
X13115420Y-10638746D02*
X13124944Y-10619698D01*
X13201134Y-10533984D02*
X13201134Y-10572079D01*
X13277325Y-10533984D02*
X13277325Y-10572079D01*
X13572563Y-10810174D02*
X13563039Y-10800650D01*
X13563039Y-10800650D02*
X13543991Y-10772079D01*
X13543991Y-10772079D02*
X13534468Y-10753031D01*
X13534468Y-10753031D02*
X13524944Y-10724460D01*
X13524944Y-10724460D02*
X13515420Y-10676841D01*
X13515420Y-10676841D02*
X13515420Y-10638746D01*
X13515420Y-10638746D02*
X13524944Y-10591127D01*
X13524944Y-10591127D02*
X13534468Y-10562555D01*
X13534468Y-10562555D02*
X13543991Y-10543508D01*
X13543991Y-10543508D02*
X13563039Y-10514936D01*
X13563039Y-10514936D02*
X13572563Y-10505412D01*
X13734468Y-10600650D02*
X13734468Y-10733984D01*
X13686848Y-10524460D02*
X13639229Y-10667317D01*
X13639229Y-10667317D02*
X13763039Y-10667317D01*
X13943991Y-10733984D02*
X13829706Y-10733984D01*
X13886848Y-10733984D02*
X13886848Y-10533984D01*
X13886848Y-10533984D02*
X13867801Y-10562555D01*
X13867801Y-10562555D02*
X13848753Y-10581603D01*
X13848753Y-10581603D02*
X13829706Y-10591127D01*
X14010658Y-10533984D02*
X14134468Y-10533984D01*
X14134468Y-10533984D02*
X14067801Y-10610174D01*
X14067801Y-10610174D02*
X14096372Y-10610174D01*
X14096372Y-10610174D02*
X14115420Y-10619698D01*
X14115420Y-10619698D02*
X14124944Y-10629222D01*
X14124944Y-10629222D02*
X14134468Y-10648270D01*
X14134468Y-10648270D02*
X14134468Y-10695889D01*
X14134468Y-10695889D02*
X14124944Y-10714936D01*
X14124944Y-10714936D02*
X14115420Y-10724460D01*
X14115420Y-10724460D02*
X14096372Y-10733984D01*
X14096372Y-10733984D02*
X14039229Y-10733984D01*
X14039229Y-10733984D02*
X14020182Y-10724460D01*
X14020182Y-10724460D02*
X14010658Y-10714936D01*
X14372563Y-10733984D02*
X14372563Y-10533984D01*
X14458277Y-10733984D02*
X14458277Y-10629222D01*
X14458277Y-10629222D02*
X14448753Y-10610174D01*
X14448753Y-10610174D02*
X14429706Y-10600650D01*
X14429706Y-10600650D02*
X14401134Y-10600650D01*
X14401134Y-10600650D02*
X14382087Y-10610174D01*
X14382087Y-10610174D02*
X14372563Y-10619698D01*
X14582087Y-10733984D02*
X14563039Y-10724460D01*
X14563039Y-10724460D02*
X14553515Y-10714936D01*
X14553515Y-10714936D02*
X14543991Y-10695889D01*
X14543991Y-10695889D02*
X14543991Y-10638746D01*
X14543991Y-10638746D02*
X14553515Y-10619698D01*
X14553515Y-10619698D02*
X14563039Y-10610174D01*
X14563039Y-10610174D02*
X14582087Y-10600650D01*
X14582087Y-10600650D02*
X14610658Y-10600650D01*
X14610658Y-10600650D02*
X14629706Y-10610174D01*
X14629706Y-10610174D02*
X14639230Y-10619698D01*
X14639230Y-10619698D02*
X14648753Y-10638746D01*
X14648753Y-10638746D02*
X14648753Y-10695889D01*
X14648753Y-10695889D02*
X14639230Y-10714936D01*
X14639230Y-10714936D02*
X14629706Y-10724460D01*
X14629706Y-10724460D02*
X14610658Y-10733984D01*
X14610658Y-10733984D02*
X14582087Y-10733984D01*
X14763039Y-10733984D02*
X14743991Y-10724460D01*
X14743991Y-10724460D02*
X14734468Y-10705412D01*
X14734468Y-10705412D02*
X14734468Y-10533984D01*
X14915420Y-10724460D02*
X14896372Y-10733984D01*
X14896372Y-10733984D02*
X14858277Y-10733984D01*
X14858277Y-10733984D02*
X14839230Y-10724460D01*
X14839230Y-10724460D02*
X14829706Y-10705412D01*
X14829706Y-10705412D02*
X14829706Y-10629222D01*
X14829706Y-10629222D02*
X14839230Y-10610174D01*
X14839230Y-10610174D02*
X14858277Y-10600650D01*
X14858277Y-10600650D02*
X14896372Y-10600650D01*
X14896372Y-10600650D02*
X14915420Y-10610174D01*
X14915420Y-10610174D02*
X14924944Y-10629222D01*
X14924944Y-10629222D02*
X14924944Y-10648270D01*
X14924944Y-10648270D02*
X14829706Y-10667317D01*
X15001134Y-10724460D02*
X15020182Y-10733984D01*
X15020182Y-10733984D02*
X15058277Y-10733984D01*
X15058277Y-10733984D02*
X15077325Y-10724460D01*
X15077325Y-10724460D02*
X15086849Y-10705412D01*
X15086849Y-10705412D02*
X15086849Y-10695889D01*
X15086849Y-10695889D02*
X15077325Y-10676841D01*
X15077325Y-10676841D02*
X15058277Y-10667317D01*
X15058277Y-10667317D02*
X15029706Y-10667317D01*
X15029706Y-10667317D02*
X15010658Y-10657793D01*
X15010658Y-10657793D02*
X15001134Y-10638746D01*
X15001134Y-10638746D02*
X15001134Y-10629222D01*
X15001134Y-10629222D02*
X15010658Y-10610174D01*
X15010658Y-10610174D02*
X15029706Y-10600650D01*
X15029706Y-10600650D02*
X15058277Y-10600650D01*
X15058277Y-10600650D02*
X15077325Y-10610174D01*
X15153515Y-10810174D02*
X15163039Y-10800650D01*
X15163039Y-10800650D02*
X15182087Y-10772079D01*
X15182087Y-10772079D02*
X15191611Y-10753031D01*
X15191611Y-10753031D02*
X15201134Y-10724460D01*
X15201134Y-10724460D02*
X15210658Y-10676841D01*
X15210658Y-10676841D02*
X15210658Y-10638746D01*
X15210658Y-10638746D02*
X15201134Y-10591127D01*
X15201134Y-10591127D02*
X15191611Y-10562555D01*
X15191611Y-10562555D02*
X15182087Y-10543508D01*
X15182087Y-10543508D02*
X15163039Y-10514936D01*
X15163039Y-10514936D02*
X15153515Y-10505412D01*
D12*
X9997500Y-10906500D02*
G75*
G02*
X9972500Y-10906500I-12500J0D01*
G01*
X9972500Y-10906500D02*
G75*
G02*
X9997500Y-10906500I12500J0D01*
G01*
D11*
X10296372Y-10797984D02*
X10315420Y-10797984D01*
X10315420Y-10797984D02*
X10334467Y-10807508D01*
X10334467Y-10807508D02*
X10343991Y-10817031D01*
X10343991Y-10817031D02*
X10353515Y-10836079D01*
X10353515Y-10836079D02*
X10363039Y-10874174D01*
X10363039Y-10874174D02*
X10363039Y-10921793D01*
X10363039Y-10921793D02*
X10353515Y-10959889D01*
X10353515Y-10959889D02*
X10343991Y-10978936D01*
X10343991Y-10978936D02*
X10334467Y-10988460D01*
X10334467Y-10988460D02*
X10315420Y-10997984D01*
X10315420Y-10997984D02*
X10296372Y-10997984D01*
X10296372Y-10997984D02*
X10277324Y-10988460D01*
X10277324Y-10988460D02*
X10267801Y-10978936D01*
X10267801Y-10978936D02*
X10258277Y-10959889D01*
X10258277Y-10959889D02*
X10248753Y-10921793D01*
X10248753Y-10921793D02*
X10248753Y-10874174D01*
X10248753Y-10874174D02*
X10258277Y-10836079D01*
X10258277Y-10836079D02*
X10267801Y-10817031D01*
X10267801Y-10817031D02*
X10277324Y-10807508D01*
X10277324Y-10807508D02*
X10296372Y-10797984D01*
X10448753Y-10978936D02*
X10458277Y-10988460D01*
X10458277Y-10988460D02*
X10448753Y-10997984D01*
X10448753Y-10997984D02*
X10439229Y-10988460D01*
X10439229Y-10988460D02*
X10448753Y-10978936D01*
X10448753Y-10978936D02*
X10448753Y-10997984D01*
X10534467Y-10817031D02*
X10543991Y-10807508D01*
X10543991Y-10807508D02*
X10563039Y-10797984D01*
X10563039Y-10797984D02*
X10610658Y-10797984D01*
X10610658Y-10797984D02*
X10629705Y-10807508D01*
X10629705Y-10807508D02*
X10639229Y-10817031D01*
X10639229Y-10817031D02*
X10648753Y-10836079D01*
X10648753Y-10836079D02*
X10648753Y-10855127D01*
X10648753Y-10855127D02*
X10639229Y-10883698D01*
X10639229Y-10883698D02*
X10524944Y-10997984D01*
X10524944Y-10997984D02*
X10648753Y-10997984D01*
X10829705Y-10797984D02*
X10734467Y-10797984D01*
X10734467Y-10797984D02*
X10724944Y-10893222D01*
X10724944Y-10893222D02*
X10734467Y-10883698D01*
X10734467Y-10883698D02*
X10753515Y-10874174D01*
X10753515Y-10874174D02*
X10801134Y-10874174D01*
X10801134Y-10874174D02*
X10820182Y-10883698D01*
X10820182Y-10883698D02*
X10829705Y-10893222D01*
X10829705Y-10893222D02*
X10839229Y-10912270D01*
X10839229Y-10912270D02*
X10839229Y-10959889D01*
X10839229Y-10959889D02*
X10829705Y-10978936D01*
X10829705Y-10978936D02*
X10820182Y-10988460D01*
X10820182Y-10988460D02*
X10801134Y-10997984D01*
X10801134Y-10997984D02*
X10753515Y-10997984D01*
X10753515Y-10997984D02*
X10734467Y-10988460D01*
X10734467Y-10988460D02*
X10724944Y-10978936D01*
X10963039Y-10797984D02*
X10982086Y-10797984D01*
X10982086Y-10797984D02*
X11001134Y-10807508D01*
X11001134Y-10807508D02*
X11010658Y-10817031D01*
X11010658Y-10817031D02*
X11020182Y-10836079D01*
X11020182Y-10836079D02*
X11029705Y-10874174D01*
X11029705Y-10874174D02*
X11029705Y-10921793D01*
X11029705Y-10921793D02*
X11020182Y-10959889D01*
X11020182Y-10959889D02*
X11010658Y-10978936D01*
X11010658Y-10978936D02*
X11001134Y-10988460D01*
X11001134Y-10988460D02*
X10982086Y-10997984D01*
X10982086Y-10997984D02*
X10963039Y-10997984D01*
X10963039Y-10997984D02*
X10943991Y-10988460D01*
X10943991Y-10988460D02*
X10934467Y-10978936D01*
X10934467Y-10978936D02*
X10924944Y-10959889D01*
X10924944Y-10959889D02*
X10915420Y-10921793D01*
X10915420Y-10921793D02*
X10915420Y-10874174D01*
X10915420Y-10874174D02*
X10924944Y-10836079D01*
X10924944Y-10836079D02*
X10934467Y-10817031D01*
X10934467Y-10817031D02*
X10943991Y-10807508D01*
X10943991Y-10807508D02*
X10963039Y-10797984D01*
X11115420Y-10997984D02*
X11115420Y-10864650D01*
X11115420Y-10883698D02*
X11124944Y-10874174D01*
X11124944Y-10874174D02*
X11143991Y-10864650D01*
X11143991Y-10864650D02*
X11172563Y-10864650D01*
X11172563Y-10864650D02*
X11191610Y-10874174D01*
X11191610Y-10874174D02*
X11201134Y-10893222D01*
X11201134Y-10893222D02*
X11201134Y-10997984D01*
X11201134Y-10893222D02*
X11210658Y-10874174D01*
X11210658Y-10874174D02*
X11229705Y-10864650D01*
X11229705Y-10864650D02*
X11258277Y-10864650D01*
X11258277Y-10864650D02*
X11277324Y-10874174D01*
X11277324Y-10874174D02*
X11286848Y-10893222D01*
X11286848Y-10893222D02*
X11286848Y-10997984D01*
X11382086Y-10997984D02*
X11382086Y-10864650D01*
X11382086Y-10883698D02*
X11391610Y-10874174D01*
X11391610Y-10874174D02*
X11410658Y-10864650D01*
X11410658Y-10864650D02*
X11439229Y-10864650D01*
X11439229Y-10864650D02*
X11458277Y-10874174D01*
X11458277Y-10874174D02*
X11467801Y-10893222D01*
X11467801Y-10893222D02*
X11467801Y-10997984D01*
X11467801Y-10893222D02*
X11477324Y-10874174D01*
X11477324Y-10874174D02*
X11496372Y-10864650D01*
X11496372Y-10864650D02*
X11524943Y-10864650D01*
X11524943Y-10864650D02*
X11543991Y-10874174D01*
X11543991Y-10874174D02*
X11553515Y-10893222D01*
X11553515Y-10893222D02*
X11553515Y-10997984D01*
X11943991Y-10788460D02*
X11772563Y-11045603D01*
X12201134Y-10797984D02*
X12220182Y-10797984D01*
X12220182Y-10797984D02*
X12239229Y-10807508D01*
X12239229Y-10807508D02*
X12248753Y-10817031D01*
X12248753Y-10817031D02*
X12258277Y-10836079D01*
X12258277Y-10836079D02*
X12267801Y-10874174D01*
X12267801Y-10874174D02*
X12267801Y-10921793D01*
X12267801Y-10921793D02*
X12258277Y-10959889D01*
X12258277Y-10959889D02*
X12248753Y-10978936D01*
X12248753Y-10978936D02*
X12239229Y-10988460D01*
X12239229Y-10988460D02*
X12220182Y-10997984D01*
X12220182Y-10997984D02*
X12201134Y-10997984D01*
X12201134Y-10997984D02*
X12182086Y-10988460D01*
X12182086Y-10988460D02*
X12172563Y-10978936D01*
X12172563Y-10978936D02*
X12163039Y-10959889D01*
X12163039Y-10959889D02*
X12153515Y-10921793D01*
X12153515Y-10921793D02*
X12153515Y-10874174D01*
X12153515Y-10874174D02*
X12163039Y-10836079D01*
X12163039Y-10836079D02*
X12172563Y-10817031D01*
X12172563Y-10817031D02*
X12182086Y-10807508D01*
X12182086Y-10807508D02*
X12201134Y-10797984D01*
X12353515Y-10978936D02*
X12363039Y-10988460D01*
X12363039Y-10988460D02*
X12353515Y-10997984D01*
X12353515Y-10997984D02*
X12343991Y-10988460D01*
X12343991Y-10988460D02*
X12353515Y-10978936D01*
X12353515Y-10978936D02*
X12353515Y-10997984D01*
X12486848Y-10797984D02*
X12505896Y-10797984D01*
X12505896Y-10797984D02*
X12524944Y-10807508D01*
X12524944Y-10807508D02*
X12534467Y-10817031D01*
X12534467Y-10817031D02*
X12543991Y-10836079D01*
X12543991Y-10836079D02*
X12553515Y-10874174D01*
X12553515Y-10874174D02*
X12553515Y-10921793D01*
X12553515Y-10921793D02*
X12543991Y-10959889D01*
X12543991Y-10959889D02*
X12534467Y-10978936D01*
X12534467Y-10978936D02*
X12524944Y-10988460D01*
X12524944Y-10988460D02*
X12505896Y-10997984D01*
X12505896Y-10997984D02*
X12486848Y-10997984D01*
X12486848Y-10997984D02*
X12467801Y-10988460D01*
X12467801Y-10988460D02*
X12458277Y-10978936D01*
X12458277Y-10978936D02*
X12448753Y-10959889D01*
X12448753Y-10959889D02*
X12439229Y-10921793D01*
X12439229Y-10921793D02*
X12439229Y-10874174D01*
X12439229Y-10874174D02*
X12448753Y-10836079D01*
X12448753Y-10836079D02*
X12458277Y-10817031D01*
X12458277Y-10817031D02*
X12467801Y-10807508D01*
X12467801Y-10807508D02*
X12486848Y-10797984D01*
X12677325Y-10797984D02*
X12696372Y-10797984D01*
X12696372Y-10797984D02*
X12715420Y-10807508D01*
X12715420Y-10807508D02*
X12724944Y-10817031D01*
X12724944Y-10817031D02*
X12734467Y-10836079D01*
X12734467Y-10836079D02*
X12743991Y-10874174D01*
X12743991Y-10874174D02*
X12743991Y-10921793D01*
X12743991Y-10921793D02*
X12734467Y-10959889D01*
X12734467Y-10959889D02*
X12724944Y-10978936D01*
X12724944Y-10978936D02*
X12715420Y-10988460D01*
X12715420Y-10988460D02*
X12696372Y-10997984D01*
X12696372Y-10997984D02*
X12677325Y-10997984D01*
X12677325Y-10997984D02*
X12658277Y-10988460D01*
X12658277Y-10988460D02*
X12648753Y-10978936D01*
X12648753Y-10978936D02*
X12639229Y-10959889D01*
X12639229Y-10959889D02*
X12629706Y-10921793D01*
X12629706Y-10921793D02*
X12629706Y-10874174D01*
X12629706Y-10874174D02*
X12639229Y-10836079D01*
X12639229Y-10836079D02*
X12648753Y-10817031D01*
X12648753Y-10817031D02*
X12658277Y-10807508D01*
X12658277Y-10807508D02*
X12677325Y-10797984D01*
X12839229Y-10997984D02*
X12877325Y-10997984D01*
X12877325Y-10997984D02*
X12896372Y-10988460D01*
X12896372Y-10988460D02*
X12905896Y-10978936D01*
X12905896Y-10978936D02*
X12924944Y-10950365D01*
X12924944Y-10950365D02*
X12934467Y-10912270D01*
X12934467Y-10912270D02*
X12934467Y-10836079D01*
X12934467Y-10836079D02*
X12924944Y-10817031D01*
X12924944Y-10817031D02*
X12915420Y-10807508D01*
X12915420Y-10807508D02*
X12896372Y-10797984D01*
X12896372Y-10797984D02*
X12858277Y-10797984D01*
X12858277Y-10797984D02*
X12839229Y-10807508D01*
X12839229Y-10807508D02*
X12829706Y-10817031D01*
X12829706Y-10817031D02*
X12820182Y-10836079D01*
X12820182Y-10836079D02*
X12820182Y-10883698D01*
X12820182Y-10883698D02*
X12829706Y-10902746D01*
X12829706Y-10902746D02*
X12839229Y-10912270D01*
X12839229Y-10912270D02*
X12858277Y-10921793D01*
X12858277Y-10921793D02*
X12896372Y-10921793D01*
X12896372Y-10921793D02*
X12915420Y-10912270D01*
X12915420Y-10912270D02*
X12924944Y-10902746D01*
X12924944Y-10902746D02*
X12934467Y-10883698D01*
X13048753Y-10883698D02*
X13029706Y-10874174D01*
X13029706Y-10874174D02*
X13020182Y-10864650D01*
X13020182Y-10864650D02*
X13010658Y-10845603D01*
X13010658Y-10845603D02*
X13010658Y-10836079D01*
X13010658Y-10836079D02*
X13020182Y-10817031D01*
X13020182Y-10817031D02*
X13029706Y-10807508D01*
X13029706Y-10807508D02*
X13048753Y-10797984D01*
X13048753Y-10797984D02*
X13086848Y-10797984D01*
X13086848Y-10797984D02*
X13105896Y-10807508D01*
X13105896Y-10807508D02*
X13115420Y-10817031D01*
X13115420Y-10817031D02*
X13124944Y-10836079D01*
X13124944Y-10836079D02*
X13124944Y-10845603D01*
X13124944Y-10845603D02*
X13115420Y-10864650D01*
X13115420Y-10864650D02*
X13105896Y-10874174D01*
X13105896Y-10874174D02*
X13086848Y-10883698D01*
X13086848Y-10883698D02*
X13048753Y-10883698D01*
X13048753Y-10883698D02*
X13029706Y-10893222D01*
X13029706Y-10893222D02*
X13020182Y-10902746D01*
X13020182Y-10902746D02*
X13010658Y-10921793D01*
X13010658Y-10921793D02*
X13010658Y-10959889D01*
X13010658Y-10959889D02*
X13020182Y-10978936D01*
X13020182Y-10978936D02*
X13029706Y-10988460D01*
X13029706Y-10988460D02*
X13048753Y-10997984D01*
X13048753Y-10997984D02*
X13086848Y-10997984D01*
X13086848Y-10997984D02*
X13105896Y-10988460D01*
X13105896Y-10988460D02*
X13115420Y-10978936D01*
X13115420Y-10978936D02*
X13124944Y-10959889D01*
X13124944Y-10959889D02*
X13124944Y-10921793D01*
X13124944Y-10921793D02*
X13115420Y-10902746D01*
X13115420Y-10902746D02*
X13105896Y-10893222D01*
X13105896Y-10893222D02*
X13086848Y-10883698D01*
X13201134Y-10797984D02*
X13201134Y-10836079D01*
X13277325Y-10797984D02*
X13277325Y-10836079D01*
X13572563Y-11074174D02*
X13563039Y-11064650D01*
X13563039Y-11064650D02*
X13543991Y-11036079D01*
X13543991Y-11036079D02*
X13534468Y-11017031D01*
X13534468Y-11017031D02*
X13524944Y-10988460D01*
X13524944Y-10988460D02*
X13515420Y-10940841D01*
X13515420Y-10940841D02*
X13515420Y-10902746D01*
X13515420Y-10902746D02*
X13524944Y-10855127D01*
X13524944Y-10855127D02*
X13534468Y-10826555D01*
X13534468Y-10826555D02*
X13543991Y-10807508D01*
X13543991Y-10807508D02*
X13563039Y-10778936D01*
X13563039Y-10778936D02*
X13572563Y-10769412D01*
X13639229Y-10817031D02*
X13648753Y-10807508D01*
X13648753Y-10807508D02*
X13667801Y-10797984D01*
X13667801Y-10797984D02*
X13715420Y-10797984D01*
X13715420Y-10797984D02*
X13734468Y-10807508D01*
X13734468Y-10807508D02*
X13743991Y-10817031D01*
X13743991Y-10817031D02*
X13753515Y-10836079D01*
X13753515Y-10836079D02*
X13753515Y-10855127D01*
X13753515Y-10855127D02*
X13743991Y-10883698D01*
X13743991Y-10883698D02*
X13629706Y-10997984D01*
X13629706Y-10997984D02*
X13753515Y-10997984D01*
X13877325Y-10797984D02*
X13896372Y-10797984D01*
X13896372Y-10797984D02*
X13915420Y-10807508D01*
X13915420Y-10807508D02*
X13924944Y-10817031D01*
X13924944Y-10817031D02*
X13934468Y-10836079D01*
X13934468Y-10836079D02*
X13943991Y-10874174D01*
X13943991Y-10874174D02*
X13943991Y-10921793D01*
X13943991Y-10921793D02*
X13934468Y-10959889D01*
X13934468Y-10959889D02*
X13924944Y-10978936D01*
X13924944Y-10978936D02*
X13915420Y-10988460D01*
X13915420Y-10988460D02*
X13896372Y-10997984D01*
X13896372Y-10997984D02*
X13877325Y-10997984D01*
X13877325Y-10997984D02*
X13858277Y-10988460D01*
X13858277Y-10988460D02*
X13848753Y-10978936D01*
X13848753Y-10978936D02*
X13839229Y-10959889D01*
X13839229Y-10959889D02*
X13829706Y-10921793D01*
X13829706Y-10921793D02*
X13829706Y-10874174D01*
X13829706Y-10874174D02*
X13839229Y-10836079D01*
X13839229Y-10836079D02*
X13848753Y-10817031D01*
X13848753Y-10817031D02*
X13858277Y-10807508D01*
X13858277Y-10807508D02*
X13877325Y-10797984D01*
X14182087Y-10997984D02*
X14182087Y-10797984D01*
X14267801Y-10997984D02*
X14267801Y-10893222D01*
X14267801Y-10893222D02*
X14258277Y-10874174D01*
X14258277Y-10874174D02*
X14239230Y-10864650D01*
X14239230Y-10864650D02*
X14210658Y-10864650D01*
X14210658Y-10864650D02*
X14191610Y-10874174D01*
X14191610Y-10874174D02*
X14182087Y-10883698D01*
X14391610Y-10997984D02*
X14372563Y-10988460D01*
X14372563Y-10988460D02*
X14363039Y-10978936D01*
X14363039Y-10978936D02*
X14353515Y-10959889D01*
X14353515Y-10959889D02*
X14353515Y-10902746D01*
X14353515Y-10902746D02*
X14363039Y-10883698D01*
X14363039Y-10883698D02*
X14372563Y-10874174D01*
X14372563Y-10874174D02*
X14391610Y-10864650D01*
X14391610Y-10864650D02*
X14420182Y-10864650D01*
X14420182Y-10864650D02*
X14439230Y-10874174D01*
X14439230Y-10874174D02*
X14448753Y-10883698D01*
X14448753Y-10883698D02*
X14458277Y-10902746D01*
X14458277Y-10902746D02*
X14458277Y-10959889D01*
X14458277Y-10959889D02*
X14448753Y-10978936D01*
X14448753Y-10978936D02*
X14439230Y-10988460D01*
X14439230Y-10988460D02*
X14420182Y-10997984D01*
X14420182Y-10997984D02*
X14391610Y-10997984D01*
X14572563Y-10997984D02*
X14553515Y-10988460D01*
X14553515Y-10988460D02*
X14543991Y-10969412D01*
X14543991Y-10969412D02*
X14543991Y-10797984D01*
X14724944Y-10988460D02*
X14705896Y-10997984D01*
X14705896Y-10997984D02*
X14667801Y-10997984D01*
X14667801Y-10997984D02*
X14648753Y-10988460D01*
X14648753Y-10988460D02*
X14639230Y-10969412D01*
X14639230Y-10969412D02*
X14639230Y-10893222D01*
X14639230Y-10893222D02*
X14648753Y-10874174D01*
X14648753Y-10874174D02*
X14667801Y-10864650D01*
X14667801Y-10864650D02*
X14705896Y-10864650D01*
X14705896Y-10864650D02*
X14724944Y-10874174D01*
X14724944Y-10874174D02*
X14734468Y-10893222D01*
X14734468Y-10893222D02*
X14734468Y-10912270D01*
X14734468Y-10912270D02*
X14639230Y-10931317D01*
X14810658Y-10988460D02*
X14829706Y-10997984D01*
X14829706Y-10997984D02*
X14867801Y-10997984D01*
X14867801Y-10997984D02*
X14886849Y-10988460D01*
X14886849Y-10988460D02*
X14896372Y-10969412D01*
X14896372Y-10969412D02*
X14896372Y-10959889D01*
X14896372Y-10959889D02*
X14886849Y-10940841D01*
X14886849Y-10940841D02*
X14867801Y-10931317D01*
X14867801Y-10931317D02*
X14839230Y-10931317D01*
X14839230Y-10931317D02*
X14820182Y-10921793D01*
X14820182Y-10921793D02*
X14810658Y-10902746D01*
X14810658Y-10902746D02*
X14810658Y-10893222D01*
X14810658Y-10893222D02*
X14820182Y-10874174D01*
X14820182Y-10874174D02*
X14839230Y-10864650D01*
X14839230Y-10864650D02*
X14867801Y-10864650D01*
X14867801Y-10864650D02*
X14886849Y-10874174D01*
X14963039Y-11074174D02*
X14972563Y-11064650D01*
X14972563Y-11064650D02*
X14991611Y-11036079D01*
X14991611Y-11036079D02*
X15001134Y-11017031D01*
X15001134Y-11017031D02*
X15010658Y-10988460D01*
X15010658Y-10988460D02*
X15020182Y-10940841D01*
X15020182Y-10940841D02*
X15020182Y-10902746D01*
X15020182Y-10902746D02*
X15010658Y-10855127D01*
X15010658Y-10855127D02*
X15001134Y-10826555D01*
X15001134Y-10826555D02*
X14991611Y-10807508D01*
X14991611Y-10807508D02*
X14972563Y-10778936D01*
X14972563Y-10778936D02*
X14963039Y-10769412D01*
D12*
X9982500Y-11155500D02*
X9982500Y-11185500D01*
X9967500Y-11170500D02*
X9997500Y-11170500D01*
D11*
X10296372Y-11061984D02*
X10315420Y-11061984D01*
X10315420Y-11061984D02*
X10334467Y-11071508D01*
X10334467Y-11071508D02*
X10343991Y-11081031D01*
X10343991Y-11081031D02*
X10353515Y-11100079D01*
X10353515Y-11100079D02*
X10363039Y-11138174D01*
X10363039Y-11138174D02*
X10363039Y-11185793D01*
X10363039Y-11185793D02*
X10353515Y-11223888D01*
X10353515Y-11223888D02*
X10343991Y-11242936D01*
X10343991Y-11242936D02*
X10334467Y-11252460D01*
X10334467Y-11252460D02*
X10315420Y-11261984D01*
X10315420Y-11261984D02*
X10296372Y-11261984D01*
X10296372Y-11261984D02*
X10277324Y-11252460D01*
X10277324Y-11252460D02*
X10267801Y-11242936D01*
X10267801Y-11242936D02*
X10258277Y-11223888D01*
X10258277Y-11223888D02*
X10248753Y-11185793D01*
X10248753Y-11185793D02*
X10248753Y-11138174D01*
X10248753Y-11138174D02*
X10258277Y-11100079D01*
X10258277Y-11100079D02*
X10267801Y-11081031D01*
X10267801Y-11081031D02*
X10277324Y-11071508D01*
X10277324Y-11071508D02*
X10296372Y-11061984D01*
X10448753Y-11242936D02*
X10458277Y-11252460D01*
X10458277Y-11252460D02*
X10448753Y-11261984D01*
X10448753Y-11261984D02*
X10439229Y-11252460D01*
X10439229Y-11252460D02*
X10448753Y-11242936D01*
X10448753Y-11242936D02*
X10448753Y-11261984D01*
X10524944Y-11061984D02*
X10648753Y-11061984D01*
X10648753Y-11061984D02*
X10582086Y-11138174D01*
X10582086Y-11138174D02*
X10610658Y-11138174D01*
X10610658Y-11138174D02*
X10629705Y-11147698D01*
X10629705Y-11147698D02*
X10639229Y-11157222D01*
X10639229Y-11157222D02*
X10648753Y-11176270D01*
X10648753Y-11176270D02*
X10648753Y-11223888D01*
X10648753Y-11223888D02*
X10639229Y-11242936D01*
X10639229Y-11242936D02*
X10629705Y-11252460D01*
X10629705Y-11252460D02*
X10610658Y-11261984D01*
X10610658Y-11261984D02*
X10553515Y-11261984D01*
X10553515Y-11261984D02*
X10534467Y-11252460D01*
X10534467Y-11252460D02*
X10524944Y-11242936D01*
X10772563Y-11061984D02*
X10791610Y-11061984D01*
X10791610Y-11061984D02*
X10810658Y-11071508D01*
X10810658Y-11071508D02*
X10820182Y-11081031D01*
X10820182Y-11081031D02*
X10829705Y-11100079D01*
X10829705Y-11100079D02*
X10839229Y-11138174D01*
X10839229Y-11138174D02*
X10839229Y-11185793D01*
X10839229Y-11185793D02*
X10829705Y-11223888D01*
X10829705Y-11223888D02*
X10820182Y-11242936D01*
X10820182Y-11242936D02*
X10810658Y-11252460D01*
X10810658Y-11252460D02*
X10791610Y-11261984D01*
X10791610Y-11261984D02*
X10772563Y-11261984D01*
X10772563Y-11261984D02*
X10753515Y-11252460D01*
X10753515Y-11252460D02*
X10743991Y-11242936D01*
X10743991Y-11242936D02*
X10734467Y-11223888D01*
X10734467Y-11223888D02*
X10724944Y-11185793D01*
X10724944Y-11185793D02*
X10724944Y-11138174D01*
X10724944Y-11138174D02*
X10734467Y-11100079D01*
X10734467Y-11100079D02*
X10743991Y-11081031D01*
X10743991Y-11081031D02*
X10753515Y-11071508D01*
X10753515Y-11071508D02*
X10772563Y-11061984D01*
X10963039Y-11061984D02*
X10982086Y-11061984D01*
X10982086Y-11061984D02*
X11001134Y-11071508D01*
X11001134Y-11071508D02*
X11010658Y-11081031D01*
X11010658Y-11081031D02*
X11020182Y-11100079D01*
X11020182Y-11100079D02*
X11029705Y-11138174D01*
X11029705Y-11138174D02*
X11029705Y-11185793D01*
X11029705Y-11185793D02*
X11020182Y-11223888D01*
X11020182Y-11223888D02*
X11010658Y-11242936D01*
X11010658Y-11242936D02*
X11001134Y-11252460D01*
X11001134Y-11252460D02*
X10982086Y-11261984D01*
X10982086Y-11261984D02*
X10963039Y-11261984D01*
X10963039Y-11261984D02*
X10943991Y-11252460D01*
X10943991Y-11252460D02*
X10934467Y-11242936D01*
X10934467Y-11242936D02*
X10924944Y-11223888D01*
X10924944Y-11223888D02*
X10915420Y-11185793D01*
X10915420Y-11185793D02*
X10915420Y-11138174D01*
X10915420Y-11138174D02*
X10924944Y-11100079D01*
X10924944Y-11100079D02*
X10934467Y-11081031D01*
X10934467Y-11081031D02*
X10943991Y-11071508D01*
X10943991Y-11071508D02*
X10963039Y-11061984D01*
X11115420Y-11261984D02*
X11115420Y-11128650D01*
X11115420Y-11147698D02*
X11124944Y-11138174D01*
X11124944Y-11138174D02*
X11143991Y-11128650D01*
X11143991Y-11128650D02*
X11172563Y-11128650D01*
X11172563Y-11128650D02*
X11191610Y-11138174D01*
X11191610Y-11138174D02*
X11201134Y-11157222D01*
X11201134Y-11157222D02*
X11201134Y-11261984D01*
X11201134Y-11157222D02*
X11210658Y-11138174D01*
X11210658Y-11138174D02*
X11229705Y-11128650D01*
X11229705Y-11128650D02*
X11258277Y-11128650D01*
X11258277Y-11128650D02*
X11277324Y-11138174D01*
X11277324Y-11138174D02*
X11286848Y-11157222D01*
X11286848Y-11157222D02*
X11286848Y-11261984D01*
X11382086Y-11261984D02*
X11382086Y-11128650D01*
X11382086Y-11147698D02*
X11391610Y-11138174D01*
X11391610Y-11138174D02*
X11410658Y-11128650D01*
X11410658Y-11128650D02*
X11439229Y-11128650D01*
X11439229Y-11128650D02*
X11458277Y-11138174D01*
X11458277Y-11138174D02*
X11467801Y-11157222D01*
X11467801Y-11157222D02*
X11467801Y-11261984D01*
X11467801Y-11157222D02*
X11477324Y-11138174D01*
X11477324Y-11138174D02*
X11496372Y-11128650D01*
X11496372Y-11128650D02*
X11524943Y-11128650D01*
X11524943Y-11128650D02*
X11543991Y-11138174D01*
X11543991Y-11138174D02*
X11553515Y-11157222D01*
X11553515Y-11157222D02*
X11553515Y-11261984D01*
X11943991Y-11052460D02*
X11772563Y-11309603D01*
X12201134Y-11061984D02*
X12220182Y-11061984D01*
X12220182Y-11061984D02*
X12239229Y-11071508D01*
X12239229Y-11071508D02*
X12248753Y-11081031D01*
X12248753Y-11081031D02*
X12258277Y-11100079D01*
X12258277Y-11100079D02*
X12267801Y-11138174D01*
X12267801Y-11138174D02*
X12267801Y-11185793D01*
X12267801Y-11185793D02*
X12258277Y-11223888D01*
X12258277Y-11223888D02*
X12248753Y-11242936D01*
X12248753Y-11242936D02*
X12239229Y-11252460D01*
X12239229Y-11252460D02*
X12220182Y-11261984D01*
X12220182Y-11261984D02*
X12201134Y-11261984D01*
X12201134Y-11261984D02*
X12182086Y-11252460D01*
X12182086Y-11252460D02*
X12172563Y-11242936D01*
X12172563Y-11242936D02*
X12163039Y-11223888D01*
X12163039Y-11223888D02*
X12153515Y-11185793D01*
X12153515Y-11185793D02*
X12153515Y-11138174D01*
X12153515Y-11138174D02*
X12163039Y-11100079D01*
X12163039Y-11100079D02*
X12172563Y-11081031D01*
X12172563Y-11081031D02*
X12182086Y-11071508D01*
X12182086Y-11071508D02*
X12201134Y-11061984D01*
X12353515Y-11242936D02*
X12363039Y-11252460D01*
X12363039Y-11252460D02*
X12353515Y-11261984D01*
X12353515Y-11261984D02*
X12343991Y-11252460D01*
X12343991Y-11252460D02*
X12353515Y-11242936D01*
X12353515Y-11242936D02*
X12353515Y-11261984D01*
X12486848Y-11061984D02*
X12505896Y-11061984D01*
X12505896Y-11061984D02*
X12524944Y-11071508D01*
X12524944Y-11071508D02*
X12534467Y-11081031D01*
X12534467Y-11081031D02*
X12543991Y-11100079D01*
X12543991Y-11100079D02*
X12553515Y-11138174D01*
X12553515Y-11138174D02*
X12553515Y-11185793D01*
X12553515Y-11185793D02*
X12543991Y-11223888D01*
X12543991Y-11223888D02*
X12534467Y-11242936D01*
X12534467Y-11242936D02*
X12524944Y-11252460D01*
X12524944Y-11252460D02*
X12505896Y-11261984D01*
X12505896Y-11261984D02*
X12486848Y-11261984D01*
X12486848Y-11261984D02*
X12467801Y-11252460D01*
X12467801Y-11252460D02*
X12458277Y-11242936D01*
X12458277Y-11242936D02*
X12448753Y-11223888D01*
X12448753Y-11223888D02*
X12439229Y-11185793D01*
X12439229Y-11185793D02*
X12439229Y-11138174D01*
X12439229Y-11138174D02*
X12448753Y-11100079D01*
X12448753Y-11100079D02*
X12458277Y-11081031D01*
X12458277Y-11081031D02*
X12467801Y-11071508D01*
X12467801Y-11071508D02*
X12486848Y-11061984D01*
X12743991Y-11261984D02*
X12629706Y-11261984D01*
X12686848Y-11261984D02*
X12686848Y-11061984D01*
X12686848Y-11061984D02*
X12667801Y-11090555D01*
X12667801Y-11090555D02*
X12648753Y-11109603D01*
X12648753Y-11109603D02*
X12629706Y-11119127D01*
X12934467Y-11261984D02*
X12820182Y-11261984D01*
X12877325Y-11261984D02*
X12877325Y-11061984D01*
X12877325Y-11061984D02*
X12858277Y-11090555D01*
X12858277Y-11090555D02*
X12839229Y-11109603D01*
X12839229Y-11109603D02*
X12820182Y-11119127D01*
X13048753Y-11147698D02*
X13029706Y-11138174D01*
X13029706Y-11138174D02*
X13020182Y-11128650D01*
X13020182Y-11128650D02*
X13010658Y-11109603D01*
X13010658Y-11109603D02*
X13010658Y-11100079D01*
X13010658Y-11100079D02*
X13020182Y-11081031D01*
X13020182Y-11081031D02*
X13029706Y-11071508D01*
X13029706Y-11071508D02*
X13048753Y-11061984D01*
X13048753Y-11061984D02*
X13086848Y-11061984D01*
X13086848Y-11061984D02*
X13105896Y-11071508D01*
X13105896Y-11071508D02*
X13115420Y-11081031D01*
X13115420Y-11081031D02*
X13124944Y-11100079D01*
X13124944Y-11100079D02*
X13124944Y-11109603D01*
X13124944Y-11109603D02*
X13115420Y-11128650D01*
X13115420Y-11128650D02*
X13105896Y-11138174D01*
X13105896Y-11138174D02*
X13086848Y-11147698D01*
X13086848Y-11147698D02*
X13048753Y-11147698D01*
X13048753Y-11147698D02*
X13029706Y-11157222D01*
X13029706Y-11157222D02*
X13020182Y-11166746D01*
X13020182Y-11166746D02*
X13010658Y-11185793D01*
X13010658Y-11185793D02*
X13010658Y-11223888D01*
X13010658Y-11223888D02*
X13020182Y-11242936D01*
X13020182Y-11242936D02*
X13029706Y-11252460D01*
X13029706Y-11252460D02*
X13048753Y-11261984D01*
X13048753Y-11261984D02*
X13086848Y-11261984D01*
X13086848Y-11261984D02*
X13105896Y-11252460D01*
X13105896Y-11252460D02*
X13115420Y-11242936D01*
X13115420Y-11242936D02*
X13124944Y-11223888D01*
X13124944Y-11223888D02*
X13124944Y-11185793D01*
X13124944Y-11185793D02*
X13115420Y-11166746D01*
X13115420Y-11166746D02*
X13105896Y-11157222D01*
X13105896Y-11157222D02*
X13086848Y-11147698D01*
X13201134Y-11061984D02*
X13201134Y-11100079D01*
X13277325Y-11061984D02*
X13277325Y-11100079D01*
X13572563Y-11338174D02*
X13563039Y-11328650D01*
X13563039Y-11328650D02*
X13543991Y-11300079D01*
X13543991Y-11300079D02*
X13534468Y-11281031D01*
X13534468Y-11281031D02*
X13524944Y-11252460D01*
X13524944Y-11252460D02*
X13515420Y-11204841D01*
X13515420Y-11204841D02*
X13515420Y-11166746D01*
X13515420Y-11166746D02*
X13524944Y-11119127D01*
X13524944Y-11119127D02*
X13534468Y-11090555D01*
X13534468Y-11090555D02*
X13543991Y-11071508D01*
X13543991Y-11071508D02*
X13563039Y-11042936D01*
X13563039Y-11042936D02*
X13572563Y-11033412D01*
X13629706Y-11061984D02*
X13753515Y-11061984D01*
X13753515Y-11061984D02*
X13686848Y-11138174D01*
X13686848Y-11138174D02*
X13715420Y-11138174D01*
X13715420Y-11138174D02*
X13734468Y-11147698D01*
X13734468Y-11147698D02*
X13743991Y-11157222D01*
X13743991Y-11157222D02*
X13753515Y-11176270D01*
X13753515Y-11176270D02*
X13753515Y-11223888D01*
X13753515Y-11223888D02*
X13743991Y-11242936D01*
X13743991Y-11242936D02*
X13734468Y-11252460D01*
X13734468Y-11252460D02*
X13715420Y-11261984D01*
X13715420Y-11261984D02*
X13658277Y-11261984D01*
X13658277Y-11261984D02*
X13639229Y-11252460D01*
X13639229Y-11252460D02*
X13629706Y-11242936D01*
X13924944Y-11128650D02*
X13924944Y-11261984D01*
X13877325Y-11052460D02*
X13829706Y-11195317D01*
X13829706Y-11195317D02*
X13953515Y-11195317D01*
X14182087Y-11261984D02*
X14182087Y-11061984D01*
X14267801Y-11261984D02*
X14267801Y-11157222D01*
X14267801Y-11157222D02*
X14258277Y-11138174D01*
X14258277Y-11138174D02*
X14239230Y-11128650D01*
X14239230Y-11128650D02*
X14210658Y-11128650D01*
X14210658Y-11128650D02*
X14191610Y-11138174D01*
X14191610Y-11138174D02*
X14182087Y-11147698D01*
X14391610Y-11261984D02*
X14372563Y-11252460D01*
X14372563Y-11252460D02*
X14363039Y-11242936D01*
X14363039Y-11242936D02*
X14353515Y-11223888D01*
X14353515Y-11223888D02*
X14353515Y-11166746D01*
X14353515Y-11166746D02*
X14363039Y-11147698D01*
X14363039Y-11147698D02*
X14372563Y-11138174D01*
X14372563Y-11138174D02*
X14391610Y-11128650D01*
X14391610Y-11128650D02*
X14420182Y-11128650D01*
X14420182Y-11128650D02*
X14439230Y-11138174D01*
X14439230Y-11138174D02*
X14448753Y-11147698D01*
X14448753Y-11147698D02*
X14458277Y-11166746D01*
X14458277Y-11166746D02*
X14458277Y-11223888D01*
X14458277Y-11223888D02*
X14448753Y-11242936D01*
X14448753Y-11242936D02*
X14439230Y-11252460D01*
X14439230Y-11252460D02*
X14420182Y-11261984D01*
X14420182Y-11261984D02*
X14391610Y-11261984D01*
X14572563Y-11261984D02*
X14553515Y-11252460D01*
X14553515Y-11252460D02*
X14543991Y-11233412D01*
X14543991Y-11233412D02*
X14543991Y-11061984D01*
X14724944Y-11252460D02*
X14705896Y-11261984D01*
X14705896Y-11261984D02*
X14667801Y-11261984D01*
X14667801Y-11261984D02*
X14648753Y-11252460D01*
X14648753Y-11252460D02*
X14639230Y-11233412D01*
X14639230Y-11233412D02*
X14639230Y-11157222D01*
X14639230Y-11157222D02*
X14648753Y-11138174D01*
X14648753Y-11138174D02*
X14667801Y-11128650D01*
X14667801Y-11128650D02*
X14705896Y-11128650D01*
X14705896Y-11128650D02*
X14724944Y-11138174D01*
X14724944Y-11138174D02*
X14734468Y-11157222D01*
X14734468Y-11157222D02*
X14734468Y-11176270D01*
X14734468Y-11176270D02*
X14639230Y-11195317D01*
X14810658Y-11252460D02*
X14829706Y-11261984D01*
X14829706Y-11261984D02*
X14867801Y-11261984D01*
X14867801Y-11261984D02*
X14886849Y-11252460D01*
X14886849Y-11252460D02*
X14896372Y-11233412D01*
X14896372Y-11233412D02*
X14896372Y-11223888D01*
X14896372Y-11223888D02*
X14886849Y-11204841D01*
X14886849Y-11204841D02*
X14867801Y-11195317D01*
X14867801Y-11195317D02*
X14839230Y-11195317D01*
X14839230Y-11195317D02*
X14820182Y-11185793D01*
X14820182Y-11185793D02*
X14810658Y-11166746D01*
X14810658Y-11166746D02*
X14810658Y-11157222D01*
X14810658Y-11157222D02*
X14820182Y-11138174D01*
X14820182Y-11138174D02*
X14839230Y-11128650D01*
X14839230Y-11128650D02*
X14867801Y-11128650D01*
X14867801Y-11128650D02*
X14886849Y-11138174D01*
X14963039Y-11338174D02*
X14972563Y-11328650D01*
X14972563Y-11328650D02*
X14991611Y-11300079D01*
X14991611Y-11300079D02*
X15001134Y-11281031D01*
X15001134Y-11281031D02*
X15010658Y-11252460D01*
X15010658Y-11252460D02*
X15020182Y-11204841D01*
X15020182Y-11204841D02*
X15020182Y-11166746D01*
X15020182Y-11166746D02*
X15010658Y-11119127D01*
X15010658Y-11119127D02*
X15001134Y-11090555D01*
X15001134Y-11090555D02*
X14991611Y-11071508D01*
X14991611Y-11071508D02*
X14972563Y-11042936D01*
X14972563Y-11042936D02*
X14963039Y-11033412D01*
D12*
X9987981Y-11457481D02*
X9987981Y-11411519D01*
X9942019Y-11411519D01*
X9942019Y-11457481D01*
X9987981Y-11457481D01*
D11*
X10296372Y-11325984D02*
X10315420Y-11325984D01*
X10315420Y-11325984D02*
X10334467Y-11335508D01*
X10334467Y-11335508D02*
X10343991Y-11345031D01*
X10343991Y-11345031D02*
X10353515Y-11364079D01*
X10353515Y-11364079D02*
X10363039Y-11402174D01*
X10363039Y-11402174D02*
X10363039Y-11449793D01*
X10363039Y-11449793D02*
X10353515Y-11487888D01*
X10353515Y-11487888D02*
X10343991Y-11506936D01*
X10343991Y-11506936D02*
X10334467Y-11516460D01*
X10334467Y-11516460D02*
X10315420Y-11525984D01*
X10315420Y-11525984D02*
X10296372Y-11525984D01*
X10296372Y-11525984D02*
X10277324Y-11516460D01*
X10277324Y-11516460D02*
X10267801Y-11506936D01*
X10267801Y-11506936D02*
X10258277Y-11487888D01*
X10258277Y-11487888D02*
X10248753Y-11449793D01*
X10248753Y-11449793D02*
X10248753Y-11402174D01*
X10248753Y-11402174D02*
X10258277Y-11364079D01*
X10258277Y-11364079D02*
X10267801Y-11345031D01*
X10267801Y-11345031D02*
X10277324Y-11335508D01*
X10277324Y-11335508D02*
X10296372Y-11325984D01*
X10448753Y-11506936D02*
X10458277Y-11516460D01*
X10458277Y-11516460D02*
X10448753Y-11525984D01*
X10448753Y-11525984D02*
X10439229Y-11516460D01*
X10439229Y-11516460D02*
X10448753Y-11506936D01*
X10448753Y-11506936D02*
X10448753Y-11525984D01*
X10629705Y-11325984D02*
X10591610Y-11325984D01*
X10591610Y-11325984D02*
X10572563Y-11335508D01*
X10572563Y-11335508D02*
X10563039Y-11345031D01*
X10563039Y-11345031D02*
X10543991Y-11373603D01*
X10543991Y-11373603D02*
X10534467Y-11411698D01*
X10534467Y-11411698D02*
X10534467Y-11487888D01*
X10534467Y-11487888D02*
X10543991Y-11506936D01*
X10543991Y-11506936D02*
X10553515Y-11516460D01*
X10553515Y-11516460D02*
X10572563Y-11525984D01*
X10572563Y-11525984D02*
X10610658Y-11525984D01*
X10610658Y-11525984D02*
X10629705Y-11516460D01*
X10629705Y-11516460D02*
X10639229Y-11506936D01*
X10639229Y-11506936D02*
X10648753Y-11487888D01*
X10648753Y-11487888D02*
X10648753Y-11440269D01*
X10648753Y-11440269D02*
X10639229Y-11421222D01*
X10639229Y-11421222D02*
X10629705Y-11411698D01*
X10629705Y-11411698D02*
X10610658Y-11402174D01*
X10610658Y-11402174D02*
X10572563Y-11402174D01*
X10572563Y-11402174D02*
X10553515Y-11411698D01*
X10553515Y-11411698D02*
X10543991Y-11421222D01*
X10543991Y-11421222D02*
X10534467Y-11440269D01*
X10829705Y-11325984D02*
X10734467Y-11325984D01*
X10734467Y-11325984D02*
X10724944Y-11421222D01*
X10724944Y-11421222D02*
X10734467Y-11411698D01*
X10734467Y-11411698D02*
X10753515Y-11402174D01*
X10753515Y-11402174D02*
X10801134Y-11402174D01*
X10801134Y-11402174D02*
X10820182Y-11411698D01*
X10820182Y-11411698D02*
X10829705Y-11421222D01*
X10829705Y-11421222D02*
X10839229Y-11440269D01*
X10839229Y-11440269D02*
X10839229Y-11487888D01*
X10839229Y-11487888D02*
X10829705Y-11506936D01*
X10829705Y-11506936D02*
X10820182Y-11516460D01*
X10820182Y-11516460D02*
X10801134Y-11525984D01*
X10801134Y-11525984D02*
X10753515Y-11525984D01*
X10753515Y-11525984D02*
X10734467Y-11516460D01*
X10734467Y-11516460D02*
X10724944Y-11506936D01*
X10963039Y-11325984D02*
X10982086Y-11325984D01*
X10982086Y-11325984D02*
X11001134Y-11335508D01*
X11001134Y-11335508D02*
X11010658Y-11345031D01*
X11010658Y-11345031D02*
X11020182Y-11364079D01*
X11020182Y-11364079D02*
X11029705Y-11402174D01*
X11029705Y-11402174D02*
X11029705Y-11449793D01*
X11029705Y-11449793D02*
X11020182Y-11487888D01*
X11020182Y-11487888D02*
X11010658Y-11506936D01*
X11010658Y-11506936D02*
X11001134Y-11516460D01*
X11001134Y-11516460D02*
X10982086Y-11525984D01*
X10982086Y-11525984D02*
X10963039Y-11525984D01*
X10963039Y-11525984D02*
X10943991Y-11516460D01*
X10943991Y-11516460D02*
X10934467Y-11506936D01*
X10934467Y-11506936D02*
X10924944Y-11487888D01*
X10924944Y-11487888D02*
X10915420Y-11449793D01*
X10915420Y-11449793D02*
X10915420Y-11402174D01*
X10915420Y-11402174D02*
X10924944Y-11364079D01*
X10924944Y-11364079D02*
X10934467Y-11345031D01*
X10934467Y-11345031D02*
X10943991Y-11335508D01*
X10943991Y-11335508D02*
X10963039Y-11325984D01*
X11115420Y-11525984D02*
X11115420Y-11392650D01*
X11115420Y-11411698D02*
X11124944Y-11402174D01*
X11124944Y-11402174D02*
X11143991Y-11392650D01*
X11143991Y-11392650D02*
X11172563Y-11392650D01*
X11172563Y-11392650D02*
X11191610Y-11402174D01*
X11191610Y-11402174D02*
X11201134Y-11421222D01*
X11201134Y-11421222D02*
X11201134Y-11525984D01*
X11201134Y-11421222D02*
X11210658Y-11402174D01*
X11210658Y-11402174D02*
X11229705Y-11392650D01*
X11229705Y-11392650D02*
X11258277Y-11392650D01*
X11258277Y-11392650D02*
X11277324Y-11402174D01*
X11277324Y-11402174D02*
X11286848Y-11421222D01*
X11286848Y-11421222D02*
X11286848Y-11525984D01*
X11382086Y-11525984D02*
X11382086Y-11392650D01*
X11382086Y-11411698D02*
X11391610Y-11402174D01*
X11391610Y-11402174D02*
X11410658Y-11392650D01*
X11410658Y-11392650D02*
X11439229Y-11392650D01*
X11439229Y-11392650D02*
X11458277Y-11402174D01*
X11458277Y-11402174D02*
X11467801Y-11421222D01*
X11467801Y-11421222D02*
X11467801Y-11525984D01*
X11467801Y-11421222D02*
X11477324Y-11402174D01*
X11477324Y-11402174D02*
X11496372Y-11392650D01*
X11496372Y-11392650D02*
X11524943Y-11392650D01*
X11524943Y-11392650D02*
X11543991Y-11402174D01*
X11543991Y-11402174D02*
X11553515Y-11421222D01*
X11553515Y-11421222D02*
X11553515Y-11525984D01*
X11943991Y-11316460D02*
X11772563Y-11573603D01*
X12201134Y-11325984D02*
X12220182Y-11325984D01*
X12220182Y-11325984D02*
X12239229Y-11335508D01*
X12239229Y-11335508D02*
X12248753Y-11345031D01*
X12248753Y-11345031D02*
X12258277Y-11364079D01*
X12258277Y-11364079D02*
X12267801Y-11402174D01*
X12267801Y-11402174D02*
X12267801Y-11449793D01*
X12267801Y-11449793D02*
X12258277Y-11487888D01*
X12258277Y-11487888D02*
X12248753Y-11506936D01*
X12248753Y-11506936D02*
X12239229Y-11516460D01*
X12239229Y-11516460D02*
X12220182Y-11525984D01*
X12220182Y-11525984D02*
X12201134Y-11525984D01*
X12201134Y-11525984D02*
X12182086Y-11516460D01*
X12182086Y-11516460D02*
X12172563Y-11506936D01*
X12172563Y-11506936D02*
X12163039Y-11487888D01*
X12163039Y-11487888D02*
X12153515Y-11449793D01*
X12153515Y-11449793D02*
X12153515Y-11402174D01*
X12153515Y-11402174D02*
X12163039Y-11364079D01*
X12163039Y-11364079D02*
X12172563Y-11345031D01*
X12172563Y-11345031D02*
X12182086Y-11335508D01*
X12182086Y-11335508D02*
X12201134Y-11325984D01*
X12353515Y-11506936D02*
X12363039Y-11516460D01*
X12363039Y-11516460D02*
X12353515Y-11525984D01*
X12353515Y-11525984D02*
X12343991Y-11516460D01*
X12343991Y-11516460D02*
X12353515Y-11506936D01*
X12353515Y-11506936D02*
X12353515Y-11525984D01*
X12486848Y-11325984D02*
X12505896Y-11325984D01*
X12505896Y-11325984D02*
X12524944Y-11335508D01*
X12524944Y-11335508D02*
X12534467Y-11345031D01*
X12534467Y-11345031D02*
X12543991Y-11364079D01*
X12543991Y-11364079D02*
X12553515Y-11402174D01*
X12553515Y-11402174D02*
X12553515Y-11449793D01*
X12553515Y-11449793D02*
X12543991Y-11487888D01*
X12543991Y-11487888D02*
X12534467Y-11506936D01*
X12534467Y-11506936D02*
X12524944Y-11516460D01*
X12524944Y-11516460D02*
X12505896Y-11525984D01*
X12505896Y-11525984D02*
X12486848Y-11525984D01*
X12486848Y-11525984D02*
X12467801Y-11516460D01*
X12467801Y-11516460D02*
X12458277Y-11506936D01*
X12458277Y-11506936D02*
X12448753Y-11487888D01*
X12448753Y-11487888D02*
X12439229Y-11449793D01*
X12439229Y-11449793D02*
X12439229Y-11402174D01*
X12439229Y-11402174D02*
X12448753Y-11364079D01*
X12448753Y-11364079D02*
X12458277Y-11345031D01*
X12458277Y-11345031D02*
X12467801Y-11335508D01*
X12467801Y-11335508D02*
X12486848Y-11325984D01*
X12629706Y-11345031D02*
X12639229Y-11335508D01*
X12639229Y-11335508D02*
X12658277Y-11325984D01*
X12658277Y-11325984D02*
X12705896Y-11325984D01*
X12705896Y-11325984D02*
X12724944Y-11335508D01*
X12724944Y-11335508D02*
X12734467Y-11345031D01*
X12734467Y-11345031D02*
X12743991Y-11364079D01*
X12743991Y-11364079D02*
X12743991Y-11383127D01*
X12743991Y-11383127D02*
X12734467Y-11411698D01*
X12734467Y-11411698D02*
X12620182Y-11525984D01*
X12620182Y-11525984D02*
X12743991Y-11525984D01*
X12924944Y-11325984D02*
X12829706Y-11325984D01*
X12829706Y-11325984D02*
X12820182Y-11421222D01*
X12820182Y-11421222D02*
X12829706Y-11411698D01*
X12829706Y-11411698D02*
X12848753Y-11402174D01*
X12848753Y-11402174D02*
X12896372Y-11402174D01*
X12896372Y-11402174D02*
X12915420Y-11411698D01*
X12915420Y-11411698D02*
X12924944Y-11421222D01*
X12924944Y-11421222D02*
X12934467Y-11440269D01*
X12934467Y-11440269D02*
X12934467Y-11487888D01*
X12934467Y-11487888D02*
X12924944Y-11506936D01*
X12924944Y-11506936D02*
X12915420Y-11516460D01*
X12915420Y-11516460D02*
X12896372Y-11525984D01*
X12896372Y-11525984D02*
X12848753Y-11525984D01*
X12848753Y-11525984D02*
X12829706Y-11516460D01*
X12829706Y-11516460D02*
X12820182Y-11506936D01*
X13105896Y-11325984D02*
X13067801Y-11325984D01*
X13067801Y-11325984D02*
X13048753Y-11335508D01*
X13048753Y-11335508D02*
X13039229Y-11345031D01*
X13039229Y-11345031D02*
X13020182Y-11373603D01*
X13020182Y-11373603D02*
X13010658Y-11411698D01*
X13010658Y-11411698D02*
X13010658Y-11487888D01*
X13010658Y-11487888D02*
X13020182Y-11506936D01*
X13020182Y-11506936D02*
X13029706Y-11516460D01*
X13029706Y-11516460D02*
X13048753Y-11525984D01*
X13048753Y-11525984D02*
X13086848Y-11525984D01*
X13086848Y-11525984D02*
X13105896Y-11516460D01*
X13105896Y-11516460D02*
X13115420Y-11506936D01*
X13115420Y-11506936D02*
X13124944Y-11487888D01*
X13124944Y-11487888D02*
X13124944Y-11440269D01*
X13124944Y-11440269D02*
X13115420Y-11421222D01*
X13115420Y-11421222D02*
X13105896Y-11411698D01*
X13105896Y-11411698D02*
X13086848Y-11402174D01*
X13086848Y-11402174D02*
X13048753Y-11402174D01*
X13048753Y-11402174D02*
X13029706Y-11411698D01*
X13029706Y-11411698D02*
X13020182Y-11421222D01*
X13020182Y-11421222D02*
X13010658Y-11440269D01*
X13201134Y-11325984D02*
X13201134Y-11364079D01*
X13277325Y-11325984D02*
X13277325Y-11364079D01*
X13572563Y-11602174D02*
X13563039Y-11592650D01*
X13563039Y-11592650D02*
X13543991Y-11564079D01*
X13543991Y-11564079D02*
X13534468Y-11545031D01*
X13534468Y-11545031D02*
X13524944Y-11516460D01*
X13524944Y-11516460D02*
X13515420Y-11468841D01*
X13515420Y-11468841D02*
X13515420Y-11430746D01*
X13515420Y-11430746D02*
X13524944Y-11383127D01*
X13524944Y-11383127D02*
X13534468Y-11354555D01*
X13534468Y-11354555D02*
X13543991Y-11335508D01*
X13543991Y-11335508D02*
X13563039Y-11306936D01*
X13563039Y-11306936D02*
X13572563Y-11297412D01*
X13686848Y-11325984D02*
X13705896Y-11325984D01*
X13705896Y-11325984D02*
X13724944Y-11335508D01*
X13724944Y-11335508D02*
X13734468Y-11345031D01*
X13734468Y-11345031D02*
X13743991Y-11364079D01*
X13743991Y-11364079D02*
X13753515Y-11402174D01*
X13753515Y-11402174D02*
X13753515Y-11449793D01*
X13753515Y-11449793D02*
X13743991Y-11487888D01*
X13743991Y-11487888D02*
X13734468Y-11506936D01*
X13734468Y-11506936D02*
X13724944Y-11516460D01*
X13724944Y-11516460D02*
X13705896Y-11525984D01*
X13705896Y-11525984D02*
X13686848Y-11525984D01*
X13686848Y-11525984D02*
X13667801Y-11516460D01*
X13667801Y-11516460D02*
X13658277Y-11506936D01*
X13658277Y-11506936D02*
X13648753Y-11487888D01*
X13648753Y-11487888D02*
X13639229Y-11449793D01*
X13639229Y-11449793D02*
X13639229Y-11402174D01*
X13639229Y-11402174D02*
X13648753Y-11364079D01*
X13648753Y-11364079D02*
X13658277Y-11345031D01*
X13658277Y-11345031D02*
X13667801Y-11335508D01*
X13667801Y-11335508D02*
X13686848Y-11325984D01*
X13991610Y-11525984D02*
X13991610Y-11325984D01*
X14077325Y-11525984D02*
X14077325Y-11421222D01*
X14077325Y-11421222D02*
X14067801Y-11402174D01*
X14067801Y-11402174D02*
X14048753Y-11392650D01*
X14048753Y-11392650D02*
X14020182Y-11392650D01*
X14020182Y-11392650D02*
X14001134Y-11402174D01*
X14001134Y-11402174D02*
X13991610Y-11411698D01*
X14201134Y-11525984D02*
X14182087Y-11516460D01*
X14182087Y-11516460D02*
X14172563Y-11506936D01*
X14172563Y-11506936D02*
X14163039Y-11487888D01*
X14163039Y-11487888D02*
X14163039Y-11430746D01*
X14163039Y-11430746D02*
X14172563Y-11411698D01*
X14172563Y-11411698D02*
X14182087Y-11402174D01*
X14182087Y-11402174D02*
X14201134Y-11392650D01*
X14201134Y-11392650D02*
X14229706Y-11392650D01*
X14229706Y-11392650D02*
X14248753Y-11402174D01*
X14248753Y-11402174D02*
X14258277Y-11411698D01*
X14258277Y-11411698D02*
X14267801Y-11430746D01*
X14267801Y-11430746D02*
X14267801Y-11487888D01*
X14267801Y-11487888D02*
X14258277Y-11506936D01*
X14258277Y-11506936D02*
X14248753Y-11516460D01*
X14248753Y-11516460D02*
X14229706Y-11525984D01*
X14229706Y-11525984D02*
X14201134Y-11525984D01*
X14382087Y-11525984D02*
X14363039Y-11516460D01*
X14363039Y-11516460D02*
X14353515Y-11497412D01*
X14353515Y-11497412D02*
X14353515Y-11325984D01*
X14534468Y-11516460D02*
X14515420Y-11525984D01*
X14515420Y-11525984D02*
X14477325Y-11525984D01*
X14477325Y-11525984D02*
X14458277Y-11516460D01*
X14458277Y-11516460D02*
X14448753Y-11497412D01*
X14448753Y-11497412D02*
X14448753Y-11421222D01*
X14448753Y-11421222D02*
X14458277Y-11402174D01*
X14458277Y-11402174D02*
X14477325Y-11392650D01*
X14477325Y-11392650D02*
X14515420Y-11392650D01*
X14515420Y-11392650D02*
X14534468Y-11402174D01*
X14534468Y-11402174D02*
X14543991Y-11421222D01*
X14543991Y-11421222D02*
X14543991Y-11440269D01*
X14543991Y-11440269D02*
X14448753Y-11459317D01*
X14620182Y-11516460D02*
X14639230Y-11525984D01*
X14639230Y-11525984D02*
X14677325Y-11525984D01*
X14677325Y-11525984D02*
X14696372Y-11516460D01*
X14696372Y-11516460D02*
X14705896Y-11497412D01*
X14705896Y-11497412D02*
X14705896Y-11487888D01*
X14705896Y-11487888D02*
X14696372Y-11468841D01*
X14696372Y-11468841D02*
X14677325Y-11459317D01*
X14677325Y-11459317D02*
X14648753Y-11459317D01*
X14648753Y-11459317D02*
X14629706Y-11449793D01*
X14629706Y-11449793D02*
X14620182Y-11430746D01*
X14620182Y-11430746D02*
X14620182Y-11421222D01*
X14620182Y-11421222D02*
X14629706Y-11402174D01*
X14629706Y-11402174D02*
X14648753Y-11392650D01*
X14648753Y-11392650D02*
X14677325Y-11392650D01*
X14677325Y-11392650D02*
X14696372Y-11402174D01*
X14943992Y-11449793D02*
X15096373Y-11449793D01*
X15020182Y-11525984D02*
X15020182Y-11373603D01*
X15429706Y-11392650D02*
X15429706Y-11525984D01*
X15382087Y-11316460D02*
X15334468Y-11459317D01*
X15334468Y-11459317D02*
X15458277Y-11459317D01*
X15677325Y-11516460D02*
X15696373Y-11525984D01*
X15696373Y-11525984D02*
X15734468Y-11525984D01*
X15734468Y-11525984D02*
X15753515Y-11516460D01*
X15753515Y-11516460D02*
X15763039Y-11497412D01*
X15763039Y-11497412D02*
X15763039Y-11487888D01*
X15763039Y-11487888D02*
X15753515Y-11468841D01*
X15753515Y-11468841D02*
X15734468Y-11459317D01*
X15734468Y-11459317D02*
X15705896Y-11459317D01*
X15705896Y-11459317D02*
X15686849Y-11449793D01*
X15686849Y-11449793D02*
X15677325Y-11430746D01*
X15677325Y-11430746D02*
X15677325Y-11421222D01*
X15677325Y-11421222D02*
X15686849Y-11402174D01*
X15686849Y-11402174D02*
X15705896Y-11392650D01*
X15705896Y-11392650D02*
X15734468Y-11392650D01*
X15734468Y-11392650D02*
X15753515Y-11402174D01*
X15877325Y-11525984D02*
X15858277Y-11516460D01*
X15858277Y-11516460D02*
X15848754Y-11497412D01*
X15848754Y-11497412D02*
X15848754Y-11325984D01*
X15982087Y-11525984D02*
X15963039Y-11516460D01*
X15963039Y-11516460D02*
X15953515Y-11506936D01*
X15953515Y-11506936D02*
X15943992Y-11487888D01*
X15943992Y-11487888D02*
X15943992Y-11430746D01*
X15943992Y-11430746D02*
X15953515Y-11411698D01*
X15953515Y-11411698D02*
X15963039Y-11402174D01*
X15963039Y-11402174D02*
X15982087Y-11392650D01*
X15982087Y-11392650D02*
X16010658Y-11392650D01*
X16010658Y-11392650D02*
X16029706Y-11402174D01*
X16029706Y-11402174D02*
X16039230Y-11411698D01*
X16039230Y-11411698D02*
X16048754Y-11430746D01*
X16048754Y-11430746D02*
X16048754Y-11487888D01*
X16048754Y-11487888D02*
X16039230Y-11506936D01*
X16039230Y-11506936D02*
X16029706Y-11516460D01*
X16029706Y-11516460D02*
X16010658Y-11525984D01*
X16010658Y-11525984D02*
X15982087Y-11525984D01*
X16105896Y-11392650D02*
X16182087Y-11392650D01*
X16134468Y-11325984D02*
X16134468Y-11497412D01*
X16134468Y-11497412D02*
X16143992Y-11516460D01*
X16143992Y-11516460D02*
X16163039Y-11525984D01*
X16163039Y-11525984D02*
X16182087Y-11525984D01*
X16239230Y-11516460D02*
X16258277Y-11525984D01*
X16258277Y-11525984D02*
X16296373Y-11525984D01*
X16296373Y-11525984D02*
X16315420Y-11516460D01*
X16315420Y-11516460D02*
X16324944Y-11497412D01*
X16324944Y-11497412D02*
X16324944Y-11487888D01*
X16324944Y-11487888D02*
X16315420Y-11468841D01*
X16315420Y-11468841D02*
X16296373Y-11459317D01*
X16296373Y-11459317D02*
X16267801Y-11459317D01*
X16267801Y-11459317D02*
X16248754Y-11449793D01*
X16248754Y-11449793D02*
X16239230Y-11430746D01*
X16239230Y-11430746D02*
X16239230Y-11421222D01*
X16239230Y-11421222D02*
X16248754Y-11402174D01*
X16248754Y-11402174D02*
X16267801Y-11392650D01*
X16267801Y-11392650D02*
X16296373Y-11392650D01*
X16296373Y-11392650D02*
X16315420Y-11402174D01*
X16391611Y-11602174D02*
X16401135Y-11592650D01*
X16401135Y-11592650D02*
X16420182Y-11564079D01*
X16420182Y-11564079D02*
X16429706Y-11545031D01*
X16429706Y-11545031D02*
X16439230Y-11516460D01*
X16439230Y-11516460D02*
X16448754Y-11468841D01*
X16448754Y-11468841D02*
X16448754Y-11430746D01*
X16448754Y-11430746D02*
X16439230Y-11383127D01*
X16439230Y-11383127D02*
X16429706Y-11354555D01*
X16429706Y-11354555D02*
X16420182Y-11335508D01*
X16420182Y-11335508D02*
X16401135Y-11306936D01*
X16401135Y-11306936D02*
X16391611Y-11297412D01*
D12*
X9947500Y-11748500D02*
X9997500Y-11698500D01*
X9947500Y-11648500D01*
X9897500Y-11698500D01*
X9947500Y-11748500D01*
D11*
X10363039Y-11789984D02*
X10248753Y-11789984D01*
X10305896Y-11789984D02*
X10305896Y-11589984D01*
X10305896Y-11589984D02*
X10286848Y-11618555D01*
X10286848Y-11618555D02*
X10267801Y-11637603D01*
X10267801Y-11637603D02*
X10248753Y-11647127D01*
X10448753Y-11770936D02*
X10458277Y-11780460D01*
X10458277Y-11780460D02*
X10448753Y-11789984D01*
X10448753Y-11789984D02*
X10439229Y-11780460D01*
X10439229Y-11780460D02*
X10448753Y-11770936D01*
X10448753Y-11770936D02*
X10448753Y-11789984D01*
X10582086Y-11589984D02*
X10601134Y-11589984D01*
X10601134Y-11589984D02*
X10620182Y-11599508D01*
X10620182Y-11599508D02*
X10629705Y-11609031D01*
X10629705Y-11609031D02*
X10639229Y-11628079D01*
X10639229Y-11628079D02*
X10648753Y-11666174D01*
X10648753Y-11666174D02*
X10648753Y-11713793D01*
X10648753Y-11713793D02*
X10639229Y-11751888D01*
X10639229Y-11751888D02*
X10629705Y-11770936D01*
X10629705Y-11770936D02*
X10620182Y-11780460D01*
X10620182Y-11780460D02*
X10601134Y-11789984D01*
X10601134Y-11789984D02*
X10582086Y-11789984D01*
X10582086Y-11789984D02*
X10563039Y-11780460D01*
X10563039Y-11780460D02*
X10553515Y-11770936D01*
X10553515Y-11770936D02*
X10543991Y-11751888D01*
X10543991Y-11751888D02*
X10534467Y-11713793D01*
X10534467Y-11713793D02*
X10534467Y-11666174D01*
X10534467Y-11666174D02*
X10543991Y-11628079D01*
X10543991Y-11628079D02*
X10553515Y-11609031D01*
X10553515Y-11609031D02*
X10563039Y-11599508D01*
X10563039Y-11599508D02*
X10582086Y-11589984D01*
X10772563Y-11589984D02*
X10791610Y-11589984D01*
X10791610Y-11589984D02*
X10810658Y-11599508D01*
X10810658Y-11599508D02*
X10820182Y-11609031D01*
X10820182Y-11609031D02*
X10829705Y-11628079D01*
X10829705Y-11628079D02*
X10839229Y-11666174D01*
X10839229Y-11666174D02*
X10839229Y-11713793D01*
X10839229Y-11713793D02*
X10829705Y-11751888D01*
X10829705Y-11751888D02*
X10820182Y-11770936D01*
X10820182Y-11770936D02*
X10810658Y-11780460D01*
X10810658Y-11780460D02*
X10791610Y-11789984D01*
X10791610Y-11789984D02*
X10772563Y-11789984D01*
X10772563Y-11789984D02*
X10753515Y-11780460D01*
X10753515Y-11780460D02*
X10743991Y-11770936D01*
X10743991Y-11770936D02*
X10734467Y-11751888D01*
X10734467Y-11751888D02*
X10724944Y-11713793D01*
X10724944Y-11713793D02*
X10724944Y-11666174D01*
X10724944Y-11666174D02*
X10734467Y-11628079D01*
X10734467Y-11628079D02*
X10743991Y-11609031D01*
X10743991Y-11609031D02*
X10753515Y-11599508D01*
X10753515Y-11599508D02*
X10772563Y-11589984D01*
X10963039Y-11589984D02*
X10982086Y-11589984D01*
X10982086Y-11589984D02*
X11001134Y-11599508D01*
X11001134Y-11599508D02*
X11010658Y-11609031D01*
X11010658Y-11609031D02*
X11020182Y-11628079D01*
X11020182Y-11628079D02*
X11029705Y-11666174D01*
X11029705Y-11666174D02*
X11029705Y-11713793D01*
X11029705Y-11713793D02*
X11020182Y-11751888D01*
X11020182Y-11751888D02*
X11010658Y-11770936D01*
X11010658Y-11770936D02*
X11001134Y-11780460D01*
X11001134Y-11780460D02*
X10982086Y-11789984D01*
X10982086Y-11789984D02*
X10963039Y-11789984D01*
X10963039Y-11789984D02*
X10943991Y-11780460D01*
X10943991Y-11780460D02*
X10934467Y-11770936D01*
X10934467Y-11770936D02*
X10924944Y-11751888D01*
X10924944Y-11751888D02*
X10915420Y-11713793D01*
X10915420Y-11713793D02*
X10915420Y-11666174D01*
X10915420Y-11666174D02*
X10924944Y-11628079D01*
X10924944Y-11628079D02*
X10934467Y-11609031D01*
X10934467Y-11609031D02*
X10943991Y-11599508D01*
X10943991Y-11599508D02*
X10963039Y-11589984D01*
X11115420Y-11789984D02*
X11115420Y-11656650D01*
X11115420Y-11675698D02*
X11124944Y-11666174D01*
X11124944Y-11666174D02*
X11143991Y-11656650D01*
X11143991Y-11656650D02*
X11172563Y-11656650D01*
X11172563Y-11656650D02*
X11191610Y-11666174D01*
X11191610Y-11666174D02*
X11201134Y-11685222D01*
X11201134Y-11685222D02*
X11201134Y-11789984D01*
X11201134Y-11685222D02*
X11210658Y-11666174D01*
X11210658Y-11666174D02*
X11229705Y-11656650D01*
X11229705Y-11656650D02*
X11258277Y-11656650D01*
X11258277Y-11656650D02*
X11277324Y-11666174D01*
X11277324Y-11666174D02*
X11286848Y-11685222D01*
X11286848Y-11685222D02*
X11286848Y-11789984D01*
X11382086Y-11789984D02*
X11382086Y-11656650D01*
X11382086Y-11675698D02*
X11391610Y-11666174D01*
X11391610Y-11666174D02*
X11410658Y-11656650D01*
X11410658Y-11656650D02*
X11439229Y-11656650D01*
X11439229Y-11656650D02*
X11458277Y-11666174D01*
X11458277Y-11666174D02*
X11467801Y-11685222D01*
X11467801Y-11685222D02*
X11467801Y-11789984D01*
X11467801Y-11685222D02*
X11477324Y-11666174D01*
X11477324Y-11666174D02*
X11496372Y-11656650D01*
X11496372Y-11656650D02*
X11524943Y-11656650D01*
X11524943Y-11656650D02*
X11543991Y-11666174D01*
X11543991Y-11666174D02*
X11553515Y-11685222D01*
X11553515Y-11685222D02*
X11553515Y-11789984D01*
X11943991Y-11580460D02*
X11772563Y-11837603D01*
X12201134Y-11589984D02*
X12220182Y-11589984D01*
X12220182Y-11589984D02*
X12239229Y-11599508D01*
X12239229Y-11599508D02*
X12248753Y-11609031D01*
X12248753Y-11609031D02*
X12258277Y-11628079D01*
X12258277Y-11628079D02*
X12267801Y-11666174D01*
X12267801Y-11666174D02*
X12267801Y-11713793D01*
X12267801Y-11713793D02*
X12258277Y-11751888D01*
X12258277Y-11751888D02*
X12248753Y-11770936D01*
X12248753Y-11770936D02*
X12239229Y-11780460D01*
X12239229Y-11780460D02*
X12220182Y-11789984D01*
X12220182Y-11789984D02*
X12201134Y-11789984D01*
X12201134Y-11789984D02*
X12182086Y-11780460D01*
X12182086Y-11780460D02*
X12172563Y-11770936D01*
X12172563Y-11770936D02*
X12163039Y-11751888D01*
X12163039Y-11751888D02*
X12153515Y-11713793D01*
X12153515Y-11713793D02*
X12153515Y-11666174D01*
X12153515Y-11666174D02*
X12163039Y-11628079D01*
X12163039Y-11628079D02*
X12172563Y-11609031D01*
X12172563Y-11609031D02*
X12182086Y-11599508D01*
X12182086Y-11599508D02*
X12201134Y-11589984D01*
X12353515Y-11770936D02*
X12363039Y-11780460D01*
X12363039Y-11780460D02*
X12353515Y-11789984D01*
X12353515Y-11789984D02*
X12343991Y-11780460D01*
X12343991Y-11780460D02*
X12353515Y-11770936D01*
X12353515Y-11770936D02*
X12353515Y-11789984D01*
X12486848Y-11589984D02*
X12505896Y-11589984D01*
X12505896Y-11589984D02*
X12524944Y-11599508D01*
X12524944Y-11599508D02*
X12534467Y-11609031D01*
X12534467Y-11609031D02*
X12543991Y-11628079D01*
X12543991Y-11628079D02*
X12553515Y-11666174D01*
X12553515Y-11666174D02*
X12553515Y-11713793D01*
X12553515Y-11713793D02*
X12543991Y-11751888D01*
X12543991Y-11751888D02*
X12534467Y-11770936D01*
X12534467Y-11770936D02*
X12524944Y-11780460D01*
X12524944Y-11780460D02*
X12505896Y-11789984D01*
X12505896Y-11789984D02*
X12486848Y-11789984D01*
X12486848Y-11789984D02*
X12467801Y-11780460D01*
X12467801Y-11780460D02*
X12458277Y-11770936D01*
X12458277Y-11770936D02*
X12448753Y-11751888D01*
X12448753Y-11751888D02*
X12439229Y-11713793D01*
X12439229Y-11713793D02*
X12439229Y-11666174D01*
X12439229Y-11666174D02*
X12448753Y-11628079D01*
X12448753Y-11628079D02*
X12458277Y-11609031D01*
X12458277Y-11609031D02*
X12467801Y-11599508D01*
X12467801Y-11599508D02*
X12486848Y-11589984D01*
X12620182Y-11589984D02*
X12743991Y-11589984D01*
X12743991Y-11589984D02*
X12677325Y-11666174D01*
X12677325Y-11666174D02*
X12705896Y-11666174D01*
X12705896Y-11666174D02*
X12724944Y-11675698D01*
X12724944Y-11675698D02*
X12734467Y-11685222D01*
X12734467Y-11685222D02*
X12743991Y-11704269D01*
X12743991Y-11704269D02*
X12743991Y-11751888D01*
X12743991Y-11751888D02*
X12734467Y-11770936D01*
X12734467Y-11770936D02*
X12724944Y-11780460D01*
X12724944Y-11780460D02*
X12705896Y-11789984D01*
X12705896Y-11789984D02*
X12648753Y-11789984D01*
X12648753Y-11789984D02*
X12629706Y-11780460D01*
X12629706Y-11780460D02*
X12620182Y-11770936D01*
X12839229Y-11789984D02*
X12877325Y-11789984D01*
X12877325Y-11789984D02*
X12896372Y-11780460D01*
X12896372Y-11780460D02*
X12905896Y-11770936D01*
X12905896Y-11770936D02*
X12924944Y-11742365D01*
X12924944Y-11742365D02*
X12934467Y-11704269D01*
X12934467Y-11704269D02*
X12934467Y-11628079D01*
X12934467Y-11628079D02*
X12924944Y-11609031D01*
X12924944Y-11609031D02*
X12915420Y-11599508D01*
X12915420Y-11599508D02*
X12896372Y-11589984D01*
X12896372Y-11589984D02*
X12858277Y-11589984D01*
X12858277Y-11589984D02*
X12839229Y-11599508D01*
X12839229Y-11599508D02*
X12829706Y-11609031D01*
X12829706Y-11609031D02*
X12820182Y-11628079D01*
X12820182Y-11628079D02*
X12820182Y-11675698D01*
X12820182Y-11675698D02*
X12829706Y-11694746D01*
X12829706Y-11694746D02*
X12839229Y-11704269D01*
X12839229Y-11704269D02*
X12858277Y-11713793D01*
X12858277Y-11713793D02*
X12896372Y-11713793D01*
X12896372Y-11713793D02*
X12915420Y-11704269D01*
X12915420Y-11704269D02*
X12924944Y-11694746D01*
X12924944Y-11694746D02*
X12934467Y-11675698D01*
X13105896Y-11656650D02*
X13105896Y-11789984D01*
X13058277Y-11580460D02*
X13010658Y-11723317D01*
X13010658Y-11723317D02*
X13134467Y-11723317D01*
X13201134Y-11589984D02*
X13201134Y-11628079D01*
X13277325Y-11589984D02*
X13277325Y-11628079D01*
X13572563Y-11866174D02*
X13563039Y-11856650D01*
X13563039Y-11856650D02*
X13543991Y-11828079D01*
X13543991Y-11828079D02*
X13534468Y-11809031D01*
X13534468Y-11809031D02*
X13524944Y-11780460D01*
X13524944Y-11780460D02*
X13515420Y-11732841D01*
X13515420Y-11732841D02*
X13515420Y-11694746D01*
X13515420Y-11694746D02*
X13524944Y-11647127D01*
X13524944Y-11647127D02*
X13534468Y-11618555D01*
X13534468Y-11618555D02*
X13543991Y-11599508D01*
X13543991Y-11599508D02*
X13563039Y-11570936D01*
X13563039Y-11570936D02*
X13572563Y-11561412D01*
X13753515Y-11789984D02*
X13639229Y-11789984D01*
X13696372Y-11789984D02*
X13696372Y-11589984D01*
X13696372Y-11589984D02*
X13677325Y-11618555D01*
X13677325Y-11618555D02*
X13658277Y-11637603D01*
X13658277Y-11637603D02*
X13639229Y-11647127D01*
X13934468Y-11589984D02*
X13839229Y-11589984D01*
X13839229Y-11589984D02*
X13829706Y-11685222D01*
X13829706Y-11685222D02*
X13839229Y-11675698D01*
X13839229Y-11675698D02*
X13858277Y-11666174D01*
X13858277Y-11666174D02*
X13905896Y-11666174D01*
X13905896Y-11666174D02*
X13924944Y-11675698D01*
X13924944Y-11675698D02*
X13934468Y-11685222D01*
X13934468Y-11685222D02*
X13943991Y-11704269D01*
X13943991Y-11704269D02*
X13943991Y-11751888D01*
X13943991Y-11751888D02*
X13934468Y-11770936D01*
X13934468Y-11770936D02*
X13924944Y-11780460D01*
X13924944Y-11780460D02*
X13905896Y-11789984D01*
X13905896Y-11789984D02*
X13858277Y-11789984D01*
X13858277Y-11789984D02*
X13839229Y-11780460D01*
X13839229Y-11780460D02*
X13829706Y-11770936D01*
X14182087Y-11789984D02*
X14182087Y-11589984D01*
X14267801Y-11789984D02*
X14267801Y-11685222D01*
X14267801Y-11685222D02*
X14258277Y-11666174D01*
X14258277Y-11666174D02*
X14239230Y-11656650D01*
X14239230Y-11656650D02*
X14210658Y-11656650D01*
X14210658Y-11656650D02*
X14191610Y-11666174D01*
X14191610Y-11666174D02*
X14182087Y-11675698D01*
X14391610Y-11789984D02*
X14372563Y-11780460D01*
X14372563Y-11780460D02*
X14363039Y-11770936D01*
X14363039Y-11770936D02*
X14353515Y-11751888D01*
X14353515Y-11751888D02*
X14353515Y-11694746D01*
X14353515Y-11694746D02*
X14363039Y-11675698D01*
X14363039Y-11675698D02*
X14372563Y-11666174D01*
X14372563Y-11666174D02*
X14391610Y-11656650D01*
X14391610Y-11656650D02*
X14420182Y-11656650D01*
X14420182Y-11656650D02*
X14439230Y-11666174D01*
X14439230Y-11666174D02*
X14448753Y-11675698D01*
X14448753Y-11675698D02*
X14458277Y-11694746D01*
X14458277Y-11694746D02*
X14458277Y-11751888D01*
X14458277Y-11751888D02*
X14448753Y-11770936D01*
X14448753Y-11770936D02*
X14439230Y-11780460D01*
X14439230Y-11780460D02*
X14420182Y-11789984D01*
X14420182Y-11789984D02*
X14391610Y-11789984D01*
X14572563Y-11789984D02*
X14553515Y-11780460D01*
X14553515Y-11780460D02*
X14543991Y-11761412D01*
X14543991Y-11761412D02*
X14543991Y-11589984D01*
X14724944Y-11780460D02*
X14705896Y-11789984D01*
X14705896Y-11789984D02*
X14667801Y-11789984D01*
X14667801Y-11789984D02*
X14648753Y-11780460D01*
X14648753Y-11780460D02*
X14639230Y-11761412D01*
X14639230Y-11761412D02*
X14639230Y-11685222D01*
X14639230Y-11685222D02*
X14648753Y-11666174D01*
X14648753Y-11666174D02*
X14667801Y-11656650D01*
X14667801Y-11656650D02*
X14705896Y-11656650D01*
X14705896Y-11656650D02*
X14724944Y-11666174D01*
X14724944Y-11666174D02*
X14734468Y-11685222D01*
X14734468Y-11685222D02*
X14734468Y-11704269D01*
X14734468Y-11704269D02*
X14639230Y-11723317D01*
X14810658Y-11780460D02*
X14829706Y-11789984D01*
X14829706Y-11789984D02*
X14867801Y-11789984D01*
X14867801Y-11789984D02*
X14886849Y-11780460D01*
X14886849Y-11780460D02*
X14896372Y-11761412D01*
X14896372Y-11761412D02*
X14896372Y-11751888D01*
X14896372Y-11751888D02*
X14886849Y-11732841D01*
X14886849Y-11732841D02*
X14867801Y-11723317D01*
X14867801Y-11723317D02*
X14839230Y-11723317D01*
X14839230Y-11723317D02*
X14820182Y-11713793D01*
X14820182Y-11713793D02*
X14810658Y-11694746D01*
X14810658Y-11694746D02*
X14810658Y-11685222D01*
X14810658Y-11685222D02*
X14820182Y-11666174D01*
X14820182Y-11666174D02*
X14839230Y-11656650D01*
X14839230Y-11656650D02*
X14867801Y-11656650D01*
X14867801Y-11656650D02*
X14886849Y-11666174D01*
X14963039Y-11866174D02*
X14972563Y-11856650D01*
X14972563Y-11856650D02*
X14991611Y-11828079D01*
X14991611Y-11828079D02*
X15001134Y-11809031D01*
X15001134Y-11809031D02*
X15010658Y-11780460D01*
X15010658Y-11780460D02*
X15020182Y-11732841D01*
X15020182Y-11732841D02*
X15020182Y-11694746D01*
X15020182Y-11694746D02*
X15010658Y-11647127D01*
X15010658Y-11647127D02*
X15001134Y-11618555D01*
X15001134Y-11618555D02*
X14991611Y-11599508D01*
X14991611Y-11599508D02*
X14972563Y-11570936D01*
X14972563Y-11570936D02*
X14963039Y-11561412D01*
D13*
X9885740Y-11906620D02*
X9997500Y-12018380D01*
X9997500Y-11906620D02*
X9885740Y-12018380D01*
X9997500Y-11962500D02*
G75*
G02*
X9885740Y-11962500I-55880J0D01*
G01*
X9885740Y-11962500D02*
G75*
G02*
X9997500Y-11962500I55880J0D01*
G01*
D11*
X10363039Y-12053984D02*
X10248753Y-12053984D01*
X10305896Y-12053984D02*
X10305896Y-11853984D01*
X10305896Y-11853984D02*
X10286848Y-11882555D01*
X10286848Y-11882555D02*
X10267801Y-11901603D01*
X10267801Y-11901603D02*
X10248753Y-11911127D01*
X10448753Y-12034936D02*
X10458277Y-12044460D01*
X10458277Y-12044460D02*
X10448753Y-12053984D01*
X10448753Y-12053984D02*
X10439229Y-12044460D01*
X10439229Y-12044460D02*
X10448753Y-12034936D01*
X10448753Y-12034936D02*
X10448753Y-12053984D01*
X10648753Y-12053984D02*
X10534467Y-12053984D01*
X10591610Y-12053984D02*
X10591610Y-11853984D01*
X10591610Y-11853984D02*
X10572563Y-11882555D01*
X10572563Y-11882555D02*
X10553515Y-11901603D01*
X10553515Y-11901603D02*
X10534467Y-11911127D01*
X10839229Y-12053984D02*
X10724944Y-12053984D01*
X10782086Y-12053984D02*
X10782086Y-11853984D01*
X10782086Y-11853984D02*
X10763039Y-11882555D01*
X10763039Y-11882555D02*
X10743991Y-11901603D01*
X10743991Y-11901603D02*
X10724944Y-11911127D01*
X10953515Y-11939698D02*
X10934467Y-11930174D01*
X10934467Y-11930174D02*
X10924944Y-11920650D01*
X10924944Y-11920650D02*
X10915420Y-11901603D01*
X10915420Y-11901603D02*
X10915420Y-11892079D01*
X10915420Y-11892079D02*
X10924944Y-11873031D01*
X10924944Y-11873031D02*
X10934467Y-11863508D01*
X10934467Y-11863508D02*
X10953515Y-11853984D01*
X10953515Y-11853984D02*
X10991610Y-11853984D01*
X10991610Y-11853984D02*
X11010658Y-11863508D01*
X11010658Y-11863508D02*
X11020182Y-11873031D01*
X11020182Y-11873031D02*
X11029705Y-11892079D01*
X11029705Y-11892079D02*
X11029705Y-11901603D01*
X11029705Y-11901603D02*
X11020182Y-11920650D01*
X11020182Y-11920650D02*
X11010658Y-11930174D01*
X11010658Y-11930174D02*
X10991610Y-11939698D01*
X10991610Y-11939698D02*
X10953515Y-11939698D01*
X10953515Y-11939698D02*
X10934467Y-11949222D01*
X10934467Y-11949222D02*
X10924944Y-11958746D01*
X10924944Y-11958746D02*
X10915420Y-11977793D01*
X10915420Y-11977793D02*
X10915420Y-12015888D01*
X10915420Y-12015888D02*
X10924944Y-12034936D01*
X10924944Y-12034936D02*
X10934467Y-12044460D01*
X10934467Y-12044460D02*
X10953515Y-12053984D01*
X10953515Y-12053984D02*
X10991610Y-12053984D01*
X10991610Y-12053984D02*
X11010658Y-12044460D01*
X11010658Y-12044460D02*
X11020182Y-12034936D01*
X11020182Y-12034936D02*
X11029705Y-12015888D01*
X11029705Y-12015888D02*
X11029705Y-11977793D01*
X11029705Y-11977793D02*
X11020182Y-11958746D01*
X11020182Y-11958746D02*
X11010658Y-11949222D01*
X11010658Y-11949222D02*
X10991610Y-11939698D01*
X11115420Y-12053984D02*
X11115420Y-11920650D01*
X11115420Y-11939698D02*
X11124944Y-11930174D01*
X11124944Y-11930174D02*
X11143991Y-11920650D01*
X11143991Y-11920650D02*
X11172563Y-11920650D01*
X11172563Y-11920650D02*
X11191610Y-11930174D01*
X11191610Y-11930174D02*
X11201134Y-11949222D01*
X11201134Y-11949222D02*
X11201134Y-12053984D01*
X11201134Y-11949222D02*
X11210658Y-11930174D01*
X11210658Y-11930174D02*
X11229705Y-11920650D01*
X11229705Y-11920650D02*
X11258277Y-11920650D01*
X11258277Y-11920650D02*
X11277324Y-11930174D01*
X11277324Y-11930174D02*
X11286848Y-11949222D01*
X11286848Y-11949222D02*
X11286848Y-12053984D01*
X11382086Y-12053984D02*
X11382086Y-11920650D01*
X11382086Y-11939698D02*
X11391610Y-11930174D01*
X11391610Y-11930174D02*
X11410658Y-11920650D01*
X11410658Y-11920650D02*
X11439229Y-11920650D01*
X11439229Y-11920650D02*
X11458277Y-11930174D01*
X11458277Y-11930174D02*
X11467801Y-11949222D01*
X11467801Y-11949222D02*
X11467801Y-12053984D01*
X11467801Y-11949222D02*
X11477324Y-11930174D01*
X11477324Y-11930174D02*
X11496372Y-11920650D01*
X11496372Y-11920650D02*
X11524943Y-11920650D01*
X11524943Y-11920650D02*
X11543991Y-11930174D01*
X11543991Y-11930174D02*
X11553515Y-11949222D01*
X11553515Y-11949222D02*
X11553515Y-12053984D01*
X11943991Y-11844460D02*
X11772563Y-12101603D01*
X12201134Y-11853984D02*
X12220182Y-11853984D01*
X12220182Y-11853984D02*
X12239229Y-11863508D01*
X12239229Y-11863508D02*
X12248753Y-11873031D01*
X12248753Y-11873031D02*
X12258277Y-11892079D01*
X12258277Y-11892079D02*
X12267801Y-11930174D01*
X12267801Y-11930174D02*
X12267801Y-11977793D01*
X12267801Y-11977793D02*
X12258277Y-12015888D01*
X12258277Y-12015888D02*
X12248753Y-12034936D01*
X12248753Y-12034936D02*
X12239229Y-12044460D01*
X12239229Y-12044460D02*
X12220182Y-12053984D01*
X12220182Y-12053984D02*
X12201134Y-12053984D01*
X12201134Y-12053984D02*
X12182086Y-12044460D01*
X12182086Y-12044460D02*
X12172563Y-12034936D01*
X12172563Y-12034936D02*
X12163039Y-12015888D01*
X12163039Y-12015888D02*
X12153515Y-11977793D01*
X12153515Y-11977793D02*
X12153515Y-11930174D01*
X12153515Y-11930174D02*
X12163039Y-11892079D01*
X12163039Y-11892079D02*
X12172563Y-11873031D01*
X12172563Y-11873031D02*
X12182086Y-11863508D01*
X12182086Y-11863508D02*
X12201134Y-11853984D01*
X12353515Y-12034936D02*
X12363039Y-12044460D01*
X12363039Y-12044460D02*
X12353515Y-12053984D01*
X12353515Y-12053984D02*
X12343991Y-12044460D01*
X12343991Y-12044460D02*
X12353515Y-12034936D01*
X12353515Y-12034936D02*
X12353515Y-12053984D01*
X12486848Y-11853984D02*
X12505896Y-11853984D01*
X12505896Y-11853984D02*
X12524944Y-11863508D01*
X12524944Y-11863508D02*
X12534467Y-11873031D01*
X12534467Y-11873031D02*
X12543991Y-11892079D01*
X12543991Y-11892079D02*
X12553515Y-11930174D01*
X12553515Y-11930174D02*
X12553515Y-11977793D01*
X12553515Y-11977793D02*
X12543991Y-12015888D01*
X12543991Y-12015888D02*
X12534467Y-12034936D01*
X12534467Y-12034936D02*
X12524944Y-12044460D01*
X12524944Y-12044460D02*
X12505896Y-12053984D01*
X12505896Y-12053984D02*
X12486848Y-12053984D01*
X12486848Y-12053984D02*
X12467801Y-12044460D01*
X12467801Y-12044460D02*
X12458277Y-12034936D01*
X12458277Y-12034936D02*
X12448753Y-12015888D01*
X12448753Y-12015888D02*
X12439229Y-11977793D01*
X12439229Y-11977793D02*
X12439229Y-11930174D01*
X12439229Y-11930174D02*
X12448753Y-11892079D01*
X12448753Y-11892079D02*
X12458277Y-11873031D01*
X12458277Y-11873031D02*
X12467801Y-11863508D01*
X12467801Y-11863508D02*
X12486848Y-11853984D01*
X12724944Y-11920650D02*
X12724944Y-12053984D01*
X12677325Y-11844460D02*
X12629706Y-11987317D01*
X12629706Y-11987317D02*
X12753515Y-11987317D01*
X12915420Y-11920650D02*
X12915420Y-12053984D01*
X12867801Y-11844460D02*
X12820182Y-11987317D01*
X12820182Y-11987317D02*
X12943991Y-11987317D01*
X13058277Y-11853984D02*
X13077325Y-11853984D01*
X13077325Y-11853984D02*
X13096372Y-11863508D01*
X13096372Y-11863508D02*
X13105896Y-11873031D01*
X13105896Y-11873031D02*
X13115420Y-11892079D01*
X13115420Y-11892079D02*
X13124944Y-11930174D01*
X13124944Y-11930174D02*
X13124944Y-11977793D01*
X13124944Y-11977793D02*
X13115420Y-12015888D01*
X13115420Y-12015888D02*
X13105896Y-12034936D01*
X13105896Y-12034936D02*
X13096372Y-12044460D01*
X13096372Y-12044460D02*
X13077325Y-12053984D01*
X13077325Y-12053984D02*
X13058277Y-12053984D01*
X13058277Y-12053984D02*
X13039229Y-12044460D01*
X13039229Y-12044460D02*
X13029706Y-12034936D01*
X13029706Y-12034936D02*
X13020182Y-12015888D01*
X13020182Y-12015888D02*
X13010658Y-11977793D01*
X13010658Y-11977793D02*
X13010658Y-11930174D01*
X13010658Y-11930174D02*
X13020182Y-11892079D01*
X13020182Y-11892079D02*
X13029706Y-11873031D01*
X13029706Y-11873031D02*
X13039229Y-11863508D01*
X13039229Y-11863508D02*
X13058277Y-11853984D01*
X13201134Y-11853984D02*
X13201134Y-11892079D01*
X13277325Y-11853984D02*
X13277325Y-11892079D01*
X13572563Y-12130174D02*
X13563039Y-12120650D01*
X13563039Y-12120650D02*
X13543991Y-12092079D01*
X13543991Y-12092079D02*
X13534468Y-12073031D01*
X13534468Y-12073031D02*
X13524944Y-12044460D01*
X13524944Y-12044460D02*
X13515420Y-11996841D01*
X13515420Y-11996841D02*
X13515420Y-11958746D01*
X13515420Y-11958746D02*
X13524944Y-11911127D01*
X13524944Y-11911127D02*
X13534468Y-11882555D01*
X13534468Y-11882555D02*
X13543991Y-11863508D01*
X13543991Y-11863508D02*
X13563039Y-11834936D01*
X13563039Y-11834936D02*
X13572563Y-11825412D01*
X13734468Y-11853984D02*
X13696372Y-11853984D01*
X13696372Y-11853984D02*
X13677325Y-11863508D01*
X13677325Y-11863508D02*
X13667801Y-11873031D01*
X13667801Y-11873031D02*
X13648753Y-11901603D01*
X13648753Y-11901603D02*
X13639229Y-11939698D01*
X13639229Y-11939698D02*
X13639229Y-12015888D01*
X13639229Y-12015888D02*
X13648753Y-12034936D01*
X13648753Y-12034936D02*
X13658277Y-12044460D01*
X13658277Y-12044460D02*
X13677325Y-12053984D01*
X13677325Y-12053984D02*
X13715420Y-12053984D01*
X13715420Y-12053984D02*
X13734468Y-12044460D01*
X13734468Y-12044460D02*
X13743991Y-12034936D01*
X13743991Y-12034936D02*
X13753515Y-12015888D01*
X13753515Y-12015888D02*
X13753515Y-11968269D01*
X13753515Y-11968269D02*
X13743991Y-11949222D01*
X13743991Y-11949222D02*
X13734468Y-11939698D01*
X13734468Y-11939698D02*
X13715420Y-11930174D01*
X13715420Y-11930174D02*
X13677325Y-11930174D01*
X13677325Y-11930174D02*
X13658277Y-11939698D01*
X13658277Y-11939698D02*
X13648753Y-11949222D01*
X13648753Y-11949222D02*
X13639229Y-11968269D01*
X13991610Y-12053984D02*
X13991610Y-11853984D01*
X14077325Y-12053984D02*
X14077325Y-11949222D01*
X14077325Y-11949222D02*
X14067801Y-11930174D01*
X14067801Y-11930174D02*
X14048753Y-11920650D01*
X14048753Y-11920650D02*
X14020182Y-11920650D01*
X14020182Y-11920650D02*
X14001134Y-11930174D01*
X14001134Y-11930174D02*
X13991610Y-11939698D01*
X14201134Y-12053984D02*
X14182087Y-12044460D01*
X14182087Y-12044460D02*
X14172563Y-12034936D01*
X14172563Y-12034936D02*
X14163039Y-12015888D01*
X14163039Y-12015888D02*
X14163039Y-11958746D01*
X14163039Y-11958746D02*
X14172563Y-11939698D01*
X14172563Y-11939698D02*
X14182087Y-11930174D01*
X14182087Y-11930174D02*
X14201134Y-11920650D01*
X14201134Y-11920650D02*
X14229706Y-11920650D01*
X14229706Y-11920650D02*
X14248753Y-11930174D01*
X14248753Y-11930174D02*
X14258277Y-11939698D01*
X14258277Y-11939698D02*
X14267801Y-11958746D01*
X14267801Y-11958746D02*
X14267801Y-12015888D01*
X14267801Y-12015888D02*
X14258277Y-12034936D01*
X14258277Y-12034936D02*
X14248753Y-12044460D01*
X14248753Y-12044460D02*
X14229706Y-12053984D01*
X14229706Y-12053984D02*
X14201134Y-12053984D01*
X14382087Y-12053984D02*
X14363039Y-12044460D01*
X14363039Y-12044460D02*
X14353515Y-12025412D01*
X14353515Y-12025412D02*
X14353515Y-11853984D01*
X14534468Y-12044460D02*
X14515420Y-12053984D01*
X14515420Y-12053984D02*
X14477325Y-12053984D01*
X14477325Y-12053984D02*
X14458277Y-12044460D01*
X14458277Y-12044460D02*
X14448753Y-12025412D01*
X14448753Y-12025412D02*
X14448753Y-11949222D01*
X14448753Y-11949222D02*
X14458277Y-11930174D01*
X14458277Y-11930174D02*
X14477325Y-11920650D01*
X14477325Y-11920650D02*
X14515420Y-11920650D01*
X14515420Y-11920650D02*
X14534468Y-11930174D01*
X14534468Y-11930174D02*
X14543991Y-11949222D01*
X14543991Y-11949222D02*
X14543991Y-11968269D01*
X14543991Y-11968269D02*
X14448753Y-11987317D01*
X14620182Y-12044460D02*
X14639230Y-12053984D01*
X14639230Y-12053984D02*
X14677325Y-12053984D01*
X14677325Y-12053984D02*
X14696372Y-12044460D01*
X14696372Y-12044460D02*
X14705896Y-12025412D01*
X14705896Y-12025412D02*
X14705896Y-12015888D01*
X14705896Y-12015888D02*
X14696372Y-11996841D01*
X14696372Y-11996841D02*
X14677325Y-11987317D01*
X14677325Y-11987317D02*
X14648753Y-11987317D01*
X14648753Y-11987317D02*
X14629706Y-11977793D01*
X14629706Y-11977793D02*
X14620182Y-11958746D01*
X14620182Y-11958746D02*
X14620182Y-11949222D01*
X14620182Y-11949222D02*
X14629706Y-11930174D01*
X14629706Y-11930174D02*
X14648753Y-11920650D01*
X14648753Y-11920650D02*
X14677325Y-11920650D01*
X14677325Y-11920650D02*
X14696372Y-11930174D01*
X14772563Y-12130174D02*
X14782087Y-12120650D01*
X14782087Y-12120650D02*
X14801134Y-12092079D01*
X14801134Y-12092079D02*
X14810658Y-12073031D01*
X14810658Y-12073031D02*
X14820182Y-12044460D01*
X14820182Y-12044460D02*
X14829706Y-11996841D01*
X14829706Y-11996841D02*
X14829706Y-11958746D01*
X14829706Y-11958746D02*
X14820182Y-11911127D01*
X14820182Y-11911127D02*
X14810658Y-11882555D01*
X14810658Y-11882555D02*
X14801134Y-11863508D01*
X14801134Y-11863508D02*
X14782087Y-11834936D01*
X14782087Y-11834936D02*
X14772563Y-11825412D01*
D14*
X9857500Y-12156500D02*
X9997500Y-12296500D01*
X9997500Y-12156500D02*
X9857500Y-12296500D01*
X9927500Y-12156500D02*
X9927500Y-12296500D01*
X9857500Y-12226500D02*
X9997500Y-12226500D01*
D11*
X10363039Y-12317984D02*
X10248753Y-12317984D01*
X10305896Y-12317984D02*
X10305896Y-12117984D01*
X10305896Y-12117984D02*
X10286848Y-12146555D01*
X10286848Y-12146555D02*
X10267801Y-12165603D01*
X10267801Y-12165603D02*
X10248753Y-12175127D01*
X10448753Y-12298936D02*
X10458277Y-12308460D01*
X10458277Y-12308460D02*
X10448753Y-12317984D01*
X10448753Y-12317984D02*
X10439229Y-12308460D01*
X10439229Y-12308460D02*
X10448753Y-12298936D01*
X10448753Y-12298936D02*
X10448753Y-12317984D01*
X10629705Y-12184650D02*
X10629705Y-12317984D01*
X10582086Y-12108460D02*
X10534467Y-12251317D01*
X10534467Y-12251317D02*
X10658277Y-12251317D01*
X10772563Y-12117984D02*
X10791610Y-12117984D01*
X10791610Y-12117984D02*
X10810658Y-12127508D01*
X10810658Y-12127508D02*
X10820182Y-12137031D01*
X10820182Y-12137031D02*
X10829705Y-12156079D01*
X10829705Y-12156079D02*
X10839229Y-12194174D01*
X10839229Y-12194174D02*
X10839229Y-12241793D01*
X10839229Y-12241793D02*
X10829705Y-12279888D01*
X10829705Y-12279888D02*
X10820182Y-12298936D01*
X10820182Y-12298936D02*
X10810658Y-12308460D01*
X10810658Y-12308460D02*
X10791610Y-12317984D01*
X10791610Y-12317984D02*
X10772563Y-12317984D01*
X10772563Y-12317984D02*
X10753515Y-12308460D01*
X10753515Y-12308460D02*
X10743991Y-12298936D01*
X10743991Y-12298936D02*
X10734467Y-12279888D01*
X10734467Y-12279888D02*
X10724944Y-12241793D01*
X10724944Y-12241793D02*
X10724944Y-12194174D01*
X10724944Y-12194174D02*
X10734467Y-12156079D01*
X10734467Y-12156079D02*
X10743991Y-12137031D01*
X10743991Y-12137031D02*
X10753515Y-12127508D01*
X10753515Y-12127508D02*
X10772563Y-12117984D01*
X10963039Y-12117984D02*
X10982086Y-12117984D01*
X10982086Y-12117984D02*
X11001134Y-12127508D01*
X11001134Y-12127508D02*
X11010658Y-12137031D01*
X11010658Y-12137031D02*
X11020182Y-12156079D01*
X11020182Y-12156079D02*
X11029705Y-12194174D01*
X11029705Y-12194174D02*
X11029705Y-12241793D01*
X11029705Y-12241793D02*
X11020182Y-12279888D01*
X11020182Y-12279888D02*
X11010658Y-12298936D01*
X11010658Y-12298936D02*
X11001134Y-12308460D01*
X11001134Y-12308460D02*
X10982086Y-12317984D01*
X10982086Y-12317984D02*
X10963039Y-12317984D01*
X10963039Y-12317984D02*
X10943991Y-12308460D01*
X10943991Y-12308460D02*
X10934467Y-12298936D01*
X10934467Y-12298936D02*
X10924944Y-12279888D01*
X10924944Y-12279888D02*
X10915420Y-12241793D01*
X10915420Y-12241793D02*
X10915420Y-12194174D01*
X10915420Y-12194174D02*
X10924944Y-12156079D01*
X10924944Y-12156079D02*
X10934467Y-12137031D01*
X10934467Y-12137031D02*
X10943991Y-12127508D01*
X10943991Y-12127508D02*
X10963039Y-12117984D01*
X11115420Y-12317984D02*
X11115420Y-12184650D01*
X11115420Y-12203698D02*
X11124944Y-12194174D01*
X11124944Y-12194174D02*
X11143991Y-12184650D01*
X11143991Y-12184650D02*
X11172563Y-12184650D01*
X11172563Y-12184650D02*
X11191610Y-12194174D01*
X11191610Y-12194174D02*
X11201134Y-12213222D01*
X11201134Y-12213222D02*
X11201134Y-12317984D01*
X11201134Y-12213222D02*
X11210658Y-12194174D01*
X11210658Y-12194174D02*
X11229705Y-12184650D01*
X11229705Y-12184650D02*
X11258277Y-12184650D01*
X11258277Y-12184650D02*
X11277324Y-12194174D01*
X11277324Y-12194174D02*
X11286848Y-12213222D01*
X11286848Y-12213222D02*
X11286848Y-12317984D01*
X11382086Y-12317984D02*
X11382086Y-12184650D01*
X11382086Y-12203698D02*
X11391610Y-12194174D01*
X11391610Y-12194174D02*
X11410658Y-12184650D01*
X11410658Y-12184650D02*
X11439229Y-12184650D01*
X11439229Y-12184650D02*
X11458277Y-12194174D01*
X11458277Y-12194174D02*
X11467801Y-12213222D01*
X11467801Y-12213222D02*
X11467801Y-12317984D01*
X11467801Y-12213222D02*
X11477324Y-12194174D01*
X11477324Y-12194174D02*
X11496372Y-12184650D01*
X11496372Y-12184650D02*
X11524943Y-12184650D01*
X11524943Y-12184650D02*
X11543991Y-12194174D01*
X11543991Y-12194174D02*
X11553515Y-12213222D01*
X11553515Y-12213222D02*
X11553515Y-12317984D01*
X11943991Y-12108460D02*
X11772563Y-12365603D01*
X12201134Y-12117984D02*
X12220182Y-12117984D01*
X12220182Y-12117984D02*
X12239229Y-12127508D01*
X12239229Y-12127508D02*
X12248753Y-12137031D01*
X12248753Y-12137031D02*
X12258277Y-12156079D01*
X12258277Y-12156079D02*
X12267801Y-12194174D01*
X12267801Y-12194174D02*
X12267801Y-12241793D01*
X12267801Y-12241793D02*
X12258277Y-12279888D01*
X12258277Y-12279888D02*
X12248753Y-12298936D01*
X12248753Y-12298936D02*
X12239229Y-12308460D01*
X12239229Y-12308460D02*
X12220182Y-12317984D01*
X12220182Y-12317984D02*
X12201134Y-12317984D01*
X12201134Y-12317984D02*
X12182086Y-12308460D01*
X12182086Y-12308460D02*
X12172563Y-12298936D01*
X12172563Y-12298936D02*
X12163039Y-12279888D01*
X12163039Y-12279888D02*
X12153515Y-12241793D01*
X12153515Y-12241793D02*
X12153515Y-12194174D01*
X12153515Y-12194174D02*
X12163039Y-12156079D01*
X12163039Y-12156079D02*
X12172563Y-12137031D01*
X12172563Y-12137031D02*
X12182086Y-12127508D01*
X12182086Y-12127508D02*
X12201134Y-12117984D01*
X12353515Y-12298936D02*
X12363039Y-12308460D01*
X12363039Y-12308460D02*
X12353515Y-12317984D01*
X12353515Y-12317984D02*
X12343991Y-12308460D01*
X12343991Y-12308460D02*
X12353515Y-12298936D01*
X12353515Y-12298936D02*
X12353515Y-12317984D01*
X12486848Y-12117984D02*
X12505896Y-12117984D01*
X12505896Y-12117984D02*
X12524944Y-12127508D01*
X12524944Y-12127508D02*
X12534467Y-12137031D01*
X12534467Y-12137031D02*
X12543991Y-12156079D01*
X12543991Y-12156079D02*
X12553515Y-12194174D01*
X12553515Y-12194174D02*
X12553515Y-12241793D01*
X12553515Y-12241793D02*
X12543991Y-12279888D01*
X12543991Y-12279888D02*
X12534467Y-12298936D01*
X12534467Y-12298936D02*
X12524944Y-12308460D01*
X12524944Y-12308460D02*
X12505896Y-12317984D01*
X12505896Y-12317984D02*
X12486848Y-12317984D01*
X12486848Y-12317984D02*
X12467801Y-12308460D01*
X12467801Y-12308460D02*
X12458277Y-12298936D01*
X12458277Y-12298936D02*
X12448753Y-12279888D01*
X12448753Y-12279888D02*
X12439229Y-12241793D01*
X12439229Y-12241793D02*
X12439229Y-12194174D01*
X12439229Y-12194174D02*
X12448753Y-12156079D01*
X12448753Y-12156079D02*
X12458277Y-12137031D01*
X12458277Y-12137031D02*
X12467801Y-12127508D01*
X12467801Y-12127508D02*
X12486848Y-12117984D01*
X12734467Y-12117984D02*
X12639229Y-12117984D01*
X12639229Y-12117984D02*
X12629706Y-12213222D01*
X12629706Y-12213222D02*
X12639229Y-12203698D01*
X12639229Y-12203698D02*
X12658277Y-12194174D01*
X12658277Y-12194174D02*
X12705896Y-12194174D01*
X12705896Y-12194174D02*
X12724944Y-12203698D01*
X12724944Y-12203698D02*
X12734467Y-12213222D01*
X12734467Y-12213222D02*
X12743991Y-12232269D01*
X12743991Y-12232269D02*
X12743991Y-12279888D01*
X12743991Y-12279888D02*
X12734467Y-12298936D01*
X12734467Y-12298936D02*
X12724944Y-12308460D01*
X12724944Y-12308460D02*
X12705896Y-12317984D01*
X12705896Y-12317984D02*
X12658277Y-12317984D01*
X12658277Y-12317984D02*
X12639229Y-12308460D01*
X12639229Y-12308460D02*
X12629706Y-12298936D01*
X12924944Y-12117984D02*
X12829706Y-12117984D01*
X12829706Y-12117984D02*
X12820182Y-12213222D01*
X12820182Y-12213222D02*
X12829706Y-12203698D01*
X12829706Y-12203698D02*
X12848753Y-12194174D01*
X12848753Y-12194174D02*
X12896372Y-12194174D01*
X12896372Y-12194174D02*
X12915420Y-12203698D01*
X12915420Y-12203698D02*
X12924944Y-12213222D01*
X12924944Y-12213222D02*
X12934467Y-12232269D01*
X12934467Y-12232269D02*
X12934467Y-12279888D01*
X12934467Y-12279888D02*
X12924944Y-12298936D01*
X12924944Y-12298936D02*
X12915420Y-12308460D01*
X12915420Y-12308460D02*
X12896372Y-12317984D01*
X12896372Y-12317984D02*
X12848753Y-12317984D01*
X12848753Y-12317984D02*
X12829706Y-12308460D01*
X12829706Y-12308460D02*
X12820182Y-12298936D01*
X13124944Y-12317984D02*
X13010658Y-12317984D01*
X13067801Y-12317984D02*
X13067801Y-12117984D01*
X13067801Y-12117984D02*
X13048753Y-12146555D01*
X13048753Y-12146555D02*
X13029706Y-12165603D01*
X13029706Y-12165603D02*
X13010658Y-12175127D01*
X13201134Y-12117984D02*
X13201134Y-12156079D01*
X13277325Y-12117984D02*
X13277325Y-12156079D01*
X13572563Y-12394174D02*
X13563039Y-12384650D01*
X13563039Y-12384650D02*
X13543991Y-12356079D01*
X13543991Y-12356079D02*
X13534468Y-12337031D01*
X13534468Y-12337031D02*
X13524944Y-12308460D01*
X13524944Y-12308460D02*
X13515420Y-12260841D01*
X13515420Y-12260841D02*
X13515420Y-12222746D01*
X13515420Y-12222746D02*
X13524944Y-12175127D01*
X13524944Y-12175127D02*
X13534468Y-12146555D01*
X13534468Y-12146555D02*
X13543991Y-12127508D01*
X13543991Y-12127508D02*
X13563039Y-12098936D01*
X13563039Y-12098936D02*
X13572563Y-12089412D01*
X13753515Y-12317984D02*
X13639229Y-12317984D01*
X13696372Y-12317984D02*
X13696372Y-12117984D01*
X13696372Y-12117984D02*
X13677325Y-12146555D01*
X13677325Y-12146555D02*
X13658277Y-12165603D01*
X13658277Y-12165603D02*
X13639229Y-12175127D01*
X13991610Y-12317984D02*
X13991610Y-12117984D01*
X14077325Y-12317984D02*
X14077325Y-12213222D01*
X14077325Y-12213222D02*
X14067801Y-12194174D01*
X14067801Y-12194174D02*
X14048753Y-12184650D01*
X14048753Y-12184650D02*
X14020182Y-12184650D01*
X14020182Y-12184650D02*
X14001134Y-12194174D01*
X14001134Y-12194174D02*
X13991610Y-12203698D01*
X14201134Y-12317984D02*
X14182087Y-12308460D01*
X14182087Y-12308460D02*
X14172563Y-12298936D01*
X14172563Y-12298936D02*
X14163039Y-12279888D01*
X14163039Y-12279888D02*
X14163039Y-12222746D01*
X14163039Y-12222746D02*
X14172563Y-12203698D01*
X14172563Y-12203698D02*
X14182087Y-12194174D01*
X14182087Y-12194174D02*
X14201134Y-12184650D01*
X14201134Y-12184650D02*
X14229706Y-12184650D01*
X14229706Y-12184650D02*
X14248753Y-12194174D01*
X14248753Y-12194174D02*
X14258277Y-12203698D01*
X14258277Y-12203698D02*
X14267801Y-12222746D01*
X14267801Y-12222746D02*
X14267801Y-12279888D01*
X14267801Y-12279888D02*
X14258277Y-12298936D01*
X14258277Y-12298936D02*
X14248753Y-12308460D01*
X14248753Y-12308460D02*
X14229706Y-12317984D01*
X14229706Y-12317984D02*
X14201134Y-12317984D01*
X14382087Y-12317984D02*
X14363039Y-12308460D01*
X14363039Y-12308460D02*
X14353515Y-12289412D01*
X14353515Y-12289412D02*
X14353515Y-12117984D01*
X14534468Y-12308460D02*
X14515420Y-12317984D01*
X14515420Y-12317984D02*
X14477325Y-12317984D01*
X14477325Y-12317984D02*
X14458277Y-12308460D01*
X14458277Y-12308460D02*
X14448753Y-12289412D01*
X14448753Y-12289412D02*
X14448753Y-12213222D01*
X14448753Y-12213222D02*
X14458277Y-12194174D01*
X14458277Y-12194174D02*
X14477325Y-12184650D01*
X14477325Y-12184650D02*
X14515420Y-12184650D01*
X14515420Y-12184650D02*
X14534468Y-12194174D01*
X14534468Y-12194174D02*
X14543991Y-12213222D01*
X14543991Y-12213222D02*
X14543991Y-12232269D01*
X14543991Y-12232269D02*
X14448753Y-12251317D01*
X14610658Y-12394174D02*
X14620182Y-12384650D01*
X14620182Y-12384650D02*
X14639230Y-12356079D01*
X14639230Y-12356079D02*
X14648753Y-12337031D01*
X14648753Y-12337031D02*
X14658277Y-12308460D01*
X14658277Y-12308460D02*
X14667801Y-12260841D01*
X14667801Y-12260841D02*
X14667801Y-12222746D01*
X14667801Y-12222746D02*
X14658277Y-12175127D01*
X14658277Y-12175127D02*
X14648753Y-12146555D01*
X14648753Y-12146555D02*
X14639230Y-12127508D01*
X14639230Y-12127508D02*
X14620182Y-12098936D01*
X14620182Y-12098936D02*
X14610658Y-12089412D01*
D15*
X9837500Y-12410500D02*
X9997500Y-12570500D01*
X9997500Y-12410500D02*
X9837500Y-12570500D01*
X9974069Y-12547069D02*
X9974069Y-12433931D01*
X9860931Y-12433931D01*
X9860931Y-12547069D01*
X9974069Y-12547069D01*
D11*
X10363039Y-12581984D02*
X10248753Y-12581984D01*
X10305896Y-12581984D02*
X10305896Y-12381984D01*
X10305896Y-12381984D02*
X10286848Y-12410555D01*
X10286848Y-12410555D02*
X10267801Y-12429603D01*
X10267801Y-12429603D02*
X10248753Y-12439127D01*
X10448753Y-12562936D02*
X10458277Y-12572460D01*
X10458277Y-12572460D02*
X10448753Y-12581984D01*
X10448753Y-12581984D02*
X10439229Y-12572460D01*
X10439229Y-12572460D02*
X10448753Y-12562936D01*
X10448753Y-12562936D02*
X10448753Y-12581984D01*
X10629705Y-12381984D02*
X10591610Y-12381984D01*
X10591610Y-12381984D02*
X10572563Y-12391508D01*
X10572563Y-12391508D02*
X10563039Y-12401031D01*
X10563039Y-12401031D02*
X10543991Y-12429603D01*
X10543991Y-12429603D02*
X10534467Y-12467698D01*
X10534467Y-12467698D02*
X10534467Y-12543888D01*
X10534467Y-12543888D02*
X10543991Y-12562936D01*
X10543991Y-12562936D02*
X10553515Y-12572460D01*
X10553515Y-12572460D02*
X10572563Y-12581984D01*
X10572563Y-12581984D02*
X10610658Y-12581984D01*
X10610658Y-12581984D02*
X10629705Y-12572460D01*
X10629705Y-12572460D02*
X10639229Y-12562936D01*
X10639229Y-12562936D02*
X10648753Y-12543888D01*
X10648753Y-12543888D02*
X10648753Y-12496269D01*
X10648753Y-12496269D02*
X10639229Y-12477222D01*
X10639229Y-12477222D02*
X10629705Y-12467698D01*
X10629705Y-12467698D02*
X10610658Y-12458174D01*
X10610658Y-12458174D02*
X10572563Y-12458174D01*
X10572563Y-12458174D02*
X10553515Y-12467698D01*
X10553515Y-12467698D02*
X10543991Y-12477222D01*
X10543991Y-12477222D02*
X10534467Y-12496269D01*
X10772563Y-12381984D02*
X10791610Y-12381984D01*
X10791610Y-12381984D02*
X10810658Y-12391508D01*
X10810658Y-12391508D02*
X10820182Y-12401031D01*
X10820182Y-12401031D02*
X10829705Y-12420079D01*
X10829705Y-12420079D02*
X10839229Y-12458174D01*
X10839229Y-12458174D02*
X10839229Y-12505793D01*
X10839229Y-12505793D02*
X10829705Y-12543888D01*
X10829705Y-12543888D02*
X10820182Y-12562936D01*
X10820182Y-12562936D02*
X10810658Y-12572460D01*
X10810658Y-12572460D02*
X10791610Y-12581984D01*
X10791610Y-12581984D02*
X10772563Y-12581984D01*
X10772563Y-12581984D02*
X10753515Y-12572460D01*
X10753515Y-12572460D02*
X10743991Y-12562936D01*
X10743991Y-12562936D02*
X10734467Y-12543888D01*
X10734467Y-12543888D02*
X10724944Y-12505793D01*
X10724944Y-12505793D02*
X10724944Y-12458174D01*
X10724944Y-12458174D02*
X10734467Y-12420079D01*
X10734467Y-12420079D02*
X10743991Y-12401031D01*
X10743991Y-12401031D02*
X10753515Y-12391508D01*
X10753515Y-12391508D02*
X10772563Y-12381984D01*
X10963039Y-12381984D02*
X10982086Y-12381984D01*
X10982086Y-12381984D02*
X11001134Y-12391508D01*
X11001134Y-12391508D02*
X11010658Y-12401031D01*
X11010658Y-12401031D02*
X11020182Y-12420079D01*
X11020182Y-12420079D02*
X11029705Y-12458174D01*
X11029705Y-12458174D02*
X11029705Y-12505793D01*
X11029705Y-12505793D02*
X11020182Y-12543888D01*
X11020182Y-12543888D02*
X11010658Y-12562936D01*
X11010658Y-12562936D02*
X11001134Y-12572460D01*
X11001134Y-12572460D02*
X10982086Y-12581984D01*
X10982086Y-12581984D02*
X10963039Y-12581984D01*
X10963039Y-12581984D02*
X10943991Y-12572460D01*
X10943991Y-12572460D02*
X10934467Y-12562936D01*
X10934467Y-12562936D02*
X10924944Y-12543888D01*
X10924944Y-12543888D02*
X10915420Y-12505793D01*
X10915420Y-12505793D02*
X10915420Y-12458174D01*
X10915420Y-12458174D02*
X10924944Y-12420079D01*
X10924944Y-12420079D02*
X10934467Y-12401031D01*
X10934467Y-12401031D02*
X10943991Y-12391508D01*
X10943991Y-12391508D02*
X10963039Y-12381984D01*
X11115420Y-12581984D02*
X11115420Y-12448650D01*
X11115420Y-12467698D02*
X11124944Y-12458174D01*
X11124944Y-12458174D02*
X11143991Y-12448650D01*
X11143991Y-12448650D02*
X11172563Y-12448650D01*
X11172563Y-12448650D02*
X11191610Y-12458174D01*
X11191610Y-12458174D02*
X11201134Y-12477222D01*
X11201134Y-12477222D02*
X11201134Y-12581984D01*
X11201134Y-12477222D02*
X11210658Y-12458174D01*
X11210658Y-12458174D02*
X11229705Y-12448650D01*
X11229705Y-12448650D02*
X11258277Y-12448650D01*
X11258277Y-12448650D02*
X11277324Y-12458174D01*
X11277324Y-12458174D02*
X11286848Y-12477222D01*
X11286848Y-12477222D02*
X11286848Y-12581984D01*
X11382086Y-12581984D02*
X11382086Y-12448650D01*
X11382086Y-12467698D02*
X11391610Y-12458174D01*
X11391610Y-12458174D02*
X11410658Y-12448650D01*
X11410658Y-12448650D02*
X11439229Y-12448650D01*
X11439229Y-12448650D02*
X11458277Y-12458174D01*
X11458277Y-12458174D02*
X11467801Y-12477222D01*
X11467801Y-12477222D02*
X11467801Y-12581984D01*
X11467801Y-12477222D02*
X11477324Y-12458174D01*
X11477324Y-12458174D02*
X11496372Y-12448650D01*
X11496372Y-12448650D02*
X11524943Y-12448650D01*
X11524943Y-12448650D02*
X11543991Y-12458174D01*
X11543991Y-12458174D02*
X11553515Y-12477222D01*
X11553515Y-12477222D02*
X11553515Y-12581984D01*
X11943991Y-12372460D02*
X11772563Y-12629603D01*
X12201134Y-12381984D02*
X12220182Y-12381984D01*
X12220182Y-12381984D02*
X12239229Y-12391508D01*
X12239229Y-12391508D02*
X12248753Y-12401031D01*
X12248753Y-12401031D02*
X12258277Y-12420079D01*
X12258277Y-12420079D02*
X12267801Y-12458174D01*
X12267801Y-12458174D02*
X12267801Y-12505793D01*
X12267801Y-12505793D02*
X12258277Y-12543888D01*
X12258277Y-12543888D02*
X12248753Y-12562936D01*
X12248753Y-12562936D02*
X12239229Y-12572460D01*
X12239229Y-12572460D02*
X12220182Y-12581984D01*
X12220182Y-12581984D02*
X12201134Y-12581984D01*
X12201134Y-12581984D02*
X12182086Y-12572460D01*
X12182086Y-12572460D02*
X12172563Y-12562936D01*
X12172563Y-12562936D02*
X12163039Y-12543888D01*
X12163039Y-12543888D02*
X12153515Y-12505793D01*
X12153515Y-12505793D02*
X12153515Y-12458174D01*
X12153515Y-12458174D02*
X12163039Y-12420079D01*
X12163039Y-12420079D02*
X12172563Y-12401031D01*
X12172563Y-12401031D02*
X12182086Y-12391508D01*
X12182086Y-12391508D02*
X12201134Y-12381984D01*
X12353515Y-12562936D02*
X12363039Y-12572460D01*
X12363039Y-12572460D02*
X12353515Y-12581984D01*
X12353515Y-12581984D02*
X12343991Y-12572460D01*
X12343991Y-12572460D02*
X12353515Y-12562936D01*
X12353515Y-12562936D02*
X12353515Y-12581984D01*
X12486848Y-12381984D02*
X12505896Y-12381984D01*
X12505896Y-12381984D02*
X12524944Y-12391508D01*
X12524944Y-12391508D02*
X12534467Y-12401031D01*
X12534467Y-12401031D02*
X12543991Y-12420079D01*
X12543991Y-12420079D02*
X12553515Y-12458174D01*
X12553515Y-12458174D02*
X12553515Y-12505793D01*
X12553515Y-12505793D02*
X12543991Y-12543888D01*
X12543991Y-12543888D02*
X12534467Y-12562936D01*
X12534467Y-12562936D02*
X12524944Y-12572460D01*
X12524944Y-12572460D02*
X12505896Y-12581984D01*
X12505896Y-12581984D02*
X12486848Y-12581984D01*
X12486848Y-12581984D02*
X12467801Y-12572460D01*
X12467801Y-12572460D02*
X12458277Y-12562936D01*
X12458277Y-12562936D02*
X12448753Y-12543888D01*
X12448753Y-12543888D02*
X12439229Y-12505793D01*
X12439229Y-12505793D02*
X12439229Y-12458174D01*
X12439229Y-12458174D02*
X12448753Y-12420079D01*
X12448753Y-12420079D02*
X12458277Y-12401031D01*
X12458277Y-12401031D02*
X12467801Y-12391508D01*
X12467801Y-12391508D02*
X12486848Y-12381984D01*
X12724944Y-12381984D02*
X12686848Y-12381984D01*
X12686848Y-12381984D02*
X12667801Y-12391508D01*
X12667801Y-12391508D02*
X12658277Y-12401031D01*
X12658277Y-12401031D02*
X12639229Y-12429603D01*
X12639229Y-12429603D02*
X12629706Y-12467698D01*
X12629706Y-12467698D02*
X12629706Y-12543888D01*
X12629706Y-12543888D02*
X12639229Y-12562936D01*
X12639229Y-12562936D02*
X12648753Y-12572460D01*
X12648753Y-12572460D02*
X12667801Y-12581984D01*
X12667801Y-12581984D02*
X12705896Y-12581984D01*
X12705896Y-12581984D02*
X12724944Y-12572460D01*
X12724944Y-12572460D02*
X12734467Y-12562936D01*
X12734467Y-12562936D02*
X12743991Y-12543888D01*
X12743991Y-12543888D02*
X12743991Y-12496269D01*
X12743991Y-12496269D02*
X12734467Y-12477222D01*
X12734467Y-12477222D02*
X12724944Y-12467698D01*
X12724944Y-12467698D02*
X12705896Y-12458174D01*
X12705896Y-12458174D02*
X12667801Y-12458174D01*
X12667801Y-12458174D02*
X12648753Y-12467698D01*
X12648753Y-12467698D02*
X12639229Y-12477222D01*
X12639229Y-12477222D02*
X12629706Y-12496269D01*
X12810658Y-12381984D02*
X12934467Y-12381984D01*
X12934467Y-12381984D02*
X12867801Y-12458174D01*
X12867801Y-12458174D02*
X12896372Y-12458174D01*
X12896372Y-12458174D02*
X12915420Y-12467698D01*
X12915420Y-12467698D02*
X12924944Y-12477222D01*
X12924944Y-12477222D02*
X12934467Y-12496269D01*
X12934467Y-12496269D02*
X12934467Y-12543888D01*
X12934467Y-12543888D02*
X12924944Y-12562936D01*
X12924944Y-12562936D02*
X12915420Y-12572460D01*
X12915420Y-12572460D02*
X12896372Y-12581984D01*
X12896372Y-12581984D02*
X12839229Y-12581984D01*
X12839229Y-12581984D02*
X12820182Y-12572460D01*
X12820182Y-12572460D02*
X12810658Y-12562936D01*
X13058277Y-12381984D02*
X13077325Y-12381984D01*
X13077325Y-12381984D02*
X13096372Y-12391508D01*
X13096372Y-12391508D02*
X13105896Y-12401031D01*
X13105896Y-12401031D02*
X13115420Y-12420079D01*
X13115420Y-12420079D02*
X13124944Y-12458174D01*
X13124944Y-12458174D02*
X13124944Y-12505793D01*
X13124944Y-12505793D02*
X13115420Y-12543888D01*
X13115420Y-12543888D02*
X13105896Y-12562936D01*
X13105896Y-12562936D02*
X13096372Y-12572460D01*
X13096372Y-12572460D02*
X13077325Y-12581984D01*
X13077325Y-12581984D02*
X13058277Y-12581984D01*
X13058277Y-12581984D02*
X13039229Y-12572460D01*
X13039229Y-12572460D02*
X13029706Y-12562936D01*
X13029706Y-12562936D02*
X13020182Y-12543888D01*
X13020182Y-12543888D02*
X13010658Y-12505793D01*
X13010658Y-12505793D02*
X13010658Y-12458174D01*
X13010658Y-12458174D02*
X13020182Y-12420079D01*
X13020182Y-12420079D02*
X13029706Y-12401031D01*
X13029706Y-12401031D02*
X13039229Y-12391508D01*
X13039229Y-12391508D02*
X13058277Y-12381984D01*
X13201134Y-12381984D02*
X13201134Y-12420079D01*
X13277325Y-12381984D02*
X13277325Y-12420079D01*
X13572563Y-12658174D02*
X13563039Y-12648650D01*
X13563039Y-12648650D02*
X13543991Y-12620079D01*
X13543991Y-12620079D02*
X13534468Y-12601031D01*
X13534468Y-12601031D02*
X13524944Y-12572460D01*
X13524944Y-12572460D02*
X13515420Y-12524841D01*
X13515420Y-12524841D02*
X13515420Y-12486746D01*
X13515420Y-12486746D02*
X13524944Y-12439127D01*
X13524944Y-12439127D02*
X13534468Y-12410555D01*
X13534468Y-12410555D02*
X13543991Y-12391508D01*
X13543991Y-12391508D02*
X13563039Y-12362936D01*
X13563039Y-12362936D02*
X13572563Y-12353412D01*
X13734468Y-12448650D02*
X13734468Y-12581984D01*
X13686848Y-12372460D02*
X13639229Y-12515317D01*
X13639229Y-12515317D02*
X13763039Y-12515317D01*
X13991610Y-12581984D02*
X13991610Y-12381984D01*
X14077325Y-12581984D02*
X14077325Y-12477222D01*
X14077325Y-12477222D02*
X14067801Y-12458174D01*
X14067801Y-12458174D02*
X14048753Y-12448650D01*
X14048753Y-12448650D02*
X14020182Y-12448650D01*
X14020182Y-12448650D02*
X14001134Y-12458174D01*
X14001134Y-12458174D02*
X13991610Y-12467698D01*
X14201134Y-12581984D02*
X14182087Y-12572460D01*
X14182087Y-12572460D02*
X14172563Y-12562936D01*
X14172563Y-12562936D02*
X14163039Y-12543888D01*
X14163039Y-12543888D02*
X14163039Y-12486746D01*
X14163039Y-12486746D02*
X14172563Y-12467698D01*
X14172563Y-12467698D02*
X14182087Y-12458174D01*
X14182087Y-12458174D02*
X14201134Y-12448650D01*
X14201134Y-12448650D02*
X14229706Y-12448650D01*
X14229706Y-12448650D02*
X14248753Y-12458174D01*
X14248753Y-12458174D02*
X14258277Y-12467698D01*
X14258277Y-12467698D02*
X14267801Y-12486746D01*
X14267801Y-12486746D02*
X14267801Y-12543888D01*
X14267801Y-12543888D02*
X14258277Y-12562936D01*
X14258277Y-12562936D02*
X14248753Y-12572460D01*
X14248753Y-12572460D02*
X14229706Y-12581984D01*
X14229706Y-12581984D02*
X14201134Y-12581984D01*
X14382087Y-12581984D02*
X14363039Y-12572460D01*
X14363039Y-12572460D02*
X14353515Y-12553412D01*
X14353515Y-12553412D02*
X14353515Y-12381984D01*
X14534468Y-12572460D02*
X14515420Y-12581984D01*
X14515420Y-12581984D02*
X14477325Y-12581984D01*
X14477325Y-12581984D02*
X14458277Y-12572460D01*
X14458277Y-12572460D02*
X14448753Y-12553412D01*
X14448753Y-12553412D02*
X14448753Y-12477222D01*
X14448753Y-12477222D02*
X14458277Y-12458174D01*
X14458277Y-12458174D02*
X14477325Y-12448650D01*
X14477325Y-12448650D02*
X14515420Y-12448650D01*
X14515420Y-12448650D02*
X14534468Y-12458174D01*
X14534468Y-12458174D02*
X14543991Y-12477222D01*
X14543991Y-12477222D02*
X14543991Y-12496269D01*
X14543991Y-12496269D02*
X14448753Y-12515317D01*
X14620182Y-12572460D02*
X14639230Y-12581984D01*
X14639230Y-12581984D02*
X14677325Y-12581984D01*
X14677325Y-12581984D02*
X14696372Y-12572460D01*
X14696372Y-12572460D02*
X14705896Y-12553412D01*
X14705896Y-12553412D02*
X14705896Y-12543888D01*
X14705896Y-12543888D02*
X14696372Y-12524841D01*
X14696372Y-12524841D02*
X14677325Y-12515317D01*
X14677325Y-12515317D02*
X14648753Y-12515317D01*
X14648753Y-12515317D02*
X14629706Y-12505793D01*
X14629706Y-12505793D02*
X14620182Y-12486746D01*
X14620182Y-12486746D02*
X14620182Y-12477222D01*
X14620182Y-12477222D02*
X14629706Y-12458174D01*
X14629706Y-12458174D02*
X14648753Y-12448650D01*
X14648753Y-12448650D02*
X14677325Y-12448650D01*
X14677325Y-12448650D02*
X14696372Y-12458174D01*
X14772563Y-12658174D02*
X14782087Y-12648650D01*
X14782087Y-12648650D02*
X14801134Y-12620079D01*
X14801134Y-12620079D02*
X14810658Y-12601031D01*
X14810658Y-12601031D02*
X14820182Y-12572460D01*
X14820182Y-12572460D02*
X14829706Y-12524841D01*
X14829706Y-12524841D02*
X14829706Y-12486746D01*
X14829706Y-12486746D02*
X14820182Y-12439127D01*
X14820182Y-12439127D02*
X14810658Y-12410555D01*
X14810658Y-12410555D02*
X14801134Y-12391508D01*
X14801134Y-12391508D02*
X14782087Y-12362936D01*
X14782087Y-12362936D02*
X14772563Y-12353412D01*
M02*
