%TF.GenerationSoftware,KiCad,Pcbnew,9.0.2+1*%
%TF.CreationDate,2025-08-16T20:28:54+01:00*%
%TF.ProjectId,Navigator,4e617669-6761-4746-9f72-2e6b69636164,rev?*%
%TF.SameCoordinates,Original*%
%TF.FileFunction,Profile,NP*%
%FSLAX46Y46*%
G04 Gerber Fmt 4.6, Leading zero omitted, Abs format (unit mm)*
G04 Created by KiCad (PCBNEW 9.0.2+1) date 2025-08-16 20:28:54*
%MOMM*%
%LPD*%
G01*
G04 APERTURE LIST*
%TA.AperFunction,Profile*%
%ADD10C,0.050000*%
%TD*%
G04 APERTURE END LIST*
D10*
X118200000Y-61400000D02*
G75*
G02*
X125400000Y-61400000I3600000J0D01*
G01*
X100000000Y-96800000D02*
X100000000Y-68200000D01*
X129000000Y-65000000D02*
X186600000Y-65000001D01*
X103200000Y-100000000D02*
G75*
G02*
X100000000Y-96800000I0J3200000D01*
G01*
X114600000Y-65000000D02*
X103200000Y-65000000D01*
X190200000Y-61400001D02*
G75*
G02*
X186600000Y-65000000I-3600000J1D01*
G01*
X190200000Y-61400000D02*
G75*
G02*
X197400000Y-61400000I3600000J0D01*
G01*
X103200000Y-100000000D02*
X186600000Y-100000000D01*
X197400000Y-61400000D02*
X197400000Y-63800000D01*
X200000000Y-98600000D02*
G75*
G02*
X198600000Y-100000000I-1400000J0D01*
G01*
X197400000Y-101200000D02*
X197400000Y-103600000D01*
X198600000Y-64999999D02*
G75*
G02*
X197400001Y-63800000I0J1199999D01*
G01*
X200000001Y-66400000D02*
X200000000Y-98600000D01*
X100000000Y-68200000D02*
G75*
G02*
X103200000Y-65000000I3200000J0D01*
G01*
X197400000Y-101200000D02*
G75*
G02*
X198600000Y-100000000I1200000J0D01*
G01*
X129000000Y-65000000D02*
G75*
G02*
X125400000Y-61400000I0J3600000D01*
G01*
X198600000Y-64999999D02*
G75*
G02*
X200000001Y-66400000I0J-1400001D01*
G01*
X186600000Y-100000000D02*
G75*
G02*
X190200000Y-103600000I0J-3600000D01*
G01*
X118200000Y-61400000D02*
G75*
G02*
X114600000Y-65000000I-3600000J0D01*
G01*
X197400000Y-103600000D02*
G75*
G02*
X190200000Y-103600000I-3600000J0D01*
G01*
M02*
