%TF.GenerationSoftware,KiCad,Pcbnew,9.0.2+1*%
%TF.CreationDate,2025-07-26T18:57:22+01:00*%
%TF.ProjectId,Navigator,4e617669-6761-4746-9f72-2e6b69636164,rev?*%
%TF.SameCoordinates,Original*%
%TF.FileFunction,Soldermask,Bot*%
%TF.FilePolarity,Negative*%
%FSLAX46Y46*%
G04 Gerber Fmt 4.6, Leading zero omitted, Abs format (unit mm)*
G04 Created by KiCad (PCBNEW 9.0.2+1) date 2025-07-26 18:57:22*
%MOMM*%
%LPD*%
G01*
G04 APERTURE LIST*
G04 Aperture macros list*
%AMRoundRect*
0 Rectangle with rounded corners*
0 $1 Rounding radius*
0 $2 $3 $4 $5 $6 $7 $8 $9 X,Y pos of 4 corners*
0 Add a 4 corners polygon primitive as box body*
4,1,4,$2,$3,$4,$5,$6,$7,$8,$9,$2,$3,0*
0 Add four circle primitives for the rounded corners*
1,1,$1+$1,$2,$3*
1,1,$1+$1,$4,$5*
1,1,$1+$1,$6,$7*
1,1,$1+$1,$8,$9*
0 Add four rect primitives between the rounded corners*
20,1,$1+$1,$2,$3,$4,$5,0*
20,1,$1+$1,$4,$5,$6,$7,0*
20,1,$1+$1,$6,$7,$8,$9,0*
20,1,$1+$1,$8,$9,$2,$3,0*%
G04 Aperture macros list end*
%ADD10O,1.404000X2.604000*%
%ADD11O,1.338000X2.496000*%
%ADD12C,0.600000*%
%ADD13C,0.630000*%
%ADD14C,1.625600*%
%ADD15C,10.404000*%
%ADD16RoundRect,0.102000X2.550000X-1.250000X2.550000X1.250000X-2.550000X1.250000X-2.550000X-1.250000X0*%
%ADD17C,3.200000*%
%ADD18C,3.100000*%
%ADD19R,2.100000X2.100000*%
%ADD20C,2.400000*%
G04 APERTURE END LIST*
D10*
%TO.C,J5*%
X167864856Y-98048499D03*
X159224856Y-98048499D03*
D11*
X167864856Y-94223499D03*
X159224856Y-94223499D03*
D12*
X166544856Y-94948499D03*
D13*
X160544856Y-94948499D03*
%TD*%
D14*
%TO.C,J1*%
X142300000Y-98287000D03*
X139760000Y-98287000D03*
X137220000Y-98287000D03*
X134680000Y-98287000D03*
X132140000Y-98287000D03*
X129600000Y-98287000D03*
%TD*%
D15*
%TO.C,BT1*%
X119980000Y-82750000D03*
D16*
X120030000Y-90400000D03*
X120030000Y-75100000D03*
%TD*%
D17*
%TO.C,H1*%
X206800000Y-96800000D03*
%TD*%
D18*
%TO.C,DSUB1*%
X188520000Y-95149000D03*
X188520000Y-70159000D03*
%TD*%
D17*
%TO.C,H2*%
X206800000Y-68200000D03*
%TD*%
D19*
%TO.C,J2*%
X104700000Y-88700000D03*
D20*
X107275000Y-91275000D03*
X107275000Y-86125000D03*
X102125000Y-86125000D03*
X102125000Y-91275000D03*
%TD*%
D17*
%TO.C,H3*%
X121800000Y-96800000D03*
%TD*%
G36*
X170777895Y-85958184D02*
G01*
X170823650Y-86010988D01*
X170834856Y-86062499D01*
X170834856Y-87584499D01*
X170815171Y-87651538D01*
X170762367Y-87697293D01*
X170710856Y-87708499D01*
X168448856Y-87708499D01*
X168381817Y-87688814D01*
X168336062Y-87636010D01*
X168324856Y-87584499D01*
X168324856Y-86062499D01*
X168344541Y-85995460D01*
X168397345Y-85949705D01*
X168448856Y-85938499D01*
X170710856Y-85938499D01*
X170777895Y-85958184D01*
G37*
G36*
X150023924Y-80196575D02*
G01*
X150068260Y-80225076D01*
X152155029Y-82312192D01*
X152188508Y-82373518D01*
X152183518Y-82443209D01*
X152155062Y-82487506D01*
X150068743Y-84575765D01*
X150007435Y-84609279D01*
X149937741Y-84604327D01*
X149893346Y-84575812D01*
X147804955Y-82487696D01*
X147771466Y-82426375D01*
X147776445Y-82356683D01*
X147804963Y-82312313D01*
X149892904Y-80225054D01*
X149954233Y-80191579D01*
X150023924Y-80196575D01*
G37*
M02*
