%TF.GenerationSoftware,KiCad,Pcbnew,9.0.2+1*%
%TF.CreationDate,2025-08-16T20:28:54+01:00*%
%TF.ProjectId,Navigator,4e617669-6761-4746-9f72-2e6b69636164,rev?*%
%TF.SameCoordinates,Original*%
%TF.FileFunction,Copper,L2,Inr*%
%TF.FilePolarity,Positive*%
%FSLAX46Y46*%
G04 Gerber Fmt 4.6, Leading zero omitted, Abs format (unit mm)*
G04 Created by KiCad (PCBNEW 9.0.2+1) date 2025-08-16 20:28:54*
%MOMM*%
%LPD*%
G01*
G04 APERTURE LIST*
%TA.AperFunction,ComponentPad*%
%ADD10O,1.158000X2.316000*%
%TD*%
%TA.AperFunction,ComponentPad*%
%ADD11O,1.200000X2.400000*%
%TD*%
%TA.AperFunction,ComponentPad*%
%ADD12C,1.500000*%
%TD*%
%TA.AperFunction,ComponentPad*%
%ADD13R,2.100000X2.100000*%
%TD*%
%TA.AperFunction,ComponentPad*%
%ADD14C,2.400000*%
%TD*%
%TA.AperFunction,ComponentPad*%
%ADD15C,1.625600*%
%TD*%
%TA.AperFunction,ViaPad*%
%ADD16C,0.600000*%
%TD*%
%TA.AperFunction,ViaPad*%
%ADD17C,0.700000*%
%TD*%
%TA.AperFunction,ViaPad*%
%ADD18C,0.500000*%
%TD*%
G04 APERTURE END LIST*
D10*
%TO.N,unconnected-(J5-SHIELD-PadS1)_3*%
%TO.C,J5*%
X159224856Y-94223499D03*
%TO.N,unconnected-(J5-SHIELD-PadS1)_2*%
X167864856Y-94223499D03*
D11*
%TO.N,unconnected-(J5-SHIELD-PadS1)*%
X159224856Y-98048499D03*
%TO.N,unconnected-(J5-SHIELD-PadS1)_1*%
X167864856Y-98048499D03*
%TD*%
D12*
%TO.N,+3.3V*%
%TO.C,DSUB1*%
X185980000Y-87500000D03*
%TO.N,+5V*%
X185980000Y-85210000D03*
%TO.N,/V2_IN*%
X185980000Y-82920000D03*
%TO.N,/V1_IN*%
X185980000Y-80630000D03*
%TO.N,/V0_IN*%
X185980000Y-78340000D03*
%TO.N,/V3_IN*%
X188520000Y-86355000D03*
%TO.N,/V4_IN*%
X188520000Y-84065000D03*
%TO.N,/V5_IN*%
X188520000Y-81775000D03*
%TO.N,GND*%
X188520000Y-79485000D03*
%TO.N,/PYRO2*%
X188520000Y-77195000D03*
%TO.N,/PYRO1*%
X191060000Y-87500000D03*
%TO.N,GND*%
X191060000Y-85210000D03*
X191060000Y-82920000D03*
X191060000Y-80630000D03*
%TO.N,/PYRO3*%
X191060000Y-78340000D03*
%TD*%
D13*
%TO.N,/RF*%
%TO.C,J2*%
X104700000Y-88700000D03*
D14*
%TO.N,GND*%
X107275000Y-91275000D03*
X107275000Y-86125000D03*
X102125000Y-86125000D03*
X102125000Y-91275000D03*
%TD*%
D15*
%TO.N,+5V*%
%TO.C,J1*%
X142300000Y-98287000D03*
%TO.N,GND*%
X139760000Y-98287000D03*
%TO.N,/OBC TX UART*%
X137220000Y-98287000D03*
%TO.N,/OBC RX UART*%
X134680000Y-98287000D03*
%TO.N,/OBC CTS UART*%
X132140000Y-98287000D03*
%TO.N,/OBC RTS UART*%
X129600000Y-98287000D03*
%TD*%
D16*
%TO.N,GND*%
X174720000Y-73090000D03*
X116051681Y-77599999D03*
X155123179Y-90496821D03*
X183691667Y-73300000D03*
X185058334Y-69350000D03*
X183691667Y-67400000D03*
X185058334Y-67400000D03*
X185058334Y-71350000D03*
X185058333Y-73300000D03*
X186425000Y-69350000D03*
X186425000Y-67400000D03*
X186425000Y-71350000D03*
X186426251Y-73297639D03*
X187792918Y-73297639D03*
X187792918Y-67397639D03*
X189159913Y-65398583D03*
X189159913Y-67398583D03*
X191900000Y-69350000D03*
X197375000Y-73300000D03*
X197375000Y-81200000D03*
X193275000Y-65400000D03*
X197383334Y-65400000D03*
X194641667Y-65400000D03*
X198758334Y-67350000D03*
X194641667Y-67350000D03*
X197383334Y-67350000D03*
X196008334Y-67350000D03*
X196008334Y-65400000D03*
X190525000Y-65400000D03*
X191900000Y-65400000D03*
X191900000Y-71300000D03*
X191900000Y-73300000D03*
X193275000Y-69350000D03*
X191900000Y-67350000D03*
X190525000Y-67350000D03*
X193275000Y-73300000D03*
X190525000Y-73300000D03*
X189158333Y-73300000D03*
X193275000Y-71300000D03*
X197375000Y-71300000D03*
X194633333Y-71300000D03*
X198750000Y-69350000D03*
X197375000Y-69350000D03*
X198750000Y-73300000D03*
X196000000Y-69350000D03*
X196000000Y-71300000D03*
X196000000Y-73300000D03*
X194633333Y-73300000D03*
X198750000Y-71300000D03*
X194633333Y-69350000D03*
X194633333Y-77250000D03*
X194633333Y-81200000D03*
X194633333Y-75250000D03*
X193266666Y-77250000D03*
X196000000Y-79200000D03*
X196000000Y-77250000D03*
X196000000Y-81200000D03*
X198750000Y-75250000D03*
X197375000Y-75250000D03*
X194633333Y-79200000D03*
X196000000Y-75250000D03*
X197375000Y-77250000D03*
X198750000Y-81200000D03*
X197375000Y-79200000D03*
X193266666Y-81200000D03*
X193266666Y-79200000D03*
X198750000Y-77250000D03*
X198750000Y-79200000D03*
X193266666Y-75250000D03*
X198750000Y-97000000D03*
X198750000Y-83150000D03*
X198750000Y-93050000D03*
X198750000Y-85150000D03*
X197375000Y-89100000D03*
X198750000Y-87100000D03*
X198750000Y-95000000D03*
X198750000Y-89100000D03*
X198750000Y-91050000D03*
X197375000Y-93050000D03*
X197375000Y-95000000D03*
X197375000Y-87100000D03*
X197375000Y-85150000D03*
X197375000Y-91050000D03*
X197375000Y-83150000D03*
X196000000Y-85150000D03*
X196000000Y-87100000D03*
X194633333Y-87100000D03*
X194633333Y-85150000D03*
X193266666Y-87100000D03*
X194633333Y-83150000D03*
X196000000Y-83150000D03*
X196000000Y-89100000D03*
X193266666Y-89100000D03*
X196000000Y-91050000D03*
X194633333Y-91050000D03*
X194633333Y-89100000D03*
X193266666Y-91050000D03*
D17*
%TO.N,VBAT*%
X120830000Y-88800000D03*
X118980000Y-88800000D03*
X120830000Y-73400000D03*
X119905000Y-73400000D03*
X118980000Y-73400000D03*
X119905000Y-88800000D03*
D16*
%TO.N,VBUS*%
X163044856Y-91048499D03*
X163044856Y-95310000D03*
%TO.N,/OBC TX UART*%
X139650000Y-94650000D03*
X143300000Y-94430000D03*
X149736558Y-88250269D03*
X148725000Y-89875000D03*
%TO.N,/OBC RTS UART*%
X141850000Y-93115000D03*
X150548231Y-87898499D03*
%TO.N,/OBC RX UART*%
X148743269Y-87433269D03*
X139500000Y-93615000D03*
X145525255Y-93654146D03*
X147500000Y-92000000D03*
%TO.N,/OBC CTS UART*%
X136385000Y-95190000D03*
X150520000Y-85360000D03*
%TO.N,+3.3V*%
X130458500Y-80678583D03*
X180824856Y-95698499D03*
D17*
X124050000Y-76900000D03*
D16*
X157174856Y-86348499D03*
X141850000Y-73650000D03*
X128180000Y-76821500D03*
X165374856Y-89248499D03*
X159700000Y-87050000D03*
X159824856Y-70795000D03*
D17*
X116674856Y-76900000D03*
D16*
X149800000Y-75900000D03*
X131380000Y-75900000D03*
X160174856Y-89798499D03*
X157500000Y-77600000D03*
X168574856Y-89655496D03*
D17*
X112480000Y-79600000D03*
D16*
X165374856Y-84498499D03*
%TO.N,/MISO SPI*%
X136280000Y-77400000D03*
X144720000Y-79960000D03*
X138720000Y-75610000D03*
%TO.N,/SCK SPI*%
X141630000Y-79396000D03*
X145030000Y-81150000D03*
%TO.N,GND*%
X149157743Y-83209717D03*
D18*
X139000000Y-92050000D03*
D16*
X148310212Y-82393854D03*
X163600000Y-71650000D03*
X164850000Y-79800000D03*
X122700000Y-92350000D03*
X119966667Y-94350000D03*
X126100001Y-99000000D03*
X193266666Y-97000000D03*
X171050000Y-99000000D03*
X101999492Y-75698984D03*
X119966667Y-92350000D03*
X194633333Y-97000000D03*
X140600000Y-86700000D03*
X139500000Y-75650000D03*
X145049999Y-66000000D03*
X163900000Y-84450000D03*
X119350001Y-99000000D03*
X112500000Y-99000000D03*
D17*
X118274856Y-80848499D03*
D16*
X110030000Y-78920000D03*
X168774856Y-87298499D03*
X138350000Y-68000000D03*
X144636515Y-88373250D03*
X148828641Y-68606531D03*
X136200000Y-79045000D03*
X106800000Y-99000000D03*
X184000000Y-89900000D03*
X146499999Y-66000000D03*
X134870000Y-80110000D03*
X106349999Y-73600000D03*
X147000000Y-69600000D03*
X189050001Y-99000000D03*
X115370000Y-78210000D03*
X107850001Y-81900000D03*
X157250000Y-70800000D03*
X173698802Y-67400000D03*
X101949999Y-71600000D03*
X124067101Y-92350044D03*
X145550000Y-94450000D03*
X189166666Y-93050000D03*
X124067101Y-94350044D03*
X128550000Y-84700000D03*
X140970000Y-78910000D03*
X163600000Y-74650000D03*
X169400000Y-71650000D03*
X106800000Y-95027202D03*
X123450001Y-99000000D03*
X121333768Y-92350044D03*
X136899999Y-70100000D03*
X164225000Y-86150000D03*
X126830000Y-75678500D03*
X106400000Y-81900000D03*
X153844160Y-88335840D03*
X143749999Y-66000000D03*
X116600000Y-99000000D03*
X148674856Y-92948499D03*
X155849999Y-71500000D03*
X137574856Y-84598499D03*
X126500000Y-73200000D03*
X133891001Y-81900000D03*
X139700000Y-68000000D03*
X139536515Y-89433250D03*
X138901660Y-79045000D03*
X110650001Y-71600000D03*
X108249999Y-99000000D03*
X190533333Y-89150000D03*
X156878968Y-83702611D03*
X136270000Y-76610000D03*
X157450000Y-78850000D03*
X106349999Y-75700000D03*
X149974856Y-84098499D03*
X124050000Y-96350000D03*
X134000000Y-70100000D03*
X140300000Y-86050000D03*
X149986168Y-86853378D03*
X111230000Y-82675000D03*
D17*
X122374856Y-82448499D03*
D16*
X193266666Y-95000000D03*
X148117073Y-91499215D03*
X104899999Y-75700000D03*
X136400000Y-86400000D03*
X138020000Y-81410000D03*
X198800000Y-99000000D03*
X150600000Y-66000000D03*
X138350000Y-70100000D03*
X147424856Y-83548499D03*
X175600000Y-89000000D03*
X150029160Y-88940840D03*
X112600000Y-76900000D03*
X149970243Y-82397218D03*
X195900001Y-99000000D03*
X139133499Y-73103499D03*
X167730000Y-77660000D03*
X109699999Y-99000000D03*
X191899999Y-97000000D03*
D18*
X183450000Y-76350000D03*
D16*
X107799492Y-75698984D03*
X117900000Y-99000000D03*
X194633333Y-93050000D03*
X150824857Y-83248498D03*
X190533333Y-93050000D03*
X104899999Y-73600000D03*
D17*
X121524856Y-86348499D03*
D16*
X154988224Y-77791776D03*
X169400000Y-73150000D03*
X133949999Y-66000000D03*
X190350001Y-99000000D03*
X156770000Y-87760000D03*
X139649999Y-66000000D03*
X139700000Y-70100000D03*
X104849998Y-71600000D03*
X151986520Y-75700753D03*
X151585000Y-87410000D03*
X103499493Y-79798984D03*
X141900000Y-92000000D03*
X150300000Y-71400000D03*
X154400000Y-73050000D03*
X122124856Y-81598499D03*
X176600001Y-99000000D03*
X142399999Y-66000000D03*
X141636515Y-87383960D03*
X109250001Y-73600000D03*
X155888224Y-78691776D03*
X107800000Y-73600000D03*
X180700001Y-99000000D03*
X194600001Y-99000000D03*
X194633333Y-95000000D03*
D18*
X145150000Y-96650000D03*
D16*
X143920000Y-79510000D03*
X125433768Y-92350044D03*
X179250001Y-99000000D03*
X171374857Y-90798499D03*
X131283333Y-95350000D03*
D17*
X118024856Y-84448499D03*
D16*
X170324856Y-86348499D03*
X143250000Y-95250000D03*
X164844854Y-90252549D03*
D17*
X121974856Y-79348499D03*
D16*
X122274856Y-83548499D03*
X137920000Y-77060000D03*
X140936515Y-90883250D03*
X117233333Y-94350000D03*
X184800001Y-99000000D03*
X196000000Y-95000000D03*
X135399998Y-66000000D03*
X132550000Y-70100000D03*
X155774067Y-91855933D03*
X150174856Y-92798499D03*
X134400000Y-85900000D03*
X142450000Y-70100000D03*
D17*
X121724856Y-84448499D03*
D16*
X168774856Y-86348499D03*
X117674856Y-81598499D03*
X142450000Y-68000000D03*
X161850000Y-85950000D03*
X107849493Y-79798984D03*
X107849493Y-77698984D03*
X171600000Y-92100000D03*
X139530000Y-84240000D03*
X121316667Y-96350000D03*
X165050000Y-71650000D03*
X177119668Y-81925000D03*
X193266666Y-93050000D03*
X181650000Y-66850000D03*
X149820000Y-96660000D03*
X148470000Y-80360000D03*
X129916666Y-95350000D03*
X197375000Y-97000000D03*
X186250001Y-99000000D03*
X115250000Y-99000000D03*
X166600000Y-86850000D03*
X155750000Y-77150000D03*
X141630000Y-76428499D03*
X141028499Y-96000000D03*
X140949999Y-66000000D03*
X175150000Y-99000000D03*
D18*
X117400000Y-71600000D03*
D16*
X167949999Y-70150000D03*
X104949492Y-77698984D03*
X133430578Y-87268547D03*
X166644856Y-92952547D03*
X104950000Y-81900000D03*
X179266856Y-89590499D03*
X173700000Y-99000000D03*
X197350001Y-99000000D03*
X149142712Y-81561354D03*
X157828968Y-82752611D03*
X177950001Y-99000000D03*
X191800001Y-99000000D03*
X134025158Y-78350000D03*
X140420000Y-83448499D03*
X158765431Y-88879283D03*
X151600000Y-91600000D03*
X140430000Y-76428499D03*
X132499999Y-66000000D03*
X142930000Y-76428499D03*
X172374856Y-86460000D03*
X117524856Y-83548499D03*
D17*
X121524856Y-80848499D03*
D16*
X141000000Y-68000000D03*
X153420000Y-72610000D03*
X145416515Y-89273250D03*
D17*
X116024856Y-83148499D03*
D16*
X145896776Y-87983224D03*
X153970000Y-74460000D03*
X138400000Y-72600000D03*
X125733100Y-75000000D03*
D17*
X122674856Y-85698499D03*
D16*
X144320000Y-77410000D03*
X109200000Y-71600000D03*
X191900000Y-93050000D03*
X190533333Y-91100000D03*
X173440000Y-90355496D03*
X182150001Y-99000000D03*
X147620000Y-96660000D03*
X150305140Y-79122015D03*
X122700435Y-94350044D03*
X122683334Y-96350000D03*
X169049998Y-80400002D03*
X138750000Y-93369000D03*
X157750000Y-84250000D03*
X111150000Y-99000000D03*
X134150000Y-72600000D03*
X163025000Y-89525000D03*
X157900000Y-90850000D03*
D17*
X123124856Y-80248499D03*
D16*
X176814124Y-73260000D03*
X193250001Y-99000000D03*
X122000001Y-99000000D03*
X136899999Y-68000000D03*
X165050000Y-68650000D03*
X136849998Y-66000000D03*
D17*
X117424856Y-82448499D03*
D16*
X157198742Y-73240147D03*
X131380000Y-77100000D03*
X168624856Y-84698499D03*
X196000000Y-93050000D03*
D17*
X117224856Y-85698499D03*
D16*
X103399999Y-71600000D03*
X158620000Y-85827925D03*
X102049493Y-79798984D03*
X144380000Y-78200000D03*
X157200000Y-75120000D03*
X144595365Y-85691019D03*
X102050001Y-81900000D03*
X140035873Y-95293122D03*
X187779167Y-91100000D03*
X154400000Y-71500000D03*
X163600000Y-70150000D03*
X118600000Y-94350000D03*
X126050000Y-74250000D03*
X105350000Y-99000000D03*
D17*
X123774856Y-81498499D03*
D16*
X151674857Y-82398498D03*
D17*
X126750000Y-89738499D03*
X118224856Y-86348499D03*
D16*
X156400000Y-68750000D03*
X141000000Y-70100000D03*
X132495272Y-78438487D03*
X172300000Y-72400000D03*
X114250000Y-90450000D03*
X156738224Y-79541776D03*
X128550000Y-86000000D03*
X113800000Y-99000000D03*
X133918101Y-75110000D03*
X177850000Y-88500000D03*
X106399492Y-77698984D03*
X146650000Y-90750000D03*
X135449999Y-68000000D03*
X118600000Y-92350000D03*
X148500000Y-67353527D03*
X189166666Y-89150000D03*
X178600000Y-80450000D03*
X123520000Y-77610000D03*
X155360000Y-88180000D03*
X146950000Y-81900000D03*
D17*
X116424856Y-84548499D03*
D16*
X102000000Y-73600000D03*
D17*
X123924856Y-83148499D03*
D18*
X146450000Y-95050000D03*
D16*
X167949999Y-71650000D03*
X187779167Y-89150000D03*
X123700000Y-75100000D03*
X183500001Y-99000000D03*
X196000000Y-97000000D03*
X191899999Y-95000000D03*
X182330000Y-90240000D03*
X131900000Y-79200000D03*
X114224856Y-83208499D03*
X120700001Y-99000000D03*
D18*
X150900000Y-95303805D03*
D16*
X160600000Y-74050000D03*
X172400000Y-99000000D03*
X148600000Y-90800000D03*
X166110000Y-84690000D03*
X132550000Y-68000000D03*
X170150000Y-78700000D03*
X136620000Y-75910000D03*
X191900000Y-89150000D03*
X135597660Y-95557660D03*
X141050000Y-81225000D03*
X180670000Y-73260000D03*
X191900000Y-91100000D03*
X143800000Y-68000000D03*
X165050000Y-70150000D03*
X124800001Y-99000000D03*
X110700002Y-73600000D03*
X170174858Y-90798495D03*
X142845853Y-81227502D03*
X128550000Y-81900000D03*
X189166666Y-91100000D03*
X108249999Y-95027202D03*
X106299998Y-71600000D03*
X163550000Y-76150000D03*
X163600000Y-73150000D03*
X115180000Y-87550000D03*
D17*
X123524856Y-84548499D03*
D16*
X103450000Y-75700000D03*
X135449999Y-70100000D03*
X103500001Y-81900000D03*
D17*
X117974856Y-79348499D03*
D16*
X180050000Y-83300000D03*
X173270000Y-85010000D03*
X135200000Y-94415001D03*
X140680000Y-94915000D03*
X143936515Y-87583250D03*
X106399492Y-79798984D03*
X150620000Y-76860000D03*
X169574856Y-86826998D03*
X174200000Y-81100000D03*
X136679999Y-88000000D03*
X144376515Y-90313249D03*
X152480840Y-88549160D03*
X177800000Y-67050000D03*
X161000000Y-72600000D03*
X160444856Y-92400000D03*
X161244856Y-90252549D03*
X167874856Y-90300000D03*
X144470000Y-81760000D03*
X121333768Y-94350044D03*
D17*
X116224856Y-81498499D03*
X149924856Y-74605000D03*
D16*
X149975212Y-80728854D03*
X117233333Y-92350000D03*
X152720000Y-83210000D03*
X154560000Y-96430000D03*
X140686515Y-88333250D03*
X128549999Y-95350000D03*
X149180000Y-75200000D03*
X156600000Y-77950000D03*
X102049493Y-77698984D03*
X128550000Y-83350000D03*
X104949492Y-79798984D03*
X154793340Y-85546660D03*
X187700001Y-99000000D03*
D17*
X116874856Y-80248499D03*
D16*
X103450000Y-73600000D03*
X107749999Y-71600000D03*
X177750000Y-90727208D03*
X162770000Y-83730000D03*
X170324856Y-87298499D03*
X152950000Y-71500000D03*
X131300000Y-84450000D03*
X125434094Y-94349188D03*
X134000000Y-68000000D03*
X125434094Y-96349188D03*
X154000000Y-92950000D03*
D18*
X152100000Y-96650000D03*
D16*
X166750000Y-88750000D03*
X147950000Y-66000000D03*
X137930000Y-73656998D03*
X169600000Y-99000000D03*
X177443958Y-83221146D03*
X142676515Y-86343961D03*
X143351515Y-91338250D03*
X150782743Y-81584717D03*
X149300000Y-66000000D03*
X103499493Y-77698984D03*
X142125000Y-83795000D03*
X155864160Y-81735840D03*
X138299999Y-66000000D03*
X170386999Y-94880965D03*
X169400000Y-74650000D03*
X141119754Y-93286000D03*
X158550000Y-83450000D03*
%TO.N,/HUM ~{CS} SPI*%
X137470000Y-80700000D03*
X133891001Y-80100000D03*
%TO.N,/MOSI SPI*%
X139320000Y-78360000D03*
X134616863Y-78810854D03*
X136430000Y-78325000D03*
X141905000Y-81275000D03*
%TO.N,Net-(MCU1-VREG_VOUT)*%
X148730000Y-84660000D03*
X151480000Y-80400000D03*
X155300000Y-81100000D03*
%TO.N,Net-(MCU1-RUN)*%
X150030000Y-85950000D03*
X151774856Y-90798499D03*
%TO.N,/BAR2 RDY*%
X153185824Y-87794176D03*
X152805000Y-85525000D03*
%TO.N,/INT GPS*%
X115380000Y-79000000D03*
X124442597Y-75355138D03*
X122670000Y-77660000D03*
X147920000Y-80960000D03*
%TO.N,/Green Status*%
X153900000Y-84825000D03*
X177920000Y-89960000D03*
%TO.N,/Red Status*%
X172374856Y-85698499D03*
X164150000Y-85325000D03*
%TO.N,+5V*%
X171474856Y-84298499D03*
D17*
X174374856Y-89655496D03*
X176408499Y-91298499D03*
D16*
X138200000Y-94400000D03*
X160900000Y-75000000D03*
%TO.N,/RP2040 Standard/MCU ~{CS} SPI*%
X151430000Y-71348298D03*
X151430000Y-76850000D03*
%TO.N,/INT1 BOSH IMU*%
X135980000Y-75500000D03*
X145080000Y-77400000D03*
%TO.N,/RP2040 Standard/USB_D+*%
X152339668Y-81229668D03*
X163442355Y-86238733D03*
%TO.N,/RP2040 Standard/MCU SD3 SPI*%
X150905000Y-79775000D03*
X154430000Y-75100000D03*
%TO.N,/IMU1 ~{CS} SPI*%
X152224856Y-83798499D03*
X133255000Y-78545000D03*
X138874856Y-81148499D03*
X141274856Y-83660000D03*
%TO.N,/MAG ~{CS} SPI*%
X141225000Y-82150000D03*
X138139518Y-78839999D03*
%TO.N,/RP2040 Standard/USB_D-*%
X152870000Y-81760000D03*
X162647355Y-86238733D03*
%TO.N,/RP2040 Standard/MCU SCLK SPI*%
X156150000Y-75120000D03*
X157341559Y-73987572D03*
%TO.N,/BAR1 RDY*%
X151420000Y-84460000D03*
X155869823Y-87593466D03*
%TO.N,/SCL0 I2C*%
X156000000Y-89475000D03*
X152414146Y-87614289D03*
X158206564Y-87260000D03*
X152370000Y-86510000D03*
%TO.N,/SCL1 I2C*%
X137860000Y-83834875D03*
X138925000Y-84875000D03*
%TO.N,/SDA1 I2C*%
X140474856Y-84198499D03*
X136687442Y-83232426D03*
%TO.N,/INT1 ST IMU*%
X143900000Y-85410000D03*
X141525000Y-85525000D03*
X146324856Y-82498499D03*
X134200000Y-87100000D03*
%TO.N,/RP2040 Standard/MCU SD1 SPI*%
X152770000Y-73010000D03*
X152605000Y-76125000D03*
D18*
%TO.N,/PYRO1*%
X174135000Y-73485000D03*
D16*
%TO.N,/RECOVERY1*%
X174800000Y-67250000D03*
X147050000Y-70400000D03*
%TO.N,/RECOVERY2*%
X178600000Y-66800000D03*
X148153883Y-69021722D03*
%TO.N,/RECOVERY3*%
X149170000Y-67900000D03*
X182470000Y-66550000D03*
%TO.N,Net-(R36-Pad2)*%
X180150000Y-82450000D03*
X178100000Y-81100000D03*
%TO.N,Net-(U30-VINA-)*%
X177650000Y-82500000D03*
X173700000Y-81750000D03*
%TO.N,GND*%
X193266666Y-83150000D03*
X193266666Y-85150000D03*
X193275000Y-67350000D03*
%TD*%
%TA.AperFunction,Conductor*%
%TO.N,GND*%
G36*
X127516803Y-65008373D02*
G01*
X127759131Y-65102251D01*
X128106017Y-65200947D01*
X128106017Y-65200948D01*
X128106019Y-65200948D01*
X128106025Y-65200950D01*
X128460546Y-65267222D01*
X128460551Y-65267222D01*
X128460554Y-65267223D01*
X128500852Y-65270957D01*
X128520948Y-65272819D01*
X128585886Y-65298605D01*
X128620417Y-65340835D01*
X129236909Y-66573818D01*
X129250000Y-66629273D01*
X129250000Y-74200000D01*
X130050000Y-74200000D01*
X130050000Y-73590691D01*
X141399500Y-73590691D01*
X141399500Y-73709309D01*
X141430201Y-73823886D01*
X141489511Y-73926613D01*
X141573387Y-74010489D01*
X141676114Y-74069799D01*
X141790691Y-74100500D01*
X141790694Y-74100500D01*
X141909306Y-74100500D01*
X141909309Y-74100500D01*
X142023886Y-74069799D01*
X142126613Y-74010489D01*
X142208839Y-73928263D01*
X156891059Y-73928263D01*
X156891059Y-74046881D01*
X156921760Y-74161458D01*
X156981070Y-74264185D01*
X157064946Y-74348061D01*
X157167673Y-74407371D01*
X157282250Y-74438072D01*
X157282253Y-74438072D01*
X157400865Y-74438072D01*
X157400868Y-74438072D01*
X157515445Y-74407371D01*
X157618172Y-74348061D01*
X157702048Y-74264185D01*
X157761358Y-74161458D01*
X157792059Y-74046881D01*
X157792059Y-73928263D01*
X157761358Y-73813686D01*
X157702048Y-73710959D01*
X157618172Y-73627083D01*
X157515445Y-73567773D01*
X157400868Y-73537072D01*
X157282250Y-73537072D01*
X157167673Y-73567773D01*
X157167671Y-73567773D01*
X157167671Y-73567774D01*
X157064946Y-73627083D01*
X157064943Y-73627085D01*
X156981072Y-73710956D01*
X156981070Y-73710959D01*
X156929374Y-73800499D01*
X156921760Y-73813686D01*
X156891059Y-73928263D01*
X142208839Y-73928263D01*
X142210489Y-73926613D01*
X142269799Y-73823886D01*
X142300500Y-73709309D01*
X142300500Y-73590691D01*
X142269799Y-73476114D01*
X142210489Y-73373387D01*
X142126613Y-73289511D01*
X142023886Y-73230201D01*
X141909309Y-73199500D01*
X141790691Y-73199500D01*
X141676114Y-73230201D01*
X141676112Y-73230201D01*
X141676112Y-73230202D01*
X141573387Y-73289511D01*
X141573384Y-73289513D01*
X141489513Y-73373384D01*
X141489511Y-73373387D01*
X141430201Y-73476114D01*
X141399500Y-73590691D01*
X130050000Y-73590691D01*
X130050000Y-72950691D01*
X152319500Y-72950691D01*
X152319500Y-73069309D01*
X152350201Y-73183886D01*
X152409511Y-73286613D01*
X152493387Y-73370489D01*
X152596114Y-73429799D01*
X152710691Y-73460500D01*
X152710694Y-73460500D01*
X152829306Y-73460500D01*
X152829309Y-73460500D01*
X152934653Y-73432273D01*
X173734500Y-73432273D01*
X173734500Y-73537727D01*
X173761793Y-73639587D01*
X173814520Y-73730913D01*
X173889087Y-73805480D01*
X173980413Y-73858207D01*
X174082273Y-73885500D01*
X174082275Y-73885500D01*
X174187725Y-73885500D01*
X174187727Y-73885500D01*
X174289587Y-73858207D01*
X174380913Y-73805480D01*
X174455480Y-73730913D01*
X174508207Y-73639587D01*
X174535500Y-73537727D01*
X174535500Y-73432273D01*
X174508207Y-73330413D01*
X174455480Y-73239087D01*
X174380913Y-73164520D01*
X174289587Y-73111793D01*
X174187727Y-73084500D01*
X174082273Y-73084500D01*
X173980413Y-73111793D01*
X173980410Y-73111794D01*
X173889085Y-73164521D01*
X173814521Y-73239085D01*
X173761794Y-73330410D01*
X173761793Y-73330413D01*
X173734500Y-73432273D01*
X152934653Y-73432273D01*
X152943886Y-73429799D01*
X153046613Y-73370489D01*
X153130489Y-73286613D01*
X153189799Y-73183886D01*
X153220500Y-73069309D01*
X153220500Y-72950691D01*
X153189799Y-72836114D01*
X153130489Y-72733387D01*
X153046613Y-72649511D01*
X152943886Y-72590201D01*
X152829309Y-72559500D01*
X152710691Y-72559500D01*
X152596114Y-72590201D01*
X152596112Y-72590201D01*
X152596112Y-72590202D01*
X152493387Y-72649511D01*
X152493384Y-72649513D01*
X152409513Y-72733384D01*
X152409511Y-72733387D01*
X152350201Y-72836114D01*
X152319500Y-72950691D01*
X130050000Y-72950691D01*
X130050000Y-71288989D01*
X150979500Y-71288989D01*
X150979500Y-71407607D01*
X151010201Y-71522184D01*
X151069511Y-71624911D01*
X151153387Y-71708787D01*
X151256114Y-71768097D01*
X151370691Y-71798798D01*
X151370694Y-71798798D01*
X151489306Y-71798798D01*
X151489309Y-71798798D01*
X151603886Y-71768097D01*
X151706613Y-71708787D01*
X151790489Y-71624911D01*
X151849799Y-71522184D01*
X151880500Y-71407607D01*
X151880500Y-71288989D01*
X151849799Y-71174412D01*
X151790489Y-71071685D01*
X151706613Y-70987809D01*
X151603886Y-70928499D01*
X151489309Y-70897798D01*
X151370691Y-70897798D01*
X151256114Y-70928499D01*
X151256112Y-70928499D01*
X151256112Y-70928500D01*
X151153387Y-70987809D01*
X151153384Y-70987811D01*
X151069513Y-71071682D01*
X151069511Y-71071685D01*
X151010201Y-71174412D01*
X150979500Y-71288989D01*
X130050000Y-71288989D01*
X130050000Y-70340691D01*
X146599500Y-70340691D01*
X146599500Y-70459309D01*
X146630201Y-70573886D01*
X146689511Y-70676613D01*
X146773387Y-70760489D01*
X146876114Y-70819799D01*
X146990691Y-70850500D01*
X146990694Y-70850500D01*
X147109306Y-70850500D01*
X147109309Y-70850500D01*
X147223886Y-70819799D01*
X147326613Y-70760489D01*
X147351411Y-70735691D01*
X159374356Y-70735691D01*
X159374356Y-70854309D01*
X159405057Y-70968886D01*
X159464367Y-71071613D01*
X159548243Y-71155489D01*
X159650970Y-71214799D01*
X159765547Y-71245500D01*
X159765550Y-71245500D01*
X159884162Y-71245500D01*
X159884165Y-71245500D01*
X159998742Y-71214799D01*
X160101469Y-71155489D01*
X160185345Y-71071613D01*
X160244655Y-70968886D01*
X160275356Y-70854309D01*
X160275356Y-70735691D01*
X160244655Y-70621114D01*
X160185345Y-70518387D01*
X160101469Y-70434511D01*
X159998742Y-70375201D01*
X159884165Y-70344500D01*
X159765547Y-70344500D01*
X159650970Y-70375201D01*
X159650968Y-70375201D01*
X159650968Y-70375202D01*
X159548243Y-70434511D01*
X159548240Y-70434513D01*
X159464369Y-70518384D01*
X159464367Y-70518387D01*
X159405057Y-70621114D01*
X159374356Y-70735691D01*
X147351411Y-70735691D01*
X147410489Y-70676613D01*
X147469799Y-70573886D01*
X147500500Y-70459309D01*
X147500500Y-70340691D01*
X147469799Y-70226114D01*
X147410489Y-70123387D01*
X147331360Y-70044258D01*
X186769500Y-70044258D01*
X186769500Y-70273741D01*
X186790667Y-70434511D01*
X186799452Y-70501238D01*
X186843482Y-70665563D01*
X186858842Y-70722887D01*
X186946650Y-70934876D01*
X186946657Y-70934890D01*
X187061392Y-71133617D01*
X187201081Y-71315661D01*
X187201089Y-71315670D01*
X187363330Y-71477911D01*
X187363338Y-71477918D01*
X187545382Y-71617607D01*
X187545385Y-71617608D01*
X187545388Y-71617611D01*
X187744112Y-71732344D01*
X187744117Y-71732346D01*
X187744123Y-71732349D01*
X187830422Y-71768095D01*
X187956113Y-71820158D01*
X188177762Y-71879548D01*
X188405266Y-71909500D01*
X188405273Y-71909500D01*
X188634727Y-71909500D01*
X188634734Y-71909500D01*
X188862238Y-71879548D01*
X189083887Y-71820158D01*
X189295888Y-71732344D01*
X189494612Y-71617611D01*
X189676661Y-71477919D01*
X189676665Y-71477914D01*
X189676670Y-71477911D01*
X189838911Y-71315670D01*
X189838914Y-71315665D01*
X189838919Y-71315661D01*
X189978611Y-71133612D01*
X190093344Y-70934888D01*
X190181158Y-70722887D01*
X190240548Y-70501238D01*
X190270500Y-70273734D01*
X190270500Y-70044266D01*
X190240548Y-69816762D01*
X190181158Y-69595113D01*
X190093344Y-69383112D01*
X189978611Y-69184388D01*
X189978608Y-69184385D01*
X189978607Y-69184382D01*
X189838918Y-69002338D01*
X189838911Y-69002330D01*
X189676670Y-68840089D01*
X189676661Y-68840081D01*
X189494617Y-68700392D01*
X189295890Y-68585657D01*
X189295876Y-68585650D01*
X189083887Y-68497842D01*
X188862238Y-68438452D01*
X188824215Y-68433446D01*
X188634741Y-68408500D01*
X188634734Y-68408500D01*
X188405266Y-68408500D01*
X188405258Y-68408500D01*
X188188715Y-68437009D01*
X188177762Y-68438452D01*
X188084076Y-68463554D01*
X187956112Y-68497842D01*
X187744123Y-68585650D01*
X187744109Y-68585657D01*
X187545382Y-68700392D01*
X187363338Y-68840081D01*
X187201081Y-69002338D01*
X187061392Y-69184382D01*
X186946657Y-69383109D01*
X186946650Y-69383123D01*
X186858842Y-69595112D01*
X186799453Y-69816759D01*
X186799451Y-69816770D01*
X186769500Y-70044258D01*
X147331360Y-70044258D01*
X147326613Y-70039511D01*
X147223886Y-69980201D01*
X147109309Y-69949500D01*
X146990691Y-69949500D01*
X146876114Y-69980201D01*
X146876112Y-69980201D01*
X146876112Y-69980202D01*
X146773387Y-70039511D01*
X146773384Y-70039513D01*
X146689513Y-70123384D01*
X146689511Y-70123387D01*
X146630201Y-70226114D01*
X146599500Y-70340691D01*
X130050000Y-70340691D01*
X130050000Y-68962413D01*
X147703383Y-68962413D01*
X147703383Y-69081031D01*
X147734084Y-69195608D01*
X147793394Y-69298335D01*
X147877270Y-69382211D01*
X147979997Y-69441521D01*
X148094574Y-69472222D01*
X148094577Y-69472222D01*
X148213189Y-69472222D01*
X148213192Y-69472222D01*
X148327769Y-69441521D01*
X148430496Y-69382211D01*
X148514372Y-69298335D01*
X148573682Y-69195608D01*
X148604383Y-69081031D01*
X148604383Y-68962413D01*
X148573682Y-68847836D01*
X148514372Y-68745109D01*
X148430496Y-68661233D01*
X148327769Y-68601923D01*
X148213192Y-68571222D01*
X148094574Y-68571222D01*
X147979997Y-68601923D01*
X147979995Y-68601923D01*
X147979995Y-68601924D01*
X147877270Y-68661233D01*
X147877267Y-68661235D01*
X147793396Y-68745106D01*
X147793394Y-68745109D01*
X147734084Y-68847836D01*
X147703383Y-68962413D01*
X130050000Y-68962413D01*
X130050000Y-67840691D01*
X148719500Y-67840691D01*
X148719500Y-67959309D01*
X148750201Y-68073886D01*
X148809511Y-68176613D01*
X148893387Y-68260489D01*
X148996114Y-68319799D01*
X149110691Y-68350500D01*
X149110694Y-68350500D01*
X149229306Y-68350500D01*
X149229309Y-68350500D01*
X149343886Y-68319799D01*
X149446613Y-68260489D01*
X149530489Y-68176613D01*
X149589799Y-68073886D01*
X149620500Y-67959309D01*
X149620500Y-67840691D01*
X149589799Y-67726114D01*
X149530489Y-67623387D01*
X149446613Y-67539511D01*
X149343886Y-67480201D01*
X149229309Y-67449500D01*
X149110691Y-67449500D01*
X148996114Y-67480201D01*
X148996112Y-67480201D01*
X148996112Y-67480202D01*
X148893387Y-67539511D01*
X148893384Y-67539513D01*
X148809513Y-67623384D01*
X148809511Y-67623387D01*
X148750201Y-67726114D01*
X148719500Y-67840691D01*
X130050000Y-67840691D01*
X130050000Y-67190691D01*
X174349500Y-67190691D01*
X174349500Y-67309309D01*
X174380201Y-67423886D01*
X174439511Y-67526613D01*
X174523387Y-67610489D01*
X174626114Y-67669799D01*
X174740691Y-67700500D01*
X174740694Y-67700500D01*
X174859306Y-67700500D01*
X174859309Y-67700500D01*
X174973886Y-67669799D01*
X175076613Y-67610489D01*
X175160489Y-67526613D01*
X175219799Y-67423886D01*
X175250500Y-67309309D01*
X175250500Y-67190691D01*
X175219799Y-67076114D01*
X175160489Y-66973387D01*
X175076613Y-66889511D01*
X174973886Y-66830201D01*
X174859309Y-66799500D01*
X174740691Y-66799500D01*
X174626114Y-66830201D01*
X174626112Y-66830201D01*
X174626112Y-66830202D01*
X174523387Y-66889511D01*
X174523384Y-66889513D01*
X174439513Y-66973384D01*
X174439511Y-66973387D01*
X174380201Y-67076114D01*
X174349500Y-67190691D01*
X130050000Y-67190691D01*
X130050000Y-66740691D01*
X178149500Y-66740691D01*
X178149500Y-66859309D01*
X178180201Y-66973886D01*
X178239511Y-67076613D01*
X178323387Y-67160489D01*
X178426114Y-67219799D01*
X178540691Y-67250500D01*
X178540694Y-67250500D01*
X178659306Y-67250500D01*
X178659309Y-67250500D01*
X178773886Y-67219799D01*
X178876613Y-67160489D01*
X178960489Y-67076613D01*
X179019799Y-66973886D01*
X179050500Y-66859309D01*
X179050500Y-66740691D01*
X179019799Y-66626114D01*
X178972715Y-66544562D01*
X178960493Y-66523393D01*
X178960490Y-66523390D01*
X178960489Y-66523387D01*
X178927793Y-66490691D01*
X182019500Y-66490691D01*
X182019500Y-66609309D01*
X182050201Y-66723886D01*
X182109511Y-66826613D01*
X182193387Y-66910489D01*
X182296114Y-66969799D01*
X182410691Y-67000500D01*
X182410694Y-67000500D01*
X182529306Y-67000500D01*
X182529309Y-67000500D01*
X182643886Y-66969799D01*
X182746613Y-66910489D01*
X182830489Y-66826613D01*
X182889799Y-66723886D01*
X182920500Y-66609309D01*
X182920500Y-66490691D01*
X182889799Y-66376114D01*
X182830489Y-66273387D01*
X182746613Y-66189511D01*
X182643886Y-66130201D01*
X182529309Y-66099500D01*
X182410691Y-66099500D01*
X182296114Y-66130201D01*
X182296112Y-66130201D01*
X182296112Y-66130202D01*
X182193387Y-66189511D01*
X182193384Y-66189513D01*
X182109513Y-66273384D01*
X182109511Y-66273387D01*
X182059252Y-66360438D01*
X182050201Y-66376114D01*
X182019500Y-66490691D01*
X178927793Y-66490691D01*
X178876613Y-66439511D01*
X178773886Y-66380201D01*
X178659309Y-66349500D01*
X178540691Y-66349500D01*
X178426114Y-66380201D01*
X178426112Y-66380201D01*
X178426112Y-66380202D01*
X178323387Y-66439511D01*
X178323384Y-66439513D01*
X178239513Y-66523384D01*
X178239511Y-66523387D01*
X178180201Y-66626114D01*
X178149500Y-66740691D01*
X130050000Y-66740691D01*
X130050000Y-65424500D01*
X130069685Y-65357461D01*
X130122489Y-65311706D01*
X130174000Y-65300500D01*
X186552404Y-65300500D01*
X186552405Y-65300501D01*
X186600000Y-65300501D01*
X186600000Y-65300500D01*
X186639562Y-65300501D01*
X186639566Y-65300500D01*
X186780331Y-65300500D01*
X187005169Y-65279665D01*
X187139445Y-65267223D01*
X187139445Y-65267222D01*
X187139454Y-65267222D01*
X187493975Y-65200951D01*
X187840869Y-65102251D01*
X188083196Y-65008372D01*
X188127990Y-65000000D01*
X197655418Y-65000000D01*
X197722457Y-65019685D01*
X197722458Y-65019685D01*
X197850932Y-65102251D01*
X197879050Y-65120321D01*
X198074290Y-65209483D01*
X198280231Y-65269953D01*
X198280232Y-65269953D01*
X198280235Y-65269954D01*
X198343584Y-65279061D01*
X198492682Y-65300499D01*
X198552405Y-65300499D01*
X198594588Y-65300499D01*
X198605394Y-65300970D01*
X198780116Y-65316257D01*
X198801401Y-65320010D01*
X198965575Y-65364000D01*
X198985885Y-65371392D01*
X199139920Y-65443219D01*
X199158633Y-65454023D01*
X199297859Y-65551510D01*
X199314417Y-65565404D01*
X199434594Y-65685581D01*
X199448488Y-65702139D01*
X199545973Y-65841362D01*
X199556780Y-65860080D01*
X199628607Y-66014114D01*
X199636000Y-66034426D01*
X199679989Y-66198598D01*
X199683742Y-66219884D01*
X199699028Y-66394603D01*
X199699500Y-66405410D01*
X199699500Y-98594587D01*
X199699028Y-98605395D01*
X199683741Y-98780116D01*
X199679988Y-98801401D01*
X199635999Y-98965573D01*
X199628606Y-98985885D01*
X199556779Y-99139918D01*
X199545972Y-99158636D01*
X199448488Y-99297858D01*
X199434594Y-99314416D01*
X199314416Y-99434594D01*
X199297858Y-99448488D01*
X199158636Y-99545972D01*
X199139918Y-99556779D01*
X198985885Y-99628606D01*
X198965573Y-99635999D01*
X198801401Y-99679988D01*
X198780116Y-99683741D01*
X198624395Y-99697365D01*
X198605393Y-99699028D01*
X198594588Y-99699500D01*
X198492682Y-99699500D01*
X198280235Y-99730044D01*
X198280225Y-99730047D01*
X198074284Y-99790517D01*
X197879061Y-99879672D01*
X197879048Y-99879679D01*
X197722455Y-99980316D01*
X197655416Y-100000000D01*
X188127991Y-100000000D01*
X188083197Y-99991627D01*
X187840866Y-99897748D01*
X187493982Y-99799052D01*
X187493982Y-99799051D01*
X187139445Y-99732776D01*
X186849463Y-99705906D01*
X186780331Y-99699500D01*
X186780328Y-99699500D01*
X128121682Y-99699500D01*
X128054643Y-99679815D01*
X128008888Y-99627011D01*
X127997684Y-99576178D01*
X127994347Y-98965573D01*
X127990121Y-98192118D01*
X128636700Y-98192118D01*
X128636700Y-98381881D01*
X128673717Y-98567976D01*
X128673719Y-98567984D01*
X128746333Y-98743291D01*
X128746338Y-98743300D01*
X128851755Y-98901067D01*
X128851758Y-98901071D01*
X128985928Y-99035241D01*
X128985932Y-99035244D01*
X129143699Y-99140661D01*
X129143705Y-99140664D01*
X129143706Y-99140665D01*
X129319016Y-99213281D01*
X129505118Y-99250299D01*
X129505121Y-99250300D01*
X129505123Y-99250300D01*
X129694879Y-99250300D01*
X129694880Y-99250299D01*
X129880984Y-99213281D01*
X130056294Y-99140665D01*
X130214068Y-99035244D01*
X130348244Y-98901068D01*
X130453665Y-98743294D01*
X130526281Y-98567984D01*
X130563300Y-98381877D01*
X130563300Y-98192123D01*
X130563300Y-98192120D01*
X130563299Y-98192118D01*
X131176700Y-98192118D01*
X131176700Y-98381881D01*
X131213717Y-98567976D01*
X131213719Y-98567984D01*
X131286333Y-98743291D01*
X131286338Y-98743300D01*
X131391755Y-98901067D01*
X131391758Y-98901071D01*
X131525928Y-99035241D01*
X131525932Y-99035244D01*
X131683699Y-99140661D01*
X131683705Y-99140664D01*
X131683706Y-99140665D01*
X131859016Y-99213281D01*
X132045118Y-99250299D01*
X132045121Y-99250300D01*
X132045123Y-99250300D01*
X132234879Y-99250300D01*
X132234880Y-99250299D01*
X132420984Y-99213281D01*
X132596294Y-99140665D01*
X132754068Y-99035244D01*
X132888244Y-98901068D01*
X132993665Y-98743294D01*
X133066281Y-98567984D01*
X133103300Y-98381877D01*
X133103300Y-98192123D01*
X133103300Y-98192120D01*
X133103299Y-98192118D01*
X133716700Y-98192118D01*
X133716700Y-98381881D01*
X133753717Y-98567976D01*
X133753719Y-98567984D01*
X133826333Y-98743291D01*
X133826338Y-98743300D01*
X133931755Y-98901067D01*
X133931758Y-98901071D01*
X134065928Y-99035241D01*
X134065932Y-99035244D01*
X134223699Y-99140661D01*
X134223705Y-99140664D01*
X134223706Y-99140665D01*
X134399016Y-99213281D01*
X134585118Y-99250299D01*
X134585121Y-99250300D01*
X134585123Y-99250300D01*
X134774879Y-99250300D01*
X134774880Y-99250299D01*
X134960984Y-99213281D01*
X135136294Y-99140665D01*
X135294068Y-99035244D01*
X135428244Y-98901068D01*
X135533665Y-98743294D01*
X135606281Y-98567984D01*
X135643300Y-98381877D01*
X135643300Y-98192123D01*
X135643300Y-98192120D01*
X135643299Y-98192118D01*
X136256700Y-98192118D01*
X136256700Y-98381881D01*
X136293717Y-98567976D01*
X136293719Y-98567984D01*
X136366333Y-98743291D01*
X136366338Y-98743300D01*
X136471755Y-98901067D01*
X136471758Y-98901071D01*
X136605928Y-99035241D01*
X136605932Y-99035244D01*
X136763699Y-99140661D01*
X136763705Y-99140664D01*
X136763706Y-99140665D01*
X136939016Y-99213281D01*
X137125118Y-99250299D01*
X137125121Y-99250300D01*
X137125123Y-99250300D01*
X137314879Y-99250300D01*
X137314880Y-99250299D01*
X137500984Y-99213281D01*
X137676294Y-99140665D01*
X137834068Y-99035244D01*
X137968244Y-98901068D01*
X138073665Y-98743294D01*
X138146281Y-98567984D01*
X138183300Y-98381877D01*
X138183300Y-98192123D01*
X138183300Y-98192120D01*
X138183299Y-98192118D01*
X141336700Y-98192118D01*
X141336700Y-98381881D01*
X141373717Y-98567976D01*
X141373719Y-98567984D01*
X141446333Y-98743291D01*
X141446338Y-98743300D01*
X141551755Y-98901067D01*
X141551758Y-98901071D01*
X141685928Y-99035241D01*
X141685932Y-99035244D01*
X141843699Y-99140661D01*
X141843705Y-99140664D01*
X141843706Y-99140665D01*
X142019016Y-99213281D01*
X142205118Y-99250299D01*
X142205121Y-99250300D01*
X142205123Y-99250300D01*
X142394879Y-99250300D01*
X142394880Y-99250299D01*
X142580984Y-99213281D01*
X142756294Y-99140665D01*
X142914068Y-99035244D01*
X143048244Y-98901068D01*
X143153665Y-98743294D01*
X143162312Y-98722419D01*
X158474355Y-98722419D01*
X158503196Y-98867406D01*
X158503199Y-98867416D01*
X158559768Y-99003987D01*
X158559775Y-99004000D01*
X158641904Y-99126914D01*
X158641907Y-99126918D01*
X158746436Y-99231447D01*
X158746440Y-99231450D01*
X158869354Y-99313579D01*
X158869367Y-99313586D01*
X159005938Y-99370155D01*
X159005943Y-99370157D01*
X159005947Y-99370157D01*
X159005948Y-99370158D01*
X159150935Y-99398999D01*
X159150938Y-99398999D01*
X159298776Y-99398999D01*
X159396318Y-99379595D01*
X159443769Y-99370157D01*
X159580351Y-99313583D01*
X159703272Y-99231450D01*
X159807807Y-99126915D01*
X159889940Y-99003994D01*
X159946514Y-98867412D01*
X159971202Y-98743300D01*
X159975356Y-98722419D01*
X167114355Y-98722419D01*
X167143196Y-98867406D01*
X167143199Y-98867416D01*
X167199768Y-99003987D01*
X167199775Y-99004000D01*
X167281904Y-99126914D01*
X167281907Y-99126918D01*
X167386436Y-99231447D01*
X167386440Y-99231450D01*
X167509354Y-99313579D01*
X167509367Y-99313586D01*
X167645938Y-99370155D01*
X167645943Y-99370157D01*
X167645947Y-99370157D01*
X167645948Y-99370158D01*
X167790935Y-99398999D01*
X167790938Y-99398999D01*
X167938776Y-99398999D01*
X168036318Y-99379595D01*
X168083769Y-99370157D01*
X168220351Y-99313583D01*
X168343272Y-99231450D01*
X168447807Y-99126915D01*
X168529940Y-99003994D01*
X168586514Y-98867412D01*
X168611202Y-98743300D01*
X168615356Y-98722419D01*
X168615356Y-97374578D01*
X168586515Y-97229591D01*
X168586514Y-97229590D01*
X168586514Y-97229586D01*
X168545888Y-97131506D01*
X168529943Y-97093010D01*
X168529936Y-97092997D01*
X168447807Y-96970083D01*
X168447804Y-96970079D01*
X168343275Y-96865550D01*
X168343271Y-96865547D01*
X168220357Y-96783418D01*
X168220344Y-96783411D01*
X168083773Y-96726842D01*
X168083763Y-96726839D01*
X167938776Y-96697999D01*
X167938774Y-96697999D01*
X167790938Y-96697999D01*
X167790936Y-96697999D01*
X167645948Y-96726839D01*
X167645938Y-96726842D01*
X167509367Y-96783411D01*
X167509354Y-96783418D01*
X167386440Y-96865547D01*
X167386436Y-96865550D01*
X167281907Y-96970079D01*
X167281904Y-96970083D01*
X167199775Y-97092997D01*
X167199768Y-97093010D01*
X167143199Y-97229581D01*
X167143196Y-97229591D01*
X167114356Y-97374578D01*
X167114356Y-97374581D01*
X167114356Y-98722417D01*
X167114356Y-98722419D01*
X167114355Y-98722419D01*
X159975356Y-98722419D01*
X159975356Y-97374578D01*
X159946515Y-97229591D01*
X159946514Y-97229590D01*
X159946514Y-97229586D01*
X159905888Y-97131506D01*
X159889943Y-97093010D01*
X159889936Y-97092997D01*
X159807807Y-96970083D01*
X159807804Y-96970079D01*
X159703275Y-96865550D01*
X159703271Y-96865547D01*
X159580357Y-96783418D01*
X159580344Y-96783411D01*
X159443773Y-96726842D01*
X159443763Y-96726839D01*
X159298776Y-96697999D01*
X159298774Y-96697999D01*
X159150938Y-96697999D01*
X159150936Y-96697999D01*
X159005948Y-96726839D01*
X159005938Y-96726842D01*
X158869367Y-96783411D01*
X158869354Y-96783418D01*
X158746440Y-96865547D01*
X158746436Y-96865550D01*
X158641907Y-96970079D01*
X158641904Y-96970083D01*
X158559775Y-97092997D01*
X158559768Y-97093010D01*
X158503199Y-97229581D01*
X158503196Y-97229591D01*
X158474356Y-97374578D01*
X158474356Y-97374581D01*
X158474356Y-98722417D01*
X158474356Y-98722419D01*
X158474355Y-98722419D01*
X143162312Y-98722419D01*
X143226281Y-98567984D01*
X143263300Y-98381877D01*
X143263300Y-98192123D01*
X143263300Y-98192120D01*
X143263299Y-98192118D01*
X143226282Y-98006023D01*
X143226281Y-98006016D01*
X143153665Y-97830706D01*
X143153664Y-97830705D01*
X143153661Y-97830699D01*
X143048244Y-97672932D01*
X143048241Y-97672928D01*
X142914071Y-97538758D01*
X142914067Y-97538755D01*
X142813549Y-97471591D01*
X142756300Y-97433338D01*
X142756291Y-97433333D01*
X142580984Y-97360719D01*
X142580976Y-97360717D01*
X142394880Y-97323700D01*
X142394877Y-97323700D01*
X142205123Y-97323700D01*
X142205120Y-97323700D01*
X142019023Y-97360717D01*
X142019015Y-97360719D01*
X141843708Y-97433333D01*
X141843699Y-97433338D01*
X141685932Y-97538755D01*
X141685928Y-97538758D01*
X141551758Y-97672928D01*
X141551755Y-97672932D01*
X141446338Y-97830699D01*
X141446333Y-97830708D01*
X141373719Y-98006015D01*
X141373717Y-98006023D01*
X141336700Y-98192118D01*
X138183299Y-98192118D01*
X138146282Y-98006023D01*
X138146281Y-98006016D01*
X138073665Y-97830706D01*
X138073664Y-97830705D01*
X138073661Y-97830699D01*
X137968244Y-97672932D01*
X137968241Y-97672928D01*
X137834071Y-97538758D01*
X137834067Y-97538755D01*
X137676300Y-97433338D01*
X137676291Y-97433333D01*
X137500984Y-97360719D01*
X137500976Y-97360717D01*
X137314880Y-97323700D01*
X137314877Y-97323700D01*
X137125123Y-97323700D01*
X137125120Y-97323700D01*
X136939023Y-97360717D01*
X136939015Y-97360719D01*
X136763708Y-97433333D01*
X136763699Y-97433338D01*
X136605932Y-97538755D01*
X136605928Y-97538758D01*
X136471758Y-97672928D01*
X136471755Y-97672932D01*
X136366338Y-97830699D01*
X136366333Y-97830708D01*
X136293719Y-98006015D01*
X136293717Y-98006023D01*
X136256700Y-98192118D01*
X135643299Y-98192118D01*
X135606282Y-98006023D01*
X135606281Y-98006016D01*
X135533665Y-97830706D01*
X135533664Y-97830705D01*
X135533661Y-97830699D01*
X135428244Y-97672932D01*
X135428241Y-97672928D01*
X135294071Y-97538758D01*
X135294067Y-97538755D01*
X135136300Y-97433338D01*
X135136291Y-97433333D01*
X134960984Y-97360719D01*
X134960976Y-97360717D01*
X134774880Y-97323700D01*
X134774877Y-97323700D01*
X134585123Y-97323700D01*
X134585120Y-97323700D01*
X134399023Y-97360717D01*
X134399015Y-97360719D01*
X134223708Y-97433333D01*
X134223699Y-97433338D01*
X134065932Y-97538755D01*
X134065928Y-97538758D01*
X133931758Y-97672928D01*
X133931755Y-97672932D01*
X133826338Y-97830699D01*
X133826333Y-97830708D01*
X133753719Y-98006015D01*
X133753717Y-98006023D01*
X133716700Y-98192118D01*
X133103299Y-98192118D01*
X133066282Y-98006023D01*
X133066281Y-98006016D01*
X132993665Y-97830706D01*
X132993664Y-97830705D01*
X132993661Y-97830699D01*
X132888244Y-97672932D01*
X132888241Y-97672928D01*
X132754071Y-97538758D01*
X132754067Y-97538755D01*
X132596300Y-97433338D01*
X132596291Y-97433333D01*
X132420984Y-97360719D01*
X132420976Y-97360717D01*
X132234880Y-97323700D01*
X132234877Y-97323700D01*
X132045123Y-97323700D01*
X132045120Y-97323700D01*
X131859023Y-97360717D01*
X131859015Y-97360719D01*
X131683708Y-97433333D01*
X131683699Y-97433338D01*
X131525932Y-97538755D01*
X131525928Y-97538758D01*
X131391758Y-97672928D01*
X131391755Y-97672932D01*
X131286338Y-97830699D01*
X131286333Y-97830708D01*
X131213719Y-98006015D01*
X131213717Y-98006023D01*
X131176700Y-98192118D01*
X130563299Y-98192118D01*
X130526282Y-98006023D01*
X130526281Y-98006016D01*
X130453665Y-97830706D01*
X130453664Y-97830705D01*
X130453661Y-97830699D01*
X130348244Y-97672932D01*
X130348241Y-97672928D01*
X130214071Y-97538758D01*
X130214067Y-97538755D01*
X130056300Y-97433338D01*
X130056291Y-97433333D01*
X129880984Y-97360719D01*
X129880976Y-97360717D01*
X129694880Y-97323700D01*
X129694877Y-97323700D01*
X129505123Y-97323700D01*
X129505120Y-97323700D01*
X129319023Y-97360717D01*
X129319015Y-97360719D01*
X129143708Y-97433333D01*
X129143699Y-97433338D01*
X128985932Y-97538755D01*
X128985928Y-97538758D01*
X128851758Y-97672928D01*
X128851755Y-97672932D01*
X128746338Y-97830699D01*
X128746333Y-97830708D01*
X128673719Y-98006015D01*
X128673717Y-98006023D01*
X128636700Y-98192118D01*
X127990121Y-98192118D01*
X127973392Y-95130691D01*
X135934500Y-95130691D01*
X135934500Y-95249309D01*
X135965201Y-95363886D01*
X136024511Y-95466613D01*
X136108387Y-95550489D01*
X136211114Y-95609799D01*
X136325691Y-95640500D01*
X136325694Y-95640500D01*
X136444306Y-95640500D01*
X136444309Y-95640500D01*
X136558886Y-95609799D01*
X136661613Y-95550489D01*
X136745489Y-95466613D01*
X136804799Y-95363886D01*
X136835500Y-95249309D01*
X136835500Y-95130691D01*
X136804799Y-95016114D01*
X136745489Y-94913387D01*
X136661613Y-94829511D01*
X136558886Y-94770201D01*
X136444309Y-94739500D01*
X136325691Y-94739500D01*
X136211114Y-94770201D01*
X136211112Y-94770201D01*
X136211112Y-94770202D01*
X136108387Y-94829511D01*
X136108384Y-94829513D01*
X136024513Y-94913384D01*
X136024511Y-94913387D01*
X135968449Y-95010489D01*
X135965201Y-95016114D01*
X135934500Y-95130691D01*
X127973392Y-95130691D01*
X127969075Y-94340691D01*
X137749500Y-94340691D01*
X137749500Y-94459309D01*
X137780201Y-94573886D01*
X137839511Y-94676613D01*
X137923387Y-94760489D01*
X138026114Y-94819799D01*
X138140691Y-94850500D01*
X138140694Y-94850500D01*
X138259306Y-94850500D01*
X138259309Y-94850500D01*
X138373886Y-94819799D01*
X138476613Y-94760489D01*
X138560489Y-94676613D01*
X138619799Y-94573886D01*
X138650500Y-94459309D01*
X138650500Y-94340691D01*
X138619799Y-94226114D01*
X138560489Y-94123387D01*
X138476613Y-94039511D01*
X138373886Y-93980201D01*
X138259309Y-93949500D01*
X138140691Y-93949500D01*
X138026114Y-93980201D01*
X138026112Y-93980201D01*
X138026112Y-93980202D01*
X137923387Y-94039511D01*
X137923384Y-94039513D01*
X137839513Y-94123384D01*
X137839511Y-94123387D01*
X137780201Y-94226114D01*
X137749500Y-94340691D01*
X127969075Y-94340691D01*
X127964785Y-93555691D01*
X139049500Y-93555691D01*
X139049500Y-93674309D01*
X139080201Y-93788886D01*
X139139511Y-93891613D01*
X139223387Y-93975489D01*
X139326114Y-94034799D01*
X139370568Y-94046710D01*
X139430227Y-94083073D01*
X139460757Y-94145919D01*
X139452463Y-94215295D01*
X139407978Y-94269174D01*
X139400477Y-94273869D01*
X139373393Y-94289506D01*
X139373384Y-94289513D01*
X139289513Y-94373384D01*
X139289511Y-94373387D01*
X139234811Y-94468130D01*
X139230201Y-94476114D01*
X139199500Y-94590691D01*
X139199500Y-94709309D01*
X139230201Y-94823886D01*
X139289511Y-94926613D01*
X139373387Y-95010489D01*
X139476114Y-95069799D01*
X139590691Y-95100500D01*
X139590694Y-95100500D01*
X139709306Y-95100500D01*
X139709309Y-95100500D01*
X139823886Y-95069799D01*
X139926613Y-95010489D01*
X140010489Y-94926613D01*
X140069799Y-94823886D01*
X140100500Y-94709309D01*
X140100500Y-94590691D01*
X140069799Y-94476114D01*
X140065190Y-94468131D01*
X140040037Y-94424564D01*
X140040036Y-94424562D01*
X140010493Y-94373393D01*
X140010490Y-94373390D01*
X140010489Y-94373387D01*
X140007793Y-94370691D01*
X142849500Y-94370691D01*
X142849500Y-94489309D01*
X142880201Y-94603886D01*
X142939511Y-94706613D01*
X143023387Y-94790489D01*
X143126114Y-94849799D01*
X143240691Y-94880500D01*
X143240694Y-94880500D01*
X143359306Y-94880500D01*
X143359309Y-94880500D01*
X143473886Y-94849799D01*
X143576613Y-94790489D01*
X143660489Y-94706613D01*
X143719799Y-94603886D01*
X143750500Y-94489309D01*
X143750500Y-94370691D01*
X143719799Y-94256114D01*
X143660489Y-94153387D01*
X143576613Y-94069511D01*
X143473886Y-94010201D01*
X143359309Y-93979500D01*
X143240691Y-93979500D01*
X143126114Y-94010201D01*
X143126112Y-94010201D01*
X143126112Y-94010202D01*
X143023387Y-94069511D01*
X143023384Y-94069513D01*
X142939513Y-94153384D01*
X142939511Y-94153387D01*
X142880201Y-94256114D01*
X142849500Y-94370691D01*
X140007793Y-94370691D01*
X139926613Y-94289511D01*
X139823886Y-94230201D01*
X139779430Y-94218289D01*
X139719771Y-94181925D01*
X139689242Y-94119078D01*
X139697537Y-94049703D01*
X139742022Y-93995825D01*
X139749526Y-93991128D01*
X139753348Y-93988921D01*
X139776613Y-93975489D01*
X139860489Y-93891613D01*
X139919799Y-93788886D01*
X139950500Y-93674309D01*
X139950500Y-93594837D01*
X145074755Y-93594837D01*
X145074755Y-93713455D01*
X145105456Y-93828032D01*
X145164766Y-93930759D01*
X145248642Y-94014635D01*
X145351369Y-94073945D01*
X145465946Y-94104646D01*
X145465949Y-94104646D01*
X145584561Y-94104646D01*
X145584564Y-94104646D01*
X145699141Y-94073945D01*
X145801868Y-94014635D01*
X145885744Y-93930759D01*
X145945054Y-93828032D01*
X145975755Y-93713455D01*
X145975755Y-93594837D01*
X145969808Y-93572644D01*
X158495356Y-93572644D01*
X158495356Y-94874353D01*
X158523387Y-95015278D01*
X158523390Y-95015287D01*
X158578377Y-95148040D01*
X158578384Y-95148053D01*
X158658215Y-95267527D01*
X158658218Y-95267531D01*
X158759823Y-95369136D01*
X158759827Y-95369139D01*
X158879301Y-95448970D01*
X158879314Y-95448977D01*
X158963596Y-95483887D01*
X159012069Y-95503965D01*
X159012071Y-95503965D01*
X159012076Y-95503967D01*
X159153001Y-95531998D01*
X159153005Y-95531999D01*
X159153006Y-95531999D01*
X159296707Y-95531999D01*
X159296708Y-95531998D01*
X159343685Y-95522654D01*
X159437635Y-95503967D01*
X159437638Y-95503965D01*
X159437643Y-95503965D01*
X159570404Y-95448974D01*
X159689885Y-95369139D01*
X159791496Y-95267528D01*
X159864344Y-95158504D01*
X159917956Y-95113699D01*
X159987281Y-95104992D01*
X160050309Y-95135146D01*
X160074833Y-95165394D01*
X160132354Y-95265023D01*
X160228332Y-95361001D01*
X160228333Y-95361002D01*
X160228335Y-95361003D01*
X160345877Y-95428866D01*
X160345878Y-95428866D01*
X160345881Y-95428868D01*
X160476989Y-95463999D01*
X160476991Y-95463999D01*
X160612721Y-95463999D01*
X160612723Y-95463999D01*
X160743831Y-95428868D01*
X160861380Y-95361001D01*
X160957358Y-95265023D01*
X160965633Y-95250691D01*
X162594356Y-95250691D01*
X162594356Y-95369309D01*
X162625057Y-95483886D01*
X162684367Y-95586613D01*
X162768243Y-95670489D01*
X162870970Y-95729799D01*
X162985547Y-95760500D01*
X162985550Y-95760500D01*
X163104162Y-95760500D01*
X163104165Y-95760500D01*
X163218742Y-95729799D01*
X163321469Y-95670489D01*
X163352768Y-95639190D01*
X180374356Y-95639190D01*
X180374356Y-95757808D01*
X180405057Y-95872385D01*
X180464367Y-95975112D01*
X180548243Y-96058988D01*
X180650970Y-96118298D01*
X180765547Y-96148999D01*
X180765550Y-96148999D01*
X180884162Y-96148999D01*
X180884165Y-96148999D01*
X180998742Y-96118298D01*
X181101469Y-96058988D01*
X181185345Y-95975112D01*
X181244655Y-95872385D01*
X181275356Y-95757808D01*
X181275356Y-95639190D01*
X181244655Y-95524613D01*
X181185345Y-95421886D01*
X181101469Y-95338010D01*
X180998742Y-95278700D01*
X180884165Y-95247999D01*
X180765547Y-95247999D01*
X180650970Y-95278700D01*
X180650968Y-95278700D01*
X180650968Y-95278701D01*
X180548243Y-95338010D01*
X180548240Y-95338012D01*
X180464369Y-95421883D01*
X180464367Y-95421886D01*
X180405057Y-95524613D01*
X180374356Y-95639190D01*
X163352768Y-95639190D01*
X163405345Y-95586613D01*
X163464655Y-95483886D01*
X163495356Y-95369309D01*
X163495356Y-95250691D01*
X163464655Y-95136114D01*
X163405345Y-95033387D01*
X163321469Y-94949511D01*
X163218742Y-94890201D01*
X163190401Y-94882607D01*
X166044356Y-94882607D01*
X166044356Y-95014391D01*
X166049683Y-95034272D01*
X166078464Y-95141686D01*
X166088174Y-95158504D01*
X166144356Y-95255813D01*
X166237542Y-95348999D01*
X166351670Y-95414891D01*
X166478964Y-95448999D01*
X166478966Y-95448999D01*
X166610746Y-95448999D01*
X166610748Y-95448999D01*
X166738042Y-95414891D01*
X166852170Y-95348999D01*
X166945356Y-95255813D01*
X167005587Y-95151489D01*
X167056154Y-95103274D01*
X167124761Y-95090051D01*
X167189626Y-95116019D01*
X167216076Y-95144599D01*
X167298215Y-95267527D01*
X167298218Y-95267531D01*
X167399823Y-95369136D01*
X167399827Y-95369139D01*
X167519301Y-95448970D01*
X167519314Y-95448977D01*
X167603596Y-95483887D01*
X167652069Y-95503965D01*
X167652071Y-95503965D01*
X167652076Y-95503967D01*
X167793001Y-95531998D01*
X167793005Y-95531999D01*
X167793006Y-95531999D01*
X167936707Y-95531999D01*
X167936708Y-95531998D01*
X167973848Y-95524611D01*
X168050091Y-95509446D01*
X168077635Y-95503967D01*
X168077638Y-95503965D01*
X168077643Y-95503965D01*
X168210404Y-95448974D01*
X168329885Y-95369139D01*
X168431496Y-95267528D01*
X168511331Y-95148047D01*
X168558464Y-95034258D01*
X186769500Y-95034258D01*
X186769500Y-95263741D01*
X186790321Y-95421883D01*
X186799452Y-95491238D01*
X186831220Y-95609799D01*
X186858842Y-95712887D01*
X186946650Y-95924876D01*
X186946657Y-95924890D01*
X187061392Y-96123617D01*
X187201081Y-96305661D01*
X187201089Y-96305670D01*
X187363330Y-96467911D01*
X187363338Y-96467918D01*
X187545382Y-96607607D01*
X187545385Y-96607608D01*
X187545388Y-96607611D01*
X187744112Y-96722344D01*
X187744117Y-96722346D01*
X187744123Y-96722349D01*
X187816685Y-96752405D01*
X187956113Y-96810158D01*
X188177762Y-96869548D01*
X188405266Y-96899500D01*
X188405273Y-96899500D01*
X188634727Y-96899500D01*
X188634734Y-96899500D01*
X188862238Y-96869548D01*
X189083887Y-96810158D01*
X189295888Y-96722344D01*
X189494612Y-96607611D01*
X189676661Y-96467919D01*
X189676665Y-96467914D01*
X189676670Y-96467911D01*
X189838911Y-96305670D01*
X189838914Y-96305665D01*
X189838919Y-96305661D01*
X189978611Y-96123612D01*
X190093344Y-95924888D01*
X190181158Y-95712887D01*
X190240548Y-95491238D01*
X190270500Y-95263734D01*
X190270500Y-95034266D01*
X190240548Y-94806762D01*
X190181158Y-94585113D01*
X190114656Y-94424564D01*
X190093349Y-94373123D01*
X190093346Y-94373117D01*
X190093344Y-94373112D01*
X189978611Y-94174388D01*
X189978608Y-94174385D01*
X189978607Y-94174382D01*
X189838918Y-93992338D01*
X189838911Y-93992330D01*
X189676670Y-93830089D01*
X189676661Y-93830081D01*
X189494617Y-93690392D01*
X189466760Y-93674309D01*
X189295888Y-93575656D01*
X189295876Y-93575650D01*
X189083887Y-93487842D01*
X189055590Y-93480260D01*
X188862238Y-93428452D01*
X188824215Y-93423446D01*
X188634741Y-93398500D01*
X188634734Y-93398500D01*
X188405266Y-93398500D01*
X188405258Y-93398500D01*
X188188715Y-93427009D01*
X188177762Y-93428452D01*
X188084076Y-93453554D01*
X187956112Y-93487842D01*
X187744123Y-93575650D01*
X187744109Y-93575657D01*
X187545382Y-93690392D01*
X187363338Y-93830081D01*
X187201081Y-93992338D01*
X187061392Y-94174382D01*
X186946657Y-94373109D01*
X186946650Y-94373123D01*
X186858842Y-94585112D01*
X186843818Y-94641185D01*
X186811852Y-94760486D01*
X186799453Y-94806759D01*
X186799451Y-94806770D01*
X186769500Y-95034258D01*
X168558464Y-95034258D01*
X168566322Y-95015286D01*
X168594356Y-94874349D01*
X168594356Y-93572649D01*
X168575979Y-93480259D01*
X168566324Y-93431719D01*
X168566321Y-93431710D01*
X168511334Y-93298957D01*
X168511327Y-93298944D01*
X168431496Y-93179470D01*
X168431493Y-93179466D01*
X168329888Y-93077861D01*
X168329884Y-93077858D01*
X168210410Y-92998027D01*
X168210397Y-92998020D01*
X168077644Y-92943033D01*
X168077635Y-92943030D01*
X167936710Y-92914999D01*
X167936706Y-92914999D01*
X167793006Y-92914999D01*
X167793001Y-92914999D01*
X167652076Y-92943030D01*
X167652067Y-92943033D01*
X167519314Y-92998020D01*
X167519301Y-92998027D01*
X167399827Y-93077858D01*
X167399823Y-93077861D01*
X167298218Y-93179466D01*
X167298215Y-93179470D01*
X167218384Y-93298944D01*
X167218377Y-93298957D01*
X167163390Y-93431710D01*
X167163387Y-93431719D01*
X167135356Y-93572644D01*
X167135356Y-94531823D01*
X167115671Y-94598862D01*
X167062867Y-94644617D01*
X166993709Y-94654561D01*
X166930153Y-94625536D01*
X166923675Y-94619504D01*
X166852172Y-94548001D01*
X166852170Y-94547999D01*
X166787412Y-94510611D01*
X166738043Y-94482107D01*
X166652958Y-94459309D01*
X166610748Y-94447999D01*
X166478964Y-94447999D01*
X166351668Y-94482107D01*
X166237542Y-94547999D01*
X166237539Y-94548001D01*
X166144358Y-94641182D01*
X166144356Y-94641185D01*
X166078464Y-94755311D01*
X166044885Y-94880632D01*
X166044356Y-94882607D01*
X163190401Y-94882607D01*
X163104165Y-94859500D01*
X162985547Y-94859500D01*
X162870970Y-94890201D01*
X162870968Y-94890201D01*
X162870968Y-94890202D01*
X162768243Y-94949511D01*
X162768240Y-94949513D01*
X162684369Y-95033384D01*
X162684367Y-95033387D01*
X162625057Y-95136114D01*
X162594356Y-95250691D01*
X160965633Y-95250691D01*
X161025225Y-95147474D01*
X161060356Y-95016366D01*
X161060356Y-94880632D01*
X161025225Y-94749524D01*
X161000451Y-94706615D01*
X160957360Y-94631978D01*
X160957355Y-94631972D01*
X160861382Y-94535999D01*
X160861376Y-94535994D01*
X160743834Y-94468131D01*
X160743835Y-94468131D01*
X160710900Y-94459306D01*
X160612723Y-94432999D01*
X160476989Y-94432999D01*
X160378812Y-94459306D01*
X160345877Y-94468131D01*
X160228335Y-94535994D01*
X160228329Y-94535999D01*
X160166037Y-94598292D01*
X160104714Y-94631777D01*
X160035022Y-94626793D01*
X159979089Y-94584921D01*
X159954672Y-94519457D01*
X159954356Y-94510611D01*
X159954356Y-93572648D01*
X159954355Y-93572644D01*
X159926324Y-93431719D01*
X159926321Y-93431710D01*
X159871334Y-93298957D01*
X159871327Y-93298944D01*
X159791496Y-93179470D01*
X159791493Y-93179466D01*
X159689888Y-93077861D01*
X159689884Y-93077858D01*
X159570410Y-92998027D01*
X159570397Y-92998020D01*
X159437644Y-92943033D01*
X159437635Y-92943030D01*
X159296710Y-92914999D01*
X159296706Y-92914999D01*
X159153006Y-92914999D01*
X159153001Y-92914999D01*
X159012076Y-92943030D01*
X159012067Y-92943033D01*
X158879314Y-92998020D01*
X158879301Y-92998027D01*
X158759827Y-93077858D01*
X158759823Y-93077861D01*
X158658218Y-93179466D01*
X158658215Y-93179470D01*
X158578384Y-93298944D01*
X158578377Y-93298957D01*
X158523390Y-93431710D01*
X158523387Y-93431719D01*
X158495356Y-93572644D01*
X145969808Y-93572644D01*
X145945054Y-93480260D01*
X145885744Y-93377533D01*
X145801868Y-93293657D01*
X145699141Y-93234347D01*
X145584564Y-93203646D01*
X145465946Y-93203646D01*
X145351369Y-93234347D01*
X145351367Y-93234347D01*
X145351367Y-93234348D01*
X145248642Y-93293657D01*
X145248639Y-93293659D01*
X145164768Y-93377530D01*
X145164766Y-93377533D01*
X145108211Y-93475489D01*
X145105456Y-93480260D01*
X145074755Y-93594837D01*
X139950500Y-93594837D01*
X139950500Y-93555691D01*
X139919799Y-93441114D01*
X139860489Y-93338387D01*
X139776613Y-93254511D01*
X139673886Y-93195201D01*
X139569901Y-93167338D01*
X139566352Y-93166387D01*
X139559309Y-93164500D01*
X139440691Y-93164500D01*
X139326114Y-93195201D01*
X139326112Y-93195201D01*
X139326112Y-93195202D01*
X139223387Y-93254511D01*
X139223384Y-93254513D01*
X139139513Y-93338384D01*
X139139511Y-93338387D01*
X139108780Y-93391615D01*
X139080201Y-93441114D01*
X139049500Y-93555691D01*
X127964785Y-93555691D01*
X127962053Y-93055691D01*
X141399500Y-93055691D01*
X141399500Y-93174309D01*
X141430201Y-93288886D01*
X141489511Y-93391613D01*
X141573387Y-93475489D01*
X141676114Y-93534799D01*
X141790691Y-93565500D01*
X141790694Y-93565500D01*
X141909306Y-93565500D01*
X141909309Y-93565500D01*
X142023886Y-93534799D01*
X142126613Y-93475489D01*
X142210489Y-93391613D01*
X142269799Y-93288886D01*
X142300500Y-93174309D01*
X142300500Y-93055691D01*
X142269799Y-92941114D01*
X142210489Y-92838387D01*
X142126613Y-92754511D01*
X142023886Y-92695201D01*
X141909309Y-92664500D01*
X141790691Y-92664500D01*
X141676114Y-92695201D01*
X141676112Y-92695201D01*
X141676112Y-92695202D01*
X141573387Y-92754511D01*
X141573384Y-92754513D01*
X141489513Y-92838384D01*
X141489511Y-92838387D01*
X141430201Y-92941114D01*
X141399500Y-93055691D01*
X127962053Y-93055691D01*
X127955960Y-91940691D01*
X147049500Y-91940691D01*
X147049500Y-92059309D01*
X147080201Y-92173886D01*
X147139511Y-92276613D01*
X147223387Y-92360489D01*
X147326114Y-92419799D01*
X147440691Y-92450500D01*
X147440694Y-92450500D01*
X147559306Y-92450500D01*
X147559309Y-92450500D01*
X147673886Y-92419799D01*
X147776613Y-92360489D01*
X147860489Y-92276613D01*
X147919799Y-92173886D01*
X147950500Y-92059309D01*
X147950500Y-91940691D01*
X147919799Y-91826114D01*
X147860489Y-91723387D01*
X147776613Y-91639511D01*
X147673886Y-91580201D01*
X147559309Y-91549500D01*
X147440691Y-91549500D01*
X147326114Y-91580201D01*
X147326112Y-91580201D01*
X147326112Y-91580202D01*
X147223387Y-91639511D01*
X147223384Y-91639513D01*
X147139513Y-91723384D01*
X147139511Y-91723387D01*
X147095857Y-91798998D01*
X147080201Y-91826114D01*
X147049500Y-91940691D01*
X127955960Y-91940691D01*
X127949394Y-90739190D01*
X151324356Y-90739190D01*
X151324356Y-90857808D01*
X151355057Y-90972385D01*
X151414367Y-91075112D01*
X151498243Y-91158988D01*
X151600970Y-91218298D01*
X151715547Y-91248999D01*
X151715550Y-91248999D01*
X151834162Y-91248999D01*
X151834165Y-91248999D01*
X151948742Y-91218298D01*
X152051469Y-91158988D01*
X152135345Y-91075112D01*
X152184953Y-90989190D01*
X162594356Y-90989190D01*
X162594356Y-91107808D01*
X162625057Y-91222385D01*
X162684367Y-91325112D01*
X162768243Y-91408988D01*
X162870970Y-91468298D01*
X162985547Y-91498999D01*
X162985550Y-91498999D01*
X163104162Y-91498999D01*
X163104165Y-91498999D01*
X163218742Y-91468298D01*
X163321469Y-91408988D01*
X163405345Y-91325112D01*
X163458753Y-91232607D01*
X175907999Y-91232607D01*
X175907999Y-91364390D01*
X175942107Y-91491686D01*
X175975053Y-91548749D01*
X176007999Y-91605813D01*
X176101185Y-91698999D01*
X176215313Y-91764891D01*
X176342607Y-91798999D01*
X176342609Y-91798999D01*
X176474389Y-91798999D01*
X176474391Y-91798999D01*
X176601685Y-91764891D01*
X176715813Y-91698999D01*
X176808999Y-91605813D01*
X176874891Y-91491685D01*
X176908999Y-91364391D01*
X176908999Y-91232607D01*
X176874891Y-91105313D01*
X176808999Y-90991185D01*
X176715813Y-90897999D01*
X176658749Y-90865053D01*
X176601686Y-90832107D01*
X176538038Y-90815053D01*
X176474391Y-90797999D01*
X176342607Y-90797999D01*
X176215311Y-90832107D01*
X176101185Y-90897999D01*
X176101182Y-90898001D01*
X176008001Y-90991182D01*
X176007999Y-90991185D01*
X175942107Y-91105311D01*
X175907999Y-91232607D01*
X163458753Y-91232607D01*
X163464655Y-91222385D01*
X163495356Y-91107808D01*
X163495356Y-90989190D01*
X163464655Y-90874613D01*
X163405345Y-90771886D01*
X163321469Y-90688010D01*
X163218742Y-90628700D01*
X163104165Y-90597999D01*
X162985547Y-90597999D01*
X162870970Y-90628700D01*
X162870968Y-90628700D01*
X162870968Y-90628701D01*
X162768243Y-90688010D01*
X162768240Y-90688012D01*
X162684369Y-90771883D01*
X162684367Y-90771886D01*
X162634761Y-90857806D01*
X162625057Y-90874613D01*
X162594356Y-90989190D01*
X152184953Y-90989190D01*
X152194655Y-90972385D01*
X152225356Y-90857808D01*
X152225356Y-90739190D01*
X152194655Y-90624613D01*
X152135345Y-90521886D01*
X152051469Y-90438010D01*
X151948742Y-90378700D01*
X151834165Y-90347999D01*
X151715547Y-90347999D01*
X151600970Y-90378700D01*
X151600968Y-90378700D01*
X151600968Y-90378701D01*
X151498243Y-90438010D01*
X151498240Y-90438012D01*
X151414369Y-90521883D01*
X151414367Y-90521886D01*
X151355057Y-90624613D01*
X151324356Y-90739190D01*
X127949394Y-90739190D01*
X127944348Y-89815691D01*
X148274500Y-89815691D01*
X148274500Y-89934309D01*
X148305201Y-90048886D01*
X148364511Y-90151613D01*
X148448387Y-90235489D01*
X148551114Y-90294799D01*
X148665691Y-90325500D01*
X148665694Y-90325500D01*
X148784306Y-90325500D01*
X148784309Y-90325500D01*
X148898886Y-90294799D01*
X149001613Y-90235489D01*
X149085489Y-90151613D01*
X149144799Y-90048886D01*
X149175500Y-89934309D01*
X149175500Y-89815691D01*
X149144799Y-89701114D01*
X149085489Y-89598387D01*
X149001613Y-89514511D01*
X148898886Y-89455201D01*
X148784309Y-89424500D01*
X148665691Y-89424500D01*
X148551114Y-89455201D01*
X148551112Y-89455201D01*
X148551112Y-89455202D01*
X148448387Y-89514511D01*
X148448384Y-89514513D01*
X148364513Y-89598384D01*
X148364511Y-89598387D01*
X148315438Y-89683384D01*
X148305201Y-89701114D01*
X148274500Y-89815691D01*
X127944348Y-89815691D01*
X127942162Y-89415691D01*
X155549500Y-89415691D01*
X155549500Y-89534309D01*
X155580201Y-89648886D01*
X155639511Y-89751613D01*
X155723387Y-89835489D01*
X155826114Y-89894799D01*
X155940691Y-89925500D01*
X155940694Y-89925500D01*
X156059306Y-89925500D01*
X156059309Y-89925500D01*
X156173886Y-89894799D01*
X156276613Y-89835489D01*
X156360489Y-89751613D01*
X156367661Y-89739190D01*
X159724356Y-89739190D01*
X159724356Y-89857808D01*
X159755057Y-89972385D01*
X159814367Y-90075112D01*
X159898243Y-90158988D01*
X160000970Y-90218298D01*
X160115547Y-90248999D01*
X160115550Y-90248999D01*
X160234162Y-90248999D01*
X160234165Y-90248999D01*
X160348742Y-90218298D01*
X160451469Y-90158988D01*
X160535345Y-90075112D01*
X160594655Y-89972385D01*
X160625356Y-89857808D01*
X160625356Y-89739190D01*
X160594655Y-89624613D01*
X160535345Y-89521886D01*
X160451469Y-89438010D01*
X160348742Y-89378700D01*
X160234165Y-89347999D01*
X160115547Y-89347999D01*
X160000970Y-89378700D01*
X160000968Y-89378700D01*
X160000968Y-89378701D01*
X159898243Y-89438010D01*
X159898240Y-89438012D01*
X159814369Y-89521883D01*
X159814367Y-89521886D01*
X159807195Y-89534309D01*
X159755057Y-89624613D01*
X159724356Y-89739190D01*
X156367661Y-89739190D01*
X156419799Y-89648886D01*
X156450500Y-89534309D01*
X156450500Y-89415691D01*
X156419799Y-89301114D01*
X156360489Y-89198387D01*
X156351292Y-89189190D01*
X164924356Y-89189190D01*
X164924356Y-89307808D01*
X164955057Y-89422385D01*
X165014367Y-89525112D01*
X165098243Y-89608988D01*
X165200970Y-89668298D01*
X165315547Y-89698999D01*
X165315550Y-89698999D01*
X165434162Y-89698999D01*
X165434165Y-89698999D01*
X165548742Y-89668298D01*
X165651469Y-89608988D01*
X165664270Y-89596187D01*
X168124356Y-89596187D01*
X168124356Y-89714805D01*
X168155057Y-89829382D01*
X168214367Y-89932109D01*
X168298243Y-90015985D01*
X168400970Y-90075295D01*
X168515547Y-90105996D01*
X168515550Y-90105996D01*
X168634162Y-90105996D01*
X168634165Y-90105996D01*
X168748742Y-90075295D01*
X168851469Y-90015985D01*
X168935345Y-89932109D01*
X168994655Y-89829382D01*
X169025356Y-89714805D01*
X169025356Y-89596187D01*
X169023592Y-89589604D01*
X173874356Y-89589604D01*
X173874356Y-89721388D01*
X173882455Y-89751613D01*
X173908464Y-89848683D01*
X173935090Y-89894799D01*
X173974356Y-89962810D01*
X174067542Y-90055996D01*
X174181670Y-90121888D01*
X174308964Y-90155996D01*
X174308966Y-90155996D01*
X174440746Y-90155996D01*
X174440748Y-90155996D01*
X174568042Y-90121888D01*
X174682170Y-90055996D01*
X174775356Y-89962810D01*
X174811221Y-89900691D01*
X177469500Y-89900691D01*
X177469500Y-90019309D01*
X177500201Y-90133886D01*
X177559511Y-90236613D01*
X177643387Y-90320489D01*
X177746114Y-90379799D01*
X177860691Y-90410500D01*
X177860694Y-90410500D01*
X177979306Y-90410500D01*
X177979309Y-90410500D01*
X178093886Y-90379799D01*
X178196613Y-90320489D01*
X178280489Y-90236613D01*
X178339799Y-90133886D01*
X178370500Y-90019309D01*
X178370500Y-89900691D01*
X178339799Y-89786114D01*
X178280489Y-89683387D01*
X178196613Y-89599511D01*
X178093886Y-89540201D01*
X177979309Y-89509500D01*
X177860691Y-89509500D01*
X177746114Y-89540201D01*
X177746112Y-89540201D01*
X177746112Y-89540202D01*
X177643387Y-89599511D01*
X177643384Y-89599513D01*
X177559513Y-89683384D01*
X177559511Y-89683387D01*
X177500201Y-89786114D01*
X177469500Y-89900691D01*
X174811221Y-89900691D01*
X174841248Y-89848682D01*
X174875356Y-89721388D01*
X174875356Y-89589604D01*
X174841248Y-89462310D01*
X174775356Y-89348182D01*
X174682170Y-89254996D01*
X174595568Y-89204996D01*
X174568043Y-89189104D01*
X174504395Y-89172050D01*
X174440748Y-89154996D01*
X174308964Y-89154996D01*
X174181668Y-89189104D01*
X174067542Y-89254996D01*
X174067539Y-89254998D01*
X173974358Y-89348179D01*
X173974356Y-89348182D01*
X173908464Y-89462308D01*
X173891636Y-89525112D01*
X173874356Y-89589604D01*
X169023592Y-89589604D01*
X168994655Y-89481610D01*
X168935345Y-89378883D01*
X168851469Y-89295007D01*
X168748742Y-89235697D01*
X168634165Y-89204996D01*
X168515547Y-89204996D01*
X168400970Y-89235697D01*
X168400968Y-89235697D01*
X168400968Y-89235698D01*
X168298243Y-89295007D01*
X168298240Y-89295009D01*
X168214369Y-89378880D01*
X168214367Y-89378883D01*
X168180229Y-89438012D01*
X168155057Y-89481610D01*
X168124356Y-89596187D01*
X165664270Y-89596187D01*
X165735345Y-89525112D01*
X165794655Y-89422385D01*
X165825356Y-89307808D01*
X165825356Y-89189190D01*
X165794655Y-89074613D01*
X165735345Y-88971886D01*
X165651469Y-88888010D01*
X165548742Y-88828700D01*
X165434165Y-88797999D01*
X165315547Y-88797999D01*
X165200970Y-88828700D01*
X165200968Y-88828700D01*
X165200968Y-88828701D01*
X165098243Y-88888010D01*
X165098240Y-88888012D01*
X165014369Y-88971883D01*
X165014367Y-88971886D01*
X164966265Y-89055201D01*
X164955057Y-89074613D01*
X164924356Y-89189190D01*
X156351292Y-89189190D01*
X156276613Y-89114511D01*
X156173886Y-89055201D01*
X156059309Y-89024500D01*
X155940691Y-89024500D01*
X155826114Y-89055201D01*
X155826112Y-89055201D01*
X155826112Y-89055202D01*
X155723387Y-89114511D01*
X155723384Y-89114513D01*
X155639513Y-89198384D01*
X155639511Y-89198387D01*
X155600249Y-89266391D01*
X155580201Y-89301114D01*
X155549500Y-89415691D01*
X127942162Y-89415691D01*
X127935470Y-88190960D01*
X149286058Y-88190960D01*
X149286058Y-88309578D01*
X149316759Y-88424155D01*
X149376069Y-88526882D01*
X149459945Y-88610758D01*
X149562672Y-88670068D01*
X149677249Y-88700769D01*
X149677252Y-88700769D01*
X149795864Y-88700769D01*
X149795867Y-88700769D01*
X149910444Y-88670068D01*
X150013171Y-88610758D01*
X150097047Y-88526882D01*
X150156357Y-88424155D01*
X150168301Y-88379579D01*
X150204664Y-88319920D01*
X150267511Y-88289390D01*
X150336887Y-88297684D01*
X150350073Y-88304284D01*
X150374345Y-88318298D01*
X150488922Y-88348999D01*
X150488925Y-88348999D01*
X150607537Y-88348999D01*
X150607540Y-88348999D01*
X150722117Y-88318298D01*
X150824844Y-88258988D01*
X150908720Y-88175112D01*
X150968030Y-88072385D01*
X150998731Y-87957808D01*
X150998731Y-87839190D01*
X150968030Y-87724613D01*
X150908720Y-87621886D01*
X150824844Y-87538010D01*
X150722117Y-87478700D01*
X150607540Y-87447999D01*
X150488922Y-87447999D01*
X150374345Y-87478700D01*
X150374343Y-87478700D01*
X150374343Y-87478701D01*
X150271618Y-87538010D01*
X150271615Y-87538012D01*
X150187744Y-87621883D01*
X150187742Y-87621886D01*
X150128431Y-87724613D01*
X150128431Y-87724614D01*
X150116487Y-87769189D01*
X150080122Y-87828849D01*
X150017274Y-87859377D01*
X149947899Y-87851082D01*
X149934713Y-87844481D01*
X149910447Y-87830471D01*
X149910448Y-87830471D01*
X149901052Y-87827953D01*
X149795867Y-87799769D01*
X149677249Y-87799769D01*
X149562672Y-87830470D01*
X149562670Y-87830470D01*
X149562670Y-87830471D01*
X149459945Y-87889780D01*
X149459942Y-87889782D01*
X149376071Y-87973653D01*
X149376069Y-87973656D01*
X149318115Y-88074035D01*
X149316759Y-88076383D01*
X149286058Y-88190960D01*
X127935470Y-88190960D01*
X127929184Y-87040691D01*
X133749500Y-87040691D01*
X133749500Y-87159309D01*
X133780201Y-87273886D01*
X133839511Y-87376613D01*
X133923387Y-87460489D01*
X134026114Y-87519799D01*
X134140691Y-87550500D01*
X134140694Y-87550500D01*
X134259306Y-87550500D01*
X134259309Y-87550500D01*
X134373886Y-87519799D01*
X134476613Y-87460489D01*
X134560489Y-87376613D01*
X134562021Y-87373960D01*
X148292769Y-87373960D01*
X148292769Y-87492578D01*
X148323470Y-87607155D01*
X148382780Y-87709882D01*
X148466656Y-87793758D01*
X148569383Y-87853068D01*
X148683960Y-87883769D01*
X148683963Y-87883769D01*
X148802575Y-87883769D01*
X148802578Y-87883769D01*
X148917155Y-87853068D01*
X149019882Y-87793758D01*
X149103758Y-87709882D01*
X149163068Y-87607155D01*
X149193769Y-87492578D01*
X149193769Y-87373960D01*
X149163068Y-87259383D01*
X149103758Y-87156656D01*
X149019882Y-87072780D01*
X148917155Y-87013470D01*
X148802578Y-86982769D01*
X148683960Y-86982769D01*
X148569383Y-87013470D01*
X148569381Y-87013470D01*
X148569381Y-87013471D01*
X148466656Y-87072780D01*
X148466653Y-87072782D01*
X148382782Y-87156653D01*
X148382780Y-87156656D01*
X148323470Y-87259383D01*
X148292769Y-87373960D01*
X134562021Y-87373960D01*
X134619799Y-87273886D01*
X134650500Y-87159309D01*
X134650500Y-87040691D01*
X134619799Y-86926114D01*
X134560489Y-86823387D01*
X134476613Y-86739511D01*
X134373886Y-86680201D01*
X134259309Y-86649500D01*
X134140691Y-86649500D01*
X134026114Y-86680201D01*
X134026112Y-86680201D01*
X134026112Y-86680202D01*
X133923387Y-86739511D01*
X133923384Y-86739513D01*
X133839513Y-86823384D01*
X133839511Y-86823387D01*
X133780201Y-86926114D01*
X133749500Y-87040691D01*
X127929184Y-87040691D01*
X127925960Y-86450691D01*
X151919500Y-86450691D01*
X151919500Y-86569309D01*
X151950201Y-86683886D01*
X152009511Y-86786613D01*
X152093387Y-86870489D01*
X152143658Y-86899513D01*
X152194790Y-86929035D01*
X152196114Y-86929799D01*
X152265104Y-86948285D01*
X152324761Y-86984647D01*
X152355291Y-87047494D01*
X152346997Y-87116870D01*
X152302512Y-87170748D01*
X152265106Y-87187832D01*
X152240258Y-87194490D01*
X152137533Y-87253800D01*
X152137530Y-87253802D01*
X152053659Y-87337673D01*
X152053657Y-87337676D01*
X151998110Y-87433886D01*
X151994347Y-87440403D01*
X151963646Y-87554980D01*
X151963646Y-87673598D01*
X151994347Y-87788175D01*
X152053657Y-87890902D01*
X152137533Y-87974778D01*
X152240260Y-88034088D01*
X152354837Y-88064789D01*
X152354840Y-88064789D01*
X152473452Y-88064789D01*
X152473455Y-88064789D01*
X152588032Y-88034088D01*
X152642728Y-88002508D01*
X152710627Y-87986035D01*
X152776654Y-88008886D01*
X152812114Y-88047892D01*
X152825330Y-88070782D01*
X152825333Y-88070786D01*
X152825335Y-88070789D01*
X152909211Y-88154665D01*
X153011938Y-88213975D01*
X153126515Y-88244676D01*
X153126518Y-88244676D01*
X153245130Y-88244676D01*
X153245133Y-88244676D01*
X153359710Y-88213975D01*
X153462437Y-88154665D01*
X153546313Y-88070789D01*
X153605623Y-87968062D01*
X153636324Y-87853485D01*
X153636324Y-87734867D01*
X153605623Y-87620290D01*
X153555894Y-87534157D01*
X155419323Y-87534157D01*
X155419323Y-87652775D01*
X155450024Y-87767352D01*
X155509334Y-87870079D01*
X155593210Y-87953955D01*
X155695937Y-88013265D01*
X155810514Y-88043966D01*
X155810517Y-88043966D01*
X155929129Y-88043966D01*
X155929132Y-88043966D01*
X156043709Y-88013265D01*
X156146436Y-87953955D01*
X156230312Y-87870079D01*
X156289622Y-87767352D01*
X156320323Y-87652775D01*
X156320323Y-87534157D01*
X156289622Y-87419580D01*
X156230312Y-87316853D01*
X156146436Y-87232977D01*
X156090516Y-87200691D01*
X157756064Y-87200691D01*
X157756064Y-87319309D01*
X157786765Y-87433886D01*
X157846075Y-87536613D01*
X157929951Y-87620489D01*
X158032678Y-87679799D01*
X158147255Y-87710500D01*
X158147258Y-87710500D01*
X158265870Y-87710500D01*
X158265873Y-87710500D01*
X158380450Y-87679799D01*
X158483177Y-87620489D01*
X158567053Y-87536613D01*
X158626363Y-87433886D01*
X158657064Y-87319309D01*
X158657064Y-87200691D01*
X158626363Y-87086114D01*
X158626361Y-87086111D01*
X158626361Y-87086109D01*
X158626360Y-87086108D01*
X158602376Y-87044567D01*
X158602374Y-87044565D01*
X158571270Y-86990691D01*
X159249500Y-86990691D01*
X159249500Y-87109309D01*
X159280201Y-87223886D01*
X159339511Y-87326613D01*
X159423387Y-87410489D01*
X159526114Y-87469799D01*
X159640691Y-87500500D01*
X159640694Y-87500500D01*
X159759306Y-87500500D01*
X159759309Y-87500500D01*
X159873886Y-87469799D01*
X159975201Y-87411304D01*
X185079500Y-87411304D01*
X185079500Y-87588695D01*
X185114103Y-87762658D01*
X185114106Y-87762667D01*
X185181983Y-87926540D01*
X185181990Y-87926553D01*
X185280535Y-88074034D01*
X185280538Y-88074038D01*
X185405961Y-88199461D01*
X185405965Y-88199464D01*
X185553446Y-88298009D01*
X185553459Y-88298016D01*
X185676363Y-88348923D01*
X185717334Y-88365894D01*
X185717336Y-88365894D01*
X185717341Y-88365896D01*
X185891304Y-88400499D01*
X185891307Y-88400500D01*
X185891309Y-88400500D01*
X186068693Y-88400500D01*
X186068694Y-88400499D01*
X186126682Y-88388964D01*
X186242658Y-88365896D01*
X186242661Y-88365894D01*
X186242666Y-88365894D01*
X186382535Y-88307958D01*
X186406540Y-88298016D01*
X186406540Y-88298015D01*
X186406547Y-88298013D01*
X186554035Y-88199464D01*
X186679464Y-88074035D01*
X186778013Y-87926547D01*
X186845894Y-87762666D01*
X186851424Y-87734869D01*
X186872233Y-87630252D01*
X186880500Y-87588691D01*
X186880500Y-87411309D01*
X186880500Y-87411306D01*
X186880499Y-87411304D01*
X190159500Y-87411304D01*
X190159500Y-87588695D01*
X190194103Y-87762658D01*
X190194106Y-87762667D01*
X190261983Y-87926540D01*
X190261990Y-87926553D01*
X190360535Y-88074034D01*
X190360538Y-88074038D01*
X190485961Y-88199461D01*
X190485965Y-88199464D01*
X190633446Y-88298009D01*
X190633459Y-88298016D01*
X190756363Y-88348923D01*
X190797334Y-88365894D01*
X190797336Y-88365894D01*
X190797341Y-88365896D01*
X190971304Y-88400499D01*
X190971307Y-88400500D01*
X190971309Y-88400500D01*
X191148693Y-88400500D01*
X191148694Y-88400499D01*
X191206682Y-88388964D01*
X191322658Y-88365896D01*
X191322661Y-88365894D01*
X191322666Y-88365894D01*
X191462535Y-88307958D01*
X191486540Y-88298016D01*
X191486540Y-88298015D01*
X191486547Y-88298013D01*
X191634035Y-88199464D01*
X191759464Y-88074035D01*
X191858013Y-87926547D01*
X191925894Y-87762666D01*
X191931424Y-87734869D01*
X191952233Y-87630252D01*
X191960500Y-87588691D01*
X191960500Y-87411309D01*
X191960500Y-87411306D01*
X191960499Y-87411304D01*
X191925896Y-87237341D01*
X191925893Y-87237332D01*
X191858016Y-87073459D01*
X191858009Y-87073446D01*
X191759464Y-86925965D01*
X191759461Y-86925961D01*
X191634038Y-86800538D01*
X191634034Y-86800535D01*
X191486553Y-86701990D01*
X191486540Y-86701983D01*
X191322667Y-86634106D01*
X191322658Y-86634103D01*
X191148694Y-86599500D01*
X191148691Y-86599500D01*
X190971309Y-86599500D01*
X190971306Y-86599500D01*
X190797341Y-86634103D01*
X190797332Y-86634106D01*
X190633459Y-86701983D01*
X190633446Y-86701990D01*
X190485965Y-86800535D01*
X190485961Y-86800538D01*
X190360538Y-86925961D01*
X190360535Y-86925965D01*
X190261990Y-87073446D01*
X190261983Y-87073459D01*
X190194106Y-87237332D01*
X190194103Y-87237341D01*
X190159500Y-87411304D01*
X186880499Y-87411304D01*
X186845896Y-87237341D01*
X186845893Y-87237332D01*
X186778016Y-87073459D01*
X186778009Y-87073446D01*
X186679464Y-86925965D01*
X186679461Y-86925961D01*
X186554038Y-86800538D01*
X186554034Y-86800535D01*
X186406553Y-86701990D01*
X186406540Y-86701983D01*
X186242667Y-86634106D01*
X186242658Y-86634103D01*
X186068694Y-86599500D01*
X186068691Y-86599500D01*
X185891309Y-86599500D01*
X185891306Y-86599500D01*
X185717341Y-86634103D01*
X185717332Y-86634106D01*
X185553459Y-86701983D01*
X185553446Y-86701990D01*
X185405965Y-86800535D01*
X185405961Y-86800538D01*
X185280538Y-86925961D01*
X185280535Y-86925965D01*
X185181990Y-87073446D01*
X185181983Y-87073459D01*
X185114106Y-87237332D01*
X185114103Y-87237341D01*
X185079500Y-87411304D01*
X159975201Y-87411304D01*
X159976613Y-87410489D01*
X160060489Y-87326613D01*
X160119799Y-87223886D01*
X160150500Y-87109309D01*
X160150500Y-86990691D01*
X160119799Y-86876114D01*
X160060489Y-86773387D01*
X159976613Y-86689511D01*
X159873886Y-86630201D01*
X159759309Y-86599500D01*
X159640691Y-86599500D01*
X159526114Y-86630201D01*
X159526112Y-86630201D01*
X159526112Y-86630202D01*
X159423387Y-86689511D01*
X159423384Y-86689513D01*
X159339513Y-86773384D01*
X159339511Y-86773387D01*
X159283449Y-86870489D01*
X159280201Y-86876114D01*
X159249500Y-86990691D01*
X158571270Y-86990691D01*
X158567053Y-86983387D01*
X158483177Y-86899511D01*
X158380450Y-86840201D01*
X158265873Y-86809500D01*
X158147255Y-86809500D01*
X158032678Y-86840201D01*
X158032676Y-86840201D01*
X158032676Y-86840202D01*
X157929951Y-86899511D01*
X157929948Y-86899513D01*
X157846077Y-86983384D01*
X157846075Y-86983387D01*
X157792147Y-87076793D01*
X157786765Y-87086114D01*
X157756064Y-87200691D01*
X156090516Y-87200691D01*
X156043709Y-87173667D01*
X155929132Y-87142966D01*
X155810514Y-87142966D01*
X155695937Y-87173667D01*
X155695935Y-87173667D01*
X155695935Y-87173668D01*
X155593210Y-87232977D01*
X155593207Y-87232979D01*
X155509336Y-87316850D01*
X155509334Y-87316853D01*
X155474834Y-87376609D01*
X155450024Y-87419580D01*
X155419323Y-87534157D01*
X153555894Y-87534157D01*
X153546313Y-87517563D01*
X153462437Y-87433687D01*
X153359710Y-87374377D01*
X153245133Y-87343676D01*
X153126515Y-87343676D01*
X153021329Y-87371860D01*
X153011934Y-87374378D01*
X152957240Y-87405956D01*
X152889339Y-87422429D01*
X152823313Y-87399576D01*
X152787854Y-87360571D01*
X152778099Y-87343676D01*
X152774635Y-87337676D01*
X152690759Y-87253800D01*
X152588032Y-87194490D01*
X152519041Y-87176003D01*
X152459383Y-87139640D01*
X152428854Y-87076793D01*
X152437149Y-87007417D01*
X152481634Y-86953539D01*
X152519041Y-86936456D01*
X152543886Y-86929799D01*
X152646613Y-86870489D01*
X152730489Y-86786613D01*
X152789799Y-86683886D01*
X152820500Y-86569309D01*
X152820500Y-86450691D01*
X152789799Y-86336114D01*
X152762707Y-86289190D01*
X156724356Y-86289190D01*
X156724356Y-86407808D01*
X156755057Y-86522384D01*
X156755056Y-86522384D01*
X156755057Y-86522385D01*
X156814367Y-86625112D01*
X156898243Y-86708988D01*
X157000970Y-86768298D01*
X157115547Y-86798999D01*
X157115550Y-86798999D01*
X157234162Y-86798999D01*
X157234165Y-86798999D01*
X157348742Y-86768298D01*
X157451469Y-86708988D01*
X157535345Y-86625112D01*
X157594655Y-86522385D01*
X157625356Y-86407808D01*
X157625356Y-86289190D01*
X157595944Y-86179424D01*
X162196855Y-86179424D01*
X162196855Y-86298042D01*
X162227556Y-86412619D01*
X162286866Y-86515346D01*
X162370742Y-86599222D01*
X162473469Y-86658532D01*
X162588046Y-86689233D01*
X162588049Y-86689233D01*
X162706661Y-86689233D01*
X162706664Y-86689233D01*
X162821241Y-86658532D01*
X162923968Y-86599222D01*
X162957174Y-86566016D01*
X163018497Y-86532531D01*
X163088189Y-86537515D01*
X163132536Y-86566016D01*
X163165742Y-86599222D01*
X163268469Y-86658532D01*
X163383046Y-86689233D01*
X163383049Y-86689233D01*
X163501661Y-86689233D01*
X163501664Y-86689233D01*
X163616241Y-86658532D01*
X163718968Y-86599222D01*
X163802844Y-86515346D01*
X163862154Y-86412619D01*
X163892855Y-86298042D01*
X163892855Y-86266304D01*
X187619500Y-86266304D01*
X187619500Y-86443695D01*
X187654103Y-86617658D01*
X187654106Y-86617667D01*
X187721983Y-86781540D01*
X187721990Y-86781553D01*
X187820535Y-86929034D01*
X187820538Y-86929038D01*
X187945961Y-87054461D01*
X187945965Y-87054464D01*
X188093446Y-87153009D01*
X188093459Y-87153016D01*
X188148961Y-87176005D01*
X188257334Y-87220894D01*
X188257336Y-87220894D01*
X188257341Y-87220896D01*
X188431304Y-87255499D01*
X188431307Y-87255500D01*
X188431309Y-87255500D01*
X188608693Y-87255500D01*
X188608694Y-87255499D01*
X188699982Y-87237341D01*
X188782658Y-87220896D01*
X188782661Y-87220894D01*
X188782666Y-87220894D01*
X188946547Y-87153013D01*
X189094035Y-87054464D01*
X189219464Y-86929035D01*
X189318013Y-86781547D01*
X189385894Y-86617666D01*
X189389508Y-86599500D01*
X189419107Y-86450693D01*
X189420500Y-86443691D01*
X189420500Y-86266309D01*
X189420500Y-86266306D01*
X189420499Y-86266304D01*
X189385896Y-86092341D01*
X189385893Y-86092332D01*
X189318016Y-85928459D01*
X189318009Y-85928446D01*
X189219464Y-85780965D01*
X189219461Y-85780961D01*
X189094038Y-85655538D01*
X189094034Y-85655535D01*
X188946553Y-85556990D01*
X188946540Y-85556983D01*
X188782667Y-85489106D01*
X188782658Y-85489103D01*
X188608694Y-85454500D01*
X188608691Y-85454500D01*
X188431309Y-85454500D01*
X188431306Y-85454500D01*
X188257341Y-85489103D01*
X188257332Y-85489106D01*
X188093459Y-85556983D01*
X188093446Y-85556990D01*
X187945965Y-85655535D01*
X187945961Y-85655538D01*
X187820538Y-85780961D01*
X187820535Y-85780965D01*
X187721990Y-85928446D01*
X187721983Y-85928459D01*
X187654106Y-86092332D01*
X187654103Y-86092341D01*
X187619500Y-86266304D01*
X163892855Y-86266304D01*
X163892855Y-86179424D01*
X163862154Y-86064847D01*
X163802844Y-85962120D01*
X163718968Y-85878244D01*
X163616241Y-85818934D01*
X163501664Y-85788233D01*
X163383046Y-85788233D01*
X163268469Y-85818934D01*
X163268467Y-85818934D01*
X163268467Y-85818935D01*
X163165742Y-85878244D01*
X163165739Y-85878246D01*
X163132536Y-85911450D01*
X163071213Y-85944935D01*
X163001521Y-85939951D01*
X162957174Y-85911450D01*
X162923970Y-85878246D01*
X162923968Y-85878244D01*
X162821241Y-85818934D01*
X162706664Y-85788233D01*
X162588046Y-85788233D01*
X162473469Y-85818934D01*
X162473467Y-85818934D01*
X162473467Y-85818935D01*
X162370742Y-85878244D01*
X162370739Y-85878246D01*
X162286868Y-85962117D01*
X162286866Y-85962120D01*
X162230826Y-86059184D01*
X162227556Y-86064847D01*
X162196855Y-86179424D01*
X157595944Y-86179424D01*
X157594655Y-86174613D01*
X157535345Y-86071886D01*
X157451469Y-85988010D01*
X157348742Y-85928700D01*
X157234165Y-85897999D01*
X157115547Y-85897999D01*
X157000970Y-85928700D01*
X157000968Y-85928700D01*
X157000968Y-85928701D01*
X156898243Y-85988010D01*
X156898240Y-85988012D01*
X156814369Y-86071883D01*
X156814367Y-86071886D01*
X156784345Y-86123886D01*
X156755057Y-86174613D01*
X156724356Y-86289190D01*
X152762707Y-86289190D01*
X152730489Y-86233387D01*
X152676950Y-86179848D01*
X152670942Y-86171407D01*
X152662772Y-86147787D01*
X152650798Y-86125858D01*
X152651550Y-86115341D01*
X152648103Y-86105375D01*
X152653999Y-86081090D01*
X152655782Y-86056166D01*
X152662100Y-86047725D01*
X152664589Y-86037478D01*
X152682679Y-86020235D01*
X152697654Y-86000233D01*
X152707532Y-85996548D01*
X152715166Y-85989273D01*
X152739704Y-85984548D01*
X152763118Y-85975816D01*
X152771964Y-85975500D01*
X152864306Y-85975500D01*
X152864309Y-85975500D01*
X152978886Y-85944799D01*
X153081613Y-85885489D01*
X153165489Y-85801613D01*
X153224799Y-85698886D01*
X153255500Y-85584309D01*
X153255500Y-85465691D01*
X153224799Y-85351114D01*
X153165489Y-85248387D01*
X153081613Y-85164511D01*
X152978886Y-85105201D01*
X152864309Y-85074500D01*
X152745691Y-85074500D01*
X152631114Y-85105201D01*
X152631112Y-85105201D01*
X152631112Y-85105202D01*
X152528387Y-85164511D01*
X152528384Y-85164513D01*
X152444513Y-85248384D01*
X152444511Y-85248387D01*
X152392766Y-85338012D01*
X152385201Y-85351114D01*
X152354500Y-85465691D01*
X152354500Y-85584309D01*
X152385201Y-85698886D01*
X152444511Y-85801613D01*
X152444513Y-85801615D01*
X152490717Y-85847819D01*
X152524202Y-85909142D01*
X152519218Y-85978834D01*
X152477346Y-86034767D01*
X152411882Y-86059184D01*
X152403036Y-86059500D01*
X152310691Y-86059500D01*
X152196114Y-86090201D01*
X152196112Y-86090201D01*
X152196112Y-86090202D01*
X152093387Y-86149511D01*
X152093384Y-86149513D01*
X152009513Y-86233384D01*
X152009511Y-86233387D01*
X151950201Y-86336114D01*
X151919500Y-86450691D01*
X127925960Y-86450691D01*
X127922274Y-85776112D01*
X127920578Y-85465691D01*
X141074500Y-85465691D01*
X141074500Y-85584309D01*
X141105201Y-85698886D01*
X141164511Y-85801613D01*
X141248387Y-85885489D01*
X141351114Y-85944799D01*
X141465691Y-85975500D01*
X141465694Y-85975500D01*
X141584306Y-85975500D01*
X141584309Y-85975500D01*
X141698886Y-85944799D01*
X141792603Y-85890691D01*
X149579500Y-85890691D01*
X149579500Y-86009309D01*
X149610201Y-86123886D01*
X149669511Y-86226613D01*
X149753387Y-86310489D01*
X149856114Y-86369799D01*
X149970691Y-86400500D01*
X149970694Y-86400500D01*
X150089306Y-86400500D01*
X150089309Y-86400500D01*
X150203886Y-86369799D01*
X150306613Y-86310489D01*
X150390489Y-86226613D01*
X150449799Y-86123886D01*
X150480500Y-86009309D01*
X150480500Y-85932123D01*
X150500185Y-85865084D01*
X150552989Y-85819329D01*
X150572407Y-85812348D01*
X150579304Y-85810500D01*
X150579309Y-85810500D01*
X150693886Y-85779799D01*
X150796613Y-85720489D01*
X150880489Y-85636613D01*
X150939799Y-85533886D01*
X150970500Y-85419309D01*
X150970500Y-85300691D01*
X150939799Y-85186114D01*
X150880489Y-85083387D01*
X150796613Y-84999511D01*
X150693886Y-84940201D01*
X150579309Y-84909500D01*
X150460691Y-84909500D01*
X150346114Y-84940201D01*
X150346112Y-84940201D01*
X150346112Y-84940202D01*
X150243387Y-84999511D01*
X150243384Y-84999513D01*
X150159513Y-85083384D01*
X150159511Y-85083387D01*
X150100564Y-85185486D01*
X150100201Y-85186114D01*
X150069500Y-85300691D01*
X150069500Y-85300693D01*
X150069500Y-85377876D01*
X150049815Y-85444915D01*
X149997011Y-85490670D01*
X149977594Y-85497651D01*
X149970693Y-85499500D01*
X149970691Y-85499500D01*
X149856114Y-85530201D01*
X149856112Y-85530201D01*
X149856112Y-85530202D01*
X149753387Y-85589511D01*
X149753384Y-85589513D01*
X149669513Y-85673384D01*
X149669511Y-85673387D01*
X149610743Y-85775176D01*
X149610201Y-85776114D01*
X149579500Y-85890691D01*
X141792603Y-85890691D01*
X141801613Y-85885489D01*
X141885489Y-85801613D01*
X141944799Y-85698886D01*
X141975500Y-85584309D01*
X141975500Y-85465691D01*
X141944799Y-85351114D01*
X141944555Y-85350691D01*
X143449500Y-85350691D01*
X143449500Y-85469309D01*
X143480201Y-85583886D01*
X143539511Y-85686613D01*
X143623387Y-85770489D01*
X143726114Y-85829799D01*
X143840691Y-85860500D01*
X143840694Y-85860500D01*
X143959306Y-85860500D01*
X143959309Y-85860500D01*
X144073886Y-85829799D01*
X144176613Y-85770489D01*
X144260489Y-85686613D01*
X144319799Y-85583886D01*
X144350500Y-85469309D01*
X144350500Y-85350691D01*
X144319799Y-85236114D01*
X144260489Y-85133387D01*
X144176613Y-85049511D01*
X144073886Y-84990201D01*
X143959309Y-84959500D01*
X143840691Y-84959500D01*
X143726114Y-84990201D01*
X143726112Y-84990201D01*
X143726112Y-84990202D01*
X143623387Y-85049511D01*
X143623384Y-85049513D01*
X143539513Y-85133384D01*
X143539511Y-85133387D01*
X143480564Y-85235486D01*
X143480201Y-85236114D01*
X143449500Y-85350691D01*
X141944555Y-85350691D01*
X141885489Y-85248387D01*
X141801613Y-85164511D01*
X141698886Y-85105201D01*
X141584309Y-85074500D01*
X141465691Y-85074500D01*
X141351114Y-85105201D01*
X141351112Y-85105201D01*
X141351112Y-85105202D01*
X141248387Y-85164511D01*
X141248384Y-85164513D01*
X141164513Y-85248384D01*
X141164511Y-85248387D01*
X141112766Y-85338012D01*
X141105201Y-85351114D01*
X141074500Y-85465691D01*
X127920578Y-85465691D01*
X127920537Y-85458242D01*
X127917026Y-84815691D01*
X138474500Y-84815691D01*
X138474500Y-84934309D01*
X138505201Y-85048886D01*
X138564511Y-85151613D01*
X138648387Y-85235489D01*
X138751114Y-85294799D01*
X138865691Y-85325500D01*
X138865694Y-85325500D01*
X138984306Y-85325500D01*
X138984309Y-85325500D01*
X139098886Y-85294799D01*
X139201613Y-85235489D01*
X139285489Y-85151613D01*
X139344799Y-85048886D01*
X139375500Y-84934309D01*
X139375500Y-84815691D01*
X139344799Y-84701114D01*
X139285489Y-84598387D01*
X139201613Y-84514511D01*
X139098886Y-84455201D01*
X138984309Y-84424500D01*
X138865691Y-84424500D01*
X138751114Y-84455201D01*
X138751112Y-84455201D01*
X138751112Y-84455202D01*
X138648387Y-84514511D01*
X138648384Y-84514513D01*
X138564513Y-84598384D01*
X138564511Y-84598387D01*
X138505201Y-84701114D01*
X138474500Y-84815691D01*
X127917026Y-84815691D01*
X127916985Y-84808242D01*
X127911342Y-83775566D01*
X137409500Y-83775566D01*
X137409500Y-83894184D01*
X137440201Y-84008761D01*
X137499511Y-84111488D01*
X137583387Y-84195364D01*
X137686114Y-84254674D01*
X137800691Y-84285375D01*
X137800694Y-84285375D01*
X137919306Y-84285375D01*
X137919309Y-84285375D01*
X138033886Y-84254674D01*
X138136613Y-84195364D01*
X138192787Y-84139190D01*
X140024356Y-84139190D01*
X140024356Y-84257808D01*
X140055057Y-84372385D01*
X140114367Y-84475112D01*
X140198243Y-84558988D01*
X140300970Y-84618298D01*
X140415547Y-84648999D01*
X140415550Y-84648999D01*
X140534162Y-84648999D01*
X140534165Y-84648999D01*
X140648742Y-84618298D01*
X140679238Y-84600691D01*
X148279500Y-84600691D01*
X148279500Y-84719309D01*
X148310201Y-84833886D01*
X148369511Y-84936613D01*
X148453387Y-85020489D01*
X148556114Y-85079799D01*
X148670691Y-85110500D01*
X148670694Y-85110500D01*
X148789306Y-85110500D01*
X148789309Y-85110500D01*
X148903886Y-85079799D01*
X149006613Y-85020489D01*
X149090489Y-84936613D01*
X149149799Y-84833886D01*
X149180500Y-84719309D01*
X149180500Y-84600691D01*
X149149799Y-84486114D01*
X149143447Y-84475112D01*
X149131585Y-84454566D01*
X149131584Y-84454565D01*
X149122707Y-84439190D01*
X149100480Y-84400691D01*
X150969500Y-84400691D01*
X150969500Y-84519309D01*
X151000201Y-84633886D01*
X151059511Y-84736613D01*
X151143387Y-84820489D01*
X151246114Y-84879799D01*
X151360691Y-84910500D01*
X151360694Y-84910500D01*
X151479306Y-84910500D01*
X151479309Y-84910500D01*
X151593886Y-84879799D01*
X151696613Y-84820489D01*
X151751411Y-84765691D01*
X153449500Y-84765691D01*
X153449500Y-84884309D01*
X153480201Y-84998886D01*
X153539511Y-85101613D01*
X153623387Y-85185489D01*
X153726114Y-85244799D01*
X153840691Y-85275500D01*
X153840694Y-85275500D01*
X153959306Y-85275500D01*
X153959309Y-85275500D01*
X153995916Y-85265691D01*
X163699500Y-85265691D01*
X163699500Y-85384309D01*
X163730201Y-85498886D01*
X163789511Y-85601613D01*
X163873387Y-85685489D01*
X163976114Y-85744799D01*
X164090691Y-85775500D01*
X164090694Y-85775500D01*
X164209306Y-85775500D01*
X164209309Y-85775500D01*
X164323886Y-85744799D01*
X164426613Y-85685489D01*
X164472912Y-85639190D01*
X171924356Y-85639190D01*
X171924356Y-85757808D01*
X171955057Y-85872385D01*
X172014367Y-85975112D01*
X172098243Y-86058988D01*
X172200970Y-86118298D01*
X172315547Y-86148999D01*
X172315550Y-86148999D01*
X172434163Y-86148999D01*
X172434165Y-86148999D01*
X172548742Y-86118298D01*
X172651469Y-86058988D01*
X172735345Y-85975112D01*
X172794655Y-85872385D01*
X172825356Y-85757808D01*
X172825356Y-85639190D01*
X172794655Y-85524613D01*
X172735345Y-85421886D01*
X172651469Y-85338010D01*
X172548742Y-85278700D01*
X172434165Y-85247999D01*
X172315547Y-85247999D01*
X172200970Y-85278700D01*
X172200968Y-85278700D01*
X172200968Y-85278701D01*
X172098243Y-85338010D01*
X172098240Y-85338012D01*
X172014369Y-85421883D01*
X172014367Y-85421886D01*
X171985054Y-85472658D01*
X171955057Y-85524613D01*
X171924356Y-85639190D01*
X164472912Y-85639190D01*
X164510489Y-85601613D01*
X164569799Y-85498886D01*
X164600500Y-85384309D01*
X164600500Y-85265691D01*
X164569799Y-85151114D01*
X164559562Y-85133384D01*
X164552588Y-85121304D01*
X185079500Y-85121304D01*
X185079500Y-85298695D01*
X185114103Y-85472658D01*
X185114106Y-85472667D01*
X185181983Y-85636540D01*
X185181990Y-85636553D01*
X185280535Y-85784034D01*
X185280538Y-85784038D01*
X185405961Y-85909461D01*
X185405965Y-85909464D01*
X185553446Y-86008009D01*
X185553459Y-86008016D01*
X185649327Y-86047725D01*
X185717334Y-86075894D01*
X185717336Y-86075894D01*
X185717341Y-86075896D01*
X185891304Y-86110499D01*
X185891307Y-86110500D01*
X185891309Y-86110500D01*
X186068693Y-86110500D01*
X186068694Y-86110499D01*
X186159982Y-86092341D01*
X186242658Y-86075896D01*
X186242661Y-86075894D01*
X186242666Y-86075894D01*
X186403418Y-86009309D01*
X186406540Y-86008016D01*
X186406540Y-86008015D01*
X186406547Y-86008013D01*
X186554035Y-85909464D01*
X186679464Y-85784035D01*
X186778013Y-85636547D01*
X186845894Y-85472666D01*
X186846563Y-85469306D01*
X186870156Y-85350691D01*
X186880500Y-85298691D01*
X186880500Y-85121309D01*
X186880500Y-85121306D01*
X186880499Y-85121304D01*
X186845896Y-84947341D01*
X186845893Y-84947332D01*
X186778016Y-84783459D01*
X186778009Y-84783446D01*
X186679464Y-84635965D01*
X186679461Y-84635961D01*
X186554038Y-84510538D01*
X186554034Y-84510535D01*
X186406553Y-84411990D01*
X186406540Y-84411983D01*
X186242667Y-84344106D01*
X186242658Y-84344103D01*
X186068694Y-84309500D01*
X186068691Y-84309500D01*
X185891309Y-84309500D01*
X185891306Y-84309500D01*
X185717341Y-84344103D01*
X185717332Y-84344106D01*
X185553459Y-84411983D01*
X185553446Y-84411990D01*
X185405965Y-84510535D01*
X185405961Y-84510538D01*
X185280538Y-84635961D01*
X185280535Y-84635965D01*
X185181990Y-84783446D01*
X185181983Y-84783459D01*
X185114106Y-84947332D01*
X185114103Y-84947341D01*
X185079500Y-85121304D01*
X164552588Y-85121304D01*
X164541219Y-85101613D01*
X164510489Y-85048387D01*
X164426613Y-84964511D01*
X164323886Y-84905201D01*
X164209309Y-84874500D01*
X164090691Y-84874500D01*
X163976114Y-84905201D01*
X163976112Y-84905201D01*
X163976112Y-84905202D01*
X163873387Y-84964511D01*
X163873384Y-84964513D01*
X163789513Y-85048384D01*
X163789511Y-85048387D01*
X163740438Y-85133384D01*
X163730201Y-85151114D01*
X163699500Y-85265691D01*
X153995916Y-85265691D01*
X154073886Y-85244799D01*
X154176613Y-85185489D01*
X154260489Y-85101613D01*
X154319799Y-84998886D01*
X154350500Y-84884309D01*
X154350500Y-84765691D01*
X154319799Y-84651114D01*
X154260489Y-84548387D01*
X154176613Y-84464511D01*
X154132756Y-84439190D01*
X164924356Y-84439190D01*
X164924356Y-84557808D01*
X164955057Y-84672385D01*
X165014367Y-84775112D01*
X165098243Y-84858988D01*
X165200970Y-84918298D01*
X165315547Y-84948999D01*
X165315550Y-84948999D01*
X165434162Y-84948999D01*
X165434165Y-84948999D01*
X165548742Y-84918298D01*
X165651469Y-84858988D01*
X165735345Y-84775112D01*
X165794655Y-84672385D01*
X165825356Y-84557808D01*
X165825356Y-84439190D01*
X165794655Y-84324613D01*
X165794653Y-84324609D01*
X165776441Y-84293065D01*
X165776440Y-84293064D01*
X165769455Y-84280966D01*
X165745336Y-84239190D01*
X171024356Y-84239190D01*
X171024356Y-84357808D01*
X171055057Y-84472385D01*
X171114367Y-84575112D01*
X171198243Y-84658988D01*
X171300970Y-84718298D01*
X171415547Y-84748999D01*
X171415550Y-84748999D01*
X171534162Y-84748999D01*
X171534165Y-84748999D01*
X171648742Y-84718298D01*
X171751469Y-84658988D01*
X171835345Y-84575112D01*
X171894655Y-84472385D01*
X171925356Y-84357808D01*
X171925356Y-84239190D01*
X171894655Y-84124613D01*
X171835345Y-84021886D01*
X171789763Y-83976304D01*
X187619500Y-83976304D01*
X187619500Y-84153695D01*
X187654103Y-84327658D01*
X187654106Y-84327667D01*
X187721983Y-84491540D01*
X187721990Y-84491553D01*
X187820535Y-84639034D01*
X187820538Y-84639038D01*
X187945961Y-84764461D01*
X187945965Y-84764464D01*
X188093446Y-84863009D01*
X188093459Y-84863016D01*
X188195305Y-84905201D01*
X188257334Y-84930894D01*
X188257336Y-84930894D01*
X188257341Y-84930896D01*
X188431304Y-84965499D01*
X188431307Y-84965500D01*
X188431309Y-84965500D01*
X188608693Y-84965500D01*
X188608694Y-84965499D01*
X188699982Y-84947341D01*
X188782658Y-84930896D01*
X188782661Y-84930894D01*
X188782666Y-84930894D01*
X188946547Y-84863013D01*
X189094035Y-84764464D01*
X189219464Y-84639035D01*
X189318013Y-84491547D01*
X189385894Y-84327666D01*
X189386502Y-84324613D01*
X189419446Y-84158988D01*
X189420500Y-84153691D01*
X189420500Y-83976309D01*
X189420500Y-83976306D01*
X189420499Y-83976304D01*
X189385896Y-83802341D01*
X189385893Y-83802332D01*
X189376819Y-83780426D01*
X189350969Y-83718016D01*
X189318016Y-83638459D01*
X189318009Y-83638446D01*
X189219464Y-83490965D01*
X189219461Y-83490961D01*
X189094038Y-83365538D01*
X189094034Y-83365535D01*
X188946553Y-83266990D01*
X188946540Y-83266983D01*
X188782667Y-83199106D01*
X188782658Y-83199103D01*
X188608694Y-83164500D01*
X188608691Y-83164500D01*
X188431309Y-83164500D01*
X188431306Y-83164500D01*
X188257341Y-83199103D01*
X188257332Y-83199106D01*
X188093459Y-83266983D01*
X188093446Y-83266990D01*
X187945965Y-83365535D01*
X187945961Y-83365538D01*
X187820538Y-83490961D01*
X187820535Y-83490965D01*
X187721990Y-83638446D01*
X187721983Y-83638459D01*
X187654106Y-83802332D01*
X187654103Y-83802341D01*
X187619500Y-83976304D01*
X171789763Y-83976304D01*
X171751469Y-83938010D01*
X171648742Y-83878700D01*
X171534165Y-83847999D01*
X171415547Y-83847999D01*
X171300970Y-83878700D01*
X171300968Y-83878700D01*
X171300968Y-83878701D01*
X171198243Y-83938010D01*
X171198240Y-83938012D01*
X171114369Y-84021883D01*
X171114367Y-84021886D01*
X171081565Y-84078701D01*
X171055057Y-84124613D01*
X171024356Y-84239190D01*
X165745336Y-84239190D01*
X165735345Y-84221886D01*
X165651469Y-84138010D01*
X165548742Y-84078700D01*
X165434165Y-84047999D01*
X165315547Y-84047999D01*
X165200970Y-84078700D01*
X165200968Y-84078700D01*
X165200968Y-84078701D01*
X165098243Y-84138010D01*
X165098240Y-84138012D01*
X165014369Y-84221883D01*
X165014367Y-84221886D01*
X164963783Y-84309500D01*
X164955057Y-84324613D01*
X164924356Y-84439190D01*
X154132756Y-84439190D01*
X154073886Y-84405201D01*
X153959309Y-84374500D01*
X153840691Y-84374500D01*
X153726114Y-84405201D01*
X153726112Y-84405201D01*
X153726112Y-84405202D01*
X153623387Y-84464511D01*
X153623384Y-84464513D01*
X153539513Y-84548384D01*
X153539511Y-84548387D01*
X153480201Y-84651114D01*
X153449500Y-84765691D01*
X151751411Y-84765691D01*
X151780489Y-84736613D01*
X151839799Y-84633886D01*
X151870500Y-84519309D01*
X151870500Y-84400691D01*
X151857135Y-84350812D01*
X151858798Y-84280966D01*
X151897960Y-84223104D01*
X151962188Y-84195599D01*
X152031090Y-84207185D01*
X152038913Y-84211337D01*
X152050966Y-84218296D01*
X152050967Y-84218296D01*
X152050970Y-84218298D01*
X152165547Y-84248999D01*
X152165550Y-84248999D01*
X152284162Y-84248999D01*
X152284165Y-84248999D01*
X152398742Y-84218298D01*
X152501469Y-84158988D01*
X152585345Y-84075112D01*
X152644655Y-83972385D01*
X152675356Y-83857808D01*
X152675356Y-83739190D01*
X152644655Y-83624613D01*
X152585345Y-83521886D01*
X152501469Y-83438010D01*
X152398742Y-83378700D01*
X152284165Y-83347999D01*
X152165547Y-83347999D01*
X152050970Y-83378700D01*
X152050968Y-83378700D01*
X152050968Y-83378701D01*
X151948243Y-83438010D01*
X151948240Y-83438012D01*
X151864369Y-83521883D01*
X151864367Y-83521886D01*
X151808032Y-83619461D01*
X151805057Y-83624613D01*
X151774356Y-83739190D01*
X151774356Y-83739192D01*
X151774356Y-83857807D01*
X151787720Y-83907683D01*
X151786057Y-83977533D01*
X151746894Y-84035395D01*
X151682665Y-84062899D01*
X151613763Y-84051312D01*
X151605944Y-84047162D01*
X151593891Y-84040203D01*
X151593890Y-84040202D01*
X151564093Y-84032218D01*
X151479309Y-84009500D01*
X151360691Y-84009500D01*
X151246114Y-84040201D01*
X151246112Y-84040201D01*
X151246112Y-84040202D01*
X151143387Y-84099511D01*
X151143384Y-84099513D01*
X151059513Y-84183384D01*
X151059511Y-84183387D01*
X151021630Y-84248999D01*
X151000201Y-84286114D01*
X150969500Y-84400691D01*
X149100480Y-84400691D01*
X149090489Y-84383387D01*
X149006613Y-84299511D01*
X148903886Y-84240201D01*
X148789309Y-84209500D01*
X148670691Y-84209500D01*
X148556114Y-84240201D01*
X148556112Y-84240201D01*
X148556112Y-84240202D01*
X148453387Y-84299511D01*
X148453384Y-84299513D01*
X148369513Y-84383384D01*
X148369511Y-84383387D01*
X148318128Y-84472385D01*
X148310201Y-84486114D01*
X148279500Y-84600691D01*
X140679238Y-84600691D01*
X140751469Y-84558988D01*
X140835345Y-84475112D01*
X140894655Y-84372385D01*
X140925356Y-84257808D01*
X140925356Y-84192636D01*
X140945041Y-84125597D01*
X140997845Y-84079842D01*
X141067003Y-84069898D01*
X141096810Y-84078075D01*
X141100961Y-84079793D01*
X141100970Y-84079799D01*
X141215547Y-84110500D01*
X141215550Y-84110500D01*
X141334162Y-84110500D01*
X141334165Y-84110500D01*
X141448742Y-84079799D01*
X141551469Y-84020489D01*
X141635345Y-83936613D01*
X141694655Y-83833886D01*
X141725356Y-83719309D01*
X141725356Y-83600691D01*
X141694655Y-83486114D01*
X141635345Y-83383387D01*
X141551469Y-83299511D01*
X141448742Y-83240201D01*
X141334165Y-83209500D01*
X141215547Y-83209500D01*
X141100970Y-83240201D01*
X141100968Y-83240201D01*
X141100968Y-83240202D01*
X140998243Y-83299511D01*
X140998240Y-83299513D01*
X140914369Y-83383384D01*
X140914367Y-83383387D01*
X140855057Y-83486114D01*
X140824356Y-83600691D01*
X140824356Y-83600693D01*
X140824356Y-83665862D01*
X140804671Y-83732901D01*
X140751867Y-83778656D01*
X140682709Y-83788600D01*
X140652911Y-83780426D01*
X140648749Y-83778702D01*
X140648742Y-83778700D01*
X140534165Y-83747999D01*
X140415547Y-83747999D01*
X140300970Y-83778700D01*
X140300968Y-83778700D01*
X140300968Y-83778701D01*
X140198243Y-83838010D01*
X140198240Y-83838012D01*
X140114369Y-83921883D01*
X140114367Y-83921886D01*
X140057439Y-84020488D01*
X140055057Y-84024613D01*
X140024356Y-84139190D01*
X138192787Y-84139190D01*
X138220489Y-84111488D01*
X138241491Y-84075112D01*
X138244985Y-84069061D01*
X138244985Y-84069060D01*
X138273028Y-84020488D01*
X138279799Y-84008761D01*
X138310500Y-83894184D01*
X138310500Y-83775566D01*
X138279799Y-83660989D01*
X138220489Y-83558262D01*
X138136613Y-83474386D01*
X138033886Y-83415076D01*
X137919309Y-83384375D01*
X137800691Y-83384375D01*
X137686114Y-83415076D01*
X137686112Y-83415076D01*
X137686112Y-83415077D01*
X137583387Y-83474386D01*
X137583384Y-83474388D01*
X137499513Y-83558259D01*
X137499511Y-83558262D01*
X137440201Y-83660989D01*
X137409500Y-83775566D01*
X127911342Y-83775566D01*
X127909005Y-83347999D01*
X127908049Y-83173117D01*
X136236942Y-83173117D01*
X136236942Y-83291735D01*
X136267643Y-83406312D01*
X136326953Y-83509039D01*
X136410829Y-83592915D01*
X136513556Y-83652225D01*
X136628133Y-83682926D01*
X136628136Y-83682926D01*
X136746748Y-83682926D01*
X136746751Y-83682926D01*
X136861328Y-83652225D01*
X136964055Y-83592915D01*
X137047931Y-83509039D01*
X137107241Y-83406312D01*
X137137942Y-83291735D01*
X137137942Y-83173117D01*
X137107241Y-83058540D01*
X137047931Y-82955813D01*
X136964055Y-82871937D01*
X136861328Y-82812627D01*
X136746751Y-82781926D01*
X136628133Y-82781926D01*
X136513556Y-82812627D01*
X136513554Y-82812627D01*
X136513554Y-82812628D01*
X136410829Y-82871937D01*
X136410826Y-82871939D01*
X136326955Y-82955810D01*
X136326953Y-82955813D01*
X136267643Y-83058540D01*
X136236942Y-83173117D01*
X127908049Y-83173117D01*
X127902135Y-82090691D01*
X140774500Y-82090691D01*
X140774500Y-82209309D01*
X140805201Y-82323886D01*
X140864511Y-82426613D01*
X140948387Y-82510489D01*
X141051114Y-82569799D01*
X141165691Y-82600500D01*
X141165694Y-82600500D01*
X141284306Y-82600500D01*
X141284309Y-82600500D01*
X141398886Y-82569799D01*
X141501613Y-82510489D01*
X141572912Y-82439190D01*
X145874356Y-82439190D01*
X145874356Y-82557808D01*
X145905057Y-82672385D01*
X145964367Y-82775112D01*
X146048243Y-82858988D01*
X146150970Y-82918298D01*
X146265547Y-82948999D01*
X146265550Y-82948999D01*
X146384162Y-82948999D01*
X146384165Y-82948999D01*
X146498742Y-82918298D01*
X146601469Y-82858988D01*
X146685345Y-82775112D01*
X146744655Y-82672385D01*
X146775356Y-82557808D01*
X146775356Y-82440691D01*
X177199500Y-82440691D01*
X177199500Y-82559309D01*
X177230201Y-82673886D01*
X177289511Y-82776613D01*
X177373387Y-82860489D01*
X177476114Y-82919799D01*
X177590691Y-82950500D01*
X177590694Y-82950500D01*
X177709306Y-82950500D01*
X177709309Y-82950500D01*
X177823886Y-82919799D01*
X177926613Y-82860489D01*
X178010489Y-82776613D01*
X178069799Y-82673886D01*
X178100500Y-82559309D01*
X178100500Y-82440691D01*
X178087102Y-82390691D01*
X179699500Y-82390691D01*
X179699500Y-82509309D01*
X179730201Y-82623886D01*
X179789511Y-82726613D01*
X179873387Y-82810489D01*
X179976114Y-82869799D01*
X180090691Y-82900500D01*
X180090694Y-82900500D01*
X180209306Y-82900500D01*
X180209309Y-82900500D01*
X180323886Y-82869799D01*
X180390561Y-82831304D01*
X185079500Y-82831304D01*
X185079500Y-83008695D01*
X185114103Y-83182658D01*
X185114106Y-83182667D01*
X185181983Y-83346540D01*
X185181990Y-83346553D01*
X185280535Y-83494034D01*
X185280538Y-83494038D01*
X185405961Y-83619461D01*
X185405965Y-83619464D01*
X185553446Y-83718009D01*
X185553459Y-83718016D01*
X185625846Y-83747999D01*
X185717334Y-83785894D01*
X185717336Y-83785894D01*
X185717341Y-83785896D01*
X185891304Y-83820499D01*
X185891307Y-83820500D01*
X185891309Y-83820500D01*
X186068693Y-83820500D01*
X186068694Y-83820499D01*
X186159982Y-83802341D01*
X186242658Y-83785896D01*
X186242661Y-83785894D01*
X186242666Y-83785894D01*
X186403418Y-83719309D01*
X186406540Y-83718016D01*
X186406540Y-83718015D01*
X186406547Y-83718013D01*
X186554035Y-83619464D01*
X186679464Y-83494035D01*
X186778013Y-83346547D01*
X186845894Y-83182666D01*
X186847794Y-83173117D01*
X186880499Y-83008695D01*
X186880500Y-83008693D01*
X186880500Y-82831306D01*
X186880499Y-82831304D01*
X186845896Y-82657341D01*
X186845893Y-82657332D01*
X186778016Y-82493459D01*
X186778009Y-82493446D01*
X186679464Y-82345965D01*
X186679461Y-82345961D01*
X186554038Y-82220538D01*
X186554034Y-82220535D01*
X186406553Y-82121990D01*
X186406540Y-82121983D01*
X186242667Y-82054106D01*
X186242658Y-82054103D01*
X186068694Y-82019500D01*
X186068691Y-82019500D01*
X185891309Y-82019500D01*
X185891306Y-82019500D01*
X185717341Y-82054103D01*
X185717332Y-82054106D01*
X185553459Y-82121983D01*
X185553446Y-82121990D01*
X185405965Y-82220535D01*
X185405961Y-82220538D01*
X185280538Y-82345961D01*
X185280535Y-82345965D01*
X185181990Y-82493446D01*
X185181983Y-82493459D01*
X185114106Y-82657332D01*
X185114103Y-82657341D01*
X185079500Y-82831304D01*
X180390561Y-82831304D01*
X180426613Y-82810489D01*
X180510489Y-82726613D01*
X180569799Y-82623886D01*
X180600500Y-82509309D01*
X180600500Y-82390691D01*
X180569799Y-82276114D01*
X180510489Y-82173387D01*
X180426613Y-82089511D01*
X180323886Y-82030201D01*
X180209309Y-81999500D01*
X180090691Y-81999500D01*
X179976114Y-82030201D01*
X179976112Y-82030201D01*
X179976112Y-82030202D01*
X179873387Y-82089511D01*
X179873384Y-82089513D01*
X179789513Y-82173384D01*
X179789511Y-82173387D01*
X179761512Y-82221883D01*
X179730201Y-82276114D01*
X179699500Y-82390691D01*
X178087102Y-82390691D01*
X178069799Y-82326114D01*
X178010489Y-82223387D01*
X177926613Y-82139511D01*
X177823886Y-82080201D01*
X177709309Y-82049500D01*
X177590691Y-82049500D01*
X177476114Y-82080201D01*
X177476112Y-82080201D01*
X177476112Y-82080202D01*
X177373387Y-82139511D01*
X177373384Y-82139513D01*
X177289513Y-82223384D01*
X177289511Y-82223387D01*
X177231068Y-82324613D01*
X177230201Y-82326114D01*
X177199500Y-82440691D01*
X146775356Y-82440691D01*
X146775356Y-82439190D01*
X146744655Y-82324613D01*
X146685345Y-82221886D01*
X146601469Y-82138010D01*
X146498742Y-82078700D01*
X146384165Y-82047999D01*
X146265547Y-82047999D01*
X146150970Y-82078700D01*
X146150968Y-82078700D01*
X146150968Y-82078701D01*
X146048243Y-82138010D01*
X146048240Y-82138012D01*
X145964369Y-82221883D01*
X145964367Y-82221886D01*
X145905057Y-82324613D01*
X145874356Y-82439190D01*
X141572912Y-82439190D01*
X141585489Y-82426613D01*
X141644799Y-82323886D01*
X141675500Y-82209309D01*
X141675500Y-82090691D01*
X141644799Y-81976114D01*
X141586540Y-81875207D01*
X141570067Y-81807311D01*
X141592919Y-81741283D01*
X141647839Y-81698092D01*
X141717392Y-81691450D01*
X141726020Y-81693434D01*
X141731113Y-81694798D01*
X141731114Y-81694799D01*
X141845691Y-81725500D01*
X141845693Y-81725500D01*
X141964306Y-81725500D01*
X141964309Y-81725500D01*
X142078886Y-81694799D01*
X142181613Y-81635489D01*
X142265489Y-81551613D01*
X142324799Y-81448886D01*
X142355500Y-81334309D01*
X142355500Y-81215691D01*
X142324799Y-81101114D01*
X142318781Y-81090691D01*
X144579500Y-81090691D01*
X144579500Y-81209309D01*
X144610201Y-81323886D01*
X144669511Y-81426613D01*
X144753387Y-81510489D01*
X144856114Y-81569799D01*
X144970691Y-81600500D01*
X144970694Y-81600500D01*
X145089306Y-81600500D01*
X145089309Y-81600500D01*
X145203886Y-81569799D01*
X145306613Y-81510489D01*
X145390489Y-81426613D01*
X145449799Y-81323886D01*
X145480500Y-81209309D01*
X145480500Y-81090691D01*
X145449799Y-80976114D01*
X145406253Y-80900691D01*
X147469500Y-80900691D01*
X147469500Y-81019309D01*
X147500201Y-81133886D01*
X147559511Y-81236613D01*
X147643387Y-81320489D01*
X147746114Y-81379799D01*
X147860691Y-81410500D01*
X147860694Y-81410500D01*
X147979306Y-81410500D01*
X147979309Y-81410500D01*
X148093886Y-81379799D01*
X148196613Y-81320489D01*
X148280489Y-81236613D01*
X148318741Y-81170359D01*
X151889168Y-81170359D01*
X151889168Y-81288977D01*
X151919869Y-81403554D01*
X151979179Y-81506281D01*
X152063055Y-81590157D01*
X152165782Y-81649467D01*
X152280359Y-81680168D01*
X152280362Y-81680168D01*
X152295500Y-81680168D01*
X152362539Y-81699853D01*
X152408294Y-81752657D01*
X152419500Y-81804168D01*
X152419500Y-81819309D01*
X152450201Y-81933886D01*
X152509511Y-82036613D01*
X152593387Y-82120489D01*
X152696114Y-82179799D01*
X152810691Y-82210500D01*
X152810694Y-82210500D01*
X152929306Y-82210500D01*
X152929309Y-82210500D01*
X153043886Y-82179799D01*
X153146613Y-82120489D01*
X153230489Y-82036613D01*
X153289799Y-81933886D01*
X153320500Y-81819309D01*
X153320500Y-81700691D01*
X153317820Y-81690691D01*
X173249500Y-81690691D01*
X173249500Y-81809309D01*
X173280201Y-81923886D01*
X173339511Y-82026613D01*
X173423387Y-82110489D01*
X173526114Y-82169799D01*
X173640691Y-82200500D01*
X173640694Y-82200500D01*
X173759306Y-82200500D01*
X173759309Y-82200500D01*
X173873886Y-82169799D01*
X173976613Y-82110489D01*
X174060489Y-82026613D01*
X174119799Y-81923886D01*
X174150500Y-81809309D01*
X174150500Y-81690691D01*
X174149324Y-81686304D01*
X187619500Y-81686304D01*
X187619500Y-81863695D01*
X187654103Y-82037658D01*
X187654106Y-82037667D01*
X187721983Y-82201540D01*
X187721990Y-82201553D01*
X187820535Y-82349034D01*
X187820538Y-82349038D01*
X187945961Y-82474461D01*
X187945965Y-82474464D01*
X188093446Y-82573009D01*
X188093459Y-82573016D01*
X188159813Y-82600500D01*
X188257334Y-82640894D01*
X188257336Y-82640894D01*
X188257341Y-82640896D01*
X188431304Y-82675499D01*
X188431307Y-82675500D01*
X188431309Y-82675500D01*
X188608693Y-82675500D01*
X188608694Y-82675499D01*
X188699982Y-82657341D01*
X188782658Y-82640896D01*
X188782661Y-82640894D01*
X188782666Y-82640894D01*
X188946547Y-82573013D01*
X189094035Y-82474464D01*
X189219464Y-82349035D01*
X189318013Y-82201547D01*
X189385894Y-82037666D01*
X189386104Y-82036613D01*
X189408964Y-81921682D01*
X189420500Y-81863691D01*
X189420500Y-81686309D01*
X189420500Y-81686306D01*
X189420499Y-81686304D01*
X189385896Y-81512341D01*
X189385893Y-81512332D01*
X189385128Y-81510486D01*
X189350969Y-81428016D01*
X189318016Y-81348459D01*
X189318009Y-81348446D01*
X189219464Y-81200965D01*
X189219461Y-81200961D01*
X189094038Y-81075538D01*
X189094034Y-81075535D01*
X188946553Y-80976990D01*
X188946540Y-80976983D01*
X188782667Y-80909106D01*
X188782658Y-80909103D01*
X188608694Y-80874500D01*
X188608691Y-80874500D01*
X188431309Y-80874500D01*
X188431306Y-80874500D01*
X188257341Y-80909103D01*
X188257332Y-80909106D01*
X188093459Y-80976983D01*
X188093446Y-80976990D01*
X187945965Y-81075535D01*
X187945961Y-81075538D01*
X187820538Y-81200961D01*
X187820535Y-81200965D01*
X187721990Y-81348446D01*
X187721983Y-81348459D01*
X187654106Y-81512332D01*
X187654103Y-81512341D01*
X187619500Y-81686304D01*
X174149324Y-81686304D01*
X174119799Y-81576114D01*
X174060489Y-81473387D01*
X173976613Y-81389511D01*
X173873886Y-81330201D01*
X173759309Y-81299500D01*
X173640691Y-81299500D01*
X173526114Y-81330201D01*
X173526112Y-81330201D01*
X173526112Y-81330202D01*
X173423387Y-81389511D01*
X173423384Y-81389513D01*
X173339513Y-81473384D01*
X173339511Y-81473387D01*
X173284714Y-81568298D01*
X173280201Y-81576114D01*
X173249500Y-81690691D01*
X153317820Y-81690691D01*
X153289799Y-81586114D01*
X153230489Y-81483387D01*
X153146613Y-81399511D01*
X153043886Y-81340201D01*
X152929309Y-81309500D01*
X152914168Y-81309500D01*
X152847129Y-81289815D01*
X152801374Y-81237011D01*
X152792884Y-81211312D01*
X152790168Y-81198550D01*
X152790168Y-81170359D01*
X152760728Y-81060489D01*
X152760060Y-81057998D01*
X152759467Y-81055782D01*
X152750754Y-81040691D01*
X154849500Y-81040691D01*
X154849500Y-81159309D01*
X154880201Y-81273886D01*
X154939511Y-81376613D01*
X155023387Y-81460489D01*
X155126114Y-81519799D01*
X155240691Y-81550500D01*
X155240694Y-81550500D01*
X155359306Y-81550500D01*
X155359309Y-81550500D01*
X155473886Y-81519799D01*
X155576613Y-81460489D01*
X155660489Y-81376613D01*
X155719799Y-81273886D01*
X155750500Y-81159309D01*
X155750500Y-81040691D01*
X177649500Y-81040691D01*
X177649500Y-81159309D01*
X177680201Y-81273886D01*
X177739511Y-81376613D01*
X177823387Y-81460489D01*
X177926114Y-81519799D01*
X178040691Y-81550500D01*
X178040694Y-81550500D01*
X178159306Y-81550500D01*
X178159309Y-81550500D01*
X178273886Y-81519799D01*
X178376613Y-81460489D01*
X178460489Y-81376613D01*
X178519799Y-81273886D01*
X178550500Y-81159309D01*
X178550500Y-81040691D01*
X178519799Y-80926114D01*
X178460489Y-80823387D01*
X178376613Y-80739511D01*
X178273886Y-80680201D01*
X178159309Y-80649500D01*
X178040691Y-80649500D01*
X177926114Y-80680201D01*
X177926112Y-80680201D01*
X177926112Y-80680202D01*
X177823387Y-80739511D01*
X177823384Y-80739513D01*
X177739513Y-80823384D01*
X177739511Y-80823387D01*
X177710355Y-80873887D01*
X177680201Y-80926114D01*
X177649500Y-81040691D01*
X155750500Y-81040691D01*
X155719799Y-80926114D01*
X155660489Y-80823387D01*
X155576613Y-80739511D01*
X155473886Y-80680201D01*
X155359309Y-80649500D01*
X155240691Y-80649500D01*
X155126114Y-80680201D01*
X155126112Y-80680201D01*
X155126112Y-80680202D01*
X155023387Y-80739511D01*
X155023384Y-80739513D01*
X154939513Y-80823384D01*
X154939511Y-80823387D01*
X154910355Y-80873887D01*
X154880201Y-80926114D01*
X154849500Y-81040691D01*
X152750754Y-81040691D01*
X152700157Y-80953055D01*
X152616281Y-80869179D01*
X152513554Y-80809869D01*
X152398977Y-80779168D01*
X152280359Y-80779168D01*
X152165782Y-80809869D01*
X152165780Y-80809869D01*
X152165780Y-80809870D01*
X152063055Y-80869179D01*
X152063052Y-80869181D01*
X151979181Y-80953052D01*
X151979179Y-80953055D01*
X151929517Y-81039072D01*
X151919869Y-81055782D01*
X151889168Y-81170359D01*
X148318741Y-81170359D01*
X148339799Y-81133886D01*
X148370500Y-81019309D01*
X148370500Y-80900691D01*
X148339799Y-80786114D01*
X148280489Y-80683387D01*
X148196613Y-80599511D01*
X148093886Y-80540201D01*
X147979309Y-80509500D01*
X147860691Y-80509500D01*
X147746114Y-80540201D01*
X147746112Y-80540201D01*
X147746112Y-80540202D01*
X147643387Y-80599511D01*
X147643384Y-80599513D01*
X147559513Y-80683384D01*
X147559511Y-80683387D01*
X147500201Y-80786114D01*
X147469500Y-80900691D01*
X145406253Y-80900691D01*
X145390491Y-80873390D01*
X145390486Y-80873384D01*
X145306615Y-80789513D01*
X145306613Y-80789511D01*
X145203886Y-80730201D01*
X145089309Y-80699500D01*
X144970691Y-80699500D01*
X144856114Y-80730201D01*
X144856112Y-80730201D01*
X144856112Y-80730202D01*
X144753387Y-80789511D01*
X144753384Y-80789513D01*
X144669513Y-80873384D01*
X144669511Y-80873387D01*
X144611068Y-80974613D01*
X144610201Y-80976114D01*
X144579500Y-81090691D01*
X142318781Y-81090691D01*
X142265489Y-80998387D01*
X142181613Y-80914511D01*
X142078886Y-80855201D01*
X141964309Y-80824500D01*
X141845691Y-80824500D01*
X141731114Y-80855201D01*
X141731112Y-80855201D01*
X141731112Y-80855202D01*
X141628387Y-80914511D01*
X141628384Y-80914513D01*
X141544513Y-80998384D01*
X141544511Y-80998387D01*
X141491218Y-81090693D01*
X141485201Y-81101114D01*
X141454500Y-81215691D01*
X141454500Y-81334309D01*
X141479607Y-81428009D01*
X141485202Y-81448890D01*
X141485203Y-81448891D01*
X141543458Y-81549789D01*
X141559932Y-81617689D01*
X141537080Y-81683716D01*
X141482159Y-81726907D01*
X141412606Y-81733549D01*
X141403979Y-81731565D01*
X141318368Y-81708626D01*
X141284309Y-81699500D01*
X141165691Y-81699500D01*
X141051114Y-81730201D01*
X141051112Y-81730201D01*
X141051112Y-81730202D01*
X140948387Y-81789511D01*
X140948384Y-81789513D01*
X140864513Y-81873384D01*
X140864511Y-81873387D01*
X140829582Y-81933886D01*
X140805201Y-81976114D01*
X140774500Y-82090691D01*
X127902135Y-82090691D01*
X127900245Y-81744868D01*
X127919563Y-81677723D01*
X127928519Y-81665368D01*
X128790009Y-80619274D01*
X130008000Y-80619274D01*
X130008000Y-80737892D01*
X130038701Y-80852469D01*
X130098011Y-80955196D01*
X130181887Y-81039072D01*
X130284614Y-81098382D01*
X130399191Y-81129083D01*
X130399194Y-81129083D01*
X130517806Y-81129083D01*
X130517809Y-81129083D01*
X130632386Y-81098382D01*
X130735113Y-81039072D01*
X130818989Y-80955196D01*
X130878299Y-80852469D01*
X130909000Y-80737892D01*
X130909000Y-80640691D01*
X137019500Y-80640691D01*
X137019500Y-80759309D01*
X137050201Y-80873886D01*
X137109511Y-80976613D01*
X137193387Y-81060489D01*
X137296114Y-81119799D01*
X137410691Y-81150500D01*
X137410694Y-81150500D01*
X137529306Y-81150500D01*
X137529309Y-81150500D01*
X137643886Y-81119799D01*
X137696902Y-81089190D01*
X138424356Y-81089190D01*
X138424356Y-81207808D01*
X138455057Y-81322385D01*
X138514367Y-81425112D01*
X138598243Y-81508988D01*
X138700970Y-81568298D01*
X138815547Y-81598999D01*
X138815550Y-81598999D01*
X138934162Y-81598999D01*
X138934165Y-81598999D01*
X139048742Y-81568298D01*
X139151469Y-81508988D01*
X139235345Y-81425112D01*
X139294655Y-81322385D01*
X139325356Y-81207808D01*
X139325356Y-81089190D01*
X139294655Y-80974613D01*
X139235345Y-80871886D01*
X139151469Y-80788010D01*
X139048742Y-80728700D01*
X138934165Y-80697999D01*
X138815547Y-80697999D01*
X138700970Y-80728700D01*
X138700968Y-80728700D01*
X138700968Y-80728701D01*
X138598243Y-80788010D01*
X138598240Y-80788012D01*
X138514369Y-80871883D01*
X138514367Y-80871886D01*
X138466268Y-80955196D01*
X138455057Y-80974613D01*
X138424356Y-81089190D01*
X137696902Y-81089190D01*
X137746613Y-81060489D01*
X137830489Y-80976613D01*
X137889799Y-80873886D01*
X137920500Y-80759309D01*
X137920500Y-80640691D01*
X137889799Y-80526114D01*
X137830489Y-80423387D01*
X137746613Y-80339511D01*
X137643886Y-80280201D01*
X137529309Y-80249500D01*
X137410691Y-80249500D01*
X137296114Y-80280201D01*
X137296112Y-80280201D01*
X137296112Y-80280202D01*
X137193387Y-80339511D01*
X137193384Y-80339513D01*
X137109513Y-80423384D01*
X137109511Y-80423387D01*
X137088091Y-80460488D01*
X137050201Y-80526114D01*
X137019500Y-80640691D01*
X130909000Y-80640691D01*
X130909000Y-80619274D01*
X130878299Y-80504697D01*
X130818989Y-80401970D01*
X130735113Y-80318094D01*
X130632386Y-80258784D01*
X130517809Y-80228083D01*
X130399191Y-80228083D01*
X130284614Y-80258784D01*
X130284612Y-80258784D01*
X130284612Y-80258785D01*
X130181887Y-80318094D01*
X130181884Y-80318096D01*
X130098013Y-80401967D01*
X130098011Y-80401970D01*
X130085648Y-80423384D01*
X130038701Y-80504697D01*
X130008000Y-80619274D01*
X128790009Y-80619274D01*
X129266489Y-80040691D01*
X133440501Y-80040691D01*
X133440501Y-80159309D01*
X133471202Y-80273886D01*
X133530512Y-80376613D01*
X133614388Y-80460489D01*
X133717115Y-80519799D01*
X133831692Y-80550500D01*
X133831695Y-80550500D01*
X133950307Y-80550500D01*
X133950310Y-80550500D01*
X134064887Y-80519799D01*
X134167614Y-80460489D01*
X134251490Y-80376613D01*
X134310800Y-80273886D01*
X134341501Y-80159309D01*
X134341501Y-80040691D01*
X134310800Y-79926114D01*
X134296122Y-79900691D01*
X144269500Y-79900691D01*
X144269500Y-80019309D01*
X144300201Y-80133886D01*
X144359511Y-80236613D01*
X144443387Y-80320489D01*
X144546114Y-80379799D01*
X144660691Y-80410500D01*
X144660694Y-80410500D01*
X144779306Y-80410500D01*
X144779309Y-80410500D01*
X144893886Y-80379799D01*
X144996613Y-80320489D01*
X145080489Y-80236613D01*
X145139799Y-80133886D01*
X145170500Y-80019309D01*
X145170500Y-79900691D01*
X145139799Y-79786114D01*
X145099140Y-79715691D01*
X150454500Y-79715691D01*
X150454500Y-79834309D01*
X150485201Y-79948886D01*
X150544511Y-80051613D01*
X150628387Y-80135489D01*
X150731114Y-80194799D01*
X150845691Y-80225500D01*
X150845694Y-80225500D01*
X150905500Y-80225500D01*
X150972539Y-80245185D01*
X151018294Y-80297989D01*
X151029500Y-80349500D01*
X151029500Y-80459309D01*
X151060201Y-80573886D01*
X151119511Y-80676613D01*
X151203387Y-80760489D01*
X151306114Y-80819799D01*
X151420691Y-80850500D01*
X151420694Y-80850500D01*
X151539306Y-80850500D01*
X151539309Y-80850500D01*
X151653886Y-80819799D01*
X151756613Y-80760489D01*
X151840489Y-80676613D01*
X151899799Y-80573886D01*
X151908529Y-80541304D01*
X185079500Y-80541304D01*
X185079500Y-80718695D01*
X185114103Y-80892658D01*
X185114106Y-80892667D01*
X185181983Y-81056540D01*
X185181990Y-81056553D01*
X185280535Y-81204034D01*
X185280538Y-81204038D01*
X185405961Y-81329461D01*
X185405965Y-81329464D01*
X185553446Y-81428009D01*
X185553459Y-81428016D01*
X185662989Y-81473384D01*
X185717334Y-81495894D01*
X185717336Y-81495894D01*
X185717341Y-81495896D01*
X185891304Y-81530499D01*
X185891307Y-81530500D01*
X185891309Y-81530500D01*
X186068693Y-81530500D01*
X186068694Y-81530499D01*
X186159982Y-81512341D01*
X186242658Y-81495896D01*
X186242661Y-81495894D01*
X186242666Y-81495894D01*
X186406547Y-81428013D01*
X186554035Y-81329464D01*
X186679464Y-81204035D01*
X186778013Y-81056547D01*
X186778330Y-81055783D01*
X186802105Y-80998384D01*
X186845894Y-80892666D01*
X186849508Y-80874500D01*
X186872186Y-80760486D01*
X186880500Y-80718691D01*
X186880500Y-80541309D01*
X186880500Y-80541306D01*
X186880499Y-80541304D01*
X186845896Y-80367341D01*
X186845893Y-80367332D01*
X186778016Y-80203459D01*
X186778009Y-80203446D01*
X186679464Y-80055965D01*
X186679461Y-80055961D01*
X186554038Y-79930538D01*
X186554034Y-79930535D01*
X186406553Y-79831990D01*
X186406540Y-79831983D01*
X186242667Y-79764106D01*
X186242658Y-79764103D01*
X186068694Y-79729500D01*
X186068691Y-79729500D01*
X185891309Y-79729500D01*
X185891306Y-79729500D01*
X185717341Y-79764103D01*
X185717332Y-79764106D01*
X185553459Y-79831983D01*
X185553446Y-79831990D01*
X185405965Y-79930535D01*
X185405961Y-79930538D01*
X185280538Y-80055961D01*
X185280535Y-80055965D01*
X185181990Y-80203446D01*
X185181983Y-80203459D01*
X185114106Y-80367332D01*
X185114103Y-80367341D01*
X185079500Y-80541304D01*
X151908529Y-80541304D01*
X151930500Y-80459309D01*
X151930500Y-80340691D01*
X151899799Y-80226114D01*
X151840489Y-80123387D01*
X151756613Y-80039511D01*
X151653886Y-79980201D01*
X151539309Y-79949500D01*
X151479500Y-79949500D01*
X151412461Y-79929815D01*
X151366706Y-79877011D01*
X151355500Y-79825500D01*
X151355500Y-79715693D01*
X151355500Y-79715691D01*
X151324799Y-79601114D01*
X151265489Y-79498387D01*
X151181613Y-79414511D01*
X151078886Y-79355201D01*
X150964309Y-79324500D01*
X150845691Y-79324500D01*
X150731114Y-79355201D01*
X150731112Y-79355201D01*
X150731112Y-79355202D01*
X150628387Y-79414511D01*
X150628384Y-79414513D01*
X150544513Y-79498384D01*
X150544511Y-79498387D01*
X150486127Y-79599511D01*
X150485201Y-79601114D01*
X150454500Y-79715691D01*
X145099140Y-79715691D01*
X145080489Y-79683387D01*
X144996613Y-79599511D01*
X144893886Y-79540201D01*
X144779309Y-79509500D01*
X144660691Y-79509500D01*
X144546114Y-79540201D01*
X144546112Y-79540201D01*
X144546112Y-79540202D01*
X144443387Y-79599511D01*
X144443384Y-79599513D01*
X144359513Y-79683384D01*
X144359511Y-79683387D01*
X144300201Y-79786114D01*
X144269500Y-79900691D01*
X134296122Y-79900691D01*
X134251490Y-79823387D01*
X134167614Y-79739511D01*
X134064887Y-79680201D01*
X133950310Y-79649500D01*
X133831692Y-79649500D01*
X133717115Y-79680201D01*
X133717113Y-79680201D01*
X133717113Y-79680202D01*
X133614388Y-79739511D01*
X133614385Y-79739513D01*
X133530514Y-79823384D01*
X133530512Y-79823387D01*
X133471202Y-79926114D01*
X133440501Y-80040691D01*
X129266489Y-80040691D01*
X129846254Y-79336691D01*
X141179500Y-79336691D01*
X141179500Y-79455309D01*
X141210201Y-79569886D01*
X141269511Y-79672613D01*
X141353387Y-79756489D01*
X141456114Y-79815799D01*
X141570691Y-79846500D01*
X141570694Y-79846500D01*
X141689306Y-79846500D01*
X141689309Y-79846500D01*
X141803886Y-79815799D01*
X141906613Y-79756489D01*
X141990489Y-79672613D01*
X142049799Y-79569886D01*
X142080500Y-79455309D01*
X142080500Y-79336691D01*
X142049799Y-79222114D01*
X141990489Y-79119387D01*
X141906613Y-79035511D01*
X141803886Y-78976201D01*
X141689309Y-78945500D01*
X141570691Y-78945500D01*
X141456114Y-78976201D01*
X141456112Y-78976201D01*
X141456112Y-78976202D01*
X141353387Y-79035511D01*
X141353384Y-79035513D01*
X141269513Y-79119384D01*
X141269511Y-79119387D01*
X141210743Y-79221176D01*
X141210201Y-79222114D01*
X141179500Y-79336691D01*
X129846254Y-79336691D01*
X130000000Y-79150000D01*
X129300000Y-79150000D01*
X127300000Y-81650000D01*
X127300000Y-99575500D01*
X127280315Y-99642539D01*
X127227511Y-99688294D01*
X127176000Y-99699500D01*
X103203481Y-99699500D01*
X103196528Y-99699305D01*
X102882311Y-99681659D01*
X102868493Y-99680102D01*
X102561666Y-99627969D01*
X102548110Y-99624875D01*
X102249047Y-99538717D01*
X102235921Y-99534124D01*
X101948388Y-99415024D01*
X101935860Y-99408991D01*
X101763232Y-99313583D01*
X101663457Y-99258439D01*
X101651692Y-99251046D01*
X101397872Y-99070951D01*
X101387004Y-99062285D01*
X101356745Y-99035244D01*
X101154934Y-98854894D01*
X101145103Y-98845063D01*
X101054154Y-98743291D01*
X100937709Y-98612989D01*
X100929050Y-98602129D01*
X100748950Y-98348303D01*
X100741563Y-98336547D01*
X100591004Y-98064132D01*
X100584978Y-98051618D01*
X100465874Y-97764077D01*
X100461282Y-97750952D01*
X100432653Y-97651578D01*
X100375122Y-97451883D01*
X100372030Y-97438333D01*
X100319896Y-97131498D01*
X100318340Y-97117687D01*
X100316954Y-97093010D01*
X100303144Y-96847099D01*
X100300695Y-96803471D01*
X100300500Y-96796519D01*
X100300500Y-87630247D01*
X103449500Y-87630247D01*
X103449500Y-89769752D01*
X103461131Y-89828229D01*
X103461132Y-89828230D01*
X103505447Y-89894552D01*
X103571769Y-89938867D01*
X103571770Y-89938868D01*
X103630247Y-89950499D01*
X103630250Y-89950500D01*
X103630252Y-89950500D01*
X105769750Y-89950500D01*
X105769751Y-89950499D01*
X105784568Y-89947552D01*
X105828229Y-89938868D01*
X105828229Y-89938867D01*
X105828231Y-89938867D01*
X105894552Y-89894552D01*
X105938867Y-89828231D01*
X105938867Y-89828229D01*
X105938868Y-89828229D01*
X105950499Y-89769752D01*
X105950500Y-89769750D01*
X105950500Y-88734108D01*
X118479500Y-88734108D01*
X118479500Y-88865892D01*
X118485427Y-88888012D01*
X118513608Y-88993187D01*
X118531687Y-89024500D01*
X118579500Y-89107314D01*
X118672686Y-89200500D01*
X118786814Y-89266392D01*
X118914108Y-89300500D01*
X118914110Y-89300500D01*
X119045890Y-89300500D01*
X119045892Y-89300500D01*
X119173186Y-89266392D01*
X119287314Y-89200500D01*
X119354819Y-89132995D01*
X119416142Y-89099510D01*
X119485834Y-89104494D01*
X119530181Y-89132995D01*
X119597686Y-89200500D01*
X119711814Y-89266392D01*
X119839108Y-89300500D01*
X119839110Y-89300500D01*
X119970890Y-89300500D01*
X119970892Y-89300500D01*
X120098186Y-89266392D01*
X120212314Y-89200500D01*
X120279819Y-89132995D01*
X120341142Y-89099510D01*
X120410834Y-89104494D01*
X120455181Y-89132995D01*
X120522686Y-89200500D01*
X120636814Y-89266392D01*
X120764108Y-89300500D01*
X120764110Y-89300500D01*
X120895890Y-89300500D01*
X120895892Y-89300500D01*
X121023186Y-89266392D01*
X121137314Y-89200500D01*
X121230500Y-89107314D01*
X121296392Y-88993186D01*
X121330500Y-88865892D01*
X121330500Y-88734108D01*
X121296392Y-88606814D01*
X121292499Y-88600072D01*
X121250244Y-88526884D01*
X121230500Y-88492686D01*
X121137314Y-88399500D01*
X121049844Y-88348999D01*
X121023187Y-88333608D01*
X120933504Y-88309578D01*
X120895892Y-88299500D01*
X120764108Y-88299500D01*
X120636812Y-88333608D01*
X120522686Y-88399500D01*
X120522683Y-88399502D01*
X120455181Y-88467005D01*
X120393858Y-88500490D01*
X120324166Y-88495506D01*
X120279819Y-88467005D01*
X120212316Y-88399502D01*
X120212314Y-88399500D01*
X120124844Y-88348999D01*
X120098187Y-88333608D01*
X120008504Y-88309578D01*
X119970892Y-88299500D01*
X119839108Y-88299500D01*
X119711812Y-88333608D01*
X119597686Y-88399500D01*
X119597683Y-88399502D01*
X119530181Y-88467005D01*
X119468858Y-88500490D01*
X119399166Y-88495506D01*
X119354819Y-88467005D01*
X119287316Y-88399502D01*
X119287314Y-88399500D01*
X119199844Y-88348999D01*
X119173187Y-88333608D01*
X119083504Y-88309578D01*
X119045892Y-88299500D01*
X118914108Y-88299500D01*
X118786812Y-88333608D01*
X118672686Y-88399500D01*
X118672683Y-88399502D01*
X118579502Y-88492683D01*
X118579500Y-88492686D01*
X118513608Y-88606812D01*
X118512552Y-88610755D01*
X118479500Y-88734108D01*
X105950500Y-88734108D01*
X105950500Y-87630249D01*
X105950499Y-87630247D01*
X105938868Y-87571770D01*
X105938867Y-87571769D01*
X105894552Y-87505447D01*
X105828230Y-87461132D01*
X105828229Y-87461131D01*
X105769752Y-87449500D01*
X105769748Y-87449500D01*
X103630252Y-87449500D01*
X103630247Y-87449500D01*
X103571770Y-87461131D01*
X103571769Y-87461132D01*
X103505447Y-87505447D01*
X103461132Y-87571769D01*
X103461131Y-87571770D01*
X103449500Y-87630247D01*
X100300500Y-87630247D01*
X100300500Y-79534108D01*
X111979500Y-79534108D01*
X111979500Y-79665892D01*
X111992844Y-79715693D01*
X112013608Y-79793187D01*
X112037349Y-79834306D01*
X112079500Y-79907314D01*
X112172686Y-80000500D01*
X112286814Y-80066392D01*
X112414108Y-80100500D01*
X112414110Y-80100500D01*
X112545890Y-80100500D01*
X112545892Y-80100500D01*
X112673186Y-80066392D01*
X112787314Y-80000500D01*
X112880500Y-79907314D01*
X112946392Y-79793186D01*
X112980500Y-79665892D01*
X112980500Y-79534108D01*
X112946392Y-79406814D01*
X112880500Y-79292686D01*
X112787314Y-79199500D01*
X112701578Y-79150000D01*
X112673187Y-79133608D01*
X112609539Y-79116554D01*
X112545892Y-79099500D01*
X112414108Y-79099500D01*
X112286812Y-79133608D01*
X112172686Y-79199500D01*
X112172683Y-79199502D01*
X112079502Y-79292683D01*
X112079500Y-79292686D01*
X112013608Y-79406812D01*
X112000614Y-79455309D01*
X111979500Y-79534108D01*
X100300500Y-79534108D01*
X100300500Y-78940691D01*
X114929500Y-78940691D01*
X114929500Y-79059309D01*
X114960201Y-79173886D01*
X115019511Y-79276613D01*
X115103387Y-79360489D01*
X115206114Y-79419799D01*
X115320691Y-79450500D01*
X115320694Y-79450500D01*
X115439306Y-79450500D01*
X115439309Y-79450500D01*
X115553886Y-79419799D01*
X115656613Y-79360489D01*
X115740489Y-79276613D01*
X115799799Y-79173886D01*
X115830500Y-79059309D01*
X115830500Y-78940691D01*
X115799799Y-78826114D01*
X115740489Y-78723387D01*
X115656613Y-78639511D01*
X115553886Y-78580201D01*
X115439309Y-78549500D01*
X115320691Y-78549500D01*
X115206114Y-78580201D01*
X115206112Y-78580201D01*
X115206112Y-78580202D01*
X115103387Y-78639511D01*
X115103384Y-78639513D01*
X115019513Y-78723384D01*
X115019511Y-78723387D01*
X114962799Y-78821615D01*
X114960201Y-78826114D01*
X114929500Y-78940691D01*
X100300500Y-78940691D01*
X100300500Y-78485691D01*
X132804500Y-78485691D01*
X132804500Y-78604309D01*
X132835201Y-78718886D01*
X132894511Y-78821613D01*
X132978387Y-78905489D01*
X133081114Y-78964799D01*
X133195691Y-78995500D01*
X133195694Y-78995500D01*
X133314306Y-78995500D01*
X133314309Y-78995500D01*
X133428886Y-78964799D01*
X133531613Y-78905489D01*
X133615489Y-78821613D01*
X133655943Y-78751545D01*
X134166363Y-78751545D01*
X134166363Y-78870163D01*
X134197064Y-78984740D01*
X134256374Y-79087467D01*
X134340250Y-79171343D01*
X134442977Y-79230653D01*
X134557554Y-79261354D01*
X134557557Y-79261354D01*
X134676169Y-79261354D01*
X134676172Y-79261354D01*
X134790749Y-79230653D01*
X134893476Y-79171343D01*
X134977352Y-79087467D01*
X135036662Y-78984740D01*
X135067363Y-78870163D01*
X135067363Y-78780690D01*
X137689018Y-78780690D01*
X137689018Y-78899308D01*
X137719719Y-79013885D01*
X137779029Y-79116612D01*
X137862905Y-79200488D01*
X137965632Y-79259798D01*
X138080209Y-79290499D01*
X138080212Y-79290499D01*
X138198824Y-79290499D01*
X138198827Y-79290499D01*
X138313404Y-79259798D01*
X138416131Y-79200488D01*
X138500007Y-79116612D01*
X138559317Y-79013885D01*
X138590018Y-78899308D01*
X138590018Y-78780690D01*
X138559317Y-78666113D01*
X138500007Y-78563386D01*
X138416131Y-78479510D01*
X138313404Y-78420200D01*
X138198827Y-78389499D01*
X138080209Y-78389499D01*
X137965632Y-78420200D01*
X137965630Y-78420200D01*
X137965630Y-78420201D01*
X137862905Y-78479510D01*
X137862902Y-78479512D01*
X137779031Y-78563383D01*
X137779029Y-78563386D01*
X137736752Y-78636612D01*
X137719719Y-78666113D01*
X137689018Y-78780690D01*
X135067363Y-78780690D01*
X135067363Y-78751545D01*
X135036662Y-78636968D01*
X134977352Y-78534241D01*
X134893476Y-78450365D01*
X134790749Y-78391055D01*
X134676172Y-78360354D01*
X134557554Y-78360354D01*
X134442977Y-78391055D01*
X134442975Y-78391055D01*
X134442975Y-78391056D01*
X134340250Y-78450365D01*
X134340247Y-78450367D01*
X134256376Y-78534238D01*
X134256374Y-78534241D01*
X134197270Y-78636612D01*
X134197064Y-78636968D01*
X134166363Y-78751545D01*
X133655943Y-78751545D01*
X133674799Y-78718886D01*
X133705500Y-78604309D01*
X133705500Y-78485691D01*
X133674799Y-78371114D01*
X133615489Y-78268387D01*
X133531613Y-78184511D01*
X133428886Y-78125201D01*
X133314309Y-78094500D01*
X133195691Y-78094500D01*
X133081114Y-78125201D01*
X133081112Y-78125201D01*
X133081112Y-78125202D01*
X132978387Y-78184511D01*
X132978384Y-78184513D01*
X132894513Y-78268384D01*
X132894511Y-78268387D01*
X132835201Y-78371114D01*
X132804500Y-78485691D01*
X100300500Y-78485691D01*
X100300500Y-77600691D01*
X122219500Y-77600691D01*
X122219500Y-77719309D01*
X122250201Y-77833886D01*
X122309511Y-77936613D01*
X122393387Y-78020489D01*
X122496114Y-78079799D01*
X122610691Y-78110500D01*
X122610694Y-78110500D01*
X122729306Y-78110500D01*
X122729309Y-78110500D01*
X122843886Y-78079799D01*
X122946613Y-78020489D01*
X123030489Y-77936613D01*
X123089799Y-77833886D01*
X123120500Y-77719309D01*
X123120500Y-77600691D01*
X123089799Y-77486114D01*
X123030489Y-77383387D01*
X122946613Y-77299511D01*
X122843886Y-77240201D01*
X122729309Y-77209500D01*
X122610691Y-77209500D01*
X122496114Y-77240201D01*
X122496112Y-77240201D01*
X122496112Y-77240202D01*
X122393387Y-77299511D01*
X122393384Y-77299513D01*
X122309513Y-77383384D01*
X122309511Y-77383387D01*
X122257136Y-77474103D01*
X122250201Y-77486114D01*
X122219500Y-77600691D01*
X100300500Y-77600691D01*
X100300500Y-76834108D01*
X116174356Y-76834108D01*
X116174356Y-76965892D01*
X116182259Y-76995386D01*
X116208464Y-77093187D01*
X116227763Y-77126613D01*
X116274356Y-77207314D01*
X116367542Y-77300500D01*
X116481670Y-77366392D01*
X116608964Y-77400500D01*
X116608966Y-77400500D01*
X116740746Y-77400500D01*
X116740748Y-77400500D01*
X116868042Y-77366392D01*
X116982170Y-77300500D01*
X117075356Y-77207314D01*
X117141248Y-77093186D01*
X117175356Y-76965892D01*
X117175356Y-76834108D01*
X123549500Y-76834108D01*
X123549500Y-76965892D01*
X123557403Y-76995386D01*
X123583608Y-77093187D01*
X123602907Y-77126613D01*
X123649500Y-77207314D01*
X123742686Y-77300500D01*
X123856814Y-77366392D01*
X123984108Y-77400500D01*
X123984110Y-77400500D01*
X124115890Y-77400500D01*
X124115892Y-77400500D01*
X124243186Y-77366392D01*
X124287701Y-77340691D01*
X135829500Y-77340691D01*
X135829500Y-77459309D01*
X135860201Y-77573886D01*
X135919511Y-77676613D01*
X136003387Y-77760489D01*
X136087878Y-77809270D01*
X136136094Y-77859837D01*
X136149317Y-77928444D01*
X136123349Y-77993309D01*
X136113560Y-78004337D01*
X136069514Y-78048383D01*
X136069511Y-78048387D01*
X136010201Y-78151114D01*
X135979500Y-78265691D01*
X135979500Y-78384309D01*
X136010201Y-78498886D01*
X136069511Y-78601613D01*
X136153387Y-78685489D01*
X136256114Y-78744799D01*
X136370691Y-78775500D01*
X136370694Y-78775500D01*
X136489306Y-78775500D01*
X136489309Y-78775500D01*
X136603886Y-78744799D01*
X136706613Y-78685489D01*
X136790489Y-78601613D01*
X136849799Y-78498886D01*
X136880500Y-78384309D01*
X136880500Y-78300691D01*
X138869500Y-78300691D01*
X138869500Y-78419309D01*
X138900201Y-78533886D01*
X138959511Y-78636613D01*
X139043387Y-78720489D01*
X139146114Y-78779799D01*
X139260691Y-78810500D01*
X139260694Y-78810500D01*
X139379306Y-78810500D01*
X139379309Y-78810500D01*
X139493886Y-78779799D01*
X139596613Y-78720489D01*
X139680489Y-78636613D01*
X139739799Y-78533886D01*
X139770500Y-78419309D01*
X139770500Y-78300691D01*
X139757267Y-78251304D01*
X185079500Y-78251304D01*
X185079500Y-78428695D01*
X185114103Y-78602658D01*
X185114106Y-78602667D01*
X185181983Y-78766540D01*
X185181990Y-78766553D01*
X185280535Y-78914034D01*
X185280538Y-78914038D01*
X185405961Y-79039461D01*
X185405965Y-79039464D01*
X185553446Y-79138009D01*
X185553459Y-79138016D01*
X185640059Y-79173886D01*
X185717334Y-79205894D01*
X185717336Y-79205894D01*
X185717341Y-79205896D01*
X185891304Y-79240499D01*
X185891307Y-79240500D01*
X185891309Y-79240500D01*
X186068693Y-79240500D01*
X186068694Y-79240499D01*
X186126682Y-79228964D01*
X186242658Y-79205896D01*
X186242661Y-79205894D01*
X186242666Y-79205894D01*
X186406547Y-79138013D01*
X186554035Y-79039464D01*
X186679464Y-78914035D01*
X186778013Y-78766547D01*
X186845894Y-78602666D01*
X186846104Y-78601613D01*
X186880499Y-78428695D01*
X186880500Y-78428693D01*
X186880500Y-78251306D01*
X186880499Y-78251304D01*
X190159500Y-78251304D01*
X190159500Y-78428695D01*
X190194103Y-78602658D01*
X190194106Y-78602667D01*
X190261983Y-78766540D01*
X190261990Y-78766553D01*
X190360535Y-78914034D01*
X190360538Y-78914038D01*
X190485961Y-79039461D01*
X190485965Y-79039464D01*
X190633446Y-79138009D01*
X190633459Y-79138016D01*
X190720059Y-79173886D01*
X190797334Y-79205894D01*
X190797336Y-79205894D01*
X190797341Y-79205896D01*
X190971304Y-79240499D01*
X190971307Y-79240500D01*
X190971309Y-79240500D01*
X191148693Y-79240500D01*
X191148694Y-79240499D01*
X191206682Y-79228964D01*
X191322658Y-79205896D01*
X191322661Y-79205894D01*
X191322666Y-79205894D01*
X191486547Y-79138013D01*
X191634035Y-79039464D01*
X191759464Y-78914035D01*
X191858013Y-78766547D01*
X191925894Y-78602666D01*
X191926104Y-78601613D01*
X191960499Y-78428695D01*
X191960500Y-78428693D01*
X191960500Y-78251306D01*
X191960499Y-78251304D01*
X191925896Y-78077341D01*
X191925893Y-78077332D01*
X191858016Y-77913459D01*
X191858009Y-77913446D01*
X191759464Y-77765965D01*
X191759461Y-77765961D01*
X191634038Y-77640538D01*
X191634034Y-77640535D01*
X191486553Y-77541990D01*
X191486540Y-77541983D01*
X191322667Y-77474106D01*
X191322658Y-77474103D01*
X191148694Y-77439500D01*
X191148691Y-77439500D01*
X190971309Y-77439500D01*
X190971306Y-77439500D01*
X190797341Y-77474103D01*
X190797332Y-77474106D01*
X190633459Y-77541983D01*
X190633446Y-77541990D01*
X190485965Y-77640535D01*
X190485961Y-77640538D01*
X190360538Y-77765961D01*
X190360535Y-77765965D01*
X190261990Y-77913446D01*
X190261983Y-77913459D01*
X190194106Y-78077332D01*
X190194103Y-78077341D01*
X190159500Y-78251304D01*
X186880499Y-78251304D01*
X186845896Y-78077341D01*
X186845893Y-78077332D01*
X186778016Y-77913459D01*
X186778009Y-77913446D01*
X186679464Y-77765965D01*
X186679461Y-77765961D01*
X186554038Y-77640538D01*
X186554034Y-77640535D01*
X186406553Y-77541990D01*
X186406540Y-77541983D01*
X186242667Y-77474106D01*
X186242658Y-77474103D01*
X186068694Y-77439500D01*
X186068691Y-77439500D01*
X185891309Y-77439500D01*
X185891306Y-77439500D01*
X185717341Y-77474103D01*
X185717332Y-77474106D01*
X185553459Y-77541983D01*
X185553446Y-77541990D01*
X185405965Y-77640535D01*
X185405961Y-77640538D01*
X185280538Y-77765961D01*
X185280535Y-77765965D01*
X185181990Y-77913446D01*
X185181983Y-77913459D01*
X185114106Y-78077332D01*
X185114103Y-78077341D01*
X185079500Y-78251304D01*
X139757267Y-78251304D01*
X139739799Y-78186114D01*
X139680489Y-78083387D01*
X139596613Y-77999511D01*
X139493886Y-77940201D01*
X139379309Y-77909500D01*
X139260691Y-77909500D01*
X139146114Y-77940201D01*
X139146112Y-77940201D01*
X139146112Y-77940202D01*
X139043387Y-77999511D01*
X139043384Y-77999513D01*
X138959513Y-78083384D01*
X138959511Y-78083387D01*
X138901127Y-78184511D01*
X138900201Y-78186114D01*
X138869500Y-78300691D01*
X136880500Y-78300691D01*
X136880500Y-78265691D01*
X136849799Y-78151114D01*
X136790489Y-78048387D01*
X136706613Y-77964511D01*
X136706611Y-77964510D01*
X136706609Y-77964508D01*
X136622121Y-77915729D01*
X136573905Y-77865162D01*
X136560683Y-77796554D01*
X136586651Y-77731690D01*
X136596433Y-77720668D01*
X136640489Y-77676613D01*
X136699799Y-77573886D01*
X136730500Y-77459309D01*
X136730500Y-77340691D01*
X144629500Y-77340691D01*
X144629500Y-77459309D01*
X144660201Y-77573886D01*
X144719511Y-77676613D01*
X144803387Y-77760489D01*
X144906114Y-77819799D01*
X145020691Y-77850500D01*
X145020694Y-77850500D01*
X145139306Y-77850500D01*
X145139309Y-77850500D01*
X145253886Y-77819799D01*
X145356613Y-77760489D01*
X145440489Y-77676613D01*
X145499799Y-77573886D01*
X145508694Y-77540691D01*
X157049500Y-77540691D01*
X157049500Y-77659309D01*
X157080201Y-77773886D01*
X157139511Y-77876613D01*
X157223387Y-77960489D01*
X157326114Y-78019799D01*
X157440691Y-78050500D01*
X157440694Y-78050500D01*
X157559306Y-78050500D01*
X157559309Y-78050500D01*
X157673886Y-78019799D01*
X157776613Y-77960489D01*
X157860489Y-77876613D01*
X157919799Y-77773886D01*
X157950500Y-77659309D01*
X157950500Y-77540691D01*
X157919799Y-77426114D01*
X157860489Y-77323387D01*
X157776613Y-77239511D01*
X157776611Y-77239510D01*
X157776609Y-77239508D01*
X157721349Y-77207604D01*
X157721348Y-77207603D01*
X157673891Y-77180203D01*
X157673890Y-77180202D01*
X157664494Y-77177684D01*
X157559309Y-77149500D01*
X157440691Y-77149500D01*
X157326114Y-77180201D01*
X157326112Y-77180201D01*
X157326112Y-77180202D01*
X157223387Y-77239511D01*
X157223384Y-77239513D01*
X157139513Y-77323384D01*
X157139511Y-77323387D01*
X157080201Y-77426114D01*
X157049500Y-77540691D01*
X145508694Y-77540691D01*
X145530500Y-77459309D01*
X145530500Y-77340691D01*
X145499799Y-77226114D01*
X145440489Y-77123387D01*
X145356613Y-77039511D01*
X145253886Y-76980201D01*
X145139309Y-76949500D01*
X145020691Y-76949500D01*
X144906114Y-76980201D01*
X144906112Y-76980201D01*
X144906112Y-76980202D01*
X144803387Y-77039511D01*
X144803384Y-77039513D01*
X144719513Y-77123384D01*
X144719511Y-77123387D01*
X144685679Y-77181986D01*
X144660201Y-77226114D01*
X144629500Y-77340691D01*
X136730500Y-77340691D01*
X136699799Y-77226114D01*
X136640489Y-77123387D01*
X136556613Y-77039511D01*
X136453886Y-76980201D01*
X136339309Y-76949500D01*
X136220691Y-76949500D01*
X136106114Y-76980201D01*
X136106112Y-76980201D01*
X136106112Y-76980202D01*
X136003387Y-77039511D01*
X136003384Y-77039513D01*
X135919513Y-77123384D01*
X135919511Y-77123387D01*
X135885679Y-77181986D01*
X135860201Y-77226114D01*
X135829500Y-77340691D01*
X124287701Y-77340691D01*
X124357314Y-77300500D01*
X124450500Y-77207314D01*
X124516392Y-77093186D01*
X124550500Y-76965892D01*
X124550500Y-76834108D01*
X124531230Y-76762191D01*
X127729500Y-76762191D01*
X127729500Y-76880809D01*
X127760201Y-76995386D01*
X127819511Y-77098113D01*
X127903387Y-77181989D01*
X128006114Y-77241299D01*
X128120691Y-77272000D01*
X128120694Y-77272000D01*
X128239306Y-77272000D01*
X128239309Y-77272000D01*
X128353886Y-77241299D01*
X128456613Y-77181989D01*
X128540489Y-77098113D01*
X128599799Y-76995386D01*
X128630500Y-76880809D01*
X128630500Y-76790691D01*
X150979500Y-76790691D01*
X150979500Y-76909309D01*
X151010201Y-77023886D01*
X151069511Y-77126613D01*
X151153387Y-77210489D01*
X151256114Y-77269799D01*
X151370691Y-77300500D01*
X151370694Y-77300500D01*
X151489306Y-77300500D01*
X151489309Y-77300500D01*
X151603886Y-77269799D01*
X151706613Y-77210489D01*
X151790489Y-77126613D01*
X151802215Y-77106304D01*
X187619500Y-77106304D01*
X187619500Y-77283695D01*
X187654103Y-77457658D01*
X187654106Y-77457667D01*
X187721983Y-77621540D01*
X187721990Y-77621553D01*
X187820535Y-77769034D01*
X187820538Y-77769038D01*
X187945961Y-77894461D01*
X187945965Y-77894464D01*
X188093446Y-77993009D01*
X188093459Y-77993016D01*
X188216363Y-78043923D01*
X188257334Y-78060894D01*
X188257336Y-78060894D01*
X188257341Y-78060896D01*
X188431304Y-78095499D01*
X188431307Y-78095500D01*
X188431309Y-78095500D01*
X188608693Y-78095500D01*
X188608694Y-78095499D01*
X188699982Y-78077341D01*
X188782658Y-78060896D01*
X188782661Y-78060894D01*
X188782666Y-78060894D01*
X188922535Y-78002958D01*
X188946540Y-77993016D01*
X188946540Y-77993015D01*
X188946547Y-77993013D01*
X189094035Y-77894464D01*
X189219464Y-77769035D01*
X189318013Y-77621547D01*
X189385894Y-77457666D01*
X189389508Y-77439500D01*
X189412604Y-77323387D01*
X189420500Y-77283691D01*
X189420500Y-77106309D01*
X189420500Y-77106306D01*
X189420499Y-77106304D01*
X189385896Y-76932341D01*
X189385893Y-76932332D01*
X189318016Y-76768459D01*
X189318009Y-76768446D01*
X189219464Y-76620965D01*
X189219461Y-76620961D01*
X189094038Y-76495538D01*
X189094034Y-76495535D01*
X188946553Y-76396990D01*
X188946540Y-76396983D01*
X188782667Y-76329106D01*
X188782658Y-76329103D01*
X188608694Y-76294500D01*
X188608691Y-76294500D01*
X188431309Y-76294500D01*
X188431306Y-76294500D01*
X188257341Y-76329103D01*
X188257332Y-76329106D01*
X188093459Y-76396983D01*
X188093446Y-76396990D01*
X187945965Y-76495535D01*
X187945961Y-76495538D01*
X187820538Y-76620961D01*
X187820535Y-76620965D01*
X187721990Y-76768446D01*
X187721983Y-76768459D01*
X187654106Y-76932332D01*
X187654103Y-76932341D01*
X187619500Y-77106304D01*
X151802215Y-77106304D01*
X151849799Y-77023886D01*
X151880500Y-76909309D01*
X151880500Y-76790691D01*
X151849799Y-76676114D01*
X151790489Y-76573387D01*
X151706613Y-76489511D01*
X151603886Y-76430201D01*
X151489309Y-76399500D01*
X151370691Y-76399500D01*
X151256114Y-76430201D01*
X151256112Y-76430201D01*
X151256112Y-76430202D01*
X151153387Y-76489511D01*
X151153384Y-76489513D01*
X151069513Y-76573384D01*
X151069511Y-76573387D01*
X151010201Y-76676114D01*
X150979500Y-76790691D01*
X128630500Y-76790691D01*
X128630500Y-76762191D01*
X128599799Y-76647614D01*
X128540489Y-76544887D01*
X128456613Y-76461011D01*
X128353886Y-76401701D01*
X128239309Y-76371000D01*
X128120691Y-76371000D01*
X128006114Y-76401701D01*
X128006112Y-76401701D01*
X128006112Y-76401702D01*
X127903387Y-76461011D01*
X127903384Y-76461013D01*
X127819513Y-76544884D01*
X127819511Y-76544887D01*
X127760201Y-76647614D01*
X127729500Y-76762191D01*
X124531230Y-76762191D01*
X124516392Y-76706814D01*
X124450500Y-76592686D01*
X124357314Y-76499500D01*
X124290649Y-76461011D01*
X124243187Y-76433608D01*
X124179539Y-76416554D01*
X124115892Y-76399500D01*
X123984108Y-76399500D01*
X123856812Y-76433608D01*
X123742686Y-76499500D01*
X123742683Y-76499502D01*
X123649502Y-76592683D01*
X123649500Y-76592686D01*
X123583608Y-76706812D01*
X123568770Y-76762191D01*
X123549500Y-76834108D01*
X117175356Y-76834108D01*
X117141248Y-76706814D01*
X117075356Y-76592686D01*
X116982170Y-76499500D01*
X116915505Y-76461011D01*
X116868043Y-76433608D01*
X116804395Y-76416554D01*
X116740748Y-76399500D01*
X116608964Y-76399500D01*
X116481668Y-76433608D01*
X116367542Y-76499500D01*
X116367539Y-76499502D01*
X116274358Y-76592683D01*
X116274356Y-76592686D01*
X116208464Y-76706812D01*
X116193626Y-76762191D01*
X116174356Y-76834108D01*
X100300500Y-76834108D01*
X100300500Y-75840691D01*
X130929500Y-75840691D01*
X130929500Y-75959309D01*
X130960201Y-76073886D01*
X131019511Y-76176613D01*
X131103387Y-76260489D01*
X131206114Y-76319799D01*
X131320691Y-76350500D01*
X131320694Y-76350500D01*
X131439306Y-76350500D01*
X131439309Y-76350500D01*
X131553886Y-76319799D01*
X131656613Y-76260489D01*
X131740489Y-76176613D01*
X131799799Y-76073886D01*
X131830500Y-75959309D01*
X131830500Y-75840691D01*
X131799799Y-75726114D01*
X131740489Y-75623387D01*
X131656613Y-75539511D01*
X131553886Y-75480201D01*
X131439309Y-75449500D01*
X131320691Y-75449500D01*
X131206114Y-75480201D01*
X131206112Y-75480201D01*
X131206112Y-75480202D01*
X131103387Y-75539511D01*
X131103384Y-75539513D01*
X131019513Y-75623384D01*
X131019511Y-75623387D01*
X130960743Y-75725176D01*
X130960201Y-75726114D01*
X130929500Y-75840691D01*
X100300500Y-75840691D01*
X100300500Y-75295829D01*
X123992097Y-75295829D01*
X123992097Y-75414447D01*
X124022798Y-75529024D01*
X124082108Y-75631751D01*
X124165984Y-75715627D01*
X124268711Y-75774937D01*
X124383288Y-75805638D01*
X124383291Y-75805638D01*
X124501903Y-75805638D01*
X124501906Y-75805638D01*
X124616483Y-75774937D01*
X124719210Y-75715627D01*
X124803086Y-75631751D01*
X124862396Y-75529024D01*
X124886065Y-75440691D01*
X135529500Y-75440691D01*
X135529500Y-75559309D01*
X135560201Y-75673886D01*
X135619511Y-75776613D01*
X135703387Y-75860489D01*
X135806114Y-75919799D01*
X135920691Y-75950500D01*
X135920694Y-75950500D01*
X136039306Y-75950500D01*
X136039309Y-75950500D01*
X136153886Y-75919799D01*
X136256613Y-75860489D01*
X136340489Y-75776613D01*
X136399799Y-75673886D01*
X136430500Y-75559309D01*
X136430500Y-75550691D01*
X138269500Y-75550691D01*
X138269500Y-75669309D01*
X138300201Y-75783886D01*
X138359511Y-75886613D01*
X138443387Y-75970489D01*
X138546114Y-76029799D01*
X138660691Y-76060500D01*
X138660694Y-76060500D01*
X138779306Y-76060500D01*
X138779309Y-76060500D01*
X138893886Y-76029799D01*
X138996613Y-75970489D01*
X139080489Y-75886613D01*
X139107002Y-75840691D01*
X149349500Y-75840691D01*
X149349500Y-75959309D01*
X149380201Y-76073886D01*
X149439511Y-76176613D01*
X149523387Y-76260489D01*
X149626114Y-76319799D01*
X149740691Y-76350500D01*
X149740694Y-76350500D01*
X149859306Y-76350500D01*
X149859309Y-76350500D01*
X149973886Y-76319799D01*
X150076613Y-76260489D01*
X150160489Y-76176613D01*
X150219799Y-76073886D01*
X150221995Y-76065691D01*
X152154500Y-76065691D01*
X152154500Y-76184309D01*
X152185201Y-76298886D01*
X152244511Y-76401613D01*
X152328387Y-76485489D01*
X152431114Y-76544799D01*
X152545691Y-76575500D01*
X152545694Y-76575500D01*
X152664306Y-76575500D01*
X152664309Y-76575500D01*
X152778886Y-76544799D01*
X152881613Y-76485489D01*
X152965489Y-76401613D01*
X153024799Y-76298886D01*
X153055500Y-76184309D01*
X153055500Y-76065691D01*
X153024799Y-75951114D01*
X152965489Y-75848387D01*
X152881613Y-75764511D01*
X152778886Y-75705201D01*
X152664309Y-75674500D01*
X152545691Y-75674500D01*
X152431114Y-75705201D01*
X152431112Y-75705201D01*
X152431112Y-75705202D01*
X152328387Y-75764511D01*
X152328384Y-75764513D01*
X152244513Y-75848384D01*
X152244511Y-75848387D01*
X152185201Y-75951114D01*
X152154500Y-76065691D01*
X150221995Y-76065691D01*
X150250500Y-75959309D01*
X150250500Y-75840691D01*
X150219799Y-75726114D01*
X150160489Y-75623387D01*
X150076613Y-75539511D01*
X149973886Y-75480201D01*
X149859309Y-75449500D01*
X149740691Y-75449500D01*
X149626114Y-75480201D01*
X149626112Y-75480201D01*
X149626112Y-75480202D01*
X149523387Y-75539511D01*
X149523384Y-75539513D01*
X149439513Y-75623384D01*
X149439511Y-75623387D01*
X149380743Y-75725176D01*
X149380201Y-75726114D01*
X149349500Y-75840691D01*
X139107002Y-75840691D01*
X139139799Y-75783886D01*
X139170500Y-75669309D01*
X139170500Y-75550691D01*
X139139799Y-75436114D01*
X139080489Y-75333387D01*
X138996613Y-75249511D01*
X138893886Y-75190201D01*
X138779309Y-75159500D01*
X138660691Y-75159500D01*
X138546114Y-75190201D01*
X138546112Y-75190201D01*
X138546112Y-75190202D01*
X138443387Y-75249511D01*
X138443384Y-75249513D01*
X138359513Y-75333384D01*
X138359511Y-75333387D01*
X138309621Y-75419799D01*
X138300201Y-75436114D01*
X138269500Y-75550691D01*
X136430500Y-75550691D01*
X136430500Y-75440691D01*
X136399799Y-75326114D01*
X136340489Y-75223387D01*
X136256613Y-75139511D01*
X136153886Y-75080201D01*
X136039309Y-75049500D01*
X135920691Y-75049500D01*
X135806114Y-75080201D01*
X135806112Y-75080201D01*
X135806112Y-75080202D01*
X135703387Y-75139511D01*
X135703384Y-75139513D01*
X135619513Y-75223384D01*
X135619511Y-75223387D01*
X135588780Y-75276615D01*
X135560201Y-75326114D01*
X135529500Y-75440691D01*
X124886065Y-75440691D01*
X124893097Y-75414447D01*
X124893097Y-75295829D01*
X124862396Y-75181252D01*
X124803086Y-75078525D01*
X124765252Y-75040691D01*
X153979500Y-75040691D01*
X153979500Y-75159309D01*
X154010201Y-75273886D01*
X154069511Y-75376613D01*
X154153387Y-75460489D01*
X154256114Y-75519799D01*
X154370691Y-75550500D01*
X154370694Y-75550500D01*
X154489306Y-75550500D01*
X154489309Y-75550500D01*
X154603886Y-75519799D01*
X154706613Y-75460489D01*
X154790489Y-75376613D01*
X154849799Y-75273886D01*
X154880500Y-75159309D01*
X154880500Y-75060691D01*
X155699500Y-75060691D01*
X155699500Y-75179309D01*
X155730201Y-75293886D01*
X155789511Y-75396613D01*
X155873387Y-75480489D01*
X155976114Y-75539799D01*
X156090691Y-75570500D01*
X156090694Y-75570500D01*
X156209306Y-75570500D01*
X156209309Y-75570500D01*
X156323886Y-75539799D01*
X156426613Y-75480489D01*
X156510489Y-75396613D01*
X156569799Y-75293886D01*
X156600500Y-75179309D01*
X156600500Y-75060691D01*
X156569799Y-74946114D01*
X156566668Y-74940691D01*
X160449500Y-74940691D01*
X160449500Y-75059309D01*
X160480201Y-75173886D01*
X160539511Y-75276613D01*
X160623387Y-75360489D01*
X160726114Y-75419799D01*
X160840691Y-75450500D01*
X160840694Y-75450500D01*
X160959306Y-75450500D01*
X160959309Y-75450500D01*
X161073886Y-75419799D01*
X161176613Y-75360489D01*
X161260489Y-75276613D01*
X161319799Y-75173886D01*
X161350500Y-75059309D01*
X161350500Y-74940691D01*
X161319799Y-74826114D01*
X161260489Y-74723387D01*
X161176613Y-74639511D01*
X161073886Y-74580201D01*
X160959309Y-74549500D01*
X160840691Y-74549500D01*
X160726114Y-74580201D01*
X160726112Y-74580201D01*
X160726112Y-74580202D01*
X160623387Y-74639511D01*
X160623384Y-74639513D01*
X160539513Y-74723384D01*
X160539511Y-74723387D01*
X160480201Y-74826114D01*
X160449500Y-74940691D01*
X156566668Y-74940691D01*
X156510489Y-74843387D01*
X156426613Y-74759511D01*
X156323886Y-74700201D01*
X156209309Y-74669500D01*
X156090691Y-74669500D01*
X155976114Y-74700201D01*
X155976112Y-74700201D01*
X155976112Y-74700202D01*
X155873387Y-74759511D01*
X155873384Y-74759513D01*
X155789513Y-74843384D01*
X155789511Y-74843387D01*
X155730201Y-74946114D01*
X155699500Y-75060691D01*
X154880500Y-75060691D01*
X154880500Y-75040691D01*
X154849799Y-74926114D01*
X154790489Y-74823387D01*
X154706613Y-74739511D01*
X154603886Y-74680201D01*
X154489309Y-74649500D01*
X154370691Y-74649500D01*
X154256114Y-74680201D01*
X154256112Y-74680201D01*
X154256112Y-74680202D01*
X154153387Y-74739511D01*
X154153384Y-74739513D01*
X154069513Y-74823384D01*
X154069511Y-74823387D01*
X154010201Y-74926114D01*
X153979500Y-75040691D01*
X124765252Y-75040691D01*
X124719210Y-74994649D01*
X124616483Y-74935339D01*
X124501906Y-74904638D01*
X124383288Y-74904638D01*
X124268711Y-74935339D01*
X124268709Y-74935339D01*
X124268709Y-74935340D01*
X124165984Y-74994649D01*
X124165981Y-74994651D01*
X124082110Y-75078522D01*
X124082108Y-75078525D01*
X124023922Y-75179306D01*
X124022798Y-75181252D01*
X123992097Y-75295829D01*
X100300500Y-75295829D01*
X100300500Y-73334108D01*
X118479500Y-73334108D01*
X118479500Y-73465892D01*
X118482239Y-73476114D01*
X118513608Y-73593187D01*
X118540397Y-73639586D01*
X118579500Y-73707314D01*
X118672686Y-73800500D01*
X118786814Y-73866392D01*
X118914108Y-73900500D01*
X118914110Y-73900500D01*
X119045890Y-73900500D01*
X119045892Y-73900500D01*
X119173186Y-73866392D01*
X119287314Y-73800500D01*
X119354819Y-73732995D01*
X119416142Y-73699510D01*
X119485834Y-73704494D01*
X119530181Y-73732995D01*
X119597686Y-73800500D01*
X119711814Y-73866392D01*
X119839108Y-73900500D01*
X119839110Y-73900500D01*
X119970890Y-73900500D01*
X119970892Y-73900500D01*
X120098186Y-73866392D01*
X120212314Y-73800500D01*
X120279819Y-73732995D01*
X120341142Y-73699510D01*
X120410834Y-73704494D01*
X120455181Y-73732995D01*
X120522686Y-73800500D01*
X120636814Y-73866392D01*
X120764108Y-73900500D01*
X120764110Y-73900500D01*
X120895890Y-73900500D01*
X120895892Y-73900500D01*
X121023186Y-73866392D01*
X121137314Y-73800500D01*
X121230500Y-73707314D01*
X121296392Y-73593186D01*
X121330500Y-73465892D01*
X121330500Y-73334108D01*
X121296392Y-73206814D01*
X121292499Y-73200072D01*
X121271973Y-73164520D01*
X121230500Y-73092686D01*
X121137314Y-72999500D01*
X121052775Y-72950691D01*
X121023187Y-72933608D01*
X120959539Y-72916554D01*
X120895892Y-72899500D01*
X120764108Y-72899500D01*
X120636812Y-72933608D01*
X120522686Y-72999500D01*
X120522683Y-72999502D01*
X120455181Y-73067005D01*
X120393858Y-73100490D01*
X120324166Y-73095506D01*
X120279819Y-73067005D01*
X120212316Y-72999502D01*
X120212314Y-72999500D01*
X120127775Y-72950691D01*
X120098187Y-72933608D01*
X120034539Y-72916554D01*
X119970892Y-72899500D01*
X119839108Y-72899500D01*
X119711812Y-72933608D01*
X119597686Y-72999500D01*
X119597683Y-72999502D01*
X119530181Y-73067005D01*
X119468858Y-73100490D01*
X119399166Y-73095506D01*
X119354819Y-73067005D01*
X119287316Y-72999502D01*
X119287314Y-72999500D01*
X119202775Y-72950691D01*
X119173187Y-72933608D01*
X119109539Y-72916554D01*
X119045892Y-72899500D01*
X118914108Y-72899500D01*
X118786812Y-72933608D01*
X118672686Y-72999500D01*
X118672683Y-72999502D01*
X118579502Y-73092683D01*
X118579500Y-73092686D01*
X118513608Y-73206812D01*
X118491449Y-73289513D01*
X118479500Y-73334108D01*
X100300500Y-73334108D01*
X100300500Y-68203480D01*
X100300695Y-68196528D01*
X100310157Y-68028031D01*
X100318341Y-67882302D01*
X100319895Y-67868503D01*
X100372032Y-67561656D01*
X100375121Y-67548120D01*
X100461284Y-67249040D01*
X100465875Y-67235921D01*
X100472554Y-67219797D01*
X100584981Y-66948374D01*
X100591001Y-66935874D01*
X100741567Y-66663443D01*
X100748944Y-66651704D01*
X100929056Y-66397861D01*
X100937702Y-66387018D01*
X101145113Y-66154925D01*
X101154925Y-66145113D01*
X101387018Y-65937702D01*
X101397861Y-65929056D01*
X101651704Y-65748944D01*
X101663443Y-65741567D01*
X101935874Y-65591001D01*
X101948374Y-65584981D01*
X102235928Y-65465872D01*
X102249040Y-65461284D01*
X102548120Y-65375121D01*
X102561656Y-65372032D01*
X102868503Y-65319895D01*
X102882302Y-65318341D01*
X103156884Y-65302921D01*
X103196529Y-65300695D01*
X103203481Y-65300500D01*
X114780328Y-65300500D01*
X114780331Y-65300500D01*
X115005169Y-65279665D01*
X115139445Y-65267223D01*
X115139446Y-65267223D01*
X115139448Y-65267222D01*
X115139454Y-65267222D01*
X115493975Y-65200950D01*
X115840869Y-65102251D01*
X116083197Y-65008373D01*
X116127991Y-65000000D01*
X127472009Y-65000000D01*
X127516803Y-65008373D01*
G37*
%TD.AperFunction*%
%TD*%
M02*
