%TF.GenerationSoftware,KiCad,Pcbnew,9.0.2+1*%
%TF.CreationDate,2025-08-16T20:28:59+01:00*%
%TF.ProjectId,Navigator,4e617669-6761-4746-9f72-2e6b69636164,rev?*%
%TF.SameCoordinates,Original*%
%TF.FileFunction,Drillmap*%
%TF.FilePolarity,Positive*%
%FSLAX45Y45*%
G04 Gerber Fmt 4.5, Leading zero omitted, Abs format (unit mm)*
G04 Created by KiCad (PCBNEW 9.0.2+1) date 2025-08-16 20:28:59*
%MOMM*%
%LPD*%
G01*
G04 APERTURE LIST*
%ADD10C,0.050000*%
%ADD11C,0.200000*%
%ADD12C,0.100000*%
%ADD13C,0.111760*%
%ADD14C,0.140000*%
%ADD15C,0.160000*%
G04 APERTURE END LIST*
D10*
X11820000Y-6140000D02*
G75*
G02*
X12540000Y-6140000I360000J0D01*
G01*
X10000000Y-9680000D02*
X10000000Y-6820000D01*
X12900000Y-6500000D02*
X18660000Y-6500000D01*
X10320000Y-10000000D02*
G75*
G02*
X10000000Y-9680000I0J320000D01*
G01*
X11460000Y-6500000D02*
X10320000Y-6500000D01*
X19020000Y-6140000D02*
G75*
G02*
X18660000Y-6500000I-360000J0D01*
G01*
X19020000Y-6140000D02*
G75*
G02*
X19740000Y-6140000I360000J0D01*
G01*
X10320000Y-10000000D02*
X18660000Y-10000000D01*
X19740000Y-6140000D02*
X19740000Y-6380000D01*
X20000000Y-9860000D02*
G75*
G02*
X19860000Y-10000000I-140000J0D01*
G01*
X19740000Y-10120000D02*
X19740000Y-10360000D01*
X19860000Y-6500000D02*
G75*
G02*
X19740000Y-6380000I0J120000D01*
G01*
X20000000Y-6640000D02*
X20000000Y-9860000D01*
X10000000Y-6820000D02*
G75*
G02*
X10320000Y-6500000I320000J0D01*
G01*
X19740000Y-10120000D02*
G75*
G02*
X19860000Y-10000000I120000J0D01*
G01*
X12900000Y-6500000D02*
G75*
G02*
X12540000Y-6140000I0J360000D01*
G01*
X19860000Y-6500000D02*
G75*
G02*
X20000000Y-6640000I0J-140000D01*
G01*
X18660000Y-10000000D02*
G75*
G02*
X19020000Y-10360000I0J-360000D01*
G01*
X11820000Y-6140000D02*
G75*
G02*
X11460000Y-6500000I-360000J0D01*
G01*
X19740000Y-10360000D02*
G75*
G02*
X19020000Y-10360000I-360000J0D01*
G01*
D11*
D12*
X10185000Y-7150000D02*
X10205000Y-7170000D01*
X10205000Y-7150000D02*
X10185000Y-7170000D01*
X10189949Y-7559898D02*
X10209949Y-7579898D01*
X10209949Y-7559898D02*
X10189949Y-7579898D01*
X10190000Y-7350000D02*
X10210000Y-7370000D01*
X10210000Y-7350000D02*
X10190000Y-7370000D01*
X10194949Y-7759898D02*
X10214949Y-7779898D01*
X10214949Y-7759898D02*
X10194949Y-7779898D01*
X10194949Y-7969898D02*
X10214949Y-7989898D01*
X10214949Y-7969898D02*
X10194949Y-7989898D01*
X10195000Y-8180000D02*
X10215000Y-8200000D01*
X10215000Y-8180000D02*
X10195000Y-8200000D01*
X10330000Y-7150000D02*
X10350000Y-7170000D01*
X10350000Y-7150000D02*
X10330000Y-7170000D01*
X10335000Y-7350000D02*
X10355000Y-7370000D01*
X10355000Y-7350000D02*
X10335000Y-7370000D01*
X10335000Y-7560000D02*
X10355000Y-7580000D01*
X10355000Y-7560000D02*
X10335000Y-7580000D01*
X10339949Y-7759898D02*
X10359949Y-7779898D01*
X10359949Y-7759898D02*
X10339949Y-7779898D01*
X10339949Y-7969898D02*
X10359949Y-7989898D01*
X10359949Y-7969898D02*
X10339949Y-7989898D01*
X10340000Y-8180000D02*
X10360000Y-8200000D01*
X10360000Y-8180000D02*
X10340000Y-8200000D01*
X10475000Y-7150000D02*
X10495000Y-7170000D01*
X10495000Y-7150000D02*
X10475000Y-7170000D01*
X10480000Y-7350000D02*
X10500000Y-7370000D01*
X10500000Y-7350000D02*
X10480000Y-7370000D01*
X10480000Y-7560000D02*
X10500000Y-7580000D01*
X10500000Y-7560000D02*
X10480000Y-7580000D01*
X10484949Y-7759898D02*
X10504949Y-7779898D01*
X10504949Y-7759898D02*
X10484949Y-7779898D01*
X10484949Y-7969898D02*
X10504949Y-7989898D01*
X10504949Y-7969898D02*
X10484949Y-7989898D01*
X10485000Y-8180000D02*
X10505000Y-8200000D01*
X10505000Y-8180000D02*
X10485000Y-8200000D01*
X10525000Y-9890000D02*
X10545000Y-9910000D01*
X10545000Y-9890000D02*
X10525000Y-9910000D01*
X10620000Y-7150000D02*
X10640000Y-7170000D01*
X10640000Y-7150000D02*
X10620000Y-7170000D01*
X10625000Y-7350000D02*
X10645000Y-7370000D01*
X10645000Y-7350000D02*
X10625000Y-7370000D01*
X10625000Y-7560000D02*
X10645000Y-7580000D01*
X10645000Y-7560000D02*
X10625000Y-7580000D01*
X10629949Y-7759898D02*
X10649949Y-7779898D01*
X10649949Y-7759898D02*
X10629949Y-7779898D01*
X10629949Y-7969898D02*
X10649949Y-7989898D01*
X10649949Y-7969898D02*
X10629949Y-7989898D01*
X10630000Y-8180000D02*
X10650000Y-8200000D01*
X10650000Y-8180000D02*
X10630000Y-8200000D01*
X10670000Y-9492720D02*
X10690000Y-9512720D01*
X10690000Y-9492720D02*
X10670000Y-9512720D01*
X10670000Y-9890000D02*
X10690000Y-9910000D01*
X10690000Y-9890000D02*
X10670000Y-9910000D01*
X10765000Y-7150000D02*
X10785000Y-7170000D01*
X10785000Y-7150000D02*
X10765000Y-7170000D01*
X10769949Y-7559898D02*
X10789949Y-7579898D01*
X10789949Y-7559898D02*
X10769949Y-7579898D01*
X10770000Y-7350000D02*
X10790000Y-7370000D01*
X10790000Y-7350000D02*
X10770000Y-7370000D01*
X10774949Y-7759898D02*
X10794949Y-7779898D01*
X10794949Y-7759898D02*
X10774949Y-7779898D01*
X10774949Y-7969898D02*
X10794949Y-7989898D01*
X10794949Y-7969898D02*
X10774949Y-7989898D01*
X10775000Y-8180000D02*
X10795000Y-8200000D01*
X10795000Y-8180000D02*
X10775000Y-8200000D01*
X10815000Y-9492720D02*
X10835000Y-9512720D01*
X10835000Y-9492720D02*
X10815000Y-9512720D01*
X10815000Y-9890000D02*
X10835000Y-9910000D01*
X10835000Y-9890000D02*
X10815000Y-9910000D01*
X10910000Y-7150000D02*
X10930000Y-7170000D01*
X10930000Y-7150000D02*
X10910000Y-7170000D01*
X10915000Y-7350000D02*
X10935000Y-7370000D01*
X10935000Y-7350000D02*
X10915000Y-7370000D01*
X10960000Y-9890000D02*
X10980000Y-9910000D01*
X10980000Y-9890000D02*
X10960000Y-9910000D01*
X10993000Y-7882000D02*
X11013000Y-7902000D01*
X11013000Y-7882000D02*
X10993000Y-7902000D01*
X11055000Y-7150000D02*
X11075000Y-7170000D01*
X11075000Y-7150000D02*
X11055000Y-7170000D01*
X11060000Y-7350000D02*
X11080000Y-7370000D01*
X11080000Y-7350000D02*
X11060000Y-7370000D01*
X11105000Y-9890000D02*
X11125000Y-9910000D01*
X11125000Y-9890000D02*
X11105000Y-9910000D01*
X11113000Y-8257500D02*
X11133000Y-8277500D01*
X11133000Y-8257500D02*
X11113000Y-8277500D01*
X11240000Y-9890000D02*
X11260000Y-9910000D01*
X11260000Y-9890000D02*
X11240000Y-9910000D01*
X11250000Y-7680000D02*
X11270000Y-7700000D01*
X11270000Y-7680000D02*
X11250000Y-7700000D01*
X11370000Y-9890000D02*
X11390000Y-9910000D01*
X11390000Y-9890000D02*
X11370000Y-9910000D01*
X11515000Y-9890000D02*
X11535000Y-9910000D01*
X11535000Y-9890000D02*
X11515000Y-9910000D01*
X11527000Y-7811000D02*
X11547000Y-7831000D01*
X11547000Y-7811000D02*
X11527000Y-7831000D01*
X11528000Y-7890000D02*
X11548000Y-7910000D01*
X11548000Y-7890000D02*
X11528000Y-7910000D01*
X11595168Y-7750000D02*
X11615168Y-7770000D01*
X11615168Y-7750000D02*
X11595168Y-7770000D01*
X11650000Y-9890000D02*
X11670000Y-9910000D01*
X11670000Y-9890000D02*
X11650000Y-9910000D01*
X11713333Y-9225000D02*
X11733333Y-9245000D01*
X11733333Y-9225000D02*
X11713333Y-9245000D01*
X11713333Y-9425000D02*
X11733333Y-9445000D01*
X11733333Y-9425000D02*
X11713333Y-9445000D01*
X11730000Y-7150000D02*
X11750000Y-7170000D01*
X11750000Y-7150000D02*
X11730000Y-7170000D01*
X11742486Y-8344850D02*
X11762486Y-8364850D01*
X11762486Y-8344850D02*
X11742486Y-8364850D01*
X11757486Y-8149850D02*
X11777486Y-8169850D01*
X11777486Y-8149850D02*
X11757486Y-8169850D01*
X11780000Y-9890000D02*
X11800000Y-9910000D01*
X11800000Y-9890000D02*
X11780000Y-9910000D01*
X11850000Y-9225000D02*
X11870000Y-9245000D01*
X11870000Y-9225000D02*
X11850000Y-9245000D01*
X11850000Y-9425000D02*
X11870000Y-9445000D01*
X11870000Y-9425000D02*
X11850000Y-9445000D01*
X11925000Y-9890000D02*
X11945000Y-9910000D01*
X11945000Y-9890000D02*
X11925000Y-9910000D01*
X11986667Y-9225000D02*
X12006667Y-9245000D01*
X12006667Y-9225000D02*
X11986667Y-9245000D01*
X11986667Y-9425000D02*
X12006667Y-9445000D01*
X12006667Y-9425000D02*
X11986667Y-9445000D01*
X12060000Y-9890000D02*
X12080000Y-9910000D01*
X12080000Y-9890000D02*
X12060000Y-9910000D01*
X12121667Y-9625000D02*
X12141667Y-9645000D01*
X12141667Y-9625000D02*
X12121667Y-9645000D01*
X12123377Y-9225004D02*
X12143377Y-9245004D01*
X12143377Y-9225004D02*
X12123377Y-9245004D01*
X12123377Y-9425004D02*
X12143377Y-9445004D01*
X12143377Y-9425004D02*
X12123377Y-9445004D01*
X12190000Y-9890000D02*
X12210000Y-9910000D01*
X12210000Y-9890000D02*
X12190000Y-9910000D01*
X12202486Y-8149850D02*
X12222486Y-8169850D01*
X12222486Y-8149850D02*
X12202486Y-8169850D01*
X12217486Y-8344850D02*
X12237486Y-8364850D01*
X12237486Y-8344850D02*
X12217486Y-8364850D01*
X12257000Y-7756000D02*
X12277000Y-7776000D01*
X12277000Y-7756000D02*
X12257000Y-7776000D01*
X12258333Y-9625000D02*
X12278333Y-9645000D01*
X12278333Y-9625000D02*
X12258333Y-9645000D01*
X12260000Y-9225000D02*
X12280000Y-9245000D01*
X12280000Y-9225000D02*
X12260000Y-9245000D01*
X12260043Y-9425004D02*
X12280043Y-9445004D01*
X12280043Y-9425004D02*
X12260043Y-9445004D01*
X12335000Y-9890000D02*
X12355000Y-9910000D01*
X12355000Y-9890000D02*
X12335000Y-9910000D01*
X12342000Y-7751000D02*
X12362000Y-7771000D01*
X12362000Y-7751000D02*
X12342000Y-7771000D01*
X12360000Y-7500000D02*
X12380000Y-7520000D01*
X12380000Y-7500000D02*
X12360000Y-7520000D01*
X12395000Y-9625000D02*
X12415000Y-9645000D01*
X12415000Y-9625000D02*
X12395000Y-9645000D01*
X12396710Y-9225004D02*
X12416710Y-9245004D01*
X12416710Y-9225004D02*
X12396710Y-9245004D01*
X12396710Y-9425004D02*
X12416710Y-9445004D01*
X12416710Y-9425004D02*
X12396710Y-9445004D01*
X12434260Y-7525514D02*
X12454260Y-7545514D01*
X12454260Y-7525514D02*
X12434260Y-7545514D01*
X12470000Y-9890000D02*
X12490000Y-9910000D01*
X12490000Y-9890000D02*
X12470000Y-9910000D01*
X12533377Y-9225004D02*
X12553377Y-9245004D01*
X12553377Y-9225004D02*
X12533377Y-9245004D01*
X12533409Y-9424919D02*
X12553409Y-9444919D01*
X12553409Y-9424919D02*
X12533409Y-9444919D01*
X12533409Y-9624919D02*
X12553409Y-9644919D01*
X12553409Y-9624919D02*
X12533409Y-9644919D01*
X12563310Y-7490000D02*
X12583310Y-7510000D01*
X12583310Y-7490000D02*
X12563310Y-7510000D01*
X12595000Y-7415000D02*
X12615000Y-7435000D01*
X12615000Y-7415000D02*
X12595000Y-7435000D01*
X12600000Y-9890000D02*
X12620000Y-9910000D01*
X12620000Y-9890000D02*
X12600000Y-9910000D01*
X12640000Y-7310000D02*
X12660000Y-7330000D01*
X12660000Y-7310000D02*
X12640000Y-7330000D01*
X12673000Y-7557850D02*
X12693000Y-7577850D01*
X12693000Y-7557850D02*
X12673000Y-7577850D01*
X12808000Y-7672150D02*
X12828000Y-7692150D01*
X12828000Y-7672150D02*
X12808000Y-7692150D01*
X12845000Y-9525000D02*
X12865000Y-9545000D01*
X12865000Y-9525000D02*
X12845000Y-9545000D01*
X12845000Y-8180000D02*
X12865000Y-8200000D01*
X12865000Y-8180000D02*
X12845000Y-8200000D01*
X12845000Y-8325000D02*
X12865000Y-8345000D01*
X12865000Y-8325000D02*
X12845000Y-8345000D01*
X12845000Y-8460000D02*
X12865000Y-8480000D01*
X12865000Y-8460000D02*
X12845000Y-8480000D01*
X12845000Y-8590000D02*
X12865000Y-8610000D01*
X12865000Y-8590000D02*
X12845000Y-8610000D01*
X12981667Y-9525000D02*
X13001667Y-9545000D01*
X13001667Y-9525000D02*
X12981667Y-9545000D01*
X13035850Y-8057858D02*
X13055850Y-8077858D01*
X13055850Y-8057858D02*
X13035850Y-8077858D01*
X13118333Y-9525000D02*
X13138333Y-9545000D01*
X13138333Y-9525000D02*
X13118333Y-9545000D01*
X13120000Y-8435000D02*
X13140000Y-8455000D01*
X13140000Y-8435000D02*
X13120000Y-8455000D01*
X13128000Y-7580000D02*
X13148000Y-7600000D01*
X13148000Y-7580000D02*
X13128000Y-7600000D01*
X13128000Y-7700000D02*
X13148000Y-7720000D01*
X13148000Y-7700000D02*
X13128000Y-7720000D01*
X13180000Y-7910000D02*
X13200000Y-7930000D01*
X13200000Y-7910000D02*
X13180000Y-7930000D01*
X13239527Y-7833849D02*
X13259527Y-7853849D01*
X13259527Y-7833849D02*
X13239527Y-7853849D01*
X13240000Y-6590000D02*
X13260000Y-6610000D01*
X13260000Y-6590000D02*
X13240000Y-6610000D01*
X13245000Y-6790000D02*
X13265000Y-6810000D01*
X13265000Y-6790000D02*
X13245000Y-6810000D01*
X13245000Y-7000000D02*
X13265000Y-7020000D01*
X13265000Y-7000000D02*
X13245000Y-7020000D01*
X13315500Y-7844500D02*
X13335500Y-7864500D01*
X13335500Y-7844500D02*
X13315500Y-7864500D01*
X13333058Y-8716855D02*
X13353058Y-8736855D01*
X13353058Y-8716855D02*
X13333058Y-8736855D01*
X13379100Y-8000000D02*
X13399100Y-8020000D01*
X13399100Y-8000000D02*
X13379100Y-8020000D01*
X13379100Y-8180000D02*
X13399100Y-8200000D01*
X13399100Y-8180000D02*
X13379100Y-8200000D01*
X13381810Y-7501000D02*
X13401810Y-7521000D01*
X13401810Y-7501000D02*
X13381810Y-7521000D01*
X13385000Y-6590000D02*
X13405000Y-6610000D01*
X13405000Y-6590000D02*
X13385000Y-6610000D01*
X13390000Y-6790000D02*
X13410000Y-6810000D01*
X13410000Y-6790000D02*
X13390000Y-6810000D01*
X13390000Y-7000000D02*
X13410000Y-7020000D01*
X13410000Y-7000000D02*
X13390000Y-7020000D01*
X13392516Y-7825000D02*
X13412516Y-7845000D01*
X13412516Y-7825000D02*
X13392516Y-7845000D01*
X13405000Y-7250000D02*
X13425000Y-7270000D01*
X13425000Y-7250000D02*
X13405000Y-7270000D01*
X13410000Y-8700000D02*
X13430000Y-8720000D01*
X13430000Y-8700000D02*
X13410000Y-8720000D01*
X13430000Y-8580000D02*
X13450000Y-8600000D01*
X13450000Y-8580000D02*
X13430000Y-8600000D01*
X13451686Y-7871085D02*
X13471686Y-7891085D01*
X13471686Y-7871085D02*
X13451686Y-7891085D01*
X13477000Y-8001000D02*
X13497000Y-8021000D01*
X13497000Y-8001000D02*
X13477000Y-8021000D01*
X13510000Y-9431500D02*
X13530000Y-9451500D01*
X13530000Y-9431500D02*
X13510000Y-9451500D01*
X13530000Y-6590000D02*
X13550000Y-6610000D01*
X13550000Y-6590000D02*
X13530000Y-6610000D01*
X13535000Y-6790000D02*
X13555000Y-6810000D01*
X13555000Y-6790000D02*
X13535000Y-6810000D01*
X13535000Y-7000000D02*
X13555000Y-7020000D01*
X13555000Y-7000000D02*
X13535000Y-7020000D01*
X13549766Y-9545766D02*
X13569766Y-9565766D01*
X13569766Y-9545766D02*
X13549766Y-9565766D01*
X13588000Y-7540000D02*
X13608000Y-7560000D01*
X13608000Y-7540000D02*
X13588000Y-7560000D01*
X13610000Y-7894500D02*
X13630000Y-7914500D01*
X13630000Y-7894500D02*
X13610000Y-7914500D01*
X13617000Y-7651000D02*
X13637000Y-7671000D01*
X13637000Y-7651000D02*
X13617000Y-7671000D01*
X13618000Y-7730000D02*
X13638000Y-7750000D01*
X13638000Y-7730000D02*
X13618000Y-7750000D01*
X13628500Y-9509000D02*
X13648500Y-9529000D01*
X13648500Y-9509000D02*
X13628500Y-9529000D01*
X13630000Y-8630000D02*
X13650000Y-8650000D01*
X13650000Y-8630000D02*
X13630000Y-8650000D01*
X13633000Y-7822500D02*
X13653000Y-7842500D01*
X13653000Y-7822500D02*
X13633000Y-7842500D01*
X13652000Y-7581000D02*
X13672000Y-7601000D01*
X13672000Y-7581000D02*
X13652000Y-7601000D01*
X13658000Y-8790000D02*
X13678000Y-8810000D01*
X13678000Y-8790000D02*
X13658000Y-8810000D01*
X13658744Y-8313243D02*
X13678744Y-8333243D01*
X13678744Y-8313243D02*
X13658744Y-8333243D01*
X13675000Y-6590000D02*
X13695000Y-6610000D01*
X13695000Y-6590000D02*
X13675000Y-6610000D01*
X13680000Y-6790000D02*
X13700000Y-6810000D01*
X13700000Y-6790000D02*
X13680000Y-6810000D01*
X13680000Y-7000000D02*
X13700000Y-7020000D01*
X13700000Y-7000000D02*
X13680000Y-7020000D01*
X13737000Y-8060000D02*
X13757000Y-8080000D01*
X13757000Y-8060000D02*
X13737000Y-8080000D01*
X13747486Y-8449850D02*
X13767486Y-8469850D01*
X13767486Y-8449850D02*
X13747486Y-8469850D01*
X13776000Y-8373487D02*
X13796000Y-8393488D01*
X13796000Y-8373487D02*
X13776000Y-8393488D01*
X13782000Y-7696000D02*
X13802000Y-7716000D01*
X13802000Y-7696000D02*
X13782000Y-7716000D01*
X13783000Y-7355700D02*
X13803000Y-7375700D01*
X13803000Y-7355700D02*
X13783000Y-7375700D01*
X13792000Y-8131000D02*
X13812000Y-8151000D01*
X13812000Y-8131000D02*
X13792000Y-8151000D01*
X13803952Y-7874000D02*
X13823952Y-7894000D01*
X13823952Y-7874000D02*
X13803952Y-7894000D01*
X13810000Y-9430000D02*
X13830000Y-9450000D01*
X13830000Y-9430000D02*
X13810000Y-9450000D01*
X13820000Y-6590000D02*
X13840000Y-6610000D01*
X13840000Y-6590000D02*
X13820000Y-6610000D01*
X13825000Y-6790000D02*
X13845000Y-6810000D01*
X13845000Y-6790000D02*
X13825000Y-6810000D01*
X13825000Y-7000000D02*
X13845000Y-7020000D01*
X13845000Y-7000000D02*
X13825000Y-7020000D01*
X13830000Y-7250000D02*
X13850000Y-7270000D01*
X13850000Y-7250000D02*
X13830000Y-7270000D01*
X13862000Y-7551000D02*
X13882000Y-7571000D01*
X13882000Y-7551000D02*
X13862000Y-7571000D01*
X13865000Y-9326900D02*
X13885000Y-9346900D01*
X13885000Y-9326900D02*
X13865000Y-9346900D01*
X13877486Y-8104850D02*
X13897486Y-8124850D01*
X13897486Y-8104850D02*
X13877486Y-8124850D01*
X13880166Y-7894500D02*
X13900166Y-7914500D01*
X13900166Y-7894500D02*
X13880166Y-7914500D01*
X13882500Y-8477500D02*
X13902500Y-8497500D01*
X13902500Y-8477500D02*
X13882500Y-8497500D01*
X13890000Y-9195000D02*
X13910000Y-9215000D01*
X13910000Y-9195000D02*
X13890000Y-9215000D01*
X13903350Y-7300350D02*
X13923350Y-7320350D01*
X13923350Y-7300350D02*
X13903350Y-7320350D01*
X13922000Y-7826000D02*
X13942000Y-7846000D01*
X13942000Y-7826000D02*
X13922000Y-7846000D01*
X13940000Y-7555000D02*
X13960000Y-7575000D01*
X13960000Y-7555000D02*
X13940000Y-7575000D01*
X13940000Y-9351500D02*
X13960000Y-9371500D01*
X13960000Y-9351500D02*
X13940000Y-9371500D01*
X13943000Y-8414000D02*
X13963000Y-8434000D01*
X13963000Y-8414000D02*
X13943000Y-8434000D01*
X13943651Y-8933325D02*
X13963651Y-8953325D01*
X13963651Y-8933325D02*
X13943651Y-8953325D01*
X13955000Y-6590000D02*
X13975000Y-6610000D01*
X13975000Y-6590000D02*
X13955000Y-6610000D01*
X13955000Y-9455000D02*
X13975000Y-9475000D01*
X13975000Y-9455000D02*
X13955000Y-9475000D01*
X13960000Y-6790000D02*
X13980000Y-6810000D01*
X13980000Y-6790000D02*
X13960000Y-6810000D01*
X13960000Y-7000000D02*
X13980000Y-7020000D01*
X13980000Y-7000000D02*
X13960000Y-7020000D01*
X13993587Y-9519312D02*
X14013587Y-9539312D01*
X14013587Y-9519312D02*
X13993587Y-9539312D01*
X14020000Y-8595000D02*
X14040000Y-8615000D01*
X14040000Y-8595000D02*
X14020000Y-8615000D01*
X14032000Y-8334850D02*
X14052000Y-8354850D01*
X14052000Y-8334850D02*
X14032000Y-8354850D01*
X14033000Y-7632850D02*
X14053000Y-7652850D01*
X14053000Y-7632850D02*
X14033000Y-7652850D01*
X14037486Y-8409850D02*
X14057486Y-8429850D01*
X14057486Y-8409850D02*
X14037486Y-8429850D01*
X14050000Y-8660000D02*
X14070000Y-8680000D01*
X14070000Y-8660000D02*
X14050000Y-8680000D01*
X14058000Y-9481500D02*
X14078000Y-9501500D01*
X14078000Y-9481500D02*
X14058000Y-9501500D01*
X14058651Y-8823325D02*
X14078651Y-8843325D01*
X14078651Y-8823325D02*
X14058651Y-8843325D01*
X14083651Y-9078325D02*
X14103651Y-9098325D01*
X14103651Y-9078325D02*
X14083651Y-9098325D01*
X14085000Y-6590000D02*
X14105000Y-6610000D01*
X14105000Y-6590000D02*
X14085000Y-6610000D01*
X14087000Y-7881000D02*
X14107000Y-7901000D01*
X14107000Y-7881000D02*
X14087000Y-7901000D01*
X14090000Y-6790000D02*
X14110000Y-6810000D01*
X14110000Y-6790000D02*
X14090000Y-6810000D01*
X14090000Y-7000000D02*
X14110000Y-7020000D01*
X14110000Y-7000000D02*
X14090000Y-7020000D01*
X14092850Y-9590000D02*
X14112850Y-9610000D01*
X14112850Y-9590000D02*
X14092850Y-9610000D01*
X14095000Y-8112500D02*
X14115000Y-8132500D01*
X14115000Y-8112500D02*
X14095000Y-8132500D01*
X14101975Y-9318600D02*
X14121975Y-9338600D01*
X14121975Y-9318600D02*
X14101975Y-9338600D01*
X14112500Y-8205000D02*
X14132500Y-8225000D01*
X14132500Y-8205000D02*
X14112500Y-8225000D01*
X14117486Y-8356000D02*
X14137486Y-8376000D01*
X14137486Y-8356000D02*
X14117486Y-8376000D01*
X14142500Y-8542500D02*
X14162500Y-8562500D01*
X14162500Y-8542500D02*
X14142500Y-8562500D01*
X14153000Y-7632850D02*
X14173000Y-7652850D01*
X14173000Y-7632850D02*
X14153000Y-7652850D01*
X14153000Y-7929600D02*
X14173000Y-7949600D01*
X14173000Y-7929600D02*
X14153000Y-7949600D01*
X14153651Y-8728396D02*
X14173651Y-8748396D01*
X14173651Y-8728396D02*
X14153651Y-8748396D01*
X14175000Y-7355000D02*
X14195000Y-7375000D01*
X14195000Y-7355000D02*
X14175000Y-7375000D01*
X14175000Y-9301500D02*
X14195000Y-9321500D01*
X14195000Y-9301500D02*
X14175000Y-9321500D01*
X14180000Y-9190000D02*
X14200000Y-9210000D01*
X14200000Y-9190000D02*
X14180000Y-9210000D01*
X14180500Y-8117500D02*
X14200500Y-8137500D01*
X14200500Y-8117500D02*
X14180500Y-8137500D01*
X14202500Y-8369500D02*
X14222500Y-8389500D01*
X14222500Y-8369500D02*
X14202500Y-8389500D01*
X14230000Y-6590000D02*
X14250000Y-6610000D01*
X14250000Y-6590000D02*
X14230000Y-6610000D01*
X14235000Y-6790000D02*
X14255000Y-6810000D01*
X14255000Y-6790000D02*
X14235000Y-6810000D01*
X14235000Y-7000000D02*
X14255000Y-7020000D01*
X14255000Y-7000000D02*
X14235000Y-7020000D01*
X14257651Y-8624396D02*
X14277651Y-8644396D01*
X14277651Y-8624396D02*
X14257651Y-8644396D01*
X14274585Y-8112750D02*
X14294585Y-8132750D01*
X14294585Y-8112750D02*
X14274585Y-8132750D01*
X14283000Y-7632850D02*
X14303000Y-7652850D01*
X14303000Y-7632850D02*
X14283000Y-7652850D01*
X14315000Y-9515000D02*
X14335000Y-9535000D01*
X14335000Y-9515000D02*
X14315000Y-9535000D01*
X14320000Y-9433000D02*
X14340000Y-9453000D01*
X14340000Y-9433000D02*
X14320000Y-9453000D01*
X14325151Y-9123825D02*
X14345151Y-9143825D01*
X14345151Y-9123825D02*
X14325151Y-9143825D01*
X14365000Y-6590000D02*
X14385000Y-6610000D01*
X14385000Y-6590000D02*
X14365000Y-6610000D01*
X14370000Y-6790000D02*
X14390000Y-6810000D01*
X14390000Y-6790000D02*
X14370000Y-6810000D01*
X14380000Y-8531000D02*
X14400000Y-8551000D01*
X14400000Y-8531000D02*
X14380000Y-8551000D01*
X14382000Y-7941000D02*
X14402000Y-7961000D01*
X14402000Y-7941000D02*
X14382000Y-7961000D01*
X14383651Y-8748325D02*
X14403651Y-8768325D01*
X14403651Y-8748325D02*
X14383651Y-8768325D01*
X14422000Y-7731000D02*
X14442000Y-7751000D01*
X14442000Y-7731000D02*
X14422000Y-7751000D01*
X14427651Y-9021325D02*
X14447651Y-9041325D01*
X14447651Y-9021325D02*
X14427651Y-9041325D01*
X14428000Y-7810000D02*
X14448000Y-7830000D01*
X14448000Y-7810000D02*
X14428000Y-7830000D01*
X14437000Y-8166000D02*
X14457000Y-8186000D01*
X14457000Y-8166000D02*
X14437000Y-8186000D01*
X14449536Y-8559102D02*
X14469536Y-8579102D01*
X14469536Y-8559102D02*
X14449536Y-8579102D01*
X14453651Y-8827325D02*
X14473651Y-8847325D01*
X14473651Y-8827325D02*
X14453651Y-8847325D01*
X14462000Y-7986000D02*
X14482000Y-8006000D01*
X14482000Y-7986000D02*
X14462000Y-8006000D01*
X14493000Y-8105000D02*
X14513000Y-8125000D01*
X14513000Y-8105000D02*
X14493000Y-8125000D01*
X14495000Y-6590000D02*
X14515000Y-6610000D01*
X14515000Y-6590000D02*
X14495000Y-6610000D01*
X14498000Y-7730000D02*
X14518000Y-7750000D01*
X14518000Y-7730000D02*
X14498000Y-7750000D01*
X14505000Y-9655000D02*
X14525000Y-9675000D01*
X14525000Y-9655000D02*
X14505000Y-9675000D01*
X14531651Y-8917325D02*
X14551651Y-8937325D01*
X14551651Y-8917325D02*
X14531651Y-8937325D01*
X14542525Y-9355415D02*
X14562525Y-9375415D01*
X14562525Y-9355415D02*
X14542525Y-9375415D01*
X14545000Y-9435000D02*
X14565000Y-9455000D01*
X14565000Y-9435000D02*
X14545000Y-9455000D01*
X14579678Y-8788322D02*
X14599678Y-8808322D01*
X14599678Y-8788322D02*
X14579678Y-8808322D01*
X14622486Y-8239850D02*
X14642486Y-8259850D01*
X14642486Y-8239850D02*
X14622486Y-8259850D01*
X14635000Y-9495000D02*
X14655000Y-9515000D01*
X14655000Y-9495000D02*
X14635000Y-9515000D01*
X14640000Y-6590000D02*
X14660000Y-6610000D01*
X14660000Y-6590000D02*
X14640000Y-6610000D01*
X14655000Y-9065000D02*
X14675000Y-9085000D01*
X14675000Y-9065000D02*
X14655000Y-9085000D01*
X14685000Y-8180000D02*
X14705000Y-8200000D01*
X14705000Y-8180000D02*
X14685000Y-8200000D01*
X14690000Y-6950000D02*
X14710000Y-6970000D01*
X14710000Y-6950000D02*
X14690000Y-6970000D01*
X14695000Y-7030000D02*
X14715000Y-7050000D01*
X14715000Y-7030000D02*
X14695000Y-7050000D01*
X14732486Y-8344850D02*
X14752486Y-8364850D01*
X14752486Y-8344850D02*
X14732486Y-8364850D01*
X14740000Y-9190000D02*
X14760000Y-9210000D01*
X14760000Y-9190000D02*
X14740000Y-9210000D01*
X14752000Y-9656000D02*
X14772000Y-9676000D01*
X14772000Y-9656000D02*
X14752000Y-9676000D01*
X14782000Y-8086000D02*
X14802000Y-8106000D01*
X14802000Y-8086000D02*
X14782000Y-8106000D01*
X14785000Y-6590000D02*
X14805000Y-6610000D01*
X14805000Y-6590000D02*
X14785000Y-6610000D01*
X14801707Y-9139922D02*
X14821707Y-9159922D01*
X14821707Y-9139922D02*
X14801707Y-9159922D01*
X14805388Y-6892172D02*
X14825388Y-6912172D01*
X14825388Y-6892172D02*
X14805388Y-6912172D01*
X14837000Y-8026000D02*
X14857000Y-8046000D01*
X14857000Y-8026000D02*
X14837000Y-8046000D01*
X14840000Y-6725353D02*
X14860000Y-6745353D01*
X14860000Y-6725353D02*
X14840000Y-6745353D01*
X14850000Y-9070000D02*
X14870000Y-9090000D01*
X14870000Y-9070000D02*
X14850000Y-9090000D01*
X14857486Y-9284850D02*
X14877486Y-9304850D01*
X14877486Y-9284850D02*
X14857486Y-9304850D01*
X14862500Y-8977500D02*
X14882500Y-8997500D01*
X14882500Y-8977500D02*
X14862500Y-8997500D01*
X14863000Y-8456000D02*
X14883000Y-8476000D01*
X14883000Y-8456000D02*
X14863000Y-8476000D01*
X14864327Y-8733327D02*
X14884327Y-8753327D01*
X14884327Y-8733327D02*
X14864327Y-8753327D01*
X14872864Y-6850653D02*
X14892864Y-6870653D01*
X14892864Y-6850653D02*
X14872864Y-6870653D01*
X14907000Y-6780000D02*
X14927000Y-6800000D01*
X14927000Y-6780000D02*
X14907000Y-6800000D01*
X14908000Y-7510000D02*
X14928000Y-7530000D01*
X14928000Y-7510000D02*
X14908000Y-7530000D01*
X14920000Y-6590000D02*
X14940000Y-6610000D01*
X14940000Y-6590000D02*
X14920000Y-6610000D01*
X14963656Y-8815027D02*
X14983656Y-8835027D01*
X14983656Y-8815027D02*
X14963656Y-8835027D01*
X14970000Y-7580000D02*
X14990000Y-7600000D01*
X14990000Y-7580000D02*
X14970000Y-7600000D01*
X14972000Y-9656000D02*
X14992000Y-9676000D01*
X14992000Y-9656000D02*
X14972000Y-9676000D01*
X14988617Y-8675338D02*
X15008617Y-8695338D01*
X15008617Y-8675338D02*
X14988617Y-8695338D01*
X14992916Y-8884084D02*
X15012916Y-8904084D01*
X15012916Y-8884084D02*
X14992916Y-8904084D01*
X14993000Y-8585000D02*
X15013000Y-8605000D01*
X15013000Y-8585000D02*
X14993000Y-8605000D01*
X15007486Y-9269850D02*
X15027486Y-9289850D01*
X15027486Y-9269850D02*
X15007486Y-9289850D01*
X15020000Y-7130000D02*
X15040000Y-7150000D01*
X15040000Y-7130000D02*
X15020000Y-7150000D01*
X15020514Y-7902201D02*
X15040514Y-7922201D01*
X15040514Y-7902201D02*
X15020514Y-7922201D01*
X15042000Y-8526000D02*
X15062000Y-8546000D01*
X15062000Y-8526000D02*
X15042000Y-8546000D01*
X15044823Y-8779850D02*
X15064823Y-8799850D01*
X15064823Y-8779850D02*
X15044823Y-8799850D01*
X15050000Y-6590000D02*
X15070000Y-6610000D01*
X15070000Y-6590000D02*
X15050000Y-6610000D01*
X15052000Y-7676000D02*
X15072000Y-7696000D01*
X15072000Y-7676000D02*
X15052000Y-7696000D01*
X15080000Y-9520381D02*
X15100000Y-9540381D01*
X15100000Y-9520381D02*
X15080000Y-9540381D01*
X15080500Y-7967500D02*
X15100500Y-7987500D01*
X15100500Y-7967500D02*
X15080500Y-7987500D01*
X15132000Y-8436000D02*
X15152000Y-8456000D01*
X15152000Y-8436000D02*
X15132000Y-8456000D01*
X15133000Y-7124830D02*
X15153000Y-7144830D01*
X15153000Y-7124830D02*
X15133000Y-7144830D01*
X15133000Y-7675000D02*
X15153000Y-7695000D01*
X15153000Y-7675000D02*
X15133000Y-7695000D01*
X15138000Y-8030000D02*
X15158000Y-8050000D01*
X15158000Y-8030000D02*
X15138000Y-8050000D01*
X15148500Y-8731000D02*
X15168500Y-8751000D01*
X15168500Y-8731000D02*
X15148500Y-8751000D01*
X15150000Y-9150000D02*
X15170000Y-9170000D01*
X15170000Y-9150000D02*
X15150000Y-9170000D01*
X15167486Y-9069850D02*
X15187486Y-9089850D01*
X15187486Y-9069850D02*
X15167486Y-9089850D01*
X15188652Y-7560075D02*
X15208652Y-7580075D01*
X15208652Y-7560075D02*
X15188652Y-7580075D01*
X15200000Y-9655000D02*
X15220000Y-9675000D01*
X15220000Y-9655000D02*
X15200000Y-9675000D01*
X15212486Y-8369850D02*
X15232486Y-8389850D01*
X15232486Y-8369850D02*
X15212486Y-8389850D01*
X15223967Y-8112967D02*
X15243967Y-8132967D01*
X15243967Y-8112967D02*
X15223967Y-8132967D01*
X15227000Y-8641000D02*
X15247000Y-8661000D01*
X15247000Y-8641000D02*
X15227000Y-8661000D01*
X15231415Y-8751429D02*
X15251415Y-8771429D01*
X15251415Y-8751429D02*
X15231415Y-8771429D01*
X15238084Y-8844916D02*
X15258084Y-8864916D01*
X15258084Y-8844916D02*
X15238084Y-8864916D01*
X15250500Y-7602500D02*
X15270500Y-7622500D01*
X15270500Y-7602500D02*
X15250500Y-7622500D01*
X15262000Y-8311000D02*
X15282000Y-8331000D01*
X15282000Y-8311000D02*
X15262000Y-8331000D01*
X15267000Y-7291000D02*
X15287000Y-7311000D01*
X15287000Y-7291000D02*
X15267000Y-7311000D01*
X15270500Y-8542500D02*
X15290500Y-8562500D01*
X15290500Y-8542500D02*
X15270500Y-8562500D01*
X15277000Y-8166000D02*
X15297000Y-8186000D01*
X15297000Y-8166000D02*
X15277000Y-8186000D01*
X15285000Y-7140000D02*
X15305000Y-7160000D01*
X15305000Y-7140000D02*
X15285000Y-7160000D01*
X15308582Y-8769418D02*
X15328582Y-8789418D01*
X15328582Y-8769418D02*
X15308582Y-8789418D01*
X15332000Y-7251000D02*
X15352000Y-7271000D01*
X15352000Y-7251000D02*
X15332000Y-7271000D01*
X15374416Y-8823584D02*
X15394416Y-8843584D01*
X15394416Y-8823584D02*
X15374416Y-8843584D01*
X15380000Y-8472500D02*
X15400000Y-8492500D01*
X15400000Y-8472500D02*
X15380000Y-8492500D01*
X15387000Y-7436000D02*
X15407000Y-7456000D01*
X15407000Y-7436000D02*
X15387000Y-7456000D01*
X15390000Y-9285000D02*
X15410000Y-9305000D01*
X15410000Y-9285000D02*
X15390000Y-9305000D01*
X15430000Y-7140000D02*
X15450000Y-7160000D01*
X15450000Y-7140000D02*
X15430000Y-7160000D01*
X15430000Y-7295000D02*
X15450000Y-7315000D01*
X15450000Y-7295000D02*
X15430000Y-7315000D01*
X15433000Y-7500000D02*
X15453000Y-7520000D01*
X15453000Y-7500000D02*
X15433000Y-7520000D01*
X15446000Y-9633000D02*
X15466000Y-9653000D01*
X15466000Y-9633000D02*
X15446000Y-9653000D01*
X15469334Y-8544666D02*
X15489334Y-8564666D01*
X15489334Y-8544666D02*
X15469334Y-8564666D01*
X15488822Y-7769178D02*
X15508822Y-7789178D01*
X15508822Y-7769178D02*
X15488822Y-7789178D01*
X15502318Y-9039682D02*
X15522318Y-9059682D01*
X15522318Y-9039682D02*
X15502318Y-9059682D01*
X15520000Y-8100000D02*
X15540000Y-8120000D01*
X15540000Y-8100000D02*
X15520000Y-8120000D01*
X15526000Y-8808000D02*
X15546000Y-8828000D01*
X15546000Y-8808000D02*
X15526000Y-8828000D01*
X15565000Y-7705000D02*
X15585000Y-7725000D01*
X15585000Y-7705000D02*
X15565000Y-7725000D01*
X15567407Y-9175593D02*
X15587407Y-9195593D01*
X15587407Y-9175593D02*
X15567407Y-9195593D01*
X15575000Y-7140000D02*
X15595000Y-7160000D01*
X15595000Y-7140000D02*
X15575000Y-7160000D01*
X15576416Y-8163584D02*
X15596416Y-8183584D01*
X15596416Y-8163584D02*
X15576416Y-8183584D01*
X15576982Y-8749347D02*
X15596982Y-8769347D01*
X15596982Y-8749347D02*
X15576982Y-8769347D01*
X15578822Y-7859178D02*
X15598822Y-7879178D01*
X15598822Y-7859178D02*
X15578822Y-7879178D01*
X15590000Y-8937500D02*
X15610000Y-8957500D01*
X15610000Y-8937500D02*
X15590000Y-8957500D01*
X15605000Y-7502000D02*
X15625000Y-7522000D01*
X15625000Y-7502000D02*
X15605000Y-7522000D01*
X15650000Y-7785000D02*
X15670000Y-7805000D01*
X15670000Y-7785000D02*
X15650000Y-7805000D01*
X15663822Y-7944178D02*
X15683822Y-7964178D01*
X15683822Y-7944178D02*
X15663822Y-7964178D01*
X15667000Y-8766000D02*
X15687000Y-8786000D01*
X15687000Y-8766000D02*
X15667000Y-8786000D01*
X15677897Y-8360261D02*
X15697897Y-8380261D01*
X15697897Y-8360261D02*
X15677897Y-8380261D01*
X15707486Y-8624850D02*
X15727486Y-8644850D01*
X15727486Y-8624850D02*
X15707486Y-8644850D01*
X15709874Y-7314015D02*
X15729874Y-7334015D01*
X15729874Y-7314015D02*
X15709874Y-7334015D01*
X15710000Y-7502000D02*
X15730000Y-7522000D01*
X15730000Y-7502000D02*
X15710000Y-7522000D01*
X15715000Y-7070000D02*
X15735000Y-7090000D01*
X15735000Y-7070000D02*
X15715000Y-7090000D01*
X15724156Y-7388757D02*
X15744156Y-7408757D01*
X15744156Y-7388757D02*
X15724156Y-7408757D01*
X15735000Y-7875000D02*
X15755000Y-7895000D01*
X15755000Y-7875000D02*
X15735000Y-7895000D01*
X15765000Y-8415000D02*
X15785000Y-8435000D01*
X15785000Y-8415000D02*
X15765000Y-8435000D01*
X15772897Y-8265261D02*
X15792897Y-8285261D01*
X15792897Y-8265261D02*
X15772897Y-8285261D01*
X15780000Y-9075000D02*
X15800000Y-9095000D01*
X15800000Y-9075000D02*
X15780000Y-9095000D01*
X15810656Y-8716000D02*
X15830656Y-8736000D01*
X15830656Y-8716000D02*
X15810656Y-8736000D01*
X15845000Y-8335000D02*
X15865000Y-8355000D01*
X15865000Y-8335000D02*
X15845000Y-8355000D01*
X15852000Y-8572793D02*
X15872000Y-8592793D01*
X15872000Y-8572793D02*
X15852000Y-8592793D01*
X15866543Y-8877928D02*
X15886543Y-8897928D01*
X15886543Y-8877928D02*
X15866543Y-8897928D01*
X15960000Y-8695000D02*
X15980000Y-8715000D01*
X15980000Y-8695000D02*
X15960000Y-8715000D01*
X15972486Y-7069500D02*
X15992486Y-7089500D01*
X15992486Y-7069500D02*
X15972486Y-7089500D01*
X16034486Y-9230000D02*
X16054486Y-9250000D01*
X16054486Y-9230000D02*
X16034486Y-9250000D01*
X16050000Y-7395000D02*
X16070000Y-7415000D01*
X16070000Y-7395000D02*
X16050000Y-7415000D01*
X16080000Y-7490000D02*
X16100000Y-7510000D01*
X16100000Y-7490000D02*
X16080000Y-7510000D01*
X16090000Y-7250000D02*
X16110000Y-7270000D01*
X16110000Y-7250000D02*
X16090000Y-7270000D01*
X16114486Y-9015255D02*
X16134486Y-9035255D01*
X16134486Y-9015255D02*
X16114486Y-9035255D01*
X16175000Y-8585000D02*
X16195000Y-8605000D01*
X16195000Y-8585000D02*
X16175000Y-8605000D01*
X16254735Y-8613873D02*
X16274735Y-8633873D01*
X16274735Y-8613873D02*
X16254735Y-8633873D01*
X16267000Y-8363000D02*
X16287000Y-8383000D01*
X16287000Y-8363000D02*
X16267000Y-8383000D01*
X16292500Y-8942500D02*
X16312500Y-8962500D01*
X16312500Y-8942500D02*
X16292500Y-8962500D01*
X16294486Y-9094850D02*
X16314486Y-9114850D01*
X16314486Y-9094850D02*
X16294486Y-9114850D01*
X16294486Y-9521000D02*
X16314486Y-9541000D01*
X16314486Y-9521000D02*
X16294486Y-9541000D01*
X16334235Y-8613873D02*
X16354235Y-8633873D01*
X16354235Y-8613873D02*
X16334235Y-8633873D01*
X16345000Y-7605000D02*
X16365000Y-7625000D01*
X16365000Y-7605000D02*
X16345000Y-7625000D01*
X16350000Y-7005000D02*
X16370000Y-7025000D01*
X16370000Y-7005000D02*
X16350000Y-7025000D01*
X16350000Y-7155000D02*
X16370000Y-7175000D01*
X16370000Y-7155000D02*
X16350000Y-7175000D01*
X16350000Y-7305000D02*
X16370000Y-7325000D01*
X16370000Y-7305000D02*
X16350000Y-7325000D01*
X16350000Y-7455000D02*
X16370000Y-7475000D01*
X16370000Y-7455000D02*
X16350000Y-7475000D01*
X16380000Y-8435000D02*
X16400000Y-8455000D01*
X16400000Y-8435000D02*
X16380000Y-8455000D01*
X16405000Y-8522500D02*
X16425000Y-8542500D01*
X16425000Y-8522500D02*
X16405000Y-8542500D01*
X16412500Y-8605000D02*
X16432500Y-8625000D01*
X16432500Y-8605000D02*
X16412500Y-8625000D01*
X16474485Y-9015255D02*
X16494485Y-9035255D01*
X16494485Y-9015255D02*
X16474485Y-9035255D01*
X16475000Y-7970000D02*
X16495000Y-7990000D01*
X16495000Y-7970000D02*
X16475000Y-7990000D01*
X16495000Y-6855000D02*
X16515000Y-6875000D01*
X16515000Y-6855000D02*
X16495000Y-6875000D01*
X16495000Y-7005000D02*
X16515000Y-7025000D01*
X16515000Y-7005000D02*
X16495000Y-7025000D01*
X16495000Y-7155000D02*
X16515000Y-7175000D01*
X16515000Y-7155000D02*
X16495000Y-7175000D01*
X16601000Y-8459000D02*
X16621000Y-8479000D01*
X16621000Y-8459000D02*
X16601000Y-8479000D01*
X16650000Y-8675000D02*
X16670000Y-8695000D01*
X16670000Y-8675000D02*
X16650000Y-8695000D01*
X16654486Y-9285255D02*
X16674486Y-9305255D01*
X16674486Y-9285255D02*
X16654486Y-9305255D01*
X16665000Y-8865000D02*
X16685000Y-8885000D01*
X16685000Y-8865000D02*
X16665000Y-8885000D01*
X16763000Y-7756000D02*
X16783000Y-7776000D01*
X16783000Y-7756000D02*
X16763000Y-7776000D01*
X16777486Y-9020000D02*
X16797486Y-9040000D01*
X16797486Y-9020000D02*
X16777486Y-9040000D01*
X16785000Y-7005000D02*
X16805000Y-7025000D01*
X16805000Y-7005000D02*
X16785000Y-7025000D01*
X16785000Y-7155000D02*
X16805000Y-7175000D01*
X16805000Y-7155000D02*
X16785000Y-7175000D01*
X16852486Y-8459850D02*
X16872486Y-8479850D01*
X16872486Y-8459850D02*
X16852486Y-8479850D01*
X16867486Y-8624850D02*
X16887486Y-8644850D01*
X16887486Y-8624850D02*
X16867486Y-8644850D01*
X16867486Y-8719850D02*
X16887486Y-8739850D01*
X16887486Y-8719850D02*
X16867486Y-8739850D01*
X16895000Y-8030000D02*
X16915000Y-8050000D01*
X16915000Y-8030000D02*
X16895000Y-8050000D01*
X16930000Y-7155000D02*
X16950000Y-7175000D01*
X16950000Y-7155000D02*
X16930000Y-7175000D01*
X16930000Y-7305000D02*
X16950000Y-7325000D01*
X16950000Y-7305000D02*
X16930000Y-7325000D01*
X16930000Y-7455000D02*
X16950000Y-7475000D01*
X16950000Y-7455000D02*
X16930000Y-7475000D01*
X16947486Y-8672700D02*
X16967486Y-8692700D01*
X16967486Y-8672700D02*
X16947486Y-8692700D01*
X16950000Y-9890000D02*
X16970000Y-9910000D01*
X16970000Y-9890000D02*
X16950000Y-9910000D01*
X17005000Y-7860000D02*
X17025000Y-7880000D01*
X17025000Y-7860000D02*
X17005000Y-7880000D01*
X17007486Y-9069850D02*
X17027486Y-9089850D01*
X17027486Y-9069850D02*
X17007486Y-9089850D01*
X17022486Y-8624850D02*
X17042486Y-8644850D01*
X17042486Y-8624850D02*
X17022486Y-8644850D01*
X17022486Y-8719850D02*
X17042486Y-8739850D01*
X17042486Y-8719850D02*
X17022486Y-8739850D01*
X17095000Y-9890000D02*
X17115000Y-9910000D01*
X17115000Y-9890000D02*
X17095000Y-9910000D01*
X17127486Y-9069850D02*
X17147486Y-9089850D01*
X17147486Y-9069850D02*
X17127486Y-9089850D01*
X17137486Y-8419850D02*
X17157486Y-8439850D01*
X17157486Y-8419850D02*
X17137486Y-8439850D01*
X17150000Y-9200000D02*
X17170000Y-9220000D01*
X17170000Y-9200000D02*
X17150000Y-9220000D01*
X17220000Y-7230000D02*
X17240000Y-7250000D01*
X17240000Y-7230000D02*
X17220000Y-7250000D01*
X17227486Y-8559850D02*
X17247486Y-8579850D01*
X17247486Y-8559850D02*
X17227486Y-8579850D01*
X17227486Y-8636000D02*
X17247486Y-8656000D01*
X17247486Y-8636000D02*
X17227486Y-8656000D01*
X17230000Y-9890000D02*
X17250000Y-9910000D01*
X17250000Y-9890000D02*
X17230000Y-9910000D01*
X17317000Y-8491000D02*
X17337000Y-8511000D01*
X17337000Y-8491000D02*
X17317000Y-8511000D01*
X17334000Y-9025550D02*
X17354000Y-9045550D01*
X17354000Y-9025550D02*
X17334000Y-9045550D01*
X17359880Y-6730000D02*
X17379880Y-6750000D01*
X17379880Y-6730000D02*
X17359880Y-6750000D01*
X17360000Y-8165000D02*
X17380000Y-8185000D01*
X17380000Y-8165000D02*
X17360000Y-8185000D01*
X17360000Y-9890000D02*
X17380000Y-9910000D01*
X17380000Y-9890000D02*
X17360000Y-9910000D01*
X17403500Y-7338500D02*
X17423500Y-7358500D01*
X17423500Y-7338500D02*
X17403500Y-7358500D01*
X17410000Y-8100000D02*
X17430000Y-8120000D01*
X17430000Y-8100000D02*
X17410000Y-8120000D01*
X17462000Y-7299000D02*
X17482000Y-7319000D01*
X17482000Y-7299000D02*
X17462000Y-7319000D01*
X17470000Y-6715000D02*
X17490000Y-6735000D01*
X17490000Y-6715000D02*
X17470000Y-6735000D01*
X17505000Y-9890000D02*
X17525000Y-9910000D01*
X17525000Y-9890000D02*
X17505000Y-9910000D01*
X17550000Y-8890000D02*
X17570000Y-8910000D01*
X17570000Y-8890000D02*
X17550000Y-8910000D01*
X17650000Y-9890000D02*
X17670000Y-9910000D01*
X17670000Y-9890000D02*
X17650000Y-9910000D01*
X17671412Y-7316000D02*
X17691412Y-7336000D01*
X17691412Y-7316000D02*
X17671412Y-7336000D01*
X17701967Y-8182500D02*
X17721967Y-8202500D01*
X17721967Y-8182500D02*
X17701967Y-8202500D01*
X17734396Y-8312115D02*
X17754396Y-8332115D01*
X17754396Y-8312115D02*
X17734396Y-8332115D01*
X17755000Y-8240000D02*
X17775000Y-8260000D01*
X17775000Y-8240000D02*
X17755000Y-8260000D01*
X17765000Y-9062721D02*
X17785000Y-9082721D01*
X17785000Y-9062721D02*
X17765000Y-9082721D01*
X17770000Y-6695000D02*
X17790000Y-6715000D01*
X17790000Y-6695000D02*
X17770000Y-6715000D01*
X17775000Y-8840000D02*
X17795000Y-8860000D01*
X17795000Y-8840000D02*
X17775000Y-8860000D01*
X17782000Y-8986000D02*
X17802000Y-9006000D01*
X17802000Y-8986000D02*
X17782000Y-9006000D01*
X17785000Y-9890000D02*
X17805000Y-9910000D01*
X17805000Y-9890000D02*
X17785000Y-9910000D01*
X17800000Y-8100000D02*
X17820000Y-8120000D01*
X17820000Y-8100000D02*
X17800000Y-8120000D01*
X17850000Y-6670000D02*
X17870000Y-6690000D01*
X17870000Y-6670000D02*
X17850000Y-6690000D01*
X17850000Y-8035000D02*
X17870000Y-8055000D01*
X17870000Y-8035000D02*
X17850000Y-8055000D01*
X17915000Y-9890000D02*
X17935000Y-9910000D01*
X17935000Y-9890000D02*
X17915000Y-9910000D01*
X17916686Y-8949050D02*
X17936686Y-8969050D01*
X17936686Y-8949050D02*
X17916686Y-8969050D01*
X17995000Y-8320000D02*
X18015000Y-8340000D01*
X18015000Y-8320000D02*
X17995000Y-8340000D01*
X18005000Y-8235000D02*
X18025000Y-8255000D01*
X18025000Y-8235000D02*
X18005000Y-8255000D01*
X18057000Y-7316000D02*
X18077000Y-7336000D01*
X18077000Y-7316000D02*
X18057000Y-7336000D01*
X18060000Y-9890000D02*
X18080000Y-9910000D01*
X18080000Y-9890000D02*
X18060000Y-9910000D01*
X18155000Y-6675000D02*
X18175000Y-6695000D01*
X18175000Y-6675000D02*
X18155000Y-6695000D01*
X18205000Y-9890000D02*
X18225000Y-9910000D01*
X18225000Y-9890000D02*
X18205000Y-9910000D01*
X18223000Y-9014000D02*
X18243000Y-9034000D01*
X18243000Y-9014000D02*
X18223000Y-9034000D01*
X18237000Y-6645000D02*
X18257000Y-6665000D01*
X18257000Y-6645000D02*
X18237000Y-6665000D01*
X18335000Y-7625000D02*
X18355000Y-7645000D01*
X18355000Y-7625000D02*
X18335000Y-7645000D01*
X18340000Y-9890000D02*
X18360000Y-9910000D01*
X18360000Y-9890000D02*
X18340000Y-9910000D01*
X18359167Y-6730000D02*
X18379167Y-6750000D01*
X18379167Y-6730000D02*
X18359167Y-6750000D01*
X18359167Y-7320000D02*
X18379167Y-7340000D01*
X18379167Y-7320000D02*
X18359167Y-7340000D01*
X18390000Y-8980000D02*
X18410000Y-9000000D01*
X18410000Y-8980000D02*
X18390000Y-9000000D01*
X18470000Y-9890000D02*
X18490000Y-9910000D01*
X18490000Y-9890000D02*
X18470000Y-9910000D01*
X18495833Y-7320000D02*
X18515833Y-7340000D01*
X18515833Y-7320000D02*
X18495833Y-7340000D01*
X18495833Y-6730000D02*
X18515833Y-6750000D01*
X18515833Y-6730000D02*
X18495833Y-6750000D01*
X18495833Y-6925000D02*
X18515833Y-6945000D01*
X18515833Y-6925000D02*
X18495833Y-6945000D01*
X18495833Y-7125000D02*
X18515833Y-7145000D01*
X18515833Y-7125000D02*
X18495833Y-7145000D01*
X18615000Y-9890000D02*
X18635000Y-9910000D01*
X18635000Y-9890000D02*
X18615000Y-9910000D01*
X18632500Y-6730000D02*
X18652500Y-6750000D01*
X18652500Y-6730000D02*
X18632500Y-6750000D01*
X18632500Y-6925000D02*
X18652500Y-6945000D01*
X18652500Y-6925000D02*
X18632500Y-6945000D01*
X18632500Y-7125000D02*
X18652500Y-7145000D01*
X18652500Y-7125000D02*
X18632500Y-7145000D01*
X18632625Y-7319764D02*
X18652625Y-7339764D01*
X18652625Y-7319764D02*
X18632625Y-7339764D01*
X18760000Y-9890000D02*
X18780000Y-9910000D01*
X18780000Y-9890000D02*
X18760000Y-9910000D01*
X18767917Y-8905000D02*
X18787917Y-8925000D01*
X18787917Y-8905000D02*
X18767917Y-8925000D01*
X18767917Y-9100000D02*
X18787917Y-9120000D01*
X18787917Y-9100000D02*
X18767917Y-9120000D01*
X18769292Y-6729764D02*
X18789292Y-6749764D01*
X18789292Y-6729764D02*
X18769292Y-6749764D01*
X18769292Y-7319764D02*
X18789292Y-7339764D01*
X18789292Y-7319764D02*
X18769292Y-7339764D01*
X18895000Y-9890000D02*
X18915000Y-9910000D01*
X18915000Y-9890000D02*
X18895000Y-9910000D01*
X18905833Y-7320000D02*
X18925833Y-7340000D01*
X18925833Y-7320000D02*
X18905833Y-7340000D01*
X18905991Y-6529858D02*
X18925991Y-6549858D01*
X18925991Y-6529858D02*
X18905991Y-6549858D01*
X18905991Y-6729858D02*
X18925991Y-6749858D01*
X18925991Y-6729858D02*
X18905991Y-6749858D01*
X18906667Y-8905000D02*
X18926667Y-8925000D01*
X18926667Y-8905000D02*
X18906667Y-8925000D01*
X18906667Y-9100000D02*
X18926667Y-9120000D01*
X18926667Y-9100000D02*
X18906667Y-9120000D01*
X18906667Y-9295000D02*
X18926667Y-9315000D01*
X18926667Y-9295000D02*
X18906667Y-9315000D01*
X19025000Y-9890000D02*
X19045000Y-9910000D01*
X19045000Y-9890000D02*
X19025000Y-9910000D01*
X19042500Y-6530000D02*
X19062500Y-6550000D01*
X19062500Y-6530000D02*
X19042500Y-6550000D01*
X19042500Y-6725000D02*
X19062500Y-6745000D01*
X19062500Y-6725000D02*
X19042500Y-6745000D01*
X19042500Y-7320000D02*
X19062500Y-7340000D01*
X19062500Y-7320000D02*
X19042500Y-7340000D01*
X19043333Y-8905000D02*
X19063333Y-8925000D01*
X19063333Y-8905000D02*
X19043333Y-8925000D01*
X19043333Y-9100000D02*
X19063333Y-9120000D01*
X19063333Y-9100000D02*
X19043333Y-9120000D01*
X19043333Y-9295000D02*
X19063333Y-9315000D01*
X19063333Y-9295000D02*
X19043333Y-9315000D01*
X19170000Y-9890000D02*
X19190000Y-9910000D01*
X19190000Y-9890000D02*
X19170000Y-9910000D01*
X19180000Y-9490000D02*
X19200000Y-9510000D01*
X19200000Y-9490000D02*
X19180000Y-9510000D01*
X19180000Y-9690000D02*
X19200000Y-9710000D01*
X19200000Y-9690000D02*
X19180000Y-9710000D01*
X19180000Y-6530000D02*
X19200000Y-6550000D01*
X19200000Y-6530000D02*
X19180000Y-6550000D01*
X19180000Y-6725000D02*
X19200000Y-6745000D01*
X19200000Y-6725000D02*
X19180000Y-6745000D01*
X19180000Y-6925000D02*
X19200000Y-6945000D01*
X19200000Y-6925000D02*
X19180000Y-6945000D01*
X19180000Y-7120000D02*
X19200000Y-7140000D01*
X19200000Y-7120000D02*
X19180000Y-7140000D01*
X19180000Y-7320000D02*
X19200000Y-7340000D01*
X19200000Y-7320000D02*
X19180000Y-7340000D01*
X19180000Y-8905000D02*
X19200000Y-8925000D01*
X19200000Y-8905000D02*
X19180000Y-8925000D01*
X19180000Y-9100000D02*
X19200000Y-9120000D01*
X19200000Y-9100000D02*
X19180000Y-9120000D01*
X19180000Y-9295000D02*
X19200000Y-9315000D01*
X19200000Y-9295000D02*
X19180000Y-9315000D01*
X19315000Y-9890000D02*
X19335000Y-9910000D01*
X19335000Y-9890000D02*
X19315000Y-9910000D01*
X19316667Y-7515000D02*
X19336667Y-7535000D01*
X19336667Y-7515000D02*
X19316667Y-7535000D01*
X19316667Y-7715000D02*
X19336667Y-7735000D01*
X19336667Y-7715000D02*
X19316667Y-7735000D01*
X19316667Y-7910000D02*
X19336667Y-7930000D01*
X19336667Y-7910000D02*
X19316667Y-7930000D01*
X19316667Y-8110000D02*
X19336667Y-8130000D01*
X19336667Y-8110000D02*
X19316667Y-8130000D01*
X19316667Y-8305000D02*
X19336667Y-8325000D01*
X19336667Y-8305000D02*
X19316667Y-8325000D01*
X19316667Y-8505000D02*
X19336667Y-8525000D01*
X19336667Y-8505000D02*
X19316667Y-8525000D01*
X19316667Y-8700000D02*
X19336667Y-8720000D01*
X19336667Y-8700000D02*
X19316667Y-8720000D01*
X19316667Y-8900000D02*
X19336667Y-8920000D01*
X19336667Y-8900000D02*
X19316667Y-8920000D01*
X19316667Y-9095000D02*
X19336667Y-9115000D01*
X19336667Y-9095000D02*
X19316667Y-9115000D01*
X19316667Y-9295000D02*
X19336667Y-9315000D01*
X19336667Y-9295000D02*
X19316667Y-9315000D01*
X19316667Y-9490000D02*
X19336667Y-9510000D01*
X19336667Y-9490000D02*
X19316667Y-9510000D01*
X19316667Y-9690000D02*
X19336667Y-9710000D01*
X19336667Y-9690000D02*
X19316667Y-9710000D01*
X19317500Y-6530000D02*
X19337500Y-6550000D01*
X19337500Y-6530000D02*
X19317500Y-6550000D01*
X19317500Y-6725000D02*
X19337500Y-6745000D01*
X19337500Y-6725000D02*
X19317500Y-6745000D01*
X19317500Y-6925000D02*
X19337500Y-6945000D01*
X19337500Y-6925000D02*
X19317500Y-6945000D01*
X19317500Y-7120000D02*
X19337500Y-7140000D01*
X19337500Y-7120000D02*
X19317500Y-7140000D01*
X19317500Y-7320000D02*
X19337500Y-7340000D01*
X19337500Y-7320000D02*
X19317500Y-7340000D01*
X19450000Y-9890000D02*
X19470000Y-9910000D01*
X19470000Y-9890000D02*
X19450000Y-9910000D01*
X19453333Y-6925000D02*
X19473333Y-6945000D01*
X19473333Y-6925000D02*
X19453333Y-6945000D01*
X19453333Y-7120000D02*
X19473333Y-7140000D01*
X19473333Y-7120000D02*
X19453333Y-7140000D01*
X19453333Y-7320000D02*
X19473333Y-7340000D01*
X19473333Y-7320000D02*
X19453333Y-7340000D01*
X19453333Y-7515000D02*
X19473333Y-7535000D01*
X19473333Y-7515000D02*
X19453333Y-7535000D01*
X19453333Y-7715000D02*
X19473333Y-7735000D01*
X19473333Y-7715000D02*
X19453333Y-7735000D01*
X19453333Y-7910000D02*
X19473333Y-7930000D01*
X19473333Y-7910000D02*
X19453333Y-7930000D01*
X19453333Y-8110000D02*
X19473333Y-8130000D01*
X19473333Y-8110000D02*
X19453333Y-8130000D01*
X19453333Y-8305000D02*
X19473333Y-8325000D01*
X19473333Y-8305000D02*
X19453333Y-8325000D01*
X19453333Y-8505000D02*
X19473333Y-8525000D01*
X19473333Y-8505000D02*
X19453333Y-8525000D01*
X19453333Y-8700000D02*
X19473333Y-8720000D01*
X19473333Y-8700000D02*
X19453333Y-8720000D01*
X19453333Y-8900000D02*
X19473333Y-8920000D01*
X19473333Y-8900000D02*
X19453333Y-8920000D01*
X19453333Y-9095000D02*
X19473333Y-9115000D01*
X19473333Y-9095000D02*
X19453333Y-9115000D01*
X19453333Y-9295000D02*
X19473333Y-9315000D01*
X19473333Y-9295000D02*
X19453333Y-9315000D01*
X19453333Y-9490000D02*
X19473333Y-9510000D01*
X19473333Y-9490000D02*
X19453333Y-9510000D01*
X19453333Y-9690000D02*
X19473333Y-9710000D01*
X19473333Y-9690000D02*
X19453333Y-9710000D01*
X19454167Y-6530000D02*
X19474167Y-6550000D01*
X19474167Y-6530000D02*
X19454167Y-6550000D01*
X19454167Y-6725000D02*
X19474167Y-6745000D01*
X19474167Y-6725000D02*
X19454167Y-6745000D01*
X19580000Y-9890000D02*
X19600000Y-9910000D01*
X19600000Y-9890000D02*
X19580000Y-9910000D01*
X19590000Y-6925000D02*
X19610000Y-6945000D01*
X19610000Y-6925000D02*
X19590000Y-6945000D01*
X19590000Y-7120000D02*
X19610000Y-7140000D01*
X19610000Y-7120000D02*
X19590000Y-7140000D01*
X19590000Y-7320000D02*
X19610000Y-7340000D01*
X19610000Y-7320000D02*
X19590000Y-7340000D01*
X19590000Y-7515000D02*
X19610000Y-7535000D01*
X19610000Y-7515000D02*
X19590000Y-7535000D01*
X19590000Y-7715000D02*
X19610000Y-7735000D01*
X19610000Y-7715000D02*
X19590000Y-7735000D01*
X19590000Y-7910000D02*
X19610000Y-7930000D01*
X19610000Y-7910000D02*
X19590000Y-7930000D01*
X19590000Y-8110000D02*
X19610000Y-8130000D01*
X19610000Y-8110000D02*
X19590000Y-8130000D01*
X19590000Y-8305000D02*
X19610000Y-8325000D01*
X19610000Y-8305000D02*
X19590000Y-8325000D01*
X19590000Y-8505000D02*
X19610000Y-8525000D01*
X19610000Y-8505000D02*
X19590000Y-8525000D01*
X19590000Y-8700000D02*
X19610000Y-8720000D01*
X19610000Y-8700000D02*
X19590000Y-8720000D01*
X19590000Y-8900000D02*
X19610000Y-8920000D01*
X19610000Y-8900000D02*
X19590000Y-8920000D01*
X19590000Y-9095000D02*
X19610000Y-9115000D01*
X19610000Y-9095000D02*
X19590000Y-9115000D01*
X19590000Y-9295000D02*
X19610000Y-9315000D01*
X19610000Y-9295000D02*
X19590000Y-9315000D01*
X19590000Y-9490000D02*
X19610000Y-9510000D01*
X19610000Y-9490000D02*
X19590000Y-9510000D01*
X19590000Y-9690000D02*
X19610000Y-9710000D01*
X19610000Y-9690000D02*
X19590000Y-9710000D01*
X19590833Y-6530000D02*
X19610833Y-6550000D01*
X19610833Y-6530000D02*
X19590833Y-6550000D01*
X19590833Y-6725000D02*
X19610833Y-6745000D01*
X19610833Y-6725000D02*
X19590833Y-6745000D01*
X19725000Y-9890000D02*
X19745000Y-9910000D01*
X19745000Y-9890000D02*
X19725000Y-9910000D01*
X19727500Y-6925000D02*
X19747500Y-6945000D01*
X19747500Y-6925000D02*
X19727500Y-6945000D01*
X19727500Y-7120000D02*
X19747500Y-7140000D01*
X19747500Y-7120000D02*
X19727500Y-7140000D01*
X19727500Y-7320000D02*
X19747500Y-7340000D01*
X19747500Y-7320000D02*
X19727500Y-7340000D01*
X19727500Y-7515000D02*
X19747500Y-7535000D01*
X19747500Y-7515000D02*
X19727500Y-7535000D01*
X19727500Y-7715000D02*
X19747500Y-7735000D01*
X19747500Y-7715000D02*
X19727500Y-7735000D01*
X19727500Y-7910000D02*
X19747500Y-7930000D01*
X19747500Y-7910000D02*
X19727500Y-7930000D01*
X19727500Y-8110000D02*
X19747500Y-8130000D01*
X19747500Y-8110000D02*
X19727500Y-8130000D01*
X19727500Y-8305000D02*
X19747500Y-8325000D01*
X19747500Y-8305000D02*
X19727500Y-8325000D01*
X19727500Y-8505000D02*
X19747500Y-8525000D01*
X19747500Y-8505000D02*
X19727500Y-8525000D01*
X19727500Y-8700000D02*
X19747500Y-8720000D01*
X19747500Y-8700000D02*
X19727500Y-8720000D01*
X19727500Y-8900000D02*
X19747500Y-8920000D01*
X19747500Y-8900000D02*
X19727500Y-8920000D01*
X19727500Y-9095000D02*
X19747500Y-9115000D01*
X19747500Y-9095000D02*
X19727500Y-9115000D01*
X19727500Y-9295000D02*
X19747500Y-9315000D01*
X19747500Y-9295000D02*
X19727500Y-9315000D01*
X19727500Y-9490000D02*
X19747500Y-9510000D01*
X19747500Y-9490000D02*
X19727500Y-9510000D01*
X19727500Y-9690000D02*
X19747500Y-9710000D01*
X19747500Y-9690000D02*
X19727500Y-9710000D01*
X19728333Y-6530000D02*
X19748333Y-6550000D01*
X19748333Y-6530000D02*
X19728333Y-6550000D01*
X19728333Y-6725000D02*
X19748333Y-6745000D01*
X19748333Y-6725000D02*
X19728333Y-6745000D01*
X19865000Y-6925000D02*
X19885000Y-6945000D01*
X19885000Y-6925000D02*
X19865000Y-6945000D01*
X19865000Y-7120000D02*
X19885000Y-7140000D01*
X19885000Y-7120000D02*
X19865000Y-7140000D01*
X19865000Y-7320000D02*
X19885000Y-7340000D01*
X19885000Y-7320000D02*
X19865000Y-7340000D01*
X19865000Y-7515000D02*
X19885000Y-7535000D01*
X19885000Y-7515000D02*
X19865000Y-7535000D01*
X19865000Y-7715000D02*
X19885000Y-7735000D01*
X19885000Y-7715000D02*
X19865000Y-7735000D01*
X19865000Y-7910000D02*
X19885000Y-7930000D01*
X19885000Y-7910000D02*
X19865000Y-7930000D01*
X19865000Y-8110000D02*
X19885000Y-8130000D01*
X19885000Y-8110000D02*
X19865000Y-8130000D01*
X19865000Y-8305000D02*
X19885000Y-8325000D01*
X19885000Y-8305000D02*
X19865000Y-8325000D01*
X19865000Y-8505000D02*
X19885000Y-8525000D01*
X19885000Y-8505000D02*
X19865000Y-8525000D01*
X19865000Y-8700000D02*
X19885000Y-8720000D01*
X19885000Y-8700000D02*
X19865000Y-8720000D01*
X19865000Y-8900000D02*
X19885000Y-8920000D01*
X19885000Y-8900000D02*
X19865000Y-8920000D01*
X19865000Y-9095000D02*
X19885000Y-9115000D01*
X19885000Y-9095000D02*
X19865000Y-9115000D01*
X19865000Y-9295000D02*
X19885000Y-9315000D01*
X19885000Y-9295000D02*
X19865000Y-9315000D01*
X19865000Y-9490000D02*
X19885000Y-9510000D01*
X19885000Y-9490000D02*
X19865000Y-9510000D01*
X19865000Y-9690000D02*
X19885000Y-9710000D01*
X19885000Y-9690000D02*
X19865000Y-9710000D01*
X19865833Y-6725000D02*
X19885833Y-6745000D01*
X19885833Y-6725000D02*
X19865833Y-6745000D01*
X19870000Y-9890000D02*
X19890000Y-9910000D01*
X19890000Y-9890000D02*
X19870000Y-9910000D01*
X11434986Y-8320850D02*
G75*
G02*
X11409986Y-8320850I-12500J0D01*
G01*
X11409986Y-8320850D02*
G75*
G02*
X11434986Y-8320850I12500J0D01*
G01*
X11437500Y-9045000D02*
G75*
G02*
X11412500Y-9045000I-12500J0D01*
G01*
X11412500Y-9045000D02*
G75*
G02*
X11437500Y-9045000I12500J0D01*
G01*
X11530500Y-8755000D02*
G75*
G02*
X11505500Y-8755000I-12500J0D01*
G01*
X11505500Y-8755000D02*
G75*
G02*
X11530500Y-8755000I12500J0D01*
G01*
X14843521Y-8239385D02*
G75*
G02*
X14818521Y-8239385I-12500J0D01*
G01*
X14818521Y-8239385D02*
G75*
G02*
X14843521Y-8239385I12500J0D01*
G01*
X14926771Y-8156135D02*
G75*
G02*
X14901771Y-8156135I-12500J0D01*
G01*
X14901771Y-8156135D02*
G75*
G02*
X14926771Y-8156135I12500J0D01*
G01*
X14928274Y-8320972D02*
G75*
G02*
X14903274Y-8320972I-12500J0D01*
G01*
X14903274Y-8320972D02*
G75*
G02*
X14928274Y-8320972I12500J0D01*
G01*
X15009524Y-8239722D02*
G75*
G02*
X14984524Y-8239722I-12500J0D01*
G01*
X14984524Y-8239722D02*
G75*
G02*
X15009524Y-8239722I12500J0D01*
G01*
X15009986Y-8409850D02*
G75*
G02*
X14984986Y-8409850I-12500J0D01*
G01*
X14984986Y-8409850D02*
G75*
G02*
X15009986Y-8409850I12500J0D01*
G01*
X15010021Y-8072885D02*
G75*
G02*
X14985021Y-8072885I-12500J0D01*
G01*
X14985021Y-8072885D02*
G75*
G02*
X15010021Y-8072885I12500J0D01*
G01*
X15090774Y-8158472D02*
G75*
G02*
X15065774Y-8158472I-12500J0D01*
G01*
X15065774Y-8158472D02*
G75*
G02*
X15090774Y-8158472I12500J0D01*
G01*
X15094986Y-8324850D02*
G75*
G02*
X15069986Y-8324850I-12500J0D01*
G01*
X15069986Y-8324850D02*
G75*
G02*
X15094986Y-8324850I12500J0D01*
G01*
X15179986Y-8239850D02*
G75*
G02*
X15154986Y-8239850I-12500J0D01*
G01*
X15154986Y-8239850D02*
G75*
G02*
X15179986Y-8239850I12500J0D01*
G01*
X15652500Y-6875000D02*
G75*
G02*
X15627500Y-6875000I-12500J0D01*
G01*
X15627500Y-6875000D02*
G75*
G02*
X15652500Y-6875000I12500J0D01*
G01*
X15762500Y-7760000D02*
G75*
G02*
X15737500Y-7760000I-12500J0D01*
G01*
X15737500Y-7760000D02*
G75*
G02*
X15762500Y-7760000I12500J0D01*
G01*
X16029986Y-8979850D02*
G75*
G02*
X16004986Y-8979850I-12500J0D01*
G01*
X16004986Y-8979850D02*
G75*
G02*
X16029986Y-8979850I12500J0D01*
G01*
X16549986Y-8449850D02*
G75*
G02*
X16524986Y-8449850I-12500J0D01*
G01*
X16524986Y-8449850D02*
G75*
G02*
X16549986Y-8449850I12500J0D01*
G01*
X16549986Y-8924850D02*
G75*
G02*
X16524986Y-8924850I-12500J0D01*
G01*
X16524986Y-8924850D02*
G75*
G02*
X16549986Y-8924850I12500J0D01*
G01*
X16869986Y-8965550D02*
G75*
G02*
X16844986Y-8965550I-12500J0D01*
G01*
X16844986Y-8965550D02*
G75*
G02*
X16869986Y-8965550I12500J0D01*
G01*
X17051200Y-9488097D02*
G75*
G02*
X17026200Y-9488097I-12500J0D01*
G01*
X17026200Y-9488097D02*
G75*
G02*
X17051200Y-9488097I12500J0D01*
G01*
X18094986Y-9569850D02*
G75*
G02*
X18069986Y-9569850I-12500J0D01*
G01*
X18069986Y-9569850D02*
G75*
G02*
X18094986Y-9569850I12500J0D01*
G01*
X11248000Y-7945000D02*
X11248000Y-7975000D01*
X11233000Y-7960000D02*
X11263000Y-7960000D01*
X11602486Y-8299850D02*
X11602486Y-8329850D01*
X11587486Y-8314850D02*
X11617486Y-8314850D01*
X11622486Y-8134850D02*
X11622486Y-8164850D01*
X11607486Y-8149850D02*
X11637486Y-8149850D01*
X11642486Y-8439850D02*
X11642486Y-8469850D01*
X11627486Y-8454850D02*
X11657486Y-8454850D01*
X11667486Y-7675000D02*
X11667486Y-7705000D01*
X11652486Y-7690000D02*
X11682486Y-7690000D01*
X11687486Y-8009850D02*
X11687486Y-8039850D01*
X11672486Y-8024850D02*
X11702486Y-8024850D01*
X11722486Y-8554850D02*
X11722486Y-8584850D01*
X11707486Y-8569850D02*
X11737486Y-8569850D01*
X11742486Y-8229850D02*
X11742486Y-8259850D01*
X11727486Y-8244850D02*
X11757486Y-8244850D01*
X11797486Y-7919850D02*
X11797486Y-7949850D01*
X11782486Y-7934850D02*
X11812486Y-7934850D01*
X11802486Y-8429850D02*
X11802486Y-8459850D01*
X11787486Y-8444850D02*
X11817486Y-8444850D01*
X11822486Y-8619850D02*
X11822486Y-8649850D01*
X11807486Y-8634850D02*
X11837486Y-8634850D01*
X11827486Y-8069850D02*
X11827486Y-8099850D01*
X11812486Y-8084850D02*
X11842486Y-8084850D01*
X11898000Y-7325000D02*
X11898000Y-7355000D01*
X11883000Y-7340000D02*
X11913000Y-7340000D01*
X11898000Y-8865000D02*
X11898000Y-8895000D01*
X11883000Y-8880000D02*
X11913000Y-8880000D01*
X11990500Y-7325000D02*
X11990500Y-7355000D01*
X11975500Y-7340000D02*
X12005500Y-7340000D01*
X11990500Y-8865000D02*
X11990500Y-8895000D01*
X11975500Y-8880000D02*
X12005500Y-8880000D01*
X12083000Y-7325000D02*
X12083000Y-7355000D01*
X12068000Y-7340000D02*
X12098000Y-7340000D01*
X12083000Y-8865000D02*
X12083000Y-8895000D01*
X12068000Y-8880000D02*
X12098000Y-8880000D01*
X12152486Y-8069850D02*
X12152486Y-8099850D01*
X12137486Y-8084850D02*
X12167486Y-8084850D01*
X12152486Y-8619850D02*
X12152486Y-8649850D01*
X12137486Y-8634850D02*
X12167486Y-8634850D01*
X12172486Y-8429850D02*
X12172486Y-8459850D01*
X12157486Y-8444850D02*
X12187486Y-8444850D01*
X12197486Y-7919850D02*
X12197486Y-7949850D01*
X12182486Y-7934850D02*
X12212486Y-7934850D01*
X12237486Y-8229850D02*
X12237486Y-8259850D01*
X12222486Y-8244850D02*
X12252486Y-8244850D01*
X12267486Y-8554850D02*
X12267486Y-8584850D01*
X12252486Y-8569850D02*
X12282486Y-8569850D01*
X12312486Y-8009850D02*
X12312486Y-8039850D01*
X12297486Y-8024850D02*
X12327486Y-8024850D01*
X12352486Y-8439850D02*
X12352486Y-8469850D01*
X12337486Y-8454850D02*
X12367486Y-8454850D01*
X12377486Y-8134850D02*
X12377486Y-8164850D01*
X12362486Y-8149850D02*
X12392486Y-8149850D01*
X12392486Y-8299850D02*
X12392486Y-8329850D01*
X12377486Y-8314850D02*
X12407486Y-8314850D01*
X12405000Y-7675000D02*
X12405000Y-7705000D01*
X12390000Y-7690000D02*
X12420000Y-7690000D01*
X12675000Y-8958850D02*
X12675000Y-8988850D01*
X12660000Y-8973850D02*
X12690000Y-8973850D01*
X14992486Y-7445500D02*
X14992486Y-7475500D01*
X14977486Y-7460500D02*
X15007486Y-7460500D01*
X17437486Y-8950550D02*
X17437486Y-8980550D01*
X17422486Y-8965550D02*
X17452486Y-8965550D01*
X17640850Y-9114850D02*
X17640850Y-9144850D01*
X17625850Y-9129850D02*
X17655850Y-9129850D01*
X15945467Y-9445331D02*
X15945467Y-9399369D01*
X15899504Y-9399369D01*
X15899504Y-9445331D01*
X15945467Y-9445331D01*
X15889986Y-9372350D02*
X15889986Y-9472350D01*
X15954986Y-9472350D02*
G75*
G02*
X15889986Y-9472350I-32500J0D01*
G01*
X15954986Y-9472350D02*
X15954986Y-9372350D01*
X15954986Y-9372350D02*
G75*
G03*
X15889986Y-9372350I-32500J0D01*
G01*
X15945467Y-9827831D02*
X15945467Y-9781869D01*
X15899504Y-9781869D01*
X15899504Y-9827831D01*
X15945467Y-9827831D01*
X15889986Y-9739850D02*
X15889986Y-9869850D01*
X15954986Y-9869850D02*
G75*
G02*
X15889986Y-9869850I-32500J0D01*
G01*
X15954986Y-9869850D02*
X15954986Y-9739850D01*
X15954986Y-9739850D02*
G75*
G03*
X15889986Y-9739850I-32500J0D01*
G01*
X16809467Y-9445331D02*
X16809467Y-9399369D01*
X16763504Y-9399369D01*
X16763504Y-9445331D01*
X16809467Y-9445331D01*
X16753986Y-9372350D02*
X16753986Y-9472350D01*
X16818986Y-9472350D02*
G75*
G02*
X16753986Y-9472350I-32500J0D01*
G01*
X16818986Y-9472350D02*
X16818986Y-9372350D01*
X16818986Y-9372350D02*
G75*
G03*
X16753986Y-9372350I-32500J0D01*
G01*
X16809467Y-9827831D02*
X16809467Y-9781869D01*
X16763504Y-9781869D01*
X16763504Y-9827831D01*
X16809467Y-9827831D01*
X16753986Y-9739850D02*
X16753986Y-9869850D01*
X16818986Y-9869850D02*
G75*
G02*
X16753986Y-9869850I-32500J0D01*
G01*
X16818986Y-9869850D02*
X16818986Y-9739850D01*
X16818986Y-9739850D02*
G75*
G03*
X16753986Y-9739850I-32500J0D01*
G01*
X18598000Y-7884000D02*
X18648000Y-7834000D01*
X18598000Y-7784000D01*
X18548000Y-7834000D01*
X18598000Y-7884000D01*
X18598000Y-8113000D02*
X18648000Y-8063000D01*
X18598000Y-8013000D01*
X18548000Y-8063000D01*
X18598000Y-8113000D01*
X18598000Y-8342000D02*
X18648000Y-8292000D01*
X18598000Y-8242000D01*
X18548000Y-8292000D01*
X18598000Y-8342000D01*
X18598000Y-8571000D02*
X18648000Y-8521000D01*
X18598000Y-8471000D01*
X18548000Y-8521000D01*
X18598000Y-8571000D01*
X18598000Y-8800000D02*
X18648000Y-8750000D01*
X18598000Y-8700000D01*
X18548000Y-8750000D01*
X18598000Y-8800000D01*
X18852000Y-7769500D02*
X18902000Y-7719500D01*
X18852000Y-7669500D01*
X18802000Y-7719500D01*
X18852000Y-7769500D01*
X18852000Y-7998500D02*
X18902000Y-7948500D01*
X18852000Y-7898500D01*
X18802000Y-7948500D01*
X18852000Y-7998500D01*
X18852000Y-8227500D02*
X18902000Y-8177500D01*
X18852000Y-8127500D01*
X18802000Y-8177500D01*
X18852000Y-8227500D01*
X18852000Y-8456500D02*
X18902000Y-8406500D01*
X18852000Y-8356500D01*
X18802000Y-8406500D01*
X18852000Y-8456500D01*
X18852000Y-8685500D02*
X18902000Y-8635500D01*
X18852000Y-8585500D01*
X18802000Y-8635500D01*
X18852000Y-8685500D01*
X19106000Y-7884000D02*
X19156000Y-7834000D01*
X19106000Y-7784000D01*
X19056000Y-7834000D01*
X19106000Y-7884000D01*
X19106000Y-8113000D02*
X19156000Y-8063000D01*
X19106000Y-8013000D01*
X19056000Y-8063000D01*
X19106000Y-8113000D01*
X19106000Y-8342000D02*
X19156000Y-8292000D01*
X19106000Y-8242000D01*
X19056000Y-8292000D01*
X19106000Y-8342000D01*
X19106000Y-8571000D02*
X19156000Y-8521000D01*
X19106000Y-8471000D01*
X19056000Y-8521000D01*
X19106000Y-8571000D01*
X19106000Y-8800000D02*
X19156000Y-8750000D01*
X19106000Y-8700000D01*
X19056000Y-8750000D01*
X19106000Y-8800000D01*
D13*
X12904120Y-9772820D02*
X13015880Y-9884580D01*
X13015880Y-9772820D02*
X12904120Y-9884580D01*
X13015880Y-9828700D02*
G75*
G02*
X12904120Y-9828700I-55880J0D01*
G01*
X12904120Y-9828700D02*
G75*
G02*
X13015880Y-9828700I55880J0D01*
G01*
X13158120Y-9772820D02*
X13269880Y-9884580D01*
X13269880Y-9772820D02*
X13158120Y-9884580D01*
X13269880Y-9828700D02*
G75*
G02*
X13158120Y-9828700I-55880J0D01*
G01*
X13158120Y-9828700D02*
G75*
G02*
X13269880Y-9828700I55880J0D01*
G01*
X13412120Y-9772820D02*
X13523880Y-9884580D01*
X13523880Y-9772820D02*
X13412120Y-9884580D01*
X13523880Y-9828700D02*
G75*
G02*
X13412120Y-9828700I-55880J0D01*
G01*
X13412120Y-9828700D02*
G75*
G02*
X13523880Y-9828700I55880J0D01*
G01*
X13666120Y-9772820D02*
X13777880Y-9884580D01*
X13777880Y-9772820D02*
X13666120Y-9884580D01*
X13777880Y-9828700D02*
G75*
G02*
X13666120Y-9828700I-55880J0D01*
G01*
X13666120Y-9828700D02*
G75*
G02*
X13777880Y-9828700I55880J0D01*
G01*
X13920120Y-9772820D02*
X14031880Y-9884580D01*
X14031880Y-9772820D02*
X13920120Y-9884580D01*
X14031880Y-9828700D02*
G75*
G02*
X13920120Y-9828700I-55880J0D01*
G01*
X13920120Y-9828700D02*
G75*
G02*
X14031880Y-9828700I55880J0D01*
G01*
X14174120Y-9772820D02*
X14285880Y-9884580D01*
X14285880Y-9772820D02*
X14174120Y-9884580D01*
X14285880Y-9828700D02*
G75*
G02*
X14174120Y-9828700I-55880J0D01*
G01*
X14174120Y-9828700D02*
G75*
G02*
X14285880Y-9828700I55880J0D01*
G01*
D14*
X10400000Y-8800000D02*
X10540000Y-8940000D01*
X10540000Y-8800000D02*
X10400000Y-8940000D01*
X10470000Y-8800000D02*
X10470000Y-8940000D01*
X10400000Y-8870000D02*
X10540000Y-8870000D01*
D15*
X10132500Y-8532500D02*
X10292500Y-8692500D01*
X10292500Y-8532500D02*
X10132500Y-8692500D01*
X10269069Y-8669069D02*
X10269069Y-8555931D01*
X10155931Y-8555931D01*
X10155931Y-8669069D01*
X10269069Y-8669069D01*
X10132500Y-9047500D02*
X10292500Y-9207500D01*
X10292500Y-9047500D02*
X10132500Y-9207500D01*
X10269069Y-9184069D02*
X10269069Y-9070931D01*
X10155931Y-9070931D01*
X10155931Y-9184069D01*
X10269069Y-9184069D01*
X10647500Y-8532500D02*
X10807500Y-8692500D01*
X10807500Y-8532500D02*
X10647500Y-8692500D01*
X10784069Y-8669069D02*
X10784069Y-8555931D01*
X10670931Y-8555931D01*
X10670931Y-8669069D01*
X10784069Y-8669069D01*
X10647500Y-9047500D02*
X10807500Y-9207500D01*
X10807500Y-9047500D02*
X10647500Y-9207500D01*
X10784069Y-9184069D02*
X10784069Y-9070931D01*
X10670931Y-9070931D01*
X10670931Y-9184069D01*
X10784069Y-9184069D01*
D11*
X10258277Y-11033984D02*
X10258277Y-10833984D01*
X10258277Y-10833984D02*
X10305896Y-10833984D01*
X10305896Y-10833984D02*
X10334467Y-10843508D01*
X10334467Y-10843508D02*
X10353515Y-10862555D01*
X10353515Y-10862555D02*
X10363039Y-10881603D01*
X10363039Y-10881603D02*
X10372563Y-10919698D01*
X10372563Y-10919698D02*
X10372563Y-10948270D01*
X10372563Y-10948270D02*
X10363039Y-10986365D01*
X10363039Y-10986365D02*
X10353515Y-11005412D01*
X10353515Y-11005412D02*
X10334467Y-11024460D01*
X10334467Y-11024460D02*
X10305896Y-11033984D01*
X10305896Y-11033984D02*
X10258277Y-11033984D01*
X10458277Y-11033984D02*
X10458277Y-10900650D01*
X10458277Y-10938746D02*
X10467801Y-10919698D01*
X10467801Y-10919698D02*
X10477324Y-10910174D01*
X10477324Y-10910174D02*
X10496372Y-10900650D01*
X10496372Y-10900650D02*
X10515420Y-10900650D01*
X10582086Y-11033984D02*
X10582086Y-10900650D01*
X10582086Y-10833984D02*
X10572563Y-10843508D01*
X10572563Y-10843508D02*
X10582086Y-10853031D01*
X10582086Y-10853031D02*
X10591610Y-10843508D01*
X10591610Y-10843508D02*
X10582086Y-10833984D01*
X10582086Y-10833984D02*
X10582086Y-10853031D01*
X10705896Y-11033984D02*
X10686848Y-11024460D01*
X10686848Y-11024460D02*
X10677324Y-11005412D01*
X10677324Y-11005412D02*
X10677324Y-10833984D01*
X10810658Y-11033984D02*
X10791610Y-11024460D01*
X10791610Y-11024460D02*
X10782086Y-11005412D01*
X10782086Y-11005412D02*
X10782086Y-10833984D01*
X11039229Y-11033984D02*
X11039229Y-10833984D01*
X11039229Y-10833984D02*
X11105896Y-10976841D01*
X11105896Y-10976841D02*
X11172563Y-10833984D01*
X11172563Y-10833984D02*
X11172563Y-11033984D01*
X11353515Y-11033984D02*
X11353515Y-10929222D01*
X11353515Y-10929222D02*
X11343991Y-10910174D01*
X11343991Y-10910174D02*
X11324943Y-10900650D01*
X11324943Y-10900650D02*
X11286848Y-10900650D01*
X11286848Y-10900650D02*
X11267801Y-10910174D01*
X11353515Y-11024460D02*
X11334467Y-11033984D01*
X11334467Y-11033984D02*
X11286848Y-11033984D01*
X11286848Y-11033984D02*
X11267801Y-11024460D01*
X11267801Y-11024460D02*
X11258277Y-11005412D01*
X11258277Y-11005412D02*
X11258277Y-10986365D01*
X11258277Y-10986365D02*
X11267801Y-10967317D01*
X11267801Y-10967317D02*
X11286848Y-10957793D01*
X11286848Y-10957793D02*
X11334467Y-10957793D01*
X11334467Y-10957793D02*
X11353515Y-10948270D01*
X11448753Y-10900650D02*
X11448753Y-11100650D01*
X11448753Y-10910174D02*
X11467801Y-10900650D01*
X11467801Y-10900650D02*
X11505896Y-10900650D01*
X11505896Y-10900650D02*
X11524943Y-10910174D01*
X11524943Y-10910174D02*
X11534467Y-10919698D01*
X11534467Y-10919698D02*
X11543991Y-10938746D01*
X11543991Y-10938746D02*
X11543991Y-10995889D01*
X11543991Y-10995889D02*
X11534467Y-11014936D01*
X11534467Y-11014936D02*
X11524943Y-11024460D01*
X11524943Y-11024460D02*
X11505896Y-11033984D01*
X11505896Y-11033984D02*
X11467801Y-11033984D01*
X11467801Y-11033984D02*
X11448753Y-11024460D01*
X11629705Y-11014936D02*
X11639229Y-11024460D01*
X11639229Y-11024460D02*
X11629705Y-11033984D01*
X11629705Y-11033984D02*
X11620182Y-11024460D01*
X11620182Y-11024460D02*
X11629705Y-11014936D01*
X11629705Y-11014936D02*
X11629705Y-11033984D01*
X11629705Y-10910174D02*
X11639229Y-10919698D01*
X11639229Y-10919698D02*
X11629705Y-10929222D01*
X11629705Y-10929222D02*
X11620182Y-10919698D01*
X11620182Y-10919698D02*
X11629705Y-10910174D01*
X11629705Y-10910174D02*
X11629705Y-10929222D01*
D12*
X9977500Y-11352500D02*
X9997500Y-11372500D01*
X9997500Y-11352500D02*
X9977500Y-11372500D01*
D11*
X10296372Y-11253984D02*
X10315420Y-11253984D01*
X10315420Y-11253984D02*
X10334467Y-11263508D01*
X10334467Y-11263508D02*
X10343991Y-11273031D01*
X10343991Y-11273031D02*
X10353515Y-11292079D01*
X10353515Y-11292079D02*
X10363039Y-11330174D01*
X10363039Y-11330174D02*
X10363039Y-11377793D01*
X10363039Y-11377793D02*
X10353515Y-11415888D01*
X10353515Y-11415888D02*
X10343991Y-11434936D01*
X10343991Y-11434936D02*
X10334467Y-11444460D01*
X10334467Y-11444460D02*
X10315420Y-11453984D01*
X10315420Y-11453984D02*
X10296372Y-11453984D01*
X10296372Y-11453984D02*
X10277324Y-11444460D01*
X10277324Y-11444460D02*
X10267801Y-11434936D01*
X10267801Y-11434936D02*
X10258277Y-11415888D01*
X10258277Y-11415888D02*
X10248753Y-11377793D01*
X10248753Y-11377793D02*
X10248753Y-11330174D01*
X10248753Y-11330174D02*
X10258277Y-11292079D01*
X10258277Y-11292079D02*
X10267801Y-11273031D01*
X10267801Y-11273031D02*
X10277324Y-11263508D01*
X10277324Y-11263508D02*
X10296372Y-11253984D01*
X10448753Y-11434936D02*
X10458277Y-11444460D01*
X10458277Y-11444460D02*
X10448753Y-11453984D01*
X10448753Y-11453984D02*
X10439229Y-11444460D01*
X10439229Y-11444460D02*
X10448753Y-11434936D01*
X10448753Y-11434936D02*
X10448753Y-11453984D01*
X10534467Y-11273031D02*
X10543991Y-11263508D01*
X10543991Y-11263508D02*
X10563039Y-11253984D01*
X10563039Y-11253984D02*
X10610658Y-11253984D01*
X10610658Y-11253984D02*
X10629705Y-11263508D01*
X10629705Y-11263508D02*
X10639229Y-11273031D01*
X10639229Y-11273031D02*
X10648753Y-11292079D01*
X10648753Y-11292079D02*
X10648753Y-11311127D01*
X10648753Y-11311127D02*
X10639229Y-11339698D01*
X10639229Y-11339698D02*
X10524944Y-11453984D01*
X10524944Y-11453984D02*
X10648753Y-11453984D01*
X10772563Y-11253984D02*
X10791610Y-11253984D01*
X10791610Y-11253984D02*
X10810658Y-11263508D01*
X10810658Y-11263508D02*
X10820182Y-11273031D01*
X10820182Y-11273031D02*
X10829705Y-11292079D01*
X10829705Y-11292079D02*
X10839229Y-11330174D01*
X10839229Y-11330174D02*
X10839229Y-11377793D01*
X10839229Y-11377793D02*
X10829705Y-11415888D01*
X10829705Y-11415888D02*
X10820182Y-11434936D01*
X10820182Y-11434936D02*
X10810658Y-11444460D01*
X10810658Y-11444460D02*
X10791610Y-11453984D01*
X10791610Y-11453984D02*
X10772563Y-11453984D01*
X10772563Y-11453984D02*
X10753515Y-11444460D01*
X10753515Y-11444460D02*
X10743991Y-11434936D01*
X10743991Y-11434936D02*
X10734467Y-11415888D01*
X10734467Y-11415888D02*
X10724944Y-11377793D01*
X10724944Y-11377793D02*
X10724944Y-11330174D01*
X10724944Y-11330174D02*
X10734467Y-11292079D01*
X10734467Y-11292079D02*
X10743991Y-11273031D01*
X10743991Y-11273031D02*
X10753515Y-11263508D01*
X10753515Y-11263508D02*
X10772563Y-11253984D01*
X10963039Y-11253984D02*
X10982086Y-11253984D01*
X10982086Y-11253984D02*
X11001134Y-11263508D01*
X11001134Y-11263508D02*
X11010658Y-11273031D01*
X11010658Y-11273031D02*
X11020182Y-11292079D01*
X11020182Y-11292079D02*
X11029705Y-11330174D01*
X11029705Y-11330174D02*
X11029705Y-11377793D01*
X11029705Y-11377793D02*
X11020182Y-11415888D01*
X11020182Y-11415888D02*
X11010658Y-11434936D01*
X11010658Y-11434936D02*
X11001134Y-11444460D01*
X11001134Y-11444460D02*
X10982086Y-11453984D01*
X10982086Y-11453984D02*
X10963039Y-11453984D01*
X10963039Y-11453984D02*
X10943991Y-11444460D01*
X10943991Y-11444460D02*
X10934467Y-11434936D01*
X10934467Y-11434936D02*
X10924944Y-11415888D01*
X10924944Y-11415888D02*
X10915420Y-11377793D01*
X10915420Y-11377793D02*
X10915420Y-11330174D01*
X10915420Y-11330174D02*
X10924944Y-11292079D01*
X10924944Y-11292079D02*
X10934467Y-11273031D01*
X10934467Y-11273031D02*
X10943991Y-11263508D01*
X10943991Y-11263508D02*
X10963039Y-11253984D01*
X11115420Y-11453984D02*
X11115420Y-11320650D01*
X11115420Y-11339698D02*
X11124944Y-11330174D01*
X11124944Y-11330174D02*
X11143991Y-11320650D01*
X11143991Y-11320650D02*
X11172563Y-11320650D01*
X11172563Y-11320650D02*
X11191610Y-11330174D01*
X11191610Y-11330174D02*
X11201134Y-11349222D01*
X11201134Y-11349222D02*
X11201134Y-11453984D01*
X11201134Y-11349222D02*
X11210658Y-11330174D01*
X11210658Y-11330174D02*
X11229705Y-11320650D01*
X11229705Y-11320650D02*
X11258277Y-11320650D01*
X11258277Y-11320650D02*
X11277324Y-11330174D01*
X11277324Y-11330174D02*
X11286848Y-11349222D01*
X11286848Y-11349222D02*
X11286848Y-11453984D01*
X11382086Y-11453984D02*
X11382086Y-11320650D01*
X11382086Y-11339698D02*
X11391610Y-11330174D01*
X11391610Y-11330174D02*
X11410658Y-11320650D01*
X11410658Y-11320650D02*
X11439229Y-11320650D01*
X11439229Y-11320650D02*
X11458277Y-11330174D01*
X11458277Y-11330174D02*
X11467801Y-11349222D01*
X11467801Y-11349222D02*
X11467801Y-11453984D01*
X11467801Y-11349222D02*
X11477324Y-11330174D01*
X11477324Y-11330174D02*
X11496372Y-11320650D01*
X11496372Y-11320650D02*
X11524943Y-11320650D01*
X11524943Y-11320650D02*
X11543991Y-11330174D01*
X11543991Y-11330174D02*
X11553515Y-11349222D01*
X11553515Y-11349222D02*
X11553515Y-11453984D01*
X11943991Y-11244460D02*
X11772563Y-11501603D01*
X12201134Y-11253984D02*
X12220182Y-11253984D01*
X12220182Y-11253984D02*
X12239229Y-11263508D01*
X12239229Y-11263508D02*
X12248753Y-11273031D01*
X12248753Y-11273031D02*
X12258277Y-11292079D01*
X12258277Y-11292079D02*
X12267801Y-11330174D01*
X12267801Y-11330174D02*
X12267801Y-11377793D01*
X12267801Y-11377793D02*
X12258277Y-11415888D01*
X12258277Y-11415888D02*
X12248753Y-11434936D01*
X12248753Y-11434936D02*
X12239229Y-11444460D01*
X12239229Y-11444460D02*
X12220182Y-11453984D01*
X12220182Y-11453984D02*
X12201134Y-11453984D01*
X12201134Y-11453984D02*
X12182086Y-11444460D01*
X12182086Y-11444460D02*
X12172563Y-11434936D01*
X12172563Y-11434936D02*
X12163039Y-11415888D01*
X12163039Y-11415888D02*
X12153515Y-11377793D01*
X12153515Y-11377793D02*
X12153515Y-11330174D01*
X12153515Y-11330174D02*
X12163039Y-11292079D01*
X12163039Y-11292079D02*
X12172563Y-11273031D01*
X12172563Y-11273031D02*
X12182086Y-11263508D01*
X12182086Y-11263508D02*
X12201134Y-11253984D01*
X12353515Y-11434936D02*
X12363039Y-11444460D01*
X12363039Y-11444460D02*
X12353515Y-11453984D01*
X12353515Y-11453984D02*
X12343991Y-11444460D01*
X12343991Y-11444460D02*
X12353515Y-11434936D01*
X12353515Y-11434936D02*
X12353515Y-11453984D01*
X12486848Y-11253984D02*
X12505896Y-11253984D01*
X12505896Y-11253984D02*
X12524944Y-11263508D01*
X12524944Y-11263508D02*
X12534467Y-11273031D01*
X12534467Y-11273031D02*
X12543991Y-11292079D01*
X12543991Y-11292079D02*
X12553515Y-11330174D01*
X12553515Y-11330174D02*
X12553515Y-11377793D01*
X12553515Y-11377793D02*
X12543991Y-11415888D01*
X12543991Y-11415888D02*
X12534467Y-11434936D01*
X12534467Y-11434936D02*
X12524944Y-11444460D01*
X12524944Y-11444460D02*
X12505896Y-11453984D01*
X12505896Y-11453984D02*
X12486848Y-11453984D01*
X12486848Y-11453984D02*
X12467801Y-11444460D01*
X12467801Y-11444460D02*
X12458277Y-11434936D01*
X12458277Y-11434936D02*
X12448753Y-11415888D01*
X12448753Y-11415888D02*
X12439229Y-11377793D01*
X12439229Y-11377793D02*
X12439229Y-11330174D01*
X12439229Y-11330174D02*
X12448753Y-11292079D01*
X12448753Y-11292079D02*
X12458277Y-11273031D01*
X12458277Y-11273031D02*
X12467801Y-11263508D01*
X12467801Y-11263508D02*
X12486848Y-11253984D01*
X12677325Y-11253984D02*
X12696372Y-11253984D01*
X12696372Y-11253984D02*
X12715420Y-11263508D01*
X12715420Y-11263508D02*
X12724944Y-11273031D01*
X12724944Y-11273031D02*
X12734467Y-11292079D01*
X12734467Y-11292079D02*
X12743991Y-11330174D01*
X12743991Y-11330174D02*
X12743991Y-11377793D01*
X12743991Y-11377793D02*
X12734467Y-11415888D01*
X12734467Y-11415888D02*
X12724944Y-11434936D01*
X12724944Y-11434936D02*
X12715420Y-11444460D01*
X12715420Y-11444460D02*
X12696372Y-11453984D01*
X12696372Y-11453984D02*
X12677325Y-11453984D01*
X12677325Y-11453984D02*
X12658277Y-11444460D01*
X12658277Y-11444460D02*
X12648753Y-11434936D01*
X12648753Y-11434936D02*
X12639229Y-11415888D01*
X12639229Y-11415888D02*
X12629706Y-11377793D01*
X12629706Y-11377793D02*
X12629706Y-11330174D01*
X12629706Y-11330174D02*
X12639229Y-11292079D01*
X12639229Y-11292079D02*
X12648753Y-11273031D01*
X12648753Y-11273031D02*
X12658277Y-11263508D01*
X12658277Y-11263508D02*
X12677325Y-11253984D01*
X12810658Y-11253984D02*
X12943991Y-11253984D01*
X12943991Y-11253984D02*
X12858277Y-11453984D01*
X13029706Y-11453984D02*
X13067801Y-11453984D01*
X13067801Y-11453984D02*
X13086848Y-11444460D01*
X13086848Y-11444460D02*
X13096372Y-11434936D01*
X13096372Y-11434936D02*
X13115420Y-11406365D01*
X13115420Y-11406365D02*
X13124944Y-11368269D01*
X13124944Y-11368269D02*
X13124944Y-11292079D01*
X13124944Y-11292079D02*
X13115420Y-11273031D01*
X13115420Y-11273031D02*
X13105896Y-11263508D01*
X13105896Y-11263508D02*
X13086848Y-11253984D01*
X13086848Y-11253984D02*
X13048753Y-11253984D01*
X13048753Y-11253984D02*
X13029706Y-11263508D01*
X13029706Y-11263508D02*
X13020182Y-11273031D01*
X13020182Y-11273031D02*
X13010658Y-11292079D01*
X13010658Y-11292079D02*
X13010658Y-11339698D01*
X13010658Y-11339698D02*
X13020182Y-11358746D01*
X13020182Y-11358746D02*
X13029706Y-11368269D01*
X13029706Y-11368269D02*
X13048753Y-11377793D01*
X13048753Y-11377793D02*
X13086848Y-11377793D01*
X13086848Y-11377793D02*
X13105896Y-11368269D01*
X13105896Y-11368269D02*
X13115420Y-11358746D01*
X13115420Y-11358746D02*
X13124944Y-11339698D01*
X13201134Y-11253984D02*
X13201134Y-11292079D01*
X13277325Y-11253984D02*
X13277325Y-11292079D01*
X13572563Y-11530174D02*
X13563039Y-11520650D01*
X13563039Y-11520650D02*
X13543991Y-11492079D01*
X13543991Y-11492079D02*
X13534468Y-11473031D01*
X13534468Y-11473031D02*
X13524944Y-11444460D01*
X13524944Y-11444460D02*
X13515420Y-11396841D01*
X13515420Y-11396841D02*
X13515420Y-11358746D01*
X13515420Y-11358746D02*
X13524944Y-11311127D01*
X13524944Y-11311127D02*
X13534468Y-11282555D01*
X13534468Y-11282555D02*
X13543991Y-11263508D01*
X13543991Y-11263508D02*
X13563039Y-11234936D01*
X13563039Y-11234936D02*
X13572563Y-11225412D01*
X13743991Y-11253984D02*
X13648753Y-11253984D01*
X13648753Y-11253984D02*
X13639229Y-11349222D01*
X13639229Y-11349222D02*
X13648753Y-11339698D01*
X13648753Y-11339698D02*
X13667801Y-11330174D01*
X13667801Y-11330174D02*
X13715420Y-11330174D01*
X13715420Y-11330174D02*
X13734468Y-11339698D01*
X13734468Y-11339698D02*
X13743991Y-11349222D01*
X13743991Y-11349222D02*
X13753515Y-11368269D01*
X13753515Y-11368269D02*
X13753515Y-11415888D01*
X13753515Y-11415888D02*
X13743991Y-11434936D01*
X13743991Y-11434936D02*
X13734468Y-11444460D01*
X13734468Y-11444460D02*
X13715420Y-11453984D01*
X13715420Y-11453984D02*
X13667801Y-11453984D01*
X13667801Y-11453984D02*
X13648753Y-11444460D01*
X13648753Y-11444460D02*
X13639229Y-11434936D01*
X13924944Y-11320650D02*
X13924944Y-11453984D01*
X13877325Y-11244460D02*
X13829706Y-11387317D01*
X13829706Y-11387317D02*
X13953515Y-11387317D01*
X14115420Y-11253984D02*
X14077325Y-11253984D01*
X14077325Y-11253984D02*
X14058277Y-11263508D01*
X14058277Y-11263508D02*
X14048753Y-11273031D01*
X14048753Y-11273031D02*
X14029706Y-11301603D01*
X14029706Y-11301603D02*
X14020182Y-11339698D01*
X14020182Y-11339698D02*
X14020182Y-11415888D01*
X14020182Y-11415888D02*
X14029706Y-11434936D01*
X14029706Y-11434936D02*
X14039229Y-11444460D01*
X14039229Y-11444460D02*
X14058277Y-11453984D01*
X14058277Y-11453984D02*
X14096372Y-11453984D01*
X14096372Y-11453984D02*
X14115420Y-11444460D01*
X14115420Y-11444460D02*
X14124944Y-11434936D01*
X14124944Y-11434936D02*
X14134468Y-11415888D01*
X14134468Y-11415888D02*
X14134468Y-11368269D01*
X14134468Y-11368269D02*
X14124944Y-11349222D01*
X14124944Y-11349222D02*
X14115420Y-11339698D01*
X14115420Y-11339698D02*
X14096372Y-11330174D01*
X14096372Y-11330174D02*
X14058277Y-11330174D01*
X14058277Y-11330174D02*
X14039229Y-11339698D01*
X14039229Y-11339698D02*
X14029706Y-11349222D01*
X14029706Y-11349222D02*
X14020182Y-11368269D01*
X14372563Y-11453984D02*
X14372563Y-11253984D01*
X14458277Y-11453984D02*
X14458277Y-11349222D01*
X14458277Y-11349222D02*
X14448753Y-11330174D01*
X14448753Y-11330174D02*
X14429706Y-11320650D01*
X14429706Y-11320650D02*
X14401134Y-11320650D01*
X14401134Y-11320650D02*
X14382087Y-11330174D01*
X14382087Y-11330174D02*
X14372563Y-11339698D01*
X14582087Y-11453984D02*
X14563039Y-11444460D01*
X14563039Y-11444460D02*
X14553515Y-11434936D01*
X14553515Y-11434936D02*
X14543991Y-11415888D01*
X14543991Y-11415888D02*
X14543991Y-11358746D01*
X14543991Y-11358746D02*
X14553515Y-11339698D01*
X14553515Y-11339698D02*
X14563039Y-11330174D01*
X14563039Y-11330174D02*
X14582087Y-11320650D01*
X14582087Y-11320650D02*
X14610658Y-11320650D01*
X14610658Y-11320650D02*
X14629706Y-11330174D01*
X14629706Y-11330174D02*
X14639230Y-11339698D01*
X14639230Y-11339698D02*
X14648753Y-11358746D01*
X14648753Y-11358746D02*
X14648753Y-11415888D01*
X14648753Y-11415888D02*
X14639230Y-11434936D01*
X14639230Y-11434936D02*
X14629706Y-11444460D01*
X14629706Y-11444460D02*
X14610658Y-11453984D01*
X14610658Y-11453984D02*
X14582087Y-11453984D01*
X14763039Y-11453984D02*
X14743991Y-11444460D01*
X14743991Y-11444460D02*
X14734468Y-11425412D01*
X14734468Y-11425412D02*
X14734468Y-11253984D01*
X14915420Y-11444460D02*
X14896372Y-11453984D01*
X14896372Y-11453984D02*
X14858277Y-11453984D01*
X14858277Y-11453984D02*
X14839230Y-11444460D01*
X14839230Y-11444460D02*
X14829706Y-11425412D01*
X14829706Y-11425412D02*
X14829706Y-11349222D01*
X14829706Y-11349222D02*
X14839230Y-11330174D01*
X14839230Y-11330174D02*
X14858277Y-11320650D01*
X14858277Y-11320650D02*
X14896372Y-11320650D01*
X14896372Y-11320650D02*
X14915420Y-11330174D01*
X14915420Y-11330174D02*
X14924944Y-11349222D01*
X14924944Y-11349222D02*
X14924944Y-11368269D01*
X14924944Y-11368269D02*
X14829706Y-11387317D01*
X15001134Y-11444460D02*
X15020182Y-11453984D01*
X15020182Y-11453984D02*
X15058277Y-11453984D01*
X15058277Y-11453984D02*
X15077325Y-11444460D01*
X15077325Y-11444460D02*
X15086849Y-11425412D01*
X15086849Y-11425412D02*
X15086849Y-11415888D01*
X15086849Y-11415888D02*
X15077325Y-11396841D01*
X15077325Y-11396841D02*
X15058277Y-11387317D01*
X15058277Y-11387317D02*
X15029706Y-11387317D01*
X15029706Y-11387317D02*
X15010658Y-11377793D01*
X15010658Y-11377793D02*
X15001134Y-11358746D01*
X15001134Y-11358746D02*
X15001134Y-11349222D01*
X15001134Y-11349222D02*
X15010658Y-11330174D01*
X15010658Y-11330174D02*
X15029706Y-11320650D01*
X15029706Y-11320650D02*
X15058277Y-11320650D01*
X15058277Y-11320650D02*
X15077325Y-11330174D01*
X15153515Y-11530174D02*
X15163039Y-11520650D01*
X15163039Y-11520650D02*
X15182087Y-11492079D01*
X15182087Y-11492079D02*
X15191611Y-11473031D01*
X15191611Y-11473031D02*
X15201134Y-11444460D01*
X15201134Y-11444460D02*
X15210658Y-11396841D01*
X15210658Y-11396841D02*
X15210658Y-11358746D01*
X15210658Y-11358746D02*
X15201134Y-11311127D01*
X15201134Y-11311127D02*
X15191611Y-11282555D01*
X15191611Y-11282555D02*
X15182087Y-11263508D01*
X15182087Y-11263508D02*
X15163039Y-11234936D01*
X15163039Y-11234936D02*
X15153515Y-11225412D01*
D12*
X9997500Y-11626500D02*
G75*
G02*
X9972500Y-11626500I-12500J0D01*
G01*
X9972500Y-11626500D02*
G75*
G02*
X9997500Y-11626500I12500J0D01*
G01*
D11*
X10296372Y-11517984D02*
X10315420Y-11517984D01*
X10315420Y-11517984D02*
X10334467Y-11527508D01*
X10334467Y-11527508D02*
X10343991Y-11537031D01*
X10343991Y-11537031D02*
X10353515Y-11556079D01*
X10353515Y-11556079D02*
X10363039Y-11594174D01*
X10363039Y-11594174D02*
X10363039Y-11641793D01*
X10363039Y-11641793D02*
X10353515Y-11679888D01*
X10353515Y-11679888D02*
X10343991Y-11698936D01*
X10343991Y-11698936D02*
X10334467Y-11708460D01*
X10334467Y-11708460D02*
X10315420Y-11717984D01*
X10315420Y-11717984D02*
X10296372Y-11717984D01*
X10296372Y-11717984D02*
X10277324Y-11708460D01*
X10277324Y-11708460D02*
X10267801Y-11698936D01*
X10267801Y-11698936D02*
X10258277Y-11679888D01*
X10258277Y-11679888D02*
X10248753Y-11641793D01*
X10248753Y-11641793D02*
X10248753Y-11594174D01*
X10248753Y-11594174D02*
X10258277Y-11556079D01*
X10258277Y-11556079D02*
X10267801Y-11537031D01*
X10267801Y-11537031D02*
X10277324Y-11527508D01*
X10277324Y-11527508D02*
X10296372Y-11517984D01*
X10448753Y-11698936D02*
X10458277Y-11708460D01*
X10458277Y-11708460D02*
X10448753Y-11717984D01*
X10448753Y-11717984D02*
X10439229Y-11708460D01*
X10439229Y-11708460D02*
X10448753Y-11698936D01*
X10448753Y-11698936D02*
X10448753Y-11717984D01*
X10534467Y-11537031D02*
X10543991Y-11527508D01*
X10543991Y-11527508D02*
X10563039Y-11517984D01*
X10563039Y-11517984D02*
X10610658Y-11517984D01*
X10610658Y-11517984D02*
X10629705Y-11527508D01*
X10629705Y-11527508D02*
X10639229Y-11537031D01*
X10639229Y-11537031D02*
X10648753Y-11556079D01*
X10648753Y-11556079D02*
X10648753Y-11575127D01*
X10648753Y-11575127D02*
X10639229Y-11603698D01*
X10639229Y-11603698D02*
X10524944Y-11717984D01*
X10524944Y-11717984D02*
X10648753Y-11717984D01*
X10829705Y-11517984D02*
X10734467Y-11517984D01*
X10734467Y-11517984D02*
X10724944Y-11613222D01*
X10724944Y-11613222D02*
X10734467Y-11603698D01*
X10734467Y-11603698D02*
X10753515Y-11594174D01*
X10753515Y-11594174D02*
X10801134Y-11594174D01*
X10801134Y-11594174D02*
X10820182Y-11603698D01*
X10820182Y-11603698D02*
X10829705Y-11613222D01*
X10829705Y-11613222D02*
X10839229Y-11632269D01*
X10839229Y-11632269D02*
X10839229Y-11679888D01*
X10839229Y-11679888D02*
X10829705Y-11698936D01*
X10829705Y-11698936D02*
X10820182Y-11708460D01*
X10820182Y-11708460D02*
X10801134Y-11717984D01*
X10801134Y-11717984D02*
X10753515Y-11717984D01*
X10753515Y-11717984D02*
X10734467Y-11708460D01*
X10734467Y-11708460D02*
X10724944Y-11698936D01*
X10963039Y-11517984D02*
X10982086Y-11517984D01*
X10982086Y-11517984D02*
X11001134Y-11527508D01*
X11001134Y-11527508D02*
X11010658Y-11537031D01*
X11010658Y-11537031D02*
X11020182Y-11556079D01*
X11020182Y-11556079D02*
X11029705Y-11594174D01*
X11029705Y-11594174D02*
X11029705Y-11641793D01*
X11029705Y-11641793D02*
X11020182Y-11679888D01*
X11020182Y-11679888D02*
X11010658Y-11698936D01*
X11010658Y-11698936D02*
X11001134Y-11708460D01*
X11001134Y-11708460D02*
X10982086Y-11717984D01*
X10982086Y-11717984D02*
X10963039Y-11717984D01*
X10963039Y-11717984D02*
X10943991Y-11708460D01*
X10943991Y-11708460D02*
X10934467Y-11698936D01*
X10934467Y-11698936D02*
X10924944Y-11679888D01*
X10924944Y-11679888D02*
X10915420Y-11641793D01*
X10915420Y-11641793D02*
X10915420Y-11594174D01*
X10915420Y-11594174D02*
X10924944Y-11556079D01*
X10924944Y-11556079D02*
X10934467Y-11537031D01*
X10934467Y-11537031D02*
X10943991Y-11527508D01*
X10943991Y-11527508D02*
X10963039Y-11517984D01*
X11115420Y-11717984D02*
X11115420Y-11584650D01*
X11115420Y-11603698D02*
X11124944Y-11594174D01*
X11124944Y-11594174D02*
X11143991Y-11584650D01*
X11143991Y-11584650D02*
X11172563Y-11584650D01*
X11172563Y-11584650D02*
X11191610Y-11594174D01*
X11191610Y-11594174D02*
X11201134Y-11613222D01*
X11201134Y-11613222D02*
X11201134Y-11717984D01*
X11201134Y-11613222D02*
X11210658Y-11594174D01*
X11210658Y-11594174D02*
X11229705Y-11584650D01*
X11229705Y-11584650D02*
X11258277Y-11584650D01*
X11258277Y-11584650D02*
X11277324Y-11594174D01*
X11277324Y-11594174D02*
X11286848Y-11613222D01*
X11286848Y-11613222D02*
X11286848Y-11717984D01*
X11382086Y-11717984D02*
X11382086Y-11584650D01*
X11382086Y-11603698D02*
X11391610Y-11594174D01*
X11391610Y-11594174D02*
X11410658Y-11584650D01*
X11410658Y-11584650D02*
X11439229Y-11584650D01*
X11439229Y-11584650D02*
X11458277Y-11594174D01*
X11458277Y-11594174D02*
X11467801Y-11613222D01*
X11467801Y-11613222D02*
X11467801Y-11717984D01*
X11467801Y-11613222D02*
X11477324Y-11594174D01*
X11477324Y-11594174D02*
X11496372Y-11584650D01*
X11496372Y-11584650D02*
X11524943Y-11584650D01*
X11524943Y-11584650D02*
X11543991Y-11594174D01*
X11543991Y-11594174D02*
X11553515Y-11613222D01*
X11553515Y-11613222D02*
X11553515Y-11717984D01*
X11943991Y-11508460D02*
X11772563Y-11765603D01*
X12201134Y-11517984D02*
X12220182Y-11517984D01*
X12220182Y-11517984D02*
X12239229Y-11527508D01*
X12239229Y-11527508D02*
X12248753Y-11537031D01*
X12248753Y-11537031D02*
X12258277Y-11556079D01*
X12258277Y-11556079D02*
X12267801Y-11594174D01*
X12267801Y-11594174D02*
X12267801Y-11641793D01*
X12267801Y-11641793D02*
X12258277Y-11679888D01*
X12258277Y-11679888D02*
X12248753Y-11698936D01*
X12248753Y-11698936D02*
X12239229Y-11708460D01*
X12239229Y-11708460D02*
X12220182Y-11717984D01*
X12220182Y-11717984D02*
X12201134Y-11717984D01*
X12201134Y-11717984D02*
X12182086Y-11708460D01*
X12182086Y-11708460D02*
X12172563Y-11698936D01*
X12172563Y-11698936D02*
X12163039Y-11679888D01*
X12163039Y-11679888D02*
X12153515Y-11641793D01*
X12153515Y-11641793D02*
X12153515Y-11594174D01*
X12153515Y-11594174D02*
X12163039Y-11556079D01*
X12163039Y-11556079D02*
X12172563Y-11537031D01*
X12172563Y-11537031D02*
X12182086Y-11527508D01*
X12182086Y-11527508D02*
X12201134Y-11517984D01*
X12353515Y-11698936D02*
X12363039Y-11708460D01*
X12363039Y-11708460D02*
X12353515Y-11717984D01*
X12353515Y-11717984D02*
X12343991Y-11708460D01*
X12343991Y-11708460D02*
X12353515Y-11698936D01*
X12353515Y-11698936D02*
X12353515Y-11717984D01*
X12486848Y-11517984D02*
X12505896Y-11517984D01*
X12505896Y-11517984D02*
X12524944Y-11527508D01*
X12524944Y-11527508D02*
X12534467Y-11537031D01*
X12534467Y-11537031D02*
X12543991Y-11556079D01*
X12543991Y-11556079D02*
X12553515Y-11594174D01*
X12553515Y-11594174D02*
X12553515Y-11641793D01*
X12553515Y-11641793D02*
X12543991Y-11679888D01*
X12543991Y-11679888D02*
X12534467Y-11698936D01*
X12534467Y-11698936D02*
X12524944Y-11708460D01*
X12524944Y-11708460D02*
X12505896Y-11717984D01*
X12505896Y-11717984D02*
X12486848Y-11717984D01*
X12486848Y-11717984D02*
X12467801Y-11708460D01*
X12467801Y-11708460D02*
X12458277Y-11698936D01*
X12458277Y-11698936D02*
X12448753Y-11679888D01*
X12448753Y-11679888D02*
X12439229Y-11641793D01*
X12439229Y-11641793D02*
X12439229Y-11594174D01*
X12439229Y-11594174D02*
X12448753Y-11556079D01*
X12448753Y-11556079D02*
X12458277Y-11537031D01*
X12458277Y-11537031D02*
X12467801Y-11527508D01*
X12467801Y-11527508D02*
X12486848Y-11517984D01*
X12677325Y-11517984D02*
X12696372Y-11517984D01*
X12696372Y-11517984D02*
X12715420Y-11527508D01*
X12715420Y-11527508D02*
X12724944Y-11537031D01*
X12724944Y-11537031D02*
X12734467Y-11556079D01*
X12734467Y-11556079D02*
X12743991Y-11594174D01*
X12743991Y-11594174D02*
X12743991Y-11641793D01*
X12743991Y-11641793D02*
X12734467Y-11679888D01*
X12734467Y-11679888D02*
X12724944Y-11698936D01*
X12724944Y-11698936D02*
X12715420Y-11708460D01*
X12715420Y-11708460D02*
X12696372Y-11717984D01*
X12696372Y-11717984D02*
X12677325Y-11717984D01*
X12677325Y-11717984D02*
X12658277Y-11708460D01*
X12658277Y-11708460D02*
X12648753Y-11698936D01*
X12648753Y-11698936D02*
X12639229Y-11679888D01*
X12639229Y-11679888D02*
X12629706Y-11641793D01*
X12629706Y-11641793D02*
X12629706Y-11594174D01*
X12629706Y-11594174D02*
X12639229Y-11556079D01*
X12639229Y-11556079D02*
X12648753Y-11537031D01*
X12648753Y-11537031D02*
X12658277Y-11527508D01*
X12658277Y-11527508D02*
X12677325Y-11517984D01*
X12839229Y-11717984D02*
X12877325Y-11717984D01*
X12877325Y-11717984D02*
X12896372Y-11708460D01*
X12896372Y-11708460D02*
X12905896Y-11698936D01*
X12905896Y-11698936D02*
X12924944Y-11670365D01*
X12924944Y-11670365D02*
X12934467Y-11632269D01*
X12934467Y-11632269D02*
X12934467Y-11556079D01*
X12934467Y-11556079D02*
X12924944Y-11537031D01*
X12924944Y-11537031D02*
X12915420Y-11527508D01*
X12915420Y-11527508D02*
X12896372Y-11517984D01*
X12896372Y-11517984D02*
X12858277Y-11517984D01*
X12858277Y-11517984D02*
X12839229Y-11527508D01*
X12839229Y-11527508D02*
X12829706Y-11537031D01*
X12829706Y-11537031D02*
X12820182Y-11556079D01*
X12820182Y-11556079D02*
X12820182Y-11603698D01*
X12820182Y-11603698D02*
X12829706Y-11622746D01*
X12829706Y-11622746D02*
X12839229Y-11632269D01*
X12839229Y-11632269D02*
X12858277Y-11641793D01*
X12858277Y-11641793D02*
X12896372Y-11641793D01*
X12896372Y-11641793D02*
X12915420Y-11632269D01*
X12915420Y-11632269D02*
X12924944Y-11622746D01*
X12924944Y-11622746D02*
X12934467Y-11603698D01*
X13048753Y-11603698D02*
X13029706Y-11594174D01*
X13029706Y-11594174D02*
X13020182Y-11584650D01*
X13020182Y-11584650D02*
X13010658Y-11565603D01*
X13010658Y-11565603D02*
X13010658Y-11556079D01*
X13010658Y-11556079D02*
X13020182Y-11537031D01*
X13020182Y-11537031D02*
X13029706Y-11527508D01*
X13029706Y-11527508D02*
X13048753Y-11517984D01*
X13048753Y-11517984D02*
X13086848Y-11517984D01*
X13086848Y-11517984D02*
X13105896Y-11527508D01*
X13105896Y-11527508D02*
X13115420Y-11537031D01*
X13115420Y-11537031D02*
X13124944Y-11556079D01*
X13124944Y-11556079D02*
X13124944Y-11565603D01*
X13124944Y-11565603D02*
X13115420Y-11584650D01*
X13115420Y-11584650D02*
X13105896Y-11594174D01*
X13105896Y-11594174D02*
X13086848Y-11603698D01*
X13086848Y-11603698D02*
X13048753Y-11603698D01*
X13048753Y-11603698D02*
X13029706Y-11613222D01*
X13029706Y-11613222D02*
X13020182Y-11622746D01*
X13020182Y-11622746D02*
X13010658Y-11641793D01*
X13010658Y-11641793D02*
X13010658Y-11679888D01*
X13010658Y-11679888D02*
X13020182Y-11698936D01*
X13020182Y-11698936D02*
X13029706Y-11708460D01*
X13029706Y-11708460D02*
X13048753Y-11717984D01*
X13048753Y-11717984D02*
X13086848Y-11717984D01*
X13086848Y-11717984D02*
X13105896Y-11708460D01*
X13105896Y-11708460D02*
X13115420Y-11698936D01*
X13115420Y-11698936D02*
X13124944Y-11679888D01*
X13124944Y-11679888D02*
X13124944Y-11641793D01*
X13124944Y-11641793D02*
X13115420Y-11622746D01*
X13115420Y-11622746D02*
X13105896Y-11613222D01*
X13105896Y-11613222D02*
X13086848Y-11603698D01*
X13201134Y-11517984D02*
X13201134Y-11556079D01*
X13277325Y-11517984D02*
X13277325Y-11556079D01*
X13572563Y-11794174D02*
X13563039Y-11784650D01*
X13563039Y-11784650D02*
X13543991Y-11756079D01*
X13543991Y-11756079D02*
X13534468Y-11737031D01*
X13534468Y-11737031D02*
X13524944Y-11708460D01*
X13524944Y-11708460D02*
X13515420Y-11660841D01*
X13515420Y-11660841D02*
X13515420Y-11622746D01*
X13515420Y-11622746D02*
X13524944Y-11575127D01*
X13524944Y-11575127D02*
X13534468Y-11546555D01*
X13534468Y-11546555D02*
X13543991Y-11527508D01*
X13543991Y-11527508D02*
X13563039Y-11498936D01*
X13563039Y-11498936D02*
X13572563Y-11489412D01*
X13639229Y-11537031D02*
X13648753Y-11527508D01*
X13648753Y-11527508D02*
X13667801Y-11517984D01*
X13667801Y-11517984D02*
X13715420Y-11517984D01*
X13715420Y-11517984D02*
X13734468Y-11527508D01*
X13734468Y-11527508D02*
X13743991Y-11537031D01*
X13743991Y-11537031D02*
X13753515Y-11556079D01*
X13753515Y-11556079D02*
X13753515Y-11575127D01*
X13753515Y-11575127D02*
X13743991Y-11603698D01*
X13743991Y-11603698D02*
X13629706Y-11717984D01*
X13629706Y-11717984D02*
X13753515Y-11717984D01*
X13877325Y-11517984D02*
X13896372Y-11517984D01*
X13896372Y-11517984D02*
X13915420Y-11527508D01*
X13915420Y-11527508D02*
X13924944Y-11537031D01*
X13924944Y-11537031D02*
X13934468Y-11556079D01*
X13934468Y-11556079D02*
X13943991Y-11594174D01*
X13943991Y-11594174D02*
X13943991Y-11641793D01*
X13943991Y-11641793D02*
X13934468Y-11679888D01*
X13934468Y-11679888D02*
X13924944Y-11698936D01*
X13924944Y-11698936D02*
X13915420Y-11708460D01*
X13915420Y-11708460D02*
X13896372Y-11717984D01*
X13896372Y-11717984D02*
X13877325Y-11717984D01*
X13877325Y-11717984D02*
X13858277Y-11708460D01*
X13858277Y-11708460D02*
X13848753Y-11698936D01*
X13848753Y-11698936D02*
X13839229Y-11679888D01*
X13839229Y-11679888D02*
X13829706Y-11641793D01*
X13829706Y-11641793D02*
X13829706Y-11594174D01*
X13829706Y-11594174D02*
X13839229Y-11556079D01*
X13839229Y-11556079D02*
X13848753Y-11537031D01*
X13848753Y-11537031D02*
X13858277Y-11527508D01*
X13858277Y-11527508D02*
X13877325Y-11517984D01*
X14182087Y-11717984D02*
X14182087Y-11517984D01*
X14267801Y-11717984D02*
X14267801Y-11613222D01*
X14267801Y-11613222D02*
X14258277Y-11594174D01*
X14258277Y-11594174D02*
X14239230Y-11584650D01*
X14239230Y-11584650D02*
X14210658Y-11584650D01*
X14210658Y-11584650D02*
X14191610Y-11594174D01*
X14191610Y-11594174D02*
X14182087Y-11603698D01*
X14391610Y-11717984D02*
X14372563Y-11708460D01*
X14372563Y-11708460D02*
X14363039Y-11698936D01*
X14363039Y-11698936D02*
X14353515Y-11679888D01*
X14353515Y-11679888D02*
X14353515Y-11622746D01*
X14353515Y-11622746D02*
X14363039Y-11603698D01*
X14363039Y-11603698D02*
X14372563Y-11594174D01*
X14372563Y-11594174D02*
X14391610Y-11584650D01*
X14391610Y-11584650D02*
X14420182Y-11584650D01*
X14420182Y-11584650D02*
X14439230Y-11594174D01*
X14439230Y-11594174D02*
X14448753Y-11603698D01*
X14448753Y-11603698D02*
X14458277Y-11622746D01*
X14458277Y-11622746D02*
X14458277Y-11679888D01*
X14458277Y-11679888D02*
X14448753Y-11698936D01*
X14448753Y-11698936D02*
X14439230Y-11708460D01*
X14439230Y-11708460D02*
X14420182Y-11717984D01*
X14420182Y-11717984D02*
X14391610Y-11717984D01*
X14572563Y-11717984D02*
X14553515Y-11708460D01*
X14553515Y-11708460D02*
X14543991Y-11689412D01*
X14543991Y-11689412D02*
X14543991Y-11517984D01*
X14724944Y-11708460D02*
X14705896Y-11717984D01*
X14705896Y-11717984D02*
X14667801Y-11717984D01*
X14667801Y-11717984D02*
X14648753Y-11708460D01*
X14648753Y-11708460D02*
X14639230Y-11689412D01*
X14639230Y-11689412D02*
X14639230Y-11613222D01*
X14639230Y-11613222D02*
X14648753Y-11594174D01*
X14648753Y-11594174D02*
X14667801Y-11584650D01*
X14667801Y-11584650D02*
X14705896Y-11584650D01*
X14705896Y-11584650D02*
X14724944Y-11594174D01*
X14724944Y-11594174D02*
X14734468Y-11613222D01*
X14734468Y-11613222D02*
X14734468Y-11632269D01*
X14734468Y-11632269D02*
X14639230Y-11651317D01*
X14810658Y-11708460D02*
X14829706Y-11717984D01*
X14829706Y-11717984D02*
X14867801Y-11717984D01*
X14867801Y-11717984D02*
X14886849Y-11708460D01*
X14886849Y-11708460D02*
X14896372Y-11689412D01*
X14896372Y-11689412D02*
X14896372Y-11679888D01*
X14896372Y-11679888D02*
X14886849Y-11660841D01*
X14886849Y-11660841D02*
X14867801Y-11651317D01*
X14867801Y-11651317D02*
X14839230Y-11651317D01*
X14839230Y-11651317D02*
X14820182Y-11641793D01*
X14820182Y-11641793D02*
X14810658Y-11622746D01*
X14810658Y-11622746D02*
X14810658Y-11613222D01*
X14810658Y-11613222D02*
X14820182Y-11594174D01*
X14820182Y-11594174D02*
X14839230Y-11584650D01*
X14839230Y-11584650D02*
X14867801Y-11584650D01*
X14867801Y-11584650D02*
X14886849Y-11594174D01*
X14963039Y-11794174D02*
X14972563Y-11784650D01*
X14972563Y-11784650D02*
X14991611Y-11756079D01*
X14991611Y-11756079D02*
X15001134Y-11737031D01*
X15001134Y-11737031D02*
X15010658Y-11708460D01*
X15010658Y-11708460D02*
X15020182Y-11660841D01*
X15020182Y-11660841D02*
X15020182Y-11622746D01*
X15020182Y-11622746D02*
X15010658Y-11575127D01*
X15010658Y-11575127D02*
X15001134Y-11546555D01*
X15001134Y-11546555D02*
X14991611Y-11527508D01*
X14991611Y-11527508D02*
X14972563Y-11498936D01*
X14972563Y-11498936D02*
X14963039Y-11489412D01*
D12*
X9982500Y-11875500D02*
X9982500Y-11905500D01*
X9967500Y-11890500D02*
X9997500Y-11890500D01*
D11*
X10296372Y-11781984D02*
X10315420Y-11781984D01*
X10315420Y-11781984D02*
X10334467Y-11791508D01*
X10334467Y-11791508D02*
X10343991Y-11801031D01*
X10343991Y-11801031D02*
X10353515Y-11820079D01*
X10353515Y-11820079D02*
X10363039Y-11858174D01*
X10363039Y-11858174D02*
X10363039Y-11905793D01*
X10363039Y-11905793D02*
X10353515Y-11943888D01*
X10353515Y-11943888D02*
X10343991Y-11962936D01*
X10343991Y-11962936D02*
X10334467Y-11972460D01*
X10334467Y-11972460D02*
X10315420Y-11981984D01*
X10315420Y-11981984D02*
X10296372Y-11981984D01*
X10296372Y-11981984D02*
X10277324Y-11972460D01*
X10277324Y-11972460D02*
X10267801Y-11962936D01*
X10267801Y-11962936D02*
X10258277Y-11943888D01*
X10258277Y-11943888D02*
X10248753Y-11905793D01*
X10248753Y-11905793D02*
X10248753Y-11858174D01*
X10248753Y-11858174D02*
X10258277Y-11820079D01*
X10258277Y-11820079D02*
X10267801Y-11801031D01*
X10267801Y-11801031D02*
X10277324Y-11791508D01*
X10277324Y-11791508D02*
X10296372Y-11781984D01*
X10448753Y-11962936D02*
X10458277Y-11972460D01*
X10458277Y-11972460D02*
X10448753Y-11981984D01*
X10448753Y-11981984D02*
X10439229Y-11972460D01*
X10439229Y-11972460D02*
X10448753Y-11962936D01*
X10448753Y-11962936D02*
X10448753Y-11981984D01*
X10524944Y-11781984D02*
X10648753Y-11781984D01*
X10648753Y-11781984D02*
X10582086Y-11858174D01*
X10582086Y-11858174D02*
X10610658Y-11858174D01*
X10610658Y-11858174D02*
X10629705Y-11867698D01*
X10629705Y-11867698D02*
X10639229Y-11877222D01*
X10639229Y-11877222D02*
X10648753Y-11896269D01*
X10648753Y-11896269D02*
X10648753Y-11943888D01*
X10648753Y-11943888D02*
X10639229Y-11962936D01*
X10639229Y-11962936D02*
X10629705Y-11972460D01*
X10629705Y-11972460D02*
X10610658Y-11981984D01*
X10610658Y-11981984D02*
X10553515Y-11981984D01*
X10553515Y-11981984D02*
X10534467Y-11972460D01*
X10534467Y-11972460D02*
X10524944Y-11962936D01*
X10772563Y-11781984D02*
X10791610Y-11781984D01*
X10791610Y-11781984D02*
X10810658Y-11791508D01*
X10810658Y-11791508D02*
X10820182Y-11801031D01*
X10820182Y-11801031D02*
X10829705Y-11820079D01*
X10829705Y-11820079D02*
X10839229Y-11858174D01*
X10839229Y-11858174D02*
X10839229Y-11905793D01*
X10839229Y-11905793D02*
X10829705Y-11943888D01*
X10829705Y-11943888D02*
X10820182Y-11962936D01*
X10820182Y-11962936D02*
X10810658Y-11972460D01*
X10810658Y-11972460D02*
X10791610Y-11981984D01*
X10791610Y-11981984D02*
X10772563Y-11981984D01*
X10772563Y-11981984D02*
X10753515Y-11972460D01*
X10753515Y-11972460D02*
X10743991Y-11962936D01*
X10743991Y-11962936D02*
X10734467Y-11943888D01*
X10734467Y-11943888D02*
X10724944Y-11905793D01*
X10724944Y-11905793D02*
X10724944Y-11858174D01*
X10724944Y-11858174D02*
X10734467Y-11820079D01*
X10734467Y-11820079D02*
X10743991Y-11801031D01*
X10743991Y-11801031D02*
X10753515Y-11791508D01*
X10753515Y-11791508D02*
X10772563Y-11781984D01*
X10963039Y-11781984D02*
X10982086Y-11781984D01*
X10982086Y-11781984D02*
X11001134Y-11791508D01*
X11001134Y-11791508D02*
X11010658Y-11801031D01*
X11010658Y-11801031D02*
X11020182Y-11820079D01*
X11020182Y-11820079D02*
X11029705Y-11858174D01*
X11029705Y-11858174D02*
X11029705Y-11905793D01*
X11029705Y-11905793D02*
X11020182Y-11943888D01*
X11020182Y-11943888D02*
X11010658Y-11962936D01*
X11010658Y-11962936D02*
X11001134Y-11972460D01*
X11001134Y-11972460D02*
X10982086Y-11981984D01*
X10982086Y-11981984D02*
X10963039Y-11981984D01*
X10963039Y-11981984D02*
X10943991Y-11972460D01*
X10943991Y-11972460D02*
X10934467Y-11962936D01*
X10934467Y-11962936D02*
X10924944Y-11943888D01*
X10924944Y-11943888D02*
X10915420Y-11905793D01*
X10915420Y-11905793D02*
X10915420Y-11858174D01*
X10915420Y-11858174D02*
X10924944Y-11820079D01*
X10924944Y-11820079D02*
X10934467Y-11801031D01*
X10934467Y-11801031D02*
X10943991Y-11791508D01*
X10943991Y-11791508D02*
X10963039Y-11781984D01*
X11115420Y-11981984D02*
X11115420Y-11848650D01*
X11115420Y-11867698D02*
X11124944Y-11858174D01*
X11124944Y-11858174D02*
X11143991Y-11848650D01*
X11143991Y-11848650D02*
X11172563Y-11848650D01*
X11172563Y-11848650D02*
X11191610Y-11858174D01*
X11191610Y-11858174D02*
X11201134Y-11877222D01*
X11201134Y-11877222D02*
X11201134Y-11981984D01*
X11201134Y-11877222D02*
X11210658Y-11858174D01*
X11210658Y-11858174D02*
X11229705Y-11848650D01*
X11229705Y-11848650D02*
X11258277Y-11848650D01*
X11258277Y-11848650D02*
X11277324Y-11858174D01*
X11277324Y-11858174D02*
X11286848Y-11877222D01*
X11286848Y-11877222D02*
X11286848Y-11981984D01*
X11382086Y-11981984D02*
X11382086Y-11848650D01*
X11382086Y-11867698D02*
X11391610Y-11858174D01*
X11391610Y-11858174D02*
X11410658Y-11848650D01*
X11410658Y-11848650D02*
X11439229Y-11848650D01*
X11439229Y-11848650D02*
X11458277Y-11858174D01*
X11458277Y-11858174D02*
X11467801Y-11877222D01*
X11467801Y-11877222D02*
X11467801Y-11981984D01*
X11467801Y-11877222D02*
X11477324Y-11858174D01*
X11477324Y-11858174D02*
X11496372Y-11848650D01*
X11496372Y-11848650D02*
X11524943Y-11848650D01*
X11524943Y-11848650D02*
X11543991Y-11858174D01*
X11543991Y-11858174D02*
X11553515Y-11877222D01*
X11553515Y-11877222D02*
X11553515Y-11981984D01*
X11943991Y-11772460D02*
X11772563Y-12029603D01*
X12201134Y-11781984D02*
X12220182Y-11781984D01*
X12220182Y-11781984D02*
X12239229Y-11791508D01*
X12239229Y-11791508D02*
X12248753Y-11801031D01*
X12248753Y-11801031D02*
X12258277Y-11820079D01*
X12258277Y-11820079D02*
X12267801Y-11858174D01*
X12267801Y-11858174D02*
X12267801Y-11905793D01*
X12267801Y-11905793D02*
X12258277Y-11943888D01*
X12258277Y-11943888D02*
X12248753Y-11962936D01*
X12248753Y-11962936D02*
X12239229Y-11972460D01*
X12239229Y-11972460D02*
X12220182Y-11981984D01*
X12220182Y-11981984D02*
X12201134Y-11981984D01*
X12201134Y-11981984D02*
X12182086Y-11972460D01*
X12182086Y-11972460D02*
X12172563Y-11962936D01*
X12172563Y-11962936D02*
X12163039Y-11943888D01*
X12163039Y-11943888D02*
X12153515Y-11905793D01*
X12153515Y-11905793D02*
X12153515Y-11858174D01*
X12153515Y-11858174D02*
X12163039Y-11820079D01*
X12163039Y-11820079D02*
X12172563Y-11801031D01*
X12172563Y-11801031D02*
X12182086Y-11791508D01*
X12182086Y-11791508D02*
X12201134Y-11781984D01*
X12353515Y-11962936D02*
X12363039Y-11972460D01*
X12363039Y-11972460D02*
X12353515Y-11981984D01*
X12353515Y-11981984D02*
X12343991Y-11972460D01*
X12343991Y-11972460D02*
X12353515Y-11962936D01*
X12353515Y-11962936D02*
X12353515Y-11981984D01*
X12486848Y-11781984D02*
X12505896Y-11781984D01*
X12505896Y-11781984D02*
X12524944Y-11791508D01*
X12524944Y-11791508D02*
X12534467Y-11801031D01*
X12534467Y-11801031D02*
X12543991Y-11820079D01*
X12543991Y-11820079D02*
X12553515Y-11858174D01*
X12553515Y-11858174D02*
X12553515Y-11905793D01*
X12553515Y-11905793D02*
X12543991Y-11943888D01*
X12543991Y-11943888D02*
X12534467Y-11962936D01*
X12534467Y-11962936D02*
X12524944Y-11972460D01*
X12524944Y-11972460D02*
X12505896Y-11981984D01*
X12505896Y-11981984D02*
X12486848Y-11981984D01*
X12486848Y-11981984D02*
X12467801Y-11972460D01*
X12467801Y-11972460D02*
X12458277Y-11962936D01*
X12458277Y-11962936D02*
X12448753Y-11943888D01*
X12448753Y-11943888D02*
X12439229Y-11905793D01*
X12439229Y-11905793D02*
X12439229Y-11858174D01*
X12439229Y-11858174D02*
X12448753Y-11820079D01*
X12448753Y-11820079D02*
X12458277Y-11801031D01*
X12458277Y-11801031D02*
X12467801Y-11791508D01*
X12467801Y-11791508D02*
X12486848Y-11781984D01*
X12743991Y-11981984D02*
X12629706Y-11981984D01*
X12686848Y-11981984D02*
X12686848Y-11781984D01*
X12686848Y-11781984D02*
X12667801Y-11810555D01*
X12667801Y-11810555D02*
X12648753Y-11829603D01*
X12648753Y-11829603D02*
X12629706Y-11839127D01*
X12934467Y-11981984D02*
X12820182Y-11981984D01*
X12877325Y-11981984D02*
X12877325Y-11781984D01*
X12877325Y-11781984D02*
X12858277Y-11810555D01*
X12858277Y-11810555D02*
X12839229Y-11829603D01*
X12839229Y-11829603D02*
X12820182Y-11839127D01*
X13048753Y-11867698D02*
X13029706Y-11858174D01*
X13029706Y-11858174D02*
X13020182Y-11848650D01*
X13020182Y-11848650D02*
X13010658Y-11829603D01*
X13010658Y-11829603D02*
X13010658Y-11820079D01*
X13010658Y-11820079D02*
X13020182Y-11801031D01*
X13020182Y-11801031D02*
X13029706Y-11791508D01*
X13029706Y-11791508D02*
X13048753Y-11781984D01*
X13048753Y-11781984D02*
X13086848Y-11781984D01*
X13086848Y-11781984D02*
X13105896Y-11791508D01*
X13105896Y-11791508D02*
X13115420Y-11801031D01*
X13115420Y-11801031D02*
X13124944Y-11820079D01*
X13124944Y-11820079D02*
X13124944Y-11829603D01*
X13124944Y-11829603D02*
X13115420Y-11848650D01*
X13115420Y-11848650D02*
X13105896Y-11858174D01*
X13105896Y-11858174D02*
X13086848Y-11867698D01*
X13086848Y-11867698D02*
X13048753Y-11867698D01*
X13048753Y-11867698D02*
X13029706Y-11877222D01*
X13029706Y-11877222D02*
X13020182Y-11886746D01*
X13020182Y-11886746D02*
X13010658Y-11905793D01*
X13010658Y-11905793D02*
X13010658Y-11943888D01*
X13010658Y-11943888D02*
X13020182Y-11962936D01*
X13020182Y-11962936D02*
X13029706Y-11972460D01*
X13029706Y-11972460D02*
X13048753Y-11981984D01*
X13048753Y-11981984D02*
X13086848Y-11981984D01*
X13086848Y-11981984D02*
X13105896Y-11972460D01*
X13105896Y-11972460D02*
X13115420Y-11962936D01*
X13115420Y-11962936D02*
X13124944Y-11943888D01*
X13124944Y-11943888D02*
X13124944Y-11905793D01*
X13124944Y-11905793D02*
X13115420Y-11886746D01*
X13115420Y-11886746D02*
X13105896Y-11877222D01*
X13105896Y-11877222D02*
X13086848Y-11867698D01*
X13201134Y-11781984D02*
X13201134Y-11820079D01*
X13277325Y-11781984D02*
X13277325Y-11820079D01*
X13572563Y-12058174D02*
X13563039Y-12048650D01*
X13563039Y-12048650D02*
X13543991Y-12020079D01*
X13543991Y-12020079D02*
X13534468Y-12001031D01*
X13534468Y-12001031D02*
X13524944Y-11972460D01*
X13524944Y-11972460D02*
X13515420Y-11924841D01*
X13515420Y-11924841D02*
X13515420Y-11886746D01*
X13515420Y-11886746D02*
X13524944Y-11839127D01*
X13524944Y-11839127D02*
X13534468Y-11810555D01*
X13534468Y-11810555D02*
X13543991Y-11791508D01*
X13543991Y-11791508D02*
X13563039Y-11762936D01*
X13563039Y-11762936D02*
X13572563Y-11753412D01*
X13629706Y-11781984D02*
X13753515Y-11781984D01*
X13753515Y-11781984D02*
X13686848Y-11858174D01*
X13686848Y-11858174D02*
X13715420Y-11858174D01*
X13715420Y-11858174D02*
X13734468Y-11867698D01*
X13734468Y-11867698D02*
X13743991Y-11877222D01*
X13743991Y-11877222D02*
X13753515Y-11896269D01*
X13753515Y-11896269D02*
X13753515Y-11943888D01*
X13753515Y-11943888D02*
X13743991Y-11962936D01*
X13743991Y-11962936D02*
X13734468Y-11972460D01*
X13734468Y-11972460D02*
X13715420Y-11981984D01*
X13715420Y-11981984D02*
X13658277Y-11981984D01*
X13658277Y-11981984D02*
X13639229Y-11972460D01*
X13639229Y-11972460D02*
X13629706Y-11962936D01*
X13820182Y-11781984D02*
X13943991Y-11781984D01*
X13943991Y-11781984D02*
X13877325Y-11858174D01*
X13877325Y-11858174D02*
X13905896Y-11858174D01*
X13905896Y-11858174D02*
X13924944Y-11867698D01*
X13924944Y-11867698D02*
X13934468Y-11877222D01*
X13934468Y-11877222D02*
X13943991Y-11896269D01*
X13943991Y-11896269D02*
X13943991Y-11943888D01*
X13943991Y-11943888D02*
X13934468Y-11962936D01*
X13934468Y-11962936D02*
X13924944Y-11972460D01*
X13924944Y-11972460D02*
X13905896Y-11981984D01*
X13905896Y-11981984D02*
X13848753Y-11981984D01*
X13848753Y-11981984D02*
X13829706Y-11972460D01*
X13829706Y-11972460D02*
X13820182Y-11962936D01*
X14182087Y-11981984D02*
X14182087Y-11781984D01*
X14267801Y-11981984D02*
X14267801Y-11877222D01*
X14267801Y-11877222D02*
X14258277Y-11858174D01*
X14258277Y-11858174D02*
X14239230Y-11848650D01*
X14239230Y-11848650D02*
X14210658Y-11848650D01*
X14210658Y-11848650D02*
X14191610Y-11858174D01*
X14191610Y-11858174D02*
X14182087Y-11867698D01*
X14391610Y-11981984D02*
X14372563Y-11972460D01*
X14372563Y-11972460D02*
X14363039Y-11962936D01*
X14363039Y-11962936D02*
X14353515Y-11943888D01*
X14353515Y-11943888D02*
X14353515Y-11886746D01*
X14353515Y-11886746D02*
X14363039Y-11867698D01*
X14363039Y-11867698D02*
X14372563Y-11858174D01*
X14372563Y-11858174D02*
X14391610Y-11848650D01*
X14391610Y-11848650D02*
X14420182Y-11848650D01*
X14420182Y-11848650D02*
X14439230Y-11858174D01*
X14439230Y-11858174D02*
X14448753Y-11867698D01*
X14448753Y-11867698D02*
X14458277Y-11886746D01*
X14458277Y-11886746D02*
X14458277Y-11943888D01*
X14458277Y-11943888D02*
X14448753Y-11962936D01*
X14448753Y-11962936D02*
X14439230Y-11972460D01*
X14439230Y-11972460D02*
X14420182Y-11981984D01*
X14420182Y-11981984D02*
X14391610Y-11981984D01*
X14572563Y-11981984D02*
X14553515Y-11972460D01*
X14553515Y-11972460D02*
X14543991Y-11953412D01*
X14543991Y-11953412D02*
X14543991Y-11781984D01*
X14724944Y-11972460D02*
X14705896Y-11981984D01*
X14705896Y-11981984D02*
X14667801Y-11981984D01*
X14667801Y-11981984D02*
X14648753Y-11972460D01*
X14648753Y-11972460D02*
X14639230Y-11953412D01*
X14639230Y-11953412D02*
X14639230Y-11877222D01*
X14639230Y-11877222D02*
X14648753Y-11858174D01*
X14648753Y-11858174D02*
X14667801Y-11848650D01*
X14667801Y-11848650D02*
X14705896Y-11848650D01*
X14705896Y-11848650D02*
X14724944Y-11858174D01*
X14724944Y-11858174D02*
X14734468Y-11877222D01*
X14734468Y-11877222D02*
X14734468Y-11896269D01*
X14734468Y-11896269D02*
X14639230Y-11915317D01*
X14810658Y-11972460D02*
X14829706Y-11981984D01*
X14829706Y-11981984D02*
X14867801Y-11981984D01*
X14867801Y-11981984D02*
X14886849Y-11972460D01*
X14886849Y-11972460D02*
X14896372Y-11953412D01*
X14896372Y-11953412D02*
X14896372Y-11943888D01*
X14896372Y-11943888D02*
X14886849Y-11924841D01*
X14886849Y-11924841D02*
X14867801Y-11915317D01*
X14867801Y-11915317D02*
X14839230Y-11915317D01*
X14839230Y-11915317D02*
X14820182Y-11905793D01*
X14820182Y-11905793D02*
X14810658Y-11886746D01*
X14810658Y-11886746D02*
X14810658Y-11877222D01*
X14810658Y-11877222D02*
X14820182Y-11858174D01*
X14820182Y-11858174D02*
X14839230Y-11848650D01*
X14839230Y-11848650D02*
X14867801Y-11848650D01*
X14867801Y-11848650D02*
X14886849Y-11858174D01*
X14963039Y-12058174D02*
X14972563Y-12048650D01*
X14972563Y-12048650D02*
X14991611Y-12020079D01*
X14991611Y-12020079D02*
X15001134Y-12001031D01*
X15001134Y-12001031D02*
X15010658Y-11972460D01*
X15010658Y-11972460D02*
X15020182Y-11924841D01*
X15020182Y-11924841D02*
X15020182Y-11886746D01*
X15020182Y-11886746D02*
X15010658Y-11839127D01*
X15010658Y-11839127D02*
X15001134Y-11810555D01*
X15001134Y-11810555D02*
X14991611Y-11791508D01*
X14991611Y-11791508D02*
X14972563Y-11762936D01*
X14972563Y-11762936D02*
X14963039Y-11753412D01*
D12*
X9987981Y-12177481D02*
X9987981Y-12131519D01*
X9942019Y-12131519D01*
X9942019Y-12177481D01*
X9987981Y-12177481D01*
D11*
X10296372Y-12045984D02*
X10315420Y-12045984D01*
X10315420Y-12045984D02*
X10334467Y-12055508D01*
X10334467Y-12055508D02*
X10343991Y-12065031D01*
X10343991Y-12065031D02*
X10353515Y-12084079D01*
X10353515Y-12084079D02*
X10363039Y-12122174D01*
X10363039Y-12122174D02*
X10363039Y-12169793D01*
X10363039Y-12169793D02*
X10353515Y-12207888D01*
X10353515Y-12207888D02*
X10343991Y-12226936D01*
X10343991Y-12226936D02*
X10334467Y-12236460D01*
X10334467Y-12236460D02*
X10315420Y-12245984D01*
X10315420Y-12245984D02*
X10296372Y-12245984D01*
X10296372Y-12245984D02*
X10277324Y-12236460D01*
X10277324Y-12236460D02*
X10267801Y-12226936D01*
X10267801Y-12226936D02*
X10258277Y-12207888D01*
X10258277Y-12207888D02*
X10248753Y-12169793D01*
X10248753Y-12169793D02*
X10248753Y-12122174D01*
X10248753Y-12122174D02*
X10258277Y-12084079D01*
X10258277Y-12084079D02*
X10267801Y-12065031D01*
X10267801Y-12065031D02*
X10277324Y-12055508D01*
X10277324Y-12055508D02*
X10296372Y-12045984D01*
X10448753Y-12226936D02*
X10458277Y-12236460D01*
X10458277Y-12236460D02*
X10448753Y-12245984D01*
X10448753Y-12245984D02*
X10439229Y-12236460D01*
X10439229Y-12236460D02*
X10448753Y-12226936D01*
X10448753Y-12226936D02*
X10448753Y-12245984D01*
X10629705Y-12045984D02*
X10591610Y-12045984D01*
X10591610Y-12045984D02*
X10572563Y-12055508D01*
X10572563Y-12055508D02*
X10563039Y-12065031D01*
X10563039Y-12065031D02*
X10543991Y-12093603D01*
X10543991Y-12093603D02*
X10534467Y-12131698D01*
X10534467Y-12131698D02*
X10534467Y-12207888D01*
X10534467Y-12207888D02*
X10543991Y-12226936D01*
X10543991Y-12226936D02*
X10553515Y-12236460D01*
X10553515Y-12236460D02*
X10572563Y-12245984D01*
X10572563Y-12245984D02*
X10610658Y-12245984D01*
X10610658Y-12245984D02*
X10629705Y-12236460D01*
X10629705Y-12236460D02*
X10639229Y-12226936D01*
X10639229Y-12226936D02*
X10648753Y-12207888D01*
X10648753Y-12207888D02*
X10648753Y-12160269D01*
X10648753Y-12160269D02*
X10639229Y-12141222D01*
X10639229Y-12141222D02*
X10629705Y-12131698D01*
X10629705Y-12131698D02*
X10610658Y-12122174D01*
X10610658Y-12122174D02*
X10572563Y-12122174D01*
X10572563Y-12122174D02*
X10553515Y-12131698D01*
X10553515Y-12131698D02*
X10543991Y-12141222D01*
X10543991Y-12141222D02*
X10534467Y-12160269D01*
X10829705Y-12045984D02*
X10734467Y-12045984D01*
X10734467Y-12045984D02*
X10724944Y-12141222D01*
X10724944Y-12141222D02*
X10734467Y-12131698D01*
X10734467Y-12131698D02*
X10753515Y-12122174D01*
X10753515Y-12122174D02*
X10801134Y-12122174D01*
X10801134Y-12122174D02*
X10820182Y-12131698D01*
X10820182Y-12131698D02*
X10829705Y-12141222D01*
X10829705Y-12141222D02*
X10839229Y-12160269D01*
X10839229Y-12160269D02*
X10839229Y-12207888D01*
X10839229Y-12207888D02*
X10829705Y-12226936D01*
X10829705Y-12226936D02*
X10820182Y-12236460D01*
X10820182Y-12236460D02*
X10801134Y-12245984D01*
X10801134Y-12245984D02*
X10753515Y-12245984D01*
X10753515Y-12245984D02*
X10734467Y-12236460D01*
X10734467Y-12236460D02*
X10724944Y-12226936D01*
X10963039Y-12045984D02*
X10982086Y-12045984D01*
X10982086Y-12045984D02*
X11001134Y-12055508D01*
X11001134Y-12055508D02*
X11010658Y-12065031D01*
X11010658Y-12065031D02*
X11020182Y-12084079D01*
X11020182Y-12084079D02*
X11029705Y-12122174D01*
X11029705Y-12122174D02*
X11029705Y-12169793D01*
X11029705Y-12169793D02*
X11020182Y-12207888D01*
X11020182Y-12207888D02*
X11010658Y-12226936D01*
X11010658Y-12226936D02*
X11001134Y-12236460D01*
X11001134Y-12236460D02*
X10982086Y-12245984D01*
X10982086Y-12245984D02*
X10963039Y-12245984D01*
X10963039Y-12245984D02*
X10943991Y-12236460D01*
X10943991Y-12236460D02*
X10934467Y-12226936D01*
X10934467Y-12226936D02*
X10924944Y-12207888D01*
X10924944Y-12207888D02*
X10915420Y-12169793D01*
X10915420Y-12169793D02*
X10915420Y-12122174D01*
X10915420Y-12122174D02*
X10924944Y-12084079D01*
X10924944Y-12084079D02*
X10934467Y-12065031D01*
X10934467Y-12065031D02*
X10943991Y-12055508D01*
X10943991Y-12055508D02*
X10963039Y-12045984D01*
X11115420Y-12245984D02*
X11115420Y-12112650D01*
X11115420Y-12131698D02*
X11124944Y-12122174D01*
X11124944Y-12122174D02*
X11143991Y-12112650D01*
X11143991Y-12112650D02*
X11172563Y-12112650D01*
X11172563Y-12112650D02*
X11191610Y-12122174D01*
X11191610Y-12122174D02*
X11201134Y-12141222D01*
X11201134Y-12141222D02*
X11201134Y-12245984D01*
X11201134Y-12141222D02*
X11210658Y-12122174D01*
X11210658Y-12122174D02*
X11229705Y-12112650D01*
X11229705Y-12112650D02*
X11258277Y-12112650D01*
X11258277Y-12112650D02*
X11277324Y-12122174D01*
X11277324Y-12122174D02*
X11286848Y-12141222D01*
X11286848Y-12141222D02*
X11286848Y-12245984D01*
X11382086Y-12245984D02*
X11382086Y-12112650D01*
X11382086Y-12131698D02*
X11391610Y-12122174D01*
X11391610Y-12122174D02*
X11410658Y-12112650D01*
X11410658Y-12112650D02*
X11439229Y-12112650D01*
X11439229Y-12112650D02*
X11458277Y-12122174D01*
X11458277Y-12122174D02*
X11467801Y-12141222D01*
X11467801Y-12141222D02*
X11467801Y-12245984D01*
X11467801Y-12141222D02*
X11477324Y-12122174D01*
X11477324Y-12122174D02*
X11496372Y-12112650D01*
X11496372Y-12112650D02*
X11524943Y-12112650D01*
X11524943Y-12112650D02*
X11543991Y-12122174D01*
X11543991Y-12122174D02*
X11553515Y-12141222D01*
X11553515Y-12141222D02*
X11553515Y-12245984D01*
X11943991Y-12036460D02*
X11772563Y-12293603D01*
X12201134Y-12045984D02*
X12220182Y-12045984D01*
X12220182Y-12045984D02*
X12239229Y-12055508D01*
X12239229Y-12055508D02*
X12248753Y-12065031D01*
X12248753Y-12065031D02*
X12258277Y-12084079D01*
X12258277Y-12084079D02*
X12267801Y-12122174D01*
X12267801Y-12122174D02*
X12267801Y-12169793D01*
X12267801Y-12169793D02*
X12258277Y-12207888D01*
X12258277Y-12207888D02*
X12248753Y-12226936D01*
X12248753Y-12226936D02*
X12239229Y-12236460D01*
X12239229Y-12236460D02*
X12220182Y-12245984D01*
X12220182Y-12245984D02*
X12201134Y-12245984D01*
X12201134Y-12245984D02*
X12182086Y-12236460D01*
X12182086Y-12236460D02*
X12172563Y-12226936D01*
X12172563Y-12226936D02*
X12163039Y-12207888D01*
X12163039Y-12207888D02*
X12153515Y-12169793D01*
X12153515Y-12169793D02*
X12153515Y-12122174D01*
X12153515Y-12122174D02*
X12163039Y-12084079D01*
X12163039Y-12084079D02*
X12172563Y-12065031D01*
X12172563Y-12065031D02*
X12182086Y-12055508D01*
X12182086Y-12055508D02*
X12201134Y-12045984D01*
X12353515Y-12226936D02*
X12363039Y-12236460D01*
X12363039Y-12236460D02*
X12353515Y-12245984D01*
X12353515Y-12245984D02*
X12343991Y-12236460D01*
X12343991Y-12236460D02*
X12353515Y-12226936D01*
X12353515Y-12226936D02*
X12353515Y-12245984D01*
X12486848Y-12045984D02*
X12505896Y-12045984D01*
X12505896Y-12045984D02*
X12524944Y-12055508D01*
X12524944Y-12055508D02*
X12534467Y-12065031D01*
X12534467Y-12065031D02*
X12543991Y-12084079D01*
X12543991Y-12084079D02*
X12553515Y-12122174D01*
X12553515Y-12122174D02*
X12553515Y-12169793D01*
X12553515Y-12169793D02*
X12543991Y-12207888D01*
X12543991Y-12207888D02*
X12534467Y-12226936D01*
X12534467Y-12226936D02*
X12524944Y-12236460D01*
X12524944Y-12236460D02*
X12505896Y-12245984D01*
X12505896Y-12245984D02*
X12486848Y-12245984D01*
X12486848Y-12245984D02*
X12467801Y-12236460D01*
X12467801Y-12236460D02*
X12458277Y-12226936D01*
X12458277Y-12226936D02*
X12448753Y-12207888D01*
X12448753Y-12207888D02*
X12439229Y-12169793D01*
X12439229Y-12169793D02*
X12439229Y-12122174D01*
X12439229Y-12122174D02*
X12448753Y-12084079D01*
X12448753Y-12084079D02*
X12458277Y-12065031D01*
X12458277Y-12065031D02*
X12467801Y-12055508D01*
X12467801Y-12055508D02*
X12486848Y-12045984D01*
X12629706Y-12065031D02*
X12639229Y-12055508D01*
X12639229Y-12055508D02*
X12658277Y-12045984D01*
X12658277Y-12045984D02*
X12705896Y-12045984D01*
X12705896Y-12045984D02*
X12724944Y-12055508D01*
X12724944Y-12055508D02*
X12734467Y-12065031D01*
X12734467Y-12065031D02*
X12743991Y-12084079D01*
X12743991Y-12084079D02*
X12743991Y-12103127D01*
X12743991Y-12103127D02*
X12734467Y-12131698D01*
X12734467Y-12131698D02*
X12620182Y-12245984D01*
X12620182Y-12245984D02*
X12743991Y-12245984D01*
X12924944Y-12045984D02*
X12829706Y-12045984D01*
X12829706Y-12045984D02*
X12820182Y-12141222D01*
X12820182Y-12141222D02*
X12829706Y-12131698D01*
X12829706Y-12131698D02*
X12848753Y-12122174D01*
X12848753Y-12122174D02*
X12896372Y-12122174D01*
X12896372Y-12122174D02*
X12915420Y-12131698D01*
X12915420Y-12131698D02*
X12924944Y-12141222D01*
X12924944Y-12141222D02*
X12934467Y-12160269D01*
X12934467Y-12160269D02*
X12934467Y-12207888D01*
X12934467Y-12207888D02*
X12924944Y-12226936D01*
X12924944Y-12226936D02*
X12915420Y-12236460D01*
X12915420Y-12236460D02*
X12896372Y-12245984D01*
X12896372Y-12245984D02*
X12848753Y-12245984D01*
X12848753Y-12245984D02*
X12829706Y-12236460D01*
X12829706Y-12236460D02*
X12820182Y-12226936D01*
X13105896Y-12045984D02*
X13067801Y-12045984D01*
X13067801Y-12045984D02*
X13048753Y-12055508D01*
X13048753Y-12055508D02*
X13039229Y-12065031D01*
X13039229Y-12065031D02*
X13020182Y-12093603D01*
X13020182Y-12093603D02*
X13010658Y-12131698D01*
X13010658Y-12131698D02*
X13010658Y-12207888D01*
X13010658Y-12207888D02*
X13020182Y-12226936D01*
X13020182Y-12226936D02*
X13029706Y-12236460D01*
X13029706Y-12236460D02*
X13048753Y-12245984D01*
X13048753Y-12245984D02*
X13086848Y-12245984D01*
X13086848Y-12245984D02*
X13105896Y-12236460D01*
X13105896Y-12236460D02*
X13115420Y-12226936D01*
X13115420Y-12226936D02*
X13124944Y-12207888D01*
X13124944Y-12207888D02*
X13124944Y-12160269D01*
X13124944Y-12160269D02*
X13115420Y-12141222D01*
X13115420Y-12141222D02*
X13105896Y-12131698D01*
X13105896Y-12131698D02*
X13086848Y-12122174D01*
X13086848Y-12122174D02*
X13048753Y-12122174D01*
X13048753Y-12122174D02*
X13029706Y-12131698D01*
X13029706Y-12131698D02*
X13020182Y-12141222D01*
X13020182Y-12141222D02*
X13010658Y-12160269D01*
X13201134Y-12045984D02*
X13201134Y-12084079D01*
X13277325Y-12045984D02*
X13277325Y-12084079D01*
X13572563Y-12322174D02*
X13563039Y-12312650D01*
X13563039Y-12312650D02*
X13543991Y-12284079D01*
X13543991Y-12284079D02*
X13534468Y-12265031D01*
X13534468Y-12265031D02*
X13524944Y-12236460D01*
X13524944Y-12236460D02*
X13515420Y-12188841D01*
X13515420Y-12188841D02*
X13515420Y-12150746D01*
X13515420Y-12150746D02*
X13524944Y-12103127D01*
X13524944Y-12103127D02*
X13534468Y-12074555D01*
X13534468Y-12074555D02*
X13543991Y-12055508D01*
X13543991Y-12055508D02*
X13563039Y-12026936D01*
X13563039Y-12026936D02*
X13572563Y-12017412D01*
X13686848Y-12045984D02*
X13705896Y-12045984D01*
X13705896Y-12045984D02*
X13724944Y-12055508D01*
X13724944Y-12055508D02*
X13734468Y-12065031D01*
X13734468Y-12065031D02*
X13743991Y-12084079D01*
X13743991Y-12084079D02*
X13753515Y-12122174D01*
X13753515Y-12122174D02*
X13753515Y-12169793D01*
X13753515Y-12169793D02*
X13743991Y-12207888D01*
X13743991Y-12207888D02*
X13734468Y-12226936D01*
X13734468Y-12226936D02*
X13724944Y-12236460D01*
X13724944Y-12236460D02*
X13705896Y-12245984D01*
X13705896Y-12245984D02*
X13686848Y-12245984D01*
X13686848Y-12245984D02*
X13667801Y-12236460D01*
X13667801Y-12236460D02*
X13658277Y-12226936D01*
X13658277Y-12226936D02*
X13648753Y-12207888D01*
X13648753Y-12207888D02*
X13639229Y-12169793D01*
X13639229Y-12169793D02*
X13639229Y-12122174D01*
X13639229Y-12122174D02*
X13648753Y-12084079D01*
X13648753Y-12084079D02*
X13658277Y-12065031D01*
X13658277Y-12065031D02*
X13667801Y-12055508D01*
X13667801Y-12055508D02*
X13686848Y-12045984D01*
X13991610Y-12245984D02*
X13991610Y-12045984D01*
X14077325Y-12245984D02*
X14077325Y-12141222D01*
X14077325Y-12141222D02*
X14067801Y-12122174D01*
X14067801Y-12122174D02*
X14048753Y-12112650D01*
X14048753Y-12112650D02*
X14020182Y-12112650D01*
X14020182Y-12112650D02*
X14001134Y-12122174D01*
X14001134Y-12122174D02*
X13991610Y-12131698D01*
X14201134Y-12245984D02*
X14182087Y-12236460D01*
X14182087Y-12236460D02*
X14172563Y-12226936D01*
X14172563Y-12226936D02*
X14163039Y-12207888D01*
X14163039Y-12207888D02*
X14163039Y-12150746D01*
X14163039Y-12150746D02*
X14172563Y-12131698D01*
X14172563Y-12131698D02*
X14182087Y-12122174D01*
X14182087Y-12122174D02*
X14201134Y-12112650D01*
X14201134Y-12112650D02*
X14229706Y-12112650D01*
X14229706Y-12112650D02*
X14248753Y-12122174D01*
X14248753Y-12122174D02*
X14258277Y-12131698D01*
X14258277Y-12131698D02*
X14267801Y-12150746D01*
X14267801Y-12150746D02*
X14267801Y-12207888D01*
X14267801Y-12207888D02*
X14258277Y-12226936D01*
X14258277Y-12226936D02*
X14248753Y-12236460D01*
X14248753Y-12236460D02*
X14229706Y-12245984D01*
X14229706Y-12245984D02*
X14201134Y-12245984D01*
X14382087Y-12245984D02*
X14363039Y-12236460D01*
X14363039Y-12236460D02*
X14353515Y-12217412D01*
X14353515Y-12217412D02*
X14353515Y-12045984D01*
X14534468Y-12236460D02*
X14515420Y-12245984D01*
X14515420Y-12245984D02*
X14477325Y-12245984D01*
X14477325Y-12245984D02*
X14458277Y-12236460D01*
X14458277Y-12236460D02*
X14448753Y-12217412D01*
X14448753Y-12217412D02*
X14448753Y-12141222D01*
X14448753Y-12141222D02*
X14458277Y-12122174D01*
X14458277Y-12122174D02*
X14477325Y-12112650D01*
X14477325Y-12112650D02*
X14515420Y-12112650D01*
X14515420Y-12112650D02*
X14534468Y-12122174D01*
X14534468Y-12122174D02*
X14543991Y-12141222D01*
X14543991Y-12141222D02*
X14543991Y-12160269D01*
X14543991Y-12160269D02*
X14448753Y-12179317D01*
X14620182Y-12236460D02*
X14639230Y-12245984D01*
X14639230Y-12245984D02*
X14677325Y-12245984D01*
X14677325Y-12245984D02*
X14696372Y-12236460D01*
X14696372Y-12236460D02*
X14705896Y-12217412D01*
X14705896Y-12217412D02*
X14705896Y-12207888D01*
X14705896Y-12207888D02*
X14696372Y-12188841D01*
X14696372Y-12188841D02*
X14677325Y-12179317D01*
X14677325Y-12179317D02*
X14648753Y-12179317D01*
X14648753Y-12179317D02*
X14629706Y-12169793D01*
X14629706Y-12169793D02*
X14620182Y-12150746D01*
X14620182Y-12150746D02*
X14620182Y-12141222D01*
X14620182Y-12141222D02*
X14629706Y-12122174D01*
X14629706Y-12122174D02*
X14648753Y-12112650D01*
X14648753Y-12112650D02*
X14677325Y-12112650D01*
X14677325Y-12112650D02*
X14696372Y-12122174D01*
X14943992Y-12169793D02*
X15096373Y-12169793D01*
X15020182Y-12245984D02*
X15020182Y-12093603D01*
X15429706Y-12112650D02*
X15429706Y-12245984D01*
X15382087Y-12036460D02*
X15334468Y-12179317D01*
X15334468Y-12179317D02*
X15458277Y-12179317D01*
X15677325Y-12236460D02*
X15696373Y-12245984D01*
X15696373Y-12245984D02*
X15734468Y-12245984D01*
X15734468Y-12245984D02*
X15753515Y-12236460D01*
X15753515Y-12236460D02*
X15763039Y-12217412D01*
X15763039Y-12217412D02*
X15763039Y-12207888D01*
X15763039Y-12207888D02*
X15753515Y-12188841D01*
X15753515Y-12188841D02*
X15734468Y-12179317D01*
X15734468Y-12179317D02*
X15705896Y-12179317D01*
X15705896Y-12179317D02*
X15686849Y-12169793D01*
X15686849Y-12169793D02*
X15677325Y-12150746D01*
X15677325Y-12150746D02*
X15677325Y-12141222D01*
X15677325Y-12141222D02*
X15686849Y-12122174D01*
X15686849Y-12122174D02*
X15705896Y-12112650D01*
X15705896Y-12112650D02*
X15734468Y-12112650D01*
X15734468Y-12112650D02*
X15753515Y-12122174D01*
X15877325Y-12245984D02*
X15858277Y-12236460D01*
X15858277Y-12236460D02*
X15848754Y-12217412D01*
X15848754Y-12217412D02*
X15848754Y-12045984D01*
X15982087Y-12245984D02*
X15963039Y-12236460D01*
X15963039Y-12236460D02*
X15953515Y-12226936D01*
X15953515Y-12226936D02*
X15943992Y-12207888D01*
X15943992Y-12207888D02*
X15943992Y-12150746D01*
X15943992Y-12150746D02*
X15953515Y-12131698D01*
X15953515Y-12131698D02*
X15963039Y-12122174D01*
X15963039Y-12122174D02*
X15982087Y-12112650D01*
X15982087Y-12112650D02*
X16010658Y-12112650D01*
X16010658Y-12112650D02*
X16029706Y-12122174D01*
X16029706Y-12122174D02*
X16039230Y-12131698D01*
X16039230Y-12131698D02*
X16048754Y-12150746D01*
X16048754Y-12150746D02*
X16048754Y-12207888D01*
X16048754Y-12207888D02*
X16039230Y-12226936D01*
X16039230Y-12226936D02*
X16029706Y-12236460D01*
X16029706Y-12236460D02*
X16010658Y-12245984D01*
X16010658Y-12245984D02*
X15982087Y-12245984D01*
X16105896Y-12112650D02*
X16182087Y-12112650D01*
X16134468Y-12045984D02*
X16134468Y-12217412D01*
X16134468Y-12217412D02*
X16143992Y-12236460D01*
X16143992Y-12236460D02*
X16163039Y-12245984D01*
X16163039Y-12245984D02*
X16182087Y-12245984D01*
X16239230Y-12236460D02*
X16258277Y-12245984D01*
X16258277Y-12245984D02*
X16296373Y-12245984D01*
X16296373Y-12245984D02*
X16315420Y-12236460D01*
X16315420Y-12236460D02*
X16324944Y-12217412D01*
X16324944Y-12217412D02*
X16324944Y-12207888D01*
X16324944Y-12207888D02*
X16315420Y-12188841D01*
X16315420Y-12188841D02*
X16296373Y-12179317D01*
X16296373Y-12179317D02*
X16267801Y-12179317D01*
X16267801Y-12179317D02*
X16248754Y-12169793D01*
X16248754Y-12169793D02*
X16239230Y-12150746D01*
X16239230Y-12150746D02*
X16239230Y-12141222D01*
X16239230Y-12141222D02*
X16248754Y-12122174D01*
X16248754Y-12122174D02*
X16267801Y-12112650D01*
X16267801Y-12112650D02*
X16296373Y-12112650D01*
X16296373Y-12112650D02*
X16315420Y-12122174D01*
X16391611Y-12322174D02*
X16401135Y-12312650D01*
X16401135Y-12312650D02*
X16420182Y-12284079D01*
X16420182Y-12284079D02*
X16429706Y-12265031D01*
X16429706Y-12265031D02*
X16439230Y-12236460D01*
X16439230Y-12236460D02*
X16448754Y-12188841D01*
X16448754Y-12188841D02*
X16448754Y-12150746D01*
X16448754Y-12150746D02*
X16439230Y-12103127D01*
X16439230Y-12103127D02*
X16429706Y-12074555D01*
X16429706Y-12074555D02*
X16420182Y-12055508D01*
X16420182Y-12055508D02*
X16401135Y-12026936D01*
X16401135Y-12026936D02*
X16391611Y-12017412D01*
D12*
X9947500Y-12468500D02*
X9997500Y-12418500D01*
X9947500Y-12368500D01*
X9897500Y-12418500D01*
X9947500Y-12468500D01*
D11*
X10363039Y-12509984D02*
X10248753Y-12509984D01*
X10305896Y-12509984D02*
X10305896Y-12309984D01*
X10305896Y-12309984D02*
X10286848Y-12338555D01*
X10286848Y-12338555D02*
X10267801Y-12357603D01*
X10267801Y-12357603D02*
X10248753Y-12367127D01*
X10448753Y-12490936D02*
X10458277Y-12500460D01*
X10458277Y-12500460D02*
X10448753Y-12509984D01*
X10448753Y-12509984D02*
X10439229Y-12500460D01*
X10439229Y-12500460D02*
X10448753Y-12490936D01*
X10448753Y-12490936D02*
X10448753Y-12509984D01*
X10582086Y-12309984D02*
X10601134Y-12309984D01*
X10601134Y-12309984D02*
X10620182Y-12319508D01*
X10620182Y-12319508D02*
X10629705Y-12329031D01*
X10629705Y-12329031D02*
X10639229Y-12348079D01*
X10639229Y-12348079D02*
X10648753Y-12386174D01*
X10648753Y-12386174D02*
X10648753Y-12433793D01*
X10648753Y-12433793D02*
X10639229Y-12471888D01*
X10639229Y-12471888D02*
X10629705Y-12490936D01*
X10629705Y-12490936D02*
X10620182Y-12500460D01*
X10620182Y-12500460D02*
X10601134Y-12509984D01*
X10601134Y-12509984D02*
X10582086Y-12509984D01*
X10582086Y-12509984D02*
X10563039Y-12500460D01*
X10563039Y-12500460D02*
X10553515Y-12490936D01*
X10553515Y-12490936D02*
X10543991Y-12471888D01*
X10543991Y-12471888D02*
X10534467Y-12433793D01*
X10534467Y-12433793D02*
X10534467Y-12386174D01*
X10534467Y-12386174D02*
X10543991Y-12348079D01*
X10543991Y-12348079D02*
X10553515Y-12329031D01*
X10553515Y-12329031D02*
X10563039Y-12319508D01*
X10563039Y-12319508D02*
X10582086Y-12309984D01*
X10772563Y-12309984D02*
X10791610Y-12309984D01*
X10791610Y-12309984D02*
X10810658Y-12319508D01*
X10810658Y-12319508D02*
X10820182Y-12329031D01*
X10820182Y-12329031D02*
X10829705Y-12348079D01*
X10829705Y-12348079D02*
X10839229Y-12386174D01*
X10839229Y-12386174D02*
X10839229Y-12433793D01*
X10839229Y-12433793D02*
X10829705Y-12471888D01*
X10829705Y-12471888D02*
X10820182Y-12490936D01*
X10820182Y-12490936D02*
X10810658Y-12500460D01*
X10810658Y-12500460D02*
X10791610Y-12509984D01*
X10791610Y-12509984D02*
X10772563Y-12509984D01*
X10772563Y-12509984D02*
X10753515Y-12500460D01*
X10753515Y-12500460D02*
X10743991Y-12490936D01*
X10743991Y-12490936D02*
X10734467Y-12471888D01*
X10734467Y-12471888D02*
X10724944Y-12433793D01*
X10724944Y-12433793D02*
X10724944Y-12386174D01*
X10724944Y-12386174D02*
X10734467Y-12348079D01*
X10734467Y-12348079D02*
X10743991Y-12329031D01*
X10743991Y-12329031D02*
X10753515Y-12319508D01*
X10753515Y-12319508D02*
X10772563Y-12309984D01*
X10963039Y-12309984D02*
X10982086Y-12309984D01*
X10982086Y-12309984D02*
X11001134Y-12319508D01*
X11001134Y-12319508D02*
X11010658Y-12329031D01*
X11010658Y-12329031D02*
X11020182Y-12348079D01*
X11020182Y-12348079D02*
X11029705Y-12386174D01*
X11029705Y-12386174D02*
X11029705Y-12433793D01*
X11029705Y-12433793D02*
X11020182Y-12471888D01*
X11020182Y-12471888D02*
X11010658Y-12490936D01*
X11010658Y-12490936D02*
X11001134Y-12500460D01*
X11001134Y-12500460D02*
X10982086Y-12509984D01*
X10982086Y-12509984D02*
X10963039Y-12509984D01*
X10963039Y-12509984D02*
X10943991Y-12500460D01*
X10943991Y-12500460D02*
X10934467Y-12490936D01*
X10934467Y-12490936D02*
X10924944Y-12471888D01*
X10924944Y-12471888D02*
X10915420Y-12433793D01*
X10915420Y-12433793D02*
X10915420Y-12386174D01*
X10915420Y-12386174D02*
X10924944Y-12348079D01*
X10924944Y-12348079D02*
X10934467Y-12329031D01*
X10934467Y-12329031D02*
X10943991Y-12319508D01*
X10943991Y-12319508D02*
X10963039Y-12309984D01*
X11115420Y-12509984D02*
X11115420Y-12376650D01*
X11115420Y-12395698D02*
X11124944Y-12386174D01*
X11124944Y-12386174D02*
X11143991Y-12376650D01*
X11143991Y-12376650D02*
X11172563Y-12376650D01*
X11172563Y-12376650D02*
X11191610Y-12386174D01*
X11191610Y-12386174D02*
X11201134Y-12405222D01*
X11201134Y-12405222D02*
X11201134Y-12509984D01*
X11201134Y-12405222D02*
X11210658Y-12386174D01*
X11210658Y-12386174D02*
X11229705Y-12376650D01*
X11229705Y-12376650D02*
X11258277Y-12376650D01*
X11258277Y-12376650D02*
X11277324Y-12386174D01*
X11277324Y-12386174D02*
X11286848Y-12405222D01*
X11286848Y-12405222D02*
X11286848Y-12509984D01*
X11382086Y-12509984D02*
X11382086Y-12376650D01*
X11382086Y-12395698D02*
X11391610Y-12386174D01*
X11391610Y-12386174D02*
X11410658Y-12376650D01*
X11410658Y-12376650D02*
X11439229Y-12376650D01*
X11439229Y-12376650D02*
X11458277Y-12386174D01*
X11458277Y-12386174D02*
X11467801Y-12405222D01*
X11467801Y-12405222D02*
X11467801Y-12509984D01*
X11467801Y-12405222D02*
X11477324Y-12386174D01*
X11477324Y-12386174D02*
X11496372Y-12376650D01*
X11496372Y-12376650D02*
X11524943Y-12376650D01*
X11524943Y-12376650D02*
X11543991Y-12386174D01*
X11543991Y-12386174D02*
X11553515Y-12405222D01*
X11553515Y-12405222D02*
X11553515Y-12509984D01*
X11943991Y-12300460D02*
X11772563Y-12557603D01*
X12201134Y-12309984D02*
X12220182Y-12309984D01*
X12220182Y-12309984D02*
X12239229Y-12319508D01*
X12239229Y-12319508D02*
X12248753Y-12329031D01*
X12248753Y-12329031D02*
X12258277Y-12348079D01*
X12258277Y-12348079D02*
X12267801Y-12386174D01*
X12267801Y-12386174D02*
X12267801Y-12433793D01*
X12267801Y-12433793D02*
X12258277Y-12471888D01*
X12258277Y-12471888D02*
X12248753Y-12490936D01*
X12248753Y-12490936D02*
X12239229Y-12500460D01*
X12239229Y-12500460D02*
X12220182Y-12509984D01*
X12220182Y-12509984D02*
X12201134Y-12509984D01*
X12201134Y-12509984D02*
X12182086Y-12500460D01*
X12182086Y-12500460D02*
X12172563Y-12490936D01*
X12172563Y-12490936D02*
X12163039Y-12471888D01*
X12163039Y-12471888D02*
X12153515Y-12433793D01*
X12153515Y-12433793D02*
X12153515Y-12386174D01*
X12153515Y-12386174D02*
X12163039Y-12348079D01*
X12163039Y-12348079D02*
X12172563Y-12329031D01*
X12172563Y-12329031D02*
X12182086Y-12319508D01*
X12182086Y-12319508D02*
X12201134Y-12309984D01*
X12353515Y-12490936D02*
X12363039Y-12500460D01*
X12363039Y-12500460D02*
X12353515Y-12509984D01*
X12353515Y-12509984D02*
X12343991Y-12500460D01*
X12343991Y-12500460D02*
X12353515Y-12490936D01*
X12353515Y-12490936D02*
X12353515Y-12509984D01*
X12486848Y-12309984D02*
X12505896Y-12309984D01*
X12505896Y-12309984D02*
X12524944Y-12319508D01*
X12524944Y-12319508D02*
X12534467Y-12329031D01*
X12534467Y-12329031D02*
X12543991Y-12348079D01*
X12543991Y-12348079D02*
X12553515Y-12386174D01*
X12553515Y-12386174D02*
X12553515Y-12433793D01*
X12553515Y-12433793D02*
X12543991Y-12471888D01*
X12543991Y-12471888D02*
X12534467Y-12490936D01*
X12534467Y-12490936D02*
X12524944Y-12500460D01*
X12524944Y-12500460D02*
X12505896Y-12509984D01*
X12505896Y-12509984D02*
X12486848Y-12509984D01*
X12486848Y-12509984D02*
X12467801Y-12500460D01*
X12467801Y-12500460D02*
X12458277Y-12490936D01*
X12458277Y-12490936D02*
X12448753Y-12471888D01*
X12448753Y-12471888D02*
X12439229Y-12433793D01*
X12439229Y-12433793D02*
X12439229Y-12386174D01*
X12439229Y-12386174D02*
X12448753Y-12348079D01*
X12448753Y-12348079D02*
X12458277Y-12329031D01*
X12458277Y-12329031D02*
X12467801Y-12319508D01*
X12467801Y-12319508D02*
X12486848Y-12309984D01*
X12620182Y-12309984D02*
X12743991Y-12309984D01*
X12743991Y-12309984D02*
X12677325Y-12386174D01*
X12677325Y-12386174D02*
X12705896Y-12386174D01*
X12705896Y-12386174D02*
X12724944Y-12395698D01*
X12724944Y-12395698D02*
X12734467Y-12405222D01*
X12734467Y-12405222D02*
X12743991Y-12424269D01*
X12743991Y-12424269D02*
X12743991Y-12471888D01*
X12743991Y-12471888D02*
X12734467Y-12490936D01*
X12734467Y-12490936D02*
X12724944Y-12500460D01*
X12724944Y-12500460D02*
X12705896Y-12509984D01*
X12705896Y-12509984D02*
X12648753Y-12509984D01*
X12648753Y-12509984D02*
X12629706Y-12500460D01*
X12629706Y-12500460D02*
X12620182Y-12490936D01*
X12839229Y-12509984D02*
X12877325Y-12509984D01*
X12877325Y-12509984D02*
X12896372Y-12500460D01*
X12896372Y-12500460D02*
X12905896Y-12490936D01*
X12905896Y-12490936D02*
X12924944Y-12462365D01*
X12924944Y-12462365D02*
X12934467Y-12424269D01*
X12934467Y-12424269D02*
X12934467Y-12348079D01*
X12934467Y-12348079D02*
X12924944Y-12329031D01*
X12924944Y-12329031D02*
X12915420Y-12319508D01*
X12915420Y-12319508D02*
X12896372Y-12309984D01*
X12896372Y-12309984D02*
X12858277Y-12309984D01*
X12858277Y-12309984D02*
X12839229Y-12319508D01*
X12839229Y-12319508D02*
X12829706Y-12329031D01*
X12829706Y-12329031D02*
X12820182Y-12348079D01*
X12820182Y-12348079D02*
X12820182Y-12395698D01*
X12820182Y-12395698D02*
X12829706Y-12414746D01*
X12829706Y-12414746D02*
X12839229Y-12424269D01*
X12839229Y-12424269D02*
X12858277Y-12433793D01*
X12858277Y-12433793D02*
X12896372Y-12433793D01*
X12896372Y-12433793D02*
X12915420Y-12424269D01*
X12915420Y-12424269D02*
X12924944Y-12414746D01*
X12924944Y-12414746D02*
X12934467Y-12395698D01*
X13105896Y-12376650D02*
X13105896Y-12509984D01*
X13058277Y-12300460D02*
X13010658Y-12443317D01*
X13010658Y-12443317D02*
X13134467Y-12443317D01*
X13201134Y-12309984D02*
X13201134Y-12348079D01*
X13277325Y-12309984D02*
X13277325Y-12348079D01*
X13572563Y-12586174D02*
X13563039Y-12576650D01*
X13563039Y-12576650D02*
X13543991Y-12548079D01*
X13543991Y-12548079D02*
X13534468Y-12529031D01*
X13534468Y-12529031D02*
X13524944Y-12500460D01*
X13524944Y-12500460D02*
X13515420Y-12452841D01*
X13515420Y-12452841D02*
X13515420Y-12414746D01*
X13515420Y-12414746D02*
X13524944Y-12367127D01*
X13524944Y-12367127D02*
X13534468Y-12338555D01*
X13534468Y-12338555D02*
X13543991Y-12319508D01*
X13543991Y-12319508D02*
X13563039Y-12290936D01*
X13563039Y-12290936D02*
X13572563Y-12281412D01*
X13753515Y-12509984D02*
X13639229Y-12509984D01*
X13696372Y-12509984D02*
X13696372Y-12309984D01*
X13696372Y-12309984D02*
X13677325Y-12338555D01*
X13677325Y-12338555D02*
X13658277Y-12357603D01*
X13658277Y-12357603D02*
X13639229Y-12367127D01*
X13934468Y-12309984D02*
X13839229Y-12309984D01*
X13839229Y-12309984D02*
X13829706Y-12405222D01*
X13829706Y-12405222D02*
X13839229Y-12395698D01*
X13839229Y-12395698D02*
X13858277Y-12386174D01*
X13858277Y-12386174D02*
X13905896Y-12386174D01*
X13905896Y-12386174D02*
X13924944Y-12395698D01*
X13924944Y-12395698D02*
X13934468Y-12405222D01*
X13934468Y-12405222D02*
X13943991Y-12424269D01*
X13943991Y-12424269D02*
X13943991Y-12471888D01*
X13943991Y-12471888D02*
X13934468Y-12490936D01*
X13934468Y-12490936D02*
X13924944Y-12500460D01*
X13924944Y-12500460D02*
X13905896Y-12509984D01*
X13905896Y-12509984D02*
X13858277Y-12509984D01*
X13858277Y-12509984D02*
X13839229Y-12500460D01*
X13839229Y-12500460D02*
X13829706Y-12490936D01*
X14182087Y-12509984D02*
X14182087Y-12309984D01*
X14267801Y-12509984D02*
X14267801Y-12405222D01*
X14267801Y-12405222D02*
X14258277Y-12386174D01*
X14258277Y-12386174D02*
X14239230Y-12376650D01*
X14239230Y-12376650D02*
X14210658Y-12376650D01*
X14210658Y-12376650D02*
X14191610Y-12386174D01*
X14191610Y-12386174D02*
X14182087Y-12395698D01*
X14391610Y-12509984D02*
X14372563Y-12500460D01*
X14372563Y-12500460D02*
X14363039Y-12490936D01*
X14363039Y-12490936D02*
X14353515Y-12471888D01*
X14353515Y-12471888D02*
X14353515Y-12414746D01*
X14353515Y-12414746D02*
X14363039Y-12395698D01*
X14363039Y-12395698D02*
X14372563Y-12386174D01*
X14372563Y-12386174D02*
X14391610Y-12376650D01*
X14391610Y-12376650D02*
X14420182Y-12376650D01*
X14420182Y-12376650D02*
X14439230Y-12386174D01*
X14439230Y-12386174D02*
X14448753Y-12395698D01*
X14448753Y-12395698D02*
X14458277Y-12414746D01*
X14458277Y-12414746D02*
X14458277Y-12471888D01*
X14458277Y-12471888D02*
X14448753Y-12490936D01*
X14448753Y-12490936D02*
X14439230Y-12500460D01*
X14439230Y-12500460D02*
X14420182Y-12509984D01*
X14420182Y-12509984D02*
X14391610Y-12509984D01*
X14572563Y-12509984D02*
X14553515Y-12500460D01*
X14553515Y-12500460D02*
X14543991Y-12481412D01*
X14543991Y-12481412D02*
X14543991Y-12309984D01*
X14724944Y-12500460D02*
X14705896Y-12509984D01*
X14705896Y-12509984D02*
X14667801Y-12509984D01*
X14667801Y-12509984D02*
X14648753Y-12500460D01*
X14648753Y-12500460D02*
X14639230Y-12481412D01*
X14639230Y-12481412D02*
X14639230Y-12405222D01*
X14639230Y-12405222D02*
X14648753Y-12386174D01*
X14648753Y-12386174D02*
X14667801Y-12376650D01*
X14667801Y-12376650D02*
X14705896Y-12376650D01*
X14705896Y-12376650D02*
X14724944Y-12386174D01*
X14724944Y-12386174D02*
X14734468Y-12405222D01*
X14734468Y-12405222D02*
X14734468Y-12424269D01*
X14734468Y-12424269D02*
X14639230Y-12443317D01*
X14810658Y-12500460D02*
X14829706Y-12509984D01*
X14829706Y-12509984D02*
X14867801Y-12509984D01*
X14867801Y-12509984D02*
X14886849Y-12500460D01*
X14886849Y-12500460D02*
X14896372Y-12481412D01*
X14896372Y-12481412D02*
X14896372Y-12471888D01*
X14896372Y-12471888D02*
X14886849Y-12452841D01*
X14886849Y-12452841D02*
X14867801Y-12443317D01*
X14867801Y-12443317D02*
X14839230Y-12443317D01*
X14839230Y-12443317D02*
X14820182Y-12433793D01*
X14820182Y-12433793D02*
X14810658Y-12414746D01*
X14810658Y-12414746D02*
X14810658Y-12405222D01*
X14810658Y-12405222D02*
X14820182Y-12386174D01*
X14820182Y-12386174D02*
X14839230Y-12376650D01*
X14839230Y-12376650D02*
X14867801Y-12376650D01*
X14867801Y-12376650D02*
X14886849Y-12386174D01*
X14963039Y-12586174D02*
X14972563Y-12576650D01*
X14972563Y-12576650D02*
X14991611Y-12548079D01*
X14991611Y-12548079D02*
X15001134Y-12529031D01*
X15001134Y-12529031D02*
X15010658Y-12500460D01*
X15010658Y-12500460D02*
X15020182Y-12452841D01*
X15020182Y-12452841D02*
X15020182Y-12414746D01*
X15020182Y-12414746D02*
X15010658Y-12367127D01*
X15010658Y-12367127D02*
X15001134Y-12338555D01*
X15001134Y-12338555D02*
X14991611Y-12319508D01*
X14991611Y-12319508D02*
X14972563Y-12290936D01*
X14972563Y-12290936D02*
X14963039Y-12281412D01*
D13*
X9885740Y-12626620D02*
X9997500Y-12738380D01*
X9997500Y-12626620D02*
X9885740Y-12738380D01*
X9997500Y-12682500D02*
G75*
G02*
X9885740Y-12682500I-55880J0D01*
G01*
X9885740Y-12682500D02*
G75*
G02*
X9997500Y-12682500I55880J0D01*
G01*
D11*
X10363039Y-12773984D02*
X10248753Y-12773984D01*
X10305896Y-12773984D02*
X10305896Y-12573984D01*
X10305896Y-12573984D02*
X10286848Y-12602555D01*
X10286848Y-12602555D02*
X10267801Y-12621603D01*
X10267801Y-12621603D02*
X10248753Y-12631127D01*
X10448753Y-12754936D02*
X10458277Y-12764460D01*
X10458277Y-12764460D02*
X10448753Y-12773984D01*
X10448753Y-12773984D02*
X10439229Y-12764460D01*
X10439229Y-12764460D02*
X10448753Y-12754936D01*
X10448753Y-12754936D02*
X10448753Y-12773984D01*
X10648753Y-12773984D02*
X10534467Y-12773984D01*
X10591610Y-12773984D02*
X10591610Y-12573984D01*
X10591610Y-12573984D02*
X10572563Y-12602555D01*
X10572563Y-12602555D02*
X10553515Y-12621603D01*
X10553515Y-12621603D02*
X10534467Y-12631127D01*
X10839229Y-12773984D02*
X10724944Y-12773984D01*
X10782086Y-12773984D02*
X10782086Y-12573984D01*
X10782086Y-12573984D02*
X10763039Y-12602555D01*
X10763039Y-12602555D02*
X10743991Y-12621603D01*
X10743991Y-12621603D02*
X10724944Y-12631127D01*
X10953515Y-12659698D02*
X10934467Y-12650174D01*
X10934467Y-12650174D02*
X10924944Y-12640650D01*
X10924944Y-12640650D02*
X10915420Y-12621603D01*
X10915420Y-12621603D02*
X10915420Y-12612079D01*
X10915420Y-12612079D02*
X10924944Y-12593031D01*
X10924944Y-12593031D02*
X10934467Y-12583508D01*
X10934467Y-12583508D02*
X10953515Y-12573984D01*
X10953515Y-12573984D02*
X10991610Y-12573984D01*
X10991610Y-12573984D02*
X11010658Y-12583508D01*
X11010658Y-12583508D02*
X11020182Y-12593031D01*
X11020182Y-12593031D02*
X11029705Y-12612079D01*
X11029705Y-12612079D02*
X11029705Y-12621603D01*
X11029705Y-12621603D02*
X11020182Y-12640650D01*
X11020182Y-12640650D02*
X11010658Y-12650174D01*
X11010658Y-12650174D02*
X10991610Y-12659698D01*
X10991610Y-12659698D02*
X10953515Y-12659698D01*
X10953515Y-12659698D02*
X10934467Y-12669222D01*
X10934467Y-12669222D02*
X10924944Y-12678746D01*
X10924944Y-12678746D02*
X10915420Y-12697793D01*
X10915420Y-12697793D02*
X10915420Y-12735888D01*
X10915420Y-12735888D02*
X10924944Y-12754936D01*
X10924944Y-12754936D02*
X10934467Y-12764460D01*
X10934467Y-12764460D02*
X10953515Y-12773984D01*
X10953515Y-12773984D02*
X10991610Y-12773984D01*
X10991610Y-12773984D02*
X11010658Y-12764460D01*
X11010658Y-12764460D02*
X11020182Y-12754936D01*
X11020182Y-12754936D02*
X11029705Y-12735888D01*
X11029705Y-12735888D02*
X11029705Y-12697793D01*
X11029705Y-12697793D02*
X11020182Y-12678746D01*
X11020182Y-12678746D02*
X11010658Y-12669222D01*
X11010658Y-12669222D02*
X10991610Y-12659698D01*
X11115420Y-12773984D02*
X11115420Y-12640650D01*
X11115420Y-12659698D02*
X11124944Y-12650174D01*
X11124944Y-12650174D02*
X11143991Y-12640650D01*
X11143991Y-12640650D02*
X11172563Y-12640650D01*
X11172563Y-12640650D02*
X11191610Y-12650174D01*
X11191610Y-12650174D02*
X11201134Y-12669222D01*
X11201134Y-12669222D02*
X11201134Y-12773984D01*
X11201134Y-12669222D02*
X11210658Y-12650174D01*
X11210658Y-12650174D02*
X11229705Y-12640650D01*
X11229705Y-12640650D02*
X11258277Y-12640650D01*
X11258277Y-12640650D02*
X11277324Y-12650174D01*
X11277324Y-12650174D02*
X11286848Y-12669222D01*
X11286848Y-12669222D02*
X11286848Y-12773984D01*
X11382086Y-12773984D02*
X11382086Y-12640650D01*
X11382086Y-12659698D02*
X11391610Y-12650174D01*
X11391610Y-12650174D02*
X11410658Y-12640650D01*
X11410658Y-12640650D02*
X11439229Y-12640650D01*
X11439229Y-12640650D02*
X11458277Y-12650174D01*
X11458277Y-12650174D02*
X11467801Y-12669222D01*
X11467801Y-12669222D02*
X11467801Y-12773984D01*
X11467801Y-12669222D02*
X11477324Y-12650174D01*
X11477324Y-12650174D02*
X11496372Y-12640650D01*
X11496372Y-12640650D02*
X11524943Y-12640650D01*
X11524943Y-12640650D02*
X11543991Y-12650174D01*
X11543991Y-12650174D02*
X11553515Y-12669222D01*
X11553515Y-12669222D02*
X11553515Y-12773984D01*
X11943991Y-12564460D02*
X11772563Y-12821603D01*
X12201134Y-12573984D02*
X12220182Y-12573984D01*
X12220182Y-12573984D02*
X12239229Y-12583508D01*
X12239229Y-12583508D02*
X12248753Y-12593031D01*
X12248753Y-12593031D02*
X12258277Y-12612079D01*
X12258277Y-12612079D02*
X12267801Y-12650174D01*
X12267801Y-12650174D02*
X12267801Y-12697793D01*
X12267801Y-12697793D02*
X12258277Y-12735888D01*
X12258277Y-12735888D02*
X12248753Y-12754936D01*
X12248753Y-12754936D02*
X12239229Y-12764460D01*
X12239229Y-12764460D02*
X12220182Y-12773984D01*
X12220182Y-12773984D02*
X12201134Y-12773984D01*
X12201134Y-12773984D02*
X12182086Y-12764460D01*
X12182086Y-12764460D02*
X12172563Y-12754936D01*
X12172563Y-12754936D02*
X12163039Y-12735888D01*
X12163039Y-12735888D02*
X12153515Y-12697793D01*
X12153515Y-12697793D02*
X12153515Y-12650174D01*
X12153515Y-12650174D02*
X12163039Y-12612079D01*
X12163039Y-12612079D02*
X12172563Y-12593031D01*
X12172563Y-12593031D02*
X12182086Y-12583508D01*
X12182086Y-12583508D02*
X12201134Y-12573984D01*
X12353515Y-12754936D02*
X12363039Y-12764460D01*
X12363039Y-12764460D02*
X12353515Y-12773984D01*
X12353515Y-12773984D02*
X12343991Y-12764460D01*
X12343991Y-12764460D02*
X12353515Y-12754936D01*
X12353515Y-12754936D02*
X12353515Y-12773984D01*
X12486848Y-12573984D02*
X12505896Y-12573984D01*
X12505896Y-12573984D02*
X12524944Y-12583508D01*
X12524944Y-12583508D02*
X12534467Y-12593031D01*
X12534467Y-12593031D02*
X12543991Y-12612079D01*
X12543991Y-12612079D02*
X12553515Y-12650174D01*
X12553515Y-12650174D02*
X12553515Y-12697793D01*
X12553515Y-12697793D02*
X12543991Y-12735888D01*
X12543991Y-12735888D02*
X12534467Y-12754936D01*
X12534467Y-12754936D02*
X12524944Y-12764460D01*
X12524944Y-12764460D02*
X12505896Y-12773984D01*
X12505896Y-12773984D02*
X12486848Y-12773984D01*
X12486848Y-12773984D02*
X12467801Y-12764460D01*
X12467801Y-12764460D02*
X12458277Y-12754936D01*
X12458277Y-12754936D02*
X12448753Y-12735888D01*
X12448753Y-12735888D02*
X12439229Y-12697793D01*
X12439229Y-12697793D02*
X12439229Y-12650174D01*
X12439229Y-12650174D02*
X12448753Y-12612079D01*
X12448753Y-12612079D02*
X12458277Y-12593031D01*
X12458277Y-12593031D02*
X12467801Y-12583508D01*
X12467801Y-12583508D02*
X12486848Y-12573984D01*
X12724944Y-12640650D02*
X12724944Y-12773984D01*
X12677325Y-12564460D02*
X12629706Y-12707317D01*
X12629706Y-12707317D02*
X12753515Y-12707317D01*
X12915420Y-12640650D02*
X12915420Y-12773984D01*
X12867801Y-12564460D02*
X12820182Y-12707317D01*
X12820182Y-12707317D02*
X12943991Y-12707317D01*
X13058277Y-12573984D02*
X13077325Y-12573984D01*
X13077325Y-12573984D02*
X13096372Y-12583508D01*
X13096372Y-12583508D02*
X13105896Y-12593031D01*
X13105896Y-12593031D02*
X13115420Y-12612079D01*
X13115420Y-12612079D02*
X13124944Y-12650174D01*
X13124944Y-12650174D02*
X13124944Y-12697793D01*
X13124944Y-12697793D02*
X13115420Y-12735888D01*
X13115420Y-12735888D02*
X13105896Y-12754936D01*
X13105896Y-12754936D02*
X13096372Y-12764460D01*
X13096372Y-12764460D02*
X13077325Y-12773984D01*
X13077325Y-12773984D02*
X13058277Y-12773984D01*
X13058277Y-12773984D02*
X13039229Y-12764460D01*
X13039229Y-12764460D02*
X13029706Y-12754936D01*
X13029706Y-12754936D02*
X13020182Y-12735888D01*
X13020182Y-12735888D02*
X13010658Y-12697793D01*
X13010658Y-12697793D02*
X13010658Y-12650174D01*
X13010658Y-12650174D02*
X13020182Y-12612079D01*
X13020182Y-12612079D02*
X13029706Y-12593031D01*
X13029706Y-12593031D02*
X13039229Y-12583508D01*
X13039229Y-12583508D02*
X13058277Y-12573984D01*
X13201134Y-12573984D02*
X13201134Y-12612079D01*
X13277325Y-12573984D02*
X13277325Y-12612079D01*
X13572563Y-12850174D02*
X13563039Y-12840650D01*
X13563039Y-12840650D02*
X13543991Y-12812079D01*
X13543991Y-12812079D02*
X13534468Y-12793031D01*
X13534468Y-12793031D02*
X13524944Y-12764460D01*
X13524944Y-12764460D02*
X13515420Y-12716841D01*
X13515420Y-12716841D02*
X13515420Y-12678746D01*
X13515420Y-12678746D02*
X13524944Y-12631127D01*
X13524944Y-12631127D02*
X13534468Y-12602555D01*
X13534468Y-12602555D02*
X13543991Y-12583508D01*
X13543991Y-12583508D02*
X13563039Y-12554936D01*
X13563039Y-12554936D02*
X13572563Y-12545412D01*
X13734468Y-12573984D02*
X13696372Y-12573984D01*
X13696372Y-12573984D02*
X13677325Y-12583508D01*
X13677325Y-12583508D02*
X13667801Y-12593031D01*
X13667801Y-12593031D02*
X13648753Y-12621603D01*
X13648753Y-12621603D02*
X13639229Y-12659698D01*
X13639229Y-12659698D02*
X13639229Y-12735888D01*
X13639229Y-12735888D02*
X13648753Y-12754936D01*
X13648753Y-12754936D02*
X13658277Y-12764460D01*
X13658277Y-12764460D02*
X13677325Y-12773984D01*
X13677325Y-12773984D02*
X13715420Y-12773984D01*
X13715420Y-12773984D02*
X13734468Y-12764460D01*
X13734468Y-12764460D02*
X13743991Y-12754936D01*
X13743991Y-12754936D02*
X13753515Y-12735888D01*
X13753515Y-12735888D02*
X13753515Y-12688269D01*
X13753515Y-12688269D02*
X13743991Y-12669222D01*
X13743991Y-12669222D02*
X13734468Y-12659698D01*
X13734468Y-12659698D02*
X13715420Y-12650174D01*
X13715420Y-12650174D02*
X13677325Y-12650174D01*
X13677325Y-12650174D02*
X13658277Y-12659698D01*
X13658277Y-12659698D02*
X13648753Y-12669222D01*
X13648753Y-12669222D02*
X13639229Y-12688269D01*
X13991610Y-12773984D02*
X13991610Y-12573984D01*
X14077325Y-12773984D02*
X14077325Y-12669222D01*
X14077325Y-12669222D02*
X14067801Y-12650174D01*
X14067801Y-12650174D02*
X14048753Y-12640650D01*
X14048753Y-12640650D02*
X14020182Y-12640650D01*
X14020182Y-12640650D02*
X14001134Y-12650174D01*
X14001134Y-12650174D02*
X13991610Y-12659698D01*
X14201134Y-12773984D02*
X14182087Y-12764460D01*
X14182087Y-12764460D02*
X14172563Y-12754936D01*
X14172563Y-12754936D02*
X14163039Y-12735888D01*
X14163039Y-12735888D02*
X14163039Y-12678746D01*
X14163039Y-12678746D02*
X14172563Y-12659698D01*
X14172563Y-12659698D02*
X14182087Y-12650174D01*
X14182087Y-12650174D02*
X14201134Y-12640650D01*
X14201134Y-12640650D02*
X14229706Y-12640650D01*
X14229706Y-12640650D02*
X14248753Y-12650174D01*
X14248753Y-12650174D02*
X14258277Y-12659698D01*
X14258277Y-12659698D02*
X14267801Y-12678746D01*
X14267801Y-12678746D02*
X14267801Y-12735888D01*
X14267801Y-12735888D02*
X14258277Y-12754936D01*
X14258277Y-12754936D02*
X14248753Y-12764460D01*
X14248753Y-12764460D02*
X14229706Y-12773984D01*
X14229706Y-12773984D02*
X14201134Y-12773984D01*
X14382087Y-12773984D02*
X14363039Y-12764460D01*
X14363039Y-12764460D02*
X14353515Y-12745412D01*
X14353515Y-12745412D02*
X14353515Y-12573984D01*
X14534468Y-12764460D02*
X14515420Y-12773984D01*
X14515420Y-12773984D02*
X14477325Y-12773984D01*
X14477325Y-12773984D02*
X14458277Y-12764460D01*
X14458277Y-12764460D02*
X14448753Y-12745412D01*
X14448753Y-12745412D02*
X14448753Y-12669222D01*
X14448753Y-12669222D02*
X14458277Y-12650174D01*
X14458277Y-12650174D02*
X14477325Y-12640650D01*
X14477325Y-12640650D02*
X14515420Y-12640650D01*
X14515420Y-12640650D02*
X14534468Y-12650174D01*
X14534468Y-12650174D02*
X14543991Y-12669222D01*
X14543991Y-12669222D02*
X14543991Y-12688269D01*
X14543991Y-12688269D02*
X14448753Y-12707317D01*
X14620182Y-12764460D02*
X14639230Y-12773984D01*
X14639230Y-12773984D02*
X14677325Y-12773984D01*
X14677325Y-12773984D02*
X14696372Y-12764460D01*
X14696372Y-12764460D02*
X14705896Y-12745412D01*
X14705896Y-12745412D02*
X14705896Y-12735888D01*
X14705896Y-12735888D02*
X14696372Y-12716841D01*
X14696372Y-12716841D02*
X14677325Y-12707317D01*
X14677325Y-12707317D02*
X14648753Y-12707317D01*
X14648753Y-12707317D02*
X14629706Y-12697793D01*
X14629706Y-12697793D02*
X14620182Y-12678746D01*
X14620182Y-12678746D02*
X14620182Y-12669222D01*
X14620182Y-12669222D02*
X14629706Y-12650174D01*
X14629706Y-12650174D02*
X14648753Y-12640650D01*
X14648753Y-12640650D02*
X14677325Y-12640650D01*
X14677325Y-12640650D02*
X14696372Y-12650174D01*
X14772563Y-12850174D02*
X14782087Y-12840650D01*
X14782087Y-12840650D02*
X14801134Y-12812079D01*
X14801134Y-12812079D02*
X14810658Y-12793031D01*
X14810658Y-12793031D02*
X14820182Y-12764460D01*
X14820182Y-12764460D02*
X14829706Y-12716841D01*
X14829706Y-12716841D02*
X14829706Y-12678746D01*
X14829706Y-12678746D02*
X14820182Y-12631127D01*
X14820182Y-12631127D02*
X14810658Y-12602555D01*
X14810658Y-12602555D02*
X14801134Y-12583508D01*
X14801134Y-12583508D02*
X14782087Y-12554936D01*
X14782087Y-12554936D02*
X14772563Y-12545412D01*
D14*
X9857500Y-12876500D02*
X9997500Y-13016500D01*
X9997500Y-12876500D02*
X9857500Y-13016500D01*
X9927500Y-12876500D02*
X9927500Y-13016500D01*
X9857500Y-12946500D02*
X9997500Y-12946500D01*
D11*
X10363039Y-13037984D02*
X10248753Y-13037984D01*
X10305896Y-13037984D02*
X10305896Y-12837984D01*
X10305896Y-12837984D02*
X10286848Y-12866555D01*
X10286848Y-12866555D02*
X10267801Y-12885603D01*
X10267801Y-12885603D02*
X10248753Y-12895127D01*
X10448753Y-13018936D02*
X10458277Y-13028460D01*
X10458277Y-13028460D02*
X10448753Y-13037984D01*
X10448753Y-13037984D02*
X10439229Y-13028460D01*
X10439229Y-13028460D02*
X10448753Y-13018936D01*
X10448753Y-13018936D02*
X10448753Y-13037984D01*
X10629705Y-12904650D02*
X10629705Y-13037984D01*
X10582086Y-12828460D02*
X10534467Y-12971317D01*
X10534467Y-12971317D02*
X10658277Y-12971317D01*
X10772563Y-12837984D02*
X10791610Y-12837984D01*
X10791610Y-12837984D02*
X10810658Y-12847508D01*
X10810658Y-12847508D02*
X10820182Y-12857031D01*
X10820182Y-12857031D02*
X10829705Y-12876079D01*
X10829705Y-12876079D02*
X10839229Y-12914174D01*
X10839229Y-12914174D02*
X10839229Y-12961793D01*
X10839229Y-12961793D02*
X10829705Y-12999888D01*
X10829705Y-12999888D02*
X10820182Y-13018936D01*
X10820182Y-13018936D02*
X10810658Y-13028460D01*
X10810658Y-13028460D02*
X10791610Y-13037984D01*
X10791610Y-13037984D02*
X10772563Y-13037984D01*
X10772563Y-13037984D02*
X10753515Y-13028460D01*
X10753515Y-13028460D02*
X10743991Y-13018936D01*
X10743991Y-13018936D02*
X10734467Y-12999888D01*
X10734467Y-12999888D02*
X10724944Y-12961793D01*
X10724944Y-12961793D02*
X10724944Y-12914174D01*
X10724944Y-12914174D02*
X10734467Y-12876079D01*
X10734467Y-12876079D02*
X10743991Y-12857031D01*
X10743991Y-12857031D02*
X10753515Y-12847508D01*
X10753515Y-12847508D02*
X10772563Y-12837984D01*
X10963039Y-12837984D02*
X10982086Y-12837984D01*
X10982086Y-12837984D02*
X11001134Y-12847508D01*
X11001134Y-12847508D02*
X11010658Y-12857031D01*
X11010658Y-12857031D02*
X11020182Y-12876079D01*
X11020182Y-12876079D02*
X11029705Y-12914174D01*
X11029705Y-12914174D02*
X11029705Y-12961793D01*
X11029705Y-12961793D02*
X11020182Y-12999888D01*
X11020182Y-12999888D02*
X11010658Y-13018936D01*
X11010658Y-13018936D02*
X11001134Y-13028460D01*
X11001134Y-13028460D02*
X10982086Y-13037984D01*
X10982086Y-13037984D02*
X10963039Y-13037984D01*
X10963039Y-13037984D02*
X10943991Y-13028460D01*
X10943991Y-13028460D02*
X10934467Y-13018936D01*
X10934467Y-13018936D02*
X10924944Y-12999888D01*
X10924944Y-12999888D02*
X10915420Y-12961793D01*
X10915420Y-12961793D02*
X10915420Y-12914174D01*
X10915420Y-12914174D02*
X10924944Y-12876079D01*
X10924944Y-12876079D02*
X10934467Y-12857031D01*
X10934467Y-12857031D02*
X10943991Y-12847508D01*
X10943991Y-12847508D02*
X10963039Y-12837984D01*
X11115420Y-13037984D02*
X11115420Y-12904650D01*
X11115420Y-12923698D02*
X11124944Y-12914174D01*
X11124944Y-12914174D02*
X11143991Y-12904650D01*
X11143991Y-12904650D02*
X11172563Y-12904650D01*
X11172563Y-12904650D02*
X11191610Y-12914174D01*
X11191610Y-12914174D02*
X11201134Y-12933222D01*
X11201134Y-12933222D02*
X11201134Y-13037984D01*
X11201134Y-12933222D02*
X11210658Y-12914174D01*
X11210658Y-12914174D02*
X11229705Y-12904650D01*
X11229705Y-12904650D02*
X11258277Y-12904650D01*
X11258277Y-12904650D02*
X11277324Y-12914174D01*
X11277324Y-12914174D02*
X11286848Y-12933222D01*
X11286848Y-12933222D02*
X11286848Y-13037984D01*
X11382086Y-13037984D02*
X11382086Y-12904650D01*
X11382086Y-12923698D02*
X11391610Y-12914174D01*
X11391610Y-12914174D02*
X11410658Y-12904650D01*
X11410658Y-12904650D02*
X11439229Y-12904650D01*
X11439229Y-12904650D02*
X11458277Y-12914174D01*
X11458277Y-12914174D02*
X11467801Y-12933222D01*
X11467801Y-12933222D02*
X11467801Y-13037984D01*
X11467801Y-12933222D02*
X11477324Y-12914174D01*
X11477324Y-12914174D02*
X11496372Y-12904650D01*
X11496372Y-12904650D02*
X11524943Y-12904650D01*
X11524943Y-12904650D02*
X11543991Y-12914174D01*
X11543991Y-12914174D02*
X11553515Y-12933222D01*
X11553515Y-12933222D02*
X11553515Y-13037984D01*
X11943991Y-12828460D02*
X11772563Y-13085603D01*
X12201134Y-12837984D02*
X12220182Y-12837984D01*
X12220182Y-12837984D02*
X12239229Y-12847508D01*
X12239229Y-12847508D02*
X12248753Y-12857031D01*
X12248753Y-12857031D02*
X12258277Y-12876079D01*
X12258277Y-12876079D02*
X12267801Y-12914174D01*
X12267801Y-12914174D02*
X12267801Y-12961793D01*
X12267801Y-12961793D02*
X12258277Y-12999888D01*
X12258277Y-12999888D02*
X12248753Y-13018936D01*
X12248753Y-13018936D02*
X12239229Y-13028460D01*
X12239229Y-13028460D02*
X12220182Y-13037984D01*
X12220182Y-13037984D02*
X12201134Y-13037984D01*
X12201134Y-13037984D02*
X12182086Y-13028460D01*
X12182086Y-13028460D02*
X12172563Y-13018936D01*
X12172563Y-13018936D02*
X12163039Y-12999888D01*
X12163039Y-12999888D02*
X12153515Y-12961793D01*
X12153515Y-12961793D02*
X12153515Y-12914174D01*
X12153515Y-12914174D02*
X12163039Y-12876079D01*
X12163039Y-12876079D02*
X12172563Y-12857031D01*
X12172563Y-12857031D02*
X12182086Y-12847508D01*
X12182086Y-12847508D02*
X12201134Y-12837984D01*
X12353515Y-13018936D02*
X12363039Y-13028460D01*
X12363039Y-13028460D02*
X12353515Y-13037984D01*
X12353515Y-13037984D02*
X12343991Y-13028460D01*
X12343991Y-13028460D02*
X12353515Y-13018936D01*
X12353515Y-13018936D02*
X12353515Y-13037984D01*
X12486848Y-12837984D02*
X12505896Y-12837984D01*
X12505896Y-12837984D02*
X12524944Y-12847508D01*
X12524944Y-12847508D02*
X12534467Y-12857031D01*
X12534467Y-12857031D02*
X12543991Y-12876079D01*
X12543991Y-12876079D02*
X12553515Y-12914174D01*
X12553515Y-12914174D02*
X12553515Y-12961793D01*
X12553515Y-12961793D02*
X12543991Y-12999888D01*
X12543991Y-12999888D02*
X12534467Y-13018936D01*
X12534467Y-13018936D02*
X12524944Y-13028460D01*
X12524944Y-13028460D02*
X12505896Y-13037984D01*
X12505896Y-13037984D02*
X12486848Y-13037984D01*
X12486848Y-13037984D02*
X12467801Y-13028460D01*
X12467801Y-13028460D02*
X12458277Y-13018936D01*
X12458277Y-13018936D02*
X12448753Y-12999888D01*
X12448753Y-12999888D02*
X12439229Y-12961793D01*
X12439229Y-12961793D02*
X12439229Y-12914174D01*
X12439229Y-12914174D02*
X12448753Y-12876079D01*
X12448753Y-12876079D02*
X12458277Y-12857031D01*
X12458277Y-12857031D02*
X12467801Y-12847508D01*
X12467801Y-12847508D02*
X12486848Y-12837984D01*
X12734467Y-12837984D02*
X12639229Y-12837984D01*
X12639229Y-12837984D02*
X12629706Y-12933222D01*
X12629706Y-12933222D02*
X12639229Y-12923698D01*
X12639229Y-12923698D02*
X12658277Y-12914174D01*
X12658277Y-12914174D02*
X12705896Y-12914174D01*
X12705896Y-12914174D02*
X12724944Y-12923698D01*
X12724944Y-12923698D02*
X12734467Y-12933222D01*
X12734467Y-12933222D02*
X12743991Y-12952269D01*
X12743991Y-12952269D02*
X12743991Y-12999888D01*
X12743991Y-12999888D02*
X12734467Y-13018936D01*
X12734467Y-13018936D02*
X12724944Y-13028460D01*
X12724944Y-13028460D02*
X12705896Y-13037984D01*
X12705896Y-13037984D02*
X12658277Y-13037984D01*
X12658277Y-13037984D02*
X12639229Y-13028460D01*
X12639229Y-13028460D02*
X12629706Y-13018936D01*
X12924944Y-12837984D02*
X12829706Y-12837984D01*
X12829706Y-12837984D02*
X12820182Y-12933222D01*
X12820182Y-12933222D02*
X12829706Y-12923698D01*
X12829706Y-12923698D02*
X12848753Y-12914174D01*
X12848753Y-12914174D02*
X12896372Y-12914174D01*
X12896372Y-12914174D02*
X12915420Y-12923698D01*
X12915420Y-12923698D02*
X12924944Y-12933222D01*
X12924944Y-12933222D02*
X12934467Y-12952269D01*
X12934467Y-12952269D02*
X12934467Y-12999888D01*
X12934467Y-12999888D02*
X12924944Y-13018936D01*
X12924944Y-13018936D02*
X12915420Y-13028460D01*
X12915420Y-13028460D02*
X12896372Y-13037984D01*
X12896372Y-13037984D02*
X12848753Y-13037984D01*
X12848753Y-13037984D02*
X12829706Y-13028460D01*
X12829706Y-13028460D02*
X12820182Y-13018936D01*
X13124944Y-13037984D02*
X13010658Y-13037984D01*
X13067801Y-13037984D02*
X13067801Y-12837984D01*
X13067801Y-12837984D02*
X13048753Y-12866555D01*
X13048753Y-12866555D02*
X13029706Y-12885603D01*
X13029706Y-12885603D02*
X13010658Y-12895127D01*
X13201134Y-12837984D02*
X13201134Y-12876079D01*
X13277325Y-12837984D02*
X13277325Y-12876079D01*
X13572563Y-13114174D02*
X13563039Y-13104650D01*
X13563039Y-13104650D02*
X13543991Y-13076079D01*
X13543991Y-13076079D02*
X13534468Y-13057031D01*
X13534468Y-13057031D02*
X13524944Y-13028460D01*
X13524944Y-13028460D02*
X13515420Y-12980841D01*
X13515420Y-12980841D02*
X13515420Y-12942746D01*
X13515420Y-12942746D02*
X13524944Y-12895127D01*
X13524944Y-12895127D02*
X13534468Y-12866555D01*
X13534468Y-12866555D02*
X13543991Y-12847508D01*
X13543991Y-12847508D02*
X13563039Y-12818936D01*
X13563039Y-12818936D02*
X13572563Y-12809412D01*
X13753515Y-13037984D02*
X13639229Y-13037984D01*
X13696372Y-13037984D02*
X13696372Y-12837984D01*
X13696372Y-12837984D02*
X13677325Y-12866555D01*
X13677325Y-12866555D02*
X13658277Y-12885603D01*
X13658277Y-12885603D02*
X13639229Y-12895127D01*
X13991610Y-13037984D02*
X13991610Y-12837984D01*
X14077325Y-13037984D02*
X14077325Y-12933222D01*
X14077325Y-12933222D02*
X14067801Y-12914174D01*
X14067801Y-12914174D02*
X14048753Y-12904650D01*
X14048753Y-12904650D02*
X14020182Y-12904650D01*
X14020182Y-12904650D02*
X14001134Y-12914174D01*
X14001134Y-12914174D02*
X13991610Y-12923698D01*
X14201134Y-13037984D02*
X14182087Y-13028460D01*
X14182087Y-13028460D02*
X14172563Y-13018936D01*
X14172563Y-13018936D02*
X14163039Y-12999888D01*
X14163039Y-12999888D02*
X14163039Y-12942746D01*
X14163039Y-12942746D02*
X14172563Y-12923698D01*
X14172563Y-12923698D02*
X14182087Y-12914174D01*
X14182087Y-12914174D02*
X14201134Y-12904650D01*
X14201134Y-12904650D02*
X14229706Y-12904650D01*
X14229706Y-12904650D02*
X14248753Y-12914174D01*
X14248753Y-12914174D02*
X14258277Y-12923698D01*
X14258277Y-12923698D02*
X14267801Y-12942746D01*
X14267801Y-12942746D02*
X14267801Y-12999888D01*
X14267801Y-12999888D02*
X14258277Y-13018936D01*
X14258277Y-13018936D02*
X14248753Y-13028460D01*
X14248753Y-13028460D02*
X14229706Y-13037984D01*
X14229706Y-13037984D02*
X14201134Y-13037984D01*
X14382087Y-13037984D02*
X14363039Y-13028460D01*
X14363039Y-13028460D02*
X14353515Y-13009412D01*
X14353515Y-13009412D02*
X14353515Y-12837984D01*
X14534468Y-13028460D02*
X14515420Y-13037984D01*
X14515420Y-13037984D02*
X14477325Y-13037984D01*
X14477325Y-13037984D02*
X14458277Y-13028460D01*
X14458277Y-13028460D02*
X14448753Y-13009412D01*
X14448753Y-13009412D02*
X14448753Y-12933222D01*
X14448753Y-12933222D02*
X14458277Y-12914174D01*
X14458277Y-12914174D02*
X14477325Y-12904650D01*
X14477325Y-12904650D02*
X14515420Y-12904650D01*
X14515420Y-12904650D02*
X14534468Y-12914174D01*
X14534468Y-12914174D02*
X14543991Y-12933222D01*
X14543991Y-12933222D02*
X14543991Y-12952269D01*
X14543991Y-12952269D02*
X14448753Y-12971317D01*
X14610658Y-13114174D02*
X14620182Y-13104650D01*
X14620182Y-13104650D02*
X14639230Y-13076079D01*
X14639230Y-13076079D02*
X14648753Y-13057031D01*
X14648753Y-13057031D02*
X14658277Y-13028460D01*
X14658277Y-13028460D02*
X14667801Y-12980841D01*
X14667801Y-12980841D02*
X14667801Y-12942746D01*
X14667801Y-12942746D02*
X14658277Y-12895127D01*
X14658277Y-12895127D02*
X14648753Y-12866555D01*
X14648753Y-12866555D02*
X14639230Y-12847508D01*
X14639230Y-12847508D02*
X14620182Y-12818936D01*
X14620182Y-12818936D02*
X14610658Y-12809412D01*
D15*
X9837500Y-13130500D02*
X9997500Y-13290500D01*
X9997500Y-13130500D02*
X9837500Y-13290500D01*
X9974069Y-13267069D02*
X9974069Y-13153931D01*
X9860931Y-13153931D01*
X9860931Y-13267069D01*
X9974069Y-13267069D01*
D11*
X10363039Y-13301984D02*
X10248753Y-13301984D01*
X10305896Y-13301984D02*
X10305896Y-13101984D01*
X10305896Y-13101984D02*
X10286848Y-13130555D01*
X10286848Y-13130555D02*
X10267801Y-13149603D01*
X10267801Y-13149603D02*
X10248753Y-13159127D01*
X10448753Y-13282936D02*
X10458277Y-13292460D01*
X10458277Y-13292460D02*
X10448753Y-13301984D01*
X10448753Y-13301984D02*
X10439229Y-13292460D01*
X10439229Y-13292460D02*
X10448753Y-13282936D01*
X10448753Y-13282936D02*
X10448753Y-13301984D01*
X10629705Y-13101984D02*
X10591610Y-13101984D01*
X10591610Y-13101984D02*
X10572563Y-13111508D01*
X10572563Y-13111508D02*
X10563039Y-13121031D01*
X10563039Y-13121031D02*
X10543991Y-13149603D01*
X10543991Y-13149603D02*
X10534467Y-13187698D01*
X10534467Y-13187698D02*
X10534467Y-13263888D01*
X10534467Y-13263888D02*
X10543991Y-13282936D01*
X10543991Y-13282936D02*
X10553515Y-13292460D01*
X10553515Y-13292460D02*
X10572563Y-13301984D01*
X10572563Y-13301984D02*
X10610658Y-13301984D01*
X10610658Y-13301984D02*
X10629705Y-13292460D01*
X10629705Y-13292460D02*
X10639229Y-13282936D01*
X10639229Y-13282936D02*
X10648753Y-13263888D01*
X10648753Y-13263888D02*
X10648753Y-13216269D01*
X10648753Y-13216269D02*
X10639229Y-13197222D01*
X10639229Y-13197222D02*
X10629705Y-13187698D01*
X10629705Y-13187698D02*
X10610658Y-13178174D01*
X10610658Y-13178174D02*
X10572563Y-13178174D01*
X10572563Y-13178174D02*
X10553515Y-13187698D01*
X10553515Y-13187698D02*
X10543991Y-13197222D01*
X10543991Y-13197222D02*
X10534467Y-13216269D01*
X10772563Y-13101984D02*
X10791610Y-13101984D01*
X10791610Y-13101984D02*
X10810658Y-13111508D01*
X10810658Y-13111508D02*
X10820182Y-13121031D01*
X10820182Y-13121031D02*
X10829705Y-13140079D01*
X10829705Y-13140079D02*
X10839229Y-13178174D01*
X10839229Y-13178174D02*
X10839229Y-13225793D01*
X10839229Y-13225793D02*
X10829705Y-13263888D01*
X10829705Y-13263888D02*
X10820182Y-13282936D01*
X10820182Y-13282936D02*
X10810658Y-13292460D01*
X10810658Y-13292460D02*
X10791610Y-13301984D01*
X10791610Y-13301984D02*
X10772563Y-13301984D01*
X10772563Y-13301984D02*
X10753515Y-13292460D01*
X10753515Y-13292460D02*
X10743991Y-13282936D01*
X10743991Y-13282936D02*
X10734467Y-13263888D01*
X10734467Y-13263888D02*
X10724944Y-13225793D01*
X10724944Y-13225793D02*
X10724944Y-13178174D01*
X10724944Y-13178174D02*
X10734467Y-13140079D01*
X10734467Y-13140079D02*
X10743991Y-13121031D01*
X10743991Y-13121031D02*
X10753515Y-13111508D01*
X10753515Y-13111508D02*
X10772563Y-13101984D01*
X10963039Y-13101984D02*
X10982086Y-13101984D01*
X10982086Y-13101984D02*
X11001134Y-13111508D01*
X11001134Y-13111508D02*
X11010658Y-13121031D01*
X11010658Y-13121031D02*
X11020182Y-13140079D01*
X11020182Y-13140079D02*
X11029705Y-13178174D01*
X11029705Y-13178174D02*
X11029705Y-13225793D01*
X11029705Y-13225793D02*
X11020182Y-13263888D01*
X11020182Y-13263888D02*
X11010658Y-13282936D01*
X11010658Y-13282936D02*
X11001134Y-13292460D01*
X11001134Y-13292460D02*
X10982086Y-13301984D01*
X10982086Y-13301984D02*
X10963039Y-13301984D01*
X10963039Y-13301984D02*
X10943991Y-13292460D01*
X10943991Y-13292460D02*
X10934467Y-13282936D01*
X10934467Y-13282936D02*
X10924944Y-13263888D01*
X10924944Y-13263888D02*
X10915420Y-13225793D01*
X10915420Y-13225793D02*
X10915420Y-13178174D01*
X10915420Y-13178174D02*
X10924944Y-13140079D01*
X10924944Y-13140079D02*
X10934467Y-13121031D01*
X10934467Y-13121031D02*
X10943991Y-13111508D01*
X10943991Y-13111508D02*
X10963039Y-13101984D01*
X11115420Y-13301984D02*
X11115420Y-13168650D01*
X11115420Y-13187698D02*
X11124944Y-13178174D01*
X11124944Y-13178174D02*
X11143991Y-13168650D01*
X11143991Y-13168650D02*
X11172563Y-13168650D01*
X11172563Y-13168650D02*
X11191610Y-13178174D01*
X11191610Y-13178174D02*
X11201134Y-13197222D01*
X11201134Y-13197222D02*
X11201134Y-13301984D01*
X11201134Y-13197222D02*
X11210658Y-13178174D01*
X11210658Y-13178174D02*
X11229705Y-13168650D01*
X11229705Y-13168650D02*
X11258277Y-13168650D01*
X11258277Y-13168650D02*
X11277324Y-13178174D01*
X11277324Y-13178174D02*
X11286848Y-13197222D01*
X11286848Y-13197222D02*
X11286848Y-13301984D01*
X11382086Y-13301984D02*
X11382086Y-13168650D01*
X11382086Y-13187698D02*
X11391610Y-13178174D01*
X11391610Y-13178174D02*
X11410658Y-13168650D01*
X11410658Y-13168650D02*
X11439229Y-13168650D01*
X11439229Y-13168650D02*
X11458277Y-13178174D01*
X11458277Y-13178174D02*
X11467801Y-13197222D01*
X11467801Y-13197222D02*
X11467801Y-13301984D01*
X11467801Y-13197222D02*
X11477324Y-13178174D01*
X11477324Y-13178174D02*
X11496372Y-13168650D01*
X11496372Y-13168650D02*
X11524943Y-13168650D01*
X11524943Y-13168650D02*
X11543991Y-13178174D01*
X11543991Y-13178174D02*
X11553515Y-13197222D01*
X11553515Y-13197222D02*
X11553515Y-13301984D01*
X11943991Y-13092460D02*
X11772563Y-13349603D01*
X12201134Y-13101984D02*
X12220182Y-13101984D01*
X12220182Y-13101984D02*
X12239229Y-13111508D01*
X12239229Y-13111508D02*
X12248753Y-13121031D01*
X12248753Y-13121031D02*
X12258277Y-13140079D01*
X12258277Y-13140079D02*
X12267801Y-13178174D01*
X12267801Y-13178174D02*
X12267801Y-13225793D01*
X12267801Y-13225793D02*
X12258277Y-13263888D01*
X12258277Y-13263888D02*
X12248753Y-13282936D01*
X12248753Y-13282936D02*
X12239229Y-13292460D01*
X12239229Y-13292460D02*
X12220182Y-13301984D01*
X12220182Y-13301984D02*
X12201134Y-13301984D01*
X12201134Y-13301984D02*
X12182086Y-13292460D01*
X12182086Y-13292460D02*
X12172563Y-13282936D01*
X12172563Y-13282936D02*
X12163039Y-13263888D01*
X12163039Y-13263888D02*
X12153515Y-13225793D01*
X12153515Y-13225793D02*
X12153515Y-13178174D01*
X12153515Y-13178174D02*
X12163039Y-13140079D01*
X12163039Y-13140079D02*
X12172563Y-13121031D01*
X12172563Y-13121031D02*
X12182086Y-13111508D01*
X12182086Y-13111508D02*
X12201134Y-13101984D01*
X12353515Y-13282936D02*
X12363039Y-13292460D01*
X12363039Y-13292460D02*
X12353515Y-13301984D01*
X12353515Y-13301984D02*
X12343991Y-13292460D01*
X12343991Y-13292460D02*
X12353515Y-13282936D01*
X12353515Y-13282936D02*
X12353515Y-13301984D01*
X12486848Y-13101984D02*
X12505896Y-13101984D01*
X12505896Y-13101984D02*
X12524944Y-13111508D01*
X12524944Y-13111508D02*
X12534467Y-13121031D01*
X12534467Y-13121031D02*
X12543991Y-13140079D01*
X12543991Y-13140079D02*
X12553515Y-13178174D01*
X12553515Y-13178174D02*
X12553515Y-13225793D01*
X12553515Y-13225793D02*
X12543991Y-13263888D01*
X12543991Y-13263888D02*
X12534467Y-13282936D01*
X12534467Y-13282936D02*
X12524944Y-13292460D01*
X12524944Y-13292460D02*
X12505896Y-13301984D01*
X12505896Y-13301984D02*
X12486848Y-13301984D01*
X12486848Y-13301984D02*
X12467801Y-13292460D01*
X12467801Y-13292460D02*
X12458277Y-13282936D01*
X12458277Y-13282936D02*
X12448753Y-13263888D01*
X12448753Y-13263888D02*
X12439229Y-13225793D01*
X12439229Y-13225793D02*
X12439229Y-13178174D01*
X12439229Y-13178174D02*
X12448753Y-13140079D01*
X12448753Y-13140079D02*
X12458277Y-13121031D01*
X12458277Y-13121031D02*
X12467801Y-13111508D01*
X12467801Y-13111508D02*
X12486848Y-13101984D01*
X12724944Y-13101984D02*
X12686848Y-13101984D01*
X12686848Y-13101984D02*
X12667801Y-13111508D01*
X12667801Y-13111508D02*
X12658277Y-13121031D01*
X12658277Y-13121031D02*
X12639229Y-13149603D01*
X12639229Y-13149603D02*
X12629706Y-13187698D01*
X12629706Y-13187698D02*
X12629706Y-13263888D01*
X12629706Y-13263888D02*
X12639229Y-13282936D01*
X12639229Y-13282936D02*
X12648753Y-13292460D01*
X12648753Y-13292460D02*
X12667801Y-13301984D01*
X12667801Y-13301984D02*
X12705896Y-13301984D01*
X12705896Y-13301984D02*
X12724944Y-13292460D01*
X12724944Y-13292460D02*
X12734467Y-13282936D01*
X12734467Y-13282936D02*
X12743991Y-13263888D01*
X12743991Y-13263888D02*
X12743991Y-13216269D01*
X12743991Y-13216269D02*
X12734467Y-13197222D01*
X12734467Y-13197222D02*
X12724944Y-13187698D01*
X12724944Y-13187698D02*
X12705896Y-13178174D01*
X12705896Y-13178174D02*
X12667801Y-13178174D01*
X12667801Y-13178174D02*
X12648753Y-13187698D01*
X12648753Y-13187698D02*
X12639229Y-13197222D01*
X12639229Y-13197222D02*
X12629706Y-13216269D01*
X12810658Y-13101984D02*
X12934467Y-13101984D01*
X12934467Y-13101984D02*
X12867801Y-13178174D01*
X12867801Y-13178174D02*
X12896372Y-13178174D01*
X12896372Y-13178174D02*
X12915420Y-13187698D01*
X12915420Y-13187698D02*
X12924944Y-13197222D01*
X12924944Y-13197222D02*
X12934467Y-13216269D01*
X12934467Y-13216269D02*
X12934467Y-13263888D01*
X12934467Y-13263888D02*
X12924944Y-13282936D01*
X12924944Y-13282936D02*
X12915420Y-13292460D01*
X12915420Y-13292460D02*
X12896372Y-13301984D01*
X12896372Y-13301984D02*
X12839229Y-13301984D01*
X12839229Y-13301984D02*
X12820182Y-13292460D01*
X12820182Y-13292460D02*
X12810658Y-13282936D01*
X13058277Y-13101984D02*
X13077325Y-13101984D01*
X13077325Y-13101984D02*
X13096372Y-13111508D01*
X13096372Y-13111508D02*
X13105896Y-13121031D01*
X13105896Y-13121031D02*
X13115420Y-13140079D01*
X13115420Y-13140079D02*
X13124944Y-13178174D01*
X13124944Y-13178174D02*
X13124944Y-13225793D01*
X13124944Y-13225793D02*
X13115420Y-13263888D01*
X13115420Y-13263888D02*
X13105896Y-13282936D01*
X13105896Y-13282936D02*
X13096372Y-13292460D01*
X13096372Y-13292460D02*
X13077325Y-13301984D01*
X13077325Y-13301984D02*
X13058277Y-13301984D01*
X13058277Y-13301984D02*
X13039229Y-13292460D01*
X13039229Y-13292460D02*
X13029706Y-13282936D01*
X13029706Y-13282936D02*
X13020182Y-13263888D01*
X13020182Y-13263888D02*
X13010658Y-13225793D01*
X13010658Y-13225793D02*
X13010658Y-13178174D01*
X13010658Y-13178174D02*
X13020182Y-13140079D01*
X13020182Y-13140079D02*
X13029706Y-13121031D01*
X13029706Y-13121031D02*
X13039229Y-13111508D01*
X13039229Y-13111508D02*
X13058277Y-13101984D01*
X13201134Y-13101984D02*
X13201134Y-13140079D01*
X13277325Y-13101984D02*
X13277325Y-13140079D01*
X13572563Y-13378174D02*
X13563039Y-13368650D01*
X13563039Y-13368650D02*
X13543991Y-13340079D01*
X13543991Y-13340079D02*
X13534468Y-13321031D01*
X13534468Y-13321031D02*
X13524944Y-13292460D01*
X13524944Y-13292460D02*
X13515420Y-13244841D01*
X13515420Y-13244841D02*
X13515420Y-13206746D01*
X13515420Y-13206746D02*
X13524944Y-13159127D01*
X13524944Y-13159127D02*
X13534468Y-13130555D01*
X13534468Y-13130555D02*
X13543991Y-13111508D01*
X13543991Y-13111508D02*
X13563039Y-13082936D01*
X13563039Y-13082936D02*
X13572563Y-13073412D01*
X13734468Y-13168650D02*
X13734468Y-13301984D01*
X13686848Y-13092460D02*
X13639229Y-13235317D01*
X13639229Y-13235317D02*
X13763039Y-13235317D01*
X13991610Y-13301984D02*
X13991610Y-13101984D01*
X14077325Y-13301984D02*
X14077325Y-13197222D01*
X14077325Y-13197222D02*
X14067801Y-13178174D01*
X14067801Y-13178174D02*
X14048753Y-13168650D01*
X14048753Y-13168650D02*
X14020182Y-13168650D01*
X14020182Y-13168650D02*
X14001134Y-13178174D01*
X14001134Y-13178174D02*
X13991610Y-13187698D01*
X14201134Y-13301984D02*
X14182087Y-13292460D01*
X14182087Y-13292460D02*
X14172563Y-13282936D01*
X14172563Y-13282936D02*
X14163039Y-13263888D01*
X14163039Y-13263888D02*
X14163039Y-13206746D01*
X14163039Y-13206746D02*
X14172563Y-13187698D01*
X14172563Y-13187698D02*
X14182087Y-13178174D01*
X14182087Y-13178174D02*
X14201134Y-13168650D01*
X14201134Y-13168650D02*
X14229706Y-13168650D01*
X14229706Y-13168650D02*
X14248753Y-13178174D01*
X14248753Y-13178174D02*
X14258277Y-13187698D01*
X14258277Y-13187698D02*
X14267801Y-13206746D01*
X14267801Y-13206746D02*
X14267801Y-13263888D01*
X14267801Y-13263888D02*
X14258277Y-13282936D01*
X14258277Y-13282936D02*
X14248753Y-13292460D01*
X14248753Y-13292460D02*
X14229706Y-13301984D01*
X14229706Y-13301984D02*
X14201134Y-13301984D01*
X14382087Y-13301984D02*
X14363039Y-13292460D01*
X14363039Y-13292460D02*
X14353515Y-13273412D01*
X14353515Y-13273412D02*
X14353515Y-13101984D01*
X14534468Y-13292460D02*
X14515420Y-13301984D01*
X14515420Y-13301984D02*
X14477325Y-13301984D01*
X14477325Y-13301984D02*
X14458277Y-13292460D01*
X14458277Y-13292460D02*
X14448753Y-13273412D01*
X14448753Y-13273412D02*
X14448753Y-13197222D01*
X14448753Y-13197222D02*
X14458277Y-13178174D01*
X14458277Y-13178174D02*
X14477325Y-13168650D01*
X14477325Y-13168650D02*
X14515420Y-13168650D01*
X14515420Y-13168650D02*
X14534468Y-13178174D01*
X14534468Y-13178174D02*
X14543991Y-13197222D01*
X14543991Y-13197222D02*
X14543991Y-13216269D01*
X14543991Y-13216269D02*
X14448753Y-13235317D01*
X14620182Y-13292460D02*
X14639230Y-13301984D01*
X14639230Y-13301984D02*
X14677325Y-13301984D01*
X14677325Y-13301984D02*
X14696372Y-13292460D01*
X14696372Y-13292460D02*
X14705896Y-13273412D01*
X14705896Y-13273412D02*
X14705896Y-13263888D01*
X14705896Y-13263888D02*
X14696372Y-13244841D01*
X14696372Y-13244841D02*
X14677325Y-13235317D01*
X14677325Y-13235317D02*
X14648753Y-13235317D01*
X14648753Y-13235317D02*
X14629706Y-13225793D01*
X14629706Y-13225793D02*
X14620182Y-13206746D01*
X14620182Y-13206746D02*
X14620182Y-13197222D01*
X14620182Y-13197222D02*
X14629706Y-13178174D01*
X14629706Y-13178174D02*
X14648753Y-13168650D01*
X14648753Y-13168650D02*
X14677325Y-13168650D01*
X14677325Y-13168650D02*
X14696372Y-13178174D01*
X14772563Y-13378174D02*
X14782087Y-13368650D01*
X14782087Y-13368650D02*
X14801134Y-13340079D01*
X14801134Y-13340079D02*
X14810658Y-13321031D01*
X14810658Y-13321031D02*
X14820182Y-13292460D01*
X14820182Y-13292460D02*
X14829706Y-13244841D01*
X14829706Y-13244841D02*
X14829706Y-13206746D01*
X14829706Y-13206746D02*
X14820182Y-13159127D01*
X14820182Y-13159127D02*
X14810658Y-13130555D01*
X14810658Y-13130555D02*
X14801134Y-13111508D01*
X14801134Y-13111508D02*
X14782087Y-13082936D01*
X14782087Y-13082936D02*
X14772563Y-13073412D01*
M02*
