%TF.GenerationSoftware,KiCad,Pcbnew,9.0.2+1*%
%TF.CreationDate,2025-08-16T20:28:54+01:00*%
%TF.ProjectId,Navigator,4e617669-6761-4746-9f72-2e6b69636164,rev?*%
%TF.SameCoordinates,Original*%
%TF.FileFunction,Paste,Top*%
%TF.FilePolarity,Positive*%
%FSLAX46Y46*%
G04 Gerber Fmt 4.6, Leading zero omitted, Abs format (unit mm)*
G04 Created by KiCad (PCBNEW 9.0.2+1) date 2025-08-16 20:28:54*
%MOMM*%
%LPD*%
G01*
G04 APERTURE LIST*
G04 Aperture macros list*
%AMRoundRect*
0 Rectangle with rounded corners*
0 $1 Rounding radius*
0 $2 $3 $4 $5 $6 $7 $8 $9 X,Y pos of 4 corners*
0 Add a 4 corners polygon primitive as box body*
4,1,4,$2,$3,$4,$5,$6,$7,$8,$9,$2,$3,0*
0 Add four circle primitives for the rounded corners*
1,1,$1+$1,$2,$3*
1,1,$1+$1,$4,$5*
1,1,$1+$1,$6,$7*
1,1,$1+$1,$8,$9*
0 Add four rect primitives between the rounded corners*
20,1,$1+$1,$2,$3,$4,$5,0*
20,1,$1+$1,$4,$5,$6,$7,0*
20,1,$1+$1,$6,$7,$8,$9,0*
20,1,$1+$1,$8,$9,$2,$3,0*%
%AMRotRect*
0 Rectangle, with rotation*
0 The origin of the aperture is its center*
0 $1 length*
0 $2 width*
0 $3 Rotation angle, in degrees counterclockwise*
0 Add horizontal line*
21,1,$1,$2,0,0,$3*%
G04 Aperture macros list end*
%ADD10C,0.000000*%
%ADD11C,0.010000*%
%ADD12R,0.609600X0.228600*%
%ADD13RotRect,0.177800X0.812800X45.000000*%
%ADD14RotRect,0.177800X0.812800X315.000000*%
%ADD15RotRect,3.200400X3.200400X315.000000*%
%ADD16RoundRect,0.072500X-0.637500X-0.217500X0.637500X-0.217500X0.637500X0.217500X-0.637500X0.217500X0*%
%ADD17R,1.549400X2.209800*%
%ADD18R,0.576580X0.351536*%
%ADD19R,0.351536X0.576580*%
%ADD20R,0.475000X0.300000*%
%ADD21R,0.520000X1.000000*%
%ADD22R,0.270000X1.000000*%
%ADD23R,1.000000X2.000000*%
%ADD24RoundRect,0.127000X0.017961X0.197566X-0.197566X-0.017961X-0.017961X-0.197566X0.197566X0.017961X0*%
%ADD25RoundRect,0.127000X-0.197566X0.017961X0.017961X-0.197566X0.197566X-0.017961X-0.017961X0.197566X0*%
%ADD26RoundRect,0.125000X0.202799X0.124999X-0.202799X0.124999X-0.202799X-0.124999X0.202799X-0.124999X0*%
%ADD27RoundRect,0.125000X0.124999X-0.202799X0.124999X0.202799X-0.124999X0.202799X-0.124999X-0.202799X0*%
%ADD28RoundRect,0.127000X-0.152400X-0.127000X0.152400X-0.127000X0.152400X0.127000X-0.152400X0.127000X0*%
%ADD29RoundRect,0.125000X0.055013X0.231788X-0.231788X-0.055013X-0.055013X-0.231788X0.231788X0.055013X0*%
%ADD30RoundRect,0.227500X0.227500X0.307500X-0.227500X0.307500X-0.227500X-0.307500X0.227500X-0.307500X0*%
%ADD31R,0.406400X0.812800*%
%ADD32R,2.489200X1.752600*%
%ADD33R,0.800000X1.320000*%
%ADD34RoundRect,0.127000X0.127000X-0.152400X0.127000X0.152400X-0.127000X0.152400X-0.127000X-0.152400X0*%
%ADD35R,1.524000X0.533400*%
%ADD36RoundRect,0.125000X-0.124999X0.202799X-0.124999X-0.202799X0.124999X-0.202799X0.124999X0.202799X0*%
%ADD37RoundRect,0.125000X0.125000X0.281400X-0.125000X0.281400X-0.125000X-0.281400X0.125000X-0.281400X0*%
%ADD38RoundRect,0.127000X-0.127000X0.152400X-0.127000X-0.152400X0.127000X-0.152400X0.127000X0.152400X0*%
%ADD39RoundRect,0.125000X-0.281400X0.125000X-0.281400X-0.125000X0.281400X-0.125000X0.281400X0.125000X0*%
%ADD40RoundRect,0.127000X0.152400X0.127000X-0.152400X0.127000X-0.152400X-0.127000X0.152400X-0.127000X0*%
%ADD41RoundRect,0.125000X0.231788X-0.055013X-0.055013X0.231788X-0.231788X0.055013X0.055013X-0.231788X0*%
%ADD42RotRect,1.100000X1.300000X135.000000*%
%ADD43R,0.482600X0.254000*%
%ADD44R,0.254000X0.482600*%
%ADD45RoundRect,0.127000X0.197566X-0.017961X-0.017961X0.197566X-0.197566X0.017961X0.017961X-0.197566X0*%
%ADD46R,1.905000X0.660400*%
%ADD47R,1.295400X0.838200*%
%ADD48R,1.000000X1.050000*%
%ADD49RoundRect,0.125000X0.281400X-0.125000X0.281400X0.125000X-0.281400X0.125000X-0.281400X-0.125000X0*%
%ADD50RoundRect,0.127000X-0.017961X-0.197566X0.197566X0.017961X0.017961X0.197566X-0.197566X-0.017961X0*%
%ADD51R,1.300000X3.400000*%
%ADD52R,1.422400X0.558800*%
%ADD53R,0.711200X0.889000*%
%ADD54R,0.508000X0.558800*%
%ADD55R,0.457200X1.003300*%
%ADD56RoundRect,0.056250X0.168750X-0.188750X0.168750X0.188750X-0.168750X0.188750X-0.168750X-0.188750X0*%
%ADD57R,1.524000X0.457200*%
%ADD58RotRect,0.304800X0.330200X315.000000*%
%ADD59RotRect,0.304800X0.330200X225.000000*%
%ADD60RoundRect,0.227500X0.307500X-0.227500X0.307500X0.227500X-0.307500X0.227500X-0.307500X-0.227500X0*%
%ADD61RoundRect,0.250000X0.475000X-0.325000X0.475000X0.325000X-0.475000X0.325000X-0.475000X-0.325000X0*%
%ADD62R,0.660000X0.500000*%
%ADD63R,0.351536X0.376682*%
%ADD64R,0.376682X0.351536*%
%ADD65R,0.660400X1.549400*%
%ADD66R,1.295400X1.905000*%
%ADD67RoundRect,0.125000X-0.202799X-0.124999X0.202799X-0.124999X0.202799X0.124999X-0.202799X0.124999X0*%
%ADD68R,0.228600X0.609600*%
%ADD69RotRect,0.254000X0.279400X315.000000*%
%ADD70RotRect,0.254000X0.254000X225.000000*%
G04 APERTURE END LIST*
D10*
%TO.C,MCU1*%
G36*
X150970091Y-81268488D02*
G01*
X149980000Y-82258579D01*
X148989909Y-81268488D01*
X149980000Y-80278397D01*
X150970091Y-81268488D01*
G37*
G36*
X149838579Y-82400000D02*
G01*
X148848488Y-83390091D01*
X147858397Y-82400000D01*
X148848488Y-81409909D01*
X149838579Y-82400000D01*
G37*
G36*
X152101603Y-82400000D02*
G01*
X151111512Y-83390091D01*
X150121421Y-82400000D01*
X151111512Y-81409909D01*
X152101603Y-82400000D01*
G37*
G36*
X150970091Y-83531512D02*
G01*
X149980000Y-84521603D01*
X148989909Y-83531512D01*
X149980000Y-82541421D01*
X150970091Y-83531512D01*
G37*
D11*
%TO.C,D5*%
X149737856Y-92394499D02*
X149739856Y-92394499D01*
X149742856Y-92395499D01*
X149744856Y-92395499D01*
X149747856Y-92396499D01*
X149749856Y-92397499D01*
X149752856Y-92398499D01*
X149754856Y-92400499D01*
X149756856Y-92401499D01*
X149758856Y-92403499D01*
X149760856Y-92404499D01*
X149762856Y-92406499D01*
X149764856Y-92408499D01*
X149766856Y-92410499D01*
X149768856Y-92412499D01*
X149769856Y-92414499D01*
X149771856Y-92416499D01*
X149772856Y-92418499D01*
X149774856Y-92420499D01*
X149775856Y-92423499D01*
X149776856Y-92425499D01*
X149777856Y-92428499D01*
X149777856Y-92430499D01*
X149778856Y-92433499D01*
X149778856Y-92435499D01*
X149779856Y-92438499D01*
X149779856Y-92440499D01*
X149779856Y-92443499D01*
X149779856Y-92553499D01*
X149779856Y-92556499D01*
X149779856Y-92558499D01*
X149778856Y-92561499D01*
X149778856Y-92563499D01*
X149777856Y-92566499D01*
X149777856Y-92568499D01*
X149776856Y-92571499D01*
X149775856Y-92573499D01*
X149774856Y-92576499D01*
X149772856Y-92578499D01*
X149771856Y-92580499D01*
X149769856Y-92582499D01*
X149768856Y-92584499D01*
X149766856Y-92586499D01*
X149764856Y-92588499D01*
X149762856Y-92590499D01*
X149760856Y-92592499D01*
X149758856Y-92593499D01*
X149756856Y-92595499D01*
X149754856Y-92596499D01*
X149752856Y-92598499D01*
X149749856Y-92599499D01*
X149747856Y-92600499D01*
X149744856Y-92601499D01*
X149742856Y-92601499D01*
X149739856Y-92602499D01*
X149737856Y-92602499D01*
X149734856Y-92603499D01*
X149732856Y-92603499D01*
X149729856Y-92603499D01*
X149619856Y-92603499D01*
X149616856Y-92603499D01*
X149614856Y-92603499D01*
X149611856Y-92602499D01*
X149609856Y-92602499D01*
X149606856Y-92601499D01*
X149604856Y-92601499D01*
X149601856Y-92600499D01*
X149599856Y-92599499D01*
X149596856Y-92598499D01*
X149594856Y-92596499D01*
X149592856Y-92595499D01*
X149590856Y-92593499D01*
X149588856Y-92592499D01*
X149586856Y-92590499D01*
X149584856Y-92588499D01*
X149582856Y-92586499D01*
X149580856Y-92584499D01*
X149579856Y-92582499D01*
X149577856Y-92580499D01*
X149576856Y-92578499D01*
X149574856Y-92576499D01*
X149573856Y-92573499D01*
X149572856Y-92571499D01*
X149571856Y-92568499D01*
X149571856Y-92566499D01*
X149570856Y-92563499D01*
X149570856Y-92561499D01*
X149569856Y-92558499D01*
X149569856Y-92556499D01*
X149569856Y-92553499D01*
X149569856Y-92443499D01*
X149569856Y-92440499D01*
X149569856Y-92438499D01*
X149570856Y-92435499D01*
X149570856Y-92433499D01*
X149571856Y-92430499D01*
X149571856Y-92428499D01*
X149572856Y-92425499D01*
X149573856Y-92423499D01*
X149574856Y-92420499D01*
X149576856Y-92418499D01*
X149577856Y-92416499D01*
X149579856Y-92414499D01*
X149580856Y-92412499D01*
X149582856Y-92410499D01*
X149584856Y-92408499D01*
X149586856Y-92406499D01*
X149588856Y-92404499D01*
X149590856Y-92403499D01*
X149592856Y-92401499D01*
X149594856Y-92400499D01*
X149596856Y-92398499D01*
X149599856Y-92397499D01*
X149601856Y-92396499D01*
X149604856Y-92395499D01*
X149606856Y-92395499D01*
X149609856Y-92394499D01*
X149611856Y-92394499D01*
X149614856Y-92393499D01*
X149616856Y-92393499D01*
X149619856Y-92393499D01*
X149729856Y-92393499D01*
X149732856Y-92393499D01*
X149734856Y-92393499D01*
X149737856Y-92394499D01*
G36*
X149737856Y-92394499D02*
G01*
X149739856Y-92394499D01*
X149742856Y-92395499D01*
X149744856Y-92395499D01*
X149747856Y-92396499D01*
X149749856Y-92397499D01*
X149752856Y-92398499D01*
X149754856Y-92400499D01*
X149756856Y-92401499D01*
X149758856Y-92403499D01*
X149760856Y-92404499D01*
X149762856Y-92406499D01*
X149764856Y-92408499D01*
X149766856Y-92410499D01*
X149768856Y-92412499D01*
X149769856Y-92414499D01*
X149771856Y-92416499D01*
X149772856Y-92418499D01*
X149774856Y-92420499D01*
X149775856Y-92423499D01*
X149776856Y-92425499D01*
X149777856Y-92428499D01*
X149777856Y-92430499D01*
X149778856Y-92433499D01*
X149778856Y-92435499D01*
X149779856Y-92438499D01*
X149779856Y-92440499D01*
X149779856Y-92443499D01*
X149779856Y-92553499D01*
X149779856Y-92556499D01*
X149779856Y-92558499D01*
X149778856Y-92561499D01*
X149778856Y-92563499D01*
X149777856Y-92566499D01*
X149777856Y-92568499D01*
X149776856Y-92571499D01*
X149775856Y-92573499D01*
X149774856Y-92576499D01*
X149772856Y-92578499D01*
X149771856Y-92580499D01*
X149769856Y-92582499D01*
X149768856Y-92584499D01*
X149766856Y-92586499D01*
X149764856Y-92588499D01*
X149762856Y-92590499D01*
X149760856Y-92592499D01*
X149758856Y-92593499D01*
X149756856Y-92595499D01*
X149754856Y-92596499D01*
X149752856Y-92598499D01*
X149749856Y-92599499D01*
X149747856Y-92600499D01*
X149744856Y-92601499D01*
X149742856Y-92601499D01*
X149739856Y-92602499D01*
X149737856Y-92602499D01*
X149734856Y-92603499D01*
X149732856Y-92603499D01*
X149729856Y-92603499D01*
X149619856Y-92603499D01*
X149616856Y-92603499D01*
X149614856Y-92603499D01*
X149611856Y-92602499D01*
X149609856Y-92602499D01*
X149606856Y-92601499D01*
X149604856Y-92601499D01*
X149601856Y-92600499D01*
X149599856Y-92599499D01*
X149596856Y-92598499D01*
X149594856Y-92596499D01*
X149592856Y-92595499D01*
X149590856Y-92593499D01*
X149588856Y-92592499D01*
X149586856Y-92590499D01*
X149584856Y-92588499D01*
X149582856Y-92586499D01*
X149580856Y-92584499D01*
X149579856Y-92582499D01*
X149577856Y-92580499D01*
X149576856Y-92578499D01*
X149574856Y-92576499D01*
X149573856Y-92573499D01*
X149572856Y-92571499D01*
X149571856Y-92568499D01*
X149571856Y-92566499D01*
X149570856Y-92563499D01*
X149570856Y-92561499D01*
X149569856Y-92558499D01*
X149569856Y-92556499D01*
X149569856Y-92553499D01*
X149569856Y-92443499D01*
X149569856Y-92440499D01*
X149569856Y-92438499D01*
X149570856Y-92435499D01*
X149570856Y-92433499D01*
X149571856Y-92430499D01*
X149571856Y-92428499D01*
X149572856Y-92425499D01*
X149573856Y-92423499D01*
X149574856Y-92420499D01*
X149576856Y-92418499D01*
X149577856Y-92416499D01*
X149579856Y-92414499D01*
X149580856Y-92412499D01*
X149582856Y-92410499D01*
X149584856Y-92408499D01*
X149586856Y-92406499D01*
X149588856Y-92404499D01*
X149590856Y-92403499D01*
X149592856Y-92401499D01*
X149594856Y-92400499D01*
X149596856Y-92398499D01*
X149599856Y-92397499D01*
X149601856Y-92396499D01*
X149604856Y-92395499D01*
X149606856Y-92395499D01*
X149609856Y-92394499D01*
X149611856Y-92394499D01*
X149614856Y-92393499D01*
X149616856Y-92393499D01*
X149619856Y-92393499D01*
X149729856Y-92393499D01*
X149732856Y-92393499D01*
X149734856Y-92393499D01*
X149737856Y-92394499D01*
G37*
X150237856Y-92144499D02*
X150239856Y-92144499D01*
X150242856Y-92145499D01*
X150244856Y-92145499D01*
X150247856Y-92146499D01*
X150249856Y-92147499D01*
X150252856Y-92148499D01*
X150254856Y-92150499D01*
X150256856Y-92151499D01*
X150258856Y-92153499D01*
X150260856Y-92154499D01*
X150262856Y-92156499D01*
X150264856Y-92158499D01*
X150266856Y-92160499D01*
X150268856Y-92162499D01*
X150269856Y-92164499D01*
X150271856Y-92166499D01*
X150272856Y-92168499D01*
X150274856Y-92170499D01*
X150275856Y-92173499D01*
X150276856Y-92175499D01*
X150277856Y-92178499D01*
X150277856Y-92180499D01*
X150278856Y-92183499D01*
X150278856Y-92185499D01*
X150279856Y-92188499D01*
X150279856Y-92190499D01*
X150279856Y-92193499D01*
X150279856Y-92303499D01*
X150279856Y-92306499D01*
X150279856Y-92308499D01*
X150278856Y-92311499D01*
X150278856Y-92313499D01*
X150277856Y-92316499D01*
X150277856Y-92318499D01*
X150276856Y-92321499D01*
X150275856Y-92323499D01*
X150274856Y-92326499D01*
X150272856Y-92328499D01*
X150271856Y-92330499D01*
X150269856Y-92332499D01*
X150268856Y-92334499D01*
X150266856Y-92336499D01*
X150264856Y-92338499D01*
X150262856Y-92340499D01*
X150260856Y-92342499D01*
X150258856Y-92343499D01*
X150256856Y-92345499D01*
X150254856Y-92346499D01*
X150252856Y-92348499D01*
X150249856Y-92349499D01*
X150247856Y-92350499D01*
X150244856Y-92351499D01*
X150242856Y-92351499D01*
X150239856Y-92352499D01*
X150237856Y-92352499D01*
X150234856Y-92353499D01*
X150232856Y-92353499D01*
X150229856Y-92353499D01*
X150119856Y-92353499D01*
X150116856Y-92353499D01*
X150114856Y-92353499D01*
X150111856Y-92352499D01*
X150109856Y-92352499D01*
X150106856Y-92351499D01*
X150104856Y-92351499D01*
X150101856Y-92350499D01*
X150099856Y-92349499D01*
X150096856Y-92348499D01*
X150094856Y-92346499D01*
X150092856Y-92345499D01*
X150090856Y-92343499D01*
X150088856Y-92342499D01*
X150086856Y-92340499D01*
X150084856Y-92338499D01*
X150082856Y-92336499D01*
X150080856Y-92334499D01*
X150079856Y-92332499D01*
X150077856Y-92330499D01*
X150076856Y-92328499D01*
X150074856Y-92326499D01*
X150073856Y-92323499D01*
X150072856Y-92321499D01*
X150071856Y-92318499D01*
X150071856Y-92316499D01*
X150070856Y-92313499D01*
X150070856Y-92311499D01*
X150069856Y-92308499D01*
X150069856Y-92306499D01*
X150069856Y-92303499D01*
X150069856Y-92193499D01*
X150069856Y-92190499D01*
X150069856Y-92188499D01*
X150070856Y-92185499D01*
X150070856Y-92183499D01*
X150071856Y-92180499D01*
X150071856Y-92178499D01*
X150072856Y-92175499D01*
X150073856Y-92173499D01*
X150074856Y-92170499D01*
X150076856Y-92168499D01*
X150077856Y-92166499D01*
X150079856Y-92164499D01*
X150080856Y-92162499D01*
X150082856Y-92160499D01*
X150084856Y-92158499D01*
X150086856Y-92156499D01*
X150088856Y-92154499D01*
X150090856Y-92153499D01*
X150092856Y-92151499D01*
X150094856Y-92150499D01*
X150096856Y-92148499D01*
X150099856Y-92147499D01*
X150101856Y-92146499D01*
X150104856Y-92145499D01*
X150106856Y-92145499D01*
X150109856Y-92144499D01*
X150111856Y-92144499D01*
X150114856Y-92143499D01*
X150116856Y-92143499D01*
X150119856Y-92143499D01*
X150229856Y-92143499D01*
X150232856Y-92143499D01*
X150234856Y-92143499D01*
X150237856Y-92144499D01*
G36*
X150237856Y-92144499D02*
G01*
X150239856Y-92144499D01*
X150242856Y-92145499D01*
X150244856Y-92145499D01*
X150247856Y-92146499D01*
X150249856Y-92147499D01*
X150252856Y-92148499D01*
X150254856Y-92150499D01*
X150256856Y-92151499D01*
X150258856Y-92153499D01*
X150260856Y-92154499D01*
X150262856Y-92156499D01*
X150264856Y-92158499D01*
X150266856Y-92160499D01*
X150268856Y-92162499D01*
X150269856Y-92164499D01*
X150271856Y-92166499D01*
X150272856Y-92168499D01*
X150274856Y-92170499D01*
X150275856Y-92173499D01*
X150276856Y-92175499D01*
X150277856Y-92178499D01*
X150277856Y-92180499D01*
X150278856Y-92183499D01*
X150278856Y-92185499D01*
X150279856Y-92188499D01*
X150279856Y-92190499D01*
X150279856Y-92193499D01*
X150279856Y-92303499D01*
X150279856Y-92306499D01*
X150279856Y-92308499D01*
X150278856Y-92311499D01*
X150278856Y-92313499D01*
X150277856Y-92316499D01*
X150277856Y-92318499D01*
X150276856Y-92321499D01*
X150275856Y-92323499D01*
X150274856Y-92326499D01*
X150272856Y-92328499D01*
X150271856Y-92330499D01*
X150269856Y-92332499D01*
X150268856Y-92334499D01*
X150266856Y-92336499D01*
X150264856Y-92338499D01*
X150262856Y-92340499D01*
X150260856Y-92342499D01*
X150258856Y-92343499D01*
X150256856Y-92345499D01*
X150254856Y-92346499D01*
X150252856Y-92348499D01*
X150249856Y-92349499D01*
X150247856Y-92350499D01*
X150244856Y-92351499D01*
X150242856Y-92351499D01*
X150239856Y-92352499D01*
X150237856Y-92352499D01*
X150234856Y-92353499D01*
X150232856Y-92353499D01*
X150229856Y-92353499D01*
X150119856Y-92353499D01*
X150116856Y-92353499D01*
X150114856Y-92353499D01*
X150111856Y-92352499D01*
X150109856Y-92352499D01*
X150106856Y-92351499D01*
X150104856Y-92351499D01*
X150101856Y-92350499D01*
X150099856Y-92349499D01*
X150096856Y-92348499D01*
X150094856Y-92346499D01*
X150092856Y-92345499D01*
X150090856Y-92343499D01*
X150088856Y-92342499D01*
X150086856Y-92340499D01*
X150084856Y-92338499D01*
X150082856Y-92336499D01*
X150080856Y-92334499D01*
X150079856Y-92332499D01*
X150077856Y-92330499D01*
X150076856Y-92328499D01*
X150074856Y-92326499D01*
X150073856Y-92323499D01*
X150072856Y-92321499D01*
X150071856Y-92318499D01*
X150071856Y-92316499D01*
X150070856Y-92313499D01*
X150070856Y-92311499D01*
X150069856Y-92308499D01*
X150069856Y-92306499D01*
X150069856Y-92303499D01*
X150069856Y-92193499D01*
X150069856Y-92190499D01*
X150069856Y-92188499D01*
X150070856Y-92185499D01*
X150070856Y-92183499D01*
X150071856Y-92180499D01*
X150071856Y-92178499D01*
X150072856Y-92175499D01*
X150073856Y-92173499D01*
X150074856Y-92170499D01*
X150076856Y-92168499D01*
X150077856Y-92166499D01*
X150079856Y-92164499D01*
X150080856Y-92162499D01*
X150082856Y-92160499D01*
X150084856Y-92158499D01*
X150086856Y-92156499D01*
X150088856Y-92154499D01*
X150090856Y-92153499D01*
X150092856Y-92151499D01*
X150094856Y-92150499D01*
X150096856Y-92148499D01*
X150099856Y-92147499D01*
X150101856Y-92146499D01*
X150104856Y-92145499D01*
X150106856Y-92145499D01*
X150109856Y-92144499D01*
X150111856Y-92144499D01*
X150114856Y-92143499D01*
X150116856Y-92143499D01*
X150119856Y-92143499D01*
X150229856Y-92143499D01*
X150232856Y-92143499D01*
X150234856Y-92143499D01*
X150237856Y-92144499D01*
G37*
X150737856Y-92394499D02*
X150739856Y-92394499D01*
X150742856Y-92395499D01*
X150744856Y-92395499D01*
X150747856Y-92396499D01*
X150749856Y-92397499D01*
X150752856Y-92398499D01*
X150754856Y-92400499D01*
X150756856Y-92401499D01*
X150758856Y-92403499D01*
X150760856Y-92404499D01*
X150762856Y-92406499D01*
X150764856Y-92408499D01*
X150766856Y-92410499D01*
X150768856Y-92412499D01*
X150769856Y-92414499D01*
X150771856Y-92416499D01*
X150772856Y-92418499D01*
X150774856Y-92420499D01*
X150775856Y-92423499D01*
X150776856Y-92425499D01*
X150777856Y-92428499D01*
X150777856Y-92430499D01*
X150778856Y-92433499D01*
X150778856Y-92435499D01*
X150779856Y-92438499D01*
X150779856Y-92440499D01*
X150779856Y-92443499D01*
X150779856Y-92553499D01*
X150779856Y-92556499D01*
X150779856Y-92558499D01*
X150778856Y-92561499D01*
X150778856Y-92563499D01*
X150777856Y-92566499D01*
X150777856Y-92568499D01*
X150776856Y-92571499D01*
X150775856Y-92573499D01*
X150774856Y-92576499D01*
X150772856Y-92578499D01*
X150771856Y-92580499D01*
X150769856Y-92582499D01*
X150768856Y-92584499D01*
X150766856Y-92586499D01*
X150764856Y-92588499D01*
X150762856Y-92590499D01*
X150760856Y-92592499D01*
X150758856Y-92593499D01*
X150756856Y-92595499D01*
X150754856Y-92596499D01*
X150752856Y-92598499D01*
X150749856Y-92599499D01*
X150747856Y-92600499D01*
X150744856Y-92601499D01*
X150742856Y-92601499D01*
X150739856Y-92602499D01*
X150737856Y-92602499D01*
X150734856Y-92603499D01*
X150732856Y-92603499D01*
X150729856Y-92603499D01*
X150619856Y-92603499D01*
X150616856Y-92603499D01*
X150614856Y-92603499D01*
X150611856Y-92602499D01*
X150609856Y-92602499D01*
X150606856Y-92601499D01*
X150604856Y-92601499D01*
X150601856Y-92600499D01*
X150599856Y-92599499D01*
X150596856Y-92598499D01*
X150594856Y-92596499D01*
X150592856Y-92595499D01*
X150590856Y-92593499D01*
X150588856Y-92592499D01*
X150586856Y-92590499D01*
X150584856Y-92588499D01*
X150582856Y-92586499D01*
X150580856Y-92584499D01*
X150579856Y-92582499D01*
X150577856Y-92580499D01*
X150576856Y-92578499D01*
X150574856Y-92576499D01*
X150573856Y-92573499D01*
X150572856Y-92571499D01*
X150571856Y-92568499D01*
X150571856Y-92566499D01*
X150570856Y-92563499D01*
X150570856Y-92561499D01*
X150569856Y-92558499D01*
X150569856Y-92556499D01*
X150569856Y-92553499D01*
X150569856Y-92443499D01*
X150569856Y-92440499D01*
X150569856Y-92438499D01*
X150570856Y-92435499D01*
X150570856Y-92433499D01*
X150571856Y-92430499D01*
X150571856Y-92428499D01*
X150572856Y-92425499D01*
X150573856Y-92423499D01*
X150574856Y-92420499D01*
X150576856Y-92418499D01*
X150577856Y-92416499D01*
X150579856Y-92414499D01*
X150580856Y-92412499D01*
X150582856Y-92410499D01*
X150584856Y-92408499D01*
X150586856Y-92406499D01*
X150588856Y-92404499D01*
X150590856Y-92403499D01*
X150592856Y-92401499D01*
X150594856Y-92400499D01*
X150596856Y-92398499D01*
X150599856Y-92397499D01*
X150601856Y-92396499D01*
X150604856Y-92395499D01*
X150606856Y-92395499D01*
X150609856Y-92394499D01*
X150611856Y-92394499D01*
X150614856Y-92393499D01*
X150616856Y-92393499D01*
X150619856Y-92393499D01*
X150729856Y-92393499D01*
X150732856Y-92393499D01*
X150734856Y-92393499D01*
X150737856Y-92394499D01*
G36*
X150737856Y-92394499D02*
G01*
X150739856Y-92394499D01*
X150742856Y-92395499D01*
X150744856Y-92395499D01*
X150747856Y-92396499D01*
X150749856Y-92397499D01*
X150752856Y-92398499D01*
X150754856Y-92400499D01*
X150756856Y-92401499D01*
X150758856Y-92403499D01*
X150760856Y-92404499D01*
X150762856Y-92406499D01*
X150764856Y-92408499D01*
X150766856Y-92410499D01*
X150768856Y-92412499D01*
X150769856Y-92414499D01*
X150771856Y-92416499D01*
X150772856Y-92418499D01*
X150774856Y-92420499D01*
X150775856Y-92423499D01*
X150776856Y-92425499D01*
X150777856Y-92428499D01*
X150777856Y-92430499D01*
X150778856Y-92433499D01*
X150778856Y-92435499D01*
X150779856Y-92438499D01*
X150779856Y-92440499D01*
X150779856Y-92443499D01*
X150779856Y-92553499D01*
X150779856Y-92556499D01*
X150779856Y-92558499D01*
X150778856Y-92561499D01*
X150778856Y-92563499D01*
X150777856Y-92566499D01*
X150777856Y-92568499D01*
X150776856Y-92571499D01*
X150775856Y-92573499D01*
X150774856Y-92576499D01*
X150772856Y-92578499D01*
X150771856Y-92580499D01*
X150769856Y-92582499D01*
X150768856Y-92584499D01*
X150766856Y-92586499D01*
X150764856Y-92588499D01*
X150762856Y-92590499D01*
X150760856Y-92592499D01*
X150758856Y-92593499D01*
X150756856Y-92595499D01*
X150754856Y-92596499D01*
X150752856Y-92598499D01*
X150749856Y-92599499D01*
X150747856Y-92600499D01*
X150744856Y-92601499D01*
X150742856Y-92601499D01*
X150739856Y-92602499D01*
X150737856Y-92602499D01*
X150734856Y-92603499D01*
X150732856Y-92603499D01*
X150729856Y-92603499D01*
X150619856Y-92603499D01*
X150616856Y-92603499D01*
X150614856Y-92603499D01*
X150611856Y-92602499D01*
X150609856Y-92602499D01*
X150606856Y-92601499D01*
X150604856Y-92601499D01*
X150601856Y-92600499D01*
X150599856Y-92599499D01*
X150596856Y-92598499D01*
X150594856Y-92596499D01*
X150592856Y-92595499D01*
X150590856Y-92593499D01*
X150588856Y-92592499D01*
X150586856Y-92590499D01*
X150584856Y-92588499D01*
X150582856Y-92586499D01*
X150580856Y-92584499D01*
X150579856Y-92582499D01*
X150577856Y-92580499D01*
X150576856Y-92578499D01*
X150574856Y-92576499D01*
X150573856Y-92573499D01*
X150572856Y-92571499D01*
X150571856Y-92568499D01*
X150571856Y-92566499D01*
X150570856Y-92563499D01*
X150570856Y-92561499D01*
X150569856Y-92558499D01*
X150569856Y-92556499D01*
X150569856Y-92553499D01*
X150569856Y-92443499D01*
X150569856Y-92440499D01*
X150569856Y-92438499D01*
X150570856Y-92435499D01*
X150570856Y-92433499D01*
X150571856Y-92430499D01*
X150571856Y-92428499D01*
X150572856Y-92425499D01*
X150573856Y-92423499D01*
X150574856Y-92420499D01*
X150576856Y-92418499D01*
X150577856Y-92416499D01*
X150579856Y-92414499D01*
X150580856Y-92412499D01*
X150582856Y-92410499D01*
X150584856Y-92408499D01*
X150586856Y-92406499D01*
X150588856Y-92404499D01*
X150590856Y-92403499D01*
X150592856Y-92401499D01*
X150594856Y-92400499D01*
X150596856Y-92398499D01*
X150599856Y-92397499D01*
X150601856Y-92396499D01*
X150604856Y-92395499D01*
X150606856Y-92395499D01*
X150609856Y-92394499D01*
X150611856Y-92394499D01*
X150614856Y-92393499D01*
X150616856Y-92393499D01*
X150619856Y-92393499D01*
X150729856Y-92393499D01*
X150732856Y-92393499D01*
X150734856Y-92393499D01*
X150737856Y-92394499D01*
G37*
%TD*%
D12*
%TO.C,D1*%
X135849100Y-93900001D03*
X135849100Y-94400000D03*
X135849100Y-94899999D03*
X137550900Y-94899999D03*
X137550900Y-94400000D03*
X137550900Y-93900001D03*
%TD*%
D13*
%TO.C,MCU1*%
X149411769Y-78154814D03*
X149128927Y-78437656D03*
X148846083Y-78720500D03*
X148563241Y-79003342D03*
X148280399Y-79286184D03*
X147997555Y-79569028D03*
X147714713Y-79851870D03*
X147431870Y-80134713D03*
X147149028Y-80417555D03*
X146866184Y-80700399D03*
X146583342Y-80983241D03*
X146300500Y-81266083D03*
X146017656Y-81548927D03*
X145734814Y-81831769D03*
D14*
X145734814Y-82968231D03*
X146017656Y-83251073D03*
X146300500Y-83533917D03*
X146583342Y-83816759D03*
X146866184Y-84099601D03*
X147149028Y-84382445D03*
X147431870Y-84665287D03*
X147714713Y-84948130D03*
X147997555Y-85230972D03*
X148280399Y-85513816D03*
X148563241Y-85796658D03*
X148846083Y-86079500D03*
X149128927Y-86362344D03*
X149411769Y-86645186D03*
D13*
X150548231Y-86645186D03*
X150831073Y-86362344D03*
X151113917Y-86079500D03*
X151396759Y-85796658D03*
X151679601Y-85513816D03*
X151962445Y-85230972D03*
X152245287Y-84948130D03*
X152528130Y-84665287D03*
X152810972Y-84382445D03*
X153093816Y-84099601D03*
X153376658Y-83816759D03*
X153659500Y-83533917D03*
X153942344Y-83251073D03*
X154225186Y-82968231D03*
D14*
X154225186Y-81831769D03*
X153942344Y-81548927D03*
X153659500Y-81266083D03*
X153376658Y-80983241D03*
X153093816Y-80700399D03*
X152810972Y-80417555D03*
X152528130Y-80134713D03*
X152245287Y-79851870D03*
X151962445Y-79569028D03*
X151679601Y-79286184D03*
X151396759Y-79003342D03*
X151113917Y-78720500D03*
X150831073Y-78437656D03*
X150548231Y-78154814D03*
D15*
X149980000Y-82400000D03*
%TD*%
D16*
%TO.C,U29*%
X166100000Y-76750000D03*
X166100000Y-77700000D03*
X166100000Y-78650000D03*
X168390000Y-78650000D03*
X168390000Y-76750000D03*
%TD*%
D17*
%TO.C,CR3*%
X113092956Y-72548499D03*
X115556756Y-72548499D03*
%TD*%
D18*
%TO.C,U4*%
X134969700Y-85649999D03*
X134969700Y-86150000D03*
X134969700Y-86650000D03*
X134969700Y-87150001D03*
D19*
X135680001Y-87356300D03*
X136180000Y-87356300D03*
X136679999Y-87356300D03*
D18*
X137390300Y-87150001D03*
X137390300Y-86650000D03*
X137390300Y-86150000D03*
X137390300Y-85649999D03*
D19*
X136679999Y-85443700D03*
X136180000Y-85443700D03*
X135680001Y-85443700D03*
%TD*%
D20*
%TO.C,IC2*%
X177045357Y-89598499D03*
X177045357Y-90098499D03*
X177045357Y-90598499D03*
X178721357Y-90598499D03*
X178721357Y-90098499D03*
X178721357Y-89598499D03*
%TD*%
D21*
%TO.C,J5*%
X160444856Y-93848499D03*
X161194856Y-93848499D03*
D22*
X161794856Y-93848499D03*
X162294856Y-93848499D03*
X162794856Y-93848499D03*
X163294856Y-93848499D03*
X163794856Y-93848499D03*
X164294856Y-93848499D03*
X164794856Y-93848499D03*
X165294856Y-93848499D03*
D21*
X165894856Y-93848499D03*
X166644856Y-93848499D03*
D23*
X162144856Y-98048499D03*
X164944856Y-98048499D03*
%TD*%
D24*
%TO.C,C22*%
X140078422Y-85438539D03*
X139270198Y-86246763D03*
%TD*%
D25*
%TO.C,C28*%
X157470744Y-81494386D03*
X158278968Y-82302610D03*
%TD*%
D26*
%TO.C,R8*%
X174804400Y-67907450D03*
X173698802Y-67907450D03*
%TD*%
D27*
%TO.C,R18*%
X162444854Y-88801298D03*
X162444854Y-87695700D03*
%TD*%
D28*
%TO.C,C4*%
X141028499Y-94200000D03*
X142171501Y-94200000D03*
%TD*%
D29*
%TO.C,R12*%
X155064855Y-86598499D03*
X154283079Y-87380275D03*
%TD*%
D30*
%TO.C,D2*%
X118737500Y-71388626D03*
X121947500Y-71388626D03*
%TD*%
D26*
%TO.C,R28*%
X182450000Y-67900000D03*
X181344402Y-67900000D03*
%TD*%
D31*
%TO.C,U8*%
X168624855Y-88274798D03*
X169574856Y-88274798D03*
X170524857Y-88274798D03*
X170524857Y-85379198D03*
X169574856Y-85379198D03*
X168624855Y-85379198D03*
D32*
X169574856Y-86826998D03*
%TD*%
D33*
%TO.C,U12*%
X109150000Y-78865999D03*
X111050000Y-78865999D03*
X110100000Y-76865999D03*
%TD*%
D34*
%TO.C,C6*%
X142296667Y-77571500D03*
X142296667Y-76428500D03*
%TD*%
D35*
%TO.C,U7*%
X151435100Y-70795000D03*
X151435100Y-72065000D03*
X151435100Y-73335000D03*
X151435100Y-74605000D03*
X158724900Y-74605000D03*
X158724900Y-73335000D03*
X158724900Y-72065000D03*
X158724900Y-70795000D03*
%TD*%
D36*
%TO.C,R24*%
X161244854Y-90946950D03*
X161244854Y-92052548D03*
%TD*%
D37*
%TO.C,R26*%
X182550000Y-84408000D03*
X181050000Y-84408000D03*
%TD*%
%TO.C,R35*%
X182550000Y-79584000D03*
X181050000Y-79584000D03*
%TD*%
D38*
%TO.C,C41*%
X160474856Y-70826999D03*
X160474856Y-71969999D03*
%TD*%
D27*
%TO.C,R20*%
X150674856Y-91051298D03*
X150674856Y-89945700D03*
%TD*%
D24*
%TO.C,C26*%
X154588223Y-77391775D03*
X153779999Y-78199999D03*
%TD*%
D39*
%TO.C,R1*%
X182333356Y-90948499D03*
X182333356Y-92448499D03*
%TD*%
D34*
%TO.C,C92*%
X164100000Y-79793002D03*
X164100000Y-78650000D03*
%TD*%
D25*
%TO.C,C33*%
X156570744Y-82394387D03*
X157378968Y-83202611D03*
%TD*%
D40*
%TO.C,C3*%
X127647741Y-72600000D03*
X126504741Y-72600000D03*
%TD*%
D34*
%TO.C,C7*%
X141063333Y-77571500D03*
X141063333Y-76428500D03*
%TD*%
D25*
%TO.C,C14*%
X156125888Y-88545888D03*
X156934112Y-89354112D03*
%TD*%
D41*
%TO.C,R22*%
X140251713Y-91931789D03*
X139469937Y-91150013D03*
%TD*%
D37*
%TO.C,R33*%
X182550000Y-76350000D03*
X181050000Y-76350000D03*
%TD*%
D42*
%TO.C,XTAL1*%
X142240901Y-90625825D03*
X143725825Y-89140901D03*
X142559099Y-87974175D03*
X141074175Y-89459099D03*
%TD*%
D43*
%TO.C,U3*%
X135573800Y-77475001D03*
X135573800Y-76975000D03*
X135573800Y-76475000D03*
X135573800Y-75974999D03*
D44*
X134918099Y-75810600D03*
X134418100Y-75810600D03*
X133918101Y-75810600D03*
D43*
X133262400Y-75974999D03*
X133262400Y-76475000D03*
X133262400Y-76975000D03*
X133262400Y-77475001D03*
D44*
X133918101Y-77639400D03*
X134418100Y-77639400D03*
X134918099Y-77639400D03*
%TD*%
D27*
%TO.C,R25*%
X164844856Y-92052548D03*
X164844856Y-90946950D03*
%TD*%
%TO.C,R76*%
X172600000Y-82352799D03*
X172600000Y-81247201D03*
%TD*%
D34*
%TO.C,C10*%
X143530000Y-77571500D03*
X143530000Y-76428500D03*
%TD*%
D40*
%TO.C,C11*%
X136801500Y-88700000D03*
X135658500Y-88700000D03*
%TD*%
D45*
%TO.C,C35*%
X149334112Y-76604112D03*
X148525888Y-75795888D03*
%TD*%
D34*
%TO.C,C17*%
X138580000Y-74799999D03*
X138580000Y-73656999D03*
%TD*%
%TO.C,C38*%
X171744855Y-96024048D03*
X171744855Y-94881048D03*
%TD*%
D37*
%TO.C,R36*%
X182550000Y-82800000D03*
X181050000Y-82800000D03*
%TD*%
D46*
%TO.C,U1*%
X176683357Y-94148498D03*
X176683357Y-95648500D03*
X179096357Y-95648500D03*
X179096357Y-94148498D03*
%TD*%
D34*
%TO.C,C2*%
X127480000Y-76821500D03*
X127480000Y-75678500D03*
%TD*%
D47*
%TO.C,IC1*%
X114226900Y-75752300D03*
X114226900Y-76852300D03*
X114226900Y-77952300D03*
X114226900Y-79052300D03*
X114226900Y-80152300D03*
X114226900Y-81252300D03*
X114226900Y-82352300D03*
X114226900Y-85347700D03*
X114226900Y-86447700D03*
X114226900Y-87547700D03*
X114226900Y-88647700D03*
X114226900Y-89747700D03*
X125733100Y-89747700D03*
X125733100Y-88647700D03*
X125733100Y-87547700D03*
X125733100Y-86447700D03*
X125733100Y-85347700D03*
X125733100Y-82352300D03*
X125733100Y-81252300D03*
X125733100Y-80152300D03*
X125733100Y-79052300D03*
X125733100Y-77952300D03*
X125733100Y-76852300D03*
X125733100Y-75752300D03*
%TD*%
D34*
%TO.C,C12*%
X139830000Y-77571500D03*
X139830000Y-76428500D03*
%TD*%
D40*
%TO.C,C94*%
X164449998Y-82350000D03*
X163306996Y-82350000D03*
%TD*%
D38*
%TO.C,C93*%
X170150000Y-76778499D03*
X170150000Y-77921501D03*
%TD*%
%TO.C,C13*%
X132066002Y-79857000D03*
X132066002Y-81000000D03*
%TD*%
D48*
%TO.C,CR2*%
X173433356Y-94198499D03*
X173433356Y-95698499D03*
%TD*%
D34*
%TO.C,C37*%
X171974858Y-90798497D03*
X171974858Y-89655497D03*
%TD*%
D28*
%TO.C,C23*%
X152942605Y-95898499D03*
X154085605Y-95898499D03*
%TD*%
D37*
%TO.C,R41*%
X182550000Y-81192000D03*
X181050000Y-81192000D03*
%TD*%
D49*
%TO.C,R9*%
X158974856Y-69298499D03*
X158974856Y-67798499D03*
%TD*%
D28*
%TO.C,C5*%
X141028499Y-96600000D03*
X142171501Y-96600000D03*
%TD*%
D50*
%TO.C,C30*%
X154646667Y-79066667D03*
X155454891Y-78258443D03*
%TD*%
D49*
%TO.C,R72*%
X175550000Y-82650000D03*
X175550000Y-81150000D03*
%TD*%
D38*
%TO.C,C20*%
X131980000Y-75928500D03*
X131980000Y-77071500D03*
%TD*%
D50*
%TO.C,C29*%
X155513334Y-79933334D03*
X156321558Y-79125110D03*
%TD*%
D26*
%TO.C,R27*%
X178650000Y-67900000D03*
X177544402Y-67900000D03*
%TD*%
D49*
%TO.C,R71*%
X177150000Y-81100000D03*
X177150000Y-79600000D03*
%TD*%
D45*
%TO.C,C32*%
X145580000Y-79400000D03*
X144771776Y-78591776D03*
%TD*%
D51*
%TO.C,LS1*%
X162270000Y-70760000D03*
X170970000Y-70760000D03*
%TD*%
D37*
%TO.C,R6*%
X153474857Y-66798500D03*
X151974857Y-66798500D03*
%TD*%
D52*
%TO.C,U13*%
X155169601Y-66847500D03*
X155169601Y-68752500D03*
X157100001Y-67800000D03*
%TD*%
D25*
%TO.C,C36*%
X155670744Y-83294387D03*
X156478968Y-84102611D03*
%TD*%
D53*
%TO.C,FL1*%
X112080900Y-83750000D03*
D54*
X111230000Y-83229300D03*
D53*
X110379100Y-83750000D03*
D54*
X111230000Y-84270700D03*
%TD*%
D55*
%TO.C,U10*%
X178720000Y-69354900D03*
X177769999Y-69354900D03*
X176819998Y-69354900D03*
X176819998Y-72060000D03*
X177769999Y-72060000D03*
X178720000Y-72060000D03*
%TD*%
D40*
%TO.C,C8*%
X134876500Y-74450000D03*
X133733500Y-74450000D03*
%TD*%
D34*
%TO.C,C40*%
X170774858Y-90798497D03*
X170774858Y-89655497D03*
%TD*%
D49*
%TO.C,R70*%
X178800000Y-79500000D03*
X178800000Y-78000000D03*
%TD*%
D27*
%TO.C,R17*%
X163644855Y-88801297D03*
X163644855Y-87695699D03*
%TD*%
D55*
%TO.C,U9*%
X174870001Y-69354900D03*
X173920000Y-69354900D03*
X172969999Y-69354900D03*
X172969999Y-72060000D03*
X173920000Y-72060000D03*
X174870001Y-72060000D03*
%TD*%
D39*
%TO.C,R74*%
X178800000Y-81700000D03*
X178800000Y-83200000D03*
%TD*%
D27*
%TO.C,R10*%
X112480000Y-81802799D03*
X112480000Y-80697201D03*
%TD*%
D24*
%TO.C,C25*%
X147130000Y-87600000D03*
X146321776Y-88408224D03*
%TD*%
%TO.C,C24*%
X157188224Y-79991776D03*
X156380000Y-80800000D03*
%TD*%
D27*
%TO.C,R13*%
X136080000Y-83800000D03*
X136080000Y-82694402D03*
%TD*%
D28*
%TO.C,C16*%
X133694501Y-82553499D03*
X134837501Y-82553499D03*
%TD*%
D36*
%TO.C,R15*%
X138560000Y-82694402D03*
X138560000Y-83800000D03*
%TD*%
D49*
%TO.C,R3*%
X175196357Y-92398499D03*
X175196357Y-90898499D03*
%TD*%
D39*
%TO.C,R4*%
X180596357Y-90898499D03*
X180596357Y-92398499D03*
%TD*%
D37*
%TO.C,R34*%
X182550000Y-77976000D03*
X181050000Y-77976000D03*
%TD*%
%TO.C,R39*%
X182550000Y-86016000D03*
X181050000Y-86016000D03*
%TD*%
D34*
%TO.C,C21*%
X137330000Y-74799999D03*
X137330000Y-73656999D03*
%TD*%
D56*
%TO.C,HM1*%
X133241001Y-79396000D03*
X133891001Y-79396000D03*
X134541001Y-79396000D03*
X135191001Y-79396000D03*
X135191001Y-81336000D03*
X134541001Y-81336000D03*
X133891001Y-81336000D03*
X133241001Y-81336000D03*
%TD*%
D28*
%TO.C,C42*%
X141028499Y-95400000D03*
X142171501Y-95400000D03*
%TD*%
D57*
%TO.C,U30*%
X170312549Y-82350000D03*
X170312549Y-81700002D03*
X170312549Y-81050000D03*
X170312549Y-80400002D03*
X166223149Y-80400002D03*
X166223149Y-81050000D03*
X166223149Y-81700002D03*
X166223149Y-82350000D03*
%TD*%
D58*
%TO.C,U5*%
X158916991Y-87210006D03*
X158563349Y-86856364D03*
D59*
X157980261Y-86679543D03*
X157626618Y-87033185D03*
X157272976Y-87386828D03*
D58*
X157449797Y-87969916D03*
X157803439Y-88323558D03*
D59*
X158386527Y-88500379D03*
X158740170Y-88146737D03*
X159093812Y-87793094D03*
%TD*%
D50*
%TO.C,C34*%
X139286713Y-88005013D03*
X140094937Y-87196789D03*
%TD*%
D34*
%TO.C,C39*%
X169574857Y-90798497D03*
X169574857Y-89655497D03*
%TD*%
D27*
%TO.C,R14*%
X137280000Y-83800000D03*
X137280000Y-82694402D03*
%TD*%
D60*
%TO.C,D4*%
X169944855Y-92947548D03*
X169944855Y-96157548D03*
%TD*%
D50*
%TO.C,C27*%
X153369858Y-86493501D03*
X154178082Y-85685277D03*
%TD*%
D40*
%TO.C,C1*%
X127643000Y-73800000D03*
X126500000Y-73800000D03*
%TD*%
D27*
%TO.C,R19*%
X149474856Y-91051298D03*
X149474856Y-89945700D03*
%TD*%
D26*
%TO.C,R21*%
X154066904Y-94698499D03*
X152961306Y-94698499D03*
%TD*%
D61*
%TO.C,C15*%
X140280000Y-74534599D03*
X140280000Y-72734599D03*
%TD*%
D24*
%TO.C,C18*%
X157057290Y-91522709D03*
X156249066Y-92330933D03*
%TD*%
D62*
%TO.C,L1*%
X111480000Y-87800000D03*
X111480000Y-88700000D03*
%TD*%
D24*
%TO.C,C31*%
X146275890Y-86729113D03*
X145467666Y-87537337D03*
%TD*%
D50*
%TO.C,C19*%
X159134028Y-89449936D03*
X159942252Y-88641712D03*
%TD*%
D63*
%TO.C,U2*%
X137229999Y-77750001D03*
X137730000Y-77750001D03*
X138230000Y-77750001D03*
X138730001Y-77750001D03*
D64*
X138730001Y-77250000D03*
X138730001Y-76750000D03*
D63*
X138730001Y-76249999D03*
X138230000Y-76249999D03*
X137730000Y-76249999D03*
X137229999Y-76249999D03*
D64*
X137229999Y-76750000D03*
X137229999Y-77250000D03*
%TD*%
D26*
%TO.C,R5*%
X112725000Y-85775000D03*
X111619402Y-85775000D03*
%TD*%
D25*
%TO.C,C9*%
X159297507Y-85888983D03*
X160105731Y-86697207D03*
%TD*%
D39*
%TO.C,R2*%
X173433356Y-90898499D03*
X173433356Y-92398499D03*
%TD*%
D65*
%TO.C,J6*%
X149654856Y-94138499D03*
X148654855Y-94138499D03*
X147654854Y-94138499D03*
D66*
X146354855Y-96663498D03*
X150954855Y-96663498D03*
%TD*%
D26*
%TO.C,R16*%
X154066904Y-97098497D03*
X152961306Y-97098497D03*
%TD*%
D55*
%TO.C,U11*%
X182570001Y-69357450D03*
X181620000Y-69357450D03*
X180669999Y-69357450D03*
X180669999Y-72062550D03*
X181620000Y-72062550D03*
X182570001Y-72062550D03*
%TD*%
D41*
%TO.C,R11*%
X152110888Y-89450888D03*
X151329112Y-88669112D03*
%TD*%
D39*
%TO.C,R73*%
X178800000Y-84500000D03*
X178800000Y-86000000D03*
%TD*%
D48*
%TO.C,CR1*%
X182333356Y-94198499D03*
X182333356Y-95698499D03*
%TD*%
D67*
%TO.C,R23*%
X148477201Y-70800000D03*
X149582799Y-70800000D03*
%TD*%
D68*
%TO.C,D3*%
X163544854Y-90197598D03*
X163044855Y-90197598D03*
X162544856Y-90197598D03*
X162544856Y-91899398D03*
X163044855Y-91899398D03*
X163544854Y-91899398D03*
%TD*%
D69*
%TO.C,U6*%
X155867569Y-90165984D03*
X155514015Y-89812430D03*
D70*
X154960136Y-89626674D03*
X154606584Y-89980227D03*
X154253031Y-90333779D03*
D69*
X154438787Y-90887658D03*
X154792341Y-91241212D03*
D70*
X155346220Y-91426968D03*
X155699772Y-91073415D03*
X156053325Y-90719863D03*
%TD*%
D37*
%TO.C,R7*%
X111425000Y-75100000D03*
X109925000Y-75100000D03*
%TD*%
M02*
