M48
; DRILL file {KiCad 9.0.0} date 2025-07-20T20:17:57+0100
; FORMAT={-:-/ absolute / metric / decimal}
; #@! TF.CreationDate,2025-07-20T20:17:57+01:00
; #@! TF.GenerationSoftware,Kicad,Pcbnew,9.0.0
; #@! TF.FileFunction,Plated,1,4,PTH
FMAT,2
METRIC
; #@! TA.AperFunction,Plated,PTH,ViaDrill
T1C0.200
; #@! TA.AperFunction,Plated,PTH,ViaDrill
T2C0.250
; #@! TA.AperFunction,Plated,PTH,ViaDrill
T3C0.300
; #@! TA.AperFunction,Plated,PTH,ComponentDrill
T4C0.650
; #@! TA.AperFunction,Plated,PTH,ComponentDrill
T5C1.000
; #@! TA.AperFunction,Plated,PTH,ComponentDrill
T6C1.118
; #@! TA.AperFunction,Plated,PTH,ComponentDrill
T7C1.400
; #@! TA.AperFunction,Plated,PTH,ComponentDrill
T8C1.600
%
G90
G05
T1
X111.23Y-83.75
X111.275Y-78.198
X115.37Y-78.21
X115.38Y-79.0
X117.525Y-83.548
X117.675Y-81.598
X122.125Y-81.598
X122.275Y-83.548
X122.67Y-77.66
X123.52Y-77.61
X124.37Y-74.91
X124.375Y-75.698
X125.733Y-74.7
X125.849Y-73.819
X126.48Y-72.45
X126.83Y-75.678
X128.18Y-76.822
X130.458Y-80.679
X131.38Y-75.9
X131.38Y-77.1
X132.62Y-78.46
X132.78Y-79.857
X133.52Y-78.61
X133.891Y-80.1
X133.891Y-81.9
X133.918Y-75.11
X134.42Y-85.86
X134.53Y-78.85
X134.87Y-80.11
X134.98Y-87.7
X135.92Y-95.81
X135.97Y-86.51
X135.98Y-75.5
X136.07Y-79.01
X136.27Y-76.61
X136.28Y-77.4
X136.43Y-78.325
X136.62Y-75.91
X136.68Y-88.0
X136.687Y-83.232
X137.47Y-80.7
X137.575Y-84.598
X137.62Y-83.798
X137.92Y-77.06
X137.93Y-73.657
X137.96Y-96.324
X138.02Y-81.41
X138.14Y-78.84
X138.72Y-75.61
X138.87Y-79.01
X138.875Y-81.148
X139.133Y-73.103
X139.17Y-84.61
X139.32Y-78.36
X139.335Y-83.845
X139.724Y-95.798
X139.82Y-75.66
X139.92Y-89.86
X140.42Y-83.448
X140.43Y-76.428
X140.475Y-84.198
X140.775Y-95.098
X140.775Y-95.898
X140.97Y-78.91
X141.024Y-87.078
X141.034Y-86.393
X141.07Y-88.76
X141.275Y-83.66
X141.303Y-82.277
X141.32Y-91.31
X141.63Y-76.428
X141.63Y-79.396
X141.675Y-85.198
X141.72Y-86.01
X141.905Y-81.275
X142.02Y-87.811
X142.07Y-83.66
X142.12Y-82.26
X142.703Y-92.614
X142.846Y-81.228
X142.93Y-76.428
X143.06Y-86.771
X143.655Y-91.675
X143.92Y-79.51
X143.92Y-85.41
X144.32Y-77.41
X144.32Y-88.01
X144.38Y-78.2
X144.47Y-81.76
X144.626Y-85.662
X144.68Y-90.65
X144.72Y-79.96
X145.02Y-88.8
X145.03Y-81.15
X145.08Y-77.4
X145.72Y-89.61
X145.897Y-87.983
X146.325Y-82.498
X146.675Y-93.798
X146.725Y-94.56
X147.163Y-70.016
X147.425Y-83.548
X147.62Y-96.66
X147.662Y-69.525
X147.92Y-80.96
X148.154Y-69.022
X148.47Y-80.36
X148.675Y-92.948
X148.72Y-68.61
X148.73Y-84.66
X148.743Y-87.433
X148.975Y-92.198
X149.17Y-68.06
X149.18Y-75.2
X149.375Y-88.16
X149.582Y-67.494
X149.82Y-96.66
X149.97Y-88.71
X149.975Y-86.948
X150.03Y-85.95
X150.175Y-92.798
X150.37Y-71.41
X150.52Y-85.36
X150.548Y-87.898
X150.62Y-76.86
X150.905Y-79.775
X151.42Y-84.46
X151.43Y-71.25
X151.43Y-76.85
X151.48Y-80.4
X151.585Y-87.41
X151.775Y-90.798
X151.97Y-75.71
X152.225Y-83.798
X152.34Y-81.23
X152.37Y-86.51
X152.414Y-87.614
X152.481Y-88.549
X152.605Y-76.125
X152.72Y-83.21
X152.77Y-73.01
X152.805Y-85.525
X152.87Y-81.76
X153.186Y-87.794
X153.42Y-72.61
X153.844Y-88.336
X153.97Y-74.46
X154.22Y-92.203
X154.43Y-75.1
X154.489Y-85.374
X154.85Y-96.173
X154.988Y-77.792
X155.12Y-88.06
X155.27Y-81.21
X155.37Y-89.01
X155.774Y-91.856
X155.87Y-87.593
X155.888Y-78.692
X156.153Y-89.452
X156.38Y-75.2
X156.738Y-79.542
X156.77Y-87.76
X156.879Y-83.703
X156.925Y-75.76
X157.02Y-73.31
X157.175Y-86.348
X157.58Y-73.9
X157.829Y-82.753
X158.207Y-87.26
X158.625Y-86.048
X158.765Y-88.879
X159.741Y-87.061
X159.825Y-70.795
X160.22Y-74.86
X160.445Y-92.953
X160.475Y-72.548
X161.245Y-90.253
X162.239Y-86.391
X162.801Y-85.829
X163.045Y-88.238
X163.045Y-91.048
X163.045Y-95.31
X163.625Y-84.448
X164.52Y-86.51
X164.525Y-85.748
X164.845Y-90.253
X166.645Y-92.953
X168.625Y-84.698
X168.775Y-86.348
X168.775Y-87.298
X169.32Y-81.81
X169.575Y-86.827
X170.175Y-90.798
X170.325Y-86.348
X170.325Y-87.298
X171.375Y-90.798
X171.475Y-84.298
X172.375Y-85.698
X172.375Y-86.46
X172.97Y-73.26
X173.27Y-85.01
X173.436Y-90.488
X173.699Y-66.913
X173.92Y-73.26
X174.804Y-66.913
X176.814Y-73.26
X177.508Y-66.913
X177.77Y-73.26
X177.875Y-90.76
X177.92Y-89.96
X178.014Y-83.689
X178.02Y-76.16
X178.02Y-76.91
X178.02Y-79.36
X178.02Y-80.11
X178.07Y-82.941
X178.62Y-66.913
X179.267Y-89.59
X180.67Y-73.26
X181.367Y-66.913
X181.77Y-73.26
X182.333Y-90.488
X182.47Y-66.913
T2
X114.225Y-83.208
X115.18Y-87.55
X115.18Y-89.75
X148.31Y-82.394
X149.143Y-81.561
X149.158Y-83.21
X149.97Y-82.397
X149.975Y-84.098
X149.975Y-80.729
X150.783Y-81.585
X150.825Y-83.248
X151.675Y-82.398
X156.025Y-68.753
X160.175Y-89.798
X162.175Y-81.315
X165.375Y-84.498
X165.375Y-89.248
X168.575Y-89.655
X170.885Y-94.883
X180.825Y-95.698
T3
X108.53Y-81.15
X112.48Y-79.6
X116.025Y-83.148
X116.225Y-81.498
X116.425Y-84.548
X116.675Y-76.9
X116.875Y-80.248
X117.225Y-85.698
X117.425Y-82.448
X117.975Y-79.348
X118.025Y-84.448
X118.225Y-86.348
X118.275Y-80.848
X118.98Y-73.4
X118.98Y-88.8
X119.905Y-73.4
X119.905Y-88.8
X120.83Y-73.4
X120.83Y-88.8
X121.525Y-80.848
X121.525Y-86.348
X121.725Y-84.448
X121.975Y-79.348
X122.375Y-82.448
X122.675Y-85.698
X123.125Y-80.248
X123.525Y-84.548
X123.775Y-81.498
X123.925Y-83.148
X124.48Y-76.85
X124.615Y-89.738
X149.925Y-74.605
X174.375Y-89.655
X176.475Y-92.898
T5
X185.98Y-78.34
X185.98Y-80.63
X185.98Y-82.92
X185.98Y-85.21
X185.98Y-87.5
X188.52Y-77.195
X188.52Y-79.485
X188.52Y-81.775
X188.52Y-84.065
X188.52Y-86.355
X191.06Y-78.34
X191.06Y-80.63
X191.06Y-82.92
X191.06Y-85.21
X191.06Y-87.5
T6
X129.6Y-98.287
X132.14Y-98.287
X134.68Y-98.287
X137.22Y-98.287
X139.76Y-98.287
X142.3Y-98.287
T7
X105.12Y-88.81
T8
X102.545Y-86.235
X102.545Y-91.385
X107.695Y-86.235
X107.695Y-91.385
T4
G00X159.225Y-93.723
M15
G01X159.225Y-94.723
M16
G05
G00X159.225Y-97.398
M15
G01X159.225Y-98.698
M16
G05
G00X167.865Y-93.723
M15
G01X167.865Y-94.723
M16
G05
G00X167.865Y-97.398
M15
G01X167.865Y-98.698
M16
G05
M30
