%TF.GenerationSoftware,KiCad,Pcbnew,9.0.2+1*%
%TF.CreationDate,2025-08-16T20:28:54+01:00*%
%TF.ProjectId,Navigator,4e617669-6761-4746-9f72-2e6b69636164,rev?*%
%TF.SameCoordinates,Original*%
%TF.FileFunction,Soldermask,Top*%
%TF.FilePolarity,Negative*%
%FSLAX46Y46*%
G04 Gerber Fmt 4.6, Leading zero omitted, Abs format (unit mm)*
G04 Created by KiCad (PCBNEW 9.0.2+1) date 2025-08-16 20:28:54*
%MOMM*%
%LPD*%
G01*
G04 APERTURE LIST*
G04 Aperture macros list*
%AMRoundRect*
0 Rectangle with rounded corners*
0 $1 Rounding radius*
0 $2 $3 $4 $5 $6 $7 $8 $9 X,Y pos of 4 corners*
0 Add a 4 corners polygon primitive as box body*
4,1,4,$2,$3,$4,$5,$6,$7,$8,$9,$2,$3,0*
0 Add four circle primitives for the rounded corners*
1,1,$1+$1,$2,$3*
1,1,$1+$1,$4,$5*
1,1,$1+$1,$6,$7*
1,1,$1+$1,$8,$9*
0 Add four rect primitives between the rounded corners*
20,1,$1+$1,$2,$3,$4,$5,0*
20,1,$1+$1,$4,$5,$6,$7,0*
20,1,$1+$1,$6,$7,$8,$9,0*
20,1,$1+$1,$8,$9,$2,$3,0*%
%AMFreePoly0*
4,1,39,0.010328,0.796522,0.065263,0.796522,0.078411,0.794791,0.204490,0.761009,0.216742,0.755934,0.329781,0.690671,0.340302,0.682598,0.432598,0.590302,0.440671,0.579781,0.505934,0.466742,0.511009,0.454490,0.544791,0.328411,0.546522,0.315263,0.546522,0.260327,0.550800,0.250000,0.550800,-0.250000,0.546522,-0.260327,0.546522,-0.315263,0.544791,-0.328411,0.511009,-0.454490,
0.505934,-0.466742,0.440671,-0.579781,0.432598,-0.590302,0.340302,-0.682598,0.329781,-0.690671,0.216742,-0.755934,0.204490,-0.761009,0.078411,-0.794791,0.065263,-0.796522,0.010328,-0.796522,0.000000,-0.800800,-0.500000,-0.800800,-0.535921,-0.785921,-0.550800,-0.750000,-0.550800,0.750000,-0.535921,0.785921,-0.500000,0.800800,0.000000,0.800800,0.010328,0.796522,0.010328,0.796522,
$1*%
%AMFreePoly1*
4,1,39,0.535921,0.785921,0.550800,0.750000,0.550800,-0.750000,0.535921,-0.785921,0.500000,-0.800800,0.000000,-0.800800,-0.010328,-0.796522,-0.065263,-0.796522,-0.078411,-0.794791,-0.204490,-0.761009,-0.216742,-0.755934,-0.329781,-0.690671,-0.340302,-0.682598,-0.432598,-0.590302,-0.440671,-0.579781,-0.505934,-0.466742,-0.511009,-0.454490,-0.544791,-0.328411,-0.546522,-0.315263,-0.546522,-0.260327,
-0.550800,-0.250000,-0.550800,0.250000,-0.546522,0.260327,-0.546522,0.315263,-0.544791,0.328411,-0.511009,0.454490,-0.505934,0.466742,-0.440671,0.579781,-0.432598,0.590302,-0.340302,0.682598,-0.329781,0.690671,-0.216742,0.755934,-0.204490,0.761009,-0.078411,0.794791,-0.065263,0.796522,-0.010328,0.796522,0.000000,0.800800,0.500000,0.800800,0.535921,0.785921,0.535921,0.785921,
$1*%
G04 Aperture macros list end*
%ADD10C,0.010000*%
%ADD11RoundRect,0.050800X-0.304800X-0.114300X0.304800X-0.114300X0.304800X0.114300X-0.304800X0.114300X0*%
%ADD12RoundRect,0.025400X0.224506X-0.350230X0.350230X-0.224506X-0.224506X0.350230X-0.350230X0.224506X0*%
%ADD13RoundRect,0.025400X-0.350230X-0.224506X-0.224506X-0.350230X0.350230X0.224506X0.224506X0.350230X0*%
%ADD14RoundRect,0.025400X-2.263025X0.000000X0.000000X-2.263025X2.263025X0.000000X0.000000X2.263025X0*%
%ADD15RoundRect,0.085200X-0.675600X-0.255600X0.675600X-0.255600X0.675600X0.255600X-0.675600X0.255600X0*%
%ADD16RoundRect,0.050800X0.774700X-1.104900X0.774700X1.104900X-0.774700X1.104900X-0.774700X-1.104900X0*%
%ADD17R,0.576580X0.351536*%
%ADD18R,0.351536X0.576580*%
%ADD19RoundRect,0.025400X0.237500X-0.150000X0.237500X0.150000X-0.237500X0.150000X-0.237500X-0.150000X0*%
%ADD20C,0.731600*%
%ADD21C,0.701600*%
%ADD22RoundRect,0.025400X-0.260000X-0.500000X0.260000X-0.500000X0.260000X0.500000X-0.260000X0.500000X0*%
%ADD23RoundRect,0.025400X-0.135000X-0.500000X0.135000X-0.500000X0.135000X0.500000X-0.135000X0.500000X0*%
%ADD24RoundRect,0.120000X-0.500000X-1.000000X0.500000X-1.000000X0.500000X1.000000X-0.500000X1.000000X0*%
%ADD25O,1.310400X2.468400*%
%ADD26O,1.352400X2.552400*%
%ADD27FreePoly0,270.000000*%
%ADD28FreePoly1,270.000000*%
%ADD29RoundRect,0.152400X0.017961X0.233487X-0.233487X-0.017961X-0.017961X-0.233487X0.233487X0.017961X0*%
%ADD30RoundRect,0.152400X-0.233487X0.017961X0.017961X-0.233487X0.233487X-0.017961X-0.017961X0.233487X0*%
%ADD31RoundRect,0.150400X0.228199X0.150399X-0.228199X0.150399X-0.228199X-0.150399X0.228199X-0.150399X0*%
%ADD32RoundRect,0.150400X0.150399X-0.228199X0.150399X0.228199X-0.150399X0.228199X-0.150399X-0.228199X0*%
%ADD33RoundRect,0.152400X-0.177800X-0.152400X0.177800X-0.152400X0.177800X0.152400X-0.177800X0.152400X0*%
%ADD34RoundRect,0.150400X0.055013X0.267709X-0.267709X-0.055013X-0.055013X-0.267709X0.267709X0.055013X0*%
%ADD35RoundRect,0.278500X0.278500X0.358500X-0.278500X0.358500X-0.278500X-0.358500X0.278500X-0.358500X0*%
%ADD36RoundRect,0.015000X0.203200X-0.406400X0.203200X0.406400X-0.203200X0.406400X-0.203200X-0.406400X0*%
%ADD37R,2.489200X1.752600*%
%ADD38RoundRect,0.102000X0.400000X-0.660000X0.400000X0.660000X-0.400000X0.660000X-0.400000X-0.660000X0*%
%ADD39C,3.301600*%
%ADD40RoundRect,0.152400X0.152400X-0.177800X0.152400X0.177800X-0.152400X0.177800X-0.152400X-0.177800X0*%
%ADD41RoundRect,0.050800X-0.762000X-0.266700X0.762000X-0.266700X0.762000X0.266700X-0.762000X0.266700X0*%
%ADD42RoundRect,0.150400X-0.150399X0.228199X-0.150399X-0.228199X0.150399X-0.228199X0.150399X0.228199X0*%
%ADD43RoundRect,0.150400X0.150400X0.306800X-0.150400X0.306800X-0.150400X-0.306800X0.150400X-0.306800X0*%
%ADD44RoundRect,0.152400X-0.152400X0.177800X-0.152400X-0.177800X0.152400X-0.177800X0.152400X0.177800X0*%
%ADD45RoundRect,0.150400X-0.306800X0.150400X-0.306800X-0.150400X0.306800X-0.150400X0.306800X0.150400X0*%
%ADD46RoundRect,0.152400X0.177800X0.152400X-0.177800X0.152400X-0.177800X-0.152400X0.177800X-0.152400X0*%
%ADD47RoundRect,0.150400X0.267709X-0.055013X-0.055013X0.267709X-0.267709X0.055013X0.055013X-0.267709X0*%
%ADD48RoundRect,0.050800X0.848528X0.070711X0.070711X0.848528X-0.848528X-0.070711X-0.070711X-0.848528X0*%
%ADD49RoundRect,0.025400X-0.241300X0.127000X-0.241300X-0.127000X0.241300X-0.127000X0.241300X0.127000X0*%
%ADD50RoundRect,0.025400X0.127000X0.241300X-0.127000X0.241300X-0.127000X-0.241300X0.127000X-0.241300X0*%
%ADD51C,3.201600*%
%ADD52C,1.601600*%
%ADD53RoundRect,0.152400X0.233487X-0.017961X-0.017961X0.233487X-0.233487X0.017961X0.017961X-0.233487X0*%
%ADD54RoundRect,0.050800X-0.952500X-0.330200X0.952500X-0.330200X0.952500X0.330200X-0.952500X0.330200X0*%
%ADD55RoundRect,0.050800X-0.647700X-0.419100X0.647700X-0.419100X0.647700X0.419100X-0.647700X0.419100X0*%
%ADD56RoundRect,0.050800X-0.500000X-0.525000X0.500000X-0.525000X0.500000X0.525000X-0.500000X0.525000X0*%
%ADD57RoundRect,0.150400X0.306800X-0.150400X0.306800X0.150400X-0.306800X0.150400X-0.306800X-0.150400X0*%
%ADD58RoundRect,0.152400X-0.017961X-0.233487X0.233487X0.017961X0.017961X0.233487X-0.233487X-0.017961X0*%
%ADD59RoundRect,0.050800X1.050000X-1.050000X1.050000X1.050000X-1.050000X1.050000X-1.050000X-1.050000X0*%
%ADD60C,2.501600*%
%ADD61RoundRect,0.102000X-0.650000X-1.700000X0.650000X-1.700000X0.650000X1.700000X-0.650000X1.700000X0*%
%ADD62FreePoly1,90.000000*%
%ADD63FreePoly0,90.000000*%
%ADD64RoundRect,0.050800X-0.711200X0.279400X-0.711200X-0.279400X0.711200X-0.279400X0.711200X0.279400X0*%
%ADD65RoundRect,0.050800X0.355600X0.444500X-0.355600X0.444500X-0.355600X-0.444500X0.355600X-0.444500X0*%
%ADD66RoundRect,0.050800X0.254000X0.279400X-0.254000X0.279400X-0.254000X-0.279400X0.254000X-0.279400X0*%
%ADD67RoundRect,0.050800X-0.228600X0.501650X-0.228600X-0.501650X0.228600X-0.501650X0.228600X0.501650X0*%
%ADD68RoundRect,0.061250X0.183750X-0.203750X0.183750X0.203750X-0.183750X0.203750X-0.183750X-0.203750X0*%
%ADD69RoundRect,0.025400X0.762000X0.228600X-0.762000X0.228600X-0.762000X-0.228600X0.762000X-0.228600X0*%
%ADD70RoundRect,0.025400X-0.224506X-0.008980X-0.008980X-0.224506X0.224506X0.008980X0.008980X0.224506X0*%
%ADD71RoundRect,0.025400X-0.008980X0.224506X-0.224506X0.008980X0.008980X-0.224506X0.224506X-0.008980X0*%
%ADD72RoundRect,0.278500X0.358500X-0.278500X0.358500X0.278500X-0.358500X0.278500X-0.358500X-0.278500X0*%
%ADD73RoundRect,0.294348X0.532652X-0.382652X0.532652X0.382652X-0.532652X0.382652X-0.532652X-0.382652X0*%
%ADD74RoundRect,0.050800X-0.330000X0.250000X-0.330000X-0.250000X0.330000X-0.250000X0.330000X0.250000X0*%
%ADD75R,0.351536X0.376682*%
%ADD76R,0.376682X0.351536*%
%ADD77RoundRect,0.050800X-0.330200X-0.774700X0.330200X-0.774700X0.330200X0.774700X-0.330200X0.774700X0*%
%ADD78RoundRect,0.050800X0.647700X-0.952500X0.647700X0.952500X-0.647700X0.952500X-0.647700X-0.952500X0*%
%ADD79FreePoly1,180.000000*%
%ADD80FreePoly0,180.000000*%
%ADD81RoundRect,0.150400X-0.228199X-0.150399X0.228199X-0.150399X0.228199X0.150399X-0.228199X0.150399X0*%
%ADD82RoundRect,0.050800X-0.114300X0.304800X-0.114300X-0.304800X0.114300X-0.304800X0.114300X0.304800X0*%
%ADD83RoundRect,0.025400X-0.188585X-0.008980X-0.008980X-0.188585X0.188585X0.008980X0.008980X0.188585X0*%
%ADD84RoundRect,0.025400X0.000000X0.179605X-0.179605X0.000000X0.000000X-0.179605X0.179605X0.000000X0*%
%ADD85C,1.727200*%
G04 APERTURE END LIST*
%TO.C,JP1*%
G36*
X124980000Y-72350000D02*
G01*
X123480000Y-72350000D01*
X123480000Y-72650000D01*
X124980000Y-72650000D01*
X124980000Y-72350000D01*
G37*
D10*
%TO.C,D5*%
X149704856Y-92449499D02*
X149705856Y-92449499D01*
X149707856Y-92449499D01*
X149708856Y-92450499D01*
X149709856Y-92450499D01*
X149710856Y-92451499D01*
X149711856Y-92451499D01*
X149713856Y-92452499D01*
X149714856Y-92453499D01*
X149715856Y-92454499D01*
X149716856Y-92454499D01*
X149717856Y-92455499D01*
X149718856Y-92456499D01*
X149718856Y-92457499D01*
X149719856Y-92458499D01*
X149720856Y-92459499D01*
X149721856Y-92460499D01*
X149721856Y-92462499D01*
X149722856Y-92463499D01*
X149722856Y-92464499D01*
X149723856Y-92465499D01*
X149723856Y-92467499D01*
X149723856Y-92468499D01*
X149724856Y-92469499D01*
X149724856Y-92470499D01*
X149724856Y-92472499D01*
X149724856Y-92473499D01*
X149724856Y-92523499D01*
X149724856Y-92524499D01*
X149724856Y-92526499D01*
X149724856Y-92527499D01*
X149723856Y-92528499D01*
X149723856Y-92529499D01*
X149723856Y-92531499D01*
X149722856Y-92532499D01*
X149722856Y-92533499D01*
X149721856Y-92534499D01*
X149721856Y-92535499D01*
X149720856Y-92537499D01*
X149719856Y-92538499D01*
X149718856Y-92539499D01*
X149718856Y-92540499D01*
X149717856Y-92541499D01*
X149716856Y-92542499D01*
X149715856Y-92542499D01*
X149714856Y-92543499D01*
X149713856Y-92544499D01*
X149711856Y-92545499D01*
X149710856Y-92545499D01*
X149709856Y-92546499D01*
X149708856Y-92546499D01*
X149707856Y-92547499D01*
X149705856Y-92547499D01*
X149704856Y-92547499D01*
X149703856Y-92548499D01*
X149702856Y-92548499D01*
X149700856Y-92548499D01*
X149699856Y-92548499D01*
X149649856Y-92548499D01*
X149648856Y-92548499D01*
X149646856Y-92548499D01*
X149645856Y-92548499D01*
X149644856Y-92547499D01*
X149643856Y-92547499D01*
X149641856Y-92547499D01*
X149640856Y-92546499D01*
X149639856Y-92546499D01*
X149638856Y-92545499D01*
X149636856Y-92545499D01*
X149635856Y-92544499D01*
X149634856Y-92543499D01*
X149633856Y-92542499D01*
X149632856Y-92542499D01*
X149631856Y-92541499D01*
X149630856Y-92540499D01*
X149630856Y-92539499D01*
X149629856Y-92538499D01*
X149628856Y-92537499D01*
X149627856Y-92535499D01*
X149627856Y-92534499D01*
X149626856Y-92533499D01*
X149626856Y-92532499D01*
X149625856Y-92531499D01*
X149625856Y-92529499D01*
X149625856Y-92528499D01*
X149624856Y-92527499D01*
X149624856Y-92526499D01*
X149624856Y-92524499D01*
X149624856Y-92523499D01*
X149624856Y-92473499D01*
X149624856Y-92472499D01*
X149624856Y-92470499D01*
X149624856Y-92469499D01*
X149625856Y-92468499D01*
X149625856Y-92467499D01*
X149625856Y-92465499D01*
X149626856Y-92464499D01*
X149626856Y-92463499D01*
X149627856Y-92462499D01*
X149627856Y-92460499D01*
X149628856Y-92459499D01*
X149629856Y-92458499D01*
X149630856Y-92457499D01*
X149630856Y-92456499D01*
X149631856Y-92455499D01*
X149632856Y-92454499D01*
X149633856Y-92454499D01*
X149634856Y-92453499D01*
X149635856Y-92452499D01*
X149636856Y-92451499D01*
X149638856Y-92451499D01*
X149639856Y-92450499D01*
X149640856Y-92450499D01*
X149641856Y-92449499D01*
X149643856Y-92449499D01*
X149644856Y-92449499D01*
X149645856Y-92448499D01*
X149646856Y-92448499D01*
X149648856Y-92448499D01*
X149649856Y-92448499D01*
X149699856Y-92448499D01*
X149700856Y-92448499D01*
X149702856Y-92448499D01*
X149703856Y-92448499D01*
X149704856Y-92449499D01*
G36*
X149704856Y-92449499D02*
G01*
X149705856Y-92449499D01*
X149707856Y-92449499D01*
X149708856Y-92450499D01*
X149709856Y-92450499D01*
X149710856Y-92451499D01*
X149711856Y-92451499D01*
X149713856Y-92452499D01*
X149714856Y-92453499D01*
X149715856Y-92454499D01*
X149716856Y-92454499D01*
X149717856Y-92455499D01*
X149718856Y-92456499D01*
X149718856Y-92457499D01*
X149719856Y-92458499D01*
X149720856Y-92459499D01*
X149721856Y-92460499D01*
X149721856Y-92462499D01*
X149722856Y-92463499D01*
X149722856Y-92464499D01*
X149723856Y-92465499D01*
X149723856Y-92467499D01*
X149723856Y-92468499D01*
X149724856Y-92469499D01*
X149724856Y-92470499D01*
X149724856Y-92472499D01*
X149724856Y-92473499D01*
X149724856Y-92523499D01*
X149724856Y-92524499D01*
X149724856Y-92526499D01*
X149724856Y-92527499D01*
X149723856Y-92528499D01*
X149723856Y-92529499D01*
X149723856Y-92531499D01*
X149722856Y-92532499D01*
X149722856Y-92533499D01*
X149721856Y-92534499D01*
X149721856Y-92535499D01*
X149720856Y-92537499D01*
X149719856Y-92538499D01*
X149718856Y-92539499D01*
X149718856Y-92540499D01*
X149717856Y-92541499D01*
X149716856Y-92542499D01*
X149715856Y-92542499D01*
X149714856Y-92543499D01*
X149713856Y-92544499D01*
X149711856Y-92545499D01*
X149710856Y-92545499D01*
X149709856Y-92546499D01*
X149708856Y-92546499D01*
X149707856Y-92547499D01*
X149705856Y-92547499D01*
X149704856Y-92547499D01*
X149703856Y-92548499D01*
X149702856Y-92548499D01*
X149700856Y-92548499D01*
X149699856Y-92548499D01*
X149649856Y-92548499D01*
X149648856Y-92548499D01*
X149646856Y-92548499D01*
X149645856Y-92548499D01*
X149644856Y-92547499D01*
X149643856Y-92547499D01*
X149641856Y-92547499D01*
X149640856Y-92546499D01*
X149639856Y-92546499D01*
X149638856Y-92545499D01*
X149636856Y-92545499D01*
X149635856Y-92544499D01*
X149634856Y-92543499D01*
X149633856Y-92542499D01*
X149632856Y-92542499D01*
X149631856Y-92541499D01*
X149630856Y-92540499D01*
X149630856Y-92539499D01*
X149629856Y-92538499D01*
X149628856Y-92537499D01*
X149627856Y-92535499D01*
X149627856Y-92534499D01*
X149626856Y-92533499D01*
X149626856Y-92532499D01*
X149625856Y-92531499D01*
X149625856Y-92529499D01*
X149625856Y-92528499D01*
X149624856Y-92527499D01*
X149624856Y-92526499D01*
X149624856Y-92524499D01*
X149624856Y-92523499D01*
X149624856Y-92473499D01*
X149624856Y-92472499D01*
X149624856Y-92470499D01*
X149624856Y-92469499D01*
X149625856Y-92468499D01*
X149625856Y-92467499D01*
X149625856Y-92465499D01*
X149626856Y-92464499D01*
X149626856Y-92463499D01*
X149627856Y-92462499D01*
X149627856Y-92460499D01*
X149628856Y-92459499D01*
X149629856Y-92458499D01*
X149630856Y-92457499D01*
X149630856Y-92456499D01*
X149631856Y-92455499D01*
X149632856Y-92454499D01*
X149633856Y-92454499D01*
X149634856Y-92453499D01*
X149635856Y-92452499D01*
X149636856Y-92451499D01*
X149638856Y-92451499D01*
X149639856Y-92450499D01*
X149640856Y-92450499D01*
X149641856Y-92449499D01*
X149643856Y-92449499D01*
X149644856Y-92449499D01*
X149645856Y-92448499D01*
X149646856Y-92448499D01*
X149648856Y-92448499D01*
X149649856Y-92448499D01*
X149699856Y-92448499D01*
X149700856Y-92448499D01*
X149702856Y-92448499D01*
X149703856Y-92448499D01*
X149704856Y-92449499D01*
G37*
X150204856Y-92199499D02*
X150205856Y-92199499D01*
X150207856Y-92199499D01*
X150208856Y-92200499D01*
X150209856Y-92200499D01*
X150210856Y-92201499D01*
X150212856Y-92201499D01*
X150213856Y-92202499D01*
X150214856Y-92203499D01*
X150215856Y-92204499D01*
X150216856Y-92204499D01*
X150217856Y-92205499D01*
X150218856Y-92206499D01*
X150218856Y-92207499D01*
X150219856Y-92208499D01*
X150220856Y-92209499D01*
X150221856Y-92211499D01*
X150221856Y-92212499D01*
X150222856Y-92213499D01*
X150222856Y-92214499D01*
X150223856Y-92215499D01*
X150223856Y-92217499D01*
X150223856Y-92218499D01*
X150224856Y-92219499D01*
X150224856Y-92220499D01*
X150224856Y-92222499D01*
X150224856Y-92223499D01*
X150224856Y-92273499D01*
X150224856Y-92274499D01*
X150224856Y-92276499D01*
X150224856Y-92277499D01*
X150223856Y-92278499D01*
X150223856Y-92279499D01*
X150223856Y-92281499D01*
X150222856Y-92282499D01*
X150222856Y-92283499D01*
X150221856Y-92284499D01*
X150221856Y-92286499D01*
X150220856Y-92287499D01*
X150219856Y-92288499D01*
X150218856Y-92289499D01*
X150218856Y-92290499D01*
X150217856Y-92291499D01*
X150216856Y-92292499D01*
X150215856Y-92292499D01*
X150214856Y-92293499D01*
X150213856Y-92294499D01*
X150211856Y-92295499D01*
X150210856Y-92295499D01*
X150209856Y-92296499D01*
X150208856Y-92296499D01*
X150207856Y-92297499D01*
X150205856Y-92297499D01*
X150204856Y-92297499D01*
X150203856Y-92298499D01*
X150202856Y-92298499D01*
X150200856Y-92298499D01*
X150199856Y-92298499D01*
X150149856Y-92298499D01*
X150148856Y-92298499D01*
X150146856Y-92298499D01*
X150145856Y-92298499D01*
X150144856Y-92297499D01*
X150143856Y-92297499D01*
X150141856Y-92297499D01*
X150140856Y-92296499D01*
X150139856Y-92296499D01*
X150138856Y-92295499D01*
X150137856Y-92295499D01*
X150135856Y-92294499D01*
X150134856Y-92293499D01*
X150133856Y-92292499D01*
X150132856Y-92292499D01*
X150131856Y-92291499D01*
X150130856Y-92290499D01*
X150130856Y-92289499D01*
X150129856Y-92288499D01*
X150128856Y-92287499D01*
X150127856Y-92286499D01*
X150127856Y-92284499D01*
X150126856Y-92283499D01*
X150126856Y-92282499D01*
X150125856Y-92281499D01*
X150125856Y-92279499D01*
X150125856Y-92278499D01*
X150124856Y-92277499D01*
X150124856Y-92276499D01*
X150124856Y-92274499D01*
X150124856Y-92273499D01*
X150124856Y-92223499D01*
X150124856Y-92222499D01*
X150124856Y-92220499D01*
X150124856Y-92219499D01*
X150125856Y-92218499D01*
X150125856Y-92217499D01*
X150125856Y-92215499D01*
X150126856Y-92214499D01*
X150126856Y-92213499D01*
X150127856Y-92212499D01*
X150127856Y-92211499D01*
X150128856Y-92209499D01*
X150129856Y-92208499D01*
X150130856Y-92207499D01*
X150130856Y-92206499D01*
X150131856Y-92205499D01*
X150132856Y-92204499D01*
X150133856Y-92204499D01*
X150134856Y-92203499D01*
X150135856Y-92202499D01*
X150136856Y-92201499D01*
X150138856Y-92201499D01*
X150139856Y-92200499D01*
X150140856Y-92200499D01*
X150141856Y-92199499D01*
X150143856Y-92199499D01*
X150144856Y-92199499D01*
X150145856Y-92198499D01*
X150146856Y-92198499D01*
X150148856Y-92198499D01*
X150149856Y-92198499D01*
X150199856Y-92198499D01*
X150200856Y-92198499D01*
X150202856Y-92198499D01*
X150203856Y-92198499D01*
X150204856Y-92199499D01*
G36*
X150204856Y-92199499D02*
G01*
X150205856Y-92199499D01*
X150207856Y-92199499D01*
X150208856Y-92200499D01*
X150209856Y-92200499D01*
X150210856Y-92201499D01*
X150212856Y-92201499D01*
X150213856Y-92202499D01*
X150214856Y-92203499D01*
X150215856Y-92204499D01*
X150216856Y-92204499D01*
X150217856Y-92205499D01*
X150218856Y-92206499D01*
X150218856Y-92207499D01*
X150219856Y-92208499D01*
X150220856Y-92209499D01*
X150221856Y-92211499D01*
X150221856Y-92212499D01*
X150222856Y-92213499D01*
X150222856Y-92214499D01*
X150223856Y-92215499D01*
X150223856Y-92217499D01*
X150223856Y-92218499D01*
X150224856Y-92219499D01*
X150224856Y-92220499D01*
X150224856Y-92222499D01*
X150224856Y-92223499D01*
X150224856Y-92273499D01*
X150224856Y-92274499D01*
X150224856Y-92276499D01*
X150224856Y-92277499D01*
X150223856Y-92278499D01*
X150223856Y-92279499D01*
X150223856Y-92281499D01*
X150222856Y-92282499D01*
X150222856Y-92283499D01*
X150221856Y-92284499D01*
X150221856Y-92286499D01*
X150220856Y-92287499D01*
X150219856Y-92288499D01*
X150218856Y-92289499D01*
X150218856Y-92290499D01*
X150217856Y-92291499D01*
X150216856Y-92292499D01*
X150215856Y-92292499D01*
X150214856Y-92293499D01*
X150213856Y-92294499D01*
X150211856Y-92295499D01*
X150210856Y-92295499D01*
X150209856Y-92296499D01*
X150208856Y-92296499D01*
X150207856Y-92297499D01*
X150205856Y-92297499D01*
X150204856Y-92297499D01*
X150203856Y-92298499D01*
X150202856Y-92298499D01*
X150200856Y-92298499D01*
X150199856Y-92298499D01*
X150149856Y-92298499D01*
X150148856Y-92298499D01*
X150146856Y-92298499D01*
X150145856Y-92298499D01*
X150144856Y-92297499D01*
X150143856Y-92297499D01*
X150141856Y-92297499D01*
X150140856Y-92296499D01*
X150139856Y-92296499D01*
X150138856Y-92295499D01*
X150137856Y-92295499D01*
X150135856Y-92294499D01*
X150134856Y-92293499D01*
X150133856Y-92292499D01*
X150132856Y-92292499D01*
X150131856Y-92291499D01*
X150130856Y-92290499D01*
X150130856Y-92289499D01*
X150129856Y-92288499D01*
X150128856Y-92287499D01*
X150127856Y-92286499D01*
X150127856Y-92284499D01*
X150126856Y-92283499D01*
X150126856Y-92282499D01*
X150125856Y-92281499D01*
X150125856Y-92279499D01*
X150125856Y-92278499D01*
X150124856Y-92277499D01*
X150124856Y-92276499D01*
X150124856Y-92274499D01*
X150124856Y-92273499D01*
X150124856Y-92223499D01*
X150124856Y-92222499D01*
X150124856Y-92220499D01*
X150124856Y-92219499D01*
X150125856Y-92218499D01*
X150125856Y-92217499D01*
X150125856Y-92215499D01*
X150126856Y-92214499D01*
X150126856Y-92213499D01*
X150127856Y-92212499D01*
X150127856Y-92211499D01*
X150128856Y-92209499D01*
X150129856Y-92208499D01*
X150130856Y-92207499D01*
X150130856Y-92206499D01*
X150131856Y-92205499D01*
X150132856Y-92204499D01*
X150133856Y-92204499D01*
X150134856Y-92203499D01*
X150135856Y-92202499D01*
X150136856Y-92201499D01*
X150138856Y-92201499D01*
X150139856Y-92200499D01*
X150140856Y-92200499D01*
X150141856Y-92199499D01*
X150143856Y-92199499D01*
X150144856Y-92199499D01*
X150145856Y-92198499D01*
X150146856Y-92198499D01*
X150148856Y-92198499D01*
X150149856Y-92198499D01*
X150199856Y-92198499D01*
X150200856Y-92198499D01*
X150202856Y-92198499D01*
X150203856Y-92198499D01*
X150204856Y-92199499D01*
G37*
X150704856Y-92449499D02*
X150705856Y-92449499D01*
X150707856Y-92449499D01*
X150708856Y-92450499D01*
X150709856Y-92450499D01*
X150710856Y-92451499D01*
X150712856Y-92451499D01*
X150713856Y-92452499D01*
X150714856Y-92453499D01*
X150715856Y-92454499D01*
X150716856Y-92454499D01*
X150717856Y-92455499D01*
X150718856Y-92456499D01*
X150718856Y-92457499D01*
X150719856Y-92458499D01*
X150720856Y-92459499D01*
X150721856Y-92461499D01*
X150721856Y-92462499D01*
X150722856Y-92463499D01*
X150722856Y-92464499D01*
X150723856Y-92465499D01*
X150723856Y-92467499D01*
X150723856Y-92468499D01*
X150724856Y-92469499D01*
X150724856Y-92470499D01*
X150724856Y-92472499D01*
X150724856Y-92473499D01*
X150724856Y-92523499D01*
X150724856Y-92524499D01*
X150724856Y-92526499D01*
X150724856Y-92527499D01*
X150723856Y-92528499D01*
X150723856Y-92529499D01*
X150723856Y-92531499D01*
X150722856Y-92532499D01*
X150722856Y-92533499D01*
X150721856Y-92534499D01*
X150721856Y-92535499D01*
X150720856Y-92537499D01*
X150719856Y-92538499D01*
X150718856Y-92539499D01*
X150718856Y-92540499D01*
X150717856Y-92541499D01*
X150716856Y-92542499D01*
X150715856Y-92542499D01*
X150714856Y-92543499D01*
X150713856Y-92544499D01*
X150712856Y-92545499D01*
X150710856Y-92545499D01*
X150709856Y-92546499D01*
X150708856Y-92546499D01*
X150707856Y-92547499D01*
X150705856Y-92547499D01*
X150704856Y-92547499D01*
X150703856Y-92548499D01*
X150702856Y-92548499D01*
X150700856Y-92548499D01*
X150699856Y-92548499D01*
X150649856Y-92548499D01*
X150648856Y-92548499D01*
X150646856Y-92548499D01*
X150645856Y-92548499D01*
X150644856Y-92547499D01*
X150643856Y-92547499D01*
X150641856Y-92547499D01*
X150640856Y-92546499D01*
X150639856Y-92546499D01*
X150638856Y-92545499D01*
X150637856Y-92545499D01*
X150635856Y-92544499D01*
X150634856Y-92543499D01*
X150633856Y-92542499D01*
X150632856Y-92542499D01*
X150631856Y-92541499D01*
X150630856Y-92540499D01*
X150630856Y-92539499D01*
X150629856Y-92538499D01*
X150628856Y-92537499D01*
X150627856Y-92535499D01*
X150627856Y-92534499D01*
X150626856Y-92533499D01*
X150626856Y-92532499D01*
X150625856Y-92531499D01*
X150625856Y-92529499D01*
X150625856Y-92528499D01*
X150624856Y-92527499D01*
X150624856Y-92526499D01*
X150624856Y-92524499D01*
X150624856Y-92523499D01*
X150624856Y-92473499D01*
X150624856Y-92472499D01*
X150624856Y-92470499D01*
X150624856Y-92469499D01*
X150625856Y-92468499D01*
X150625856Y-92467499D01*
X150625856Y-92465499D01*
X150626856Y-92464499D01*
X150626856Y-92463499D01*
X150627856Y-92462499D01*
X150627856Y-92460499D01*
X150628856Y-92459499D01*
X150629856Y-92458499D01*
X150630856Y-92457499D01*
X150630856Y-92456499D01*
X150631856Y-92455499D01*
X150632856Y-92454499D01*
X150633856Y-92454499D01*
X150634856Y-92453499D01*
X150635856Y-92452499D01*
X150637856Y-92451499D01*
X150638856Y-92451499D01*
X150639856Y-92450499D01*
X150640856Y-92450499D01*
X150641856Y-92449499D01*
X150643856Y-92449499D01*
X150644856Y-92449499D01*
X150645856Y-92448499D01*
X150646856Y-92448499D01*
X150648856Y-92448499D01*
X150649856Y-92448499D01*
X150699856Y-92448499D01*
X150700856Y-92448499D01*
X150702856Y-92448499D01*
X150703856Y-92448499D01*
X150704856Y-92449499D01*
G36*
X150704856Y-92449499D02*
G01*
X150705856Y-92449499D01*
X150707856Y-92449499D01*
X150708856Y-92450499D01*
X150709856Y-92450499D01*
X150710856Y-92451499D01*
X150712856Y-92451499D01*
X150713856Y-92452499D01*
X150714856Y-92453499D01*
X150715856Y-92454499D01*
X150716856Y-92454499D01*
X150717856Y-92455499D01*
X150718856Y-92456499D01*
X150718856Y-92457499D01*
X150719856Y-92458499D01*
X150720856Y-92459499D01*
X150721856Y-92461499D01*
X150721856Y-92462499D01*
X150722856Y-92463499D01*
X150722856Y-92464499D01*
X150723856Y-92465499D01*
X150723856Y-92467499D01*
X150723856Y-92468499D01*
X150724856Y-92469499D01*
X150724856Y-92470499D01*
X150724856Y-92472499D01*
X150724856Y-92473499D01*
X150724856Y-92523499D01*
X150724856Y-92524499D01*
X150724856Y-92526499D01*
X150724856Y-92527499D01*
X150723856Y-92528499D01*
X150723856Y-92529499D01*
X150723856Y-92531499D01*
X150722856Y-92532499D01*
X150722856Y-92533499D01*
X150721856Y-92534499D01*
X150721856Y-92535499D01*
X150720856Y-92537499D01*
X150719856Y-92538499D01*
X150718856Y-92539499D01*
X150718856Y-92540499D01*
X150717856Y-92541499D01*
X150716856Y-92542499D01*
X150715856Y-92542499D01*
X150714856Y-92543499D01*
X150713856Y-92544499D01*
X150712856Y-92545499D01*
X150710856Y-92545499D01*
X150709856Y-92546499D01*
X150708856Y-92546499D01*
X150707856Y-92547499D01*
X150705856Y-92547499D01*
X150704856Y-92547499D01*
X150703856Y-92548499D01*
X150702856Y-92548499D01*
X150700856Y-92548499D01*
X150699856Y-92548499D01*
X150649856Y-92548499D01*
X150648856Y-92548499D01*
X150646856Y-92548499D01*
X150645856Y-92548499D01*
X150644856Y-92547499D01*
X150643856Y-92547499D01*
X150641856Y-92547499D01*
X150640856Y-92546499D01*
X150639856Y-92546499D01*
X150638856Y-92545499D01*
X150637856Y-92545499D01*
X150635856Y-92544499D01*
X150634856Y-92543499D01*
X150633856Y-92542499D01*
X150632856Y-92542499D01*
X150631856Y-92541499D01*
X150630856Y-92540499D01*
X150630856Y-92539499D01*
X150629856Y-92538499D01*
X150628856Y-92537499D01*
X150627856Y-92535499D01*
X150627856Y-92534499D01*
X150626856Y-92533499D01*
X150626856Y-92532499D01*
X150625856Y-92531499D01*
X150625856Y-92529499D01*
X150625856Y-92528499D01*
X150624856Y-92527499D01*
X150624856Y-92526499D01*
X150624856Y-92524499D01*
X150624856Y-92523499D01*
X150624856Y-92473499D01*
X150624856Y-92472499D01*
X150624856Y-92470499D01*
X150624856Y-92469499D01*
X150625856Y-92468499D01*
X150625856Y-92467499D01*
X150625856Y-92465499D01*
X150626856Y-92464499D01*
X150626856Y-92463499D01*
X150627856Y-92462499D01*
X150627856Y-92460499D01*
X150628856Y-92459499D01*
X150629856Y-92458499D01*
X150630856Y-92457499D01*
X150630856Y-92456499D01*
X150631856Y-92455499D01*
X150632856Y-92454499D01*
X150633856Y-92454499D01*
X150634856Y-92453499D01*
X150635856Y-92452499D01*
X150637856Y-92451499D01*
X150638856Y-92451499D01*
X150639856Y-92450499D01*
X150640856Y-92450499D01*
X150641856Y-92449499D01*
X150643856Y-92449499D01*
X150644856Y-92449499D01*
X150645856Y-92448499D01*
X150646856Y-92448499D01*
X150648856Y-92448499D01*
X150649856Y-92448499D01*
X150699856Y-92448499D01*
X150700856Y-92448499D01*
X150702856Y-92448499D01*
X150703856Y-92448499D01*
X150704856Y-92449499D01*
G37*
%TO.C,JP4*%
G36*
X147680000Y-73300000D02*
G01*
X149180000Y-73300000D01*
X149180000Y-73000000D01*
X147680000Y-73000000D01*
X147680000Y-73300000D01*
G37*
%TO.C,JP3*%
G36*
X155274856Y-95948498D02*
G01*
X156774856Y-95948498D01*
X156774856Y-95648498D01*
X155274856Y-95648498D01*
X155274856Y-95948498D01*
G37*
%TO.C,JP2*%
G36*
X110130000Y-81897900D02*
G01*
X109830000Y-81897900D01*
X109830000Y-80397900D01*
X110130000Y-80397900D01*
X110130000Y-81897900D01*
G37*
%TD*%
D11*
%TO.C,D1*%
X135849100Y-93900001D03*
X135849100Y-94400000D03*
X135849100Y-94899999D03*
X137550900Y-94899999D03*
X137550900Y-94400000D03*
X137550900Y-93900001D03*
%TD*%
D12*
%TO.C,MCU1*%
X149411769Y-78154814D03*
X149128927Y-78437656D03*
X148846083Y-78720500D03*
X148563241Y-79003342D03*
X148280399Y-79286184D03*
X147997555Y-79569028D03*
X147714713Y-79851870D03*
X147431870Y-80134713D03*
X147149028Y-80417555D03*
X146866184Y-80700399D03*
X146583342Y-80983241D03*
X146300500Y-81266083D03*
X146017656Y-81548927D03*
X145734814Y-81831769D03*
D13*
X145734814Y-82968231D03*
X146017656Y-83251073D03*
X146300500Y-83533917D03*
X146583342Y-83816759D03*
X146866184Y-84099601D03*
X147149028Y-84382445D03*
X147431870Y-84665287D03*
X147714713Y-84948130D03*
X147997555Y-85230972D03*
X148280399Y-85513816D03*
X148563241Y-85796658D03*
X148846083Y-86079500D03*
X149128927Y-86362344D03*
X149411769Y-86645186D03*
D12*
X150548231Y-86645186D03*
X150831073Y-86362344D03*
X151113917Y-86079500D03*
X151396759Y-85796658D03*
X151679601Y-85513816D03*
X151962445Y-85230972D03*
X152245287Y-84948130D03*
X152528130Y-84665287D03*
X152810972Y-84382445D03*
X153093816Y-84099601D03*
X153376658Y-83816759D03*
X153659500Y-83533917D03*
X153942344Y-83251073D03*
X154225186Y-82968231D03*
D13*
X154225186Y-81831769D03*
X153942344Y-81548927D03*
X153659500Y-81266083D03*
X153376658Y-80983241D03*
X153093816Y-80700399D03*
X152810972Y-80417555D03*
X152528130Y-80134713D03*
X152245287Y-79851870D03*
X151962445Y-79569028D03*
X151679601Y-79286184D03*
X151396759Y-79003342D03*
X151113917Y-78720500D03*
X150831073Y-78437656D03*
X150548231Y-78154814D03*
D14*
X149980000Y-82400000D03*
%TD*%
D15*
%TO.C,U29*%
X166100000Y-76750000D03*
X166100000Y-77700000D03*
X166100000Y-78650000D03*
X168390000Y-78650000D03*
X168390000Y-76750000D03*
%TD*%
D16*
%TO.C,CR3*%
X113092956Y-72548499D03*
X115556756Y-72548499D03*
%TD*%
D17*
%TO.C,U4*%
X134969700Y-85649999D03*
X134969700Y-86150000D03*
X134969700Y-86650000D03*
X134969700Y-87150001D03*
D18*
X135680001Y-87356300D03*
X136180000Y-87356300D03*
X136679999Y-87356300D03*
D17*
X137390300Y-87150001D03*
X137390300Y-86650000D03*
X137390300Y-86150000D03*
X137390300Y-85649999D03*
D18*
X136679999Y-85443700D03*
X136180000Y-85443700D03*
X135680001Y-85443700D03*
%TD*%
D19*
%TO.C,IC2*%
X177045357Y-89598499D03*
X177045357Y-90098499D03*
X177045357Y-90598499D03*
X178721357Y-90598499D03*
X178721357Y-90098499D03*
X178721357Y-89598499D03*
%TD*%
D20*
%TO.C,J5*%
X160544856Y-94948499D03*
D21*
X166544856Y-94948499D03*
D22*
X160444856Y-93848499D03*
X161194856Y-93848499D03*
D23*
X161794856Y-93848499D03*
X162294856Y-93848499D03*
X162794856Y-93848499D03*
X163294856Y-93848499D03*
X163794856Y-93848499D03*
X164294856Y-93848499D03*
X164794856Y-93848499D03*
X165294856Y-93848499D03*
D22*
X165894856Y-93848499D03*
X166644856Y-93848499D03*
D24*
X162144856Y-98048499D03*
X164944856Y-98048499D03*
D25*
X159224856Y-94223499D03*
X167864856Y-94223499D03*
D26*
X159224856Y-98048499D03*
X167864856Y-98048499D03*
%TD*%
D27*
%TO.C,JP1*%
X124230000Y-73150000D03*
D28*
X124230000Y-71850000D03*
%TD*%
D29*
%TO.C,C22*%
X140078422Y-85438539D03*
X139270198Y-86246763D03*
%TD*%
D30*
%TO.C,C28*%
X157470744Y-81494386D03*
X158278968Y-82302610D03*
%TD*%
D31*
%TO.C,R8*%
X174804400Y-67907450D03*
X173698802Y-67907450D03*
%TD*%
D32*
%TO.C,R18*%
X162444854Y-88801298D03*
X162444854Y-87695700D03*
%TD*%
D33*
%TO.C,C4*%
X141028499Y-94200000D03*
X142171501Y-94200000D03*
%TD*%
D34*
%TO.C,R12*%
X155064855Y-86598499D03*
X154283079Y-87380275D03*
%TD*%
D35*
%TO.C,D2*%
X118737500Y-71388626D03*
X121947500Y-71388626D03*
%TD*%
D31*
%TO.C,R28*%
X182450000Y-67900000D03*
X181344402Y-67900000D03*
%TD*%
D36*
%TO.C,U8*%
X168624855Y-88274798D03*
X169574856Y-88274798D03*
X170524857Y-88274798D03*
X170524857Y-85379198D03*
X169574856Y-85379198D03*
X168624855Y-85379198D03*
D37*
X169574856Y-86826998D03*
%TD*%
D38*
%TO.C,U12*%
X109150000Y-78865999D03*
X111050000Y-78865999D03*
X110100000Y-76865999D03*
%TD*%
D39*
%TO.C,H1*%
X193800000Y-104000000D03*
%TD*%
D40*
%TO.C,C6*%
X142296667Y-77571500D03*
X142296667Y-76428500D03*
%TD*%
D41*
%TO.C,U7*%
X151435100Y-70795000D03*
X151435100Y-72065000D03*
X151435100Y-73335000D03*
X151435100Y-74605000D03*
X158724900Y-74605000D03*
X158724900Y-73335000D03*
X158724900Y-72065000D03*
X158724900Y-70795000D03*
%TD*%
D42*
%TO.C,R24*%
X161244854Y-90946950D03*
X161244854Y-92052548D03*
%TD*%
D43*
%TO.C,R26*%
X182550000Y-84408000D03*
X181050000Y-84408000D03*
%TD*%
%TO.C,R35*%
X182550000Y-79584000D03*
X181050000Y-79584000D03*
%TD*%
D44*
%TO.C,C41*%
X160474856Y-70826999D03*
X160474856Y-71969999D03*
%TD*%
D32*
%TO.C,R20*%
X150674856Y-91051298D03*
X150674856Y-89945700D03*
%TD*%
D29*
%TO.C,C26*%
X154588223Y-77391775D03*
X153779999Y-78199999D03*
%TD*%
D45*
%TO.C,R1*%
X182333356Y-90948499D03*
X182333356Y-92448499D03*
%TD*%
D40*
%TO.C,C92*%
X164100000Y-79793002D03*
X164100000Y-78650000D03*
%TD*%
D30*
%TO.C,C33*%
X156570744Y-82394387D03*
X157378968Y-83202611D03*
%TD*%
D46*
%TO.C,C3*%
X127647741Y-72600000D03*
X126504741Y-72600000D03*
%TD*%
D40*
%TO.C,C7*%
X141063333Y-77571500D03*
X141063333Y-76428500D03*
%TD*%
D30*
%TO.C,C14*%
X156125888Y-88545888D03*
X156934112Y-89354112D03*
%TD*%
D47*
%TO.C,R22*%
X140251713Y-91931789D03*
X139469937Y-91150013D03*
%TD*%
D43*
%TO.C,R33*%
X182550000Y-76350000D03*
X181050000Y-76350000D03*
%TD*%
D48*
%TO.C,XTAL1*%
X142240901Y-90625825D03*
X143725825Y-89140901D03*
X142559099Y-87974175D03*
X141074175Y-89459099D03*
%TD*%
D49*
%TO.C,U3*%
X135573800Y-77475001D03*
X135573800Y-76975000D03*
X135573800Y-76475000D03*
X135573800Y-75974999D03*
D50*
X134918099Y-75810600D03*
X134418100Y-75810600D03*
X133918101Y-75810600D03*
D49*
X133262400Y-75974999D03*
X133262400Y-76475000D03*
X133262400Y-76975000D03*
X133262400Y-77475001D03*
D50*
X133918101Y-77639400D03*
X134418100Y-77639400D03*
X134918099Y-77639400D03*
%TD*%
D51*
%TO.C,DSUB1*%
X188520000Y-95149000D03*
X188520000Y-70159000D03*
D52*
X185980000Y-87500000D03*
X185980000Y-85210000D03*
X185980000Y-82920000D03*
X185980000Y-80630000D03*
X185980000Y-78340000D03*
X188520000Y-86355000D03*
X188520000Y-84065000D03*
X188520000Y-81775000D03*
X188520000Y-79485000D03*
X188520000Y-77195000D03*
X191060000Y-87500000D03*
X191060000Y-85210000D03*
X191060000Y-82920000D03*
X191060000Y-80630000D03*
X191060000Y-78340000D03*
%TD*%
D32*
%TO.C,R25*%
X164844856Y-92052548D03*
X164844856Y-90946950D03*
%TD*%
%TO.C,R76*%
X172600000Y-82352799D03*
X172600000Y-81247201D03*
%TD*%
D40*
%TO.C,C10*%
X143530000Y-77571500D03*
X143530000Y-76428500D03*
%TD*%
D46*
%TO.C,C11*%
X136801500Y-88700000D03*
X135658500Y-88700000D03*
%TD*%
D53*
%TO.C,C35*%
X149334112Y-76604112D03*
X148525888Y-75795888D03*
%TD*%
D40*
%TO.C,C17*%
X138580000Y-74799999D03*
X138580000Y-73656999D03*
%TD*%
%TO.C,C38*%
X171744855Y-96024048D03*
X171744855Y-94881048D03*
%TD*%
D43*
%TO.C,R36*%
X182550000Y-82800000D03*
X181050000Y-82800000D03*
%TD*%
D54*
%TO.C,U1*%
X176683357Y-94148498D03*
X176683357Y-95648500D03*
X179096357Y-95648500D03*
X179096357Y-94148498D03*
%TD*%
D40*
%TO.C,C2*%
X127480000Y-76821500D03*
X127480000Y-75678500D03*
%TD*%
D39*
%TO.C,H2*%
X193800000Y-61000000D03*
%TD*%
D55*
%TO.C,IC1*%
X114226900Y-75752300D03*
X114226900Y-76852300D03*
X114226900Y-77952300D03*
X114226900Y-79052300D03*
X114226900Y-80152300D03*
X114226900Y-81252300D03*
X114226900Y-82352300D03*
X114226900Y-85347700D03*
X114226900Y-86447700D03*
X114226900Y-87547700D03*
X114226900Y-88647700D03*
X114226900Y-89747700D03*
X125733100Y-89747700D03*
X125733100Y-88647700D03*
X125733100Y-87547700D03*
X125733100Y-86447700D03*
X125733100Y-85347700D03*
X125733100Y-82352300D03*
X125733100Y-81252300D03*
X125733100Y-80152300D03*
X125733100Y-79052300D03*
X125733100Y-77952300D03*
X125733100Y-76852300D03*
X125733100Y-75752300D03*
%TD*%
D40*
%TO.C,C12*%
X139830000Y-77571500D03*
X139830000Y-76428500D03*
%TD*%
D46*
%TO.C,C94*%
X164449998Y-82350000D03*
X163306996Y-82350000D03*
%TD*%
D44*
%TO.C,C93*%
X170150000Y-76778499D03*
X170150000Y-77921501D03*
%TD*%
%TO.C,C13*%
X132066002Y-79857000D03*
X132066002Y-81000000D03*
%TD*%
D56*
%TO.C,CR2*%
X173433356Y-94198499D03*
X173433356Y-95698499D03*
%TD*%
D40*
%TO.C,C37*%
X171974858Y-90798497D03*
X171974858Y-89655497D03*
%TD*%
D33*
%TO.C,C23*%
X152942605Y-95898499D03*
X154085605Y-95898499D03*
%TD*%
D43*
%TO.C,R41*%
X182550000Y-81192000D03*
X181050000Y-81192000D03*
%TD*%
D57*
%TO.C,R9*%
X158974856Y-69298499D03*
X158974856Y-67798499D03*
%TD*%
D33*
%TO.C,C5*%
X141028499Y-96600000D03*
X142171501Y-96600000D03*
%TD*%
D58*
%TO.C,C30*%
X154646667Y-79066667D03*
X155454891Y-78258443D03*
%TD*%
D57*
%TO.C,R72*%
X175550000Y-82650000D03*
X175550000Y-81150000D03*
%TD*%
D59*
%TO.C,J2*%
X104700000Y-88700000D03*
D60*
X107275000Y-91275000D03*
X107275000Y-86125000D03*
X102125000Y-86125000D03*
X102125000Y-91275000D03*
%TD*%
D44*
%TO.C,C20*%
X131980000Y-75928500D03*
X131980000Y-77071500D03*
%TD*%
D58*
%TO.C,C29*%
X155513334Y-79933334D03*
X156321558Y-79125110D03*
%TD*%
D31*
%TO.C,R27*%
X178650000Y-67900000D03*
X177544402Y-67900000D03*
%TD*%
D57*
%TO.C,R71*%
X177150000Y-81100000D03*
X177150000Y-79600000D03*
%TD*%
D53*
%TO.C,C32*%
X145580000Y-79400000D03*
X144771776Y-78591776D03*
%TD*%
D61*
%TO.C,LS1*%
X162270000Y-70760000D03*
X170970000Y-70760000D03*
%TD*%
D62*
%TO.C,JP4*%
X148430000Y-73800000D03*
D63*
X148430000Y-72500000D03*
%TD*%
D43*
%TO.C,R6*%
X153474857Y-66798500D03*
X151974857Y-66798500D03*
%TD*%
D64*
%TO.C,U13*%
X155169601Y-66847500D03*
X155169601Y-68752500D03*
X157100001Y-67800000D03*
%TD*%
D30*
%TO.C,C36*%
X155670744Y-83294387D03*
X156478968Y-84102611D03*
%TD*%
D65*
%TO.C,FL1*%
X112080900Y-83750000D03*
D66*
X111230000Y-83229300D03*
D65*
X110379100Y-83750000D03*
D66*
X111230000Y-84270700D03*
%TD*%
D67*
%TO.C,U10*%
X178720000Y-69354900D03*
X177769999Y-69354900D03*
X176819998Y-69354900D03*
X176819998Y-72060000D03*
X177769999Y-72060000D03*
X178720000Y-72060000D03*
%TD*%
D46*
%TO.C,C8*%
X134876500Y-74450000D03*
X133733500Y-74450000D03*
%TD*%
D40*
%TO.C,C40*%
X170774858Y-90798497D03*
X170774858Y-89655497D03*
%TD*%
D57*
%TO.C,R70*%
X178800000Y-79500000D03*
X178800000Y-78000000D03*
%TD*%
D32*
%TO.C,R17*%
X163644855Y-88801297D03*
X163644855Y-87695699D03*
%TD*%
D67*
%TO.C,U9*%
X174870001Y-69354900D03*
X173920000Y-69354900D03*
X172969999Y-69354900D03*
X172969999Y-72060000D03*
X173920000Y-72060000D03*
X174870001Y-72060000D03*
%TD*%
D45*
%TO.C,R74*%
X178800000Y-81700000D03*
X178800000Y-83200000D03*
%TD*%
D32*
%TO.C,R10*%
X112480000Y-81802799D03*
X112480000Y-80697201D03*
%TD*%
D62*
%TO.C,JP3*%
X156024856Y-96448498D03*
D63*
X156024856Y-95148498D03*
%TD*%
D29*
%TO.C,C25*%
X147130000Y-87600000D03*
X146321776Y-88408224D03*
%TD*%
%TO.C,C24*%
X157188224Y-79991776D03*
X156380000Y-80800000D03*
%TD*%
D32*
%TO.C,R13*%
X136080000Y-83800000D03*
X136080000Y-82694402D03*
%TD*%
D33*
%TO.C,C16*%
X133694501Y-82553499D03*
X134837501Y-82553499D03*
%TD*%
D42*
%TO.C,R15*%
X138560000Y-82694402D03*
X138560000Y-83800000D03*
%TD*%
D57*
%TO.C,R3*%
X175196357Y-92398499D03*
X175196357Y-90898499D03*
%TD*%
D45*
%TO.C,R4*%
X180596357Y-90898499D03*
X180596357Y-92398499D03*
%TD*%
D43*
%TO.C,R34*%
X182550000Y-77976000D03*
X181050000Y-77976000D03*
%TD*%
%TO.C,R39*%
X182550000Y-86016000D03*
X181050000Y-86016000D03*
%TD*%
D39*
%TO.C,H3*%
X121800000Y-61000000D03*
%TD*%
D40*
%TO.C,C21*%
X137330000Y-74799999D03*
X137330000Y-73656999D03*
%TD*%
D68*
%TO.C,HM1*%
X133241001Y-79396000D03*
X133891001Y-79396000D03*
X134541001Y-79396000D03*
X135191001Y-79396000D03*
X135191001Y-81336000D03*
X134541001Y-81336000D03*
X133891001Y-81336000D03*
X133241001Y-81336000D03*
%TD*%
D33*
%TO.C,C42*%
X141028499Y-95400000D03*
X142171501Y-95400000D03*
%TD*%
D69*
%TO.C,U30*%
X170312549Y-82350000D03*
X170312549Y-81700002D03*
X170312549Y-81050000D03*
X170312549Y-80400002D03*
X166223149Y-80400002D03*
X166223149Y-81050000D03*
X166223149Y-81700002D03*
X166223149Y-82350000D03*
%TD*%
D70*
%TO.C,U5*%
X158916991Y-87210006D03*
X158563349Y-86856364D03*
D71*
X157980261Y-86679543D03*
X157626618Y-87033185D03*
X157272976Y-87386828D03*
D70*
X157449797Y-87969916D03*
X157803439Y-88323558D03*
D71*
X158386527Y-88500379D03*
X158740170Y-88146737D03*
X159093812Y-87793094D03*
%TD*%
D58*
%TO.C,C34*%
X139286713Y-88005013D03*
X140094937Y-87196789D03*
%TD*%
D40*
%TO.C,C39*%
X169574857Y-90798497D03*
X169574857Y-89655497D03*
%TD*%
D32*
%TO.C,R14*%
X137280000Y-83800000D03*
X137280000Y-82694402D03*
%TD*%
D72*
%TO.C,D4*%
X169944855Y-92947548D03*
X169944855Y-96157548D03*
%TD*%
D58*
%TO.C,C27*%
X153369858Y-86493501D03*
X154178082Y-85685277D03*
%TD*%
D46*
%TO.C,C1*%
X127643000Y-73800000D03*
X126500000Y-73800000D03*
%TD*%
D32*
%TO.C,R19*%
X149474856Y-91051298D03*
X149474856Y-89945700D03*
%TD*%
D31*
%TO.C,R21*%
X154066904Y-94698499D03*
X152961306Y-94698499D03*
%TD*%
D73*
%TO.C,C15*%
X140280000Y-74534599D03*
X140280000Y-72734599D03*
%TD*%
D29*
%TO.C,C18*%
X157057290Y-91522709D03*
X156249066Y-92330933D03*
%TD*%
D74*
%TO.C,L1*%
X111480000Y-87800000D03*
X111480000Y-88700000D03*
%TD*%
D29*
%TO.C,C31*%
X146275890Y-86729113D03*
X145467666Y-87537337D03*
%TD*%
D58*
%TO.C,C19*%
X159134028Y-89449936D03*
X159942252Y-88641712D03*
%TD*%
D75*
%TO.C,U2*%
X137229999Y-77750001D03*
X137730000Y-77750001D03*
X138230000Y-77750001D03*
X138730001Y-77750001D03*
D76*
X138730001Y-77250000D03*
X138730001Y-76750000D03*
D75*
X138730001Y-76249999D03*
X138230000Y-76249999D03*
X137730000Y-76249999D03*
X137229999Y-76249999D03*
D76*
X137229999Y-76750000D03*
X137229999Y-77250000D03*
%TD*%
D31*
%TO.C,R5*%
X112725000Y-85775000D03*
X111619402Y-85775000D03*
%TD*%
D30*
%TO.C,C9*%
X159297507Y-85888983D03*
X160105731Y-86697207D03*
%TD*%
D45*
%TO.C,R2*%
X173433356Y-90898499D03*
X173433356Y-92398499D03*
%TD*%
D77*
%TO.C,J6*%
X149654856Y-94138499D03*
X148654855Y-94138499D03*
X147654854Y-94138499D03*
D78*
X146354855Y-96663498D03*
X150954855Y-96663498D03*
%TD*%
D79*
%TO.C,JP2*%
X110630000Y-81147900D03*
D80*
X109330000Y-81147900D03*
%TD*%
D31*
%TO.C,R16*%
X154066904Y-97098497D03*
X152961306Y-97098497D03*
%TD*%
D67*
%TO.C,U11*%
X182570001Y-69357450D03*
X181620000Y-69357450D03*
X180669999Y-69357450D03*
X180669999Y-72062550D03*
X181620000Y-72062550D03*
X182570001Y-72062550D03*
%TD*%
D47*
%TO.C,R11*%
X152110888Y-89450888D03*
X151329112Y-88669112D03*
%TD*%
D45*
%TO.C,R73*%
X178800000Y-84500000D03*
X178800000Y-86000000D03*
%TD*%
D56*
%TO.C,CR1*%
X182333356Y-94198499D03*
X182333356Y-95698499D03*
%TD*%
D81*
%TO.C,R23*%
X148477201Y-70800000D03*
X149582799Y-70800000D03*
%TD*%
D82*
%TO.C,D3*%
X163544854Y-90197598D03*
X163044855Y-90197598D03*
X162544856Y-90197598D03*
X162544856Y-91899398D03*
X163044855Y-91899398D03*
X163544854Y-91899398D03*
%TD*%
D83*
%TO.C,U6*%
X155867569Y-90165984D03*
X155514015Y-89812430D03*
D84*
X154960136Y-89626674D03*
X154606584Y-89980227D03*
X154253031Y-90333779D03*
D83*
X154438787Y-90887658D03*
X154792341Y-91241212D03*
D84*
X155346220Y-91426968D03*
X155699772Y-91073415D03*
X156053325Y-90719863D03*
%TD*%
D43*
%TO.C,R7*%
X111425000Y-75100000D03*
X109925000Y-75100000D03*
%TD*%
D85*
%TO.C,J1*%
X142300000Y-98287000D03*
X139760000Y-98287000D03*
X137220000Y-98287000D03*
X134680000Y-98287000D03*
X132140000Y-98287000D03*
X129600000Y-98287000D03*
%TD*%
M02*
