%TF.GenerationSoftware,KiCad,Pcbnew,9.0.2+1*%
%TF.CreationDate,2025-07-26T18:57:21+01:00*%
%TF.ProjectId,Navigator,4e617669-6761-4746-9f72-2e6b69636164,rev?*%
%TF.SameCoordinates,Original*%
%TF.FileFunction,Legend,Top*%
%TF.FilePolarity,Positive*%
%FSLAX46Y46*%
G04 Gerber Fmt 4.6, Leading zero omitted, Abs format (unit mm)*
G04 Created by KiCad (PCBNEW 9.0.2+1) date 2025-07-26 18:57:21*
%MOMM*%
%LPD*%
G01*
G04 APERTURE LIST*
%ADD10C,0.200000*%
%ADD11C,0.187500*%
%ADD12C,0.150000*%
%ADD13C,0.152400*%
%ADD14C,0.000000*%
%ADD15C,0.127000*%
%ADD16C,0.160000*%
%ADD17C,0.100000*%
%ADD18C,0.300000*%
%ADD19C,0.120000*%
%ADD20C,0.400000*%
G04 APERTURE END LIST*
D10*
X128000000Y-88000000D02*
X130000000Y-88000000D01*
X130000000Y-90000000D01*
X128000000Y-90000000D01*
X128000000Y-88000000D01*
X128000000Y-99700000D02*
X128000000Y-90400000D01*
X128000000Y-90400000D02*
X136036667Y-90400000D01*
X136036667Y-90400000D02*
X138000000Y-93500000D01*
X128000000Y-93500000D02*
X138000000Y-93500000D01*
D11*
G36*
X132410041Y-93194870D02*
G01*
X132410041Y-92489894D01*
X132609344Y-92489894D01*
X132609344Y-92743510D01*
X133430000Y-92743510D01*
X133430000Y-92940751D01*
X132609344Y-92940751D01*
X132609344Y-93194870D01*
X132410041Y-93194870D01*
G37*
G36*
X132909457Y-91961551D02*
G01*
X133430000Y-91696166D01*
X133430000Y-91901605D01*
X133081587Y-92080390D01*
X133430000Y-92257665D01*
X133430000Y-92464157D01*
X132909457Y-92198772D01*
X132410041Y-92453899D01*
X132410041Y-92247910D01*
X132738670Y-92080390D01*
X132410041Y-91913374D01*
X132410041Y-91706378D01*
X132909457Y-91961551D01*
G37*
D12*
G36*
X130305129Y-88510041D02*
G01*
X131010105Y-88510041D01*
X131010105Y-88709344D01*
X130756489Y-88709344D01*
X130756489Y-89530000D01*
X130559248Y-89530000D01*
X130559248Y-88709344D01*
X130305129Y-88709344D01*
X130305129Y-88510041D01*
G37*
G36*
X131112183Y-88510041D02*
G01*
X131644511Y-88510041D01*
X131644511Y-88709344D01*
X131309425Y-88709344D01*
X131309425Y-88896922D01*
X131624544Y-88896922D01*
X131624544Y-89096224D01*
X131309425Y-89096224D01*
X131309425Y-89330697D01*
X131655776Y-89330697D01*
X131655776Y-89530000D01*
X131112183Y-89530000D01*
X131112183Y-88510041D01*
G37*
G36*
X132361119Y-88541304D02*
G01*
X132361119Y-88756238D01*
X132298010Y-88723564D01*
X132238158Y-88700734D01*
X132178844Y-88686504D01*
X132124952Y-88681988D01*
X132077731Y-88685507D01*
X132043931Y-88694652D01*
X132020400Y-88707756D01*
X132001583Y-88728126D01*
X131990502Y-88754143D01*
X131986603Y-88787684D01*
X131989242Y-88813273D01*
X131996780Y-88834004D01*
X132009409Y-88851065D01*
X132037428Y-88870184D01*
X132092162Y-88890022D01*
X132176151Y-88912554D01*
X132241557Y-88934422D01*
X132291839Y-88959578D01*
X132329712Y-88987155D01*
X132357501Y-89016662D01*
X132380253Y-89053631D01*
X132396955Y-89097982D01*
X132407536Y-89151209D01*
X132411311Y-89215293D01*
X132405987Y-89299271D01*
X132391192Y-89367266D01*
X132367954Y-89422435D01*
X132336252Y-89467046D01*
X132297696Y-89500522D01*
X132248356Y-89526312D01*
X132185774Y-89543309D01*
X132107000Y-89549539D01*
X132034320Y-89544926D01*
X131960958Y-89530976D01*
X131888144Y-89508161D01*
X131814458Y-89476083D01*
X131814458Y-89252540D01*
X131887911Y-89299254D01*
X131956103Y-89331491D01*
X132024234Y-89351600D01*
X132088040Y-89358053D01*
X132130799Y-89354288D01*
X132162998Y-89344241D01*
X132186913Y-89329293D01*
X132206176Y-89307043D01*
X132217384Y-89280136D01*
X132221260Y-89246983D01*
X132218473Y-89216389D01*
X132210663Y-89192204D01*
X132197950Y-89172916D01*
X132168106Y-89150848D01*
X132104939Y-89126266D01*
X132028598Y-89103735D01*
X131970500Y-89082949D01*
X131924429Y-89058208D01*
X131888418Y-89030229D01*
X131860803Y-88999382D01*
X131838157Y-88961581D01*
X131821720Y-88917658D01*
X131811442Y-88866426D01*
X131807817Y-88806308D01*
X131812866Y-88731538D01*
X131827116Y-88669107D01*
X131849920Y-88616611D01*
X131881594Y-88572384D01*
X131919671Y-88538535D01*
X131966450Y-88512985D01*
X132023724Y-88496466D01*
X132093673Y-88490502D01*
X132157059Y-88493626D01*
X132223275Y-88503203D01*
X132290249Y-88518857D01*
X132361119Y-88541304D01*
G37*
G36*
X132493789Y-88510041D02*
G01*
X133198765Y-88510041D01*
X133198765Y-88709344D01*
X132945150Y-88709344D01*
X132945150Y-89530000D01*
X132747908Y-89530000D01*
X132747908Y-88709344D01*
X132493789Y-88709344D01*
X132493789Y-88510041D01*
G37*
G36*
X133300843Y-88510041D02*
G01*
X133833171Y-88510041D01*
X133833171Y-88709344D01*
X133498085Y-88709344D01*
X133498085Y-88896922D01*
X133813204Y-88896922D01*
X133813204Y-89096224D01*
X133498085Y-89096224D01*
X133498085Y-89330697D01*
X133844436Y-89330697D01*
X133844436Y-89530000D01*
X133300843Y-89530000D01*
X133300843Y-88510041D01*
G37*
G36*
X134342799Y-88514633D02*
G01*
X134426905Y-88526520D01*
X134484979Y-88543197D01*
X134539620Y-88570686D01*
X134588128Y-88608046D01*
X134631250Y-88655549D01*
X134664236Y-88704230D01*
X134690754Y-88757133D01*
X134711163Y-88814734D01*
X134725383Y-88875797D01*
X134734237Y-88943557D01*
X134737312Y-89018982D01*
X134734227Y-89095358D01*
X134725365Y-89163693D01*
X134711163Y-89225001D01*
X134690742Y-89282799D01*
X134664222Y-89335800D01*
X134631250Y-89384492D01*
X134587769Y-89431974D01*
X134538821Y-89469362D01*
X134483650Y-89496905D01*
X134425152Y-89513600D01*
X134341356Y-89525443D01*
X134225455Y-89530000D01*
X134017452Y-89530000D01*
X134017452Y-89330697D01*
X134214693Y-89330697D01*
X134285402Y-89330697D01*
X134346138Y-89324958D01*
X134395930Y-89309011D01*
X134436733Y-89284171D01*
X134470095Y-89250891D01*
X134497009Y-89208485D01*
X134516803Y-89157050D01*
X134529384Y-89094714D01*
X134533888Y-89018982D01*
X134529396Y-88943581D01*
X134516856Y-88881597D01*
X134497134Y-88830522D01*
X134470324Y-88788478D01*
X134437131Y-88755543D01*
X134396372Y-88730906D01*
X134346462Y-88715056D01*
X134285402Y-88709344D01*
X134214693Y-88709344D01*
X134214693Y-89330697D01*
X134017452Y-89330697D01*
X134017452Y-88510041D01*
X134225455Y-88510041D01*
X134342799Y-88514633D01*
G37*
D11*
G36*
X144275390Y-72715157D02*
G01*
X144339165Y-72728852D01*
X144387402Y-72749045D01*
X144423231Y-72774277D01*
X144453800Y-72810129D01*
X144475823Y-72854937D01*
X144489722Y-72910586D01*
X144494718Y-72979991D01*
X144491624Y-73028605D01*
X144482799Y-73070446D01*
X144468568Y-73106753D01*
X144448926Y-73138113D01*
X144423946Y-73163901D01*
X144392777Y-73184300D01*
X144432609Y-73205814D01*
X144465031Y-73235977D01*
X144491146Y-73275158D01*
X144510105Y-73321353D01*
X144521866Y-73374962D01*
X144525996Y-73437702D01*
X144520837Y-73509991D01*
X144506375Y-73569092D01*
X144483301Y-73617715D01*
X144451166Y-73657643D01*
X144413251Y-73686733D01*
X144364424Y-73709411D01*
X144302206Y-73724463D01*
X144223700Y-73730000D01*
X143896308Y-73730000D01*
X143896308Y-73550237D01*
X144093549Y-73550237D01*
X144209366Y-73550237D01*
X144248310Y-73545932D01*
X144277342Y-73534401D01*
X144298759Y-73516959D01*
X144314912Y-73492086D01*
X144325061Y-73459376D01*
X144328755Y-73416331D01*
X144325109Y-73374215D01*
X144315066Y-73342062D01*
X144299033Y-73317473D01*
X144277769Y-73300238D01*
X144248679Y-73288791D01*
X144209366Y-73284501D01*
X144093549Y-73284501D01*
X144093549Y-73550237D01*
X143896308Y-73550237D01*
X143896308Y-73104738D01*
X144093549Y-73104738D01*
X144202680Y-73104738D01*
X144233155Y-73101260D01*
X144256156Y-73091880D01*
X144273388Y-73077566D01*
X144286408Y-73057339D01*
X144294537Y-73031191D01*
X144297476Y-72997271D01*
X144294555Y-72963797D01*
X144286441Y-72937737D01*
X144273388Y-72917342D01*
X144256134Y-72902821D01*
X144233131Y-72893323D01*
X144202680Y-72889804D01*
X144093549Y-72889804D01*
X144093549Y-73104738D01*
X143896308Y-73104738D01*
X143896308Y-72710041D01*
X144192467Y-72710041D01*
X144275390Y-72715157D01*
G37*
G36*
X145120320Y-72696804D02*
G01*
X145185150Y-72714743D01*
X145241773Y-72743307D01*
X145291373Y-72782102D01*
X145334837Y-72831369D01*
X145371311Y-72889774D01*
X145400090Y-72956488D01*
X145421312Y-73032719D01*
X145434653Y-73120053D01*
X145439342Y-73220387D01*
X145434659Y-73320384D01*
X145421330Y-73407500D01*
X145400115Y-73483612D01*
X145371333Y-73550291D01*
X145334837Y-73608733D01*
X145291375Y-73657976D01*
X145241777Y-73696754D01*
X145185153Y-73725307D01*
X145120323Y-73743240D01*
X145045867Y-73749539D01*
X144971671Y-73743251D01*
X144906980Y-73725340D01*
X144850395Y-73696801D01*
X144800751Y-73658015D01*
X144757172Y-73608733D01*
X144720569Y-73550272D01*
X144691711Y-73483581D01*
X144670445Y-73407469D01*
X144657085Y-73320363D01*
X144652392Y-73220387D01*
X144856319Y-73220387D01*
X144859936Y-73301663D01*
X144869975Y-73368772D01*
X144885503Y-73424032D01*
X144906007Y-73469392D01*
X144933306Y-73508097D01*
X144965045Y-73535395D01*
X145002102Y-73552171D01*
X145045867Y-73558053D01*
X145089927Y-73552157D01*
X145127161Y-73535359D01*
X145158980Y-73508056D01*
X145186276Y-73469392D01*
X145206781Y-73424032D01*
X145222309Y-73368772D01*
X145232348Y-73301663D01*
X145235964Y-73220387D01*
X145232341Y-73138699D01*
X145222291Y-73071366D01*
X145206761Y-73016031D01*
X145186276Y-72970710D01*
X145158977Y-72932016D01*
X145127157Y-72904695D01*
X145089924Y-72887887D01*
X145045867Y-72881988D01*
X145002105Y-72887873D01*
X144965049Y-72904659D01*
X144933309Y-72931976D01*
X144906007Y-72970710D01*
X144885522Y-73016031D01*
X144869993Y-73071366D01*
X144859943Y-73138699D01*
X144856319Y-73220387D01*
X144652392Y-73220387D01*
X144657091Y-73120074D01*
X144670463Y-73032750D01*
X144691737Y-72956519D01*
X144720592Y-72889794D01*
X144757172Y-72831369D01*
X144800753Y-72782063D01*
X144850398Y-72743260D01*
X144906984Y-72714710D01*
X144971674Y-72696792D01*
X145045867Y-72690502D01*
X145120320Y-72696804D01*
G37*
G36*
X146012784Y-72696804D02*
G01*
X146077613Y-72714743D01*
X146134237Y-72743307D01*
X146183836Y-72782102D01*
X146227300Y-72831369D01*
X146263774Y-72889774D01*
X146292553Y-72956488D01*
X146313775Y-73032719D01*
X146327117Y-73120053D01*
X146331806Y-73220387D01*
X146327123Y-73320384D01*
X146313793Y-73407500D01*
X146292579Y-73483612D01*
X146263796Y-73550291D01*
X146227300Y-73608733D01*
X146183838Y-73657976D01*
X146134240Y-73696754D01*
X146077617Y-73725307D01*
X146012786Y-73743240D01*
X145938330Y-73749539D01*
X145864135Y-73743251D01*
X145799443Y-73725340D01*
X145742858Y-73696801D01*
X145693214Y-73658015D01*
X145649635Y-73608733D01*
X145613033Y-73550272D01*
X145584174Y-73483581D01*
X145562909Y-73407469D01*
X145549548Y-73320363D01*
X145544855Y-73220387D01*
X145748783Y-73220387D01*
X145752399Y-73301663D01*
X145762438Y-73368772D01*
X145777966Y-73424032D01*
X145798471Y-73469392D01*
X145825769Y-73508097D01*
X145857508Y-73535395D01*
X145894566Y-73552171D01*
X145938330Y-73558053D01*
X145982390Y-73552157D01*
X146019624Y-73535359D01*
X146051443Y-73508056D01*
X146078739Y-73469392D01*
X146099244Y-73424032D01*
X146114772Y-73368772D01*
X146124811Y-73301663D01*
X146128428Y-73220387D01*
X146124804Y-73138699D01*
X146114754Y-73071366D01*
X146099225Y-73016031D01*
X146078739Y-72970710D01*
X146051440Y-72932016D01*
X146019620Y-72904695D01*
X145982387Y-72887887D01*
X145938330Y-72881988D01*
X145894569Y-72887873D01*
X145857513Y-72904659D01*
X145825772Y-72931976D01*
X145798471Y-72970710D01*
X145777986Y-73016031D01*
X145762456Y-73071366D01*
X145752406Y-73138699D01*
X145748783Y-73220387D01*
X145544855Y-73220387D01*
X145549554Y-73120074D01*
X145562926Y-73032750D01*
X145584200Y-72956519D01*
X145613055Y-72889794D01*
X145649635Y-72831369D01*
X145693216Y-72782063D01*
X145742862Y-72743260D01*
X145799447Y-72714710D01*
X145864137Y-72696792D01*
X145938330Y-72690502D01*
X146012784Y-72696804D01*
G37*
G36*
X146390195Y-72710041D02*
G01*
X147095171Y-72710041D01*
X147095171Y-72909344D01*
X146841556Y-72909344D01*
X146841556Y-73730000D01*
X146644314Y-73730000D01*
X146644314Y-72909344D01*
X146390195Y-72909344D01*
X146390195Y-72710041D01*
G37*
X143875000Y-72500000D02*
X147025942Y-72500000D01*
G36*
X134803429Y-92416117D02*
G01*
X134845521Y-92491378D01*
X134875542Y-92569303D01*
X134893485Y-92649626D01*
X134899539Y-92733251D01*
X134893187Y-92810402D01*
X134875064Y-92878005D01*
X134846157Y-92937427D01*
X134806874Y-92989816D01*
X134757023Y-93036051D01*
X134697339Y-93075487D01*
X134630095Y-93106291D01*
X134554220Y-93128798D01*
X134468248Y-93142839D01*
X134370387Y-93147747D01*
X134271396Y-93142735D01*
X134184769Y-93128418D01*
X134108622Y-93105500D01*
X134041417Y-93074157D01*
X133982041Y-93034036D01*
X133932814Y-92987150D01*
X133893829Y-92933642D01*
X133865012Y-92872553D01*
X133846876Y-92802653D01*
X133840502Y-92722489D01*
X133845389Y-92647155D01*
X133859736Y-92576219D01*
X133883755Y-92507900D01*
X133916706Y-92444282D01*
X134129685Y-92444282D01*
X134086189Y-92509033D01*
X134056229Y-92571593D01*
X134037996Y-92635215D01*
X134031988Y-92698401D01*
X134038140Y-92757033D01*
X134055382Y-92805710D01*
X134082597Y-92846250D01*
X134119672Y-92880026D01*
X134165709Y-92906803D01*
X134221426Y-92926636D01*
X134288804Y-92939287D01*
X134370387Y-92943819D01*
X134451364Y-92939448D01*
X134518425Y-92927242D01*
X134574015Y-92908121D01*
X134620064Y-92882362D01*
X134657443Y-92849627D01*
X134684722Y-92810530D01*
X134701929Y-92763785D01*
X134708053Y-92707652D01*
X134702984Y-92650545D01*
X134696233Y-92625000D01*
X134686926Y-92603146D01*
X134489211Y-92603146D01*
X134489211Y-92723543D01*
X134313356Y-92723543D01*
X134313356Y-92416117D01*
X134803429Y-92416117D01*
G37*
G36*
X133860041Y-92242003D02*
G01*
X133860041Y-92021680D01*
X134559614Y-91743473D01*
X133860041Y-91743473D01*
X133860041Y-91556489D01*
X134880000Y-91556489D01*
X134880000Y-91776766D01*
X134180427Y-92054974D01*
X134880000Y-92054974D01*
X134880000Y-92242003D01*
X133860041Y-92242003D01*
G37*
G36*
X134445358Y-90646686D02*
G01*
X134513693Y-90655548D01*
X134575001Y-90669750D01*
X134632799Y-90690171D01*
X134685800Y-90716691D01*
X134734492Y-90749664D01*
X134781974Y-90793144D01*
X134819362Y-90842092D01*
X134846905Y-90897263D01*
X134863600Y-90955761D01*
X134875443Y-91039558D01*
X134880000Y-91155458D01*
X134880000Y-91363461D01*
X133860041Y-91363461D01*
X133860041Y-91155458D01*
X133862387Y-91095512D01*
X134059344Y-91095512D01*
X134059344Y-91166220D01*
X134680697Y-91166220D01*
X134680697Y-91095512D01*
X134674958Y-91034775D01*
X134659011Y-90984983D01*
X134634171Y-90944180D01*
X134600891Y-90910818D01*
X134558485Y-90883904D01*
X134507050Y-90864110D01*
X134444714Y-90851530D01*
X134368982Y-90847025D01*
X134293581Y-90851517D01*
X134231597Y-90864057D01*
X134180522Y-90883779D01*
X134138478Y-90910589D01*
X134105543Y-90943782D01*
X134080906Y-90984541D01*
X134065056Y-91034451D01*
X134059344Y-91095512D01*
X133862387Y-91095512D01*
X133864633Y-91038114D01*
X133876520Y-90954008D01*
X133893197Y-90895935D01*
X133920686Y-90841293D01*
X133958046Y-90792785D01*
X134005549Y-90749664D01*
X134054230Y-90716677D01*
X134107133Y-90690160D01*
X134164734Y-90669750D01*
X134225797Y-90655530D01*
X134293557Y-90646677D01*
X134368982Y-90643601D01*
X134445358Y-90646686D01*
G37*
G36*
X130630000Y-92623113D02*
G01*
X130375987Y-92716353D01*
X130326061Y-92737217D01*
X130292410Y-92756180D01*
X130271207Y-92773460D01*
X130256200Y-92793782D01*
X130246592Y-92819075D01*
X130243119Y-92850580D01*
X130243119Y-92906450D01*
X130630000Y-92906450D01*
X130630000Y-93103691D01*
X129610041Y-93103691D01*
X129610041Y-92823423D01*
X129801528Y-92823423D01*
X129801528Y-92906450D01*
X130059448Y-92906450D01*
X130059448Y-92823423D01*
X130055333Y-92782508D01*
X130044663Y-92753963D01*
X130029162Y-92734579D01*
X130006376Y-92720375D01*
X129974224Y-92711122D01*
X129929450Y-92707652D01*
X129885194Y-92711123D01*
X129853536Y-92720373D01*
X129831203Y-92734579D01*
X129816037Y-92753923D01*
X129805570Y-92782464D01*
X129801528Y-92823423D01*
X129610041Y-92823423D01*
X129610041Y-92802403D01*
X129615302Y-92724266D01*
X129629490Y-92663335D01*
X129650641Y-92616435D01*
X129677452Y-92580844D01*
X129714675Y-92550872D01*
X129761123Y-92529136D01*
X129818772Y-92515366D01*
X129890554Y-92510410D01*
X129956131Y-92514822D01*
X130010538Y-92527237D01*
X130055968Y-92547047D01*
X130093965Y-92574359D01*
X130125811Y-92610541D01*
X130151284Y-92657414D01*
X130162821Y-92631698D01*
X130181282Y-92607647D01*
X130207337Y-92584920D01*
X130258070Y-92554781D01*
X130339656Y-92520119D01*
X130630000Y-92413049D01*
X130630000Y-92623113D01*
G37*
G36*
X129610041Y-92433565D02*
G01*
X129610041Y-91728589D01*
X129809344Y-91728589D01*
X129809344Y-91982205D01*
X130630000Y-91982205D01*
X130630000Y-92179446D01*
X129809344Y-92179446D01*
X129809344Y-92433565D01*
X129610041Y-92433565D01*
G37*
G36*
X129641304Y-91094183D02*
G01*
X129856238Y-91094183D01*
X129823564Y-91157292D01*
X129800734Y-91217144D01*
X129786504Y-91276459D01*
X129781988Y-91330351D01*
X129785507Y-91377572D01*
X129794652Y-91411372D01*
X129807756Y-91434902D01*
X129828126Y-91453720D01*
X129854143Y-91464801D01*
X129887684Y-91468699D01*
X129913273Y-91466061D01*
X129934004Y-91458523D01*
X129951065Y-91445893D01*
X129970184Y-91417875D01*
X129990022Y-91363141D01*
X130012554Y-91279152D01*
X130034422Y-91213746D01*
X130059578Y-91163464D01*
X130087155Y-91125591D01*
X130116662Y-91097801D01*
X130153631Y-91075050D01*
X130197982Y-91058348D01*
X130251209Y-91047767D01*
X130315293Y-91043992D01*
X130399271Y-91049315D01*
X130467266Y-91064110D01*
X130522435Y-91087349D01*
X130567046Y-91119050D01*
X130600522Y-91157607D01*
X130626312Y-91206946D01*
X130643309Y-91269529D01*
X130649539Y-91348303D01*
X130644926Y-91420983D01*
X130630976Y-91494345D01*
X130608161Y-91567158D01*
X130576083Y-91640845D01*
X130352540Y-91640845D01*
X130399254Y-91567391D01*
X130431491Y-91499199D01*
X130451600Y-91431068D01*
X130458053Y-91367262D01*
X130454288Y-91324503D01*
X130444241Y-91292304D01*
X130429293Y-91268390D01*
X130407043Y-91249127D01*
X130380136Y-91237919D01*
X130346983Y-91234043D01*
X130316389Y-91236829D01*
X130292204Y-91244639D01*
X130272916Y-91257353D01*
X130250848Y-91287196D01*
X130226266Y-91350364D01*
X130203735Y-91426705D01*
X130182949Y-91484803D01*
X130158208Y-91530873D01*
X130130229Y-91566885D01*
X130099382Y-91594500D01*
X130061581Y-91617145D01*
X130017658Y-91633582D01*
X129966426Y-91643861D01*
X129906308Y-91647485D01*
X129831538Y-91642436D01*
X129769107Y-91628186D01*
X129716611Y-91605383D01*
X129672384Y-91573709D01*
X129638535Y-91535631D01*
X129612985Y-91488852D01*
X129596466Y-91431579D01*
X129590502Y-91361629D01*
X129593626Y-91298244D01*
X129603203Y-91232028D01*
X129618857Y-91165053D01*
X129641304Y-91094183D01*
G37*
G36*
X129223335Y-92497084D02*
G01*
X129256477Y-92552617D01*
X129280305Y-92610336D01*
X129294667Y-92670108D01*
X129299539Y-92733251D01*
X129293187Y-92810402D01*
X129275064Y-92878005D01*
X129246157Y-92937427D01*
X129206874Y-92989816D01*
X129157023Y-93036051D01*
X129097339Y-93075487D01*
X129030095Y-93106291D01*
X128954220Y-93128798D01*
X128868248Y-93142839D01*
X128770387Y-93147747D01*
X128672192Y-93142832D01*
X128586001Y-93128779D01*
X128510007Y-93106263D01*
X128442727Y-93075464D01*
X128383079Y-93036051D01*
X128333205Y-92989813D01*
X128293904Y-92937423D01*
X128264986Y-92878001D01*
X128246856Y-92810399D01*
X128240502Y-92733251D01*
X128245374Y-92670108D01*
X128259736Y-92610336D01*
X128283564Y-92552617D01*
X128316706Y-92497084D01*
X128529685Y-92497084D01*
X128485073Y-92552696D01*
X128455558Y-92605207D01*
X128437950Y-92659548D01*
X128431988Y-92717360D01*
X128438089Y-92769249D01*
X128455414Y-92813296D01*
X128483275Y-92850986D01*
X128522053Y-92883369D01*
X128569013Y-92908817D01*
X128624829Y-92927627D01*
X128691228Y-92939567D01*
X128770387Y-92943819D01*
X128849143Y-92939574D01*
X128915305Y-92927646D01*
X128971021Y-92908838D01*
X129017988Y-92883369D01*
X129056765Y-92850986D01*
X129084627Y-92813296D01*
X129101952Y-92769249D01*
X129108053Y-92717360D01*
X129102091Y-92659548D01*
X129084483Y-92605207D01*
X129054967Y-92552696D01*
X129010355Y-92497084D01*
X129223335Y-92497084D01*
G37*
G36*
X128260041Y-92424773D02*
G01*
X128260041Y-91719796D01*
X128459344Y-91719796D01*
X128459344Y-91973412D01*
X129280000Y-91973412D01*
X129280000Y-92170653D01*
X128459344Y-92170653D01*
X128459344Y-92424773D01*
X128260041Y-92424773D01*
G37*
G36*
X128291304Y-91085391D02*
G01*
X128506238Y-91085391D01*
X128473564Y-91148500D01*
X128450734Y-91208352D01*
X128436504Y-91267666D01*
X128431988Y-91321558D01*
X128435507Y-91368779D01*
X128444652Y-91402579D01*
X128457756Y-91426109D01*
X128478126Y-91444927D01*
X128504143Y-91456008D01*
X128537684Y-91459907D01*
X128563273Y-91457268D01*
X128584004Y-91449730D01*
X128601065Y-91437100D01*
X128620184Y-91409082D01*
X128640022Y-91354348D01*
X128662554Y-91270359D01*
X128684422Y-91204953D01*
X128709578Y-91154671D01*
X128737155Y-91116798D01*
X128766662Y-91089009D01*
X128803631Y-91066257D01*
X128847982Y-91049555D01*
X128901209Y-91038974D01*
X128965293Y-91035199D01*
X129049271Y-91040523D01*
X129117266Y-91055318D01*
X129172435Y-91078556D01*
X129217046Y-91110258D01*
X129250522Y-91148814D01*
X129276312Y-91198154D01*
X129293309Y-91260736D01*
X129299539Y-91339510D01*
X129294926Y-91412190D01*
X129280976Y-91485552D01*
X129258161Y-91558366D01*
X129226083Y-91632052D01*
X129002540Y-91632052D01*
X129049254Y-91558599D01*
X129081491Y-91490406D01*
X129101600Y-91422276D01*
X129108053Y-91358469D01*
X129104288Y-91315711D01*
X129094241Y-91283511D01*
X129079293Y-91259597D01*
X129057043Y-91240334D01*
X129030136Y-91229126D01*
X128996983Y-91225250D01*
X128966389Y-91228037D01*
X128942204Y-91235846D01*
X128922916Y-91248560D01*
X128900848Y-91278403D01*
X128876266Y-91341571D01*
X128853735Y-91417912D01*
X128832949Y-91476010D01*
X128808208Y-91522081D01*
X128780229Y-91558092D01*
X128749382Y-91585707D01*
X128711581Y-91608353D01*
X128667658Y-91624789D01*
X128616426Y-91635068D01*
X128556308Y-91638692D01*
X128481538Y-91633644D01*
X128419107Y-91619394D01*
X128366611Y-91596590D01*
X128322384Y-91564916D01*
X128288535Y-91526839D01*
X128262985Y-91480060D01*
X128246466Y-91422786D01*
X128240502Y-91352837D01*
X128243626Y-91289451D01*
X128253203Y-91223235D01*
X128268857Y-91156260D01*
X128291304Y-91085391D01*
G37*
G36*
X181708775Y-97290026D02*
G01*
X181758038Y-97313271D01*
X181796609Y-97344224D01*
X181826332Y-97382594D01*
X181848224Y-97429141D01*
X181861795Y-97484280D01*
X181866587Y-97550205D01*
X181862848Y-97609909D01*
X181852162Y-97661559D01*
X181834916Y-97706608D01*
X181810931Y-97746123D01*
X181779484Y-97780710D01*
X181735465Y-97812642D01*
X181680094Y-97837349D01*
X181610983Y-97853607D01*
X181525364Y-97859539D01*
X181466519Y-97856378D01*
X181407257Y-97846838D01*
X181348527Y-97831000D01*
X181290204Y-97808736D01*
X181290204Y-97605526D01*
X181345961Y-97638100D01*
X181400068Y-97661031D01*
X181454629Y-97675165D01*
X181507412Y-97679776D01*
X181559252Y-97675055D01*
X181598377Y-97662427D01*
X181627534Y-97643567D01*
X181650856Y-97615741D01*
X181664540Y-97581822D01*
X181669299Y-97539764D01*
X181664394Y-97496455D01*
X181650361Y-97462023D01*
X181626526Y-97434251D01*
X181596673Y-97415733D01*
X181555653Y-97403158D01*
X181500268Y-97398408D01*
X181421362Y-97398408D01*
X181421362Y-97230369D01*
X181504344Y-97230369D01*
X181553686Y-97226172D01*
X181589520Y-97215158D01*
X181614986Y-97199106D01*
X181635071Y-97174879D01*
X181647118Y-97143891D01*
X181651393Y-97103913D01*
X181647347Y-97067023D01*
X181635730Y-97037159D01*
X181616039Y-97012566D01*
X181591258Y-96995614D01*
X181558665Y-96984414D01*
X181516159Y-96980265D01*
X181468503Y-96983933D01*
X181419805Y-96995102D01*
X181371622Y-97013314D01*
X181322994Y-97038883D01*
X181322994Y-96847397D01*
X181381478Y-96826775D01*
X181438765Y-96812226D01*
X181495961Y-96803399D01*
X181551468Y-96800502D01*
X181628371Y-96805528D01*
X181689414Y-96819186D01*
X181737354Y-96839711D01*
X181774583Y-96865898D01*
X181806839Y-96902512D01*
X181829597Y-96946413D01*
X181843661Y-96999020D01*
X181848635Y-97062697D01*
X181844411Y-97120825D01*
X181832478Y-97169126D01*
X181813281Y-97209609D01*
X181787157Y-97242752D01*
X181752907Y-97269671D01*
X181708775Y-97290026D01*
G37*
G36*
X181955659Y-96820041D02*
G01*
X182153908Y-96820041D01*
X182356828Y-97572859D01*
X182559198Y-96820041D01*
X182757447Y-96820041D01*
X182474156Y-97840000D01*
X182238996Y-97840000D01*
X181955659Y-96820041D01*
G37*
G36*
X183251902Y-97290026D02*
G01*
X183301164Y-97313271D01*
X183339735Y-97344224D01*
X183369459Y-97382594D01*
X183391350Y-97429141D01*
X183404922Y-97484280D01*
X183409713Y-97550205D01*
X183405974Y-97609909D01*
X183395288Y-97661559D01*
X183378042Y-97706608D01*
X183354058Y-97746123D01*
X183322610Y-97780710D01*
X183278592Y-97812642D01*
X183223221Y-97837349D01*
X183154109Y-97853607D01*
X183068490Y-97859539D01*
X183009645Y-97856378D01*
X182950384Y-97846838D01*
X182891653Y-97831000D01*
X182833330Y-97808736D01*
X182833330Y-97605526D01*
X182889087Y-97638100D01*
X182943194Y-97661031D01*
X182997755Y-97675165D01*
X183050539Y-97679776D01*
X183102378Y-97675055D01*
X183141503Y-97662427D01*
X183170660Y-97643567D01*
X183193982Y-97615741D01*
X183207667Y-97581822D01*
X183212426Y-97539764D01*
X183207520Y-97496455D01*
X183193487Y-97462023D01*
X183169653Y-97434251D01*
X183139799Y-97415733D01*
X183098779Y-97403158D01*
X183043394Y-97398408D01*
X182964489Y-97398408D01*
X182964489Y-97230369D01*
X183047470Y-97230369D01*
X183096812Y-97226172D01*
X183132647Y-97215158D01*
X183158112Y-97199106D01*
X183178197Y-97174879D01*
X183190245Y-97143891D01*
X183194520Y-97103913D01*
X183190474Y-97067023D01*
X183178857Y-97037159D01*
X183159166Y-97012566D01*
X183134385Y-96995614D01*
X183101791Y-96984414D01*
X183059286Y-96980265D01*
X183011630Y-96983933D01*
X182962932Y-96995102D01*
X182914748Y-97013314D01*
X182866120Y-97038883D01*
X182866120Y-96847397D01*
X182924604Y-96826775D01*
X182981891Y-96812226D01*
X183039087Y-96803399D01*
X183094594Y-96800502D01*
X183171497Y-96805528D01*
X183232540Y-96819186D01*
X183280480Y-96839711D01*
X183317710Y-96865898D01*
X183349965Y-96902512D01*
X183372723Y-96946413D01*
X183386787Y-96999020D01*
X183391761Y-97062697D01*
X183387537Y-97120825D01*
X183375604Y-97169126D01*
X183356407Y-97209609D01*
X183330284Y-97242752D01*
X183296033Y-97269671D01*
X183251902Y-97290026D01*
G37*
G36*
X176348635Y-96851304D02*
G01*
X176348635Y-97066238D01*
X176285526Y-97033564D01*
X176225674Y-97010734D01*
X176166359Y-96996504D01*
X176112467Y-96991988D01*
X176065246Y-96995507D01*
X176031446Y-97004652D01*
X176007916Y-97017756D01*
X175989099Y-97038126D01*
X175978017Y-97064143D01*
X175974119Y-97097684D01*
X175976758Y-97123273D01*
X175984295Y-97144004D01*
X175996925Y-97161065D01*
X176024944Y-97180184D01*
X176079678Y-97200022D01*
X176163667Y-97222554D01*
X176229073Y-97244422D01*
X176279355Y-97269578D01*
X176317228Y-97297155D01*
X176345017Y-97326662D01*
X176367768Y-97363631D01*
X176384471Y-97407982D01*
X176395052Y-97461209D01*
X176398827Y-97525293D01*
X176393503Y-97609271D01*
X176378708Y-97677266D01*
X176355470Y-97732435D01*
X176323768Y-97777046D01*
X176285212Y-97810522D01*
X176235872Y-97836312D01*
X176173290Y-97853309D01*
X176094515Y-97859539D01*
X176021835Y-97854926D01*
X175948473Y-97840976D01*
X175875660Y-97818161D01*
X175801974Y-97786083D01*
X175801974Y-97562540D01*
X175875427Y-97609254D01*
X175943619Y-97641491D01*
X176011750Y-97661600D01*
X176075556Y-97668053D01*
X176118315Y-97664288D01*
X176150514Y-97654241D01*
X176174429Y-97639293D01*
X176193692Y-97617043D01*
X176204899Y-97590136D01*
X176208775Y-97556983D01*
X176205989Y-97526389D01*
X176198179Y-97502204D01*
X176185465Y-97482916D01*
X176155622Y-97460848D01*
X176092455Y-97436266D01*
X176016113Y-97413735D01*
X175958016Y-97392949D01*
X175911945Y-97368208D01*
X175875933Y-97340229D01*
X175848319Y-97309382D01*
X175825673Y-97271581D01*
X175809236Y-97227658D01*
X175798957Y-97176426D01*
X175795333Y-97116308D01*
X175800382Y-97041538D01*
X175814632Y-96979107D01*
X175837435Y-96926611D01*
X175869110Y-96882384D01*
X175907187Y-96848535D01*
X175953966Y-96822985D01*
X176011239Y-96806466D01*
X176081189Y-96800502D01*
X176144574Y-96803626D01*
X176210790Y-96813203D01*
X176277765Y-96828857D01*
X176348635Y-96851304D01*
G37*
G36*
X176481304Y-96820041D02*
G01*
X177186281Y-96820041D01*
X177186281Y-97019344D01*
X176932665Y-97019344D01*
X176932665Y-97840000D01*
X176735424Y-97840000D01*
X176735424Y-97019344D01*
X176481304Y-97019344D01*
X176481304Y-96820041D01*
G37*
G36*
X177917636Y-97840000D02*
G01*
X177719387Y-97840000D01*
X177671210Y-97652421D01*
X177362777Y-97652421D01*
X177314096Y-97840000D01*
X177115847Y-97840000D01*
X177220063Y-97464842D01*
X177411961Y-97464842D01*
X177621522Y-97464842D01*
X177517016Y-97059094D01*
X177411961Y-97464842D01*
X177220063Y-97464842D01*
X177399184Y-96820041D01*
X177634344Y-96820041D01*
X177917636Y-97840000D01*
G37*
G36*
X177846378Y-96820041D02*
G01*
X178551354Y-96820041D01*
X178551354Y-97019344D01*
X178297739Y-97019344D01*
X178297739Y-97840000D01*
X178100497Y-97840000D01*
X178100497Y-97019344D01*
X177846378Y-97019344D01*
X177846378Y-96820041D01*
G37*
G36*
X178653432Y-96820041D02*
G01*
X178850674Y-96820041D01*
X178850674Y-97432602D01*
X178854952Y-97516718D01*
X178865952Y-97574805D01*
X178881677Y-97613647D01*
X178905295Y-97642696D01*
X178937977Y-97661202D01*
X178982840Y-97668053D01*
X179018083Y-97664097D01*
X179045816Y-97653242D01*
X179067600Y-97636406D01*
X179084552Y-97613647D01*
X179100277Y-97574805D01*
X179111277Y-97516718D01*
X179115555Y-97432602D01*
X179115555Y-96820041D01*
X179312842Y-96820041D01*
X179312842Y-97432602D01*
X179308986Y-97521305D01*
X179298203Y-97595782D01*
X179281403Y-97658222D01*
X179259098Y-97710485D01*
X179231372Y-97754026D01*
X179198050Y-97789676D01*
X179157852Y-97818547D01*
X179109608Y-97840408D01*
X179051853Y-97854491D01*
X178982885Y-97859539D01*
X178914154Y-97854497D01*
X178856553Y-97840427D01*
X178808397Y-97818574D01*
X178768233Y-97789698D01*
X178734903Y-97754026D01*
X178707177Y-97710485D01*
X178684872Y-97658222D01*
X178668071Y-97595782D01*
X178657289Y-97521305D01*
X178653432Y-97432602D01*
X178653432Y-96820041D01*
G37*
G36*
X180037923Y-96851304D02*
G01*
X180037923Y-97066238D01*
X179974814Y-97033564D01*
X179914962Y-97010734D01*
X179855648Y-96996504D01*
X179801755Y-96991988D01*
X179754535Y-96995507D01*
X179720735Y-97004652D01*
X179697204Y-97017756D01*
X179678387Y-97038126D01*
X179667305Y-97064143D01*
X179663407Y-97097684D01*
X179666046Y-97123273D01*
X179673584Y-97144004D01*
X179686213Y-97161065D01*
X179714232Y-97180184D01*
X179768966Y-97200022D01*
X179852955Y-97222554D01*
X179918361Y-97244422D01*
X179968643Y-97269578D01*
X180006516Y-97297155D01*
X180034305Y-97326662D01*
X180057057Y-97363631D01*
X180073759Y-97407982D01*
X180084340Y-97461209D01*
X180088115Y-97525293D01*
X180082791Y-97609271D01*
X180067996Y-97677266D01*
X180044758Y-97732435D01*
X180013056Y-97777046D01*
X179974500Y-97810522D01*
X179925160Y-97836312D01*
X179862578Y-97853309D01*
X179783804Y-97859539D01*
X179711124Y-97854926D01*
X179637762Y-97840976D01*
X179564948Y-97818161D01*
X179491262Y-97786083D01*
X179491262Y-97562540D01*
X179564715Y-97609254D01*
X179632907Y-97641491D01*
X179701038Y-97661600D01*
X179764844Y-97668053D01*
X179807603Y-97664288D01*
X179839802Y-97654241D01*
X179863717Y-97639293D01*
X179882980Y-97617043D01*
X179894188Y-97590136D01*
X179898063Y-97556983D01*
X179895277Y-97526389D01*
X179887467Y-97502204D01*
X179874754Y-97482916D01*
X179844910Y-97460848D01*
X179781743Y-97436266D01*
X179705402Y-97413735D01*
X179647304Y-97392949D01*
X179601233Y-97368208D01*
X179565222Y-97340229D01*
X179537607Y-97309382D01*
X179514961Y-97271581D01*
X179498524Y-97227658D01*
X179488246Y-97176426D01*
X179484621Y-97116308D01*
X179489670Y-97041538D01*
X179503920Y-96979107D01*
X179526723Y-96926611D01*
X179558398Y-96882384D01*
X179596475Y-96848535D01*
X179643254Y-96822985D01*
X179700528Y-96806466D01*
X179770477Y-96800502D01*
X179833863Y-96803626D01*
X179900078Y-96813203D01*
X179967053Y-96828857D01*
X180037923Y-96851304D01*
G37*
G36*
X147848635Y-97951304D02*
G01*
X147848635Y-98166238D01*
X147785526Y-98133564D01*
X147725674Y-98110734D01*
X147666359Y-98096504D01*
X147612467Y-98091988D01*
X147565246Y-98095507D01*
X147531446Y-98104652D01*
X147507916Y-98117756D01*
X147489099Y-98138126D01*
X147478017Y-98164143D01*
X147474119Y-98197684D01*
X147476758Y-98223273D01*
X147484295Y-98244004D01*
X147496925Y-98261065D01*
X147524944Y-98280184D01*
X147579678Y-98300022D01*
X147663667Y-98322554D01*
X147729073Y-98344422D01*
X147779355Y-98369578D01*
X147817228Y-98397155D01*
X147845017Y-98426662D01*
X147867768Y-98463631D01*
X147884471Y-98507982D01*
X147895052Y-98561209D01*
X147898827Y-98625293D01*
X147893503Y-98709271D01*
X147878708Y-98777266D01*
X147855470Y-98832435D01*
X147823768Y-98877046D01*
X147785212Y-98910522D01*
X147735872Y-98936312D01*
X147673290Y-98953309D01*
X147594515Y-98959539D01*
X147521835Y-98954926D01*
X147448473Y-98940976D01*
X147375660Y-98918161D01*
X147301974Y-98886083D01*
X147301974Y-98662540D01*
X147375427Y-98709254D01*
X147443619Y-98741491D01*
X147511750Y-98761600D01*
X147575556Y-98768053D01*
X147618315Y-98764288D01*
X147650514Y-98754241D01*
X147674429Y-98739293D01*
X147693692Y-98717043D01*
X147704899Y-98690136D01*
X147708775Y-98656983D01*
X147705989Y-98626389D01*
X147698179Y-98602204D01*
X147685465Y-98582916D01*
X147655622Y-98560848D01*
X147592455Y-98536266D01*
X147516113Y-98513735D01*
X147458016Y-98492949D01*
X147411945Y-98468208D01*
X147375933Y-98440229D01*
X147348319Y-98409382D01*
X147325673Y-98371581D01*
X147309236Y-98327658D01*
X147298957Y-98276426D01*
X147295333Y-98216308D01*
X147300382Y-98141538D01*
X147314632Y-98079107D01*
X147337435Y-98026611D01*
X147369110Y-97982384D01*
X147407187Y-97948535D01*
X147453966Y-97922985D01*
X147511239Y-97906466D01*
X147581189Y-97900502D01*
X147644574Y-97903626D01*
X147710790Y-97913203D01*
X147777765Y-97928857D01*
X147848635Y-97951304D01*
G37*
G36*
X148007408Y-97920041D02*
G01*
X148196498Y-97920041D01*
X148328664Y-98661257D01*
X148459822Y-97920041D01*
X148649919Y-97920041D01*
X148781078Y-98661257D01*
X148913244Y-97920041D01*
X149100776Y-97920041D01*
X148920433Y-98940000D01*
X148692921Y-98940000D01*
X148554115Y-98164590D01*
X148416774Y-98940000D01*
X148189308Y-98940000D01*
X148007408Y-97920041D01*
G37*
G36*
X149555542Y-97924633D02*
G01*
X149639647Y-97936520D01*
X149697721Y-97953197D01*
X149752362Y-97980686D01*
X149800871Y-98018046D01*
X149843992Y-98065549D01*
X149876978Y-98114230D01*
X149903496Y-98167133D01*
X149923905Y-98224734D01*
X149938126Y-98285797D01*
X149946979Y-98353557D01*
X149950054Y-98428982D01*
X149946970Y-98505358D01*
X149938107Y-98573693D01*
X149923905Y-98635001D01*
X149903485Y-98692799D01*
X149876965Y-98745800D01*
X149843992Y-98794492D01*
X149800512Y-98841974D01*
X149751564Y-98879362D01*
X149696393Y-98906905D01*
X149637895Y-98923600D01*
X149554098Y-98935443D01*
X149438198Y-98940000D01*
X149230194Y-98940000D01*
X149230194Y-98740697D01*
X149427436Y-98740697D01*
X149498144Y-98740697D01*
X149558880Y-98734958D01*
X149608672Y-98719011D01*
X149649475Y-98694171D01*
X149682838Y-98660891D01*
X149709751Y-98618485D01*
X149729546Y-98567050D01*
X149742126Y-98504714D01*
X149746631Y-98428982D01*
X149742138Y-98353581D01*
X149729598Y-98291597D01*
X149709876Y-98240522D01*
X149683066Y-98198478D01*
X149649873Y-98165543D01*
X149609115Y-98140906D01*
X149559204Y-98125056D01*
X149498144Y-98119344D01*
X149427436Y-98119344D01*
X149427436Y-98740697D01*
X149230194Y-98740697D01*
X149230194Y-97920041D01*
X149438198Y-97920041D01*
X149555542Y-97924633D01*
G37*
G36*
X172731191Y-96820041D02*
G01*
X173221478Y-96820041D01*
X173221478Y-97011528D01*
X172888453Y-97011528D01*
X172888453Y-97169309D01*
X172933790Y-97156669D01*
X172981189Y-97152212D01*
X173051265Y-97158838D01*
X173109632Y-97177379D01*
X173158309Y-97206476D01*
X173198901Y-97245696D01*
X173232283Y-97295684D01*
X173256396Y-97354485D01*
X173271469Y-97423855D01*
X173276799Y-97506242D01*
X173273125Y-97572092D01*
X173262600Y-97629783D01*
X173245652Y-97680649D01*
X173222267Y-97725738D01*
X173191986Y-97765750D01*
X173148160Y-97804900D01*
X173095531Y-97834139D01*
X173032380Y-97852844D01*
X172956597Y-97859539D01*
X172891870Y-97855417D01*
X172827774Y-97843053D01*
X172764506Y-97822483D01*
X172700966Y-97793105D01*
X172700966Y-97585987D01*
X172763413Y-97627929D01*
X172819576Y-97656329D01*
X172875194Y-97674160D01*
X172925364Y-97679776D01*
X172971962Y-97673996D01*
X173008920Y-97658013D01*
X173038296Y-97632882D01*
X173061019Y-97598348D01*
X173074741Y-97556742D01*
X173079558Y-97505875D01*
X173074721Y-97454572D01*
X173060982Y-97412892D01*
X173038296Y-97378564D01*
X173008938Y-97353606D01*
X172971980Y-97337722D01*
X172925364Y-97331974D01*
X172882270Y-97335427D01*
X172834643Y-97346324D01*
X172786019Y-97363979D01*
X172731191Y-97390593D01*
X172731191Y-96820041D01*
G37*
G36*
X173355659Y-96820041D02*
G01*
X173553908Y-96820041D01*
X173756828Y-97572859D01*
X173959198Y-96820041D01*
X174157447Y-96820041D01*
X173874156Y-97840000D01*
X173638996Y-97840000D01*
X173355659Y-96820041D01*
G37*
G36*
X135210041Y-93088808D02*
G01*
X135210041Y-92598521D01*
X135401528Y-92598521D01*
X135401528Y-92931546D01*
X135559309Y-92931546D01*
X135546669Y-92886209D01*
X135542212Y-92838810D01*
X135548838Y-92768734D01*
X135567379Y-92710367D01*
X135596476Y-92661690D01*
X135635696Y-92621098D01*
X135685684Y-92587716D01*
X135744485Y-92563603D01*
X135813855Y-92548530D01*
X135896242Y-92543200D01*
X135962092Y-92546874D01*
X136019783Y-92557399D01*
X136070649Y-92574347D01*
X136115738Y-92597732D01*
X136155750Y-92628013D01*
X136194900Y-92671839D01*
X136224139Y-92724468D01*
X136242844Y-92787619D01*
X136249539Y-92863402D01*
X136245417Y-92928129D01*
X136233053Y-92992225D01*
X136212483Y-93055493D01*
X136183105Y-93119033D01*
X135975987Y-93119033D01*
X136017929Y-93056586D01*
X136046329Y-93000423D01*
X136064160Y-92944805D01*
X136069776Y-92894635D01*
X136063996Y-92848037D01*
X136048013Y-92811079D01*
X136022882Y-92781703D01*
X135988348Y-92758980D01*
X135946742Y-92745258D01*
X135895875Y-92740441D01*
X135844572Y-92745278D01*
X135802892Y-92759017D01*
X135768564Y-92781703D01*
X135743606Y-92811061D01*
X135727722Y-92848019D01*
X135721974Y-92894635D01*
X135725427Y-92937729D01*
X135736324Y-92985356D01*
X135753979Y-93033980D01*
X135780593Y-93088808D01*
X135210041Y-93088808D01*
G37*
G36*
X135210041Y-92464340D02*
G01*
X135210041Y-92266091D01*
X135962859Y-92063171D01*
X135210041Y-91860801D01*
X135210041Y-91662552D01*
X136230000Y-91945843D01*
X136230000Y-92181003D01*
X135210041Y-92464340D01*
G37*
G36*
X155395733Y-97925302D02*
G01*
X155456664Y-97939490D01*
X155503564Y-97960641D01*
X155539155Y-97987452D01*
X155569127Y-98024675D01*
X155590863Y-98071123D01*
X155604633Y-98128772D01*
X155609589Y-98200554D01*
X155605177Y-98266131D01*
X155592762Y-98320538D01*
X155572952Y-98365968D01*
X155545640Y-98403965D01*
X155509458Y-98435811D01*
X155462585Y-98461284D01*
X155488301Y-98472821D01*
X155512352Y-98491282D01*
X155535079Y-98517337D01*
X155565218Y-98568070D01*
X155599880Y-98649656D01*
X155706950Y-98940000D01*
X155496886Y-98940000D01*
X155403646Y-98685987D01*
X155382782Y-98636061D01*
X155363819Y-98602410D01*
X155346539Y-98581207D01*
X155326217Y-98566200D01*
X155300924Y-98556592D01*
X155269419Y-98553119D01*
X155213549Y-98553119D01*
X155213549Y-98940000D01*
X155016308Y-98940000D01*
X155016308Y-98369448D01*
X155213549Y-98369448D01*
X155296576Y-98369448D01*
X155337491Y-98365333D01*
X155366036Y-98354663D01*
X155385420Y-98339162D01*
X155399624Y-98316376D01*
X155408877Y-98284224D01*
X155412347Y-98239450D01*
X155408876Y-98195194D01*
X155399626Y-98163536D01*
X155385420Y-98141203D01*
X155366076Y-98126037D01*
X155337535Y-98115570D01*
X155296576Y-98111528D01*
X155213549Y-98111528D01*
X155213549Y-98369448D01*
X155016308Y-98369448D01*
X155016308Y-97920041D01*
X155317596Y-97920041D01*
X155395733Y-97925302D01*
G37*
G36*
X156356834Y-97951304D02*
G01*
X156356834Y-98166238D01*
X156293725Y-98133564D01*
X156233873Y-98110734D01*
X156174559Y-98096504D01*
X156120667Y-98091988D01*
X156073446Y-98095507D01*
X156039646Y-98104652D01*
X156016116Y-98117756D01*
X155997298Y-98138126D01*
X155986217Y-98164143D01*
X155982318Y-98197684D01*
X155984957Y-98223273D01*
X155992495Y-98244004D01*
X156005125Y-98261065D01*
X156033143Y-98280184D01*
X156087877Y-98300022D01*
X156171866Y-98322554D01*
X156237272Y-98344422D01*
X156287554Y-98369578D01*
X156325427Y-98397155D01*
X156353217Y-98426662D01*
X156375968Y-98463631D01*
X156392670Y-98507982D01*
X156403251Y-98561209D01*
X156407026Y-98625293D01*
X156401702Y-98709271D01*
X156386907Y-98777266D01*
X156363669Y-98832435D01*
X156331967Y-98877046D01*
X156293411Y-98910522D01*
X156244071Y-98936312D01*
X156181489Y-98953309D01*
X156102715Y-98959539D01*
X156030035Y-98954926D01*
X155956673Y-98940976D01*
X155883860Y-98918161D01*
X155810173Y-98886083D01*
X155810173Y-98662540D01*
X155883627Y-98709254D01*
X155951819Y-98741491D01*
X156019949Y-98761600D01*
X156083756Y-98768053D01*
X156126514Y-98764288D01*
X156158714Y-98754241D01*
X156182628Y-98739293D01*
X156201891Y-98717043D01*
X156213099Y-98690136D01*
X156216975Y-98656983D01*
X156214188Y-98626389D01*
X156206379Y-98602204D01*
X156193665Y-98582916D01*
X156163822Y-98560848D01*
X156100654Y-98536266D01*
X156024313Y-98513735D01*
X155966215Y-98492949D01*
X155920144Y-98468208D01*
X155884133Y-98440229D01*
X155856518Y-98409382D01*
X155833873Y-98371581D01*
X155817436Y-98327658D01*
X155807157Y-98276426D01*
X155803533Y-98216308D01*
X155808582Y-98141538D01*
X155822831Y-98079107D01*
X155845635Y-98026611D01*
X155877309Y-97982384D01*
X155915386Y-97948535D01*
X155962166Y-97922985D01*
X156019439Y-97906466D01*
X156089388Y-97900502D01*
X156152774Y-97903626D01*
X156218990Y-97913203D01*
X156285965Y-97928857D01*
X156356834Y-97951304D01*
G37*
G36*
X156489504Y-97920041D02*
G01*
X157194480Y-97920041D01*
X157194480Y-98119344D01*
X156940865Y-98119344D01*
X156940865Y-98940000D01*
X156743623Y-98940000D01*
X156743623Y-98119344D01*
X156489504Y-98119344D01*
X156489504Y-97920041D01*
G37*
X154995000Y-97710000D02*
X157125251Y-97710000D01*
G36*
X132080000Y-92623113D02*
G01*
X131825987Y-92716353D01*
X131776061Y-92737217D01*
X131742410Y-92756180D01*
X131721207Y-92773460D01*
X131706200Y-92793782D01*
X131696592Y-92819075D01*
X131693119Y-92850580D01*
X131693119Y-92906450D01*
X132080000Y-92906450D01*
X132080000Y-93103691D01*
X131060041Y-93103691D01*
X131060041Y-92823423D01*
X131251528Y-92823423D01*
X131251528Y-92906450D01*
X131509448Y-92906450D01*
X131509448Y-92823423D01*
X131505333Y-92782508D01*
X131494663Y-92753963D01*
X131479162Y-92734579D01*
X131456376Y-92720375D01*
X131424224Y-92711122D01*
X131379450Y-92707652D01*
X131335194Y-92711123D01*
X131303536Y-92720373D01*
X131281203Y-92734579D01*
X131266037Y-92753923D01*
X131255570Y-92782464D01*
X131251528Y-92823423D01*
X131060041Y-92823423D01*
X131060041Y-92802403D01*
X131065302Y-92724266D01*
X131079490Y-92663335D01*
X131100641Y-92616435D01*
X131127452Y-92580844D01*
X131164675Y-92550872D01*
X131211123Y-92529136D01*
X131268772Y-92515366D01*
X131340554Y-92510410D01*
X131406131Y-92514822D01*
X131460538Y-92527237D01*
X131505968Y-92547047D01*
X131543965Y-92574359D01*
X131575811Y-92610541D01*
X131601284Y-92657414D01*
X131612821Y-92631698D01*
X131631282Y-92607647D01*
X131657337Y-92584920D01*
X131708070Y-92554781D01*
X131789656Y-92520119D01*
X132080000Y-92413049D01*
X132080000Y-92623113D01*
G37*
G36*
X131559457Y-91869227D02*
G01*
X132080000Y-91603842D01*
X132080000Y-91809281D01*
X131731587Y-91988066D01*
X132080000Y-92165341D01*
X132080000Y-92371833D01*
X131559457Y-92106448D01*
X131060041Y-92361575D01*
X131060041Y-92155587D01*
X131388670Y-91988066D01*
X131060041Y-91821050D01*
X131060041Y-91614054D01*
X131559457Y-91869227D01*
G37*
D13*
%TO.C,U5*%
X157803779Y-88880674D02*
X158183394Y-89260289D01*
X158183394Y-85919633D02*
X157980601Y-86122427D01*
X158183394Y-89260289D02*
X158386187Y-89057495D01*
X158563009Y-86299248D02*
X158183394Y-85919633D01*
D14*
G36*
X159704470Y-88134344D02*
G01*
X159435062Y-88403752D01*
X159255457Y-88224147D01*
X159524865Y-87954739D01*
X159704470Y-88134344D01*
G37*
D13*
%TO.C,U3*%
X136043700Y-78045800D02*
X136043700Y-77843782D01*
X135333990Y-78045800D02*
X136043700Y-78045800D01*
X133502210Y-75404200D02*
X132792500Y-75404200D01*
X132792500Y-78045800D02*
X133502210Y-78045800D01*
X132792500Y-77843782D02*
X132792500Y-78045800D01*
X132792500Y-75404200D02*
X132792500Y-75606218D01*
D10*
X135654944Y-78525000D02*
G75*
G02*
X135481256Y-78525000I-86844J0D01*
G01*
X135481256Y-78525000D02*
G75*
G02*
X135654944Y-78525000I86844J0D01*
G01*
D14*
G36*
X132767100Y-77165500D02*
G01*
X132513100Y-77165500D01*
X132513100Y-76784499D01*
X132767100Y-76784499D01*
X132767100Y-77165500D01*
G37*
D10*
%TO.C,J5*%
X160544856Y-92948499D02*
G75*
G02*
X160344856Y-92948499I-100000J0D01*
G01*
X160344856Y-92948499D02*
G75*
G02*
X160544856Y-92948499I100000J0D01*
G01*
D15*
X168014856Y-95988499D02*
X168014856Y-96288499D01*
X159074856Y-95878499D02*
X159074856Y-96178499D01*
D16*
%TO.C,HM1*%
X132726001Y-81666000D02*
X132726001Y-79066000D01*
X135716001Y-81666000D02*
X135716001Y-79066000D01*
D10*
X132416001Y-78966000D02*
G75*
G02*
X132316001Y-78966000I-50000J0D01*
G01*
X132316001Y-78966000D02*
G75*
G02*
X132416001Y-78966000I50000J0D01*
G01*
D16*
%TO.C,D4*%
X170894855Y-95952548D02*
X170894855Y-93152548D01*
X168994855Y-93152548D02*
X168994855Y-95952548D01*
D10*
X169044855Y-96652548D02*
G75*
G02*
X168844855Y-96652548I-100000J0D01*
G01*
X168844855Y-96652548D02*
G75*
G02*
X169044855Y-96652548I100000J0D01*
G01*
D16*
%TO.C,LS1*%
X162120000Y-66260000D02*
X171120000Y-66260000D01*
X162120000Y-68660000D02*
X162120000Y-66260000D01*
X162120000Y-75260000D02*
X162120000Y-72860000D01*
D17*
X163520000Y-70760000D02*
X164520000Y-70760000D01*
X164020000Y-70260000D02*
X164020000Y-71260000D01*
D10*
X168820000Y-70760000D02*
X169820000Y-70760000D01*
D16*
X171120000Y-66260000D02*
X171120000Y-68660000D01*
X171120000Y-72860000D02*
X171120000Y-75260000D01*
X171120000Y-75260000D02*
X162120000Y-75260000D01*
D18*
%TO.C,J1*%
X145700000Y-98287000D02*
G75*
G02*
X145300000Y-98287000I-200000J0D01*
G01*
X145300000Y-98287000D02*
G75*
G02*
X145700000Y-98287000I200000J0D01*
G01*
D16*
%TO.C,D2*%
X121742500Y-70438626D02*
X118942500Y-70438626D01*
X118942500Y-72338626D02*
X121742500Y-72338626D01*
D10*
X122542500Y-72388626D02*
G75*
G02*
X122342500Y-72388626I-100000J0D01*
G01*
X122342500Y-72388626D02*
G75*
G02*
X122542500Y-72388626I100000J0D01*
G01*
D13*
%TO.C,D3*%
X162066955Y-90273798D02*
X162066955Y-91823198D01*
X164022755Y-91823198D02*
X164022755Y-90273798D01*
X163646455Y-89496898D02*
G75*
G02*
X163443255Y-89496898I-101600J0D01*
G01*
X163443255Y-89496898D02*
G75*
G02*
X163646455Y-89496898I101600J0D01*
G01*
%TO.C,U6*%
X156823506Y-90526821D02*
X156380816Y-90084131D01*
X155595868Y-89299183D02*
X155153178Y-88856493D01*
X155153178Y-88856493D02*
X154887264Y-89122407D01*
X156557592Y-90792735D02*
X156823506Y-90526821D01*
X153748764Y-90260907D02*
X153482850Y-90526821D01*
X155153178Y-92197149D02*
X155419092Y-91931235D01*
X154710488Y-91754459D02*
X155153178Y-92197149D01*
X153482850Y-90526821D02*
X153925540Y-90969511D01*
D14*
G36*
X156447891Y-89797794D02*
G01*
X156253436Y-89992248D01*
X156076659Y-89815472D01*
X156271114Y-89621017D01*
X156447891Y-89797794D01*
G37*
G36*
X156637042Y-91034172D02*
G01*
X156367634Y-91303579D01*
X156188029Y-91123974D01*
X156457436Y-90854566D01*
X156637042Y-91034172D01*
G37*
D10*
%TO.C,IC4*%
X168545000Y-83410000D02*
X167395000Y-83410000D01*
X167045000Y-83260000D02*
X166295000Y-83260000D01*
X167045000Y-80360000D02*
X167045000Y-83260000D01*
X166295000Y-83260000D02*
X166295000Y-80360000D01*
X166295000Y-80360000D02*
X167045000Y-80360000D01*
D13*
%TO.C,U7*%
X152260600Y-69880600D02*
X152260600Y-70201675D01*
X152260600Y-75198325D02*
X152260600Y-75519400D01*
X152260600Y-75519400D02*
X157899400Y-75519400D01*
X157899400Y-69880600D02*
X152260600Y-69880600D01*
X157899400Y-70201675D02*
X157899400Y-69880600D01*
X157899400Y-75519400D02*
X157899400Y-75198325D01*
D10*
X151000000Y-70000000D02*
G75*
G02*
X150760000Y-70000000I-120000J0D01*
G01*
X150760000Y-70000000D02*
G75*
G02*
X151000000Y-70000000I120000J0D01*
G01*
D13*
%TO.C,U12*%
X111473600Y-77865999D02*
X111473600Y-77154799D01*
X108476400Y-77561199D02*
X108476400Y-77865947D01*
X108476400Y-77154799D02*
X108476400Y-77561199D01*
X109175000Y-77154799D02*
X108476400Y-77154799D01*
X111473600Y-77154799D02*
X110775000Y-77154799D01*
X108476404Y-77562264D02*
G75*
G02*
X108781200Y-77865999I1111J-303683D01*
G01*
%TO.C,R37*%
X177908891Y-81931500D02*
X178331109Y-81931500D01*
X178331109Y-80788500D02*
X177908891Y-80788500D01*
D10*
%TO.C,R28*%
X164070000Y-78110000D02*
X164070000Y-78110000D01*
X164070000Y-78310000D02*
X164070000Y-78310000D01*
X166370000Y-77585000D02*
X166770000Y-77585000D01*
X166370000Y-78835000D02*
X166770000Y-78835000D01*
X164070000Y-78110000D02*
G75*
G02*
X164070000Y-78310000I0J-100000D01*
G01*
X164070000Y-78310000D02*
G75*
G02*
X164070000Y-78110000I0J100000D01*
G01*
D13*
%TO.C,U8*%
X167854856Y-85150598D02*
X167854856Y-88503398D01*
X167854856Y-88503398D02*
X168045315Y-88503398D01*
X168045315Y-85150598D02*
X167854856Y-85150598D01*
X171060797Y-88503398D02*
X171251256Y-88503398D01*
X171251256Y-85150598D02*
X171060797Y-85150598D01*
X171251256Y-88503398D02*
X171251256Y-85150598D01*
X168126456Y-88326998D02*
G75*
G02*
X167923256Y-88326998I-101600J0D01*
G01*
X167923256Y-88326998D02*
G75*
G02*
X168126456Y-88326998I101600J0D01*
G01*
%TO.C,R26*%
X175208891Y-85160500D02*
X175631109Y-85160500D01*
X175631109Y-84017500D02*
X175208891Y-84017500D01*
%TO.C,R35*%
X175208891Y-78731500D02*
X175631109Y-78731500D01*
X175631109Y-77588500D02*
X175208891Y-77588500D01*
%TO.C,R1*%
X181761856Y-91487390D02*
X181761856Y-91909608D01*
X182904856Y-91909608D02*
X182904856Y-91487390D01*
%TO.C,U4*%
X134503600Y-84977600D02*
X134503600Y-85283218D01*
X134503600Y-87516782D02*
X134503600Y-87822400D01*
X134503600Y-87822400D02*
X135313220Y-87822400D01*
X135313220Y-84977600D02*
X134503600Y-84977600D01*
X137046780Y-87822400D02*
X137856400Y-87822400D01*
X137856400Y-84977600D02*
X137046780Y-84977600D01*
X137856400Y-85283218D02*
X137856400Y-84977600D01*
X137856400Y-87822400D02*
X137856400Y-87516782D01*
D10*
X134066844Y-85625000D02*
G75*
G02*
X133893156Y-85625000I-86844J0D01*
G01*
X133893156Y-85625000D02*
G75*
G02*
X134066844Y-85625000I86844J0D01*
G01*
D14*
G36*
X138135800Y-86340501D02*
G01*
X137881800Y-86340501D01*
X137881800Y-85959500D01*
X138135800Y-85959500D01*
X138135800Y-86340501D01*
G37*
D13*
%TO.C,R32*%
X175208891Y-75531500D02*
X175631109Y-75531500D01*
X175631109Y-74388500D02*
X175208891Y-74388500D01*
%TO.C,CR3*%
X112343656Y-74148699D02*
X116306056Y-74148699D01*
X116306056Y-70948299D02*
X112343656Y-70948299D01*
D18*
X111974856Y-72548499D02*
G75*
G02*
X111474856Y-72548499I-250000J0D01*
G01*
X111474856Y-72548499D02*
G75*
G02*
X111974856Y-72548499I250000J0D01*
G01*
D13*
%TO.C,D1*%
X135925300Y-95377900D02*
X137474700Y-95377900D01*
X135250000Y-93900000D02*
G75*
G02*
X135046800Y-93900000I-101600J0D01*
G01*
X135046800Y-93900000D02*
G75*
G02*
X135250000Y-93900000I101600J0D01*
G01*
%TO.C,R33*%
X175208891Y-77131500D02*
X175631109Y-77131500D01*
X175631109Y-75988500D02*
X175208891Y-75988500D01*
D12*
%TO.C,XTAL1*%
X142994975Y-91279899D02*
G75*
G02*
X142794975Y-91279899I-100000J0D01*
G01*
X142794975Y-91279899D02*
G75*
G02*
X142994975Y-91279899I100000J0D01*
G01*
D13*
%TO.C,R36*%
X175208891Y-80331500D02*
X175631109Y-80331500D01*
X175631109Y-79188500D02*
X175208891Y-79188500D01*
%TO.C,U1*%
X176188057Y-93298299D02*
X176188057Y-93485558D01*
X176188057Y-94811438D02*
X176188057Y-94985560D01*
X176188057Y-96311440D02*
X176188057Y-96498699D01*
X176188057Y-96498699D02*
X179591657Y-96498699D01*
X179591657Y-93298299D02*
X176188057Y-93298299D01*
X179591657Y-93485558D02*
X179591657Y-93298299D01*
X179591657Y-94985560D02*
X179591657Y-94811438D01*
X179591657Y-96498699D02*
X179591657Y-96311440D01*
X175291457Y-94148499D02*
G75*
G02*
X175088257Y-94148499I-101600J0D01*
G01*
X175088257Y-94148499D02*
G75*
G02*
X175291457Y-94148499I101600J0D01*
G01*
%TO.C,IC1*%
X113757000Y-74622000D02*
X113757000Y-75000460D01*
X113757000Y-83104140D02*
X113757000Y-84595860D01*
X113757000Y-90499540D02*
X113757000Y-90878000D01*
X113757000Y-90878000D02*
X126203000Y-90878000D01*
X126203000Y-74622000D02*
X113757000Y-74622000D01*
X126203000Y-75000460D02*
X126203000Y-74622000D01*
X126203000Y-84595860D02*
X126203000Y-83104140D01*
X126203000Y-90878000D02*
X126203000Y-90499540D01*
X113431600Y-74725000D02*
G75*
G02*
X113228400Y-74725000I-101600J0D01*
G01*
X113228400Y-74725000D02*
G75*
G02*
X113431600Y-74725000I101600J0D01*
G01*
D10*
%TO.C,CR2*%
X172558356Y-93348499D02*
X172558356Y-94648499D01*
X174308356Y-93348499D02*
X172558356Y-93348499D01*
X174308356Y-94648499D02*
X174308356Y-93348499D01*
D13*
%TO.C,R9*%
X158403356Y-68337390D02*
X158403356Y-68759608D01*
X159546356Y-68759608D02*
X159546356Y-68337390D01*
D14*
%TO.C,G\u002A\u002A\u002A*%
G36*
X103251796Y-67405283D02*
G01*
X103310047Y-67430733D01*
X103355890Y-67473881D01*
X103368041Y-67493665D01*
X103371358Y-67502065D01*
X103374061Y-67514381D01*
X103376096Y-67532198D01*
X103377403Y-67557104D01*
X103377928Y-67590682D01*
X103377614Y-67634520D01*
X103376404Y-67690203D01*
X103374242Y-67759318D01*
X103371070Y-67843449D01*
X103366834Y-67944183D01*
X103361475Y-68063107D01*
X103354937Y-68201805D01*
X103347165Y-68361863D01*
X103338101Y-68544869D01*
X103327689Y-68752406D01*
X103315872Y-68986062D01*
X103312400Y-69054493D01*
X103302015Y-69259273D01*
X103292041Y-69456383D01*
X103282569Y-69643971D01*
X103273694Y-69820186D01*
X103265507Y-69983175D01*
X103258101Y-70131086D01*
X103251568Y-70262068D01*
X103246002Y-70374268D01*
X103241494Y-70465833D01*
X103238137Y-70534913D01*
X103236023Y-70579654D01*
X103235246Y-70598205D01*
X103235244Y-70598419D01*
X103226246Y-70617177D01*
X103196000Y-70623063D01*
X103194077Y-70623073D01*
X103171540Y-70621664D01*
X103158451Y-70613123D01*
X103151193Y-70590981D01*
X103146153Y-70548767D01*
X103144881Y-70535025D01*
X103142804Y-70505231D01*
X103139614Y-70449877D01*
X103135420Y-70371354D01*
X103130333Y-70272054D01*
X103124463Y-70154367D01*
X103117919Y-70020685D01*
X103110813Y-69873398D01*
X103103253Y-69714897D01*
X103095350Y-69547575D01*
X103087213Y-69373820D01*
X103078954Y-69196026D01*
X103070682Y-69016582D01*
X103062506Y-68837879D01*
X103054538Y-68662310D01*
X103046887Y-68492264D01*
X103039662Y-68330133D01*
X103032975Y-68178308D01*
X103026935Y-68039180D01*
X103021653Y-67915139D01*
X103017237Y-67808578D01*
X103013799Y-67721887D01*
X103011448Y-67657456D01*
X103010294Y-67617678D01*
X103010196Y-67608319D01*
X103013262Y-67555047D01*
X103020606Y-67509033D01*
X103028875Y-67484204D01*
X103069675Y-67436991D01*
X103124901Y-67408225D01*
X103187844Y-67397718D01*
X103251796Y-67405283D01*
G37*
G36*
X103443407Y-65711861D02*
G01*
X103628118Y-65736930D01*
X103664891Y-65743065D01*
X103895217Y-65795764D01*
X104124870Y-65873980D01*
X104348750Y-65975404D01*
X104561755Y-66097729D01*
X104757080Y-66237288D01*
X104835738Y-66303564D01*
X104918861Y-66379985D01*
X105002463Y-66462297D01*
X105082562Y-66546246D01*
X105155175Y-66627580D01*
X105216318Y-66702043D01*
X105262008Y-66765385D01*
X105280050Y-66795715D01*
X105296130Y-66822179D01*
X105305737Y-66833500D01*
X105317487Y-66849394D01*
X105338961Y-66884606D01*
X105366994Y-66933398D01*
X105398421Y-66990032D01*
X105430079Y-67048772D01*
X105458803Y-67103879D01*
X105481430Y-67149616D01*
X105488312Y-67164559D01*
X105555243Y-67333600D01*
X105613624Y-67517595D01*
X105659865Y-67704028D01*
X105687368Y-67858086D01*
X105694923Y-67936874D01*
X105699033Y-68036147D01*
X105699916Y-68149271D01*
X105697791Y-68269611D01*
X105692876Y-68390532D01*
X105685389Y-68505401D01*
X105675549Y-68607581D01*
X105663575Y-68690438D01*
X105659258Y-68712105D01*
X105588388Y-68973614D01*
X105493157Y-69221671D01*
X105374117Y-69455371D01*
X105231817Y-69673810D01*
X105066809Y-69876085D01*
X104879644Y-70061291D01*
X104791902Y-70135934D01*
X104727061Y-70187263D01*
X104658768Y-70239067D01*
X104595759Y-70284835D01*
X104552412Y-70314432D01*
X104394169Y-70406317D01*
X104216188Y-70490649D01*
X104026583Y-70564139D01*
X103833464Y-70623500D01*
X103725154Y-70649703D01*
X103667547Y-70660211D01*
X103592762Y-70671032D01*
X103507569Y-70681483D01*
X103418740Y-70690884D01*
X103333045Y-70698552D01*
X103257256Y-70703807D01*
X103198142Y-70705967D01*
X103171824Y-70705386D01*
X103146120Y-70703540D01*
X103099949Y-70700179D01*
X103040940Y-70695858D01*
X103002772Y-70693053D01*
X102747692Y-70660512D01*
X102500371Y-70601819D01*
X102262386Y-70518310D01*
X102035312Y-70411322D01*
X101820725Y-70282189D01*
X101620201Y-70132249D01*
X101435315Y-69962838D01*
X101267645Y-69775291D01*
X101118765Y-69570946D01*
X100990252Y-69351137D01*
X100883681Y-69117202D01*
X100800628Y-68870477D01*
X100785209Y-68812812D01*
X100765076Y-68728825D01*
X100748923Y-68648536D01*
X100735433Y-68563772D01*
X100723287Y-68466356D01*
X100712466Y-68361611D01*
X100706130Y-68197066D01*
X100784230Y-68197066D01*
X100796048Y-68457956D01*
X100832572Y-68706730D01*
X100894552Y-68946103D01*
X100982739Y-69178789D01*
X101097882Y-69407505D01*
X101137299Y-69474931D01*
X101256268Y-69649337D01*
X101398809Y-69819361D01*
X101560319Y-69980803D01*
X101736194Y-70129466D01*
X101921832Y-70261151D01*
X102112630Y-70371660D01*
X102130368Y-70380660D01*
X102282768Y-70448920D01*
X102450888Y-70510096D01*
X102625778Y-70561610D01*
X102798492Y-70600882D01*
X102960081Y-70625332D01*
X102988685Y-70628080D01*
X103084119Y-70632599D01*
X103198285Y-70632176D01*
X103322272Y-70627314D01*
X103447167Y-70618514D01*
X103564057Y-70606278D01*
X103664032Y-70591109D01*
X103671935Y-70589609D01*
X103921800Y-70527107D01*
X104161924Y-70438928D01*
X104390522Y-70326426D01*
X104605812Y-70190951D01*
X104806011Y-70033857D01*
X104989335Y-69856494D01*
X105154002Y-69660215D01*
X105298229Y-69446372D01*
X105383629Y-69291791D01*
X105444534Y-69158088D01*
X105501971Y-69006770D01*
X105552386Y-68848400D01*
X105592226Y-68693539D01*
X105604064Y-68636717D01*
X105615654Y-68571673D01*
X105624034Y-68510622D01*
X105629664Y-68446924D01*
X105633002Y-68373938D01*
X105634506Y-68285025D01*
X105634687Y-68192956D01*
X105634054Y-68089717D01*
X105632285Y-68007950D01*
X105628836Y-67940957D01*
X105623163Y-67882041D01*
X105614721Y-67824506D01*
X105602966Y-67761654D01*
X105597408Y-67734460D01*
X105532570Y-67482821D01*
X105444891Y-67245196D01*
X105333009Y-67018739D01*
X105195559Y-66800603D01*
X105071242Y-66636273D01*
X104914521Y-66464486D01*
X104737087Y-66307775D01*
X104542433Y-66167917D01*
X104334051Y-66046694D01*
X104115432Y-65945884D01*
X103890069Y-65867266D01*
X103661453Y-65812620D01*
X103433076Y-65783725D01*
X103393704Y-65781463D01*
X103316421Y-65778295D01*
X103263173Y-65777456D01*
X103229894Y-65779185D01*
X103212523Y-65783718D01*
X103206996Y-65791297D01*
X103206935Y-65792427D01*
X103209308Y-65811540D01*
X103216011Y-65854109D01*
X103226328Y-65915869D01*
X103239539Y-65992558D01*
X103254927Y-66079911D01*
X103262462Y-66122074D01*
X103281619Y-66229093D01*
X103301836Y-66342553D01*
X103321621Y-66454045D01*
X103339483Y-66555160D01*
X103353929Y-66637489D01*
X103354695Y-66641880D01*
X103391294Y-66851757D01*
X103535136Y-67120223D01*
X103577703Y-67199803D01*
X103615754Y-67271197D01*
X103647275Y-67330603D01*
X103670250Y-67374219D01*
X103682664Y-67398242D01*
X103684186Y-67401426D01*
X103676989Y-67399736D01*
X103653165Y-67383396D01*
X103617686Y-67355849D01*
X103613748Y-67352658D01*
X103504731Y-67277978D01*
X103391915Y-67229500D01*
X103270364Y-67205272D01*
X103233834Y-67202556D01*
X103097978Y-67207283D01*
X102975697Y-67236181D01*
X102864973Y-67289953D01*
X102768325Y-67365021D01*
X102734034Y-67395914D01*
X102709480Y-67415781D01*
X102699891Y-67420397D01*
X102699888Y-67420314D01*
X102706269Y-67405906D01*
X102724145Y-67370358D01*
X102751618Y-67317319D01*
X102786792Y-67250436D01*
X102827766Y-67173357D01*
X102849311Y-67133112D01*
X102998735Y-66854631D01*
X103033280Y-66657404D01*
X103062549Y-66490775D01*
X103089657Y-66337380D01*
X103114250Y-66199185D01*
X103135971Y-66078155D01*
X103154465Y-65976258D01*
X103169377Y-65895458D01*
X103180351Y-65837723D01*
X103187032Y-65805018D01*
X103188401Y-65799461D01*
X103190197Y-65788391D01*
X103184988Y-65781209D01*
X103168395Y-65777426D01*
X103136037Y-65776550D01*
X103083536Y-65778091D01*
X103022004Y-65780832D01*
X102799236Y-65804529D01*
X102573736Y-65853933D01*
X102349468Y-65927383D01*
X102130397Y-66023220D01*
X101920487Y-66139783D01*
X101723705Y-66275412D01*
X101601712Y-66375652D01*
X101417857Y-66556275D01*
X101254389Y-66754993D01*
X101112969Y-66969300D01*
X100995258Y-67196690D01*
X100906031Y-67425180D01*
X100860071Y-67574945D01*
X100826394Y-67712725D01*
X100803550Y-67847714D01*
X100790088Y-67989106D01*
X100784558Y-68146092D01*
X100784230Y-68197066D01*
X100706130Y-68197066D01*
X100705321Y-68176046D01*
X100717274Y-67977020D01*
X100747120Y-67770604D01*
X100793649Y-67562867D01*
X100855654Y-67359880D01*
X100931927Y-67167713D01*
X100963229Y-67101165D01*
X101090684Y-66873296D01*
X101239961Y-66661495D01*
X101409223Y-66467155D01*
X101596629Y-66291667D01*
X101800342Y-66136426D01*
X102018523Y-66002823D01*
X102249333Y-65892252D01*
X102490932Y-65806105D01*
X102741483Y-65745774D01*
X102756239Y-65743099D01*
X102938344Y-65715561D01*
X103107553Y-65701176D01*
X103272896Y-65699943D01*
X103443407Y-65711861D01*
G37*
D10*
%TO.C,J2*%
X101200000Y-89900000D02*
X101200000Y-87500000D01*
X103500000Y-85200000D02*
X105900000Y-85200000D01*
X103500000Y-92200000D02*
X105900000Y-92200000D01*
D17*
X104700000Y-92800000D02*
X104700000Y-92800000D01*
X104700000Y-92900000D02*
X104700000Y-92900000D01*
D10*
X108200000Y-89900000D02*
X108200000Y-87500000D01*
D17*
X104700000Y-92800000D02*
G75*
G02*
X104700000Y-92900000I0J-50000D01*
G01*
X104700000Y-92900000D02*
G75*
G02*
X104700000Y-92800000I0J50000D01*
G01*
D15*
%TO.C,D5*%
X149524856Y-92073499D02*
X149749856Y-92073499D01*
X150599856Y-92073499D02*
X150824856Y-92073499D01*
D10*
X150274856Y-91698499D02*
G75*
G02*
X150074856Y-91698499I-100000J0D01*
G01*
X150074856Y-91698499D02*
G75*
G02*
X150274856Y-91698499I100000J0D01*
G01*
D19*
%TO.C,JP4*%
X147430000Y-73850000D02*
X147430000Y-72450000D01*
X148130000Y-71750000D02*
X148730000Y-71750000D01*
X148730000Y-74550000D02*
X148130000Y-74550000D01*
X149430000Y-72450000D02*
X149430000Y-73850000D01*
X147430000Y-72450000D02*
G75*
G02*
X148130000Y-71750000I700000J0D01*
G01*
X148130000Y-74550000D02*
G75*
G02*
X147430000Y-73850000I-1J699999D01*
G01*
X148730000Y-71750000D02*
G75*
G02*
X149430000Y-72450000I0J-700000D01*
G01*
X149430000Y-73850000D02*
G75*
G02*
X148730000Y-74550000I-699999J-1D01*
G01*
D13*
%TO.C,R6*%
X152513748Y-67370000D02*
X152935966Y-67370000D01*
X152935966Y-66227000D02*
X152513748Y-66227000D01*
%TO.C,FL1*%
X113350900Y-83750000D02*
G75*
G02*
X113198500Y-83750000I-76200J0D01*
G01*
X113198500Y-83750000D02*
G75*
G02*
X113350900Y-83750000I76200J0D01*
G01*
%TO.C,U10*%
X176093599Y-69729550D02*
X176093599Y-71685350D01*
X176093599Y-71685350D02*
X176258658Y-71685350D01*
X176258658Y-69729550D02*
X176093599Y-69729550D01*
X179281340Y-71685350D02*
X179446399Y-71685350D01*
X179446399Y-69729550D02*
X179281340Y-69729550D01*
X179446399Y-71685350D02*
X179446399Y-69729550D01*
D10*
X179656843Y-69132450D02*
G75*
G02*
X179483155Y-69132450I-86844J0D01*
G01*
X179483155Y-69132450D02*
G75*
G02*
X179656843Y-69132450I86844J0D01*
G01*
D13*
%TO.C,U9*%
X172243600Y-69729550D02*
X172243600Y-71685350D01*
X172243600Y-71685350D02*
X172408659Y-71685350D01*
X172408659Y-69729550D02*
X172243600Y-69729550D01*
X175431341Y-71685350D02*
X175596400Y-71685350D01*
X175596400Y-69729550D02*
X175431341Y-69729550D01*
X175596400Y-71685350D02*
X175596400Y-69729550D01*
D10*
X175806844Y-69132450D02*
G75*
G02*
X175633156Y-69132450I-86844J0D01*
G01*
X175633156Y-69132450D02*
G75*
G02*
X175806844Y-69132450I86844J0D01*
G01*
D13*
%TO.C,R31*%
X177908891Y-75531500D02*
X178331109Y-75531500D01*
X178331109Y-74388500D02*
X177908891Y-74388500D01*
D19*
%TO.C,JP1*%
X123230000Y-73200000D02*
X123230000Y-71800000D01*
X123930000Y-71100000D02*
X124530000Y-71100000D01*
X124530000Y-73900000D02*
X123930000Y-73900000D01*
X125230000Y-71800000D02*
X125230000Y-73200000D01*
X123230000Y-71800000D02*
G75*
G02*
X123930000Y-71100000I699999J1D01*
G01*
X123930000Y-73900000D02*
G75*
G02*
X123230000Y-73200000I0J700000D01*
G01*
X124530000Y-71100000D02*
G75*
G02*
X125230000Y-71800000I1J-699999D01*
G01*
X125230000Y-73200000D02*
G75*
G02*
X124530000Y-73900000I-700000J0D01*
G01*
%TO.C,JP3*%
X155024856Y-96498498D02*
X155024856Y-95098498D01*
X155724856Y-94398498D02*
X156324856Y-94398498D01*
X156324856Y-97198498D02*
X155724856Y-97198498D01*
X157024856Y-95098498D02*
X157024856Y-96498498D01*
X155024856Y-95098498D02*
G75*
G02*
X155724856Y-94398498I700000J0D01*
G01*
X155724856Y-97198498D02*
G75*
G02*
X155024856Y-96498498I-1J699999D01*
G01*
X156324856Y-94398498D02*
G75*
G02*
X157024856Y-95098498I0J-700000D01*
G01*
X157024856Y-96498498D02*
G75*
G02*
X156324856Y-97198498I-699999J-1D01*
G01*
D13*
%TO.C,R38*%
X175208891Y-81931500D02*
X175631109Y-81931500D01*
X175631109Y-80788500D02*
X175208891Y-80788500D01*
%TO.C,R3*%
X174624857Y-91437390D02*
X174624857Y-91859608D01*
X175767857Y-91859608D02*
X175767857Y-91437390D01*
%TO.C,R4*%
X180024857Y-91437390D02*
X180024857Y-91859608D01*
X181167857Y-91859608D02*
X181167857Y-91437390D01*
%TO.C,R34*%
X177908891Y-78731500D02*
X178331109Y-78731500D01*
X178331109Y-77588500D02*
X177908891Y-77588500D01*
%TO.C,R39*%
X175208891Y-83512900D02*
X175631109Y-83512900D01*
X175631109Y-82369900D02*
X175208891Y-82369900D01*
D14*
%TO.C,G\u002A\u002A\u002A*%
G36*
X115645554Y-68654375D02*
G01*
X115645554Y-68733858D01*
X115546201Y-68733858D01*
X115446846Y-68733858D01*
X115446846Y-68654375D01*
X115446846Y-68574893D01*
X115546201Y-68574893D01*
X115645554Y-68574893D01*
X115645554Y-68654375D01*
G37*
G36*
X115645554Y-69310111D02*
G01*
X115645554Y-69747267D01*
X115546201Y-69747267D01*
X115446846Y-69747267D01*
X115446846Y-69310111D01*
X115446846Y-68872953D01*
X115546201Y-68872953D01*
X115645554Y-68872953D01*
X115645554Y-69310111D01*
G37*
G36*
X120394663Y-68654375D02*
G01*
X120394663Y-68733858D01*
X120295309Y-68733858D01*
X120195956Y-68733858D01*
X120195956Y-68654375D01*
X120195956Y-68574893D01*
X120295309Y-68574893D01*
X120394663Y-68574893D01*
X120394663Y-68654375D01*
G37*
G36*
X120394663Y-69310111D02*
G01*
X120394663Y-69747267D01*
X120295309Y-69747267D01*
X120195956Y-69747267D01*
X120195956Y-69310111D01*
X120195956Y-68872953D01*
X120295309Y-68872953D01*
X120394663Y-68872953D01*
X120394663Y-69310111D01*
G37*
G36*
X124309199Y-66836203D02*
G01*
X124309199Y-66945492D01*
X123981332Y-66945492D01*
X123653465Y-66945492D01*
X123653465Y-67541615D01*
X123653465Y-68137738D01*
X123524305Y-68137738D01*
X123395145Y-68137738D01*
X123395145Y-67541615D01*
X123395145Y-66945492D01*
X123077212Y-66945492D01*
X122759281Y-66945492D01*
X122759281Y-66836203D01*
X122759281Y-66726914D01*
X123534239Y-66726914D01*
X124309199Y-66726914D01*
X124309199Y-66836203D01*
G37*
G36*
X107895962Y-68674247D02*
G01*
X107895962Y-68793471D01*
X107468742Y-68793471D01*
X107041520Y-68793471D01*
X107041520Y-68922631D01*
X107041520Y-69051790D01*
X107458806Y-69051790D01*
X107876092Y-69051790D01*
X107876092Y-69161079D01*
X107876092Y-69270368D01*
X107458806Y-69270368D01*
X107041520Y-69270368D01*
X107041520Y-69508817D01*
X107041520Y-69747267D01*
X106902424Y-69747267D01*
X106763330Y-69747267D01*
X106763330Y-69151145D01*
X106763330Y-68555022D01*
X107329647Y-68555022D01*
X107895962Y-68555022D01*
X107895962Y-68674247D01*
G37*
G36*
X116175796Y-69210756D02*
G01*
X116225371Y-69313236D01*
X116269684Y-69401982D01*
X116305760Y-69471253D01*
X116330619Y-69515318D01*
X116340865Y-69528689D01*
X116353440Y-69511685D01*
X116380032Y-69464482D01*
X116417633Y-69392793D01*
X116463243Y-69302333D01*
X116508090Y-69210756D01*
X116661789Y-68892825D01*
X116769606Y-68892825D01*
X116877421Y-68892825D01*
X116664085Y-69320046D01*
X116450750Y-69747267D01*
X116341031Y-69747267D01*
X116231311Y-69747267D01*
X116017976Y-69320046D01*
X115804641Y-68892825D01*
X115914445Y-68892825D01*
X116024252Y-68892825D01*
X116175796Y-69210756D01*
G37*
G36*
X109187561Y-68664311D02*
G01*
X109187561Y-68773600D01*
X108760341Y-68773600D01*
X108333118Y-68773600D01*
X108333118Y-68892825D01*
X108333118Y-69012049D01*
X108750405Y-69012049D01*
X109167691Y-69012049D01*
X109167691Y-69121338D01*
X109167691Y-69230627D01*
X108750405Y-69230627D01*
X108333118Y-69230627D01*
X108333118Y-69379657D01*
X108333118Y-69528689D01*
X108770275Y-69528689D01*
X109207431Y-69528689D01*
X109207431Y-69637978D01*
X109207431Y-69747267D01*
X108631181Y-69747267D01*
X108054929Y-69747267D01*
X108054929Y-69151145D01*
X108054929Y-68555022D01*
X108621245Y-68555022D01*
X109187561Y-68555022D01*
X109187561Y-68664311D01*
G37*
G36*
X118848928Y-68863142D02*
G01*
X118868989Y-68879823D01*
X118877572Y-68918030D01*
X118880608Y-68957405D01*
X118886664Y-69051790D01*
X118761383Y-69052228D01*
X118639768Y-69064585D01*
X118536712Y-69098775D01*
X118459685Y-69151826D01*
X118434610Y-69182411D01*
X118418634Y-69214938D01*
X118407156Y-69260761D01*
X118399130Y-69327271D01*
X118393517Y-69421862D01*
X118390970Y-69492074D01*
X118383019Y-69747267D01*
X118286014Y-69747267D01*
X118189009Y-69747267D01*
X118189009Y-69310111D01*
X118189009Y-68872953D01*
X118287104Y-68872953D01*
X118345669Y-68874469D01*
X118375496Y-68883274D01*
X118387581Y-68905758D01*
X118391427Y-68933578D01*
X118397654Y-68994202D01*
X118464947Y-68944359D01*
X118539970Y-68904413D01*
X118636788Y-68873844D01*
X118737759Y-68857141D01*
X118809440Y-68856752D01*
X118848928Y-68863142D01*
G37*
G36*
X132321293Y-68863142D02*
G01*
X132341355Y-68879823D01*
X132349937Y-68918030D01*
X132352973Y-68957405D01*
X132359029Y-69051790D01*
X132233748Y-69052228D01*
X132112133Y-69064585D01*
X132009077Y-69098775D01*
X131932050Y-69151826D01*
X131906975Y-69182411D01*
X131891001Y-69214938D01*
X131879522Y-69260761D01*
X131871496Y-69327271D01*
X131865883Y-69421862D01*
X131863335Y-69492074D01*
X131855384Y-69747267D01*
X131758379Y-69747267D01*
X131661376Y-69747267D01*
X131661376Y-69310111D01*
X131661376Y-68872953D01*
X131759470Y-68872953D01*
X131818034Y-68874469D01*
X131847862Y-68883274D01*
X131859946Y-68905758D01*
X131863792Y-68933578D01*
X131870019Y-68994202D01*
X131937314Y-68944359D01*
X132012335Y-68904413D01*
X132109154Y-68873844D01*
X132210126Y-68857141D01*
X132281805Y-68856752D01*
X132321293Y-68863142D01*
G37*
G36*
X110832737Y-67053891D02*
G01*
X110834771Y-67054329D01*
X110869687Y-67064133D01*
X110888078Y-67081021D01*
X110895242Y-67115828D01*
X110896472Y-67179384D01*
X110896473Y-67180553D01*
X110896499Y-67293231D01*
X110782487Y-67286152D01*
X110636911Y-67289954D01*
X110510783Y-67319164D01*
X110408533Y-67371825D01*
X110334593Y-67445986D01*
X110307557Y-67495339D01*
X110294895Y-67544909D01*
X110286327Y-67624979D01*
X110281613Y-67738777D01*
X110280452Y-67858909D01*
X110280452Y-68157608D01*
X110151293Y-68157608D01*
X110022133Y-68157608D01*
X110022133Y-67621099D01*
X110022133Y-67084588D01*
X110151293Y-67084588D01*
X110280452Y-67084588D01*
X110280452Y-67157600D01*
X110280452Y-67230611D01*
X110325409Y-67188377D01*
X110403183Y-67135186D01*
X110506528Y-67091529D01*
X110621720Y-67061021D01*
X110735029Y-67047270D01*
X110832737Y-67053891D01*
G37*
G36*
X111432956Y-66935558D02*
G01*
X111432956Y-67084588D01*
X111601858Y-67084588D01*
X111770758Y-67084588D01*
X111770758Y-67174006D01*
X111770758Y-67263426D01*
X111601858Y-67263426D01*
X111432956Y-67263426D01*
X111432956Y-67590834D01*
X111432956Y-67918244D01*
X111483269Y-67951211D01*
X111526918Y-67970783D01*
X111584840Y-67977021D01*
X111652170Y-67973423D01*
X111770758Y-67962669D01*
X111770758Y-68057655D01*
X111768925Y-68115363D01*
X111758826Y-68145284D01*
X111733563Y-68159349D01*
X111708663Y-68165060D01*
X111627368Y-68173883D01*
X111528174Y-68174489D01*
X111431969Y-68167314D01*
X111378809Y-68158187D01*
X111284301Y-68121393D01*
X111222128Y-68062833D01*
X111195603Y-68003798D01*
X111188575Y-67958770D01*
X111182552Y-67882598D01*
X111177972Y-67783873D01*
X111175279Y-67671189D01*
X111174748Y-67596261D01*
X111174635Y-67263426D01*
X111065346Y-67263426D01*
X110956057Y-67263426D01*
X110956057Y-67174006D01*
X110956057Y-67084588D01*
X111065346Y-67084588D01*
X111174635Y-67084588D01*
X111174635Y-66935558D01*
X111174635Y-66786527D01*
X111303796Y-66786527D01*
X111432956Y-66786527D01*
X111432956Y-66935558D01*
G37*
G36*
X109664458Y-68940978D02*
G01*
X109664458Y-69366673D01*
X109714786Y-69426484D01*
X109784998Y-69482603D01*
X109878073Y-69518987D01*
X109984505Y-69535935D01*
X110094782Y-69533748D01*
X110199392Y-69512726D01*
X110288829Y-69473166D01*
X110353580Y-69415369D01*
X110359936Y-69406149D01*
X110370512Y-69381612D01*
X110378774Y-69341628D01*
X110385100Y-69281288D01*
X110389868Y-69195686D01*
X110393458Y-69079913D01*
X110396122Y-68937535D01*
X110402504Y-68515280D01*
X110530250Y-68515280D01*
X110657996Y-68515280D01*
X110657996Y-68939537D01*
X110657353Y-69097024D01*
X110654840Y-69220669D01*
X110649571Y-69316360D01*
X110640670Y-69389984D01*
X110627255Y-69447431D01*
X110608442Y-69494583D01*
X110583356Y-69537335D01*
X110564603Y-69563752D01*
X110487854Y-69636735D01*
X110381137Y-69694896D01*
X110252053Y-69736371D01*
X110108203Y-69759295D01*
X109957189Y-69761809D01*
X109823425Y-69745465D01*
X109688905Y-69704671D01*
X109572696Y-69640248D01*
X109483022Y-69557247D01*
X109456477Y-69520065D01*
X109396205Y-69422632D01*
X109389610Y-68968955D01*
X109383015Y-68515280D01*
X109523738Y-68515280D01*
X109664458Y-68515280D01*
X109664458Y-68940978D01*
G37*
G36*
X132794008Y-68773600D02*
G01*
X132794008Y-68892825D01*
X132933103Y-68892825D01*
X133072199Y-68892825D01*
X133072199Y-68962371D01*
X133072199Y-69031920D01*
X132933103Y-69031920D01*
X132794008Y-69031920D01*
X132794008Y-69299475D01*
X132794888Y-69417906D01*
X132799637Y-69502130D01*
X132811427Y-69557677D01*
X132833427Y-69590079D01*
X132868804Y-69604864D01*
X132920730Y-69607562D01*
X132969220Y-69605181D01*
X133062263Y-69599355D01*
X133068275Y-69670720D01*
X133068214Y-69720405D01*
X133052513Y-69744902D01*
X133028535Y-69754340D01*
X132962109Y-69763320D01*
X132875162Y-69763727D01*
X132785871Y-69756029D01*
X132734874Y-69746824D01*
X132685951Y-69732376D01*
X132649942Y-69711577D01*
X132624895Y-69678708D01*
X132608860Y-69628050D01*
X132599887Y-69553889D01*
X132596023Y-69450506D01*
X132595301Y-69337715D01*
X132595301Y-69031920D01*
X132505883Y-69031920D01*
X132450939Y-69030434D01*
X132424923Y-69020373D01*
X132417015Y-68993321D01*
X132416465Y-68962371D01*
X132418372Y-68919639D01*
X132431310Y-68899403D01*
X132466091Y-68893253D01*
X132505883Y-68892825D01*
X132595301Y-68892825D01*
X132595301Y-68773600D01*
X132595301Y-68654375D01*
X132694654Y-68654375D01*
X132794008Y-68654375D01*
X132794008Y-68773600D01*
G37*
G36*
X114392901Y-68874256D02*
G01*
X114422229Y-68882264D01*
X114432323Y-68903128D01*
X114433439Y-68932567D01*
X114440408Y-68979652D01*
X114460701Y-68989605D01*
X114493218Y-68962171D01*
X114525329Y-68940286D01*
X114581731Y-68915620D01*
X114628344Y-68900123D01*
X114752974Y-68878086D01*
X114881428Y-68879893D01*
X114999647Y-68904480D01*
X115066297Y-68933265D01*
X115114434Y-68964990D01*
X115150530Y-69002598D01*
X115176242Y-69051985D01*
X115193223Y-69119040D01*
X115203126Y-69209658D01*
X115207604Y-69329731D01*
X115208398Y-69439672D01*
X115208398Y-69747267D01*
X115110866Y-69747267D01*
X115013336Y-69747267D01*
X115006545Y-69449625D01*
X115003703Y-69334943D01*
X115000447Y-69252965D01*
X114995562Y-69196664D01*
X114987830Y-69159009D01*
X114976036Y-69132972D01*
X114958960Y-69111522D01*
X114945634Y-69097893D01*
X114907123Y-69066109D01*
X114862723Y-69048125D01*
X114798147Y-69039082D01*
X114766798Y-69037057D01*
X114686677Y-69036152D01*
X114627949Y-69046166D01*
X114572977Y-69070494D01*
X114562599Y-69076379D01*
X114515631Y-69109353D01*
X114481515Y-69149970D01*
X114458300Y-69204756D01*
X114444030Y-69280235D01*
X114436750Y-69382931D01*
X114434560Y-69503850D01*
X114433439Y-69747267D01*
X114334085Y-69747267D01*
X114234732Y-69747267D01*
X114234732Y-69310111D01*
X114234732Y-68872953D01*
X114334085Y-68872953D01*
X114392901Y-68874256D01*
G37*
G36*
X111381870Y-68558787D02*
G01*
X111540728Y-68560813D01*
X111664795Y-68562980D01*
X111759020Y-68565690D01*
X111828350Y-68569346D01*
X111877736Y-68574349D01*
X111912127Y-68581102D01*
X111936470Y-68590006D01*
X111955715Y-68601465D01*
X111961862Y-68605925D01*
X112033172Y-68669735D01*
X112076688Y-68739099D01*
X112098806Y-68826715D01*
X112104233Y-68888492D01*
X112096674Y-69020163D01*
X112059270Y-69125880D01*
X111992135Y-69205403D01*
X111939659Y-69239411D01*
X111906655Y-69254310D01*
X111869436Y-69265411D01*
X111821335Y-69273434D01*
X111755686Y-69279096D01*
X111665821Y-69283119D01*
X111545071Y-69286226D01*
X111497537Y-69287167D01*
X111134894Y-69294030D01*
X111134894Y-69520648D01*
X111134894Y-69747267D01*
X110995800Y-69747267D01*
X110856704Y-69747267D01*
X110856704Y-69149941D01*
X110856704Y-69071660D01*
X111134894Y-69071660D01*
X111411791Y-69071660D01*
X111517572Y-69070174D01*
X111613293Y-69066093D01*
X111689794Y-69060008D01*
X111737915Y-69052497D01*
X111744222Y-69050546D01*
X111795416Y-69024008D01*
X111821396Y-68986421D01*
X111829816Y-68925157D01*
X111830066Y-68908854D01*
X111826986Y-68862388D01*
X111813946Y-68827873D01*
X111785905Y-68803567D01*
X111737819Y-68787729D01*
X111664648Y-68778616D01*
X111561348Y-68774490D01*
X111438469Y-68773600D01*
X111134894Y-68773600D01*
X111134894Y-68922631D01*
X111134894Y-69071660D01*
X110856704Y-69071660D01*
X110856704Y-68922631D01*
X110856704Y-68552616D01*
X111381870Y-68558787D01*
G37*
G36*
X129569980Y-68618342D02*
G01*
X129726498Y-68620642D01*
X129848433Y-68623353D01*
X129940944Y-68626855D01*
X130009186Y-68631536D01*
X130058317Y-68637776D01*
X130093498Y-68645962D01*
X130119885Y-68656473D01*
X130126025Y-68659680D01*
X130194343Y-68718136D01*
X130240966Y-68800944D01*
X130264728Y-68898429D01*
X130264460Y-69000918D01*
X130238994Y-69098733D01*
X130188842Y-69180304D01*
X130151108Y-69216077D01*
X130105070Y-69243453D01*
X130045283Y-69263454D01*
X129966304Y-69277105D01*
X129862691Y-69285426D01*
X129729000Y-69289439D01*
X129603775Y-69290239D01*
X129276885Y-69290239D01*
X129276885Y-69518753D01*
X129276885Y-69747267D01*
X129177532Y-69747267D01*
X129078178Y-69747267D01*
X129078178Y-69179691D01*
X129078178Y-69133835D01*
X129276885Y-69133835D01*
X129626422Y-69127586D01*
X129752201Y-69125140D01*
X129844326Y-69122411D01*
X129908886Y-69118570D01*
X129951963Y-69112776D01*
X129979642Y-69104200D01*
X129998010Y-69092003D01*
X130013152Y-69075352D01*
X130013901Y-69074427D01*
X130046695Y-69005701D01*
X130050796Y-68926955D01*
X130026866Y-68853676D01*
X130003072Y-68822374D01*
X129984048Y-68804618D01*
X129963702Y-68791798D01*
X129935658Y-68783107D01*
X129893535Y-68777746D01*
X129830954Y-68774909D01*
X129741540Y-68773794D01*
X129618910Y-68773600D01*
X129615591Y-68773600D01*
X129276885Y-68773600D01*
X129276885Y-68953718D01*
X129276885Y-69133835D01*
X129078178Y-69133835D01*
X129078178Y-68953718D01*
X129078178Y-68612115D01*
X129569980Y-68618342D01*
G37*
G36*
X112986377Y-69000714D02*
G01*
X112988844Y-69139004D01*
X112991660Y-69243353D01*
X112995421Y-69319554D01*
X113000722Y-69373404D01*
X113008157Y-69410700D01*
X113018322Y-69437242D01*
X113031814Y-69458823D01*
X113033678Y-69461345D01*
X113103569Y-69529848D01*
X113194981Y-69573844D01*
X113313076Y-69595313D01*
X113390224Y-69598235D01*
X113524973Y-69588171D01*
X113630237Y-69556655D01*
X113711175Y-69501708D01*
X113746772Y-69461345D01*
X113760700Y-69439969D01*
X113771233Y-69414327D01*
X113778962Y-69378621D01*
X113784488Y-69327056D01*
X113788400Y-69253833D01*
X113791298Y-69153155D01*
X113793776Y-69019227D01*
X113794072Y-69000714D01*
X113800504Y-68594764D01*
X113900100Y-68594764D01*
X113999697Y-68594764D01*
X113993022Y-69017017D01*
X113990672Y-69157066D01*
X113988171Y-69263445D01*
X113984812Y-69342223D01*
X113979887Y-69399470D01*
X113972687Y-69441252D01*
X113962506Y-69473638D01*
X113948633Y-69502697D01*
X113933191Y-69529688D01*
X113859658Y-69617141D01*
X113756396Y-69685716D01*
X113629508Y-69733698D01*
X113485105Y-69759381D01*
X113329295Y-69761057D01*
X113181582Y-69740021D01*
X113039515Y-69694066D01*
X112928536Y-69625109D01*
X112849771Y-69533865D01*
X112846798Y-69528902D01*
X112829327Y-69498051D01*
X112816120Y-69468935D01*
X112806471Y-69435494D01*
X112799680Y-69391662D01*
X112795042Y-69331380D01*
X112791856Y-69248581D01*
X112789414Y-69137204D01*
X112787426Y-69017017D01*
X112780751Y-68594764D01*
X112880348Y-68594764D01*
X112979944Y-68594764D01*
X112986377Y-69000714D01*
G37*
G36*
X127884065Y-68862985D02*
G01*
X127982314Y-68874925D01*
X128056361Y-68896239D01*
X128064769Y-68900338D01*
X128176789Y-68975027D01*
X128254076Y-69064502D01*
X128300504Y-69174101D01*
X128314257Y-69244675D01*
X128314082Y-69376396D01*
X128280069Y-69497570D01*
X128215656Y-69601821D01*
X128124286Y-69682764D01*
X128059841Y-69716704D01*
X127985478Y-69737601D01*
X127887018Y-69751850D01*
X127779716Y-69758394D01*
X127678823Y-69756180D01*
X127613636Y-69747537D01*
X127483587Y-69702955D01*
X127381653Y-69630927D01*
X127308867Y-69532364D01*
X127276871Y-69451746D01*
X127253184Y-69310829D01*
X127255708Y-69286661D01*
X127459925Y-69286661D01*
X127463637Y-69375949D01*
X127483407Y-69453596D01*
X127496829Y-69479321D01*
X127559105Y-69540680D01*
X127646676Y-69582478D01*
X127749183Y-69602690D01*
X127856261Y-69599295D01*
X127957545Y-69570269D01*
X127959130Y-69569555D01*
X128035545Y-69518874D01*
X128077125Y-69465670D01*
X128103170Y-69387553D01*
X128111275Y-69296842D01*
X128101729Y-69209165D01*
X128074816Y-69140146D01*
X128071052Y-69134695D01*
X127999408Y-69068283D01*
X127906768Y-69027077D01*
X127802827Y-69011034D01*
X127697273Y-69020104D01*
X127599799Y-69054245D01*
X127520097Y-69113407D01*
X127500075Y-69137419D01*
X127472121Y-69201796D01*
X127459925Y-69286661D01*
X127255708Y-69286661D01*
X127266600Y-69182395D01*
X127316172Y-69068774D01*
X127400951Y-68972300D01*
X127498454Y-68906341D01*
X127568807Y-68882100D01*
X127664842Y-68866706D01*
X127774084Y-68860290D01*
X127884065Y-68862985D01*
G37*
G36*
X131023643Y-68862985D02*
G01*
X131121893Y-68874925D01*
X131195940Y-68896239D01*
X131204348Y-68900338D01*
X131316369Y-68975027D01*
X131393656Y-69064502D01*
X131440081Y-69174101D01*
X131453835Y-69244675D01*
X131453660Y-69376396D01*
X131419646Y-69497570D01*
X131355234Y-69601821D01*
X131263864Y-69682764D01*
X131199421Y-69716704D01*
X131125056Y-69737601D01*
X131026598Y-69751850D01*
X130919296Y-69758394D01*
X130818403Y-69756180D01*
X130753214Y-69747537D01*
X130623165Y-69702955D01*
X130521231Y-69630927D01*
X130448447Y-69532364D01*
X130416450Y-69451746D01*
X130392762Y-69310829D01*
X130395288Y-69286661D01*
X130599504Y-69286661D01*
X130603215Y-69375949D01*
X130622986Y-69453596D01*
X130636408Y-69479321D01*
X130698682Y-69540680D01*
X130786256Y-69582478D01*
X130888762Y-69602690D01*
X130995840Y-69599295D01*
X131097124Y-69570269D01*
X131098709Y-69569555D01*
X131175122Y-69518874D01*
X131216703Y-69465670D01*
X131242748Y-69387553D01*
X131250853Y-69296842D01*
X131241306Y-69209165D01*
X131214394Y-69140146D01*
X131210630Y-69134695D01*
X131138985Y-69068283D01*
X131046347Y-69027077D01*
X130942404Y-69011034D01*
X130836850Y-69020104D01*
X130739378Y-69054245D01*
X130659676Y-69113407D01*
X130639654Y-69137419D01*
X130611701Y-69201796D01*
X130599504Y-69286661D01*
X130395288Y-69286661D01*
X130406178Y-69182395D01*
X130455750Y-69068774D01*
X130540529Y-68972300D01*
X130638032Y-68906341D01*
X130708386Y-68882100D01*
X130804419Y-68866706D01*
X130913662Y-68860290D01*
X131023643Y-68862985D01*
G37*
G36*
X133785676Y-68862985D02*
G01*
X133883928Y-68874925D01*
X133957973Y-68896239D01*
X133966383Y-68900338D01*
X134078402Y-68975027D01*
X134155689Y-69064502D01*
X134202116Y-69174101D01*
X134215870Y-69244675D01*
X134215695Y-69376396D01*
X134181680Y-69497570D01*
X134117269Y-69601821D01*
X134025899Y-69682764D01*
X133961454Y-69716704D01*
X133887090Y-69737601D01*
X133788632Y-69751850D01*
X133681330Y-69758394D01*
X133580436Y-69756180D01*
X133515248Y-69747537D01*
X133385199Y-69702955D01*
X133283266Y-69630927D01*
X133210481Y-69532364D01*
X133178483Y-69451746D01*
X133154796Y-69310829D01*
X133157321Y-69286661D01*
X133361537Y-69286661D01*
X133365248Y-69375949D01*
X133385020Y-69453596D01*
X133398442Y-69479321D01*
X133460716Y-69540680D01*
X133548289Y-69582478D01*
X133650795Y-69602690D01*
X133757873Y-69599295D01*
X133859158Y-69570269D01*
X133860744Y-69569555D01*
X133937157Y-69518874D01*
X133978737Y-69465670D01*
X134004782Y-69387553D01*
X134012887Y-69296842D01*
X134003340Y-69209165D01*
X133976427Y-69140146D01*
X133972664Y-69134695D01*
X133901019Y-69068283D01*
X133808380Y-69027077D01*
X133704438Y-69011034D01*
X133598884Y-69020104D01*
X133501413Y-69054245D01*
X133421711Y-69113407D01*
X133401688Y-69137419D01*
X133373735Y-69201796D01*
X133361537Y-69286661D01*
X133157321Y-69286661D01*
X133168213Y-69182395D01*
X133217783Y-69068774D01*
X133302564Y-68972300D01*
X133400066Y-68906341D01*
X133470420Y-68882100D01*
X133566453Y-68866706D01*
X133675696Y-68860290D01*
X133785676Y-68862985D01*
G37*
G36*
X107374355Y-66730555D02*
G01*
X107543210Y-66732429D01*
X107677249Y-66734314D01*
X107781401Y-66736612D01*
X107860591Y-66739719D01*
X107919746Y-66744037D01*
X107963789Y-66749963D01*
X107997650Y-66757899D01*
X108026250Y-66768241D01*
X108054517Y-66781392D01*
X108064836Y-66786527D01*
X108162844Y-66853259D01*
X108227525Y-66940427D01*
X108261703Y-67051964D01*
X108263290Y-67062682D01*
X108268596Y-67208918D01*
X108241385Y-67332883D01*
X108181828Y-67434150D01*
X108090104Y-67512295D01*
X108074030Y-67521744D01*
X108044735Y-67537449D01*
X108016283Y-67549531D01*
X107983047Y-67558559D01*
X107939401Y-67565097D01*
X107879715Y-67569718D01*
X107798361Y-67572981D01*
X107689716Y-67575460D01*
X107548149Y-67577718D01*
X107513451Y-67578221D01*
X107041520Y-67585021D01*
X107041520Y-67861380D01*
X107041520Y-68137738D01*
X106912360Y-68137738D01*
X106783201Y-68137738D01*
X106783201Y-67430999D01*
X106783201Y-67382648D01*
X107041520Y-67382648D01*
X107426035Y-67382648D01*
X107567205Y-67381458D01*
X107688719Y-67378062D01*
X107785050Y-67372735D01*
X107850666Y-67365749D01*
X107873730Y-67360624D01*
X107935578Y-67319552D01*
X107977168Y-67252080D01*
X107995568Y-67167578D01*
X107987847Y-67075409D01*
X107975572Y-67035244D01*
X107957485Y-67000875D01*
X107929403Y-66974336D01*
X107886577Y-66954672D01*
X107824253Y-66940930D01*
X107737676Y-66932153D01*
X107622096Y-66927390D01*
X107472757Y-66925682D01*
X107429638Y-66925622D01*
X107041520Y-66925622D01*
X107041520Y-67154136D01*
X107041520Y-67382648D01*
X106783201Y-67382648D01*
X106783201Y-67154136D01*
X106783201Y-66724257D01*
X107374355Y-66730555D01*
G37*
G36*
X121646518Y-69161079D02*
G01*
X121646518Y-69747267D01*
X121547165Y-69747267D01*
X121488362Y-69746043D01*
X121459040Y-69738056D01*
X121448943Y-69716831D01*
X121447811Y-69684575D01*
X121445894Y-69643289D01*
X121435614Y-69635737D01*
X121412679Y-69653675D01*
X121323338Y-69711081D01*
X121210535Y-69748855D01*
X121086376Y-69765084D01*
X120962977Y-69757852D01*
X120882644Y-69737487D01*
X120780318Y-69689030D01*
X120704328Y-69621957D01*
X120653449Y-69546799D01*
X120625847Y-69489158D01*
X120610711Y-69430250D01*
X120604812Y-69354516D01*
X120604337Y-69312437D01*
X120805324Y-69312437D01*
X120820938Y-69424125D01*
X120866892Y-69510555D01*
X120941858Y-69570479D01*
X121044509Y-69602649D01*
X121119943Y-69608109D01*
X121196774Y-69600600D01*
X121268521Y-69581610D01*
X121287433Y-69573366D01*
X121370904Y-69511751D01*
X121422286Y-69427458D01*
X121441751Y-69336428D01*
X121433990Y-69228560D01*
X121393375Y-69139163D01*
X121323876Y-69071772D01*
X121229469Y-69029917D01*
X121114125Y-69017131D01*
X121084459Y-69018723D01*
X120969941Y-69040152D01*
X120887333Y-69084227D01*
X120834335Y-69153370D01*
X120808650Y-69249998D01*
X120805324Y-69312437D01*
X120604337Y-69312437D01*
X120604312Y-69310111D01*
X120616971Y-69175220D01*
X120656222Y-69066980D01*
X120724177Y-68980727D01*
X120770743Y-68943583D01*
X120882552Y-68888614D01*
X121011145Y-68861600D01*
X121144859Y-68862749D01*
X121272028Y-68892264D01*
X121356355Y-68933303D01*
X121447811Y-68991303D01*
X121447811Y-68783097D01*
X121447811Y-68574893D01*
X121547165Y-68574893D01*
X121646518Y-68574893D01*
X121646518Y-69161079D01*
G37*
G36*
X124050879Y-69161079D02*
G01*
X124050879Y-69747267D01*
X123951525Y-69747267D01*
X123892723Y-69746043D01*
X123863401Y-69738056D01*
X123853304Y-69716831D01*
X123852172Y-69684575D01*
X123850255Y-69643289D01*
X123839974Y-69635737D01*
X123817039Y-69653675D01*
X123727698Y-69711081D01*
X123614895Y-69748855D01*
X123490737Y-69765084D01*
X123367338Y-69757852D01*
X123287004Y-69737487D01*
X123184680Y-69689030D01*
X123108689Y-69621957D01*
X123057811Y-69546799D01*
X123030208Y-69489158D01*
X123015072Y-69430250D01*
X123009172Y-69354516D01*
X123008698Y-69312437D01*
X123209684Y-69312437D01*
X123225298Y-69424125D01*
X123271252Y-69510555D01*
X123346218Y-69570479D01*
X123448869Y-69602649D01*
X123524305Y-69608109D01*
X123601135Y-69600600D01*
X123672881Y-69581610D01*
X123691793Y-69573366D01*
X123775265Y-69511751D01*
X123826647Y-69427458D01*
X123846111Y-69336428D01*
X123838350Y-69228560D01*
X123797736Y-69139163D01*
X123728239Y-69071772D01*
X123633831Y-69029917D01*
X123518486Y-69017131D01*
X123488820Y-69018723D01*
X123374303Y-69040152D01*
X123291693Y-69084227D01*
X123238695Y-69153370D01*
X123213010Y-69249998D01*
X123209684Y-69312437D01*
X123008698Y-69312437D01*
X123008672Y-69310111D01*
X123021331Y-69175220D01*
X123060582Y-69066980D01*
X123128539Y-68980727D01*
X123175104Y-68943583D01*
X123286912Y-68888614D01*
X123415507Y-68861600D01*
X123549219Y-68862749D01*
X123676389Y-68892264D01*
X123760717Y-68933303D01*
X123852172Y-68991303D01*
X123852172Y-68783097D01*
X123852172Y-68574893D01*
X123951525Y-68574893D01*
X124050879Y-68574893D01*
X124050879Y-69161079D01*
G37*
G36*
X127051363Y-69161079D02*
G01*
X127051363Y-69747267D01*
X126952008Y-69747267D01*
X126893207Y-69746043D01*
X126863885Y-69738056D01*
X126853787Y-69716831D01*
X126852655Y-69684575D01*
X126850738Y-69643289D01*
X126840457Y-69635737D01*
X126817523Y-69653675D01*
X126728182Y-69711081D01*
X126615378Y-69748855D01*
X126491221Y-69765084D01*
X126367821Y-69757852D01*
X126287487Y-69737487D01*
X126185163Y-69689030D01*
X126109171Y-69621957D01*
X126058294Y-69546799D01*
X126030691Y-69489158D01*
X126015555Y-69430250D01*
X126009656Y-69354516D01*
X126009181Y-69312437D01*
X126210166Y-69312437D01*
X126225780Y-69424125D01*
X126271734Y-69510555D01*
X126346701Y-69570479D01*
X126449353Y-69602649D01*
X126524788Y-69608109D01*
X126601617Y-69600600D01*
X126673366Y-69581610D01*
X126692275Y-69573366D01*
X126775748Y-69511751D01*
X126827129Y-69427458D01*
X126846594Y-69336428D01*
X126838832Y-69228560D01*
X126798218Y-69139163D01*
X126728721Y-69071772D01*
X126634314Y-69029917D01*
X126518968Y-69017131D01*
X126489304Y-69018723D01*
X126374785Y-69040152D01*
X126292176Y-69084227D01*
X126239179Y-69153370D01*
X126213492Y-69249998D01*
X126210166Y-69312437D01*
X126009181Y-69312437D01*
X126009154Y-69310111D01*
X126021815Y-69175220D01*
X126061064Y-69066980D01*
X126129021Y-68980727D01*
X126175587Y-68943583D01*
X126287397Y-68888614D01*
X126415990Y-68861600D01*
X126549702Y-68862749D01*
X126676872Y-68892264D01*
X126761199Y-68933303D01*
X126852655Y-68991303D01*
X126852655Y-68783097D01*
X126852655Y-68574893D01*
X126952008Y-68574893D01*
X127051363Y-68574893D01*
X127051363Y-69161079D01*
G37*
G36*
X109271317Y-67060035D02*
G01*
X109277374Y-67060952D01*
X109439632Y-67099622D01*
X109570340Y-67160901D01*
X109671462Y-67246032D01*
X109744955Y-67356255D01*
X109745654Y-67357688D01*
X109779324Y-67461290D01*
X109794128Y-67584558D01*
X109790063Y-67712184D01*
X109767129Y-67828856D01*
X109745654Y-67884510D01*
X109671606Y-67992910D01*
X109568056Y-68079903D01*
X109440020Y-68143777D01*
X109292513Y-68182824D01*
X109130548Y-68195333D01*
X108959144Y-68179594D01*
X108909371Y-68169720D01*
X108757777Y-68122062D01*
X108639264Y-68052912D01*
X108552448Y-67960561D01*
X108495935Y-67843289D01*
X108468338Y-67699384D01*
X108467003Y-67668446D01*
X108714059Y-67668446D01*
X108740775Y-67784265D01*
X108798568Y-67877278D01*
X108886314Y-67945539D01*
X108978919Y-67981435D01*
X109046747Y-67990468D01*
X109134335Y-67990605D01*
X109226624Y-67983043D01*
X109308555Y-67968976D01*
X109362541Y-67950960D01*
X109448641Y-67885648D01*
X109509910Y-67796224D01*
X109536352Y-67710423D01*
X109541374Y-67574467D01*
X109513715Y-67457658D01*
X109454398Y-67362422D01*
X109364440Y-67291188D01*
X109359063Y-67288249D01*
X109295652Y-67267836D01*
X109207335Y-67256293D01*
X109107939Y-67253623D01*
X109011298Y-67259826D01*
X108931240Y-67274901D01*
X108896835Y-67288249D01*
X108807592Y-67356366D01*
X108745564Y-67446708D01*
X108719546Y-67531775D01*
X108714059Y-67668446D01*
X108467003Y-67668446D01*
X108464957Y-67621099D01*
X108475964Y-67472083D01*
X108512324Y-67350652D01*
X108577115Y-67251475D01*
X108673418Y-67169221D01*
X108752664Y-67123177D01*
X108860461Y-67083463D01*
X108991992Y-67058616D01*
X109133524Y-67050264D01*
X109271317Y-67060035D01*
G37*
G36*
X112708957Y-67060035D02*
G01*
X112715014Y-67060952D01*
X112877271Y-67099622D01*
X113007981Y-67160901D01*
X113109102Y-67246032D01*
X113182595Y-67356255D01*
X113183293Y-67357688D01*
X113216964Y-67461290D01*
X113231766Y-67584558D01*
X113227701Y-67712184D01*
X113204769Y-67828856D01*
X113183293Y-67884510D01*
X113109245Y-67992910D01*
X113005695Y-68079903D01*
X112877658Y-68143777D01*
X112730153Y-68182824D01*
X112568187Y-68195333D01*
X112396783Y-68179594D01*
X112347011Y-68169720D01*
X112195416Y-68122062D01*
X112076904Y-68052912D01*
X111990087Y-67960561D01*
X111933575Y-67843289D01*
X111905977Y-67699384D01*
X111904641Y-67668446D01*
X112151699Y-67668446D01*
X112178415Y-67784265D01*
X112236207Y-67877278D01*
X112323953Y-67945539D01*
X112416558Y-67981435D01*
X112484386Y-67990468D01*
X112571974Y-67990605D01*
X112664262Y-67983043D01*
X112746195Y-67968976D01*
X112800181Y-67950960D01*
X112886281Y-67885648D01*
X112947549Y-67796224D01*
X112973992Y-67710423D01*
X112979013Y-67574467D01*
X112951355Y-67457658D01*
X112892037Y-67362422D01*
X112802079Y-67291188D01*
X112796703Y-67288249D01*
X112733292Y-67267836D01*
X112644974Y-67256293D01*
X112545579Y-67253623D01*
X112448937Y-67259826D01*
X112368879Y-67274901D01*
X112334474Y-67288249D01*
X112245231Y-67356366D01*
X112183203Y-67446708D01*
X112157186Y-67531775D01*
X112151699Y-67668446D01*
X111904641Y-67668446D01*
X111902596Y-67621099D01*
X111913603Y-67472083D01*
X111949964Y-67350652D01*
X112014755Y-67251475D01*
X112111059Y-67169221D01*
X112190303Y-67123177D01*
X112298100Y-67083463D01*
X112429632Y-67058616D01*
X112571164Y-67050264D01*
X112708957Y-67060035D01*
G37*
G36*
X116783637Y-67079766D02*
G01*
X116852019Y-67089642D01*
X116915517Y-67110085D01*
X116987868Y-67143229D01*
X117071332Y-67189547D01*
X117129279Y-67236589D01*
X117174673Y-67294984D01*
X117176493Y-67297836D01*
X117237085Y-67428577D01*
X117265772Y-67572873D01*
X117262481Y-67720831D01*
X117227139Y-67862555D01*
X117181243Y-67956096D01*
X117103650Y-68045720D01*
X116998704Y-68115198D01*
X116874005Y-68163310D01*
X116737148Y-68188829D01*
X116595728Y-68190534D01*
X116457344Y-68167201D01*
X116329593Y-68117608D01*
X116296322Y-68098576D01*
X116201936Y-68040025D01*
X116201936Y-68287587D01*
X116201936Y-68535151D01*
X116042969Y-68535151D01*
X115884002Y-68535151D01*
X115884002Y-67809871D01*
X115884002Y-67631033D01*
X116201936Y-67631033D01*
X116216387Y-67747240D01*
X116260344Y-67837424D01*
X116334713Y-67903160D01*
X116368940Y-67921069D01*
X116467264Y-67949413D01*
X116582914Y-67958281D01*
X116698609Y-67947742D01*
X116793760Y-67919395D01*
X116871163Y-67863419D01*
X116925861Y-67779828D01*
X116953577Y-67676219D01*
X116956151Y-67631033D01*
X116940300Y-67515100D01*
X116893393Y-67423544D01*
X116816399Y-67357212D01*
X116710290Y-67316949D01*
X116580785Y-67303602D01*
X116446455Y-67316703D01*
X116340665Y-67356592D01*
X116264157Y-67422629D01*
X116217668Y-67514178D01*
X116201936Y-67630599D01*
X116201936Y-67631033D01*
X115884002Y-67631033D01*
X115884002Y-67630599D01*
X115884002Y-67084588D01*
X116042969Y-67084588D01*
X116201936Y-67084588D01*
X116201936Y-67163939D01*
X116201936Y-67243293D01*
X116291808Y-67174692D01*
X116358788Y-67130039D01*
X116427587Y-67100525D01*
X116508533Y-67083618D01*
X116611956Y-67076791D01*
X116692989Y-67076525D01*
X116783637Y-67079766D01*
G37*
G36*
X117556858Y-68866575D02*
G01*
X117669499Y-68884641D01*
X117716869Y-68899355D01*
X117819334Y-68959170D01*
X117902317Y-69047956D01*
X117960495Y-69157549D01*
X117988553Y-69279789D01*
X117990302Y-69318909D01*
X117990302Y-69369723D01*
X117573016Y-69369723D01*
X117429393Y-69369842D01*
X117321169Y-69370968D01*
X117244005Y-69374253D01*
X117193557Y-69380851D01*
X117165484Y-69391915D01*
X117155447Y-69408594D01*
X117159102Y-69432046D01*
X117172108Y-69463421D01*
X117177295Y-69474793D01*
X117225254Y-69533612D01*
X117305781Y-69576417D01*
X117414116Y-69600823D01*
X117432546Y-69602755D01*
X117561562Y-69600710D01*
X117664830Y-69568972D01*
X117732525Y-69518177D01*
X117772922Y-69485761D01*
X117823741Y-69471436D01*
X117874542Y-69469076D01*
X117937449Y-69473362D01*
X117966356Y-69489881D01*
X117963577Y-69524127D01*
X117931431Y-69581589D01*
X117925694Y-69590330D01*
X117851078Y-69667065D01*
X117744438Y-69720708D01*
X117606235Y-69751061D01*
X117541914Y-69756652D01*
X117453573Y-69758633D01*
X117368875Y-69755682D01*
X117305084Y-69748439D01*
X117301313Y-69747674D01*
X117170697Y-69702915D01*
X117068488Y-69630858D01*
X116995604Y-69532371D01*
X116955568Y-69420650D01*
X116943102Y-69286651D01*
X116960237Y-69188898D01*
X117155731Y-69188898D01*
X117172953Y-69198336D01*
X117225532Y-69205056D01*
X117314840Y-69209156D01*
X117442249Y-69210731D01*
X117463727Y-69210756D01*
X117596713Y-69209534D01*
X117691402Y-69205802D01*
X117749165Y-69199466D01*
X117771373Y-69190423D01*
X117771724Y-69188898D01*
X117758677Y-69162823D01*
X117725661Y-69121987D01*
X117705946Y-69101263D01*
X117623872Y-69045389D01*
X117524024Y-69016592D01*
X117417697Y-69014860D01*
X117316189Y-69040175D01*
X117230796Y-69092518D01*
X117220786Y-69101986D01*
X117181826Y-69145329D01*
X117158591Y-69179639D01*
X117155731Y-69188898D01*
X116960237Y-69188898D01*
X116964982Y-69161829D01*
X117018366Y-69051966D01*
X117100415Y-68962849D01*
X117208291Y-68900261D01*
X117211638Y-68898953D01*
X117311542Y-68873718D01*
X117432077Y-68862930D01*
X117556858Y-68866575D01*
G37*
G36*
X119842916Y-67070153D02*
G01*
X120004769Y-67106544D01*
X120135118Y-67167074D01*
X120234013Y-67251768D01*
X120297572Y-67351734D01*
X120323590Y-67412412D01*
X120331314Y-67450513D01*
X120315676Y-67471236D01*
X120271598Y-67479775D01*
X120194014Y-67481323D01*
X120171117Y-67481238D01*
X120090379Y-67480283D01*
X120039426Y-67476243D01*
X120008300Y-67465959D01*
X119987045Y-67446278D01*
X119967338Y-67416657D01*
X119914767Y-67352762D01*
X119847496Y-67311772D01*
X119758379Y-67291020D01*
X119640276Y-67287835D01*
X119624214Y-67288490D01*
X119519371Y-67297688D01*
X119442827Y-67317257D01*
X119383503Y-67352183D01*
X119330322Y-67407449D01*
X119314639Y-67427763D01*
X119278802Y-67504484D01*
X119264653Y-67600570D01*
X119272746Y-67701730D01*
X119300606Y-67787592D01*
X119353069Y-67865344D01*
X119425715Y-67918194D01*
X119523600Y-67948544D01*
X119651781Y-67958798D01*
X119660751Y-67958826D01*
X119781240Y-67949624D01*
X119871985Y-67920368D01*
X119938979Y-67868392D01*
X119973572Y-67819517D01*
X119991778Y-67790526D01*
X120012230Y-67773008D01*
X120044601Y-67764067D01*
X120098567Y-67760801D01*
X120171117Y-67760319D01*
X120259291Y-67761903D01*
X120312132Y-67770528D01*
X120334023Y-67791756D01*
X120329340Y-67831152D01*
X120302468Y-67894275D01*
X120292672Y-67914672D01*
X120226566Y-68008123D01*
X120129423Y-68085896D01*
X120008683Y-68142265D01*
X119989030Y-68148510D01*
X119902478Y-68167013D01*
X119791531Y-68180430D01*
X119671014Y-68187939D01*
X119555760Y-68188719D01*
X119460600Y-68181951D01*
X119440867Y-68178835D01*
X119282651Y-68134056D01*
X119154564Y-68063612D01*
X119056129Y-67967184D01*
X119009195Y-67893089D01*
X118981377Y-67833339D01*
X118965027Y-67777271D01*
X118957248Y-67710301D01*
X118955151Y-67621099D01*
X118956468Y-67532781D01*
X118963071Y-67469763D01*
X118978017Y-67417672D01*
X119004365Y-67362128D01*
X119013958Y-67344441D01*
X119088491Y-67238851D01*
X119183465Y-67158980D01*
X119302357Y-67103258D01*
X119448639Y-67070119D01*
X119625789Y-67057999D01*
X119649511Y-67057881D01*
X119842916Y-67070153D01*
G37*
G36*
X124869292Y-68866575D02*
G01*
X124981932Y-68884641D01*
X125029303Y-68899355D01*
X125131768Y-68959170D01*
X125214749Y-69047956D01*
X125272929Y-69157549D01*
X125300986Y-69279789D01*
X125302737Y-69318909D01*
X125302737Y-69369723D01*
X124885452Y-69369723D01*
X124741828Y-69369842D01*
X124633604Y-69370968D01*
X124556439Y-69374253D01*
X124505989Y-69380851D01*
X124477918Y-69391915D01*
X124467880Y-69408594D01*
X124471535Y-69432046D01*
X124484542Y-69463421D01*
X124489730Y-69474793D01*
X124537687Y-69533612D01*
X124618216Y-69576417D01*
X124726551Y-69600823D01*
X124744979Y-69602755D01*
X124873995Y-69600710D01*
X124977264Y-69568972D01*
X125044959Y-69518177D01*
X125085355Y-69485761D01*
X125136173Y-69471436D01*
X125186976Y-69469076D01*
X125249883Y-69473362D01*
X125278788Y-69489881D01*
X125276010Y-69524127D01*
X125243865Y-69581589D01*
X125238128Y-69590330D01*
X125163511Y-69667065D01*
X125056871Y-69720708D01*
X124918669Y-69751061D01*
X124854347Y-69756652D01*
X124766007Y-69758633D01*
X124681310Y-69755682D01*
X124617519Y-69748439D01*
X124613746Y-69747674D01*
X124483130Y-69702915D01*
X124380924Y-69630858D01*
X124308037Y-69532371D01*
X124268000Y-69420650D01*
X124255534Y-69286651D01*
X124272671Y-69188898D01*
X124468165Y-69188898D01*
X124485386Y-69198336D01*
X124537965Y-69205056D01*
X124627274Y-69209156D01*
X124754683Y-69210731D01*
X124776162Y-69210756D01*
X124909147Y-69209534D01*
X125003836Y-69205802D01*
X125061598Y-69199466D01*
X125083808Y-69190423D01*
X125084158Y-69188898D01*
X125071111Y-69162823D01*
X125038094Y-69121987D01*
X125018381Y-69101263D01*
X124936307Y-69045389D01*
X124836458Y-69016592D01*
X124730130Y-69014860D01*
X124628622Y-69040175D01*
X124543229Y-69092518D01*
X124533220Y-69101986D01*
X124494258Y-69145329D01*
X124471026Y-69179639D01*
X124468165Y-69188898D01*
X124272671Y-69188898D01*
X124277414Y-69161829D01*
X124330798Y-69051966D01*
X124412848Y-68962849D01*
X124520724Y-68900261D01*
X124524073Y-68898953D01*
X124623976Y-68873718D01*
X124744512Y-68862930D01*
X124869292Y-68866575D01*
G37*
G36*
X124971449Y-67056758D02*
G01*
X125040927Y-67061921D01*
X125097213Y-67073497D01*
X125153563Y-67093973D01*
X125205539Y-67117465D01*
X125325481Y-67190038D01*
X125414309Y-67282194D01*
X125474769Y-67398055D01*
X125509606Y-67541747D01*
X125514527Y-67581478D01*
X125526976Y-67700582D01*
X124995417Y-67700582D01*
X124463857Y-67700582D01*
X124476843Y-67755225D01*
X124518214Y-67848747D01*
X124591836Y-67920212D01*
X124696278Y-67968669D01*
X124830115Y-67993156D01*
X124832446Y-67993343D01*
X124970801Y-67991310D01*
X125087143Y-67962517D01*
X125177056Y-67908155D01*
X125188180Y-67897677D01*
X125224357Y-67865692D01*
X125260775Y-67848211D01*
X125311248Y-67840969D01*
X125375939Y-67839677D01*
X125445759Y-67841026D01*
X125483289Y-67846390D01*
X125495930Y-67857747D01*
X125493634Y-67871109D01*
X125482926Y-67908513D01*
X125481572Y-67920094D01*
X125467081Y-67951488D01*
X125429965Y-67996705D01*
X125379761Y-68046224D01*
X125326005Y-68090522D01*
X125284116Y-68117228D01*
X125165192Y-68161062D01*
X125022739Y-68186716D01*
X124869087Y-68193143D01*
X124716567Y-68179297D01*
X124666873Y-68169720D01*
X124515347Y-68122080D01*
X124396872Y-68052919D01*
X124310001Y-67960460D01*
X124253295Y-67842926D01*
X124225310Y-67698541D01*
X124221673Y-67621099D01*
X124230563Y-67480189D01*
X124230786Y-67479382D01*
X124488036Y-67479382D01*
X124502237Y-67488017D01*
X124546497Y-67494435D01*
X124623296Y-67498785D01*
X124735119Y-67501211D01*
X124865580Y-67501873D01*
X125003989Y-67501250D01*
X125106694Y-67499203D01*
X125177717Y-67495469D01*
X125221078Y-67489784D01*
X125240798Y-67481881D01*
X125243049Y-67477036D01*
X125227127Y-67425861D01*
X125186413Y-67368266D01*
X125131102Y-67316695D01*
X125091472Y-67291964D01*
X125008769Y-67265948D01*
X124904979Y-67253800D01*
X124795835Y-67255561D01*
X124697077Y-67271274D01*
X124642347Y-67290701D01*
X124587395Y-67328833D01*
X124536568Y-67382052D01*
X124500105Y-67437833D01*
X124488036Y-67479382D01*
X124230786Y-67479382D01*
X124262129Y-67365763D01*
X124319672Y-67269608D01*
X124393224Y-67194599D01*
X124482730Y-67131435D01*
X124583356Y-67088837D01*
X124703519Y-67064377D01*
X124851642Y-67055626D01*
X124875516Y-67055517D01*
X124971449Y-67056758D01*
G37*
G36*
X128014427Y-67079012D02*
G01*
X128136883Y-67114475D01*
X128239468Y-67173456D01*
X128257557Y-67188834D01*
X128301313Y-67228820D01*
X128361373Y-67178283D01*
X128431848Y-67130207D01*
X128513675Y-67098455D01*
X128615689Y-67080732D01*
X128746726Y-67074747D01*
X128760247Y-67074706D01*
X128852286Y-67075797D01*
X128916583Y-67080695D01*
X128965112Y-67091741D01*
X129009845Y-67111277D01*
X129043295Y-67130070D01*
X129093145Y-67161141D01*
X129131747Y-67192160D01*
X129160631Y-67228564D01*
X129181326Y-67275794D01*
X129195367Y-67339286D01*
X129204283Y-67424480D01*
X129209608Y-67536814D01*
X129212869Y-67681727D01*
X129213719Y-67735355D01*
X129220102Y-68157608D01*
X129089527Y-68157608D01*
X128958954Y-68157608D01*
X128958954Y-67798948D01*
X128957945Y-67651116D01*
X128954004Y-67537622D01*
X128945757Y-67453104D01*
X128931827Y-67392189D01*
X128910840Y-67349508D01*
X128881424Y-67319692D01*
X128842205Y-67297374D01*
X128829113Y-67291665D01*
X128720562Y-67264250D01*
X128610354Y-67267725D01*
X128508188Y-67299695D01*
X128423768Y-67357769D01*
X128388066Y-67400491D01*
X128371671Y-67427240D01*
X128359810Y-67455333D01*
X128351753Y-67491444D01*
X128346770Y-67542243D01*
X128344132Y-67614404D01*
X128343107Y-67714600D01*
X128342961Y-67812808D01*
X128342961Y-68157608D01*
X128213801Y-68157608D01*
X128084641Y-68157608D01*
X128084568Y-67794968D01*
X128084141Y-67663751D01*
X128082542Y-67565917D01*
X128079202Y-67495115D01*
X128073546Y-67444992D01*
X128065008Y-67409193D01*
X128053015Y-67381367D01*
X128046363Y-67369796D01*
X127988602Y-67310223D01*
X127909144Y-67274842D01*
X127816983Y-67262592D01*
X127721112Y-67272413D01*
X127630522Y-67303247D01*
X127554204Y-67354031D01*
X127501154Y-67423707D01*
X127496206Y-67434642D01*
X127484355Y-67478655D01*
X127476036Y-67547933D01*
X127470944Y-67646818D01*
X127468774Y-67779657D01*
X127468648Y-67829104D01*
X127468648Y-68157608D01*
X127339488Y-68157608D01*
X127210327Y-68157608D01*
X127210327Y-67621099D01*
X127210327Y-67084588D01*
X127339488Y-67084588D01*
X127468648Y-67084588D01*
X127468648Y-67155903D01*
X127468648Y-67227217D01*
X127529582Y-67175944D01*
X127629679Y-67115532D01*
X127750642Y-67079359D01*
X127882285Y-67067246D01*
X128014427Y-67079012D01*
G37*
G36*
X119642728Y-68850251D02*
G01*
X119757749Y-68876778D01*
X119830111Y-68904929D01*
X119896797Y-68954251D01*
X119942344Y-69022748D01*
X119957507Y-69090545D01*
X119952288Y-69115393D01*
X119929959Y-69127496D01*
X119880502Y-69131170D01*
X119862864Y-69131274D01*
X119802055Y-69128017D01*
X119768205Y-69115019D01*
X119748837Y-69087434D01*
X119748608Y-69086916D01*
X119712226Y-69039609D01*
X119649953Y-69009465D01*
X119557216Y-68994820D01*
X119490545Y-68992765D01*
X119381465Y-68998733D01*
X119306731Y-69017700D01*
X119262619Y-69051247D01*
X119245809Y-69096950D01*
X119245693Y-69125908D01*
X119256512Y-69147925D01*
X119283518Y-69164760D01*
X119331966Y-69178177D01*
X119407110Y-69189938D01*
X119514202Y-69201806D01*
X119576488Y-69207865D01*
X119719373Y-69224839D01*
X119827081Y-69246910D01*
X119904115Y-69276996D01*
X119954982Y-69318022D01*
X119984182Y-69372906D01*
X119996225Y-69444572D01*
X119997249Y-69480753D01*
X119985221Y-69575731D01*
X119945917Y-69645996D01*
X119874511Y-69698524D01*
X119833686Y-69717015D01*
X119754371Y-69738447D01*
X119649129Y-69752751D01*
X119531228Y-69759350D01*
X119413939Y-69757667D01*
X119310532Y-69747120D01*
X119279807Y-69741166D01*
X119172913Y-69709950D01*
X119098594Y-69669324D01*
X119049829Y-69613270D01*
X119019596Y-69535779D01*
X119014418Y-69513785D01*
X119000553Y-69449205D01*
X119101978Y-69449205D01*
X119163935Y-69451654D01*
X119198200Y-69462102D01*
X119216679Y-69485204D01*
X119221109Y-69495779D01*
X119260073Y-69544708D01*
X119334089Y-69577782D01*
X119443771Y-69595205D01*
X119531181Y-69598235D01*
X119626475Y-69595307D01*
X119692249Y-69585434D01*
X119738374Y-69566991D01*
X119744793Y-69563004D01*
X119786051Y-69518731D01*
X119798295Y-69466648D01*
X119779381Y-69419600D01*
X119770255Y-69410725D01*
X119740625Y-69399808D01*
X119679860Y-69386752D01*
X119596394Y-69373088D01*
X119498667Y-69360350D01*
X119483465Y-69358631D01*
X119382019Y-69346425D01*
X119291282Y-69333716D01*
X119220518Y-69321923D01*
X119178994Y-69312467D01*
X119176557Y-69311609D01*
X119109127Y-69266355D01*
X119063715Y-69196142D01*
X119043737Y-69111130D01*
X119052597Y-69021478D01*
X119066379Y-68983470D01*
X119110930Y-68930363D01*
X119186208Y-68888577D01*
X119284618Y-68858892D01*
X119398570Y-68842089D01*
X119520471Y-68838949D01*
X119642728Y-68850251D01*
G37*
G36*
X122505650Y-68867777D02*
G01*
X122626373Y-68893282D01*
X122660913Y-68905473D01*
X122706445Y-68927134D01*
X122740818Y-68954470D01*
X122765567Y-68992972D01*
X122782223Y-69048130D01*
X122792324Y-69125443D01*
X122797401Y-69230396D01*
X122798988Y-69368486D01*
X122799023Y-69399980D01*
X122799023Y-69729573D01*
X122704635Y-69723517D01*
X122645820Y-69716886D01*
X122616045Y-69703373D01*
X122604646Y-69677740D01*
X122604085Y-69674163D01*
X122597920Y-69630864D01*
X122529062Y-69677592D01*
X122417894Y-69731322D01*
X122287588Y-69759263D01*
X122150278Y-69760141D01*
X122018105Y-69732686D01*
X122014587Y-69731494D01*
X121919119Y-69681853D01*
X121856717Y-69611614D01*
X121829074Y-69524203D01*
X121832805Y-69481368D01*
X122029015Y-69481368D01*
X122032695Y-69527055D01*
X122071496Y-69577922D01*
X122072836Y-69579269D01*
X122109080Y-69608332D01*
X122152134Y-69622990D01*
X122216573Y-69627539D01*
X122236770Y-69627606D01*
X122333321Y-69618810D01*
X122418650Y-69596080D01*
X122431414Y-69590670D01*
X122516277Y-69540360D01*
X122568114Y-69479154D01*
X122593542Y-69398955D01*
X122594732Y-69390735D01*
X122599023Y-69339145D01*
X122592062Y-69318799D01*
X122578147Y-69319737D01*
X122548265Y-69326210D01*
X122487986Y-69335879D01*
X122406386Y-69347379D01*
X122322751Y-69358105D01*
X122220460Y-69371679D01*
X122150151Y-69384165D01*
X122104193Y-69397637D01*
X122074952Y-69414174D01*
X122059463Y-69429760D01*
X122029015Y-69481368D01*
X121832805Y-69481368D01*
X121837887Y-69423036D01*
X121846984Y-69393094D01*
X121871732Y-69343472D01*
X121910617Y-69304977D01*
X121969080Y-69275411D01*
X122052560Y-69252572D01*
X122166494Y-69234264D01*
X122268186Y-69222877D01*
X122368368Y-69212097D01*
X122454923Y-69201247D01*
X122519822Y-69191448D01*
X122555035Y-69183814D01*
X122558114Y-69182471D01*
X122577310Y-69150590D01*
X122577561Y-69103722D01*
X122559870Y-69061254D01*
X122551379Y-69052407D01*
X122508137Y-69033890D01*
X122438722Y-69021662D01*
X122356328Y-69016567D01*
X122274151Y-69019454D01*
X122208206Y-69030385D01*
X122151252Y-69053108D01*
X122110385Y-69082467D01*
X122103185Y-69092208D01*
X122074044Y-69115753D01*
X122025196Y-69130039D01*
X121969516Y-69134575D01*
X121919890Y-69128875D01*
X121889196Y-69112450D01*
X121884968Y-69100481D01*
X121900208Y-69041219D01*
X121938330Y-68979273D01*
X121987939Y-68932064D01*
X121999561Y-68925234D01*
X122103421Y-68887731D01*
X122231102Y-68865392D01*
X122369534Y-68858610D01*
X122505650Y-68867777D01*
G37*
G36*
X121408896Y-67068261D02*
G01*
X121567789Y-67105502D01*
X121696584Y-67168123D01*
X121795885Y-67256572D01*
X121866299Y-67371302D01*
X121908429Y-67512766D01*
X121917442Y-67576390D01*
X121930370Y-67700582D01*
X121381094Y-67700582D01*
X121237992Y-67700911D01*
X121108783Y-67701845D01*
X120998524Y-67703290D01*
X120912275Y-67705164D01*
X120855099Y-67707374D01*
X120832051Y-67709836D01*
X120831819Y-67710114D01*
X120838551Y-67732792D01*
X120855465Y-67778429D01*
X120863629Y-67799152D01*
X120907447Y-67873900D01*
X120972824Y-67926202D01*
X121064954Y-67958852D01*
X121189036Y-67974650D01*
X121189855Y-67974696D01*
X121317280Y-67974982D01*
X121414770Y-67957859D01*
X121488966Y-67921469D01*
X121535297Y-67878093D01*
X121562122Y-67849064D01*
X121589407Y-67831721D01*
X121627911Y-67823066D01*
X121688400Y-67820100D01*
X121744589Y-67819807D01*
X121826986Y-67822215D01*
X121882348Y-67828929D01*
X121904656Y-67839175D01*
X121904839Y-67840315D01*
X121886907Y-67913210D01*
X121838184Y-67988622D01*
X121766280Y-68058825D01*
X121678803Y-68116097D01*
X121602089Y-68147603D01*
X121529515Y-68163135D01*
X121430872Y-68176040D01*
X121319804Y-68185379D01*
X121209949Y-68190220D01*
X121114944Y-68189621D01*
X121060331Y-68184838D01*
X120898017Y-68147424D01*
X120767353Y-68089434D01*
X120664784Y-68008723D01*
X120586752Y-67903150D01*
X120583745Y-67897758D01*
X120553750Y-67838766D01*
X120535989Y-67787159D01*
X120527407Y-67728558D01*
X120524949Y-67648587D01*
X120524939Y-67621099D01*
X120527146Y-67529818D01*
X120534210Y-67470858D01*
X120853236Y-67470858D01*
X120872890Y-67486078D01*
X120918370Y-67495274D01*
X120993306Y-67499960D01*
X121101328Y-67501655D01*
X121219298Y-67501873D01*
X121350943Y-67501446D01*
X121447814Y-67499900D01*
X121514873Y-67496843D01*
X121557079Y-67491885D01*
X121579395Y-67484627D01*
X121586779Y-67474681D01*
X121586907Y-67472759D01*
X121571152Y-67430782D01*
X121530966Y-67380321D01*
X121476960Y-67331636D01*
X121419745Y-67294987D01*
X121391531Y-67283889D01*
X121290480Y-67267298D01*
X121175317Y-67265520D01*
X121068804Y-67278557D01*
X121047062Y-67283889D01*
X120985509Y-67313279D01*
X120925063Y-67361043D01*
X120912936Y-67373889D01*
X120876887Y-67416279D01*
X120855779Y-67448098D01*
X120853236Y-67470858D01*
X120534210Y-67470858D01*
X120535089Y-67463522D01*
X120551706Y-67407550D01*
X120579701Y-67347690D01*
X120654179Y-67239938D01*
X120753457Y-67157850D01*
X120879640Y-67100464D01*
X121034841Y-67066817D01*
X121219298Y-67055949D01*
X121408896Y-67068261D01*
G37*
G36*
X115023734Y-66705171D02*
G01*
X115179961Y-66729353D01*
X115318249Y-66767302D01*
X115430241Y-66818378D01*
X115463913Y-66840908D01*
X115524585Y-66904298D01*
X115573461Y-66987412D01*
X115601726Y-67073515D01*
X115605377Y-67109427D01*
X115605813Y-67164070D01*
X115441021Y-67164070D01*
X115276228Y-67164070D01*
X115257217Y-67101110D01*
X115220473Y-67032084D01*
X115155920Y-66981175D01*
X115061023Y-66947346D01*
X114933244Y-66929555D01*
X114830722Y-66926096D01*
X114703665Y-66931192D01*
X114607830Y-66948569D01*
X114536117Y-66979992D01*
X114499805Y-67008095D01*
X114459853Y-67068108D01*
X114454542Y-67132321D01*
X114481397Y-67190742D01*
X114537939Y-67233376D01*
X114557477Y-67240729D01*
X114598070Y-67249084D01*
X114670429Y-67259688D01*
X114766712Y-67271561D01*
X114879072Y-67283723D01*
X114979426Y-67293385D01*
X115143336Y-67310140D01*
X115272968Y-67328252D01*
X115373786Y-67349303D01*
X115451253Y-67374867D01*
X115510833Y-67406526D01*
X115557989Y-67445856D01*
X115575943Y-67465681D01*
X115630262Y-67559004D01*
X115657257Y-67669933D01*
X115656675Y-67786980D01*
X115628271Y-67898660D01*
X115586975Y-67974195D01*
X115518265Y-68045749D01*
X115425511Y-68101521D01*
X115305304Y-68142630D01*
X115154240Y-68170191D01*
X114968913Y-68185325D01*
X114940143Y-68186512D01*
X114832748Y-68188475D01*
X114726764Y-68186956D01*
X114635853Y-68182331D01*
X114583179Y-68176652D01*
X114422670Y-68142997D01*
X114296691Y-68096325D01*
X114201253Y-68033393D01*
X114132368Y-67950960D01*
X114086046Y-67845783D01*
X114064614Y-67755225D01*
X114051472Y-67680711D01*
X114218641Y-67680711D01*
X114385810Y-67680711D01*
X114426161Y-67776217D01*
X114460758Y-67840881D01*
X114506002Y-67887942D01*
X114568397Y-67920276D01*
X114654445Y-67940754D01*
X114770652Y-67952253D01*
X114831103Y-67955134D01*
X114979895Y-67955718D01*
X115095501Y-67944255D01*
X115182907Y-67919749D01*
X115247107Y-67881199D01*
X115260358Y-67869005D01*
X115296052Y-67811163D01*
X115307756Y-67742686D01*
X115294439Y-67679125D01*
X115274862Y-67650660D01*
X115250305Y-67629431D01*
X115220322Y-67612554D01*
X115178896Y-67598692D01*
X115120014Y-67586512D01*
X115037661Y-67574680D01*
X114925823Y-67561864D01*
X114829335Y-67551850D01*
X114663791Y-67534165D01*
X114532536Y-67517585D01*
X114430196Y-67500672D01*
X114351400Y-67481988D01*
X114290776Y-67460094D01*
X114242953Y-67433552D01*
X114202559Y-67400924D01*
X114179732Y-67377912D01*
X114137893Y-67309480D01*
X114111362Y-67218047D01*
X114102833Y-67118299D01*
X114114984Y-67024977D01*
X114159971Y-66930264D01*
X114235769Y-66846040D01*
X114333493Y-66781013D01*
X114386583Y-66758833D01*
X114530992Y-66721586D01*
X114690891Y-66700651D01*
X114857924Y-66695391D01*
X115023734Y-66705171D01*
G37*
G36*
X126446248Y-67052343D02*
G01*
X126576098Y-67067959D01*
X126692721Y-67095966D01*
X126788616Y-67135713D01*
X126856271Y-67186548D01*
X126872073Y-67207128D01*
X126886210Y-67244033D01*
X126896436Y-67306572D01*
X126903309Y-67399606D01*
X126907056Y-67511809D01*
X126909744Y-67633131D01*
X126912689Y-67762774D01*
X126915503Y-67883713D01*
X126917443Y-67964707D01*
X126922203Y-68159284D01*
X126802978Y-68153478D01*
X126736915Y-68149365D01*
X126700706Y-68141548D01*
X126684507Y-68124506D01*
X126678476Y-68092714D01*
X126677526Y-68083094D01*
X126667586Y-68033495D01*
X126648285Y-68021740D01*
X126615433Y-68046266D01*
X126605933Y-68056417D01*
X126540368Y-68105205D01*
X126446011Y-68144802D01*
X126333129Y-68173344D01*
X126211991Y-68188962D01*
X126092866Y-68189790D01*
X125986023Y-68173960D01*
X125975334Y-68171086D01*
X125861102Y-68128080D01*
X125781701Y-68071336D01*
X125733264Y-67996186D01*
X125711929Y-67897958D01*
X125710117Y-67850486D01*
X125712411Y-67831059D01*
X125963347Y-67831059D01*
X125965843Y-67897346D01*
X125995346Y-67956908D01*
X126033239Y-67988675D01*
X126094644Y-68007661D01*
X126181143Y-68014512D01*
X126280218Y-68009932D01*
X126379350Y-67994623D01*
X126466022Y-67969290D01*
X126479548Y-67963624D01*
X126571228Y-67904644D01*
X126629368Y-67824699D01*
X126653261Y-67724835D01*
X126653873Y-67704377D01*
X126649998Y-67652162D01*
X126639480Y-67630073D01*
X126634367Y-67630854D01*
X126608261Y-67637509D01*
X126550616Y-67647186D01*
X126469409Y-67658690D01*
X126372617Y-67670825D01*
X126351208Y-67673324D01*
X126248755Y-67686423D01*
X126156933Y-67700544D01*
X126084916Y-67714113D01*
X126041871Y-67725555D01*
X126038416Y-67727020D01*
X125987618Y-67770225D01*
X125963347Y-67831059D01*
X125712411Y-67831059D01*
X125723312Y-67738707D01*
X125764308Y-67653425D01*
X125835327Y-67590732D01*
X125867133Y-67573665D01*
X125915638Y-67558596D01*
X125996736Y-67542513D01*
X126103344Y-67526607D01*
X126228379Y-67512069D01*
X126240102Y-67510888D01*
X126373576Y-67496924D01*
X126472769Y-67484403D01*
X126543036Y-67471888D01*
X126589735Y-67457937D01*
X126618222Y-67441105D01*
X126633852Y-67419957D01*
X126639605Y-67403394D01*
X126636951Y-67347148D01*
X126599974Y-67301624D01*
X126533043Y-67268481D01*
X126440532Y-67249385D01*
X126326810Y-67245997D01*
X126244062Y-67252947D01*
X126169627Y-67266214D01*
X126118000Y-67288314D01*
X126072261Y-67326976D01*
X126064595Y-67334965D01*
X126025257Y-67372965D01*
X125989088Y-67393216D01*
X125941030Y-67401223D01*
X125879944Y-67402520D01*
X125759006Y-67402520D01*
X125771691Y-67347876D01*
X125812011Y-67244175D01*
X125880667Y-67166713D01*
X125944740Y-67126786D01*
X126052419Y-67086338D01*
X126176902Y-67060883D01*
X126310681Y-67049767D01*
X126446248Y-67052343D01*
G37*
G36*
X118235046Y-67052518D02*
G01*
X118385754Y-67066281D01*
X118518805Y-67094005D01*
X118523710Y-67095443D01*
X118620646Y-67140790D01*
X118691914Y-67208805D01*
X118731562Y-67293470D01*
X118734668Y-67308719D01*
X118738252Y-67348174D01*
X118741851Y-67420021D01*
X118745217Y-67516911D01*
X118748098Y-67631496D01*
X118750239Y-67756431D01*
X118750362Y-67765932D01*
X118755326Y-68159149D01*
X118606511Y-68153411D01*
X118529585Y-68149256D01*
X118483865Y-68142473D01*
X118460813Y-68130565D01*
X118451895Y-68111025D01*
X118451350Y-68107932D01*
X118439698Y-68050656D01*
X118425203Y-68028335D01*
X118401994Y-68036303D01*
X118382232Y-68052953D01*
X118288568Y-68115442D01*
X118167874Y-68161058D01*
X118029951Y-68187847D01*
X117884604Y-68193857D01*
X117750196Y-68178860D01*
X117628804Y-68139417D01*
X117535131Y-68075807D01*
X117471930Y-67991327D01*
X117441957Y-67889273D01*
X117441977Y-67878478D01*
X117759497Y-67878478D01*
X117787347Y-67939516D01*
X117836142Y-67978093D01*
X117903548Y-67992849D01*
X117993936Y-67996531D01*
X118092263Y-67989624D01*
X118183492Y-67972612D01*
X118205403Y-67966204D01*
X118309327Y-67918347D01*
X118379094Y-67851881D01*
X118416762Y-67764554D01*
X118422703Y-67729013D01*
X118427871Y-67672846D01*
X118423885Y-67647031D01*
X118406660Y-67642499D01*
X118385659Y-67646859D01*
X118346782Y-67653732D01*
X118278808Y-67663221D01*
X118192182Y-67673941D01*
X118119462Y-67682150D01*
X117989132Y-67698515D01*
X117893459Y-67716522D01*
X117827362Y-67737977D01*
X117785755Y-67764690D01*
X117763554Y-67798467D01*
X117759974Y-67810026D01*
X117759497Y-67878478D01*
X117441977Y-67878478D01*
X117442109Y-67810152D01*
X117457512Y-67729159D01*
X117486730Y-67664112D01*
X117533949Y-67612727D01*
X117603356Y-67572718D01*
X117699136Y-67541801D01*
X117825478Y-67517695D01*
X117986568Y-67498115D01*
X118020109Y-67494846D01*
X118130710Y-67483749D01*
X118229220Y-67472696D01*
X118307998Y-67462632D01*
X118359396Y-67454507D01*
X118373885Y-67450969D01*
X118400030Y-67426650D01*
X118403820Y-67376958D01*
X118403691Y-67375599D01*
X118390541Y-67327013D01*
X118358765Y-67294093D01*
X118303089Y-67274855D01*
X118218240Y-67267315D01*
X118119462Y-67268610D01*
X118003412Y-67277582D01*
X117921634Y-67295115D01*
X117869256Y-67322936D01*
X117841403Y-67362773D01*
X117839711Y-67367698D01*
X117828122Y-67385491D01*
X117801768Y-67396086D01*
X117752357Y-67401191D01*
X117671597Y-67402520D01*
X117671031Y-67402520D01*
X117592608Y-67402043D01*
X117545781Y-67398810D01*
X117522400Y-67390118D01*
X117514324Y-67373263D01*
X117513405Y-67350222D01*
X117531460Y-67274583D01*
X117580123Y-67201763D01*
X117651136Y-67142884D01*
X117678094Y-67128396D01*
X117788208Y-67090653D01*
X117925152Y-67065137D01*
X118077806Y-67052281D01*
X118235046Y-67052518D01*
G37*
G36*
X108761474Y-97038184D02*
G01*
X108761474Y-97791766D01*
X108584158Y-97791766D01*
X108406843Y-97791766D01*
X108406843Y-97038184D01*
X108406843Y-96284596D01*
X108584158Y-96284596D01*
X108761474Y-96284596D01*
X108761474Y-97038184D01*
G37*
G36*
X108697855Y-95757903D02*
G01*
X108748397Y-95786362D01*
X108761193Y-95857082D01*
X108761474Y-95885637D01*
X108754472Y-95970909D01*
X108716527Y-96008815D01*
X108622233Y-96018413D01*
X108584158Y-96018623D01*
X108470465Y-96013372D01*
X108419922Y-95984913D01*
X108407124Y-95914194D01*
X108406843Y-95885637D01*
X108413846Y-95800365D01*
X108451792Y-95762458D01*
X108546083Y-95752861D01*
X108584158Y-95752651D01*
X108697855Y-95757903D01*
G37*
G36*
X104018298Y-96794376D02*
G01*
X104018298Y-97791766D01*
X103807737Y-97789111D01*
X103597175Y-97786457D01*
X102954409Y-97016272D01*
X102311641Y-96246083D01*
X102299538Y-97018928D01*
X102287431Y-97791766D01*
X102111140Y-97791766D01*
X101934847Y-97791766D01*
X101934847Y-96794376D01*
X101934847Y-95796979D01*
X102145409Y-95797211D01*
X102355970Y-95797443D01*
X102998738Y-96561882D01*
X103641505Y-97326316D01*
X103653632Y-96561650D01*
X103665762Y-95796979D01*
X103842029Y-95796979D01*
X104018298Y-95796979D01*
X104018298Y-96794376D01*
G37*
G36*
X106899282Y-96870626D02*
G01*
X107178465Y-97456652D01*
X107470499Y-96870626D01*
X107762534Y-96284596D01*
X107929538Y-96284596D01*
X108036759Y-96289719D01*
X108093731Y-96302430D01*
X108096543Y-96306416D01*
X108077685Y-96351122D01*
X108025250Y-96462221D01*
X107945464Y-96626878D01*
X107844541Y-96832258D01*
X107731454Y-97059996D01*
X107366366Y-97791766D01*
X107187803Y-97791766D01*
X107009242Y-97791766D01*
X106644154Y-97059996D01*
X106528580Y-96827228D01*
X106428068Y-96622633D01*
X106348836Y-96459051D01*
X106297098Y-96349320D01*
X106279064Y-96306416D01*
X106318335Y-96292525D01*
X106415984Y-96285023D01*
X106449580Y-96284596D01*
X106620096Y-96284596D01*
X106899282Y-96870626D01*
G37*
G36*
X117728459Y-96252978D02*
G01*
X117737494Y-96256089D01*
X117788400Y-96320110D01*
X117804532Y-96433190D01*
X117804532Y-96584570D01*
X117510548Y-96603290D01*
X117344978Y-96618213D01*
X117237749Y-96644624D01*
X117158536Y-96694122D01*
X117089425Y-96764301D01*
X117031300Y-96834095D01*
X116994264Y-96900757D01*
X116973584Y-96986097D01*
X116964515Y-97111914D01*
X116962316Y-97300024D01*
X116962286Y-97349179D01*
X116962286Y-97791766D01*
X116784970Y-97791766D01*
X116607656Y-97791766D01*
X116607656Y-97038184D01*
X116607656Y-96284596D01*
X116784970Y-96284596D01*
X116899267Y-96290705D01*
X116950065Y-96319274D01*
X116962235Y-96385659D01*
X116962286Y-96394082D01*
X116962286Y-96503568D01*
X117120239Y-96396377D01*
X117264123Y-96323235D01*
X117436099Y-96269807D01*
X117602202Y-96243814D01*
X117728459Y-96252978D01*
G37*
G36*
X113770617Y-96085117D02*
G01*
X113770617Y-96284596D01*
X113992260Y-96284596D01*
X114123466Y-96287501D01*
X114188896Y-96305366D01*
X114211414Y-96351911D01*
X114213904Y-96417582D01*
X114209061Y-96496307D01*
X114179288Y-96535564D01*
X114101711Y-96549074D01*
X113992260Y-96550568D01*
X113770617Y-96550568D01*
X113770617Y-97037339D01*
X113771282Y-97250219D01*
X113775645Y-97390793D01*
X113787246Y-97475397D01*
X113809635Y-97520380D01*
X113846352Y-97542085D01*
X113882256Y-97552126D01*
X114015951Y-97566092D01*
X114103899Y-97559118D01*
X114183485Y-97556075D01*
X114211460Y-97605725D01*
X114213904Y-97660186D01*
X114190065Y-97763128D01*
X114143785Y-97809189D01*
X114012669Y-97830826D01*
X113836895Y-97823264D01*
X113654875Y-97788293D01*
X113646958Y-97786047D01*
X113557092Y-97748384D01*
X113493461Y-97686402D01*
X113451820Y-97586297D01*
X113427923Y-97434266D01*
X113417522Y-97216500D01*
X113415987Y-97035298D01*
X113415987Y-96550568D01*
X113260836Y-96550568D01*
X113156595Y-96543155D01*
X113113841Y-96505552D01*
X113105685Y-96417582D01*
X113114334Y-96328233D01*
X113158203Y-96291586D01*
X113260836Y-96284596D01*
X113356166Y-96280337D01*
X113401309Y-96251477D01*
X113415029Y-96173887D01*
X113415987Y-96085117D01*
X113415987Y-95885637D01*
X113593302Y-95885637D01*
X113770617Y-95885637D01*
X113770617Y-96085117D01*
G37*
G36*
X115553840Y-96270893D02*
G01*
X115786891Y-96338102D01*
X115982022Y-96456614D01*
X116005041Y-96477267D01*
X116149448Y-96668052D01*
X116224946Y-96888859D01*
X116233899Y-97120651D01*
X116178674Y-97344407D01*
X116061635Y-97541100D01*
X115885146Y-97691690D01*
X115851830Y-97710090D01*
X115672150Y-97771976D01*
X115443670Y-97807953D01*
X115203311Y-97814768D01*
X114987989Y-97789161D01*
X114979069Y-97787096D01*
X114755764Y-97692544D01*
X114582234Y-97536441D01*
X114464976Y-97334620D01*
X114417741Y-97133722D01*
X114754421Y-97133722D01*
X114795289Y-97294747D01*
X114800002Y-97304151D01*
X114902600Y-97419964D01*
X115061157Y-97512111D01*
X115243261Y-97564091D01*
X115322121Y-97569986D01*
X115470140Y-97548929D01*
X115621008Y-97497717D01*
X115631805Y-97492479D01*
X115783289Y-97383665D01*
X115866136Y-97236292D01*
X115887400Y-97035862D01*
X115883797Y-96974300D01*
X115856591Y-96813447D01*
X115798287Y-96704470D01*
X115748763Y-96654893D01*
X115566757Y-96552441D01*
X115351503Y-96512758D01*
X115132369Y-96535844D01*
X114938717Y-96621701D01*
X114895481Y-96654893D01*
X114809686Y-96778646D01*
X114760944Y-96949975D01*
X114754421Y-97133722D01*
X114417741Y-97133722D01*
X114410494Y-97102904D01*
X114425289Y-96857132D01*
X114505172Y-96633169D01*
X114634085Y-96474390D01*
X114822991Y-96356737D01*
X115052309Y-96282246D01*
X115302450Y-96252952D01*
X115553840Y-96270893D01*
G37*
G36*
X105555247Y-96251888D02*
G01*
X105795220Y-96296190D01*
X105964299Y-96380410D01*
X106050829Y-96487310D01*
X106072252Y-96580269D01*
X106088708Y-96744626D01*
X106098925Y-96963205D01*
X106101749Y-97173251D01*
X106101749Y-97747437D01*
X105942448Y-97747437D01*
X105825068Y-97733856D01*
X105769264Y-97685512D01*
X105760511Y-97660871D01*
X105741034Y-97605515D01*
X105707493Y-97602195D01*
X105633534Y-97651468D01*
X105616649Y-97663930D01*
X105412253Y-97767964D01*
X105168439Y-97821272D01*
X104922340Y-97817839D01*
X104813627Y-97794062D01*
X104608416Y-97698770D01*
X104480349Y-97562926D01*
X104431623Y-97390318D01*
X104435434Y-97365872D01*
X104777015Y-97365872D01*
X104820581Y-97475893D01*
X104841547Y-97500464D01*
X104933603Y-97544546D01*
X105079683Y-97567333D01*
X105247404Y-97567391D01*
X105404386Y-97543294D01*
X105454327Y-97527566D01*
X105617774Y-97429935D01*
X105719796Y-97293173D01*
X105747119Y-97167268D01*
X105741474Y-97078919D01*
X105707317Y-97045416D01*
X105618815Y-97049243D01*
X105580887Y-97054606D01*
X105436913Y-97074348D01*
X105258784Y-97097190D01*
X105170845Y-97107928D01*
X105019609Y-97131527D01*
X104896270Y-97160449D01*
X104849462Y-97177829D01*
X104786943Y-97254243D01*
X104777015Y-97365872D01*
X104435434Y-97365872D01*
X104463000Y-97189040D01*
X104516373Y-97081065D01*
X104603648Y-97001913D01*
X104738701Y-96945646D01*
X104935404Y-96906347D01*
X105187284Y-96879715D01*
X105428990Y-96851697D01*
X105591405Y-96812436D01*
X105672068Y-96770108D01*
X105737325Y-96709834D01*
X105736433Y-96662227D01*
X105684453Y-96599125D01*
X105618679Y-96545686D01*
X105526949Y-96517157D01*
X105382661Y-96506810D01*
X105317111Y-96506240D01*
X105151734Y-96511358D01*
X105044738Y-96532333D01*
X104966153Y-96577589D01*
X104923006Y-96617062D01*
X104775211Y-96710618D01*
X104659051Y-96727883D01*
X104557231Y-96723924D01*
X104507025Y-96714204D01*
X104505914Y-96712333D01*
X104518998Y-96664265D01*
X104550912Y-96567760D01*
X104555049Y-96555837D01*
X104628182Y-96430817D01*
X104753957Y-96341587D01*
X104943039Y-96283432D01*
X105206096Y-96251639D01*
X105249488Y-96249020D01*
X105555247Y-96251888D01*
G37*
G36*
X112337537Y-96251888D02*
G01*
X112577512Y-96296190D01*
X112746591Y-96380410D01*
X112833119Y-96487310D01*
X112854542Y-96580269D01*
X112870999Y-96744626D01*
X112881215Y-96963205D01*
X112884041Y-97173251D01*
X112884041Y-97747437D01*
X112724740Y-97747437D01*
X112607359Y-97733856D01*
X112551557Y-97685512D01*
X112542801Y-97660871D01*
X112523325Y-97605515D01*
X112489786Y-97602195D01*
X112415824Y-97651468D01*
X112398940Y-97663930D01*
X112194547Y-97767964D01*
X111950729Y-97821272D01*
X111704633Y-97817839D01*
X111595917Y-97794062D01*
X111390709Y-97698770D01*
X111262640Y-97562926D01*
X111213913Y-97390318D01*
X111217725Y-97365872D01*
X111559305Y-97365872D01*
X111602871Y-97475893D01*
X111623838Y-97500464D01*
X111715894Y-97544546D01*
X111861973Y-97567333D01*
X112029696Y-97567391D01*
X112186678Y-97543294D01*
X112236618Y-97527566D01*
X112400063Y-97429935D01*
X112502087Y-97293173D01*
X112529412Y-97167268D01*
X112523765Y-97078919D01*
X112489608Y-97045416D01*
X112401107Y-97049243D01*
X112363180Y-97054606D01*
X112219206Y-97074348D01*
X112041075Y-97097190D01*
X111953138Y-97107928D01*
X111801898Y-97131527D01*
X111678562Y-97160449D01*
X111631755Y-97177829D01*
X111569234Y-97254243D01*
X111559305Y-97365872D01*
X111217725Y-97365872D01*
X111245292Y-97189040D01*
X111298663Y-97081065D01*
X111385940Y-97001913D01*
X111520993Y-96945646D01*
X111717695Y-96906347D01*
X111969575Y-96879715D01*
X112211282Y-96851697D01*
X112373696Y-96812436D01*
X112454358Y-96770108D01*
X112519616Y-96709834D01*
X112518725Y-96662227D01*
X112466744Y-96599125D01*
X112400972Y-96545686D01*
X112309242Y-96517157D01*
X112164952Y-96506810D01*
X112099403Y-96506240D01*
X111934027Y-96511358D01*
X111827030Y-96532333D01*
X111748446Y-96577589D01*
X111705299Y-96617062D01*
X111557504Y-96710618D01*
X111441341Y-96727883D01*
X111339521Y-96723924D01*
X111289316Y-96714204D01*
X111288207Y-96712333D01*
X111301288Y-96664265D01*
X111333203Y-96567760D01*
X111337342Y-96555837D01*
X111410473Y-96430817D01*
X111536246Y-96341587D01*
X111725328Y-96283432D01*
X111988387Y-96251639D01*
X112031780Y-96249020D01*
X112337537Y-96251888D01*
G37*
G36*
X110156427Y-96312655D02*
G01*
X110353783Y-96386244D01*
X110391542Y-96410398D01*
X110483309Y-96473236D01*
X110523954Y-96485757D01*
X110534298Y-96449450D01*
X110534618Y-96420600D01*
X110548211Y-96361257D01*
X110604666Y-96334684D01*
X110715322Y-96328924D01*
X110896026Y-96328924D01*
X110881554Y-97186630D01*
X110875514Y-97499615D01*
X110867286Y-97736599D01*
X110853733Y-97910244D01*
X110831712Y-98033198D01*
X110798086Y-98118117D01*
X110749712Y-98177655D01*
X110683454Y-98224469D01*
X110614854Y-98261574D01*
X110519803Y-98291388D01*
X110369019Y-98319051D01*
X110190353Y-98341719D01*
X110011657Y-98356548D01*
X109860785Y-98360691D01*
X109765578Y-98351307D01*
X109758871Y-98348996D01*
X109689053Y-98330418D01*
X109572440Y-98307270D01*
X109543357Y-98302239D01*
X109386642Y-98248138D01*
X109255996Y-98153846D01*
X109175155Y-98039890D01*
X109160432Y-97971099D01*
X109174636Y-97911912D01*
X109232919Y-97885723D01*
X109337746Y-97880424D01*
X109448775Y-97890755D01*
X109510536Y-97916567D01*
X109515062Y-97927015D01*
X109555657Y-97987036D01*
X109662567Y-98038726D01*
X109813470Y-98075961D01*
X109986049Y-98092625D01*
X110105544Y-98088976D01*
X110309514Y-98055889D01*
X110440012Y-97992956D01*
X110510452Y-97887988D01*
X110534243Y-97728784D01*
X110534618Y-97698809D01*
X110534618Y-97486605D01*
X110346222Y-97594324D01*
X110103560Y-97684772D01*
X109836805Y-97702538D01*
X109573012Y-97647341D01*
X109471639Y-97603370D01*
X109277698Y-97478711D01*
X109159459Y-97332041D01*
X109103978Y-97142387D01*
X109097402Y-97028312D01*
X109428015Y-97028312D01*
X109468748Y-97195196D01*
X109564290Y-97330176D01*
X109663874Y-97393182D01*
X109814929Y-97426378D01*
X110003619Y-97431668D01*
X110187509Y-97410548D01*
X110313861Y-97370186D01*
X110455271Y-97260976D01*
X110524186Y-97109709D01*
X110534618Y-96993856D01*
X110499436Y-96801806D01*
X110395034Y-96664112D01*
X110223121Y-96581941D01*
X109985411Y-96556465D01*
X109900220Y-96560148D01*
X109737487Y-96578758D01*
X109632142Y-96613268D01*
X109553019Y-96675507D01*
X109530539Y-96700421D01*
X109446983Y-96854915D01*
X109428015Y-97028312D01*
X109097402Y-97028312D01*
X109095417Y-96993856D01*
X109117995Y-96768729D01*
X109194473Y-96598581D01*
X109337961Y-96462164D01*
X109473330Y-96381542D01*
X109684457Y-96309309D01*
X109922734Y-96286679D01*
X110156427Y-96312655D01*
G37*
D10*
%TO.C,IC3*%
X154399856Y-66223499D02*
X155649856Y-66223499D01*
X155999856Y-66338499D02*
X156149856Y-66338499D01*
X155999856Y-69258499D02*
X155999856Y-66338499D01*
X156149856Y-66338499D02*
X156149856Y-69258499D01*
X156149856Y-69258499D02*
X155999856Y-69258499D01*
D13*
%TO.C,MCU1*%
X144843293Y-82400000D02*
X145275025Y-82831731D01*
X145275025Y-81968269D02*
X144843293Y-82400000D01*
X149548269Y-87104975D02*
X149980000Y-87536707D01*
X149980000Y-77263293D02*
X149548269Y-77695025D01*
X149980000Y-87536707D02*
X150411731Y-87104975D01*
X150411731Y-77695025D02*
X149980000Y-77263293D01*
X154684975Y-82831731D02*
X155116707Y-82400000D01*
X155116707Y-82400000D02*
X154684975Y-81968269D01*
D10*
X148890847Y-77528034D02*
G75*
G02*
X148650847Y-77528034I-120000J0D01*
G01*
X148650847Y-77528034D02*
G75*
G02*
X148890847Y-77528034I120000J0D01*
G01*
D14*
G36*
X146533914Y-80098722D02*
G01*
X146264507Y-80368129D01*
X146084902Y-80188524D01*
X146354309Y-79919117D01*
X146533914Y-80098722D01*
G37*
G36*
X146816759Y-84984122D02*
G01*
X146637153Y-85163728D01*
X146367746Y-84894320D01*
X146547351Y-84714715D01*
X146816759Y-84984122D01*
G37*
G36*
X151612355Y-86874219D02*
G01*
X151342948Y-87143627D01*
X151163342Y-86964021D01*
X151432750Y-86694614D01*
X151612355Y-86874219D01*
G37*
G36*
X153026570Y-79339995D02*
G01*
X152846964Y-79519601D01*
X152577557Y-79250193D01*
X152757162Y-79070588D01*
X153026570Y-79339995D01*
G37*
G36*
X154440782Y-84045792D02*
G01*
X154171375Y-84315199D01*
X153991770Y-84135594D01*
X154261177Y-83866187D01*
X154440782Y-84045792D01*
G37*
D13*
%TO.C,IC2*%
X177108657Y-91063699D02*
X178658057Y-91063699D01*
X178658057Y-89133299D02*
X177108657Y-89133299D01*
X176283157Y-89590499D02*
G75*
G02*
X176079957Y-89590499I-101600J0D01*
G01*
X176079957Y-89590499D02*
G75*
G02*
X176283157Y-89590499I101600J0D01*
G01*
D10*
%TO.C,U2*%
X137316844Y-78525000D02*
G75*
G02*
X137143156Y-78525000I-86844J0D01*
G01*
X137143156Y-78525000D02*
G75*
G02*
X137316844Y-78525000I86844J0D01*
G01*
D13*
%TO.C,R2*%
X172861856Y-91437390D02*
X172861856Y-91859608D01*
X174004856Y-91859608D02*
X174004856Y-91437390D01*
%TO.C,J6*%
X146025955Y-93636499D02*
X146025955Y-95378258D01*
X146991914Y-93636499D02*
X146025955Y-93636499D01*
X147335295Y-97497299D02*
X149974415Y-97497299D01*
X151283755Y-93636499D02*
X150317796Y-93636499D01*
X151283755Y-95378258D02*
X151283755Y-93636499D01*
D20*
X152204855Y-94016899D02*
G75*
G02*
X151604855Y-94016899I-300000J0D01*
G01*
X151604855Y-94016899D02*
G75*
G02*
X152204855Y-94016899I300000J0D01*
G01*
D19*
%TO.C,JP2*%
X108580000Y-81447900D02*
X108580000Y-80847900D01*
X109280000Y-80147900D02*
X110680000Y-80147900D01*
X110680000Y-82147900D02*
X109280000Y-82147900D01*
X111380000Y-80847900D02*
X111380000Y-81447900D01*
X108580000Y-80847900D02*
G75*
G02*
X109280000Y-80147900I700000J0D01*
G01*
X109280000Y-82147900D02*
G75*
G02*
X108580000Y-81447900I0J700000D01*
G01*
X110680000Y-80147900D02*
G75*
G02*
X111380000Y-80847900I1J-699999D01*
G01*
X111380000Y-81447900D02*
G75*
G02*
X110680000Y-82147900I-699999J-1D01*
G01*
D13*
%TO.C,U11*%
X179943600Y-69732100D02*
X179943600Y-71687900D01*
X179943600Y-71687900D02*
X180108659Y-71687900D01*
X180108659Y-69732100D02*
X179943600Y-69732100D01*
X183131341Y-71687900D02*
X183296400Y-71687900D01*
X183296400Y-69732100D02*
X183131341Y-69732100D01*
X183296400Y-71687900D02*
X183296400Y-69732100D01*
D10*
X183506844Y-69135000D02*
G75*
G02*
X183333156Y-69135000I-86844J0D01*
G01*
X183333156Y-69135000D02*
G75*
G02*
X183506844Y-69135000I86844J0D01*
G01*
%TO.C,CR1*%
X181458356Y-93348499D02*
X181458356Y-94648499D01*
X183208356Y-93348499D02*
X181458356Y-93348499D01*
X183208356Y-94648499D02*
X183208356Y-93348499D01*
D13*
%TO.C,R7*%
X110463891Y-75671500D02*
X110886109Y-75671500D01*
X110886109Y-74528500D02*
X110463891Y-74528500D01*
%TD*%
M02*
