M48
; DRILL file {KiCad 9.0.7-9.0.7~ubuntu24.04.1} date 2026-03-04T01:18:24+0000
; FORMAT={-:-/ absolute / metric / decimal}
; #@! TF.CreationDate,2026-03-04T01:18:24+00:00
; #@! TF.GenerationSoftware,Kicad,Pcbnew,9.0.7-9.0.7~ubuntu24.04.1
; #@! TF.FileFunction,Plated,1,2,PTH
FMAT,2
METRIC
; #@! TA.AperFunction,Plated,PTH,ViaDrill
T1C0.200
; #@! TA.AperFunction,Plated,PTH,ComponentDrill
T2C0.762
; #@! TA.AperFunction,Plated,PTH,ComponentDrill
T3C0.889
; #@! TA.AperFunction,Plated,PTH,ComponentDrill
T4C1.000
; #@! TA.AperFunction,Plated,PTH,ComponentDrill
T5C1.020
; #@! TA.AperFunction,Plated,PTH,ComponentDrill
T6C1.100
; #@! TA.AperFunction,Plated,PTH,ComponentDrill
T7C1.143
; #@! TA.AperFunction,Plated,PTH,ComponentDrill
T8C1.200
; #@! TA.AperFunction,Plated,PTH,ComponentDrill
T9C1.778
%
G90
G05
T1
X117.655Y-87.161
X119.375Y-123.281
X120.905Y-87.161
X122.375Y-123.281
X145.605Y-67.985
X173.6Y-128.8
T2
X143.355Y-75.685
X143.355Y-78.185
X143.355Y-80.685
X143.355Y-83.185
X143.355Y-85.685
X143.355Y-88.185
T3
X105.355Y-93.411
X105.38Y-116.961
X107.455Y-93.411
X107.48Y-116.961
X118.43Y-93.436
X118.455Y-116.986
X120.53Y-93.436
X120.555Y-116.986
T4
X148.2Y-117.88
X148.2Y-120.42
X148.2Y-122.96
X148.2Y-125.5
X148.2Y-128.04
X148.2Y-130.58
X148.2Y-133.12
X148.2Y-135.66
X152.255Y-61.345
X152.255Y-63.885
X152.255Y-66.425
X152.255Y-68.965
X152.255Y-71.505
X152.255Y-74.045
X152.255Y-76.585
X152.255Y-79.125
X152.255Y-81.665
X152.255Y-84.205
X152.255Y-86.745
X152.255Y-89.285
X152.255Y-91.825
X152.255Y-94.365
X152.255Y-96.905
X152.255Y-99.445
X152.255Y-101.985
X152.255Y-104.525
X152.255Y-107.065
X152.255Y-109.605
X167.495Y-61.345
X167.495Y-63.885
X167.495Y-66.425
X167.495Y-68.965
X167.495Y-71.505
X167.495Y-74.045
X167.495Y-76.585
X167.495Y-79.125
X167.495Y-81.665
X167.495Y-84.205
X167.495Y-86.745
X167.495Y-89.285
X167.495Y-91.825
X167.495Y-94.365
X167.495Y-96.905
X167.495Y-99.445
X167.495Y-101.985
X167.495Y-104.525
X167.495Y-107.065
X167.495Y-109.605
X171.0Y-117.88
X171.0Y-120.42
X171.0Y-122.96
X171.0Y-125.5
X171.0Y-128.04
X171.0Y-130.58
X171.0Y-133.12
X171.0Y-135.66
T5
X102.28Y-62.1
X102.28Y-64.64
X102.28Y-67.18
X102.28Y-69.72
X143.5Y-62.1
X143.5Y-64.64
X143.5Y-67.18
X143.5Y-69.72
T6
X174.135Y-77.1
X174.135Y-80.91
X174.135Y-84.72
X174.135Y-88.53
X174.135Y-92.34
X174.135Y-96.15
T7
X131.985Y-112.949
X134.485Y-110.449
X134.485Y-115.449
X136.985Y-112.949
T8
X104.438Y-75.285
X104.438Y-77.825
T9
X128.135Y-110.448
X128.135Y-115.449
X140.835Y-110.448
X140.835Y-115.449
M30
