M48
; DRILL file {KiCad 9.0.8-9.0.8~ubuntu24.04.1} date 2026-04-17T13:23:06+0100
; FORMAT={-:-/ absolute / metric / decimal}
; #@! TF.CreationDate,2026-04-17T13:23:06+01:00
; #@! TF.GenerationSoftware,Kicad,Pcbnew,9.0.8-9.0.8~ubuntu24.04.1
; #@! TF.FileFunction,Plated,1,2,PTH
FMAT,2
METRIC
; #@! TA.AperFunction,Plated,PTH,ViaDrill
T1C0.300
; #@! TA.AperFunction,Plated,PTH,ComponentDrill
T2C0.762
; #@! TA.AperFunction,Plated,PTH,ComponentDrill
T3C1.000
; #@! TA.AperFunction,Plated,PTH,ComponentDrill
T4C1.020
; #@! TA.AperFunction,Plated,PTH,ComponentDrill
T5C1.200
; #@! TA.AperFunction,Plated,PTH,ComponentDrill
T6C1.700
%
G90
G05
T1
X130.383Y-53.598
X164.833Y-114.849
X164.833Y-116.448
T2
X109.933Y-91.148
X112.433Y-91.148
X114.933Y-91.148
X117.433Y-91.148
X119.933Y-91.148
X122.433Y-91.148
T3
X131.333Y-114.709
X131.333Y-117.248
X131.333Y-119.788
X131.333Y-122.328
X131.333Y-124.868
X131.333Y-127.408
X138.033Y-112.128
X138.033Y-114.668
X138.033Y-117.209
X138.033Y-119.748
X138.033Y-122.288
X138.033Y-124.828
X138.033Y-127.368
X138.033Y-129.909
X160.833Y-112.128
X160.833Y-114.668
X160.833Y-117.209
X160.833Y-119.748
X160.833Y-122.288
X160.833Y-124.828
X160.833Y-127.368
X160.833Y-129.909
X165.683Y-83.858
X165.683Y-86.398
X165.683Y-88.938
X165.683Y-91.478
X165.683Y-94.018
T4
X119.643Y-64.198
X119.643Y-67.698
X119.683Y-97.998
X119.683Y-101.498
X122.643Y-64.198
X122.643Y-67.698
X122.683Y-97.998
X122.683Y-101.498
X129.413Y-55.998
X129.413Y-97.218
X131.953Y-55.998
X131.953Y-97.218
X134.493Y-55.998
X134.493Y-97.218
X137.033Y-55.998
X137.033Y-97.218
T5
X110.883Y-108.408
X110.883Y-110.948
X142.763Y-63.488
X142.763Y-66.028
X142.763Y-68.569
X142.763Y-71.108
X142.763Y-73.648
X142.763Y-76.188
X142.763Y-78.728
X142.763Y-81.269
X142.763Y-83.808
X142.763Y-86.349
X142.763Y-88.888
X142.763Y-91.428
X142.763Y-93.968
X142.763Y-96.508
X142.763Y-99.048
X155.463Y-58.408
X158.003Y-55.868
X158.003Y-58.408
X158.003Y-60.948
X158.003Y-63.488
X158.003Y-66.028
X158.003Y-68.569
X158.003Y-71.108
X158.003Y-73.648
X158.003Y-76.188
X158.003Y-78.728
X158.003Y-81.269
X158.003Y-83.808
X158.003Y-86.349
X158.003Y-88.888
X158.003Y-91.428
X158.003Y-93.968
X158.003Y-96.508
X158.003Y-99.048
T6
X111.733Y-61.698
X111.733Y-70.198
X111.773Y-95.498
X111.773Y-103.998
M30
