%TF.GenerationSoftware,KiCad,Pcbnew,9.0.8-9.0.8~ubuntu24.04.1*%
%TF.CreationDate,2026-04-17T13:23:04+01:00*%
%TF.ProjectId,CORTEX_ALPHA,434f5254-4558-45f4-914c-5048412e6b69,rev?*%
%TF.SameCoordinates,Original*%
%TF.FileFunction,Soldermask,Bot*%
%TF.FilePolarity,Negative*%
%FSLAX46Y46*%
G04 Gerber Fmt 4.6, Leading zero omitted, Abs format (unit mm)*
G04 Created by KiCad (PCBNEW 9.0.8-9.0.8~ubuntu24.04.1) date 2026-04-17 13:23:04*
%MOMM*%
%LPD*%
G01*
G04 APERTURE LIST*
G04 Aperture macros list*
%AMRoundRect*
0 Rectangle with rounded corners*
0 $1 Rounding radius*
0 $2 $3 $4 $5 $6 $7 $8 $9 X,Y pos of 4 corners*
0 Add a 4 corners polygon primitive as box body*
4,1,4,$2,$3,$4,$5,$6,$7,$8,$9,$2,$3,0*
0 Add four circle primitives for the rounded corners*
1,1,$1+$1,$2,$3*
1,1,$1+$1,$4,$5*
1,1,$1+$1,$6,$7*
1,1,$1+$1,$8,$9*
0 Add four rect primitives between the rounded corners*
20,1,$1+$1,$2,$3,$4,$5,0*
20,1,$1+$1,$4,$5,$6,$7,0*
20,1,$1+$1,$6,$7,$8,$9,0*
20,1,$1+$1,$8,$9,$2,$3,0*%
G04 Aperture macros list end*
%ADD10C,1.176200*%
%ADD11C,1.601200*%
%ADD12C,0.836200*%
%ADD13C,0.010000*%
%ADD14RoundRect,0.250000X-0.750000X0.750000X-0.750000X-0.750000X0.750000X-0.750000X0.750000X0.750000X0*%
%ADD15C,2.000000*%
%ADD16C,3.050000*%
%ADD17C,2.004000*%
%ADD18C,1.524000*%
%ADD19C,3.200000*%
%ADD20R,1.700000X1.700000*%
%ADD21C,1.700000*%
%ADD22RoundRect,0.102000X0.765000X-0.765000X0.765000X0.765000X-0.765000X0.765000X-0.765000X-0.765000X0*%
%ADD23C,1.734000*%
G04 APERTURE END LIST*
D10*
%TO.C,J5*%
X112361534Y-95498500D02*
G75*
G02*
X111185334Y-95498500I-588100J0D01*
G01*
X111185334Y-95498500D02*
G75*
G02*
X112361534Y-95498500I588100J0D01*
G01*
D11*
X112574034Y-99748500D02*
G75*
G02*
X110972834Y-99748500I-800600J0D01*
G01*
X110972834Y-99748500D02*
G75*
G02*
X112574034Y-99748500I800600J0D01*
G01*
D10*
X112361534Y-103998500D02*
G75*
G02*
X111185334Y-103998500I-588100J0D01*
G01*
X111185334Y-103998500D02*
G75*
G02*
X112361534Y-103998500I588100J0D01*
G01*
D12*
X120101534Y-97998500D02*
G75*
G02*
X119265334Y-97998500I-418100J0D01*
G01*
X119265334Y-97998500D02*
G75*
G02*
X120101534Y-97998500I418100J0D01*
G01*
X120101534Y-101498500D02*
G75*
G02*
X119265334Y-101498500I-418100J0D01*
G01*
X119265334Y-101498500D02*
G75*
G02*
X120101534Y-101498500I418100J0D01*
G01*
X123101534Y-101498500D02*
G75*
G02*
X122265334Y-101498500I-418100J0D01*
G01*
X122265334Y-101498500D02*
G75*
G02*
X123101534Y-101498500I418100J0D01*
G01*
D13*
X123519634Y-98834700D02*
X121847234Y-98834700D01*
X121847234Y-97162300D01*
X123519634Y-97162300D01*
X123519634Y-98834700D01*
G36*
X123519634Y-98834700D02*
G01*
X121847234Y-98834700D01*
X121847234Y-97162300D01*
X123519634Y-97162300D01*
X123519634Y-98834700D01*
G37*
D10*
%TO.C,J3*%
X112321534Y-61698500D02*
G75*
G02*
X111145334Y-61698500I-588100J0D01*
G01*
X111145334Y-61698500D02*
G75*
G02*
X112321534Y-61698500I588100J0D01*
G01*
D11*
X112534034Y-65948500D02*
G75*
G02*
X110932834Y-65948500I-800600J0D01*
G01*
X110932834Y-65948500D02*
G75*
G02*
X112534034Y-65948500I800600J0D01*
G01*
D10*
X112321534Y-70198500D02*
G75*
G02*
X111145334Y-70198500I-588100J0D01*
G01*
X111145334Y-70198500D02*
G75*
G02*
X112321534Y-70198500I588100J0D01*
G01*
D12*
X120061534Y-64198500D02*
G75*
G02*
X119225334Y-64198500I-418100J0D01*
G01*
X119225334Y-64198500D02*
G75*
G02*
X120061534Y-64198500I418100J0D01*
G01*
X120061534Y-67698500D02*
G75*
G02*
X119225334Y-67698500I-418100J0D01*
G01*
X119225334Y-67698500D02*
G75*
G02*
X120061534Y-67698500I418100J0D01*
G01*
X123061534Y-67698500D02*
G75*
G02*
X122225334Y-67698500I-418100J0D01*
G01*
X122225334Y-67698500D02*
G75*
G02*
X123061534Y-67698500I418100J0D01*
G01*
D13*
X123479634Y-65034700D02*
X121807234Y-65034700D01*
X121807234Y-63362300D01*
X123479634Y-63362300D01*
X123479634Y-65034700D01*
G36*
X123479634Y-65034700D02*
G01*
X121807234Y-65034700D01*
X121807234Y-63362300D01*
X123479634Y-63362300D01*
X123479634Y-65034700D01*
G37*
%TD*%
D14*
%TO.C,J2*%
X110883434Y-108408500D03*
D15*
X110883434Y-110948500D03*
%TD*%
D16*
%TO.C,J5*%
X111773434Y-99748500D03*
%TD*%
D17*
%TO.C,U4*%
X155463434Y-58408500D03*
X158003434Y-55868500D03*
X158003434Y-58408500D03*
X158003434Y-60948500D03*
X158003434Y-63488500D03*
X158003434Y-66028500D03*
X158003434Y-68568500D03*
X158003434Y-71108500D03*
X158003434Y-73648500D03*
X158003434Y-76188500D03*
X158003434Y-78728500D03*
X158003434Y-81268500D03*
X158003434Y-83808500D03*
X158003434Y-86348500D03*
X158003434Y-88888500D03*
X158003434Y-91428500D03*
X158003434Y-93968500D03*
X158003434Y-96508500D03*
X158003434Y-99048500D03*
X142763434Y-63488500D03*
X142763434Y-66028500D03*
X142763434Y-68568500D03*
X142763434Y-71108500D03*
X142763434Y-73648500D03*
X142763434Y-76188500D03*
X142763434Y-78728500D03*
X142763434Y-81268500D03*
X142763434Y-83808500D03*
X142763434Y-86348500D03*
X142763434Y-88888500D03*
X142763434Y-91428500D03*
X142763434Y-93968500D03*
X142763434Y-96508500D03*
X142763434Y-99048500D03*
%TD*%
D18*
%TO.C,CanBus_Module1*%
X122433434Y-91148500D03*
X119933434Y-91148500D03*
X117433434Y-91148500D03*
X114933434Y-91148500D03*
X112433434Y-91148500D03*
X109933434Y-91148500D03*
%TD*%
D16*
%TO.C,J3*%
X111733434Y-65948500D03*
%TD*%
D19*
%TO.C,REF\u002A\u002A*%
X175233434Y-124748500D03*
%TD*%
%TO.C,*%
X101961861Y-63676913D03*
%TD*%
D20*
%TO.C,U2*%
X138033434Y-112128500D03*
D21*
X138033434Y-114668500D03*
X138033434Y-117208500D03*
X138033434Y-119748500D03*
X138033434Y-122288500D03*
X138033434Y-124828500D03*
X138033434Y-127368500D03*
X138033434Y-129908500D03*
X160833434Y-129908500D03*
X160833434Y-127368500D03*
X160833434Y-124828500D03*
X160833434Y-122288500D03*
X160833434Y-119748500D03*
X160833434Y-117208500D03*
X160833434Y-114668500D03*
D20*
X160833434Y-112128500D03*
%TD*%
D19*
%TO.C,REF\u002A\u002A*%
X175233434Y-63848500D03*
%TD*%
D22*
%TO.C,U3*%
X129413434Y-97218500D03*
D23*
X131953434Y-97218500D03*
X134493434Y-97218500D03*
X137033434Y-97218500D03*
X137033434Y-55998500D03*
X134493434Y-55998500D03*
X131953434Y-55998500D03*
X129413434Y-55998500D03*
%TD*%
D19*
%TO.C,*%
X101961861Y-124676927D03*
%TD*%
%TO.C,REF\u002A\u002A*%
X101961861Y-124676927D03*
%TD*%
%TO.C,REF\u002A\u002A*%
X101961861Y-63676913D03*
%TD*%
D20*
%TO.C,J4*%
X165683434Y-83858500D03*
D21*
X165683434Y-86398500D03*
X165683434Y-88938500D03*
X165683434Y-91478500D03*
X165683434Y-94018500D03*
%TD*%
D20*
%TO.C,J1*%
X131333434Y-127408500D03*
D21*
X131333434Y-124868500D03*
X131333434Y-122328500D03*
X131333434Y-119788500D03*
X131333434Y-117248500D03*
X131333434Y-114708500D03*
%TD*%
M02*
