%TF.GenerationSoftware,KiCad,Pcbnew,9.0.8-9.0.8~ubuntu24.04.1*%
%TF.CreationDate,2026-04-17T13:23:03+01:00*%
%TF.ProjectId,CORTEX_ALPHA,434f5254-4558-45f4-914c-5048412e6b69,rev?*%
%TF.SameCoordinates,Original*%
%TF.FileFunction,Copper,L2,Bot*%
%TF.FilePolarity,Positive*%
%FSLAX46Y46*%
G04 Gerber Fmt 4.6, Leading zero omitted, Abs format (unit mm)*
G04 Created by KiCad (PCBNEW 9.0.8-9.0.8~ubuntu24.04.1) date 2026-04-17 13:23:03*
%MOMM*%
%LPD*%
G01*
G04 APERTURE LIST*
G04 Aperture macros list*
%AMRoundRect*
0 Rectangle with rounded corners*
0 $1 Rounding radius*
0 $2 $3 $4 $5 $6 $7 $8 $9 X,Y pos of 4 corners*
0 Add a 4 corners polygon primitive as box body*
4,1,4,$2,$3,$4,$5,$6,$7,$8,$9,$2,$3,0*
0 Add four circle primitives for the rounded corners*
1,1,$1+$1,$2,$3*
1,1,$1+$1,$4,$5*
1,1,$1+$1,$6,$7*
1,1,$1+$1,$8,$9*
0 Add four rect primitives between the rounded corners*
20,1,$1+$1,$2,$3,$4,$5,0*
20,1,$1+$1,$4,$5,$6,$7,0*
20,1,$1+$1,$6,$7,$8,$9,0*
20,1,$1+$1,$8,$9,$2,$3,0*%
G04 Aperture macros list end*
%TA.AperFunction,ComponentPad*%
%ADD10RoundRect,0.250000X-0.750000X0.750000X-0.750000X-0.750000X0.750000X-0.750000X0.750000X0.750000X0*%
%TD*%
%TA.AperFunction,ComponentPad*%
%ADD11C,2.000000*%
%TD*%
%TA.AperFunction,ComponentPad*%
%ADD12R,1.520000X1.520000*%
%TD*%
%TA.AperFunction,ComponentPad*%
%ADD13C,1.520000*%
%TD*%
%TA.AperFunction,ComponentPad*%
%ADD14C,2.200000*%
%TD*%
%TA.AperFunction,ComponentPad*%
%ADD15C,1.800000*%
%TD*%
%TA.AperFunction,ComponentPad*%
%ADD16C,1.524000*%
%TD*%
%TA.AperFunction,ComponentPad*%
%ADD17R,1.700000X1.700000*%
%TD*%
%TA.AperFunction,ComponentPad*%
%ADD18C,1.700000*%
%TD*%
%TA.AperFunction,ComponentPad*%
%ADD19R,1.530000X1.530000*%
%TD*%
%TA.AperFunction,ComponentPad*%
%ADD20C,1.530000*%
%TD*%
%TA.AperFunction,ViaPad*%
%ADD21C,0.700000*%
%TD*%
%TA.AperFunction,Conductor*%
%ADD22C,0.750000*%
%TD*%
%TA.AperFunction,Conductor*%
%ADD23C,1.000000*%
%TD*%
%TA.AperFunction,Conductor*%
%ADD24C,0.250000*%
%TD*%
G04 APERTURE END LIST*
D10*
%TO.P,J2,1,Pin_1*%
%TO.N,Net-(CanBus_Module1-CANL)*%
X110883434Y-108408500D03*
D11*
%TO.P,J2,2,Pin_2*%
%TO.N,Net-(CanBus_Module1-CANH)*%
X110883434Y-110948500D03*
%TD*%
D12*
%TO.P,J5,1,1*%
%TO.N,+5V*%
X122683434Y-97998500D03*
D13*
%TO.P,J5,2,2*%
%TO.N,GND*%
X122683434Y-101498500D03*
%TO.P,J5,3,3*%
%TO.N,/RS_B*%
X119683434Y-97998500D03*
%TO.P,J5,4,4*%
%TO.N,/RS_A*%
X119683434Y-101498500D03*
D14*
%TO.P,J5,S1,SHIELD1*%
%TO.N,unconnected-(J5-SHIELD1-PadS1)*%
X111773434Y-95498500D03*
%TO.P,J5,S2,SHIELD2*%
%TO.N,unconnected-(J5-SHIELD2-PadS2)*%
X111773434Y-103998500D03*
%TD*%
D15*
%TO.P,U4,CN2_1,VCC*%
%TO.N,unconnected-(U4-VCC-PadCN2_1)*%
X155463434Y-58408500D03*
%TO.P,U4,CN2_2,SWCLK*%
%TO.N,unconnected-(U4-SWCLK-PadCN2_2)*%
X158003434Y-55868500D03*
%TO.P,U4,CN2_3,GND_SWD*%
%TO.N,GND*%
X158003434Y-58408500D03*
%TO.P,U4,CN2_4,SWDIO*%
%TO.N,unconnected-(U4-SWDIO-PadCN2_4)*%
X158003434Y-60948500D03*
%TO.P,U4,CN3_1,VIN*%
%TO.N,unconnected-(U4-VIN-PadCN3_1)*%
X158003434Y-63488500D03*
%TO.P,U4,CN3_2,GND_CN3*%
%TO.N,GND*%
X158003434Y-66028500D03*
%TO.P,U4,CN3_3,~{RST}_CN3*%
%TO.N,unconnected-(U4-~{RST}_CN3-PadCN3_3)*%
X158003434Y-68568500D03*
%TO.P,U4,CN3_4,5V*%
%TO.N,+5V*%
X158003434Y-71108500D03*
%TO.P,U4,CN3_5,PA2(A7)*%
%TO.N,/NAV TX UART*%
X158003434Y-73648500D03*
%TO.P,U4,CN3_6,PA7(A6)*%
%TO.N,unconnected-(U4-PA7(A6)-PadCN3_6)*%
X158003434Y-76188500D03*
%TO.P,U4,CN3_7,PA6/PA15(A5)*%
%TO.N,/ANT_DIO1*%
X158003434Y-78728500D03*
%TO.P,U4,CN3_8,PA5/PB7(A4)*%
%TO.N,/ANT_RX_EN*%
X158003434Y-81268500D03*
%TO.P,U4,CN3_9,PA4(A3)*%
%TO.N,/ANT_TX_EN*%
X158003434Y-83808500D03*
%TO.P,U4,CN3_10,PA3(A2)*%
%TO.N,/NAV RX UART*%
X158003434Y-86348500D03*
%TO.P,U4,CN3_11,PA1(A1)*%
%TO.N,/NAV RTS UART*%
X158003434Y-88888500D03*
%TO.P,U4,CN3_12,PA0(A0)*%
%TO.N,/NAV CTS UART*%
X158003434Y-91428500D03*
%TO.P,U4,CN3_13,AREF*%
%TO.N,unconnected-(U4-AREF-PadCN3_13)*%
X158003434Y-93968500D03*
%TO.P,U4,CN3_14,3V3*%
%TO.N,+3.3V*%
X158003434Y-96508500D03*
%TO.P,U4,CN3_15,PB3/PB8(D13)*%
%TO.N,/CLK*%
X158003434Y-99048500D03*
%TO.P,U4,CN4_1,PA9(D1)*%
%TO.N,/RS_TX*%
X142763434Y-63488500D03*
%TO.P,U4,CN4_2,PA10(D0)*%
%TO.N,/RS_RX*%
X142763434Y-66028500D03*
%TO.P,U4,CN4_3,~{RST}_CN4*%
%TO.N,unconnected-(U4-~{RST}_CN4-PadCN4_3)*%
X142763434Y-68568500D03*
%TO.P,U4,CN4_4,GND_CN4*%
%TO.N,GND*%
X142763434Y-71108500D03*
%TO.P,U4,CN4_5,PA12(D2)*%
%TO.N,/CAN_TX*%
X142763434Y-73648500D03*
%TO.P,U4,CN4_6,PB0(D3)*%
%TO.N,/ANT_BUSY*%
X142763434Y-76188500D03*
%TO.P,U4,CN4_7,PB7(D4)*%
%TO.N,/ANT_NRESET*%
X142763434Y-78728500D03*
%TO.P,U4,CN4_8,PA15(D5)*%
%TO.N,/Recovery 1*%
X142763434Y-81268500D03*
%TO.P,U4,CN4_9,PB6(D6)*%
%TO.N,/Recovery 2*%
X142763434Y-83808500D03*
%TO.P,U4,CN4_10,PF0(D7)*%
%TO.N,/Recovery 3*%
X142763434Y-86348500D03*
%TO.P,U4,CN4_11,PF1(D8)*%
%TO.N,/RS_ENABLE*%
X142763434Y-88888500D03*
%TO.P,U4,CN4_12,PA8(D9)*%
%TO.N,/CS*%
X142763434Y-91428500D03*
%TO.P,U4,CN4_13,PA11(D10)*%
%TO.N,/CAN_RX*%
X142763434Y-93968500D03*
%TO.P,U4,CN4_14,PB5(D11)*%
%TO.N,/MOSI*%
X142763434Y-96508500D03*
%TO.P,U4,CN4_15,PB4(D12)*%
%TO.N,/MISO*%
X142763434Y-99048500D03*
%TD*%
D16*
%TO.P,CanBus_Module1,1,CANL*%
%TO.N,Net-(CanBus_Module1-CANL)*%
X122433434Y-91148500D03*
%TO.P,CanBus_Module1,2,CANH*%
%TO.N,Net-(CanBus_Module1-CANH)*%
X119933434Y-91148500D03*
%TO.P,CanBus_Module1,3,CRX*%
%TO.N,/CAN_RX*%
X117433434Y-91148500D03*
%TO.P,CanBus_Module1,4,CTX*%
%TO.N,/CAN_TX*%
X114933434Y-91148500D03*
%TO.P,CanBus_Module1,5,GND*%
%TO.N,GND*%
X112433434Y-91148500D03*
%TO.P,CanBus_Module1,6,VCC*%
%TO.N,+5V*%
X109933434Y-91148500D03*
%TD*%
D12*
%TO.P,J3,1,1*%
%TO.N,/Recovery 1*%
X122643434Y-64198500D03*
D13*
%TO.P,J3,2,2*%
%TO.N,/Recovery 2*%
X122643434Y-67698500D03*
%TO.P,J3,3,3*%
%TO.N,/Recovery 3*%
X119643434Y-64198500D03*
%TO.P,J3,4,4*%
%TO.N,/ADC_Elytra*%
X119643434Y-67698500D03*
D14*
%TO.P,J3,S1,SHIELD1*%
%TO.N,unconnected-(J3-SHIELD1-PadS1)*%
X111733434Y-61698500D03*
%TO.P,J3,S2,SHIELD2*%
%TO.N,unconnected-(J3-SHIELD2-PadS2)*%
X111733434Y-70198500D03*
%TD*%
D17*
%TO.P,U2,1,3.3V*%
%TO.N,+3.3V*%
X138033434Y-112128500D03*
D18*
%TO.P,U2,2,GND*%
%TO.N,GND*%
X138033434Y-114668500D03*
%TO.P,U2,3,MISO_TX*%
%TO.N,/MISO*%
X138033434Y-117208500D03*
%TO.P,U2,4,MOSI_RX*%
%TO.N,/MOSI*%
X138033434Y-119748500D03*
%TO.P,U2,5,SCK_RTS*%
%TO.N,/CLK*%
X138033434Y-122288500D03*
%TO.P,U2,6,NSS_CTS*%
%TO.N,/CS*%
X138033434Y-124828500D03*
%TO.P,U2,7,GND*%
%TO.N,GND*%
X138033434Y-127368500D03*
%TO.P,U2,8,RX_EN*%
%TO.N,/ANT_RX_EN*%
X138033434Y-129908500D03*
%TO.P,U2,9,TX_EN*%
%TO.N,/ANT_TX_EN*%
X160833434Y-129908500D03*
%TO.P,U2,10,GND*%
%TO.N,GND*%
X160833434Y-127368500D03*
%TO.P,U2,11,NRESET*%
%TO.N,/ANT_NRESET*%
X160833434Y-124828500D03*
%TO.P,U2,12,BUSY*%
%TO.N,/ANT_BUSY*%
X160833434Y-122288500D03*
%TO.P,U2,13,DI01*%
%TO.N,/ANT_DIO1*%
X160833434Y-119748500D03*
%TO.P,U2,14,DI02*%
%TO.N,unconnected-(U2-DI02-Pad14)*%
X160833434Y-117208500D03*
%TO.P,U2,15,DI03*%
%TO.N,unconnected-(U2-DI03-Pad15)*%
X160833434Y-114668500D03*
D17*
%TO.P,U2,16,GND*%
%TO.N,GND*%
X160833434Y-112128500D03*
%TD*%
D19*
%TO.P,U3,1,GND*%
%TO.N,GND*%
X129413434Y-97218500D03*
D20*
%TO.P,U3,2,A*%
%TO.N,/RS_A*%
X131953434Y-97218500D03*
%TO.P,U3,3,B*%
%TO.N,/RS_B*%
X134493434Y-97218500D03*
%TO.P,U3,4,VCC*%
%TO.N,+5V*%
X137033434Y-97218500D03*
%TO.P,U3,5,RO*%
%TO.N,/RS_RX*%
X137033434Y-55998500D03*
%TO.P,U3,6,RE*%
%TO.N,/RS_ENABLE*%
X134493434Y-55998500D03*
%TO.P,U3,7,DE*%
X131953434Y-55998500D03*
%TO.P,U3,8,DI*%
%TO.N,/RS_TX*%
X129413434Y-55998500D03*
%TD*%
D17*
%TO.P,J4,1,Pin_1*%
%TO.N,/NAV RX UART*%
X165683434Y-83858500D03*
D18*
%TO.P,J4,2,Pin_2*%
%TO.N,/NAV TX UART*%
X165683434Y-86398500D03*
%TO.P,J4,3,Pin_3*%
%TO.N,/NAV RTS UART*%
X165683434Y-88938500D03*
%TO.P,J4,4,Pin_4*%
%TO.N,/NAV CTS UART*%
X165683434Y-91478500D03*
%TO.P,J4,5,Pin_5*%
%TO.N,GND*%
X165683434Y-94018500D03*
%TD*%
D17*
%TO.P,J1,1,Pin_1*%
%TO.N,+3.3V*%
X131333434Y-127408500D03*
D18*
%TO.P,J1,2,Pin_2*%
%TO.N,/CS*%
X131333434Y-124868500D03*
%TO.P,J1,3,Pin_3*%
%TO.N,/MOSI*%
X131333434Y-122328500D03*
%TO.P,J1,4,Pin_4*%
%TO.N,/CLK*%
X131333434Y-119788500D03*
%TO.P,J1,5,Pin_5*%
%TO.N,/MISO*%
X131333434Y-117248500D03*
%TO.P,J1,6,Pin_6*%
%TO.N,GND*%
X131333434Y-114708500D03*
%TD*%
D21*
%TO.N,GND*%
X164833434Y-116448500D03*
X130383434Y-53598500D03*
X164833434Y-114848500D03*
%TD*%
D22*
%TO.N,/RS_A*%
X123683434Y-99798500D02*
X121383434Y-99798500D01*
X128133434Y-95348500D02*
X123683434Y-99798500D01*
X131953434Y-97218500D02*
X131953434Y-96136627D01*
X131165307Y-95348500D02*
X128133434Y-95348500D01*
X131953434Y-96136627D02*
X131165307Y-95348500D01*
X121383434Y-99798500D02*
X119683434Y-101498500D01*
%TO.N,/RS_B*%
X119683434Y-97398500D02*
X119683434Y-97998500D01*
X134493434Y-97218500D02*
X134493434Y-95758500D01*
X132833434Y-94098500D02*
X122983434Y-94098500D01*
X122983434Y-94098500D02*
X119683434Y-97398500D01*
X134493434Y-95758500D02*
X132833434Y-94098500D01*
%TO.N,/RS_ENABLE*%
X131953434Y-55998500D02*
X134493434Y-55998500D01*
D23*
%TO.N,/ANT_DIO1*%
X152563434Y-111478500D02*
X152563434Y-84168500D01*
X160833434Y-119748500D02*
X152563434Y-111478500D01*
X152563434Y-84168500D02*
X158003434Y-78728500D01*
%TO.N,/ANT_NRESET*%
X149273434Y-85238500D02*
X142763434Y-78728500D01*
X160833434Y-124828500D02*
X149273434Y-113268500D01*
X149273434Y-113268500D02*
X149273434Y-85238500D01*
%TO.N,/ANT_BUSY*%
X150823434Y-112278500D02*
X150823434Y-84248500D01*
X150823434Y-84248500D02*
X142763434Y-76188500D01*
X160833434Y-122288500D02*
X150823434Y-112278500D01*
D22*
%TO.N,/ANT_TX_EN*%
X162783434Y-127958500D02*
X162783434Y-88588500D01*
X162783434Y-88588500D02*
X158003434Y-83808500D01*
X160833434Y-129908500D02*
X162783434Y-127958500D01*
%TO.N,/CAN_RX*%
X120333434Y-88248500D02*
X137043434Y-88248500D01*
X117433434Y-91148500D02*
X120333434Y-88248500D01*
X137043434Y-88248500D02*
X142763434Y-93968500D01*
%TO.N,Net-(CanBus_Module1-CANL)*%
X110883434Y-107858500D02*
X114333434Y-104408500D01*
X122433434Y-91148500D02*
X122433434Y-92198500D01*
X114333434Y-100298500D02*
X114333434Y-104408500D01*
X110883434Y-108408500D02*
X110883434Y-107858500D01*
X122433434Y-92198500D02*
X114333434Y-100298500D01*
%TO.N,Net-(CanBus_Module1-CANH)*%
X107933434Y-99198500D02*
X107933434Y-109862713D01*
X107933434Y-109862713D02*
X109019221Y-110948500D01*
X119933434Y-91148500D02*
X113533434Y-97548500D01*
X113533434Y-97548500D02*
X109583434Y-97548500D01*
X109583434Y-97548500D02*
X107933434Y-99198500D01*
X109019221Y-110948500D02*
X110883434Y-110948500D01*
%TO.N,/RS_TX*%
X142763434Y-63488500D02*
X136903434Y-63488500D01*
X136903434Y-63488500D02*
X129413434Y-55998500D01*
%TO.N,/RS_RX*%
X137033434Y-55998500D02*
X142783434Y-55998500D01*
X144353434Y-66028500D02*
X142763434Y-66028500D01*
X145583434Y-64798500D02*
X144353434Y-66028500D01*
X142783434Y-55998500D02*
X145583434Y-58798500D01*
X145583434Y-58798500D02*
X145583434Y-64798500D01*
%TO.N,/MISO*%
X142763434Y-112478500D02*
X142763434Y-99048500D01*
X138033434Y-117208500D02*
X142763434Y-112478500D01*
%TO.N,/CLK*%
X135533434Y-119788500D02*
X131333434Y-119788500D01*
X138033434Y-122288500D02*
X135533434Y-119788500D01*
%TO.N,/MOSI*%
X138033434Y-119748500D02*
X144733434Y-113048500D01*
X144733434Y-113048500D02*
X144733434Y-98478500D01*
X144733434Y-98478500D02*
X142763434Y-96508500D01*
D23*
%TO.N,/CS*%
X138033434Y-124828500D02*
X137703434Y-124498500D01*
X147703434Y-94738500D02*
X144393434Y-91428500D01*
X147703434Y-115158500D02*
X147703434Y-94738500D01*
X138033434Y-124828500D02*
X147703434Y-115158500D01*
X144393434Y-91428500D02*
X142763434Y-91428500D01*
D22*
%TO.N,/NAV TX UART*%
X162183434Y-77828500D02*
X162183434Y-82898500D01*
X162183434Y-82898500D02*
X165683434Y-86398500D01*
X158003434Y-73648500D02*
X162183434Y-77828500D01*
%TO.N,/NAV CTS UART*%
X158053434Y-91478500D02*
X158003434Y-91428500D01*
%TO.N,/NAV RTS UART*%
X158053434Y-88938500D02*
X158003434Y-88888500D01*
%TO.N,/Recovery 2*%
X130483434Y-75798500D02*
X133633434Y-75798500D01*
X122643434Y-67958500D02*
X130483434Y-75798500D01*
X122643434Y-67698500D02*
X122643434Y-67958500D01*
X141643434Y-83808500D02*
X142763434Y-83808500D01*
X133633434Y-75798500D02*
X141643434Y-83808500D01*
%TO.N,/Recovery 3*%
X121183434Y-65738500D02*
X119643434Y-64198500D01*
X129333434Y-77248500D02*
X121183434Y-69098500D01*
X142763434Y-86348500D02*
X142283434Y-86348500D01*
X121183434Y-69098500D02*
X121183434Y-65738500D01*
X133183434Y-77248500D02*
X129333434Y-77248500D01*
X142283434Y-86348500D02*
X133183434Y-77248500D01*
D24*
%TO.N,unconnected-(U4-PA7(A6)-PadCN3_6)*%
X157328434Y-76138500D02*
X157328434Y-75913500D01*
D22*
%TO.N,/Recovery 1*%
X133983434Y-74298500D02*
X140953434Y-81268500D01*
X131883434Y-74298500D02*
X133983434Y-74298500D01*
X122643434Y-65058500D02*
X131883434Y-74298500D01*
X140953434Y-81268500D02*
X142763434Y-81268500D01*
X122643434Y-64198500D02*
X122643434Y-65058500D01*
%TD*%
%TA.AperFunction,Conductor*%
%TO.N,GND*%
G36*
X161844909Y-125852532D02*
G01*
X161893604Y-125902637D01*
X161907934Y-125960504D01*
X161907934Y-126596192D01*
X161888249Y-126663231D01*
X161871615Y-126683873D01*
X161316396Y-127239091D01*
X161299359Y-127175507D01*
X161233533Y-127061493D01*
X161140441Y-126968401D01*
X161026427Y-126902575D01*
X160962843Y-126885537D01*
X161595150Y-126253228D01*
X161540981Y-126213873D01*
X161540981Y-126213872D01*
X161531934Y-126209263D01*
X161481140Y-126161288D01*
X161464346Y-126093466D01*
X161486885Y-126027332D01*
X161531942Y-125988293D01*
X161541250Y-125983551D01*
X161702185Y-125866626D01*
X161711049Y-125860186D01*
X161776855Y-125836706D01*
X161844909Y-125852532D01*
G37*
%TD.AperFunction*%
%TA.AperFunction,Conductor*%
G36*
X156571712Y-81643046D02*
G01*
X156604010Y-81645356D01*
X156606211Y-81647004D01*
X156608945Y-81647318D01*
X156634016Y-81667819D01*
X156659943Y-81687228D01*
X156661555Y-81690338D01*
X156663034Y-81691547D01*
X156678607Y-81723219D01*
X156705539Y-81806106D01*
X156705538Y-81806106D01*
X156805621Y-82002525D01*
X156935186Y-82180858D01*
X156935190Y-82180863D01*
X157091070Y-82336743D01*
X157091075Y-82336747D01*
X157230688Y-82438182D01*
X157273354Y-82493512D01*
X157279333Y-82563125D01*
X157246727Y-82624920D01*
X157230688Y-82638818D01*
X157091075Y-82740252D01*
X157091070Y-82740256D01*
X156935190Y-82896136D01*
X156935186Y-82896141D01*
X156805621Y-83074474D01*
X156705538Y-83270893D01*
X156705537Y-83270896D01*
X156637419Y-83480547D01*
X156602934Y-83698278D01*
X156602934Y-83918721D01*
X156637419Y-84136452D01*
X156705537Y-84346103D01*
X156705538Y-84346106D01*
X156805621Y-84542525D01*
X156935186Y-84720858D01*
X156935190Y-84720863D01*
X157091070Y-84876743D01*
X157091075Y-84876747D01*
X157230688Y-84978182D01*
X157273354Y-85033512D01*
X157279333Y-85103125D01*
X157246727Y-85164920D01*
X157230688Y-85178818D01*
X157091075Y-85280252D01*
X157091070Y-85280256D01*
X156935190Y-85436136D01*
X156935186Y-85436141D01*
X156805621Y-85614474D01*
X156705538Y-85810893D01*
X156705537Y-85810896D01*
X156637419Y-86020547D01*
X156602934Y-86238278D01*
X156602934Y-86458721D01*
X156637419Y-86676452D01*
X156705537Y-86886103D01*
X156705538Y-86886106D01*
X156805621Y-87082525D01*
X156935186Y-87260858D01*
X156935190Y-87260863D01*
X157091070Y-87416743D01*
X157091075Y-87416747D01*
X157230688Y-87518182D01*
X157273354Y-87573512D01*
X157279333Y-87643125D01*
X157246727Y-87704920D01*
X157230688Y-87718818D01*
X157091075Y-87820252D01*
X157091070Y-87820256D01*
X156935190Y-87976136D01*
X156935186Y-87976141D01*
X156805621Y-88154474D01*
X156705538Y-88350893D01*
X156705537Y-88350896D01*
X156637419Y-88560547D01*
X156602934Y-88778278D01*
X156602934Y-88998721D01*
X156637419Y-89216452D01*
X156705537Y-89426103D01*
X156705538Y-89426106D01*
X156767332Y-89547380D01*
X156799990Y-89611475D01*
X156805621Y-89622525D01*
X156935186Y-89800858D01*
X156935190Y-89800863D01*
X157091070Y-89956743D01*
X157091075Y-89956747D01*
X157230688Y-90058182D01*
X157273354Y-90113512D01*
X157279333Y-90183125D01*
X157246727Y-90244920D01*
X157230688Y-90258818D01*
X157091075Y-90360252D01*
X157091070Y-90360256D01*
X156935190Y-90516136D01*
X156935186Y-90516141D01*
X156805621Y-90694474D01*
X156705538Y-90890893D01*
X156705537Y-90890896D01*
X156637419Y-91100547D01*
X156602934Y-91318278D01*
X156602934Y-91538721D01*
X156637419Y-91756452D01*
X156705537Y-91966103D01*
X156705538Y-91966106D01*
X156740385Y-92034495D01*
X156804458Y-92160244D01*
X156805621Y-92162525D01*
X156935186Y-92340858D01*
X156935190Y-92340863D01*
X157091070Y-92496743D01*
X157091075Y-92496747D01*
X157230688Y-92598182D01*
X157273354Y-92653512D01*
X157279333Y-92723125D01*
X157246727Y-92784920D01*
X157230688Y-92798818D01*
X157091075Y-92900252D01*
X157091070Y-92900256D01*
X156935190Y-93056136D01*
X156935186Y-93056141D01*
X156805621Y-93234474D01*
X156705538Y-93430893D01*
X156705537Y-93430896D01*
X156637419Y-93640547D01*
X156602934Y-93858278D01*
X156602934Y-94078721D01*
X156637419Y-94296452D01*
X156705537Y-94506103D01*
X156705538Y-94506106D01*
X156805621Y-94702525D01*
X156935186Y-94880858D01*
X156935190Y-94880863D01*
X157091070Y-95036743D01*
X157091075Y-95036747D01*
X157230688Y-95138182D01*
X157273354Y-95193512D01*
X157279333Y-95263125D01*
X157246727Y-95324920D01*
X157230688Y-95338818D01*
X157091075Y-95440252D01*
X157091070Y-95440256D01*
X156935190Y-95596136D01*
X156935186Y-95596141D01*
X156805621Y-95774474D01*
X156705538Y-95970893D01*
X156705537Y-95970896D01*
X156637419Y-96180547D01*
X156615708Y-96317627D01*
X156602934Y-96398278D01*
X156602934Y-96618722D01*
X156617273Y-96709254D01*
X156637419Y-96836452D01*
X156705537Y-97046103D01*
X156705538Y-97046106D01*
X156772406Y-97177339D01*
X156803409Y-97238185D01*
X156805621Y-97242525D01*
X156935186Y-97420858D01*
X156935190Y-97420863D01*
X157091070Y-97576743D01*
X157091075Y-97576747D01*
X157230688Y-97678182D01*
X157273354Y-97733512D01*
X157279333Y-97803125D01*
X157246727Y-97864920D01*
X157230688Y-97878818D01*
X157091075Y-97980252D01*
X157091070Y-97980256D01*
X156935190Y-98136136D01*
X156935186Y-98136141D01*
X156805621Y-98314474D01*
X156705538Y-98510893D01*
X156705537Y-98510896D01*
X156637419Y-98720547D01*
X156602934Y-98938278D01*
X156602934Y-99158721D01*
X156637419Y-99376452D01*
X156705537Y-99586103D01*
X156705538Y-99586106D01*
X156805621Y-99782525D01*
X156935186Y-99960858D01*
X156935190Y-99960863D01*
X157091070Y-100116743D01*
X157091075Y-100116747D01*
X157207978Y-100201681D01*
X157269412Y-100246315D01*
X157383280Y-100304334D01*
X157465827Y-100346395D01*
X157465830Y-100346396D01*
X157570655Y-100380455D01*
X157675483Y-100414515D01*
X157893212Y-100449000D01*
X157893213Y-100449000D01*
X158113655Y-100449000D01*
X158113656Y-100449000D01*
X158331385Y-100414515D01*
X158541040Y-100346395D01*
X158737456Y-100246315D01*
X158915799Y-100116742D01*
X159071676Y-99960865D01*
X159201249Y-99782522D01*
X159301329Y-99586106D01*
X159369449Y-99376451D01*
X159403934Y-99158722D01*
X159403934Y-98938278D01*
X159369449Y-98720549D01*
X159335389Y-98615721D01*
X159301330Y-98510896D01*
X159301329Y-98510893D01*
X159240385Y-98391286D01*
X159201249Y-98314478D01*
X159184694Y-98291692D01*
X159071681Y-98136141D01*
X159071677Y-98136136D01*
X158915797Y-97980256D01*
X158915792Y-97980252D01*
X158776179Y-97878818D01*
X158733513Y-97823489D01*
X158727534Y-97753875D01*
X158760139Y-97692080D01*
X158776179Y-97678182D01*
X158915792Y-97576747D01*
X158915790Y-97576747D01*
X158915799Y-97576742D01*
X159071676Y-97420865D01*
X159201249Y-97242522D01*
X159301329Y-97046106D01*
X159369449Y-96836451D01*
X159403934Y-96618722D01*
X159403934Y-96398278D01*
X159369449Y-96180549D01*
X159327159Y-96050393D01*
X159301330Y-95970896D01*
X159301329Y-95970893D01*
X159255654Y-95881253D01*
X159201249Y-95774478D01*
X159184694Y-95751692D01*
X159071681Y-95596141D01*
X159071677Y-95596136D01*
X158915797Y-95440256D01*
X158915792Y-95440252D01*
X158776179Y-95338818D01*
X158733513Y-95283489D01*
X158727534Y-95213875D01*
X158760139Y-95152080D01*
X158776179Y-95138182D01*
X158915792Y-95036747D01*
X158915790Y-95036747D01*
X158915799Y-95036742D01*
X159071676Y-94880865D01*
X159201249Y-94702522D01*
X159301329Y-94506106D01*
X159369449Y-94296451D01*
X159403934Y-94078722D01*
X159403934Y-93858278D01*
X159369449Y-93640549D01*
X159335389Y-93535721D01*
X159301330Y-93430896D01*
X159301329Y-93430893D01*
X159266671Y-93362875D01*
X159201249Y-93234478D01*
X159178608Y-93203315D01*
X159071681Y-93056141D01*
X159071677Y-93056136D01*
X158915797Y-92900256D01*
X158915792Y-92900252D01*
X158776179Y-92798818D01*
X158733513Y-92743489D01*
X158727534Y-92673875D01*
X158760139Y-92612080D01*
X158776179Y-92598182D01*
X158915792Y-92496747D01*
X158915790Y-92496747D01*
X158915799Y-92496742D01*
X159071676Y-92340865D01*
X159201249Y-92162522D01*
X159301329Y-91966106D01*
X159369449Y-91756451D01*
X159403934Y-91538722D01*
X159403934Y-91318278D01*
X159369449Y-91100549D01*
X159323810Y-90960085D01*
X159301330Y-90890896D01*
X159301329Y-90890893D01*
X159252487Y-90795037D01*
X159201249Y-90694478D01*
X159131672Y-90598713D01*
X159071681Y-90516141D01*
X159071677Y-90516136D01*
X158915797Y-90360256D01*
X158915792Y-90360252D01*
X158776179Y-90258818D01*
X158733513Y-90203489D01*
X158727534Y-90133875D01*
X158760139Y-90072080D01*
X158776179Y-90058182D01*
X158915792Y-89956747D01*
X158915790Y-89956747D01*
X158915799Y-89956742D01*
X159071676Y-89800865D01*
X159201249Y-89622522D01*
X159301329Y-89426106D01*
X159369449Y-89216451D01*
X159403934Y-88998722D01*
X159403934Y-88778278D01*
X159369449Y-88560549D01*
X159301329Y-88350894D01*
X159301329Y-88350893D01*
X159240078Y-88230684D01*
X159201249Y-88154478D01*
X159131672Y-88058713D01*
X159071681Y-87976141D01*
X159071677Y-87976136D01*
X158915797Y-87820256D01*
X158915792Y-87820252D01*
X158776179Y-87718818D01*
X158733513Y-87663489D01*
X158727534Y-87593875D01*
X158760139Y-87532080D01*
X158776179Y-87518182D01*
X158915792Y-87416747D01*
X158915790Y-87416747D01*
X158915799Y-87416742D01*
X159071676Y-87260865D01*
X159201249Y-87082522D01*
X159301329Y-86886106D01*
X159348614Y-86740576D01*
X159370955Y-86671817D01*
X159372657Y-86672370D01*
X159403608Y-86618449D01*
X159465630Y-86586276D01*
X159535199Y-86592742D01*
X159577085Y-86620295D01*
X161871615Y-88914825D01*
X161905100Y-88976148D01*
X161907934Y-89002506D01*
X161907934Y-110659448D01*
X161888249Y-110726487D01*
X161835445Y-110772242D01*
X161770678Y-110782737D01*
X161731278Y-110778500D01*
X161083434Y-110778500D01*
X161083434Y-111695488D01*
X161026427Y-111662575D01*
X160899260Y-111628500D01*
X160767608Y-111628500D01*
X160640441Y-111662575D01*
X160583434Y-111695488D01*
X160583434Y-110778500D01*
X159935589Y-110778500D01*
X159876061Y-110784901D01*
X159876054Y-110784903D01*
X159741347Y-110835145D01*
X159741340Y-110835149D01*
X159626246Y-110921309D01*
X159626243Y-110921312D01*
X159540083Y-111036406D01*
X159540079Y-111036413D01*
X159489837Y-111171120D01*
X159489835Y-111171127D01*
X159483434Y-111230655D01*
X159483434Y-111878500D01*
X160400422Y-111878500D01*
X160367509Y-111935507D01*
X160333434Y-112062674D01*
X160333434Y-112194326D01*
X160367509Y-112321493D01*
X160400422Y-112378500D01*
X159483434Y-112378500D01*
X159483434Y-113026344D01*
X159489835Y-113085872D01*
X159489837Y-113085879D01*
X159540079Y-113220586D01*
X159540083Y-113220593D01*
X159626243Y-113335687D01*
X159626246Y-113335690D01*
X159741340Y-113421850D01*
X159741347Y-113421854D01*
X159872904Y-113470922D01*
X159928838Y-113512793D01*
X159953255Y-113578258D01*
X159938403Y-113646531D01*
X159917253Y-113674785D01*
X159803323Y-113788715D01*
X159678385Y-113960679D01*
X159581878Y-114150085D01*
X159516187Y-114352260D01*
X159482934Y-114562213D01*
X159482934Y-114774786D01*
X159516169Y-114984627D01*
X159516188Y-114984743D01*
X159556431Y-115108599D01*
X159581878Y-115186914D01*
X159678385Y-115376320D01*
X159803324Y-115548286D01*
X159953647Y-115698609D01*
X160125616Y-115823550D01*
X160134380Y-115828016D01*
X160185176Y-115875991D01*
X160201970Y-115943812D01*
X160179432Y-116009947D01*
X160134380Y-116048984D01*
X160125616Y-116053449D01*
X159953647Y-116178390D01*
X159803324Y-116328713D01*
X159678385Y-116500679D01*
X159581878Y-116690083D01*
X159548289Y-116793461D01*
X159508851Y-116851136D01*
X159444492Y-116878334D01*
X159375646Y-116866419D01*
X159342677Y-116842823D01*
X153600253Y-111100399D01*
X153566768Y-111039076D01*
X153563934Y-111012718D01*
X153563934Y-84634281D01*
X153583619Y-84567242D01*
X153600248Y-84546605D01*
X156472997Y-81673855D01*
X156475408Y-81672539D01*
X156476830Y-81670182D01*
X156505903Y-81655887D01*
X156534318Y-81640372D01*
X156537061Y-81640568D01*
X156539531Y-81639354D01*
X156571712Y-81643046D01*
G37*
%TD.AperFunction*%
%TA.AperFunction,Conductor*%
G36*
X170404354Y-53068841D02*
G01*
X170450133Y-53121625D01*
X170461361Y-53173186D01*
X170461366Y-55720648D01*
X170461361Y-55720734D01*
X170461361Y-55729332D01*
X170461361Y-55776927D01*
X170461361Y-55975751D01*
X170468423Y-56051971D01*
X170498049Y-56371694D01*
X170498049Y-56371695D01*
X170519095Y-56484280D01*
X170571119Y-56762581D01*
X170571121Y-56762588D01*
X170679270Y-57142696D01*
X170679940Y-57145049D01*
X170734597Y-57286134D01*
X170823586Y-57515841D01*
X171000835Y-57871806D01*
X171000839Y-57871813D01*
X171153554Y-58118456D01*
X171210169Y-58209892D01*
X171443386Y-58518721D01*
X171449801Y-58527215D01*
X171449808Y-58527225D01*
X171569373Y-58658381D01*
X171717700Y-58821088D01*
X171878428Y-58967611D01*
X172011562Y-59088979D01*
X172011565Y-59088981D01*
X172011566Y-59088982D01*
X172328896Y-59328619D01*
X172328898Y-59328620D01*
X172666974Y-59537948D01*
X172666981Y-59537952D01*
X172666983Y-59537953D01*
X173022943Y-59715200D01*
X173393739Y-59858848D01*
X173776199Y-59967666D01*
X173776199Y-59967667D01*
X173776201Y-59967667D01*
X173776207Y-59967669D01*
X174167085Y-60040737D01*
X174167090Y-60040737D01*
X174167093Y-60040738D01*
X174357950Y-60058423D01*
X174563037Y-60077427D01*
X174714266Y-60077427D01*
X174758715Y-60077427D01*
X174764995Y-60077586D01*
X174800556Y-60079389D01*
X175129865Y-60096090D01*
X175142340Y-60097358D01*
X175500358Y-60152205D01*
X175512633Y-60154727D01*
X175863277Y-60245515D01*
X175875253Y-60249273D01*
X176214878Y-60375057D01*
X176226420Y-60380009D01*
X176493608Y-60511071D01*
X176551589Y-60539512D01*
X176562571Y-60545608D01*
X176869935Y-60737189D01*
X176880238Y-60744360D01*
X177001570Y-60838278D01*
X177166639Y-60966051D01*
X177176170Y-60974233D01*
X177438674Y-61223761D01*
X177447325Y-61232862D01*
X177667352Y-61489163D01*
X177683238Y-61507667D01*
X177690927Y-61517600D01*
X177897826Y-61814862D01*
X177904470Y-61825521D01*
X178080237Y-62142191D01*
X178085769Y-62153469D01*
X178228596Y-62486296D01*
X178232958Y-62498075D01*
X178341377Y-62843632D01*
X178344526Y-62855792D01*
X178417434Y-63210560D01*
X178419336Y-63222976D01*
X178454360Y-63567399D01*
X178455977Y-63583295D01*
X178456613Y-63595840D01*
X178456613Y-63958013D01*
X178455977Y-63970558D01*
X178419336Y-64330877D01*
X178417434Y-64343293D01*
X178344526Y-64698061D01*
X178341377Y-64710221D01*
X178232958Y-65055778D01*
X178228596Y-65067557D01*
X178085769Y-65400384D01*
X178080237Y-65411662D01*
X177904470Y-65728332D01*
X177897826Y-65738991D01*
X177690927Y-66036253D01*
X177683238Y-66046186D01*
X177447328Y-66320988D01*
X177438674Y-66330092D01*
X177176170Y-66579620D01*
X177166639Y-66587802D01*
X176880245Y-66809488D01*
X176869935Y-66816664D01*
X176562571Y-67008245D01*
X176551589Y-67014341D01*
X176226421Y-67173843D01*
X176214878Y-67178796D01*
X175875258Y-67304578D01*
X175863273Y-67308339D01*
X175512647Y-67399123D01*
X175500343Y-67401651D01*
X175142351Y-67456493D01*
X175129855Y-67457764D01*
X174764996Y-67476268D01*
X174758715Y-67476427D01*
X174563037Y-67476427D01*
X174491412Y-67483063D01*
X174167093Y-67513115D01*
X174167092Y-67513115D01*
X173776199Y-67586186D01*
X173776199Y-67586187D01*
X173393755Y-67695001D01*
X173393745Y-67695004D01*
X173393739Y-67695006D01*
X173299966Y-67731334D01*
X173022946Y-67838652D01*
X172666981Y-68015901D01*
X172666974Y-68015905D01*
X172328898Y-68225233D01*
X172011572Y-68464867D01*
X172011562Y-68464874D01*
X171717700Y-68732766D01*
X171449808Y-69026628D01*
X171449801Y-69026638D01*
X171210167Y-69343964D01*
X171000839Y-69682040D01*
X171000835Y-69682047D01*
X170823586Y-70038012D01*
X170794745Y-70112460D01*
X170693239Y-70374478D01*
X170679940Y-70408806D01*
X170679935Y-70408821D01*
X170571121Y-70791265D01*
X170571120Y-70791265D01*
X170498049Y-71182158D01*
X170498049Y-71182159D01*
X170470738Y-71476908D01*
X170463997Y-71549662D01*
X170461361Y-71578105D01*
X170461361Y-71737338D01*
X170461366Y-116721021D01*
X170461361Y-116721111D01*
X170461361Y-116975748D01*
X170498049Y-117371694D01*
X170498049Y-117371695D01*
X170516470Y-117470237D01*
X170571119Y-117762581D01*
X170571121Y-117762588D01*
X170675170Y-118128286D01*
X170679940Y-118145049D01*
X170764588Y-118363550D01*
X170823586Y-118515841D01*
X171000835Y-118871806D01*
X171000839Y-118871813D01*
X171130167Y-119080684D01*
X171210169Y-119209892D01*
X171408298Y-119472257D01*
X171449801Y-119527215D01*
X171449808Y-119527225D01*
X171534809Y-119620466D01*
X171717700Y-119821088D01*
X171896179Y-119983793D01*
X172011562Y-120088979D01*
X172011565Y-120088981D01*
X172011566Y-120088982D01*
X172328896Y-120328619D01*
X172328898Y-120328620D01*
X172666974Y-120537948D01*
X172666981Y-120537952D01*
X172666983Y-120537953D01*
X173022943Y-120715200D01*
X173393739Y-120858848D01*
X173776199Y-120967666D01*
X173776199Y-120967667D01*
X173776201Y-120967667D01*
X173776207Y-120967669D01*
X174167085Y-121040737D01*
X174167090Y-121040737D01*
X174167093Y-121040738D01*
X174357950Y-121058423D01*
X174563037Y-121077427D01*
X174714266Y-121077427D01*
X174758715Y-121077427D01*
X174764995Y-121077586D01*
X174800556Y-121079389D01*
X175129865Y-121096090D01*
X175142340Y-121097358D01*
X175500358Y-121152205D01*
X175512633Y-121154727D01*
X175863277Y-121245515D01*
X175875253Y-121249273D01*
X176214878Y-121375057D01*
X176226420Y-121380009D01*
X176493636Y-121511085D01*
X176551589Y-121539512D01*
X176562571Y-121545608D01*
X176869935Y-121737189D01*
X176880238Y-121744360D01*
X176913472Y-121770085D01*
X177166639Y-121966051D01*
X177176170Y-121974233D01*
X177231293Y-122026631D01*
X177437045Y-122222213D01*
X177438674Y-122223761D01*
X177447325Y-122232862D01*
X177662932Y-122484014D01*
X177683238Y-122507667D01*
X177690927Y-122517600D01*
X177897826Y-122814862D01*
X177904470Y-122825521D01*
X178080237Y-123142191D01*
X178085769Y-123153469D01*
X178228596Y-123486296D01*
X178232958Y-123498075D01*
X178341377Y-123843632D01*
X178344526Y-123855792D01*
X178417434Y-124210560D01*
X178419336Y-124222976D01*
X178455977Y-124583295D01*
X178456613Y-124595840D01*
X178456613Y-124958013D01*
X178455977Y-124970558D01*
X178419336Y-125330877D01*
X178417434Y-125343293D01*
X178344526Y-125698061D01*
X178341377Y-125710221D01*
X178232958Y-126055778D01*
X178228596Y-126067557D01*
X178085769Y-126400384D01*
X178080237Y-126411662D01*
X177904470Y-126728332D01*
X177897826Y-126738991D01*
X177690927Y-127036253D01*
X177683238Y-127046186D01*
X177447328Y-127320988D01*
X177438674Y-127330092D01*
X177176170Y-127579620D01*
X177166639Y-127587802D01*
X176880245Y-127809488D01*
X176869935Y-127816664D01*
X176562571Y-128008245D01*
X176551589Y-128014341D01*
X176226421Y-128173843D01*
X176214878Y-128178796D01*
X175875258Y-128304578D01*
X175863273Y-128308339D01*
X175512647Y-128399123D01*
X175500343Y-128401651D01*
X175142351Y-128456493D01*
X175129855Y-128457764D01*
X174764996Y-128476268D01*
X174758715Y-128476427D01*
X174563037Y-128476427D01*
X174491412Y-128483063D01*
X174167093Y-128513115D01*
X174167092Y-128513115D01*
X173776199Y-128586186D01*
X173776199Y-128586187D01*
X173393755Y-128695001D01*
X173393745Y-128695004D01*
X173393739Y-128695006D01*
X173276495Y-128740426D01*
X173022946Y-128838652D01*
X172666981Y-129015901D01*
X172666974Y-129015905D01*
X172328898Y-129225233D01*
X172011572Y-129464867D01*
X172011562Y-129464874D01*
X171717700Y-129732766D01*
X171449808Y-130026628D01*
X171449801Y-130026638D01*
X171210167Y-130343964D01*
X171000839Y-130682040D01*
X171000835Y-130682047D01*
X170823586Y-131038012D01*
X170776306Y-131160057D01*
X170690953Y-131380379D01*
X170679940Y-131408806D01*
X170679935Y-131408821D01*
X170571121Y-131791265D01*
X170571120Y-131791265D01*
X170498049Y-132182158D01*
X170498049Y-132182159D01*
X170461361Y-132578105D01*
X170461361Y-132775013D01*
X170461355Y-132776199D01*
X170436967Y-135325372D01*
X170416642Y-135392220D01*
X170363403Y-135437468D01*
X170313028Y-135448186D01*
X106857989Y-135476239D01*
X106790941Y-135456584D01*
X106745162Y-135403800D01*
X106733934Y-135352239D01*
X106733934Y-132549678D01*
X106697245Y-132153732D01*
X106697245Y-132153731D01*
X106697244Y-132153724D01*
X106624176Y-131762846D01*
X106515355Y-131380378D01*
X106371707Y-131009582D01*
X106194460Y-130653622D01*
X106194459Y-130653620D01*
X106194455Y-130653613D01*
X106046654Y-130414907D01*
X105985126Y-130315535D01*
X105745489Y-129998205D01*
X105477595Y-129704339D01*
X105237904Y-129485832D01*
X105183732Y-129436447D01*
X105183722Y-129436440D01*
X105122342Y-129390088D01*
X104866399Y-129196808D01*
X104866396Y-129196806D01*
X104528320Y-128987478D01*
X104528313Y-128987474D01*
X104172348Y-128810225D01*
X104013544Y-128748704D01*
X103801556Y-128666579D01*
X103801542Y-128666575D01*
X103801539Y-128666574D01*
X103419095Y-128557760D01*
X103419095Y-128557759D01*
X103028201Y-128484688D01*
X102708478Y-128455062D01*
X102632258Y-128448000D01*
X102632255Y-128448000D01*
X102436580Y-128448000D01*
X102430299Y-128447841D01*
X102065439Y-128429337D01*
X102052943Y-128428066D01*
X101694951Y-128373224D01*
X101682647Y-128370696D01*
X101332021Y-128279912D01*
X101320036Y-128276151D01*
X100980416Y-128150369D01*
X100968873Y-128145416D01*
X100643705Y-127985914D01*
X100632723Y-127979818D01*
X100325359Y-127788237D01*
X100315049Y-127781061D01*
X100298949Y-127768599D01*
X100075784Y-127595856D01*
X100028655Y-127559375D01*
X100019124Y-127551193D01*
X99776948Y-127320988D01*
X99756617Y-127301662D01*
X99747966Y-127292561D01*
X99512051Y-127017753D01*
X99504372Y-127007833D01*
X99297468Y-126710564D01*
X99290824Y-126699905D01*
X99124576Y-126400384D01*
X99115056Y-126383233D01*
X99109525Y-126371957D01*
X99107303Y-126366780D01*
X98973842Y-126055778D01*
X98966698Y-126039130D01*
X98962336Y-126027351D01*
X98853917Y-125681794D01*
X98850768Y-125669634D01*
X98831591Y-125576320D01*
X98777857Y-125314852D01*
X98775960Y-125302464D01*
X98739318Y-124942131D01*
X98738682Y-124929586D01*
X98738682Y-124567413D01*
X98739112Y-124558922D01*
X100161361Y-124558922D01*
X100161361Y-124794931D01*
X100161362Y-124794947D01*
X100192167Y-125028937D01*
X100253255Y-125256920D01*
X100343575Y-125474972D01*
X100343580Y-125474983D01*
X100402086Y-125576316D01*
X100461588Y-125679377D01*
X100461590Y-125679380D01*
X100461591Y-125679381D01*
X100605267Y-125866624D01*
X100605273Y-125866631D01*
X100772156Y-126033514D01*
X100772163Y-126033520D01*
X100877967Y-126114706D01*
X100959411Y-126177200D01*
X101083372Y-126248769D01*
X101163804Y-126295207D01*
X101163809Y-126295209D01*
X101163812Y-126295211D01*
X101381868Y-126385533D01*
X101609847Y-126446620D01*
X101843850Y-126477427D01*
X101843857Y-126477427D01*
X102079865Y-126477427D01*
X102079872Y-126477427D01*
X102313875Y-126446620D01*
X102541854Y-126385533D01*
X102759910Y-126295211D01*
X102964311Y-126177200D01*
X103151560Y-126033519D01*
X103318453Y-125866626D01*
X103462134Y-125679377D01*
X103580145Y-125474976D01*
X103670467Y-125256920D01*
X103731554Y-125028941D01*
X103762361Y-124794938D01*
X103762361Y-124558916D01*
X103731554Y-124324913D01*
X103670467Y-124096934D01*
X103580145Y-123878878D01*
X103580143Y-123878875D01*
X103580141Y-123878870D01*
X103513154Y-123762846D01*
X103462134Y-123674477D01*
X103318453Y-123487228D01*
X103318448Y-123487222D01*
X103151565Y-123320339D01*
X103151558Y-123320333D01*
X102964315Y-123176657D01*
X102964314Y-123176656D01*
X102964311Y-123176654D01*
X102882818Y-123129604D01*
X102759917Y-123058646D01*
X102759906Y-123058641D01*
X102541854Y-122968321D01*
X102313871Y-122907233D01*
X102079881Y-122876428D01*
X102079878Y-122876427D01*
X102079872Y-122876427D01*
X101843850Y-122876427D01*
X101843844Y-122876427D01*
X101843840Y-122876428D01*
X101609850Y-122907233D01*
X101381867Y-122968321D01*
X101163815Y-123058641D01*
X101163804Y-123058646D01*
X100959406Y-123176657D01*
X100772163Y-123320333D01*
X100772156Y-123320339D01*
X100605273Y-123487222D01*
X100605267Y-123487229D01*
X100461591Y-123674472D01*
X100343580Y-123878870D01*
X100343575Y-123878881D01*
X100253255Y-124096933D01*
X100192167Y-124324916D01*
X100161362Y-124558906D01*
X100161361Y-124558922D01*
X98739112Y-124558922D01*
X98739318Y-124554866D01*
X98739584Y-124552257D01*
X98775960Y-124194532D01*
X98777857Y-124182150D01*
X98850769Y-123827359D01*
X98853917Y-123815205D01*
X98854213Y-123814264D01*
X98962337Y-123469643D01*
X98966698Y-123457869D01*
X98970927Y-123448014D01*
X99109529Y-123125032D01*
X99115052Y-123113774D01*
X99290828Y-122797087D01*
X99297463Y-122786442D01*
X99504379Y-122489157D01*
X99512043Y-122479255D01*
X99747978Y-122204424D01*
X99756607Y-122195346D01*
X100019131Y-121945799D01*
X100028647Y-121937630D01*
X100315065Y-121715926D01*
X100325351Y-121708767D01*
X100632723Y-121517181D01*
X100643697Y-121511089D01*
X100968881Y-121351579D01*
X100980407Y-121346633D01*
X101320046Y-121220844D01*
X101332011Y-121217089D01*
X101682665Y-121126299D01*
X101694932Y-121123778D01*
X102052956Y-121068931D01*
X102065427Y-121067663D01*
X102397407Y-121050827D01*
X102430300Y-121049159D01*
X102436580Y-121049000D01*
X102632255Y-121049000D01*
X102632258Y-121049000D01*
X102880143Y-121026030D01*
X103028201Y-121012311D01*
X103028202Y-121012311D01*
X103028204Y-121012310D01*
X103028210Y-121012310D01*
X103419088Y-120939242D01*
X103801556Y-120830421D01*
X104172352Y-120686773D01*
X104528312Y-120509526D01*
X104866399Y-120300192D01*
X105183729Y-120060555D01*
X105477595Y-119792661D01*
X105745489Y-119498795D01*
X105985126Y-119181465D01*
X106194460Y-118843378D01*
X106371707Y-118487418D01*
X106515355Y-118116622D01*
X106624176Y-117734154D01*
X106697244Y-117343276D01*
X106733934Y-116947324D01*
X106733934Y-116796363D01*
X106733937Y-116796318D01*
X106733937Y-113640487D01*
X106733935Y-101565643D01*
X106733935Y-99112266D01*
X107057934Y-99112266D01*
X107057934Y-109948946D01*
X107091577Y-110118079D01*
X107091580Y-110118091D01*
X107157572Y-110277411D01*
X107157579Y-110277424D01*
X107253388Y-110420811D01*
X107253391Y-110420815D01*
X108339176Y-111506599D01*
X108461077Y-111628500D01*
X108461123Y-111628546D01*
X108604509Y-111724354D01*
X108604522Y-111724361D01*
X108763842Y-111790353D01*
X108763847Y-111790355D01*
X108932987Y-111823999D01*
X108932990Y-111824000D01*
X108932992Y-111824000D01*
X109601621Y-111824000D01*
X109668660Y-111843685D01*
X109701938Y-111875113D01*
X109738917Y-111926010D01*
X109905924Y-112093017D01*
X110097001Y-112231843D01*
X110141468Y-112254500D01*
X110307437Y-112339066D01*
X110307439Y-112339066D01*
X110307442Y-112339068D01*
X110427846Y-112378189D01*
X110532065Y-112412053D01*
X110765337Y-112449000D01*
X110765342Y-112449000D01*
X111001531Y-112449000D01*
X111234802Y-112412053D01*
X111459426Y-112339068D01*
X111669867Y-112231843D01*
X111860944Y-112093017D01*
X112027951Y-111926010D01*
X112166777Y-111734933D01*
X112274002Y-111524492D01*
X112346987Y-111299868D01*
X112361552Y-111207908D01*
X112383934Y-111066597D01*
X112383934Y-110830402D01*
X112346987Y-110597131D01*
X112289697Y-110420812D01*
X112274002Y-110372508D01*
X112274000Y-110372505D01*
X112274000Y-110372503D01*
X112166776Y-110162066D01*
X112134826Y-110118091D01*
X112027951Y-109970990D01*
X112027942Y-109970981D01*
X112024787Y-109967286D01*
X112026568Y-109965764D01*
X111997707Y-109912908D01*
X112002691Y-109843216D01*
X112044563Y-109787283D01*
X112053768Y-109781016D01*
X112102090Y-109751212D01*
X112226146Y-109627156D01*
X112318248Y-109477834D01*
X112373433Y-109311297D01*
X112383934Y-109208509D01*
X112383933Y-107647505D01*
X112403618Y-107580467D01*
X112420252Y-107559825D01*
X115013476Y-104966602D01*
X115013476Y-104966601D01*
X115013479Y-104966599D01*
X115109292Y-104823205D01*
X115175289Y-104663874D01*
X115208934Y-104494729D01*
X115208934Y-104322271D01*
X115208934Y-100712505D01*
X115228619Y-100645466D01*
X115245248Y-100624829D01*
X118238171Y-97631905D01*
X118299492Y-97598422D01*
X118369184Y-97603406D01*
X118425117Y-97645278D01*
X118449534Y-97710742D01*
X118448323Y-97738985D01*
X118422934Y-97899289D01*
X118422934Y-98097709D01*
X118453970Y-98293662D01*
X118453971Y-98293668D01*
X118485689Y-98391285D01*
X118515284Y-98482368D01*
X118557717Y-98565647D01*
X118605357Y-98659146D01*
X118721978Y-98819661D01*
X118862273Y-98959956D01*
X119022788Y-99076577D01*
X119136234Y-99134380D01*
X119199565Y-99166649D01*
X119199567Y-99166649D01*
X119199570Y-99166651D01*
X119388266Y-99227963D01*
X119486248Y-99243481D01*
X119584225Y-99259000D01*
X119584230Y-99259000D01*
X119782643Y-99259000D01*
X119871712Y-99244892D01*
X119978602Y-99227963D01*
X120167298Y-99166651D01*
X120344080Y-99076577D01*
X120504595Y-98959956D01*
X120644890Y-98819661D01*
X120761511Y-98659146D01*
X120851585Y-98482364D01*
X120912897Y-98293668D01*
X120930303Y-98183766D01*
X120943934Y-98097709D01*
X120943934Y-97899290D01*
X120916883Y-97728500D01*
X120912897Y-97703332D01*
X120863750Y-97552075D01*
X120861755Y-97482234D01*
X120893998Y-97426078D01*
X121211253Y-97108823D01*
X121272576Y-97075339D01*
X121342268Y-97080323D01*
X121398201Y-97122195D01*
X121422618Y-97187659D01*
X121422934Y-97196505D01*
X121422934Y-97998243D01*
X121422935Y-98799000D01*
X121403250Y-98866039D01*
X121350447Y-98911794D01*
X121303231Y-98922065D01*
X121303265Y-98922403D01*
X121300367Y-98922688D01*
X121298935Y-98923000D01*
X121297202Y-98923000D01*
X121128067Y-98956643D01*
X121128055Y-98956646D01*
X120968735Y-99022638D01*
X120968722Y-99022645D01*
X120825335Y-99118454D01*
X120825331Y-99118457D01*
X119742109Y-100201681D01*
X119680786Y-100235166D01*
X119654428Y-100238000D01*
X119584225Y-100238000D01*
X119388271Y-100269036D01*
X119388269Y-100269036D01*
X119388266Y-100269037D01*
X119293918Y-100299693D01*
X119199565Y-100330350D01*
X119022786Y-100420424D01*
X119022783Y-100420426D01*
X118983455Y-100449000D01*
X118862273Y-100537044D01*
X118862271Y-100537046D01*
X118862270Y-100537046D01*
X118721980Y-100677336D01*
X118721980Y-100677337D01*
X118721978Y-100677339D01*
X118673085Y-100744634D01*
X118605360Y-100837849D01*
X118605358Y-100837852D01*
X118515284Y-101014631D01*
X118504252Y-101048584D01*
X118453971Y-101203332D01*
X118453970Y-101203335D01*
X118453970Y-101203337D01*
X118422934Y-101399290D01*
X118422934Y-101597709D01*
X118453953Y-101793552D01*
X118453971Y-101793668D01*
X118472942Y-101852053D01*
X118515284Y-101982368D01*
X118576455Y-102102422D01*
X118605357Y-102159146D01*
X118721978Y-102319661D01*
X118862273Y-102459956D01*
X119022788Y-102576577D01*
X119136234Y-102634380D01*
X119199565Y-102666649D01*
X119199567Y-102666649D01*
X119199570Y-102666651D01*
X119388266Y-102727963D01*
X119486248Y-102743481D01*
X119584225Y-102759000D01*
X119584230Y-102759000D01*
X119782643Y-102759000D01*
X119871712Y-102744892D01*
X119978602Y-102727963D01*
X120167298Y-102666651D01*
X120344080Y-102576577D01*
X120504595Y-102459956D01*
X120644890Y-102319661D01*
X120761511Y-102159146D01*
X120851585Y-101982364D01*
X120912897Y-101793668D01*
X120929826Y-101686778D01*
X120943934Y-101597709D01*
X120943934Y-101527505D01*
X120963619Y-101460466D01*
X120980248Y-101439829D01*
X121229365Y-101190712D01*
X121290686Y-101157229D01*
X121360378Y-101162213D01*
X121416311Y-101204085D01*
X121440728Y-101269549D01*
X121439517Y-101297793D01*
X121423434Y-101399336D01*
X121423434Y-101597663D01*
X121454460Y-101793552D01*
X121515744Y-101982169D01*
X121515745Y-101982172D01*
X121605784Y-102158880D01*
X121632595Y-102195783D01*
X122192305Y-101636072D01*
X122208189Y-101695353D01*
X122275332Y-101811647D01*
X122370287Y-101906602D01*
X122486581Y-101973745D01*
X122545858Y-101989628D01*
X121986148Y-102549337D01*
X121986149Y-102549338D01*
X122023046Y-102576145D01*
X122199761Y-102666188D01*
X122199764Y-102666189D01*
X122388381Y-102727473D01*
X122584271Y-102758500D01*
X122782597Y-102758500D01*
X122978486Y-102727473D01*
X123167103Y-102666189D01*
X123167106Y-102666188D01*
X123343816Y-102576148D01*
X123380717Y-102549337D01*
X123380718Y-102549336D01*
X122821009Y-101989627D01*
X122880287Y-101973745D01*
X122996581Y-101906602D01*
X123091536Y-101811647D01*
X123158679Y-101695353D01*
X123174562Y-101636075D01*
X123734271Y-102195784D01*
X123734271Y-102195783D01*
X123761081Y-102158884D01*
X123851122Y-101982172D01*
X123851123Y-101982169D01*
X123912407Y-101793552D01*
X123943434Y-101597663D01*
X123943434Y-101399336D01*
X123912407Y-101203447D01*
X123851123Y-101014830D01*
X123851122Y-101014827D01*
X123760313Y-100836607D01*
X123747417Y-100767938D01*
X123773693Y-100703198D01*
X123830799Y-100662940D01*
X123846607Y-100658695D01*
X123859767Y-100656077D01*
X123938808Y-100640355D01*
X124098139Y-100574358D01*
X124241533Y-100478545D01*
X127936753Y-96783325D01*
X127998076Y-96749840D01*
X128067768Y-96754824D01*
X128123701Y-96796696D01*
X128148118Y-96862160D01*
X128148434Y-96871006D01*
X128148434Y-96968500D01*
X128968874Y-96968500D01*
X128938189Y-97021647D01*
X128903434Y-97151357D01*
X128903434Y-97285643D01*
X128938189Y-97415353D01*
X128968874Y-97468500D01*
X128148434Y-97468500D01*
X128148434Y-98031344D01*
X128154835Y-98090872D01*
X128154837Y-98090879D01*
X128205079Y-98225586D01*
X128205083Y-98225593D01*
X128291243Y-98340687D01*
X128291246Y-98340690D01*
X128406340Y-98426850D01*
X128406347Y-98426854D01*
X128541054Y-98477096D01*
X128541061Y-98477098D01*
X128600589Y-98483499D01*
X128600606Y-98483500D01*
X129163434Y-98483500D01*
X129163434Y-97663060D01*
X129216581Y-97693745D01*
X129346291Y-97728500D01*
X129480577Y-97728500D01*
X129610287Y-97693745D01*
X129663434Y-97663060D01*
X129663434Y-98483500D01*
X130226262Y-98483500D01*
X130226278Y-98483499D01*
X130285806Y-98477098D01*
X130285813Y-98477096D01*
X130420520Y-98426854D01*
X130420527Y-98426850D01*
X130535621Y-98340690D01*
X130535624Y-98340687D01*
X130621784Y-98225593D01*
X130621788Y-98225586D01*
X130672030Y-98090879D01*
X130672032Y-98090872D01*
X130678433Y-98031344D01*
X130678434Y-98031327D01*
X130678434Y-97998243D01*
X130698119Y-97931204D01*
X130750923Y-97885449D01*
X130820081Y-97875505D01*
X130883637Y-97904530D01*
X130902750Y-97925355D01*
X130988165Y-98042918D01*
X131129016Y-98183769D01*
X131290168Y-98300853D01*
X131368347Y-98340687D01*
X131467653Y-98391286D01*
X131657091Y-98452838D01*
X131657092Y-98452838D01*
X131657095Y-98452839D01*
X131853837Y-98484000D01*
X131853838Y-98484000D01*
X132053030Y-98484000D01*
X132053031Y-98484000D01*
X132249773Y-98452839D01*
X132249776Y-98452838D01*
X132249777Y-98452838D01*
X132439214Y-98391286D01*
X132439214Y-98391285D01*
X132439217Y-98391285D01*
X132616700Y-98300853D01*
X132777852Y-98183769D01*
X132918703Y-98042918D01*
X133035787Y-97881766D01*
X133112949Y-97730327D01*
X133160924Y-97679531D01*
X133228745Y-97662736D01*
X133294880Y-97685273D01*
X133333919Y-97730327D01*
X133345917Y-97753875D01*
X133411081Y-97881766D01*
X133528165Y-98042918D01*
X133669016Y-98183769D01*
X133830168Y-98300853D01*
X133908347Y-98340687D01*
X134007653Y-98391286D01*
X134197091Y-98452838D01*
X134197092Y-98452838D01*
X134197095Y-98452839D01*
X134393837Y-98484000D01*
X134393838Y-98484000D01*
X134593030Y-98484000D01*
X134593031Y-98484000D01*
X134789773Y-98452839D01*
X134789776Y-98452838D01*
X134789777Y-98452838D01*
X134979214Y-98391286D01*
X134979214Y-98391285D01*
X134979217Y-98391285D01*
X135156700Y-98300853D01*
X135317852Y-98183769D01*
X135458703Y-98042918D01*
X135575787Y-97881766D01*
X135652949Y-97730327D01*
X135700924Y-97679531D01*
X135768745Y-97662736D01*
X135834880Y-97685273D01*
X135873919Y-97730327D01*
X135885917Y-97753875D01*
X135951081Y-97881766D01*
X136068165Y-98042918D01*
X136209016Y-98183769D01*
X136370168Y-98300853D01*
X136448347Y-98340687D01*
X136547653Y-98391286D01*
X136737091Y-98452838D01*
X136737092Y-98452838D01*
X136737095Y-98452839D01*
X136933837Y-98484000D01*
X136933838Y-98484000D01*
X137133030Y-98484000D01*
X137133031Y-98484000D01*
X137329773Y-98452839D01*
X137329776Y-98452838D01*
X137329777Y-98452838D01*
X137519214Y-98391286D01*
X137519214Y-98391285D01*
X137519217Y-98391285D01*
X137696700Y-98300853D01*
X137857852Y-98183769D01*
X137998703Y-98042918D01*
X138115787Y-97881766D01*
X138206219Y-97704283D01*
X138214700Y-97678182D01*
X138267772Y-97514843D01*
X138267772Y-97514842D01*
X138267773Y-97514839D01*
X138298934Y-97318097D01*
X138298934Y-97118903D01*
X138267773Y-96922161D01*
X138267772Y-96922157D01*
X138267772Y-96922156D01*
X138206220Y-96732719D01*
X138174219Y-96669913D01*
X138115787Y-96555234D01*
X137998703Y-96394082D01*
X137857852Y-96253231D01*
X137696700Y-96136147D01*
X137634413Y-96104410D01*
X137519214Y-96045713D01*
X137329776Y-95984161D01*
X137182216Y-95960790D01*
X137133031Y-95953000D01*
X136933837Y-95953000D01*
X136875852Y-95962184D01*
X136737093Y-95984161D01*
X136737090Y-95984161D01*
X136547653Y-96045713D01*
X136370167Y-96136147D01*
X136278224Y-96202947D01*
X136209016Y-96253231D01*
X136209014Y-96253233D01*
X136209013Y-96253233D01*
X136068167Y-96394079D01*
X136068167Y-96394080D01*
X136068165Y-96394082D01*
X136045511Y-96425263D01*
X135951079Y-96555236D01*
X135920311Y-96615621D01*
X135872336Y-96666417D01*
X135804515Y-96683211D01*
X135738380Y-96660673D01*
X135694930Y-96605957D01*
X135686203Y-96568984D01*
X135673869Y-96411048D01*
X135673530Y-96406918D01*
X135673521Y-96406824D01*
X135673507Y-96406642D01*
X135651798Y-96155260D01*
X135648968Y-96129963D01*
X135648967Y-96129950D01*
X135648809Y-96128800D01*
X135644849Y-96104410D01*
X135623505Y-95990622D01*
X135617318Y-95962184D01*
X135616993Y-95960873D01*
X135609127Y-95932666D01*
X135593168Y-95881248D01*
X135574448Y-95820931D01*
X135574444Y-95820918D01*
X135563477Y-95789316D01*
X135562919Y-95787865D01*
X135549748Y-95756760D01*
X135496937Y-95642802D01*
X135482419Y-95613932D01*
X135481708Y-95612624D01*
X135465359Y-95584713D01*
X135389486Y-95464203D01*
X135374296Y-95441466D01*
X135373569Y-95440439D01*
X135368165Y-95433222D01*
X135357360Y-95418792D01*
X135253511Y-95287580D01*
X135250135Y-95283489D01*
X135240375Y-95271661D01*
X135239742Y-95270925D01*
X135225466Y-95255017D01*
X135096750Y-95117550D01*
X135090918Y-95111423D01*
X135090728Y-95111226D01*
X135090686Y-95111186D01*
X135044677Y-95069178D01*
X135042689Y-95067705D01*
X135028844Y-95055766D01*
X133391536Y-93418457D01*
X133391532Y-93418454D01*
X133248145Y-93322645D01*
X133248132Y-93322638D01*
X133088812Y-93256646D01*
X133088800Y-93256643D01*
X132919666Y-93223000D01*
X132919663Y-93223000D01*
X123069663Y-93223000D01*
X122946439Y-93223000D01*
X122879400Y-93203315D01*
X122833645Y-93150511D01*
X122823701Y-93081353D01*
X122852726Y-93017797D01*
X122858744Y-93011332D01*
X123113479Y-92756599D01*
X123209292Y-92613205D01*
X123275289Y-92453874D01*
X123308934Y-92284729D01*
X123308934Y-92217299D01*
X123310284Y-92210221D01*
X123309451Y-92205987D01*
X123317640Y-92171656D01*
X123326373Y-92149595D01*
X123342739Y-92108256D01*
X123347668Y-92097372D01*
X123398614Y-91997920D01*
X123403408Y-91989409D01*
X123491375Y-91846752D01*
X123503283Y-91825383D01*
X123511281Y-91812863D01*
X123513221Y-91810194D01*
X123603439Y-91633132D01*
X123664847Y-91444136D01*
X123695934Y-91247861D01*
X123695934Y-91049139D01*
X123664847Y-90852864D01*
X123613385Y-90694478D01*
X123603440Y-90663870D01*
X123603439Y-90663867D01*
X123541278Y-90541871D01*
X123513221Y-90486806D01*
X123396415Y-90326036D01*
X123255898Y-90185519D01*
X123095128Y-90068713D01*
X123074460Y-90058182D01*
X122918066Y-89978494D01*
X122918063Y-89978493D01*
X122729071Y-89917087D01*
X122630932Y-89901543D01*
X122532795Y-89886000D01*
X122334073Y-89886000D01*
X122268648Y-89896362D01*
X122137796Y-89917087D01*
X121948804Y-89978493D01*
X121948801Y-89978494D01*
X121771739Y-90068713D01*
X121610967Y-90185521D01*
X121470455Y-90326033D01*
X121353647Y-90486805D01*
X121293919Y-90604028D01*
X121245944Y-90654824D01*
X121178123Y-90671619D01*
X121111988Y-90649081D01*
X121072949Y-90604028D01*
X121041278Y-90541871D01*
X121013221Y-90486806D01*
X120896415Y-90326036D01*
X120755898Y-90185519D01*
X120595128Y-90068713D01*
X120574460Y-90058182D01*
X120418066Y-89978494D01*
X120418063Y-89978493D01*
X120229072Y-89917087D01*
X120187940Y-89910572D01*
X120124806Y-89880641D01*
X120087876Y-89821329D01*
X120088874Y-89751467D01*
X120119657Y-89700420D01*
X120659759Y-89160319D01*
X120721082Y-89126834D01*
X120747440Y-89124000D01*
X136629428Y-89124000D01*
X136696467Y-89143685D01*
X136717109Y-89160319D01*
X141326615Y-93769825D01*
X141360100Y-93831148D01*
X141362934Y-93857506D01*
X141362934Y-94078721D01*
X141397419Y-94296452D01*
X141465537Y-94506103D01*
X141465538Y-94506106D01*
X141565621Y-94702525D01*
X141695186Y-94880858D01*
X141695190Y-94880863D01*
X141851070Y-95036743D01*
X141851075Y-95036747D01*
X141990688Y-95138182D01*
X142033354Y-95193512D01*
X142039333Y-95263125D01*
X142006727Y-95324920D01*
X141990688Y-95338818D01*
X141851075Y-95440252D01*
X141851070Y-95440256D01*
X141695190Y-95596136D01*
X141695186Y-95596141D01*
X141565621Y-95774474D01*
X141465538Y-95970893D01*
X141465537Y-95970896D01*
X141397419Y-96180547D01*
X141375708Y-96317627D01*
X141362934Y-96398278D01*
X141362934Y-96618722D01*
X141377273Y-96709254D01*
X141397419Y-96836452D01*
X141465537Y-97046103D01*
X141465538Y-97046106D01*
X141532406Y-97177339D01*
X141563409Y-97238185D01*
X141565621Y-97242525D01*
X141695186Y-97420858D01*
X141695190Y-97420863D01*
X141851070Y-97576743D01*
X141851075Y-97576747D01*
X141990688Y-97678182D01*
X142033354Y-97733512D01*
X142039333Y-97803125D01*
X142006727Y-97864920D01*
X141990688Y-97878818D01*
X141851075Y-97980252D01*
X141851070Y-97980256D01*
X141695190Y-98136136D01*
X141695186Y-98136141D01*
X141565621Y-98314474D01*
X141465538Y-98510893D01*
X141465537Y-98510896D01*
X141397419Y-98720547D01*
X141362934Y-98938278D01*
X141362934Y-99158721D01*
X141397419Y-99376452D01*
X141465537Y-99586103D01*
X141465538Y-99586106D01*
X141565621Y-99782525D01*
X141695186Y-99960858D01*
X141695190Y-99960863D01*
X141851615Y-100117288D01*
X141885100Y-100178611D01*
X141887934Y-100204969D01*
X141887934Y-112064493D01*
X141868249Y-112131532D01*
X141851615Y-112152174D01*
X139563461Y-114440327D01*
X139502138Y-114473812D01*
X139432446Y-114468828D01*
X139376513Y-114426956D01*
X139353306Y-114372041D01*
X139350190Y-114352367D01*
X139284529Y-114150282D01*
X139188058Y-113960949D01*
X139148704Y-113906782D01*
X139148703Y-113906782D01*
X138516396Y-114539090D01*
X138499359Y-114475507D01*
X138433533Y-114361493D01*
X138340441Y-114268401D01*
X138226427Y-114202575D01*
X138162843Y-114185537D01*
X138833061Y-113515318D01*
X138894384Y-113481833D01*
X138920741Y-113478999D01*
X138931306Y-113478999D01*
X138990917Y-113472591D01*
X139125765Y-113422296D01*
X139240980Y-113336046D01*
X139327230Y-113220831D01*
X139377525Y-113085983D01*
X139383934Y-113026373D01*
X139383933Y-111230628D01*
X139377525Y-111171017D01*
X139351186Y-111100399D01*
X139327231Y-111036171D01*
X139327227Y-111036164D01*
X139240981Y-110920955D01*
X139240978Y-110920952D01*
X139125769Y-110834706D01*
X139125762Y-110834702D01*
X138990916Y-110784408D01*
X138990917Y-110784408D01*
X138931317Y-110778001D01*
X138931315Y-110778000D01*
X138931307Y-110778000D01*
X138931298Y-110778000D01*
X137135563Y-110778000D01*
X137135557Y-110778001D01*
X137075950Y-110784408D01*
X136941105Y-110834702D01*
X136941098Y-110834706D01*
X136825889Y-110920952D01*
X136825886Y-110920955D01*
X136739640Y-111036164D01*
X136739636Y-111036171D01*
X136689342Y-111171017D01*
X136682935Y-111230616D01*
X136682935Y-111230623D01*
X136682934Y-111230635D01*
X136682934Y-113026370D01*
X136682935Y-113026376D01*
X136689342Y-113085983D01*
X136739636Y-113220828D01*
X136739640Y-113220835D01*
X136825886Y-113336044D01*
X136825889Y-113336047D01*
X136941098Y-113422293D01*
X136941105Y-113422297D01*
X136986052Y-113439061D01*
X137075951Y-113472591D01*
X137135561Y-113479000D01*
X137146119Y-113478999D01*
X137213157Y-113498679D01*
X137233806Y-113515318D01*
X137904025Y-114185537D01*
X137840441Y-114202575D01*
X137726427Y-114268401D01*
X137633335Y-114361493D01*
X137567509Y-114475507D01*
X137550471Y-114539091D01*
X136918162Y-113906782D01*
X136918161Y-113906782D01*
X136878814Y-113960939D01*
X136782338Y-114150282D01*
X136716676Y-114352369D01*
X136716676Y-114352372D01*
X136683434Y-114562253D01*
X136683434Y-114774746D01*
X136716676Y-114984627D01*
X136716676Y-114984630D01*
X136782338Y-115186717D01*
X136878809Y-115376050D01*
X136918162Y-115430216D01*
X137550471Y-114797908D01*
X137567509Y-114861493D01*
X137633335Y-114975507D01*
X137726427Y-115068599D01*
X137840441Y-115134425D01*
X137904024Y-115151462D01*
X137271716Y-115783769D01*
X137271716Y-115783770D01*
X137325886Y-115823126D01*
X137325885Y-115823126D01*
X137334929Y-115827734D01*
X137385726Y-115875708D01*
X137402521Y-115943529D01*
X137379984Y-116009664D01*
X137334933Y-116048702D01*
X137325616Y-116053449D01*
X137153647Y-116178390D01*
X137003324Y-116328713D01*
X136878385Y-116500679D01*
X136781878Y-116690085D01*
X136716187Y-116892260D01*
X136682934Y-117102213D01*
X136682934Y-117314786D01*
X136716187Y-117524739D01*
X136781878Y-117726914D01*
X136878385Y-117916320D01*
X137003324Y-118088286D01*
X137153647Y-118238609D01*
X137325616Y-118363550D01*
X137334380Y-118368016D01*
X137385176Y-118415991D01*
X137401970Y-118483812D01*
X137379432Y-118549947D01*
X137334380Y-118588984D01*
X137325616Y-118593449D01*
X137153647Y-118718390D01*
X137003324Y-118868713D01*
X136878385Y-119040679D01*
X136781878Y-119230085D01*
X136716187Y-119432260D01*
X136713123Y-119451607D01*
X136683193Y-119514742D01*
X136623882Y-119551673D01*
X136554019Y-119550675D01*
X136502969Y-119519890D01*
X136091536Y-119108457D01*
X136091532Y-119108454D01*
X135948145Y-119012645D01*
X135948132Y-119012638D01*
X135788812Y-118946646D01*
X135788800Y-118946643D01*
X135619666Y-118913000D01*
X135619663Y-118913000D01*
X132419192Y-118913000D01*
X132352153Y-118893315D01*
X132331511Y-118876681D01*
X132213220Y-118758390D01*
X132041254Y-118633451D01*
X132040549Y-118633091D01*
X132032488Y-118628985D01*
X131981693Y-118581012D01*
X131964897Y-118513192D01*
X131987433Y-118447056D01*
X132032488Y-118408015D01*
X132041250Y-118403551D01*
X132096310Y-118363548D01*
X132213220Y-118278609D01*
X132213222Y-118278606D01*
X132213226Y-118278604D01*
X132363538Y-118128292D01*
X132363540Y-118128288D01*
X132363543Y-118128286D01*
X132488482Y-117956320D01*
X132488481Y-117956320D01*
X132488485Y-117956316D01*
X132584991Y-117766912D01*
X132650680Y-117564743D01*
X132683934Y-117354787D01*
X132683934Y-117142213D01*
X132650680Y-116932257D01*
X132584991Y-116730088D01*
X132488485Y-116540684D01*
X132488483Y-116540681D01*
X132488482Y-116540679D01*
X132363543Y-116368713D01*
X132213220Y-116218390D01*
X132041251Y-116093449D01*
X132031938Y-116088704D01*
X131981141Y-116040730D01*
X131964346Y-115972909D01*
X131986883Y-115906774D01*
X132031941Y-115867732D01*
X132040989Y-115863122D01*
X132095150Y-115823770D01*
X132095151Y-115823770D01*
X131462842Y-115191462D01*
X131526427Y-115174425D01*
X131640441Y-115108599D01*
X131733533Y-115015507D01*
X131799359Y-114901493D01*
X131816396Y-114837908D01*
X132448704Y-115470217D01*
X132448704Y-115470216D01*
X132488056Y-115416054D01*
X132584529Y-115226717D01*
X132650191Y-115024630D01*
X132650191Y-115024627D01*
X132683434Y-114814746D01*
X132683434Y-114602255D01*
X132679399Y-114576780D01*
X132679399Y-114576779D01*
X132650191Y-114392372D01*
X132650191Y-114392369D01*
X132584529Y-114190282D01*
X132488058Y-114000949D01*
X132448704Y-113946782D01*
X132448703Y-113946782D01*
X131816396Y-114579090D01*
X131799359Y-114515507D01*
X131733533Y-114401493D01*
X131640441Y-114308401D01*
X131526427Y-114242575D01*
X131462843Y-114225537D01*
X132095150Y-113593228D01*
X132040984Y-113553875D01*
X131851651Y-113457404D01*
X131649563Y-113391742D01*
X131439680Y-113358500D01*
X131227188Y-113358500D01*
X131017306Y-113391742D01*
X131017303Y-113391742D01*
X130815216Y-113457404D01*
X130625873Y-113553880D01*
X130571716Y-113593227D01*
X130571716Y-113593228D01*
X131204025Y-114225537D01*
X131140441Y-114242575D01*
X131026427Y-114308401D01*
X130933335Y-114401493D01*
X130867509Y-114515507D01*
X130850471Y-114579091D01*
X130218162Y-113946782D01*
X130218161Y-113946782D01*
X130178814Y-114000939D01*
X130082338Y-114190282D01*
X130016676Y-114392369D01*
X130016676Y-114392372D01*
X129983434Y-114602253D01*
X129983434Y-114814746D01*
X130016676Y-115024627D01*
X130016676Y-115024630D01*
X130082338Y-115226717D01*
X130178809Y-115416050D01*
X130218162Y-115470216D01*
X130850471Y-114837908D01*
X130867509Y-114901493D01*
X130933335Y-115015507D01*
X131026427Y-115108599D01*
X131140441Y-115174425D01*
X131204024Y-115191462D01*
X130571716Y-115823769D01*
X130571716Y-115823770D01*
X130625886Y-115863126D01*
X130625885Y-115863126D01*
X130634929Y-115867734D01*
X130685726Y-115915708D01*
X130702521Y-115983529D01*
X130679984Y-116049664D01*
X130634933Y-116088702D01*
X130625616Y-116093449D01*
X130453647Y-116218390D01*
X130303324Y-116368713D01*
X130178385Y-116540679D01*
X130081878Y-116730085D01*
X130016187Y-116932260D01*
X129982934Y-117142213D01*
X129982934Y-117354786D01*
X130009852Y-117524743D01*
X130016188Y-117564743D01*
X130071233Y-117734154D01*
X130081878Y-117766914D01*
X130178385Y-117956320D01*
X130303324Y-118128286D01*
X130453647Y-118278609D01*
X130625616Y-118403550D01*
X130634380Y-118408016D01*
X130685176Y-118455991D01*
X130701970Y-118523812D01*
X130679432Y-118589947D01*
X130634380Y-118628984D01*
X130625616Y-118633449D01*
X130453647Y-118758390D01*
X130303324Y-118908713D01*
X130178385Y-119080679D01*
X130081878Y-119270085D01*
X130016187Y-119472260D01*
X129982934Y-119682213D01*
X129982934Y-119894786D01*
X130016187Y-120104739D01*
X130081878Y-120306914D01*
X130178385Y-120496320D01*
X130303324Y-120668286D01*
X130453647Y-120818609D01*
X130625616Y-120943550D01*
X130634380Y-120948016D01*
X130685176Y-120995991D01*
X130701970Y-121063812D01*
X130679432Y-121129947D01*
X130634380Y-121168984D01*
X130625616Y-121173449D01*
X130453647Y-121298390D01*
X130303324Y-121448713D01*
X130178385Y-121620679D01*
X130081878Y-121810085D01*
X130016187Y-122012260D01*
X129982934Y-122222213D01*
X129982934Y-122434786D01*
X130009852Y-122604743D01*
X130016188Y-122644743D01*
X130071463Y-122814862D01*
X130081878Y-122846914D01*
X130178385Y-123036320D01*
X130303324Y-123208286D01*
X130453647Y-123358609D01*
X130625616Y-123483550D01*
X130634380Y-123488016D01*
X130685176Y-123535991D01*
X130701970Y-123603812D01*
X130679432Y-123669947D01*
X130634380Y-123708984D01*
X130625616Y-123713449D01*
X130453647Y-123838390D01*
X130303324Y-123988713D01*
X130178385Y-124160679D01*
X130081878Y-124350085D01*
X130016187Y-124552260D01*
X129982934Y-124762213D01*
X129982934Y-124974786D01*
X130009852Y-125144743D01*
X130016188Y-125184743D01*
X130076935Y-125371703D01*
X130081878Y-125386914D01*
X130178385Y-125576320D01*
X130303324Y-125748286D01*
X130416864Y-125861826D01*
X130450349Y-125923149D01*
X130445365Y-125992841D01*
X130403493Y-126048774D01*
X130372517Y-126065689D01*
X130241103Y-126114703D01*
X130241098Y-126114706D01*
X130125889Y-126200952D01*
X130125886Y-126200955D01*
X130039640Y-126316164D01*
X130039636Y-126316171D01*
X129989342Y-126451017D01*
X129985429Y-126487418D01*
X129982935Y-126510623D01*
X129982934Y-126510635D01*
X129982934Y-128306370D01*
X129982935Y-128306376D01*
X129989342Y-128365983D01*
X130039636Y-128500828D01*
X130039640Y-128500835D01*
X130125886Y-128616044D01*
X130125889Y-128616047D01*
X130241098Y-128702293D01*
X130241105Y-128702297D01*
X130375951Y-128752591D01*
X130375950Y-128752591D01*
X130382878Y-128753335D01*
X130435561Y-128759000D01*
X132231306Y-128758999D01*
X132290917Y-128752591D01*
X132425765Y-128702296D01*
X132540980Y-128616046D01*
X132627230Y-128500831D01*
X132677525Y-128365983D01*
X132683934Y-128306373D01*
X132683933Y-126510628D01*
X132677525Y-126451017D01*
X132660796Y-126406165D01*
X132627231Y-126316171D01*
X132627227Y-126316164D01*
X132540981Y-126200955D01*
X132540978Y-126200952D01*
X132425769Y-126114706D01*
X132425762Y-126114702D01*
X132294351Y-126065689D01*
X132238417Y-126023818D01*
X132214000Y-125958353D01*
X132228852Y-125890080D01*
X132249997Y-125861832D01*
X132363538Y-125748292D01*
X132392600Y-125708292D01*
X132488482Y-125576320D01*
X132488481Y-125576320D01*
X132488485Y-125576316D01*
X132584991Y-125386912D01*
X132650680Y-125184743D01*
X132683934Y-124974787D01*
X132683934Y-124762213D01*
X132650680Y-124552257D01*
X132584991Y-124350088D01*
X132488485Y-124160684D01*
X132488483Y-124160681D01*
X132488482Y-124160679D01*
X132363543Y-123988713D01*
X132213220Y-123838390D01*
X132041254Y-123713451D01*
X132040549Y-123713091D01*
X132032488Y-123708985D01*
X131981693Y-123661012D01*
X131964897Y-123593192D01*
X131987433Y-123527056D01*
X132032488Y-123488015D01*
X132041250Y-123483551D01*
X132068650Y-123463644D01*
X132213220Y-123358609D01*
X132213222Y-123358606D01*
X132213226Y-123358604D01*
X132363538Y-123208292D01*
X132363540Y-123208288D01*
X132363543Y-123208286D01*
X132488482Y-123036320D01*
X132488481Y-123036320D01*
X132488485Y-123036316D01*
X132584991Y-122846912D01*
X132650680Y-122644743D01*
X132683934Y-122434787D01*
X132683934Y-122222213D01*
X132650680Y-122012257D01*
X132584991Y-121810088D01*
X132488485Y-121620684D01*
X132488483Y-121620681D01*
X132488482Y-121620679D01*
X132363543Y-121448713D01*
X132213220Y-121298390D01*
X132041254Y-121173451D01*
X132040549Y-121173091D01*
X132032488Y-121168985D01*
X131981693Y-121121012D01*
X131964897Y-121053192D01*
X131987433Y-120987056D01*
X132032488Y-120948015D01*
X132041250Y-120943551D01*
X132096310Y-120903548D01*
X132213220Y-120818609D01*
X132213222Y-120818606D01*
X132213226Y-120818604D01*
X132331511Y-120700319D01*
X132392834Y-120666834D01*
X132419192Y-120664000D01*
X135119428Y-120664000D01*
X135186467Y-120683685D01*
X135207109Y-120700319D01*
X136646615Y-122139825D01*
X136680100Y-122201148D01*
X136682934Y-122227506D01*
X136682934Y-122394786D01*
X136700812Y-122507667D01*
X136716188Y-122604743D01*
X136776901Y-122791598D01*
X136781878Y-122806914D01*
X136878385Y-122996320D01*
X137003324Y-123168286D01*
X137003330Y-123168292D01*
X137153642Y-123318604D01*
X137259143Y-123395254D01*
X137301808Y-123450583D01*
X137307787Y-123520196D01*
X137275182Y-123581992D01*
X137233712Y-123610132D01*
X137229525Y-123611866D01*
X137229513Y-123611872D01*
X137065653Y-123721360D01*
X137065649Y-123721363D01*
X136926297Y-123860715D01*
X136926294Y-123860719D01*
X136816806Y-124024579D01*
X136816801Y-124024589D01*
X136741383Y-124206663D01*
X136741381Y-124206671D01*
X136702934Y-124399955D01*
X136702934Y-124586181D01*
X136701406Y-124605579D01*
X136682934Y-124722213D01*
X136682934Y-124934787D01*
X136716188Y-125144743D01*
X136775892Y-125328493D01*
X136781878Y-125346914D01*
X136878385Y-125536320D01*
X137003324Y-125708286D01*
X137153647Y-125858609D01*
X137325613Y-125983548D01*
X137325615Y-125983549D01*
X137325618Y-125983551D01*
X137334927Y-125988294D01*
X137385724Y-126036266D01*
X137402521Y-126104087D01*
X137379986Y-126170222D01*
X137334939Y-126209260D01*
X137325880Y-126213876D01*
X137325874Y-126213880D01*
X137271716Y-126253227D01*
X137271716Y-126253228D01*
X137904025Y-126885537D01*
X137840441Y-126902575D01*
X137726427Y-126968401D01*
X137633335Y-127061493D01*
X137567509Y-127175507D01*
X137550471Y-127239091D01*
X136918162Y-126606782D01*
X136918161Y-126606782D01*
X136878814Y-126660939D01*
X136782338Y-126850282D01*
X136716676Y-127052369D01*
X136716676Y-127052372D01*
X136683434Y-127262253D01*
X136683434Y-127474746D01*
X136716676Y-127684627D01*
X136716676Y-127684630D01*
X136782338Y-127886717D01*
X136878809Y-128076050D01*
X136918162Y-128130216D01*
X137550471Y-127497908D01*
X137567509Y-127561493D01*
X137633335Y-127675507D01*
X137726427Y-127768599D01*
X137840441Y-127834425D01*
X137904024Y-127851462D01*
X137271716Y-128483769D01*
X137271716Y-128483770D01*
X137325886Y-128523126D01*
X137325885Y-128523126D01*
X137334929Y-128527734D01*
X137385726Y-128575708D01*
X137402521Y-128643529D01*
X137379984Y-128709664D01*
X137334933Y-128748702D01*
X137325616Y-128753449D01*
X137153647Y-128878390D01*
X137003324Y-129028713D01*
X136878385Y-129200679D01*
X136781878Y-129390085D01*
X136716187Y-129592260D01*
X136698436Y-129704339D01*
X136682934Y-129802213D01*
X136682934Y-130014787D01*
X136716188Y-130224743D01*
X136773640Y-130401562D01*
X136781878Y-130426914D01*
X136878385Y-130616320D01*
X137003324Y-130788286D01*
X137153647Y-130938609D01*
X137325613Y-131063548D01*
X137325615Y-131063549D01*
X137325618Y-131063551D01*
X137515022Y-131160057D01*
X137717191Y-131225746D01*
X137927147Y-131259000D01*
X137927148Y-131259000D01*
X138139720Y-131259000D01*
X138139721Y-131259000D01*
X138349677Y-131225746D01*
X138551846Y-131160057D01*
X138741250Y-131063551D01*
X138783307Y-131032995D01*
X138913220Y-130938609D01*
X138913222Y-130938606D01*
X138913226Y-130938604D01*
X139063538Y-130788292D01*
X139063540Y-130788288D01*
X139063543Y-130788286D01*
X139188482Y-130616320D01*
X139188481Y-130616320D01*
X139188485Y-130616316D01*
X139284991Y-130426912D01*
X139350680Y-130224743D01*
X139383934Y-130014787D01*
X139383934Y-129802213D01*
X139350680Y-129592257D01*
X139284991Y-129390088D01*
X139188485Y-129200684D01*
X139188483Y-129200681D01*
X139188482Y-129200679D01*
X139063543Y-129028713D01*
X138913220Y-128878390D01*
X138741251Y-128753449D01*
X138731938Y-128748704D01*
X138681141Y-128700730D01*
X138664346Y-128632909D01*
X138686883Y-128566774D01*
X138731941Y-128527732D01*
X138740989Y-128523122D01*
X138795150Y-128483770D01*
X138795151Y-128483770D01*
X138162842Y-127851462D01*
X138226427Y-127834425D01*
X138340441Y-127768599D01*
X138433533Y-127675507D01*
X138499359Y-127561493D01*
X138516396Y-127497908D01*
X139148704Y-128130217D01*
X139148704Y-128130216D01*
X139188056Y-128076054D01*
X139284529Y-127886717D01*
X139350191Y-127684630D01*
X139350191Y-127684627D01*
X139383434Y-127474746D01*
X139383434Y-127262253D01*
X139350191Y-127052372D01*
X139350191Y-127052369D01*
X139284529Y-126850282D01*
X139188058Y-126660949D01*
X139148704Y-126606782D01*
X139148703Y-126606782D01*
X138516396Y-127239090D01*
X138499359Y-127175507D01*
X138433533Y-127061493D01*
X138340441Y-126968401D01*
X138226427Y-126902575D01*
X138162843Y-126885537D01*
X138795150Y-126253228D01*
X138740981Y-126213873D01*
X138740981Y-126213872D01*
X138731934Y-126209263D01*
X138681140Y-126161288D01*
X138664346Y-126093466D01*
X138686885Y-126027332D01*
X138731942Y-125988293D01*
X138741250Y-125983551D01*
X138824387Y-125923149D01*
X138913220Y-125858609D01*
X138913222Y-125858606D01*
X138913226Y-125858604D01*
X139063538Y-125708292D01*
X139063540Y-125708288D01*
X139063543Y-125708286D01*
X139188482Y-125536320D01*
X139188481Y-125536320D01*
X139188485Y-125536316D01*
X139284991Y-125346912D01*
X139350680Y-125144743D01*
X139383934Y-124934787D01*
X139383934Y-124934785D01*
X139384696Y-124929975D01*
X139385755Y-124930142D01*
X139408795Y-124869672D01*
X139419850Y-124857003D01*
X148341212Y-115935641D01*
X148341216Y-115935639D01*
X148480573Y-115796282D01*
X148590066Y-115632414D01*
X148665485Y-115450335D01*
X148672305Y-115416054D01*
X148680209Y-115376317D01*
X148703933Y-115257044D01*
X148703934Y-115257041D01*
X148703934Y-114413282D01*
X148723619Y-114346243D01*
X148776423Y-114300488D01*
X148845581Y-114290544D01*
X148909137Y-114319569D01*
X148915615Y-114325601D01*
X159447010Y-124856996D01*
X159480495Y-124918319D01*
X159482784Y-124933844D01*
X159516187Y-125144739D01*
X159516188Y-125144743D01*
X159575892Y-125328493D01*
X159581878Y-125346914D01*
X159678385Y-125536320D01*
X159803324Y-125708286D01*
X159953647Y-125858609D01*
X160125613Y-125983548D01*
X160125615Y-125983549D01*
X160125618Y-125983551D01*
X160134927Y-125988294D01*
X160185724Y-126036266D01*
X160202521Y-126104087D01*
X160179986Y-126170222D01*
X160134939Y-126209260D01*
X160125880Y-126213876D01*
X160125874Y-126213880D01*
X160071716Y-126253227D01*
X160071716Y-126253228D01*
X160704025Y-126885537D01*
X160640441Y-126902575D01*
X160526427Y-126968401D01*
X160433335Y-127061493D01*
X160367509Y-127175507D01*
X160350471Y-127239091D01*
X159718162Y-126606782D01*
X159718161Y-126606782D01*
X159678814Y-126660939D01*
X159582338Y-126850282D01*
X159516676Y-127052369D01*
X159516676Y-127052372D01*
X159483434Y-127262253D01*
X159483434Y-127474746D01*
X159516676Y-127684627D01*
X159516676Y-127684630D01*
X159582338Y-127886717D01*
X159678809Y-128076050D01*
X159718162Y-128130216D01*
X160350471Y-127497908D01*
X160367509Y-127561493D01*
X160433335Y-127675507D01*
X160526427Y-127768599D01*
X160640441Y-127834425D01*
X160704024Y-127851462D01*
X160071716Y-128483769D01*
X160071716Y-128483770D01*
X160125886Y-128523126D01*
X160125885Y-128523126D01*
X160134929Y-128527734D01*
X160185726Y-128575708D01*
X160202521Y-128643529D01*
X160179984Y-128709664D01*
X160134933Y-128748702D01*
X160125616Y-128753449D01*
X159953647Y-128878390D01*
X159803324Y-129028713D01*
X159678385Y-129200679D01*
X159581878Y-129390085D01*
X159516187Y-129592260D01*
X159498436Y-129704339D01*
X159482934Y-129802213D01*
X159482934Y-130014787D01*
X159516188Y-130224743D01*
X159573640Y-130401562D01*
X159581878Y-130426914D01*
X159678385Y-130616320D01*
X159803324Y-130788286D01*
X159953647Y-130938609D01*
X160125613Y-131063548D01*
X160125615Y-131063549D01*
X160125618Y-131063551D01*
X160315022Y-131160057D01*
X160517191Y-131225746D01*
X160727147Y-131259000D01*
X160727148Y-131259000D01*
X160939720Y-131259000D01*
X160939721Y-131259000D01*
X161149677Y-131225746D01*
X161351846Y-131160057D01*
X161541250Y-131063551D01*
X161583307Y-131032995D01*
X161713220Y-130938609D01*
X161713222Y-130938606D01*
X161713226Y-130938604D01*
X161863538Y-130788292D01*
X161863540Y-130788288D01*
X161863543Y-130788286D01*
X161988482Y-130616320D01*
X161988481Y-130616320D01*
X161988485Y-130616316D01*
X162084991Y-130426912D01*
X162150680Y-130224743D01*
X162183934Y-130014787D01*
X162183934Y-129847505D01*
X162203619Y-129780466D01*
X162220253Y-129759824D01*
X162831566Y-129148512D01*
X163463479Y-128516599D01*
X163559292Y-128373205D01*
X163562284Y-128365983D01*
X163586812Y-128306765D01*
X163625289Y-128213874D01*
X163658934Y-128044729D01*
X163658934Y-127872271D01*
X163658934Y-124630495D01*
X173432934Y-124630495D01*
X173432934Y-124866504D01*
X173432935Y-124866520D01*
X173463740Y-125100510D01*
X173524828Y-125328493D01*
X173615148Y-125546545D01*
X173615153Y-125546556D01*
X173632338Y-125576320D01*
X173733161Y-125750950D01*
X173733163Y-125750953D01*
X173733164Y-125750954D01*
X173876840Y-125938197D01*
X173876846Y-125938204D01*
X174043729Y-126105087D01*
X174043736Y-126105093D01*
X174056264Y-126114706D01*
X174230984Y-126248773D01*
X174311419Y-126295212D01*
X174435377Y-126366780D01*
X174435382Y-126366782D01*
X174435385Y-126366784D01*
X174653441Y-126457106D01*
X174881420Y-126518193D01*
X175115423Y-126549000D01*
X175115430Y-126549000D01*
X175351438Y-126549000D01*
X175351445Y-126549000D01*
X175585448Y-126518193D01*
X175813427Y-126457106D01*
X176031483Y-126366784D01*
X176235884Y-126248773D01*
X176423133Y-126105092D01*
X176590026Y-125938199D01*
X176733707Y-125750950D01*
X176851718Y-125546549D01*
X176942040Y-125328493D01*
X177003127Y-125100514D01*
X177033934Y-124866511D01*
X177033934Y-124630489D01*
X177003127Y-124396486D01*
X176942040Y-124168507D01*
X176851718Y-123950451D01*
X176851716Y-123950448D01*
X176851714Y-123950443D01*
X176799909Y-123860715D01*
X176733707Y-123746050D01*
X176630749Y-123611872D01*
X176590027Y-123558802D01*
X176590021Y-123558795D01*
X176423138Y-123391912D01*
X176423131Y-123391906D01*
X176235888Y-123248230D01*
X176235887Y-123248229D01*
X176235884Y-123248227D01*
X176154391Y-123201177D01*
X176031490Y-123130219D01*
X176031479Y-123130214D01*
X175813427Y-123039894D01*
X175585444Y-122978806D01*
X175351454Y-122948001D01*
X175351451Y-122948000D01*
X175351445Y-122948000D01*
X175115423Y-122948000D01*
X175115417Y-122948000D01*
X175115413Y-122948001D01*
X174881423Y-122978806D01*
X174653440Y-123039894D01*
X174435388Y-123130214D01*
X174435377Y-123130219D01*
X174230979Y-123248230D01*
X174043736Y-123391906D01*
X174043729Y-123391912D01*
X173876846Y-123558795D01*
X173876840Y-123558802D01*
X173733164Y-123746045D01*
X173615153Y-123950443D01*
X173615148Y-123950454D01*
X173524828Y-124168506D01*
X173463740Y-124396489D01*
X173432935Y-124630479D01*
X173432934Y-124630495D01*
X163658934Y-124630495D01*
X163658934Y-88502271D01*
X163658934Y-88502268D01*
X163658933Y-88502266D01*
X163642586Y-88420085D01*
X163625289Y-88333126D01*
X163625287Y-88333121D01*
X163559295Y-88173801D01*
X163559288Y-88173788D01*
X163463480Y-88030402D01*
X163409213Y-87976135D01*
X163341533Y-87908455D01*
X159440253Y-84007175D01*
X159406768Y-83945852D01*
X159403934Y-83919494D01*
X159403934Y-83698278D01*
X159403349Y-83694586D01*
X159369449Y-83480549D01*
X159335389Y-83375721D01*
X159301330Y-83270896D01*
X159301329Y-83270893D01*
X159266671Y-83202875D01*
X159201249Y-83074478D01*
X159118538Y-82960635D01*
X159071681Y-82896141D01*
X159071677Y-82896136D01*
X158915797Y-82740256D01*
X158915792Y-82740252D01*
X158776179Y-82638818D01*
X158733513Y-82583489D01*
X158727534Y-82513875D01*
X158760139Y-82452080D01*
X158776179Y-82438182D01*
X158915792Y-82336747D01*
X158915790Y-82336747D01*
X158915799Y-82336742D01*
X159071676Y-82180865D01*
X159201249Y-82002522D01*
X159301329Y-81806106D01*
X159369449Y-81596451D01*
X159403934Y-81378722D01*
X159403934Y-81158278D01*
X159369449Y-80940549D01*
X159301329Y-80730894D01*
X159301329Y-80730893D01*
X159266671Y-80662875D01*
X159201249Y-80534478D01*
X159095458Y-80388868D01*
X159071681Y-80356141D01*
X159071677Y-80356136D01*
X158915797Y-80200256D01*
X158915792Y-80200252D01*
X158776179Y-80098818D01*
X158733513Y-80043489D01*
X158727534Y-79973875D01*
X158760139Y-79912080D01*
X158776179Y-79898182D01*
X158915792Y-79796747D01*
X158915790Y-79796747D01*
X158915799Y-79796742D01*
X159071676Y-79640865D01*
X159201249Y-79462522D01*
X159301329Y-79266106D01*
X159369449Y-79056451D01*
X159403934Y-78838722D01*
X159403934Y-78618278D01*
X159369449Y-78400549D01*
X159335389Y-78295721D01*
X159301330Y-78190896D01*
X159301329Y-78190893D01*
X159250101Y-78090355D01*
X159201249Y-77994478D01*
X159153346Y-77928545D01*
X159071681Y-77816141D01*
X159071677Y-77816136D01*
X158915797Y-77660256D01*
X158915792Y-77660252D01*
X158776179Y-77558818D01*
X158733513Y-77503489D01*
X158727534Y-77433875D01*
X158760139Y-77372080D01*
X158776179Y-77358182D01*
X158915792Y-77256747D01*
X158915790Y-77256747D01*
X158915799Y-77256742D01*
X159071676Y-77100865D01*
X159201249Y-76922522D01*
X159301329Y-76726106D01*
X159369449Y-76516451D01*
X159370955Y-76511817D01*
X159372657Y-76512370D01*
X159403608Y-76458449D01*
X159465630Y-76426276D01*
X159535199Y-76432742D01*
X159577085Y-76460295D01*
X161271615Y-78154825D01*
X161305100Y-78216148D01*
X161307934Y-78242506D01*
X161307934Y-82984733D01*
X161341577Y-83153866D01*
X161341580Y-83153878D01*
X161407572Y-83313198D01*
X161407579Y-83313211D01*
X161503388Y-83456598D01*
X161503391Y-83456602D01*
X164296615Y-86249825D01*
X164330100Y-86311148D01*
X164332934Y-86337506D01*
X164332934Y-86504786D01*
X164365795Y-86712265D01*
X164366188Y-86714743D01*
X164421867Y-86886106D01*
X164431878Y-86916914D01*
X164528385Y-87106320D01*
X164653324Y-87278286D01*
X164803647Y-87428609D01*
X164975616Y-87553550D01*
X164984380Y-87558016D01*
X165035176Y-87605991D01*
X165051970Y-87673812D01*
X165029432Y-87739947D01*
X164984380Y-87778984D01*
X164975616Y-87783449D01*
X164803647Y-87908390D01*
X164653324Y-88058713D01*
X164528385Y-88230679D01*
X164431878Y-88420085D01*
X164366187Y-88622260D01*
X164332934Y-88832213D01*
X164332934Y-89044786D01*
X164351232Y-89160319D01*
X164366188Y-89254743D01*
X164425034Y-89435853D01*
X164431878Y-89456914D01*
X164528385Y-89646320D01*
X164653324Y-89818286D01*
X164803647Y-89968609D01*
X164975616Y-90093550D01*
X164984380Y-90098016D01*
X165035176Y-90145991D01*
X165051970Y-90213812D01*
X165029432Y-90279947D01*
X164984380Y-90318984D01*
X164975616Y-90323449D01*
X164803647Y-90448390D01*
X164653324Y-90598713D01*
X164528385Y-90770679D01*
X164431878Y-90960085D01*
X164366187Y-91162260D01*
X164332934Y-91372213D01*
X164332934Y-91584786D01*
X164349981Y-91692420D01*
X164366188Y-91794743D01*
X164430789Y-91993565D01*
X164431878Y-91996914D01*
X164528385Y-92186320D01*
X164653324Y-92358286D01*
X164803647Y-92508609D01*
X164975613Y-92633548D01*
X164975615Y-92633549D01*
X164975618Y-92633551D01*
X164984927Y-92638294D01*
X165035724Y-92686266D01*
X165052521Y-92754087D01*
X165029986Y-92820222D01*
X164984939Y-92859260D01*
X164975880Y-92863876D01*
X164975874Y-92863880D01*
X164921716Y-92903227D01*
X164921716Y-92903228D01*
X165554025Y-93535537D01*
X165490441Y-93552575D01*
X165376427Y-93618401D01*
X165283335Y-93711493D01*
X165217509Y-93825507D01*
X165200471Y-93889091D01*
X164568162Y-93256782D01*
X164568161Y-93256782D01*
X164528814Y-93310939D01*
X164432338Y-93500282D01*
X164366676Y-93702369D01*
X164366676Y-93702372D01*
X164333434Y-93912253D01*
X164333434Y-94124746D01*
X164366676Y-94334627D01*
X164366676Y-94334630D01*
X164432338Y-94536717D01*
X164528809Y-94726050D01*
X164568162Y-94780216D01*
X165200471Y-94147908D01*
X165217509Y-94211493D01*
X165283335Y-94325507D01*
X165376427Y-94418599D01*
X165490441Y-94484425D01*
X165554024Y-94501462D01*
X164921716Y-95133769D01*
X164921716Y-95133770D01*
X164975883Y-95173124D01*
X165165216Y-95269595D01*
X165367304Y-95335257D01*
X165577188Y-95368500D01*
X165789680Y-95368500D01*
X165999561Y-95335257D01*
X165999564Y-95335257D01*
X166201651Y-95269595D01*
X166390988Y-95173122D01*
X166445150Y-95133770D01*
X166445151Y-95133770D01*
X165812842Y-94501462D01*
X165876427Y-94484425D01*
X165990441Y-94418599D01*
X166083533Y-94325507D01*
X166149359Y-94211493D01*
X166166396Y-94147908D01*
X166798704Y-94780217D01*
X166798704Y-94780216D01*
X166838056Y-94726054D01*
X166934529Y-94536717D01*
X167000191Y-94334630D01*
X167000191Y-94334627D01*
X167033434Y-94124746D01*
X167033434Y-93912253D01*
X167000191Y-93702372D01*
X167000191Y-93702369D01*
X166934529Y-93500282D01*
X166838058Y-93310949D01*
X166798704Y-93256782D01*
X166798703Y-93256782D01*
X166166396Y-93889090D01*
X166149359Y-93825507D01*
X166083533Y-93711493D01*
X165990441Y-93618401D01*
X165876427Y-93552575D01*
X165812843Y-93535537D01*
X166445150Y-92903228D01*
X166390981Y-92863873D01*
X166390981Y-92863872D01*
X166381934Y-92859263D01*
X166331140Y-92811288D01*
X166314346Y-92743466D01*
X166336885Y-92677332D01*
X166381942Y-92638293D01*
X166391250Y-92633551D01*
X166498885Y-92555350D01*
X166563220Y-92508609D01*
X166563222Y-92508606D01*
X166563226Y-92508604D01*
X166713538Y-92358292D01*
X166713540Y-92358288D01*
X166713543Y-92358286D01*
X166838482Y-92186320D01*
X166838481Y-92186320D01*
X166838485Y-92186316D01*
X166934991Y-91996912D01*
X167000680Y-91794743D01*
X167033934Y-91584787D01*
X167033934Y-91372213D01*
X167000680Y-91162257D01*
X166934991Y-90960088D01*
X166838485Y-90770684D01*
X166838483Y-90770681D01*
X166838482Y-90770679D01*
X166713543Y-90598713D01*
X166563220Y-90448390D01*
X166391254Y-90323451D01*
X166390549Y-90323091D01*
X166382488Y-90318985D01*
X166331693Y-90271012D01*
X166314897Y-90203192D01*
X166337433Y-90137056D01*
X166382488Y-90098015D01*
X166391250Y-90093551D01*
X166439932Y-90058182D01*
X166563220Y-89968609D01*
X166563222Y-89968606D01*
X166563226Y-89968604D01*
X166713538Y-89818292D01*
X166713540Y-89818288D01*
X166713543Y-89818286D01*
X166838482Y-89646320D01*
X166838481Y-89646320D01*
X166838485Y-89646316D01*
X166934991Y-89456912D01*
X167000680Y-89254743D01*
X167033934Y-89044787D01*
X167033934Y-88832213D01*
X167000680Y-88622257D01*
X166934991Y-88420088D01*
X166838485Y-88230684D01*
X166838483Y-88230681D01*
X166838482Y-88230679D01*
X166713543Y-88058713D01*
X166563220Y-87908390D01*
X166391254Y-87783451D01*
X166390549Y-87783091D01*
X166382488Y-87778985D01*
X166331693Y-87731012D01*
X166314897Y-87663192D01*
X166337433Y-87597056D01*
X166382488Y-87558015D01*
X166391250Y-87553551D01*
X166439932Y-87518182D01*
X166563220Y-87428609D01*
X166563222Y-87428606D01*
X166563226Y-87428604D01*
X166713538Y-87278292D01*
X166713540Y-87278288D01*
X166713543Y-87278286D01*
X166838482Y-87106320D01*
X166838481Y-87106320D01*
X166838485Y-87106316D01*
X166934991Y-86916912D01*
X167000680Y-86714743D01*
X167033934Y-86504787D01*
X167033934Y-86292213D01*
X167000680Y-86082257D01*
X166934991Y-85880088D01*
X166838485Y-85690684D01*
X166838483Y-85690681D01*
X166838482Y-85690679D01*
X166713543Y-85518713D01*
X166600003Y-85405173D01*
X166566518Y-85343850D01*
X166571502Y-85274158D01*
X166613374Y-85218225D01*
X166644349Y-85201310D01*
X166775765Y-85152296D01*
X166890980Y-85066046D01*
X166977230Y-84950831D01*
X167027525Y-84815983D01*
X167033934Y-84756373D01*
X167033933Y-82960628D01*
X167027525Y-82901017D01*
X167025706Y-82896141D01*
X166977231Y-82766171D01*
X166977227Y-82766164D01*
X166890981Y-82650955D01*
X166890978Y-82650952D01*
X166775769Y-82564706D01*
X166775762Y-82564702D01*
X166640916Y-82514408D01*
X166640917Y-82514408D01*
X166581317Y-82508001D01*
X166581315Y-82508000D01*
X166581307Y-82508000D01*
X166581298Y-82508000D01*
X164785563Y-82508000D01*
X164785557Y-82508001D01*
X164725950Y-82514408D01*
X164591105Y-82564702D01*
X164591098Y-82564706D01*
X164475889Y-82650952D01*
X164475886Y-82650955D01*
X164389640Y-82766164D01*
X164389636Y-82766171D01*
X164339342Y-82901017D01*
X164332935Y-82960616D01*
X164332935Y-82960623D01*
X164332934Y-82960635D01*
X164332934Y-83510494D01*
X164313249Y-83577533D01*
X164260445Y-83623288D01*
X164191287Y-83633232D01*
X164127731Y-83604207D01*
X164121253Y-83598175D01*
X163095253Y-82572175D01*
X163061768Y-82510852D01*
X163058934Y-82484494D01*
X163058934Y-77742268D01*
X163058933Y-77742266D01*
X163025289Y-77573126D01*
X163025287Y-77573121D01*
X162959295Y-77413801D01*
X162959288Y-77413788D01*
X162863480Y-77270402D01*
X162849820Y-77256742D01*
X162741533Y-77148455D01*
X159440253Y-73847175D01*
X159406768Y-73785852D01*
X159403934Y-73759494D01*
X159403934Y-73538278D01*
X159401457Y-73522638D01*
X159369449Y-73320549D01*
X159301329Y-73110894D01*
X159301329Y-73110893D01*
X159266671Y-73042875D01*
X159201249Y-72914478D01*
X159184694Y-72891692D01*
X159071681Y-72736141D01*
X159071677Y-72736136D01*
X158915797Y-72580256D01*
X158915792Y-72580252D01*
X158776179Y-72478818D01*
X158733513Y-72423489D01*
X158727534Y-72353875D01*
X158760139Y-72292080D01*
X158776179Y-72278182D01*
X158915792Y-72176747D01*
X158915790Y-72176747D01*
X158915799Y-72176742D01*
X159071676Y-72020865D01*
X159201249Y-71842522D01*
X159301329Y-71646106D01*
X159369449Y-71436451D01*
X159403934Y-71218722D01*
X159403934Y-70998278D01*
X159369449Y-70780549D01*
X159335017Y-70674578D01*
X159301330Y-70570896D01*
X159301329Y-70570893D01*
X159266671Y-70502875D01*
X159201249Y-70374478D01*
X159170931Y-70332749D01*
X159071681Y-70196141D01*
X159071677Y-70196136D01*
X158915797Y-70040256D01*
X158915792Y-70040252D01*
X158776179Y-69938818D01*
X158733513Y-69883489D01*
X158727534Y-69813875D01*
X158760139Y-69752080D01*
X158776179Y-69738182D01*
X158915792Y-69636747D01*
X158915790Y-69636747D01*
X158915799Y-69636742D01*
X159071676Y-69480865D01*
X159201249Y-69302522D01*
X159301329Y-69106106D01*
X159369449Y-68896451D01*
X159403934Y-68678722D01*
X159403934Y-68458278D01*
X159369449Y-68240549D01*
X159316448Y-68077427D01*
X159301330Y-68030896D01*
X159301329Y-68030893D01*
X159231276Y-67893409D01*
X159201249Y-67834478D01*
X159152418Y-67767267D01*
X159071681Y-67656141D01*
X159071677Y-67656136D01*
X158915797Y-67500256D01*
X158915792Y-67500252D01*
X158775753Y-67398508D01*
X158733087Y-67343178D01*
X158727108Y-67273565D01*
X158759713Y-67211770D01*
X158775753Y-67197872D01*
X158800947Y-67179566D01*
X158800948Y-67179566D01*
X158214493Y-66593112D01*
X158235025Y-66587611D01*
X158371842Y-66508619D01*
X158483553Y-66396908D01*
X158562545Y-66260091D01*
X158568046Y-66239560D01*
X159154500Y-66826014D01*
X159154500Y-66826013D01*
X159200820Y-66762260D01*
X159300866Y-66565910D01*
X159368960Y-66356335D01*
X159403434Y-66138681D01*
X159403434Y-65918318D01*
X159368960Y-65700664D01*
X159300866Y-65491089D01*
X159200822Y-65294743D01*
X159154500Y-65230985D01*
X159154499Y-65230985D01*
X158568046Y-65817439D01*
X158562545Y-65796909D01*
X158483553Y-65660092D01*
X158371842Y-65548381D01*
X158235025Y-65469389D01*
X158214491Y-65463887D01*
X158800947Y-64877432D01*
X158775753Y-64859128D01*
X158733087Y-64803798D01*
X158727108Y-64734185D01*
X158759713Y-64672389D01*
X158775747Y-64658494D01*
X158915799Y-64556742D01*
X159071676Y-64400865D01*
X159201249Y-64222522D01*
X159301329Y-64026106D01*
X159369449Y-63816451D01*
X159383063Y-63730495D01*
X173432934Y-63730495D01*
X173432934Y-63966504D01*
X173432935Y-63966520D01*
X173463740Y-64200510D01*
X173524828Y-64428493D01*
X173615148Y-64646545D01*
X173615153Y-64646556D01*
X173679785Y-64758500D01*
X173733161Y-64850950D01*
X173733163Y-64850953D01*
X173733164Y-64850954D01*
X173876840Y-65038197D01*
X173876846Y-65038204D01*
X174043729Y-65205087D01*
X174043736Y-65205093D01*
X174077479Y-65230985D01*
X174230984Y-65348773D01*
X174320377Y-65400384D01*
X174435377Y-65466780D01*
X174435382Y-65466782D01*
X174435385Y-65466784D01*
X174653441Y-65557106D01*
X174881420Y-65618193D01*
X175115423Y-65649000D01*
X175115430Y-65649000D01*
X175351438Y-65649000D01*
X175351445Y-65649000D01*
X175585448Y-65618193D01*
X175813427Y-65557106D01*
X176031483Y-65466784D01*
X176235884Y-65348773D01*
X176423133Y-65205092D01*
X176590026Y-65038199D01*
X176733707Y-64850950D01*
X176851718Y-64646549D01*
X176942040Y-64428493D01*
X177003127Y-64200514D01*
X177033934Y-63966511D01*
X177033934Y-63730489D01*
X177003127Y-63496486D01*
X176942040Y-63268507D01*
X176851718Y-63050451D01*
X176851716Y-63050448D01*
X176851714Y-63050443D01*
X176794238Y-62950893D01*
X176733707Y-62846050D01*
X176590026Y-62658801D01*
X176590021Y-62658795D01*
X176423138Y-62491912D01*
X176423131Y-62491906D01*
X176235888Y-62348230D01*
X176235887Y-62348229D01*
X176235884Y-62348227D01*
X176136222Y-62290687D01*
X176031490Y-62230219D01*
X176031479Y-62230214D01*
X175813427Y-62139894D01*
X175784265Y-62132080D01*
X175585448Y-62078807D01*
X175585447Y-62078806D01*
X175585444Y-62078806D01*
X175351454Y-62048001D01*
X175351451Y-62048000D01*
X175351445Y-62048000D01*
X175115423Y-62048000D01*
X175115417Y-62048000D01*
X175115413Y-62048001D01*
X174881423Y-62078806D01*
X174653440Y-62139894D01*
X174435388Y-62230214D01*
X174435377Y-62230219D01*
X174230979Y-62348230D01*
X174043736Y-62491906D01*
X174043729Y-62491912D01*
X173876846Y-62658795D01*
X173876840Y-62658802D01*
X173733164Y-62846045D01*
X173733161Y-62846049D01*
X173733161Y-62846050D01*
X173727536Y-62855792D01*
X173615153Y-63050443D01*
X173615148Y-63050454D01*
X173524828Y-63268506D01*
X173463740Y-63496489D01*
X173432935Y-63730479D01*
X173432934Y-63730495D01*
X159383063Y-63730495D01*
X159403934Y-63598722D01*
X159403934Y-63378278D01*
X159369449Y-63160549D01*
X159333674Y-63050443D01*
X159301330Y-62950896D01*
X159301329Y-62950893D01*
X159264623Y-62878856D01*
X159201249Y-62754478D01*
X159143115Y-62674463D01*
X159071681Y-62576141D01*
X159071677Y-62576136D01*
X158915797Y-62420256D01*
X158915792Y-62420252D01*
X158776179Y-62318818D01*
X158733513Y-62263489D01*
X158727534Y-62193875D01*
X158760139Y-62132080D01*
X158776179Y-62118182D01*
X158915792Y-62016747D01*
X158915790Y-62016747D01*
X158915799Y-62016742D01*
X159071676Y-61860865D01*
X159201249Y-61682522D01*
X159301329Y-61486106D01*
X159369449Y-61276451D01*
X159403934Y-61058722D01*
X159403934Y-60838278D01*
X159369449Y-60620549D01*
X159318867Y-60464872D01*
X159301330Y-60410896D01*
X159301329Y-60410893D01*
X159266671Y-60342875D01*
X159201249Y-60214478D01*
X159145256Y-60137410D01*
X159071681Y-60036141D01*
X159071677Y-60036136D01*
X158915797Y-59880256D01*
X158915792Y-59880252D01*
X158775753Y-59778508D01*
X158733087Y-59723178D01*
X158727108Y-59653565D01*
X158759713Y-59591770D01*
X158775753Y-59577872D01*
X158800947Y-59559566D01*
X158800948Y-59559566D01*
X158214493Y-58973112D01*
X158235025Y-58967611D01*
X158371842Y-58888619D01*
X158483553Y-58776908D01*
X158562545Y-58640091D01*
X158568046Y-58619560D01*
X159154500Y-59206014D01*
X159154500Y-59206013D01*
X159200820Y-59142260D01*
X159300866Y-58945910D01*
X159368960Y-58736335D01*
X159403434Y-58518681D01*
X159403434Y-58298318D01*
X159368960Y-58080664D01*
X159300866Y-57871089D01*
X159200822Y-57674743D01*
X159154500Y-57610985D01*
X159154499Y-57610985D01*
X158568046Y-58197439D01*
X158562545Y-58176909D01*
X158483553Y-58040092D01*
X158371842Y-57928381D01*
X158235025Y-57849389D01*
X158214491Y-57843887D01*
X158800947Y-57257432D01*
X158775753Y-57239128D01*
X158733087Y-57183798D01*
X158727108Y-57114185D01*
X158759713Y-57052389D01*
X158775747Y-57038494D01*
X158915799Y-56936742D01*
X159071676Y-56780865D01*
X159201249Y-56602522D01*
X159301329Y-56406106D01*
X159369449Y-56196451D01*
X159403934Y-55978722D01*
X159403934Y-55758278D01*
X159369449Y-55540549D01*
X159301329Y-55330894D01*
X159301329Y-55330893D01*
X159265083Y-55259758D01*
X159201249Y-55134478D01*
X159170331Y-55091923D01*
X159071681Y-54956141D01*
X159071677Y-54956136D01*
X158915797Y-54800256D01*
X158915792Y-54800252D01*
X158737459Y-54670687D01*
X158737458Y-54670686D01*
X158737456Y-54670685D01*
X158674530Y-54638622D01*
X158541040Y-54570604D01*
X158541037Y-54570603D01*
X158331386Y-54502485D01*
X158222520Y-54485242D01*
X158113656Y-54468000D01*
X157893212Y-54468000D01*
X157820635Y-54479495D01*
X157675481Y-54502485D01*
X157465830Y-54570603D01*
X157465827Y-54570604D01*
X157269408Y-54670687D01*
X157091075Y-54800252D01*
X157091070Y-54800256D01*
X156935190Y-54956136D01*
X156935186Y-54956141D01*
X156805621Y-55134474D01*
X156705539Y-55330893D01*
X156637419Y-55540547D01*
X156602934Y-55758278D01*
X156602934Y-55978721D01*
X156637419Y-56196452D01*
X156705537Y-56406103D01*
X156705538Y-56406106D01*
X156805621Y-56602525D01*
X156935186Y-56780858D01*
X156935190Y-56780863D01*
X157091074Y-56936747D01*
X157231113Y-57038490D01*
X157273779Y-57093819D01*
X157279758Y-57163433D01*
X157247153Y-57225228D01*
X157231113Y-57239126D01*
X157205919Y-57257430D01*
X157205919Y-57257432D01*
X157792374Y-57843887D01*
X157771843Y-57849389D01*
X157635026Y-57928381D01*
X157523315Y-58040092D01*
X157444323Y-58176909D01*
X157438821Y-58197440D01*
X156852366Y-57610985D01*
X156852364Y-57610985D01*
X156834060Y-57636179D01*
X156778730Y-57678845D01*
X156709117Y-57684824D01*
X156647322Y-57652218D01*
X156633424Y-57636179D01*
X156531681Y-57496140D01*
X156375797Y-57340256D01*
X156375792Y-57340252D01*
X156197459Y-57210687D01*
X156197458Y-57210686D01*
X156197456Y-57210685D01*
X156110533Y-57166395D01*
X156001040Y-57110604D01*
X156001037Y-57110603D01*
X155791386Y-57042485D01*
X155682520Y-57025242D01*
X155573656Y-57008000D01*
X155353212Y-57008000D01*
X155280635Y-57019495D01*
X155135481Y-57042485D01*
X154925830Y-57110603D01*
X154925827Y-57110604D01*
X154729408Y-57210687D01*
X154551075Y-57340252D01*
X154551070Y-57340256D01*
X154395190Y-57496136D01*
X154395186Y-57496141D01*
X154265621Y-57674474D01*
X154165538Y-57870893D01*
X154165537Y-57870896D01*
X154097419Y-58080547D01*
X154076933Y-58209889D01*
X154062934Y-58298278D01*
X154062934Y-58518722D01*
X154066799Y-58543126D01*
X154097419Y-58736452D01*
X154165537Y-58946103D01*
X154165538Y-58946106D01*
X154223847Y-59060541D01*
X154260346Y-59132174D01*
X154265621Y-59142525D01*
X154395186Y-59320858D01*
X154395190Y-59320863D01*
X154551070Y-59476743D01*
X154551075Y-59476747D01*
X154662559Y-59557744D01*
X154729412Y-59606315D01*
X154847658Y-59666565D01*
X154925827Y-59706395D01*
X154925830Y-59706396D01*
X155030655Y-59740455D01*
X155135483Y-59774515D01*
X155353212Y-59809000D01*
X155353213Y-59809000D01*
X155573655Y-59809000D01*
X155573656Y-59809000D01*
X155791385Y-59774515D01*
X156001040Y-59706395D01*
X156197456Y-59606315D01*
X156375799Y-59476742D01*
X156531676Y-59320865D01*
X156633425Y-59180817D01*
X156688754Y-59138153D01*
X156758367Y-59132174D01*
X156820163Y-59164779D01*
X156834062Y-59180819D01*
X156852366Y-59206013D01*
X157438821Y-58619558D01*
X157444323Y-58640091D01*
X157523315Y-58776908D01*
X157635026Y-58888619D01*
X157771843Y-58967611D01*
X157792373Y-58973112D01*
X157205919Y-59559565D01*
X157205919Y-59559566D01*
X157231114Y-59577871D01*
X157273780Y-59633201D01*
X157279759Y-59702814D01*
X157247154Y-59764610D01*
X157231115Y-59778508D01*
X157091070Y-59880256D01*
X156935190Y-60036136D01*
X156935186Y-60036141D01*
X156805621Y-60214474D01*
X156705538Y-60410893D01*
X156705537Y-60410896D01*
X156637419Y-60620547D01*
X156602934Y-60838278D01*
X156602934Y-61058721D01*
X156637419Y-61276452D01*
X156705537Y-61486103D01*
X156705538Y-61486106D01*
X156773556Y-61619596D01*
X156790886Y-61653608D01*
X156805621Y-61682525D01*
X156935186Y-61860858D01*
X156935190Y-61860863D01*
X157091070Y-62016743D01*
X157091075Y-62016747D01*
X157230688Y-62118182D01*
X157273354Y-62173512D01*
X157279333Y-62243125D01*
X157246727Y-62304920D01*
X157230688Y-62318818D01*
X157091075Y-62420252D01*
X157091070Y-62420256D01*
X156935190Y-62576136D01*
X156935186Y-62576141D01*
X156805621Y-62754474D01*
X156705538Y-62950893D01*
X156705537Y-62950896D01*
X156637419Y-63160547D01*
X156602934Y-63378278D01*
X156602934Y-63598721D01*
X156637419Y-63816452D01*
X156705537Y-64026103D01*
X156705538Y-64026106D01*
X156773556Y-64159596D01*
X156804770Y-64220856D01*
X156805621Y-64222525D01*
X156935186Y-64400858D01*
X156935190Y-64400863D01*
X157091074Y-64556747D01*
X157231113Y-64658490D01*
X157273779Y-64713819D01*
X157279758Y-64783433D01*
X157247153Y-64845228D01*
X157231113Y-64859126D01*
X157205919Y-64877430D01*
X157205919Y-64877432D01*
X157792374Y-65463887D01*
X157771843Y-65469389D01*
X157635026Y-65548381D01*
X157523315Y-65660092D01*
X157444323Y-65796909D01*
X157438821Y-65817440D01*
X156852366Y-65230985D01*
X156852365Y-65230985D01*
X156806050Y-65294733D01*
X156706001Y-65491089D01*
X156637907Y-65700664D01*
X156603434Y-65918318D01*
X156603434Y-66138681D01*
X156637907Y-66356335D01*
X156706001Y-66565910D01*
X156806045Y-66762256D01*
X156852366Y-66826013D01*
X157438821Y-66239558D01*
X157444323Y-66260091D01*
X157523315Y-66396908D01*
X157635026Y-66508619D01*
X157771843Y-66587611D01*
X157792373Y-66593112D01*
X157205919Y-67179565D01*
X157205919Y-67179566D01*
X157231114Y-67197871D01*
X157273780Y-67253201D01*
X157279759Y-67322814D01*
X157247154Y-67384610D01*
X157231115Y-67398508D01*
X157091070Y-67500256D01*
X156935190Y-67656136D01*
X156935186Y-67656141D01*
X156805621Y-67834474D01*
X156705538Y-68030893D01*
X156705537Y-68030896D01*
X156637419Y-68240547D01*
X156618635Y-68359146D01*
X156602934Y-68458278D01*
X156602934Y-68678722D01*
X156606989Y-68704325D01*
X156637419Y-68896452D01*
X156705537Y-69106103D01*
X156705538Y-69106106D01*
X156805621Y-69302525D01*
X156935186Y-69480858D01*
X156935190Y-69480863D01*
X157091070Y-69636743D01*
X157091075Y-69636747D01*
X157230688Y-69738182D01*
X157273354Y-69793512D01*
X157279333Y-69863125D01*
X157246727Y-69924920D01*
X157230688Y-69938818D01*
X157091075Y-70040252D01*
X157091070Y-70040256D01*
X156935190Y-70196136D01*
X156935186Y-70196141D01*
X156805621Y-70374474D01*
X156705538Y-70570893D01*
X156705537Y-70570896D01*
X156637419Y-70780547D01*
X156602934Y-70998278D01*
X156602934Y-71218721D01*
X156637419Y-71436452D01*
X156705537Y-71646103D01*
X156705538Y-71646106D01*
X156772196Y-71776926D01*
X156805483Y-71842256D01*
X156805621Y-71842525D01*
X156935186Y-72020858D01*
X156935190Y-72020863D01*
X157091070Y-72176743D01*
X157091075Y-72176747D01*
X157230688Y-72278182D01*
X157273354Y-72333512D01*
X157279333Y-72403125D01*
X157246727Y-72464920D01*
X157230688Y-72478818D01*
X157091075Y-72580252D01*
X157091070Y-72580256D01*
X156935190Y-72736136D01*
X156935186Y-72736141D01*
X156805621Y-72914474D01*
X156705538Y-73110893D01*
X156705537Y-73110896D01*
X156637419Y-73320547D01*
X156602934Y-73538278D01*
X156602934Y-73758721D01*
X156637419Y-73976452D01*
X156705537Y-74186103D01*
X156705538Y-74186106D01*
X156805621Y-74382525D01*
X156935186Y-74560858D01*
X156935190Y-74560863D01*
X157091070Y-74716743D01*
X157091075Y-74716747D01*
X157230688Y-74818182D01*
X157273354Y-74873512D01*
X157279333Y-74943125D01*
X157246727Y-75004920D01*
X157230688Y-75018818D01*
X157091075Y-75120252D01*
X157091070Y-75120256D01*
X156935190Y-75276136D01*
X156935186Y-75276141D01*
X156805621Y-75454474D01*
X156705538Y-75650893D01*
X156705537Y-75650896D01*
X156637419Y-75860547D01*
X156602934Y-76078278D01*
X156602934Y-76298721D01*
X156637419Y-76516452D01*
X156705537Y-76726103D01*
X156705538Y-76726106D01*
X156805621Y-76922525D01*
X156935186Y-77100858D01*
X156935190Y-77100863D01*
X157091070Y-77256743D01*
X157091075Y-77256747D01*
X157230688Y-77358182D01*
X157273354Y-77413512D01*
X157279333Y-77483125D01*
X157246727Y-77544920D01*
X157230688Y-77558818D01*
X157091075Y-77660252D01*
X157091070Y-77660256D01*
X156935190Y-77816136D01*
X156935186Y-77816141D01*
X156805621Y-77994474D01*
X156705538Y-78190893D01*
X156705537Y-78190896D01*
X156637419Y-78400547D01*
X156602934Y-78618278D01*
X156602934Y-78662717D01*
X156583249Y-78729756D01*
X156566615Y-78750398D01*
X154158735Y-81158278D01*
X151925655Y-83391358D01*
X151925652Y-83391361D01*
X151860415Y-83456598D01*
X151786293Y-83530719D01*
X151763805Y-83564376D01*
X151747639Y-83577885D01*
X151735014Y-83594752D01*
X151721368Y-83599841D01*
X151710193Y-83609181D01*
X151689289Y-83611806D01*
X151669550Y-83619169D01*
X151655318Y-83616073D01*
X151640868Y-83617888D01*
X151621862Y-83608795D01*
X151601277Y-83604317D01*
X151581392Y-83589432D01*
X151577840Y-83587733D01*
X151573022Y-83583167D01*
X151520573Y-83530718D01*
X151461216Y-83471361D01*
X151461215Y-83471360D01*
X144200253Y-76210398D01*
X144166768Y-76149075D01*
X144163934Y-76122717D01*
X144163934Y-76078278D01*
X144129449Y-75860549D01*
X144061329Y-75650894D01*
X144061329Y-75650893D01*
X144026671Y-75582875D01*
X143961249Y-75454478D01*
X143944694Y-75431692D01*
X143831681Y-75276141D01*
X143831677Y-75276136D01*
X143675797Y-75120256D01*
X143675792Y-75120252D01*
X143536179Y-75018818D01*
X143493513Y-74963489D01*
X143487534Y-74893875D01*
X143520139Y-74832080D01*
X143536179Y-74818182D01*
X143675792Y-74716747D01*
X143675790Y-74716747D01*
X143675799Y-74716742D01*
X143831676Y-74560865D01*
X143961249Y-74382522D01*
X144061329Y-74186106D01*
X144129449Y-73976451D01*
X144163934Y-73758722D01*
X144163934Y-73538278D01*
X144129449Y-73320549D01*
X144061329Y-73110894D01*
X144061329Y-73110893D01*
X144026671Y-73042875D01*
X143961249Y-72914478D01*
X143944694Y-72891692D01*
X143831681Y-72736141D01*
X143831677Y-72736136D01*
X143675797Y-72580256D01*
X143675792Y-72580252D01*
X143535753Y-72478508D01*
X143493087Y-72423178D01*
X143487108Y-72353565D01*
X143519713Y-72291770D01*
X143535753Y-72277872D01*
X143560947Y-72259566D01*
X143560948Y-72259566D01*
X142974493Y-71673112D01*
X142995025Y-71667611D01*
X143131842Y-71588619D01*
X143243553Y-71476908D01*
X143322545Y-71340091D01*
X143328046Y-71319560D01*
X143914500Y-71906014D01*
X143914500Y-71906013D01*
X143960820Y-71842260D01*
X144060866Y-71645910D01*
X144128960Y-71436335D01*
X144163434Y-71218681D01*
X144163434Y-70998318D01*
X144128960Y-70780664D01*
X144060866Y-70571089D01*
X143960822Y-70374743D01*
X143914500Y-70310985D01*
X143914499Y-70310985D01*
X143328046Y-70897439D01*
X143322545Y-70876909D01*
X143243553Y-70740092D01*
X143131842Y-70628381D01*
X142995025Y-70549389D01*
X142974491Y-70543887D01*
X143560947Y-69957432D01*
X143535753Y-69939128D01*
X143493087Y-69883798D01*
X143487108Y-69814185D01*
X143519713Y-69752389D01*
X143535747Y-69738494D01*
X143675799Y-69636742D01*
X143831676Y-69480865D01*
X143961249Y-69302522D01*
X144061329Y-69106106D01*
X144129449Y-68896451D01*
X144163934Y-68678722D01*
X144163934Y-68458278D01*
X144129449Y-68240549D01*
X144076448Y-68077427D01*
X144061330Y-68030896D01*
X144061329Y-68030893D01*
X143991276Y-67893409D01*
X143961249Y-67834478D01*
X143912418Y-67767267D01*
X143831681Y-67656141D01*
X143831677Y-67656136D01*
X143675797Y-67500256D01*
X143675792Y-67500252D01*
X143536179Y-67398818D01*
X143493513Y-67343489D01*
X143487534Y-67273875D01*
X143520139Y-67212080D01*
X143536179Y-67198182D01*
X143675792Y-67096747D01*
X143675790Y-67096747D01*
X143675799Y-67096742D01*
X143831676Y-66940865D01*
X143831676Y-66940864D01*
X143832222Y-66940319D01*
X143893545Y-66906834D01*
X143919903Y-66904000D01*
X144439665Y-66904000D01*
X144439666Y-66903999D01*
X144608808Y-66870355D01*
X144768139Y-66804358D01*
X144911533Y-66708545D01*
X145334231Y-66285847D01*
X145794314Y-65825765D01*
X146263476Y-65356602D01*
X146263477Y-65356601D01*
X146263479Y-65356599D01*
X146293565Y-65311572D01*
X146359292Y-65213205D01*
X146425289Y-65053874D01*
X146458934Y-64884729D01*
X146458934Y-58712271D01*
X146458934Y-58712268D01*
X146458933Y-58712266D01*
X146425289Y-58543126D01*
X146418701Y-58527222D01*
X146359295Y-58383801D01*
X146359288Y-58383788D01*
X146344928Y-58362297D01*
X146263480Y-58240402D01*
X146204526Y-58181448D01*
X146141533Y-58118455D01*
X145004315Y-56981237D01*
X143864166Y-55841087D01*
X143341536Y-55318457D01*
X143341532Y-55318454D01*
X143198145Y-55222645D01*
X143198132Y-55222638D01*
X143038812Y-55156646D01*
X143038800Y-55156643D01*
X142869666Y-55123000D01*
X142869663Y-55123000D01*
X138592354Y-55123000D01*
X138585746Y-55122824D01*
X138578379Y-55122430D01*
X138552236Y-55117884D01*
X138420701Y-55114015D01*
X138419209Y-55113936D01*
X138418971Y-55113852D01*
X138413566Y-55113505D01*
X138323654Y-55104578D01*
X138313708Y-55103182D01*
X138251821Y-55091922D01*
X138241400Y-55089558D01*
X138204686Y-55079548D01*
X138190916Y-55074911D01*
X138051463Y-55018657D01*
X138044845Y-55015761D01*
X138007106Y-54997916D01*
X138007064Y-54997896D01*
X138000142Y-54994687D01*
X138000126Y-54994680D01*
X138000077Y-54994657D01*
X137999847Y-54994552D01*
X137994747Y-54992287D01*
X137991890Y-54991018D01*
X137918848Y-54959321D01*
X137745990Y-54884308D01*
X137729467Y-54877620D01*
X137722738Y-54874896D01*
X137722725Y-54874891D01*
X137721702Y-54874506D01*
X137719159Y-54873617D01*
X137699123Y-54866617D01*
X137539211Y-54814949D01*
X137539177Y-54814938D01*
X137520475Y-54809293D01*
X137519602Y-54809048D01*
X137519587Y-54809044D01*
X137499637Y-54803878D01*
X137499622Y-54803874D01*
X137499601Y-54803869D01*
X137311224Y-54759165D01*
X137301693Y-54756998D01*
X137301329Y-54756919D01*
X137239811Y-54747483D01*
X137233477Y-54747166D01*
X137233485Y-54746996D01*
X137215414Y-54746048D01*
X137202475Y-54743998D01*
X137133035Y-54733000D01*
X137133031Y-54733000D01*
X136933837Y-54733000D01*
X136868256Y-54743387D01*
X136737093Y-54764161D01*
X136737090Y-54764161D01*
X136547653Y-54825713D01*
X136370167Y-54916147D01*
X136319886Y-54952679D01*
X136209016Y-55033231D01*
X136209014Y-55033233D01*
X136209013Y-55033233D01*
X136068167Y-55174079D01*
X136068167Y-55174080D01*
X136068165Y-55174082D01*
X136068163Y-55174085D01*
X135951081Y-55335233D01*
X135873919Y-55486672D01*
X135825944Y-55537468D01*
X135758123Y-55554263D01*
X135691988Y-55531725D01*
X135652949Y-55486672D01*
X135575786Y-55335233D01*
X135458703Y-55174082D01*
X135317852Y-55033231D01*
X135156700Y-54916147D01*
X134979214Y-54825713D01*
X134789776Y-54764161D01*
X134642216Y-54740790D01*
X134593031Y-54733000D01*
X134393837Y-54733000D01*
X134393831Y-54733000D01*
X134256838Y-54754697D01*
X134247598Y-54755807D01*
X134219817Y-54758090D01*
X134219812Y-54758091D01*
X134072517Y-54791764D01*
X134056937Y-54795587D01*
X134056300Y-54795754D01*
X134041934Y-54799748D01*
X133908752Y-54838902D01*
X133886886Y-54845873D01*
X133885925Y-54846204D01*
X133864058Y-54854296D01*
X133631211Y-54946625D01*
X133621014Y-54950846D01*
X133617230Y-54952413D01*
X133617216Y-54952418D01*
X133617175Y-54952436D01*
X133616612Y-54952679D01*
X133608930Y-54956141D01*
X133601891Y-54959313D01*
X133601874Y-54959321D01*
X133524497Y-54995686D01*
X133523105Y-54996330D01*
X133411612Y-55047055D01*
X133400399Y-55051511D01*
X133316019Y-55080378D01*
X133298523Y-55084970D01*
X133239323Y-55095964D01*
X133194488Y-55096046D01*
X133181908Y-55093757D01*
X133171819Y-55091922D01*
X133161400Y-55089558D01*
X133124686Y-55079548D01*
X133110916Y-55074911D01*
X132971463Y-55018657D01*
X132964845Y-55015761D01*
X132927106Y-54997916D01*
X132927064Y-54997896D01*
X132920142Y-54994687D01*
X132920126Y-54994680D01*
X132920077Y-54994657D01*
X132919847Y-54994552D01*
X132914747Y-54992287D01*
X132911890Y-54991018D01*
X132838848Y-54959321D01*
X132665990Y-54884308D01*
X132649467Y-54877620D01*
X132642738Y-54874896D01*
X132642725Y-54874891D01*
X132641702Y-54874506D01*
X132639159Y-54873617D01*
X132619123Y-54866617D01*
X132459211Y-54814949D01*
X132459177Y-54814938D01*
X132440475Y-54809293D01*
X132439602Y-54809048D01*
X132439587Y-54809044D01*
X132419637Y-54803878D01*
X132419622Y-54803874D01*
X132419601Y-54803869D01*
X132231224Y-54759165D01*
X132221693Y-54756998D01*
X132221329Y-54756919D01*
X132159811Y-54747483D01*
X132153477Y-54747166D01*
X132153485Y-54746996D01*
X132135414Y-54746048D01*
X132122475Y-54743998D01*
X132053035Y-54733000D01*
X132053031Y-54733000D01*
X131853837Y-54733000D01*
X131788256Y-54743387D01*
X131657093Y-54764161D01*
X131657090Y-54764161D01*
X131467653Y-54825713D01*
X131290167Y-54916147D01*
X131239886Y-54952679D01*
X131129016Y-55033231D01*
X131129014Y-55033233D01*
X131129013Y-55033233D01*
X130988167Y-55174079D01*
X130988167Y-55174080D01*
X130988165Y-55174082D01*
X130988163Y-55174085D01*
X130871081Y-55335233D01*
X130801767Y-55471270D01*
X130753792Y-55522066D01*
X130685971Y-55538861D01*
X130619836Y-55516324D01*
X130585725Y-55480041D01*
X130486218Y-55318611D01*
X130486121Y-55318457D01*
X130481836Y-55311628D01*
X130481822Y-55311605D01*
X130481612Y-55311278D01*
X130443907Y-55259757D01*
X130439622Y-55255015D01*
X130439748Y-55254900D01*
X130427696Y-55241516D01*
X130402021Y-55206176D01*
X130378706Y-55174085D01*
X130237854Y-55033233D01*
X130237852Y-55033231D01*
X130076700Y-54916147D01*
X129899214Y-54825713D01*
X129709776Y-54764161D01*
X129562216Y-54740790D01*
X129513031Y-54733000D01*
X129313837Y-54733000D01*
X129248256Y-54743387D01*
X129117093Y-54764161D01*
X129117090Y-54764161D01*
X128927653Y-54825713D01*
X128750167Y-54916147D01*
X128699886Y-54952679D01*
X128589016Y-55033231D01*
X128589014Y-55033233D01*
X128589013Y-55033233D01*
X128448167Y-55174079D01*
X128448167Y-55174080D01*
X128448165Y-55174082D01*
X128448163Y-55174085D01*
X128331081Y-55335233D01*
X128240647Y-55512719D01*
X128179095Y-55702156D01*
X128179095Y-55702159D01*
X128171622Y-55749342D01*
X128147934Y-55898903D01*
X128147934Y-56098097D01*
X128154498Y-56139541D01*
X128179095Y-56294840D01*
X128179095Y-56294843D01*
X128240647Y-56484280D01*
X128240649Y-56484283D01*
X128331081Y-56661766D01*
X128448165Y-56822918D01*
X128589016Y-56963769D01*
X128701252Y-57045313D01*
X128708566Y-57051059D01*
X128729808Y-57069077D01*
X128857730Y-57149395D01*
X128863406Y-57152840D01*
X128870756Y-57157302D01*
X128871373Y-57157664D01*
X128881566Y-57163433D01*
X128885073Y-57165418D01*
X129006873Y-57231872D01*
X129027654Y-57242595D01*
X129028623Y-57243067D01*
X129049435Y-57252625D01*
X129279331Y-57351969D01*
X129293789Y-57357952D01*
X129293797Y-57357955D01*
X129294469Y-57358221D01*
X129294481Y-57358225D01*
X129294510Y-57358237D01*
X129301589Y-57360913D01*
X129309057Y-57363737D01*
X129389561Y-57392763D01*
X129390702Y-57393182D01*
X129505634Y-57436236D01*
X129516685Y-57441001D01*
X129596785Y-57480266D01*
X129612380Y-57489378D01*
X129704782Y-57552834D01*
X129717640Y-57562977D01*
X129872890Y-57703034D01*
X129904514Y-57729311D01*
X129908895Y-57732951D01*
X129908582Y-57733327D01*
X129917659Y-57740869D01*
X136223389Y-64046599D01*
X136345335Y-64168545D01*
X136345336Y-64168546D01*
X136488722Y-64264354D01*
X136488735Y-64264361D01*
X136610632Y-64314852D01*
X136648060Y-64330355D01*
X136817200Y-64363999D01*
X136817203Y-64364000D01*
X136817205Y-64364000D01*
X136989663Y-64364000D01*
X141606965Y-64364000D01*
X141674004Y-64383685D01*
X141694646Y-64400319D01*
X141851070Y-64556743D01*
X141851075Y-64556747D01*
X141990688Y-64658182D01*
X142033354Y-64713512D01*
X142039333Y-64783125D01*
X142006727Y-64844920D01*
X141990688Y-64858818D01*
X141851075Y-64960252D01*
X141851070Y-64960256D01*
X141695190Y-65116136D01*
X141695186Y-65116141D01*
X141565621Y-65294474D01*
X141465538Y-65490893D01*
X141465537Y-65490896D01*
X141397419Y-65700547D01*
X141362934Y-65918278D01*
X141362934Y-66138721D01*
X141397419Y-66356452D01*
X141465537Y-66566103D01*
X141465538Y-66566106D01*
X141533556Y-66699596D01*
X141565483Y-66762256D01*
X141565621Y-66762525D01*
X141695186Y-66940858D01*
X141695190Y-66940863D01*
X141851070Y-67096743D01*
X141851075Y-67096747D01*
X141990688Y-67198182D01*
X142033354Y-67253512D01*
X142039333Y-67323125D01*
X142006727Y-67384920D01*
X141990688Y-67398818D01*
X141851075Y-67500252D01*
X141851070Y-67500256D01*
X141695190Y-67656136D01*
X141695186Y-67656141D01*
X141565621Y-67834474D01*
X141465538Y-68030893D01*
X141465537Y-68030896D01*
X141397419Y-68240547D01*
X141378635Y-68359146D01*
X141362934Y-68458278D01*
X141362934Y-68678722D01*
X141366989Y-68704325D01*
X141397419Y-68896452D01*
X141465537Y-69106103D01*
X141465538Y-69106106D01*
X141565621Y-69302525D01*
X141695186Y-69480858D01*
X141695190Y-69480863D01*
X141851074Y-69636747D01*
X141991113Y-69738490D01*
X142033779Y-69793819D01*
X142039758Y-69863433D01*
X142007153Y-69925228D01*
X141991113Y-69939126D01*
X141965919Y-69957430D01*
X141965919Y-69957432D01*
X142552374Y-70543887D01*
X142531843Y-70549389D01*
X142395026Y-70628381D01*
X142283315Y-70740092D01*
X142204323Y-70876909D01*
X142198821Y-70897440D01*
X141612366Y-70310985D01*
X141612365Y-70310985D01*
X141566050Y-70374733D01*
X141466001Y-70571089D01*
X141397907Y-70780664D01*
X141363434Y-70998318D01*
X141363434Y-71218681D01*
X141397907Y-71436335D01*
X141466001Y-71645910D01*
X141566045Y-71842256D01*
X141612366Y-71906013D01*
X142198821Y-71319558D01*
X142204323Y-71340091D01*
X142283315Y-71476908D01*
X142395026Y-71588619D01*
X142531843Y-71667611D01*
X142552373Y-71673112D01*
X141965919Y-72259565D01*
X141965919Y-72259566D01*
X141991114Y-72277871D01*
X142033780Y-72333201D01*
X142039759Y-72402814D01*
X142007154Y-72464610D01*
X141991115Y-72478508D01*
X141851070Y-72580256D01*
X141695190Y-72736136D01*
X141695186Y-72736141D01*
X141565621Y-72914474D01*
X141465538Y-73110893D01*
X141465537Y-73110896D01*
X141397419Y-73320547D01*
X141362934Y-73538278D01*
X141362934Y-73758721D01*
X141397419Y-73976452D01*
X141465537Y-74186103D01*
X141465538Y-74186106D01*
X141565621Y-74382525D01*
X141695186Y-74560858D01*
X141695190Y-74560863D01*
X141851070Y-74716743D01*
X141851075Y-74716747D01*
X141990688Y-74818182D01*
X142033354Y-74873512D01*
X142039333Y-74943125D01*
X142006727Y-75004920D01*
X141990688Y-75018818D01*
X141851075Y-75120252D01*
X141851070Y-75120256D01*
X141695190Y-75276136D01*
X141695186Y-75276141D01*
X141565621Y-75454474D01*
X141465538Y-75650893D01*
X141465537Y-75650896D01*
X141397419Y-75860547D01*
X141362934Y-76078278D01*
X141362934Y-76298721D01*
X141397419Y-76516452D01*
X141465537Y-76726103D01*
X141465538Y-76726106D01*
X141565621Y-76922525D01*
X141695186Y-77100858D01*
X141695190Y-77100863D01*
X141851070Y-77256743D01*
X141851075Y-77256747D01*
X141990688Y-77358182D01*
X142033354Y-77413512D01*
X142039333Y-77483125D01*
X142006727Y-77544920D01*
X141990688Y-77558818D01*
X141851075Y-77660252D01*
X141851070Y-77660256D01*
X141695190Y-77816136D01*
X141695186Y-77816141D01*
X141565621Y-77994474D01*
X141465538Y-78190893D01*
X141465537Y-78190896D01*
X141397419Y-78400547D01*
X141362934Y-78618278D01*
X141362934Y-78838721D01*
X141397419Y-79056452D01*
X141465537Y-79266103D01*
X141465538Y-79266106D01*
X141565621Y-79462525D01*
X141695186Y-79640858D01*
X141695190Y-79640863D01*
X141851070Y-79796743D01*
X141851075Y-79796747D01*
X141990688Y-79898182D01*
X142033354Y-79953512D01*
X142039333Y-80023125D01*
X142006727Y-80084920D01*
X141990688Y-80098818D01*
X141851075Y-80200252D01*
X141851070Y-80200256D01*
X141694646Y-80356681D01*
X141667718Y-80371384D01*
X141641900Y-80387977D01*
X141635699Y-80388868D01*
X141633323Y-80390166D01*
X141606965Y-80393000D01*
X141367440Y-80393000D01*
X141300401Y-80373315D01*
X141279759Y-80356681D01*
X134541536Y-73618457D01*
X134541532Y-73618454D01*
X134398145Y-73522645D01*
X134398132Y-73522638D01*
X134238812Y-73456646D01*
X134238800Y-73456643D01*
X134069666Y-73423000D01*
X134069663Y-73423000D01*
X132297440Y-73423000D01*
X132230401Y-73403315D01*
X132209759Y-73386681D01*
X123938653Y-65115575D01*
X123905168Y-65054252D01*
X123903045Y-65014639D01*
X123903934Y-65006373D01*
X123903933Y-63390628D01*
X123897525Y-63331017D01*
X123895244Y-63324902D01*
X123847231Y-63196171D01*
X123847227Y-63196164D01*
X123760981Y-63080955D01*
X123760978Y-63080952D01*
X123645769Y-62994706D01*
X123645762Y-62994702D01*
X123510916Y-62944408D01*
X123510917Y-62944408D01*
X123451317Y-62938001D01*
X123451315Y-62938000D01*
X123451307Y-62938000D01*
X123451298Y-62938000D01*
X121835563Y-62938000D01*
X121835557Y-62938001D01*
X121775950Y-62944408D01*
X121641105Y-62994702D01*
X121641098Y-62994706D01*
X121525889Y-63080952D01*
X121525886Y-63080955D01*
X121439640Y-63196164D01*
X121439636Y-63196171D01*
X121389342Y-63331017D01*
X121382935Y-63390616D01*
X121382935Y-63390623D01*
X121382934Y-63390635D01*
X121382934Y-64400494D01*
X121363249Y-64467533D01*
X121310445Y-64513288D01*
X121241287Y-64523232D01*
X121177731Y-64494207D01*
X121171253Y-64488175D01*
X120940253Y-64257175D01*
X120906768Y-64195852D01*
X120903934Y-64169494D01*
X120903934Y-64099290D01*
X120879862Y-63947310D01*
X120872897Y-63903332D01*
X120811585Y-63714636D01*
X120811583Y-63714633D01*
X120811583Y-63714631D01*
X120744664Y-63583295D01*
X120721511Y-63537854D01*
X120604890Y-63377339D01*
X120464595Y-63237044D01*
X120304080Y-63120423D01*
X120199951Y-63067367D01*
X120127302Y-63030350D01*
X120082030Y-63015640D01*
X119938602Y-62969037D01*
X119938596Y-62969036D01*
X119742643Y-62938000D01*
X119742638Y-62938000D01*
X119544230Y-62938000D01*
X119544225Y-62938000D01*
X119348271Y-62969036D01*
X119348269Y-62969036D01*
X119348266Y-62969037D01*
X119269266Y-62994706D01*
X119159565Y-63030350D01*
X118982786Y-63120424D01*
X118982783Y-63120426D01*
X118936972Y-63153710D01*
X118822273Y-63237044D01*
X118822271Y-63237046D01*
X118822270Y-63237046D01*
X118681980Y-63377336D01*
X118681980Y-63377337D01*
X118681978Y-63377339D01*
X118672318Y-63390635D01*
X118565360Y-63537849D01*
X118565358Y-63537852D01*
X118475284Y-63714631D01*
X118444627Y-63808984D01*
X118413971Y-63903332D01*
X118413970Y-63903335D01*
X118413970Y-63903337D01*
X118382934Y-64099290D01*
X118382934Y-64297709D01*
X118409832Y-64467533D01*
X118413971Y-64493668D01*
X118434466Y-64556743D01*
X118475284Y-64682368D01*
X118516155Y-64762581D01*
X118565357Y-64859146D01*
X118681978Y-65019661D01*
X118822273Y-65159956D01*
X118982788Y-65276577D01*
X119096234Y-65334380D01*
X119159565Y-65366649D01*
X119159567Y-65366649D01*
X119159570Y-65366651D01*
X119348266Y-65427963D01*
X119446248Y-65443481D01*
X119544225Y-65459000D01*
X119544230Y-65459000D01*
X119614428Y-65459000D01*
X119681467Y-65478685D01*
X119702109Y-65495319D01*
X120271615Y-66064825D01*
X120305100Y-66126148D01*
X120307934Y-66152506D01*
X120307934Y-66420037D01*
X120288249Y-66487076D01*
X120235445Y-66532831D01*
X120166287Y-66542775D01*
X120131942Y-66531888D01*
X120131807Y-66532216D01*
X120127995Y-66530637D01*
X120127650Y-66530528D01*
X120127303Y-66530351D01*
X120127300Y-66530350D01*
X120127298Y-66530349D01*
X119938602Y-66469037D01*
X119938596Y-66469036D01*
X119742643Y-66438000D01*
X119742638Y-66438000D01*
X119544230Y-66438000D01*
X119544225Y-66438000D01*
X119348271Y-66469036D01*
X119348269Y-66469036D01*
X119348266Y-66469037D01*
X119292749Y-66487076D01*
X119159565Y-66530350D01*
X118982786Y-66620424D01*
X118982783Y-66620426D01*
X118896689Y-66682977D01*
X118822273Y-66737044D01*
X118822271Y-66737046D01*
X118822270Y-66737046D01*
X118681980Y-66877336D01*
X118681980Y-66877337D01*
X118681978Y-66877339D01*
X118658835Y-66909193D01*
X118565360Y-67037849D01*
X118565358Y-67037852D01*
X118475284Y-67214631D01*
X118447488Y-67300178D01*
X118413971Y-67403332D01*
X118413970Y-67403335D01*
X118413970Y-67403337D01*
X118382934Y-67599290D01*
X118382934Y-67797709D01*
X118409853Y-67967669D01*
X118413971Y-67993668D01*
X118460574Y-68137096D01*
X118475284Y-68182368D01*
X118504928Y-68240547D01*
X118565357Y-68359146D01*
X118681978Y-68519661D01*
X118822273Y-68659956D01*
X118982788Y-68776577D01*
X119096234Y-68834380D01*
X119159565Y-68866649D01*
X119159567Y-68866649D01*
X119159570Y-68866651D01*
X119348266Y-68927963D01*
X119446248Y-68943481D01*
X119544225Y-68959000D01*
X119544230Y-68959000D01*
X119742643Y-68959000D01*
X119831712Y-68944892D01*
X119938602Y-68927963D01*
X120127298Y-68866651D01*
X120127632Y-68866481D01*
X120127773Y-68866454D01*
X120131807Y-68864784D01*
X120132157Y-68865630D01*
X120196300Y-68853580D01*
X120261042Y-68879852D01*
X120301303Y-68936956D01*
X120307934Y-68976962D01*
X120307934Y-69184733D01*
X120341577Y-69353866D01*
X120341580Y-69353878D01*
X120407572Y-69513198D01*
X120407579Y-69513211D01*
X120503388Y-69656598D01*
X120503391Y-69656602D01*
X128653389Y-77806599D01*
X128775335Y-77928545D01*
X128775336Y-77928546D01*
X128918722Y-78024354D01*
X128918729Y-78024358D01*
X128984725Y-78051694D01*
X128984726Y-78051695D01*
X129023387Y-78067708D01*
X129078061Y-78090356D01*
X129247200Y-78123999D01*
X129247204Y-78124000D01*
X129247205Y-78124000D01*
X132769428Y-78124000D01*
X132836467Y-78143685D01*
X132857109Y-78160319D01*
X141388003Y-86691213D01*
X141418253Y-86740576D01*
X141465537Y-86886103D01*
X141565621Y-87082525D01*
X141695186Y-87260858D01*
X141695190Y-87260863D01*
X141851070Y-87416743D01*
X141851075Y-87416747D01*
X141990688Y-87518182D01*
X142033354Y-87573512D01*
X142039333Y-87643125D01*
X142006727Y-87704920D01*
X141990688Y-87718818D01*
X141851075Y-87820252D01*
X141851070Y-87820256D01*
X141695190Y-87976136D01*
X141695186Y-87976141D01*
X141565621Y-88154474D01*
X141465538Y-88350893D01*
X141465537Y-88350896D01*
X141397419Y-88560547D01*
X141362934Y-88778278D01*
X141362934Y-88998721D01*
X141397419Y-89216452D01*
X141465537Y-89426103D01*
X141465538Y-89426106D01*
X141527332Y-89547380D01*
X141559990Y-89611475D01*
X141565621Y-89622525D01*
X141695186Y-89800858D01*
X141695190Y-89800863D01*
X141851070Y-89956743D01*
X141851075Y-89956747D01*
X141990688Y-90058182D01*
X142033354Y-90113512D01*
X142039333Y-90183125D01*
X142006727Y-90244920D01*
X141990688Y-90258818D01*
X141851075Y-90360252D01*
X141851070Y-90360256D01*
X141695190Y-90516136D01*
X141695186Y-90516141D01*
X141565621Y-90694474D01*
X141465538Y-90890893D01*
X141465537Y-90890896D01*
X141395913Y-91105183D01*
X141394222Y-91104633D01*
X141363210Y-91158596D01*
X141301171Y-91190735D01*
X141231605Y-91184232D01*
X141189782Y-91156704D01*
X137601536Y-87568457D01*
X137601532Y-87568454D01*
X137458145Y-87472645D01*
X137458132Y-87472638D01*
X137298812Y-87406646D01*
X137298800Y-87406643D01*
X137129666Y-87373000D01*
X137129663Y-87373000D01*
X120419663Y-87373000D01*
X120247205Y-87373000D01*
X120247202Y-87373000D01*
X120078067Y-87406643D01*
X120078055Y-87406646D01*
X119918735Y-87472638D01*
X119918722Y-87472645D01*
X119775335Y-87568454D01*
X119775331Y-87568457D01*
X117912481Y-89431307D01*
X117907687Y-89435853D01*
X117902197Y-89440786D01*
X117880492Y-89456062D01*
X117784714Y-89546371D01*
X117783592Y-89547380D01*
X117783364Y-89547488D01*
X117779293Y-89551069D01*
X117709463Y-89608284D01*
X117701437Y-89614334D01*
X117649814Y-89650058D01*
X117640772Y-89655755D01*
X117607747Y-89674626D01*
X117594780Y-89681062D01*
X117455680Y-89740253D01*
X117449096Y-89742836D01*
X117412098Y-89756143D01*
X117403173Y-89759447D01*
X117403006Y-89759511D01*
X117396579Y-89762010D01*
X117148642Y-89860333D01*
X117131006Y-89867822D01*
X117126322Y-89869811D01*
X117126311Y-89869815D01*
X117126285Y-89869827D01*
X117125337Y-89870256D01*
X117106101Y-89879540D01*
X117103375Y-89880856D01*
X117045411Y-89910572D01*
X116954494Y-89957181D01*
X116936700Y-89966759D01*
X116935881Y-89967221D01*
X116919028Y-89977169D01*
X116919010Y-89977180D01*
X116919000Y-89977186D01*
X116916878Y-89978495D01*
X116754993Y-90078339D01*
X116747533Y-90083031D01*
X116747263Y-90083204D01*
X116696354Y-90120517D01*
X116691634Y-90124786D01*
X116691520Y-90124660D01*
X116678092Y-90136751D01*
X116610970Y-90185518D01*
X116470455Y-90326033D01*
X116353647Y-90486805D01*
X116293919Y-90604028D01*
X116245944Y-90654824D01*
X116178123Y-90671619D01*
X116111988Y-90649081D01*
X116072949Y-90604028D01*
X116041278Y-90541871D01*
X116013221Y-90486806D01*
X115896415Y-90326036D01*
X115755898Y-90185519D01*
X115595128Y-90068713D01*
X115574460Y-90058182D01*
X115418066Y-89978494D01*
X115418063Y-89978493D01*
X115229071Y-89917087D01*
X115130932Y-89901543D01*
X115032795Y-89886000D01*
X114834073Y-89886000D01*
X114768648Y-89896362D01*
X114637796Y-89917087D01*
X114448804Y-89978493D01*
X114448801Y-89978494D01*
X114271739Y-90068713D01*
X114110967Y-90185521D01*
X113970455Y-90326033D01*
X113853647Y-90486805D01*
X113793638Y-90604579D01*
X113745663Y-90655375D01*
X113677842Y-90672170D01*
X113611707Y-90649632D01*
X113572668Y-90604579D01*
X113512792Y-90487067D01*
X113485702Y-90449783D01*
X112814434Y-91121051D01*
X112814434Y-91098340D01*
X112788470Y-91001439D01*
X112738310Y-90914560D01*
X112667374Y-90843624D01*
X112580495Y-90793464D01*
X112483594Y-90767500D01*
X112460881Y-90767500D01*
X113132150Y-90096231D01*
X113132149Y-90096230D01*
X113094866Y-90069141D01*
X112917871Y-89978957D01*
X112728956Y-89917575D01*
X112532755Y-89886500D01*
X112334113Y-89886500D01*
X112137913Y-89917575D01*
X112137910Y-89917575D01*
X111948996Y-89978957D01*
X111771998Y-90069143D01*
X111734717Y-90096229D01*
X111734716Y-90096230D01*
X112405988Y-90767500D01*
X112383274Y-90767500D01*
X112286373Y-90793464D01*
X112199494Y-90843624D01*
X112128558Y-90914560D01*
X112078398Y-91001439D01*
X112052434Y-91098340D01*
X112052434Y-91121052D01*
X111381164Y-90449782D01*
X111381163Y-90449783D01*
X111354075Y-90487066D01*
X111294198Y-90604580D01*
X111246224Y-90655375D01*
X111178402Y-90672170D01*
X111112268Y-90649632D01*
X111073230Y-90604580D01*
X111013221Y-90486806D01*
X110896415Y-90326036D01*
X110755898Y-90185519D01*
X110595128Y-90068713D01*
X110574460Y-90058182D01*
X110418066Y-89978494D01*
X110418063Y-89978493D01*
X110229071Y-89917087D01*
X110130932Y-89901543D01*
X110032795Y-89886000D01*
X109834073Y-89886000D01*
X109768648Y-89896362D01*
X109637796Y-89917087D01*
X109448804Y-89978493D01*
X109448801Y-89978494D01*
X109271739Y-90068713D01*
X109110967Y-90185521D01*
X108970455Y-90326033D01*
X108853647Y-90486805D01*
X108763428Y-90663867D01*
X108763427Y-90663870D01*
X108702021Y-90852862D01*
X108670934Y-91049139D01*
X108670934Y-91247860D01*
X108702021Y-91444137D01*
X108763427Y-91633129D01*
X108763428Y-91633132D01*
X108799086Y-91703113D01*
X108853647Y-91810194D01*
X108970453Y-91970964D01*
X109110970Y-92111481D01*
X109271740Y-92228287D01*
X109358583Y-92272535D01*
X109448801Y-92318505D01*
X109448804Y-92318506D01*
X109543300Y-92349209D01*
X109637798Y-92379913D01*
X109834073Y-92411000D01*
X109834074Y-92411000D01*
X110032794Y-92411000D01*
X110032795Y-92411000D01*
X110229070Y-92379913D01*
X110418066Y-92318505D01*
X110595128Y-92228287D01*
X110755898Y-92111481D01*
X110896415Y-91970964D01*
X111013221Y-91810194D01*
X111073230Y-91692419D01*
X111121203Y-91641624D01*
X111189024Y-91624829D01*
X111255159Y-91647366D01*
X111294199Y-91692420D01*
X111354075Y-91809932D01*
X111381164Y-91847215D01*
X111381165Y-91847216D01*
X112052434Y-91175947D01*
X112052434Y-91198660D01*
X112078398Y-91295561D01*
X112128558Y-91382440D01*
X112199494Y-91453376D01*
X112286373Y-91503536D01*
X112383274Y-91529500D01*
X112405987Y-91529500D01*
X111734717Y-92200768D01*
X111734717Y-92200769D01*
X111772001Y-92227858D01*
X111948996Y-92318042D01*
X112137911Y-92379424D01*
X112334113Y-92410500D01*
X112532755Y-92410500D01*
X112728954Y-92379424D01*
X112728957Y-92379424D01*
X112917871Y-92318042D01*
X113094859Y-92227862D01*
X113132150Y-92200768D01*
X112460882Y-91529500D01*
X112483594Y-91529500D01*
X112580495Y-91503536D01*
X112667374Y-91453376D01*
X112738310Y-91382440D01*
X112788470Y-91295561D01*
X112814434Y-91198660D01*
X112814434Y-91175947D01*
X113485702Y-91847215D01*
X113512798Y-91809922D01*
X113572668Y-91692421D01*
X113620642Y-91641624D01*
X113688463Y-91624829D01*
X113754598Y-91647366D01*
X113793637Y-91692419D01*
X113853647Y-91810194D01*
X113970453Y-91970964D01*
X114110970Y-92111481D01*
X114271740Y-92228287D01*
X114358583Y-92272535D01*
X114448801Y-92318505D01*
X114448804Y-92318506D01*
X114543300Y-92349209D01*
X114637798Y-92379913D01*
X114834073Y-92411000D01*
X114834074Y-92411000D01*
X115032794Y-92411000D01*
X115032795Y-92411000D01*
X115229070Y-92379913D01*
X115418066Y-92318505D01*
X115595128Y-92228287D01*
X115755898Y-92111481D01*
X115896415Y-91970964D01*
X116013221Y-91810194D01*
X116072949Y-91692970D01*
X116120924Y-91642175D01*
X116188745Y-91625380D01*
X116254879Y-91647917D01*
X116293918Y-91692969D01*
X116353647Y-91810194D01*
X116470453Y-91970964D01*
X116610970Y-92111481D01*
X116771740Y-92228287D01*
X116858583Y-92272535D01*
X116948801Y-92318505D01*
X116948804Y-92318506D01*
X117043300Y-92349209D01*
X117137798Y-92379913D01*
X117173517Y-92385570D01*
X117178925Y-92386427D01*
X117242060Y-92416356D01*
X117278991Y-92475668D01*
X117277993Y-92545530D01*
X117247208Y-92596581D01*
X113288922Y-96554867D01*
X113227599Y-96588352D01*
X113157907Y-96583368D01*
X113101974Y-96541496D01*
X113077557Y-96476032D01*
X113092409Y-96407759D01*
X113100917Y-96394309D01*
X113142304Y-96337345D01*
X113256675Y-96112879D01*
X113334524Y-95873285D01*
X113373934Y-95624462D01*
X113373934Y-95372538D01*
X113334524Y-95123715D01*
X113256675Y-94884121D01*
X113256673Y-94884118D01*
X113256673Y-94884116D01*
X113203733Y-94780216D01*
X113142304Y-94659655D01*
X113052985Y-94536717D01*
X112994232Y-94455850D01*
X112994228Y-94455845D01*
X112816088Y-94277705D01*
X112816083Y-94277701D01*
X112612282Y-94129632D01*
X112612281Y-94129631D01*
X112612279Y-94129630D01*
X112523365Y-94084326D01*
X112387817Y-94015260D01*
X112148219Y-93937410D01*
X111989385Y-93912253D01*
X111899396Y-93898000D01*
X111647472Y-93898000D01*
X111557483Y-93912253D01*
X111398648Y-93937410D01*
X111159050Y-94015260D01*
X110934585Y-94129632D01*
X110730784Y-94277701D01*
X110730779Y-94277705D01*
X110552639Y-94455845D01*
X110552635Y-94455850D01*
X110404566Y-94659651D01*
X110290194Y-94884116D01*
X110212344Y-95123714D01*
X110172934Y-95372538D01*
X110172934Y-95624461D01*
X110212344Y-95873285D01*
X110290194Y-96112883D01*
X110346812Y-96224000D01*
X110400430Y-96329232D01*
X110404566Y-96337348D01*
X110505385Y-96476115D01*
X110528865Y-96541921D01*
X110513039Y-96609975D01*
X110462933Y-96658670D01*
X110405067Y-96673000D01*
X109497202Y-96673000D01*
X109328067Y-96706643D01*
X109328055Y-96706646D01*
X109168735Y-96772638D01*
X109168722Y-96772645D01*
X109025335Y-96868454D01*
X109025331Y-96868457D01*
X107777114Y-98116676D01*
X107375335Y-98518455D01*
X107335473Y-98558317D01*
X107253387Y-98640402D01*
X107157579Y-98783788D01*
X107157572Y-98783801D01*
X107091580Y-98943121D01*
X107091577Y-98943133D01*
X107057934Y-99112266D01*
X106733935Y-99112266D01*
X106733930Y-71806100D01*
X106733934Y-71806052D01*
X106733934Y-71549664D01*
X106723443Y-71436451D01*
X106703268Y-71218721D01*
X106697245Y-71153718D01*
X106697245Y-71153717D01*
X106697244Y-71153710D01*
X106624176Y-70762832D01*
X106515355Y-70380364D01*
X106411568Y-70112460D01*
X106411567Y-70112456D01*
X106396102Y-70072538D01*
X110132934Y-70072538D01*
X110132934Y-70324461D01*
X110172344Y-70573285D01*
X110250194Y-70812883D01*
X110328847Y-70967247D01*
X110360571Y-71029509D01*
X110364566Y-71037348D01*
X110512635Y-71241149D01*
X110512639Y-71241154D01*
X110690779Y-71419294D01*
X110690784Y-71419298D01*
X110714395Y-71436452D01*
X110894589Y-71567370D01*
X111037618Y-71640247D01*
X111119050Y-71681739D01*
X111119052Y-71681739D01*
X111119055Y-71681741D01*
X111358649Y-71759590D01*
X111607472Y-71799000D01*
X111607473Y-71799000D01*
X111859395Y-71799000D01*
X111859396Y-71799000D01*
X112108219Y-71759590D01*
X112347813Y-71681741D01*
X112572279Y-71567370D01*
X112776090Y-71419293D01*
X112954227Y-71241156D01*
X113102304Y-71037345D01*
X113216675Y-70812879D01*
X113294524Y-70573285D01*
X113333934Y-70324462D01*
X113333934Y-70072538D01*
X113294524Y-69823715D01*
X113216675Y-69584121D01*
X113216673Y-69584118D01*
X113216673Y-69584116D01*
X113175181Y-69502684D01*
X113102304Y-69359655D01*
X113060795Y-69302522D01*
X112954232Y-69155850D01*
X112954228Y-69155845D01*
X112776088Y-68977705D01*
X112776083Y-68977701D01*
X112572282Y-68829632D01*
X112572281Y-68829631D01*
X112572279Y-68829630D01*
X112502181Y-68793913D01*
X112347817Y-68715260D01*
X112108219Y-68637410D01*
X111859396Y-68598000D01*
X111607472Y-68598000D01*
X111483060Y-68617705D01*
X111358648Y-68637410D01*
X111119050Y-68715260D01*
X110894585Y-68829632D01*
X110690784Y-68977701D01*
X110690779Y-68977705D01*
X110512639Y-69155845D01*
X110512635Y-69155850D01*
X110364566Y-69359651D01*
X110250194Y-69584116D01*
X110172344Y-69823714D01*
X110132934Y-70072538D01*
X106396102Y-70072538D01*
X106371712Y-70009580D01*
X106371710Y-70009576D01*
X106371707Y-70009568D01*
X106194460Y-69653608D01*
X106194459Y-69653606D01*
X106194455Y-69653599D01*
X106046654Y-69414893D01*
X105985126Y-69315521D01*
X105745489Y-68998191D01*
X105745488Y-68998190D01*
X105745486Y-68998187D01*
X105637609Y-68879852D01*
X105477595Y-68704325D01*
X105275028Y-68519661D01*
X105183732Y-68436433D01*
X105183722Y-68436426D01*
X105081392Y-68359150D01*
X104866399Y-68196794D01*
X104742487Y-68120071D01*
X104528320Y-67987464D01*
X104528313Y-67987460D01*
X104172348Y-67810211D01*
X104036043Y-67757406D01*
X103801556Y-67666565D01*
X103801542Y-67666561D01*
X103801539Y-67666560D01*
X103419095Y-67557746D01*
X103419095Y-67557745D01*
X103028201Y-67484674D01*
X102708478Y-67455048D01*
X102632258Y-67447986D01*
X102632255Y-67447986D01*
X102436580Y-67447986D01*
X102430299Y-67447827D01*
X102065439Y-67429323D01*
X102052943Y-67428052D01*
X101694951Y-67373210D01*
X101682647Y-67370682D01*
X101332021Y-67279898D01*
X101320036Y-67276137D01*
X100980416Y-67150355D01*
X100968873Y-67145402D01*
X100643705Y-66985900D01*
X100632723Y-66979804D01*
X100325359Y-66788223D01*
X100315049Y-66781047D01*
X100290778Y-66762260D01*
X100117975Y-66628500D01*
X100028655Y-66559361D01*
X100019124Y-66551179D01*
X99756620Y-66301651D01*
X99747966Y-66292547D01*
X99742218Y-66285851D01*
X99512051Y-66017739D01*
X99504372Y-66007819D01*
X99384373Y-65835411D01*
X110007934Y-65835411D01*
X110007934Y-66061588D01*
X110007935Y-66061604D01*
X110034066Y-66260091D01*
X110037458Y-66285851D01*
X110056344Y-66356335D01*
X110096001Y-66504334D01*
X110182554Y-66713294D01*
X110182561Y-66713309D01*
X110295654Y-66909192D01*
X110433349Y-67088640D01*
X110433355Y-67088647D01*
X110593286Y-67248578D01*
X110593293Y-67248584D01*
X110772741Y-67386279D01*
X110968624Y-67499372D01*
X110968639Y-67499379D01*
X111058693Y-67536680D01*
X111177600Y-67585933D01*
X111396083Y-67644476D01*
X111620339Y-67674000D01*
X111620346Y-67674000D01*
X111846522Y-67674000D01*
X111846529Y-67674000D01*
X112070785Y-67644476D01*
X112289268Y-67585933D01*
X112498240Y-67499374D01*
X112694127Y-67386279D01*
X112873576Y-67248583D01*
X113033517Y-67088642D01*
X113171213Y-66909193D01*
X113284308Y-66713306D01*
X113370867Y-66504334D01*
X113429410Y-66285851D01*
X113458934Y-66061595D01*
X113458934Y-65835405D01*
X113429410Y-65611149D01*
X113370867Y-65392666D01*
X113293172Y-65205093D01*
X113284313Y-65183705D01*
X113284306Y-65183690D01*
X113171213Y-64987807D01*
X113033518Y-64808359D01*
X113033512Y-64808352D01*
X112873581Y-64648421D01*
X112873574Y-64648415D01*
X112694126Y-64510720D01*
X112498243Y-64397627D01*
X112498228Y-64397620D01*
X112289268Y-64311067D01*
X112114961Y-64264361D01*
X112070785Y-64252524D01*
X112070784Y-64252523D01*
X112070781Y-64252523D01*
X111846538Y-64223001D01*
X111846535Y-64223000D01*
X111846529Y-64223000D01*
X111620339Y-64223000D01*
X111620333Y-64223000D01*
X111620329Y-64223001D01*
X111396086Y-64252523D01*
X111177599Y-64311067D01*
X110968639Y-64397620D01*
X110968624Y-64397627D01*
X110772741Y-64510720D01*
X110593293Y-64648415D01*
X110593286Y-64648421D01*
X110433355Y-64808352D01*
X110433349Y-64808359D01*
X110295654Y-64987807D01*
X110182561Y-65183690D01*
X110182554Y-65183705D01*
X110096001Y-65392665D01*
X110037457Y-65611152D01*
X110007935Y-65835395D01*
X110007934Y-65835411D01*
X99384373Y-65835411D01*
X99317263Y-65738991D01*
X99297468Y-65710550D01*
X99290824Y-65699891D01*
X99161439Y-65466785D01*
X99115056Y-65383219D01*
X99109525Y-65371943D01*
X99102940Y-65356599D01*
X98978903Y-65067557D01*
X98966698Y-65039116D01*
X98962336Y-65027337D01*
X98855340Y-64686315D01*
X98853916Y-64681778D01*
X98850768Y-64669620D01*
X98848481Y-64658490D01*
X98777857Y-64314838D01*
X98775960Y-64302450D01*
X98739318Y-63942117D01*
X98738682Y-63929572D01*
X98738682Y-63567399D01*
X98739112Y-63558908D01*
X100161361Y-63558908D01*
X100161361Y-63794917D01*
X100161362Y-63794933D01*
X100192167Y-64028923D01*
X100253255Y-64256906D01*
X100343575Y-64474958D01*
X100343580Y-64474969D01*
X100414538Y-64597870D01*
X100461588Y-64679363D01*
X100461590Y-64679366D01*
X100461591Y-64679367D01*
X100605267Y-64866610D01*
X100605273Y-64866617D01*
X100772156Y-65033500D01*
X100772163Y-65033506D01*
X100814488Y-65065983D01*
X100959411Y-65177186D01*
X101052594Y-65230985D01*
X101163804Y-65295193D01*
X101163809Y-65295195D01*
X101163812Y-65295197D01*
X101381868Y-65385519D01*
X101609847Y-65446606D01*
X101843850Y-65477413D01*
X101843857Y-65477413D01*
X102079865Y-65477413D01*
X102079872Y-65477413D01*
X102313875Y-65446606D01*
X102541854Y-65385519D01*
X102759910Y-65295197D01*
X102964311Y-65177186D01*
X103151560Y-65033505D01*
X103318453Y-64866612D01*
X103462134Y-64679363D01*
X103580145Y-64474962D01*
X103670467Y-64256906D01*
X103731554Y-64028927D01*
X103762361Y-63794924D01*
X103762361Y-63558902D01*
X103731554Y-63324899D01*
X103670467Y-63096920D01*
X103580145Y-62878864D01*
X103580143Y-62878861D01*
X103580141Y-62878856D01*
X103513154Y-62762832D01*
X103462134Y-62674463D01*
X103322055Y-62491908D01*
X103318454Y-62487215D01*
X103318448Y-62487208D01*
X103151565Y-62320325D01*
X103151558Y-62320319D01*
X102964315Y-62176643D01*
X102964314Y-62176642D01*
X102964311Y-62176640D01*
X102882818Y-62129590D01*
X102759917Y-62058632D01*
X102759906Y-62058627D01*
X102541854Y-61968307D01*
X102313871Y-61907219D01*
X102079881Y-61876414D01*
X102079878Y-61876413D01*
X102079872Y-61876413D01*
X101843850Y-61876413D01*
X101843844Y-61876413D01*
X101843840Y-61876414D01*
X101609850Y-61907219D01*
X101381867Y-61968307D01*
X101163815Y-62058627D01*
X101163804Y-62058632D01*
X100959406Y-62176643D01*
X100772163Y-62320319D01*
X100772156Y-62320325D01*
X100605273Y-62487208D01*
X100605267Y-62487215D01*
X100461591Y-62674458D01*
X100343580Y-62878856D01*
X100343575Y-62878867D01*
X100253255Y-63096919D01*
X100192167Y-63324902D01*
X100161362Y-63558892D01*
X100161361Y-63558908D01*
X98739112Y-63558908D01*
X98739318Y-63554852D01*
X98740595Y-63542296D01*
X98740595Y-63542295D01*
X98756018Y-63390627D01*
X98775960Y-63194518D01*
X98777857Y-63182136D01*
X98850769Y-62827345D01*
X98853917Y-62815191D01*
X98861422Y-62791273D01*
X98962337Y-62469629D01*
X98966698Y-62457855D01*
X99025717Y-62320325D01*
X99109529Y-62125018D01*
X99115052Y-62113760D01*
X99290828Y-61797073D01*
X99297463Y-61786428D01*
X99446334Y-61572538D01*
X110132934Y-61572538D01*
X110132934Y-61824462D01*
X110146042Y-61907219D01*
X110172344Y-62073285D01*
X110250194Y-62312883D01*
X110364566Y-62537348D01*
X110512635Y-62741149D01*
X110512639Y-62741154D01*
X110690779Y-62919294D01*
X110690784Y-62919298D01*
X110794575Y-62994706D01*
X110894589Y-63067370D01*
X111037618Y-63140247D01*
X111119050Y-63181739D01*
X111119052Y-63181739D01*
X111119055Y-63181741D01*
X111358649Y-63259590D01*
X111607472Y-63299000D01*
X111607473Y-63299000D01*
X111859395Y-63299000D01*
X111859396Y-63299000D01*
X112108219Y-63259590D01*
X112347813Y-63181741D01*
X112572279Y-63067370D01*
X112776090Y-62919293D01*
X112954227Y-62741156D01*
X113102304Y-62537345D01*
X113216675Y-62312879D01*
X113294524Y-62073285D01*
X113333934Y-61824462D01*
X113333934Y-61572538D01*
X113294524Y-61323715D01*
X113216675Y-61084121D01*
X113216673Y-61084118D01*
X113216673Y-61084116D01*
X113146193Y-60945792D01*
X113102304Y-60859655D01*
X113018541Y-60744365D01*
X112954232Y-60655850D01*
X112954228Y-60655845D01*
X112776088Y-60477705D01*
X112776083Y-60477701D01*
X112572282Y-60329632D01*
X112572281Y-60329631D01*
X112572279Y-60329630D01*
X112502181Y-60293913D01*
X112347817Y-60215260D01*
X112108219Y-60137410D01*
X112038004Y-60126289D01*
X111859396Y-60098000D01*
X111607472Y-60098000D01*
X111483060Y-60117705D01*
X111358648Y-60137410D01*
X111119050Y-60215260D01*
X110894585Y-60329632D01*
X110690784Y-60477701D01*
X110690779Y-60477705D01*
X110512639Y-60655845D01*
X110512635Y-60655850D01*
X110364566Y-60859651D01*
X110250194Y-61084116D01*
X110172344Y-61323714D01*
X110141635Y-61517600D01*
X110132934Y-61572538D01*
X99446334Y-61572538D01*
X99504378Y-61489144D01*
X99512043Y-61479241D01*
X99747978Y-61204410D01*
X99756607Y-61195332D01*
X100019131Y-60945785D01*
X100028647Y-60937616D01*
X100315065Y-60715912D01*
X100325351Y-60708753D01*
X100632723Y-60517167D01*
X100643697Y-60511075D01*
X100968881Y-60351565D01*
X100980407Y-60346619D01*
X101320046Y-60220830D01*
X101332011Y-60217075D01*
X101682665Y-60126285D01*
X101694932Y-60123764D01*
X102052956Y-60068917D01*
X102065427Y-60067649D01*
X102397407Y-60050813D01*
X102430300Y-60049145D01*
X102436580Y-60048986D01*
X102632255Y-60048986D01*
X102632258Y-60048986D01*
X102880143Y-60026016D01*
X103028201Y-60012297D01*
X103028202Y-60012297D01*
X103028204Y-60012296D01*
X103028210Y-60012296D01*
X103419088Y-59939228D01*
X103801556Y-59830407D01*
X104172352Y-59686759D01*
X104528312Y-59509512D01*
X104866399Y-59300178D01*
X105183729Y-59060541D01*
X105477595Y-58792647D01*
X105745489Y-58498781D01*
X105985126Y-58181451D01*
X106194460Y-57843364D01*
X106371707Y-57487404D01*
X106515355Y-57116608D01*
X106624176Y-56734140D01*
X106697244Y-56343262D01*
X106733934Y-55947310D01*
X106733934Y-55750528D01*
X106733940Y-55749342D01*
X106736169Y-55516324D01*
X106758326Y-53200037D01*
X106778651Y-53133192D01*
X106831890Y-53087944D01*
X106882261Y-53077226D01*
X170337308Y-53049186D01*
X170404354Y-53068841D01*
G37*
%TD.AperFunction*%
%TD*%
%TA.AperFunction,Conductor*%
%TO.N,/RS_A*%
G36*
X131919926Y-95573722D02*
G01*
X131920367Y-95574187D01*
X132083133Y-95755830D01*
X132084138Y-95757124D01*
X132192546Y-95918884D01*
X132193429Y-95920449D01*
X132261931Y-96067189D01*
X132262378Y-96068291D01*
X132313037Y-96213882D01*
X132321476Y-96238948D01*
X132348422Y-96318988D01*
X132348434Y-96319018D01*
X132442116Y-96541804D01*
X132442122Y-96541818D01*
X132506187Y-96660403D01*
X132583488Y-96783874D01*
X132584973Y-96792705D01*
X132580084Y-96799803D01*
X131958179Y-97216501D01*
X131949398Y-97218259D01*
X131949375Y-97218255D01*
X131215453Y-97071715D01*
X131208011Y-97066734D01*
X131206270Y-97057950D01*
X131206462Y-97057141D01*
X131238252Y-96941467D01*
X131238747Y-96940036D01*
X131285767Y-96828578D01*
X131286404Y-96827298D01*
X131395576Y-96638164D01*
X131462144Y-96527480D01*
X131507716Y-96417863D01*
X131514672Y-96322646D01*
X131503361Y-96272925D01*
X131480401Y-96221021D01*
X131439902Y-96160347D01*
X131439901Y-96160345D01*
X131389160Y-96103560D01*
X131386202Y-96095107D01*
X131389610Y-96087492D01*
X131903381Y-95573721D01*
X131911653Y-95570295D01*
X131919926Y-95573722D01*
G37*
%TD.AperFunction*%
%TD*%
%TA.AperFunction,Conductor*%
%TO.N,/RS_B*%
G36*
X134727491Y-95462781D02*
G01*
X134727733Y-95463031D01*
X134831029Y-95573351D01*
X134856490Y-95600543D01*
X134857123Y-95601279D01*
X134960982Y-95732504D01*
X134961709Y-95733531D01*
X135037582Y-95854041D01*
X135038293Y-95855349D01*
X135091104Y-95969307D01*
X135091662Y-95970758D01*
X135126345Y-96082506D01*
X135126670Y-96083817D01*
X135148014Y-96197605D01*
X135148172Y-96198755D01*
X135169904Y-96450409D01*
X135169911Y-96450505D01*
X135191135Y-96722236D01*
X135191135Y-96722244D01*
X135242062Y-97058219D01*
X135239914Y-97066912D01*
X135232789Y-97071445D01*
X134496434Y-97218748D01*
X134491848Y-97218749D01*
X133755360Y-97071697D01*
X133747918Y-97066716D01*
X133746177Y-97057932D01*
X133746332Y-97057266D01*
X133766706Y-96980907D01*
X133767156Y-96979566D01*
X133799639Y-96899699D01*
X133800486Y-96898024D01*
X133886993Y-96756732D01*
X133888097Y-96755218D01*
X133991770Y-96634890D01*
X133992445Y-96634172D01*
X134100298Y-96528566D01*
X134247389Y-96375851D01*
X134300011Y-96286110D01*
X134313008Y-96201673D01*
X134310142Y-96186243D01*
X134304412Y-96155391D01*
X134304411Y-96155389D01*
X134304410Y-96155383D01*
X134283954Y-96106455D01*
X134268251Y-96082506D01*
X134245524Y-96047843D01*
X134245516Y-96047833D01*
X134214584Y-96013102D01*
X134196508Y-95992805D01*
X134193566Y-95984350D01*
X134196972Y-95976754D01*
X134710946Y-95462780D01*
X134719218Y-95459354D01*
X134727491Y-95462781D01*
G37*
%TD.AperFunction*%
%TD*%
%TA.AperFunction,Conductor*%
%TO.N,/RS_ENABLE*%
G36*
X134341299Y-55252375D02*
G01*
X134346484Y-55259676D01*
X134346550Y-55259987D01*
X134493974Y-55996203D01*
X134493974Y-56000797D01*
X134346570Y-56736915D01*
X134341586Y-56744355D01*
X134332801Y-56746090D01*
X134332396Y-56746002D01*
X134143958Y-56701283D01*
X134143063Y-56701032D01*
X133983171Y-56649371D01*
X133982110Y-56648971D01*
X133736228Y-56542270D01*
X133735884Y-56542114D01*
X133712699Y-56531150D01*
X133681543Y-56516417D01*
X133681539Y-56516415D01*
X133681534Y-56516413D01*
X133490790Y-56439470D01*
X133490770Y-56439463D01*
X133406273Y-56416425D01*
X133392252Y-56412603D01*
X133392250Y-56412602D01*
X133392244Y-56412601D01*
X133278549Y-56391916D01*
X133187146Y-56382840D01*
X133141446Y-56378302D01*
X133136678Y-56378161D01*
X132989489Y-56373833D01*
X132981320Y-56370164D01*
X132978133Y-56362138D01*
X132978133Y-55634613D01*
X132981560Y-55626340D01*
X132989229Y-55622929D01*
X133239664Y-55610045D01*
X133436099Y-55573563D01*
X133593032Y-55519875D01*
X133736056Y-55454804D01*
X133816907Y-55416805D01*
X133817528Y-55416537D01*
X134050375Y-55324207D01*
X134051340Y-55323875D01*
X134184499Y-55284728D01*
X134185155Y-55284556D01*
X134332470Y-55250878D01*
X134341299Y-55252375D01*
G37*
%TD.AperFunction*%
%TD*%
%TA.AperFunction,Conductor*%
%TO.N,/RS_ENABLE*%
G36*
X132114439Y-55250990D02*
G01*
X132302918Y-55295718D01*
X132303794Y-55295964D01*
X132463706Y-55347632D01*
X132464748Y-55348024D01*
X132710657Y-55454737D01*
X132710965Y-55454877D01*
X132765325Y-55480583D01*
X132814861Y-55500565D01*
X132956077Y-55557529D01*
X132956097Y-55557536D01*
X132984284Y-55565220D01*
X133054616Y-55584397D01*
X133168321Y-55605084D01*
X133305422Y-55618698D01*
X133457379Y-55623166D01*
X133465548Y-55626835D01*
X133468735Y-55634861D01*
X133468735Y-56362386D01*
X133465308Y-56370659D01*
X133457636Y-56374071D01*
X133207204Y-56386955D01*
X133207196Y-56386956D01*
X133010772Y-56423436D01*
X133010765Y-56423437D01*
X132853835Y-56477124D01*
X132710781Y-56542208D01*
X132629980Y-56580183D01*
X132629317Y-56580470D01*
X132396516Y-56672782D01*
X132395503Y-56673131D01*
X132262386Y-56712266D01*
X132261694Y-56712447D01*
X132114397Y-56746121D01*
X132105568Y-56744624D01*
X132100383Y-56737323D01*
X132100317Y-56737012D01*
X132095398Y-56712447D01*
X131952893Y-56000792D01*
X131952893Y-55996207D01*
X132100298Y-55260081D01*
X132105281Y-55252644D01*
X132114066Y-55250909D01*
X132114439Y-55250990D01*
G37*
%TD.AperFunction*%
%TD*%
%TA.AperFunction,Conductor*%
%TO.N,/CAN_RX*%
G36*
X118243580Y-89824090D02*
G01*
X118758016Y-90338526D01*
X118761443Y-90346799D01*
X118758428Y-90354638D01*
X118591031Y-90540100D01*
X118591018Y-90540116D01*
X118478191Y-90704112D01*
X118405254Y-90852365D01*
X118405252Y-90852369D01*
X118350066Y-90998899D01*
X118320784Y-91079730D01*
X118320522Y-91080390D01*
X118221073Y-91310293D01*
X118220605Y-91311253D01*
X118154158Y-91433013D01*
X118153797Y-91433630D01*
X118073406Y-91561663D01*
X118066104Y-91566847D01*
X118057275Y-91565350D01*
X118057009Y-91565178D01*
X117697025Y-91325314D01*
X117434674Y-91150504D01*
X117431429Y-91147259D01*
X117016807Y-90525003D01*
X117015073Y-90516219D01*
X117020057Y-90508779D01*
X117020369Y-90508579D01*
X117184362Y-90407434D01*
X117185131Y-90407000D01*
X117333987Y-90330687D01*
X117334969Y-90330242D01*
X117582912Y-90231915D01*
X117583185Y-90231811D01*
X117637057Y-90212436D01*
X117826583Y-90131787D01*
X117915147Y-90081181D01*
X118010086Y-90015480D01*
X118116624Y-89928190D01*
X118227283Y-89823848D01*
X118235651Y-89820668D01*
X118243580Y-89824090D01*
G37*
%TD.AperFunction*%
%TD*%
%TA.AperFunction,Conductor*%
%TO.N,Net-(CanBus_Module1-CANL)*%
G36*
X122438158Y-91150485D02*
G01*
X122438178Y-91150498D01*
X123057654Y-91565573D01*
X123062619Y-91573025D01*
X123061100Y-91581434D01*
X122960066Y-91745284D01*
X122883914Y-91893939D01*
X122786167Y-92140842D01*
X122767730Y-92192236D01*
X122767490Y-92192850D01*
X122687807Y-92380908D01*
X122687200Y-92382134D01*
X122637591Y-92469226D01*
X122637052Y-92470084D01*
X122572363Y-92563748D01*
X122571790Y-92564509D01*
X122485597Y-92669819D01*
X122485057Y-92670434D01*
X122382049Y-92779710D01*
X122373880Y-92783380D01*
X122365510Y-92780199D01*
X122365262Y-92779958D01*
X121851184Y-92265880D01*
X121847757Y-92257607D01*
X121850642Y-92249914D01*
X121911306Y-92180408D01*
X121954357Y-92108699D01*
X121975716Y-92041434D01*
X121978489Y-91977024D01*
X121965787Y-91913878D01*
X121957913Y-91893945D01*
X121940717Y-91850410D01*
X121940716Y-91850407D01*
X121865902Y-91716131D01*
X121843746Y-91678521D01*
X121824578Y-91645982D01*
X121824174Y-91645236D01*
X121738895Y-91473002D01*
X121738172Y-91471166D01*
X121689762Y-91309472D01*
X121690672Y-91300563D01*
X121697614Y-91294908D01*
X121698667Y-91294644D01*
X122429376Y-91148744D01*
X122438158Y-91150485D01*
G37*
%TD.AperFunction*%
%TD*%
%TA.AperFunction,Conductor*%
%TO.N,Net-(CanBus_Module1-CANH)*%
G36*
X119309592Y-90731649D02*
G01*
X119309858Y-90731821D01*
X119932193Y-91146495D01*
X119935440Y-91149742D01*
X120350059Y-91771995D01*
X120351794Y-91780780D01*
X120346810Y-91788220D01*
X120346464Y-91788441D01*
X120182523Y-91889554D01*
X120181719Y-91890008D01*
X120032901Y-91966302D01*
X120031876Y-91966766D01*
X119783999Y-92065066D01*
X119783646Y-92065199D01*
X119729830Y-92084556D01*
X119729807Y-92084565D01*
X119540289Y-92165210D01*
X119451715Y-92215822D01*
X119356783Y-92281518D01*
X119356778Y-92281522D01*
X119250259Y-92368796D01*
X119250245Y-92368809D01*
X119250244Y-92368810D01*
X119139587Y-92473149D01*
X119131216Y-92476331D01*
X119123287Y-92472909D01*
X118608851Y-91958473D01*
X118605424Y-91950200D01*
X118608439Y-91942361D01*
X118775842Y-91756893D01*
X118888675Y-91592890D01*
X118961616Y-91444626D01*
X119016791Y-91298126D01*
X119046094Y-91217239D01*
X119046333Y-91216636D01*
X119145800Y-90986692D01*
X119146254Y-90985760D01*
X119212721Y-90863964D01*
X119213058Y-90863388D01*
X119293461Y-90735335D01*
X119300763Y-90730152D01*
X119309592Y-90731649D01*
G37*
%TD.AperFunction*%
%TD*%
%TA.AperFunction,Conductor*%
%TO.N,/RS_TX*%
G36*
X130055645Y-55583459D02*
G01*
X130055868Y-55583808D01*
X130157487Y-55748665D01*
X130157943Y-55749475D01*
X130234480Y-55899077D01*
X130234947Y-55900110D01*
X130333362Y-56149422D01*
X130333495Y-56149776D01*
X130353745Y-56206359D01*
X130353760Y-56206397D01*
X130434227Y-56395671D01*
X130434227Y-56395673D01*
X130484897Y-56484331D01*
X130484903Y-56484340D01*
X130550670Y-56579360D01*
X130550677Y-56579370D01*
X130637982Y-56685925D01*
X130637987Y-56685930D01*
X130637994Y-56685939D01*
X130720900Y-56773868D01*
X130742284Y-56796548D01*
X130745466Y-56804918D01*
X130742044Y-56812847D01*
X130227606Y-57327285D01*
X130219333Y-57330712D01*
X130211496Y-57327699D01*
X130025305Y-57159728D01*
X130025300Y-57159725D01*
X129860607Y-57046624D01*
X129860605Y-57046623D01*
X129711673Y-56973617D01*
X129711665Y-56973614D01*
X129711659Y-56973611D01*
X129564555Y-56918505D01*
X129480517Y-56888204D01*
X129479845Y-56887938D01*
X129249955Y-56788597D01*
X129248992Y-56788128D01*
X129127177Y-56721666D01*
X129126560Y-56721304D01*
X128998605Y-56640966D01*
X128993420Y-56633664D01*
X128994917Y-56624836D01*
X128995071Y-56624595D01*
X129411430Y-55999738D01*
X129414672Y-55996496D01*
X130039421Y-55580209D01*
X130048205Y-55578475D01*
X130055645Y-55583459D01*
G37*
%TD.AperFunction*%
%TD*%
%TA.AperFunction,Conductor*%
%TO.N,/RS_RX*%
G36*
X137194439Y-55250990D02*
G01*
X137382918Y-55295718D01*
X137383794Y-55295964D01*
X137543706Y-55347632D01*
X137544748Y-55348024D01*
X137790657Y-55454737D01*
X137790965Y-55454877D01*
X137845325Y-55480583D01*
X137894861Y-55500565D01*
X138036077Y-55557529D01*
X138036097Y-55557536D01*
X138064284Y-55565220D01*
X138134616Y-55584397D01*
X138248321Y-55605084D01*
X138385422Y-55618698D01*
X138537379Y-55623166D01*
X138545548Y-55626835D01*
X138548735Y-55634861D01*
X138548735Y-56362386D01*
X138545308Y-56370659D01*
X138537636Y-56374071D01*
X138287204Y-56386955D01*
X138287196Y-56386956D01*
X138090772Y-56423436D01*
X138090765Y-56423437D01*
X137933835Y-56477124D01*
X137790781Y-56542208D01*
X137709980Y-56580183D01*
X137709317Y-56580470D01*
X137476516Y-56672782D01*
X137475503Y-56673131D01*
X137342386Y-56712266D01*
X137341694Y-56712447D01*
X137194397Y-56746121D01*
X137185568Y-56744624D01*
X137180383Y-56737323D01*
X137180317Y-56737012D01*
X137175398Y-56712447D01*
X137032893Y-56000792D01*
X137032893Y-55996207D01*
X137180298Y-55260081D01*
X137185281Y-55252644D01*
X137194066Y-55250909D01*
X137194439Y-55250990D01*
G37*
%TD.AperFunction*%
%TD*%
M02*
