%TF.GenerationSoftware,KiCad,Pcbnew,9.0.8-9.0.8~ubuntu24.04.1*%
%TF.CreationDate,2026-04-17T13:23:04+01:00*%
%TF.ProjectId,CORTEX_ALPHA,434f5254-4558-45f4-914c-5048412e6b69,rev?*%
%TF.SameCoordinates,Original*%
%TF.FileFunction,Profile,NP*%
%FSLAX46Y46*%
G04 Gerber Fmt 4.6, Leading zero omitted, Abs format (unit mm)*
G04 Created by KiCad (PCBNEW 9.0.8-9.0.8~ubuntu24.04.1) date 2026-04-17 13:23:04*
%MOMM*%
%LPD*%
G01*
G04 APERTURE LIST*
%TA.AperFunction,Profile*%
%ADD10C,0.050000*%
%TD*%
G04 APERTURE END LIST*
D10*
X102433434Y-67748486D02*
G75*
G02*
X102433434Y-59748494I-4J3999996D01*
G01*
X102433434Y-67748486D02*
G75*
G02*
X106433414Y-71748486I-34J-4000014D01*
G01*
X102433434Y-128748500D02*
G75*
G02*
X102433434Y-120748500I-4J4000000D01*
G01*
X102433434Y-128748500D02*
G75*
G02*
X106433400Y-132748500I-34J-4000000D01*
G01*
X106433430Y-71748486D02*
X106433437Y-116748513D01*
X106433434Y-55748486D02*
G75*
G02*
X102433434Y-59748534I-4000034J-14D01*
G01*
X106433434Y-116748500D02*
G75*
G02*
X102433434Y-120748534I-4000034J0D01*
G01*
X106433434Y-132748500D02*
X106433434Y-135776927D01*
X106461861Y-52776913D02*
X106433434Y-55748513D01*
X106461861Y-52776913D02*
X170761861Y-52748500D01*
X170733434Y-135748500D02*
X106433434Y-135776927D01*
X170733434Y-135748500D02*
X170761862Y-132776927D01*
X170761861Y-71776927D02*
G75*
G02*
X174761861Y-67776861I4000039J27D01*
G01*
X170761861Y-132776927D02*
G75*
G02*
X174761861Y-128776861I4000039J27D01*
G01*
X170761868Y-55776927D02*
X170761861Y-52748500D01*
X170761868Y-116776927D02*
X170761861Y-71776900D01*
X174761861Y-59776927D02*
G75*
G02*
X170761873Y-55776927I39J4000027D01*
G01*
X174761861Y-59776927D02*
G75*
G02*
X174761861Y-67776933I-1J-4000003D01*
G01*
X174761861Y-120776927D02*
G75*
G02*
X170761873Y-116776927I39J4000027D01*
G01*
X174761861Y-120776927D02*
G75*
G02*
X174761861Y-128776933I-1J-4000003D01*
G01*
M02*
