%TF.GenerationSoftware,KiCad,Pcbnew,9.0.7-9.0.7~ubuntu24.04.1*%
%TF.CreationDate,2026-03-04T01:18:21+00:00*%
%TF.ProjectId,CORTEX_ALPHA,434f5254-4558-45f4-914c-5048412e6b69,rev?*%
%TF.SameCoordinates,Original*%
%TF.FileFunction,Soldermask,Top*%
%TF.FilePolarity,Negative*%
%FSLAX46Y46*%
G04 Gerber Fmt 4.6, Leading zero omitted, Abs format (unit mm)*
G04 Created by KiCad (PCBNEW 9.0.7-9.0.7~ubuntu24.04.1) date 2026-03-04 01:18:21*
%MOMM*%
%LPD*%
G01*
G04 APERTURE LIST*
G04 Aperture macros list*
%AMRoundRect*
0 Rectangle with rounded corners*
0 $1 Rounding radius*
0 $2 $3 $4 $5 $6 $7 $8 $9 X,Y pos of 4 corners*
0 Add a 4 corners polygon primitive as box body*
4,1,4,$2,$3,$4,$5,$6,$7,$8,$9,$2,$3,0*
0 Add four circle primitives for the rounded corners*
1,1,$1+$1,$2,$3*
1,1,$1+$1,$4,$5*
1,1,$1+$1,$6,$7*
1,1,$1+$1,$8,$9*
0 Add four rect primitives between the rounded corners*
20,1,$1+$1,$2,$3,$4,$5,0*
20,1,$1+$1,$4,$5,$6,$7,0*
20,1,$1+$1,$6,$7,$8,$9,0*
20,1,$1+$1,$8,$9,$2,$3,0*%
G04 Aperture macros list end*
%ADD10R,1.700000X1.700000*%
%ADD11C,1.700000*%
%ADD12RoundRect,0.250000X-0.750000X0.750000X-0.750000X-0.750000X0.750000X-0.750000X0.750000X0.750000X0*%
%ADD13C,2.000000*%
%ADD14RoundRect,0.237500X-0.237500X0.250000X-0.237500X-0.250000X0.237500X-0.250000X0.237500X0.250000X0*%
%ADD15RoundRect,0.237500X-0.237500X0.300000X-0.237500X-0.300000X0.237500X-0.300000X0.237500X0.300000X0*%
%ADD16C,1.524000*%
%ADD17C,2.540000*%
%ADD18RoundRect,0.102000X-0.765000X-0.765000X0.765000X-0.765000X0.765000X0.765000X-0.765000X0.765000X0*%
%ADD19C,1.734000*%
%ADD20C,1.651000*%
%ADD21C,2.286000*%
%ADD22RoundRect,0.237500X0.237500X-0.300000X0.237500X0.300000X-0.237500X0.300000X-0.237500X-0.300000X0*%
%ADD23C,1.500000*%
%ADD24R,1.500000X1.500000*%
G04 APERTURE END LIST*
D10*
%TO.C,U1*%
X152255000Y-61345000D03*
D11*
X152255000Y-63885000D03*
X152255000Y-66425000D03*
X152255000Y-68965000D03*
X152255000Y-71505000D03*
X152255000Y-74045000D03*
X152255000Y-76585000D03*
X152255000Y-79125000D03*
X152255000Y-81665000D03*
X152255000Y-84205000D03*
X152255000Y-86745000D03*
X152255000Y-89285000D03*
X152255000Y-91825000D03*
X152255000Y-94365000D03*
X152255000Y-96905000D03*
X152255000Y-99445000D03*
X152255000Y-101985000D03*
X152255000Y-104525000D03*
X152255000Y-107065000D03*
X152255000Y-109605000D03*
X167495000Y-109605000D03*
X167495000Y-107065000D03*
X167495000Y-104525000D03*
X167495000Y-101985000D03*
X167495000Y-99445000D03*
X167495000Y-96905000D03*
X167495000Y-94365000D03*
X167495000Y-91825000D03*
X167495000Y-89285000D03*
X167495000Y-86745000D03*
X167495000Y-84205000D03*
X167495000Y-81665000D03*
X167495000Y-79125000D03*
X167495000Y-76585000D03*
X167495000Y-74045000D03*
X167495000Y-71505000D03*
X167495000Y-68965000D03*
X167495000Y-66425000D03*
X167495000Y-63885000D03*
X167495000Y-61345000D03*
%TD*%
D12*
%TO.C,J2*%
X104437500Y-75285000D03*
D13*
X104437500Y-77825000D03*
%TD*%
D14*
%TO.C,R2*%
X174100000Y-125487500D03*
X174100000Y-127312500D03*
%TD*%
D15*
%TO.C,C4*%
X119100000Y-120468750D03*
X119100000Y-122193750D03*
%TD*%
D16*
%TO.C,CanBus_Module1*%
X143355000Y-75685000D03*
X143355000Y-78185000D03*
X143355000Y-80685000D03*
X143355000Y-83185000D03*
X143355000Y-85685000D03*
X143355000Y-88185000D03*
%TD*%
D17*
%TO.C,U4*%
X174135000Y-77100000D03*
X174135000Y-80910000D03*
X174135000Y-84720000D03*
X174135000Y-88530000D03*
X174135000Y-92340000D03*
X174135000Y-96150000D03*
%TD*%
D15*
%TO.C,C3*%
X122100000Y-120468750D03*
X122100000Y-122193750D03*
%TD*%
D10*
%TO.C,U2*%
X148200000Y-117880000D03*
D11*
X148200000Y-120420000D03*
X148200000Y-122960000D03*
X148200000Y-125500000D03*
X148200000Y-128040000D03*
X148200000Y-130580000D03*
X148200000Y-133120000D03*
X148200000Y-135660000D03*
X171000000Y-135660000D03*
X171000000Y-133120000D03*
X171000000Y-130580000D03*
X171000000Y-128040000D03*
X171000000Y-125500000D03*
X171000000Y-122960000D03*
X171000000Y-120420000D03*
D10*
X171000000Y-117880000D03*
%TD*%
D14*
%TO.C,R1*%
X145930000Y-65122500D03*
X145930000Y-66947500D03*
%TD*%
D18*
%TO.C,U3*%
X102280000Y-62100000D03*
D19*
X102280000Y-64640000D03*
X102280000Y-67180000D03*
X102280000Y-69720000D03*
X143500000Y-69720000D03*
X143500000Y-67180000D03*
X143500000Y-64640000D03*
X143500000Y-62100000D03*
%TD*%
D20*
%TO.C,J3*%
X134484900Y-115448606D03*
X136984900Y-112948606D03*
X134484900Y-110448606D03*
X131984900Y-112948606D03*
D21*
X128134900Y-110448484D03*
X128134900Y-115448606D03*
X140834900Y-115448606D03*
X140834900Y-110448484D03*
%TD*%
D22*
%TO.C,C2*%
X117330000Y-89998500D03*
X117330000Y-88273500D03*
%TD*%
D23*
%TO.C,U5*%
X118455000Y-116986000D03*
D24*
X120555000Y-116986000D03*
D23*
X105380000Y-116961000D03*
D24*
X107480000Y-116961000D03*
D23*
X118430000Y-93436000D03*
D24*
X120530000Y-93436000D03*
D23*
X105355000Y-93411000D03*
D24*
X107455000Y-93411000D03*
%TD*%
D22*
%TO.C,C1*%
X120605000Y-89998500D03*
X120605000Y-88273500D03*
%TD*%
M02*
