%TF.GenerationSoftware,KiCad,Pcbnew,9.0.8-9.0.8~ubuntu24.04.1*%
%TF.CreationDate,2026-04-17T13:23:04+01:00*%
%TF.ProjectId,CORTEX_ALPHA,434f5254-4558-45f4-914c-5048412e6b69,rev?*%
%TF.SameCoordinates,Original*%
%TF.FileFunction,Legend,Bot*%
%TF.FilePolarity,Positive*%
%FSLAX46Y46*%
G04 Gerber Fmt 4.6, Leading zero omitted, Abs format (unit mm)*
G04 Created by KiCad (PCBNEW 9.0.8-9.0.8~ubuntu24.04.1) date 2026-04-17 13:23:04*
%MOMM*%
%LPD*%
G01*
G04 APERTURE LIST*
%ADD10C,0.300000*%
%ADD11C,0.150000*%
%ADD12C,0.120000*%
%ADD13C,0.000000*%
G04 APERTURE END LIST*
D10*
G36*
X164508943Y-68476832D02*
G01*
X164500258Y-68433744D01*
X164473406Y-68394949D01*
X164231972Y-68172566D01*
X164091322Y-68305228D01*
X163974943Y-68456046D01*
X163881544Y-68626858D01*
X163816144Y-68810533D01*
X163774623Y-69024568D01*
X163759911Y-69274224D01*
X163773377Y-69497061D01*
X163812322Y-69698634D01*
X163875316Y-69881839D01*
X163963114Y-70054286D01*
X164069901Y-70207249D01*
X164196251Y-70342542D01*
X164340543Y-70458716D01*
X164503540Y-70556247D01*
X164687362Y-70635267D01*
X164880073Y-70690984D01*
X165087204Y-70725204D01*
X165310731Y-70736933D01*
X165536680Y-70724305D01*
X165744685Y-70687543D01*
X165937031Y-70627756D01*
X166119978Y-70543967D01*
X166282658Y-70441596D01*
X166427043Y-70320377D01*
X166553438Y-70180386D01*
X166659923Y-70023251D01*
X166747062Y-69847217D01*
X166809786Y-69660764D01*
X166848313Y-69458683D01*
X166861551Y-69238503D01*
X166848677Y-69019586D01*
X166811704Y-68824471D01*
X166752375Y-68649939D01*
X166670577Y-68484344D01*
X166575439Y-68339118D01*
X166466977Y-68212317D01*
X166204660Y-68401177D01*
X166160513Y-68444225D01*
X166146813Y-68473732D01*
X166141645Y-68516582D01*
X166159414Y-68581795D01*
X166203561Y-68655251D01*
X166261263Y-68747575D01*
X166318966Y-68869208D01*
X166362929Y-69029859D01*
X166380881Y-69240701D01*
X166362335Y-69437897D01*
X166308524Y-69613110D01*
X166219865Y-69770234D01*
X166098597Y-69903821D01*
X165948707Y-70010302D01*
X165762825Y-70092681D01*
X165556240Y-70142132D01*
X165310731Y-70159726D01*
X165063393Y-70140768D01*
X164855157Y-70087369D01*
X164668647Y-70000433D01*
X164519384Y-69891181D01*
X164398982Y-69756223D01*
X164310740Y-69599555D01*
X164256711Y-69426492D01*
X164238383Y-69238503D01*
X164250839Y-69029859D01*
X164290773Y-68857667D01*
X164361115Y-68708740D01*
X164466994Y-68569155D01*
X164497402Y-68525009D01*
X164508943Y-68476832D01*
G37*
G36*
X165529685Y-64968233D02*
G01*
X165734615Y-65004981D01*
X165929990Y-65066049D01*
X166108123Y-65148779D01*
X166272191Y-65253498D01*
X166419716Y-65378489D01*
X166548658Y-65522375D01*
X166656753Y-65683854D01*
X166742702Y-65860621D01*
X166807879Y-66057362D01*
X166847825Y-66265268D01*
X166861551Y-66491870D01*
X166848073Y-66718879D01*
X166808856Y-66927170D01*
X166745047Y-67119269D01*
X166656239Y-67300860D01*
X166548308Y-67462154D01*
X166420815Y-67605068D01*
X166274887Y-67729094D01*
X166111430Y-67833562D01*
X165928604Y-67918859D01*
X165736238Y-67979979D01*
X165530959Y-68017305D01*
X165310731Y-68030050D01*
X165090381Y-68017302D01*
X164885043Y-67979974D01*
X164692675Y-67918859D01*
X164509960Y-67833578D01*
X164346498Y-67729113D01*
X164200464Y-67605068D01*
X164072971Y-67462154D01*
X163965040Y-67300860D01*
X163876232Y-67119269D01*
X163812525Y-66927179D01*
X163773369Y-66718886D01*
X163759911Y-66491870D01*
X164242596Y-66491870D01*
X164261638Y-66706641D01*
X164316052Y-66891573D01*
X164405916Y-67056405D01*
X164526895Y-67193824D01*
X164676999Y-67302763D01*
X164862484Y-67385799D01*
X165068754Y-67435327D01*
X165310731Y-67452844D01*
X165552524Y-67435327D01*
X165758611Y-67385799D01*
X165944443Y-67302807D01*
X166095483Y-67193824D01*
X166217341Y-67056324D01*
X166307425Y-66891573D01*
X166361839Y-66706641D01*
X166380881Y-66491870D01*
X166361835Y-66276939D01*
X166307425Y-66091983D01*
X166217290Y-65927437D01*
X166095483Y-65790832D01*
X165944507Y-65682610D01*
X165758611Y-65599956D01*
X165552515Y-65550291D01*
X165310731Y-65532728D01*
X165068763Y-65550291D01*
X164862484Y-65599956D01*
X164676934Y-65682654D01*
X164526895Y-65790832D01*
X164405967Y-65927356D01*
X164316052Y-66091983D01*
X164261642Y-66276939D01*
X164242596Y-66491870D01*
X163759911Y-66491870D01*
X163773403Y-66263255D01*
X163812591Y-66054263D01*
X163876232Y-65862273D01*
X163965101Y-65680618D01*
X164073039Y-65519712D01*
X164200464Y-65377573D01*
X164346482Y-65254186D01*
X164509939Y-65150451D01*
X164692675Y-65065980D01*
X164885003Y-65005378D01*
X165090347Y-64968352D01*
X165310731Y-64955705D01*
X165529685Y-64968233D01*
G37*
G36*
X164914142Y-62848927D02*
G01*
X165015808Y-62932824D01*
X165090363Y-63033575D01*
X165148308Y-62880925D01*
X165222437Y-62749276D01*
X165314165Y-62633396D01*
X165417709Y-62539349D01*
X165534798Y-62464534D01*
X165665189Y-62409290D01*
X165804736Y-62375670D01*
X165954983Y-62364227D01*
X166142164Y-62381467D01*
X166308524Y-62431455D01*
X166456893Y-62516509D01*
X166584397Y-62640099D01*
X166684406Y-62796317D01*
X166763915Y-63003166D01*
X166810611Y-63236100D01*
X166827846Y-63532929D01*
X166827846Y-64458548D01*
X163793434Y-64458548D01*
X163793434Y-63893981D01*
X164979171Y-63893981D01*
X164979171Y-63652547D01*
X164972534Y-63574367D01*
X164961361Y-63541355D01*
X165384187Y-63541355D01*
X165384187Y-63893981D01*
X166391506Y-63893981D01*
X166391506Y-63532929D01*
X166375251Y-63327523D01*
X166332113Y-63176950D01*
X166267675Y-63068196D01*
X166175470Y-62985060D01*
X166059704Y-62934129D01*
X165913034Y-62915972D01*
X165800797Y-62925705D01*
X165700909Y-62953890D01*
X165611107Y-63001301D01*
X165534213Y-63068196D01*
X165472766Y-63153022D01*
X165423938Y-63263468D01*
X165394758Y-63387853D01*
X165384187Y-63541355D01*
X164961361Y-63541355D01*
X164956091Y-63525785D01*
X164926569Y-63486039D01*
X164878421Y-63447017D01*
X163906823Y-62808993D01*
X163844224Y-62757263D01*
X163806783Y-62689177D01*
X163793434Y-62599250D01*
X163793434Y-62089271D01*
X164914142Y-62848927D01*
G37*
G36*
X166364212Y-59718711D02*
G01*
X166364212Y-60633705D01*
X163793434Y-60633705D01*
X163793434Y-61198273D01*
X166364212Y-61198273D01*
X166364212Y-62113084D01*
X166827846Y-62113084D01*
X166827846Y-59718711D01*
X166364212Y-59718711D01*
G37*
G36*
X166378866Y-58753890D02*
G01*
X165537327Y-58753890D01*
X165537327Y-57692167D01*
X165103003Y-57692167D01*
X165103003Y-58753890D01*
X164244611Y-58753890D01*
X164244611Y-57406769D01*
X163793434Y-57406769D01*
X163793434Y-59320656D01*
X166827846Y-59320656D01*
X166827846Y-57406769D01*
X166378866Y-57406769D01*
X166378866Y-58753890D01*
G37*
G36*
X163793434Y-54439768D02*
G01*
X163793434Y-55002137D01*
X163801262Y-55056458D01*
X163822743Y-55095560D01*
X163889970Y-55151064D01*
X165054643Y-55854117D01*
X164964334Y-55894051D01*
X163889970Y-56567612D01*
X163823842Y-56625497D01*
X163801362Y-56662014D01*
X163793434Y-56710310D01*
X163793434Y-57237142D01*
X165354695Y-56229824D01*
X166827846Y-57197209D01*
X166827846Y-56634839D01*
X166823189Y-56580537D01*
X166812092Y-56549843D01*
X166760801Y-56500567D01*
X165648519Y-55810153D01*
X165753482Y-55759778D01*
X166750176Y-55125968D01*
X166808978Y-55075593D01*
X166827846Y-55006350D01*
X166827846Y-54467062D01*
X165377776Y-55442873D01*
X163793434Y-54439768D01*
G37*
D11*
X166016767Y-80933319D02*
X166016767Y-81647604D01*
X166016767Y-81647604D02*
X166064386Y-81790461D01*
X166064386Y-81790461D02*
X166159624Y-81885700D01*
X166159624Y-81885700D02*
X166302481Y-81933319D01*
X166302481Y-81933319D02*
X166397719Y-81933319D01*
X165112005Y-81266652D02*
X165112005Y-81933319D01*
X165350100Y-80885700D02*
X165588195Y-81599985D01*
X165588195Y-81599985D02*
X164969148Y-81599985D01*
X131546767Y-111473319D02*
X131546767Y-112187604D01*
X131546767Y-112187604D02*
X131594386Y-112330461D01*
X131594386Y-112330461D02*
X131689624Y-112425700D01*
X131689624Y-112425700D02*
X131832481Y-112473319D01*
X131832481Y-112473319D02*
X131927719Y-112473319D01*
X130546767Y-112473319D02*
X131118195Y-112473319D01*
X130832481Y-112473319D02*
X130832481Y-111473319D01*
X130832481Y-111473319D02*
X130927719Y-111616176D01*
X130927719Y-111616176D02*
X131022957Y-111711414D01*
X131022957Y-111711414D02*
X131118195Y-111759033D01*
D12*
%TO.C,J4*%
X164303434Y-85128500D02*
X164303434Y-95398500D01*
X167063434Y-82478500D02*
X165683434Y-82478500D01*
X167063434Y-83858500D02*
X167063434Y-82478500D01*
X167063434Y-85128500D02*
X164303434Y-85128500D01*
X167063434Y-85128500D02*
X167063434Y-95398500D01*
X167063434Y-95398500D02*
X164303434Y-95398500D01*
D13*
%TO.C,G\u002A\u002A\u002A*%
G36*
X114527945Y-128452241D02*
G01*
X114527945Y-128620295D01*
X114215847Y-128620295D01*
X113903749Y-128620295D01*
X113903749Y-129816671D01*
X113903689Y-129914727D01*
X113901949Y-130286451D01*
X113897475Y-130572829D01*
X113889841Y-130782531D01*
X113878623Y-130924233D01*
X113863395Y-131006601D01*
X113843729Y-131038311D01*
X113780383Y-131051981D01*
X113663673Y-131054317D01*
X113543635Y-131045057D01*
X113530807Y-129832675D01*
X113517979Y-128620295D01*
X113206705Y-128620295D01*
X112895431Y-128620295D01*
X112895431Y-128452241D01*
X112895431Y-128284189D01*
X113711689Y-128284189D01*
X114527945Y-128284189D01*
X114527945Y-128452241D01*
G37*
G36*
X123986925Y-128452241D02*
G01*
X123979353Y-128563407D01*
X123939657Y-128610925D01*
X123842879Y-128620295D01*
X123698833Y-128620295D01*
X123698833Y-129652619D01*
X123698833Y-130684945D01*
X123842879Y-130684945D01*
X123935553Y-130692975D01*
X123978383Y-130737853D01*
X123986925Y-130848995D01*
X123986691Y-130863565D01*
X123967495Y-130977781D01*
X123926905Y-131038389D01*
X123879367Y-131048757D01*
X123770857Y-131043045D01*
X123685157Y-131033069D01*
X123531893Y-131025033D01*
X123350725Y-131021705D01*
X123026623Y-131021051D01*
X123026623Y-130852997D01*
X123034195Y-130741831D01*
X123073889Y-130694313D01*
X123170667Y-130684945D01*
X123314713Y-130684945D01*
X123314713Y-129652619D01*
X123314713Y-128620295D01*
X123170667Y-128620295D01*
X123075381Y-128611459D01*
X123034653Y-128565149D01*
X123026623Y-128452241D01*
X123026623Y-128284189D01*
X123506773Y-128284189D01*
X123986925Y-128284189D01*
X123986925Y-128452241D01*
G37*
G36*
X115680309Y-128452241D02*
G01*
X115672735Y-128563407D01*
X115633041Y-128610925D01*
X115536263Y-128620295D01*
X115392217Y-128620295D01*
X115392217Y-129652619D01*
X115392217Y-130684945D01*
X115536263Y-130684945D01*
X115629261Y-130693069D01*
X115671831Y-130738121D01*
X115680309Y-130849477D01*
X115680047Y-130870355D01*
X115658513Y-130984933D01*
X115596281Y-131029533D01*
X115543397Y-131034251D01*
X115410029Y-131038309D01*
X115235333Y-131039601D01*
X115050985Y-131038203D01*
X114888657Y-131034187D01*
X114780025Y-131027627D01*
X114776325Y-131026965D01*
X114735661Y-130972651D01*
X114720005Y-130852997D01*
X114727579Y-130741831D01*
X114767273Y-130694313D01*
X114864051Y-130684945D01*
X115008097Y-130684945D01*
X115008097Y-129652619D01*
X115008097Y-128620295D01*
X114864051Y-128620295D01*
X114768765Y-128611459D01*
X114728035Y-128565149D01*
X114720005Y-128452241D01*
X114720005Y-128284189D01*
X115200157Y-128284189D01*
X115680309Y-128284189D01*
X115680309Y-128452241D01*
G37*
G36*
X120013315Y-119651373D02*
G01*
X120025677Y-122690427D01*
X120262571Y-122705421D01*
X120335989Y-122708555D01*
X120496487Y-122706163D01*
X120611387Y-122692325D01*
X120723309Y-122664235D01*
X120721887Y-119748407D01*
X120721883Y-119739713D01*
X120721639Y-119216851D01*
X120721433Y-118720661D01*
X120721267Y-118259815D01*
X120721139Y-117842983D01*
X120721055Y-117478831D01*
X120721013Y-117176033D01*
X120721019Y-116943255D01*
X120721075Y-116789169D01*
X120721179Y-116722443D01*
X120722239Y-116691497D01*
X120737235Y-116647735D01*
X120786501Y-116626069D01*
X120890577Y-116620847D01*
X121070005Y-116626413D01*
X121418115Y-116640521D01*
X121418115Y-119641467D01*
X121418115Y-122642411D01*
X121305167Y-122871789D01*
X121200973Y-123041129D01*
X120975827Y-123262211D01*
X120685983Y-123416917D01*
X120498529Y-123465081D01*
X120219717Y-123463475D01*
X119954199Y-123382683D01*
X119716071Y-123232457D01*
X119519425Y-123022551D01*
X119378361Y-122762717D01*
X119306967Y-122462707D01*
X119303127Y-122399445D01*
X119298343Y-122234389D01*
X119294393Y-121989917D01*
X119291333Y-121675779D01*
X119289209Y-121301727D01*
X119288075Y-120877509D01*
X119287979Y-120412881D01*
X119288971Y-119917591D01*
X119291105Y-119401391D01*
X119305451Y-116640521D01*
X119653201Y-116626421D01*
X120000951Y-116612321D01*
X120013315Y-119651373D01*
G37*
G36*
X116503793Y-129304509D02*
G01*
X116504553Y-129350219D01*
X116510959Y-129683307D01*
X116518391Y-129936199D01*
X116528217Y-130123043D01*
X116541809Y-130257987D01*
X116560535Y-130355175D01*
X116585767Y-130428759D01*
X116618873Y-130492883D01*
X116693635Y-130593235D01*
X116860435Y-130713905D01*
X117053241Y-130764297D01*
X117249211Y-130744395D01*
X117425501Y-130654179D01*
X117559267Y-130493633D01*
X117587841Y-130432303D01*
X117610933Y-130355435D01*
X117627445Y-130252953D01*
X117638437Y-130110775D01*
X117644973Y-129914823D01*
X117648117Y-129651011D01*
X117648929Y-129305259D01*
X117648929Y-128284189D01*
X117840989Y-128284189D01*
X118033049Y-128284189D01*
X118033049Y-129310477D01*
X118032685Y-129478991D01*
X118027015Y-129870987D01*
X118011807Y-130183061D01*
X117983643Y-130426871D01*
X117939107Y-130614067D01*
X117874781Y-130756307D01*
X117787247Y-130865243D01*
X117673091Y-130952529D01*
X117528891Y-131029817D01*
X117402979Y-131078029D01*
X117236689Y-131104603D01*
X117017293Y-131101797D01*
X116800305Y-131075495D01*
X116563463Y-130995305D01*
X116384903Y-130855657D01*
X116248689Y-130647123D01*
X116227509Y-130602399D01*
X116196095Y-130523781D01*
X116172431Y-130435973D01*
X116155081Y-130324501D01*
X116142603Y-130174893D01*
X116133563Y-129972675D01*
X116126519Y-129703377D01*
X116120035Y-129352525D01*
X116102025Y-128284189D01*
X116294519Y-128284189D01*
X116487013Y-128284189D01*
X116503793Y-129304509D01*
G37*
G36*
X125542605Y-128256341D02*
G01*
X125772801Y-128400925D01*
X125961749Y-128625029D01*
X126104511Y-128924549D01*
X126196143Y-129295379D01*
X126226129Y-129598251D01*
X126210471Y-129977021D01*
X126136325Y-130321301D01*
X126008185Y-130617949D01*
X125830547Y-130853817D01*
X125607903Y-131015763D01*
X125598975Y-131020119D01*
X125323949Y-131102305D01*
X125035835Y-131101091D01*
X124759901Y-131020041D01*
X124521415Y-130862709D01*
X124453485Y-130787529D01*
X124342515Y-130610527D01*
X124260629Y-130413993D01*
X124228055Y-130240805D01*
X124228029Y-130225415D01*
X124239929Y-130147573D01*
X124292661Y-130115207D01*
X124413717Y-130108763D01*
X124439585Y-130108869D01*
X124549861Y-130119673D01*
X124602695Y-130165783D01*
X124631047Y-130271945D01*
X124708877Y-130479167D01*
X124845201Y-130638789D01*
X125020027Y-130737995D01*
X125213683Y-130765653D01*
X125406487Y-130710631D01*
X125523613Y-130630633D01*
X125645551Y-130482207D01*
X125727293Y-130277741D01*
X125773163Y-130005219D01*
X125787491Y-129652619D01*
X125786083Y-129458709D01*
X125777883Y-129267481D01*
X125758853Y-129126485D01*
X125725067Y-129009689D01*
X125672601Y-128891067D01*
X125627561Y-128810485D01*
X125475047Y-128639307D01*
X125291055Y-128549833D01*
X125087597Y-128549079D01*
X125016013Y-128575903D01*
X124873879Y-128680413D01*
X124750953Y-128827343D01*
X124677925Y-128984109D01*
X124677289Y-128986617D01*
X124644527Y-129059781D01*
X124576443Y-129092761D01*
X124442969Y-129100445D01*
X124237211Y-129100445D01*
X124285917Y-128908561D01*
X124367279Y-128713171D01*
X124520659Y-128505287D01*
X124714153Y-128337205D01*
X124921543Y-128236643D01*
X124978241Y-128222153D01*
X125276105Y-128195383D01*
X125542605Y-128256341D01*
G37*
G36*
X114431915Y-120013039D02*
G01*
X114431589Y-120410153D01*
X114429603Y-120988445D01*
X114425739Y-121476847D01*
X114419923Y-121879169D01*
X114412071Y-122199221D01*
X114402107Y-122440813D01*
X114389947Y-122607751D01*
X114375513Y-122703847D01*
X114357841Y-122761105D01*
X114246751Y-122970405D01*
X114079983Y-123169259D01*
X113883913Y-123330109D01*
X113684919Y-123425393D01*
X113454819Y-123464901D01*
X113150229Y-123442707D01*
X112871109Y-123338751D01*
X112633493Y-123159713D01*
X112453415Y-122912273D01*
X112319249Y-122655453D01*
X112320371Y-120008101D01*
X112321493Y-117360747D01*
X112334675Y-117336741D01*
X113039477Y-117336741D01*
X113039477Y-120025587D01*
X113039477Y-122714433D01*
X113343573Y-122714433D01*
X113490109Y-122710663D01*
X113618275Y-122699085D01*
X113679679Y-122682423D01*
X113683485Y-122659789D01*
X113689243Y-122551013D01*
X113694569Y-122360531D01*
X113699365Y-122097125D01*
X113703523Y-121769575D01*
X113706939Y-121386665D01*
X113709507Y-120957175D01*
X113711125Y-120489885D01*
X113711689Y-119993577D01*
X113711689Y-117336741D01*
X113375583Y-117336741D01*
X113039477Y-117336741D01*
X112334675Y-117336741D01*
X112452413Y-117122321D01*
X112521895Y-117011667D01*
X112729397Y-116794529D01*
X112979423Y-116651049D01*
X113255541Y-116583825D01*
X113541315Y-116595455D01*
X113820311Y-116688537D01*
X114076093Y-116865671D01*
X114099907Y-116887645D01*
X114170927Y-116955575D01*
X114231021Y-117022649D01*
X114281099Y-117096939D01*
X114322077Y-117186519D01*
X114354867Y-117299465D01*
X114380379Y-117443851D01*
X114399529Y-117627749D01*
X114413227Y-117859233D01*
X114422389Y-118146377D01*
X114427927Y-118497255D01*
X114430751Y-118919943D01*
X114431777Y-119422513D01*
X114431911Y-119993577D01*
X114431915Y-120013039D01*
G37*
G36*
X119703855Y-128243969D02*
G01*
X119940579Y-128369491D01*
X120140339Y-128572477D01*
X120168671Y-128614309D01*
X120288055Y-128863755D01*
X120373953Y-129170561D01*
X120419949Y-129505603D01*
X120419621Y-129839755D01*
X120410673Y-129933799D01*
X120335885Y-130318157D01*
X120206459Y-130630535D01*
X120024265Y-130867401D01*
X119791175Y-131025221D01*
X119671637Y-131070787D01*
X119391671Y-131113175D01*
X119124119Y-131070799D01*
X118881897Y-130951437D01*
X118677913Y-130762867D01*
X118525081Y-130512861D01*
X118436313Y-130209199D01*
X118404897Y-130012733D01*
X118594325Y-130012733D01*
X118606699Y-130012739D01*
X118709925Y-130018169D01*
X118772257Y-130048859D01*
X118816723Y-130126993D01*
X118866347Y-130274749D01*
X118924109Y-130420223D01*
X119058261Y-130615197D01*
X119221867Y-130732069D01*
X119400511Y-130769247D01*
X119579775Y-130725145D01*
X119745243Y-130598175D01*
X119882495Y-130386743D01*
X119893437Y-130362917D01*
X119948221Y-130223507D01*
X119980955Y-130082869D01*
X119996869Y-129909473D01*
X120001201Y-129671787D01*
X120000041Y-129570425D01*
X119989669Y-129353067D01*
X119970829Y-129168209D01*
X119946311Y-129047591D01*
X119887069Y-128905573D01*
X119749359Y-128707405D01*
X119583775Y-128585287D01*
X119404325Y-128541263D01*
X119225019Y-128577375D01*
X119059867Y-128695673D01*
X118922879Y-128898197D01*
X118897539Y-128949461D01*
X118833825Y-129049303D01*
X118760697Y-129091651D01*
X118645295Y-129100445D01*
X118617769Y-129100047D01*
X118511613Y-129081423D01*
X118468265Y-129024697D01*
X118484209Y-128915717D01*
X118555937Y-128740331D01*
X118568317Y-128714473D01*
X118731629Y-128480035D01*
X118944055Y-128313943D01*
X119188379Y-128218019D01*
X119447383Y-128194085D01*
X119703855Y-128243969D01*
G37*
G36*
X122546471Y-129648617D02*
G01*
X122545963Y-129961531D01*
X122543413Y-130317741D01*
X122538391Y-130592167D01*
X122530541Y-130793071D01*
X122519507Y-130928715D01*
X122504929Y-131007359D01*
X122486451Y-131037265D01*
X122402285Y-131060959D01*
X122238299Y-131039921D01*
X122208695Y-131017547D01*
X122185451Y-130960611D01*
X122171299Y-130854993D01*
X122164257Y-130684927D01*
X122162349Y-130434647D01*
X122162349Y-129858519D01*
X121773957Y-129876157D01*
X121694903Y-129880147D01*
X121498495Y-129900505D01*
X121371621Y-129946173D01*
X121296273Y-130034827D01*
X121254441Y-130184135D01*
X121228119Y-130411771D01*
X121214633Y-130556499D01*
X121191513Y-130761067D01*
X121166491Y-130895341D01*
X121134275Y-130975931D01*
X121089571Y-131019449D01*
X121027083Y-131042501D01*
X120959943Y-131054907D01*
X120832927Y-131049681D01*
X120755667Y-131006035D01*
X120750135Y-130932685D01*
X120762997Y-130886879D01*
X120787161Y-130755827D01*
X120814391Y-130570111D01*
X120840887Y-130353967D01*
X120853953Y-130241169D01*
X120882309Y-130041443D01*
X120912585Y-129909523D01*
X120950125Y-129825849D01*
X121000277Y-129770865D01*
X121049331Y-129728165D01*
X121074249Y-129677113D01*
X121029869Y-129625189D01*
X120920571Y-129488913D01*
X120840417Y-129282065D01*
X120826709Y-129184687D01*
X121206839Y-129184687D01*
X121250627Y-129341577D01*
X121259467Y-129355133D01*
X121348861Y-129427035D01*
X121478699Y-129482197D01*
X121541069Y-129496557D01*
X121722537Y-129522083D01*
X121910271Y-129532313D01*
X122162349Y-129532581D01*
X122162349Y-129071353D01*
X122162349Y-128610125D01*
X121773525Y-128627783D01*
X121736627Y-128629521D01*
X121548911Y-128642675D01*
X121428837Y-128664061D01*
X121351847Y-128700353D01*
X121293375Y-128758225D01*
X121252473Y-128827891D01*
X121208589Y-128997971D01*
X121206839Y-129184687D01*
X120826709Y-129184687D01*
X120807253Y-129046479D01*
X120825109Y-128813105D01*
X120898017Y-128612891D01*
X120953563Y-128529167D01*
X121054769Y-128427435D01*
X121187373Y-128357147D01*
X121367369Y-128313229D01*
X121610757Y-128290603D01*
X121933529Y-128284189D01*
X122546471Y-128284189D01*
X122546471Y-129071353D01*
X122546471Y-129648617D01*
G37*
G36*
X112122209Y-128211325D02*
G01*
X112298275Y-128260239D01*
X112524291Y-128393691D01*
X112692627Y-128583847D01*
X112793821Y-128814063D01*
X112818415Y-129067693D01*
X112756947Y-129328093D01*
X112719343Y-129401135D01*
X112623043Y-129510795D01*
X112474641Y-129606837D01*
X112259729Y-129697679D01*
X111963903Y-129791743D01*
X111759823Y-129852699D01*
X111560577Y-129922447D01*
X111430181Y-129988997D01*
X111354521Y-130062769D01*
X111319477Y-130154181D01*
X111310933Y-130273655D01*
X111317753Y-130393323D01*
X111358467Y-130505117D01*
X111453827Y-130604585D01*
X111592545Y-130698513D01*
X111816491Y-130763113D01*
X112066279Y-130736431D01*
X112256577Y-130651773D01*
X112418709Y-130495607D01*
X112506433Y-130291957D01*
X112536313Y-130190735D01*
X112595881Y-130138185D01*
X112717079Y-130117869D01*
X112738285Y-130116155D01*
X112844283Y-130115791D01*
X112886989Y-130150061D01*
X112894377Y-130237905D01*
X112893175Y-130262323D01*
X112858929Y-130418025D01*
X112790257Y-130595993D01*
X112704341Y-130757311D01*
X112618367Y-130863055D01*
X112595861Y-130879779D01*
X112482743Y-130949443D01*
X112343257Y-131022629D01*
X112279613Y-131050057D01*
X112001133Y-131112197D01*
X111707473Y-131100659D01*
X111428107Y-131019303D01*
X111192513Y-130871985D01*
X111181823Y-130862449D01*
X111025257Y-130665953D01*
X110945009Y-130424489D01*
X110937297Y-130127021D01*
X110948849Y-130018371D01*
X110976177Y-129895729D01*
X111027283Y-129796199D01*
X111113689Y-129711875D01*
X111246913Y-129634855D01*
X111438479Y-129557233D01*
X111699905Y-129471105D01*
X112042711Y-129368565D01*
X112182325Y-129320917D01*
X112322815Y-129238073D01*
X112394931Y-129125759D01*
X112415279Y-128966031D01*
X112413933Y-128933583D01*
X112355617Y-128757533D01*
X112224913Y-128622601D01*
X112040817Y-128549903D01*
X111825747Y-128548763D01*
X111624439Y-128623751D01*
X111472805Y-128767299D01*
X111388003Y-128968403D01*
X111385279Y-128981433D01*
X111355383Y-129059597D01*
X111291481Y-129093245D01*
X111162743Y-129100445D01*
X110964139Y-129100445D01*
X110997117Y-128920389D01*
X111007911Y-128868831D01*
X111114585Y-128604325D01*
X111289653Y-128399833D01*
X111522811Y-128261841D01*
X111803763Y-128196841D01*
X112122209Y-128211325D01*
G37*
G36*
X123724923Y-116640747D02*
G01*
X123979589Y-116642899D01*
X124163055Y-116648701D01*
X124291059Y-116659815D01*
X124379341Y-116677893D01*
X124443641Y-116704593D01*
X124499701Y-116741571D01*
X124621179Y-116857181D01*
X124723847Y-116994117D01*
X124735045Y-117014569D01*
X124751879Y-117054703D01*
X124766097Y-117108033D01*
X124777925Y-117182093D01*
X124787585Y-117284409D01*
X124795299Y-117422513D01*
X124801293Y-117603937D01*
X124805787Y-117836209D01*
X124809005Y-118126859D01*
X124811169Y-118483421D01*
X124812505Y-118913419D01*
X124813233Y-119424389D01*
X124813577Y-120023859D01*
X124813815Y-120450191D01*
X124814067Y-121011479D01*
X124813419Y-121488901D01*
X124810999Y-121889741D01*
X124805935Y-122221279D01*
X124797353Y-122490803D01*
X124784383Y-122705595D01*
X124766153Y-122872939D01*
X124741789Y-123000121D01*
X124710419Y-123094421D01*
X124671173Y-123163127D01*
X124623175Y-123213521D01*
X124565555Y-123252887D01*
X124497443Y-123288509D01*
X124417963Y-123327671D01*
X124393655Y-123339843D01*
X124307185Y-123378083D01*
X124217793Y-123404133D01*
X124106869Y-123419855D01*
X123955797Y-123427115D01*
X123745965Y-123427777D01*
X123458759Y-123423701D01*
X122714523Y-123410653D01*
X122700417Y-123062543D01*
X122686309Y-122714433D01*
X123379427Y-122714433D01*
X123511431Y-122714369D01*
X123744041Y-122712963D01*
X123902503Y-122707953D01*
X124001943Y-122697069D01*
X124057479Y-122678033D01*
X124084231Y-122648567D01*
X124097325Y-122606399D01*
X124099923Y-122580467D01*
X124103593Y-122467825D01*
X124105887Y-122285745D01*
X124106895Y-122051461D01*
X124106709Y-121782213D01*
X124105421Y-121495237D01*
X124103121Y-121207767D01*
X124099901Y-120937043D01*
X124095851Y-120700301D01*
X124091063Y-120514775D01*
X124085629Y-120397705D01*
X124057723Y-120386117D01*
X123951455Y-120373489D01*
X123784467Y-120364877D01*
X123576693Y-120361693D01*
X123070431Y-120361693D01*
X123084537Y-120013583D01*
X123098645Y-119665473D01*
X123602803Y-119641467D01*
X124106963Y-119617459D01*
X124098105Y-118489103D01*
X124089249Y-117360747D01*
X123387805Y-117347449D01*
X122686361Y-117334149D01*
X122700443Y-116987335D01*
X122714523Y-116640521D01*
X123539399Y-116640521D01*
X123724923Y-116640747D01*
G37*
G36*
X127192035Y-126075551D02*
G01*
X127432555Y-126080113D01*
X127641619Y-126090903D01*
X127797711Y-126106427D01*
X127879307Y-126125197D01*
X127922071Y-126165587D01*
X127967001Y-126282945D01*
X127976763Y-126428319D01*
X127950699Y-126562889D01*
X127888153Y-126647829D01*
X127877679Y-126652325D01*
X127780505Y-126669897D01*
X127612639Y-126684331D01*
X127394533Y-126694239D01*
X127146641Y-126698229D01*
X126913037Y-126698019D01*
X126717455Y-126694503D01*
X126587043Y-126685387D01*
X126505233Y-126668485D01*
X126455459Y-126641617D01*
X126421151Y-126602597D01*
X126414989Y-126594201D01*
X126403499Y-126582681D01*
X126385387Y-126572205D01*
X126356393Y-126562723D01*
X126312263Y-126554187D01*
X126248737Y-126546547D01*
X126161557Y-126539755D01*
X126046469Y-126533761D01*
X125899211Y-126528517D01*
X125715529Y-126523971D01*
X125491165Y-126520077D01*
X125221859Y-126516783D01*
X124903357Y-126514043D01*
X124531397Y-126511805D01*
X124101727Y-126510019D01*
X123610085Y-126508639D01*
X123052217Y-126507615D01*
X122423863Y-126506897D01*
X121720765Y-126506437D01*
X120938669Y-126506183D01*
X120073313Y-126506087D01*
X119120443Y-126506103D01*
X118075801Y-126506177D01*
X117867229Y-126506185D01*
X116986983Y-126506013D01*
X116133023Y-126505519D01*
X115310335Y-126504723D01*
X114523897Y-126503639D01*
X113778693Y-126502285D01*
X113079703Y-126500677D01*
X112431911Y-126498835D01*
X111840297Y-126496773D01*
X111309841Y-126494509D01*
X110845527Y-126492059D01*
X110452335Y-126489443D01*
X110135247Y-126486675D01*
X109899243Y-126483771D01*
X109749309Y-126480751D01*
X109690421Y-126477631D01*
X109647171Y-126460417D01*
X109590105Y-126401735D01*
X109594925Y-126342431D01*
X109666415Y-126314899D01*
X109670879Y-126314885D01*
X109748079Y-126314823D01*
X109915225Y-126314781D01*
X110167353Y-126314753D01*
X110499491Y-126314743D01*
X110906677Y-126314747D01*
X111383941Y-126314767D01*
X111926317Y-126314801D01*
X112528837Y-126314849D01*
X113186537Y-126314911D01*
X113894447Y-126314989D01*
X114647601Y-126315077D01*
X115441033Y-126315179D01*
X116269775Y-126315295D01*
X117128861Y-126315421D01*
X118013323Y-126315559D01*
X126276205Y-126316887D01*
X126406439Y-126196189D01*
X126463095Y-126147709D01*
X126523337Y-126113711D01*
X126604537Y-126092491D01*
X126725461Y-126081047D01*
X126904877Y-126076381D01*
X127161553Y-126075493D01*
X127192035Y-126075551D01*
G37*
G36*
X127444037Y-127086391D02*
G01*
X127687617Y-127096581D01*
X127843069Y-127114819D01*
X127914561Y-127141429D01*
X127964397Y-127239391D01*
X127973735Y-127386657D01*
X127938865Y-127533029D01*
X127864145Y-127635725D01*
X127803243Y-127667661D01*
X127714621Y-127688667D01*
X127581585Y-127699847D01*
X127386987Y-127702637D01*
X127113669Y-127698467D01*
X126867825Y-127692129D01*
X126681411Y-127683721D01*
X126558307Y-127670803D01*
X126481587Y-127650475D01*
X126434323Y-127619829D01*
X126399589Y-127575965D01*
X126327953Y-127467931D01*
X117951649Y-127467931D01*
X117218267Y-127467915D01*
X116229207Y-127467821D01*
X115329145Y-127467599D01*
X114513907Y-127467211D01*
X113779327Y-127466615D01*
X113121233Y-127465767D01*
X112535455Y-127464627D01*
X112017825Y-127463153D01*
X111564173Y-127461301D01*
X111170331Y-127459031D01*
X110832127Y-127456301D01*
X110545391Y-127453069D01*
X110305955Y-127449293D01*
X110109649Y-127444931D01*
X109952303Y-127439941D01*
X109829749Y-127434279D01*
X109737815Y-127427907D01*
X109672333Y-127420783D01*
X109629133Y-127412861D01*
X109604045Y-127404103D01*
X109592899Y-127394465D01*
X109591527Y-127383905D01*
X109594129Y-127377141D01*
X109605299Y-127367149D01*
X109628781Y-127358035D01*
X109668759Y-127349751D01*
X109729419Y-127342247D01*
X109814947Y-127335477D01*
X109929531Y-127329391D01*
X110077353Y-127323943D01*
X110262603Y-127319085D01*
X110489465Y-127314769D01*
X110762125Y-127310947D01*
X111084769Y-127307569D01*
X111461583Y-127304589D01*
X111896755Y-127301957D01*
X112394467Y-127299629D01*
X112958909Y-127297553D01*
X113594265Y-127295683D01*
X114304719Y-127293971D01*
X115094461Y-127292369D01*
X115967677Y-127290827D01*
X116928549Y-127289301D01*
X117981265Y-127287739D01*
X118719935Y-127286663D01*
X119706855Y-127285187D01*
X120604911Y-127283747D01*
X121418335Y-127282293D01*
X122151359Y-127280771D01*
X122808217Y-127279123D01*
X123393137Y-127277299D01*
X123910355Y-127275241D01*
X124364101Y-127272897D01*
X124758607Y-127270213D01*
X125098107Y-127267135D01*
X125386831Y-127263609D01*
X125629011Y-127259579D01*
X125828881Y-127254991D01*
X125990671Y-127249793D01*
X126118613Y-127243931D01*
X126216941Y-127237347D01*
X126289887Y-127229991D01*
X126341681Y-127221805D01*
X126376557Y-127212739D01*
X126398745Y-127202737D01*
X126412477Y-127191743D01*
X126421989Y-127179705D01*
X126454193Y-127142965D01*
X126502823Y-127116169D01*
X126582875Y-127098919D01*
X126710495Y-127089151D01*
X126901837Y-127084801D01*
X127173049Y-127083811D01*
X127444037Y-127086391D01*
G37*
G36*
X127241959Y-125091241D02*
G01*
X127508481Y-125093701D01*
X127695933Y-125100761D01*
X127818445Y-125113791D01*
X127890151Y-125134151D01*
X127925181Y-125163205D01*
X127958009Y-125257117D01*
X127969917Y-125401335D01*
X127955099Y-125541705D01*
X127914561Y-125633753D01*
X127861325Y-125656367D01*
X127720695Y-125676029D01*
X127492659Y-125687591D01*
X127173049Y-125691371D01*
X126910391Y-125690465D01*
X126716369Y-125686277D01*
X126586667Y-125676747D01*
X126505137Y-125659811D01*
X126455629Y-125633409D01*
X126421989Y-125595477D01*
X126415639Y-125587007D01*
X126403647Y-125575699D01*
X126384493Y-125565401D01*
X126353947Y-125556053D01*
X126307777Y-125547605D01*
X126241751Y-125540001D01*
X126151637Y-125533187D01*
X126033203Y-125527109D01*
X125882217Y-125521713D01*
X125694447Y-125516945D01*
X125465661Y-125512751D01*
X125191627Y-125509075D01*
X124868115Y-125505865D01*
X124490891Y-125503067D01*
X124055725Y-125500625D01*
X123558383Y-125498487D01*
X122994633Y-125496597D01*
X122360245Y-125494901D01*
X121650987Y-125493345D01*
X120862627Y-125491875D01*
X119990931Y-125490439D01*
X119031669Y-125488979D01*
X117980609Y-125487443D01*
X117917779Y-125487351D01*
X116862653Y-125485745D01*
X115899257Y-125484113D01*
X115023523Y-125482409D01*
X114231383Y-125480597D01*
X113518771Y-125478633D01*
X112881615Y-125476479D01*
X112315851Y-125474091D01*
X111817409Y-125471429D01*
X111382219Y-125468453D01*
X111006217Y-125465123D01*
X110685331Y-125461395D01*
X110415493Y-125457231D01*
X110192637Y-125452589D01*
X110012695Y-125447429D01*
X109871597Y-125441709D01*
X109765277Y-125435387D01*
X109689663Y-125428425D01*
X109640691Y-125420781D01*
X109614291Y-125412413D01*
X109606395Y-125403281D01*
X109606403Y-125402967D01*
X109614847Y-125393851D01*
X109641935Y-125385499D01*
X109691741Y-125377869D01*
X109768337Y-125370923D01*
X109875799Y-125364619D01*
X110018195Y-125358915D01*
X110199601Y-125353771D01*
X110424091Y-125349143D01*
X110695735Y-125344995D01*
X111018607Y-125341281D01*
X111396781Y-125337963D01*
X111834327Y-125334999D01*
X112335323Y-125332349D01*
X112903837Y-125329971D01*
X113543943Y-125327823D01*
X114259717Y-125325867D01*
X115055227Y-125324059D01*
X115934551Y-125322359D01*
X116901757Y-125320725D01*
X117960923Y-125319119D01*
X126315449Y-125306979D01*
X126396837Y-125199081D01*
X126407907Y-125184781D01*
X126445575Y-125146823D01*
X126497871Y-125120803D01*
X126581075Y-125104475D01*
X126711469Y-125095593D01*
X126905329Y-125091911D01*
X127178939Y-125091183D01*
X127241959Y-125091241D01*
G37*
G36*
X127444037Y-124109453D02*
G01*
X127687617Y-124119643D01*
X127843069Y-124137883D01*
X127914561Y-124164491D01*
X127950587Y-124242699D01*
X127969469Y-124376393D01*
X127965125Y-124516075D01*
X127935433Y-124615835D01*
X127914251Y-124640417D01*
X127828135Y-124697911D01*
X127820695Y-124700133D01*
X127731205Y-124709707D01*
X127570013Y-124716093D01*
X127357405Y-124718743D01*
X127113669Y-124717115D01*
X126861885Y-124712347D01*
X126677589Y-124705219D01*
X126556141Y-124693123D01*
X126480611Y-124673259D01*
X126434071Y-124642827D01*
X126399589Y-124599027D01*
X126327953Y-124490993D01*
X117951649Y-124490993D01*
X117218267Y-124490979D01*
X116229207Y-124490883D01*
X115329145Y-124490661D01*
X114513907Y-124490273D01*
X113779327Y-124489677D01*
X113121233Y-124488829D01*
X112535455Y-124487689D01*
X112017825Y-124486215D01*
X111564173Y-124484363D01*
X111170331Y-124482093D01*
X110832127Y-124479363D01*
X110545391Y-124476131D01*
X110305955Y-124472355D01*
X110109649Y-124467993D01*
X109952303Y-124463003D01*
X109829749Y-124457343D01*
X109737815Y-124450971D01*
X109672333Y-124443845D01*
X109629133Y-124435923D01*
X109604045Y-124427165D01*
X109592899Y-124417527D01*
X109591527Y-124406967D01*
X109594129Y-124400205D01*
X109605299Y-124390213D01*
X109628781Y-124381097D01*
X109668759Y-124372813D01*
X109729419Y-124365309D01*
X109814947Y-124358539D01*
X109929531Y-124352453D01*
X110077353Y-124347007D01*
X110262603Y-124342149D01*
X110489465Y-124337831D01*
X110762125Y-124334009D01*
X111084769Y-124330631D01*
X111461583Y-124327651D01*
X111896755Y-124325021D01*
X112394467Y-124322691D01*
X112958909Y-124320615D01*
X113594265Y-124318747D01*
X114304719Y-124317033D01*
X115094461Y-124315431D01*
X115967677Y-124313891D01*
X116928549Y-124312363D01*
X117981265Y-124310801D01*
X118719935Y-124309725D01*
X119706855Y-124308249D01*
X120604911Y-124306811D01*
X121418335Y-124305357D01*
X122151359Y-124303833D01*
X122808217Y-124302185D01*
X123393137Y-124300361D01*
X123910355Y-124298303D01*
X124364101Y-124295961D01*
X124758607Y-124293277D01*
X125098107Y-124290199D01*
X125386831Y-124286671D01*
X125629011Y-124282641D01*
X125828881Y-124278055D01*
X125990671Y-124272857D01*
X126118613Y-124266993D01*
X126216941Y-124260409D01*
X126289887Y-124253053D01*
X126341681Y-124244869D01*
X126376557Y-124235801D01*
X126398745Y-124225799D01*
X126412477Y-124214805D01*
X126421989Y-124202767D01*
X126454193Y-124166027D01*
X126502823Y-124139233D01*
X126582875Y-124121981D01*
X126710495Y-124112213D01*
X126901837Y-124107863D01*
X127173049Y-124106873D01*
X127444037Y-124109453D01*
G37*
G36*
X118025929Y-118570951D02*
G01*
X118028473Y-119033719D01*
X118030379Y-119515763D01*
X118031623Y-120007533D01*
X118032191Y-120499475D01*
X118032065Y-120982039D01*
X118031227Y-121445673D01*
X118029657Y-121880823D01*
X118027341Y-122277941D01*
X118024257Y-122627473D01*
X118020389Y-122919867D01*
X118015719Y-123145573D01*
X118010231Y-123295039D01*
X118003905Y-123358711D01*
X117995119Y-123375405D01*
X117941271Y-123411053D01*
X117830629Y-123429441D01*
X117643791Y-123434661D01*
X117590089Y-123434567D01*
X117437263Y-123430645D01*
X117353885Y-123415911D01*
X117318875Y-123383521D01*
X117311151Y-123326627D01*
X117311017Y-123316167D01*
X117310089Y-123219267D01*
X117308605Y-123042769D01*
X117306665Y-122799739D01*
X117304375Y-122503245D01*
X117301835Y-122166359D01*
X117299149Y-121802147D01*
X117288815Y-120385701D01*
X116952709Y-120385701D01*
X116616603Y-120385701D01*
X116592595Y-121778139D01*
X116589207Y-121960707D01*
X116578187Y-122409901D01*
X116564861Y-122766311D01*
X116549101Y-123032317D01*
X116530775Y-123210293D01*
X116509757Y-123302619D01*
X116499015Y-123326061D01*
X116460459Y-123386437D01*
X116401515Y-123418945D01*
X116296975Y-123432161D01*
X116121635Y-123434661D01*
X116119467Y-123434661D01*
X115950415Y-123430473D01*
X115822137Y-123419671D01*
X115762249Y-123404565D01*
X115761017Y-123403145D01*
X115762173Y-123341109D01*
X115802261Y-123238897D01*
X115821601Y-123188381D01*
X115839347Y-123100581D01*
X115852685Y-122970873D01*
X115862145Y-122788435D01*
X115868269Y-122542447D01*
X115871587Y-122222087D01*
X115872637Y-121816535D01*
X115872729Y-121704945D01*
X115874959Y-121288645D01*
X115881049Y-120955163D01*
X115892197Y-120693843D01*
X115909599Y-120494019D01*
X115934453Y-120345031D01*
X115967957Y-120236217D01*
X116011303Y-120156917D01*
X116065691Y-120096467D01*
X116098983Y-120065707D01*
X116133605Y-120015381D01*
X116112157Y-119961035D01*
X116029411Y-119870049D01*
X115896377Y-119731191D01*
X115896377Y-118417449D01*
X115896473Y-118171933D01*
X115897409Y-117833381D01*
X115900005Y-117572101D01*
X115905065Y-117376381D01*
X115907391Y-117336741D01*
X116592595Y-117336741D01*
X116592595Y-118489103D01*
X116592595Y-119641467D01*
X116923565Y-119641467D01*
X116996521Y-119640919D01*
X117155403Y-119631703D01*
X117244655Y-119607931D01*
X117283677Y-119565517D01*
X117289307Y-119535805D01*
X117297855Y-119417371D01*
X117304329Y-119230855D01*
X117308737Y-118994235D01*
X117311089Y-118725481D01*
X117311395Y-118442571D01*
X117309665Y-118163479D01*
X117305905Y-117906179D01*
X117300129Y-117688645D01*
X117292343Y-117528851D01*
X117282559Y-117444775D01*
X117280257Y-117436465D01*
X117254681Y-117382499D01*
X117201915Y-117352483D01*
X117099031Y-117339527D01*
X116923101Y-117336741D01*
X116592595Y-117336741D01*
X115907391Y-117336741D01*
X115913389Y-117234503D01*
X115925779Y-117134751D01*
X115943039Y-117065413D01*
X115965971Y-117014771D01*
X115995373Y-116971111D01*
X116006267Y-116956571D01*
X116095545Y-116845347D01*
X116182439Y-116763573D01*
X116283351Y-116706353D01*
X116414683Y-116668797D01*
X116592839Y-116646013D01*
X116834219Y-116633109D01*
X117155225Y-116625193D01*
X117230189Y-116623825D01*
X117521539Y-116620727D01*
X117731449Y-116623435D01*
X117871807Y-116632629D01*
X117954499Y-116648993D01*
X117991415Y-116673209D01*
X117991655Y-116673649D01*
X117998189Y-116734037D01*
X118004207Y-116880561D01*
X118009691Y-117103673D01*
X118014623Y-117393819D01*
X118018985Y-117741449D01*
X118022759Y-118137011D01*
X118024991Y-118442571D01*
X118025929Y-118570951D01*
G37*
D12*
%TO.C,J1*%
X130003434Y-113378500D02*
X132663434Y-113378500D01*
X130003434Y-126138500D02*
X130003434Y-113378500D01*
X130003434Y-126138500D02*
X132663434Y-126138500D01*
X131333434Y-128738500D02*
X132663434Y-128738500D01*
X132663434Y-126138500D02*
X132663434Y-113378500D01*
X132663434Y-128738500D02*
X132663434Y-127408500D01*
%TD*%
M02*
