%TF.GenerationSoftware,KiCad,Pcbnew,9.0.8-9.0.8~ubuntu24.04.1*%
%TF.CreationDate,2026-04-09T21:00:12+01:00*%
%TF.ProjectId,CORTEX_ALPHA,434f5254-4558-45f4-914c-5048412e6b69,rev?*%
%TF.SameCoordinates,Original*%
%TF.FileFunction,Profile,NP*%
%FSLAX46Y46*%
G04 Gerber Fmt 4.6, Leading zero omitted, Abs format (unit mm)*
G04 Created by KiCad (PCBNEW 9.0.8-9.0.8~ubuntu24.04.1) date 2026-04-09 21:00:12*
%MOMM*%
%LPD*%
G01*
G04 APERTURE LIST*
%TA.AperFunction,Profile*%
%ADD10C,0.050000*%
%TD*%
G04 APERTURE END LIST*
D10*
X180900000Y-141500000D02*
X180928428Y-138528427D01*
X180928427Y-58500000D02*
X99900000Y-58500000D01*
X99900000Y-58500000D02*
X99871573Y-61471600D01*
X99871573Y-141500000D02*
X180900000Y-141500000D01*
X180928427Y-138528427D02*
G75*
G02*
X184928427Y-134528427I3999973J27D01*
G01*
X184928427Y-65528427D02*
G75*
G02*
X184928427Y-73528373I-27J-3999973D01*
G01*
X99871573Y-138471573D02*
X99871573Y-141500000D01*
X180928427Y-77528427D02*
G75*
G02*
X184928427Y-73528427I3999973J27D01*
G01*
X180928434Y-122528427D02*
X180928427Y-77528400D01*
X99871573Y-122471573D02*
G75*
G02*
X95871573Y-126471573I-3999973J-27D01*
G01*
X180928434Y-61528427D02*
X180928427Y-58500000D01*
X95871573Y-134471573D02*
G75*
G02*
X95871573Y-126471567I-3J4000003D01*
G01*
X95871573Y-134471573D02*
G75*
G02*
X99871627Y-138471573I27J-4000027D01*
G01*
X184928427Y-65528427D02*
G75*
G02*
X180928373Y-61528427I-27J4000027D01*
G01*
X95871573Y-73471573D02*
G75*
G02*
X99871627Y-77471573I27J-4000027D01*
G01*
X99871573Y-61471573D02*
G75*
G02*
X95871573Y-65471573I-3999973J-27D01*
G01*
X184928427Y-126528427D02*
G75*
G02*
X180928373Y-122528427I-27J4000027D01*
G01*
X184928427Y-126528427D02*
G75*
G02*
X184928427Y-134528373I-27J-3999973D01*
G01*
X99871566Y-77471573D02*
X99871573Y-122471600D01*
X95871573Y-73471573D02*
G75*
G02*
X95871573Y-65471567I-3J4000003D01*
G01*
M02*
