%TF.GenerationSoftware,KiCad,Pcbnew,9.0.2+1*%
%TF.CreationDate,2025-08-16T02:22:31+01:00*%
%TF.ProjectId,OBC,4f42432e-6b69-4636-9164-5f7063625858,rev?*%
%TF.SameCoordinates,Original*%
%TF.FileFunction,Paste,Top*%
%TF.FilePolarity,Positive*%
%FSLAX45Y45*%
G04 Gerber Fmt 4.5, Leading zero omitted, Abs format (unit mm)*
G04 Created by KiCad (PCBNEW 9.0.2+1) date 2025-08-16 02:22:31*
%MOMM*%
%LPD*%
G01*
G04 APERTURE LIST*
G04 Aperture macros list*
%AMRoundRect*
0 Rectangle with rounded corners*
0 $1 Rounding radius*
0 $2 $3 $4 $5 $6 $7 $8 $9 X,Y pos of 4 corners*
0 Add a 4 corners polygon primitive as box body*
4,1,4,$2,$3,$4,$5,$6,$7,$8,$9,$2,$3,0*
0 Add four circle primitives for the rounded corners*
1,1,$1+$1,$2,$3*
1,1,$1+$1,$4,$5*
1,1,$1+$1,$6,$7*
1,1,$1+$1,$8,$9*
0 Add four rect primitives between the rounded corners*
20,1,$1+$1,$2,$3,$4,$5,0*
20,1,$1+$1,$4,$5,$6,$7,0*
20,1,$1+$1,$6,$7,$8,$9,0*
20,1,$1+$1,$8,$9,$2,$3,0*%
%AMRotRect*
0 Rectangle, with rotation*
0 The origin of the aperture is its center*
0 $1 length*
0 $2 width*
0 $3 Rotation angle, in degrees counterclockwise*
0 Add horizontal line*
21,1,$1,$2,0,0,$3*%
G04 Aperture macros list end*
%ADD10C,0.000000*%
%ADD11C,0.010000*%
%ADD12RotRect,0.177800X0.812800X45.000000*%
%ADD13RotRect,0.177800X0.812800X315.000000*%
%ADD14RotRect,3.200400X3.200400X315.000000*%
%ADD15R,0.254000X0.762000*%
%ADD16R,0.762000X0.254000*%
%ADD17R,2.641600X2.641600*%
%ADD18RoundRect,0.076200X0.304800X-0.076200X0.304800X0.076200X-0.304800X0.076200X-0.304800X-0.076200X0*%
%ADD19RoundRect,0.076200X-0.076200X-0.304800X0.076200X-0.304800X0.076200X0.304800X-0.076200X0.304800X0*%
%ADD20RotRect,0.762000X0.254000X315.000000*%
%ADD21R,0.812800X0.406400*%
%ADD22R,1.752600X2.489200*%
%ADD23R,0.800000X2.000000*%
%ADD24R,1.800000X1.400000*%
%ADD25R,1.400000X1.900000*%
%ADD26R,0.520000X1.000000*%
%ADD27R,0.270000X1.000000*%
%ADD28R,1.000000X2.000000*%
%ADD29RoundRect,0.250000X0.525000X0.725000X-0.525000X0.725000X-0.525000X-0.725000X0.525000X-0.725000X0*%
%ADD30R,0.300000X0.475000*%
%ADD31R,0.210000X0.400000*%
%ADD32RoundRect,0.125000X0.231788X-0.055013X-0.055013X0.231788X-0.231788X0.055013X0.055013X-0.231788X0*%
%ADD33RoundRect,0.127000X0.152400X0.127000X-0.152400X0.127000X-0.152400X-0.127000X0.152400X-0.127000X0*%
%ADD34RoundRect,0.125000X0.124999X-0.202799X0.124999X0.202799X-0.124999X0.202799X-0.124999X-0.202799X0*%
%ADD35R,0.250000X0.600000*%
%ADD36R,0.600000X0.600000*%
%ADD37RoundRect,0.127000X-0.127000X0.152400X-0.127000X-0.152400X0.127000X-0.152400X0.127000X0.152400X0*%
%ADD38R,1.524000X0.533400*%
%ADD39R,1.300000X3.400000*%
%ADD40RoundRect,0.127000X0.127000X-0.152400X0.127000X0.152400X-0.127000X0.152400X-0.127000X-0.152400X0*%
%ADD41RoundRect,0.125000X0.202799X0.124999X-0.202799X0.124999X-0.202799X-0.124999X0.202799X-0.124999X0*%
%ADD42RoundRect,0.250000X0.475000X-0.325000X0.475000X0.325000X-0.475000X0.325000X-0.475000X-0.325000X0*%
%ADD43RoundRect,0.127000X0.017961X0.197566X-0.197566X-0.017961X-0.017961X-0.197566X0.197566X0.017961X0*%
%ADD44RoundRect,0.250000X-0.475000X0.325000X-0.475000X-0.325000X0.475000X-0.325000X0.475000X0.325000X0*%
%ADD45RoundRect,0.230000X0.260000X-0.230000X0.260000X0.230000X-0.260000X0.230000X-0.260000X-0.230000X0*%
%ADD46RoundRect,0.127000X-0.197566X0.017961X0.017961X-0.197566X0.197566X-0.017961X-0.017961X0.197566X0*%
%ADD47R,0.660400X1.549400*%
%ADD48R,1.295400X1.905000*%
%ADD49R,1.244600X0.558800*%
%ADD50R,0.558800X1.422400*%
%ADD51RoundRect,0.227500X-0.227500X-0.307500X0.227500X-0.307500X0.227500X0.307500X-0.227500X0.307500X0*%
%ADD52RoundRect,0.125000X-0.124999X0.202799X-0.124999X-0.202799X0.124999X-0.202799X0.124999X0.202799X0*%
%ADD53RoundRect,0.125000X-0.125000X-0.281400X0.125000X-0.281400X0.125000X0.281400X-0.125000X0.281400X0*%
%ADD54R,1.649999X0.599999*%
%ADD55RoundRect,0.127000X-0.017961X-0.197566X0.197566X0.017961X0.017961X0.197566X-0.197566X-0.017961X0*%
%ADD56R,1.000000X0.800000*%
%ADD57R,0.800000X1.000000*%
%ADD58RoundRect,0.127000X-0.152400X-0.127000X0.152400X-0.127000X0.152400X0.127000X-0.152400X0.127000X0*%
%ADD59RoundRect,0.125000X0.281400X-0.125000X0.281400X0.125000X-0.281400X0.125000X-0.281400X-0.125000X0*%
%ADD60R,0.609600X0.228600*%
%ADD61R,1.050000X1.000000*%
%ADD62R,0.660400X1.905000*%
%ADD63R,2.895600X0.990600*%
%ADD64R,3.606800X1.803400*%
%ADD65RoundRect,0.125000X-0.231788X0.055013X0.055013X-0.231788X0.231788X-0.055013X-0.055013X0.231788X0*%
%ADD66RoundRect,0.127000X0.197566X-0.017961X-0.017961X0.197566X-0.197566X0.017961X0.017961X-0.197566X0*%
%ADD67RoundRect,0.125000X0.125000X0.281400X-0.125000X0.281400X-0.125000X-0.281400X0.125000X-0.281400X0*%
%ADD68RoundRect,0.230000X-0.230000X-0.260000X0.230000X-0.260000X0.230000X0.260000X-0.230000X0.260000X0*%
%ADD69RoundRect,0.095000X-0.335000X0.285000X-0.335000X-0.285000X0.335000X-0.285000X0.335000X0.285000X0*%
%ADD70R,0.228600X0.609600*%
%ADD71R,1.550000X2.200000*%
%ADD72RoundRect,0.125000X-0.281400X0.125000X-0.281400X-0.125000X0.281400X-0.125000X0.281400X0.125000X0*%
%ADD73RotRect,1.100000X1.300000X135.000000*%
%ADD74RotRect,0.609600X0.228600X225.000000*%
%ADD75R,1.899999X0.599999*%
G04 APERTURE END LIST*
D10*
%TO.C,MCU1*%
G36*
X15003009Y-10146849D02*
G01*
X14904000Y-10245858D01*
X14804991Y-10146849D01*
X14904000Y-10047840D01*
X15003009Y-10146849D01*
G37*
G36*
X14889858Y-10260000D02*
G01*
X14790849Y-10359009D01*
X14691840Y-10260000D01*
X14790849Y-10160991D01*
X14889858Y-10260000D01*
G37*
G36*
X15116160Y-10260000D02*
G01*
X15017151Y-10359009D01*
X14918142Y-10260000D01*
X15017151Y-10160991D01*
X15116160Y-10260000D01*
G37*
G36*
X15003009Y-10373151D02*
G01*
X14904000Y-10472160D01*
X14804991Y-10373151D01*
X14904000Y-10274142D01*
X15003009Y-10373151D01*
G37*
%TO.C,U1*%
G36*
X12807036Y-10650404D02*
G01*
X12694956Y-10650404D01*
X12694956Y-10538324D01*
X12807036Y-10538324D01*
X12807036Y-10650404D01*
G37*
G36*
X12939116Y-10650404D02*
G01*
X12827036Y-10650404D01*
X12827036Y-10538324D01*
X12939116Y-10538324D01*
X12939116Y-10650404D01*
G37*
G36*
X12807036Y-10518324D02*
G01*
X12694956Y-10518324D01*
X12694956Y-10406244D01*
X12807036Y-10406244D01*
X12807036Y-10518324D01*
G37*
G36*
X12939116Y-10518324D02*
G01*
X12827036Y-10518324D01*
X12827036Y-10406244D01*
X12939116Y-10406244D01*
X12939116Y-10518324D01*
G37*
%TO.C,U3*%
G36*
X11794120Y-10509785D02*
G01*
X11682040Y-10509785D01*
X11682040Y-10397705D01*
X11794120Y-10397705D01*
X11794120Y-10509785D01*
G37*
G36*
X11794120Y-10641865D02*
G01*
X11682040Y-10641865D01*
X11682040Y-10529785D01*
X11794120Y-10529785D01*
X11794120Y-10641865D01*
G37*
G36*
X11926200Y-10509785D02*
G01*
X11814120Y-10509785D01*
X11814120Y-10397705D01*
X11926200Y-10397705D01*
X11926200Y-10509785D01*
G37*
G36*
X11926200Y-10641865D02*
G01*
X11814120Y-10641865D01*
X11814120Y-10529785D01*
X11926200Y-10529785D01*
X11926200Y-10641865D01*
G37*
D11*
%TO.C,D5*%
X14679300Y-11319940D02*
X14679500Y-11319940D01*
X14679800Y-11320040D01*
X14680000Y-11320040D01*
X14680300Y-11320140D01*
X14680500Y-11320240D01*
X14680800Y-11320340D01*
X14681000Y-11320540D01*
X14681200Y-11320640D01*
X14681400Y-11320840D01*
X14681600Y-11320940D01*
X14681800Y-11321140D01*
X14682000Y-11321340D01*
X14682200Y-11321540D01*
X14682400Y-11321740D01*
X14682500Y-11321940D01*
X14682700Y-11322140D01*
X14682800Y-11322340D01*
X14683000Y-11322540D01*
X14683100Y-11322840D01*
X14683200Y-11323040D01*
X14683300Y-11323340D01*
X14683300Y-11323540D01*
X14683400Y-11323840D01*
X14683400Y-11324040D01*
X14683500Y-11324340D01*
X14683500Y-11324540D01*
X14683500Y-11324840D01*
X14683500Y-11335840D01*
X14683500Y-11336140D01*
X14683500Y-11336340D01*
X14683400Y-11336640D01*
X14683400Y-11336840D01*
X14683300Y-11337140D01*
X14683300Y-11337340D01*
X14683200Y-11337640D01*
X14683100Y-11337840D01*
X14683000Y-11338140D01*
X14682800Y-11338340D01*
X14682700Y-11338540D01*
X14682500Y-11338740D01*
X14682400Y-11338940D01*
X14682200Y-11339140D01*
X14682000Y-11339340D01*
X14681800Y-11339540D01*
X14681600Y-11339740D01*
X14681400Y-11339840D01*
X14681200Y-11340040D01*
X14681000Y-11340140D01*
X14680800Y-11340340D01*
X14680500Y-11340440D01*
X14680300Y-11340540D01*
X14680000Y-11340640D01*
X14679800Y-11340640D01*
X14679500Y-11340740D01*
X14679300Y-11340740D01*
X14679000Y-11340840D01*
X14678800Y-11340840D01*
X14678500Y-11340840D01*
X14667500Y-11340840D01*
X14667200Y-11340840D01*
X14667000Y-11340840D01*
X14666700Y-11340740D01*
X14666500Y-11340740D01*
X14666200Y-11340640D01*
X14666000Y-11340640D01*
X14665700Y-11340540D01*
X14665500Y-11340440D01*
X14665200Y-11340340D01*
X14665000Y-11340140D01*
X14664800Y-11340040D01*
X14664600Y-11339840D01*
X14664400Y-11339740D01*
X14664200Y-11339540D01*
X14664000Y-11339340D01*
X14663800Y-11339140D01*
X14663600Y-11338940D01*
X14663500Y-11338740D01*
X14663300Y-11338540D01*
X14663200Y-11338340D01*
X14663000Y-11338140D01*
X14662900Y-11337840D01*
X14662800Y-11337640D01*
X14662700Y-11337340D01*
X14662700Y-11337140D01*
X14662600Y-11336840D01*
X14662600Y-11336640D01*
X14662500Y-11336340D01*
X14662500Y-11336140D01*
X14662500Y-11335840D01*
X14662500Y-11324840D01*
X14662500Y-11324540D01*
X14662500Y-11324340D01*
X14662600Y-11324040D01*
X14662600Y-11323840D01*
X14662700Y-11323540D01*
X14662700Y-11323340D01*
X14662800Y-11323040D01*
X14662900Y-11322840D01*
X14663000Y-11322540D01*
X14663200Y-11322340D01*
X14663300Y-11322140D01*
X14663500Y-11321940D01*
X14663600Y-11321740D01*
X14663800Y-11321540D01*
X14664000Y-11321340D01*
X14664200Y-11321140D01*
X14664400Y-11320940D01*
X14664600Y-11320840D01*
X14664800Y-11320640D01*
X14665000Y-11320540D01*
X14665200Y-11320340D01*
X14665500Y-11320240D01*
X14665700Y-11320140D01*
X14666000Y-11320040D01*
X14666200Y-11320040D01*
X14666500Y-11319940D01*
X14666700Y-11319940D01*
X14667000Y-11319840D01*
X14667200Y-11319840D01*
X14667500Y-11319840D01*
X14678500Y-11319840D01*
X14678800Y-11319840D01*
X14679000Y-11319840D01*
X14679300Y-11319940D01*
G36*
X14679300Y-11319940D02*
G01*
X14679500Y-11319940D01*
X14679800Y-11320040D01*
X14680000Y-11320040D01*
X14680300Y-11320140D01*
X14680500Y-11320240D01*
X14680800Y-11320340D01*
X14681000Y-11320540D01*
X14681200Y-11320640D01*
X14681400Y-11320840D01*
X14681600Y-11320940D01*
X14681800Y-11321140D01*
X14682000Y-11321340D01*
X14682200Y-11321540D01*
X14682400Y-11321740D01*
X14682500Y-11321940D01*
X14682700Y-11322140D01*
X14682800Y-11322340D01*
X14683000Y-11322540D01*
X14683100Y-11322840D01*
X14683200Y-11323040D01*
X14683300Y-11323340D01*
X14683300Y-11323540D01*
X14683400Y-11323840D01*
X14683400Y-11324040D01*
X14683500Y-11324340D01*
X14683500Y-11324540D01*
X14683500Y-11324840D01*
X14683500Y-11335840D01*
X14683500Y-11336140D01*
X14683500Y-11336340D01*
X14683400Y-11336640D01*
X14683400Y-11336840D01*
X14683300Y-11337140D01*
X14683300Y-11337340D01*
X14683200Y-11337640D01*
X14683100Y-11337840D01*
X14683000Y-11338140D01*
X14682800Y-11338340D01*
X14682700Y-11338540D01*
X14682500Y-11338740D01*
X14682400Y-11338940D01*
X14682200Y-11339140D01*
X14682000Y-11339340D01*
X14681800Y-11339540D01*
X14681600Y-11339740D01*
X14681400Y-11339840D01*
X14681200Y-11340040D01*
X14681000Y-11340140D01*
X14680800Y-11340340D01*
X14680500Y-11340440D01*
X14680300Y-11340540D01*
X14680000Y-11340640D01*
X14679800Y-11340640D01*
X14679500Y-11340740D01*
X14679300Y-11340740D01*
X14679000Y-11340840D01*
X14678800Y-11340840D01*
X14678500Y-11340840D01*
X14667500Y-11340840D01*
X14667200Y-11340840D01*
X14667000Y-11340840D01*
X14666700Y-11340740D01*
X14666500Y-11340740D01*
X14666200Y-11340640D01*
X14666000Y-11340640D01*
X14665700Y-11340540D01*
X14665500Y-11340440D01*
X14665200Y-11340340D01*
X14665000Y-11340140D01*
X14664800Y-11340040D01*
X14664600Y-11339840D01*
X14664400Y-11339740D01*
X14664200Y-11339540D01*
X14664000Y-11339340D01*
X14663800Y-11339140D01*
X14663600Y-11338940D01*
X14663500Y-11338740D01*
X14663300Y-11338540D01*
X14663200Y-11338340D01*
X14663000Y-11338140D01*
X14662900Y-11337840D01*
X14662800Y-11337640D01*
X14662700Y-11337340D01*
X14662700Y-11337140D01*
X14662600Y-11336840D01*
X14662600Y-11336640D01*
X14662500Y-11336340D01*
X14662500Y-11336140D01*
X14662500Y-11335840D01*
X14662500Y-11324840D01*
X14662500Y-11324540D01*
X14662500Y-11324340D01*
X14662600Y-11324040D01*
X14662600Y-11323840D01*
X14662700Y-11323540D01*
X14662700Y-11323340D01*
X14662800Y-11323040D01*
X14662900Y-11322840D01*
X14663000Y-11322540D01*
X14663200Y-11322340D01*
X14663300Y-11322140D01*
X14663500Y-11321940D01*
X14663600Y-11321740D01*
X14663800Y-11321540D01*
X14664000Y-11321340D01*
X14664200Y-11321140D01*
X14664400Y-11320940D01*
X14664600Y-11320840D01*
X14664800Y-11320640D01*
X14665000Y-11320540D01*
X14665200Y-11320340D01*
X14665500Y-11320240D01*
X14665700Y-11320140D01*
X14666000Y-11320040D01*
X14666200Y-11320040D01*
X14666500Y-11319940D01*
X14666700Y-11319940D01*
X14667000Y-11319840D01*
X14667200Y-11319840D01*
X14667500Y-11319840D01*
X14678500Y-11319840D01*
X14678800Y-11319840D01*
X14679000Y-11319840D01*
X14679300Y-11319940D01*
G37*
X14729300Y-11294940D02*
X14729500Y-11294940D01*
X14729800Y-11295040D01*
X14730000Y-11295040D01*
X14730300Y-11295140D01*
X14730500Y-11295240D01*
X14730800Y-11295340D01*
X14731000Y-11295540D01*
X14731200Y-11295640D01*
X14731400Y-11295840D01*
X14731600Y-11295940D01*
X14731800Y-11296140D01*
X14732000Y-11296340D01*
X14732200Y-11296540D01*
X14732400Y-11296740D01*
X14732500Y-11296940D01*
X14732700Y-11297140D01*
X14732800Y-11297340D01*
X14733000Y-11297540D01*
X14733100Y-11297840D01*
X14733200Y-11298040D01*
X14733300Y-11298340D01*
X14733300Y-11298540D01*
X14733400Y-11298840D01*
X14733400Y-11299040D01*
X14733500Y-11299340D01*
X14733500Y-11299540D01*
X14733500Y-11299840D01*
X14733500Y-11310840D01*
X14733500Y-11311140D01*
X14733500Y-11311340D01*
X14733400Y-11311640D01*
X14733400Y-11311840D01*
X14733300Y-11312140D01*
X14733300Y-11312340D01*
X14733200Y-11312640D01*
X14733100Y-11312840D01*
X14733000Y-11313140D01*
X14732800Y-11313340D01*
X14732700Y-11313540D01*
X14732500Y-11313740D01*
X14732400Y-11313940D01*
X14732200Y-11314140D01*
X14732000Y-11314340D01*
X14731800Y-11314540D01*
X14731600Y-11314740D01*
X14731400Y-11314840D01*
X14731200Y-11315040D01*
X14731000Y-11315140D01*
X14730800Y-11315340D01*
X14730500Y-11315440D01*
X14730300Y-11315540D01*
X14730000Y-11315640D01*
X14729800Y-11315640D01*
X14729500Y-11315740D01*
X14729300Y-11315740D01*
X14729000Y-11315840D01*
X14728800Y-11315840D01*
X14728500Y-11315840D01*
X14717500Y-11315840D01*
X14717200Y-11315840D01*
X14717000Y-11315840D01*
X14716700Y-11315740D01*
X14716500Y-11315740D01*
X14716200Y-11315640D01*
X14716000Y-11315640D01*
X14715700Y-11315540D01*
X14715500Y-11315440D01*
X14715200Y-11315340D01*
X14715000Y-11315140D01*
X14714800Y-11315040D01*
X14714600Y-11314840D01*
X14714400Y-11314740D01*
X14714200Y-11314540D01*
X14714000Y-11314340D01*
X14713800Y-11314140D01*
X14713600Y-11313940D01*
X14713500Y-11313740D01*
X14713300Y-11313540D01*
X14713200Y-11313340D01*
X14713000Y-11313140D01*
X14712900Y-11312840D01*
X14712800Y-11312640D01*
X14712700Y-11312340D01*
X14712700Y-11312140D01*
X14712600Y-11311840D01*
X14712600Y-11311640D01*
X14712500Y-11311340D01*
X14712500Y-11311140D01*
X14712500Y-11310840D01*
X14712500Y-11299840D01*
X14712500Y-11299540D01*
X14712500Y-11299340D01*
X14712600Y-11299040D01*
X14712600Y-11298840D01*
X14712700Y-11298540D01*
X14712700Y-11298340D01*
X14712800Y-11298040D01*
X14712900Y-11297840D01*
X14713000Y-11297540D01*
X14713200Y-11297340D01*
X14713300Y-11297140D01*
X14713500Y-11296940D01*
X14713600Y-11296740D01*
X14713800Y-11296540D01*
X14714000Y-11296340D01*
X14714200Y-11296140D01*
X14714400Y-11295940D01*
X14714600Y-11295840D01*
X14714800Y-11295640D01*
X14715000Y-11295540D01*
X14715200Y-11295340D01*
X14715500Y-11295240D01*
X14715700Y-11295140D01*
X14716000Y-11295040D01*
X14716200Y-11295040D01*
X14716500Y-11294940D01*
X14716700Y-11294940D01*
X14717000Y-11294840D01*
X14717200Y-11294840D01*
X14717500Y-11294840D01*
X14728500Y-11294840D01*
X14728800Y-11294840D01*
X14729000Y-11294840D01*
X14729300Y-11294940D01*
G36*
X14729300Y-11294940D02*
G01*
X14729500Y-11294940D01*
X14729800Y-11295040D01*
X14730000Y-11295040D01*
X14730300Y-11295140D01*
X14730500Y-11295240D01*
X14730800Y-11295340D01*
X14731000Y-11295540D01*
X14731200Y-11295640D01*
X14731400Y-11295840D01*
X14731600Y-11295940D01*
X14731800Y-11296140D01*
X14732000Y-11296340D01*
X14732200Y-11296540D01*
X14732400Y-11296740D01*
X14732500Y-11296940D01*
X14732700Y-11297140D01*
X14732800Y-11297340D01*
X14733000Y-11297540D01*
X14733100Y-11297840D01*
X14733200Y-11298040D01*
X14733300Y-11298340D01*
X14733300Y-11298540D01*
X14733400Y-11298840D01*
X14733400Y-11299040D01*
X14733500Y-11299340D01*
X14733500Y-11299540D01*
X14733500Y-11299840D01*
X14733500Y-11310840D01*
X14733500Y-11311140D01*
X14733500Y-11311340D01*
X14733400Y-11311640D01*
X14733400Y-11311840D01*
X14733300Y-11312140D01*
X14733300Y-11312340D01*
X14733200Y-11312640D01*
X14733100Y-11312840D01*
X14733000Y-11313140D01*
X14732800Y-11313340D01*
X14732700Y-11313540D01*
X14732500Y-11313740D01*
X14732400Y-11313940D01*
X14732200Y-11314140D01*
X14732000Y-11314340D01*
X14731800Y-11314540D01*
X14731600Y-11314740D01*
X14731400Y-11314840D01*
X14731200Y-11315040D01*
X14731000Y-11315140D01*
X14730800Y-11315340D01*
X14730500Y-11315440D01*
X14730300Y-11315540D01*
X14730000Y-11315640D01*
X14729800Y-11315640D01*
X14729500Y-11315740D01*
X14729300Y-11315740D01*
X14729000Y-11315840D01*
X14728800Y-11315840D01*
X14728500Y-11315840D01*
X14717500Y-11315840D01*
X14717200Y-11315840D01*
X14717000Y-11315840D01*
X14716700Y-11315740D01*
X14716500Y-11315740D01*
X14716200Y-11315640D01*
X14716000Y-11315640D01*
X14715700Y-11315540D01*
X14715500Y-11315440D01*
X14715200Y-11315340D01*
X14715000Y-11315140D01*
X14714800Y-11315040D01*
X14714600Y-11314840D01*
X14714400Y-11314740D01*
X14714200Y-11314540D01*
X14714000Y-11314340D01*
X14713800Y-11314140D01*
X14713600Y-11313940D01*
X14713500Y-11313740D01*
X14713300Y-11313540D01*
X14713200Y-11313340D01*
X14713000Y-11313140D01*
X14712900Y-11312840D01*
X14712800Y-11312640D01*
X14712700Y-11312340D01*
X14712700Y-11312140D01*
X14712600Y-11311840D01*
X14712600Y-11311640D01*
X14712500Y-11311340D01*
X14712500Y-11311140D01*
X14712500Y-11310840D01*
X14712500Y-11299840D01*
X14712500Y-11299540D01*
X14712500Y-11299340D01*
X14712600Y-11299040D01*
X14712600Y-11298840D01*
X14712700Y-11298540D01*
X14712700Y-11298340D01*
X14712800Y-11298040D01*
X14712900Y-11297840D01*
X14713000Y-11297540D01*
X14713200Y-11297340D01*
X14713300Y-11297140D01*
X14713500Y-11296940D01*
X14713600Y-11296740D01*
X14713800Y-11296540D01*
X14714000Y-11296340D01*
X14714200Y-11296140D01*
X14714400Y-11295940D01*
X14714600Y-11295840D01*
X14714800Y-11295640D01*
X14715000Y-11295540D01*
X14715200Y-11295340D01*
X14715500Y-11295240D01*
X14715700Y-11295140D01*
X14716000Y-11295040D01*
X14716200Y-11295040D01*
X14716500Y-11294940D01*
X14716700Y-11294940D01*
X14717000Y-11294840D01*
X14717200Y-11294840D01*
X14717500Y-11294840D01*
X14728500Y-11294840D01*
X14728800Y-11294840D01*
X14729000Y-11294840D01*
X14729300Y-11294940D01*
G37*
X14779300Y-11319940D02*
X14779500Y-11319940D01*
X14779800Y-11320040D01*
X14780000Y-11320040D01*
X14780300Y-11320140D01*
X14780500Y-11320240D01*
X14780800Y-11320340D01*
X14781000Y-11320540D01*
X14781200Y-11320640D01*
X14781400Y-11320840D01*
X14781600Y-11320940D01*
X14781800Y-11321140D01*
X14782000Y-11321340D01*
X14782200Y-11321540D01*
X14782400Y-11321740D01*
X14782500Y-11321940D01*
X14782700Y-11322140D01*
X14782800Y-11322340D01*
X14783000Y-11322540D01*
X14783100Y-11322840D01*
X14783200Y-11323040D01*
X14783300Y-11323340D01*
X14783300Y-11323540D01*
X14783400Y-11323840D01*
X14783400Y-11324040D01*
X14783500Y-11324340D01*
X14783500Y-11324540D01*
X14783500Y-11324840D01*
X14783500Y-11335840D01*
X14783500Y-11336140D01*
X14783500Y-11336340D01*
X14783400Y-11336640D01*
X14783400Y-11336840D01*
X14783300Y-11337140D01*
X14783300Y-11337340D01*
X14783200Y-11337640D01*
X14783100Y-11337840D01*
X14783000Y-11338140D01*
X14782800Y-11338340D01*
X14782700Y-11338540D01*
X14782500Y-11338740D01*
X14782400Y-11338940D01*
X14782200Y-11339140D01*
X14782000Y-11339340D01*
X14781800Y-11339540D01*
X14781600Y-11339740D01*
X14781400Y-11339840D01*
X14781200Y-11340040D01*
X14781000Y-11340140D01*
X14780800Y-11340340D01*
X14780500Y-11340440D01*
X14780300Y-11340540D01*
X14780000Y-11340640D01*
X14779800Y-11340640D01*
X14779500Y-11340740D01*
X14779300Y-11340740D01*
X14779000Y-11340840D01*
X14778800Y-11340840D01*
X14778500Y-11340840D01*
X14767500Y-11340840D01*
X14767200Y-11340840D01*
X14767000Y-11340840D01*
X14766700Y-11340740D01*
X14766500Y-11340740D01*
X14766200Y-11340640D01*
X14766000Y-11340640D01*
X14765700Y-11340540D01*
X14765500Y-11340440D01*
X14765200Y-11340340D01*
X14765000Y-11340140D01*
X14764800Y-11340040D01*
X14764600Y-11339840D01*
X14764400Y-11339740D01*
X14764200Y-11339540D01*
X14764000Y-11339340D01*
X14763800Y-11339140D01*
X14763600Y-11338940D01*
X14763500Y-11338740D01*
X14763300Y-11338540D01*
X14763200Y-11338340D01*
X14763000Y-11338140D01*
X14762900Y-11337840D01*
X14762800Y-11337640D01*
X14762700Y-11337340D01*
X14762700Y-11337140D01*
X14762600Y-11336840D01*
X14762600Y-11336640D01*
X14762500Y-11336340D01*
X14762500Y-11336140D01*
X14762500Y-11335840D01*
X14762500Y-11324840D01*
X14762500Y-11324540D01*
X14762500Y-11324340D01*
X14762600Y-11324040D01*
X14762600Y-11323840D01*
X14762700Y-11323540D01*
X14762700Y-11323340D01*
X14762800Y-11323040D01*
X14762900Y-11322840D01*
X14763000Y-11322540D01*
X14763200Y-11322340D01*
X14763300Y-11322140D01*
X14763500Y-11321940D01*
X14763600Y-11321740D01*
X14763800Y-11321540D01*
X14764000Y-11321340D01*
X14764200Y-11321140D01*
X14764400Y-11320940D01*
X14764600Y-11320840D01*
X14764800Y-11320640D01*
X14765000Y-11320540D01*
X14765200Y-11320340D01*
X14765500Y-11320240D01*
X14765700Y-11320140D01*
X14766000Y-11320040D01*
X14766200Y-11320040D01*
X14766500Y-11319940D01*
X14766700Y-11319940D01*
X14767000Y-11319840D01*
X14767200Y-11319840D01*
X14767500Y-11319840D01*
X14778500Y-11319840D01*
X14778800Y-11319840D01*
X14779000Y-11319840D01*
X14779300Y-11319940D01*
G36*
X14779300Y-11319940D02*
G01*
X14779500Y-11319940D01*
X14779800Y-11320040D01*
X14780000Y-11320040D01*
X14780300Y-11320140D01*
X14780500Y-11320240D01*
X14780800Y-11320340D01*
X14781000Y-11320540D01*
X14781200Y-11320640D01*
X14781400Y-11320840D01*
X14781600Y-11320940D01*
X14781800Y-11321140D01*
X14782000Y-11321340D01*
X14782200Y-11321540D01*
X14782400Y-11321740D01*
X14782500Y-11321940D01*
X14782700Y-11322140D01*
X14782800Y-11322340D01*
X14783000Y-11322540D01*
X14783100Y-11322840D01*
X14783200Y-11323040D01*
X14783300Y-11323340D01*
X14783300Y-11323540D01*
X14783400Y-11323840D01*
X14783400Y-11324040D01*
X14783500Y-11324340D01*
X14783500Y-11324540D01*
X14783500Y-11324840D01*
X14783500Y-11335840D01*
X14783500Y-11336140D01*
X14783500Y-11336340D01*
X14783400Y-11336640D01*
X14783400Y-11336840D01*
X14783300Y-11337140D01*
X14783300Y-11337340D01*
X14783200Y-11337640D01*
X14783100Y-11337840D01*
X14783000Y-11338140D01*
X14782800Y-11338340D01*
X14782700Y-11338540D01*
X14782500Y-11338740D01*
X14782400Y-11338940D01*
X14782200Y-11339140D01*
X14782000Y-11339340D01*
X14781800Y-11339540D01*
X14781600Y-11339740D01*
X14781400Y-11339840D01*
X14781200Y-11340040D01*
X14781000Y-11340140D01*
X14780800Y-11340340D01*
X14780500Y-11340440D01*
X14780300Y-11340540D01*
X14780000Y-11340640D01*
X14779800Y-11340640D01*
X14779500Y-11340740D01*
X14779300Y-11340740D01*
X14779000Y-11340840D01*
X14778800Y-11340840D01*
X14778500Y-11340840D01*
X14767500Y-11340840D01*
X14767200Y-11340840D01*
X14767000Y-11340840D01*
X14766700Y-11340740D01*
X14766500Y-11340740D01*
X14766200Y-11340640D01*
X14766000Y-11340640D01*
X14765700Y-11340540D01*
X14765500Y-11340440D01*
X14765200Y-11340340D01*
X14765000Y-11340140D01*
X14764800Y-11340040D01*
X14764600Y-11339840D01*
X14764400Y-11339740D01*
X14764200Y-11339540D01*
X14764000Y-11339340D01*
X14763800Y-11339140D01*
X14763600Y-11338940D01*
X14763500Y-11338740D01*
X14763300Y-11338540D01*
X14763200Y-11338340D01*
X14763000Y-11338140D01*
X14762900Y-11337840D01*
X14762800Y-11337640D01*
X14762700Y-11337340D01*
X14762700Y-11337140D01*
X14762600Y-11336840D01*
X14762600Y-11336640D01*
X14762500Y-11336340D01*
X14762500Y-11336140D01*
X14762500Y-11335840D01*
X14762500Y-11324840D01*
X14762500Y-11324540D01*
X14762500Y-11324340D01*
X14762600Y-11324040D01*
X14762600Y-11323840D01*
X14762700Y-11323540D01*
X14762700Y-11323340D01*
X14762800Y-11323040D01*
X14762900Y-11322840D01*
X14763000Y-11322540D01*
X14763200Y-11322340D01*
X14763300Y-11322140D01*
X14763500Y-11321940D01*
X14763600Y-11321740D01*
X14763800Y-11321540D01*
X14764000Y-11321340D01*
X14764200Y-11321140D01*
X14764400Y-11320940D01*
X14764600Y-11320840D01*
X14764800Y-11320640D01*
X14765000Y-11320540D01*
X14765200Y-11320340D01*
X14765500Y-11320240D01*
X14765700Y-11320140D01*
X14766000Y-11320040D01*
X14766200Y-11320040D01*
X14766500Y-11319940D01*
X14766700Y-11319940D01*
X14767000Y-11319840D01*
X14767200Y-11319840D01*
X14767500Y-11319840D01*
X14778500Y-11319840D01*
X14778800Y-11319840D01*
X14779000Y-11319840D01*
X14779300Y-11319940D01*
G37*
%TO.C,J7*%
X11152418Y-11424000D02*
X11172418Y-11444000D01*
X11262417Y-11444000D01*
X11262417Y-11544000D01*
X11052418Y-11544000D01*
X11052418Y-11334000D01*
X11152418Y-11334000D01*
X11152418Y-11424000D01*
G36*
X11152418Y-11424000D02*
G01*
X11172418Y-11444000D01*
X11262417Y-11444000D01*
X11262417Y-11544000D01*
X11052418Y-11544000D01*
X11052418Y-11334000D01*
X11152418Y-11334000D01*
X11152418Y-11424000D01*
G37*
%TO.C,J9*%
X13652417Y-9654000D02*
X13552417Y-9654000D01*
X13552417Y-9564000D01*
X13532417Y-9544000D01*
X13442417Y-9544000D01*
X13442417Y-9444000D01*
X13652417Y-9444000D01*
X13652417Y-9654000D01*
G36*
X13652417Y-9654000D02*
G01*
X13552417Y-9654000D01*
X13552417Y-9564000D01*
X13532417Y-9544000D01*
X13442417Y-9544000D01*
X13442417Y-9444000D01*
X13652417Y-9444000D01*
X13652417Y-9654000D01*
G37*
%TO.C,J8*%
X13652417Y-11544000D02*
X13442417Y-11544000D01*
X13442417Y-11444000D01*
X13532417Y-11444000D01*
X13552417Y-11424000D01*
X13552417Y-11334000D01*
X13652417Y-11334000D01*
X13652417Y-11544000D01*
G36*
X13652417Y-11544000D02*
G01*
X13442417Y-11544000D01*
X13442417Y-11444000D01*
X13532417Y-11444000D01*
X13552417Y-11424000D01*
X13552417Y-11334000D01*
X13652417Y-11334000D01*
X13652417Y-11544000D01*
G37*
%TO.C,J10*%
X11262417Y-9544000D02*
X11172418Y-9544000D01*
X11152418Y-9564000D01*
X11152418Y-9654000D01*
X11052418Y-9654000D01*
X11052418Y-9444000D01*
X11262417Y-9444000D01*
X11262417Y-9544000D01*
G36*
X11262417Y-9544000D02*
G01*
X11172418Y-9544000D01*
X11152418Y-9564000D01*
X11152418Y-9654000D01*
X11052418Y-9654000D01*
X11052418Y-9444000D01*
X11262417Y-9444000D01*
X11262417Y-9544000D01*
G37*
%TD*%
D12*
%TO.C,MCU1*%
X14847177Y-9835481D03*
X14818893Y-9863766D03*
X14790608Y-9892050D03*
X14762324Y-9920334D03*
X14734040Y-9948618D03*
X14705755Y-9976903D03*
X14677471Y-10005187D03*
X14649187Y-10033471D03*
X14620903Y-10061756D03*
X14592618Y-10090040D03*
X14564334Y-10118324D03*
X14536050Y-10146608D03*
X14507766Y-10174893D03*
X14479481Y-10203177D03*
D13*
X14479481Y-10316823D03*
X14507766Y-10345107D03*
X14536050Y-10373392D03*
X14564334Y-10401676D03*
X14592618Y-10429960D03*
X14620903Y-10458245D03*
X14649187Y-10486529D03*
X14677471Y-10514813D03*
X14705755Y-10543097D03*
X14734040Y-10571382D03*
X14762324Y-10599666D03*
X14790608Y-10627950D03*
X14818893Y-10656234D03*
X14847177Y-10684519D03*
D12*
X14960823Y-10684519D03*
X14989107Y-10656234D03*
X15017392Y-10627950D03*
X15045676Y-10599666D03*
X15073960Y-10571382D03*
X15102244Y-10543097D03*
X15130529Y-10514813D03*
X15158813Y-10486529D03*
X15187097Y-10458245D03*
X15215382Y-10429960D03*
X15243666Y-10401676D03*
X15271950Y-10373392D03*
X15300234Y-10345107D03*
X15328519Y-10316823D03*
D13*
X15328519Y-10203177D03*
X15300234Y-10174893D03*
X15271950Y-10146608D03*
X15243666Y-10118324D03*
X15215382Y-10090040D03*
X15187097Y-10061756D03*
X15158813Y-10033471D03*
X15130529Y-10005187D03*
X15102244Y-9976903D03*
X15073960Y-9948618D03*
X15045676Y-9920334D03*
X15017392Y-9892050D03*
X14989107Y-9863766D03*
X14960823Y-9835481D03*
D14*
X14904000Y-10260000D03*
%TD*%
D15*
%TO.C,U1*%
X12692036Y-10725174D03*
X12742036Y-10725174D03*
X12792036Y-10725174D03*
X12842036Y-10725174D03*
X12892036Y-10725174D03*
X12942036Y-10725174D03*
D16*
X13013886Y-10653324D03*
X13013886Y-10603324D03*
X13013886Y-10553324D03*
X13013886Y-10503324D03*
X13013886Y-10453324D03*
X13013886Y-10403324D03*
D15*
X12942036Y-10331474D03*
X12892036Y-10331474D03*
X12842036Y-10331474D03*
X12792036Y-10331474D03*
X12742036Y-10331474D03*
X12692036Y-10331474D03*
D16*
X12620186Y-10403324D03*
X12620186Y-10453324D03*
X12620186Y-10503324D03*
X12620186Y-10553324D03*
X12620186Y-10603324D03*
X12620186Y-10653324D03*
D17*
X12817036Y-10528324D03*
%TD*%
D18*
%TO.C,U3*%
X11612350Y-10422286D03*
X11612350Y-10487285D03*
X11612350Y-10552286D03*
X11612350Y-10617285D03*
D19*
X11706620Y-10711555D03*
X11771620Y-10711555D03*
X11836620Y-10711555D03*
X11901620Y-10711555D03*
D18*
X11995890Y-10617285D03*
X11995890Y-10552286D03*
X11995890Y-10487285D03*
X11995890Y-10422286D03*
D19*
X11901620Y-10328015D03*
X11836620Y-10328015D03*
X11771620Y-10328015D03*
X11706620Y-10328015D03*
D17*
X11804120Y-10519785D03*
%TD*%
D20*
%TO.C,U2*%
X15680736Y-10844710D03*
X15641223Y-10884223D03*
X15711269Y-10954269D03*
X15750782Y-10914756D03*
%TD*%
D21*
%TO.C,U7*%
X14301197Y-9680000D03*
X14301197Y-9585000D03*
X14301197Y-9490000D03*
X14011637Y-9490000D03*
X14011637Y-9585000D03*
X14011637Y-9680000D03*
D22*
X14156417Y-9585000D03*
%TD*%
D23*
%TO.C,J3*%
X16885500Y-11430000D03*
X16775500Y-11390000D03*
X16665500Y-11430000D03*
X16555500Y-11450000D03*
X16445500Y-11430000D03*
X16335500Y-11450000D03*
X16225500Y-11430000D03*
X16115500Y-11430000D03*
D24*
X16196500Y-10375000D03*
X16766500Y-10375000D03*
D25*
X16036500Y-11690000D03*
X17351500Y-11790000D03*
%TD*%
D26*
%TO.C,J6*%
X16457342Y-9126250D03*
X16382342Y-9126250D03*
D27*
X16322342Y-9126250D03*
X16272342Y-9126250D03*
X16222342Y-9126250D03*
X16172342Y-9126250D03*
X16122342Y-9126250D03*
X16072342Y-9126250D03*
X16022342Y-9126250D03*
X15972342Y-9126250D03*
D26*
X15912342Y-9126250D03*
X15837342Y-9126250D03*
D28*
X16287342Y-8706250D03*
X16007342Y-8706250D03*
%TD*%
D29*
%TO.C,L1*%
X13327417Y-9994000D03*
X13037417Y-9994000D03*
%TD*%
D30*
%TO.C,IC1*%
X16495617Y-9662500D03*
X16545617Y-9662500D03*
X16595617Y-9662500D03*
X16595617Y-9494900D03*
X16545617Y-9494900D03*
X16495617Y-9494900D03*
%TD*%
D31*
%TO.C,L4*%
X11472350Y-10489785D03*
X11428350Y-10489785D03*
%TD*%
D32*
%TO.C,R21*%
X13995089Y-11278089D03*
X13916911Y-11199911D03*
%TD*%
D33*
%TO.C,C3*%
X12582386Y-10948624D03*
X12468086Y-10948624D03*
%TD*%
D34*
%TO.C,R15*%
X15040008Y-11189250D03*
X15040008Y-11078690D03*
%TD*%
D35*
%TO.C,FL1*%
X12427386Y-10603624D03*
D36*
X12488636Y-10561124D03*
D35*
X12427386Y-10518624D03*
D36*
X12366136Y-10561124D03*
%TD*%
D37*
%TO.C,C22*%
X14914206Y-11076820D03*
X14914206Y-11191120D03*
%TD*%
D38*
%TO.C,U6*%
X14639510Y-9089000D03*
X14639510Y-9216000D03*
X14639510Y-9343000D03*
X14639510Y-9470000D03*
X15368490Y-9470000D03*
X15368490Y-9343000D03*
X15368490Y-9216000D03*
X15368490Y-9089000D03*
%TD*%
D39*
%TO.C,LS1*%
X18822000Y-11434000D03*
X17952000Y-11434000D03*
%TD*%
D40*
%TO.C,C21*%
X11302417Y-10489000D03*
X11302417Y-10374700D03*
%TD*%
D41*
%TO.C,R17*%
X15956977Y-9820000D03*
X15846417Y-9820000D03*
%TD*%
D34*
%TO.C,R22*%
X16373417Y-9419280D03*
X16373417Y-9308720D03*
%TD*%
D42*
%TO.C,C12*%
X15840500Y-11826000D03*
X15840500Y-11646000D03*
%TD*%
D43*
%TO.C,C28*%
X14511072Y-10675428D03*
X14430250Y-10756250D03*
%TD*%
D44*
%TO.C,C16*%
X17376418Y-8710000D03*
X17376418Y-8890000D03*
%TD*%
D43*
%TO.C,C10*%
X15856411Y-10968589D03*
X15775589Y-11049411D03*
%TD*%
D33*
%TO.C,C1*%
X12582386Y-10828624D03*
X12468086Y-10828624D03*
%TD*%
D40*
%TO.C,C20*%
X18876418Y-8977150D03*
X18876418Y-8862850D03*
%TD*%
D42*
%TO.C,C39*%
X19038418Y-9008500D03*
X19038418Y-8828500D03*
%TD*%
D45*
%TO.C,C38*%
X14451617Y-9657520D03*
X14451617Y-9502520D03*
%TD*%
D46*
%TO.C,C32*%
X15430855Y-10420828D03*
X15511677Y-10501650D03*
%TD*%
D33*
%TO.C,C15*%
X12246686Y-10553624D03*
X12132386Y-10553624D03*
%TD*%
D46*
%TO.C,C35*%
X15176178Y-10672178D03*
X15257000Y-10753000D03*
%TD*%
D47*
%TO.C,J5*%
X14674000Y-11490000D03*
X14574000Y-11490000D03*
X14474000Y-11490000D03*
D48*
X14344000Y-11742500D03*
X14804000Y-11742500D03*
%TD*%
D49*
%TO.C,CR3*%
X19346680Y-10194256D03*
X19346680Y-10384756D03*
X19557500Y-10289506D03*
%TD*%
D50*
%TO.C,IC2*%
X17770742Y-11324195D03*
X17580242Y-11324195D03*
X17675492Y-11517235D03*
%TD*%
D51*
%TO.C,D4*%
X15891917Y-9365000D03*
X15570917Y-9365000D03*
%TD*%
D52*
%TO.C,R10*%
X17206418Y-8734720D03*
X17206418Y-8845280D03*
%TD*%
D53*
%TO.C,R13*%
X16655617Y-10180000D03*
X16805618Y-10180000D03*
%TD*%
D34*
%TO.C,R19*%
X14788403Y-11189250D03*
X14788403Y-11078690D03*
%TD*%
D40*
%TO.C,C19*%
X11182417Y-10489000D03*
X11182417Y-10374700D03*
%TD*%
D54*
%TO.C,U14*%
X17721918Y-8724500D03*
X17721918Y-8851500D03*
X17721918Y-8978500D03*
X17721918Y-9105500D03*
X17721918Y-9232500D03*
X17721918Y-9359500D03*
X17721918Y-9486500D03*
X17721918Y-9613500D03*
X18696918Y-9613500D03*
X18696918Y-9486500D03*
X18696918Y-9359500D03*
X18696918Y-9232500D03*
X18696918Y-9105500D03*
X18696918Y-8978500D03*
X18696918Y-8851500D03*
X18696918Y-8724500D03*
%TD*%
D34*
%TO.C,R1*%
X12791556Y-11044184D03*
X12791556Y-10933624D03*
%TD*%
D55*
%TO.C,C30*%
X15250678Y-9910754D03*
X15331501Y-9829932D03*
%TD*%
D56*
%TO.C,J7*%
X11102418Y-11094000D03*
D57*
X11502417Y-11494000D03*
%TD*%
D58*
%TO.C,C5*%
X13148764Y-10394000D03*
X13263064Y-10394000D03*
%TD*%
D59*
%TO.C,R55*%
X19028000Y-10365000D03*
X19028000Y-10215000D03*
%TD*%
D34*
%TO.C,R18*%
X14663000Y-11189250D03*
X14663000Y-11078690D03*
%TD*%
D55*
%TO.C,C33*%
X15334455Y-9994531D03*
X15415277Y-9913708D03*
%TD*%
D58*
%TO.C,C7*%
X13148117Y-10275850D03*
X13262417Y-10275850D03*
%TD*%
D55*
%TO.C,C27*%
X15502007Y-10162083D03*
X15582830Y-10081261D03*
%TD*%
D33*
%TO.C,C17*%
X11702417Y-10841850D03*
X11588117Y-10841850D03*
%TD*%
D60*
%TO.C,D1*%
X13881507Y-9350000D03*
X13881507Y-9300000D03*
X13881507Y-9250000D03*
X13711327Y-9250000D03*
X13711327Y-9300000D03*
X13711327Y-9350000D03*
%TD*%
D43*
%TO.C,C25*%
X15247724Y-9746156D03*
X15166902Y-9826978D03*
%TD*%
D61*
%TO.C,CR1*%
X16970617Y-10180000D03*
X17120617Y-10180000D03*
%TD*%
D37*
%TO.C,C36*%
X17546418Y-9853850D03*
X17546418Y-9968150D03*
%TD*%
D33*
%TO.C,C18*%
X11702417Y-10961850D03*
X11588117Y-10961850D03*
%TD*%
D59*
%TO.C,R6*%
X17780492Y-11165715D03*
X17780492Y-11015715D03*
%TD*%
D62*
%TO.C,U5*%
X16970617Y-9700000D03*
X17120618Y-9700000D03*
X17120618Y-9458700D03*
X16970617Y-9458700D03*
%TD*%
D63*
%TO.C,J2*%
X20200000Y-10190000D03*
X20200000Y-10390000D03*
D64*
X20665000Y-10625000D03*
X20665000Y-9955000D03*
%TD*%
D52*
%TO.C,R23*%
X16023417Y-9308720D03*
X16023417Y-9419280D03*
%TD*%
D65*
%TO.C,R25*%
X15512822Y-10675822D03*
X15591000Y-10754000D03*
%TD*%
D66*
%TO.C,C31*%
X14733911Y-9721911D03*
X14653089Y-9641089D03*
%TD*%
D67*
%TO.C,R4*%
X16810618Y-9809350D03*
X16660617Y-9809350D03*
%TD*%
D41*
%TO.C,R16*%
X15956977Y-9697584D03*
X15846417Y-9697584D03*
%TD*%
D46*
%TO.C,C26*%
X15514837Y-10336518D03*
X15595659Y-10417341D03*
%TD*%
D66*
%TO.C,C41*%
X15509411Y-10835411D03*
X15428589Y-10754589D03*
%TD*%
D40*
%TO.C,C9*%
X12872417Y-10146150D03*
X12872417Y-10031850D03*
%TD*%
D53*
%TO.C,R14*%
X16655618Y-9970000D03*
X16805618Y-9970000D03*
%TD*%
D66*
%TO.C,C29*%
X14500411Y-9970411D03*
X14419589Y-9889589D03*
%TD*%
D34*
%TO.C,R20*%
X15165411Y-11189250D03*
X15165411Y-11078690D03*
%TD*%
D46*
%TO.C,C34*%
X13830333Y-11283844D03*
X13911156Y-11364667D03*
%TD*%
D68*
%TO.C,C2*%
X14144067Y-9079520D03*
X14299067Y-9079520D03*
%TD*%
D69*
%TO.C,XTAL1*%
X13079917Y-10861500D03*
X12934917Y-10861500D03*
X12934917Y-10976500D03*
X13079917Y-10976500D03*
%TD*%
D58*
%TO.C,C6*%
X14164417Y-9337520D03*
X14278717Y-9337520D03*
%TD*%
D41*
%TO.C,R24*%
X14761560Y-8914000D03*
X14651000Y-8914000D03*
%TD*%
D58*
%TO.C,C37*%
X15567117Y-9545000D03*
X15681417Y-9545000D03*
%TD*%
D56*
%TO.C,J9*%
X13602417Y-9894000D03*
D57*
X13202417Y-9494000D03*
%TD*%
D61*
%TO.C,CR2*%
X16970618Y-9970000D03*
X17120618Y-9970000D03*
%TD*%
D70*
%TO.C,D3*%
X16247417Y-9391040D03*
X16197417Y-9391040D03*
X16147418Y-9391040D03*
X16147418Y-9561220D03*
X16197417Y-9561220D03*
X16247417Y-9561220D03*
%TD*%
D57*
%TO.C,J8*%
X13202417Y-11494000D03*
D56*
X13602417Y-11094000D03*
%TD*%
D58*
%TO.C,C4*%
X14164417Y-9217520D03*
X14278717Y-9217520D03*
%TD*%
D37*
%TO.C,C43*%
X17546418Y-8735820D03*
X17546418Y-8850120D03*
%TD*%
D71*
%TO.C,C8*%
X19265000Y-11415000D03*
X19705000Y-11415000D03*
%TD*%
D72*
%TO.C,R7*%
X17570172Y-11015715D03*
X17570172Y-11165715D03*
%TD*%
D73*
%TO.C,XTAL2*%
X14170508Y-11120992D03*
X14319000Y-10972500D03*
X14202327Y-10855827D03*
X14053835Y-11004320D03*
%TD*%
D40*
%TO.C,C42*%
X18877418Y-9967150D03*
X18877418Y-9852850D03*
%TD*%
D55*
%TO.C,C24*%
X15418231Y-10078307D03*
X15499053Y-9997485D03*
%TD*%
D53*
%TO.C,R5*%
X16655617Y-9349350D03*
X16805618Y-9349350D03*
%TD*%
D74*
%TO.C,D2*%
X15599523Y-11245188D03*
X15564168Y-11209832D03*
X15528812Y-11174477D03*
X15408477Y-11294812D03*
X15443832Y-11330168D03*
X15479188Y-11365523D03*
%TD*%
D33*
%TO.C,C40*%
X15368300Y-8915000D03*
X15254000Y-8915000D03*
%TD*%
D75*
%TO.C,U12*%
X17727418Y-9845500D03*
X17727418Y-9972500D03*
X17727418Y-10099500D03*
X17727418Y-10226500D03*
X17727418Y-10353500D03*
X17727418Y-10480500D03*
X17727418Y-10607500D03*
X17727418Y-10734500D03*
X18677417Y-10734500D03*
X18677417Y-10607500D03*
X18677417Y-10480500D03*
X18677417Y-10353500D03*
X18677417Y-10226500D03*
X18677417Y-10099500D03*
X18677417Y-9972500D03*
X18677417Y-9845500D03*
%TD*%
D57*
%TO.C,J10*%
X11502417Y-9494000D03*
D56*
X11102418Y-9894000D03*
%TD*%
D55*
%TO.C,C23*%
X14515250Y-10841250D03*
X14596072Y-10760428D03*
%TD*%
M02*
