%TF.GenerationSoftware,KiCad,Pcbnew,9.0.2+1*%
%TF.CreationDate,2025-07-24T16:09:40+01:00*%
%TF.ProjectId,OBC,4f42432e-6b69-4636-9164-5f7063625858,rev?*%
%TF.SameCoordinates,Original*%
%TF.FileFunction,Drillmap*%
%TF.FilePolarity,Positive*%
%FSLAX45Y45*%
G04 Gerber Fmt 4.5, Leading zero omitted, Abs format (unit mm)*
G04 Created by KiCad (PCBNEW 9.0.2+1) date 2025-07-24 16:09:40*
%MOMM*%
%LPD*%
G01*
G04 APERTURE LIST*
%ADD10C,0.050000*%
%ADD11C,0.200000*%
%ADD12C,0.100000*%
%ADD13C,0.119380*%
%ADD14C,0.140000*%
%ADD15C,0.160000*%
%ADD16C,0.320000*%
G04 APERTURE END LIST*
D10*
X10320000Y-12010000D02*
X20680000Y-12010000D01*
X20680000Y-8510000D02*
G75*
G02*
X21000000Y-8830000I0J-320000D01*
G01*
X10320000Y-12010000D02*
G75*
G02*
X10000000Y-11690000I0J320000D01*
G01*
X21000000Y-11690000D02*
X21000000Y-8830000D01*
X21000000Y-11690000D02*
G75*
G02*
X20680000Y-12010000I-320000J0D01*
G01*
X10000000Y-11690000D02*
X10000000Y-8830000D01*
X20680000Y-8510000D02*
X10320000Y-8510000D01*
X10000000Y-8830000D02*
G75*
G02*
X10320000Y-8510000I320000J0D01*
G01*
D11*
D12*
X10172513Y-11437487D02*
X10192513Y-11457487D01*
X10192513Y-11437487D02*
X10172513Y-11457487D01*
X10175000Y-8684347D02*
X10195000Y-8704347D01*
X10195000Y-8684347D02*
X10175000Y-8704347D01*
X10183119Y-11313744D02*
X10203119Y-11333744D01*
X10203119Y-11313744D02*
X10183119Y-11333744D01*
X10296256Y-11313744D02*
X10316256Y-11333744D01*
X10316256Y-11313744D02*
X10296256Y-11333744D01*
X10306863Y-11190000D02*
X10326863Y-11210000D01*
X10326863Y-11190000D02*
X10306863Y-11210000D01*
X10330000Y-11515000D02*
X10350000Y-11535000D01*
X10350000Y-11515000D02*
X10330000Y-11535000D01*
X10330000Y-11690000D02*
X10350000Y-11710000D01*
X10350000Y-11690000D02*
X10330000Y-11710000D01*
X10410000Y-11435000D02*
X10430000Y-11455000D01*
X10430000Y-11435000D02*
X10410000Y-11455000D01*
X10410000Y-11610000D02*
X10430000Y-11630000D01*
X10430000Y-11610000D02*
X10410000Y-11630000D01*
X10410000Y-11785000D02*
X10430000Y-11805000D01*
X10430000Y-11785000D02*
X10410000Y-11805000D01*
X10420000Y-11190000D02*
X10440000Y-11210000D01*
X10440000Y-11190000D02*
X10420000Y-11210000D01*
X10435000Y-8600000D02*
X10455000Y-8620000D01*
X10455000Y-8600000D02*
X10435000Y-8620000D01*
X10595000Y-11190000D02*
X10615000Y-11210000D01*
X10615000Y-11190000D02*
X10595000Y-11210000D01*
X10600000Y-11435000D02*
X10620000Y-11455000D01*
X10620000Y-11435000D02*
X10600000Y-11455000D01*
X10600000Y-11610000D02*
X10620000Y-11630000D01*
X10620000Y-11610000D02*
X10600000Y-11630000D01*
X10600000Y-11785000D02*
X10620000Y-11805000D01*
X10620000Y-11785000D02*
X10600000Y-11805000D01*
X10680000Y-11530000D02*
X10700000Y-11550000D01*
X10700000Y-11530000D02*
X10680000Y-11550000D01*
X10680000Y-11705000D02*
X10700000Y-11725000D01*
X10700000Y-11705000D02*
X10680000Y-11725000D01*
X10708137Y-11190000D02*
X10728137Y-11210000D01*
X10728137Y-11190000D02*
X10708137Y-11210000D01*
X10718744Y-11313744D02*
X10738744Y-11333744D01*
X10738744Y-11313744D02*
X10718744Y-11333744D01*
X10831881Y-11313744D02*
X10851881Y-11333744D01*
X10851881Y-11313744D02*
X10831881Y-11333744D01*
X10842487Y-11437487D02*
X10862487Y-11457487D01*
X10862487Y-11437487D02*
X10842487Y-11457487D01*
X10875000Y-8684347D02*
X10895000Y-8704347D01*
X10895000Y-8684347D02*
X10875000Y-8704347D01*
X10970000Y-9540000D02*
X10990000Y-9560000D01*
X10990000Y-9540000D02*
X10970000Y-9560000D01*
X10980000Y-9885000D02*
X11000000Y-9905000D01*
X11000000Y-9885000D02*
X10980000Y-9905000D01*
X10980000Y-11087500D02*
X11000000Y-11107500D01*
X11000000Y-11087500D02*
X10980000Y-11107500D01*
X10985000Y-11430000D02*
X11005000Y-11450000D01*
X11005000Y-11430000D02*
X10985000Y-11450000D01*
X11050000Y-8684347D02*
X11070000Y-8704347D01*
X11070000Y-8684347D02*
X11050000Y-8704347D01*
X11135000Y-8600000D02*
X11155000Y-8620000D01*
X11155000Y-8600000D02*
X11135000Y-8620000D01*
X11145000Y-11580000D02*
X11165000Y-11600000D01*
X11165000Y-11580000D02*
X11145000Y-11600000D01*
X11145000Y-11935000D02*
X11165000Y-11955000D01*
X11165000Y-11935000D02*
X11145000Y-11955000D01*
X11146565Y-9380000D02*
X11166565Y-9400000D01*
X11166565Y-9380000D02*
X11146565Y-9400000D01*
X11225000Y-8684347D02*
X11245000Y-8704347D01*
X11245000Y-8684347D02*
X11225000Y-8704347D01*
X11230633Y-10364700D02*
X11250633Y-10384700D01*
X11250633Y-10364700D02*
X11230633Y-10384700D01*
X11310000Y-8600000D02*
X11330000Y-8620000D01*
X11330000Y-8600000D02*
X11310000Y-8620000D01*
X11315000Y-9075000D02*
X11335000Y-9095000D01*
X11335000Y-9075000D02*
X11315000Y-9095000D01*
X11320000Y-11935000D02*
X11340000Y-11955000D01*
X11340000Y-11935000D02*
X11320000Y-11955000D01*
X11400000Y-8684347D02*
X11420000Y-8704347D01*
X11420000Y-8684347D02*
X11400000Y-8704347D01*
X11410000Y-8995000D02*
X11430000Y-9015000D01*
X11430000Y-8995000D02*
X11410000Y-9015000D01*
X11485000Y-8600000D02*
X11505000Y-8620000D01*
X11505000Y-8600000D02*
X11485000Y-8620000D01*
X11490000Y-9075000D02*
X11510000Y-9095000D01*
X11510000Y-9075000D02*
X11490000Y-9095000D01*
X11492308Y-11086621D02*
X11512308Y-11106621D01*
X11512308Y-11086621D02*
X11492308Y-11106621D01*
X11495000Y-11935000D02*
X11515000Y-11955000D01*
X11515000Y-11935000D02*
X11495000Y-11955000D01*
X11567417Y-11064000D02*
X11587417Y-11084000D01*
X11587417Y-11064000D02*
X11567417Y-11084000D01*
X11575000Y-8684347D02*
X11595000Y-8704347D01*
X11595000Y-8684347D02*
X11575000Y-8704347D01*
X11578117Y-10891850D02*
X11598117Y-10911850D01*
X11598117Y-10891850D02*
X11578117Y-10911850D01*
X11585000Y-8995000D02*
X11605000Y-9015000D01*
X11605000Y-8995000D02*
X11585000Y-9015000D01*
X11660000Y-8600000D02*
X11680000Y-8620000D01*
X11680000Y-8600000D02*
X11660000Y-8620000D01*
X11665000Y-9075000D02*
X11685000Y-9095000D01*
X11685000Y-9075000D02*
X11665000Y-9095000D01*
X11670000Y-11935000D02*
X11690000Y-11955000D01*
X11690000Y-11935000D02*
X11670000Y-11955000D01*
X11697386Y-10411752D02*
X11717386Y-10431752D01*
X11717386Y-10411752D02*
X11697386Y-10431752D01*
X11697386Y-10508624D02*
X11717386Y-10528624D01*
X11717386Y-10508624D02*
X11697386Y-10528624D01*
X11697386Y-10605496D02*
X11717386Y-10625496D01*
X11717386Y-10605496D02*
X11697386Y-10625496D01*
X11750000Y-8685000D02*
X11770000Y-8705000D01*
X11770000Y-8685000D02*
X11750000Y-8705000D01*
X11794902Y-10411752D02*
X11814902Y-10431752D01*
X11814902Y-10411752D02*
X11794902Y-10431752D01*
X11794902Y-10508624D02*
X11814902Y-10528624D01*
X11814902Y-10508624D02*
X11794902Y-10528624D01*
X11794902Y-10605496D02*
X11814902Y-10625496D01*
X11814902Y-10605496D02*
X11794902Y-10625496D01*
X11835000Y-8600000D02*
X11855000Y-8620000D01*
X11855000Y-8600000D02*
X11835000Y-8620000D01*
X11845000Y-11935000D02*
X11865000Y-11955000D01*
X11865000Y-11935000D02*
X11845000Y-11955000D01*
X11892417Y-10508624D02*
X11912417Y-10528624D01*
X11912417Y-10508624D02*
X11892417Y-10528624D01*
X11892417Y-10411752D02*
X11912417Y-10431752D01*
X11912417Y-10411752D02*
X11892417Y-10431752D01*
X11892417Y-10605496D02*
X11912417Y-10625496D01*
X11912417Y-10605496D02*
X11892417Y-10625496D01*
X11897417Y-10229000D02*
X11917417Y-10249000D01*
X11917417Y-10229000D02*
X11897417Y-10249000D01*
X11920000Y-10155000D02*
X11940000Y-10175000D01*
X11940000Y-10155000D02*
X11920000Y-10175000D01*
X11925000Y-8685000D02*
X11945000Y-8705000D01*
X11945000Y-8685000D02*
X11925000Y-8705000D01*
X12010000Y-8600000D02*
X12030000Y-8620000D01*
X12030000Y-8600000D02*
X12010000Y-8620000D01*
X12020000Y-11935000D02*
X12040000Y-11955000D01*
X12040000Y-11935000D02*
X12020000Y-11955000D01*
X12055000Y-10045000D02*
X12075000Y-10065000D01*
X12075000Y-10045000D02*
X12055000Y-10065000D01*
X12101526Y-10108109D02*
X12121526Y-10128109D01*
X12121526Y-10108109D02*
X12101526Y-10128109D01*
X12185000Y-8600000D02*
X12205000Y-8620000D01*
X12205000Y-8600000D02*
X12185000Y-8620000D01*
X12190000Y-11040000D02*
X12210000Y-11060000D01*
X12210000Y-11040000D02*
X12190000Y-11060000D01*
X12195000Y-11935000D02*
X12215000Y-11955000D01*
X12215000Y-11935000D02*
X12195000Y-11955000D01*
X12220000Y-9075000D02*
X12240000Y-9095000D01*
X12240000Y-9075000D02*
X12220000Y-9095000D01*
X12262417Y-11014000D02*
X12282417Y-11034000D01*
X12282417Y-11014000D02*
X12262417Y-11034000D01*
X12315000Y-8995000D02*
X12335000Y-9015000D01*
X12335000Y-8995000D02*
X12315000Y-9015000D01*
X12360000Y-8600000D02*
X12380000Y-8620000D01*
X12380000Y-8600000D02*
X12360000Y-8620000D01*
X12370000Y-11935000D02*
X12390000Y-11955000D01*
X12390000Y-11935000D02*
X12370000Y-11955000D01*
X12395000Y-9075000D02*
X12415000Y-9095000D01*
X12415000Y-9075000D02*
X12395000Y-9095000D01*
X12395000Y-9390000D02*
X12415000Y-9410000D01*
X12415000Y-9390000D02*
X12395000Y-9410000D01*
X12395000Y-11575000D02*
X12415000Y-11595000D01*
X12415000Y-11575000D02*
X12395000Y-11595000D01*
X12420000Y-10425000D02*
X12440000Y-10445000D01*
X12440000Y-10425000D02*
X12420000Y-10445000D01*
X12458086Y-10873324D02*
X12478086Y-10893324D01*
X12478086Y-10873324D02*
X12458086Y-10893324D01*
X12458086Y-10998324D02*
X12478086Y-11018324D01*
X12478086Y-10998324D02*
X12458086Y-11018324D01*
X12462417Y-9924000D02*
X12482417Y-9944000D01*
X12482417Y-9924000D02*
X12462417Y-9944000D01*
X12466601Y-9845141D02*
X12486601Y-9865141D01*
X12486601Y-9845141D02*
X12466601Y-9865141D01*
X12490000Y-8995000D02*
X12510000Y-9015000D01*
X12510000Y-8995000D02*
X12490000Y-9015000D01*
X12545000Y-11935000D02*
X12565000Y-11955000D01*
X12565000Y-11935000D02*
X12545000Y-11955000D01*
X12570000Y-9075000D02*
X12590000Y-9095000D01*
X12590000Y-9075000D02*
X12570000Y-9095000D01*
X12646423Y-10876423D02*
X12666423Y-10896423D01*
X12666423Y-10876423D02*
X12646423Y-10896423D01*
X12670498Y-10949891D02*
X12690498Y-10969891D01*
X12690498Y-10949891D02*
X12670498Y-10969891D01*
X12709229Y-10421370D02*
X12729229Y-10441370D01*
X12729229Y-10421370D02*
X12709229Y-10441370D01*
X12709229Y-10518242D02*
X12729229Y-10538242D01*
X12729229Y-10518242D02*
X12709229Y-10538242D01*
X12709229Y-10615113D02*
X12729229Y-10635113D01*
X12729229Y-10615113D02*
X12709229Y-10635113D01*
X12720000Y-11935000D02*
X12740000Y-11955000D01*
X12740000Y-11935000D02*
X12720000Y-11955000D01*
X12747417Y-9924000D02*
X12767417Y-9944000D01*
X12767417Y-9924000D02*
X12747417Y-9944000D01*
X12755273Y-10071862D02*
X12775273Y-10091862D01*
X12775273Y-10071862D02*
X12755273Y-10091862D01*
X12766767Y-9997747D02*
X12786767Y-10017747D01*
X12786767Y-9997747D02*
X12766767Y-10017747D01*
X12773864Y-11290500D02*
X12793864Y-11310500D01*
X12793864Y-11290500D02*
X12773864Y-11310500D01*
X12778536Y-10157120D02*
X12798536Y-10177120D01*
X12798536Y-10157120D02*
X12778536Y-10177120D01*
X12782036Y-10229000D02*
X12802036Y-10249000D01*
X12802036Y-10229000D02*
X12782036Y-10249000D01*
X12805000Y-9870000D02*
X12825000Y-9890000D01*
X12825000Y-9870000D02*
X12805000Y-9890000D01*
X12806744Y-10421370D02*
X12826744Y-10441370D01*
X12826744Y-10421370D02*
X12806744Y-10441370D01*
X12806744Y-10518242D02*
X12826744Y-10538242D01*
X12826744Y-10518242D02*
X12806744Y-10538242D01*
X12806744Y-10615113D02*
X12826744Y-10635113D01*
X12826744Y-10615113D02*
X12806744Y-10635113D01*
X12832417Y-11239000D02*
X12852417Y-11259000D01*
X12852417Y-11239000D02*
X12832417Y-11259000D01*
X12853417Y-9800000D02*
X12873417Y-9820000D01*
X12873417Y-9800000D02*
X12853417Y-9820000D01*
X12862417Y-9974000D02*
X12882417Y-9994000D01*
X12882417Y-9974000D02*
X12862417Y-9994000D01*
X12862417Y-10217683D02*
X12882417Y-10237683D01*
X12882417Y-10217683D02*
X12862417Y-10237683D01*
X12895000Y-11935000D02*
X12915000Y-11955000D01*
X12915000Y-11935000D02*
X12895000Y-11955000D01*
X12904260Y-10518242D02*
X12924260Y-10538242D01*
X12924260Y-10518242D02*
X12904260Y-10538242D01*
X12904260Y-10615113D02*
X12924260Y-10635113D01*
X12924260Y-10615113D02*
X12904260Y-10635113D01*
X12904260Y-10421370D02*
X12924260Y-10441370D01*
X12924260Y-10421370D02*
X12904260Y-10441370D01*
X12912117Y-9851500D02*
X12932117Y-9871500D01*
X12932117Y-9851500D02*
X12912117Y-9871500D01*
X13058693Y-10345275D02*
X13078693Y-10365275D01*
X13078693Y-10345275D02*
X13058693Y-10365275D01*
X13070000Y-11935000D02*
X13090000Y-11955000D01*
X13090000Y-11935000D02*
X13070000Y-11955000D01*
X13105152Y-9810000D02*
X13125152Y-9830000D01*
X13125152Y-9810000D02*
X13105152Y-9830000D01*
X13132417Y-9739000D02*
X13152417Y-9759000D01*
X13152417Y-9739000D02*
X13132417Y-9759000D01*
X13142417Y-10639000D02*
X13162417Y-10659000D01*
X13162417Y-10639000D02*
X13142417Y-10659000D01*
X13152417Y-10339000D02*
X13172417Y-10359000D01*
X13172417Y-10339000D02*
X13152417Y-10359000D01*
X13222417Y-10564824D02*
X13242417Y-10584824D01*
X13242417Y-10564824D02*
X13222417Y-10584824D01*
X13245000Y-11740000D02*
X13265000Y-11760000D01*
X13265000Y-11740000D02*
X13245000Y-11760000D01*
X13245000Y-11935000D02*
X13265000Y-11955000D01*
X13265000Y-11935000D02*
X13245000Y-11955000D01*
X13252417Y-10325850D02*
X13272417Y-10345850D01*
X13272417Y-10325850D02*
X13252417Y-10345850D01*
X13306001Y-10862584D02*
X13326001Y-10882584D01*
X13326001Y-10862584D02*
X13306001Y-10882584D01*
X13340000Y-11660000D02*
X13360000Y-11680000D01*
X13360000Y-11660000D02*
X13340000Y-11680000D01*
X13346417Y-10430000D02*
X13366417Y-10450000D01*
X13366417Y-10430000D02*
X13346417Y-10450000D01*
X13361333Y-10145084D02*
X13381333Y-10165084D01*
X13381333Y-10145084D02*
X13361333Y-10165084D01*
X13420000Y-11740000D02*
X13440000Y-11760000D01*
X13440000Y-11740000D02*
X13420000Y-11760000D01*
X13420000Y-11935000D02*
X13440000Y-11955000D01*
X13440000Y-11935000D02*
X13420000Y-11955000D01*
X13515000Y-11660000D02*
X13535000Y-11680000D01*
X13535000Y-11660000D02*
X13515000Y-11680000D01*
X13540000Y-9285000D02*
X13560000Y-9305000D01*
X13560000Y-9285000D02*
X13540000Y-9305000D01*
X13595000Y-11740000D02*
X13615000Y-11760000D01*
X13615000Y-11740000D02*
X13595000Y-11760000D01*
X13595000Y-11935000D02*
X13615000Y-11955000D01*
X13615000Y-11935000D02*
X13595000Y-11955000D01*
X13605000Y-9155000D02*
X13625000Y-9175000D01*
X13625000Y-9155000D02*
X13605000Y-9175000D01*
X13646417Y-9290000D02*
X13666417Y-9310000D01*
X13666417Y-9290000D02*
X13646417Y-9310000D01*
X13701680Y-10789756D02*
X13721680Y-10809756D01*
X13721680Y-10789756D02*
X13701680Y-10809756D01*
X13711776Y-10865613D02*
X13731776Y-10885613D01*
X13731776Y-10865613D02*
X13711776Y-10885613D01*
X13865000Y-9155000D02*
X13885000Y-9175000D01*
X13885000Y-9155000D02*
X13865000Y-9175000D01*
X13870000Y-11940000D02*
X13890000Y-11960000D01*
X13890000Y-11940000D02*
X13870000Y-11960000D01*
X13891676Y-10650211D02*
X13911676Y-10670211D01*
X13911676Y-10650211D02*
X13891676Y-10670211D01*
X13898044Y-10987941D02*
X13918044Y-11007941D01*
X13918044Y-10987941D02*
X13898044Y-11007941D01*
X13923609Y-9412030D02*
X13943609Y-9432030D01*
X13943609Y-9412030D02*
X13923609Y-9432030D01*
X13933887Y-9275564D02*
X13953887Y-9295564D01*
X13953887Y-9275564D02*
X13933887Y-9295564D01*
X13936575Y-9177407D02*
X13956575Y-9197407D01*
X13956575Y-9177407D02*
X13936575Y-9197407D01*
X14017015Y-10868970D02*
X14037015Y-10888970D01*
X14037015Y-10868970D02*
X14017015Y-10888970D01*
X14024000Y-11140000D02*
X14044000Y-11160000D01*
X14044000Y-11140000D02*
X14024000Y-11160000D01*
X14045000Y-11940000D02*
X14065000Y-11960000D01*
X14065000Y-11940000D02*
X14045000Y-11960000D01*
X14096417Y-9490000D02*
X14116417Y-9510000D01*
X14116417Y-9490000D02*
X14096417Y-9510000D01*
X14096417Y-9577500D02*
X14116417Y-9597500D01*
X14116417Y-9577500D02*
X14096417Y-9597500D01*
X14096417Y-9665000D02*
X14116417Y-9685000D01*
X14116417Y-9665000D02*
X14096417Y-9685000D01*
X14116000Y-10184000D02*
X14136000Y-10204000D01*
X14136000Y-10184000D02*
X14116000Y-10204000D01*
X14135985Y-10750000D02*
X14155985Y-10770000D01*
X14155985Y-10750000D02*
X14135985Y-10770000D01*
X14154417Y-9148520D02*
X14174417Y-9168520D01*
X14174417Y-9148520D02*
X14154417Y-9168520D01*
X14154417Y-9268520D02*
X14174417Y-9288520D01*
X14174417Y-9268520D02*
X14154417Y-9288520D01*
X14175029Y-11268970D02*
X14195029Y-11288970D01*
X14195029Y-11268970D02*
X14175029Y-11288970D01*
X14191417Y-9490000D02*
X14211417Y-9510000D01*
X14211417Y-9490000D02*
X14191417Y-9510000D01*
X14191417Y-9577500D02*
X14211417Y-9597500D01*
X14211417Y-9577500D02*
X14191417Y-9597500D01*
X14191417Y-9665000D02*
X14211417Y-9685000D01*
X14211417Y-9665000D02*
X14191417Y-9685000D01*
X14210000Y-11940000D02*
X14230000Y-11960000D01*
X14230000Y-11940000D02*
X14210000Y-11960000D01*
X14247000Y-10732000D02*
X14267000Y-10752000D01*
X14267000Y-10732000D02*
X14247000Y-10752000D01*
X14266000Y-10309000D02*
X14286000Y-10329000D01*
X14286000Y-10309000D02*
X14266000Y-10329000D01*
X14271000Y-10009000D02*
X14291000Y-10029000D01*
X14291000Y-10009000D02*
X14271000Y-10029000D01*
X14279741Y-10493324D02*
X14299741Y-10513324D01*
X14299741Y-10493324D02*
X14279741Y-10513324D01*
X14281000Y-10659000D02*
X14301000Y-10679000D01*
X14301000Y-10659000D02*
X14281000Y-10679000D01*
X14291000Y-10169000D02*
X14311000Y-10189000D01*
X14311000Y-10169000D02*
X14291000Y-10189000D01*
X14294000Y-11150000D02*
X14314000Y-11170000D01*
X14314000Y-11150000D02*
X14294000Y-11170000D01*
X14336000Y-10819000D02*
X14356000Y-10839000D01*
X14356000Y-10819000D02*
X14336000Y-10839000D01*
X14350000Y-9305000D02*
X14370000Y-9325000D01*
X14370000Y-9305000D02*
X14350000Y-9325000D01*
X14380411Y-9910411D02*
X14400411Y-9930411D01*
X14400411Y-9910411D02*
X14380411Y-9930411D01*
X14385000Y-11940000D02*
X14405000Y-11960000D01*
X14405000Y-11940000D02*
X14385000Y-11960000D01*
X14400000Y-9020000D02*
X14420000Y-9040000D01*
X14420000Y-9020000D02*
X14400000Y-9040000D01*
X14412970Y-11031030D02*
X14432970Y-11051030D01*
X14432970Y-11031030D02*
X14412970Y-11051030D01*
X14416000Y-10899000D02*
X14436000Y-10919000D01*
X14436000Y-10899000D02*
X14416000Y-10919000D01*
X14464000Y-10790000D02*
X14484000Y-10810000D01*
X14484000Y-10790000D02*
X14464000Y-10810000D01*
X14496617Y-9214357D02*
X14516617Y-9234357D01*
X14516617Y-9214357D02*
X14496617Y-9234357D01*
X14503794Y-8927659D02*
X14523794Y-8947659D01*
X14523794Y-8927659D02*
X14503794Y-8947659D01*
X14506417Y-9140000D02*
X14526417Y-9160000D01*
X14526417Y-9140000D02*
X14506417Y-9160000D01*
X14510000Y-8565000D02*
X14530000Y-8585000D01*
X14530000Y-8565000D02*
X14510000Y-8585000D01*
X14564000Y-11367840D02*
X14584000Y-11387840D01*
X14584000Y-11367840D02*
X14564000Y-11387840D01*
X14577333Y-9608084D02*
X14597333Y-9628084D01*
X14597333Y-9608084D02*
X14577333Y-9628084D01*
X14591000Y-10914000D02*
X14611000Y-10934000D01*
X14611000Y-10914000D02*
X14591000Y-10934000D01*
X14638000Y-10365000D02*
X14658000Y-10385000D01*
X14658000Y-10365000D02*
X14638000Y-10385000D01*
X14691029Y-10075196D02*
X14711029Y-10095196D01*
X14711029Y-10075196D02*
X14691029Y-10095196D01*
X14713000Y-11347840D02*
X14733000Y-11367840D01*
X14733000Y-11347840D02*
X14713000Y-11367840D01*
X14716417Y-9460000D02*
X14736417Y-9480000D01*
X14736417Y-9460000D02*
X14716417Y-9480000D01*
X14724000Y-10250000D02*
X14744000Y-10270000D01*
X14744000Y-10250000D02*
X14724000Y-10270000D01*
X14735000Y-11940000D02*
X14755000Y-11960000D01*
X14755000Y-11940000D02*
X14735000Y-11960000D01*
X14764448Y-9273723D02*
X14784448Y-9293723D01*
X14784448Y-9273723D02*
X14764448Y-9293723D01*
X14765000Y-10035000D02*
X14785000Y-10055000D01*
X14785000Y-10035000D02*
X14765000Y-10055000D01*
X14776000Y-10489000D02*
X14796000Y-10509000D01*
X14796000Y-10489000D02*
X14776000Y-10509000D01*
X14796000Y-10869000D02*
X14816000Y-10889000D01*
X14816000Y-10869000D02*
X14796000Y-10889000D01*
X14804000Y-9210000D02*
X14824000Y-9230000D01*
X14824000Y-9210000D02*
X14804000Y-9230000D01*
X14804000Y-10340000D02*
X14824000Y-10360000D01*
X14824000Y-10340000D02*
X14804000Y-10360000D01*
X14809000Y-10165000D02*
X14829000Y-10185000D01*
X14829000Y-10165000D02*
X14809000Y-10185000D01*
X14834000Y-9960000D02*
X14854000Y-9980000D01*
X14854000Y-9960000D02*
X14834000Y-9980000D01*
X14848412Y-9149564D02*
X14868412Y-9169564D01*
X14868412Y-9149564D02*
X14848412Y-9169564D01*
X14850000Y-10555000D02*
X14870000Y-10575000D01*
X14870000Y-10555000D02*
X14850000Y-10575000D01*
X14875850Y-9657994D02*
X14895850Y-9677994D01*
X14895850Y-9657994D02*
X14875850Y-9677994D01*
X14893661Y-9790000D02*
X14913661Y-9810000D01*
X14913661Y-9790000D02*
X14893661Y-9810000D01*
X14894000Y-10080000D02*
X14914000Y-10100000D01*
X14914000Y-10080000D02*
X14894000Y-10100000D01*
X14894000Y-10250000D02*
X14914000Y-10270000D01*
X14914000Y-10250000D02*
X14894000Y-10270000D01*
X14894000Y-10420000D02*
X14914000Y-10440000D01*
X14914000Y-10420000D02*
X14894000Y-10440000D01*
X14904206Y-11249970D02*
X14924206Y-11269970D01*
X14924206Y-11249970D02*
X14904206Y-11269970D01*
X14906929Y-9060297D02*
X14926929Y-9080297D01*
X14926929Y-9060297D02*
X14906929Y-9080297D01*
X14910000Y-11940000D02*
X14930000Y-11960000D01*
X14930000Y-11940000D02*
X14910000Y-11960000D01*
X14936054Y-9499548D02*
X14956054Y-9519548D01*
X14956054Y-9499548D02*
X14936054Y-9519548D01*
X14938000Y-9932000D02*
X14958000Y-9952000D01*
X14958000Y-9932000D02*
X14938000Y-9952000D01*
X14944000Y-10555000D02*
X14964000Y-10575000D01*
X14964000Y-10555000D02*
X14944000Y-10575000D01*
X14950823Y-9660000D02*
X14970823Y-9680000D01*
X14970823Y-9660000D02*
X14950823Y-9680000D01*
X14964000Y-10955000D02*
X14984000Y-10975000D01*
X14984000Y-10955000D02*
X14964000Y-10975000D01*
X14979000Y-10165000D02*
X14999000Y-10185000D01*
X14999000Y-10165000D02*
X14979000Y-10185000D01*
X14979000Y-10335000D02*
X14999000Y-10355000D01*
X14999000Y-10335000D02*
X14979000Y-10355000D01*
X14988500Y-10000000D02*
X15008500Y-10020000D01*
X15008500Y-10000000D02*
X14988500Y-10020000D01*
X15009293Y-9515707D02*
X15029293Y-9535707D01*
X15029293Y-9515707D02*
X15009293Y-9535707D01*
X15024000Y-10905000D02*
X15044000Y-10925000D01*
X15044000Y-10905000D02*
X15024000Y-10925000D01*
X15030008Y-11249970D02*
X15050008Y-11269970D01*
X15050008Y-11249970D02*
X15030008Y-11269970D01*
X15036000Y-10459000D02*
X15056000Y-10479000D01*
X15056000Y-10459000D02*
X15036000Y-10479000D01*
X15038515Y-9203515D02*
X15058515Y-9223515D01*
X15058515Y-9203515D02*
X15038515Y-9223515D01*
X15041000Y-10060000D02*
X15061000Y-10080000D01*
X15061000Y-10060000D02*
X15041000Y-10080000D01*
X15064000Y-10250000D02*
X15084000Y-10270000D01*
X15084000Y-10250000D02*
X15064000Y-10270000D01*
X15085827Y-10402944D02*
X15105827Y-10422944D01*
X15105827Y-10402944D02*
X15085827Y-10422944D01*
X15117000Y-10134000D02*
X15137000Y-10154000D01*
X15137000Y-10134000D02*
X15117000Y-10154000D01*
X15139015Y-9308461D02*
X15159015Y-9328461D01*
X15159015Y-9308461D02*
X15139015Y-9328461D01*
X15146037Y-10358192D02*
X15166037Y-10378192D01*
X15166037Y-10358192D02*
X15146037Y-10378192D01*
X15151000Y-9089000D02*
X15171000Y-9109000D01*
X15171000Y-9089000D02*
X15151000Y-9109000D01*
X15153499Y-9696416D02*
X15173499Y-9716416D01*
X15173499Y-9696416D02*
X15153499Y-9716416D01*
X15156417Y-9620000D02*
X15176417Y-9640000D01*
X15176417Y-9620000D02*
X15156417Y-9640000D01*
X15169000Y-8905000D02*
X15189000Y-8925000D01*
X15189000Y-8905000D02*
X15169000Y-8925000D01*
X15174375Y-10183769D02*
X15194375Y-10203769D01*
X15194375Y-10183769D02*
X15174375Y-10203769D01*
X15206869Y-10252500D02*
X15226869Y-10272500D01*
X15226869Y-10252500D02*
X15206869Y-10272500D01*
X15216417Y-9290000D02*
X15236417Y-9310000D01*
X15236417Y-9290000D02*
X15216417Y-9310000D01*
X15221000Y-10549000D02*
X15241000Y-10569000D01*
X15241000Y-10549000D02*
X15221000Y-10569000D01*
X15262000Y-11168000D02*
X15282000Y-11188000D01*
X15282000Y-11168000D02*
X15262000Y-11188000D01*
X15279239Y-9780000D02*
X15299239Y-9800000D01*
X15299239Y-9780000D02*
X15279239Y-9800000D01*
X15284000Y-10780000D02*
X15304000Y-10800000D01*
X15304000Y-10780000D02*
X15284000Y-10800000D01*
X15301000Y-11019000D02*
X15321000Y-11039000D01*
X15321000Y-11019000D02*
X15301000Y-11039000D01*
X15350000Y-10386000D02*
X15370000Y-10406000D01*
X15370000Y-10386000D02*
X15350000Y-10406000D01*
X15353489Y-9851920D02*
X15373489Y-9871920D01*
X15373489Y-9851920D02*
X15353489Y-9871920D01*
X15378000Y-10938000D02*
X15398000Y-10958000D01*
X15398000Y-10938000D02*
X15378000Y-10958000D01*
X15386000Y-11103000D02*
X15406000Y-11123000D01*
X15406000Y-11103000D02*
X15386000Y-11123000D01*
X15396417Y-11390000D02*
X15416417Y-11410000D01*
X15416417Y-11390000D02*
X15396417Y-11410000D01*
X15435000Y-11940000D02*
X15455000Y-11960000D01*
X15455000Y-11940000D02*
X15435000Y-11960000D01*
X15450000Y-8990000D02*
X15470000Y-9010000D01*
X15470000Y-8990000D02*
X15450000Y-9010000D01*
X15454504Y-9958087D02*
X15474504Y-9978087D01*
X15474504Y-9958087D02*
X15454504Y-9978087D01*
X15467500Y-11027500D02*
X15487500Y-11047500D01*
X15487500Y-11027500D02*
X15467500Y-11047500D01*
X15493663Y-11481825D02*
X15513663Y-11501825D01*
X15513663Y-11481825D02*
X15493663Y-11501825D01*
X15531018Y-10028134D02*
X15551018Y-10048134D01*
X15551018Y-10028134D02*
X15531018Y-10048134D01*
X15538323Y-10454677D02*
X15558323Y-10474677D01*
X15558323Y-10454677D02*
X15538323Y-10474677D01*
X15545000Y-10870000D02*
X15565000Y-10890000D01*
X15565000Y-10870000D02*
X15545000Y-10890000D01*
X15559000Y-11445000D02*
X15579000Y-11465000D01*
X15579000Y-11445000D02*
X15559000Y-11465000D01*
X15579119Y-11120881D02*
X15599119Y-11140881D01*
X15599119Y-11120881D02*
X15579119Y-11140881D01*
X15610000Y-11940000D02*
X15630000Y-11960000D01*
X15630000Y-11940000D02*
X15610000Y-11960000D01*
X15654174Y-10676189D02*
X15674174Y-10696189D01*
X15674174Y-10676189D02*
X15654174Y-10696189D01*
X15659000Y-11785000D02*
X15679000Y-11805000D01*
X15679000Y-11785000D02*
X15659000Y-11805000D01*
X15671417Y-9480000D02*
X15691417Y-9500000D01*
X15691417Y-9480000D02*
X15671417Y-9500000D01*
X15674066Y-10396629D02*
X15694066Y-10416629D01*
X15694066Y-10396629D02*
X15674066Y-10416629D01*
X15681000Y-11244000D02*
X15701000Y-11264000D01*
X15701000Y-11244000D02*
X15681000Y-11264000D01*
X15706417Y-10730000D02*
X15726417Y-10750000D01*
X15726417Y-10730000D02*
X15706417Y-10750000D01*
X15715000Y-10325000D02*
X15735000Y-10345000D01*
X15735000Y-10325000D02*
X15715000Y-10345000D01*
X15726089Y-10999911D02*
X15746089Y-11019911D01*
X15746089Y-10999911D02*
X15726089Y-11019911D01*
X15785000Y-11940000D02*
X15805000Y-11960000D01*
X15805000Y-11940000D02*
X15785000Y-11960000D01*
X15790000Y-10730000D02*
X15810000Y-10750000D01*
X15810000Y-10730000D02*
X15790000Y-10750000D01*
X15799645Y-10102515D02*
X15819645Y-10122515D01*
X15819645Y-10102515D02*
X15799645Y-10122515D01*
X15805000Y-10805000D02*
X15825000Y-10825000D01*
X15825000Y-10805000D02*
X15805000Y-10825000D01*
X15808043Y-10557315D02*
X15828043Y-10577315D01*
X15828043Y-10557315D02*
X15808043Y-10577315D01*
X15827342Y-9209075D02*
X15847342Y-9229075D01*
X15847342Y-9209075D02*
X15827342Y-9229075D01*
X15845000Y-8730000D02*
X15865000Y-8750000D01*
X15865000Y-8730000D02*
X15845000Y-8750000D01*
X15856417Y-10500000D02*
X15876417Y-10520000D01*
X15876417Y-10500000D02*
X15856417Y-10520000D01*
X15881917Y-9517500D02*
X15901917Y-9537500D01*
X15901917Y-9517500D02*
X15881917Y-9537500D01*
X15901000Y-11414000D02*
X15921000Y-11434000D01*
X15921000Y-11414000D02*
X15901000Y-11434000D01*
X15926417Y-10890000D02*
X15946417Y-10910000D01*
X15946417Y-10890000D02*
X15926417Y-10910000D01*
X15931000Y-11636000D02*
X15951000Y-11656000D01*
X15951000Y-11636000D02*
X15931000Y-11656000D01*
X15940000Y-10990000D02*
X15960000Y-11010000D01*
X15960000Y-10990000D02*
X15940000Y-11010000D01*
X15960000Y-11940000D02*
X15980000Y-11960000D01*
X15980000Y-11940000D02*
X15960000Y-11960000D01*
X16040000Y-10365000D02*
X16060000Y-10385000D01*
X16060000Y-10365000D02*
X16040000Y-10385000D01*
X16064870Y-11044129D02*
X16084870Y-11064129D01*
X16084870Y-11044129D02*
X16064870Y-11064129D01*
X16088417Y-9229000D02*
X16108417Y-9249000D01*
X16108417Y-9229000D02*
X16088417Y-9249000D01*
X16116000Y-11099000D02*
X16136000Y-11119000D01*
X16136000Y-11099000D02*
X16116000Y-11119000D01*
X16135000Y-11940000D02*
X16155000Y-11960000D01*
X16155000Y-11940000D02*
X16135000Y-11960000D01*
X16140000Y-8730000D02*
X16160000Y-8750000D01*
X16160000Y-8730000D02*
X16140000Y-8750000D01*
X16187417Y-9330000D02*
X16207417Y-9350000D01*
X16207417Y-9330000D02*
X16187417Y-9350000D01*
X16187417Y-9605000D02*
X16207417Y-9625000D01*
X16207417Y-9605000D02*
X16187417Y-9625000D01*
X16258417Y-9229000D02*
X16278417Y-9249000D01*
X16278417Y-9229000D02*
X16258417Y-9249000D01*
X16310000Y-11940000D02*
X16330000Y-11960000D01*
X16330000Y-11940000D02*
X16310000Y-11960000D01*
X16384493Y-9814142D02*
X16404493Y-9834142D01*
X16404493Y-9814142D02*
X16384493Y-9834142D01*
X16420000Y-8730000D02*
X16440000Y-8750000D01*
X16440000Y-8730000D02*
X16420000Y-8750000D01*
X16437526Y-9761109D02*
X16457526Y-9781109D01*
X16457526Y-9761109D02*
X16437526Y-9781109D01*
X16447284Y-9271734D02*
X16467284Y-9291734D01*
X16467284Y-9271734D02*
X16447284Y-9291734D01*
X16466680Y-11244756D02*
X16486680Y-11264756D01*
X16486680Y-11244756D02*
X16466680Y-11264756D01*
X16484817Y-9336619D02*
X16504817Y-9356619D01*
X16504817Y-9336619D02*
X16484817Y-9356619D01*
X16485000Y-11940000D02*
X16505000Y-11960000D01*
X16505000Y-11940000D02*
X16485000Y-11960000D01*
X16555110Y-9862600D02*
X16575110Y-9882600D01*
X16575110Y-9862600D02*
X16555110Y-9882600D01*
X16586417Y-9580000D02*
X16606417Y-9600000D01*
X16606417Y-9580000D02*
X16586417Y-9600000D01*
X16596417Y-9800000D02*
X16616417Y-9820000D01*
X16616417Y-9800000D02*
X16596417Y-9820000D01*
X16645617Y-10080650D02*
X16665617Y-10100650D01*
X16665617Y-10080650D02*
X16645617Y-10100650D01*
X16646417Y-9891950D02*
X16666417Y-9911950D01*
X16666417Y-9891950D02*
X16646417Y-9911950D01*
X16660000Y-11940000D02*
X16680000Y-11960000D01*
X16680000Y-11940000D02*
X16660000Y-11960000D01*
X16690000Y-9015000D02*
X16710000Y-9035000D01*
X16710000Y-9015000D02*
X16690000Y-9035000D01*
X16695000Y-9445000D02*
X16715000Y-9465000D01*
X16715000Y-9445000D02*
X16695000Y-9465000D01*
X16740000Y-10065000D02*
X16760000Y-10085000D01*
X16760000Y-10065000D02*
X16740000Y-10085000D01*
X16815000Y-11940000D02*
X16835000Y-11960000D01*
X16835000Y-11940000D02*
X16815000Y-11960000D01*
X16825000Y-9705000D02*
X16845000Y-9725000D01*
X16845000Y-9705000D02*
X16825000Y-9725000D01*
X16910000Y-8875000D02*
X16930000Y-8895000D01*
X16930000Y-8875000D02*
X16910000Y-8895000D01*
X16915000Y-10365000D02*
X16935000Y-10385000D01*
X16935000Y-10365000D02*
X16915000Y-10385000D01*
X16990000Y-11940000D02*
X17010000Y-11960000D01*
X17010000Y-11940000D02*
X16990000Y-11960000D01*
X17126256Y-10061077D02*
X17146256Y-10081077D01*
X17146256Y-10061077D02*
X17126256Y-10081077D01*
X17132378Y-10744756D02*
X17152378Y-10764756D01*
X17152378Y-10744756D02*
X17132378Y-10764756D01*
X17165000Y-11940000D02*
X17185000Y-11960000D01*
X17185000Y-11940000D02*
X17165000Y-11960000D01*
X17185000Y-10120000D02*
X17205000Y-10140000D01*
X17205000Y-10120000D02*
X17185000Y-10140000D01*
X17236680Y-9869737D02*
X17256680Y-9889737D01*
X17256680Y-9869737D02*
X17236680Y-9889737D01*
X17340000Y-11940000D02*
X17360000Y-11960000D01*
X17360000Y-11940000D02*
X17340000Y-11960000D01*
X17465000Y-8841500D02*
X17485000Y-8861500D01*
X17485000Y-8841500D02*
X17465000Y-8861500D01*
X17490000Y-9715000D02*
X17510000Y-9735000D01*
X17510000Y-9715000D02*
X17490000Y-9735000D01*
X17515000Y-11940000D02*
X17535000Y-11960000D01*
X17535000Y-11940000D02*
X17515000Y-11960000D01*
X17516418Y-11245000D02*
X17536418Y-11265000D01*
X17536418Y-11245000D02*
X17516418Y-11265000D01*
X17565000Y-10410000D02*
X17585000Y-10430000D01*
X17585000Y-10410000D02*
X17565000Y-10430000D01*
X17566418Y-10600000D02*
X17586418Y-10620000D01*
X17586418Y-10600000D02*
X17566418Y-10620000D01*
X17566680Y-10724756D02*
X17586680Y-10744756D01*
X17586680Y-10724756D02*
X17566680Y-10744756D01*
X17590000Y-9962500D02*
X17610000Y-9982500D01*
X17610000Y-9962500D02*
X17590000Y-9982500D01*
X17596418Y-9350000D02*
X17616418Y-9370000D01*
X17616418Y-9350000D02*
X17596418Y-9370000D01*
X17600000Y-8841500D02*
X17620000Y-8861500D01*
X17620000Y-8841500D02*
X17600000Y-8861500D01*
X17601418Y-9095000D02*
X17621418Y-9115000D01*
X17621418Y-9095000D02*
X17601418Y-9115000D01*
X17601418Y-9475000D02*
X17621418Y-9495000D01*
X17621418Y-9475000D02*
X17601418Y-9495000D01*
X17601418Y-9605000D02*
X17621418Y-9625000D01*
X17621418Y-9605000D02*
X17601418Y-9625000D01*
X17606680Y-10924756D02*
X17626680Y-10944756D01*
X17626680Y-10924756D02*
X17606680Y-10944756D01*
X17690000Y-11940000D02*
X17710000Y-11960000D01*
X17710000Y-11940000D02*
X17690000Y-11960000D01*
X17715000Y-10815000D02*
X17735000Y-10835000D01*
X17735000Y-10815000D02*
X17715000Y-10835000D01*
X17865000Y-11940000D02*
X17885000Y-11960000D01*
X17885000Y-11940000D02*
X17865000Y-11960000D01*
X18040000Y-11940000D02*
X18060000Y-11960000D01*
X18060000Y-11940000D02*
X18040000Y-11960000D01*
X18140000Y-11675000D02*
X18160000Y-11695000D01*
X18160000Y-11675000D02*
X18140000Y-11695000D01*
X18208293Y-11560000D02*
X18228293Y-11580000D01*
X18228293Y-11560000D02*
X18208293Y-11580000D01*
X18215000Y-11940000D02*
X18235000Y-11960000D01*
X18235000Y-11940000D02*
X18215000Y-11960000D01*
X18315000Y-11675000D02*
X18335000Y-11695000D01*
X18335000Y-11675000D02*
X18315000Y-11695000D01*
X18383293Y-11560000D02*
X18403293Y-11580000D01*
X18403293Y-11560000D02*
X18383293Y-11580000D01*
X18390000Y-11940000D02*
X18410000Y-11960000D01*
X18410000Y-11940000D02*
X18390000Y-11960000D01*
X18490000Y-11675000D02*
X18510000Y-11695000D01*
X18510000Y-11675000D02*
X18490000Y-11695000D01*
X18558293Y-11560000D02*
X18578293Y-11580000D01*
X18578293Y-11560000D02*
X18558293Y-11580000D01*
X18565000Y-8840000D02*
X18585000Y-8860000D01*
X18585000Y-8840000D02*
X18565000Y-8860000D01*
X18565000Y-11940000D02*
X18585000Y-11960000D01*
X18585000Y-11940000D02*
X18565000Y-11960000D01*
X18685000Y-9695000D02*
X18705000Y-9715000D01*
X18705000Y-9695000D02*
X18685000Y-9715000D01*
X18690000Y-8630000D02*
X18710000Y-8650000D01*
X18710000Y-8630000D02*
X18690000Y-8650000D01*
X18740000Y-11940000D02*
X18760000Y-11960000D01*
X18760000Y-11940000D02*
X18740000Y-11960000D01*
X18786680Y-10471000D02*
X18806680Y-10491000D01*
X18806680Y-10471000D02*
X18786680Y-10491000D01*
X18796019Y-10597399D02*
X18816019Y-10617399D01*
X18816019Y-10597399D02*
X18796019Y-10617399D01*
X18796418Y-9220000D02*
X18816418Y-9240000D01*
X18816418Y-9220000D02*
X18796418Y-9240000D01*
X18796418Y-9350000D02*
X18816418Y-9370000D01*
X18816418Y-9350000D02*
X18796418Y-9370000D01*
X18796418Y-9475000D02*
X18816418Y-9495000D01*
X18816418Y-9475000D02*
X18796418Y-9495000D01*
X18796418Y-9600000D02*
X18816418Y-9620000D01*
X18816418Y-9600000D02*
X18796418Y-9620000D01*
X18796680Y-10726000D02*
X18816680Y-10746000D01*
X18816680Y-10726000D02*
X18796680Y-10746000D01*
X18797418Y-9962500D02*
X18817418Y-9982500D01*
X18817418Y-9962500D02*
X18797418Y-9982500D01*
X18797418Y-10091000D02*
X18817418Y-10111000D01*
X18817418Y-10091000D02*
X18797418Y-10111000D01*
X18846418Y-8715000D02*
X18866418Y-8735000D01*
X18866418Y-8715000D02*
X18846418Y-8735000D01*
X18902000Y-10949000D02*
X18922000Y-10969000D01*
X18922000Y-10949000D02*
X18902000Y-10969000D01*
X18915000Y-11940000D02*
X18935000Y-11960000D01*
X18935000Y-11940000D02*
X18915000Y-11960000D01*
X18981680Y-9964756D02*
X19001680Y-9984756D01*
X19001680Y-9964756D02*
X18981680Y-9984756D01*
X18981680Y-10104756D02*
X19001680Y-10124756D01*
X19001680Y-10104756D02*
X18981680Y-10124756D01*
X19028418Y-8700000D02*
X19048418Y-8720000D01*
X19048418Y-8700000D02*
X19028418Y-8720000D01*
X19076256Y-10027273D02*
X19096256Y-10047273D01*
X19096256Y-10027273D02*
X19076256Y-10047273D01*
X19078774Y-10868838D02*
X19098774Y-10888838D01*
X19098774Y-10868838D02*
X19078774Y-10888838D01*
X19090000Y-11940000D02*
X19110000Y-11960000D01*
X19110000Y-11940000D02*
X19090000Y-11960000D01*
X19120000Y-9615000D02*
X19140000Y-9635000D01*
X19140000Y-9615000D02*
X19120000Y-9635000D01*
X19120000Y-9790000D02*
X19140000Y-9810000D01*
X19140000Y-9790000D02*
X19120000Y-9810000D01*
X19158774Y-10948838D02*
X19178774Y-10968838D01*
X19178774Y-10948838D02*
X19158774Y-10968838D01*
X19162500Y-8812500D02*
X19182500Y-8832500D01*
X19182500Y-8812500D02*
X19162500Y-8832500D01*
X19200000Y-9535000D02*
X19220000Y-9555000D01*
X19220000Y-9535000D02*
X19200000Y-9555000D01*
X19200000Y-9710000D02*
X19220000Y-9730000D01*
X19220000Y-9710000D02*
X19200000Y-9730000D01*
X19215000Y-9060000D02*
X19235000Y-9080000D01*
X19235000Y-9060000D02*
X19215000Y-9080000D01*
X19215000Y-9235000D02*
X19235000Y-9255000D01*
X19235000Y-9235000D02*
X19215000Y-9255000D01*
X19215000Y-9410000D02*
X19235000Y-9430000D01*
X19235000Y-9410000D02*
X19215000Y-9430000D01*
X19265000Y-11940000D02*
X19285000Y-11960000D01*
X19285000Y-11940000D02*
X19265000Y-11960000D01*
X19285000Y-10280000D02*
X19305000Y-10300000D01*
X19305000Y-10280000D02*
X19285000Y-10300000D01*
X19415000Y-10860000D02*
X19435000Y-10880000D01*
X19435000Y-10860000D02*
X19415000Y-10880000D01*
X19445000Y-10279506D02*
X19465000Y-10299506D01*
X19465000Y-10279506D02*
X19445000Y-10299506D01*
X19495000Y-10940000D02*
X19515000Y-10960000D01*
X19515000Y-10940000D02*
X19495000Y-10960000D01*
X19622443Y-9537256D02*
X19642443Y-9557256D01*
X19642443Y-9537256D02*
X19622443Y-9557256D01*
X19622443Y-9712256D02*
X19642443Y-9732256D01*
X19642443Y-9712256D02*
X19622443Y-9732256D01*
X19668774Y-11141999D02*
X19688774Y-11161999D01*
X19688774Y-11141999D02*
X19668774Y-11161999D01*
X19670000Y-10940000D02*
X19690000Y-10960000D01*
X19690000Y-10940000D02*
X19670000Y-10960000D01*
X19702443Y-9632256D02*
X19722443Y-9652256D01*
X19722443Y-9632256D02*
X19702443Y-9652256D01*
X19702443Y-9807256D02*
X19722443Y-9827256D01*
X19722443Y-9807256D02*
X19702443Y-9827256D01*
X19750000Y-11053162D02*
X19770000Y-11073162D01*
X19770000Y-11053162D02*
X19750000Y-11073162D01*
X19765000Y-10880000D02*
X19785000Y-10900000D01*
X19785000Y-10880000D02*
X19765000Y-10900000D01*
X19790000Y-10280000D02*
X19810000Y-10300000D01*
X19810000Y-10280000D02*
X19790000Y-10300000D01*
X20007500Y-10720000D02*
X20027500Y-10740000D01*
X20027500Y-10720000D02*
X20007500Y-10740000D01*
X20085000Y-10280000D02*
X20105000Y-10300000D01*
X20105000Y-10280000D02*
X20085000Y-10300000D01*
X20170000Y-9890000D02*
X20190000Y-9910000D01*
X20190000Y-9890000D02*
X20170000Y-9910000D01*
X20195000Y-8820000D02*
X20215000Y-8840000D01*
X20215000Y-8820000D02*
X20195000Y-8840000D01*
X20200000Y-11680000D02*
X20220000Y-11700000D01*
X20220000Y-11680000D02*
X20200000Y-11700000D01*
X20235000Y-8640000D02*
X20255000Y-8660000D01*
X20255000Y-8640000D02*
X20235000Y-8660000D01*
X20235000Y-11505000D02*
X20255000Y-11525000D01*
X20255000Y-11505000D02*
X20235000Y-11525000D01*
X20235000Y-11855000D02*
X20255000Y-11875000D01*
X20255000Y-11855000D02*
X20235000Y-11875000D01*
X20300000Y-8820000D02*
X20320000Y-8840000D01*
X20320000Y-8820000D02*
X20300000Y-8840000D01*
X20300000Y-11680000D02*
X20320000Y-11700000D01*
X20320000Y-11680000D02*
X20300000Y-11700000D01*
X20325000Y-8965000D02*
X20345000Y-8985000D01*
X20345000Y-8965000D02*
X20325000Y-8985000D01*
X20325000Y-11540000D02*
X20345000Y-11560000D01*
X20345000Y-11540000D02*
X20325000Y-11560000D01*
X20330000Y-8680000D02*
X20350000Y-8700000D01*
X20350000Y-8680000D02*
X20330000Y-8700000D01*
X20330000Y-9160000D02*
X20350000Y-9180000D01*
X20350000Y-9160000D02*
X20330000Y-9180000D01*
X20330000Y-11820000D02*
X20350000Y-11840000D01*
X20350000Y-11820000D02*
X20330000Y-11840000D01*
X20405000Y-11940000D02*
X20425000Y-11960000D01*
X20425000Y-11940000D02*
X20405000Y-11960000D01*
X20410000Y-8560000D02*
X20430000Y-8580000D01*
X20430000Y-8560000D02*
X20410000Y-8580000D01*
X20410000Y-11420000D02*
X20430000Y-11440000D01*
X20430000Y-11420000D02*
X20410000Y-11440000D01*
X20420000Y-9072500D02*
X20440000Y-9092500D01*
X20440000Y-9072500D02*
X20420000Y-9092500D01*
X20530000Y-9165000D02*
X20550000Y-9185000D01*
X20550000Y-9165000D02*
X20530000Y-9185000D01*
X20530000Y-11335000D02*
X20550000Y-11355000D01*
X20550000Y-11335000D02*
X20530000Y-11355000D01*
X20670000Y-9190000D02*
X20690000Y-9210000D01*
X20690000Y-9190000D02*
X20670000Y-9210000D01*
X20670000Y-9300000D02*
X20690000Y-9320000D01*
X20690000Y-9300000D02*
X20670000Y-9320000D01*
X20670000Y-11210000D02*
X20690000Y-11230000D01*
X20690000Y-11210000D02*
X20670000Y-11230000D01*
X20670000Y-11310000D02*
X20690000Y-11330000D01*
X20690000Y-11310000D02*
X20670000Y-11330000D01*
X20810000Y-9160000D02*
X20830000Y-9180000D01*
X20830000Y-9160000D02*
X20810000Y-9180000D01*
X20810000Y-11340000D02*
X20830000Y-11360000D01*
X20830000Y-11340000D02*
X20810000Y-11360000D01*
X20850000Y-9260000D02*
X20870000Y-9280000D01*
X20870000Y-9260000D02*
X20850000Y-9280000D01*
X20850000Y-11245000D02*
X20870000Y-11265000D01*
X20870000Y-11245000D02*
X20850000Y-11265000D01*
X20930000Y-9085000D02*
X20950000Y-9105000D01*
X20950000Y-9085000D02*
X20930000Y-9105000D01*
X20930000Y-11420000D02*
X20950000Y-11440000D01*
X20950000Y-11420000D02*
X20930000Y-11440000D01*
X13074981Y-10280169D02*
G75*
G02*
X13049981Y-10280169I-12500J0D01*
G01*
X13049981Y-10280169D02*
G75*
G02*
X13074981Y-10280169I12500J0D01*
G01*
X13145889Y-10721546D02*
G75*
G02*
X13120889Y-10721546I-12500J0D01*
G01*
X13120889Y-10721546D02*
G75*
G02*
X13145889Y-10721546I12500J0D01*
G01*
X13164917Y-10559000D02*
G75*
G02*
X13139917Y-10559000I-12500J0D01*
G01*
X13139917Y-10559000D02*
G75*
G02*
X13164917Y-10559000I12500J0D01*
G01*
X13324247Y-10797705D02*
G75*
G02*
X13299247Y-10797705I-12500J0D01*
G01*
X13299247Y-10797705D02*
G75*
G02*
X13324247Y-10797705I12500J0D01*
G01*
X13455989Y-10124377D02*
G75*
G02*
X13430989Y-10124377I-12500J0D01*
G01*
X13430989Y-10124377D02*
G75*
G02*
X13455989Y-10124377I12500J0D01*
G01*
X13778500Y-11219000D02*
G75*
G02*
X13753500Y-11219000I-12500J0D01*
G01*
X13753500Y-11219000D02*
G75*
G02*
X13778500Y-11219000I12500J0D01*
G01*
X13779137Y-11144003D02*
G75*
G02*
X13754137Y-11144003I-12500J0D01*
G01*
X13754137Y-11144003D02*
G75*
G02*
X13779137Y-11144003I12500J0D01*
G01*
X13958500Y-11329000D02*
G75*
G02*
X13933500Y-11329000I-12500J0D01*
G01*
X13933500Y-11329000D02*
G75*
G02*
X13958500Y-11329000I12500J0D01*
G01*
X13989683Y-10667149D02*
G75*
G02*
X13964683Y-10667149I-12500J0D01*
G01*
X13964683Y-10667149D02*
G75*
G02*
X13989683Y-10667149I12500J0D01*
G01*
X14212299Y-10207369D02*
G75*
G02*
X14187299Y-10207369I-12500J0D01*
G01*
X14187299Y-10207369D02*
G75*
G02*
X14212299Y-10207369I12500J0D01*
G01*
X14222690Y-10562180D02*
G75*
G02*
X14197690Y-10562180I-12500J0D01*
G01*
X14197690Y-10562180D02*
G75*
G02*
X14222690Y-10562180I12500J0D01*
G01*
X14237050Y-9967500D02*
G75*
G02*
X14212050Y-9967500I-12500J0D01*
G01*
X14212050Y-9967500D02*
G75*
G02*
X14237050Y-9967500I12500J0D01*
G01*
X14372500Y-10370500D02*
G75*
G02*
X14347500Y-10370500I-12500J0D01*
G01*
X14347500Y-10370500D02*
G75*
G02*
X14372500Y-10370500I12500J0D01*
G01*
X14377812Y-10220500D02*
G75*
G02*
X14352812Y-10220500I-12500J0D01*
G01*
X14352812Y-10220500D02*
G75*
G02*
X14377812Y-10220500I12500J0D01*
G01*
X14536502Y-8857994D02*
G75*
G02*
X14511502Y-8857994I-12500J0D01*
G01*
X14511502Y-8857994D02*
G75*
G02*
X14536502Y-8857994I12500J0D01*
G01*
X14598893Y-9932470D02*
G75*
G02*
X14573893Y-9932470I-12500J0D01*
G01*
X14573893Y-9932470D02*
G75*
G02*
X14598893Y-9932470I12500J0D01*
G01*
X14812500Y-8743500D02*
G75*
G02*
X14787500Y-8743500I-12500J0D01*
G01*
X14787500Y-8743500D02*
G75*
G02*
X14812500Y-8743500I12500J0D01*
G01*
X15252500Y-8760000D02*
G75*
G02*
X15227500Y-8760000I-12500J0D01*
G01*
X15227500Y-8760000D02*
G75*
G02*
X15252500Y-8760000I12500J0D01*
G01*
X15351500Y-11225000D02*
G75*
G02*
X15326500Y-11225000I-12500J0D01*
G01*
X15326500Y-11225000D02*
G75*
G02*
X15351500Y-11225000I12500J0D01*
G01*
X15648917Y-9719042D02*
G75*
G02*
X15623917Y-9719042I-12500J0D01*
G01*
X15623917Y-9719042D02*
G75*
G02*
X15648917Y-9719042I12500J0D01*
G01*
X15648917Y-9798542D02*
G75*
G02*
X15623917Y-9798542I-12500J0D01*
G01*
X15623917Y-9798542D02*
G75*
G02*
X15648917Y-9798542I12500J0D01*
G01*
X16035917Y-9479000D02*
G75*
G02*
X16010917Y-9479000I-12500J0D01*
G01*
X16010917Y-9479000D02*
G75*
G02*
X16035917Y-9479000I12500J0D01*
G01*
X16198000Y-11690000D02*
G75*
G02*
X16173000Y-11690000I-12500J0D01*
G01*
X16173000Y-11690000D02*
G75*
G02*
X16198000Y-11690000I12500J0D01*
G01*
X16305500Y-11667500D02*
G75*
G02*
X16280500Y-11667500I-12500J0D01*
G01*
X16280500Y-11667500D02*
G75*
G02*
X16305500Y-11667500I12500J0D01*
G01*
X16348000Y-11580000D02*
G75*
G02*
X16323000Y-11580000I-12500J0D01*
G01*
X16323000Y-11580000D02*
G75*
G02*
X16348000Y-11580000I12500J0D01*
G01*
X16385917Y-9496583D02*
G75*
G02*
X16360917Y-9496583I-12500J0D01*
G01*
X16360917Y-9496583D02*
G75*
G02*
X16385917Y-9496583I12500J0D01*
G01*
X16392500Y-10960000D02*
G75*
G02*
X16367500Y-10960000I-12500J0D01*
G01*
X16367500Y-10960000D02*
G75*
G02*
X16392500Y-10960000I12500J0D01*
G01*
X16642500Y-10960000D02*
G75*
G02*
X16617500Y-10960000I-12500J0D01*
G01*
X16617500Y-10960000D02*
G75*
G02*
X16642500Y-10960000I12500J0D01*
G01*
X16738500Y-11789000D02*
G75*
G02*
X16713500Y-11789000I-12500J0D01*
G01*
X16713500Y-11789000D02*
G75*
G02*
X16738500Y-11789000I12500J0D01*
G01*
X16942500Y-11140000D02*
G75*
G02*
X16917500Y-11140000I-12500J0D01*
G01*
X16917500Y-11140000D02*
G75*
G02*
X16942500Y-11140000I12500J0D01*
G01*
X16988500Y-11789000D02*
G75*
G02*
X16963500Y-11789000I-12500J0D01*
G01*
X16963500Y-11789000D02*
G75*
G02*
X16988500Y-11789000I12500J0D01*
G01*
X17032500Y-11450000D02*
G75*
G02*
X17007500Y-11450000I-12500J0D01*
G01*
X17007500Y-11450000D02*
G75*
G02*
X17032500Y-11450000I12500J0D01*
G01*
X17192500Y-11140000D02*
G75*
G02*
X17167500Y-11140000I-12500J0D01*
G01*
X17167500Y-11140000D02*
G75*
G02*
X17192500Y-11140000I12500J0D01*
G01*
X17237378Y-10827954D02*
G75*
G02*
X17212378Y-10827954I-12500J0D01*
G01*
X17212378Y-10827954D02*
G75*
G02*
X17237378Y-10827954I12500J0D01*
G01*
X17282500Y-11450000D02*
G75*
G02*
X17257500Y-11450000I-12500J0D01*
G01*
X17257500Y-11450000D02*
G75*
G02*
X17282500Y-11450000I12500J0D01*
G01*
X10155000Y-10247000D02*
X10155000Y-10277000D01*
X10140000Y-10262000D02*
X10170000Y-10262000D01*
X10155000Y-10547000D02*
X10155000Y-10577000D01*
X10140000Y-10562000D02*
X10170000Y-10562000D01*
X10155000Y-10847000D02*
X10155000Y-10877000D01*
X10140000Y-10862000D02*
X10170000Y-10862000D01*
X10202000Y-9993000D02*
X10202000Y-10023000D01*
X10187000Y-10008000D02*
X10217000Y-10008000D01*
X10343000Y-10959000D02*
X10343000Y-10989000D01*
X10328000Y-10974000D02*
X10358000Y-10974000D01*
X10502000Y-9993000D02*
X10502000Y-10023000D01*
X10487000Y-10008000D02*
X10517000Y-10008000D01*
X10643000Y-10959000D02*
X10643000Y-10989000D01*
X10628000Y-10974000D02*
X10658000Y-10974000D01*
X10802000Y-9994000D02*
X10802000Y-10024000D01*
X10787000Y-10009000D02*
X10817000Y-10009000D01*
X10943000Y-10959000D02*
X10943000Y-10989000D01*
X10928000Y-10974000D02*
X10958000Y-10974000D01*
X11101680Y-9684756D02*
X11101680Y-9714756D01*
X11086680Y-9699756D02*
X11116680Y-9699756D01*
X11102418Y-11278842D02*
X11102418Y-11308842D01*
X11087418Y-11293842D02*
X11117418Y-11293842D01*
X11102436Y-9985515D02*
X11102436Y-10015515D01*
X11087436Y-10000515D02*
X11117436Y-10000515D01*
X11201675Y-9479756D02*
X11201675Y-9509756D01*
X11186675Y-9494756D02*
X11216675Y-9494756D01*
X11201680Y-11479756D02*
X11201680Y-11509756D01*
X11186680Y-11494756D02*
X11216680Y-11494756D01*
X11501680Y-9479756D02*
X11501680Y-9509756D01*
X11486680Y-9494756D02*
X11516680Y-9494756D01*
X11501680Y-11479756D02*
X11501680Y-11509756D01*
X11486680Y-11494756D02*
X11516680Y-11494756D01*
X11801680Y-11479756D02*
X11801680Y-11509756D01*
X11786680Y-11494756D02*
X11816680Y-11494756D01*
X11802439Y-9479000D02*
X11802439Y-9509000D01*
X11787439Y-9494000D02*
X11817439Y-9494000D01*
X12101680Y-11479756D02*
X12101680Y-11509756D01*
X12086680Y-11494756D02*
X12116680Y-11494756D01*
X12102537Y-9479000D02*
X12102537Y-9509000D01*
X12087537Y-9494000D02*
X12117537Y-9494000D01*
X12401680Y-11479756D02*
X12401680Y-11509756D01*
X12386680Y-11494756D02*
X12416680Y-11494756D01*
X12402389Y-9479000D02*
X12402389Y-9509000D01*
X12387389Y-9494000D02*
X12417389Y-9494000D01*
X12701680Y-11479756D02*
X12701680Y-11509756D01*
X12686680Y-11494756D02*
X12716680Y-11494756D01*
X12702394Y-9479000D02*
X12702394Y-9509000D01*
X12687394Y-9494000D02*
X12717394Y-9494000D01*
X13001680Y-11479756D02*
X13001680Y-11509756D01*
X12986680Y-11494756D02*
X13016680Y-11494756D01*
X13002338Y-9479000D02*
X13002338Y-9509000D01*
X12987338Y-9494000D02*
X13017338Y-9494000D01*
X13301680Y-11479756D02*
X13301680Y-11509756D01*
X13286680Y-11494756D02*
X13316680Y-11494756D01*
X13302417Y-9479000D02*
X13302417Y-9509000D01*
X13287417Y-9494000D02*
X13317417Y-9494000D01*
X13601680Y-9479756D02*
X13601680Y-9509756D01*
X13586680Y-9494756D02*
X13616680Y-9494756D01*
X13601680Y-9779756D02*
X13601680Y-9809756D01*
X13586680Y-9794756D02*
X13616680Y-9794756D01*
X13601680Y-10079756D02*
X13601680Y-10109756D01*
X13586680Y-10094756D02*
X13616680Y-10094756D01*
X13602417Y-10879099D02*
X13602417Y-10909099D01*
X13587417Y-10894099D02*
X13617417Y-10894099D01*
X13602417Y-11179000D02*
X13602417Y-11209000D01*
X13587417Y-11194000D02*
X13617417Y-11194000D01*
X13602417Y-11479000D02*
X13602417Y-11509000D01*
X13587417Y-11494000D02*
X13617417Y-11494000D01*
X13891417Y-9475000D02*
X13891417Y-9505000D01*
X13876417Y-9490000D02*
X13906417Y-9490000D01*
X14536417Y-9855000D02*
X14536417Y-9885000D01*
X14521417Y-9870000D02*
X14551417Y-9870000D01*
X14596417Y-9685000D02*
X14596417Y-9715000D01*
X14581417Y-9700000D02*
X14611417Y-9700000D01*
X15306000Y-11714000D02*
X15306000Y-11744000D01*
X15291000Y-11729000D02*
X15321000Y-11729000D01*
X15816417Y-10184000D02*
X15816417Y-10214000D01*
X15801417Y-10199000D02*
X15831417Y-10199000D01*
X16486680Y-10360000D02*
X16486680Y-10390000D01*
X16471680Y-10375000D02*
X16501680Y-10375000D01*
X16576680Y-10360000D02*
X16576680Y-10390000D01*
X16561680Y-10375000D02*
X16591680Y-10375000D01*
X17227000Y-11775000D02*
X17227000Y-11805000D01*
X17212000Y-11790000D02*
X17242000Y-11790000D01*
X18966680Y-11556423D02*
X18966680Y-11586423D01*
X18951680Y-11571423D02*
X18981680Y-11571423D01*
X18966680Y-11723089D02*
X18966680Y-11753089D01*
X18951680Y-11738089D02*
X18981680Y-11738089D01*
X18966680Y-11806423D02*
X18966680Y-11836423D01*
X18951680Y-11821423D02*
X18981680Y-11821423D01*
X19056680Y-11556423D02*
X19056680Y-11586423D01*
X19041680Y-11571423D02*
X19071680Y-11571423D01*
X19056680Y-11723089D02*
X19056680Y-11753089D01*
X19041680Y-11738089D02*
X19071680Y-11738089D01*
X19056680Y-11806423D02*
X19056680Y-11836423D01*
X19041680Y-11821423D02*
X19071680Y-11821423D01*
X19876680Y-11733089D02*
X19876680Y-11763089D01*
X19861680Y-11748089D02*
X19891680Y-11748089D01*
X19876680Y-11816423D02*
X19876680Y-11846423D01*
X19861680Y-11831423D02*
X19891680Y-11831423D01*
X19966680Y-11649756D02*
X19966680Y-11679756D01*
X19951680Y-11664756D02*
X19981680Y-11664756D01*
X19966680Y-11733089D02*
X19966680Y-11763089D01*
X19951680Y-11748089D02*
X19981680Y-11748089D01*
X19966680Y-11816423D02*
X19966680Y-11846423D01*
X19951680Y-11831423D02*
X19981680Y-11831423D01*
X15738324Y-8729231D02*
X15738324Y-8683269D01*
X15692361Y-8683269D01*
X15692361Y-8729231D01*
X15738324Y-8729231D01*
X15747842Y-8771250D02*
X15747842Y-8641250D01*
X15682842Y-8641250D02*
G75*
G02*
X15747842Y-8641250I32500J0D01*
G01*
X15682842Y-8641250D02*
X15682842Y-8771250D01*
X15682842Y-8771250D02*
G75*
G03*
X15747842Y-8771250I32500J0D01*
G01*
X15738324Y-9111731D02*
X15738324Y-9065769D01*
X15692361Y-9065769D01*
X15692361Y-9111731D01*
X15738324Y-9111731D01*
X15747842Y-9138750D02*
X15747842Y-9038750D01*
X15682842Y-9038750D02*
G75*
G02*
X15747842Y-9038750I32500J0D01*
G01*
X15682842Y-9038750D02*
X15682842Y-9138750D01*
X15682842Y-9138750D02*
G75*
G03*
X15747842Y-9138750I32500J0D01*
G01*
X16602324Y-8729231D02*
X16602324Y-8683269D01*
X16556361Y-8683269D01*
X16556361Y-8729231D01*
X16602324Y-8729231D01*
X16611842Y-8771250D02*
X16611842Y-8641250D01*
X16546842Y-8641250D02*
G75*
G02*
X16611842Y-8641250I32500J0D01*
G01*
X16546842Y-8641250D02*
X16546842Y-8771250D01*
X16546842Y-8771250D02*
G75*
G03*
X16611842Y-8771250I32500J0D01*
G01*
X16602324Y-9111731D02*
X16602324Y-9065769D01*
X16556361Y-9065769D01*
X16556361Y-9111731D01*
X16602324Y-9111731D01*
X16611842Y-9138750D02*
X16611842Y-9038750D01*
X16546842Y-9038750D02*
G75*
G02*
X16611842Y-9038750I32500J0D01*
G01*
X16546842Y-9038750D02*
X16546842Y-9138750D01*
X16546842Y-9138750D02*
G75*
G03*
X16611842Y-9138750I32500J0D01*
G01*
D13*
X12960000Y-8949690D02*
X13019690Y-8890000D01*
X12960000Y-8830310D01*
X12900310Y-8890000D01*
X12960000Y-8949690D01*
X13214000Y-8949690D02*
X13273690Y-8890000D01*
X13214000Y-8830310D01*
X13154310Y-8890000D01*
X13214000Y-8949690D01*
X13468000Y-8949690D02*
X13527690Y-8890000D01*
X13468000Y-8830310D01*
X13408310Y-8890000D01*
X13468000Y-8949690D01*
X13722000Y-8949690D02*
X13781690Y-8890000D01*
X13722000Y-8830310D01*
X13662310Y-8890000D01*
X13722000Y-8949690D01*
X13976000Y-8949690D02*
X14035690Y-8890000D01*
X13976000Y-8830310D01*
X13916310Y-8890000D01*
X13976000Y-8949690D01*
X14230000Y-8949690D02*
X14289690Y-8890000D01*
X14230000Y-8830310D01*
X14170310Y-8890000D01*
X14230000Y-8949690D01*
D14*
X10570000Y-10420000D02*
X10710000Y-10560000D01*
X10710000Y-10420000D02*
X10570000Y-10560000D01*
X10710000Y-10490000D02*
G75*
G02*
X10570000Y-10490000I-70000J0D01*
G01*
X10570000Y-10490000D02*
G75*
G02*
X10710000Y-10490000I70000J0D01*
G01*
D15*
X10302500Y-10152500D02*
X10462500Y-10312500D01*
X10462500Y-10152500D02*
X10302500Y-10312500D01*
X10382500Y-10152500D02*
X10382500Y-10312500D01*
X10302500Y-10232500D02*
X10462500Y-10232500D01*
X10302500Y-10667500D02*
X10462500Y-10827500D01*
X10462500Y-10667500D02*
X10302500Y-10827500D01*
X10382500Y-10667500D02*
X10382500Y-10827500D01*
X10302500Y-10747500D02*
X10462500Y-10747500D01*
X10817500Y-10152500D02*
X10977500Y-10312500D01*
X10977500Y-10152500D02*
X10817500Y-10312500D01*
X10897500Y-10152500D02*
X10897500Y-10312500D01*
X10817500Y-10232500D02*
X10977500Y-10232500D01*
X10817500Y-10667500D02*
X10977500Y-10827500D01*
X10977500Y-10667500D02*
X10817500Y-10827500D01*
X10897500Y-10667500D02*
X10897500Y-10827500D01*
X10817500Y-10747500D02*
X10977500Y-10747500D01*
D16*
X20520000Y-8670000D02*
X20840000Y-8990000D01*
X20840000Y-8670000D02*
X20520000Y-8990000D01*
X20793138Y-8943138D02*
X20793138Y-8716862D01*
X20566862Y-8716862D01*
X20566862Y-8943138D01*
X20793138Y-8943138D01*
X20520000Y-11530000D02*
X20840000Y-11850000D01*
X20840000Y-11530000D02*
X20520000Y-11850000D01*
X20793138Y-11803138D02*
X20793138Y-11576862D01*
X20566862Y-11576862D01*
X20566862Y-11803138D01*
X20793138Y-11803138D01*
D11*
X10258277Y-12323984D02*
X10258277Y-12123984D01*
X10258277Y-12123984D02*
X10305896Y-12123984D01*
X10305896Y-12123984D02*
X10334467Y-12133508D01*
X10334467Y-12133508D02*
X10353515Y-12152555D01*
X10353515Y-12152555D02*
X10363039Y-12171603D01*
X10363039Y-12171603D02*
X10372563Y-12209698D01*
X10372563Y-12209698D02*
X10372563Y-12238269D01*
X10372563Y-12238269D02*
X10363039Y-12276365D01*
X10363039Y-12276365D02*
X10353515Y-12295412D01*
X10353515Y-12295412D02*
X10334467Y-12314460D01*
X10334467Y-12314460D02*
X10305896Y-12323984D01*
X10305896Y-12323984D02*
X10258277Y-12323984D01*
X10458277Y-12323984D02*
X10458277Y-12190650D01*
X10458277Y-12228746D02*
X10467801Y-12209698D01*
X10467801Y-12209698D02*
X10477324Y-12200174D01*
X10477324Y-12200174D02*
X10496372Y-12190650D01*
X10496372Y-12190650D02*
X10515420Y-12190650D01*
X10582086Y-12323984D02*
X10582086Y-12190650D01*
X10582086Y-12123984D02*
X10572563Y-12133508D01*
X10572563Y-12133508D02*
X10582086Y-12143031D01*
X10582086Y-12143031D02*
X10591610Y-12133508D01*
X10591610Y-12133508D02*
X10582086Y-12123984D01*
X10582086Y-12123984D02*
X10582086Y-12143031D01*
X10705896Y-12323984D02*
X10686848Y-12314460D01*
X10686848Y-12314460D02*
X10677324Y-12295412D01*
X10677324Y-12295412D02*
X10677324Y-12123984D01*
X10810658Y-12323984D02*
X10791610Y-12314460D01*
X10791610Y-12314460D02*
X10782086Y-12295412D01*
X10782086Y-12295412D02*
X10782086Y-12123984D01*
X11039229Y-12323984D02*
X11039229Y-12123984D01*
X11039229Y-12123984D02*
X11105896Y-12266841D01*
X11105896Y-12266841D02*
X11172563Y-12123984D01*
X11172563Y-12123984D02*
X11172563Y-12323984D01*
X11353515Y-12323984D02*
X11353515Y-12219222D01*
X11353515Y-12219222D02*
X11343991Y-12200174D01*
X11343991Y-12200174D02*
X11324943Y-12190650D01*
X11324943Y-12190650D02*
X11286848Y-12190650D01*
X11286848Y-12190650D02*
X11267801Y-12200174D01*
X11353515Y-12314460D02*
X11334467Y-12323984D01*
X11334467Y-12323984D02*
X11286848Y-12323984D01*
X11286848Y-12323984D02*
X11267801Y-12314460D01*
X11267801Y-12314460D02*
X11258277Y-12295412D01*
X11258277Y-12295412D02*
X11258277Y-12276365D01*
X11258277Y-12276365D02*
X11267801Y-12257317D01*
X11267801Y-12257317D02*
X11286848Y-12247793D01*
X11286848Y-12247793D02*
X11334467Y-12247793D01*
X11334467Y-12247793D02*
X11353515Y-12238269D01*
X11448753Y-12190650D02*
X11448753Y-12390650D01*
X11448753Y-12200174D02*
X11467801Y-12190650D01*
X11467801Y-12190650D02*
X11505896Y-12190650D01*
X11505896Y-12190650D02*
X11524943Y-12200174D01*
X11524943Y-12200174D02*
X11534467Y-12209698D01*
X11534467Y-12209698D02*
X11543991Y-12228746D01*
X11543991Y-12228746D02*
X11543991Y-12285888D01*
X11543991Y-12285888D02*
X11534467Y-12304936D01*
X11534467Y-12304936D02*
X11524943Y-12314460D01*
X11524943Y-12314460D02*
X11505896Y-12323984D01*
X11505896Y-12323984D02*
X11467801Y-12323984D01*
X11467801Y-12323984D02*
X11448753Y-12314460D01*
X11629705Y-12304936D02*
X11639229Y-12314460D01*
X11639229Y-12314460D02*
X11629705Y-12323984D01*
X11629705Y-12323984D02*
X11620182Y-12314460D01*
X11620182Y-12314460D02*
X11629705Y-12304936D01*
X11629705Y-12304936D02*
X11629705Y-12323984D01*
X11629705Y-12200174D02*
X11639229Y-12209698D01*
X11639229Y-12209698D02*
X11629705Y-12219222D01*
X11629705Y-12219222D02*
X11620182Y-12209698D01*
X11620182Y-12209698D02*
X11629705Y-12200174D01*
X11629705Y-12200174D02*
X11629705Y-12219222D01*
D12*
X9977500Y-12642500D02*
X9997500Y-12662500D01*
X9997500Y-12642500D02*
X9977500Y-12662500D01*
D11*
X10296372Y-12543984D02*
X10315420Y-12543984D01*
X10315420Y-12543984D02*
X10334467Y-12553508D01*
X10334467Y-12553508D02*
X10343991Y-12563031D01*
X10343991Y-12563031D02*
X10353515Y-12582079D01*
X10353515Y-12582079D02*
X10363039Y-12620174D01*
X10363039Y-12620174D02*
X10363039Y-12667793D01*
X10363039Y-12667793D02*
X10353515Y-12705888D01*
X10353515Y-12705888D02*
X10343991Y-12724936D01*
X10343991Y-12724936D02*
X10334467Y-12734460D01*
X10334467Y-12734460D02*
X10315420Y-12743984D01*
X10315420Y-12743984D02*
X10296372Y-12743984D01*
X10296372Y-12743984D02*
X10277324Y-12734460D01*
X10277324Y-12734460D02*
X10267801Y-12724936D01*
X10267801Y-12724936D02*
X10258277Y-12705888D01*
X10258277Y-12705888D02*
X10248753Y-12667793D01*
X10248753Y-12667793D02*
X10248753Y-12620174D01*
X10248753Y-12620174D02*
X10258277Y-12582079D01*
X10258277Y-12582079D02*
X10267801Y-12563031D01*
X10267801Y-12563031D02*
X10277324Y-12553508D01*
X10277324Y-12553508D02*
X10296372Y-12543984D01*
X10448753Y-12724936D02*
X10458277Y-12734460D01*
X10458277Y-12734460D02*
X10448753Y-12743984D01*
X10448753Y-12743984D02*
X10439229Y-12734460D01*
X10439229Y-12734460D02*
X10448753Y-12724936D01*
X10448753Y-12724936D02*
X10448753Y-12743984D01*
X10534467Y-12563031D02*
X10543991Y-12553508D01*
X10543991Y-12553508D02*
X10563039Y-12543984D01*
X10563039Y-12543984D02*
X10610658Y-12543984D01*
X10610658Y-12543984D02*
X10629705Y-12553508D01*
X10629705Y-12553508D02*
X10639229Y-12563031D01*
X10639229Y-12563031D02*
X10648753Y-12582079D01*
X10648753Y-12582079D02*
X10648753Y-12601127D01*
X10648753Y-12601127D02*
X10639229Y-12629698D01*
X10639229Y-12629698D02*
X10524944Y-12743984D01*
X10524944Y-12743984D02*
X10648753Y-12743984D01*
X10772563Y-12543984D02*
X10791610Y-12543984D01*
X10791610Y-12543984D02*
X10810658Y-12553508D01*
X10810658Y-12553508D02*
X10820182Y-12563031D01*
X10820182Y-12563031D02*
X10829705Y-12582079D01*
X10829705Y-12582079D02*
X10839229Y-12620174D01*
X10839229Y-12620174D02*
X10839229Y-12667793D01*
X10839229Y-12667793D02*
X10829705Y-12705888D01*
X10829705Y-12705888D02*
X10820182Y-12724936D01*
X10820182Y-12724936D02*
X10810658Y-12734460D01*
X10810658Y-12734460D02*
X10791610Y-12743984D01*
X10791610Y-12743984D02*
X10772563Y-12743984D01*
X10772563Y-12743984D02*
X10753515Y-12734460D01*
X10753515Y-12734460D02*
X10743991Y-12724936D01*
X10743991Y-12724936D02*
X10734467Y-12705888D01*
X10734467Y-12705888D02*
X10724944Y-12667793D01*
X10724944Y-12667793D02*
X10724944Y-12620174D01*
X10724944Y-12620174D02*
X10734467Y-12582079D01*
X10734467Y-12582079D02*
X10743991Y-12563031D01*
X10743991Y-12563031D02*
X10753515Y-12553508D01*
X10753515Y-12553508D02*
X10772563Y-12543984D01*
X10963039Y-12543984D02*
X10982086Y-12543984D01*
X10982086Y-12543984D02*
X11001134Y-12553508D01*
X11001134Y-12553508D02*
X11010658Y-12563031D01*
X11010658Y-12563031D02*
X11020182Y-12582079D01*
X11020182Y-12582079D02*
X11029705Y-12620174D01*
X11029705Y-12620174D02*
X11029705Y-12667793D01*
X11029705Y-12667793D02*
X11020182Y-12705888D01*
X11020182Y-12705888D02*
X11010658Y-12724936D01*
X11010658Y-12724936D02*
X11001134Y-12734460D01*
X11001134Y-12734460D02*
X10982086Y-12743984D01*
X10982086Y-12743984D02*
X10963039Y-12743984D01*
X10963039Y-12743984D02*
X10943991Y-12734460D01*
X10943991Y-12734460D02*
X10934467Y-12724936D01*
X10934467Y-12724936D02*
X10924944Y-12705888D01*
X10924944Y-12705888D02*
X10915420Y-12667793D01*
X10915420Y-12667793D02*
X10915420Y-12620174D01*
X10915420Y-12620174D02*
X10924944Y-12582079D01*
X10924944Y-12582079D02*
X10934467Y-12563031D01*
X10934467Y-12563031D02*
X10943991Y-12553508D01*
X10943991Y-12553508D02*
X10963039Y-12543984D01*
X11115420Y-12743984D02*
X11115420Y-12610650D01*
X11115420Y-12629698D02*
X11124944Y-12620174D01*
X11124944Y-12620174D02*
X11143991Y-12610650D01*
X11143991Y-12610650D02*
X11172563Y-12610650D01*
X11172563Y-12610650D02*
X11191610Y-12620174D01*
X11191610Y-12620174D02*
X11201134Y-12639222D01*
X11201134Y-12639222D02*
X11201134Y-12743984D01*
X11201134Y-12639222D02*
X11210658Y-12620174D01*
X11210658Y-12620174D02*
X11229705Y-12610650D01*
X11229705Y-12610650D02*
X11258277Y-12610650D01*
X11258277Y-12610650D02*
X11277324Y-12620174D01*
X11277324Y-12620174D02*
X11286848Y-12639222D01*
X11286848Y-12639222D02*
X11286848Y-12743984D01*
X11382086Y-12743984D02*
X11382086Y-12610650D01*
X11382086Y-12629698D02*
X11391610Y-12620174D01*
X11391610Y-12620174D02*
X11410658Y-12610650D01*
X11410658Y-12610650D02*
X11439229Y-12610650D01*
X11439229Y-12610650D02*
X11458277Y-12620174D01*
X11458277Y-12620174D02*
X11467801Y-12639222D01*
X11467801Y-12639222D02*
X11467801Y-12743984D01*
X11467801Y-12639222D02*
X11477324Y-12620174D01*
X11477324Y-12620174D02*
X11496372Y-12610650D01*
X11496372Y-12610650D02*
X11524943Y-12610650D01*
X11524943Y-12610650D02*
X11543991Y-12620174D01*
X11543991Y-12620174D02*
X11553515Y-12639222D01*
X11553515Y-12639222D02*
X11553515Y-12743984D01*
X11943991Y-12534460D02*
X11772563Y-12791603D01*
X12201134Y-12543984D02*
X12220182Y-12543984D01*
X12220182Y-12543984D02*
X12239229Y-12553508D01*
X12239229Y-12553508D02*
X12248753Y-12563031D01*
X12248753Y-12563031D02*
X12258277Y-12582079D01*
X12258277Y-12582079D02*
X12267801Y-12620174D01*
X12267801Y-12620174D02*
X12267801Y-12667793D01*
X12267801Y-12667793D02*
X12258277Y-12705888D01*
X12258277Y-12705888D02*
X12248753Y-12724936D01*
X12248753Y-12724936D02*
X12239229Y-12734460D01*
X12239229Y-12734460D02*
X12220182Y-12743984D01*
X12220182Y-12743984D02*
X12201134Y-12743984D01*
X12201134Y-12743984D02*
X12182086Y-12734460D01*
X12182086Y-12734460D02*
X12172563Y-12724936D01*
X12172563Y-12724936D02*
X12163039Y-12705888D01*
X12163039Y-12705888D02*
X12153515Y-12667793D01*
X12153515Y-12667793D02*
X12153515Y-12620174D01*
X12153515Y-12620174D02*
X12163039Y-12582079D01*
X12163039Y-12582079D02*
X12172563Y-12563031D01*
X12172563Y-12563031D02*
X12182086Y-12553508D01*
X12182086Y-12553508D02*
X12201134Y-12543984D01*
X12353515Y-12724936D02*
X12363039Y-12734460D01*
X12363039Y-12734460D02*
X12353515Y-12743984D01*
X12353515Y-12743984D02*
X12343991Y-12734460D01*
X12343991Y-12734460D02*
X12353515Y-12724936D01*
X12353515Y-12724936D02*
X12353515Y-12743984D01*
X12486848Y-12543984D02*
X12505896Y-12543984D01*
X12505896Y-12543984D02*
X12524944Y-12553508D01*
X12524944Y-12553508D02*
X12534467Y-12563031D01*
X12534467Y-12563031D02*
X12543991Y-12582079D01*
X12543991Y-12582079D02*
X12553515Y-12620174D01*
X12553515Y-12620174D02*
X12553515Y-12667793D01*
X12553515Y-12667793D02*
X12543991Y-12705888D01*
X12543991Y-12705888D02*
X12534467Y-12724936D01*
X12534467Y-12724936D02*
X12524944Y-12734460D01*
X12524944Y-12734460D02*
X12505896Y-12743984D01*
X12505896Y-12743984D02*
X12486848Y-12743984D01*
X12486848Y-12743984D02*
X12467801Y-12734460D01*
X12467801Y-12734460D02*
X12458277Y-12724936D01*
X12458277Y-12724936D02*
X12448753Y-12705888D01*
X12448753Y-12705888D02*
X12439229Y-12667793D01*
X12439229Y-12667793D02*
X12439229Y-12620174D01*
X12439229Y-12620174D02*
X12448753Y-12582079D01*
X12448753Y-12582079D02*
X12458277Y-12563031D01*
X12458277Y-12563031D02*
X12467801Y-12553508D01*
X12467801Y-12553508D02*
X12486848Y-12543984D01*
X12677325Y-12543984D02*
X12696372Y-12543984D01*
X12696372Y-12543984D02*
X12715420Y-12553508D01*
X12715420Y-12553508D02*
X12724944Y-12563031D01*
X12724944Y-12563031D02*
X12734467Y-12582079D01*
X12734467Y-12582079D02*
X12743991Y-12620174D01*
X12743991Y-12620174D02*
X12743991Y-12667793D01*
X12743991Y-12667793D02*
X12734467Y-12705888D01*
X12734467Y-12705888D02*
X12724944Y-12724936D01*
X12724944Y-12724936D02*
X12715420Y-12734460D01*
X12715420Y-12734460D02*
X12696372Y-12743984D01*
X12696372Y-12743984D02*
X12677325Y-12743984D01*
X12677325Y-12743984D02*
X12658277Y-12734460D01*
X12658277Y-12734460D02*
X12648753Y-12724936D01*
X12648753Y-12724936D02*
X12639229Y-12705888D01*
X12639229Y-12705888D02*
X12629706Y-12667793D01*
X12629706Y-12667793D02*
X12629706Y-12620174D01*
X12629706Y-12620174D02*
X12639229Y-12582079D01*
X12639229Y-12582079D02*
X12648753Y-12563031D01*
X12648753Y-12563031D02*
X12658277Y-12553508D01*
X12658277Y-12553508D02*
X12677325Y-12543984D01*
X12810658Y-12543984D02*
X12943991Y-12543984D01*
X12943991Y-12543984D02*
X12858277Y-12743984D01*
X13029706Y-12743984D02*
X13067801Y-12743984D01*
X13067801Y-12743984D02*
X13086848Y-12734460D01*
X13086848Y-12734460D02*
X13096372Y-12724936D01*
X13096372Y-12724936D02*
X13115420Y-12696365D01*
X13115420Y-12696365D02*
X13124944Y-12658269D01*
X13124944Y-12658269D02*
X13124944Y-12582079D01*
X13124944Y-12582079D02*
X13115420Y-12563031D01*
X13115420Y-12563031D02*
X13105896Y-12553508D01*
X13105896Y-12553508D02*
X13086848Y-12543984D01*
X13086848Y-12543984D02*
X13048753Y-12543984D01*
X13048753Y-12543984D02*
X13029706Y-12553508D01*
X13029706Y-12553508D02*
X13020182Y-12563031D01*
X13020182Y-12563031D02*
X13010658Y-12582079D01*
X13010658Y-12582079D02*
X13010658Y-12629698D01*
X13010658Y-12629698D02*
X13020182Y-12648746D01*
X13020182Y-12648746D02*
X13029706Y-12658269D01*
X13029706Y-12658269D02*
X13048753Y-12667793D01*
X13048753Y-12667793D02*
X13086848Y-12667793D01*
X13086848Y-12667793D02*
X13105896Y-12658269D01*
X13105896Y-12658269D02*
X13115420Y-12648746D01*
X13115420Y-12648746D02*
X13124944Y-12629698D01*
X13201134Y-12543984D02*
X13201134Y-12582079D01*
X13277325Y-12543984D02*
X13277325Y-12582079D01*
X13572563Y-12820174D02*
X13563039Y-12810650D01*
X13563039Y-12810650D02*
X13543991Y-12782079D01*
X13543991Y-12782079D02*
X13534468Y-12763031D01*
X13534468Y-12763031D02*
X13524944Y-12734460D01*
X13524944Y-12734460D02*
X13515420Y-12686841D01*
X13515420Y-12686841D02*
X13515420Y-12648746D01*
X13515420Y-12648746D02*
X13524944Y-12601127D01*
X13524944Y-12601127D02*
X13534468Y-12572555D01*
X13534468Y-12572555D02*
X13543991Y-12553508D01*
X13543991Y-12553508D02*
X13563039Y-12524936D01*
X13563039Y-12524936D02*
X13572563Y-12515412D01*
X13734468Y-12610650D02*
X13734468Y-12743984D01*
X13686848Y-12534460D02*
X13639229Y-12677317D01*
X13639229Y-12677317D02*
X13763039Y-12677317D01*
X13943991Y-12743984D02*
X13829706Y-12743984D01*
X13886848Y-12743984D02*
X13886848Y-12543984D01*
X13886848Y-12543984D02*
X13867801Y-12572555D01*
X13867801Y-12572555D02*
X13848753Y-12591603D01*
X13848753Y-12591603D02*
X13829706Y-12601127D01*
X14115420Y-12610650D02*
X14115420Y-12743984D01*
X14067801Y-12534460D02*
X14020182Y-12677317D01*
X14020182Y-12677317D02*
X14143991Y-12677317D01*
X14372563Y-12743984D02*
X14372563Y-12543984D01*
X14458277Y-12743984D02*
X14458277Y-12639222D01*
X14458277Y-12639222D02*
X14448753Y-12620174D01*
X14448753Y-12620174D02*
X14429706Y-12610650D01*
X14429706Y-12610650D02*
X14401134Y-12610650D01*
X14401134Y-12610650D02*
X14382087Y-12620174D01*
X14382087Y-12620174D02*
X14372563Y-12629698D01*
X14582087Y-12743984D02*
X14563039Y-12734460D01*
X14563039Y-12734460D02*
X14553515Y-12724936D01*
X14553515Y-12724936D02*
X14543991Y-12705888D01*
X14543991Y-12705888D02*
X14543991Y-12648746D01*
X14543991Y-12648746D02*
X14553515Y-12629698D01*
X14553515Y-12629698D02*
X14563039Y-12620174D01*
X14563039Y-12620174D02*
X14582087Y-12610650D01*
X14582087Y-12610650D02*
X14610658Y-12610650D01*
X14610658Y-12610650D02*
X14629706Y-12620174D01*
X14629706Y-12620174D02*
X14639230Y-12629698D01*
X14639230Y-12629698D02*
X14648753Y-12648746D01*
X14648753Y-12648746D02*
X14648753Y-12705888D01*
X14648753Y-12705888D02*
X14639230Y-12724936D01*
X14639230Y-12724936D02*
X14629706Y-12734460D01*
X14629706Y-12734460D02*
X14610658Y-12743984D01*
X14610658Y-12743984D02*
X14582087Y-12743984D01*
X14763039Y-12743984D02*
X14743991Y-12734460D01*
X14743991Y-12734460D02*
X14734468Y-12715412D01*
X14734468Y-12715412D02*
X14734468Y-12543984D01*
X14915420Y-12734460D02*
X14896372Y-12743984D01*
X14896372Y-12743984D02*
X14858277Y-12743984D01*
X14858277Y-12743984D02*
X14839230Y-12734460D01*
X14839230Y-12734460D02*
X14829706Y-12715412D01*
X14829706Y-12715412D02*
X14829706Y-12639222D01*
X14829706Y-12639222D02*
X14839230Y-12620174D01*
X14839230Y-12620174D02*
X14858277Y-12610650D01*
X14858277Y-12610650D02*
X14896372Y-12610650D01*
X14896372Y-12610650D02*
X14915420Y-12620174D01*
X14915420Y-12620174D02*
X14924944Y-12639222D01*
X14924944Y-12639222D02*
X14924944Y-12658269D01*
X14924944Y-12658269D02*
X14829706Y-12677317D01*
X15001134Y-12734460D02*
X15020182Y-12743984D01*
X15020182Y-12743984D02*
X15058277Y-12743984D01*
X15058277Y-12743984D02*
X15077325Y-12734460D01*
X15077325Y-12734460D02*
X15086849Y-12715412D01*
X15086849Y-12715412D02*
X15086849Y-12705888D01*
X15086849Y-12705888D02*
X15077325Y-12686841D01*
X15077325Y-12686841D02*
X15058277Y-12677317D01*
X15058277Y-12677317D02*
X15029706Y-12677317D01*
X15029706Y-12677317D02*
X15010658Y-12667793D01*
X15010658Y-12667793D02*
X15001134Y-12648746D01*
X15001134Y-12648746D02*
X15001134Y-12639222D01*
X15001134Y-12639222D02*
X15010658Y-12620174D01*
X15010658Y-12620174D02*
X15029706Y-12610650D01*
X15029706Y-12610650D02*
X15058277Y-12610650D01*
X15058277Y-12610650D02*
X15077325Y-12620174D01*
X15153515Y-12820174D02*
X15163039Y-12810650D01*
X15163039Y-12810650D02*
X15182087Y-12782079D01*
X15182087Y-12782079D02*
X15191611Y-12763031D01*
X15191611Y-12763031D02*
X15201134Y-12734460D01*
X15201134Y-12734460D02*
X15210658Y-12686841D01*
X15210658Y-12686841D02*
X15210658Y-12648746D01*
X15210658Y-12648746D02*
X15201134Y-12601127D01*
X15201134Y-12601127D02*
X15191611Y-12572555D01*
X15191611Y-12572555D02*
X15182087Y-12553508D01*
X15182087Y-12553508D02*
X15163039Y-12524936D01*
X15163039Y-12524936D02*
X15153515Y-12515412D01*
D12*
X9997500Y-12916500D02*
G75*
G02*
X9972500Y-12916500I-12500J0D01*
G01*
X9972500Y-12916500D02*
G75*
G02*
X9997500Y-12916500I12500J0D01*
G01*
D11*
X10296372Y-12807984D02*
X10315420Y-12807984D01*
X10315420Y-12807984D02*
X10334467Y-12817508D01*
X10334467Y-12817508D02*
X10343991Y-12827031D01*
X10343991Y-12827031D02*
X10353515Y-12846079D01*
X10353515Y-12846079D02*
X10363039Y-12884174D01*
X10363039Y-12884174D02*
X10363039Y-12931793D01*
X10363039Y-12931793D02*
X10353515Y-12969888D01*
X10353515Y-12969888D02*
X10343991Y-12988936D01*
X10343991Y-12988936D02*
X10334467Y-12998460D01*
X10334467Y-12998460D02*
X10315420Y-13007984D01*
X10315420Y-13007984D02*
X10296372Y-13007984D01*
X10296372Y-13007984D02*
X10277324Y-12998460D01*
X10277324Y-12998460D02*
X10267801Y-12988936D01*
X10267801Y-12988936D02*
X10258277Y-12969888D01*
X10258277Y-12969888D02*
X10248753Y-12931793D01*
X10248753Y-12931793D02*
X10248753Y-12884174D01*
X10248753Y-12884174D02*
X10258277Y-12846079D01*
X10258277Y-12846079D02*
X10267801Y-12827031D01*
X10267801Y-12827031D02*
X10277324Y-12817508D01*
X10277324Y-12817508D02*
X10296372Y-12807984D01*
X10448753Y-12988936D02*
X10458277Y-12998460D01*
X10458277Y-12998460D02*
X10448753Y-13007984D01*
X10448753Y-13007984D02*
X10439229Y-12998460D01*
X10439229Y-12998460D02*
X10448753Y-12988936D01*
X10448753Y-12988936D02*
X10448753Y-13007984D01*
X10534467Y-12827031D02*
X10543991Y-12817508D01*
X10543991Y-12817508D02*
X10563039Y-12807984D01*
X10563039Y-12807984D02*
X10610658Y-12807984D01*
X10610658Y-12807984D02*
X10629705Y-12817508D01*
X10629705Y-12817508D02*
X10639229Y-12827031D01*
X10639229Y-12827031D02*
X10648753Y-12846079D01*
X10648753Y-12846079D02*
X10648753Y-12865127D01*
X10648753Y-12865127D02*
X10639229Y-12893698D01*
X10639229Y-12893698D02*
X10524944Y-13007984D01*
X10524944Y-13007984D02*
X10648753Y-13007984D01*
X10829705Y-12807984D02*
X10734467Y-12807984D01*
X10734467Y-12807984D02*
X10724944Y-12903222D01*
X10724944Y-12903222D02*
X10734467Y-12893698D01*
X10734467Y-12893698D02*
X10753515Y-12884174D01*
X10753515Y-12884174D02*
X10801134Y-12884174D01*
X10801134Y-12884174D02*
X10820182Y-12893698D01*
X10820182Y-12893698D02*
X10829705Y-12903222D01*
X10829705Y-12903222D02*
X10839229Y-12922269D01*
X10839229Y-12922269D02*
X10839229Y-12969888D01*
X10839229Y-12969888D02*
X10829705Y-12988936D01*
X10829705Y-12988936D02*
X10820182Y-12998460D01*
X10820182Y-12998460D02*
X10801134Y-13007984D01*
X10801134Y-13007984D02*
X10753515Y-13007984D01*
X10753515Y-13007984D02*
X10734467Y-12998460D01*
X10734467Y-12998460D02*
X10724944Y-12988936D01*
X10963039Y-12807984D02*
X10982086Y-12807984D01*
X10982086Y-12807984D02*
X11001134Y-12817508D01*
X11001134Y-12817508D02*
X11010658Y-12827031D01*
X11010658Y-12827031D02*
X11020182Y-12846079D01*
X11020182Y-12846079D02*
X11029705Y-12884174D01*
X11029705Y-12884174D02*
X11029705Y-12931793D01*
X11029705Y-12931793D02*
X11020182Y-12969888D01*
X11020182Y-12969888D02*
X11010658Y-12988936D01*
X11010658Y-12988936D02*
X11001134Y-12998460D01*
X11001134Y-12998460D02*
X10982086Y-13007984D01*
X10982086Y-13007984D02*
X10963039Y-13007984D01*
X10963039Y-13007984D02*
X10943991Y-12998460D01*
X10943991Y-12998460D02*
X10934467Y-12988936D01*
X10934467Y-12988936D02*
X10924944Y-12969888D01*
X10924944Y-12969888D02*
X10915420Y-12931793D01*
X10915420Y-12931793D02*
X10915420Y-12884174D01*
X10915420Y-12884174D02*
X10924944Y-12846079D01*
X10924944Y-12846079D02*
X10934467Y-12827031D01*
X10934467Y-12827031D02*
X10943991Y-12817508D01*
X10943991Y-12817508D02*
X10963039Y-12807984D01*
X11115420Y-13007984D02*
X11115420Y-12874650D01*
X11115420Y-12893698D02*
X11124944Y-12884174D01*
X11124944Y-12884174D02*
X11143991Y-12874650D01*
X11143991Y-12874650D02*
X11172563Y-12874650D01*
X11172563Y-12874650D02*
X11191610Y-12884174D01*
X11191610Y-12884174D02*
X11201134Y-12903222D01*
X11201134Y-12903222D02*
X11201134Y-13007984D01*
X11201134Y-12903222D02*
X11210658Y-12884174D01*
X11210658Y-12884174D02*
X11229705Y-12874650D01*
X11229705Y-12874650D02*
X11258277Y-12874650D01*
X11258277Y-12874650D02*
X11277324Y-12884174D01*
X11277324Y-12884174D02*
X11286848Y-12903222D01*
X11286848Y-12903222D02*
X11286848Y-13007984D01*
X11382086Y-13007984D02*
X11382086Y-12874650D01*
X11382086Y-12893698D02*
X11391610Y-12884174D01*
X11391610Y-12884174D02*
X11410658Y-12874650D01*
X11410658Y-12874650D02*
X11439229Y-12874650D01*
X11439229Y-12874650D02*
X11458277Y-12884174D01*
X11458277Y-12884174D02*
X11467801Y-12903222D01*
X11467801Y-12903222D02*
X11467801Y-13007984D01*
X11467801Y-12903222D02*
X11477324Y-12884174D01*
X11477324Y-12884174D02*
X11496372Y-12874650D01*
X11496372Y-12874650D02*
X11524943Y-12874650D01*
X11524943Y-12874650D02*
X11543991Y-12884174D01*
X11543991Y-12884174D02*
X11553515Y-12903222D01*
X11553515Y-12903222D02*
X11553515Y-13007984D01*
X11943991Y-12798460D02*
X11772563Y-13055603D01*
X12201134Y-12807984D02*
X12220182Y-12807984D01*
X12220182Y-12807984D02*
X12239229Y-12817508D01*
X12239229Y-12817508D02*
X12248753Y-12827031D01*
X12248753Y-12827031D02*
X12258277Y-12846079D01*
X12258277Y-12846079D02*
X12267801Y-12884174D01*
X12267801Y-12884174D02*
X12267801Y-12931793D01*
X12267801Y-12931793D02*
X12258277Y-12969888D01*
X12258277Y-12969888D02*
X12248753Y-12988936D01*
X12248753Y-12988936D02*
X12239229Y-12998460D01*
X12239229Y-12998460D02*
X12220182Y-13007984D01*
X12220182Y-13007984D02*
X12201134Y-13007984D01*
X12201134Y-13007984D02*
X12182086Y-12998460D01*
X12182086Y-12998460D02*
X12172563Y-12988936D01*
X12172563Y-12988936D02*
X12163039Y-12969888D01*
X12163039Y-12969888D02*
X12153515Y-12931793D01*
X12153515Y-12931793D02*
X12153515Y-12884174D01*
X12153515Y-12884174D02*
X12163039Y-12846079D01*
X12163039Y-12846079D02*
X12172563Y-12827031D01*
X12172563Y-12827031D02*
X12182086Y-12817508D01*
X12182086Y-12817508D02*
X12201134Y-12807984D01*
X12353515Y-12988936D02*
X12363039Y-12998460D01*
X12363039Y-12998460D02*
X12353515Y-13007984D01*
X12353515Y-13007984D02*
X12343991Y-12998460D01*
X12343991Y-12998460D02*
X12353515Y-12988936D01*
X12353515Y-12988936D02*
X12353515Y-13007984D01*
X12486848Y-12807984D02*
X12505896Y-12807984D01*
X12505896Y-12807984D02*
X12524944Y-12817508D01*
X12524944Y-12817508D02*
X12534467Y-12827031D01*
X12534467Y-12827031D02*
X12543991Y-12846079D01*
X12543991Y-12846079D02*
X12553515Y-12884174D01*
X12553515Y-12884174D02*
X12553515Y-12931793D01*
X12553515Y-12931793D02*
X12543991Y-12969888D01*
X12543991Y-12969888D02*
X12534467Y-12988936D01*
X12534467Y-12988936D02*
X12524944Y-12998460D01*
X12524944Y-12998460D02*
X12505896Y-13007984D01*
X12505896Y-13007984D02*
X12486848Y-13007984D01*
X12486848Y-13007984D02*
X12467801Y-12998460D01*
X12467801Y-12998460D02*
X12458277Y-12988936D01*
X12458277Y-12988936D02*
X12448753Y-12969888D01*
X12448753Y-12969888D02*
X12439229Y-12931793D01*
X12439229Y-12931793D02*
X12439229Y-12884174D01*
X12439229Y-12884174D02*
X12448753Y-12846079D01*
X12448753Y-12846079D02*
X12458277Y-12827031D01*
X12458277Y-12827031D02*
X12467801Y-12817508D01*
X12467801Y-12817508D02*
X12486848Y-12807984D01*
X12677325Y-12807984D02*
X12696372Y-12807984D01*
X12696372Y-12807984D02*
X12715420Y-12817508D01*
X12715420Y-12817508D02*
X12724944Y-12827031D01*
X12724944Y-12827031D02*
X12734467Y-12846079D01*
X12734467Y-12846079D02*
X12743991Y-12884174D01*
X12743991Y-12884174D02*
X12743991Y-12931793D01*
X12743991Y-12931793D02*
X12734467Y-12969888D01*
X12734467Y-12969888D02*
X12724944Y-12988936D01*
X12724944Y-12988936D02*
X12715420Y-12998460D01*
X12715420Y-12998460D02*
X12696372Y-13007984D01*
X12696372Y-13007984D02*
X12677325Y-13007984D01*
X12677325Y-13007984D02*
X12658277Y-12998460D01*
X12658277Y-12998460D02*
X12648753Y-12988936D01*
X12648753Y-12988936D02*
X12639229Y-12969888D01*
X12639229Y-12969888D02*
X12629706Y-12931793D01*
X12629706Y-12931793D02*
X12629706Y-12884174D01*
X12629706Y-12884174D02*
X12639229Y-12846079D01*
X12639229Y-12846079D02*
X12648753Y-12827031D01*
X12648753Y-12827031D02*
X12658277Y-12817508D01*
X12658277Y-12817508D02*
X12677325Y-12807984D01*
X12839229Y-13007984D02*
X12877325Y-13007984D01*
X12877325Y-13007984D02*
X12896372Y-12998460D01*
X12896372Y-12998460D02*
X12905896Y-12988936D01*
X12905896Y-12988936D02*
X12924944Y-12960365D01*
X12924944Y-12960365D02*
X12934467Y-12922269D01*
X12934467Y-12922269D02*
X12934467Y-12846079D01*
X12934467Y-12846079D02*
X12924944Y-12827031D01*
X12924944Y-12827031D02*
X12915420Y-12817508D01*
X12915420Y-12817508D02*
X12896372Y-12807984D01*
X12896372Y-12807984D02*
X12858277Y-12807984D01*
X12858277Y-12807984D02*
X12839229Y-12817508D01*
X12839229Y-12817508D02*
X12829706Y-12827031D01*
X12829706Y-12827031D02*
X12820182Y-12846079D01*
X12820182Y-12846079D02*
X12820182Y-12893698D01*
X12820182Y-12893698D02*
X12829706Y-12912746D01*
X12829706Y-12912746D02*
X12839229Y-12922269D01*
X12839229Y-12922269D02*
X12858277Y-12931793D01*
X12858277Y-12931793D02*
X12896372Y-12931793D01*
X12896372Y-12931793D02*
X12915420Y-12922269D01*
X12915420Y-12922269D02*
X12924944Y-12912746D01*
X12924944Y-12912746D02*
X12934467Y-12893698D01*
X13048753Y-12893698D02*
X13029706Y-12884174D01*
X13029706Y-12884174D02*
X13020182Y-12874650D01*
X13020182Y-12874650D02*
X13010658Y-12855603D01*
X13010658Y-12855603D02*
X13010658Y-12846079D01*
X13010658Y-12846079D02*
X13020182Y-12827031D01*
X13020182Y-12827031D02*
X13029706Y-12817508D01*
X13029706Y-12817508D02*
X13048753Y-12807984D01*
X13048753Y-12807984D02*
X13086848Y-12807984D01*
X13086848Y-12807984D02*
X13105896Y-12817508D01*
X13105896Y-12817508D02*
X13115420Y-12827031D01*
X13115420Y-12827031D02*
X13124944Y-12846079D01*
X13124944Y-12846079D02*
X13124944Y-12855603D01*
X13124944Y-12855603D02*
X13115420Y-12874650D01*
X13115420Y-12874650D02*
X13105896Y-12884174D01*
X13105896Y-12884174D02*
X13086848Y-12893698D01*
X13086848Y-12893698D02*
X13048753Y-12893698D01*
X13048753Y-12893698D02*
X13029706Y-12903222D01*
X13029706Y-12903222D02*
X13020182Y-12912746D01*
X13020182Y-12912746D02*
X13010658Y-12931793D01*
X13010658Y-12931793D02*
X13010658Y-12969888D01*
X13010658Y-12969888D02*
X13020182Y-12988936D01*
X13020182Y-12988936D02*
X13029706Y-12998460D01*
X13029706Y-12998460D02*
X13048753Y-13007984D01*
X13048753Y-13007984D02*
X13086848Y-13007984D01*
X13086848Y-13007984D02*
X13105896Y-12998460D01*
X13105896Y-12998460D02*
X13115420Y-12988936D01*
X13115420Y-12988936D02*
X13124944Y-12969888D01*
X13124944Y-12969888D02*
X13124944Y-12931793D01*
X13124944Y-12931793D02*
X13115420Y-12912746D01*
X13115420Y-12912746D02*
X13105896Y-12903222D01*
X13105896Y-12903222D02*
X13086848Y-12893698D01*
X13201134Y-12807984D02*
X13201134Y-12846079D01*
X13277325Y-12807984D02*
X13277325Y-12846079D01*
X13572563Y-13084174D02*
X13563039Y-13074650D01*
X13563039Y-13074650D02*
X13543991Y-13046079D01*
X13543991Y-13046079D02*
X13534468Y-13027031D01*
X13534468Y-13027031D02*
X13524944Y-12998460D01*
X13524944Y-12998460D02*
X13515420Y-12950841D01*
X13515420Y-12950841D02*
X13515420Y-12912746D01*
X13515420Y-12912746D02*
X13524944Y-12865127D01*
X13524944Y-12865127D02*
X13534468Y-12836555D01*
X13534468Y-12836555D02*
X13543991Y-12817508D01*
X13543991Y-12817508D02*
X13563039Y-12788936D01*
X13563039Y-12788936D02*
X13572563Y-12779412D01*
X13629706Y-12807984D02*
X13753515Y-12807984D01*
X13753515Y-12807984D02*
X13686848Y-12884174D01*
X13686848Y-12884174D02*
X13715420Y-12884174D01*
X13715420Y-12884174D02*
X13734468Y-12893698D01*
X13734468Y-12893698D02*
X13743991Y-12903222D01*
X13743991Y-12903222D02*
X13753515Y-12922269D01*
X13753515Y-12922269D02*
X13753515Y-12969888D01*
X13753515Y-12969888D02*
X13743991Y-12988936D01*
X13743991Y-12988936D02*
X13734468Y-12998460D01*
X13734468Y-12998460D02*
X13715420Y-13007984D01*
X13715420Y-13007984D02*
X13658277Y-13007984D01*
X13658277Y-13007984D02*
X13639229Y-12998460D01*
X13639229Y-12998460D02*
X13629706Y-12988936D01*
X13934468Y-12807984D02*
X13839229Y-12807984D01*
X13839229Y-12807984D02*
X13829706Y-12903222D01*
X13829706Y-12903222D02*
X13839229Y-12893698D01*
X13839229Y-12893698D02*
X13858277Y-12884174D01*
X13858277Y-12884174D02*
X13905896Y-12884174D01*
X13905896Y-12884174D02*
X13924944Y-12893698D01*
X13924944Y-12893698D02*
X13934468Y-12903222D01*
X13934468Y-12903222D02*
X13943991Y-12922269D01*
X13943991Y-12922269D02*
X13943991Y-12969888D01*
X13943991Y-12969888D02*
X13934468Y-12988936D01*
X13934468Y-12988936D02*
X13924944Y-12998460D01*
X13924944Y-12998460D02*
X13905896Y-13007984D01*
X13905896Y-13007984D02*
X13858277Y-13007984D01*
X13858277Y-13007984D02*
X13839229Y-12998460D01*
X13839229Y-12998460D02*
X13829706Y-12988936D01*
X14182087Y-13007984D02*
X14182087Y-12807984D01*
X14267801Y-13007984D02*
X14267801Y-12903222D01*
X14267801Y-12903222D02*
X14258277Y-12884174D01*
X14258277Y-12884174D02*
X14239230Y-12874650D01*
X14239230Y-12874650D02*
X14210658Y-12874650D01*
X14210658Y-12874650D02*
X14191610Y-12884174D01*
X14191610Y-12884174D02*
X14182087Y-12893698D01*
X14391610Y-13007984D02*
X14372563Y-12998460D01*
X14372563Y-12998460D02*
X14363039Y-12988936D01*
X14363039Y-12988936D02*
X14353515Y-12969888D01*
X14353515Y-12969888D02*
X14353515Y-12912746D01*
X14353515Y-12912746D02*
X14363039Y-12893698D01*
X14363039Y-12893698D02*
X14372563Y-12884174D01*
X14372563Y-12884174D02*
X14391610Y-12874650D01*
X14391610Y-12874650D02*
X14420182Y-12874650D01*
X14420182Y-12874650D02*
X14439230Y-12884174D01*
X14439230Y-12884174D02*
X14448753Y-12893698D01*
X14448753Y-12893698D02*
X14458277Y-12912746D01*
X14458277Y-12912746D02*
X14458277Y-12969888D01*
X14458277Y-12969888D02*
X14448753Y-12988936D01*
X14448753Y-12988936D02*
X14439230Y-12998460D01*
X14439230Y-12998460D02*
X14420182Y-13007984D01*
X14420182Y-13007984D02*
X14391610Y-13007984D01*
X14572563Y-13007984D02*
X14553515Y-12998460D01*
X14553515Y-12998460D02*
X14543991Y-12979412D01*
X14543991Y-12979412D02*
X14543991Y-12807984D01*
X14724944Y-12998460D02*
X14705896Y-13007984D01*
X14705896Y-13007984D02*
X14667801Y-13007984D01*
X14667801Y-13007984D02*
X14648753Y-12998460D01*
X14648753Y-12998460D02*
X14639230Y-12979412D01*
X14639230Y-12979412D02*
X14639230Y-12903222D01*
X14639230Y-12903222D02*
X14648753Y-12884174D01*
X14648753Y-12884174D02*
X14667801Y-12874650D01*
X14667801Y-12874650D02*
X14705896Y-12874650D01*
X14705896Y-12874650D02*
X14724944Y-12884174D01*
X14724944Y-12884174D02*
X14734468Y-12903222D01*
X14734468Y-12903222D02*
X14734468Y-12922269D01*
X14734468Y-12922269D02*
X14639230Y-12941317D01*
X14810658Y-12998460D02*
X14829706Y-13007984D01*
X14829706Y-13007984D02*
X14867801Y-13007984D01*
X14867801Y-13007984D02*
X14886849Y-12998460D01*
X14886849Y-12998460D02*
X14896372Y-12979412D01*
X14896372Y-12979412D02*
X14896372Y-12969888D01*
X14896372Y-12969888D02*
X14886849Y-12950841D01*
X14886849Y-12950841D02*
X14867801Y-12941317D01*
X14867801Y-12941317D02*
X14839230Y-12941317D01*
X14839230Y-12941317D02*
X14820182Y-12931793D01*
X14820182Y-12931793D02*
X14810658Y-12912746D01*
X14810658Y-12912746D02*
X14810658Y-12903222D01*
X14810658Y-12903222D02*
X14820182Y-12884174D01*
X14820182Y-12884174D02*
X14839230Y-12874650D01*
X14839230Y-12874650D02*
X14867801Y-12874650D01*
X14867801Y-12874650D02*
X14886849Y-12884174D01*
X14963039Y-13084174D02*
X14972563Y-13074650D01*
X14972563Y-13074650D02*
X14991611Y-13046079D01*
X14991611Y-13046079D02*
X15001134Y-13027031D01*
X15001134Y-13027031D02*
X15010658Y-12998460D01*
X15010658Y-12998460D02*
X15020182Y-12950841D01*
X15020182Y-12950841D02*
X15020182Y-12912746D01*
X15020182Y-12912746D02*
X15010658Y-12865127D01*
X15010658Y-12865127D02*
X15001134Y-12836555D01*
X15001134Y-12836555D02*
X14991611Y-12817508D01*
X14991611Y-12817508D02*
X14972563Y-12788936D01*
X14972563Y-12788936D02*
X14963039Y-12779412D01*
D12*
X9982500Y-13165500D02*
X9982500Y-13195500D01*
X9967500Y-13180500D02*
X9997500Y-13180500D01*
D11*
X10296372Y-13071984D02*
X10315420Y-13071984D01*
X10315420Y-13071984D02*
X10334467Y-13081508D01*
X10334467Y-13081508D02*
X10343991Y-13091031D01*
X10343991Y-13091031D02*
X10353515Y-13110079D01*
X10353515Y-13110079D02*
X10363039Y-13148174D01*
X10363039Y-13148174D02*
X10363039Y-13195793D01*
X10363039Y-13195793D02*
X10353515Y-13233888D01*
X10353515Y-13233888D02*
X10343991Y-13252936D01*
X10343991Y-13252936D02*
X10334467Y-13262460D01*
X10334467Y-13262460D02*
X10315420Y-13271984D01*
X10315420Y-13271984D02*
X10296372Y-13271984D01*
X10296372Y-13271984D02*
X10277324Y-13262460D01*
X10277324Y-13262460D02*
X10267801Y-13252936D01*
X10267801Y-13252936D02*
X10258277Y-13233888D01*
X10258277Y-13233888D02*
X10248753Y-13195793D01*
X10248753Y-13195793D02*
X10248753Y-13148174D01*
X10248753Y-13148174D02*
X10258277Y-13110079D01*
X10258277Y-13110079D02*
X10267801Y-13091031D01*
X10267801Y-13091031D02*
X10277324Y-13081508D01*
X10277324Y-13081508D02*
X10296372Y-13071984D01*
X10448753Y-13252936D02*
X10458277Y-13262460D01*
X10458277Y-13262460D02*
X10448753Y-13271984D01*
X10448753Y-13271984D02*
X10439229Y-13262460D01*
X10439229Y-13262460D02*
X10448753Y-13252936D01*
X10448753Y-13252936D02*
X10448753Y-13271984D01*
X10524944Y-13071984D02*
X10648753Y-13071984D01*
X10648753Y-13071984D02*
X10582086Y-13148174D01*
X10582086Y-13148174D02*
X10610658Y-13148174D01*
X10610658Y-13148174D02*
X10629705Y-13157698D01*
X10629705Y-13157698D02*
X10639229Y-13167222D01*
X10639229Y-13167222D02*
X10648753Y-13186269D01*
X10648753Y-13186269D02*
X10648753Y-13233888D01*
X10648753Y-13233888D02*
X10639229Y-13252936D01*
X10639229Y-13252936D02*
X10629705Y-13262460D01*
X10629705Y-13262460D02*
X10610658Y-13271984D01*
X10610658Y-13271984D02*
X10553515Y-13271984D01*
X10553515Y-13271984D02*
X10534467Y-13262460D01*
X10534467Y-13262460D02*
X10524944Y-13252936D01*
X10772563Y-13071984D02*
X10791610Y-13071984D01*
X10791610Y-13071984D02*
X10810658Y-13081508D01*
X10810658Y-13081508D02*
X10820182Y-13091031D01*
X10820182Y-13091031D02*
X10829705Y-13110079D01*
X10829705Y-13110079D02*
X10839229Y-13148174D01*
X10839229Y-13148174D02*
X10839229Y-13195793D01*
X10839229Y-13195793D02*
X10829705Y-13233888D01*
X10829705Y-13233888D02*
X10820182Y-13252936D01*
X10820182Y-13252936D02*
X10810658Y-13262460D01*
X10810658Y-13262460D02*
X10791610Y-13271984D01*
X10791610Y-13271984D02*
X10772563Y-13271984D01*
X10772563Y-13271984D02*
X10753515Y-13262460D01*
X10753515Y-13262460D02*
X10743991Y-13252936D01*
X10743991Y-13252936D02*
X10734467Y-13233888D01*
X10734467Y-13233888D02*
X10724944Y-13195793D01*
X10724944Y-13195793D02*
X10724944Y-13148174D01*
X10724944Y-13148174D02*
X10734467Y-13110079D01*
X10734467Y-13110079D02*
X10743991Y-13091031D01*
X10743991Y-13091031D02*
X10753515Y-13081508D01*
X10753515Y-13081508D02*
X10772563Y-13071984D01*
X10963039Y-13071984D02*
X10982086Y-13071984D01*
X10982086Y-13071984D02*
X11001134Y-13081508D01*
X11001134Y-13081508D02*
X11010658Y-13091031D01*
X11010658Y-13091031D02*
X11020182Y-13110079D01*
X11020182Y-13110079D02*
X11029705Y-13148174D01*
X11029705Y-13148174D02*
X11029705Y-13195793D01*
X11029705Y-13195793D02*
X11020182Y-13233888D01*
X11020182Y-13233888D02*
X11010658Y-13252936D01*
X11010658Y-13252936D02*
X11001134Y-13262460D01*
X11001134Y-13262460D02*
X10982086Y-13271984D01*
X10982086Y-13271984D02*
X10963039Y-13271984D01*
X10963039Y-13271984D02*
X10943991Y-13262460D01*
X10943991Y-13262460D02*
X10934467Y-13252936D01*
X10934467Y-13252936D02*
X10924944Y-13233888D01*
X10924944Y-13233888D02*
X10915420Y-13195793D01*
X10915420Y-13195793D02*
X10915420Y-13148174D01*
X10915420Y-13148174D02*
X10924944Y-13110079D01*
X10924944Y-13110079D02*
X10934467Y-13091031D01*
X10934467Y-13091031D02*
X10943991Y-13081508D01*
X10943991Y-13081508D02*
X10963039Y-13071984D01*
X11115420Y-13271984D02*
X11115420Y-13138650D01*
X11115420Y-13157698D02*
X11124944Y-13148174D01*
X11124944Y-13148174D02*
X11143991Y-13138650D01*
X11143991Y-13138650D02*
X11172563Y-13138650D01*
X11172563Y-13138650D02*
X11191610Y-13148174D01*
X11191610Y-13148174D02*
X11201134Y-13167222D01*
X11201134Y-13167222D02*
X11201134Y-13271984D01*
X11201134Y-13167222D02*
X11210658Y-13148174D01*
X11210658Y-13148174D02*
X11229705Y-13138650D01*
X11229705Y-13138650D02*
X11258277Y-13138650D01*
X11258277Y-13138650D02*
X11277324Y-13148174D01*
X11277324Y-13148174D02*
X11286848Y-13167222D01*
X11286848Y-13167222D02*
X11286848Y-13271984D01*
X11382086Y-13271984D02*
X11382086Y-13138650D01*
X11382086Y-13157698D02*
X11391610Y-13148174D01*
X11391610Y-13148174D02*
X11410658Y-13138650D01*
X11410658Y-13138650D02*
X11439229Y-13138650D01*
X11439229Y-13138650D02*
X11458277Y-13148174D01*
X11458277Y-13148174D02*
X11467801Y-13167222D01*
X11467801Y-13167222D02*
X11467801Y-13271984D01*
X11467801Y-13167222D02*
X11477324Y-13148174D01*
X11477324Y-13148174D02*
X11496372Y-13138650D01*
X11496372Y-13138650D02*
X11524943Y-13138650D01*
X11524943Y-13138650D02*
X11543991Y-13148174D01*
X11543991Y-13148174D02*
X11553515Y-13167222D01*
X11553515Y-13167222D02*
X11553515Y-13271984D01*
X11943991Y-13062460D02*
X11772563Y-13319603D01*
X12201134Y-13071984D02*
X12220182Y-13071984D01*
X12220182Y-13071984D02*
X12239229Y-13081508D01*
X12239229Y-13081508D02*
X12248753Y-13091031D01*
X12248753Y-13091031D02*
X12258277Y-13110079D01*
X12258277Y-13110079D02*
X12267801Y-13148174D01*
X12267801Y-13148174D02*
X12267801Y-13195793D01*
X12267801Y-13195793D02*
X12258277Y-13233888D01*
X12258277Y-13233888D02*
X12248753Y-13252936D01*
X12248753Y-13252936D02*
X12239229Y-13262460D01*
X12239229Y-13262460D02*
X12220182Y-13271984D01*
X12220182Y-13271984D02*
X12201134Y-13271984D01*
X12201134Y-13271984D02*
X12182086Y-13262460D01*
X12182086Y-13262460D02*
X12172563Y-13252936D01*
X12172563Y-13252936D02*
X12163039Y-13233888D01*
X12163039Y-13233888D02*
X12153515Y-13195793D01*
X12153515Y-13195793D02*
X12153515Y-13148174D01*
X12153515Y-13148174D02*
X12163039Y-13110079D01*
X12163039Y-13110079D02*
X12172563Y-13091031D01*
X12172563Y-13091031D02*
X12182086Y-13081508D01*
X12182086Y-13081508D02*
X12201134Y-13071984D01*
X12353515Y-13252936D02*
X12363039Y-13262460D01*
X12363039Y-13262460D02*
X12353515Y-13271984D01*
X12353515Y-13271984D02*
X12343991Y-13262460D01*
X12343991Y-13262460D02*
X12353515Y-13252936D01*
X12353515Y-13252936D02*
X12353515Y-13271984D01*
X12486848Y-13071984D02*
X12505896Y-13071984D01*
X12505896Y-13071984D02*
X12524944Y-13081508D01*
X12524944Y-13081508D02*
X12534467Y-13091031D01*
X12534467Y-13091031D02*
X12543991Y-13110079D01*
X12543991Y-13110079D02*
X12553515Y-13148174D01*
X12553515Y-13148174D02*
X12553515Y-13195793D01*
X12553515Y-13195793D02*
X12543991Y-13233888D01*
X12543991Y-13233888D02*
X12534467Y-13252936D01*
X12534467Y-13252936D02*
X12524944Y-13262460D01*
X12524944Y-13262460D02*
X12505896Y-13271984D01*
X12505896Y-13271984D02*
X12486848Y-13271984D01*
X12486848Y-13271984D02*
X12467801Y-13262460D01*
X12467801Y-13262460D02*
X12458277Y-13252936D01*
X12458277Y-13252936D02*
X12448753Y-13233888D01*
X12448753Y-13233888D02*
X12439229Y-13195793D01*
X12439229Y-13195793D02*
X12439229Y-13148174D01*
X12439229Y-13148174D02*
X12448753Y-13110079D01*
X12448753Y-13110079D02*
X12458277Y-13091031D01*
X12458277Y-13091031D02*
X12467801Y-13081508D01*
X12467801Y-13081508D02*
X12486848Y-13071984D01*
X12743991Y-13271984D02*
X12629706Y-13271984D01*
X12686848Y-13271984D02*
X12686848Y-13071984D01*
X12686848Y-13071984D02*
X12667801Y-13100555D01*
X12667801Y-13100555D02*
X12648753Y-13119603D01*
X12648753Y-13119603D02*
X12629706Y-13129127D01*
X12934467Y-13271984D02*
X12820182Y-13271984D01*
X12877325Y-13271984D02*
X12877325Y-13071984D01*
X12877325Y-13071984D02*
X12858277Y-13100555D01*
X12858277Y-13100555D02*
X12839229Y-13119603D01*
X12839229Y-13119603D02*
X12820182Y-13129127D01*
X13048753Y-13157698D02*
X13029706Y-13148174D01*
X13029706Y-13148174D02*
X13020182Y-13138650D01*
X13020182Y-13138650D02*
X13010658Y-13119603D01*
X13010658Y-13119603D02*
X13010658Y-13110079D01*
X13010658Y-13110079D02*
X13020182Y-13091031D01*
X13020182Y-13091031D02*
X13029706Y-13081508D01*
X13029706Y-13081508D02*
X13048753Y-13071984D01*
X13048753Y-13071984D02*
X13086848Y-13071984D01*
X13086848Y-13071984D02*
X13105896Y-13081508D01*
X13105896Y-13081508D02*
X13115420Y-13091031D01*
X13115420Y-13091031D02*
X13124944Y-13110079D01*
X13124944Y-13110079D02*
X13124944Y-13119603D01*
X13124944Y-13119603D02*
X13115420Y-13138650D01*
X13115420Y-13138650D02*
X13105896Y-13148174D01*
X13105896Y-13148174D02*
X13086848Y-13157698D01*
X13086848Y-13157698D02*
X13048753Y-13157698D01*
X13048753Y-13157698D02*
X13029706Y-13167222D01*
X13029706Y-13167222D02*
X13020182Y-13176746D01*
X13020182Y-13176746D02*
X13010658Y-13195793D01*
X13010658Y-13195793D02*
X13010658Y-13233888D01*
X13010658Y-13233888D02*
X13020182Y-13252936D01*
X13020182Y-13252936D02*
X13029706Y-13262460D01*
X13029706Y-13262460D02*
X13048753Y-13271984D01*
X13048753Y-13271984D02*
X13086848Y-13271984D01*
X13086848Y-13271984D02*
X13105896Y-13262460D01*
X13105896Y-13262460D02*
X13115420Y-13252936D01*
X13115420Y-13252936D02*
X13124944Y-13233888D01*
X13124944Y-13233888D02*
X13124944Y-13195793D01*
X13124944Y-13195793D02*
X13115420Y-13176746D01*
X13115420Y-13176746D02*
X13105896Y-13167222D01*
X13105896Y-13167222D02*
X13086848Y-13157698D01*
X13201134Y-13071984D02*
X13201134Y-13110079D01*
X13277325Y-13071984D02*
X13277325Y-13110079D01*
X13572563Y-13348174D02*
X13563039Y-13338650D01*
X13563039Y-13338650D02*
X13543991Y-13310079D01*
X13543991Y-13310079D02*
X13534468Y-13291031D01*
X13534468Y-13291031D02*
X13524944Y-13262460D01*
X13524944Y-13262460D02*
X13515420Y-13214841D01*
X13515420Y-13214841D02*
X13515420Y-13176746D01*
X13515420Y-13176746D02*
X13524944Y-13129127D01*
X13524944Y-13129127D02*
X13534468Y-13100555D01*
X13534468Y-13100555D02*
X13543991Y-13081508D01*
X13543991Y-13081508D02*
X13563039Y-13052936D01*
X13563039Y-13052936D02*
X13572563Y-13043412D01*
X13743991Y-13071984D02*
X13648753Y-13071984D01*
X13648753Y-13071984D02*
X13639229Y-13167222D01*
X13639229Y-13167222D02*
X13648753Y-13157698D01*
X13648753Y-13157698D02*
X13667801Y-13148174D01*
X13667801Y-13148174D02*
X13715420Y-13148174D01*
X13715420Y-13148174D02*
X13734468Y-13157698D01*
X13734468Y-13157698D02*
X13743991Y-13167222D01*
X13743991Y-13167222D02*
X13753515Y-13186269D01*
X13753515Y-13186269D02*
X13753515Y-13233888D01*
X13753515Y-13233888D02*
X13743991Y-13252936D01*
X13743991Y-13252936D02*
X13734468Y-13262460D01*
X13734468Y-13262460D02*
X13715420Y-13271984D01*
X13715420Y-13271984D02*
X13667801Y-13271984D01*
X13667801Y-13271984D02*
X13648753Y-13262460D01*
X13648753Y-13262460D02*
X13639229Y-13252936D01*
X13820182Y-13071984D02*
X13943991Y-13071984D01*
X13943991Y-13071984D02*
X13877325Y-13148174D01*
X13877325Y-13148174D02*
X13905896Y-13148174D01*
X13905896Y-13148174D02*
X13924944Y-13157698D01*
X13924944Y-13157698D02*
X13934468Y-13167222D01*
X13934468Y-13167222D02*
X13943991Y-13186269D01*
X13943991Y-13186269D02*
X13943991Y-13233888D01*
X13943991Y-13233888D02*
X13934468Y-13252936D01*
X13934468Y-13252936D02*
X13924944Y-13262460D01*
X13924944Y-13262460D02*
X13905896Y-13271984D01*
X13905896Y-13271984D02*
X13848753Y-13271984D01*
X13848753Y-13271984D02*
X13829706Y-13262460D01*
X13829706Y-13262460D02*
X13820182Y-13252936D01*
X14182087Y-13271984D02*
X14182087Y-13071984D01*
X14267801Y-13271984D02*
X14267801Y-13167222D01*
X14267801Y-13167222D02*
X14258277Y-13148174D01*
X14258277Y-13148174D02*
X14239230Y-13138650D01*
X14239230Y-13138650D02*
X14210658Y-13138650D01*
X14210658Y-13138650D02*
X14191610Y-13148174D01*
X14191610Y-13148174D02*
X14182087Y-13157698D01*
X14391610Y-13271984D02*
X14372563Y-13262460D01*
X14372563Y-13262460D02*
X14363039Y-13252936D01*
X14363039Y-13252936D02*
X14353515Y-13233888D01*
X14353515Y-13233888D02*
X14353515Y-13176746D01*
X14353515Y-13176746D02*
X14363039Y-13157698D01*
X14363039Y-13157698D02*
X14372563Y-13148174D01*
X14372563Y-13148174D02*
X14391610Y-13138650D01*
X14391610Y-13138650D02*
X14420182Y-13138650D01*
X14420182Y-13138650D02*
X14439230Y-13148174D01*
X14439230Y-13148174D02*
X14448753Y-13157698D01*
X14448753Y-13157698D02*
X14458277Y-13176746D01*
X14458277Y-13176746D02*
X14458277Y-13233888D01*
X14458277Y-13233888D02*
X14448753Y-13252936D01*
X14448753Y-13252936D02*
X14439230Y-13262460D01*
X14439230Y-13262460D02*
X14420182Y-13271984D01*
X14420182Y-13271984D02*
X14391610Y-13271984D01*
X14572563Y-13271984D02*
X14553515Y-13262460D01*
X14553515Y-13262460D02*
X14543991Y-13243412D01*
X14543991Y-13243412D02*
X14543991Y-13071984D01*
X14724944Y-13262460D02*
X14705896Y-13271984D01*
X14705896Y-13271984D02*
X14667801Y-13271984D01*
X14667801Y-13271984D02*
X14648753Y-13262460D01*
X14648753Y-13262460D02*
X14639230Y-13243412D01*
X14639230Y-13243412D02*
X14639230Y-13167222D01*
X14639230Y-13167222D02*
X14648753Y-13148174D01*
X14648753Y-13148174D02*
X14667801Y-13138650D01*
X14667801Y-13138650D02*
X14705896Y-13138650D01*
X14705896Y-13138650D02*
X14724944Y-13148174D01*
X14724944Y-13148174D02*
X14734468Y-13167222D01*
X14734468Y-13167222D02*
X14734468Y-13186269D01*
X14734468Y-13186269D02*
X14639230Y-13205317D01*
X14810658Y-13262460D02*
X14829706Y-13271984D01*
X14829706Y-13271984D02*
X14867801Y-13271984D01*
X14867801Y-13271984D02*
X14886849Y-13262460D01*
X14886849Y-13262460D02*
X14896372Y-13243412D01*
X14896372Y-13243412D02*
X14896372Y-13233888D01*
X14896372Y-13233888D02*
X14886849Y-13214841D01*
X14886849Y-13214841D02*
X14867801Y-13205317D01*
X14867801Y-13205317D02*
X14839230Y-13205317D01*
X14839230Y-13205317D02*
X14820182Y-13195793D01*
X14820182Y-13195793D02*
X14810658Y-13176746D01*
X14810658Y-13176746D02*
X14810658Y-13167222D01*
X14810658Y-13167222D02*
X14820182Y-13148174D01*
X14820182Y-13148174D02*
X14839230Y-13138650D01*
X14839230Y-13138650D02*
X14867801Y-13138650D01*
X14867801Y-13138650D02*
X14886849Y-13148174D01*
X14963039Y-13348174D02*
X14972563Y-13338650D01*
X14972563Y-13338650D02*
X14991611Y-13310079D01*
X14991611Y-13310079D02*
X15001134Y-13291031D01*
X15001134Y-13291031D02*
X15010658Y-13262460D01*
X15010658Y-13262460D02*
X15020182Y-13214841D01*
X15020182Y-13214841D02*
X15020182Y-13176746D01*
X15020182Y-13176746D02*
X15010658Y-13129127D01*
X15010658Y-13129127D02*
X15001134Y-13100555D01*
X15001134Y-13100555D02*
X14991611Y-13081508D01*
X14991611Y-13081508D02*
X14972563Y-13052936D01*
X14972563Y-13052936D02*
X14963039Y-13043412D01*
D12*
X9987981Y-13467481D02*
X9987981Y-13421519D01*
X9942019Y-13421519D01*
X9942019Y-13467481D01*
X9987981Y-13467481D01*
D11*
X10296372Y-13335984D02*
X10315420Y-13335984D01*
X10315420Y-13335984D02*
X10334467Y-13345508D01*
X10334467Y-13345508D02*
X10343991Y-13355031D01*
X10343991Y-13355031D02*
X10353515Y-13374079D01*
X10353515Y-13374079D02*
X10363039Y-13412174D01*
X10363039Y-13412174D02*
X10363039Y-13459793D01*
X10363039Y-13459793D02*
X10353515Y-13497888D01*
X10353515Y-13497888D02*
X10343991Y-13516936D01*
X10343991Y-13516936D02*
X10334467Y-13526460D01*
X10334467Y-13526460D02*
X10315420Y-13535984D01*
X10315420Y-13535984D02*
X10296372Y-13535984D01*
X10296372Y-13535984D02*
X10277324Y-13526460D01*
X10277324Y-13526460D02*
X10267801Y-13516936D01*
X10267801Y-13516936D02*
X10258277Y-13497888D01*
X10258277Y-13497888D02*
X10248753Y-13459793D01*
X10248753Y-13459793D02*
X10248753Y-13412174D01*
X10248753Y-13412174D02*
X10258277Y-13374079D01*
X10258277Y-13374079D02*
X10267801Y-13355031D01*
X10267801Y-13355031D02*
X10277324Y-13345508D01*
X10277324Y-13345508D02*
X10296372Y-13335984D01*
X10448753Y-13516936D02*
X10458277Y-13526460D01*
X10458277Y-13526460D02*
X10448753Y-13535984D01*
X10448753Y-13535984D02*
X10439229Y-13526460D01*
X10439229Y-13526460D02*
X10448753Y-13516936D01*
X10448753Y-13516936D02*
X10448753Y-13535984D01*
X10629705Y-13335984D02*
X10591610Y-13335984D01*
X10591610Y-13335984D02*
X10572563Y-13345508D01*
X10572563Y-13345508D02*
X10563039Y-13355031D01*
X10563039Y-13355031D02*
X10543991Y-13383603D01*
X10543991Y-13383603D02*
X10534467Y-13421698D01*
X10534467Y-13421698D02*
X10534467Y-13497888D01*
X10534467Y-13497888D02*
X10543991Y-13516936D01*
X10543991Y-13516936D02*
X10553515Y-13526460D01*
X10553515Y-13526460D02*
X10572563Y-13535984D01*
X10572563Y-13535984D02*
X10610658Y-13535984D01*
X10610658Y-13535984D02*
X10629705Y-13526460D01*
X10629705Y-13526460D02*
X10639229Y-13516936D01*
X10639229Y-13516936D02*
X10648753Y-13497888D01*
X10648753Y-13497888D02*
X10648753Y-13450269D01*
X10648753Y-13450269D02*
X10639229Y-13431222D01*
X10639229Y-13431222D02*
X10629705Y-13421698D01*
X10629705Y-13421698D02*
X10610658Y-13412174D01*
X10610658Y-13412174D02*
X10572563Y-13412174D01*
X10572563Y-13412174D02*
X10553515Y-13421698D01*
X10553515Y-13421698D02*
X10543991Y-13431222D01*
X10543991Y-13431222D02*
X10534467Y-13450269D01*
X10829705Y-13335984D02*
X10734467Y-13335984D01*
X10734467Y-13335984D02*
X10724944Y-13431222D01*
X10724944Y-13431222D02*
X10734467Y-13421698D01*
X10734467Y-13421698D02*
X10753515Y-13412174D01*
X10753515Y-13412174D02*
X10801134Y-13412174D01*
X10801134Y-13412174D02*
X10820182Y-13421698D01*
X10820182Y-13421698D02*
X10829705Y-13431222D01*
X10829705Y-13431222D02*
X10839229Y-13450269D01*
X10839229Y-13450269D02*
X10839229Y-13497888D01*
X10839229Y-13497888D02*
X10829705Y-13516936D01*
X10829705Y-13516936D02*
X10820182Y-13526460D01*
X10820182Y-13526460D02*
X10801134Y-13535984D01*
X10801134Y-13535984D02*
X10753515Y-13535984D01*
X10753515Y-13535984D02*
X10734467Y-13526460D01*
X10734467Y-13526460D02*
X10724944Y-13516936D01*
X10963039Y-13335984D02*
X10982086Y-13335984D01*
X10982086Y-13335984D02*
X11001134Y-13345508D01*
X11001134Y-13345508D02*
X11010658Y-13355031D01*
X11010658Y-13355031D02*
X11020182Y-13374079D01*
X11020182Y-13374079D02*
X11029705Y-13412174D01*
X11029705Y-13412174D02*
X11029705Y-13459793D01*
X11029705Y-13459793D02*
X11020182Y-13497888D01*
X11020182Y-13497888D02*
X11010658Y-13516936D01*
X11010658Y-13516936D02*
X11001134Y-13526460D01*
X11001134Y-13526460D02*
X10982086Y-13535984D01*
X10982086Y-13535984D02*
X10963039Y-13535984D01*
X10963039Y-13535984D02*
X10943991Y-13526460D01*
X10943991Y-13526460D02*
X10934467Y-13516936D01*
X10934467Y-13516936D02*
X10924944Y-13497888D01*
X10924944Y-13497888D02*
X10915420Y-13459793D01*
X10915420Y-13459793D02*
X10915420Y-13412174D01*
X10915420Y-13412174D02*
X10924944Y-13374079D01*
X10924944Y-13374079D02*
X10934467Y-13355031D01*
X10934467Y-13355031D02*
X10943991Y-13345508D01*
X10943991Y-13345508D02*
X10963039Y-13335984D01*
X11115420Y-13535984D02*
X11115420Y-13402650D01*
X11115420Y-13421698D02*
X11124944Y-13412174D01*
X11124944Y-13412174D02*
X11143991Y-13402650D01*
X11143991Y-13402650D02*
X11172563Y-13402650D01*
X11172563Y-13402650D02*
X11191610Y-13412174D01*
X11191610Y-13412174D02*
X11201134Y-13431222D01*
X11201134Y-13431222D02*
X11201134Y-13535984D01*
X11201134Y-13431222D02*
X11210658Y-13412174D01*
X11210658Y-13412174D02*
X11229705Y-13402650D01*
X11229705Y-13402650D02*
X11258277Y-13402650D01*
X11258277Y-13402650D02*
X11277324Y-13412174D01*
X11277324Y-13412174D02*
X11286848Y-13431222D01*
X11286848Y-13431222D02*
X11286848Y-13535984D01*
X11382086Y-13535984D02*
X11382086Y-13402650D01*
X11382086Y-13421698D02*
X11391610Y-13412174D01*
X11391610Y-13412174D02*
X11410658Y-13402650D01*
X11410658Y-13402650D02*
X11439229Y-13402650D01*
X11439229Y-13402650D02*
X11458277Y-13412174D01*
X11458277Y-13412174D02*
X11467801Y-13431222D01*
X11467801Y-13431222D02*
X11467801Y-13535984D01*
X11467801Y-13431222D02*
X11477324Y-13412174D01*
X11477324Y-13412174D02*
X11496372Y-13402650D01*
X11496372Y-13402650D02*
X11524943Y-13402650D01*
X11524943Y-13402650D02*
X11543991Y-13412174D01*
X11543991Y-13412174D02*
X11553515Y-13431222D01*
X11553515Y-13431222D02*
X11553515Y-13535984D01*
X11943991Y-13326460D02*
X11772563Y-13583603D01*
X12201134Y-13335984D02*
X12220182Y-13335984D01*
X12220182Y-13335984D02*
X12239229Y-13345508D01*
X12239229Y-13345508D02*
X12248753Y-13355031D01*
X12248753Y-13355031D02*
X12258277Y-13374079D01*
X12258277Y-13374079D02*
X12267801Y-13412174D01*
X12267801Y-13412174D02*
X12267801Y-13459793D01*
X12267801Y-13459793D02*
X12258277Y-13497888D01*
X12258277Y-13497888D02*
X12248753Y-13516936D01*
X12248753Y-13516936D02*
X12239229Y-13526460D01*
X12239229Y-13526460D02*
X12220182Y-13535984D01*
X12220182Y-13535984D02*
X12201134Y-13535984D01*
X12201134Y-13535984D02*
X12182086Y-13526460D01*
X12182086Y-13526460D02*
X12172563Y-13516936D01*
X12172563Y-13516936D02*
X12163039Y-13497888D01*
X12163039Y-13497888D02*
X12153515Y-13459793D01*
X12153515Y-13459793D02*
X12153515Y-13412174D01*
X12153515Y-13412174D02*
X12163039Y-13374079D01*
X12163039Y-13374079D02*
X12172563Y-13355031D01*
X12172563Y-13355031D02*
X12182086Y-13345508D01*
X12182086Y-13345508D02*
X12201134Y-13335984D01*
X12353515Y-13516936D02*
X12363039Y-13526460D01*
X12363039Y-13526460D02*
X12353515Y-13535984D01*
X12353515Y-13535984D02*
X12343991Y-13526460D01*
X12343991Y-13526460D02*
X12353515Y-13516936D01*
X12353515Y-13516936D02*
X12353515Y-13535984D01*
X12486848Y-13335984D02*
X12505896Y-13335984D01*
X12505896Y-13335984D02*
X12524944Y-13345508D01*
X12524944Y-13345508D02*
X12534467Y-13355031D01*
X12534467Y-13355031D02*
X12543991Y-13374079D01*
X12543991Y-13374079D02*
X12553515Y-13412174D01*
X12553515Y-13412174D02*
X12553515Y-13459793D01*
X12553515Y-13459793D02*
X12543991Y-13497888D01*
X12543991Y-13497888D02*
X12534467Y-13516936D01*
X12534467Y-13516936D02*
X12524944Y-13526460D01*
X12524944Y-13526460D02*
X12505896Y-13535984D01*
X12505896Y-13535984D02*
X12486848Y-13535984D01*
X12486848Y-13535984D02*
X12467801Y-13526460D01*
X12467801Y-13526460D02*
X12458277Y-13516936D01*
X12458277Y-13516936D02*
X12448753Y-13497888D01*
X12448753Y-13497888D02*
X12439229Y-13459793D01*
X12439229Y-13459793D02*
X12439229Y-13412174D01*
X12439229Y-13412174D02*
X12448753Y-13374079D01*
X12448753Y-13374079D02*
X12458277Y-13355031D01*
X12458277Y-13355031D02*
X12467801Y-13345508D01*
X12467801Y-13345508D02*
X12486848Y-13335984D01*
X12629706Y-13355031D02*
X12639229Y-13345508D01*
X12639229Y-13345508D02*
X12658277Y-13335984D01*
X12658277Y-13335984D02*
X12705896Y-13335984D01*
X12705896Y-13335984D02*
X12724944Y-13345508D01*
X12724944Y-13345508D02*
X12734467Y-13355031D01*
X12734467Y-13355031D02*
X12743991Y-13374079D01*
X12743991Y-13374079D02*
X12743991Y-13393127D01*
X12743991Y-13393127D02*
X12734467Y-13421698D01*
X12734467Y-13421698D02*
X12620182Y-13535984D01*
X12620182Y-13535984D02*
X12743991Y-13535984D01*
X12924944Y-13335984D02*
X12829706Y-13335984D01*
X12829706Y-13335984D02*
X12820182Y-13431222D01*
X12820182Y-13431222D02*
X12829706Y-13421698D01*
X12829706Y-13421698D02*
X12848753Y-13412174D01*
X12848753Y-13412174D02*
X12896372Y-13412174D01*
X12896372Y-13412174D02*
X12915420Y-13421698D01*
X12915420Y-13421698D02*
X12924944Y-13431222D01*
X12924944Y-13431222D02*
X12934467Y-13450269D01*
X12934467Y-13450269D02*
X12934467Y-13497888D01*
X12934467Y-13497888D02*
X12924944Y-13516936D01*
X12924944Y-13516936D02*
X12915420Y-13526460D01*
X12915420Y-13526460D02*
X12896372Y-13535984D01*
X12896372Y-13535984D02*
X12848753Y-13535984D01*
X12848753Y-13535984D02*
X12829706Y-13526460D01*
X12829706Y-13526460D02*
X12820182Y-13516936D01*
X13105896Y-13335984D02*
X13067801Y-13335984D01*
X13067801Y-13335984D02*
X13048753Y-13345508D01*
X13048753Y-13345508D02*
X13039229Y-13355031D01*
X13039229Y-13355031D02*
X13020182Y-13383603D01*
X13020182Y-13383603D02*
X13010658Y-13421698D01*
X13010658Y-13421698D02*
X13010658Y-13497888D01*
X13010658Y-13497888D02*
X13020182Y-13516936D01*
X13020182Y-13516936D02*
X13029706Y-13526460D01*
X13029706Y-13526460D02*
X13048753Y-13535984D01*
X13048753Y-13535984D02*
X13086848Y-13535984D01*
X13086848Y-13535984D02*
X13105896Y-13526460D01*
X13105896Y-13526460D02*
X13115420Y-13516936D01*
X13115420Y-13516936D02*
X13124944Y-13497888D01*
X13124944Y-13497888D02*
X13124944Y-13450269D01*
X13124944Y-13450269D02*
X13115420Y-13431222D01*
X13115420Y-13431222D02*
X13105896Y-13421698D01*
X13105896Y-13421698D02*
X13086848Y-13412174D01*
X13086848Y-13412174D02*
X13048753Y-13412174D01*
X13048753Y-13412174D02*
X13029706Y-13421698D01*
X13029706Y-13421698D02*
X13020182Y-13431222D01*
X13020182Y-13431222D02*
X13010658Y-13450269D01*
X13201134Y-13335984D02*
X13201134Y-13374079D01*
X13277325Y-13335984D02*
X13277325Y-13374079D01*
X13572563Y-13612174D02*
X13563039Y-13602650D01*
X13563039Y-13602650D02*
X13543991Y-13574079D01*
X13543991Y-13574079D02*
X13534468Y-13555031D01*
X13534468Y-13555031D02*
X13524944Y-13526460D01*
X13524944Y-13526460D02*
X13515420Y-13478841D01*
X13515420Y-13478841D02*
X13515420Y-13440746D01*
X13515420Y-13440746D02*
X13524944Y-13393127D01*
X13524944Y-13393127D02*
X13534468Y-13364555D01*
X13534468Y-13364555D02*
X13543991Y-13345508D01*
X13543991Y-13345508D02*
X13563039Y-13316936D01*
X13563039Y-13316936D02*
X13572563Y-13307412D01*
X13686848Y-13335984D02*
X13705896Y-13335984D01*
X13705896Y-13335984D02*
X13724944Y-13345508D01*
X13724944Y-13345508D02*
X13734468Y-13355031D01*
X13734468Y-13355031D02*
X13743991Y-13374079D01*
X13743991Y-13374079D02*
X13753515Y-13412174D01*
X13753515Y-13412174D02*
X13753515Y-13459793D01*
X13753515Y-13459793D02*
X13743991Y-13497888D01*
X13743991Y-13497888D02*
X13734468Y-13516936D01*
X13734468Y-13516936D02*
X13724944Y-13526460D01*
X13724944Y-13526460D02*
X13705896Y-13535984D01*
X13705896Y-13535984D02*
X13686848Y-13535984D01*
X13686848Y-13535984D02*
X13667801Y-13526460D01*
X13667801Y-13526460D02*
X13658277Y-13516936D01*
X13658277Y-13516936D02*
X13648753Y-13497888D01*
X13648753Y-13497888D02*
X13639229Y-13459793D01*
X13639229Y-13459793D02*
X13639229Y-13412174D01*
X13639229Y-13412174D02*
X13648753Y-13374079D01*
X13648753Y-13374079D02*
X13658277Y-13355031D01*
X13658277Y-13355031D02*
X13667801Y-13345508D01*
X13667801Y-13345508D02*
X13686848Y-13335984D01*
X13991610Y-13535984D02*
X13991610Y-13335984D01*
X14077325Y-13535984D02*
X14077325Y-13431222D01*
X14077325Y-13431222D02*
X14067801Y-13412174D01*
X14067801Y-13412174D02*
X14048753Y-13402650D01*
X14048753Y-13402650D02*
X14020182Y-13402650D01*
X14020182Y-13402650D02*
X14001134Y-13412174D01*
X14001134Y-13412174D02*
X13991610Y-13421698D01*
X14201134Y-13535984D02*
X14182087Y-13526460D01*
X14182087Y-13526460D02*
X14172563Y-13516936D01*
X14172563Y-13516936D02*
X14163039Y-13497888D01*
X14163039Y-13497888D02*
X14163039Y-13440746D01*
X14163039Y-13440746D02*
X14172563Y-13421698D01*
X14172563Y-13421698D02*
X14182087Y-13412174D01*
X14182087Y-13412174D02*
X14201134Y-13402650D01*
X14201134Y-13402650D02*
X14229706Y-13402650D01*
X14229706Y-13402650D02*
X14248753Y-13412174D01*
X14248753Y-13412174D02*
X14258277Y-13421698D01*
X14258277Y-13421698D02*
X14267801Y-13440746D01*
X14267801Y-13440746D02*
X14267801Y-13497888D01*
X14267801Y-13497888D02*
X14258277Y-13516936D01*
X14258277Y-13516936D02*
X14248753Y-13526460D01*
X14248753Y-13526460D02*
X14229706Y-13535984D01*
X14229706Y-13535984D02*
X14201134Y-13535984D01*
X14382087Y-13535984D02*
X14363039Y-13526460D01*
X14363039Y-13526460D02*
X14353515Y-13507412D01*
X14353515Y-13507412D02*
X14353515Y-13335984D01*
X14534468Y-13526460D02*
X14515420Y-13535984D01*
X14515420Y-13535984D02*
X14477325Y-13535984D01*
X14477325Y-13535984D02*
X14458277Y-13526460D01*
X14458277Y-13526460D02*
X14448753Y-13507412D01*
X14448753Y-13507412D02*
X14448753Y-13431222D01*
X14448753Y-13431222D02*
X14458277Y-13412174D01*
X14458277Y-13412174D02*
X14477325Y-13402650D01*
X14477325Y-13402650D02*
X14515420Y-13402650D01*
X14515420Y-13402650D02*
X14534468Y-13412174D01*
X14534468Y-13412174D02*
X14543991Y-13431222D01*
X14543991Y-13431222D02*
X14543991Y-13450269D01*
X14543991Y-13450269D02*
X14448753Y-13469317D01*
X14620182Y-13526460D02*
X14639230Y-13535984D01*
X14639230Y-13535984D02*
X14677325Y-13535984D01*
X14677325Y-13535984D02*
X14696372Y-13526460D01*
X14696372Y-13526460D02*
X14705896Y-13507412D01*
X14705896Y-13507412D02*
X14705896Y-13497888D01*
X14705896Y-13497888D02*
X14696372Y-13478841D01*
X14696372Y-13478841D02*
X14677325Y-13469317D01*
X14677325Y-13469317D02*
X14648753Y-13469317D01*
X14648753Y-13469317D02*
X14629706Y-13459793D01*
X14629706Y-13459793D02*
X14620182Y-13440746D01*
X14620182Y-13440746D02*
X14620182Y-13431222D01*
X14620182Y-13431222D02*
X14629706Y-13412174D01*
X14629706Y-13412174D02*
X14648753Y-13402650D01*
X14648753Y-13402650D02*
X14677325Y-13402650D01*
X14677325Y-13402650D02*
X14696372Y-13412174D01*
X14943992Y-13459793D02*
X15096373Y-13459793D01*
X15020182Y-13535984D02*
X15020182Y-13383603D01*
X15429706Y-13402650D02*
X15429706Y-13535984D01*
X15382087Y-13326460D02*
X15334468Y-13469317D01*
X15334468Y-13469317D02*
X15458277Y-13469317D01*
X15677325Y-13526460D02*
X15696373Y-13535984D01*
X15696373Y-13535984D02*
X15734468Y-13535984D01*
X15734468Y-13535984D02*
X15753515Y-13526460D01*
X15753515Y-13526460D02*
X15763039Y-13507412D01*
X15763039Y-13507412D02*
X15763039Y-13497888D01*
X15763039Y-13497888D02*
X15753515Y-13478841D01*
X15753515Y-13478841D02*
X15734468Y-13469317D01*
X15734468Y-13469317D02*
X15705896Y-13469317D01*
X15705896Y-13469317D02*
X15686849Y-13459793D01*
X15686849Y-13459793D02*
X15677325Y-13440746D01*
X15677325Y-13440746D02*
X15677325Y-13431222D01*
X15677325Y-13431222D02*
X15686849Y-13412174D01*
X15686849Y-13412174D02*
X15705896Y-13402650D01*
X15705896Y-13402650D02*
X15734468Y-13402650D01*
X15734468Y-13402650D02*
X15753515Y-13412174D01*
X15877325Y-13535984D02*
X15858277Y-13526460D01*
X15858277Y-13526460D02*
X15848754Y-13507412D01*
X15848754Y-13507412D02*
X15848754Y-13335984D01*
X15982087Y-13535984D02*
X15963039Y-13526460D01*
X15963039Y-13526460D02*
X15953515Y-13516936D01*
X15953515Y-13516936D02*
X15943992Y-13497888D01*
X15943992Y-13497888D02*
X15943992Y-13440746D01*
X15943992Y-13440746D02*
X15953515Y-13421698D01*
X15953515Y-13421698D02*
X15963039Y-13412174D01*
X15963039Y-13412174D02*
X15982087Y-13402650D01*
X15982087Y-13402650D02*
X16010658Y-13402650D01*
X16010658Y-13402650D02*
X16029706Y-13412174D01*
X16029706Y-13412174D02*
X16039230Y-13421698D01*
X16039230Y-13421698D02*
X16048754Y-13440746D01*
X16048754Y-13440746D02*
X16048754Y-13497888D01*
X16048754Y-13497888D02*
X16039230Y-13516936D01*
X16039230Y-13516936D02*
X16029706Y-13526460D01*
X16029706Y-13526460D02*
X16010658Y-13535984D01*
X16010658Y-13535984D02*
X15982087Y-13535984D01*
X16105896Y-13402650D02*
X16182087Y-13402650D01*
X16134468Y-13335984D02*
X16134468Y-13507412D01*
X16134468Y-13507412D02*
X16143992Y-13526460D01*
X16143992Y-13526460D02*
X16163039Y-13535984D01*
X16163039Y-13535984D02*
X16182087Y-13535984D01*
X16239230Y-13526460D02*
X16258277Y-13535984D01*
X16258277Y-13535984D02*
X16296373Y-13535984D01*
X16296373Y-13535984D02*
X16315420Y-13526460D01*
X16315420Y-13526460D02*
X16324944Y-13507412D01*
X16324944Y-13507412D02*
X16324944Y-13497888D01*
X16324944Y-13497888D02*
X16315420Y-13478841D01*
X16315420Y-13478841D02*
X16296373Y-13469317D01*
X16296373Y-13469317D02*
X16267801Y-13469317D01*
X16267801Y-13469317D02*
X16248754Y-13459793D01*
X16248754Y-13459793D02*
X16239230Y-13440746D01*
X16239230Y-13440746D02*
X16239230Y-13431222D01*
X16239230Y-13431222D02*
X16248754Y-13412174D01*
X16248754Y-13412174D02*
X16267801Y-13402650D01*
X16267801Y-13402650D02*
X16296373Y-13402650D01*
X16296373Y-13402650D02*
X16315420Y-13412174D01*
X16391611Y-13612174D02*
X16401135Y-13602650D01*
X16401135Y-13602650D02*
X16420182Y-13574079D01*
X16420182Y-13574079D02*
X16429706Y-13555031D01*
X16429706Y-13555031D02*
X16439230Y-13526460D01*
X16439230Y-13526460D02*
X16448754Y-13478841D01*
X16448754Y-13478841D02*
X16448754Y-13440746D01*
X16448754Y-13440746D02*
X16439230Y-13393127D01*
X16439230Y-13393127D02*
X16429706Y-13364555D01*
X16429706Y-13364555D02*
X16420182Y-13345508D01*
X16420182Y-13345508D02*
X16401135Y-13316936D01*
X16401135Y-13316936D02*
X16391611Y-13307412D01*
D13*
X9937810Y-13768190D02*
X9997500Y-13708500D01*
X9937810Y-13648810D01*
X9878120Y-13708500D01*
X9937810Y-13768190D01*
D11*
X10363039Y-13799984D02*
X10248753Y-13799984D01*
X10305896Y-13799984D02*
X10305896Y-13599984D01*
X10305896Y-13599984D02*
X10286848Y-13628555D01*
X10286848Y-13628555D02*
X10267801Y-13647603D01*
X10267801Y-13647603D02*
X10248753Y-13657127D01*
X10448753Y-13780936D02*
X10458277Y-13790460D01*
X10458277Y-13790460D02*
X10448753Y-13799984D01*
X10448753Y-13799984D02*
X10439229Y-13790460D01*
X10439229Y-13790460D02*
X10448753Y-13780936D01*
X10448753Y-13780936D02*
X10448753Y-13799984D01*
X10648753Y-13799984D02*
X10534467Y-13799984D01*
X10591610Y-13799984D02*
X10591610Y-13599984D01*
X10591610Y-13599984D02*
X10572563Y-13628555D01*
X10572563Y-13628555D02*
X10553515Y-13647603D01*
X10553515Y-13647603D02*
X10534467Y-13657127D01*
X10743991Y-13799984D02*
X10782086Y-13799984D01*
X10782086Y-13799984D02*
X10801134Y-13790460D01*
X10801134Y-13790460D02*
X10810658Y-13780936D01*
X10810658Y-13780936D02*
X10829705Y-13752365D01*
X10829705Y-13752365D02*
X10839229Y-13714269D01*
X10839229Y-13714269D02*
X10839229Y-13638079D01*
X10839229Y-13638079D02*
X10829705Y-13619031D01*
X10829705Y-13619031D02*
X10820182Y-13609508D01*
X10820182Y-13609508D02*
X10801134Y-13599984D01*
X10801134Y-13599984D02*
X10763039Y-13599984D01*
X10763039Y-13599984D02*
X10743991Y-13609508D01*
X10743991Y-13609508D02*
X10734467Y-13619031D01*
X10734467Y-13619031D02*
X10724944Y-13638079D01*
X10724944Y-13638079D02*
X10724944Y-13685698D01*
X10724944Y-13685698D02*
X10734467Y-13704746D01*
X10734467Y-13704746D02*
X10743991Y-13714269D01*
X10743991Y-13714269D02*
X10763039Y-13723793D01*
X10763039Y-13723793D02*
X10801134Y-13723793D01*
X10801134Y-13723793D02*
X10820182Y-13714269D01*
X10820182Y-13714269D02*
X10829705Y-13704746D01*
X10829705Y-13704746D02*
X10839229Y-13685698D01*
X11010658Y-13666650D02*
X11010658Y-13799984D01*
X10963039Y-13590460D02*
X10915420Y-13733317D01*
X10915420Y-13733317D02*
X11039229Y-13733317D01*
X11115420Y-13799984D02*
X11115420Y-13666650D01*
X11115420Y-13685698D02*
X11124944Y-13676174D01*
X11124944Y-13676174D02*
X11143991Y-13666650D01*
X11143991Y-13666650D02*
X11172563Y-13666650D01*
X11172563Y-13666650D02*
X11191610Y-13676174D01*
X11191610Y-13676174D02*
X11201134Y-13695222D01*
X11201134Y-13695222D02*
X11201134Y-13799984D01*
X11201134Y-13695222D02*
X11210658Y-13676174D01*
X11210658Y-13676174D02*
X11229705Y-13666650D01*
X11229705Y-13666650D02*
X11258277Y-13666650D01*
X11258277Y-13666650D02*
X11277324Y-13676174D01*
X11277324Y-13676174D02*
X11286848Y-13695222D01*
X11286848Y-13695222D02*
X11286848Y-13799984D01*
X11382086Y-13799984D02*
X11382086Y-13666650D01*
X11382086Y-13685698D02*
X11391610Y-13676174D01*
X11391610Y-13676174D02*
X11410658Y-13666650D01*
X11410658Y-13666650D02*
X11439229Y-13666650D01*
X11439229Y-13666650D02*
X11458277Y-13676174D01*
X11458277Y-13676174D02*
X11467801Y-13695222D01*
X11467801Y-13695222D02*
X11467801Y-13799984D01*
X11467801Y-13695222D02*
X11477324Y-13676174D01*
X11477324Y-13676174D02*
X11496372Y-13666650D01*
X11496372Y-13666650D02*
X11524943Y-13666650D01*
X11524943Y-13666650D02*
X11543991Y-13676174D01*
X11543991Y-13676174D02*
X11553515Y-13695222D01*
X11553515Y-13695222D02*
X11553515Y-13799984D01*
X11943991Y-13590460D02*
X11772563Y-13847603D01*
X12201134Y-13599984D02*
X12220182Y-13599984D01*
X12220182Y-13599984D02*
X12239229Y-13609508D01*
X12239229Y-13609508D02*
X12248753Y-13619031D01*
X12248753Y-13619031D02*
X12258277Y-13638079D01*
X12258277Y-13638079D02*
X12267801Y-13676174D01*
X12267801Y-13676174D02*
X12267801Y-13723793D01*
X12267801Y-13723793D02*
X12258277Y-13761888D01*
X12258277Y-13761888D02*
X12248753Y-13780936D01*
X12248753Y-13780936D02*
X12239229Y-13790460D01*
X12239229Y-13790460D02*
X12220182Y-13799984D01*
X12220182Y-13799984D02*
X12201134Y-13799984D01*
X12201134Y-13799984D02*
X12182086Y-13790460D01*
X12182086Y-13790460D02*
X12172563Y-13780936D01*
X12172563Y-13780936D02*
X12163039Y-13761888D01*
X12163039Y-13761888D02*
X12153515Y-13723793D01*
X12153515Y-13723793D02*
X12153515Y-13676174D01*
X12153515Y-13676174D02*
X12163039Y-13638079D01*
X12163039Y-13638079D02*
X12172563Y-13619031D01*
X12172563Y-13619031D02*
X12182086Y-13609508D01*
X12182086Y-13609508D02*
X12201134Y-13599984D01*
X12353515Y-13780936D02*
X12363039Y-13790460D01*
X12363039Y-13790460D02*
X12353515Y-13799984D01*
X12353515Y-13799984D02*
X12343991Y-13790460D01*
X12343991Y-13790460D02*
X12353515Y-13780936D01*
X12353515Y-13780936D02*
X12353515Y-13799984D01*
X12486848Y-13599984D02*
X12505896Y-13599984D01*
X12505896Y-13599984D02*
X12524944Y-13609508D01*
X12524944Y-13609508D02*
X12534467Y-13619031D01*
X12534467Y-13619031D02*
X12543991Y-13638079D01*
X12543991Y-13638079D02*
X12553515Y-13676174D01*
X12553515Y-13676174D02*
X12553515Y-13723793D01*
X12553515Y-13723793D02*
X12543991Y-13761888D01*
X12543991Y-13761888D02*
X12534467Y-13780936D01*
X12534467Y-13780936D02*
X12524944Y-13790460D01*
X12524944Y-13790460D02*
X12505896Y-13799984D01*
X12505896Y-13799984D02*
X12486848Y-13799984D01*
X12486848Y-13799984D02*
X12467801Y-13790460D01*
X12467801Y-13790460D02*
X12458277Y-13780936D01*
X12458277Y-13780936D02*
X12448753Y-13761888D01*
X12448753Y-13761888D02*
X12439229Y-13723793D01*
X12439229Y-13723793D02*
X12439229Y-13676174D01*
X12439229Y-13676174D02*
X12448753Y-13638079D01*
X12448753Y-13638079D02*
X12458277Y-13619031D01*
X12458277Y-13619031D02*
X12467801Y-13609508D01*
X12467801Y-13609508D02*
X12486848Y-13599984D01*
X12724944Y-13666650D02*
X12724944Y-13799984D01*
X12677325Y-13590460D02*
X12629706Y-13733317D01*
X12629706Y-13733317D02*
X12753515Y-13733317D01*
X12810658Y-13599984D02*
X12943991Y-13599984D01*
X12943991Y-13599984D02*
X12858277Y-13799984D01*
X13058277Y-13599984D02*
X13077325Y-13599984D01*
X13077325Y-13599984D02*
X13096372Y-13609508D01*
X13096372Y-13609508D02*
X13105896Y-13619031D01*
X13105896Y-13619031D02*
X13115420Y-13638079D01*
X13115420Y-13638079D02*
X13124944Y-13676174D01*
X13124944Y-13676174D02*
X13124944Y-13723793D01*
X13124944Y-13723793D02*
X13115420Y-13761888D01*
X13115420Y-13761888D02*
X13105896Y-13780936D01*
X13105896Y-13780936D02*
X13096372Y-13790460D01*
X13096372Y-13790460D02*
X13077325Y-13799984D01*
X13077325Y-13799984D02*
X13058277Y-13799984D01*
X13058277Y-13799984D02*
X13039229Y-13790460D01*
X13039229Y-13790460D02*
X13029706Y-13780936D01*
X13029706Y-13780936D02*
X13020182Y-13761888D01*
X13020182Y-13761888D02*
X13010658Y-13723793D01*
X13010658Y-13723793D02*
X13010658Y-13676174D01*
X13010658Y-13676174D02*
X13020182Y-13638079D01*
X13020182Y-13638079D02*
X13029706Y-13619031D01*
X13029706Y-13619031D02*
X13039229Y-13609508D01*
X13039229Y-13609508D02*
X13058277Y-13599984D01*
X13201134Y-13599984D02*
X13201134Y-13638079D01*
X13277325Y-13599984D02*
X13277325Y-13638079D01*
X13572563Y-13876174D02*
X13563039Y-13866650D01*
X13563039Y-13866650D02*
X13543991Y-13838079D01*
X13543991Y-13838079D02*
X13534468Y-13819031D01*
X13534468Y-13819031D02*
X13524944Y-13790460D01*
X13524944Y-13790460D02*
X13515420Y-13742841D01*
X13515420Y-13742841D02*
X13515420Y-13704746D01*
X13515420Y-13704746D02*
X13524944Y-13657127D01*
X13524944Y-13657127D02*
X13534468Y-13628555D01*
X13534468Y-13628555D02*
X13543991Y-13609508D01*
X13543991Y-13609508D02*
X13563039Y-13580936D01*
X13563039Y-13580936D02*
X13572563Y-13571412D01*
X13734468Y-13599984D02*
X13696372Y-13599984D01*
X13696372Y-13599984D02*
X13677325Y-13609508D01*
X13677325Y-13609508D02*
X13667801Y-13619031D01*
X13667801Y-13619031D02*
X13648753Y-13647603D01*
X13648753Y-13647603D02*
X13639229Y-13685698D01*
X13639229Y-13685698D02*
X13639229Y-13761888D01*
X13639229Y-13761888D02*
X13648753Y-13780936D01*
X13648753Y-13780936D02*
X13658277Y-13790460D01*
X13658277Y-13790460D02*
X13677325Y-13799984D01*
X13677325Y-13799984D02*
X13715420Y-13799984D01*
X13715420Y-13799984D02*
X13734468Y-13790460D01*
X13734468Y-13790460D02*
X13743991Y-13780936D01*
X13743991Y-13780936D02*
X13753515Y-13761888D01*
X13753515Y-13761888D02*
X13753515Y-13714269D01*
X13753515Y-13714269D02*
X13743991Y-13695222D01*
X13743991Y-13695222D02*
X13734468Y-13685698D01*
X13734468Y-13685698D02*
X13715420Y-13676174D01*
X13715420Y-13676174D02*
X13677325Y-13676174D01*
X13677325Y-13676174D02*
X13658277Y-13685698D01*
X13658277Y-13685698D02*
X13648753Y-13695222D01*
X13648753Y-13695222D02*
X13639229Y-13714269D01*
X13991610Y-13799984D02*
X13991610Y-13599984D01*
X14077325Y-13799984D02*
X14077325Y-13695222D01*
X14077325Y-13695222D02*
X14067801Y-13676174D01*
X14067801Y-13676174D02*
X14048753Y-13666650D01*
X14048753Y-13666650D02*
X14020182Y-13666650D01*
X14020182Y-13666650D02*
X14001134Y-13676174D01*
X14001134Y-13676174D02*
X13991610Y-13685698D01*
X14201134Y-13799984D02*
X14182087Y-13790460D01*
X14182087Y-13790460D02*
X14172563Y-13780936D01*
X14172563Y-13780936D02*
X14163039Y-13761888D01*
X14163039Y-13761888D02*
X14163039Y-13704746D01*
X14163039Y-13704746D02*
X14172563Y-13685698D01*
X14172563Y-13685698D02*
X14182087Y-13676174D01*
X14182087Y-13676174D02*
X14201134Y-13666650D01*
X14201134Y-13666650D02*
X14229706Y-13666650D01*
X14229706Y-13666650D02*
X14248753Y-13676174D01*
X14248753Y-13676174D02*
X14258277Y-13685698D01*
X14258277Y-13685698D02*
X14267801Y-13704746D01*
X14267801Y-13704746D02*
X14267801Y-13761888D01*
X14267801Y-13761888D02*
X14258277Y-13780936D01*
X14258277Y-13780936D02*
X14248753Y-13790460D01*
X14248753Y-13790460D02*
X14229706Y-13799984D01*
X14229706Y-13799984D02*
X14201134Y-13799984D01*
X14382087Y-13799984D02*
X14363039Y-13790460D01*
X14363039Y-13790460D02*
X14353515Y-13771412D01*
X14353515Y-13771412D02*
X14353515Y-13599984D01*
X14534468Y-13790460D02*
X14515420Y-13799984D01*
X14515420Y-13799984D02*
X14477325Y-13799984D01*
X14477325Y-13799984D02*
X14458277Y-13790460D01*
X14458277Y-13790460D02*
X14448753Y-13771412D01*
X14448753Y-13771412D02*
X14448753Y-13695222D01*
X14448753Y-13695222D02*
X14458277Y-13676174D01*
X14458277Y-13676174D02*
X14477325Y-13666650D01*
X14477325Y-13666650D02*
X14515420Y-13666650D01*
X14515420Y-13666650D02*
X14534468Y-13676174D01*
X14534468Y-13676174D02*
X14543991Y-13695222D01*
X14543991Y-13695222D02*
X14543991Y-13714269D01*
X14543991Y-13714269D02*
X14448753Y-13733317D01*
X14620182Y-13790460D02*
X14639230Y-13799984D01*
X14639230Y-13799984D02*
X14677325Y-13799984D01*
X14677325Y-13799984D02*
X14696372Y-13790460D01*
X14696372Y-13790460D02*
X14705896Y-13771412D01*
X14705896Y-13771412D02*
X14705896Y-13761888D01*
X14705896Y-13761888D02*
X14696372Y-13742841D01*
X14696372Y-13742841D02*
X14677325Y-13733317D01*
X14677325Y-13733317D02*
X14648753Y-13733317D01*
X14648753Y-13733317D02*
X14629706Y-13723793D01*
X14629706Y-13723793D02*
X14620182Y-13704746D01*
X14620182Y-13704746D02*
X14620182Y-13695222D01*
X14620182Y-13695222D02*
X14629706Y-13676174D01*
X14629706Y-13676174D02*
X14648753Y-13666650D01*
X14648753Y-13666650D02*
X14677325Y-13666650D01*
X14677325Y-13666650D02*
X14696372Y-13676174D01*
X14772563Y-13876174D02*
X14782087Y-13866650D01*
X14782087Y-13866650D02*
X14801134Y-13838079D01*
X14801134Y-13838079D02*
X14810658Y-13819031D01*
X14810658Y-13819031D02*
X14820182Y-13790460D01*
X14820182Y-13790460D02*
X14829706Y-13742841D01*
X14829706Y-13742841D02*
X14829706Y-13704746D01*
X14829706Y-13704746D02*
X14820182Y-13657127D01*
X14820182Y-13657127D02*
X14810658Y-13628555D01*
X14810658Y-13628555D02*
X14801134Y-13609508D01*
X14801134Y-13609508D02*
X14782087Y-13580936D01*
X14782087Y-13580936D02*
X14772563Y-13571412D01*
D14*
X9857500Y-13902500D02*
X9997500Y-14042500D01*
X9997500Y-13902500D02*
X9857500Y-14042500D01*
X9997500Y-13972500D02*
G75*
G02*
X9857500Y-13972500I-70000J0D01*
G01*
X9857500Y-13972500D02*
G75*
G02*
X9997500Y-13972500I70000J0D01*
G01*
D11*
X10363039Y-14063984D02*
X10248753Y-14063984D01*
X10305896Y-14063984D02*
X10305896Y-13863984D01*
X10305896Y-13863984D02*
X10286848Y-13892555D01*
X10286848Y-13892555D02*
X10267801Y-13911603D01*
X10267801Y-13911603D02*
X10248753Y-13921127D01*
X10448753Y-14044936D02*
X10458277Y-14054460D01*
X10458277Y-14054460D02*
X10448753Y-14063984D01*
X10448753Y-14063984D02*
X10439229Y-14054460D01*
X10439229Y-14054460D02*
X10448753Y-14044936D01*
X10448753Y-14044936D02*
X10448753Y-14063984D01*
X10629705Y-13930650D02*
X10629705Y-14063984D01*
X10582086Y-13854460D02*
X10534467Y-13997317D01*
X10534467Y-13997317D02*
X10658277Y-13997317D01*
X10772563Y-13863984D02*
X10791610Y-13863984D01*
X10791610Y-13863984D02*
X10810658Y-13873508D01*
X10810658Y-13873508D02*
X10820182Y-13883031D01*
X10820182Y-13883031D02*
X10829705Y-13902079D01*
X10829705Y-13902079D02*
X10839229Y-13940174D01*
X10839229Y-13940174D02*
X10839229Y-13987793D01*
X10839229Y-13987793D02*
X10829705Y-14025888D01*
X10829705Y-14025888D02*
X10820182Y-14044936D01*
X10820182Y-14044936D02*
X10810658Y-14054460D01*
X10810658Y-14054460D02*
X10791610Y-14063984D01*
X10791610Y-14063984D02*
X10772563Y-14063984D01*
X10772563Y-14063984D02*
X10753515Y-14054460D01*
X10753515Y-14054460D02*
X10743991Y-14044936D01*
X10743991Y-14044936D02*
X10734467Y-14025888D01*
X10734467Y-14025888D02*
X10724944Y-13987793D01*
X10724944Y-13987793D02*
X10724944Y-13940174D01*
X10724944Y-13940174D02*
X10734467Y-13902079D01*
X10734467Y-13902079D02*
X10743991Y-13883031D01*
X10743991Y-13883031D02*
X10753515Y-13873508D01*
X10753515Y-13873508D02*
X10772563Y-13863984D01*
X10963039Y-13863984D02*
X10982086Y-13863984D01*
X10982086Y-13863984D02*
X11001134Y-13873508D01*
X11001134Y-13873508D02*
X11010658Y-13883031D01*
X11010658Y-13883031D02*
X11020182Y-13902079D01*
X11020182Y-13902079D02*
X11029705Y-13940174D01*
X11029705Y-13940174D02*
X11029705Y-13987793D01*
X11029705Y-13987793D02*
X11020182Y-14025888D01*
X11020182Y-14025888D02*
X11010658Y-14044936D01*
X11010658Y-14044936D02*
X11001134Y-14054460D01*
X11001134Y-14054460D02*
X10982086Y-14063984D01*
X10982086Y-14063984D02*
X10963039Y-14063984D01*
X10963039Y-14063984D02*
X10943991Y-14054460D01*
X10943991Y-14054460D02*
X10934467Y-14044936D01*
X10934467Y-14044936D02*
X10924944Y-14025888D01*
X10924944Y-14025888D02*
X10915420Y-13987793D01*
X10915420Y-13987793D02*
X10915420Y-13940174D01*
X10915420Y-13940174D02*
X10924944Y-13902079D01*
X10924944Y-13902079D02*
X10934467Y-13883031D01*
X10934467Y-13883031D02*
X10943991Y-13873508D01*
X10943991Y-13873508D02*
X10963039Y-13863984D01*
X11115420Y-14063984D02*
X11115420Y-13930650D01*
X11115420Y-13949698D02*
X11124944Y-13940174D01*
X11124944Y-13940174D02*
X11143991Y-13930650D01*
X11143991Y-13930650D02*
X11172563Y-13930650D01*
X11172563Y-13930650D02*
X11191610Y-13940174D01*
X11191610Y-13940174D02*
X11201134Y-13959222D01*
X11201134Y-13959222D02*
X11201134Y-14063984D01*
X11201134Y-13959222D02*
X11210658Y-13940174D01*
X11210658Y-13940174D02*
X11229705Y-13930650D01*
X11229705Y-13930650D02*
X11258277Y-13930650D01*
X11258277Y-13930650D02*
X11277324Y-13940174D01*
X11277324Y-13940174D02*
X11286848Y-13959222D01*
X11286848Y-13959222D02*
X11286848Y-14063984D01*
X11382086Y-14063984D02*
X11382086Y-13930650D01*
X11382086Y-13949698D02*
X11391610Y-13940174D01*
X11391610Y-13940174D02*
X11410658Y-13930650D01*
X11410658Y-13930650D02*
X11439229Y-13930650D01*
X11439229Y-13930650D02*
X11458277Y-13940174D01*
X11458277Y-13940174D02*
X11467801Y-13959222D01*
X11467801Y-13959222D02*
X11467801Y-14063984D01*
X11467801Y-13959222D02*
X11477324Y-13940174D01*
X11477324Y-13940174D02*
X11496372Y-13930650D01*
X11496372Y-13930650D02*
X11524943Y-13930650D01*
X11524943Y-13930650D02*
X11543991Y-13940174D01*
X11543991Y-13940174D02*
X11553515Y-13959222D01*
X11553515Y-13959222D02*
X11553515Y-14063984D01*
X11943991Y-13854460D02*
X11772563Y-14111603D01*
X12201134Y-13863984D02*
X12220182Y-13863984D01*
X12220182Y-13863984D02*
X12239229Y-13873508D01*
X12239229Y-13873508D02*
X12248753Y-13883031D01*
X12248753Y-13883031D02*
X12258277Y-13902079D01*
X12258277Y-13902079D02*
X12267801Y-13940174D01*
X12267801Y-13940174D02*
X12267801Y-13987793D01*
X12267801Y-13987793D02*
X12258277Y-14025888D01*
X12258277Y-14025888D02*
X12248753Y-14044936D01*
X12248753Y-14044936D02*
X12239229Y-14054460D01*
X12239229Y-14054460D02*
X12220182Y-14063984D01*
X12220182Y-14063984D02*
X12201134Y-14063984D01*
X12201134Y-14063984D02*
X12182086Y-14054460D01*
X12182086Y-14054460D02*
X12172563Y-14044936D01*
X12172563Y-14044936D02*
X12163039Y-14025888D01*
X12163039Y-14025888D02*
X12153515Y-13987793D01*
X12153515Y-13987793D02*
X12153515Y-13940174D01*
X12153515Y-13940174D02*
X12163039Y-13902079D01*
X12163039Y-13902079D02*
X12172563Y-13883031D01*
X12172563Y-13883031D02*
X12182086Y-13873508D01*
X12182086Y-13873508D02*
X12201134Y-13863984D01*
X12353515Y-14044936D02*
X12363039Y-14054460D01*
X12363039Y-14054460D02*
X12353515Y-14063984D01*
X12353515Y-14063984D02*
X12343991Y-14054460D01*
X12343991Y-14054460D02*
X12353515Y-14044936D01*
X12353515Y-14044936D02*
X12353515Y-14063984D01*
X12486848Y-13863984D02*
X12505896Y-13863984D01*
X12505896Y-13863984D02*
X12524944Y-13873508D01*
X12524944Y-13873508D02*
X12534467Y-13883031D01*
X12534467Y-13883031D02*
X12543991Y-13902079D01*
X12543991Y-13902079D02*
X12553515Y-13940174D01*
X12553515Y-13940174D02*
X12553515Y-13987793D01*
X12553515Y-13987793D02*
X12543991Y-14025888D01*
X12543991Y-14025888D02*
X12534467Y-14044936D01*
X12534467Y-14044936D02*
X12524944Y-14054460D01*
X12524944Y-14054460D02*
X12505896Y-14063984D01*
X12505896Y-14063984D02*
X12486848Y-14063984D01*
X12486848Y-14063984D02*
X12467801Y-14054460D01*
X12467801Y-14054460D02*
X12458277Y-14044936D01*
X12458277Y-14044936D02*
X12448753Y-14025888D01*
X12448753Y-14025888D02*
X12439229Y-13987793D01*
X12439229Y-13987793D02*
X12439229Y-13940174D01*
X12439229Y-13940174D02*
X12448753Y-13902079D01*
X12448753Y-13902079D02*
X12458277Y-13883031D01*
X12458277Y-13883031D02*
X12467801Y-13873508D01*
X12467801Y-13873508D02*
X12486848Y-13863984D01*
X12734467Y-13863984D02*
X12639229Y-13863984D01*
X12639229Y-13863984D02*
X12629706Y-13959222D01*
X12629706Y-13959222D02*
X12639229Y-13949698D01*
X12639229Y-13949698D02*
X12658277Y-13940174D01*
X12658277Y-13940174D02*
X12705896Y-13940174D01*
X12705896Y-13940174D02*
X12724944Y-13949698D01*
X12724944Y-13949698D02*
X12734467Y-13959222D01*
X12734467Y-13959222D02*
X12743991Y-13978269D01*
X12743991Y-13978269D02*
X12743991Y-14025888D01*
X12743991Y-14025888D02*
X12734467Y-14044936D01*
X12734467Y-14044936D02*
X12724944Y-14054460D01*
X12724944Y-14054460D02*
X12705896Y-14063984D01*
X12705896Y-14063984D02*
X12658277Y-14063984D01*
X12658277Y-14063984D02*
X12639229Y-14054460D01*
X12639229Y-14054460D02*
X12629706Y-14044936D01*
X12924944Y-13863984D02*
X12829706Y-13863984D01*
X12829706Y-13863984D02*
X12820182Y-13959222D01*
X12820182Y-13959222D02*
X12829706Y-13949698D01*
X12829706Y-13949698D02*
X12848753Y-13940174D01*
X12848753Y-13940174D02*
X12896372Y-13940174D01*
X12896372Y-13940174D02*
X12915420Y-13949698D01*
X12915420Y-13949698D02*
X12924944Y-13959222D01*
X12924944Y-13959222D02*
X12934467Y-13978269D01*
X12934467Y-13978269D02*
X12934467Y-14025888D01*
X12934467Y-14025888D02*
X12924944Y-14044936D01*
X12924944Y-14044936D02*
X12915420Y-14054460D01*
X12915420Y-14054460D02*
X12896372Y-14063984D01*
X12896372Y-14063984D02*
X12848753Y-14063984D01*
X12848753Y-14063984D02*
X12829706Y-14054460D01*
X12829706Y-14054460D02*
X12820182Y-14044936D01*
X13124944Y-14063984D02*
X13010658Y-14063984D01*
X13067801Y-14063984D02*
X13067801Y-13863984D01*
X13067801Y-13863984D02*
X13048753Y-13892555D01*
X13048753Y-13892555D02*
X13029706Y-13911603D01*
X13029706Y-13911603D02*
X13010658Y-13921127D01*
X13201134Y-13863984D02*
X13201134Y-13902079D01*
X13277325Y-13863984D02*
X13277325Y-13902079D01*
X13572563Y-14140174D02*
X13563039Y-14130650D01*
X13563039Y-14130650D02*
X13543991Y-14102079D01*
X13543991Y-14102079D02*
X13534468Y-14083031D01*
X13534468Y-14083031D02*
X13524944Y-14054460D01*
X13524944Y-14054460D02*
X13515420Y-14006841D01*
X13515420Y-14006841D02*
X13515420Y-13968746D01*
X13515420Y-13968746D02*
X13524944Y-13921127D01*
X13524944Y-13921127D02*
X13534468Y-13892555D01*
X13534468Y-13892555D02*
X13543991Y-13873508D01*
X13543991Y-13873508D02*
X13563039Y-13844936D01*
X13563039Y-13844936D02*
X13572563Y-13835412D01*
X13753515Y-14063984D02*
X13639229Y-14063984D01*
X13696372Y-14063984D02*
X13696372Y-13863984D01*
X13696372Y-13863984D02*
X13677325Y-13892555D01*
X13677325Y-13892555D02*
X13658277Y-13911603D01*
X13658277Y-13911603D02*
X13639229Y-13921127D01*
X13991610Y-14063984D02*
X13991610Y-13863984D01*
X14077325Y-14063984D02*
X14077325Y-13959222D01*
X14077325Y-13959222D02*
X14067801Y-13940174D01*
X14067801Y-13940174D02*
X14048753Y-13930650D01*
X14048753Y-13930650D02*
X14020182Y-13930650D01*
X14020182Y-13930650D02*
X14001134Y-13940174D01*
X14001134Y-13940174D02*
X13991610Y-13949698D01*
X14201134Y-14063984D02*
X14182087Y-14054460D01*
X14182087Y-14054460D02*
X14172563Y-14044936D01*
X14172563Y-14044936D02*
X14163039Y-14025888D01*
X14163039Y-14025888D02*
X14163039Y-13968746D01*
X14163039Y-13968746D02*
X14172563Y-13949698D01*
X14172563Y-13949698D02*
X14182087Y-13940174D01*
X14182087Y-13940174D02*
X14201134Y-13930650D01*
X14201134Y-13930650D02*
X14229706Y-13930650D01*
X14229706Y-13930650D02*
X14248753Y-13940174D01*
X14248753Y-13940174D02*
X14258277Y-13949698D01*
X14258277Y-13949698D02*
X14267801Y-13968746D01*
X14267801Y-13968746D02*
X14267801Y-14025888D01*
X14267801Y-14025888D02*
X14258277Y-14044936D01*
X14258277Y-14044936D02*
X14248753Y-14054460D01*
X14248753Y-14054460D02*
X14229706Y-14063984D01*
X14229706Y-14063984D02*
X14201134Y-14063984D01*
X14382087Y-14063984D02*
X14363039Y-14054460D01*
X14363039Y-14054460D02*
X14353515Y-14035412D01*
X14353515Y-14035412D02*
X14353515Y-13863984D01*
X14534468Y-14054460D02*
X14515420Y-14063984D01*
X14515420Y-14063984D02*
X14477325Y-14063984D01*
X14477325Y-14063984D02*
X14458277Y-14054460D01*
X14458277Y-14054460D02*
X14448753Y-14035412D01*
X14448753Y-14035412D02*
X14448753Y-13959222D01*
X14448753Y-13959222D02*
X14458277Y-13940174D01*
X14458277Y-13940174D02*
X14477325Y-13930650D01*
X14477325Y-13930650D02*
X14515420Y-13930650D01*
X14515420Y-13930650D02*
X14534468Y-13940174D01*
X14534468Y-13940174D02*
X14543991Y-13959222D01*
X14543991Y-13959222D02*
X14543991Y-13978269D01*
X14543991Y-13978269D02*
X14448753Y-13997317D01*
X14610658Y-14140174D02*
X14620182Y-14130650D01*
X14620182Y-14130650D02*
X14639230Y-14102079D01*
X14639230Y-14102079D02*
X14648753Y-14083031D01*
X14648753Y-14083031D02*
X14658277Y-14054460D01*
X14658277Y-14054460D02*
X14667801Y-14006841D01*
X14667801Y-14006841D02*
X14667801Y-13968746D01*
X14667801Y-13968746D02*
X14658277Y-13921127D01*
X14658277Y-13921127D02*
X14648753Y-13892555D01*
X14648753Y-13892555D02*
X14639230Y-13873508D01*
X14639230Y-13873508D02*
X14620182Y-13844936D01*
X14620182Y-13844936D02*
X14610658Y-13835412D01*
D15*
X9837500Y-14156500D02*
X9997500Y-14316500D01*
X9997500Y-14156500D02*
X9837500Y-14316500D01*
X9917500Y-14156500D02*
X9917500Y-14316500D01*
X9837500Y-14236500D02*
X9997500Y-14236500D01*
D11*
X10363039Y-14327984D02*
X10248753Y-14327984D01*
X10305896Y-14327984D02*
X10305896Y-14127984D01*
X10305896Y-14127984D02*
X10286848Y-14156555D01*
X10286848Y-14156555D02*
X10267801Y-14175603D01*
X10267801Y-14175603D02*
X10248753Y-14185127D01*
X10448753Y-14308936D02*
X10458277Y-14318460D01*
X10458277Y-14318460D02*
X10448753Y-14327984D01*
X10448753Y-14327984D02*
X10439229Y-14318460D01*
X10439229Y-14318460D02*
X10448753Y-14308936D01*
X10448753Y-14308936D02*
X10448753Y-14327984D01*
X10629705Y-14127984D02*
X10591610Y-14127984D01*
X10591610Y-14127984D02*
X10572563Y-14137508D01*
X10572563Y-14137508D02*
X10563039Y-14147031D01*
X10563039Y-14147031D02*
X10543991Y-14175603D01*
X10543991Y-14175603D02*
X10534467Y-14213698D01*
X10534467Y-14213698D02*
X10534467Y-14289888D01*
X10534467Y-14289888D02*
X10543991Y-14308936D01*
X10543991Y-14308936D02*
X10553515Y-14318460D01*
X10553515Y-14318460D02*
X10572563Y-14327984D01*
X10572563Y-14327984D02*
X10610658Y-14327984D01*
X10610658Y-14327984D02*
X10629705Y-14318460D01*
X10629705Y-14318460D02*
X10639229Y-14308936D01*
X10639229Y-14308936D02*
X10648753Y-14289888D01*
X10648753Y-14289888D02*
X10648753Y-14242269D01*
X10648753Y-14242269D02*
X10639229Y-14223222D01*
X10639229Y-14223222D02*
X10629705Y-14213698D01*
X10629705Y-14213698D02*
X10610658Y-14204174D01*
X10610658Y-14204174D02*
X10572563Y-14204174D01*
X10572563Y-14204174D02*
X10553515Y-14213698D01*
X10553515Y-14213698D02*
X10543991Y-14223222D01*
X10543991Y-14223222D02*
X10534467Y-14242269D01*
X10772563Y-14127984D02*
X10791610Y-14127984D01*
X10791610Y-14127984D02*
X10810658Y-14137508D01*
X10810658Y-14137508D02*
X10820182Y-14147031D01*
X10820182Y-14147031D02*
X10829705Y-14166079D01*
X10829705Y-14166079D02*
X10839229Y-14204174D01*
X10839229Y-14204174D02*
X10839229Y-14251793D01*
X10839229Y-14251793D02*
X10829705Y-14289888D01*
X10829705Y-14289888D02*
X10820182Y-14308936D01*
X10820182Y-14308936D02*
X10810658Y-14318460D01*
X10810658Y-14318460D02*
X10791610Y-14327984D01*
X10791610Y-14327984D02*
X10772563Y-14327984D01*
X10772563Y-14327984D02*
X10753515Y-14318460D01*
X10753515Y-14318460D02*
X10743991Y-14308936D01*
X10743991Y-14308936D02*
X10734467Y-14289888D01*
X10734467Y-14289888D02*
X10724944Y-14251793D01*
X10724944Y-14251793D02*
X10724944Y-14204174D01*
X10724944Y-14204174D02*
X10734467Y-14166079D01*
X10734467Y-14166079D02*
X10743991Y-14147031D01*
X10743991Y-14147031D02*
X10753515Y-14137508D01*
X10753515Y-14137508D02*
X10772563Y-14127984D01*
X10963039Y-14127984D02*
X10982086Y-14127984D01*
X10982086Y-14127984D02*
X11001134Y-14137508D01*
X11001134Y-14137508D02*
X11010658Y-14147031D01*
X11010658Y-14147031D02*
X11020182Y-14166079D01*
X11020182Y-14166079D02*
X11029705Y-14204174D01*
X11029705Y-14204174D02*
X11029705Y-14251793D01*
X11029705Y-14251793D02*
X11020182Y-14289888D01*
X11020182Y-14289888D02*
X11010658Y-14308936D01*
X11010658Y-14308936D02*
X11001134Y-14318460D01*
X11001134Y-14318460D02*
X10982086Y-14327984D01*
X10982086Y-14327984D02*
X10963039Y-14327984D01*
X10963039Y-14327984D02*
X10943991Y-14318460D01*
X10943991Y-14318460D02*
X10934467Y-14308936D01*
X10934467Y-14308936D02*
X10924944Y-14289888D01*
X10924944Y-14289888D02*
X10915420Y-14251793D01*
X10915420Y-14251793D02*
X10915420Y-14204174D01*
X10915420Y-14204174D02*
X10924944Y-14166079D01*
X10924944Y-14166079D02*
X10934467Y-14147031D01*
X10934467Y-14147031D02*
X10943991Y-14137508D01*
X10943991Y-14137508D02*
X10963039Y-14127984D01*
X11115420Y-14327984D02*
X11115420Y-14194650D01*
X11115420Y-14213698D02*
X11124944Y-14204174D01*
X11124944Y-14204174D02*
X11143991Y-14194650D01*
X11143991Y-14194650D02*
X11172563Y-14194650D01*
X11172563Y-14194650D02*
X11191610Y-14204174D01*
X11191610Y-14204174D02*
X11201134Y-14223222D01*
X11201134Y-14223222D02*
X11201134Y-14327984D01*
X11201134Y-14223222D02*
X11210658Y-14204174D01*
X11210658Y-14204174D02*
X11229705Y-14194650D01*
X11229705Y-14194650D02*
X11258277Y-14194650D01*
X11258277Y-14194650D02*
X11277324Y-14204174D01*
X11277324Y-14204174D02*
X11286848Y-14223222D01*
X11286848Y-14223222D02*
X11286848Y-14327984D01*
X11382086Y-14327984D02*
X11382086Y-14194650D01*
X11382086Y-14213698D02*
X11391610Y-14204174D01*
X11391610Y-14204174D02*
X11410658Y-14194650D01*
X11410658Y-14194650D02*
X11439229Y-14194650D01*
X11439229Y-14194650D02*
X11458277Y-14204174D01*
X11458277Y-14204174D02*
X11467801Y-14223222D01*
X11467801Y-14223222D02*
X11467801Y-14327984D01*
X11467801Y-14223222D02*
X11477324Y-14204174D01*
X11477324Y-14204174D02*
X11496372Y-14194650D01*
X11496372Y-14194650D02*
X11524943Y-14194650D01*
X11524943Y-14194650D02*
X11543991Y-14204174D01*
X11543991Y-14204174D02*
X11553515Y-14223222D01*
X11553515Y-14223222D02*
X11553515Y-14327984D01*
X11943991Y-14118460D02*
X11772563Y-14375603D01*
X12201134Y-14127984D02*
X12220182Y-14127984D01*
X12220182Y-14127984D02*
X12239229Y-14137508D01*
X12239229Y-14137508D02*
X12248753Y-14147031D01*
X12248753Y-14147031D02*
X12258277Y-14166079D01*
X12258277Y-14166079D02*
X12267801Y-14204174D01*
X12267801Y-14204174D02*
X12267801Y-14251793D01*
X12267801Y-14251793D02*
X12258277Y-14289888D01*
X12258277Y-14289888D02*
X12248753Y-14308936D01*
X12248753Y-14308936D02*
X12239229Y-14318460D01*
X12239229Y-14318460D02*
X12220182Y-14327984D01*
X12220182Y-14327984D02*
X12201134Y-14327984D01*
X12201134Y-14327984D02*
X12182086Y-14318460D01*
X12182086Y-14318460D02*
X12172563Y-14308936D01*
X12172563Y-14308936D02*
X12163039Y-14289888D01*
X12163039Y-14289888D02*
X12153515Y-14251793D01*
X12153515Y-14251793D02*
X12153515Y-14204174D01*
X12153515Y-14204174D02*
X12163039Y-14166079D01*
X12163039Y-14166079D02*
X12172563Y-14147031D01*
X12172563Y-14147031D02*
X12182086Y-14137508D01*
X12182086Y-14137508D02*
X12201134Y-14127984D01*
X12353515Y-14308936D02*
X12363039Y-14318460D01*
X12363039Y-14318460D02*
X12353515Y-14327984D01*
X12353515Y-14327984D02*
X12343991Y-14318460D01*
X12343991Y-14318460D02*
X12353515Y-14308936D01*
X12353515Y-14308936D02*
X12353515Y-14327984D01*
X12486848Y-14127984D02*
X12505896Y-14127984D01*
X12505896Y-14127984D02*
X12524944Y-14137508D01*
X12524944Y-14137508D02*
X12534467Y-14147031D01*
X12534467Y-14147031D02*
X12543991Y-14166079D01*
X12543991Y-14166079D02*
X12553515Y-14204174D01*
X12553515Y-14204174D02*
X12553515Y-14251793D01*
X12553515Y-14251793D02*
X12543991Y-14289888D01*
X12543991Y-14289888D02*
X12534467Y-14308936D01*
X12534467Y-14308936D02*
X12524944Y-14318460D01*
X12524944Y-14318460D02*
X12505896Y-14327984D01*
X12505896Y-14327984D02*
X12486848Y-14327984D01*
X12486848Y-14327984D02*
X12467801Y-14318460D01*
X12467801Y-14318460D02*
X12458277Y-14308936D01*
X12458277Y-14308936D02*
X12448753Y-14289888D01*
X12448753Y-14289888D02*
X12439229Y-14251793D01*
X12439229Y-14251793D02*
X12439229Y-14204174D01*
X12439229Y-14204174D02*
X12448753Y-14166079D01*
X12448753Y-14166079D02*
X12458277Y-14147031D01*
X12458277Y-14147031D02*
X12467801Y-14137508D01*
X12467801Y-14137508D02*
X12486848Y-14127984D01*
X12724944Y-14127984D02*
X12686848Y-14127984D01*
X12686848Y-14127984D02*
X12667801Y-14137508D01*
X12667801Y-14137508D02*
X12658277Y-14147031D01*
X12658277Y-14147031D02*
X12639229Y-14175603D01*
X12639229Y-14175603D02*
X12629706Y-14213698D01*
X12629706Y-14213698D02*
X12629706Y-14289888D01*
X12629706Y-14289888D02*
X12639229Y-14308936D01*
X12639229Y-14308936D02*
X12648753Y-14318460D01*
X12648753Y-14318460D02*
X12667801Y-14327984D01*
X12667801Y-14327984D02*
X12705896Y-14327984D01*
X12705896Y-14327984D02*
X12724944Y-14318460D01*
X12724944Y-14318460D02*
X12734467Y-14308936D01*
X12734467Y-14308936D02*
X12743991Y-14289888D01*
X12743991Y-14289888D02*
X12743991Y-14242269D01*
X12743991Y-14242269D02*
X12734467Y-14223222D01*
X12734467Y-14223222D02*
X12724944Y-14213698D01*
X12724944Y-14213698D02*
X12705896Y-14204174D01*
X12705896Y-14204174D02*
X12667801Y-14204174D01*
X12667801Y-14204174D02*
X12648753Y-14213698D01*
X12648753Y-14213698D02*
X12639229Y-14223222D01*
X12639229Y-14223222D02*
X12629706Y-14242269D01*
X12810658Y-14127984D02*
X12934467Y-14127984D01*
X12934467Y-14127984D02*
X12867801Y-14204174D01*
X12867801Y-14204174D02*
X12896372Y-14204174D01*
X12896372Y-14204174D02*
X12915420Y-14213698D01*
X12915420Y-14213698D02*
X12924944Y-14223222D01*
X12924944Y-14223222D02*
X12934467Y-14242269D01*
X12934467Y-14242269D02*
X12934467Y-14289888D01*
X12934467Y-14289888D02*
X12924944Y-14308936D01*
X12924944Y-14308936D02*
X12915420Y-14318460D01*
X12915420Y-14318460D02*
X12896372Y-14327984D01*
X12896372Y-14327984D02*
X12839229Y-14327984D01*
X12839229Y-14327984D02*
X12820182Y-14318460D01*
X12820182Y-14318460D02*
X12810658Y-14308936D01*
X13058277Y-14127984D02*
X13077325Y-14127984D01*
X13077325Y-14127984D02*
X13096372Y-14137508D01*
X13096372Y-14137508D02*
X13105896Y-14147031D01*
X13105896Y-14147031D02*
X13115420Y-14166079D01*
X13115420Y-14166079D02*
X13124944Y-14204174D01*
X13124944Y-14204174D02*
X13124944Y-14251793D01*
X13124944Y-14251793D02*
X13115420Y-14289888D01*
X13115420Y-14289888D02*
X13105896Y-14308936D01*
X13105896Y-14308936D02*
X13096372Y-14318460D01*
X13096372Y-14318460D02*
X13077325Y-14327984D01*
X13077325Y-14327984D02*
X13058277Y-14327984D01*
X13058277Y-14327984D02*
X13039229Y-14318460D01*
X13039229Y-14318460D02*
X13029706Y-14308936D01*
X13029706Y-14308936D02*
X13020182Y-14289888D01*
X13020182Y-14289888D02*
X13010658Y-14251793D01*
X13010658Y-14251793D02*
X13010658Y-14204174D01*
X13010658Y-14204174D02*
X13020182Y-14166079D01*
X13020182Y-14166079D02*
X13029706Y-14147031D01*
X13029706Y-14147031D02*
X13039229Y-14137508D01*
X13039229Y-14137508D02*
X13058277Y-14127984D01*
X13201134Y-14127984D02*
X13201134Y-14166079D01*
X13277325Y-14127984D02*
X13277325Y-14166079D01*
X13572563Y-14404174D02*
X13563039Y-14394650D01*
X13563039Y-14394650D02*
X13543991Y-14366079D01*
X13543991Y-14366079D02*
X13534468Y-14347031D01*
X13534468Y-14347031D02*
X13524944Y-14318460D01*
X13524944Y-14318460D02*
X13515420Y-14270841D01*
X13515420Y-14270841D02*
X13515420Y-14232746D01*
X13515420Y-14232746D02*
X13524944Y-14185127D01*
X13524944Y-14185127D02*
X13534468Y-14156555D01*
X13534468Y-14156555D02*
X13543991Y-14137508D01*
X13543991Y-14137508D02*
X13563039Y-14108936D01*
X13563039Y-14108936D02*
X13572563Y-14099412D01*
X13734468Y-14194650D02*
X13734468Y-14327984D01*
X13686848Y-14118460D02*
X13639229Y-14261317D01*
X13639229Y-14261317D02*
X13763039Y-14261317D01*
X13991610Y-14327984D02*
X13991610Y-14127984D01*
X14077325Y-14327984D02*
X14077325Y-14223222D01*
X14077325Y-14223222D02*
X14067801Y-14204174D01*
X14067801Y-14204174D02*
X14048753Y-14194650D01*
X14048753Y-14194650D02*
X14020182Y-14194650D01*
X14020182Y-14194650D02*
X14001134Y-14204174D01*
X14001134Y-14204174D02*
X13991610Y-14213698D01*
X14201134Y-14327984D02*
X14182087Y-14318460D01*
X14182087Y-14318460D02*
X14172563Y-14308936D01*
X14172563Y-14308936D02*
X14163039Y-14289888D01*
X14163039Y-14289888D02*
X14163039Y-14232746D01*
X14163039Y-14232746D02*
X14172563Y-14213698D01*
X14172563Y-14213698D02*
X14182087Y-14204174D01*
X14182087Y-14204174D02*
X14201134Y-14194650D01*
X14201134Y-14194650D02*
X14229706Y-14194650D01*
X14229706Y-14194650D02*
X14248753Y-14204174D01*
X14248753Y-14204174D02*
X14258277Y-14213698D01*
X14258277Y-14213698D02*
X14267801Y-14232746D01*
X14267801Y-14232746D02*
X14267801Y-14289888D01*
X14267801Y-14289888D02*
X14258277Y-14308936D01*
X14258277Y-14308936D02*
X14248753Y-14318460D01*
X14248753Y-14318460D02*
X14229706Y-14327984D01*
X14229706Y-14327984D02*
X14201134Y-14327984D01*
X14382087Y-14327984D02*
X14363039Y-14318460D01*
X14363039Y-14318460D02*
X14353515Y-14299412D01*
X14353515Y-14299412D02*
X14353515Y-14127984D01*
X14534468Y-14318460D02*
X14515420Y-14327984D01*
X14515420Y-14327984D02*
X14477325Y-14327984D01*
X14477325Y-14327984D02*
X14458277Y-14318460D01*
X14458277Y-14318460D02*
X14448753Y-14299412D01*
X14448753Y-14299412D02*
X14448753Y-14223222D01*
X14448753Y-14223222D02*
X14458277Y-14204174D01*
X14458277Y-14204174D02*
X14477325Y-14194650D01*
X14477325Y-14194650D02*
X14515420Y-14194650D01*
X14515420Y-14194650D02*
X14534468Y-14204174D01*
X14534468Y-14204174D02*
X14543991Y-14223222D01*
X14543991Y-14223222D02*
X14543991Y-14242269D01*
X14543991Y-14242269D02*
X14448753Y-14261317D01*
X14620182Y-14318460D02*
X14639230Y-14327984D01*
X14639230Y-14327984D02*
X14677325Y-14327984D01*
X14677325Y-14327984D02*
X14696372Y-14318460D01*
X14696372Y-14318460D02*
X14705896Y-14299412D01*
X14705896Y-14299412D02*
X14705896Y-14289888D01*
X14705896Y-14289888D02*
X14696372Y-14270841D01*
X14696372Y-14270841D02*
X14677325Y-14261317D01*
X14677325Y-14261317D02*
X14648753Y-14261317D01*
X14648753Y-14261317D02*
X14629706Y-14251793D01*
X14629706Y-14251793D02*
X14620182Y-14232746D01*
X14620182Y-14232746D02*
X14620182Y-14223222D01*
X14620182Y-14223222D02*
X14629706Y-14204174D01*
X14629706Y-14204174D02*
X14648753Y-14194650D01*
X14648753Y-14194650D02*
X14677325Y-14194650D01*
X14677325Y-14194650D02*
X14696372Y-14204174D01*
X14772563Y-14404174D02*
X14782087Y-14394650D01*
X14782087Y-14394650D02*
X14801134Y-14366079D01*
X14801134Y-14366079D02*
X14810658Y-14347031D01*
X14810658Y-14347031D02*
X14820182Y-14318460D01*
X14820182Y-14318460D02*
X14829706Y-14270841D01*
X14829706Y-14270841D02*
X14829706Y-14232746D01*
X14829706Y-14232746D02*
X14820182Y-14185127D01*
X14820182Y-14185127D02*
X14810658Y-14156555D01*
X14810658Y-14156555D02*
X14801134Y-14137508D01*
X14801134Y-14137508D02*
X14782087Y-14108936D01*
X14782087Y-14108936D02*
X14772563Y-14099412D01*
X9797500Y-14416500D02*
X9997500Y-14616500D01*
X9997500Y-14416500D02*
X9797500Y-14616500D01*
X9968211Y-14587211D02*
X9968211Y-14445789D01*
X9826789Y-14445789D01*
X9826789Y-14587211D01*
X9968211Y-14587211D01*
X10239229Y-14407984D02*
X10363039Y-14407984D01*
X10363039Y-14407984D02*
X10296372Y-14484174D01*
X10296372Y-14484174D02*
X10324944Y-14484174D01*
X10324944Y-14484174D02*
X10343991Y-14493698D01*
X10343991Y-14493698D02*
X10353515Y-14503222D01*
X10353515Y-14503222D02*
X10363039Y-14522269D01*
X10363039Y-14522269D02*
X10363039Y-14569888D01*
X10363039Y-14569888D02*
X10353515Y-14588936D01*
X10353515Y-14588936D02*
X10343991Y-14598460D01*
X10343991Y-14598460D02*
X10324944Y-14607984D01*
X10324944Y-14607984D02*
X10267801Y-14607984D01*
X10267801Y-14607984D02*
X10248753Y-14598460D01*
X10248753Y-14598460D02*
X10239229Y-14588936D01*
X10448753Y-14588936D02*
X10458277Y-14598460D01*
X10458277Y-14598460D02*
X10448753Y-14607984D01*
X10448753Y-14607984D02*
X10439229Y-14598460D01*
X10439229Y-14598460D02*
X10448753Y-14588936D01*
X10448753Y-14588936D02*
X10448753Y-14607984D01*
X10534467Y-14427031D02*
X10543991Y-14417508D01*
X10543991Y-14417508D02*
X10563039Y-14407984D01*
X10563039Y-14407984D02*
X10610658Y-14407984D01*
X10610658Y-14407984D02*
X10629705Y-14417508D01*
X10629705Y-14417508D02*
X10639229Y-14427031D01*
X10639229Y-14427031D02*
X10648753Y-14446079D01*
X10648753Y-14446079D02*
X10648753Y-14465127D01*
X10648753Y-14465127D02*
X10639229Y-14493698D01*
X10639229Y-14493698D02*
X10524944Y-14607984D01*
X10524944Y-14607984D02*
X10648753Y-14607984D01*
X10772563Y-14407984D02*
X10791610Y-14407984D01*
X10791610Y-14407984D02*
X10810658Y-14417508D01*
X10810658Y-14417508D02*
X10820182Y-14427031D01*
X10820182Y-14427031D02*
X10829705Y-14446079D01*
X10829705Y-14446079D02*
X10839229Y-14484174D01*
X10839229Y-14484174D02*
X10839229Y-14531793D01*
X10839229Y-14531793D02*
X10829705Y-14569888D01*
X10829705Y-14569888D02*
X10820182Y-14588936D01*
X10820182Y-14588936D02*
X10810658Y-14598460D01*
X10810658Y-14598460D02*
X10791610Y-14607984D01*
X10791610Y-14607984D02*
X10772563Y-14607984D01*
X10772563Y-14607984D02*
X10753515Y-14598460D01*
X10753515Y-14598460D02*
X10743991Y-14588936D01*
X10743991Y-14588936D02*
X10734467Y-14569888D01*
X10734467Y-14569888D02*
X10724944Y-14531793D01*
X10724944Y-14531793D02*
X10724944Y-14484174D01*
X10724944Y-14484174D02*
X10734467Y-14446079D01*
X10734467Y-14446079D02*
X10743991Y-14427031D01*
X10743991Y-14427031D02*
X10753515Y-14417508D01*
X10753515Y-14417508D02*
X10772563Y-14407984D01*
X10963039Y-14407984D02*
X10982086Y-14407984D01*
X10982086Y-14407984D02*
X11001134Y-14417508D01*
X11001134Y-14417508D02*
X11010658Y-14427031D01*
X11010658Y-14427031D02*
X11020182Y-14446079D01*
X11020182Y-14446079D02*
X11029705Y-14484174D01*
X11029705Y-14484174D02*
X11029705Y-14531793D01*
X11029705Y-14531793D02*
X11020182Y-14569888D01*
X11020182Y-14569888D02*
X11010658Y-14588936D01*
X11010658Y-14588936D02*
X11001134Y-14598460D01*
X11001134Y-14598460D02*
X10982086Y-14607984D01*
X10982086Y-14607984D02*
X10963039Y-14607984D01*
X10963039Y-14607984D02*
X10943991Y-14598460D01*
X10943991Y-14598460D02*
X10934467Y-14588936D01*
X10934467Y-14588936D02*
X10924944Y-14569888D01*
X10924944Y-14569888D02*
X10915420Y-14531793D01*
X10915420Y-14531793D02*
X10915420Y-14484174D01*
X10915420Y-14484174D02*
X10924944Y-14446079D01*
X10924944Y-14446079D02*
X10934467Y-14427031D01*
X10934467Y-14427031D02*
X10943991Y-14417508D01*
X10943991Y-14417508D02*
X10963039Y-14407984D01*
X11115420Y-14607984D02*
X11115420Y-14474650D01*
X11115420Y-14493698D02*
X11124944Y-14484174D01*
X11124944Y-14484174D02*
X11143991Y-14474650D01*
X11143991Y-14474650D02*
X11172563Y-14474650D01*
X11172563Y-14474650D02*
X11191610Y-14484174D01*
X11191610Y-14484174D02*
X11201134Y-14503222D01*
X11201134Y-14503222D02*
X11201134Y-14607984D01*
X11201134Y-14503222D02*
X11210658Y-14484174D01*
X11210658Y-14484174D02*
X11229705Y-14474650D01*
X11229705Y-14474650D02*
X11258277Y-14474650D01*
X11258277Y-14474650D02*
X11277324Y-14484174D01*
X11277324Y-14484174D02*
X11286848Y-14503222D01*
X11286848Y-14503222D02*
X11286848Y-14607984D01*
X11382086Y-14607984D02*
X11382086Y-14474650D01*
X11382086Y-14493698D02*
X11391610Y-14484174D01*
X11391610Y-14484174D02*
X11410658Y-14474650D01*
X11410658Y-14474650D02*
X11439229Y-14474650D01*
X11439229Y-14474650D02*
X11458277Y-14484174D01*
X11458277Y-14484174D02*
X11467801Y-14503222D01*
X11467801Y-14503222D02*
X11467801Y-14607984D01*
X11467801Y-14503222D02*
X11477324Y-14484174D01*
X11477324Y-14484174D02*
X11496372Y-14474650D01*
X11496372Y-14474650D02*
X11524943Y-14474650D01*
X11524943Y-14474650D02*
X11543991Y-14484174D01*
X11543991Y-14484174D02*
X11553515Y-14503222D01*
X11553515Y-14503222D02*
X11553515Y-14607984D01*
X11943991Y-14398460D02*
X11772563Y-14655603D01*
X12201134Y-14407984D02*
X12220182Y-14407984D01*
X12220182Y-14407984D02*
X12239229Y-14417508D01*
X12239229Y-14417508D02*
X12248753Y-14427031D01*
X12248753Y-14427031D02*
X12258277Y-14446079D01*
X12258277Y-14446079D02*
X12267801Y-14484174D01*
X12267801Y-14484174D02*
X12267801Y-14531793D01*
X12267801Y-14531793D02*
X12258277Y-14569888D01*
X12258277Y-14569888D02*
X12248753Y-14588936D01*
X12248753Y-14588936D02*
X12239229Y-14598460D01*
X12239229Y-14598460D02*
X12220182Y-14607984D01*
X12220182Y-14607984D02*
X12201134Y-14607984D01*
X12201134Y-14607984D02*
X12182086Y-14598460D01*
X12182086Y-14598460D02*
X12172563Y-14588936D01*
X12172563Y-14588936D02*
X12163039Y-14569888D01*
X12163039Y-14569888D02*
X12153515Y-14531793D01*
X12153515Y-14531793D02*
X12153515Y-14484174D01*
X12153515Y-14484174D02*
X12163039Y-14446079D01*
X12163039Y-14446079D02*
X12172563Y-14427031D01*
X12172563Y-14427031D02*
X12182086Y-14417508D01*
X12182086Y-14417508D02*
X12201134Y-14407984D01*
X12353515Y-14588936D02*
X12363039Y-14598460D01*
X12363039Y-14598460D02*
X12353515Y-14607984D01*
X12353515Y-14607984D02*
X12343991Y-14598460D01*
X12343991Y-14598460D02*
X12353515Y-14588936D01*
X12353515Y-14588936D02*
X12353515Y-14607984D01*
X12553515Y-14607984D02*
X12439229Y-14607984D01*
X12496372Y-14607984D02*
X12496372Y-14407984D01*
X12496372Y-14407984D02*
X12477325Y-14436555D01*
X12477325Y-14436555D02*
X12458277Y-14455603D01*
X12458277Y-14455603D02*
X12439229Y-14465127D01*
X12629706Y-14427031D02*
X12639229Y-14417508D01*
X12639229Y-14417508D02*
X12658277Y-14407984D01*
X12658277Y-14407984D02*
X12705896Y-14407984D01*
X12705896Y-14407984D02*
X12724944Y-14417508D01*
X12724944Y-14417508D02*
X12734467Y-14427031D01*
X12734467Y-14427031D02*
X12743991Y-14446079D01*
X12743991Y-14446079D02*
X12743991Y-14465127D01*
X12743991Y-14465127D02*
X12734467Y-14493698D01*
X12734467Y-14493698D02*
X12620182Y-14607984D01*
X12620182Y-14607984D02*
X12743991Y-14607984D01*
X12915420Y-14407984D02*
X12877325Y-14407984D01*
X12877325Y-14407984D02*
X12858277Y-14417508D01*
X12858277Y-14417508D02*
X12848753Y-14427031D01*
X12848753Y-14427031D02*
X12829706Y-14455603D01*
X12829706Y-14455603D02*
X12820182Y-14493698D01*
X12820182Y-14493698D02*
X12820182Y-14569888D01*
X12820182Y-14569888D02*
X12829706Y-14588936D01*
X12829706Y-14588936D02*
X12839229Y-14598460D01*
X12839229Y-14598460D02*
X12858277Y-14607984D01*
X12858277Y-14607984D02*
X12896372Y-14607984D01*
X12896372Y-14607984D02*
X12915420Y-14598460D01*
X12915420Y-14598460D02*
X12924944Y-14588936D01*
X12924944Y-14588936D02*
X12934467Y-14569888D01*
X12934467Y-14569888D02*
X12934467Y-14522269D01*
X12934467Y-14522269D02*
X12924944Y-14503222D01*
X12924944Y-14503222D02*
X12915420Y-14493698D01*
X12915420Y-14493698D02*
X12896372Y-14484174D01*
X12896372Y-14484174D02*
X12858277Y-14484174D01*
X12858277Y-14484174D02*
X12839229Y-14493698D01*
X12839229Y-14493698D02*
X12829706Y-14503222D01*
X12829706Y-14503222D02*
X12820182Y-14522269D01*
X13058277Y-14407984D02*
X13077325Y-14407984D01*
X13077325Y-14407984D02*
X13096372Y-14417508D01*
X13096372Y-14417508D02*
X13105896Y-14427031D01*
X13105896Y-14427031D02*
X13115420Y-14446079D01*
X13115420Y-14446079D02*
X13124944Y-14484174D01*
X13124944Y-14484174D02*
X13124944Y-14531793D01*
X13124944Y-14531793D02*
X13115420Y-14569888D01*
X13115420Y-14569888D02*
X13105896Y-14588936D01*
X13105896Y-14588936D02*
X13096372Y-14598460D01*
X13096372Y-14598460D02*
X13077325Y-14607984D01*
X13077325Y-14607984D02*
X13058277Y-14607984D01*
X13058277Y-14607984D02*
X13039229Y-14598460D01*
X13039229Y-14598460D02*
X13029706Y-14588936D01*
X13029706Y-14588936D02*
X13020182Y-14569888D01*
X13020182Y-14569888D02*
X13010658Y-14531793D01*
X13010658Y-14531793D02*
X13010658Y-14484174D01*
X13010658Y-14484174D02*
X13020182Y-14446079D01*
X13020182Y-14446079D02*
X13029706Y-14427031D01*
X13029706Y-14427031D02*
X13039229Y-14417508D01*
X13039229Y-14417508D02*
X13058277Y-14407984D01*
X13201134Y-14407984D02*
X13201134Y-14446079D01*
X13277325Y-14407984D02*
X13277325Y-14446079D01*
X13572563Y-14684174D02*
X13563039Y-14674650D01*
X13563039Y-14674650D02*
X13543991Y-14646079D01*
X13543991Y-14646079D02*
X13534468Y-14627031D01*
X13534468Y-14627031D02*
X13524944Y-14598460D01*
X13524944Y-14598460D02*
X13515420Y-14550841D01*
X13515420Y-14550841D02*
X13515420Y-14512746D01*
X13515420Y-14512746D02*
X13524944Y-14465127D01*
X13524944Y-14465127D02*
X13534468Y-14436555D01*
X13534468Y-14436555D02*
X13543991Y-14417508D01*
X13543991Y-14417508D02*
X13563039Y-14388936D01*
X13563039Y-14388936D02*
X13572563Y-14379412D01*
X13639229Y-14427031D02*
X13648753Y-14417508D01*
X13648753Y-14417508D02*
X13667801Y-14407984D01*
X13667801Y-14407984D02*
X13715420Y-14407984D01*
X13715420Y-14407984D02*
X13734468Y-14417508D01*
X13734468Y-14417508D02*
X13743991Y-14427031D01*
X13743991Y-14427031D02*
X13753515Y-14446079D01*
X13753515Y-14446079D02*
X13753515Y-14465127D01*
X13753515Y-14465127D02*
X13743991Y-14493698D01*
X13743991Y-14493698D02*
X13629706Y-14607984D01*
X13629706Y-14607984D02*
X13753515Y-14607984D01*
X13991610Y-14607984D02*
X13991610Y-14407984D01*
X14077325Y-14607984D02*
X14077325Y-14503222D01*
X14077325Y-14503222D02*
X14067801Y-14484174D01*
X14067801Y-14484174D02*
X14048753Y-14474650D01*
X14048753Y-14474650D02*
X14020182Y-14474650D01*
X14020182Y-14474650D02*
X14001134Y-14484174D01*
X14001134Y-14484174D02*
X13991610Y-14493698D01*
X14201134Y-14607984D02*
X14182087Y-14598460D01*
X14182087Y-14598460D02*
X14172563Y-14588936D01*
X14172563Y-14588936D02*
X14163039Y-14569888D01*
X14163039Y-14569888D02*
X14163039Y-14512746D01*
X14163039Y-14512746D02*
X14172563Y-14493698D01*
X14172563Y-14493698D02*
X14182087Y-14484174D01*
X14182087Y-14484174D02*
X14201134Y-14474650D01*
X14201134Y-14474650D02*
X14229706Y-14474650D01*
X14229706Y-14474650D02*
X14248753Y-14484174D01*
X14248753Y-14484174D02*
X14258277Y-14493698D01*
X14258277Y-14493698D02*
X14267801Y-14512746D01*
X14267801Y-14512746D02*
X14267801Y-14569888D01*
X14267801Y-14569888D02*
X14258277Y-14588936D01*
X14258277Y-14588936D02*
X14248753Y-14598460D01*
X14248753Y-14598460D02*
X14229706Y-14607984D01*
X14229706Y-14607984D02*
X14201134Y-14607984D01*
X14382087Y-14607984D02*
X14363039Y-14598460D01*
X14363039Y-14598460D02*
X14353515Y-14579412D01*
X14353515Y-14579412D02*
X14353515Y-14407984D01*
X14534468Y-14598460D02*
X14515420Y-14607984D01*
X14515420Y-14607984D02*
X14477325Y-14607984D01*
X14477325Y-14607984D02*
X14458277Y-14598460D01*
X14458277Y-14598460D02*
X14448753Y-14579412D01*
X14448753Y-14579412D02*
X14448753Y-14503222D01*
X14448753Y-14503222D02*
X14458277Y-14484174D01*
X14458277Y-14484174D02*
X14477325Y-14474650D01*
X14477325Y-14474650D02*
X14515420Y-14474650D01*
X14515420Y-14474650D02*
X14534468Y-14484174D01*
X14534468Y-14484174D02*
X14543991Y-14503222D01*
X14543991Y-14503222D02*
X14543991Y-14522269D01*
X14543991Y-14522269D02*
X14448753Y-14541317D01*
X14620182Y-14598460D02*
X14639230Y-14607984D01*
X14639230Y-14607984D02*
X14677325Y-14607984D01*
X14677325Y-14607984D02*
X14696372Y-14598460D01*
X14696372Y-14598460D02*
X14705896Y-14579412D01*
X14705896Y-14579412D02*
X14705896Y-14569888D01*
X14705896Y-14569888D02*
X14696372Y-14550841D01*
X14696372Y-14550841D02*
X14677325Y-14541317D01*
X14677325Y-14541317D02*
X14648753Y-14541317D01*
X14648753Y-14541317D02*
X14629706Y-14531793D01*
X14629706Y-14531793D02*
X14620182Y-14512746D01*
X14620182Y-14512746D02*
X14620182Y-14503222D01*
X14620182Y-14503222D02*
X14629706Y-14484174D01*
X14629706Y-14484174D02*
X14648753Y-14474650D01*
X14648753Y-14474650D02*
X14677325Y-14474650D01*
X14677325Y-14474650D02*
X14696372Y-14484174D01*
X14772563Y-14684174D02*
X14782087Y-14674650D01*
X14782087Y-14674650D02*
X14801134Y-14646079D01*
X14801134Y-14646079D02*
X14810658Y-14627031D01*
X14810658Y-14627031D02*
X14820182Y-14598460D01*
X14820182Y-14598460D02*
X14829706Y-14550841D01*
X14829706Y-14550841D02*
X14829706Y-14512746D01*
X14829706Y-14512746D02*
X14820182Y-14465127D01*
X14820182Y-14465127D02*
X14810658Y-14436555D01*
X14810658Y-14436555D02*
X14801134Y-14417508D01*
X14801134Y-14417508D02*
X14782087Y-14388936D01*
X14782087Y-14388936D02*
X14772563Y-14379412D01*
M02*
