%TF.GenerationSoftware,KiCad,Pcbnew,9.0.2+1*%
%TF.CreationDate,2025-08-16T02:22:31+01:00*%
%TF.ProjectId,OBC,4f42432e-6b69-4636-9164-5f7063625858,rev?*%
%TF.SameCoordinates,Original*%
%TF.FileFunction,Copper,L2,Inr*%
%TF.FilePolarity,Positive*%
%FSLAX45Y45*%
G04 Gerber Fmt 4.5, Leading zero omitted, Abs format (unit mm)*
G04 Created by KiCad (PCBNEW 9.0.2+1) date 2025-08-16 02:22:31*
%MOMM*%
%LPD*%
G01*
G04 APERTURE LIST*
%TA.AperFunction,ComponentPad*%
%ADD10O,1.158000X2.316000*%
%TD*%
%TA.AperFunction,ComponentPad*%
%ADD11O,1.200000X2.400000*%
%TD*%
%TA.AperFunction,ComponentPad*%
%ADD12R,2.100000X2.100000*%
%TD*%
%TA.AperFunction,ComponentPad*%
%ADD13C,2.400000*%
%TD*%
%TA.AperFunction,ComponentPad*%
%ADD14C,5.700000*%
%TD*%
%TA.AperFunction,ComponentPad*%
%ADD15C,1.701800*%
%TD*%
%TA.AperFunction,ViaPad*%
%ADD16C,0.600000*%
%TD*%
%TA.AperFunction,ViaPad*%
%ADD17C,0.500000*%
%TD*%
%TA.AperFunction,ViaPad*%
%ADD18C,0.700000*%
%TD*%
G04 APERTURE END LIST*
D10*
%TO.N,unconnected-(J6-SHIELD-PadS1)_4*%
%TO.C,J6*%
X16579342Y-9088750D03*
%TO.N,unconnected-(J6-SHIELD-PadS1)_5*%
X15715342Y-9088750D03*
D11*
%TO.N,unconnected-(J6-SHIELD-PadS1)*%
X16579342Y-8706250D03*
%TO.N,unconnected-(J6-SHIELD-PadS1)_3*%
X15715342Y-8706250D03*
%TD*%
D12*
%TO.N,Net-(C19-Pad1)*%
%TO.C,J4*%
X10640000Y-10490000D03*
D13*
%TO.N,GND*%
X10897500Y-10747500D03*
X10897500Y-10232500D03*
X10382500Y-10232500D03*
X10382500Y-10747500D03*
%TD*%
D14*
%TO.N,AGND*%
%TO.C,H2*%
X19380000Y-8110000D03*
%TD*%
%TO.N,AGND*%
%TO.C,H3*%
X19380000Y-12410000D03*
%TD*%
D15*
%TO.N,+5V*%
%TO.C,J1*%
X14230000Y-8890000D03*
%TO.N,GND*%
X13976000Y-8890000D03*
%TO.N,/Nav RX UART*%
X13722000Y-8890000D03*
%TO.N,/Nav TX UART*%
X13468000Y-8890000D03*
%TO.N,/Nav RTS UART*%
X13214000Y-8890000D03*
%TO.N,/Nav CTS UART*%
X12960000Y-8890000D03*
%TD*%
D16*
%TO.N,VBUS*%
X15891917Y-9527500D03*
%TO.N,GND*%
X15350000Y-11070000D03*
%TO.N,+3.3V*%
X13187606Y-10341168D03*
%TO.N,GND*%
X12468086Y-11000000D03*
D17*
X15681417Y-9490000D03*
D16*
X14360000Y-10370500D03*
X16670000Y-11950000D03*
X14601000Y-10924000D03*
X17700000Y-11950000D03*
D17*
X15048515Y-9213515D03*
D16*
X14145985Y-10760000D03*
X18225000Y-11950000D03*
X17270000Y-11450000D03*
X18500000Y-11685000D03*
D18*
X13416692Y-11494000D03*
D16*
X17580000Y-11450000D03*
D18*
X18995263Y-11526423D03*
D17*
X13955000Y-9300000D03*
D16*
X16655617Y-10090650D03*
X11855000Y-11945000D03*
X17576680Y-10734756D03*
X11155000Y-11945000D03*
D17*
X15837342Y-9219075D03*
D16*
X18050000Y-11950000D03*
X12205000Y-11945000D03*
X18575000Y-11950000D03*
X13443489Y-10124377D03*
X16293000Y-11667500D03*
X10990000Y-9895000D03*
D17*
X12914260Y-10625113D03*
D18*
X13600000Y-9511000D03*
D16*
X11675000Y-9085000D03*
X11330000Y-11945000D03*
X11670000Y-8610000D03*
X16020000Y-10890000D03*
X14774448Y-9283723D03*
X10995000Y-11440000D03*
X14806000Y-10879000D03*
X16596417Y-9590000D03*
X13875000Y-9165000D03*
D18*
X19085263Y-11443089D03*
D16*
X12468086Y-10883324D03*
X18925000Y-11950000D03*
D17*
X15310000Y-10806000D03*
X14904000Y-10430000D03*
D18*
X13601000Y-9810000D03*
D16*
X18400000Y-11950000D03*
X16335500Y-11580000D03*
X14426000Y-10909000D03*
X17180000Y-11140000D03*
X11505000Y-11945000D03*
X12380000Y-11945000D03*
X10610000Y-11795000D03*
X12200000Y-9085000D03*
X11325000Y-9085000D03*
X12914917Y-9983900D03*
X17020000Y-11450000D03*
X11420000Y-9005000D03*
X13977183Y-10667149D03*
X12905000Y-11945000D03*
X12680498Y-10959891D03*
X18218293Y-11570000D03*
X13430000Y-11750000D03*
D17*
X11902417Y-10518624D03*
D16*
X14030000Y-10878970D03*
X11495000Y-8610000D03*
X15541018Y-10038134D03*
D18*
X12209308Y-11494000D03*
D16*
X15809645Y-10112515D03*
D17*
X14904000Y-10260000D03*
D16*
X18150000Y-11685000D03*
X10610000Y-11445000D03*
D17*
X11707386Y-10518624D03*
X14369230Y-9917693D03*
D16*
X10728744Y-11323744D03*
X16150000Y-8740000D03*
X10420000Y-11620000D03*
X10306256Y-11323744D03*
X17600000Y-9972500D03*
X14587333Y-9618084D03*
X16835000Y-9715000D03*
X10182513Y-11447487D03*
X11060000Y-8694347D03*
X12230000Y-8765000D03*
X15800000Y-10580000D03*
X16825000Y-11950000D03*
X11935000Y-8695000D03*
D18*
X10803412Y-10008000D03*
X11101000Y-9991000D03*
D16*
X12310000Y-8695000D03*
D18*
X11103000Y-11139000D03*
X15306000Y-11729000D03*
D16*
X10316863Y-11200000D03*
X13152417Y-10559000D03*
X10690000Y-11715000D03*
X14524002Y-8857994D03*
X12725000Y-9085000D03*
X15460000Y-9000000D03*
D17*
X16457284Y-9281734D03*
D16*
X18393293Y-11570000D03*
D17*
X14734000Y-10260000D03*
D18*
X10199000Y-10011000D03*
D16*
X14914206Y-11259970D03*
X16050000Y-10375000D03*
X15240000Y-8760000D03*
X15911000Y-11424000D03*
X13356417Y-10440000D03*
X11500000Y-9085000D03*
X16185500Y-11690000D03*
X12055000Y-8765000D03*
X16705000Y-9455000D03*
X12430000Y-10435000D03*
X14920000Y-11950000D03*
X14506617Y-9224357D03*
D18*
X13602000Y-11079000D03*
D16*
X16920000Y-8885000D03*
X15810000Y-10730000D03*
X15095827Y-10412944D03*
D18*
X11807000Y-9494000D03*
X19085263Y-11526423D03*
X10155000Y-10257000D03*
X11604657Y-11494000D03*
D17*
X12816744Y-10528242D03*
D16*
X12120000Y-9005000D03*
X15684066Y-10406629D03*
X12215000Y-8925000D03*
X11155000Y-11590000D03*
X16023417Y-9510000D03*
X16750000Y-10075000D03*
D18*
X13003000Y-9494000D03*
D17*
X14201417Y-9500000D03*
D18*
X11907000Y-11494000D03*
D16*
X16470000Y-11260000D03*
D17*
X14904000Y-10090000D03*
D16*
X17525000Y-11950000D03*
X16430000Y-8740000D03*
X15289239Y-9790000D03*
X17350000Y-11950000D03*
X16700000Y-9025000D03*
X11960000Y-8845000D03*
X14860000Y-10565000D03*
D17*
X14989000Y-10345000D03*
X14814000Y-10350000D03*
D18*
X10501447Y-10009493D03*
D16*
X12040000Y-8925000D03*
X11235000Y-8694347D03*
X17500000Y-9725000D03*
X15445000Y-11950000D03*
D17*
X11902417Y-10421752D03*
D16*
X12730000Y-11945000D03*
X10420000Y-11445000D03*
X14946054Y-9509548D03*
D17*
X11804902Y-10518624D03*
D16*
X12310000Y-8845000D03*
X12405000Y-9400000D03*
X16930000Y-11140000D03*
X12390000Y-8925000D03*
X16656417Y-9901950D03*
X17875000Y-11950000D03*
D17*
X14648000Y-10375000D03*
X11902417Y-10615496D03*
D16*
X11145000Y-8610000D03*
X16630000Y-10960000D03*
X18325000Y-11685000D03*
X16145000Y-11950000D03*
X15555000Y-10880000D03*
X15970000Y-11950000D03*
X13605000Y-11750000D03*
X15650000Y-10680000D03*
D18*
X10638000Y-10975000D03*
D16*
X12476601Y-9855141D03*
X16495000Y-11950000D03*
X14422970Y-11041030D03*
D17*
X11240633Y-10374700D03*
D16*
X15620000Y-11950000D03*
D18*
X10338000Y-10975000D03*
D16*
X10990000Y-11097500D03*
X14395000Y-11950000D03*
X15270000Y-11170000D03*
X13550000Y-9295000D03*
D17*
X14106417Y-9500000D03*
D16*
X14740000Y-11380000D03*
X13880000Y-11950000D03*
X12200000Y-11050000D03*
D17*
X11804902Y-10421752D03*
D16*
X14916929Y-9070297D03*
X11945000Y-9005000D03*
X17576418Y-10610000D03*
X15795000Y-11950000D03*
X12025000Y-9085000D03*
X10340000Y-11525000D03*
D18*
X10938000Y-10975000D03*
D16*
X13255000Y-11945000D03*
X17575000Y-10420000D03*
X11850000Y-9085000D03*
D17*
X14819000Y-10175000D03*
X12816744Y-10431370D03*
D18*
X11206000Y-9494000D03*
D16*
X11680000Y-11945000D03*
X14775000Y-10045000D03*
X12783864Y-11300500D03*
X14164417Y-9158520D03*
X12645000Y-9005000D03*
X15720000Y-11260000D03*
X17475000Y-8851500D03*
X10610000Y-11620000D03*
X14858412Y-9159564D03*
D17*
X15161000Y-9099000D03*
D18*
X12813000Y-11494000D03*
X19041000Y-11596000D03*
D17*
X12914260Y-10528242D03*
D16*
X13255000Y-11750000D03*
X15855000Y-8740000D03*
D17*
X11707386Y-10421752D03*
D16*
X12405000Y-8765000D03*
D18*
X11103000Y-11439000D03*
D16*
X10193119Y-11323744D03*
X10185000Y-8694347D03*
X14574000Y-11377840D03*
X13133389Y-10721546D03*
X12370000Y-8610000D03*
X13350000Y-11670000D03*
D18*
X17227000Y-11790000D03*
D16*
X14220000Y-11950000D03*
X14230000Y-10145000D03*
X11502308Y-11096621D03*
X14586393Y-9932470D03*
X14164417Y-9278520D03*
X12776767Y-10007747D03*
X16380000Y-10960000D03*
X16976000Y-11789000D03*
D18*
X10155000Y-10861000D03*
D16*
X15149015Y-9318461D03*
D18*
X11505000Y-9495000D03*
D16*
X15034000Y-10915000D03*
D18*
X12511308Y-11494000D03*
D16*
X17611418Y-9615000D03*
X12405000Y-11585000D03*
X10885000Y-8694347D03*
D17*
X12719229Y-10431370D03*
D16*
X11930000Y-10165000D03*
X15736089Y-11009911D03*
X12485000Y-8845000D03*
X11595000Y-9005000D03*
X12794000Y-10153000D03*
D17*
X14106417Y-9675000D03*
X12719229Y-10625113D03*
D16*
X14800000Y-8743500D03*
D17*
X14201417Y-9675000D03*
D16*
X14903661Y-9800000D03*
X11410000Y-8694347D03*
D17*
X15941000Y-11646000D03*
X12914260Y-10431370D03*
X15589119Y-11130881D03*
D16*
X10430000Y-11200000D03*
X11156565Y-9390000D03*
D18*
X18995263Y-11443089D03*
D16*
X15503663Y-11491825D03*
X13311747Y-10797705D03*
X12065000Y-10055000D03*
X16925000Y-10375000D03*
X13525000Y-11670000D03*
X13908044Y-10997941D03*
X17136256Y-10071077D03*
X17142378Y-10754756D03*
X12295000Y-9005000D03*
X14224550Y-9967500D03*
X17606418Y-9360000D03*
X12020000Y-8610000D03*
D17*
X16197417Y-9340000D03*
D16*
X13766637Y-11144003D03*
X14745000Y-11950000D03*
D18*
X12106000Y-9493000D03*
X13602000Y-10109000D03*
D16*
X10340000Y-11700000D03*
D17*
X14034000Y-11150000D03*
D16*
X14410000Y-9030000D03*
D17*
X11707386Y-10615496D03*
D16*
X12815000Y-9880000D03*
D17*
X16268417Y-9239000D03*
X14201417Y-9587500D03*
D16*
X17000000Y-11950000D03*
D18*
X16480000Y-10400000D03*
D17*
X13721776Y-10875613D03*
X14989000Y-10175000D03*
D16*
X15388000Y-10941500D03*
D17*
X14474000Y-10800000D03*
D16*
X10420000Y-11795000D03*
X14520000Y-8575000D03*
X12375000Y-9085000D03*
X10852487Y-11447487D03*
X14304000Y-11160000D03*
X18568293Y-11570000D03*
X11760000Y-8695000D03*
X13605000Y-11945000D03*
D18*
X11302692Y-11494000D03*
D16*
X14340000Y-10255000D03*
X13933609Y-9422030D03*
X16565110Y-9872600D03*
X12555000Y-11945000D03*
X14210190Y-10562180D03*
D17*
X15548323Y-10464677D03*
D16*
X13262417Y-10335850D03*
X14055000Y-11950000D03*
X12470000Y-9005000D03*
X16726000Y-11789000D03*
D17*
X12719229Y-10528242D03*
D16*
X14257000Y-10742000D03*
X13959000Y-11410000D03*
D17*
X15074000Y-10260000D03*
D16*
X12550000Y-9085000D03*
X18750000Y-11950000D03*
X14185029Y-11278970D03*
D18*
X13602000Y-11381000D03*
X13302000Y-9494000D03*
D16*
X12922117Y-9861500D03*
D18*
X13114692Y-11494000D03*
D17*
X12816744Y-10625113D03*
D18*
X12405000Y-9494000D03*
D16*
X10605000Y-11200000D03*
X17175000Y-11950000D03*
X14346000Y-10829000D03*
D17*
X14106417Y-9587500D03*
D16*
X17611418Y-9485000D03*
D17*
X16098417Y-9239000D03*
D18*
X11102000Y-9692000D03*
D17*
X15179000Y-8915000D03*
D16*
X12135000Y-8695000D03*
X10690000Y-11540000D03*
X11845000Y-8610000D03*
X13080000Y-11945000D03*
X16074870Y-11054129D03*
X11770000Y-9005000D03*
D17*
X11804902Y-10615496D03*
D16*
X11585000Y-8694347D03*
D18*
X12704000Y-9494000D03*
D16*
X12195000Y-8610000D03*
X10718137Y-11200000D03*
X16380000Y-9810000D03*
X11320000Y-8610000D03*
X16494817Y-9346619D03*
X13115152Y-9820000D03*
X14037456Y-10360085D03*
X14885850Y-9667994D03*
D17*
X11588117Y-10901850D03*
D16*
X10445000Y-8610000D03*
X16320000Y-11950000D03*
X17725000Y-10825000D03*
D17*
X14760000Y-9470000D03*
D16*
X15163499Y-9706416D03*
X13062481Y-10280169D03*
X16373417Y-9496583D03*
X12135000Y-8845000D03*
X12030000Y-11945000D03*
X13615000Y-9165000D03*
X17610000Y-8851500D03*
X10841881Y-11323744D03*
X17611418Y-9105000D03*
X14360000Y-9315000D03*
X13430000Y-11945000D03*
D18*
X10155000Y-10558965D03*
D16*
X10980000Y-9550000D03*
%TO.N,+5V*%
X13640000Y-9300000D03*
X17246680Y-9879737D03*
X17224878Y-10827954D03*
%TO.N,+3.3V*%
X13232417Y-10574824D03*
X13766000Y-11219000D03*
X15406417Y-11400000D03*
X15936417Y-10900000D03*
X15725000Y-10335000D03*
X12872417Y-10227683D03*
D18*
X15816417Y-10199000D03*
D16*
X15669000Y-11795000D03*
X15040008Y-11259970D03*
X17218856Y-10105292D03*
%TO.N,/Nav TX UART*%
X13946575Y-9187407D03*
D18*
X14596417Y-9700000D03*
%TO.N,/Nav RX UART*%
X13891417Y-9490000D03*
D16*
X14844000Y-9970000D03*
%TO.N,/SD-Card  ~{CS} SPI*%
X15569000Y-11455000D03*
X16126000Y-11109000D03*
%TO.N,/SD-Card MISO SPI*%
X15339000Y-11225000D03*
X14974000Y-10965000D03*
%TO.N,VBUS*%
X16197417Y-9615000D03*
%TO.N,Net-(U1-DCC_FB)*%
X12656423Y-10886423D03*
X13079026Y-10356597D03*
%TO.N,/RADIO MISO SPI*%
X14350000Y-9985000D03*
X12792036Y-10239000D03*
X11907417Y-10239000D03*
%TO.N,/BUSY SX1280*%
X14276000Y-10319000D03*
X13152417Y-10649000D03*
%TO.N,/WRITE_RS*%
X15231000Y-10559000D03*
X15815000Y-10815000D03*
%TO.N,/RADIO MOSI SPI*%
X12111526Y-10118109D03*
X12765273Y-10081862D03*
X13962500Y-10357500D03*
%TO.N,/ENABLE_RS*%
X15046000Y-10469000D03*
X15716417Y-10740000D03*
%TO.N,Net-(MCU1-VREG_VOUT)*%
X15216869Y-10262500D03*
X14786000Y-10499000D03*
X15051000Y-10070000D03*
%TO.N,/DIO3 SX1280*%
X14701029Y-10085196D03*
X14289741Y-10503324D03*
%TO.N,/SX1280 ~{CS} SPI*%
X13371333Y-10155084D03*
X12863417Y-9810000D03*
%TO.N,/READ_RS*%
X15866417Y-10510000D03*
X15156037Y-10368192D03*
D18*
%TO.N,/~{PDN} NRF21540*%
X14536417Y-9870000D03*
D16*
X13142417Y-9749000D03*
%TO.N,/RADIO SCK SPI*%
X12472417Y-9934000D03*
X12757417Y-9934000D03*
X14165000Y-10095000D03*
%TO.N,/RX_EN NRF21540*%
X14291000Y-10669000D03*
X12842417Y-11249000D03*
%TO.N,/RP2040/USB_D+*%
X15127000Y-10144000D03*
X15636417Y-9719042D03*
%TO.N,/RP2040/USB_D-*%
X15636417Y-9798542D03*
X15184375Y-10193769D03*
%TO.N,/MODE NRF21540*%
X13901676Y-10660211D03*
X11577417Y-11074000D03*
%TO.N,/TX_EN NRF21540*%
X13316001Y-10872584D03*
X14954000Y-10565000D03*
X12272417Y-11024000D03*
X13711680Y-10799756D03*
%TO.N,/Buzzer*%
X17616680Y-10934756D03*
X15360243Y-10391439D03*
%TO.N,Net-(IC1-E2)*%
X16606417Y-9810000D03*
X16447526Y-9771109D03*
%TO.N,/RP2040/MCU SD3 SPI*%
X15226417Y-9300000D03*
X14998500Y-10010000D03*
%TO.N,/RP2040/MCU ~{CS} SPI*%
X14516417Y-9150000D03*
X14960823Y-9670000D03*
X14513794Y-8937659D03*
%TO.N,/RP2040/MCU SD0 SPI*%
X15166417Y-9630000D03*
X14948000Y-9942000D03*
%TO.N,/RP2040/MCU SD1 SPI*%
X14814000Y-9220000D03*
X15019293Y-9525707D03*
%TO.N,AGND*%
X19130000Y-9800000D03*
X19455000Y-10289506D03*
D18*
X19905000Y-11490333D03*
D16*
X19085000Y-10845000D03*
X19986279Y-9910000D03*
X20250000Y-11610000D03*
X19985000Y-9725000D03*
X19888722Y-9820000D03*
X20600000Y-11460000D03*
X20600000Y-11610000D03*
X19105000Y-8380000D03*
X20425000Y-11460000D03*
X19086256Y-10037273D03*
X18910000Y-10845000D03*
X18991680Y-9974756D03*
X19075000Y-9905000D03*
X19260000Y-10545000D03*
X20250000Y-11760000D03*
D17*
X19172500Y-8822500D03*
D16*
X19712443Y-9642256D03*
X19632443Y-9547256D03*
X20310000Y-10545000D03*
X19888722Y-9645000D03*
X19985000Y-10090000D03*
X19900000Y-11910000D03*
X18700000Y-8640000D03*
D17*
X18575000Y-8850000D03*
D16*
X20135000Y-10545000D03*
X19960000Y-10695000D03*
X19985000Y-9550000D03*
D18*
X19905000Y-11407000D03*
D16*
X18830000Y-9485000D03*
X19808722Y-9725000D03*
X19215000Y-12250000D03*
D17*
X19740000Y-10290000D03*
D16*
X19105000Y-12135000D03*
X19225000Y-9070000D03*
X19435000Y-10845000D03*
X19655000Y-12135000D03*
X18806680Y-10736000D03*
X20065000Y-9820000D03*
X19375000Y-11760000D03*
X18830000Y-9360000D03*
X18695000Y-9705000D03*
X19890000Y-10005000D03*
X19785000Y-10995000D03*
X19535000Y-12250000D03*
D17*
X19038418Y-8710000D03*
D16*
X18806019Y-10607399D03*
X19210000Y-9545000D03*
D18*
X19994000Y-11365000D03*
D16*
X18820000Y-10100000D03*
X18820000Y-10481000D03*
X18820000Y-9970000D03*
X18910000Y-10695000D03*
X20775000Y-11460000D03*
X19225000Y-9245000D03*
X20425000Y-11760000D03*
X20075000Y-11910000D03*
X19785000Y-10545000D03*
X19725000Y-11760000D03*
X19130000Y-9625000D03*
X19725000Y-11910000D03*
X20065000Y-9645000D03*
X19655000Y-8380000D03*
X19960000Y-10845000D03*
X19220000Y-8275000D03*
X19295000Y-10290000D03*
X19888722Y-10185000D03*
X19550000Y-11760000D03*
X20066279Y-10005000D03*
X19210000Y-9720000D03*
X20250000Y-11910000D03*
X19810000Y-9910000D03*
X19225000Y-9420000D03*
X18910000Y-10995000D03*
X18856418Y-8725000D03*
X19435000Y-10995000D03*
X18991680Y-10114756D03*
X20075000Y-11610000D03*
X19808722Y-9550000D03*
D18*
X19994000Y-11448333D03*
D16*
X18830000Y-9610000D03*
X20075000Y-11760000D03*
X19900000Y-11760000D03*
X19085000Y-10995000D03*
X20135000Y-10695000D03*
D18*
X19978000Y-11526000D03*
D16*
X18860000Y-9230000D03*
X20425000Y-11610000D03*
X19712443Y-9817256D03*
X19540000Y-8275000D03*
X19808722Y-10090000D03*
X19632443Y-9722256D03*
%TD*%
%TA.AperFunction,Conductor*%
%TO.N,AGND*%
G36*
X20158639Y-11977916D02*
G01*
X20157302Y-11978047D01*
X20156492Y-11978101D01*
X20100202Y-11979943D01*
X20099796Y-11979950D01*
X20081967Y-11979950D01*
X20075471Y-11980552D01*
X20046055Y-11983278D01*
X20046055Y-11983278D01*
X20010602Y-11989905D01*
X20010602Y-11989905D01*
X19975913Y-11999775D01*
X19942282Y-12012803D01*
X19909997Y-12028880D01*
X19879332Y-12047866D01*
X19850552Y-12069600D01*
X19850551Y-12069601D01*
X19823898Y-12093898D01*
X19799601Y-12120551D01*
X19799600Y-12120552D01*
X19777866Y-12149332D01*
X19758880Y-12179997D01*
X19742804Y-12212282D01*
X19729775Y-12245913D01*
X19719905Y-12280602D01*
X19719905Y-12280603D01*
X19717966Y-12290975D01*
X19714799Y-12297203D01*
X19708768Y-12300730D01*
X19701787Y-12300436D01*
X19696073Y-12296415D01*
X19694321Y-12293441D01*
X19683201Y-12266596D01*
X19683201Y-12266595D01*
X19667686Y-12237569D01*
X19667685Y-12237567D01*
X19649399Y-12210200D01*
X19649399Y-12210200D01*
X19633963Y-12191392D01*
X19633963Y-12191392D01*
X19509425Y-12315930D01*
X19502041Y-12305767D01*
X19484233Y-12287959D01*
X19474070Y-12280575D01*
X19598608Y-12156036D01*
X19598608Y-12156036D01*
X19579800Y-12140601D01*
X19579800Y-12140601D01*
X19552433Y-12122315D01*
X19552431Y-12122314D01*
X19523404Y-12106799D01*
X19523404Y-12106798D01*
X19492995Y-12094202D01*
X19461496Y-12084647D01*
X19461496Y-12084647D01*
X19429214Y-12078226D01*
X19396457Y-12075000D01*
X19363543Y-12075000D01*
X19330786Y-12078226D01*
X19298504Y-12084647D01*
X19298504Y-12084647D01*
X19267005Y-12094202D01*
X19236596Y-12106798D01*
X19236596Y-12106799D01*
X19207569Y-12122314D01*
X19207567Y-12122315D01*
X19180200Y-12140601D01*
X19180200Y-12140601D01*
X19161392Y-12156036D01*
X19161392Y-12156036D01*
X19285930Y-12280575D01*
X19275767Y-12287959D01*
X19257959Y-12305767D01*
X19250575Y-12315930D01*
X19126037Y-12191392D01*
X19126036Y-12191392D01*
X19110601Y-12210200D01*
X19110601Y-12210200D01*
X19092315Y-12237567D01*
X19092314Y-12237569D01*
X19076799Y-12266595D01*
X19076799Y-12266596D01*
X19065679Y-12293441D01*
X19061295Y-12298882D01*
X19054665Y-12301088D01*
X19047895Y-12299360D01*
X19043134Y-12294246D01*
X19042034Y-12290975D01*
X19040095Y-12280602D01*
X19030225Y-12245913D01*
X19017197Y-12212282D01*
X19001120Y-12179997D01*
X18982134Y-12149333D01*
X18968644Y-12131469D01*
X18966175Y-12124933D01*
X18967631Y-12118100D01*
X18969771Y-12115229D01*
X19670000Y-11415000D01*
X20157500Y-11415000D01*
X20158639Y-11977916D01*
G37*
%TD.AperFunction*%
%TD*%
%TA.AperFunction,Conductor*%
%TO.N,GND*%
G36*
X12383533Y-8542019D02*
G01*
X12385598Y-8543683D01*
X13147773Y-9306062D01*
X13261680Y-9420000D01*
X13640015Y-9420000D01*
X13646719Y-9421969D01*
X13651294Y-9427249D01*
X13652415Y-9432403D01*
X13652354Y-9706088D01*
X13652251Y-10172857D01*
X13650281Y-10179560D01*
X13649005Y-10181219D01*
X13606711Y-10227502D01*
X13606711Y-10227502D01*
X13698251Y-10227549D01*
X13698191Y-10088937D01*
X14118950Y-10088937D01*
X14118950Y-10101063D01*
X14121893Y-10112046D01*
X14122088Y-10112775D01*
X14122088Y-10112775D01*
X14122230Y-10113020D01*
X14128151Y-10123275D01*
X14136725Y-10131849D01*
X14147225Y-10137912D01*
X14158937Y-10141050D01*
X14158938Y-10141050D01*
X14171062Y-10141050D01*
X14171063Y-10141050D01*
X14182775Y-10137912D01*
X14193275Y-10131849D01*
X14201849Y-10123275D01*
X14207912Y-10112775D01*
X14211050Y-10101063D01*
X14211050Y-10088937D01*
X14208423Y-10079134D01*
X14654979Y-10079134D01*
X14654979Y-10091259D01*
X14658118Y-10102971D01*
X14664180Y-10113472D01*
X14672754Y-10122046D01*
X14683255Y-10128108D01*
X14694967Y-10131246D01*
X14694967Y-10131246D01*
X14707092Y-10131246D01*
X14707092Y-10131246D01*
X14718804Y-10128108D01*
X14729305Y-10122046D01*
X14737879Y-10113472D01*
X14743941Y-10102971D01*
X14747079Y-10091259D01*
X14747079Y-10079134D01*
X14743941Y-10067422D01*
X14737879Y-10056921D01*
X14729305Y-10048347D01*
X14718804Y-10042285D01*
X14707092Y-10039146D01*
X14694967Y-10039146D01*
X14683255Y-10042285D01*
X14683254Y-10042285D01*
X14672754Y-10048347D01*
X14672754Y-10048347D01*
X14664180Y-10056921D01*
X14664180Y-10056921D01*
X14658118Y-10067421D01*
X14658118Y-10067422D01*
X14654979Y-10079134D01*
X14208423Y-10079134D01*
X14207912Y-10077225D01*
X14201849Y-10066725D01*
X14193275Y-10058151D01*
X14184201Y-10052912D01*
X14182775Y-10052088D01*
X14182775Y-10052088D01*
X14182775Y-10052088D01*
X14171063Y-10048950D01*
X14158937Y-10048950D01*
X14147225Y-10052088D01*
X14147225Y-10052088D01*
X14136725Y-10058151D01*
X14136724Y-10058151D01*
X14128151Y-10066724D01*
X14128151Y-10066725D01*
X14122088Y-10077225D01*
X14122088Y-10077225D01*
X14118950Y-10088937D01*
X13698191Y-10088937D01*
X13698144Y-9978937D01*
X14303950Y-9978937D01*
X14303950Y-9991063D01*
X14306458Y-10000424D01*
X14307088Y-10002775D01*
X14307088Y-10002775D01*
X14307759Y-10003937D01*
X14313151Y-10013275D01*
X14321725Y-10021849D01*
X14332225Y-10027912D01*
X14343937Y-10031050D01*
X14343938Y-10031050D01*
X14356062Y-10031050D01*
X14356063Y-10031050D01*
X14367775Y-10027912D01*
X14378275Y-10021849D01*
X14386849Y-10013275D01*
X14392912Y-10002775D01*
X14396050Y-9991063D01*
X14396050Y-9978937D01*
X14392912Y-9967225D01*
X14392833Y-9967088D01*
X14391013Y-9963937D01*
X14797950Y-9963937D01*
X14797950Y-9976063D01*
X14801088Y-9987775D01*
X14801088Y-9987775D01*
X14801088Y-9987775D01*
X14801399Y-9988314D01*
X14807151Y-9998275D01*
X14815725Y-10006849D01*
X14826225Y-10012912D01*
X14837937Y-10016050D01*
X14837938Y-10016050D01*
X14850062Y-10016050D01*
X14850063Y-10016050D01*
X14861775Y-10012912D01*
X14872275Y-10006849D01*
X14880849Y-9998275D01*
X14886912Y-9987775D01*
X14890050Y-9976063D01*
X14890050Y-9976062D01*
X14890173Y-9975602D01*
X14893810Y-9969636D01*
X14900094Y-9966583D01*
X14907032Y-9967413D01*
X14910919Y-9970043D01*
X14911151Y-9970275D01*
X14919725Y-9978849D01*
X14930225Y-9984912D01*
X14941937Y-9988050D01*
X14941938Y-9988050D01*
X14942185Y-9988083D01*
X14942378Y-9988168D01*
X14942722Y-9988260D01*
X14942708Y-9988314D01*
X14948575Y-9990909D01*
X14952422Y-9996742D01*
X14952536Y-10003129D01*
X14952556Y-10003132D01*
X14952538Y-10003265D01*
X14952544Y-10003585D01*
X14952450Y-10003937D01*
X14952450Y-10003937D01*
X14952450Y-10016063D01*
X14954036Y-10021982D01*
X14955588Y-10027775D01*
X14955588Y-10027775D01*
X14957479Y-10031050D01*
X14961651Y-10038275D01*
X14970225Y-10046849D01*
X14980725Y-10052912D01*
X14992437Y-10056050D01*
X14992438Y-10056050D01*
X14992550Y-10056050D01*
X14992641Y-10056077D01*
X14993243Y-10056156D01*
X14993231Y-10056250D01*
X14999254Y-10058019D01*
X15003829Y-10063299D01*
X15004950Y-10068450D01*
X15004950Y-10076063D01*
X15007557Y-10085793D01*
X15008088Y-10087775D01*
X15008088Y-10087775D01*
X15009277Y-10089834D01*
X15014151Y-10098275D01*
X15022725Y-10106849D01*
X15033225Y-10112912D01*
X15044937Y-10116050D01*
X15044938Y-10116050D01*
X15057062Y-10116050D01*
X15057063Y-10116050D01*
X15068371Y-10113020D01*
X15075355Y-10113186D01*
X15081142Y-10117103D01*
X15083892Y-10123525D01*
X15083557Y-10128207D01*
X15080950Y-10137937D01*
X15080950Y-10137937D01*
X15080950Y-10150063D01*
X15084088Y-10161775D01*
X15090151Y-10172275D01*
X15098725Y-10180849D01*
X15109225Y-10186912D01*
X15120937Y-10190050D01*
X15120938Y-10190050D01*
X15126189Y-10190050D01*
X15132893Y-10192019D01*
X15137469Y-10197299D01*
X15138167Y-10199241D01*
X15138325Y-10199831D01*
X15138325Y-10199831D01*
X15141463Y-10211544D01*
X15147526Y-10222044D01*
X15156100Y-10230618D01*
X15166440Y-10236588D01*
X15166598Y-10236679D01*
X15171419Y-10241736D01*
X15172742Y-10248597D01*
X15172375Y-10250627D01*
X15170819Y-10256437D01*
X15170819Y-10256437D01*
X15170819Y-10268563D01*
X15172835Y-10276088D01*
X15173957Y-10280275D01*
X15173957Y-10280275D01*
X15175040Y-10282151D01*
X15180019Y-10290775D01*
X15188593Y-10299349D01*
X15199094Y-10305412D01*
X15210806Y-10308550D01*
X15210806Y-10308550D01*
X15222931Y-10308550D01*
X15222931Y-10308550D01*
X15234643Y-10305412D01*
X15245144Y-10299349D01*
X15253718Y-10290775D01*
X15259780Y-10280275D01*
X15262919Y-10268563D01*
X15262919Y-10256437D01*
X15259780Y-10244725D01*
X15253718Y-10234225D01*
X15245144Y-10225651D01*
X15245144Y-10225651D01*
X15245144Y-10225651D01*
X15234646Y-10219590D01*
X15229824Y-10214533D01*
X15228502Y-10207672D01*
X15228525Y-10207448D01*
X15228630Y-10206533D01*
X15230425Y-10199831D01*
X15230425Y-10192279D01*
X15765367Y-10192279D01*
X15765367Y-10205721D01*
X15767729Y-10214533D01*
X15768846Y-10218705D01*
X15768847Y-10218705D01*
X15775567Y-10230345D01*
X15775567Y-10230345D01*
X15775567Y-10230345D01*
X15785072Y-10239850D01*
X15785072Y-10239850D01*
X15785072Y-10239850D01*
X15790892Y-10243211D01*
X15796713Y-10246571D01*
X15809697Y-10250050D01*
X15809697Y-10250050D01*
X15823138Y-10250050D01*
X15823138Y-10250050D01*
X15836122Y-10246571D01*
X15847763Y-10239850D01*
X15857268Y-10230345D01*
X15863988Y-10218705D01*
X15867467Y-10205721D01*
X15867467Y-10192279D01*
X15863988Y-10179295D01*
X15857268Y-10167655D01*
X15847763Y-10158150D01*
X15847763Y-10158150D01*
X15847762Y-10158150D01*
X15836122Y-10151429D01*
X15836122Y-10151429D01*
X15832876Y-10150559D01*
X15823138Y-10147950D01*
X15809697Y-10147950D01*
X15801906Y-10150037D01*
X15796713Y-10151429D01*
X15796713Y-10151429D01*
X15785072Y-10158150D01*
X15785072Y-10158150D01*
X15775567Y-10167654D01*
X15775567Y-10167655D01*
X15768847Y-10179295D01*
X15768846Y-10179295D01*
X15767757Y-10183359D01*
X15765367Y-10192279D01*
X15230425Y-10192279D01*
X15230425Y-10187706D01*
X15227287Y-10175994D01*
X15221224Y-10165493D01*
X15212651Y-10156920D01*
X15202150Y-10150857D01*
X15190438Y-10147719D01*
X15185186Y-10147719D01*
X15178482Y-10145750D01*
X15173906Y-10140470D01*
X15173208Y-10138528D01*
X15173050Y-10137938D01*
X15173050Y-10137937D01*
X15169912Y-10126225D01*
X15163849Y-10115725D01*
X15155275Y-10107151D01*
X15148036Y-10102971D01*
X15144775Y-10101088D01*
X15144775Y-10101088D01*
X15144775Y-10101088D01*
X15137836Y-10099229D01*
X17172806Y-10099229D01*
X17172806Y-10111354D01*
X17175671Y-10122046D01*
X17175944Y-10123066D01*
X17175944Y-10123066D01*
X17177768Y-10126225D01*
X17182007Y-10133567D01*
X17190581Y-10142141D01*
X17201081Y-10148203D01*
X17212793Y-10151342D01*
X17212794Y-10151342D01*
X17224918Y-10151342D01*
X17224919Y-10151342D01*
X17236631Y-10148203D01*
X17247131Y-10142141D01*
X17255705Y-10133567D01*
X17261768Y-10123066D01*
X17264906Y-10111354D01*
X17264906Y-10099229D01*
X17261768Y-10087517D01*
X17255705Y-10077016D01*
X17247131Y-10068442D01*
X17240131Y-10064401D01*
X17236631Y-10062380D01*
X17236631Y-10062380D01*
X17236631Y-10062380D01*
X17224919Y-10059242D01*
X17212793Y-10059242D01*
X17201081Y-10062380D01*
X17201081Y-10062380D01*
X17190581Y-10068442D01*
X17190580Y-10068443D01*
X17182007Y-10077016D01*
X17182007Y-10077016D01*
X17175944Y-10087517D01*
X17175944Y-10087517D01*
X17172806Y-10099229D01*
X15137836Y-10099229D01*
X15133063Y-10097950D01*
X15120937Y-10097950D01*
X15114644Y-10099636D01*
X15109629Y-10100980D01*
X15102644Y-10100814D01*
X15096858Y-10096897D01*
X15094108Y-10090474D01*
X15094443Y-10085793D01*
X15097050Y-10076063D01*
X15097050Y-10063937D01*
X15093912Y-10052225D01*
X15087849Y-10041725D01*
X15079275Y-10033151D01*
X15070201Y-10027912D01*
X15068775Y-10027088D01*
X15068775Y-10027088D01*
X15068775Y-10027088D01*
X15057063Y-10023950D01*
X15056950Y-10023950D01*
X15056859Y-10023923D01*
X15056257Y-10023844D01*
X15056269Y-10023750D01*
X15050246Y-10021982D01*
X15045671Y-10016701D01*
X15044550Y-10011550D01*
X15044550Y-10003938D01*
X15044550Y-10003937D01*
X15041412Y-9992225D01*
X15035349Y-9981725D01*
X15026775Y-9973151D01*
X15016512Y-9967225D01*
X15016275Y-9967088D01*
X15016275Y-9967088D01*
X15016275Y-9967088D01*
X15004563Y-9963950D01*
X15004562Y-9963950D01*
X15004562Y-9963950D01*
X15004314Y-9963917D01*
X15004120Y-9963831D01*
X15003778Y-9963740D01*
X15003792Y-9963686D01*
X14997924Y-9961090D01*
X14994078Y-9955257D01*
X14993964Y-9948871D01*
X14993944Y-9948868D01*
X14993961Y-9948734D01*
X14993956Y-9948414D01*
X14994050Y-9948063D01*
X14994050Y-9935937D01*
X14990912Y-9924225D01*
X14984849Y-9913725D01*
X14976275Y-9905151D01*
X14965775Y-9899088D01*
X14954063Y-9895950D01*
X14941937Y-9895950D01*
X14930225Y-9899088D01*
X14930225Y-9899088D01*
X14919725Y-9905151D01*
X14919724Y-9905151D01*
X14911151Y-9913724D01*
X14911151Y-9913725D01*
X14905088Y-9924225D01*
X14905088Y-9924225D01*
X14901827Y-9936398D01*
X14898190Y-9942364D01*
X14891905Y-9945417D01*
X14884968Y-9944587D01*
X14881081Y-9941957D01*
X14872276Y-9933151D01*
X14872275Y-9933151D01*
X14861775Y-9927088D01*
X14850063Y-9923950D01*
X14837937Y-9923950D01*
X14826225Y-9927088D01*
X14826225Y-9927088D01*
X14815725Y-9933151D01*
X14815724Y-9933151D01*
X14807151Y-9941724D01*
X14807151Y-9941725D01*
X14801088Y-9952225D01*
X14801088Y-9952225D01*
X14797950Y-9963937D01*
X14391013Y-9963937D01*
X14386849Y-9956725D01*
X14378275Y-9948151D01*
X14367775Y-9942088D01*
X14356063Y-9938950D01*
X14343937Y-9938950D01*
X14332225Y-9942088D01*
X14332225Y-9942088D01*
X14321725Y-9948151D01*
X14321724Y-9948151D01*
X14313151Y-9956724D01*
X14313151Y-9956725D01*
X14307088Y-9967225D01*
X14307088Y-9967225D01*
X14307088Y-9967225D01*
X14303950Y-9978937D01*
X13698144Y-9978937D01*
X13698094Y-9863279D01*
X14485367Y-9863279D01*
X14485367Y-9876721D01*
X14487800Y-9885800D01*
X14488846Y-9889705D01*
X14488847Y-9889705D01*
X14495567Y-9901345D01*
X14495567Y-9901345D01*
X14495567Y-9901345D01*
X14505072Y-9910850D01*
X14505072Y-9910850D01*
X14505072Y-9910850D01*
X14510050Y-9913724D01*
X14516713Y-9917571D01*
X14529697Y-9921050D01*
X14529697Y-9921050D01*
X14543138Y-9921050D01*
X14543138Y-9921050D01*
X14556122Y-9917571D01*
X14567763Y-9910850D01*
X14577268Y-9901345D01*
X14583988Y-9889705D01*
X14587467Y-9876721D01*
X14587467Y-9873675D01*
X17200630Y-9873675D01*
X17200630Y-9885800D01*
X17203769Y-9897512D01*
X17209831Y-9908013D01*
X17218405Y-9916586D01*
X17228906Y-9922649D01*
X17240618Y-9925787D01*
X17240618Y-9925787D01*
X17252743Y-9925787D01*
X17252743Y-9925787D01*
X17264455Y-9922649D01*
X17274956Y-9916586D01*
X17283530Y-9908013D01*
X17289592Y-9897512D01*
X17292730Y-9885800D01*
X17292730Y-9873675D01*
X17289592Y-9861962D01*
X17283530Y-9851462D01*
X17274956Y-9842888D01*
X17266967Y-9838275D01*
X17264455Y-9836825D01*
X17264455Y-9836825D01*
X17264455Y-9836825D01*
X17252743Y-9833687D01*
X17240618Y-9833687D01*
X17228906Y-9836825D01*
X17228905Y-9836825D01*
X17218405Y-9842888D01*
X17218405Y-9842888D01*
X17209831Y-9851461D01*
X17209831Y-9851462D01*
X17203769Y-9861962D01*
X17203769Y-9861962D01*
X17200630Y-9873675D01*
X14587467Y-9873675D01*
X14587467Y-9863279D01*
X14583988Y-9850295D01*
X14578884Y-9841454D01*
X14577268Y-9838655D01*
X14577267Y-9838654D01*
X14567763Y-9829150D01*
X14567762Y-9829150D01*
X14556122Y-9822429D01*
X14556122Y-9822429D01*
X14552876Y-9821559D01*
X14543138Y-9818950D01*
X14529697Y-9818950D01*
X14521906Y-9821037D01*
X14516713Y-9822429D01*
X14516713Y-9822429D01*
X14505072Y-9829150D01*
X14505072Y-9829150D01*
X14495567Y-9838654D01*
X14495567Y-9838655D01*
X14488847Y-9850295D01*
X14488846Y-9850295D01*
X14488145Y-9852912D01*
X14485367Y-9863279D01*
X13698094Y-9863279D01*
X13698020Y-9693279D01*
X14545367Y-9693279D01*
X14545367Y-9706721D01*
X14547026Y-9712912D01*
X14548846Y-9719705D01*
X14548847Y-9719705D01*
X14555567Y-9731345D01*
X14555567Y-9731345D01*
X14555567Y-9731345D01*
X14565072Y-9740850D01*
X14576713Y-9747571D01*
X14589697Y-9751050D01*
X14589697Y-9751050D01*
X14603138Y-9751050D01*
X14603138Y-9751050D01*
X14616122Y-9747571D01*
X14627763Y-9740850D01*
X14637268Y-9731345D01*
X14643988Y-9719705D01*
X14647467Y-9706721D01*
X14647467Y-9693279D01*
X14643988Y-9680295D01*
X14637268Y-9668655D01*
X14632550Y-9663937D01*
X14914773Y-9663937D01*
X14914773Y-9676063D01*
X14917911Y-9687775D01*
X14923974Y-9698275D01*
X14932548Y-9706849D01*
X14943048Y-9712912D01*
X14954760Y-9716050D01*
X14954761Y-9716050D01*
X14966885Y-9716050D01*
X14966886Y-9716050D01*
X14978346Y-9712979D01*
X15590367Y-9712979D01*
X15590367Y-9725104D01*
X15593506Y-9736817D01*
X15599568Y-9747317D01*
X15599568Y-9747317D01*
X15602275Y-9750024D01*
X15605623Y-9756156D01*
X15605125Y-9763125D01*
X15602275Y-9767560D01*
X15599568Y-9770266D01*
X15599568Y-9770267D01*
X15593506Y-9780767D01*
X15593506Y-9780767D01*
X15590367Y-9792479D01*
X15590367Y-9804604D01*
X15593506Y-9816317D01*
X15599568Y-9826817D01*
X15608142Y-9835391D01*
X15618643Y-9841454D01*
X15630355Y-9844592D01*
X15630355Y-9844592D01*
X15642480Y-9844592D01*
X15642480Y-9844592D01*
X15654192Y-9841454D01*
X15664693Y-9835391D01*
X15673267Y-9826817D01*
X15679329Y-9816317D01*
X15682467Y-9804604D01*
X15682467Y-9792479D01*
X15679329Y-9780767D01*
X15673267Y-9770266D01*
X15670273Y-9767273D01*
X15670006Y-9766969D01*
X15669114Y-9765047D01*
X16401476Y-9765047D01*
X16401476Y-9777172D01*
X16404615Y-9788884D01*
X16410677Y-9799385D01*
X16419251Y-9807958D01*
X16429752Y-9814021D01*
X16441464Y-9817159D01*
X16441464Y-9817159D01*
X16453589Y-9817159D01*
X16453589Y-9817159D01*
X16465301Y-9814021D01*
X16475802Y-9807958D01*
X16479823Y-9803937D01*
X16560367Y-9803937D01*
X16560367Y-9816063D01*
X16563506Y-9827775D01*
X16569568Y-9838275D01*
X16578142Y-9846849D01*
X16588643Y-9852912D01*
X16600355Y-9856050D01*
X16600355Y-9856050D01*
X16612480Y-9856050D01*
X16612480Y-9856050D01*
X16624192Y-9852912D01*
X16634693Y-9846849D01*
X16643267Y-9838275D01*
X16649329Y-9827775D01*
X16652467Y-9816063D01*
X16652467Y-9803937D01*
X16649329Y-9792225D01*
X16643267Y-9781725D01*
X16634693Y-9773151D01*
X16624192Y-9767088D01*
X16612480Y-9763950D01*
X16600355Y-9763950D01*
X16588643Y-9767088D01*
X16588642Y-9767088D01*
X16578142Y-9773151D01*
X16578142Y-9773151D01*
X16569568Y-9781724D01*
X16569568Y-9781725D01*
X16563506Y-9792225D01*
X16563506Y-9792225D01*
X16560367Y-9803937D01*
X16479823Y-9803937D01*
X16484376Y-9799385D01*
X16490438Y-9788884D01*
X16493576Y-9777172D01*
X16493576Y-9765047D01*
X16490438Y-9753335D01*
X16484376Y-9742834D01*
X16475802Y-9734260D01*
X16465301Y-9728197D01*
X16453589Y-9725059D01*
X16441464Y-9725059D01*
X16429752Y-9728197D01*
X16429751Y-9728198D01*
X16419251Y-9734260D01*
X16419251Y-9734260D01*
X16410677Y-9742834D01*
X16410677Y-9742834D01*
X16404615Y-9753334D01*
X16404615Y-9753335D01*
X16401476Y-9765047D01*
X15669114Y-9765047D01*
X15668699Y-9764152D01*
X15667212Y-9761428D01*
X15667241Y-9761010D01*
X15667065Y-9760631D01*
X15667488Y-9757556D01*
X15667710Y-9754458D01*
X15667970Y-9754053D01*
X15668018Y-9753709D01*
X15668715Y-9752895D01*
X15670560Y-9750024D01*
X15673267Y-9747317D01*
X15679329Y-9736817D01*
X15682467Y-9725104D01*
X15682467Y-9712979D01*
X15679329Y-9701267D01*
X15673267Y-9690766D01*
X15664693Y-9682193D01*
X15657692Y-9678151D01*
X15654192Y-9676130D01*
X15654192Y-9676130D01*
X15654192Y-9676130D01*
X15642480Y-9672992D01*
X15630355Y-9672992D01*
X15618643Y-9676130D01*
X15618642Y-9676130D01*
X15608142Y-9682192D01*
X15608142Y-9682193D01*
X15599568Y-9690766D01*
X15599568Y-9690767D01*
X15593506Y-9701267D01*
X15593506Y-9701267D01*
X15590367Y-9712979D01*
X14978346Y-9712979D01*
X14978598Y-9712912D01*
X14989098Y-9706849D01*
X14997672Y-9698275D01*
X15003735Y-9687775D01*
X15006873Y-9676063D01*
X15006873Y-9663937D01*
X15003735Y-9652225D01*
X14997672Y-9641725D01*
X14989098Y-9633151D01*
X14983848Y-9630120D01*
X14978598Y-9627088D01*
X14978598Y-9627088D01*
X14978598Y-9627088D01*
X14966886Y-9623950D01*
X14954760Y-9623950D01*
X14943048Y-9627088D01*
X14943048Y-9627088D01*
X14932548Y-9633151D01*
X14932547Y-9633151D01*
X14923974Y-9641724D01*
X14923974Y-9641725D01*
X14917911Y-9652225D01*
X14917911Y-9652225D01*
X14914773Y-9663937D01*
X14632550Y-9663937D01*
X14627763Y-9659150D01*
X14627763Y-9659150D01*
X14627762Y-9659150D01*
X14616122Y-9652429D01*
X14616122Y-9652429D01*
X14612876Y-9651559D01*
X14603138Y-9648950D01*
X14589697Y-9648950D01*
X14581906Y-9651037D01*
X14576713Y-9652429D01*
X14576713Y-9652429D01*
X14565072Y-9659150D01*
X14565072Y-9659150D01*
X14555567Y-9668654D01*
X14555567Y-9668655D01*
X14548847Y-9680295D01*
X14548846Y-9680295D01*
X14548338Y-9682192D01*
X14545367Y-9693279D01*
X13698020Y-9693279D01*
X13697990Y-9623937D01*
X15120367Y-9623937D01*
X15120367Y-9636063D01*
X15123506Y-9647775D01*
X15129568Y-9658275D01*
X15138142Y-9666849D01*
X15148643Y-9672912D01*
X15160355Y-9676050D01*
X15160355Y-9676050D01*
X15172480Y-9676050D01*
X15172480Y-9676050D01*
X15184192Y-9672912D01*
X15194693Y-9666849D01*
X15203267Y-9658275D01*
X15209329Y-9647775D01*
X15212467Y-9636063D01*
X15212467Y-9623937D01*
X15209329Y-9612225D01*
X15207431Y-9608937D01*
X16151367Y-9608937D01*
X16151367Y-9621063D01*
X16152982Y-9627088D01*
X16154506Y-9632775D01*
X16154506Y-9632775D01*
X16156404Y-9636062D01*
X16160568Y-9643275D01*
X16169142Y-9651849D01*
X16179643Y-9657912D01*
X16191355Y-9661050D01*
X16191355Y-9661050D01*
X16203480Y-9661050D01*
X16203480Y-9661050D01*
X16215192Y-9657912D01*
X16225693Y-9651849D01*
X16234267Y-9643275D01*
X16240329Y-9632775D01*
X16243467Y-9621063D01*
X16243467Y-9608937D01*
X16240329Y-9597225D01*
X16234267Y-9586725D01*
X16225693Y-9578151D01*
X16215192Y-9572088D01*
X16203480Y-9568950D01*
X16191355Y-9568950D01*
X16179643Y-9572088D01*
X16179642Y-9572088D01*
X16169142Y-9578151D01*
X16169142Y-9578151D01*
X16160568Y-9586724D01*
X16160568Y-9586725D01*
X16154506Y-9597225D01*
X16154506Y-9597225D01*
X16151367Y-9608937D01*
X15207431Y-9608937D01*
X15203267Y-9601725D01*
X15194693Y-9593151D01*
X15184192Y-9587088D01*
X15172480Y-9583950D01*
X15160355Y-9583950D01*
X15148643Y-9587088D01*
X15148642Y-9587088D01*
X15138142Y-9593151D01*
X15138142Y-9593151D01*
X15129568Y-9601724D01*
X15129568Y-9601725D01*
X15123506Y-9612225D01*
X15123506Y-9612225D01*
X15123506Y-9612225D01*
X15120367Y-9623937D01*
X13697990Y-9623937D01*
X13697929Y-9483279D01*
X13840367Y-9483279D01*
X13840367Y-9496721D01*
X13842977Y-9506459D01*
X13843846Y-9509705D01*
X13843847Y-9509705D01*
X13850567Y-9521345D01*
X13850567Y-9521345D01*
X13850567Y-9521345D01*
X13860072Y-9530850D01*
X13860072Y-9530850D01*
X13860072Y-9530850D01*
X13864770Y-9533563D01*
X13871713Y-9537571D01*
X13884697Y-9541050D01*
X13884697Y-9541050D01*
X13898138Y-9541050D01*
X13898138Y-9541050D01*
X13911122Y-9537571D01*
X13922763Y-9530850D01*
X13932268Y-9521345D01*
X13933250Y-9519645D01*
X14973243Y-9519645D01*
X14973243Y-9531770D01*
X14976381Y-9543482D01*
X14982443Y-9553983D01*
X14991017Y-9562557D01*
X15001518Y-9568619D01*
X15013230Y-9571757D01*
X15013230Y-9571757D01*
X15025355Y-9571757D01*
X15025355Y-9571757D01*
X15037067Y-9568619D01*
X15047568Y-9562557D01*
X15056142Y-9553983D01*
X15062204Y-9543482D01*
X15065343Y-9531770D01*
X15065343Y-9521437D01*
X15845867Y-9521437D01*
X15845867Y-9533563D01*
X15849006Y-9545275D01*
X15855068Y-9555775D01*
X15863642Y-9564349D01*
X15874143Y-9570412D01*
X15885855Y-9573550D01*
X15885855Y-9573550D01*
X15897980Y-9573550D01*
X15897980Y-9573550D01*
X15909692Y-9570412D01*
X15920193Y-9564349D01*
X15928767Y-9555775D01*
X15934829Y-9545275D01*
X15937967Y-9533563D01*
X15937967Y-9521437D01*
X15934829Y-9509725D01*
X15928767Y-9499225D01*
X15920193Y-9490651D01*
X15909692Y-9484588D01*
X15897980Y-9481450D01*
X15885855Y-9481450D01*
X15874143Y-9484588D01*
X15874142Y-9484588D01*
X15863642Y-9490651D01*
X15863642Y-9490651D01*
X15855068Y-9499224D01*
X15855068Y-9499225D01*
X15849006Y-9509725D01*
X15849006Y-9509725D01*
X15845867Y-9521437D01*
X15065343Y-9521437D01*
X15065343Y-9519645D01*
X15062204Y-9507933D01*
X15056142Y-9497432D01*
X15047568Y-9488858D01*
X15037067Y-9482796D01*
X15025355Y-9479657D01*
X15013230Y-9479657D01*
X15001518Y-9482796D01*
X15001518Y-9482796D01*
X14991018Y-9488858D01*
X14991017Y-9488858D01*
X14982444Y-9497432D01*
X14982443Y-9497432D01*
X14976381Y-9507932D01*
X14976381Y-9507933D01*
X14973243Y-9519645D01*
X13933250Y-9519645D01*
X13938988Y-9509705D01*
X13942467Y-9496721D01*
X13942467Y-9483279D01*
X13938988Y-9470295D01*
X13932268Y-9458655D01*
X13922763Y-9449150D01*
X13922763Y-9449150D01*
X13922762Y-9449150D01*
X13911122Y-9442429D01*
X13911122Y-9442429D01*
X13907876Y-9441559D01*
X13898138Y-9438950D01*
X13884697Y-9438950D01*
X13876906Y-9441037D01*
X13871713Y-9442429D01*
X13871713Y-9442429D01*
X13860072Y-9449150D01*
X13860072Y-9449150D01*
X13850567Y-9458654D01*
X13850567Y-9458655D01*
X13843847Y-9470295D01*
X13843846Y-9470295D01*
X13842107Y-9476787D01*
X13840367Y-9483279D01*
X13697929Y-9483279D01*
X13697905Y-9427793D01*
X13655447Y-9385281D01*
X13653216Y-9385280D01*
X13289499Y-9385016D01*
X13282796Y-9383043D01*
X13280745Y-9381390D01*
X13193175Y-9293937D01*
X13593950Y-9293937D01*
X13593950Y-9306063D01*
X13597088Y-9317775D01*
X13603151Y-9328275D01*
X13611725Y-9336849D01*
X13622225Y-9342912D01*
X13633937Y-9346050D01*
X13633938Y-9346050D01*
X13646062Y-9346050D01*
X13646063Y-9346050D01*
X13657775Y-9342912D01*
X13668275Y-9336849D01*
X13676849Y-9328275D01*
X13682912Y-9317775D01*
X13686050Y-9306063D01*
X13686050Y-9293937D01*
X15180367Y-9293937D01*
X15180367Y-9306063D01*
X15183506Y-9317775D01*
X15189568Y-9328275D01*
X15198142Y-9336849D01*
X15208643Y-9342912D01*
X15220355Y-9346050D01*
X15220355Y-9346050D01*
X15232480Y-9346050D01*
X15232480Y-9346050D01*
X15244192Y-9342912D01*
X15254693Y-9336849D01*
X15263267Y-9328275D01*
X15269329Y-9317775D01*
X15272467Y-9306063D01*
X15272467Y-9293937D01*
X15269329Y-9282225D01*
X15263267Y-9271725D01*
X15254693Y-9263151D01*
X15244192Y-9257088D01*
X15232480Y-9253950D01*
X15220355Y-9253950D01*
X15208643Y-9257088D01*
X15208642Y-9257088D01*
X15198142Y-9263151D01*
X15198142Y-9263151D01*
X15189568Y-9271724D01*
X15189568Y-9271725D01*
X15183506Y-9282225D01*
X15183506Y-9282225D01*
X15180367Y-9293937D01*
X13686050Y-9293937D01*
X13682912Y-9282225D01*
X13676849Y-9271725D01*
X13668275Y-9263151D01*
X13657775Y-9257088D01*
X13646063Y-9253950D01*
X13633937Y-9253950D01*
X13622225Y-9257088D01*
X13622225Y-9257088D01*
X13611725Y-9263151D01*
X13611724Y-9263151D01*
X13603151Y-9271724D01*
X13603151Y-9271725D01*
X13597088Y-9282225D01*
X13597088Y-9282225D01*
X13593950Y-9293937D01*
X13193175Y-9293937D01*
X13080430Y-9181344D01*
X13900525Y-9181344D01*
X13900525Y-9193470D01*
X13903663Y-9205182D01*
X13909726Y-9215682D01*
X13918299Y-9224256D01*
X13928800Y-9230319D01*
X13940512Y-9233457D01*
X13940512Y-9233457D01*
X13952637Y-9233457D01*
X13952637Y-9233457D01*
X13964349Y-9230319D01*
X13974850Y-9224256D01*
X13983424Y-9215682D01*
X13984431Y-9213937D01*
X14767950Y-9213937D01*
X14767950Y-9226063D01*
X14771088Y-9237775D01*
X14777151Y-9248275D01*
X14785725Y-9256849D01*
X14796225Y-9262912D01*
X14807937Y-9266050D01*
X14807938Y-9266050D01*
X14820062Y-9266050D01*
X14820063Y-9266050D01*
X14831775Y-9262912D01*
X14842275Y-9256849D01*
X14850849Y-9248275D01*
X14856912Y-9237775D01*
X14860050Y-9226063D01*
X14860050Y-9213937D01*
X14856912Y-9202225D01*
X14850849Y-9191725D01*
X14842275Y-9183151D01*
X14831775Y-9177088D01*
X14820063Y-9173950D01*
X14807937Y-9173950D01*
X14796225Y-9177088D01*
X14796225Y-9177088D01*
X14785725Y-9183151D01*
X14785724Y-9183151D01*
X14777151Y-9191724D01*
X14777151Y-9191725D01*
X14771088Y-9202225D01*
X14771088Y-9202225D01*
X14767950Y-9213937D01*
X13984431Y-9213937D01*
X13989487Y-9205182D01*
X13992625Y-9193470D01*
X13992625Y-9181344D01*
X13989487Y-9169632D01*
X13983424Y-9159132D01*
X13974850Y-9150558D01*
X13964349Y-9144495D01*
X13962268Y-9143937D01*
X14470367Y-9143937D01*
X14470367Y-9156063D01*
X14473506Y-9167775D01*
X14473506Y-9167775D01*
X14474578Y-9169632D01*
X14479568Y-9178275D01*
X14488142Y-9186849D01*
X14498643Y-9192912D01*
X14510355Y-9196050D01*
X14510355Y-9196050D01*
X14522480Y-9196050D01*
X14522480Y-9196050D01*
X14534192Y-9192912D01*
X14544693Y-9186849D01*
X14553267Y-9178275D01*
X14559329Y-9167775D01*
X14562467Y-9156063D01*
X14562467Y-9153934D01*
X15641392Y-9153934D01*
X15644234Y-9168220D01*
X15644234Y-9168221D01*
X15649808Y-9181678D01*
X15649809Y-9181679D01*
X15657902Y-9193790D01*
X15657902Y-9193791D01*
X15668202Y-9204090D01*
X15668202Y-9204091D01*
X15680313Y-9212183D01*
X15680315Y-9212184D01*
X15688761Y-9215683D01*
X15693772Y-9217758D01*
X15693772Y-9217758D01*
X15693773Y-9217758D01*
X15708059Y-9220600D01*
X15708059Y-9220600D01*
X15722626Y-9220600D01*
X15732238Y-9218688D01*
X15736913Y-9217758D01*
X15747321Y-9213447D01*
X15750370Y-9212184D01*
X15750370Y-9212184D01*
X15750371Y-9212184D01*
X15762483Y-9204091D01*
X15772783Y-9193790D01*
X15780876Y-9181679D01*
X15781014Y-9181345D01*
X15786450Y-9168221D01*
X15786451Y-9168220D01*
X15789292Y-9153933D01*
X15789292Y-9058918D01*
X15791261Y-9052214D01*
X15796541Y-9047638D01*
X15803457Y-9046644D01*
X15809813Y-9049546D01*
X15810461Y-9050150D01*
X15816611Y-9056300D01*
X15828024Y-9062889D01*
X15840753Y-9066300D01*
X15840753Y-9066300D01*
X15853931Y-9066300D01*
X15853932Y-9066300D01*
X15866661Y-9062889D01*
X15878074Y-9056300D01*
X15887392Y-9046981D01*
X15893982Y-9035569D01*
X15897392Y-9022839D01*
X15897392Y-9009661D01*
X15897340Y-9009463D01*
X16395792Y-9009463D01*
X16395792Y-9023037D01*
X16398503Y-9033151D01*
X16399306Y-9036148D01*
X16406092Y-9047902D01*
X16406092Y-9047902D01*
X16406092Y-9047902D01*
X16415690Y-9057500D01*
X16415690Y-9057500D01*
X16415690Y-9057500D01*
X16427445Y-9064287D01*
X16427445Y-9064287D01*
X16427445Y-9064287D01*
X16440556Y-9067800D01*
X16440556Y-9067800D01*
X16454129Y-9067800D01*
X16454129Y-9067800D01*
X16467240Y-9064287D01*
X16478995Y-9057500D01*
X16484224Y-9052271D01*
X16490357Y-9048922D01*
X16497326Y-9049421D01*
X16502919Y-9053608D01*
X16505361Y-9060154D01*
X16505392Y-9061039D01*
X16505392Y-9153933D01*
X16505392Y-9153934D01*
X16505392Y-9153934D01*
X16508234Y-9168220D01*
X16508234Y-9168221D01*
X16513808Y-9181678D01*
X16513809Y-9181679D01*
X16521902Y-9193790D01*
X16521902Y-9193791D01*
X16532202Y-9204090D01*
X16532202Y-9204091D01*
X16544313Y-9212183D01*
X16544315Y-9212184D01*
X16552761Y-9215683D01*
X16557772Y-9217758D01*
X16557772Y-9217758D01*
X16557773Y-9217758D01*
X16572059Y-9220600D01*
X16572059Y-9220600D01*
X16586626Y-9220600D01*
X16596238Y-9218688D01*
X16600913Y-9217758D01*
X16611321Y-9213447D01*
X16614370Y-9212184D01*
X16614370Y-9212184D01*
X16614371Y-9212184D01*
X16626483Y-9204091D01*
X16636783Y-9193790D01*
X16644876Y-9181679D01*
X16645014Y-9181345D01*
X16650450Y-9168221D01*
X16650451Y-9168220D01*
X16653292Y-9153933D01*
X16653292Y-9023567D01*
X16653292Y-9023566D01*
X16650451Y-9009280D01*
X16650451Y-9009280D01*
X16650451Y-9009280D01*
X16650450Y-9009279D01*
X16644876Y-8995822D01*
X16644876Y-8995821D01*
X16636783Y-8983709D01*
X16626483Y-8973410D01*
X16626483Y-8973409D01*
X16614372Y-8965317D01*
X16614370Y-8965316D01*
X16600913Y-8959742D01*
X16600912Y-8959742D01*
X16586626Y-8956900D01*
X16586626Y-8956900D01*
X16572059Y-8956900D01*
X16572059Y-8956900D01*
X16557773Y-8959742D01*
X16557772Y-8959742D01*
X16544315Y-8965316D01*
X16544313Y-8965317D01*
X16532202Y-8973409D01*
X16532202Y-8973410D01*
X16521902Y-8983709D01*
X16521902Y-8983709D01*
X16514836Y-8994284D01*
X16509475Y-8998764D01*
X16502542Y-8999635D01*
X16496240Y-8996620D01*
X16493787Y-8993595D01*
X16493668Y-8993388D01*
X16488593Y-8984598D01*
X16478995Y-8975000D01*
X16478995Y-8975000D01*
X16478994Y-8975000D01*
X16467240Y-8968213D01*
X16467240Y-8968213D01*
X16465691Y-8967798D01*
X16454129Y-8964700D01*
X16440556Y-8964700D01*
X16428994Y-8967798D01*
X16427445Y-8968213D01*
X16415690Y-8975000D01*
X16415690Y-8975000D01*
X16406092Y-8984597D01*
X16406092Y-8984598D01*
X16399306Y-8996352D01*
X16399306Y-8996353D01*
X16395792Y-9009463D01*
X15897340Y-9009463D01*
X15893982Y-8996931D01*
X15887392Y-8985519D01*
X15878074Y-8976200D01*
X15872367Y-8972905D01*
X15866661Y-8969611D01*
X15860296Y-8967905D01*
X15853932Y-8966200D01*
X15840753Y-8966200D01*
X15828024Y-8969611D01*
X15816611Y-8976200D01*
X15816611Y-8976200D01*
X15807293Y-8985518D01*
X15807292Y-8985519D01*
X15801827Y-8994985D01*
X15796770Y-8999807D01*
X15789909Y-9001129D01*
X15783423Y-8998532D01*
X15780778Y-8995674D01*
X15772783Y-8983709D01*
X15762483Y-8973410D01*
X15762483Y-8973409D01*
X15750372Y-8965317D01*
X15750370Y-8965316D01*
X15736913Y-8959742D01*
X15736912Y-8959742D01*
X15722626Y-8956900D01*
X15722626Y-8956900D01*
X15708059Y-8956900D01*
X15708059Y-8956900D01*
X15693773Y-8959742D01*
X15693772Y-8959742D01*
X15680315Y-8965316D01*
X15680313Y-8965317D01*
X15668202Y-8973409D01*
X15668202Y-8973410D01*
X15657902Y-8983709D01*
X15657902Y-8983709D01*
X15649809Y-8995821D01*
X15649808Y-8995822D01*
X15644234Y-9009279D01*
X15644234Y-9009280D01*
X15641392Y-9023566D01*
X15641392Y-9023567D01*
X15641392Y-9153933D01*
X15641392Y-9153934D01*
X15641392Y-9153934D01*
X14562467Y-9153934D01*
X14562467Y-9143937D01*
X14559329Y-9132225D01*
X14553267Y-9121725D01*
X14544693Y-9113151D01*
X14534192Y-9107088D01*
X14522480Y-9103950D01*
X14510355Y-9103950D01*
X14498643Y-9107088D01*
X14498642Y-9107088D01*
X14488142Y-9113151D01*
X14488142Y-9113151D01*
X14479568Y-9121724D01*
X14479568Y-9121725D01*
X14473506Y-9132225D01*
X14473506Y-9132225D01*
X14470367Y-9143937D01*
X13962268Y-9143937D01*
X13952637Y-9141357D01*
X13940512Y-9141357D01*
X13928800Y-9144495D01*
X13928800Y-9144495D01*
X13918300Y-9150558D01*
X13918299Y-9150558D01*
X13909726Y-9159131D01*
X13909725Y-9159132D01*
X13903663Y-9169632D01*
X13903663Y-9169632D01*
X13900525Y-9181344D01*
X13080430Y-9181344D01*
X12898781Y-8999941D01*
X12895429Y-8993811D01*
X12895923Y-8986841D01*
X12900106Y-8981245D01*
X12906651Y-8978799D01*
X12912289Y-8979711D01*
X12930498Y-8987253D01*
X12950038Y-8991140D01*
X12950038Y-8991140D01*
X12950039Y-8991140D01*
X12969961Y-8991140D01*
X12969962Y-8991140D01*
X12989501Y-8987253D01*
X13007908Y-8979629D01*
X13024473Y-8968561D01*
X13038561Y-8954473D01*
X13049629Y-8937908D01*
X13057253Y-8919502D01*
X13061140Y-8899961D01*
X13061140Y-8880039D01*
X13061140Y-8880038D01*
X13112860Y-8880038D01*
X13112860Y-8899962D01*
X13116746Y-8919501D01*
X13116747Y-8919502D01*
X13124371Y-8937907D01*
X13124371Y-8937908D01*
X13135439Y-8954473D01*
X13135440Y-8954473D01*
X13149527Y-8968560D01*
X13149527Y-8968561D01*
X13166091Y-8979629D01*
X13166092Y-8979629D01*
X13166092Y-8979629D01*
X13184498Y-8987253D01*
X13204038Y-8991140D01*
X13204038Y-8991140D01*
X13204039Y-8991140D01*
X13223961Y-8991140D01*
X13223962Y-8991140D01*
X13243501Y-8987253D01*
X13261908Y-8979629D01*
X13278473Y-8968561D01*
X13292561Y-8954473D01*
X13303629Y-8937908D01*
X13311253Y-8919502D01*
X13315140Y-8899961D01*
X13315140Y-8880039D01*
X13315140Y-8880038D01*
X13366860Y-8880038D01*
X13366860Y-8899962D01*
X13370746Y-8919501D01*
X13370747Y-8919502D01*
X13378371Y-8937907D01*
X13378371Y-8937908D01*
X13389439Y-8954473D01*
X13389440Y-8954473D01*
X13403527Y-8968560D01*
X13403527Y-8968561D01*
X13420091Y-8979629D01*
X13420092Y-8979629D01*
X13420092Y-8979629D01*
X13438498Y-8987253D01*
X13458038Y-8991140D01*
X13458038Y-8991140D01*
X13458039Y-8991140D01*
X13477961Y-8991140D01*
X13477962Y-8991140D01*
X13497501Y-8987253D01*
X13515908Y-8979629D01*
X13532473Y-8968561D01*
X13546561Y-8954473D01*
X13557629Y-8937908D01*
X13565253Y-8919502D01*
X13569140Y-8899961D01*
X13569140Y-8880039D01*
X13569140Y-8880038D01*
X13620860Y-8880038D01*
X13620860Y-8899962D01*
X13624746Y-8919501D01*
X13624747Y-8919502D01*
X13632371Y-8937907D01*
X13632371Y-8937908D01*
X13643439Y-8954473D01*
X13643440Y-8954473D01*
X13657527Y-8968560D01*
X13657527Y-8968561D01*
X13674091Y-8979629D01*
X13674092Y-8979629D01*
X13674092Y-8979629D01*
X13692498Y-8987253D01*
X13712038Y-8991140D01*
X13712038Y-8991140D01*
X13712039Y-8991140D01*
X13731961Y-8991140D01*
X13731962Y-8991140D01*
X13751501Y-8987253D01*
X13769908Y-8979629D01*
X13786473Y-8968561D01*
X13800561Y-8954473D01*
X13811629Y-8937908D01*
X13819253Y-8919502D01*
X13819427Y-8918628D01*
X13822665Y-8912437D01*
X13828736Y-8908979D01*
X13835713Y-8909353D01*
X13841381Y-8913439D01*
X13843836Y-8919107D01*
X13844236Y-8921634D01*
X13850807Y-8941856D01*
X13850807Y-8941857D01*
X13860461Y-8960803D01*
X13864408Y-8966236D01*
X13864408Y-8966236D01*
X13919792Y-8910853D01*
X13920378Y-8913040D01*
X13928236Y-8926651D01*
X13939349Y-8937764D01*
X13952960Y-8945622D01*
X13955147Y-8946208D01*
X13899764Y-9001591D01*
X13899764Y-9001592D01*
X13905197Y-9005539D01*
X13924143Y-9015193D01*
X13924144Y-9015193D01*
X13944366Y-9021764D01*
X13965368Y-9025090D01*
X13986632Y-9025090D01*
X14007634Y-9021764D01*
X14027856Y-9015193D01*
X14027857Y-9015193D01*
X14034302Y-9011909D01*
X14046802Y-9005540D01*
X14046803Y-9005539D01*
X14052236Y-9001592D01*
X14052236Y-9001591D01*
X13996853Y-8946208D01*
X13999039Y-8945622D01*
X14012650Y-8937764D01*
X14023764Y-8926651D01*
X14031622Y-8913040D01*
X14032208Y-8910853D01*
X14087591Y-8966236D01*
X14087591Y-8966236D01*
X14091539Y-8960803D01*
X14091540Y-8960802D01*
X14101193Y-8941857D01*
X14101193Y-8941856D01*
X14107764Y-8921634D01*
X14108164Y-8919107D01*
X14111157Y-8912793D01*
X14117088Y-8909100D01*
X14124074Y-8909200D01*
X14129897Y-8913061D01*
X14132573Y-8918628D01*
X14132746Y-8919501D01*
X14132747Y-8919502D01*
X14140371Y-8937907D01*
X14140371Y-8937908D01*
X14151439Y-8954473D01*
X14151440Y-8954473D01*
X14165527Y-8968560D01*
X14165527Y-8968561D01*
X14182091Y-8979629D01*
X14182092Y-8979629D01*
X14182092Y-8979629D01*
X14200498Y-8987253D01*
X14220038Y-8991140D01*
X14220038Y-8991140D01*
X14220039Y-8991140D01*
X14239961Y-8991140D01*
X14239962Y-8991140D01*
X14259501Y-8987253D01*
X14277908Y-8979629D01*
X14294473Y-8968561D01*
X14308561Y-8954473D01*
X14319629Y-8937908D01*
X14322243Y-8931597D01*
X14467744Y-8931597D01*
X14467744Y-8943722D01*
X14470882Y-8955434D01*
X14476945Y-8965935D01*
X14485519Y-8974509D01*
X14496019Y-8980571D01*
X14507732Y-8983709D01*
X14507732Y-8983709D01*
X14519857Y-8983709D01*
X14519857Y-8983709D01*
X14531569Y-8980571D01*
X14542070Y-8974509D01*
X14550643Y-8965935D01*
X14556706Y-8955434D01*
X14559844Y-8943722D01*
X14559844Y-8931597D01*
X14556706Y-8919885D01*
X14550643Y-8909384D01*
X14542070Y-8900810D01*
X14531569Y-8894748D01*
X14519857Y-8891609D01*
X14507732Y-8891609D01*
X14496019Y-8894748D01*
X14496019Y-8894748D01*
X14485519Y-8900810D01*
X14485518Y-8900810D01*
X14476945Y-8909384D01*
X14476945Y-8909384D01*
X14470882Y-8919884D01*
X14470882Y-8919885D01*
X14467744Y-8931597D01*
X14322243Y-8931597D01*
X14327253Y-8919502D01*
X14331140Y-8899961D01*
X14331140Y-8880039D01*
X14327253Y-8860499D01*
X14319629Y-8842092D01*
X14319629Y-8842092D01*
X14319629Y-8842092D01*
X14308561Y-8825527D01*
X14308560Y-8825527D01*
X14294473Y-8811440D01*
X14294473Y-8811439D01*
X14277908Y-8800371D01*
X14277907Y-8800371D01*
X14259501Y-8792747D01*
X14259501Y-8792747D01*
X14239962Y-8788860D01*
X14239961Y-8788860D01*
X14220039Y-8788860D01*
X14220038Y-8788860D01*
X14200499Y-8792747D01*
X14200498Y-8792747D01*
X14182092Y-8800371D01*
X14182091Y-8800371D01*
X14165527Y-8811439D01*
X14165527Y-8811440D01*
X14151440Y-8825527D01*
X14151439Y-8825527D01*
X14140371Y-8842092D01*
X14140371Y-8842093D01*
X14132747Y-8860498D01*
X14132746Y-8860499D01*
X14132573Y-8861373D01*
X14129334Y-8867564D01*
X14123263Y-8871021D01*
X14116286Y-8870647D01*
X14110618Y-8866560D01*
X14108164Y-8860893D01*
X14107763Y-8858366D01*
X14101193Y-8838144D01*
X14101193Y-8838143D01*
X14091539Y-8819197D01*
X14087591Y-8813764D01*
X14087591Y-8813764D01*
X14032208Y-8869147D01*
X14031622Y-8866961D01*
X14023764Y-8853350D01*
X14012650Y-8842236D01*
X13999039Y-8834378D01*
X13996853Y-8833792D01*
X14052236Y-8778409D01*
X14052236Y-8778408D01*
X14046803Y-8774461D01*
X14027857Y-8764807D01*
X14027856Y-8764807D01*
X14007634Y-8758236D01*
X13986632Y-8754910D01*
X13965368Y-8754910D01*
X13944366Y-8758236D01*
X13924144Y-8764807D01*
X13924143Y-8764807D01*
X13905197Y-8774461D01*
X13905197Y-8774461D01*
X13899764Y-8778408D01*
X13899764Y-8778408D01*
X13955147Y-8833792D01*
X13952960Y-8834378D01*
X13939349Y-8842236D01*
X13928236Y-8853350D01*
X13920378Y-8866961D01*
X13919792Y-8869147D01*
X13864408Y-8813764D01*
X13864408Y-8813764D01*
X13860461Y-8819197D01*
X13860461Y-8819198D01*
X13850807Y-8838143D01*
X13850807Y-8838144D01*
X13844236Y-8858366D01*
X13843836Y-8860894D01*
X13840843Y-8867207D01*
X13834912Y-8870900D01*
X13827925Y-8870800D01*
X13822102Y-8866939D01*
X13819427Y-8861372D01*
X13819253Y-8860499D01*
X13811629Y-8842092D01*
X13811629Y-8842092D01*
X13811629Y-8842092D01*
X13800561Y-8825527D01*
X13800560Y-8825527D01*
X13786473Y-8811440D01*
X13786473Y-8811439D01*
X13769908Y-8800371D01*
X13769907Y-8800371D01*
X13755952Y-8794590D01*
X13751501Y-8792747D01*
X13751501Y-8792747D01*
X13731962Y-8788860D01*
X13731961Y-8788860D01*
X13712039Y-8788860D01*
X13712038Y-8788860D01*
X13692499Y-8792747D01*
X13692498Y-8792747D01*
X13674092Y-8800371D01*
X13674091Y-8800371D01*
X13657527Y-8811439D01*
X13657527Y-8811440D01*
X13643440Y-8825527D01*
X13643439Y-8825527D01*
X13632371Y-8842092D01*
X13632371Y-8842093D01*
X13624747Y-8860498D01*
X13624746Y-8860499D01*
X13620860Y-8880038D01*
X13569140Y-8880038D01*
X13565253Y-8860499D01*
X13557629Y-8842092D01*
X13557629Y-8842092D01*
X13557629Y-8842092D01*
X13546561Y-8825527D01*
X13546560Y-8825527D01*
X13532473Y-8811440D01*
X13532473Y-8811439D01*
X13515908Y-8800371D01*
X13515907Y-8800371D01*
X13497501Y-8792747D01*
X13497501Y-8792747D01*
X13477962Y-8788860D01*
X13477961Y-8788860D01*
X13458039Y-8788860D01*
X13458038Y-8788860D01*
X13438499Y-8792747D01*
X13438498Y-8792747D01*
X13420092Y-8800371D01*
X13420091Y-8800371D01*
X13403527Y-8811439D01*
X13403527Y-8811440D01*
X13389440Y-8825527D01*
X13389439Y-8825527D01*
X13378371Y-8842092D01*
X13378371Y-8842093D01*
X13370747Y-8860498D01*
X13370746Y-8860499D01*
X13366860Y-8880038D01*
X13315140Y-8880038D01*
X13311253Y-8860499D01*
X13303629Y-8842092D01*
X13303629Y-8842092D01*
X13303629Y-8842092D01*
X13292561Y-8825527D01*
X13292560Y-8825527D01*
X13278473Y-8811440D01*
X13278473Y-8811439D01*
X13261908Y-8800371D01*
X13261907Y-8800371D01*
X13243501Y-8792747D01*
X13243501Y-8792747D01*
X13223962Y-8788860D01*
X13223961Y-8788860D01*
X13204039Y-8788860D01*
X13204038Y-8788860D01*
X13184499Y-8792747D01*
X13184498Y-8792747D01*
X13166092Y-8800371D01*
X13166091Y-8800371D01*
X13149527Y-8811439D01*
X13149527Y-8811440D01*
X13135440Y-8825527D01*
X13135439Y-8825527D01*
X13124371Y-8842092D01*
X13124371Y-8842093D01*
X13116747Y-8860498D01*
X13116746Y-8860499D01*
X13112860Y-8880038D01*
X13061140Y-8880038D01*
X13057253Y-8860499D01*
X13049629Y-8842092D01*
X13049629Y-8842092D01*
X13049629Y-8842092D01*
X13038561Y-8825527D01*
X13038560Y-8825527D01*
X13024473Y-8811440D01*
X13024473Y-8811439D01*
X13007908Y-8800371D01*
X13007907Y-8800371D01*
X12989501Y-8792747D01*
X12989501Y-8792747D01*
X12969962Y-8788860D01*
X12969961Y-8788860D01*
X12950039Y-8788860D01*
X12950038Y-8788860D01*
X12930499Y-8792747D01*
X12930498Y-8792747D01*
X12912092Y-8800371D01*
X12912091Y-8800371D01*
X12895527Y-8811439D01*
X12895527Y-8811440D01*
X12881440Y-8825527D01*
X12881439Y-8825527D01*
X12870371Y-8842092D01*
X12870371Y-8842093D01*
X12862747Y-8860498D01*
X12862746Y-8860499D01*
X12858860Y-8880038D01*
X12858860Y-8899962D01*
X12862746Y-8919501D01*
X12862747Y-8919502D01*
X12870336Y-8937823D01*
X12871082Y-8944770D01*
X12867955Y-8951018D01*
X12861946Y-8954583D01*
X12854964Y-8954334D01*
X12850117Y-8951342D01*
X12537113Y-8638759D01*
X15639292Y-8638759D01*
X15639292Y-8773741D01*
X15642215Y-8788432D01*
X15642215Y-8788433D01*
X15647948Y-8802273D01*
X15647948Y-8802274D01*
X15656270Y-8814729D01*
X15656271Y-8814729D01*
X15666863Y-8825322D01*
X15666863Y-8825322D01*
X15679319Y-8833644D01*
X15679319Y-8833645D01*
X15679319Y-8833645D01*
X15693159Y-8839378D01*
X15707852Y-8842300D01*
X15707852Y-8842300D01*
X15707852Y-8842300D01*
X15722833Y-8842300D01*
X15722833Y-8842300D01*
X15737525Y-8839378D01*
X15751366Y-8833645D01*
X15763822Y-8825322D01*
X15774414Y-8814729D01*
X15782737Y-8802273D01*
X15788470Y-8788433D01*
X15791392Y-8773740D01*
X15791392Y-8638760D01*
X15791392Y-8638759D01*
X16503292Y-8638759D01*
X16503292Y-8773741D01*
X16506215Y-8788432D01*
X16506215Y-8788433D01*
X16511948Y-8802273D01*
X16511948Y-8802274D01*
X16520270Y-8814729D01*
X16520271Y-8814729D01*
X16530863Y-8825322D01*
X16530863Y-8825322D01*
X16543319Y-8833644D01*
X16543319Y-8833645D01*
X16543319Y-8833645D01*
X16557159Y-8839378D01*
X16571852Y-8842300D01*
X16571852Y-8842300D01*
X16571852Y-8842300D01*
X16586833Y-8842300D01*
X16586833Y-8842300D01*
X16601525Y-8839378D01*
X16615366Y-8833645D01*
X16627822Y-8825322D01*
X16638414Y-8814729D01*
X16646737Y-8802273D01*
X16652470Y-8788433D01*
X16655392Y-8773740D01*
X16655392Y-8638760D01*
X16652470Y-8624067D01*
X16646737Y-8610227D01*
X16646737Y-8610227D01*
X16646737Y-8610226D01*
X16638414Y-8597771D01*
X16638414Y-8597771D01*
X16627822Y-8587178D01*
X16627821Y-8587178D01*
X16615366Y-8578856D01*
X16615365Y-8578855D01*
X16601525Y-8573123D01*
X16601525Y-8573122D01*
X16586833Y-8570200D01*
X16586833Y-8570200D01*
X16571852Y-8570200D01*
X16571852Y-8570200D01*
X16557160Y-8573122D01*
X16557159Y-8573123D01*
X16543319Y-8578855D01*
X16543319Y-8578856D01*
X16530863Y-8587178D01*
X16530863Y-8587178D01*
X16520271Y-8597771D01*
X16520270Y-8597771D01*
X16511948Y-8610226D01*
X16511948Y-8610227D01*
X16506215Y-8624067D01*
X16506215Y-8624068D01*
X16503292Y-8638759D01*
X15791392Y-8638759D01*
X15788470Y-8624067D01*
X15782737Y-8610227D01*
X15782737Y-8610227D01*
X15782737Y-8610226D01*
X15774414Y-8597771D01*
X15774414Y-8597771D01*
X15763822Y-8587178D01*
X15763821Y-8587178D01*
X15751366Y-8578856D01*
X15751365Y-8578855D01*
X15737525Y-8573123D01*
X15737525Y-8573122D01*
X15722833Y-8570200D01*
X15722833Y-8570200D01*
X15707852Y-8570200D01*
X15707852Y-8570200D01*
X15693160Y-8573122D01*
X15693159Y-8573123D01*
X15679319Y-8578855D01*
X15679319Y-8578856D01*
X15666863Y-8587178D01*
X15666863Y-8587178D01*
X15656271Y-8597771D01*
X15656270Y-8597771D01*
X15647948Y-8610226D01*
X15647948Y-8610227D01*
X15642215Y-8624067D01*
X15642215Y-8624068D01*
X15639292Y-8638759D01*
X12537113Y-8638759D01*
X12459473Y-8561224D01*
X12456121Y-8555094D01*
X12456614Y-8548125D01*
X12460798Y-8542528D01*
X12467342Y-8540082D01*
X12468235Y-8540050D01*
X18240753Y-8540050D01*
X18247457Y-8542019D01*
X18252033Y-8547299D01*
X18253153Y-8552450D01*
X18253153Y-10839756D01*
X18604377Y-11190980D01*
X18910000Y-11190980D01*
X18910000Y-12010000D01*
X18812799Y-12010000D01*
X18808320Y-12009163D01*
X18784087Y-11999775D01*
X18749398Y-11989905D01*
X18749398Y-11989905D01*
X18713945Y-11983278D01*
X18684946Y-11980591D01*
X18678033Y-11979950D01*
X18663956Y-11979950D01*
X13735451Y-11979950D01*
X13728747Y-11977981D01*
X13724172Y-11972701D01*
X13723051Y-11967558D01*
X13722941Y-11788937D01*
X15622950Y-11788937D01*
X15622950Y-11801063D01*
X15626088Y-11812775D01*
X15632151Y-11823275D01*
X15640725Y-11831849D01*
X15651225Y-11837912D01*
X15662937Y-11841050D01*
X15662938Y-11841050D01*
X15675062Y-11841050D01*
X15675063Y-11841050D01*
X15686775Y-11837912D01*
X15697275Y-11831849D01*
X15705849Y-11823275D01*
X15711912Y-11812775D01*
X15715050Y-11801063D01*
X15715050Y-11788937D01*
X15711912Y-11777225D01*
X15705849Y-11766725D01*
X15697275Y-11758151D01*
X15686775Y-11752088D01*
X15675063Y-11748950D01*
X15662937Y-11748950D01*
X15651225Y-11752088D01*
X15651225Y-11752088D01*
X15640725Y-11758151D01*
X15640724Y-11758151D01*
X15632151Y-11766724D01*
X15632151Y-11766725D01*
X15626088Y-11777225D01*
X15626088Y-11777225D01*
X15622950Y-11788937D01*
X13722941Y-11788937D01*
X13722940Y-11788132D01*
X13722731Y-11448937D01*
X15522950Y-11448937D01*
X15522950Y-11461063D01*
X15526088Y-11472775D01*
X15532151Y-11483275D01*
X15540725Y-11491849D01*
X15551225Y-11497912D01*
X15562937Y-11501050D01*
X15562938Y-11501050D01*
X15575062Y-11501050D01*
X15575063Y-11501050D01*
X15586775Y-11497912D01*
X15597275Y-11491849D01*
X15605849Y-11483275D01*
X15611912Y-11472775D01*
X15615050Y-11461063D01*
X15615050Y-11448937D01*
X15611912Y-11437225D01*
X15605849Y-11426725D01*
X15597275Y-11418151D01*
X15586775Y-11412088D01*
X15575063Y-11408950D01*
X15562937Y-11408950D01*
X15551225Y-11412088D01*
X15551225Y-11412088D01*
X15540725Y-11418151D01*
X15540724Y-11418151D01*
X15532151Y-11426724D01*
X15532151Y-11426725D01*
X15526088Y-11437225D01*
X15526088Y-11437225D01*
X15522950Y-11448937D01*
X13722731Y-11448937D01*
X13722697Y-11393937D01*
X15360367Y-11393937D01*
X15360367Y-11406063D01*
X15361982Y-11412088D01*
X15363506Y-11417775D01*
X15363506Y-11417775D01*
X15365526Y-11421275D01*
X15369568Y-11428275D01*
X15378142Y-11436849D01*
X15388643Y-11442912D01*
X15400355Y-11446050D01*
X15400355Y-11446050D01*
X15412480Y-11446050D01*
X15412480Y-11446050D01*
X15424192Y-11442912D01*
X15434693Y-11436849D01*
X15443267Y-11428275D01*
X15449329Y-11417775D01*
X15452467Y-11406063D01*
X15452467Y-11393937D01*
X15449329Y-11382225D01*
X15443267Y-11371725D01*
X15434693Y-11363151D01*
X15424192Y-11357088D01*
X15412480Y-11353950D01*
X15400355Y-11353950D01*
X15388643Y-11357088D01*
X15388642Y-11357088D01*
X15378142Y-11363151D01*
X15378142Y-11363151D01*
X15369568Y-11371724D01*
X15369568Y-11371725D01*
X15363506Y-11382225D01*
X15363506Y-11382225D01*
X15360367Y-11393937D01*
X13722697Y-11393937D01*
X13722620Y-11268613D01*
X13724584Y-11261908D01*
X13729862Y-11257330D01*
X13736777Y-11256331D01*
X13741220Y-11257867D01*
X13748225Y-11261912D01*
X13759937Y-11265050D01*
X13759938Y-11265050D01*
X13772062Y-11265050D01*
X13772063Y-11265050D01*
X13783775Y-11261912D01*
X13794275Y-11255849D01*
X13796217Y-11253907D01*
X14993958Y-11253907D01*
X14993958Y-11266032D01*
X14997097Y-11277745D01*
X15003159Y-11288245D01*
X15011733Y-11296819D01*
X15022234Y-11302882D01*
X15033946Y-11306020D01*
X15033946Y-11306020D01*
X15046071Y-11306020D01*
X15046071Y-11306020D01*
X15057783Y-11302882D01*
X15068284Y-11296819D01*
X15076858Y-11288245D01*
X15082920Y-11277745D01*
X15086058Y-11266032D01*
X15086058Y-11253907D01*
X15082920Y-11242195D01*
X15076858Y-11231694D01*
X15068284Y-11223121D01*
X15061038Y-11218937D01*
X15292950Y-11218937D01*
X15292950Y-11231063D01*
X15295933Y-11242195D01*
X15296088Y-11242775D01*
X15296088Y-11242775D01*
X15298109Y-11246275D01*
X15302151Y-11253275D01*
X15310725Y-11261849D01*
X15321225Y-11267912D01*
X15332937Y-11271050D01*
X15332938Y-11271050D01*
X15345062Y-11271050D01*
X15345063Y-11271050D01*
X15356775Y-11267912D01*
X15367275Y-11261849D01*
X15375849Y-11253275D01*
X15381912Y-11242775D01*
X15385050Y-11231063D01*
X15385050Y-11218937D01*
X15381912Y-11207225D01*
X15375849Y-11196725D01*
X15367275Y-11188151D01*
X15356883Y-11182151D01*
X15356775Y-11182088D01*
X15356775Y-11182088D01*
X15356775Y-11182088D01*
X15345063Y-11178950D01*
X15332937Y-11178950D01*
X15321225Y-11182088D01*
X15321225Y-11182088D01*
X15310725Y-11188151D01*
X15310724Y-11188151D01*
X15302151Y-11196724D01*
X15302151Y-11196725D01*
X15296088Y-11207225D01*
X15296088Y-11207225D01*
X15292950Y-11218937D01*
X15061038Y-11218937D01*
X15057783Y-11217058D01*
X15046071Y-11213920D01*
X15033946Y-11213920D01*
X15022234Y-11217058D01*
X15022233Y-11217058D01*
X15011733Y-11223120D01*
X15011733Y-11223121D01*
X15003159Y-11231694D01*
X15003159Y-11231695D01*
X14997097Y-11242195D01*
X14997097Y-11242195D01*
X14993958Y-11253907D01*
X13796217Y-11253907D01*
X13802849Y-11247275D01*
X13808912Y-11236775D01*
X13812050Y-11225063D01*
X13812050Y-11212937D01*
X13808912Y-11201225D01*
X13802849Y-11190725D01*
X13794275Y-11182151D01*
X13783775Y-11176088D01*
X13772063Y-11172950D01*
X13759937Y-11172950D01*
X13748225Y-11176088D01*
X13748225Y-11176088D01*
X13741159Y-11180168D01*
X13734369Y-11181815D01*
X13727766Y-11179530D01*
X13723447Y-11174038D01*
X13722559Y-11169437D01*
X13722518Y-11102937D01*
X16079950Y-11102937D01*
X16079950Y-11115063D01*
X16083088Y-11126775D01*
X16089151Y-11137275D01*
X16097725Y-11145849D01*
X16108225Y-11151912D01*
X16119937Y-11155050D01*
X16119938Y-11155050D01*
X16132062Y-11155050D01*
X16132063Y-11155050D01*
X16143775Y-11151912D01*
X16154275Y-11145849D01*
X16162849Y-11137275D01*
X16168912Y-11126775D01*
X16172050Y-11115063D01*
X16172050Y-11102937D01*
X16168912Y-11091225D01*
X16162849Y-11080725D01*
X16154275Y-11072151D01*
X16145201Y-11066912D01*
X16143775Y-11066088D01*
X16143775Y-11066088D01*
X16143775Y-11066088D01*
X16132063Y-11062950D01*
X16119937Y-11062950D01*
X16108225Y-11066088D01*
X16108225Y-11066088D01*
X16097725Y-11072151D01*
X16097724Y-11072151D01*
X16089151Y-11080724D01*
X16089151Y-11080725D01*
X16083088Y-11091225D01*
X16083088Y-11091225D01*
X16079950Y-11102937D01*
X13722518Y-11102937D01*
X13722429Y-10958937D01*
X14927950Y-10958937D01*
X14927950Y-10971063D01*
X14931088Y-10982775D01*
X14937151Y-10993275D01*
X14945725Y-11001849D01*
X14956225Y-11007912D01*
X14967937Y-11011050D01*
X14967938Y-11011050D01*
X14980062Y-11011050D01*
X14980063Y-11011050D01*
X14991775Y-11007912D01*
X15002275Y-11001849D01*
X15010849Y-10993275D01*
X15016912Y-10982775D01*
X15020050Y-10971063D01*
X15020050Y-10958937D01*
X15016912Y-10947225D01*
X15010849Y-10936725D01*
X15002275Y-10928151D01*
X14991775Y-10922088D01*
X14980063Y-10918950D01*
X14967937Y-10918950D01*
X14956225Y-10922088D01*
X14956225Y-10922088D01*
X14945725Y-10928151D01*
X14945724Y-10928151D01*
X14937151Y-10936724D01*
X14937151Y-10936725D01*
X14931088Y-10947225D01*
X14931088Y-10947225D01*
X14927950Y-10958937D01*
X13722429Y-10958937D01*
X13722417Y-10940000D01*
X13683067Y-10893937D01*
X15890367Y-10893937D01*
X15890367Y-10906063D01*
X15893293Y-10916981D01*
X15893506Y-10917775D01*
X15893506Y-10917775D01*
X15894002Y-10918634D01*
X15899568Y-10928275D01*
X15908142Y-10936849D01*
X15918643Y-10942912D01*
X15930355Y-10946050D01*
X15930355Y-10946050D01*
X15942480Y-10946050D01*
X15942480Y-10946050D01*
X15954192Y-10942912D01*
X15964693Y-10936849D01*
X15972849Y-10928693D01*
X17570630Y-10928693D01*
X17570630Y-10940819D01*
X17573769Y-10952531D01*
X17579831Y-10963031D01*
X17588405Y-10971605D01*
X17598906Y-10977668D01*
X17610618Y-10980806D01*
X17610618Y-10980806D01*
X17622743Y-10980806D01*
X17622743Y-10980806D01*
X17634455Y-10977668D01*
X17644956Y-10971605D01*
X17653530Y-10963031D01*
X17659592Y-10952531D01*
X17662730Y-10940819D01*
X17662730Y-10928693D01*
X17659592Y-10916981D01*
X17653530Y-10906481D01*
X17644956Y-10897907D01*
X17634455Y-10891844D01*
X17622743Y-10888706D01*
X17610618Y-10888706D01*
X17598906Y-10891844D01*
X17598905Y-10891844D01*
X17588405Y-10897907D01*
X17588405Y-10897907D01*
X17579831Y-10906480D01*
X17579831Y-10906481D01*
X17573769Y-10916981D01*
X17573769Y-10916981D01*
X17570630Y-10928693D01*
X15972849Y-10928693D01*
X15973267Y-10928275D01*
X15979329Y-10917775D01*
X15982467Y-10906063D01*
X15982467Y-10893937D01*
X15979329Y-10882225D01*
X15973267Y-10871725D01*
X15964693Y-10863151D01*
X15957692Y-10859109D01*
X15954192Y-10857088D01*
X15954192Y-10857088D01*
X15954192Y-10857088D01*
X15942480Y-10853950D01*
X15930355Y-10853950D01*
X15918643Y-10857088D01*
X15918642Y-10857088D01*
X15908142Y-10863151D01*
X15908142Y-10863151D01*
X15899568Y-10871724D01*
X15899568Y-10871725D01*
X15893506Y-10882225D01*
X15893506Y-10882225D01*
X15890367Y-10893937D01*
X13683067Y-10893937D01*
X13666680Y-10874756D01*
X13637653Y-10845728D01*
X13606680Y-10814756D01*
X13606680Y-10854756D01*
X13606680Y-10854756D01*
X13651078Y-10942357D01*
X13652417Y-10947963D01*
X13652412Y-11408950D01*
X13652404Y-11967550D01*
X13650436Y-11974254D01*
X13645156Y-11978829D01*
X13640005Y-11979950D01*
X12904759Y-11979950D01*
X12900000Y-11979950D01*
X12881967Y-11979950D01*
X12875470Y-11980552D01*
X12846055Y-11983278D01*
X12846055Y-11983278D01*
X12810602Y-11989905D01*
X12810602Y-11989905D01*
X12775913Y-11999775D01*
X12751680Y-12009163D01*
X12747201Y-12010000D01*
X11612799Y-12010000D01*
X11608320Y-12009163D01*
X11584087Y-11999775D01*
X11549398Y-11989905D01*
X11549398Y-11989905D01*
X11513944Y-11983278D01*
X11484946Y-11980591D01*
X11478033Y-11979950D01*
X11478033Y-11979950D01*
X10320348Y-11979950D01*
X10319653Y-11979930D01*
X10288231Y-11978166D01*
X10286849Y-11978010D01*
X10256167Y-11972797D01*
X10254811Y-11972487D01*
X10224905Y-11963872D01*
X10223592Y-11963412D01*
X10194839Y-11951502D01*
X10193586Y-11950899D01*
X10191385Y-11949683D01*
X10166346Y-11935844D01*
X10165169Y-11935105D01*
X10139787Y-11917095D01*
X10138700Y-11916228D01*
X10115494Y-11895490D01*
X10114510Y-11894506D01*
X10093771Y-11871299D01*
X10092905Y-11870213D01*
X10074895Y-11844830D01*
X10074156Y-11843655D01*
X10059100Y-11816413D01*
X10058498Y-11815162D01*
X10046587Y-11786408D01*
X10046128Y-11785095D01*
X10044019Y-11777775D01*
X10037512Y-11755188D01*
X10037203Y-11753833D01*
X10035095Y-11741425D01*
X10031990Y-11723150D01*
X10031834Y-11721769D01*
X10031395Y-11713950D01*
X10030070Y-11690347D01*
X10030050Y-11689652D01*
X10030050Y-11242937D01*
X12796367Y-11242937D01*
X12796367Y-11255063D01*
X12799506Y-11266775D01*
X12805568Y-11277275D01*
X12814142Y-11285849D01*
X12824643Y-11291912D01*
X12836355Y-11295050D01*
X12836355Y-11295050D01*
X12848480Y-11295050D01*
X12848480Y-11295050D01*
X12860192Y-11291912D01*
X12870693Y-11285849D01*
X12879267Y-11277275D01*
X12885329Y-11266775D01*
X12888467Y-11255063D01*
X12888467Y-11242937D01*
X12885329Y-11231225D01*
X12879267Y-11220725D01*
X12870693Y-11212151D01*
X12860192Y-11206088D01*
X12848480Y-11202950D01*
X12836355Y-11202950D01*
X12824643Y-11206088D01*
X12824642Y-11206088D01*
X12814142Y-11212151D01*
X12814142Y-11212151D01*
X12805568Y-11220724D01*
X12805568Y-11220725D01*
X12799506Y-11231225D01*
X12799506Y-11231225D01*
X12796367Y-11242937D01*
X10030050Y-11242937D01*
X10030050Y-11067937D01*
X11531367Y-11067937D01*
X11531367Y-11080063D01*
X11534506Y-11091775D01*
X11540568Y-11102275D01*
X11549142Y-11110849D01*
X11559643Y-11116912D01*
X11571355Y-11120050D01*
X11571355Y-11120050D01*
X11583480Y-11120050D01*
X11583480Y-11120050D01*
X11595192Y-11116912D01*
X11605693Y-11110849D01*
X11614267Y-11102275D01*
X11620329Y-11091775D01*
X11623467Y-11080063D01*
X11623467Y-11067937D01*
X11620329Y-11056225D01*
X11614267Y-11045725D01*
X11605693Y-11037151D01*
X11595192Y-11031088D01*
X11583480Y-11027950D01*
X11571355Y-11027950D01*
X11559643Y-11031088D01*
X11559642Y-11031088D01*
X11549142Y-11037151D01*
X11549142Y-11037151D01*
X11540568Y-11045724D01*
X11540568Y-11045725D01*
X11534506Y-11056225D01*
X11534506Y-11056225D01*
X11531367Y-11067937D01*
X10030050Y-11067937D01*
X10030050Y-11017937D01*
X12226367Y-11017937D01*
X12226367Y-11030063D01*
X12229506Y-11041775D01*
X12235568Y-11052275D01*
X12244142Y-11060849D01*
X12254643Y-11066912D01*
X12266355Y-11070050D01*
X12266355Y-11070050D01*
X12278480Y-11070050D01*
X12278480Y-11070050D01*
X12290192Y-11066912D01*
X12300693Y-11060849D01*
X12309267Y-11052275D01*
X12315329Y-11041775D01*
X12318467Y-11030063D01*
X12318467Y-11017937D01*
X12315329Y-11006225D01*
X12309267Y-10995725D01*
X12300693Y-10987151D01*
X12290192Y-10981088D01*
X12278480Y-10977950D01*
X12266355Y-10977950D01*
X12254643Y-10981088D01*
X12254642Y-10981088D01*
X12244142Y-10987151D01*
X12244142Y-10987151D01*
X12235568Y-10995724D01*
X12235568Y-10995725D01*
X12229506Y-11006225D01*
X12229506Y-11006225D01*
X12226367Y-11017937D01*
X10030050Y-11017937D01*
X10030050Y-10736358D01*
X10212500Y-10736358D01*
X10212500Y-10758642D01*
X10215409Y-10780735D01*
X10215409Y-10780737D01*
X10221176Y-10802262D01*
X10229705Y-10822850D01*
X10229705Y-10822852D01*
X10240846Y-10842149D01*
X10240847Y-10842150D01*
X10245904Y-10848740D01*
X10245904Y-10848740D01*
X10310915Y-10783729D01*
X10311605Y-10785394D01*
X10320360Y-10798497D01*
X10331503Y-10809640D01*
X10344606Y-10818395D01*
X10346271Y-10819085D01*
X10281260Y-10884096D01*
X10281260Y-10884096D01*
X10287851Y-10889153D01*
X10307149Y-10900295D01*
X10307150Y-10900295D01*
X10327738Y-10908824D01*
X10349263Y-10914591D01*
X10349265Y-10914591D01*
X10371358Y-10917500D01*
X10393643Y-10917500D01*
X10415735Y-10914591D01*
X10415737Y-10914591D01*
X10437262Y-10908824D01*
X10457850Y-10900295D01*
X10457851Y-10900295D01*
X10477150Y-10889153D01*
X10483740Y-10884096D01*
X10483740Y-10884096D01*
X10418729Y-10819085D01*
X10420394Y-10818395D01*
X10433497Y-10809640D01*
X10444640Y-10798497D01*
X10453395Y-10785394D01*
X10454085Y-10783729D01*
X10519096Y-10848740D01*
X10519096Y-10848740D01*
X10524153Y-10842150D01*
X10535295Y-10822851D01*
X10535295Y-10822850D01*
X10543824Y-10802262D01*
X10549591Y-10780737D01*
X10549591Y-10780735D01*
X10552500Y-10758642D01*
X10552500Y-10736358D01*
X10727500Y-10736358D01*
X10727500Y-10758642D01*
X10730409Y-10780735D01*
X10730409Y-10780737D01*
X10736176Y-10802262D01*
X10744705Y-10822850D01*
X10744705Y-10822852D01*
X10755846Y-10842149D01*
X10755847Y-10842150D01*
X10760904Y-10848740D01*
X10760904Y-10848740D01*
X10825915Y-10783729D01*
X10826605Y-10785394D01*
X10835360Y-10798497D01*
X10846503Y-10809640D01*
X10859606Y-10818395D01*
X10861271Y-10819085D01*
X10796260Y-10884096D01*
X10796260Y-10884096D01*
X10802851Y-10889153D01*
X10822149Y-10900295D01*
X10822150Y-10900295D01*
X10842738Y-10908824D01*
X10864263Y-10914591D01*
X10864265Y-10914591D01*
X10886358Y-10917500D01*
X10908643Y-10917500D01*
X10930735Y-10914591D01*
X10930737Y-10914591D01*
X10952262Y-10908824D01*
X10972850Y-10900295D01*
X10972851Y-10900295D01*
X10992150Y-10889153D01*
X10998740Y-10884096D01*
X10998740Y-10884096D01*
X10995006Y-10880361D01*
X12610373Y-10880361D01*
X12610373Y-10892486D01*
X12613512Y-10904198D01*
X12619574Y-10914699D01*
X12628148Y-10923273D01*
X12638649Y-10929335D01*
X12650361Y-10932473D01*
X12650361Y-10932473D01*
X12662486Y-10932473D01*
X12662486Y-10932473D01*
X12674198Y-10929335D01*
X12684699Y-10923273D01*
X12693273Y-10914699D01*
X12699335Y-10904198D01*
X12702473Y-10892486D01*
X12702473Y-10880361D01*
X12699335Y-10868649D01*
X12698107Y-10866521D01*
X13269951Y-10866521D01*
X13269951Y-10878647D01*
X13272767Y-10889153D01*
X13273090Y-10890359D01*
X13273090Y-10890359D01*
X13273947Y-10891844D01*
X13279152Y-10900859D01*
X13287726Y-10909433D01*
X13298227Y-10915496D01*
X13309939Y-10918634D01*
X13309939Y-10918634D01*
X13322064Y-10918634D01*
X13322064Y-10918634D01*
X13333776Y-10915496D01*
X13344277Y-10909433D01*
X13352851Y-10900859D01*
X13358913Y-10890359D01*
X13362051Y-10878647D01*
X13362051Y-10866521D01*
X13358913Y-10854809D01*
X13352851Y-10844309D01*
X13344277Y-10835735D01*
X13333776Y-10829672D01*
X13322064Y-10826534D01*
X13309939Y-10826534D01*
X13298227Y-10829672D01*
X13298226Y-10829672D01*
X13287726Y-10835735D01*
X13287726Y-10835735D01*
X13279152Y-10844308D01*
X13279152Y-10844309D01*
X13273090Y-10854809D01*
X13273090Y-10854809D01*
X13269951Y-10866521D01*
X12698107Y-10866521D01*
X12693273Y-10858148D01*
X12684699Y-10849574D01*
X12675579Y-10844309D01*
X12674198Y-10843512D01*
X12674198Y-10843512D01*
X12674198Y-10843512D01*
X12662486Y-10840373D01*
X12650361Y-10840373D01*
X12638649Y-10843512D01*
X12638648Y-10843512D01*
X12628148Y-10849574D01*
X12628148Y-10849574D01*
X12619574Y-10858148D01*
X12619574Y-10858148D01*
X12613512Y-10868648D01*
X12613512Y-10868649D01*
X12610373Y-10880361D01*
X10995006Y-10880361D01*
X10933729Y-10819085D01*
X10935394Y-10818395D01*
X10948497Y-10809640D01*
X10959640Y-10798497D01*
X10968395Y-10785394D01*
X10969085Y-10783729D01*
X11034096Y-10848740D01*
X11034096Y-10848740D01*
X11039153Y-10842150D01*
X11050295Y-10822851D01*
X11050295Y-10822850D01*
X11058824Y-10802262D01*
X11061120Y-10793693D01*
X13665630Y-10793693D01*
X13665630Y-10805819D01*
X13668769Y-10817531D01*
X13674831Y-10828031D01*
X13683405Y-10836605D01*
X13693906Y-10842668D01*
X13705618Y-10845806D01*
X13705618Y-10845806D01*
X13717743Y-10845806D01*
X13717743Y-10845806D01*
X13729455Y-10842668D01*
X13739956Y-10836605D01*
X13748530Y-10828031D01*
X13754592Y-10817531D01*
X13756895Y-10808937D01*
X15768950Y-10808937D01*
X15768950Y-10821063D01*
X15772088Y-10832775D01*
X15778151Y-10843275D01*
X15786725Y-10851849D01*
X15797225Y-10857912D01*
X15808937Y-10861050D01*
X15808938Y-10861050D01*
X15821062Y-10861050D01*
X15821063Y-10861050D01*
X15832775Y-10857912D01*
X15843275Y-10851849D01*
X15851849Y-10843275D01*
X15857912Y-10832775D01*
X15860828Y-10821891D01*
X17178828Y-10821891D01*
X17178828Y-10834016D01*
X17181966Y-10845729D01*
X17188029Y-10856229D01*
X17196603Y-10864803D01*
X17207104Y-10870866D01*
X17218816Y-10874004D01*
X17218816Y-10874004D01*
X17230941Y-10874004D01*
X17230941Y-10874004D01*
X17242653Y-10870866D01*
X17253154Y-10864803D01*
X17261727Y-10856229D01*
X17267790Y-10845729D01*
X17270928Y-10834016D01*
X17270928Y-10821891D01*
X17267790Y-10810179D01*
X17261727Y-10799678D01*
X17253154Y-10791105D01*
X17242653Y-10785042D01*
X17230941Y-10781904D01*
X17218816Y-10781904D01*
X17207104Y-10785042D01*
X17207103Y-10785042D01*
X17196603Y-10791104D01*
X17196603Y-10791105D01*
X17188029Y-10799678D01*
X17188029Y-10799679D01*
X17181967Y-10810179D01*
X17181966Y-10810179D01*
X17178828Y-10821891D01*
X15860828Y-10821891D01*
X15861050Y-10821063D01*
X15861050Y-10808937D01*
X15857912Y-10797225D01*
X15851849Y-10786725D01*
X15843275Y-10778151D01*
X15832775Y-10772088D01*
X15821063Y-10768950D01*
X15808937Y-10768950D01*
X15797225Y-10772088D01*
X15797225Y-10772088D01*
X15786725Y-10778151D01*
X15786724Y-10778151D01*
X15778151Y-10786724D01*
X15778151Y-10786725D01*
X15772088Y-10797225D01*
X15772088Y-10797225D01*
X15768950Y-10808937D01*
X13756895Y-10808937D01*
X13757730Y-10805819D01*
X13757730Y-10793693D01*
X13754592Y-10781981D01*
X13748530Y-10771481D01*
X13739956Y-10762907D01*
X13729455Y-10756844D01*
X13717743Y-10753706D01*
X13705618Y-10753706D01*
X13693906Y-10756844D01*
X13693905Y-10756844D01*
X13683405Y-10762907D01*
X13683405Y-10762907D01*
X13674831Y-10771480D01*
X13674831Y-10771481D01*
X13668769Y-10781981D01*
X13668769Y-10781981D01*
X13665630Y-10793693D01*
X11061120Y-10793693D01*
X11062197Y-10789671D01*
X11064591Y-10780737D01*
X11064591Y-10780735D01*
X11067500Y-10758642D01*
X11067500Y-10736357D01*
X11067288Y-10734743D01*
X11067181Y-10733937D01*
X15670367Y-10733937D01*
X15670367Y-10746063D01*
X15673506Y-10757775D01*
X15679568Y-10768275D01*
X15688142Y-10776849D01*
X15698643Y-10782912D01*
X15710355Y-10786050D01*
X15710355Y-10786050D01*
X15722480Y-10786050D01*
X15722480Y-10786050D01*
X15734192Y-10782912D01*
X15744693Y-10776849D01*
X15753267Y-10768275D01*
X15759329Y-10757775D01*
X15762467Y-10746063D01*
X15762467Y-10733937D01*
X15759329Y-10722225D01*
X15753267Y-10711725D01*
X15744693Y-10703151D01*
X15734517Y-10697276D01*
X15734192Y-10697088D01*
X15734192Y-10697088D01*
X15734192Y-10697088D01*
X15722480Y-10693950D01*
X15710355Y-10693950D01*
X15698643Y-10697088D01*
X15698642Y-10697088D01*
X15688142Y-10703151D01*
X15688142Y-10703151D01*
X15679568Y-10711724D01*
X15679568Y-10711725D01*
X15673506Y-10722225D01*
X15673506Y-10722225D01*
X15670367Y-10733937D01*
X11067181Y-10733937D01*
X11064591Y-10714265D01*
X11064591Y-10714263D01*
X11058824Y-10692738D01*
X11050295Y-10672150D01*
X11050295Y-10672149D01*
X11039153Y-10652851D01*
X11036715Y-10649674D01*
X11036715Y-10649673D01*
X11034096Y-10646260D01*
X11034096Y-10646260D01*
X10969085Y-10711270D01*
X10968395Y-10709606D01*
X10959640Y-10696503D01*
X10948497Y-10685360D01*
X10935394Y-10676605D01*
X10933729Y-10675915D01*
X10966707Y-10642937D01*
X13106367Y-10642937D01*
X13106367Y-10655063D01*
X13109371Y-10666274D01*
X13109506Y-10666775D01*
X13109506Y-10666775D01*
X13111526Y-10670275D01*
X13115568Y-10677275D01*
X13124142Y-10685849D01*
X13134643Y-10691912D01*
X13146355Y-10695050D01*
X13146355Y-10695050D01*
X13158480Y-10695050D01*
X13158480Y-10695050D01*
X13170192Y-10691912D01*
X13180693Y-10685849D01*
X13189267Y-10677275D01*
X13195329Y-10666775D01*
X13198467Y-10655063D01*
X13198467Y-10654149D01*
X13855626Y-10654149D01*
X13855626Y-10666274D01*
X13858764Y-10677986D01*
X13864826Y-10688487D01*
X13873400Y-10697060D01*
X13883901Y-10703123D01*
X13895613Y-10706261D01*
X13895613Y-10706261D01*
X13907738Y-10706261D01*
X13907738Y-10706261D01*
X13919450Y-10703123D01*
X13929951Y-10697060D01*
X13938525Y-10688487D01*
X13944587Y-10677986D01*
X13947726Y-10666274D01*
X13947726Y-10662937D01*
X14244950Y-10662937D01*
X14244950Y-10675063D01*
X14248088Y-10686775D01*
X14254151Y-10697275D01*
X14262725Y-10705849D01*
X14273225Y-10711912D01*
X14284937Y-10715050D01*
X14284938Y-10715050D01*
X14297062Y-10715050D01*
X14297063Y-10715050D01*
X14308775Y-10711912D01*
X14319275Y-10705849D01*
X14327849Y-10697275D01*
X14333912Y-10686775D01*
X14337050Y-10675063D01*
X14337050Y-10662937D01*
X14333912Y-10651225D01*
X14327849Y-10640725D01*
X14319275Y-10632151D01*
X14308775Y-10626088D01*
X14297063Y-10622950D01*
X14284937Y-10622950D01*
X14273225Y-10626088D01*
X14273225Y-10626088D01*
X14262725Y-10632151D01*
X14262724Y-10632151D01*
X14254151Y-10640724D01*
X14254151Y-10640725D01*
X14248088Y-10651225D01*
X14248088Y-10651225D01*
X14244950Y-10662937D01*
X13947726Y-10662937D01*
X13947726Y-10654149D01*
X13944587Y-10642437D01*
X13938525Y-10631936D01*
X13929951Y-10623362D01*
X13922950Y-10619320D01*
X13919450Y-10617300D01*
X13919450Y-10617299D01*
X13919450Y-10617299D01*
X13907738Y-10614161D01*
X13895613Y-10614161D01*
X13883901Y-10617299D01*
X13883901Y-10617300D01*
X13873400Y-10623362D01*
X13873400Y-10623362D01*
X13864827Y-10631936D01*
X13864826Y-10631936D01*
X13858764Y-10642436D01*
X13858764Y-10642437D01*
X13855626Y-10654149D01*
X13198467Y-10654149D01*
X13198467Y-10642937D01*
X13195329Y-10631225D01*
X13195329Y-10631225D01*
X13195267Y-10630992D01*
X13195433Y-10624007D01*
X13199349Y-10618220D01*
X13205772Y-10615470D01*
X13212662Y-10616629D01*
X13213444Y-10617044D01*
X13214108Y-10617427D01*
X13214643Y-10617736D01*
X13226355Y-10620874D01*
X13226355Y-10620874D01*
X13238480Y-10620874D01*
X13238480Y-10620874D01*
X13250192Y-10617736D01*
X13260693Y-10611673D01*
X13269267Y-10603099D01*
X13275329Y-10592599D01*
X13278467Y-10580886D01*
X13278467Y-10568761D01*
X13275835Y-10558937D01*
X14907950Y-10558937D01*
X14907950Y-10571063D01*
X14911088Y-10582775D01*
X14917151Y-10593275D01*
X14925725Y-10601849D01*
X14936225Y-10607912D01*
X14947937Y-10611050D01*
X14947938Y-10611050D01*
X14960062Y-10611050D01*
X14960063Y-10611050D01*
X14971775Y-10607912D01*
X14982275Y-10601849D01*
X14990849Y-10593275D01*
X14996912Y-10582775D01*
X15000050Y-10571063D01*
X15000050Y-10558937D01*
X14998442Y-10552937D01*
X15184950Y-10552937D01*
X15184950Y-10565063D01*
X15186558Y-10571063D01*
X15188088Y-10576775D01*
X15188088Y-10576775D01*
X15189444Y-10579124D01*
X15194151Y-10587275D01*
X15202725Y-10595849D01*
X15213225Y-10601912D01*
X15224937Y-10605050D01*
X15224938Y-10605050D01*
X15237062Y-10605050D01*
X15237063Y-10605050D01*
X15248775Y-10601912D01*
X15259275Y-10595849D01*
X15267849Y-10587275D01*
X15273912Y-10576775D01*
X15277050Y-10565063D01*
X15277050Y-10552937D01*
X15273912Y-10541225D01*
X15267849Y-10530725D01*
X15259275Y-10522151D01*
X15249964Y-10516775D01*
X15248775Y-10516088D01*
X15248775Y-10516088D01*
X15248775Y-10516088D01*
X15237063Y-10512950D01*
X15224937Y-10512950D01*
X15213225Y-10516088D01*
X15213225Y-10516088D01*
X15202725Y-10522151D01*
X15202724Y-10522151D01*
X15194151Y-10530724D01*
X15194151Y-10530725D01*
X15188088Y-10541225D01*
X15188088Y-10541225D01*
X15184950Y-10552937D01*
X14998442Y-10552937D01*
X14996912Y-10547225D01*
X14990849Y-10536725D01*
X14982275Y-10528151D01*
X14971883Y-10522151D01*
X14971775Y-10522088D01*
X14971775Y-10522088D01*
X14971775Y-10522088D01*
X14960063Y-10518950D01*
X14947937Y-10518950D01*
X14936225Y-10522088D01*
X14936225Y-10522088D01*
X14925725Y-10528151D01*
X14925724Y-10528151D01*
X14917151Y-10536724D01*
X14917151Y-10536725D01*
X14911088Y-10547225D01*
X14911088Y-10547225D01*
X14907950Y-10558937D01*
X13275835Y-10558937D01*
X13275329Y-10557049D01*
X13269267Y-10546548D01*
X13260693Y-10537975D01*
X13250192Y-10531912D01*
X13238480Y-10528774D01*
X13226355Y-10528774D01*
X13214643Y-10531912D01*
X13214642Y-10531912D01*
X13204142Y-10537974D01*
X13204142Y-10537975D01*
X13195568Y-10546548D01*
X13195568Y-10546549D01*
X13189506Y-10557049D01*
X13189506Y-10557049D01*
X13186367Y-10568761D01*
X13186367Y-10580886D01*
X13186873Y-10582775D01*
X13189568Y-10592832D01*
X13189402Y-10599817D01*
X13185486Y-10605603D01*
X13179063Y-10608354D01*
X13172173Y-10607195D01*
X13171391Y-10606780D01*
X13170192Y-10606088D01*
X13170192Y-10606088D01*
X13170192Y-10606088D01*
X13158480Y-10602950D01*
X13146355Y-10602950D01*
X13134643Y-10606088D01*
X13134642Y-10606088D01*
X13124142Y-10612151D01*
X13124142Y-10612151D01*
X13115568Y-10620724D01*
X13115568Y-10620725D01*
X13109506Y-10631225D01*
X13109506Y-10631225D01*
X13106367Y-10642937D01*
X10966707Y-10642937D01*
X10998740Y-10610904D01*
X10998740Y-10610904D01*
X10992150Y-10605847D01*
X10992149Y-10605846D01*
X10972852Y-10594705D01*
X10972850Y-10594705D01*
X10952262Y-10586176D01*
X10930737Y-10580409D01*
X10930735Y-10580409D01*
X10908643Y-10577500D01*
X10886358Y-10577500D01*
X10864265Y-10580409D01*
X10864263Y-10580409D01*
X10842738Y-10586176D01*
X10822150Y-10594705D01*
X10822148Y-10594705D01*
X10802851Y-10605846D01*
X10796260Y-10610904D01*
X10861271Y-10675915D01*
X10859606Y-10676605D01*
X10846503Y-10685360D01*
X10835360Y-10696503D01*
X10826605Y-10709606D01*
X10825915Y-10711271D01*
X10760904Y-10646260D01*
X10755846Y-10652851D01*
X10744705Y-10672148D01*
X10744705Y-10672150D01*
X10736176Y-10692738D01*
X10730409Y-10714263D01*
X10730409Y-10714265D01*
X10727500Y-10736358D01*
X10552500Y-10736358D01*
X10549591Y-10714265D01*
X10549591Y-10714263D01*
X10543824Y-10692738D01*
X10535295Y-10672150D01*
X10535295Y-10672149D01*
X10524153Y-10652851D01*
X10519096Y-10646260D01*
X10519096Y-10646260D01*
X10454085Y-10711270D01*
X10453395Y-10709606D01*
X10444640Y-10696503D01*
X10433497Y-10685360D01*
X10420394Y-10676605D01*
X10418729Y-10675915D01*
X10483740Y-10610904D01*
X10483740Y-10610904D01*
X10477150Y-10605847D01*
X10477149Y-10605846D01*
X10461100Y-10596581D01*
X10518950Y-10596581D01*
X10519881Y-10601262D01*
X10520273Y-10601849D01*
X10523429Y-10606571D01*
X10528738Y-10610119D01*
X10533419Y-10611050D01*
X10533419Y-10611050D01*
X10746581Y-10611050D01*
X10749702Y-10610429D01*
X10751262Y-10610119D01*
X10756571Y-10606571D01*
X10760119Y-10601262D01*
X10761050Y-10596581D01*
X10761050Y-10497261D01*
X14243691Y-10497261D01*
X14243691Y-10509386D01*
X14246829Y-10521099D01*
X14252892Y-10531599D01*
X14261466Y-10540173D01*
X14271967Y-10546236D01*
X14283679Y-10549374D01*
X14283679Y-10549374D01*
X14295804Y-10549374D01*
X14295804Y-10549374D01*
X14307516Y-10546236D01*
X14318017Y-10540173D01*
X14326590Y-10531599D01*
X14332653Y-10521099D01*
X14335791Y-10509386D01*
X14335791Y-10497261D01*
X14334633Y-10492937D01*
X14739950Y-10492937D01*
X14739950Y-10505063D01*
X14743088Y-10516775D01*
X14749151Y-10527275D01*
X14757725Y-10535849D01*
X14768225Y-10541912D01*
X14779937Y-10545050D01*
X14779938Y-10545050D01*
X14792062Y-10545050D01*
X14792063Y-10545050D01*
X14803775Y-10541912D01*
X14814275Y-10535849D01*
X14822849Y-10527275D01*
X14828912Y-10516775D01*
X14832050Y-10505063D01*
X14832050Y-10492937D01*
X14828912Y-10481225D01*
X14822849Y-10470725D01*
X14815062Y-10462937D01*
X14999950Y-10462937D01*
X14999950Y-10475063D01*
X15003088Y-10486775D01*
X15009151Y-10497275D01*
X15017725Y-10505849D01*
X15028225Y-10511912D01*
X15039937Y-10515050D01*
X15039938Y-10515050D01*
X15052062Y-10515050D01*
X15052063Y-10515050D01*
X15063775Y-10511912D01*
X15074275Y-10505849D01*
X15076187Y-10503937D01*
X15820367Y-10503937D01*
X15820367Y-10516063D01*
X15821999Y-10522151D01*
X15823506Y-10527775D01*
X15823506Y-10527775D01*
X15824082Y-10528774D01*
X15829568Y-10538275D01*
X15838142Y-10546849D01*
X15848643Y-10552912D01*
X15860355Y-10556050D01*
X15860355Y-10556050D01*
X15872480Y-10556050D01*
X15872480Y-10556050D01*
X15884192Y-10552912D01*
X15894693Y-10546849D01*
X15903267Y-10538275D01*
X15909329Y-10527775D01*
X15912467Y-10516063D01*
X15912467Y-10503937D01*
X15909329Y-10492225D01*
X15903267Y-10481725D01*
X15894693Y-10473151D01*
X15884192Y-10467088D01*
X15872480Y-10463950D01*
X15860355Y-10463950D01*
X15848643Y-10467088D01*
X15848642Y-10467088D01*
X15838142Y-10473151D01*
X15838142Y-10473151D01*
X15829568Y-10481724D01*
X15829568Y-10481725D01*
X15823506Y-10492225D01*
X15823506Y-10492225D01*
X15820367Y-10503937D01*
X15076187Y-10503937D01*
X15082849Y-10497275D01*
X15088912Y-10486775D01*
X15092050Y-10475063D01*
X15092050Y-10462937D01*
X15088912Y-10451225D01*
X15082849Y-10440725D01*
X15074275Y-10432151D01*
X15063775Y-10426088D01*
X15052063Y-10422950D01*
X15039937Y-10422950D01*
X15028225Y-10426088D01*
X15028225Y-10426088D01*
X15017725Y-10432151D01*
X15017724Y-10432151D01*
X15009151Y-10440724D01*
X15009151Y-10440725D01*
X15003088Y-10451225D01*
X15003088Y-10451225D01*
X14999950Y-10462937D01*
X14815062Y-10462937D01*
X14814275Y-10462151D01*
X14803775Y-10456088D01*
X14792063Y-10452950D01*
X14779937Y-10452950D01*
X14768225Y-10456088D01*
X14768225Y-10456088D01*
X14757725Y-10462151D01*
X14757724Y-10462151D01*
X14749151Y-10470724D01*
X14749151Y-10470725D01*
X14743088Y-10481225D01*
X14743088Y-10481225D01*
X14739950Y-10492937D01*
X14334633Y-10492937D01*
X14332653Y-10485549D01*
X14326590Y-10475048D01*
X14318017Y-10466475D01*
X14307516Y-10460412D01*
X14295804Y-10457274D01*
X14283679Y-10457274D01*
X14271967Y-10460412D01*
X14271966Y-10460412D01*
X14261466Y-10466474D01*
X14261466Y-10466475D01*
X14252892Y-10475048D01*
X14252892Y-10475049D01*
X14246830Y-10485549D01*
X14246829Y-10485549D01*
X14243691Y-10497261D01*
X10761050Y-10497261D01*
X10761050Y-10383419D01*
X10761050Y-10383419D01*
X10760119Y-10378738D01*
X10756571Y-10373429D01*
X10751262Y-10369881D01*
X10751262Y-10369881D01*
X10746581Y-10368950D01*
X10746581Y-10368950D01*
X10533419Y-10368950D01*
X10533419Y-10368950D01*
X10528738Y-10369881D01*
X10523429Y-10373429D01*
X10519881Y-10378738D01*
X10518950Y-10383419D01*
X10518950Y-10383419D01*
X10518950Y-10596581D01*
X10518950Y-10596581D01*
X10518950Y-10596581D01*
X10461100Y-10596581D01*
X10457852Y-10594705D01*
X10457850Y-10594705D01*
X10437262Y-10586176D01*
X10415737Y-10580409D01*
X10415735Y-10580409D01*
X10393643Y-10577500D01*
X10371358Y-10577500D01*
X10349265Y-10580409D01*
X10349263Y-10580409D01*
X10327738Y-10586176D01*
X10307150Y-10594705D01*
X10307148Y-10594705D01*
X10287851Y-10605846D01*
X10281260Y-10610904D01*
X10346271Y-10675915D01*
X10344606Y-10676605D01*
X10331503Y-10685360D01*
X10320360Y-10696503D01*
X10311605Y-10709606D01*
X10310915Y-10711271D01*
X10245904Y-10646260D01*
X10240846Y-10652851D01*
X10229705Y-10672148D01*
X10229705Y-10672150D01*
X10221176Y-10692738D01*
X10215409Y-10714263D01*
X10215409Y-10714265D01*
X10212500Y-10736358D01*
X10030050Y-10736358D01*
X10030050Y-10221358D01*
X10212500Y-10221358D01*
X10212500Y-10243642D01*
X10215409Y-10265735D01*
X10215409Y-10265737D01*
X10221176Y-10287262D01*
X10229705Y-10307850D01*
X10229705Y-10307852D01*
X10240846Y-10327149D01*
X10240847Y-10327150D01*
X10245904Y-10333740D01*
X10245904Y-10333740D01*
X10310915Y-10268729D01*
X10311605Y-10270394D01*
X10320360Y-10283497D01*
X10331503Y-10294640D01*
X10344606Y-10303395D01*
X10346271Y-10304085D01*
X10281260Y-10369096D01*
X10281260Y-10369096D01*
X10287851Y-10374153D01*
X10307149Y-10385295D01*
X10307150Y-10385295D01*
X10327738Y-10393824D01*
X10349263Y-10399591D01*
X10349265Y-10399591D01*
X10371358Y-10402500D01*
X10393643Y-10402500D01*
X10415735Y-10399591D01*
X10415737Y-10399591D01*
X10437262Y-10393824D01*
X10457850Y-10385295D01*
X10457851Y-10385295D01*
X10477149Y-10374153D01*
X10478688Y-10372973D01*
X10478688Y-10372973D01*
X10483740Y-10369096D01*
X10483740Y-10369096D01*
X10418729Y-10304085D01*
X10420394Y-10303395D01*
X10433497Y-10294640D01*
X10444640Y-10283497D01*
X10453395Y-10270394D01*
X10454085Y-10268729D01*
X10519096Y-10333740D01*
X10519096Y-10333740D01*
X10524153Y-10327150D01*
X10535295Y-10307851D01*
X10535295Y-10307850D01*
X10543824Y-10287262D01*
X10549591Y-10265737D01*
X10549591Y-10265735D01*
X10552500Y-10243642D01*
X10552500Y-10221358D01*
X10727500Y-10221358D01*
X10727500Y-10243642D01*
X10730409Y-10265735D01*
X10730409Y-10265737D01*
X10736176Y-10287262D01*
X10744705Y-10307850D01*
X10744705Y-10307852D01*
X10755846Y-10327149D01*
X10755847Y-10327150D01*
X10760904Y-10333740D01*
X10760904Y-10333740D01*
X10825915Y-10268729D01*
X10826605Y-10270394D01*
X10835360Y-10283497D01*
X10846503Y-10294640D01*
X10859606Y-10303395D01*
X10861271Y-10304085D01*
X10796260Y-10369096D01*
X10796260Y-10369096D01*
X10802851Y-10374153D01*
X10822149Y-10385295D01*
X10822150Y-10385295D01*
X10842738Y-10393824D01*
X10864263Y-10399591D01*
X10864265Y-10399591D01*
X10886358Y-10402500D01*
X10908643Y-10402500D01*
X10930735Y-10399591D01*
X10930737Y-10399591D01*
X10952262Y-10393824D01*
X10972850Y-10385295D01*
X10972851Y-10385295D01*
X10992150Y-10374153D01*
X10998740Y-10369096D01*
X10998740Y-10369096D01*
X10988135Y-10358490D01*
X10980179Y-10350534D01*
X13032976Y-10350534D01*
X13032976Y-10362660D01*
X13036114Y-10374372D01*
X13042177Y-10384872D01*
X13050751Y-10393446D01*
X13061251Y-10399509D01*
X13072964Y-10402647D01*
X13072964Y-10402647D01*
X13085089Y-10402647D01*
X13085089Y-10402647D01*
X13096801Y-10399509D01*
X13107302Y-10393446D01*
X13115875Y-10384872D01*
X13121938Y-10374372D01*
X13124227Y-10365828D01*
X13127863Y-10359862D01*
X13134148Y-10356809D01*
X13141086Y-10357639D01*
X13146474Y-10362087D01*
X13146943Y-10362838D01*
X13150757Y-10369443D01*
X13159331Y-10378017D01*
X13169831Y-10384079D01*
X13181544Y-10387218D01*
X13181544Y-10387218D01*
X13193669Y-10387218D01*
X13193669Y-10387218D01*
X13205381Y-10384079D01*
X13215882Y-10378017D01*
X13224455Y-10369443D01*
X13230518Y-10358942D01*
X13232529Y-10351437D01*
X13916450Y-10351437D01*
X13916450Y-10363563D01*
X13919588Y-10375275D01*
X13925651Y-10385775D01*
X13934225Y-10394349D01*
X13944725Y-10400412D01*
X13956437Y-10403550D01*
X13956438Y-10403550D01*
X13968562Y-10403550D01*
X13968563Y-10403550D01*
X13980275Y-10400412D01*
X13990775Y-10394349D01*
X13999349Y-10385775D01*
X14005412Y-10375275D01*
X14008550Y-10363563D01*
X14008550Y-10351437D01*
X14005412Y-10339725D01*
X13999349Y-10329225D01*
X13990775Y-10320651D01*
X13980275Y-10314588D01*
X13974114Y-10312937D01*
X14229950Y-10312937D01*
X14229950Y-10325063D01*
X14233088Y-10336775D01*
X14239151Y-10347275D01*
X14247725Y-10355849D01*
X14258225Y-10361912D01*
X14269937Y-10365050D01*
X14269938Y-10365050D01*
X14282062Y-10365050D01*
X14282063Y-10365050D01*
X14292964Y-10362129D01*
X15109987Y-10362129D01*
X15109987Y-10374254D01*
X15113125Y-10385966D01*
X15119188Y-10396467D01*
X15127761Y-10405041D01*
X15138262Y-10411103D01*
X15149974Y-10414242D01*
X15149974Y-10414242D01*
X15162099Y-10414242D01*
X15162099Y-10414242D01*
X15173812Y-10411103D01*
X15184312Y-10405041D01*
X15192886Y-10396467D01*
X15198949Y-10385966D01*
X15199107Y-10385377D01*
X15314193Y-10385377D01*
X15314193Y-10397502D01*
X15317332Y-10409214D01*
X15323394Y-10419715D01*
X15331968Y-10428288D01*
X15342469Y-10434351D01*
X15354181Y-10437489D01*
X15354181Y-10437489D01*
X15366306Y-10437489D01*
X15366306Y-10437489D01*
X15378018Y-10434351D01*
X15388519Y-10428288D01*
X15397093Y-10419715D01*
X15403155Y-10409214D01*
X15406293Y-10397502D01*
X15406293Y-10385377D01*
X15403155Y-10373664D01*
X15397093Y-10363164D01*
X15388519Y-10354590D01*
X15378018Y-10348527D01*
X15366306Y-10345389D01*
X15354181Y-10345389D01*
X15342469Y-10348527D01*
X15342468Y-10348527D01*
X15331968Y-10354590D01*
X15331968Y-10354590D01*
X15323394Y-10363163D01*
X15323394Y-10363164D01*
X15317332Y-10373664D01*
X15317332Y-10373664D01*
X15314193Y-10385377D01*
X15199107Y-10385377D01*
X15202087Y-10374254D01*
X15202087Y-10362129D01*
X15198949Y-10350417D01*
X15192886Y-10339916D01*
X15184312Y-10331342D01*
X15180147Y-10328937D01*
X15678950Y-10328937D01*
X15678950Y-10341063D01*
X15682088Y-10352775D01*
X15688151Y-10363275D01*
X15696725Y-10371849D01*
X15707225Y-10377912D01*
X15718937Y-10381050D01*
X15718938Y-10381050D01*
X15731062Y-10381050D01*
X15731063Y-10381050D01*
X15742775Y-10377912D01*
X15753275Y-10371849D01*
X15761849Y-10363275D01*
X15767912Y-10352775D01*
X15771050Y-10341063D01*
X15771050Y-10328937D01*
X15767912Y-10317225D01*
X15761849Y-10306725D01*
X15753275Y-10298151D01*
X15742775Y-10292088D01*
X15731063Y-10288950D01*
X15718937Y-10288950D01*
X15707225Y-10292088D01*
X15707225Y-10292088D01*
X15696725Y-10298151D01*
X15696724Y-10298151D01*
X15688151Y-10306724D01*
X15688151Y-10306725D01*
X15682088Y-10317225D01*
X15682088Y-10317225D01*
X15678950Y-10328937D01*
X15180147Y-10328937D01*
X15177049Y-10327149D01*
X15173812Y-10325280D01*
X15173812Y-10325280D01*
X15173812Y-10325280D01*
X15162099Y-10322142D01*
X15149974Y-10322142D01*
X15138262Y-10325280D01*
X15138262Y-10325280D01*
X15127762Y-10331342D01*
X15127761Y-10331343D01*
X15119188Y-10339916D01*
X15119187Y-10339916D01*
X15113125Y-10350417D01*
X15113125Y-10350417D01*
X15109987Y-10362129D01*
X14292964Y-10362129D01*
X14293775Y-10361912D01*
X14304275Y-10355849D01*
X14312849Y-10347275D01*
X14318912Y-10336775D01*
X14322050Y-10325063D01*
X14322050Y-10312937D01*
X14318912Y-10301225D01*
X14312849Y-10290725D01*
X14304275Y-10282151D01*
X14293775Y-10276088D01*
X14282063Y-10272950D01*
X14269937Y-10272950D01*
X14258225Y-10276088D01*
X14258225Y-10276088D01*
X14247725Y-10282151D01*
X14247724Y-10282151D01*
X14239151Y-10290724D01*
X14239151Y-10290725D01*
X14233088Y-10301225D01*
X14233088Y-10301225D01*
X14229950Y-10312937D01*
X13974114Y-10312937D01*
X13968563Y-10311450D01*
X13956437Y-10311450D01*
X13944725Y-10314588D01*
X13944725Y-10314588D01*
X13934225Y-10320651D01*
X13934224Y-10320651D01*
X13925651Y-10329224D01*
X13925651Y-10329225D01*
X13919588Y-10339725D01*
X13919588Y-10339725D01*
X13916450Y-10351437D01*
X13232529Y-10351437D01*
X13233656Y-10347230D01*
X13233656Y-10335105D01*
X13230518Y-10323393D01*
X13224455Y-10312892D01*
X13215882Y-10304318D01*
X13205381Y-10298256D01*
X13193669Y-10295118D01*
X13181544Y-10295118D01*
X13169831Y-10298256D01*
X13169831Y-10298256D01*
X13159331Y-10304318D01*
X13159330Y-10304319D01*
X13150757Y-10312892D01*
X13150757Y-10312893D01*
X13144694Y-10323393D01*
X13144694Y-10323393D01*
X13142405Y-10331936D01*
X13138769Y-10337902D01*
X13132484Y-10340955D01*
X13125546Y-10340126D01*
X13120159Y-10335677D01*
X13119689Y-10334927D01*
X13115875Y-10328322D01*
X13107302Y-10319748D01*
X13098365Y-10314588D01*
X13096801Y-10313685D01*
X13096801Y-10313685D01*
X13096801Y-10313685D01*
X13085089Y-10310547D01*
X13072964Y-10310547D01*
X13061251Y-10313685D01*
X13061251Y-10313685D01*
X13050751Y-10319748D01*
X13050750Y-10319748D01*
X13042177Y-10328321D01*
X13042177Y-10328322D01*
X13036114Y-10338822D01*
X13036114Y-10338822D01*
X13032976Y-10350534D01*
X10980179Y-10350534D01*
X10933729Y-10304085D01*
X10935394Y-10303395D01*
X10948497Y-10294640D01*
X10959640Y-10283497D01*
X10968395Y-10270394D01*
X10969085Y-10268729D01*
X11034096Y-10333740D01*
X11034096Y-10333740D01*
X11039153Y-10327150D01*
X11050295Y-10307851D01*
X11050295Y-10307850D01*
X11058824Y-10287262D01*
X11064591Y-10265737D01*
X11064591Y-10265735D01*
X11067500Y-10243642D01*
X11067500Y-10232937D01*
X11861367Y-10232937D01*
X11861367Y-10245063D01*
X11864506Y-10256775D01*
X11870568Y-10267275D01*
X11879142Y-10275849D01*
X11889643Y-10281912D01*
X11901355Y-10285050D01*
X11901355Y-10285050D01*
X11913480Y-10285050D01*
X11913480Y-10285050D01*
X11925192Y-10281912D01*
X11935693Y-10275849D01*
X11944267Y-10267275D01*
X11950329Y-10256775D01*
X11953467Y-10245063D01*
X11953467Y-10232937D01*
X12745986Y-10232937D01*
X12745986Y-10245063D01*
X12749125Y-10256775D01*
X12755187Y-10267275D01*
X12763761Y-10275849D01*
X12774262Y-10281912D01*
X12785974Y-10285050D01*
X12785974Y-10285050D01*
X12798099Y-10285050D01*
X12798099Y-10285050D01*
X12809811Y-10281912D01*
X12820312Y-10275849D01*
X12828886Y-10267275D01*
X12828886Y-10267275D01*
X12829460Y-10266701D01*
X12829710Y-10266951D01*
X12834028Y-10263785D01*
X12841002Y-10263356D01*
X12844446Y-10264707D01*
X12854643Y-10270594D01*
X12866355Y-10273733D01*
X12866355Y-10273733D01*
X12878480Y-10273733D01*
X12878480Y-10273733D01*
X12890192Y-10270594D01*
X12900693Y-10264532D01*
X12909267Y-10255958D01*
X12915329Y-10245457D01*
X12918467Y-10233745D01*
X12918467Y-10221620D01*
X12915329Y-10209908D01*
X12909267Y-10199407D01*
X12900693Y-10190833D01*
X12890192Y-10184771D01*
X12878480Y-10181633D01*
X12866355Y-10181633D01*
X12854643Y-10184771D01*
X12854642Y-10184771D01*
X12844142Y-10190833D01*
X12844142Y-10190834D01*
X12834994Y-10199982D01*
X12834750Y-10199738D01*
X12830369Y-10202918D01*
X12823393Y-10203313D01*
X12820008Y-10201975D01*
X12809811Y-10196088D01*
X12809811Y-10196088D01*
X12809811Y-10196088D01*
X12798099Y-10192950D01*
X12785974Y-10192950D01*
X12774262Y-10196088D01*
X12774261Y-10196088D01*
X12763761Y-10202151D01*
X12763761Y-10202151D01*
X12755187Y-10210724D01*
X12755187Y-10210725D01*
X12749125Y-10221225D01*
X12749125Y-10221225D01*
X12745986Y-10232937D01*
X11953467Y-10232937D01*
X11950329Y-10221225D01*
X11944267Y-10210725D01*
X11935693Y-10202151D01*
X11925192Y-10196088D01*
X11913480Y-10192950D01*
X11901355Y-10192950D01*
X11889643Y-10196088D01*
X11889642Y-10196088D01*
X11879142Y-10202151D01*
X11879142Y-10202151D01*
X11870568Y-10210724D01*
X11870568Y-10210725D01*
X11864506Y-10221225D01*
X11864506Y-10221225D01*
X11861367Y-10232937D01*
X11067500Y-10232937D01*
X11067500Y-10221358D01*
X11064591Y-10199265D01*
X11064591Y-10199263D01*
X11058824Y-10177738D01*
X11050295Y-10157150D01*
X11050295Y-10157149D01*
X11039153Y-10137851D01*
X11034096Y-10131260D01*
X11034096Y-10131260D01*
X10969085Y-10196270D01*
X10968395Y-10194606D01*
X10959640Y-10181503D01*
X10948497Y-10170360D01*
X10935394Y-10161605D01*
X10933729Y-10160915D01*
X10982598Y-10112046D01*
X12065476Y-10112046D01*
X12065476Y-10124172D01*
X12067994Y-10133567D01*
X12068615Y-10135884D01*
X12068615Y-10135884D01*
X12069800Y-10137937D01*
X12074677Y-10146384D01*
X12083251Y-10154958D01*
X12093752Y-10161021D01*
X12105464Y-10164159D01*
X12105464Y-10164159D01*
X12117589Y-10164159D01*
X12117589Y-10164159D01*
X12129301Y-10161021D01*
X12139802Y-10154958D01*
X12145738Y-10149021D01*
X13325283Y-10149021D01*
X13325283Y-10161147D01*
X13328422Y-10172859D01*
X13334484Y-10183359D01*
X13343058Y-10191933D01*
X13353559Y-10197996D01*
X13365271Y-10201134D01*
X13365271Y-10201134D01*
X13377396Y-10201134D01*
X13377396Y-10201134D01*
X13389108Y-10197996D01*
X13399609Y-10191933D01*
X13408183Y-10183359D01*
X13414245Y-10172859D01*
X13417383Y-10161147D01*
X13417383Y-10149021D01*
X13414245Y-10137309D01*
X13408183Y-10126809D01*
X13399609Y-10118235D01*
X13390389Y-10112912D01*
X13389108Y-10112172D01*
X13389108Y-10112172D01*
X13389108Y-10112172D01*
X13377396Y-10109034D01*
X13365271Y-10109034D01*
X13353559Y-10112172D01*
X13353558Y-10112172D01*
X13343058Y-10118235D01*
X13343058Y-10118235D01*
X13334484Y-10126808D01*
X13334484Y-10126809D01*
X13328422Y-10137309D01*
X13328422Y-10137309D01*
X13325283Y-10149021D01*
X12145738Y-10149021D01*
X12148376Y-10146384D01*
X12154438Y-10135884D01*
X12157576Y-10124172D01*
X12157576Y-10112046D01*
X12154438Y-10100334D01*
X12148376Y-10089834D01*
X12139802Y-10081260D01*
X12130800Y-10076063D01*
X12130344Y-10075799D01*
X12719223Y-10075799D01*
X12719223Y-10087924D01*
X12722252Y-10099229D01*
X12722361Y-10099636D01*
X12722361Y-10099637D01*
X12723199Y-10101088D01*
X12728423Y-10110137D01*
X12736997Y-10118711D01*
X12747498Y-10124773D01*
X12759210Y-10127912D01*
X12759210Y-10127912D01*
X12771335Y-10127912D01*
X12771335Y-10127912D01*
X12783047Y-10124773D01*
X12793548Y-10118711D01*
X12802122Y-10110137D01*
X12808184Y-10099636D01*
X12811323Y-10087924D01*
X12811323Y-10075799D01*
X12808184Y-10064087D01*
X12802122Y-10053586D01*
X12793548Y-10045012D01*
X12783047Y-10038950D01*
X12771335Y-10035812D01*
X12759210Y-10035812D01*
X12747498Y-10038950D01*
X12747498Y-10038950D01*
X12736997Y-10045012D01*
X12736997Y-10045013D01*
X12728424Y-10053586D01*
X12728423Y-10053587D01*
X12722361Y-10064087D01*
X12722361Y-10064087D01*
X12719223Y-10075799D01*
X12130344Y-10075799D01*
X12129301Y-10075197D01*
X12129301Y-10075197D01*
X12129301Y-10075197D01*
X12117589Y-10072059D01*
X12105464Y-10072059D01*
X12093752Y-10075197D01*
X12093751Y-10075197D01*
X12083251Y-10081260D01*
X12083251Y-10081260D01*
X12074677Y-10089833D01*
X12074677Y-10089834D01*
X12068615Y-10100334D01*
X12068615Y-10100334D01*
X12065476Y-10112046D01*
X10982598Y-10112046D01*
X10992179Y-10102466D01*
X10998740Y-10095904D01*
X10998740Y-10095904D01*
X10992150Y-10090847D01*
X10992149Y-10090846D01*
X10972852Y-10079705D01*
X10972850Y-10079705D01*
X10952262Y-10071176D01*
X10930737Y-10065409D01*
X10930735Y-10065409D01*
X10908643Y-10062500D01*
X10886358Y-10062500D01*
X10864265Y-10065409D01*
X10864263Y-10065409D01*
X10842738Y-10071176D01*
X10822150Y-10079705D01*
X10822148Y-10079705D01*
X10802851Y-10090846D01*
X10796260Y-10095904D01*
X10861271Y-10160915D01*
X10859606Y-10161605D01*
X10846503Y-10170360D01*
X10835360Y-10181503D01*
X10826605Y-10194606D01*
X10825915Y-10196271D01*
X10760904Y-10131260D01*
X10755846Y-10137851D01*
X10744705Y-10157148D01*
X10744705Y-10157150D01*
X10736176Y-10177738D01*
X10730409Y-10199263D01*
X10730409Y-10199265D01*
X10727500Y-10221358D01*
X10552500Y-10221358D01*
X10549591Y-10199265D01*
X10549591Y-10199263D01*
X10543824Y-10177738D01*
X10535295Y-10157150D01*
X10535295Y-10157149D01*
X10524153Y-10137851D01*
X10519096Y-10131260D01*
X10519096Y-10131260D01*
X10454085Y-10196270D01*
X10453395Y-10194606D01*
X10444640Y-10181503D01*
X10433497Y-10170360D01*
X10420394Y-10161605D01*
X10418729Y-10160915D01*
X10483740Y-10095904D01*
X10483740Y-10095904D01*
X10477150Y-10090847D01*
X10477149Y-10090846D01*
X10457852Y-10079705D01*
X10457850Y-10079705D01*
X10437262Y-10071176D01*
X10415737Y-10065409D01*
X10415735Y-10065409D01*
X10393643Y-10062500D01*
X10371358Y-10062500D01*
X10349265Y-10065409D01*
X10349263Y-10065409D01*
X10327738Y-10071176D01*
X10307150Y-10079705D01*
X10307148Y-10079705D01*
X10287851Y-10090846D01*
X10281260Y-10095904D01*
X10346271Y-10160915D01*
X10344606Y-10161605D01*
X10331503Y-10170360D01*
X10320360Y-10181503D01*
X10311605Y-10194606D01*
X10310915Y-10196271D01*
X10245904Y-10131260D01*
X10240846Y-10137851D01*
X10229705Y-10157148D01*
X10229705Y-10157150D01*
X10221176Y-10177738D01*
X10215409Y-10199263D01*
X10215409Y-10199265D01*
X10212500Y-10221358D01*
X10030050Y-10221358D01*
X10030050Y-9927937D01*
X12426367Y-9927937D01*
X12426367Y-9940063D01*
X12428605Y-9948413D01*
X12429506Y-9951775D01*
X12429506Y-9951775D01*
X12431516Y-9955257D01*
X12435568Y-9962275D01*
X12444142Y-9970849D01*
X12454643Y-9976912D01*
X12466355Y-9980050D01*
X12466355Y-9980050D01*
X12478480Y-9980050D01*
X12478480Y-9980050D01*
X12490192Y-9976912D01*
X12500693Y-9970849D01*
X12509267Y-9962275D01*
X12515329Y-9951775D01*
X12518467Y-9940063D01*
X12518467Y-9927937D01*
X12711367Y-9927937D01*
X12711367Y-9940063D01*
X12713605Y-9948413D01*
X12714506Y-9951775D01*
X12714506Y-9951775D01*
X12716516Y-9955257D01*
X12720568Y-9962275D01*
X12729142Y-9970849D01*
X12739643Y-9976912D01*
X12751355Y-9980050D01*
X12751355Y-9980050D01*
X12763480Y-9980050D01*
X12763480Y-9980050D01*
X12775192Y-9976912D01*
X12785693Y-9970849D01*
X12794267Y-9962275D01*
X12800329Y-9951775D01*
X12803467Y-9940063D01*
X12803467Y-9927937D01*
X12800329Y-9916225D01*
X12794267Y-9905725D01*
X12785693Y-9897151D01*
X12775192Y-9891088D01*
X12763480Y-9887950D01*
X12751355Y-9887950D01*
X12739643Y-9891088D01*
X12739642Y-9891088D01*
X12729142Y-9897151D01*
X12729142Y-9897151D01*
X12720568Y-9905724D01*
X12720568Y-9905725D01*
X12714506Y-9916225D01*
X12714506Y-9916225D01*
X12711367Y-9927937D01*
X12518467Y-9927937D01*
X12515329Y-9916225D01*
X12509267Y-9905725D01*
X12500693Y-9897151D01*
X12490192Y-9891088D01*
X12478480Y-9887950D01*
X12466355Y-9887950D01*
X12454643Y-9891088D01*
X12454642Y-9891088D01*
X12444142Y-9897151D01*
X12444142Y-9897151D01*
X12435568Y-9905724D01*
X12435568Y-9905725D01*
X12429506Y-9916225D01*
X12429506Y-9916225D01*
X12426367Y-9927937D01*
X10030050Y-9927937D01*
X10030050Y-9803937D01*
X12817367Y-9803937D01*
X12817367Y-9816063D01*
X12820506Y-9827775D01*
X12826568Y-9838275D01*
X12835142Y-9846849D01*
X12845643Y-9852912D01*
X12857355Y-9856050D01*
X12857355Y-9856050D01*
X12869480Y-9856050D01*
X12869480Y-9856050D01*
X12881192Y-9852912D01*
X12891693Y-9846849D01*
X12900267Y-9838275D01*
X12906329Y-9827775D01*
X12909467Y-9816063D01*
X12909467Y-9803937D01*
X12906329Y-9792225D01*
X12900267Y-9781725D01*
X12891693Y-9773151D01*
X12881192Y-9767088D01*
X12869480Y-9763950D01*
X12857355Y-9763950D01*
X12845643Y-9767088D01*
X12845642Y-9767088D01*
X12835142Y-9773151D01*
X12835142Y-9773151D01*
X12826568Y-9781724D01*
X12826568Y-9781725D01*
X12820506Y-9792225D01*
X12820506Y-9792225D01*
X12817367Y-9803937D01*
X10030050Y-9803937D01*
X10030050Y-9742937D01*
X13096367Y-9742937D01*
X13096367Y-9755063D01*
X13098749Y-9763950D01*
X13099506Y-9766775D01*
X13099506Y-9766775D01*
X13099959Y-9767560D01*
X13105568Y-9777275D01*
X13114142Y-9785849D01*
X13124643Y-9791912D01*
X13136355Y-9795050D01*
X13136355Y-9795050D01*
X13148480Y-9795050D01*
X13148480Y-9795050D01*
X13160192Y-9791912D01*
X13170693Y-9785849D01*
X13179267Y-9777275D01*
X13185329Y-9766775D01*
X13188467Y-9755063D01*
X13188467Y-9742937D01*
X13185329Y-9731225D01*
X13179267Y-9720725D01*
X13170693Y-9712151D01*
X13161288Y-9706721D01*
X13160192Y-9706088D01*
X13160192Y-9706088D01*
X13160192Y-9706088D01*
X13148480Y-9702950D01*
X13136355Y-9702950D01*
X13124643Y-9706088D01*
X13124642Y-9706088D01*
X13114142Y-9712151D01*
X13114142Y-9712151D01*
X13105568Y-9720724D01*
X13105568Y-9720725D01*
X13099506Y-9731225D01*
X13099506Y-9731225D01*
X13096367Y-9742937D01*
X10030050Y-9742937D01*
X10030050Y-8830348D01*
X10030070Y-8829653D01*
X10030657Y-8819198D01*
X10031834Y-8798230D01*
X10031990Y-8796850D01*
X10037203Y-8766166D01*
X10037512Y-8764812D01*
X10046128Y-8734904D01*
X10046588Y-8733592D01*
X10052658Y-8718937D01*
X10058498Y-8704837D01*
X10059100Y-8703587D01*
X10074157Y-8676344D01*
X10074894Y-8675170D01*
X10092906Y-8649786D01*
X10093770Y-8648702D01*
X10114511Y-8625493D01*
X10115493Y-8624511D01*
X10138702Y-8603770D01*
X10139786Y-8602906D01*
X10165170Y-8584894D01*
X10166344Y-8584157D01*
X10193587Y-8569100D01*
X10194837Y-8568498D01*
X10223593Y-8556587D01*
X10224904Y-8556128D01*
X10254812Y-8547512D01*
X10256166Y-8547203D01*
X10286850Y-8541990D01*
X10288230Y-8541834D01*
X10315688Y-8540292D01*
X10319653Y-8540070D01*
X10320348Y-8540050D01*
X12376829Y-8540050D01*
X12383533Y-8542019D01*
G37*
%TD.AperFunction*%
%TD*%
%TA.AperFunction,Conductor*%
%TO.N,GND*%
G36*
X19270945Y-11192948D02*
G01*
X19273009Y-11194612D01*
X19398078Y-11319680D01*
X19401426Y-11325813D01*
X19401710Y-11328448D01*
X19401710Y-11574892D01*
X19399741Y-11581595D01*
X19398111Y-11583626D01*
X18978638Y-12006334D01*
X18972518Y-12009706D01*
X18969836Y-12010000D01*
X18910000Y-12010000D01*
X18910000Y-11190980D01*
X19264241Y-11190980D01*
X19270945Y-11192948D01*
G37*
%TD.AperFunction*%
%TD*%
%TA.AperFunction,Conductor*%
%TO.N,AGND*%
G36*
X19633963Y-8328608D02*
G01*
X19633964Y-8328608D01*
X19649399Y-8309800D01*
X19667685Y-8282433D01*
X19667686Y-8282431D01*
X19683201Y-8253404D01*
X19683202Y-8253403D01*
X19694321Y-8226559D01*
X19698705Y-8221118D01*
X19705335Y-8218912D01*
X19712105Y-8220640D01*
X19716866Y-8225753D01*
X19717966Y-8229025D01*
X19719905Y-8239398D01*
X19729775Y-8274087D01*
X19729775Y-8274087D01*
X19742804Y-8307718D01*
X19758880Y-8340003D01*
X19766651Y-8352554D01*
X19777866Y-8370668D01*
X19799600Y-8399448D01*
X19799601Y-8399449D01*
X19810445Y-8411344D01*
X19823898Y-8426102D01*
X19834046Y-8435352D01*
X19850551Y-8450399D01*
X19850552Y-8450399D01*
X19850552Y-8450399D01*
X19860272Y-8457739D01*
X19879332Y-8472134D01*
X19879333Y-8472134D01*
X19879333Y-8472134D01*
X19909997Y-8491120D01*
X19942282Y-8507197D01*
X19949519Y-8510000D01*
X18810481Y-8510000D01*
X18817718Y-8507197D01*
X18850003Y-8491120D01*
X18880667Y-8472134D01*
X18909448Y-8450399D01*
X18936102Y-8426102D01*
X18960399Y-8399448D01*
X18982134Y-8370667D01*
X19001120Y-8340003D01*
X19017197Y-8307718D01*
X19030225Y-8274087D01*
X19040095Y-8239397D01*
X19042034Y-8229025D01*
X19045201Y-8222797D01*
X19051232Y-8219270D01*
X19058213Y-8219563D01*
X19063927Y-8223584D01*
X19065679Y-8226559D01*
X19076799Y-8253404D01*
X19076799Y-8253404D01*
X19092314Y-8282431D01*
X19092315Y-8282433D01*
X19110601Y-8309799D01*
X19110601Y-8309800D01*
X19126036Y-8328608D01*
X19126037Y-8328608D01*
X19250575Y-8204070D01*
X19257959Y-8214233D01*
X19275767Y-8232041D01*
X19285930Y-8239425D01*
X19161392Y-8363963D01*
X19161392Y-8363963D01*
X19180200Y-8379399D01*
X19180200Y-8379399D01*
X19207567Y-8397685D01*
X19207569Y-8397686D01*
X19236596Y-8413201D01*
X19236596Y-8413201D01*
X19267005Y-8425797D01*
X19298504Y-8435352D01*
X19298504Y-8435353D01*
X19330786Y-8441774D01*
X19363543Y-8445000D01*
X19396457Y-8445000D01*
X19429214Y-8441774D01*
X19461496Y-8435353D01*
X19461496Y-8435352D01*
X19492995Y-8425797D01*
X19523404Y-8413201D01*
X19523404Y-8413201D01*
X19552431Y-8397686D01*
X19552433Y-8397685D01*
X19579800Y-8379399D01*
X19598608Y-8363963D01*
X19598608Y-8363963D01*
X19474070Y-8239425D01*
X19484233Y-8232041D01*
X19502041Y-8214233D01*
X19509425Y-8204070D01*
X19633963Y-8328608D01*
G37*
%TD.AperFunction*%
%TD*%
%TA.AperFunction,Conductor*%
%TO.N,AGND*%
G36*
X19975913Y-8520225D02*
G01*
X20010602Y-8530095D01*
X20010602Y-8530095D01*
X20010602Y-8530095D01*
X20010603Y-8530095D01*
X20046055Y-8536722D01*
X20046055Y-8536722D01*
X20046055Y-8536722D01*
X20063365Y-8538326D01*
X20081967Y-8540050D01*
X20095241Y-8540050D01*
X20099796Y-8540050D01*
X20100202Y-8540057D01*
X20156493Y-8541899D01*
X20157301Y-8541952D01*
X20213150Y-8547453D01*
X20213949Y-8547558D01*
X20269321Y-8556700D01*
X20270111Y-8556857D01*
X20324766Y-8569601D01*
X20325547Y-8569810D01*
X20362139Y-8580910D01*
X20379249Y-8586101D01*
X20380017Y-8586361D01*
X20432535Y-8606128D01*
X20433285Y-8606438D01*
X20484401Y-8629599D01*
X20485126Y-8629956D01*
X20529449Y-8653647D01*
X20534617Y-8656410D01*
X20535320Y-8656816D01*
X20582975Y-8686449D01*
X20583647Y-8686898D01*
X20629263Y-8719587D01*
X20629905Y-8720079D01*
X20673284Y-8755680D01*
X20673894Y-8756214D01*
X20714851Y-8794575D01*
X20715425Y-8795149D01*
X20753786Y-8836106D01*
X20754320Y-8836716D01*
X20756757Y-8839684D01*
X20789920Y-8880094D01*
X20790414Y-8880738D01*
X20823101Y-8926352D01*
X20823552Y-8927027D01*
X20853184Y-8974680D01*
X20853590Y-8975383D01*
X20880043Y-9024873D01*
X20880402Y-9025600D01*
X20903562Y-9076715D01*
X20903872Y-9077465D01*
X20923639Y-9129983D01*
X20923899Y-9130751D01*
X20940189Y-9184452D01*
X20940399Y-9185236D01*
X20953142Y-9239886D01*
X20953300Y-9240682D01*
X20962441Y-9296048D01*
X20962547Y-9296853D01*
X20968048Y-9352698D01*
X20968101Y-9353508D01*
X20969943Y-9409798D01*
X20969950Y-9410204D01*
X20969950Y-11109796D01*
X20969943Y-11110202D01*
X20968101Y-11166492D01*
X20968048Y-11167302D01*
X20962547Y-11223147D01*
X20962441Y-11223952D01*
X20953300Y-11279318D01*
X20953142Y-11280114D01*
X20940399Y-11334764D01*
X20940189Y-11335548D01*
X20923899Y-11389249D01*
X20923639Y-11390017D01*
X20903872Y-11442535D01*
X20903562Y-11443285D01*
X20880402Y-11494400D01*
X20880043Y-11495127D01*
X20853590Y-11544617D01*
X20853184Y-11545320D01*
X20823552Y-11592973D01*
X20823101Y-11593648D01*
X20790414Y-11639262D01*
X20789920Y-11639906D01*
X20754321Y-11683284D01*
X20753786Y-11683894D01*
X20715425Y-11724851D01*
X20714851Y-11725425D01*
X20673894Y-11763786D01*
X20673284Y-11764321D01*
X20629906Y-11799920D01*
X20629262Y-11800414D01*
X20583648Y-11833101D01*
X20582973Y-11833551D01*
X20535320Y-11863184D01*
X20534617Y-11863590D01*
X20485127Y-11890043D01*
X20484400Y-11890402D01*
X20433285Y-11913562D01*
X20432535Y-11913872D01*
X20380017Y-11933638D01*
X20379249Y-11933899D01*
X20325548Y-11950189D01*
X20324764Y-11950399D01*
X20270114Y-11963142D01*
X20269318Y-11963300D01*
X20213952Y-11972441D01*
X20213147Y-11972547D01*
X20158639Y-11977916D01*
X20157500Y-11415000D01*
X19670000Y-11415000D01*
X19589656Y-11495344D01*
X19590000Y-11314120D01*
X19330000Y-11054120D01*
X18628830Y-11054120D01*
X18622126Y-11052152D01*
X18620046Y-11050473D01*
X18526297Y-10956385D01*
X18522959Y-10950247D01*
X18522680Y-10947633D01*
X18522680Y-8552450D01*
X18524649Y-8545746D01*
X18529929Y-8541171D01*
X18535080Y-8540050D01*
X18678033Y-8540050D01*
X18678033Y-8540050D01*
X18700517Y-8537967D01*
X18713945Y-8536722D01*
X18713945Y-8536722D01*
X18713945Y-8536722D01*
X18713945Y-8536722D01*
X18749398Y-8530095D01*
X18784087Y-8520225D01*
X18810481Y-8510000D01*
X19949519Y-8510000D01*
X19975913Y-8520225D01*
G37*
%TD.AperFunction*%
%TD*%
M02*
