%TF.GenerationSoftware,KiCad,Pcbnew,9.0.2+1*%
%TF.CreationDate,2025-08-16T02:22:31+01:00*%
%TF.ProjectId,OBC,4f42432e-6b69-4636-9164-5f7063625858,rev?*%
%TF.SameCoordinates,Original*%
%TF.FileFunction,Soldermask,Top*%
%TF.FilePolarity,Negative*%
%FSLAX45Y45*%
G04 Gerber Fmt 4.5, Leading zero omitted, Abs format (unit mm)*
G04 Created by KiCad (PCBNEW 9.0.2+1) date 2025-08-16 02:22:31*
%MOMM*%
%LPD*%
G01*
G04 APERTURE LIST*
G04 Aperture macros list*
%AMRoundRect*
0 Rectangle with rounded corners*
0 $1 Rounding radius*
0 $2 $3 $4 $5 $6 $7 $8 $9 X,Y pos of 4 corners*
0 Add a 4 corners polygon primitive as box body*
4,1,4,$2,$3,$4,$5,$6,$7,$8,$9,$2,$3,0*
0 Add four circle primitives for the rounded corners*
1,1,$1+$1,$2,$3*
1,1,$1+$1,$4,$5*
1,1,$1+$1,$6,$7*
1,1,$1+$1,$8,$9*
0 Add four rect primitives between the rounded corners*
20,1,$1+$1,$2,$3,$4,$5,0*
20,1,$1+$1,$4,$5,$6,$7,0*
20,1,$1+$1,$6,$7,$8,$9,0*
20,1,$1+$1,$8,$9,$2,$3,0*%
%AMFreePoly0*
4,1,39,0.535921,0.785921,0.550800,0.750000,0.550800,-0.750000,0.535921,-0.785921,0.500000,-0.800800,0.000000,-0.800800,-0.010328,-0.796522,-0.065263,-0.796522,-0.078411,-0.794791,-0.204490,-0.761009,-0.216742,-0.755934,-0.329781,-0.690671,-0.340302,-0.682598,-0.432598,-0.590302,-0.440671,-0.579781,-0.505934,-0.466742,-0.511009,-0.454490,-0.544791,-0.328411,-0.546522,-0.315263,-0.546522,-0.260327,
-0.550800,-0.250000,-0.550800,0.250000,-0.546522,0.260327,-0.546522,0.315263,-0.544791,0.328411,-0.511009,0.454490,-0.505934,0.466742,-0.440671,0.579781,-0.432598,0.590302,-0.340302,0.682598,-0.329781,0.690671,-0.216742,0.755934,-0.204490,0.761009,-0.078411,0.794791,-0.065263,0.796522,-0.010328,0.796522,0.000000,0.800800,0.500000,0.800800,0.535921,0.785921,0.535921,0.785921,
$1*%
%AMFreePoly1*
4,1,39,0.010328,0.796522,0.065263,0.796522,0.078411,0.794791,0.204490,0.761009,0.216742,0.755934,0.329781,0.690671,0.340302,0.682598,0.432598,0.590302,0.440671,0.579781,0.505934,0.466742,0.511009,0.454490,0.544791,0.328411,0.546522,0.315263,0.546522,0.260327,0.550800,0.250000,0.550800,-0.250000,0.546522,-0.260327,0.546522,-0.315263,0.544791,-0.328411,0.511009,-0.454490,
0.505934,-0.466742,0.440671,-0.579781,0.432598,-0.590302,0.340302,-0.682598,0.329781,-0.690671,0.216742,-0.755934,0.204490,-0.761009,0.078411,-0.794791,0.065263,-0.796522,0.010328,-0.796522,0.000000,-0.800800,-0.500000,-0.800800,-0.535921,-0.785921,-0.550800,-0.750000,-0.550800,0.750000,-0.535921,0.785921,-0.500000,0.800800,0.000000,0.800800,0.010328,0.796522,0.010328,0.796522,
$1*%
G04 Aperture macros list end*
%ADD10C,0.010000*%
%ADD11C,0.000000*%
%ADD12RoundRect,0.025400X0.224506X-0.350230X0.350230X-0.224506X-0.224506X0.350230X-0.350230X0.224506X0*%
%ADD13RoundRect,0.025400X-0.350230X-0.224506X-0.224506X-0.350230X0.350230X0.224506X0.224506X0.350230X0*%
%ADD14RoundRect,0.025400X-2.263025X0.000000X0.000000X-2.263025X2.263025X0.000000X0.000000X2.263025X0*%
%ADD15RoundRect,0.025400X0.127000X0.381000X-0.127000X0.381000X-0.127000X-0.381000X0.127000X-0.381000X0*%
%ADD16RoundRect,0.025400X0.381000X-0.127000X0.381000X0.127000X-0.381000X0.127000X-0.381000X-0.127000X0*%
%ADD17RoundRect,0.025400X1.320800X-1.320800X1.320800X1.320800X-1.320800X1.320800X-1.320800X-1.320800X0*%
%ADD18RoundRect,0.088900X0.317500X-0.088900X0.317500X0.088900X-0.317500X0.088900X-0.317500X-0.088900X0*%
%ADD19RoundRect,0.088900X-0.088900X-0.317500X0.088900X-0.317500X0.088900X0.317500X-0.088900X0.317500X0*%
%ADD20RoundRect,0.025400X-1.320800X-1.320800X1.320800X-1.320800X1.320800X1.320800X-1.320800X1.320800X0*%
%ADD21RoundRect,0.025400X-0.359210X0.179605X0.179605X-0.359210X0.359210X-0.179605X-0.179605X0.359210X0*%
%ADD22RoundRect,0.025400X0.406400X0.203200X-0.406400X0.203200X-0.406400X-0.203200X0.406400X-0.203200X0*%
%ADD23R,1.752600X2.489200*%
%ADD24RoundRect,0.050800X-0.400000X-1.000000X0.400000X-1.000000X0.400000X1.000000X-0.400000X1.000000X0*%
%ADD25RoundRect,0.076200X-0.900000X-0.700000X0.900000X-0.700000X0.900000X0.700000X-0.900000X0.700000X0*%
%ADD26RoundRect,0.120000X-0.700000X-0.950000X0.700000X-0.950000X0.700000X0.950000X-0.700000X0.950000X0*%
%ADD27C,0.731600*%
%ADD28C,0.701600*%
%ADD29RoundRect,0.025400X0.260000X0.500000X-0.260000X0.500000X-0.260000X-0.500000X0.260000X-0.500000X0*%
%ADD30RoundRect,0.025400X0.135000X0.500000X-0.135000X0.500000X-0.135000X-0.500000X0.135000X-0.500000X0*%
%ADD31RoundRect,0.120000X0.500000X1.000000X-0.500000X1.000000X-0.500000X-1.000000X0.500000X-1.000000X0*%
%ADD32O,1.310400X2.468400*%
%ADD33O,1.352400X2.552400*%
%ADD34RoundRect,0.266387X0.559413X0.759413X-0.559413X0.759413X-0.559413X-0.759413X0.559413X-0.759413X0*%
%ADD35RoundRect,0.025400X0.150000X0.237500X-0.150000X0.237500X-0.150000X-0.237500X0.150000X-0.237500X0*%
%ADD36RoundRect,0.025400X0.105000X0.200000X-0.105000X0.200000X-0.105000X-0.200000X0.105000X-0.200000X0*%
%ADD37RoundRect,0.150400X0.267709X-0.055013X-0.055013X0.267709X-0.267709X0.055013X0.055013X-0.267709X0*%
%ADD38RoundRect,0.152400X0.177800X0.152400X-0.177800X0.152400X-0.177800X-0.152400X0.177800X-0.152400X0*%
%ADD39RoundRect,0.150400X0.150399X-0.228199X0.150399X0.228199X-0.150399X0.228199X-0.150399X-0.228199X0*%
%ADD40RoundRect,0.152400X-0.152400X0.177800X-0.152400X-0.177800X0.152400X-0.177800X0.152400X0.177800X0*%
%ADD41RoundRect,0.050800X-0.762000X-0.266700X0.762000X-0.266700X0.762000X0.266700X-0.762000X0.266700X0*%
%ADD42RoundRect,0.102000X0.650000X1.700000X-0.650000X1.700000X-0.650000X-1.700000X0.650000X-1.700000X0*%
%ADD43RoundRect,0.152400X0.152400X-0.177800X0.152400X0.177800X-0.152400X0.177800X-0.152400X-0.177800X0*%
%ADD44C,3.301600*%
%ADD45RoundRect,0.150400X0.228199X0.150399X-0.228199X0.150399X-0.228199X-0.150399X0.228199X-0.150399X0*%
%ADD46RoundRect,0.294348X0.532652X-0.382652X0.532652X0.382652X-0.532652X0.382652X-0.532652X-0.382652X0*%
%ADD47RoundRect,0.152400X0.017961X0.233487X-0.233487X-0.017961X-0.017961X-0.233487X0.233487X0.017961X0*%
%ADD48RoundRect,0.294348X-0.532652X0.382652X-0.532652X-0.382652X0.532652X-0.382652X0.532652X0.382652X0*%
%ADD49RoundRect,0.281000X0.311000X-0.281000X0.311000X0.281000X-0.311000X0.281000X-0.311000X-0.281000X0*%
%ADD50RoundRect,0.152400X-0.233487X0.017961X0.017961X-0.233487X0.233487X-0.017961X-0.017961X0.233487X0*%
%ADD51RoundRect,0.050800X-1.000000X-1.000000X1.000000X-1.000000X1.000000X1.000000X-1.000000X1.000000X0*%
%ADD52RoundRect,0.050800X-0.330200X-0.774700X0.330200X-0.774700X0.330200X0.774700X-0.330200X0.774700X0*%
%ADD53RoundRect,0.050800X0.647700X-0.952500X0.647700X0.952500X-0.647700X0.952500X-0.647700X-0.952500X0*%
%ADD54FreePoly0,90.000000*%
%ADD55FreePoly1,90.000000*%
%ADD56RoundRect,0.050800X-0.622300X0.279400X-0.622300X-0.279400X0.622300X-0.279400X0.622300X0.279400X0*%
%ADD57RoundRect,0.050800X0.279400X0.711200X-0.279400X0.711200X-0.279400X-0.711200X0.279400X-0.711200X0*%
%ADD58RoundRect,0.278500X-0.278500X-0.358500X0.278500X-0.358500X0.278500X0.358500X-0.278500X0.358500X0*%
%ADD59RoundRect,0.150400X-0.150399X0.228199X-0.150399X-0.228199X0.150399X-0.228199X0.150399X0.228199X0*%
%ADD60RoundRect,0.150400X-0.150400X-0.306800X0.150400X-0.306800X0.150400X0.306800X-0.150400X0.306800X0*%
%ADD61RoundRect,0.050800X-0.824999X-0.299999X0.824999X-0.299999X0.824999X0.299999X-0.824999X0.299999X0*%
%ADD62RoundRect,0.152400X-0.017961X-0.233487X0.233487X0.017961X0.017961X0.233487X-0.233487X-0.017961X0*%
%ADD63RoundRect,0.102000X-0.500000X0.400000X-0.500000X-0.400000X0.500000X-0.400000X0.500000X0.400000X0*%
%ADD64RoundRect,0.102000X-0.400000X0.500000X-0.400000X-0.500000X0.400000X-0.500000X0.400000X0.500000X0*%
%ADD65RoundRect,0.139700X-0.165100X-0.139700X0.165100X-0.139700X0.165100X0.139700X-0.165100X0.139700X0*%
%ADD66RoundRect,0.150400X0.306800X-0.150400X0.306800X0.150400X-0.306800X0.150400X-0.306800X-0.150400X0*%
%ADD67RoundRect,0.025400X0.304800X0.114300X-0.304800X0.114300X-0.304800X-0.114300X0.304800X-0.114300X0*%
%ADD68RoundRect,0.050800X1.050000X-1.050000X1.050000X1.050000X-1.050000X1.050000X-1.050000X-1.050000X0*%
%ADD69C,2.501600*%
%ADD70RoundRect,0.050800X0.525000X-0.500000X0.525000X0.500000X-0.525000X0.500000X-0.525000X-0.500000X0*%
%ADD71RoundRect,0.050800X0.330200X-0.952500X0.330200X0.952500X-0.330200X0.952500X-0.330200X-0.952500X0*%
%ADD72C,5.801600*%
%ADD73RoundRect,0.050800X1.447800X-0.495300X1.447800X0.495300X-1.447800X0.495300X-1.447800X-0.495300X0*%
%ADD74RoundRect,0.050800X1.803400X-0.901700X1.803400X0.901700X-1.803400X0.901700X-1.803400X-0.901700X0*%
%ADD75RoundRect,0.150400X-0.267709X0.055013X0.055013X-0.267709X0.267709X-0.055013X-0.055013X0.267709X0*%
%ADD76RoundRect,0.152400X0.233487X-0.017961X-0.017961X0.233487X-0.233487X0.017961X0.017961X-0.233487X0*%
%ADD77RoundRect,0.150400X0.150400X0.306800X-0.150400X0.306800X-0.150400X-0.306800X0.150400X-0.306800X0*%
%ADD78RoundRect,0.281000X-0.281000X-0.311000X0.281000X-0.311000X0.281000X0.311000X-0.281000X0.311000X0*%
%ADD79FreePoly0,0.000000*%
%ADD80FreePoly1,0.000000*%
%ADD81RoundRect,0.095000X-0.335000X0.285000X-0.335000X-0.285000X0.335000X-0.285000X0.335000X0.285000X0*%
%ADD82RoundRect,0.152400X-0.177800X-0.152400X0.177800X-0.152400X0.177800X0.152400X-0.177800X0.152400X0*%
%ADD83RoundRect,0.102000X0.500000X-0.400000X0.500000X0.400000X-0.500000X0.400000X-0.500000X-0.400000X0*%
%ADD84RoundRect,0.102000X0.400000X-0.500000X0.400000X0.500000X-0.400000X0.500000X-0.400000X-0.500000X0*%
%ADD85RoundRect,0.025400X-0.114300X0.304800X-0.114300X-0.304800X0.114300X-0.304800X0.114300X0.304800X0*%
%ADD86RoundRect,0.102000X-0.400000X-0.500000X0.400000X-0.500000X0.400000X0.500000X-0.400000X0.500000X0*%
%ADD87RoundRect,0.102000X-0.500000X-0.400000X0.500000X-0.400000X0.500000X0.400000X-0.500000X0.400000X0*%
%ADD88RoundRect,0.050800X-0.775000X-1.100000X0.775000X-1.100000X0.775000X1.100000X-0.775000X1.100000X0*%
%ADD89RoundRect,0.150400X-0.306800X0.150400X-0.306800X-0.150400X0.306800X-0.150400X0.306800X0.150400X0*%
%ADD90RoundRect,0.050800X0.848528X0.070711X0.070711X0.848528X-0.848528X-0.070711X-0.070711X-0.848528X0*%
%ADD91RoundRect,0.050800X0.134704X0.296348X-0.296348X-0.134704X-0.134704X-0.296348X0.296348X0.134704X0*%
%ADD92FreePoly0,180.000000*%
%ADD93FreePoly1,180.000000*%
%ADD94RoundRect,0.050800X0.949999X-0.299999X0.949999X0.299999X-0.949999X0.299999X-0.949999X-0.299999X0*%
%ADD95RoundRect,0.102000X0.400000X0.500000X-0.400000X0.500000X-0.400000X-0.500000X0.400000X-0.500000X0*%
%ADD96RoundRect,0.102000X0.500000X0.400000X-0.500000X0.400000X-0.500000X-0.400000X0.500000X-0.400000X0*%
%ADD97C,1.803400*%
G04 APERTURE END LIST*
D10*
%TO.C,D5*%
X14676000Y-11325440D02*
X14676100Y-11325440D01*
X14676300Y-11325440D01*
X14676400Y-11325540D01*
X14676500Y-11325540D01*
X14676600Y-11325640D01*
X14676700Y-11325640D01*
X14676900Y-11325740D01*
X14677000Y-11325840D01*
X14677100Y-11325940D01*
X14677200Y-11325940D01*
X14677300Y-11326040D01*
X14677400Y-11326140D01*
X14677400Y-11326240D01*
X14677500Y-11326340D01*
X14677600Y-11326440D01*
X14677700Y-11326540D01*
X14677700Y-11326740D01*
X14677800Y-11326840D01*
X14677800Y-11326940D01*
X14677900Y-11327040D01*
X14677900Y-11327240D01*
X14677900Y-11327340D01*
X14678000Y-11327440D01*
X14678000Y-11327540D01*
X14678000Y-11327740D01*
X14678000Y-11327840D01*
X14678000Y-11332840D01*
X14678000Y-11332940D01*
X14678000Y-11333140D01*
X14678000Y-11333240D01*
X14677900Y-11333340D01*
X14677900Y-11333440D01*
X14677900Y-11333640D01*
X14677800Y-11333740D01*
X14677800Y-11333840D01*
X14677700Y-11333940D01*
X14677700Y-11334040D01*
X14677600Y-11334240D01*
X14677500Y-11334340D01*
X14677400Y-11334440D01*
X14677400Y-11334540D01*
X14677300Y-11334640D01*
X14677200Y-11334740D01*
X14677100Y-11334740D01*
X14677000Y-11334840D01*
X14676900Y-11334940D01*
X14676700Y-11335040D01*
X14676600Y-11335040D01*
X14676500Y-11335140D01*
X14676400Y-11335140D01*
X14676300Y-11335240D01*
X14676100Y-11335240D01*
X14676000Y-11335240D01*
X14675900Y-11335340D01*
X14675800Y-11335340D01*
X14675600Y-11335340D01*
X14675500Y-11335340D01*
X14670500Y-11335340D01*
X14670400Y-11335340D01*
X14670200Y-11335340D01*
X14670100Y-11335340D01*
X14670000Y-11335240D01*
X14669900Y-11335240D01*
X14669700Y-11335240D01*
X14669600Y-11335140D01*
X14669500Y-11335140D01*
X14669400Y-11335040D01*
X14669200Y-11335040D01*
X14669100Y-11334940D01*
X14669000Y-11334840D01*
X14668900Y-11334740D01*
X14668800Y-11334740D01*
X14668700Y-11334640D01*
X14668600Y-11334540D01*
X14668600Y-11334440D01*
X14668500Y-11334340D01*
X14668400Y-11334240D01*
X14668300Y-11334040D01*
X14668300Y-11333940D01*
X14668200Y-11333840D01*
X14668200Y-11333740D01*
X14668100Y-11333640D01*
X14668100Y-11333440D01*
X14668100Y-11333340D01*
X14668000Y-11333240D01*
X14668000Y-11333140D01*
X14668000Y-11332940D01*
X14668000Y-11332840D01*
X14668000Y-11327840D01*
X14668000Y-11327740D01*
X14668000Y-11327540D01*
X14668000Y-11327440D01*
X14668100Y-11327340D01*
X14668100Y-11327240D01*
X14668100Y-11327040D01*
X14668200Y-11326940D01*
X14668200Y-11326840D01*
X14668300Y-11326740D01*
X14668300Y-11326540D01*
X14668400Y-11326440D01*
X14668500Y-11326340D01*
X14668600Y-11326240D01*
X14668600Y-11326140D01*
X14668700Y-11326040D01*
X14668800Y-11325940D01*
X14668900Y-11325940D01*
X14669000Y-11325840D01*
X14669100Y-11325740D01*
X14669200Y-11325640D01*
X14669400Y-11325640D01*
X14669500Y-11325540D01*
X14669600Y-11325540D01*
X14669700Y-11325440D01*
X14669900Y-11325440D01*
X14670000Y-11325440D01*
X14670100Y-11325340D01*
X14670200Y-11325340D01*
X14670400Y-11325340D01*
X14670500Y-11325340D01*
X14675500Y-11325340D01*
X14675600Y-11325340D01*
X14675800Y-11325340D01*
X14675900Y-11325340D01*
X14676000Y-11325440D01*
G36*
X14676000Y-11325440D02*
G01*
X14676100Y-11325440D01*
X14676300Y-11325440D01*
X14676400Y-11325540D01*
X14676500Y-11325540D01*
X14676600Y-11325640D01*
X14676700Y-11325640D01*
X14676900Y-11325740D01*
X14677000Y-11325840D01*
X14677100Y-11325940D01*
X14677200Y-11325940D01*
X14677300Y-11326040D01*
X14677400Y-11326140D01*
X14677400Y-11326240D01*
X14677500Y-11326340D01*
X14677600Y-11326440D01*
X14677700Y-11326540D01*
X14677700Y-11326740D01*
X14677800Y-11326840D01*
X14677800Y-11326940D01*
X14677900Y-11327040D01*
X14677900Y-11327240D01*
X14677900Y-11327340D01*
X14678000Y-11327440D01*
X14678000Y-11327540D01*
X14678000Y-11327740D01*
X14678000Y-11327840D01*
X14678000Y-11332840D01*
X14678000Y-11332940D01*
X14678000Y-11333140D01*
X14678000Y-11333240D01*
X14677900Y-11333340D01*
X14677900Y-11333440D01*
X14677900Y-11333640D01*
X14677800Y-11333740D01*
X14677800Y-11333840D01*
X14677700Y-11333940D01*
X14677700Y-11334040D01*
X14677600Y-11334240D01*
X14677500Y-11334340D01*
X14677400Y-11334440D01*
X14677400Y-11334540D01*
X14677300Y-11334640D01*
X14677200Y-11334740D01*
X14677100Y-11334740D01*
X14677000Y-11334840D01*
X14676900Y-11334940D01*
X14676700Y-11335040D01*
X14676600Y-11335040D01*
X14676500Y-11335140D01*
X14676400Y-11335140D01*
X14676300Y-11335240D01*
X14676100Y-11335240D01*
X14676000Y-11335240D01*
X14675900Y-11335340D01*
X14675800Y-11335340D01*
X14675600Y-11335340D01*
X14675500Y-11335340D01*
X14670500Y-11335340D01*
X14670400Y-11335340D01*
X14670200Y-11335340D01*
X14670100Y-11335340D01*
X14670000Y-11335240D01*
X14669900Y-11335240D01*
X14669700Y-11335240D01*
X14669600Y-11335140D01*
X14669500Y-11335140D01*
X14669400Y-11335040D01*
X14669200Y-11335040D01*
X14669100Y-11334940D01*
X14669000Y-11334840D01*
X14668900Y-11334740D01*
X14668800Y-11334740D01*
X14668700Y-11334640D01*
X14668600Y-11334540D01*
X14668600Y-11334440D01*
X14668500Y-11334340D01*
X14668400Y-11334240D01*
X14668300Y-11334040D01*
X14668300Y-11333940D01*
X14668200Y-11333840D01*
X14668200Y-11333740D01*
X14668100Y-11333640D01*
X14668100Y-11333440D01*
X14668100Y-11333340D01*
X14668000Y-11333240D01*
X14668000Y-11333140D01*
X14668000Y-11332940D01*
X14668000Y-11332840D01*
X14668000Y-11327840D01*
X14668000Y-11327740D01*
X14668000Y-11327540D01*
X14668000Y-11327440D01*
X14668100Y-11327340D01*
X14668100Y-11327240D01*
X14668100Y-11327040D01*
X14668200Y-11326940D01*
X14668200Y-11326840D01*
X14668300Y-11326740D01*
X14668300Y-11326540D01*
X14668400Y-11326440D01*
X14668500Y-11326340D01*
X14668600Y-11326240D01*
X14668600Y-11326140D01*
X14668700Y-11326040D01*
X14668800Y-11325940D01*
X14668900Y-11325940D01*
X14669000Y-11325840D01*
X14669100Y-11325740D01*
X14669200Y-11325640D01*
X14669400Y-11325640D01*
X14669500Y-11325540D01*
X14669600Y-11325540D01*
X14669700Y-11325440D01*
X14669900Y-11325440D01*
X14670000Y-11325440D01*
X14670100Y-11325340D01*
X14670200Y-11325340D01*
X14670400Y-11325340D01*
X14670500Y-11325340D01*
X14675500Y-11325340D01*
X14675600Y-11325340D01*
X14675800Y-11325340D01*
X14675900Y-11325340D01*
X14676000Y-11325440D01*
G37*
X14726000Y-11300440D02*
X14726100Y-11300440D01*
X14726300Y-11300440D01*
X14726400Y-11300540D01*
X14726500Y-11300540D01*
X14726600Y-11300640D01*
X14726800Y-11300640D01*
X14726900Y-11300740D01*
X14727000Y-11300840D01*
X14727100Y-11300940D01*
X14727200Y-11300940D01*
X14727300Y-11301040D01*
X14727400Y-11301140D01*
X14727400Y-11301240D01*
X14727500Y-11301340D01*
X14727600Y-11301440D01*
X14727700Y-11301640D01*
X14727700Y-11301740D01*
X14727800Y-11301840D01*
X14727800Y-11301940D01*
X14727900Y-11302040D01*
X14727900Y-11302240D01*
X14727900Y-11302340D01*
X14728000Y-11302440D01*
X14728000Y-11302540D01*
X14728000Y-11302740D01*
X14728000Y-11302840D01*
X14728000Y-11307840D01*
X14728000Y-11307940D01*
X14728000Y-11308140D01*
X14728000Y-11308240D01*
X14727900Y-11308340D01*
X14727900Y-11308440D01*
X14727900Y-11308640D01*
X14727800Y-11308740D01*
X14727800Y-11308840D01*
X14727700Y-11308940D01*
X14727700Y-11309140D01*
X14727600Y-11309240D01*
X14727500Y-11309340D01*
X14727400Y-11309440D01*
X14727400Y-11309540D01*
X14727300Y-11309640D01*
X14727200Y-11309740D01*
X14727100Y-11309740D01*
X14727000Y-11309840D01*
X14726900Y-11309940D01*
X14726700Y-11310040D01*
X14726600Y-11310040D01*
X14726500Y-11310140D01*
X14726400Y-11310140D01*
X14726300Y-11310240D01*
X14726100Y-11310240D01*
X14726000Y-11310240D01*
X14725900Y-11310340D01*
X14725800Y-11310340D01*
X14725600Y-11310340D01*
X14725500Y-11310340D01*
X14720500Y-11310340D01*
X14720400Y-11310340D01*
X14720200Y-11310340D01*
X14720100Y-11310340D01*
X14720000Y-11310240D01*
X14719900Y-11310240D01*
X14719700Y-11310240D01*
X14719600Y-11310140D01*
X14719500Y-11310140D01*
X14719400Y-11310040D01*
X14719300Y-11310040D01*
X14719100Y-11309940D01*
X14719000Y-11309840D01*
X14718900Y-11309740D01*
X14718800Y-11309740D01*
X14718700Y-11309640D01*
X14718600Y-11309540D01*
X14718600Y-11309440D01*
X14718500Y-11309340D01*
X14718400Y-11309240D01*
X14718300Y-11309140D01*
X14718300Y-11308940D01*
X14718200Y-11308840D01*
X14718200Y-11308740D01*
X14718100Y-11308640D01*
X14718100Y-11308440D01*
X14718100Y-11308340D01*
X14718000Y-11308240D01*
X14718000Y-11308140D01*
X14718000Y-11307940D01*
X14718000Y-11307840D01*
X14718000Y-11302840D01*
X14718000Y-11302740D01*
X14718000Y-11302540D01*
X14718000Y-11302440D01*
X14718100Y-11302340D01*
X14718100Y-11302240D01*
X14718100Y-11302040D01*
X14718200Y-11301940D01*
X14718200Y-11301840D01*
X14718300Y-11301740D01*
X14718300Y-11301640D01*
X14718400Y-11301440D01*
X14718500Y-11301340D01*
X14718600Y-11301240D01*
X14718600Y-11301140D01*
X14718700Y-11301040D01*
X14718800Y-11300940D01*
X14718900Y-11300940D01*
X14719000Y-11300840D01*
X14719100Y-11300740D01*
X14719200Y-11300640D01*
X14719400Y-11300640D01*
X14719500Y-11300540D01*
X14719600Y-11300540D01*
X14719700Y-11300440D01*
X14719900Y-11300440D01*
X14720000Y-11300440D01*
X14720100Y-11300340D01*
X14720200Y-11300340D01*
X14720400Y-11300340D01*
X14720500Y-11300340D01*
X14725500Y-11300340D01*
X14725600Y-11300340D01*
X14725800Y-11300340D01*
X14725900Y-11300340D01*
X14726000Y-11300440D01*
G36*
X14726000Y-11300440D02*
G01*
X14726100Y-11300440D01*
X14726300Y-11300440D01*
X14726400Y-11300540D01*
X14726500Y-11300540D01*
X14726600Y-11300640D01*
X14726800Y-11300640D01*
X14726900Y-11300740D01*
X14727000Y-11300840D01*
X14727100Y-11300940D01*
X14727200Y-11300940D01*
X14727300Y-11301040D01*
X14727400Y-11301140D01*
X14727400Y-11301240D01*
X14727500Y-11301340D01*
X14727600Y-11301440D01*
X14727700Y-11301640D01*
X14727700Y-11301740D01*
X14727800Y-11301840D01*
X14727800Y-11301940D01*
X14727900Y-11302040D01*
X14727900Y-11302240D01*
X14727900Y-11302340D01*
X14728000Y-11302440D01*
X14728000Y-11302540D01*
X14728000Y-11302740D01*
X14728000Y-11302840D01*
X14728000Y-11307840D01*
X14728000Y-11307940D01*
X14728000Y-11308140D01*
X14728000Y-11308240D01*
X14727900Y-11308340D01*
X14727900Y-11308440D01*
X14727900Y-11308640D01*
X14727800Y-11308740D01*
X14727800Y-11308840D01*
X14727700Y-11308940D01*
X14727700Y-11309140D01*
X14727600Y-11309240D01*
X14727500Y-11309340D01*
X14727400Y-11309440D01*
X14727400Y-11309540D01*
X14727300Y-11309640D01*
X14727200Y-11309740D01*
X14727100Y-11309740D01*
X14727000Y-11309840D01*
X14726900Y-11309940D01*
X14726700Y-11310040D01*
X14726600Y-11310040D01*
X14726500Y-11310140D01*
X14726400Y-11310140D01*
X14726300Y-11310240D01*
X14726100Y-11310240D01*
X14726000Y-11310240D01*
X14725900Y-11310340D01*
X14725800Y-11310340D01*
X14725600Y-11310340D01*
X14725500Y-11310340D01*
X14720500Y-11310340D01*
X14720400Y-11310340D01*
X14720200Y-11310340D01*
X14720100Y-11310340D01*
X14720000Y-11310240D01*
X14719900Y-11310240D01*
X14719700Y-11310240D01*
X14719600Y-11310140D01*
X14719500Y-11310140D01*
X14719400Y-11310040D01*
X14719300Y-11310040D01*
X14719100Y-11309940D01*
X14719000Y-11309840D01*
X14718900Y-11309740D01*
X14718800Y-11309740D01*
X14718700Y-11309640D01*
X14718600Y-11309540D01*
X14718600Y-11309440D01*
X14718500Y-11309340D01*
X14718400Y-11309240D01*
X14718300Y-11309140D01*
X14718300Y-11308940D01*
X14718200Y-11308840D01*
X14718200Y-11308740D01*
X14718100Y-11308640D01*
X14718100Y-11308440D01*
X14718100Y-11308340D01*
X14718000Y-11308240D01*
X14718000Y-11308140D01*
X14718000Y-11307940D01*
X14718000Y-11307840D01*
X14718000Y-11302840D01*
X14718000Y-11302740D01*
X14718000Y-11302540D01*
X14718000Y-11302440D01*
X14718100Y-11302340D01*
X14718100Y-11302240D01*
X14718100Y-11302040D01*
X14718200Y-11301940D01*
X14718200Y-11301840D01*
X14718300Y-11301740D01*
X14718300Y-11301640D01*
X14718400Y-11301440D01*
X14718500Y-11301340D01*
X14718600Y-11301240D01*
X14718600Y-11301140D01*
X14718700Y-11301040D01*
X14718800Y-11300940D01*
X14718900Y-11300940D01*
X14719000Y-11300840D01*
X14719100Y-11300740D01*
X14719200Y-11300640D01*
X14719400Y-11300640D01*
X14719500Y-11300540D01*
X14719600Y-11300540D01*
X14719700Y-11300440D01*
X14719900Y-11300440D01*
X14720000Y-11300440D01*
X14720100Y-11300340D01*
X14720200Y-11300340D01*
X14720400Y-11300340D01*
X14720500Y-11300340D01*
X14725500Y-11300340D01*
X14725600Y-11300340D01*
X14725800Y-11300340D01*
X14725900Y-11300340D01*
X14726000Y-11300440D01*
G37*
X14776000Y-11325440D02*
X14776100Y-11325440D01*
X14776300Y-11325440D01*
X14776400Y-11325540D01*
X14776500Y-11325540D01*
X14776600Y-11325640D01*
X14776800Y-11325640D01*
X14776900Y-11325740D01*
X14777000Y-11325840D01*
X14777100Y-11325940D01*
X14777200Y-11325940D01*
X14777300Y-11326040D01*
X14777400Y-11326140D01*
X14777400Y-11326240D01*
X14777500Y-11326340D01*
X14777600Y-11326440D01*
X14777700Y-11326640D01*
X14777700Y-11326740D01*
X14777800Y-11326840D01*
X14777800Y-11326940D01*
X14777900Y-11327040D01*
X14777900Y-11327240D01*
X14777900Y-11327340D01*
X14778000Y-11327440D01*
X14778000Y-11327540D01*
X14778000Y-11327740D01*
X14778000Y-11327840D01*
X14778000Y-11332840D01*
X14778000Y-11332940D01*
X14778000Y-11333140D01*
X14778000Y-11333240D01*
X14777900Y-11333340D01*
X14777900Y-11333440D01*
X14777900Y-11333640D01*
X14777800Y-11333740D01*
X14777800Y-11333840D01*
X14777700Y-11333940D01*
X14777700Y-11334040D01*
X14777600Y-11334240D01*
X14777500Y-11334340D01*
X14777400Y-11334440D01*
X14777400Y-11334540D01*
X14777300Y-11334640D01*
X14777200Y-11334740D01*
X14777100Y-11334740D01*
X14777000Y-11334840D01*
X14776900Y-11334940D01*
X14776800Y-11335040D01*
X14776600Y-11335040D01*
X14776500Y-11335140D01*
X14776400Y-11335140D01*
X14776300Y-11335240D01*
X14776100Y-11335240D01*
X14776000Y-11335240D01*
X14775900Y-11335340D01*
X14775800Y-11335340D01*
X14775600Y-11335340D01*
X14775500Y-11335340D01*
X14770500Y-11335340D01*
X14770400Y-11335340D01*
X14770200Y-11335340D01*
X14770100Y-11335340D01*
X14770000Y-11335240D01*
X14769900Y-11335240D01*
X14769700Y-11335240D01*
X14769600Y-11335140D01*
X14769500Y-11335140D01*
X14769400Y-11335040D01*
X14769300Y-11335040D01*
X14769100Y-11334940D01*
X14769000Y-11334840D01*
X14768900Y-11334740D01*
X14768800Y-11334740D01*
X14768700Y-11334640D01*
X14768600Y-11334540D01*
X14768600Y-11334440D01*
X14768500Y-11334340D01*
X14768400Y-11334240D01*
X14768300Y-11334040D01*
X14768300Y-11333940D01*
X14768200Y-11333840D01*
X14768200Y-11333740D01*
X14768100Y-11333640D01*
X14768100Y-11333440D01*
X14768100Y-11333340D01*
X14768000Y-11333240D01*
X14768000Y-11333140D01*
X14768000Y-11332940D01*
X14768000Y-11332840D01*
X14768000Y-11327840D01*
X14768000Y-11327740D01*
X14768000Y-11327540D01*
X14768000Y-11327440D01*
X14768100Y-11327340D01*
X14768100Y-11327240D01*
X14768100Y-11327040D01*
X14768200Y-11326940D01*
X14768200Y-11326840D01*
X14768300Y-11326740D01*
X14768300Y-11326540D01*
X14768400Y-11326440D01*
X14768500Y-11326340D01*
X14768600Y-11326240D01*
X14768600Y-11326140D01*
X14768700Y-11326040D01*
X14768800Y-11325940D01*
X14768900Y-11325940D01*
X14769000Y-11325840D01*
X14769100Y-11325740D01*
X14769300Y-11325640D01*
X14769400Y-11325640D01*
X14769500Y-11325540D01*
X14769600Y-11325540D01*
X14769700Y-11325440D01*
X14769900Y-11325440D01*
X14770000Y-11325440D01*
X14770100Y-11325340D01*
X14770200Y-11325340D01*
X14770400Y-11325340D01*
X14770500Y-11325340D01*
X14775500Y-11325340D01*
X14775600Y-11325340D01*
X14775800Y-11325340D01*
X14775900Y-11325340D01*
X14776000Y-11325440D01*
G36*
X14776000Y-11325440D02*
G01*
X14776100Y-11325440D01*
X14776300Y-11325440D01*
X14776400Y-11325540D01*
X14776500Y-11325540D01*
X14776600Y-11325640D01*
X14776800Y-11325640D01*
X14776900Y-11325740D01*
X14777000Y-11325840D01*
X14777100Y-11325940D01*
X14777200Y-11325940D01*
X14777300Y-11326040D01*
X14777400Y-11326140D01*
X14777400Y-11326240D01*
X14777500Y-11326340D01*
X14777600Y-11326440D01*
X14777700Y-11326640D01*
X14777700Y-11326740D01*
X14777800Y-11326840D01*
X14777800Y-11326940D01*
X14777900Y-11327040D01*
X14777900Y-11327240D01*
X14777900Y-11327340D01*
X14778000Y-11327440D01*
X14778000Y-11327540D01*
X14778000Y-11327740D01*
X14778000Y-11327840D01*
X14778000Y-11332840D01*
X14778000Y-11332940D01*
X14778000Y-11333140D01*
X14778000Y-11333240D01*
X14777900Y-11333340D01*
X14777900Y-11333440D01*
X14777900Y-11333640D01*
X14777800Y-11333740D01*
X14777800Y-11333840D01*
X14777700Y-11333940D01*
X14777700Y-11334040D01*
X14777600Y-11334240D01*
X14777500Y-11334340D01*
X14777400Y-11334440D01*
X14777400Y-11334540D01*
X14777300Y-11334640D01*
X14777200Y-11334740D01*
X14777100Y-11334740D01*
X14777000Y-11334840D01*
X14776900Y-11334940D01*
X14776800Y-11335040D01*
X14776600Y-11335040D01*
X14776500Y-11335140D01*
X14776400Y-11335140D01*
X14776300Y-11335240D01*
X14776100Y-11335240D01*
X14776000Y-11335240D01*
X14775900Y-11335340D01*
X14775800Y-11335340D01*
X14775600Y-11335340D01*
X14775500Y-11335340D01*
X14770500Y-11335340D01*
X14770400Y-11335340D01*
X14770200Y-11335340D01*
X14770100Y-11335340D01*
X14770000Y-11335240D01*
X14769900Y-11335240D01*
X14769700Y-11335240D01*
X14769600Y-11335140D01*
X14769500Y-11335140D01*
X14769400Y-11335040D01*
X14769300Y-11335040D01*
X14769100Y-11334940D01*
X14769000Y-11334840D01*
X14768900Y-11334740D01*
X14768800Y-11334740D01*
X14768700Y-11334640D01*
X14768600Y-11334540D01*
X14768600Y-11334440D01*
X14768500Y-11334340D01*
X14768400Y-11334240D01*
X14768300Y-11334040D01*
X14768300Y-11333940D01*
X14768200Y-11333840D01*
X14768200Y-11333740D01*
X14768100Y-11333640D01*
X14768100Y-11333440D01*
X14768100Y-11333340D01*
X14768000Y-11333240D01*
X14768000Y-11333140D01*
X14768000Y-11332940D01*
X14768000Y-11332840D01*
X14768000Y-11327840D01*
X14768000Y-11327740D01*
X14768000Y-11327540D01*
X14768000Y-11327440D01*
X14768100Y-11327340D01*
X14768100Y-11327240D01*
X14768100Y-11327040D01*
X14768200Y-11326940D01*
X14768200Y-11326840D01*
X14768300Y-11326740D01*
X14768300Y-11326540D01*
X14768400Y-11326440D01*
X14768500Y-11326340D01*
X14768600Y-11326240D01*
X14768600Y-11326140D01*
X14768700Y-11326040D01*
X14768800Y-11325940D01*
X14768900Y-11325940D01*
X14769000Y-11325840D01*
X14769100Y-11325740D01*
X14769300Y-11325640D01*
X14769400Y-11325640D01*
X14769500Y-11325540D01*
X14769600Y-11325540D01*
X14769700Y-11325440D01*
X14769900Y-11325440D01*
X14770000Y-11325440D01*
X14770100Y-11325340D01*
X14770200Y-11325340D01*
X14770400Y-11325340D01*
X14770500Y-11325340D01*
X14775500Y-11325340D01*
X14775600Y-11325340D01*
X14775800Y-11325340D01*
X14775900Y-11325340D01*
X14776000Y-11325440D01*
G37*
%TO.C,FL1*%
X12399886Y-10596124D02*
X12329886Y-10596124D01*
X12329886Y-10526124D01*
X12399886Y-10526124D01*
X12399886Y-10596124D01*
G36*
X12399886Y-10596124D02*
G01*
X12329886Y-10596124D01*
X12329886Y-10526124D01*
X12399886Y-10526124D01*
X12399886Y-10596124D01*
G37*
X12444886Y-10553624D02*
X12409886Y-10553624D01*
X12409886Y-10483624D01*
X12444886Y-10483624D01*
X12444886Y-10553624D01*
G36*
X12444886Y-10553624D02*
G01*
X12409886Y-10553624D01*
X12409886Y-10483624D01*
X12444886Y-10483624D01*
X12444886Y-10553624D01*
G37*
X12444886Y-10638624D02*
X12409886Y-10638624D01*
X12409886Y-10568624D01*
X12444886Y-10568624D01*
X12444886Y-10638624D01*
G36*
X12444886Y-10638624D02*
G01*
X12409886Y-10638624D01*
X12409886Y-10568624D01*
X12444886Y-10568624D01*
X12444886Y-10638624D01*
G37*
X12524886Y-10596124D02*
X12454886Y-10596124D01*
X12454886Y-10526124D01*
X12524886Y-10526124D01*
X12524886Y-10596124D01*
G36*
X12524886Y-10596124D02*
G01*
X12454886Y-10596124D01*
X12454886Y-10526124D01*
X12524886Y-10526124D01*
X12524886Y-10596124D01*
G37*
%TO.C,JP2*%
G36*
X15090411Y-11680000D02*
G01*
X15240411Y-11680000D01*
X15240411Y-11650000D01*
X15090411Y-11650000D01*
X15090411Y-11680000D01*
G37*
%TO.C,J7*%
X11162418Y-11419000D02*
X11177418Y-11434000D01*
X11272417Y-11434000D01*
X11272417Y-11554000D01*
X11042418Y-11554000D01*
X11042418Y-11324000D01*
X11162418Y-11324000D01*
X11162418Y-11419000D01*
G36*
X11162418Y-11419000D02*
G01*
X11177418Y-11434000D01*
X11272417Y-11434000D01*
X11272417Y-11554000D01*
X11042418Y-11554000D01*
X11042418Y-11324000D01*
X11162418Y-11324000D01*
X11162418Y-11419000D01*
G37*
D11*
%TO.C,JP1*%
G36*
X12547386Y-11213624D02*
G01*
X12517386Y-11213624D01*
X12517386Y-11063624D01*
X12547386Y-11063624D01*
X12547386Y-11213624D01*
G37*
D10*
%TO.C,J9*%
X13662417Y-9664000D02*
X13542417Y-9664000D01*
X13542417Y-9569000D01*
X13527417Y-9554000D01*
X13432417Y-9554000D01*
X13432417Y-9434000D01*
X13662417Y-9434000D01*
X13662417Y-9664000D01*
G36*
X13662417Y-9664000D02*
G01*
X13542417Y-9664000D01*
X13542417Y-9569000D01*
X13527417Y-9554000D01*
X13432417Y-9554000D01*
X13432417Y-9434000D01*
X13662417Y-9434000D01*
X13662417Y-9664000D01*
G37*
%TO.C,J8*%
X13662417Y-11554000D02*
X13432417Y-11554000D01*
X13432417Y-11434000D01*
X13527417Y-11434000D01*
X13542417Y-11419000D01*
X13542417Y-11324000D01*
X13662417Y-11324000D01*
X13662417Y-11554000D01*
G36*
X13662417Y-11554000D02*
G01*
X13432417Y-11554000D01*
X13432417Y-11434000D01*
X13527417Y-11434000D01*
X13542417Y-11419000D01*
X13542417Y-11324000D01*
X13662417Y-11324000D01*
X13662417Y-11554000D01*
G37*
%TO.C,JP3*%
G36*
X15019000Y-8920000D02*
G01*
X14989000Y-8920000D01*
X14989000Y-8770000D01*
X15019000Y-8770000D01*
X15019000Y-8920000D01*
G37*
%TO.C,J10*%
X11272417Y-9554000D02*
X11177418Y-9554000D01*
X11162418Y-9569000D01*
X11162418Y-9664000D01*
X11042418Y-9664000D01*
X11042418Y-9434000D01*
X11272417Y-9434000D01*
X11272417Y-9554000D01*
G36*
X11272417Y-9554000D02*
G01*
X11177418Y-9554000D01*
X11162418Y-9569000D01*
X11162418Y-9664000D01*
X11042418Y-9664000D01*
X11042418Y-9434000D01*
X11272417Y-9434000D01*
X11272417Y-9554000D01*
G37*
%TD*%
D12*
%TO.C,MCU1*%
X14847177Y-9835481D03*
X14818893Y-9863766D03*
X14790608Y-9892050D03*
X14762324Y-9920334D03*
X14734040Y-9948618D03*
X14705755Y-9976903D03*
X14677471Y-10005187D03*
X14649187Y-10033471D03*
X14620903Y-10061756D03*
X14592618Y-10090040D03*
X14564334Y-10118324D03*
X14536050Y-10146608D03*
X14507766Y-10174893D03*
X14479481Y-10203177D03*
D13*
X14479481Y-10316823D03*
X14507766Y-10345107D03*
X14536050Y-10373392D03*
X14564334Y-10401676D03*
X14592618Y-10429960D03*
X14620903Y-10458245D03*
X14649187Y-10486529D03*
X14677471Y-10514813D03*
X14705755Y-10543097D03*
X14734040Y-10571382D03*
X14762324Y-10599666D03*
X14790608Y-10627950D03*
X14818893Y-10656234D03*
X14847177Y-10684519D03*
D12*
X14960823Y-10684519D03*
X14989107Y-10656234D03*
X15017392Y-10627950D03*
X15045676Y-10599666D03*
X15073960Y-10571382D03*
X15102244Y-10543097D03*
X15130529Y-10514813D03*
X15158813Y-10486529D03*
X15187097Y-10458245D03*
X15215382Y-10429960D03*
X15243666Y-10401676D03*
X15271950Y-10373392D03*
X15300234Y-10345107D03*
X15328519Y-10316823D03*
D13*
X15328519Y-10203177D03*
X15300234Y-10174893D03*
X15271950Y-10146608D03*
X15243666Y-10118324D03*
X15215382Y-10090040D03*
X15187097Y-10061756D03*
X15158813Y-10033471D03*
X15130529Y-10005187D03*
X15102244Y-9976903D03*
X15073960Y-9948618D03*
X15045676Y-9920334D03*
X15017392Y-9892050D03*
X14989107Y-9863766D03*
X14960823Y-9835481D03*
D14*
X14904000Y-10260000D03*
%TD*%
D15*
%TO.C,U1*%
X12692036Y-10725174D03*
X12742036Y-10725174D03*
X12792036Y-10725174D03*
X12842036Y-10725174D03*
X12892036Y-10725174D03*
X12942036Y-10725174D03*
D16*
X13013886Y-10653324D03*
X13013886Y-10603324D03*
X13013886Y-10553324D03*
X13013886Y-10503324D03*
X13013886Y-10453324D03*
X13013886Y-10403324D03*
D15*
X12942036Y-10331474D03*
X12892036Y-10331474D03*
X12842036Y-10331474D03*
X12792036Y-10331474D03*
X12742036Y-10331474D03*
X12692036Y-10331474D03*
D16*
X12620186Y-10403324D03*
X12620186Y-10453324D03*
X12620186Y-10503324D03*
X12620186Y-10553324D03*
X12620186Y-10603324D03*
X12620186Y-10653324D03*
D17*
X12817036Y-10528324D03*
%TD*%
D18*
%TO.C,U3*%
X11612350Y-10422286D03*
X11612350Y-10487285D03*
X11612350Y-10552286D03*
X11612350Y-10617285D03*
D19*
X11706620Y-10711555D03*
X11771620Y-10711555D03*
X11836620Y-10711555D03*
X11901620Y-10711555D03*
D18*
X11995890Y-10617285D03*
X11995890Y-10552286D03*
X11995890Y-10487285D03*
X11995890Y-10422286D03*
D19*
X11901620Y-10328015D03*
X11836620Y-10328015D03*
X11771620Y-10328015D03*
X11706620Y-10328015D03*
D20*
X11804120Y-10519785D03*
%TD*%
D21*
%TO.C,U2*%
X15680736Y-10844710D03*
X15641223Y-10884223D03*
X15711269Y-10954269D03*
X15750782Y-10914756D03*
%TD*%
D22*
%TO.C,U7*%
X14301197Y-9680000D03*
X14301197Y-9585000D03*
X14301197Y-9490000D03*
X14011637Y-9490000D03*
X14011637Y-9585000D03*
X14011637Y-9680000D03*
D23*
X14156417Y-9585000D03*
%TD*%
D24*
%TO.C,J3*%
X16885500Y-11430000D03*
X16775500Y-11390000D03*
X16665500Y-11430000D03*
X16555500Y-11450000D03*
X16445500Y-11430000D03*
X16335500Y-11450000D03*
X16225500Y-11430000D03*
X16115500Y-11430000D03*
D25*
X16196500Y-10375000D03*
X16766500Y-10375000D03*
D26*
X16036500Y-11690000D03*
X17351500Y-11790000D03*
%TD*%
D27*
%TO.C,J6*%
X16447342Y-9016250D03*
D28*
X15847342Y-9016250D03*
D29*
X16457342Y-9126250D03*
X16382342Y-9126250D03*
D30*
X16322342Y-9126250D03*
X16272342Y-9126250D03*
X16222342Y-9126250D03*
X16172342Y-9126250D03*
X16122342Y-9126250D03*
X16072342Y-9126250D03*
X16022342Y-9126250D03*
X15972342Y-9126250D03*
D29*
X15912342Y-9126250D03*
X15837342Y-9126250D03*
D31*
X16287342Y-8706250D03*
X16007342Y-8706250D03*
D32*
X16579342Y-9088750D03*
X15715342Y-9088750D03*
D33*
X16579342Y-8706250D03*
X15715342Y-8706250D03*
%TD*%
D34*
%TO.C,L1*%
X13327417Y-9994000D03*
X13037417Y-9994000D03*
%TD*%
D35*
%TO.C,IC1*%
X16495617Y-9662500D03*
X16545617Y-9662500D03*
X16595617Y-9662500D03*
X16595617Y-9494900D03*
X16545617Y-9494900D03*
X16495617Y-9494900D03*
%TD*%
D36*
%TO.C,L4*%
X11472350Y-10489785D03*
X11428350Y-10489785D03*
%TD*%
D37*
%TO.C,R21*%
X13995089Y-11278089D03*
X13916911Y-11199911D03*
%TD*%
D38*
%TO.C,C3*%
X12582386Y-10948624D03*
X12468086Y-10948624D03*
%TD*%
D39*
%TO.C,R15*%
X15040008Y-11189250D03*
X15040008Y-11078690D03*
%TD*%
D40*
%TO.C,C22*%
X14914206Y-11076820D03*
X14914206Y-11191120D03*
%TD*%
D41*
%TO.C,U6*%
X14639510Y-9089000D03*
X14639510Y-9216000D03*
X14639510Y-9343000D03*
X14639510Y-9470000D03*
X15368490Y-9470000D03*
X15368490Y-9343000D03*
X15368490Y-9216000D03*
X15368490Y-9089000D03*
%TD*%
D42*
%TO.C,LS1*%
X18822000Y-11434000D03*
X17952000Y-11434000D03*
%TD*%
D43*
%TO.C,C21*%
X11302417Y-10489000D03*
X11302417Y-10374700D03*
%TD*%
D44*
%TO.C,H1*%
X12180000Y-12410000D03*
%TD*%
D45*
%TO.C,R17*%
X15956977Y-9820000D03*
X15846417Y-9820000D03*
%TD*%
D39*
%TO.C,R22*%
X16373417Y-9419280D03*
X16373417Y-9308720D03*
%TD*%
D46*
%TO.C,C12*%
X15840500Y-11826000D03*
X15840500Y-11646000D03*
%TD*%
D47*
%TO.C,C28*%
X14511072Y-10675428D03*
X14430250Y-10756250D03*
%TD*%
D48*
%TO.C,C16*%
X17376418Y-8710000D03*
X17376418Y-8890000D03*
%TD*%
D47*
%TO.C,C10*%
X15856411Y-10968589D03*
X15775589Y-11049411D03*
%TD*%
D38*
%TO.C,C1*%
X12582386Y-10828624D03*
X12468086Y-10828624D03*
%TD*%
D43*
%TO.C,C20*%
X18876418Y-8977150D03*
X18876418Y-8862850D03*
%TD*%
D46*
%TO.C,C39*%
X19038418Y-9008500D03*
X19038418Y-8828500D03*
%TD*%
D49*
%TO.C,C38*%
X14451617Y-9657520D03*
X14451617Y-9502520D03*
%TD*%
D50*
%TO.C,C32*%
X15430855Y-10420828D03*
X15511677Y-10501650D03*
%TD*%
D51*
%TO.C,TP6*%
X19038418Y-9258500D03*
%TD*%
D38*
%TO.C,C15*%
X12246686Y-10553624D03*
X12132386Y-10553624D03*
%TD*%
D50*
%TO.C,C35*%
X15176178Y-10672178D03*
X15257000Y-10753000D03*
%TD*%
D52*
%TO.C,J5*%
X14674000Y-11490000D03*
X14574000Y-11490000D03*
X14474000Y-11490000D03*
D53*
X14344000Y-11742500D03*
X14804000Y-11742500D03*
%TD*%
D54*
%TO.C,JP2*%
X15165411Y-11730000D03*
D55*
X15165411Y-11600000D03*
%TD*%
D56*
%TO.C,CR3*%
X19346680Y-10194256D03*
X19346680Y-10384756D03*
X19557500Y-10289506D03*
%TD*%
D57*
%TO.C,IC2*%
X17770742Y-11324195D03*
X17580242Y-11324195D03*
X17675492Y-11517235D03*
%TD*%
D58*
%TO.C,D4*%
X15891917Y-9365000D03*
X15570917Y-9365000D03*
%TD*%
D59*
%TO.C,R10*%
X17206418Y-8734720D03*
X17206418Y-8845280D03*
%TD*%
D60*
%TO.C,R13*%
X16655617Y-10180000D03*
X16805618Y-10180000D03*
%TD*%
D39*
%TO.C,R19*%
X14788403Y-11189250D03*
X14788403Y-11078690D03*
%TD*%
D43*
%TO.C,C19*%
X11182417Y-10489000D03*
X11182417Y-10374700D03*
%TD*%
D61*
%TO.C,U14*%
X17721918Y-8724500D03*
X17721918Y-8851500D03*
X17721918Y-8978500D03*
X17721918Y-9105500D03*
X17721918Y-9232500D03*
X17721918Y-9359500D03*
X17721918Y-9486500D03*
X17721918Y-9613500D03*
X18696918Y-9613500D03*
X18696918Y-9486500D03*
X18696918Y-9359500D03*
X18696918Y-9232500D03*
X18696918Y-9105500D03*
X18696918Y-8978500D03*
X18696918Y-8851500D03*
X18696918Y-8724500D03*
%TD*%
D39*
%TO.C,R1*%
X12791556Y-11044184D03*
X12791556Y-10933624D03*
%TD*%
D62*
%TO.C,C30*%
X15250678Y-9910754D03*
X15331501Y-9829932D03*
%TD*%
D63*
%TO.C,J7*%
X11102418Y-11094000D03*
D64*
X11502417Y-11494000D03*
%TD*%
D65*
%TO.C,C5*%
X13148764Y-10394000D03*
X13263064Y-10394000D03*
%TD*%
D66*
%TO.C,R55*%
X19028000Y-10365000D03*
X19028000Y-10215000D03*
%TD*%
D39*
%TO.C,R18*%
X14663000Y-11189250D03*
X14663000Y-11078690D03*
%TD*%
D62*
%TO.C,C33*%
X15334455Y-9994531D03*
X15415277Y-9913708D03*
%TD*%
D65*
%TO.C,C7*%
X13148117Y-10275850D03*
X13262417Y-10275850D03*
%TD*%
D62*
%TO.C,C27*%
X15502007Y-10162083D03*
X15582830Y-10081261D03*
%TD*%
D38*
%TO.C,C17*%
X11702417Y-10841850D03*
X11588117Y-10841850D03*
%TD*%
D67*
%TO.C,D1*%
X13881507Y-9350000D03*
X13881507Y-9300000D03*
X13881507Y-9250000D03*
X13711327Y-9250000D03*
X13711327Y-9300000D03*
X13711327Y-9350000D03*
%TD*%
D47*
%TO.C,C25*%
X15247724Y-9746156D03*
X15166902Y-9826978D03*
%TD*%
D68*
%TO.C,J4*%
X10640000Y-10490000D03*
D69*
X10897500Y-10747500D03*
X10897500Y-10232500D03*
X10382500Y-10232500D03*
X10382500Y-10747500D03*
%TD*%
D70*
%TO.C,CR1*%
X16970617Y-10180000D03*
X17120617Y-10180000D03*
%TD*%
D40*
%TO.C,C36*%
X17546418Y-9853850D03*
X17546418Y-9968150D03*
%TD*%
D38*
%TO.C,C18*%
X11702417Y-10961850D03*
X11588117Y-10961850D03*
%TD*%
D66*
%TO.C,R6*%
X17780492Y-11165715D03*
X17780492Y-11015715D03*
%TD*%
D71*
%TO.C,U5*%
X16970617Y-9700000D03*
X17120618Y-9700000D03*
X17120618Y-9458700D03*
X16970617Y-9458700D03*
%TD*%
D72*
%TO.C,H2*%
X19380000Y-8110000D03*
%TD*%
D73*
%TO.C,J2*%
X20200000Y-10190000D03*
X20200000Y-10390000D03*
D74*
X20665000Y-10625000D03*
X20665000Y-9955000D03*
%TD*%
D59*
%TO.C,R23*%
X16023417Y-9308720D03*
X16023417Y-9419280D03*
%TD*%
D75*
%TO.C,R25*%
X15512822Y-10675822D03*
X15591000Y-10754000D03*
%TD*%
D76*
%TO.C,C31*%
X14733911Y-9721911D03*
X14653089Y-9641089D03*
%TD*%
D77*
%TO.C,R4*%
X16810618Y-9809350D03*
X16660617Y-9809350D03*
%TD*%
D45*
%TO.C,R16*%
X15956977Y-9697584D03*
X15846417Y-9697584D03*
%TD*%
D50*
%TO.C,C26*%
X15514837Y-10336518D03*
X15595659Y-10417341D03*
%TD*%
D76*
%TO.C,C41*%
X15509411Y-10835411D03*
X15428589Y-10754589D03*
%TD*%
D43*
%TO.C,C9*%
X12872417Y-10146150D03*
X12872417Y-10031850D03*
%TD*%
D60*
%TO.C,R14*%
X16655618Y-9970000D03*
X16805618Y-9970000D03*
%TD*%
D76*
%TO.C,C29*%
X14500411Y-9970411D03*
X14419589Y-9889589D03*
%TD*%
D39*
%TO.C,R20*%
X15165411Y-11189250D03*
X15165411Y-11078690D03*
%TD*%
D50*
%TO.C,C34*%
X13830333Y-11283844D03*
X13911156Y-11364667D03*
%TD*%
D78*
%TO.C,C2*%
X14144067Y-9079520D03*
X14299067Y-9079520D03*
%TD*%
D79*
%TO.C,JP1*%
X12467386Y-11138624D03*
D80*
X12597386Y-11138624D03*
%TD*%
D81*
%TO.C,XTAL1*%
X13079917Y-10861500D03*
X12934917Y-10861500D03*
X12934917Y-10976500D03*
X13079917Y-10976500D03*
%TD*%
D82*
%TO.C,C6*%
X14164417Y-9337520D03*
X14278717Y-9337520D03*
%TD*%
D45*
%TO.C,R24*%
X14761560Y-8914000D03*
X14651000Y-8914000D03*
%TD*%
D82*
%TO.C,C37*%
X15567117Y-9545000D03*
X15681417Y-9545000D03*
%TD*%
D83*
%TO.C,J9*%
X13602417Y-9894000D03*
D84*
X13202417Y-9494000D03*
%TD*%
D70*
%TO.C,CR2*%
X16970618Y-9970000D03*
X17120618Y-9970000D03*
%TD*%
D85*
%TO.C,D3*%
X16247417Y-9391040D03*
X16197417Y-9391040D03*
X16147418Y-9391040D03*
X16147418Y-9561220D03*
X16197417Y-9561220D03*
X16247417Y-9561220D03*
%TD*%
D86*
%TO.C,J8*%
X13202417Y-11494000D03*
D87*
X13602417Y-11094000D03*
%TD*%
D82*
%TO.C,C4*%
X14164417Y-9217520D03*
X14278717Y-9217520D03*
%TD*%
D40*
%TO.C,C43*%
X17546418Y-8735820D03*
X17546418Y-8850120D03*
%TD*%
D88*
%TO.C,C8*%
X19265000Y-11415000D03*
X19705000Y-11415000D03*
%TD*%
D89*
%TO.C,R7*%
X17570172Y-11015715D03*
X17570172Y-11165715D03*
%TD*%
D90*
%TO.C,XTAL2*%
X14170508Y-11120992D03*
X14319000Y-10972500D03*
X14202327Y-10855827D03*
X14053835Y-11004320D03*
%TD*%
D43*
%TO.C,C42*%
X18877418Y-9967150D03*
X18877418Y-9852850D03*
%TD*%
D62*
%TO.C,C24*%
X15418231Y-10078307D03*
X15499053Y-9997485D03*
%TD*%
D60*
%TO.C,R5*%
X16655617Y-9349350D03*
X16805618Y-9349350D03*
%TD*%
D91*
%TO.C,D2*%
X15599523Y-11245188D03*
X15564168Y-11209832D03*
X15528812Y-11174477D03*
X15408477Y-11294812D03*
X15443832Y-11330168D03*
X15479188Y-11365523D03*
%TD*%
D92*
%TO.C,JP3*%
X15069000Y-8845000D03*
D93*
X14939000Y-8845000D03*
%TD*%
D38*
%TO.C,C40*%
X15368300Y-8915000D03*
X15254000Y-8915000D03*
%TD*%
D94*
%TO.C,U12*%
X17727418Y-9845500D03*
X17727418Y-9972500D03*
X17727418Y-10099500D03*
X17727418Y-10226500D03*
X17727418Y-10353500D03*
X17727418Y-10480500D03*
X17727418Y-10607500D03*
X17727418Y-10734500D03*
X18677417Y-10734500D03*
X18677417Y-10607500D03*
X18677417Y-10480500D03*
X18677417Y-10353500D03*
X18677417Y-10226500D03*
X18677417Y-10099500D03*
X18677417Y-9972500D03*
X18677417Y-9845500D03*
%TD*%
D95*
%TO.C,J10*%
X11502417Y-9494000D03*
D96*
X11102418Y-9894000D03*
%TD*%
D72*
%TO.C,H3*%
X19380000Y-12410000D03*
%TD*%
D62*
%TO.C,C23*%
X14515250Y-10841250D03*
X14596072Y-10760428D03*
%TD*%
D97*
%TO.C,J1*%
X14230000Y-8890000D03*
X13976000Y-8890000D03*
X13722000Y-8890000D03*
X13468000Y-8890000D03*
X13214000Y-8890000D03*
X12960000Y-8890000D03*
%TD*%
G36*
X13057304Y-9445969D02*
G01*
X13061879Y-9451249D01*
X13063000Y-9456400D01*
X13063000Y-9469000D01*
X13613252Y-9469000D01*
X13619956Y-9470969D01*
X13624531Y-9476249D01*
X13625652Y-9481394D01*
X13625993Y-10130594D01*
X13624029Y-10137299D01*
X13618751Y-10141877D01*
X13613593Y-10143000D01*
X13588400Y-10143000D01*
X13581696Y-10141032D01*
X13577121Y-10135751D01*
X13576000Y-10130600D01*
X13576000Y-9519000D01*
X11654560Y-9543838D01*
X11647831Y-9541956D01*
X11643188Y-9536735D01*
X11642000Y-9531439D01*
X11642000Y-9519000D01*
X11127594Y-9519000D01*
X11127594Y-10021591D01*
X11125625Y-10028295D01*
X11120345Y-10032870D01*
X11115194Y-10033991D01*
X10977594Y-10033991D01*
X10977594Y-10046591D01*
X10975625Y-10053295D01*
X10970345Y-10057870D01*
X10965194Y-10058991D01*
X10200000Y-10059000D01*
X10200000Y-10929424D01*
X10965017Y-10929394D01*
X10971721Y-10931362D01*
X10976297Y-10936642D01*
X10977418Y-10941794D01*
X10977418Y-10954394D01*
X11115194Y-10954394D01*
X11121898Y-10956362D01*
X11126473Y-10961643D01*
X11127594Y-10966794D01*
X11127594Y-11469000D01*
X11640062Y-11469000D01*
X11640063Y-11469000D01*
X11640063Y-11456400D01*
X11642031Y-11449696D01*
X11647311Y-11445120D01*
X11652463Y-11444000D01*
X13048663Y-11444000D01*
X13055366Y-11445968D01*
X13059942Y-11451249D01*
X13061063Y-11456400D01*
X13061063Y-11469000D01*
X13575552Y-11469025D01*
X13575471Y-10966411D01*
X13577438Y-10959707D01*
X13582718Y-10955130D01*
X13587871Y-10954009D01*
X13613069Y-10954009D01*
X13619773Y-10955978D01*
X13624348Y-10961258D01*
X13625469Y-10966409D01*
X13625469Y-11506600D01*
X13623500Y-11513304D01*
X13618220Y-11517879D01*
X13613069Y-11519000D01*
X13061323Y-11519000D01*
X13061323Y-11531600D01*
X13059354Y-11538304D01*
X13054074Y-11542879D01*
X13048923Y-11544000D01*
X11652463Y-11544000D01*
X11645759Y-11542031D01*
X11641183Y-11536751D01*
X11640063Y-11531600D01*
X11640063Y-11519000D01*
X11089994Y-11519000D01*
X11083290Y-11517031D01*
X11078714Y-11511751D01*
X11077594Y-11506600D01*
X11077594Y-11004424D01*
X10977418Y-11004424D01*
X10977418Y-11017024D01*
X10975449Y-11023728D01*
X10970169Y-11028303D01*
X10965018Y-11029424D01*
X10112400Y-11029424D01*
X10105696Y-11027455D01*
X10101121Y-11022175D01*
X10100000Y-11017024D01*
X10100000Y-9971400D01*
X10101969Y-9964696D01*
X10107249Y-9960120D01*
X10112400Y-9959000D01*
X10965194Y-9958991D01*
X10971898Y-9960959D01*
X10976473Y-9966240D01*
X10977594Y-9971391D01*
X10977594Y-9983991D01*
X11077594Y-9983991D01*
X11077594Y-9481400D01*
X11079562Y-9474696D01*
X11084843Y-9470121D01*
X11089994Y-9469000D01*
X11642000Y-9469000D01*
X11642000Y-9456400D01*
X11643968Y-9449696D01*
X11649249Y-9445121D01*
X11654400Y-9444000D01*
X13050600Y-9444000D01*
X13057304Y-9445969D01*
G37*
M02*
