%TF.GenerationSoftware,KiCad,Pcbnew,9.0.2+1*%
%TF.CreationDate,2025-07-24T16:09:37+01:00*%
%TF.ProjectId,OBC,4f42432e-6b69-4636-9164-5f7063625858,rev?*%
%TF.SameCoordinates,Original*%
%TF.FileFunction,Copper,L2,Inr*%
%TF.FilePolarity,Positive*%
%FSLAX45Y45*%
G04 Gerber Fmt 4.5, Leading zero omitted, Abs format (unit mm)*
G04 Created by KiCad (PCBNEW 9.0.2+1) date 2025-07-24 16:09:37*
%MOMM*%
%LPD*%
G01*
G04 APERTURE LIST*
%TA.AperFunction,ComponentPad*%
%ADD10R,2.100000X2.100000*%
%TD*%
%TA.AperFunction,ComponentPad*%
%ADD11C,2.400000*%
%TD*%
%TA.AperFunction,ComponentPad*%
%ADD12O,1.158000X2.316000*%
%TD*%
%TA.AperFunction,ComponentPad*%
%ADD13O,1.200000X2.400000*%
%TD*%
%TA.AperFunction,ComponentPad*%
%ADD14C,5.700000*%
%TD*%
%TA.AperFunction,ComponentPad*%
%ADD15C,1.701800*%
%TD*%
%TA.AperFunction,ViaPad*%
%ADD16C,0.500000*%
%TD*%
%TA.AperFunction,ViaPad*%
%ADD17C,0.600000*%
%TD*%
%TA.AperFunction,ViaPad*%
%ADD18C,0.700000*%
%TD*%
G04 APERTURE END LIST*
D10*
%TO.N,Net-(C19-Pad1)*%
%TO.C,J4*%
X10640000Y-10490000D03*
D11*
%TO.N,GND*%
X10897500Y-10747500D03*
X10897500Y-10232500D03*
X10382500Y-10232500D03*
X10382500Y-10747500D03*
%TD*%
D12*
%TO.N,unconnected-(J6-SHIELD-PadS1)_4*%
%TO.C,J6*%
X16579342Y-9088750D03*
%TO.N,unconnected-(J6-SHIELD-PadS1)_5*%
X15715342Y-9088750D03*
D13*
%TO.N,unconnected-(J6-SHIELD-PadS1)*%
X16579342Y-8706250D03*
%TO.N,unconnected-(J6-SHIELD-PadS1)_3*%
X15715342Y-8706250D03*
%TD*%
D14*
%TO.N,AGND*%
%TO.C,H2*%
X20680000Y-8830000D03*
%TD*%
%TO.N,AGND*%
%TO.C,H3*%
X20680000Y-11690000D03*
%TD*%
D15*
%TO.N,+5V*%
%TO.C,J1*%
X14230000Y-8890000D03*
%TO.N,GND*%
X13976000Y-8890000D03*
%TO.N,/Nav RX UART*%
X13722000Y-8890000D03*
%TO.N,/Nav TX UART*%
X13468000Y-8890000D03*
%TO.N,/Nav RTS UART*%
X13214000Y-8890000D03*
%TO.N,/Nav CTS UART*%
X12960000Y-8890000D03*
%TD*%
D16*
%TO.N,GND*%
X15681417Y-9490000D03*
D17*
X14360000Y-10370500D03*
X16670000Y-11950000D03*
D16*
X14601000Y-10924000D03*
D17*
X17700000Y-11950000D03*
D16*
X15048515Y-9213515D03*
X14145985Y-10760000D03*
D17*
X18225000Y-11950000D03*
X17270000Y-11450000D03*
X18500000Y-11685000D03*
X17526418Y-11255000D03*
D18*
X18966680Y-11821423D03*
D16*
X13943887Y-9285564D03*
D17*
X16655617Y-10090650D03*
X11855000Y-11945000D03*
X17576680Y-10734756D03*
X11155000Y-11945000D03*
D16*
X15837342Y-9219075D03*
D17*
X18050000Y-11950000D03*
X12205000Y-11945000D03*
X18575000Y-11950000D03*
X13443489Y-10124377D03*
X16293000Y-11667500D03*
X10990000Y-9895000D03*
D16*
X12914260Y-10625113D03*
D17*
X11675000Y-9085000D03*
X11330000Y-11945000D03*
X11670000Y-8610000D03*
X15950000Y-11000000D03*
D18*
X13002338Y-9494000D03*
D17*
X14774448Y-9283723D03*
X10995000Y-11440000D03*
D16*
X14806000Y-10879000D03*
D17*
X16596417Y-9590000D03*
X12580000Y-9085000D03*
X13875000Y-9165000D03*
D18*
X19056680Y-11738089D03*
D17*
X12468086Y-10883324D03*
X18925000Y-11950000D03*
D16*
X15294000Y-10790000D03*
X14904000Y-10430000D03*
D17*
X18400000Y-11950000D03*
X16335500Y-11580000D03*
D16*
X14426000Y-10909000D03*
D17*
X17180000Y-11140000D03*
X11505000Y-11945000D03*
X12380000Y-11945000D03*
X10610000Y-11795000D03*
D18*
X11801680Y-11494756D03*
X10643000Y-10974000D03*
D17*
X11325000Y-9085000D03*
X12872417Y-9984000D03*
X17020000Y-11450000D03*
X11420000Y-9005000D03*
X13977183Y-10667149D03*
X12905000Y-11945000D03*
X12680498Y-10959891D03*
D18*
X13601680Y-9494756D03*
D17*
X18218293Y-11570000D03*
X13430000Y-11750000D03*
D16*
X11902417Y-10518624D03*
X14027015Y-10878970D03*
D17*
X11495000Y-8610000D03*
X15541018Y-10038134D03*
D18*
X12401680Y-11494756D03*
D17*
X15809645Y-10112515D03*
D16*
X14904000Y-10260000D03*
D17*
X18150000Y-11685000D03*
X10610000Y-11445000D03*
D16*
X11707386Y-10518624D03*
X14390411Y-9920411D03*
D17*
X10728744Y-11323744D03*
D18*
X12702394Y-9494000D03*
X12701680Y-11494756D03*
D17*
X16150000Y-8740000D03*
X10420000Y-11620000D03*
X10306256Y-11323744D03*
X17600000Y-9972500D03*
X14587333Y-9618084D03*
X16835000Y-9715000D03*
X10182513Y-11447487D03*
X11060000Y-8694347D03*
X15818043Y-10567315D03*
X16825000Y-11950000D03*
X11935000Y-8695000D03*
D18*
X10155000Y-10562000D03*
X15306000Y-11729000D03*
X13602417Y-11194000D03*
D17*
X10316863Y-11200000D03*
X13152417Y-10559000D03*
X10690000Y-11715000D03*
X14524002Y-8857994D03*
X15460000Y-9000000D03*
D18*
X13301680Y-11494756D03*
D16*
X16457284Y-9281734D03*
D17*
X18393293Y-11570000D03*
D16*
X14734000Y-10260000D03*
X14914206Y-11259970D03*
D17*
X16050000Y-10375000D03*
X15240000Y-8760000D03*
X15911000Y-11424000D03*
X13356417Y-10440000D03*
X11500000Y-9085000D03*
X16185500Y-11690000D03*
D18*
X12402389Y-9494000D03*
D17*
X16705000Y-9455000D03*
X12430000Y-10435000D03*
X14920000Y-11950000D03*
X14506617Y-9224357D03*
X16920000Y-8885000D03*
X15800000Y-10740000D03*
X15095827Y-10412944D03*
D18*
X19056680Y-11821423D03*
X10343000Y-10974000D03*
X11201675Y-9494756D03*
X10155000Y-10262000D03*
D16*
X12816744Y-10528242D03*
D17*
X15684066Y-10406629D03*
X11155000Y-11590000D03*
X16023417Y-9479000D03*
X16750000Y-10075000D03*
D16*
X14201417Y-9500000D03*
D18*
X13601680Y-9794756D03*
D17*
X15464504Y-9968087D03*
X16476680Y-11254756D03*
D16*
X14904000Y-10090000D03*
D17*
X17525000Y-11950000D03*
X16430000Y-8740000D03*
X15289239Y-9790000D03*
D18*
X12101680Y-11494756D03*
D17*
X17350000Y-11950000D03*
X16700000Y-9025000D03*
X14860000Y-10565000D03*
D16*
X14989000Y-10345000D03*
X14814000Y-10350000D03*
D17*
X11235000Y-8694347D03*
X17500000Y-9725000D03*
X15445000Y-11950000D03*
X12230000Y-9085000D03*
D16*
X11902417Y-10421752D03*
D17*
X12730000Y-11945000D03*
X10420000Y-11445000D03*
X14946054Y-9509548D03*
D16*
X11804902Y-10518624D03*
D17*
X12405000Y-9400000D03*
X16930000Y-11140000D03*
X16656417Y-9901950D03*
D18*
X10802000Y-10009000D03*
D17*
X17875000Y-11950000D03*
D16*
X14648000Y-10375000D03*
D18*
X11101680Y-9699756D03*
X13602417Y-10894099D03*
D16*
X11902417Y-10615496D03*
D17*
X11145000Y-8610000D03*
X16630000Y-10960000D03*
X18325000Y-11685000D03*
X16145000Y-11950000D03*
X15555000Y-10880000D03*
X15970000Y-11950000D03*
X13605000Y-11750000D03*
X15664174Y-10686189D03*
X12476601Y-9855141D03*
X16495000Y-11950000D03*
D16*
X14422970Y-11041030D03*
D18*
X11501680Y-9494756D03*
D16*
X11240633Y-10374700D03*
D17*
X15620000Y-11950000D03*
X10990000Y-11097500D03*
X14395000Y-11950000D03*
D16*
X15272000Y-11178000D03*
D17*
X13550000Y-9295000D03*
D16*
X14106417Y-9500000D03*
X14723000Y-11357840D03*
D17*
X13880000Y-11950000D03*
X12200000Y-11050000D03*
D16*
X11804902Y-10421752D03*
D17*
X14916929Y-9070297D03*
X17576418Y-10610000D03*
X15795000Y-11950000D03*
X10340000Y-11525000D03*
X12468086Y-11008324D03*
X13255000Y-11945000D03*
X17575000Y-10420000D03*
D16*
X14819000Y-10175000D03*
X12816744Y-10431370D03*
D18*
X11802439Y-9494000D03*
D17*
X11680000Y-11945000D03*
X14775000Y-10045000D03*
X12783864Y-11300500D03*
X14164417Y-9158520D03*
D18*
X11102418Y-11293842D03*
D17*
X15691000Y-11254000D03*
X17475000Y-8851500D03*
X10610000Y-11620000D03*
X14858412Y-9159564D03*
D16*
X15161000Y-9099000D03*
X12914260Y-10528242D03*
D17*
X13255000Y-11750000D03*
X15855000Y-8740000D03*
D16*
X11707386Y-10421752D03*
D17*
X10193119Y-11323744D03*
X10185000Y-8694347D03*
D16*
X14574000Y-11377840D03*
D17*
X13133389Y-10721546D03*
X12370000Y-8610000D03*
X13350000Y-11670000D03*
D18*
X17227000Y-11790000D03*
X11201680Y-11494756D03*
D17*
X14220000Y-11950000D03*
X11502308Y-11096621D03*
X14586393Y-9932470D03*
D16*
X15477500Y-11037500D03*
D17*
X14164417Y-9278520D03*
X12776767Y-10007747D03*
X16380000Y-10960000D03*
X16976000Y-11789000D03*
X15149015Y-9318461D03*
D16*
X15396000Y-11113000D03*
D17*
X19275000Y-11950000D03*
D16*
X15034000Y-10915000D03*
D17*
X17611418Y-9615000D03*
X12405000Y-11585000D03*
X10885000Y-8694347D03*
D16*
X12719229Y-10431370D03*
D17*
X11930000Y-10165000D03*
D16*
X15736089Y-11009911D03*
D17*
X11595000Y-9005000D03*
D16*
X12788536Y-10167120D03*
X14106417Y-9675000D03*
X12719229Y-10625113D03*
D17*
X14800000Y-8743500D03*
D18*
X12102537Y-9494000D03*
D16*
X14201417Y-9675000D03*
D17*
X14903661Y-9800000D03*
X11410000Y-8694347D03*
D16*
X15941000Y-11646000D03*
X12914260Y-10431370D03*
X15589119Y-11130881D03*
D17*
X10430000Y-11200000D03*
X11156565Y-9390000D03*
D18*
X18966680Y-11738089D03*
D17*
X15503663Y-11491825D03*
X13311747Y-10797705D03*
X12065000Y-10055000D03*
X16925000Y-10375000D03*
X13525000Y-11670000D03*
D16*
X13908044Y-10997941D03*
D17*
X17136256Y-10071077D03*
X17142378Y-10754756D03*
X14224550Y-9967500D03*
X17606418Y-9360000D03*
X12020000Y-8610000D03*
D16*
X16197417Y-9340000D03*
D17*
X13766637Y-11144003D03*
X14745000Y-11950000D03*
D18*
X13601680Y-10094756D03*
D17*
X10340000Y-11700000D03*
D16*
X14034000Y-11150000D03*
D17*
X14410000Y-9030000D03*
D16*
X11707386Y-10615496D03*
D17*
X12815000Y-9880000D03*
D18*
X19056680Y-11571423D03*
D16*
X16268417Y-9239000D03*
X14201417Y-9587500D03*
D17*
X17000000Y-11950000D03*
D18*
X16486680Y-10375000D03*
D16*
X13721776Y-10875613D03*
X14989000Y-10175000D03*
X15388000Y-10948000D03*
X14474000Y-10800000D03*
D17*
X10420000Y-11795000D03*
X14520000Y-8575000D03*
D18*
X10943000Y-10974000D03*
D17*
X10852487Y-11447487D03*
D16*
X14304000Y-11160000D03*
D17*
X18568293Y-11570000D03*
X11760000Y-8695000D03*
X13605000Y-11945000D03*
X14365312Y-10220500D03*
X13933609Y-9422030D03*
D16*
X15311000Y-11029000D03*
D17*
X16565110Y-9872600D03*
X12555000Y-11945000D03*
X19100000Y-11950000D03*
X14210190Y-10562180D03*
D16*
X15548323Y-10464677D03*
D17*
X13262417Y-10335850D03*
X14055000Y-11950000D03*
X16726000Y-11789000D03*
D16*
X12719229Y-10528242D03*
X14257000Y-10742000D03*
D17*
X13946000Y-11329000D03*
D16*
X15074000Y-10260000D03*
D17*
X18750000Y-11950000D03*
D16*
X14185029Y-11278970D03*
D18*
X16576680Y-10375000D03*
X10202000Y-10008000D03*
D17*
X12922117Y-9861500D03*
D18*
X10155000Y-10862000D03*
D16*
X12816744Y-10625113D03*
D17*
X12325000Y-9005000D03*
X10605000Y-11200000D03*
X17175000Y-11950000D03*
D16*
X14346000Y-10829000D03*
X14106417Y-9587500D03*
D17*
X17611418Y-9485000D03*
D18*
X13001680Y-11494756D03*
D16*
X16098417Y-9239000D03*
D18*
X11102436Y-10000515D03*
D16*
X15179000Y-8915000D03*
D18*
X11501680Y-11494756D03*
D17*
X10690000Y-11540000D03*
X11845000Y-8610000D03*
X13080000Y-11945000D03*
X16074870Y-11054129D03*
D16*
X11804902Y-10615496D03*
D17*
X11585000Y-8694347D03*
X12195000Y-8610000D03*
X10718137Y-11200000D03*
D18*
X13302417Y-9494000D03*
D17*
X16394493Y-9824142D03*
D18*
X13602417Y-11494000D03*
X10502000Y-10008000D03*
D17*
X11320000Y-8610000D03*
X16494817Y-9346619D03*
X13115152Y-9820000D03*
X14199799Y-10207369D03*
X14885850Y-9667994D03*
D16*
X11588117Y-10901850D03*
D17*
X12500000Y-9005000D03*
X10445000Y-8610000D03*
X16320000Y-11950000D03*
X17725000Y-10825000D03*
D16*
X14726417Y-9470000D03*
D17*
X15163499Y-9706416D03*
X13062481Y-10280169D03*
X12405000Y-9085000D03*
X16373417Y-9496583D03*
X12030000Y-11945000D03*
X13615000Y-9165000D03*
X17610000Y-8851500D03*
X10841881Y-11323744D03*
X17611418Y-9105000D03*
X14360000Y-9315000D03*
X13430000Y-11945000D03*
D18*
X18966680Y-11571423D03*
D17*
X15363489Y-9861920D03*
X10980000Y-9550000D03*
%TO.N,+5V*%
X13656417Y-9300000D03*
X17246680Y-9879737D03*
X17224878Y-10827954D03*
%TO.N,+3.3V*%
X13232417Y-10574824D03*
X13162417Y-10349000D03*
X13766000Y-11219000D03*
X15406417Y-11400000D03*
X15936417Y-10900000D03*
X15725000Y-10335000D03*
X12872417Y-10227683D03*
D18*
X15816417Y-10199000D03*
D17*
X15669000Y-11795000D03*
X15040008Y-11259970D03*
D16*
X17195000Y-10130000D03*
D17*
%TO.N,/Nav TX UART*%
X13946575Y-9187407D03*
D18*
X14596417Y-9700000D03*
%TO.N,/Nav RX UART*%
X13891417Y-9490000D03*
D17*
X14844000Y-9970000D03*
%TO.N,/SD-Card  ~{CS} SPI*%
X15569000Y-11455000D03*
X16126000Y-11109000D03*
%TO.N,/SD-Card MISO SPI*%
X15339000Y-11225000D03*
X14974000Y-10965000D03*
%TO.N,VBUS*%
X15891917Y-9527500D03*
X16197417Y-9615000D03*
%TO.N,Net-(U1-DCC_FB)*%
X12656423Y-10886423D03*
X13068693Y-10355275D03*
%TO.N,/RADIO MISO SPI*%
X12792036Y-10239000D03*
X11907417Y-10239000D03*
X14301000Y-10179000D03*
%TO.N,/BUSY SX1280*%
X14276000Y-10319000D03*
X13152417Y-10649000D03*
%TO.N,/WRITE_RS*%
X15231000Y-10559000D03*
X15815000Y-10815000D03*
%TO.N,/RADIO MOSI SPI*%
X12111526Y-10118109D03*
X12765273Y-10081862D03*
X14126000Y-10194000D03*
%TO.N,/ENABLE_RS*%
X15046000Y-10469000D03*
X15716417Y-10740000D03*
%TO.N,Net-(MCU1-VREG_VOUT)*%
X15216869Y-10262500D03*
X14786000Y-10499000D03*
X15051000Y-10070000D03*
%TO.N,/DIO3 SX1280*%
X14701029Y-10085196D03*
X14289741Y-10503324D03*
%TO.N,/SX1280 ~{CS} SPI*%
X13371333Y-10155084D03*
X12863417Y-9810000D03*
%TO.N,/READ_RS*%
X15866417Y-10510000D03*
X15156037Y-10368192D03*
D18*
%TO.N,/~{PDN} NRF21540*%
X14536417Y-9870000D03*
D17*
X13142417Y-9749000D03*
%TO.N,/RADIO SCK SPI*%
X14281000Y-10019000D03*
X12472417Y-9934000D03*
X12757417Y-9934000D03*
%TO.N,/RX_EN NRF21540*%
X14291000Y-10669000D03*
X12842417Y-11249000D03*
%TO.N,/RP2040/USB_D+*%
X15127000Y-10144000D03*
X15636417Y-9719042D03*
%TO.N,/RP2040/USB_D-*%
X15636417Y-9798542D03*
X15184375Y-10193769D03*
%TO.N,/MODE NRF21540*%
X13901676Y-10660211D03*
X11577417Y-11074000D03*
%TO.N,/TX_EN NRF21540*%
X13316001Y-10872584D03*
X14954000Y-10565000D03*
X12272417Y-11024000D03*
X13711680Y-10799756D03*
D16*
%TO.N,/Buzzer*%
X17616680Y-10934756D03*
D17*
X15360000Y-10396000D03*
%TO.N,Net-(IC1-E2)*%
X16606417Y-9810000D03*
X16447526Y-9771109D03*
%TO.N,/RP2040/MCU SD3 SPI*%
X15226417Y-9300000D03*
X14998500Y-10010000D03*
%TO.N,/RP2040/MCU ~{CS} SPI*%
X14516417Y-9150000D03*
X14960823Y-9670000D03*
X14513794Y-8937659D03*
%TO.N,/RP2040/MCU SD0 SPI*%
X15166417Y-9630000D03*
X14948000Y-9942000D03*
%TO.N,/RP2040/MCU SD1 SPI*%
X14814000Y-9220000D03*
X15019293Y-9525707D03*
%TO.N,AGND*%
X19130000Y-9800000D03*
X19455000Y-10289506D03*
D18*
X19876680Y-11831423D03*
D17*
X20340000Y-11830000D03*
D18*
X19966680Y-11831423D03*
D17*
X19086256Y-10037273D03*
X18991680Y-9974756D03*
X19425000Y-10870000D03*
X20680000Y-11320000D03*
X20860000Y-11255000D03*
X20310000Y-8830000D03*
X20860000Y-9270000D03*
X20335000Y-11550000D03*
D16*
X19172500Y-8822500D03*
D17*
X20205000Y-8830000D03*
X19712443Y-9642256D03*
X19632443Y-9547256D03*
X20340000Y-8690000D03*
X18700000Y-8640000D03*
D16*
X18575000Y-8850000D03*
D18*
X19876680Y-11748089D03*
D17*
X20415000Y-11950000D03*
X20340000Y-9170000D03*
X18806418Y-9485000D03*
X19760000Y-11063162D03*
X19800000Y-10290000D03*
X20680000Y-9310000D03*
X19225000Y-9070000D03*
X19678774Y-11151999D03*
X18806680Y-10736000D03*
X19505000Y-10950000D03*
X20245000Y-11515000D03*
X20940000Y-11430000D03*
X20245000Y-8650000D03*
X18806418Y-9360000D03*
X18695000Y-9705000D03*
X20095000Y-10290000D03*
X19775000Y-10890000D03*
X20940000Y-9095000D03*
D16*
X19038418Y-8710000D03*
D17*
X18806019Y-10607399D03*
X19088774Y-10878838D03*
X19210000Y-9545000D03*
D18*
X19966680Y-11664756D03*
D17*
X20180000Y-9900000D03*
X20680000Y-11220000D03*
X18807418Y-10101000D03*
X18796680Y-10481000D03*
X20820000Y-9170000D03*
X18807418Y-9972500D03*
X20420000Y-11430000D03*
X20420000Y-8570000D03*
X19225000Y-9245000D03*
X20540000Y-11345000D03*
X19168774Y-10958838D03*
X20540000Y-9175000D03*
X20210000Y-11690000D03*
X19130000Y-9625000D03*
X19680000Y-10950000D03*
X20017500Y-10730000D03*
X19295000Y-10290000D03*
X20680000Y-9200000D03*
X19210000Y-9720000D03*
X20310000Y-11690000D03*
X19225000Y-9420000D03*
X18856418Y-8725000D03*
X20245000Y-11865000D03*
X20820000Y-11350000D03*
X18991680Y-10114756D03*
X20335000Y-8975000D03*
D18*
X19966680Y-11748089D03*
D17*
X18806418Y-9610000D03*
X18806418Y-9230000D03*
X18912000Y-10959000D03*
X19712443Y-9817256D03*
X20430000Y-9082500D03*
X19632443Y-9722256D03*
%TD*%
%TA.AperFunction,Conductor*%
%TO.N,AGND*%
G36*
X20477290Y-8542019D02*
G01*
X20481865Y-8547299D01*
X20482860Y-8554215D01*
X20479957Y-8560570D01*
X20478452Y-8562035D01*
X20461392Y-8576036D01*
X20461392Y-8576037D01*
X20585930Y-8700575D01*
X20575767Y-8707959D01*
X20557959Y-8725767D01*
X20550575Y-8735930D01*
X20426037Y-8611392D01*
X20426036Y-8611392D01*
X20410601Y-8630200D01*
X20410601Y-8630200D01*
X20392315Y-8657567D01*
X20392314Y-8657569D01*
X20376799Y-8686596D01*
X20376799Y-8686596D01*
X20364203Y-8717005D01*
X20354648Y-8748504D01*
X20354647Y-8748504D01*
X20348226Y-8780786D01*
X20345000Y-8813543D01*
X20345000Y-8846457D01*
X20348226Y-8879214D01*
X20354647Y-8911496D01*
X20354648Y-8911496D01*
X20364203Y-8942995D01*
X20376799Y-8973404D01*
X20376799Y-8973404D01*
X20392314Y-9002431D01*
X20392315Y-9002433D01*
X20410601Y-9029800D01*
X20410601Y-9029800D01*
X20426036Y-9048608D01*
X20426037Y-9048608D01*
X20550575Y-8924070D01*
X20557959Y-8934233D01*
X20575767Y-8952041D01*
X20585930Y-8959425D01*
X20461392Y-9083963D01*
X20461392Y-9083963D01*
X20480200Y-9099399D01*
X20480200Y-9099399D01*
X20507567Y-9117685D01*
X20507569Y-9117686D01*
X20536596Y-9133201D01*
X20536596Y-9133201D01*
X20567005Y-9145797D01*
X20598504Y-9155352D01*
X20598504Y-9155353D01*
X20630786Y-9161774D01*
X20663543Y-9165000D01*
X20696457Y-9165000D01*
X20729214Y-9161774D01*
X20761496Y-9155353D01*
X20761496Y-9155352D01*
X20792995Y-9145797D01*
X20823404Y-9133201D01*
X20823404Y-9133201D01*
X20852431Y-9117686D01*
X20852433Y-9117685D01*
X20879800Y-9099399D01*
X20898608Y-9083964D01*
X20898608Y-9083963D01*
X20774070Y-8959425D01*
X20784233Y-8952041D01*
X20802041Y-8934233D01*
X20809425Y-8924070D01*
X20933963Y-9048608D01*
X20933964Y-9048608D01*
X20947965Y-9031548D01*
X20953739Y-9027614D01*
X20960724Y-9027427D01*
X20966701Y-9031046D01*
X20969772Y-9037322D01*
X20969950Y-9039414D01*
X20969950Y-11480586D01*
X20967982Y-11487290D01*
X20962701Y-11491865D01*
X20955785Y-11492860D01*
X20949430Y-11489957D01*
X20947965Y-11488452D01*
X20933964Y-11471392D01*
X20933963Y-11471392D01*
X20809425Y-11595930D01*
X20802041Y-11585767D01*
X20784233Y-11567959D01*
X20774070Y-11560575D01*
X20898608Y-11436036D01*
X20898608Y-11436036D01*
X20879800Y-11420601D01*
X20879800Y-11420601D01*
X20852433Y-11402315D01*
X20852431Y-11402314D01*
X20823404Y-11386799D01*
X20823404Y-11386798D01*
X20792995Y-11374202D01*
X20761496Y-11364647D01*
X20761496Y-11364647D01*
X20729214Y-11358226D01*
X20696457Y-11355000D01*
X20663543Y-11355000D01*
X20630786Y-11358226D01*
X20598504Y-11364647D01*
X20598504Y-11364647D01*
X20567005Y-11374202D01*
X20536596Y-11386798D01*
X20536596Y-11386799D01*
X20507569Y-11402314D01*
X20507567Y-11402315D01*
X20480200Y-11420601D01*
X20480200Y-11420601D01*
X20461392Y-11436036D01*
X20461392Y-11436036D01*
X20585930Y-11560575D01*
X20575767Y-11567959D01*
X20557959Y-11585767D01*
X20550575Y-11595930D01*
X20426037Y-11471392D01*
X20426036Y-11471392D01*
X20410601Y-11490200D01*
X20410601Y-11490200D01*
X20392315Y-11517567D01*
X20392314Y-11517569D01*
X20376799Y-11546595D01*
X20376799Y-11546596D01*
X20364203Y-11577005D01*
X20354648Y-11608504D01*
X20354647Y-11608504D01*
X20348226Y-11640786D01*
X20345000Y-11673543D01*
X20345000Y-11706457D01*
X20348226Y-11739214D01*
X20354647Y-11771496D01*
X20354648Y-11771496D01*
X20364203Y-11802995D01*
X20376799Y-11833404D01*
X20376799Y-11833404D01*
X20392314Y-11862431D01*
X20392315Y-11862433D01*
X20410601Y-11889799D01*
X20410601Y-11889800D01*
X20426036Y-11908608D01*
X20426037Y-11908608D01*
X20550575Y-11784070D01*
X20557959Y-11794233D01*
X20575767Y-11812041D01*
X20585930Y-11819425D01*
X20461392Y-11943963D01*
X20461392Y-11943963D01*
X20478452Y-11957965D01*
X20482386Y-11963739D01*
X20482573Y-11970724D01*
X20478954Y-11976700D01*
X20472679Y-11979772D01*
X20470586Y-11979950D01*
X19601080Y-11979950D01*
X19594377Y-11977981D01*
X19589801Y-11972701D01*
X19588680Y-11967550D01*
X19588680Y-11580771D01*
X19588680Y-11580771D01*
X19525500Y-11517567D01*
X19062227Y-11054120D01*
X18628830Y-11054120D01*
X18622126Y-11052152D01*
X18620046Y-11050473D01*
X18526297Y-10956385D01*
X18522959Y-10950247D01*
X18522680Y-10947633D01*
X18522680Y-8552450D01*
X18524649Y-8545746D01*
X18529929Y-8541171D01*
X18535080Y-8540050D01*
X20470586Y-8540050D01*
X20477290Y-8542019D01*
G37*
%TD.AperFunction*%
%TD*%
%TA.AperFunction,Conductor*%
%TO.N,GND*%
G36*
X12383533Y-8542019D02*
G01*
X12385598Y-8543683D01*
X13143744Y-9302032D01*
X13261680Y-9420000D01*
X13640015Y-9420000D01*
X13646719Y-9421969D01*
X13651294Y-9427249D01*
X13652415Y-9432403D01*
X13652341Y-9767560D01*
X13652251Y-10172533D01*
X13650281Y-10179236D01*
X13648619Y-10181298D01*
X13602417Y-10227500D01*
X13602417Y-10227500D01*
X13602466Y-10227500D01*
X13698251Y-10227549D01*
X13698234Y-10188069D01*
X14080950Y-10188069D01*
X14080950Y-10199931D01*
X14084020Y-10211389D01*
X14089951Y-10221661D01*
X14098339Y-10230049D01*
X14108611Y-10235980D01*
X14120069Y-10239050D01*
X14120069Y-10239050D01*
X14131931Y-10239050D01*
X14131931Y-10239050D01*
X14143389Y-10235980D01*
X14153661Y-10230049D01*
X14162049Y-10221661D01*
X14167980Y-10211389D01*
X14171050Y-10199931D01*
X14171050Y-10188069D01*
X14167980Y-10176611D01*
X14165935Y-10173069D01*
X14255950Y-10173069D01*
X14255950Y-10184931D01*
X14259020Y-10196389D01*
X14264951Y-10206661D01*
X14273339Y-10215049D01*
X14283611Y-10220980D01*
X14295069Y-10224050D01*
X14295069Y-10224050D01*
X14306931Y-10224050D01*
X14306931Y-10224050D01*
X14318389Y-10220980D01*
X14328661Y-10215049D01*
X14337049Y-10206661D01*
X14342980Y-10196389D01*
X14346050Y-10184931D01*
X14346050Y-10173069D01*
X14342980Y-10161611D01*
X14337049Y-10151339D01*
X14328661Y-10142951D01*
X14318389Y-10137020D01*
X14306931Y-10133950D01*
X14295069Y-10133950D01*
X14283611Y-10137020D01*
X14283611Y-10137020D01*
X14283611Y-10137020D01*
X14273339Y-10142951D01*
X14273338Y-10142951D01*
X14264951Y-10151338D01*
X14264951Y-10151339D01*
X14259024Y-10161605D01*
X14259020Y-10161611D01*
X14255950Y-10173069D01*
X14165935Y-10173069D01*
X14162049Y-10166339D01*
X14153661Y-10157951D01*
X14143389Y-10152020D01*
X14131931Y-10148950D01*
X14120069Y-10148950D01*
X14108611Y-10152020D01*
X14108611Y-10152020D01*
X14108611Y-10152020D01*
X14098339Y-10157951D01*
X14098338Y-10157951D01*
X14089951Y-10166338D01*
X14089951Y-10166339D01*
X14086065Y-10173069D01*
X14084020Y-10176611D01*
X14080950Y-10188069D01*
X13698234Y-10188069D01*
X13698187Y-10079266D01*
X14655979Y-10079266D01*
X14655979Y-10091127D01*
X14659050Y-10102585D01*
X14664981Y-10112858D01*
X14673368Y-10121245D01*
X14683641Y-10127176D01*
X14695099Y-10130246D01*
X14695099Y-10130246D01*
X14706960Y-10130246D01*
X14706960Y-10130246D01*
X14718418Y-10127176D01*
X14728691Y-10121245D01*
X14737078Y-10112858D01*
X14743009Y-10102585D01*
X14746079Y-10091127D01*
X14746079Y-10079266D01*
X14743009Y-10067808D01*
X14737078Y-10057535D01*
X14728691Y-10049148D01*
X14718418Y-10043217D01*
X14706960Y-10040146D01*
X14695099Y-10040146D01*
X14683641Y-10043217D01*
X14683641Y-10043217D01*
X14683641Y-10043217D01*
X14673368Y-10049148D01*
X14673368Y-10049148D01*
X14664981Y-10057535D01*
X14664981Y-10057535D01*
X14661208Y-10064069D01*
X14659050Y-10067808D01*
X14655979Y-10079266D01*
X13698187Y-10079266D01*
X13698159Y-10013069D01*
X14235950Y-10013069D01*
X14235950Y-10024931D01*
X14239020Y-10036389D01*
X14244951Y-10046661D01*
X14253339Y-10055049D01*
X14263611Y-10060980D01*
X14275069Y-10064050D01*
X14275069Y-10064050D01*
X14286931Y-10064050D01*
X14286931Y-10064050D01*
X14298389Y-10060980D01*
X14308661Y-10055049D01*
X14317049Y-10046661D01*
X14322980Y-10036389D01*
X14326050Y-10024931D01*
X14326050Y-10013069D01*
X14322980Y-10001611D01*
X14317049Y-9991339D01*
X14308661Y-9982951D01*
X14298389Y-9977020D01*
X14286931Y-9973950D01*
X14275069Y-9973950D01*
X14263611Y-9977020D01*
X14263611Y-9977020D01*
X14263611Y-9977020D01*
X14253339Y-9982951D01*
X14253338Y-9982951D01*
X14244951Y-9991338D01*
X14244951Y-9991339D01*
X14239020Y-10001611D01*
X14235950Y-10013069D01*
X13698159Y-10013069D01*
X13698137Y-9964069D01*
X14798950Y-9964069D01*
X14798950Y-9975931D01*
X14802020Y-9987389D01*
X14807951Y-9997661D01*
X14816339Y-10006049D01*
X14826611Y-10011980D01*
X14838069Y-10015050D01*
X14838069Y-10015050D01*
X14849931Y-10015050D01*
X14849931Y-10015050D01*
X14861389Y-10011980D01*
X14871661Y-10006049D01*
X14880049Y-9997661D01*
X14885980Y-9987389D01*
X14889050Y-9975931D01*
X14889050Y-9975931D01*
X14889156Y-9975125D01*
X14889378Y-9975154D01*
X14891018Y-9969569D01*
X14896299Y-9964993D01*
X14903215Y-9963999D01*
X14909570Y-9966902D01*
X14911371Y-9969082D01*
X14911456Y-9969016D01*
X14911951Y-9969661D01*
X14911951Y-9969661D01*
X14920339Y-9978049D01*
X14930611Y-9983980D01*
X14942069Y-9987050D01*
X14942069Y-9987050D01*
X14942875Y-9987156D01*
X14942850Y-9987344D01*
X14948554Y-9989019D01*
X14953130Y-9994299D01*
X14954124Y-10001215D01*
X14953828Y-10002658D01*
X14953450Y-10004069D01*
X14953450Y-10015931D01*
X14956520Y-10027389D01*
X14962451Y-10037661D01*
X14970839Y-10046049D01*
X14981111Y-10051980D01*
X14992569Y-10055050D01*
X14992569Y-10055050D01*
X14993550Y-10055050D01*
X15000254Y-10057019D01*
X15004829Y-10062299D01*
X15005950Y-10067450D01*
X15005950Y-10075931D01*
X15009020Y-10087389D01*
X15014951Y-10097661D01*
X15023339Y-10106049D01*
X15033611Y-10111980D01*
X15045069Y-10115050D01*
X15045069Y-10115050D01*
X15056931Y-10115050D01*
X15056931Y-10115050D01*
X15068389Y-10111980D01*
X15068389Y-10111980D01*
X15069174Y-10111770D01*
X15069215Y-10111926D01*
X15075222Y-10111280D01*
X15081470Y-10114407D01*
X15085036Y-10120416D01*
X15084998Y-10126692D01*
X15084869Y-10127176D01*
X15081950Y-10138069D01*
X15081950Y-10149931D01*
X15085020Y-10161389D01*
X15090951Y-10171661D01*
X15099339Y-10180049D01*
X15109611Y-10185980D01*
X15121069Y-10189050D01*
X15121069Y-10189050D01*
X15127049Y-10189050D01*
X15133753Y-10191019D01*
X15138328Y-10196299D01*
X15139082Y-10198923D01*
X15139115Y-10198915D01*
X15139325Y-10199699D01*
X15139325Y-10199700D01*
X15142395Y-10211157D01*
X15148326Y-10221430D01*
X15156714Y-10229818D01*
X15166987Y-10235749D01*
X15167690Y-10236155D01*
X15167522Y-10236446D01*
X15171749Y-10239850D01*
X15173957Y-10246479D01*
X15173543Y-10250134D01*
X15171819Y-10256569D01*
X15171819Y-10256569D01*
X15171819Y-10268431D01*
X15174889Y-10279889D01*
X15180820Y-10290161D01*
X15189207Y-10298549D01*
X15199480Y-10304480D01*
X15210938Y-10307550D01*
X15210938Y-10307550D01*
X15222799Y-10307550D01*
X15222799Y-10307550D01*
X15234257Y-10304480D01*
X15244530Y-10298549D01*
X15252917Y-10290161D01*
X15258848Y-10279889D01*
X15261919Y-10268431D01*
X15261919Y-10256569D01*
X15258848Y-10245111D01*
X15252917Y-10234839D01*
X15244530Y-10226451D01*
X15234257Y-10220520D01*
X15234257Y-10220520D01*
X15233553Y-10220114D01*
X15233721Y-10219824D01*
X15232811Y-10219091D01*
X15230491Y-10217672D01*
X15230132Y-10216930D01*
X15229490Y-10216412D01*
X15228632Y-10213831D01*
X15227447Y-10211383D01*
X15227494Y-10210408D01*
X15227286Y-10209782D01*
X15227368Y-10207855D01*
X15227474Y-10206983D01*
X15229425Y-10199700D01*
X15229425Y-10192411D01*
X15766367Y-10192411D01*
X15766367Y-10205589D01*
X15767326Y-10209165D01*
X15769778Y-10218319D01*
X15771708Y-10221661D01*
X15776367Y-10229731D01*
X15785686Y-10239050D01*
X15797099Y-10245639D01*
X15809828Y-10249050D01*
X15809828Y-10249050D01*
X15823006Y-10249050D01*
X15823007Y-10249050D01*
X15835736Y-10245639D01*
X15847149Y-10239050D01*
X15856467Y-10229731D01*
X15863057Y-10218319D01*
X15866467Y-10205589D01*
X15866467Y-10192411D01*
X15863057Y-10179681D01*
X15856467Y-10168269D01*
X15847149Y-10158950D01*
X15839600Y-10154591D01*
X15835736Y-10152361D01*
X15826667Y-10149931D01*
X15823007Y-10148950D01*
X15809828Y-10148950D01*
X15797099Y-10152361D01*
X15785686Y-10158950D01*
X15785686Y-10158950D01*
X15776368Y-10168268D01*
X15776367Y-10168269D01*
X15769778Y-10179681D01*
X15768372Y-10184931D01*
X15766367Y-10192411D01*
X15229425Y-10192411D01*
X15229425Y-10187838D01*
X15226355Y-10176380D01*
X15220424Y-10166108D01*
X15212036Y-10157720D01*
X15201764Y-10151789D01*
X15190306Y-10148719D01*
X15184326Y-10148719D01*
X15181615Y-10147923D01*
X15178831Y-10147435D01*
X15178307Y-10146951D01*
X15177623Y-10146750D01*
X15175772Y-10144615D01*
X15173694Y-10142699D01*
X15173412Y-10141891D01*
X15173047Y-10141470D01*
X15172327Y-10139445D01*
X15172050Y-10138382D01*
X15172050Y-10138069D01*
X15168980Y-10126611D01*
X15167892Y-10124727D01*
X17154950Y-10124727D01*
X17154950Y-10135273D01*
X17156790Y-10142140D01*
X17157679Y-10145459D01*
X17157679Y-10145459D01*
X17158021Y-10146050D01*
X17162952Y-10154591D01*
X17170409Y-10162048D01*
X17179541Y-10167321D01*
X17189727Y-10170050D01*
X17189728Y-10170050D01*
X17200273Y-10170050D01*
X17200273Y-10170050D01*
X17210459Y-10167321D01*
X17219591Y-10162048D01*
X17227048Y-10154591D01*
X17232321Y-10145459D01*
X17235050Y-10135273D01*
X17235050Y-10124727D01*
X17232321Y-10114541D01*
X17227048Y-10105409D01*
X17219591Y-10097952D01*
X17210459Y-10092679D01*
X17200273Y-10089950D01*
X17189727Y-10089950D01*
X17179541Y-10092679D01*
X17179541Y-10092679D01*
X17170409Y-10097952D01*
X17162952Y-10105409D01*
X17157679Y-10114541D01*
X17157679Y-10114541D01*
X17154950Y-10124727D01*
X15167892Y-10124727D01*
X15163049Y-10116339D01*
X15154661Y-10107951D01*
X15144389Y-10102020D01*
X15132931Y-10098950D01*
X15121069Y-10098950D01*
X15109611Y-10102020D01*
X15109611Y-10102020D01*
X15108826Y-10102231D01*
X15108785Y-10102075D01*
X15102775Y-10102720D01*
X15096528Y-10099592D01*
X15092964Y-10093582D01*
X15093001Y-10087308D01*
X15096050Y-10075931D01*
X15096050Y-10064069D01*
X15092980Y-10052611D01*
X15087049Y-10042339D01*
X15078661Y-10033951D01*
X15068389Y-10028020D01*
X15056931Y-10024950D01*
X15055950Y-10024950D01*
X15049246Y-10022982D01*
X15044671Y-10017701D01*
X15043550Y-10012550D01*
X15043550Y-10004069D01*
X15043550Y-10004069D01*
X15040480Y-9992611D01*
X15034549Y-9982339D01*
X15026161Y-9973951D01*
X15015889Y-9968020D01*
X15004431Y-9964950D01*
X15004430Y-9964950D01*
X15003625Y-9964844D01*
X15003649Y-9964656D01*
X14997946Y-9962982D01*
X14993370Y-9957701D01*
X14992376Y-9950785D01*
X14992672Y-9949342D01*
X14993050Y-9947931D01*
X14993050Y-9936069D01*
X14989980Y-9924611D01*
X14984049Y-9914339D01*
X14975661Y-9905951D01*
X14965389Y-9900020D01*
X14953931Y-9896950D01*
X14942069Y-9896950D01*
X14930611Y-9900020D01*
X14930611Y-9900020D01*
X14930611Y-9900020D01*
X14920339Y-9905951D01*
X14920338Y-9905951D01*
X14911951Y-9914338D01*
X14911951Y-9914339D01*
X14910623Y-9916639D01*
X14906020Y-9924611D01*
X14905107Y-9928020D01*
X14902950Y-9936069D01*
X14902844Y-9936875D01*
X14902621Y-9936846D01*
X14900981Y-9942431D01*
X14895701Y-9947007D01*
X14888785Y-9948001D01*
X14882430Y-9945098D01*
X14880629Y-9942918D01*
X14880544Y-9942984D01*
X14880049Y-9942339D01*
X14880049Y-9942339D01*
X14871661Y-9933951D01*
X14861389Y-9928020D01*
X14849931Y-9924950D01*
X14838069Y-9924950D01*
X14826611Y-9928020D01*
X14826611Y-9928020D01*
X14826611Y-9928020D01*
X14816339Y-9933951D01*
X14816338Y-9933951D01*
X14807951Y-9942338D01*
X14807951Y-9942339D01*
X14802020Y-9952611D01*
X14798950Y-9964069D01*
X13698137Y-9964069D01*
X13698094Y-9863411D01*
X14486367Y-9863411D01*
X14486367Y-9876589D01*
X14489778Y-9889319D01*
X14493073Y-9895025D01*
X14496367Y-9900731D01*
X14505686Y-9910050D01*
X14517099Y-9916639D01*
X14529828Y-9920050D01*
X14529828Y-9920050D01*
X14543006Y-9920050D01*
X14543007Y-9920050D01*
X14555736Y-9916639D01*
X14567149Y-9910050D01*
X14576467Y-9900731D01*
X14583057Y-9889319D01*
X14586467Y-9876589D01*
X14586467Y-9873806D01*
X17201630Y-9873806D01*
X17201630Y-9885668D01*
X17204701Y-9897126D01*
X17210632Y-9907398D01*
X17219019Y-9915786D01*
X17229292Y-9921717D01*
X17240750Y-9924787D01*
X17240750Y-9924787D01*
X17252611Y-9924787D01*
X17252611Y-9924787D01*
X17264069Y-9921717D01*
X17274342Y-9915786D01*
X17282729Y-9907398D01*
X17288660Y-9897126D01*
X17291730Y-9885668D01*
X17291730Y-9873806D01*
X17288660Y-9862349D01*
X17282729Y-9852076D01*
X17274342Y-9843688D01*
X17264069Y-9837757D01*
X17252611Y-9834687D01*
X17240750Y-9834687D01*
X17229292Y-9837757D01*
X17229292Y-9837757D01*
X17229292Y-9837757D01*
X17219019Y-9843688D01*
X17219019Y-9843688D01*
X17210632Y-9852076D01*
X17210632Y-9852076D01*
X17204701Y-9862349D01*
X17201630Y-9873806D01*
X14586467Y-9873806D01*
X14586467Y-9863411D01*
X14583057Y-9850681D01*
X14576467Y-9839269D01*
X14567149Y-9829950D01*
X14561442Y-9826655D01*
X14555736Y-9823361D01*
X14549371Y-9821655D01*
X14543007Y-9819950D01*
X14529828Y-9819950D01*
X14517099Y-9823361D01*
X14505686Y-9829950D01*
X14505686Y-9829950D01*
X14496368Y-9839268D01*
X14496367Y-9839269D01*
X14489778Y-9850681D01*
X14486367Y-9863411D01*
X13698094Y-9863411D01*
X13698020Y-9693411D01*
X14546367Y-9693411D01*
X14546367Y-9706589D01*
X14547812Y-9711980D01*
X14549778Y-9719319D01*
X14553042Y-9724972D01*
X14556367Y-9730731D01*
X14565686Y-9740050D01*
X14577099Y-9746639D01*
X14589828Y-9750050D01*
X14589828Y-9750050D01*
X14603006Y-9750050D01*
X14603007Y-9750050D01*
X14615736Y-9746639D01*
X14627149Y-9740050D01*
X14636467Y-9730731D01*
X14643057Y-9719319D01*
X14646467Y-9706589D01*
X14646467Y-9693411D01*
X14643057Y-9680681D01*
X14636467Y-9669269D01*
X14631268Y-9664069D01*
X14915773Y-9664069D01*
X14915773Y-9675931D01*
X14918843Y-9687389D01*
X14924774Y-9697661D01*
X14933162Y-9706049D01*
X14943434Y-9711980D01*
X14954892Y-9715050D01*
X14954892Y-9715050D01*
X14966754Y-9715050D01*
X14966754Y-9715050D01*
X14973991Y-9713111D01*
X15591367Y-9713111D01*
X15591367Y-9724973D01*
X15594438Y-9736430D01*
X15600369Y-9746703D01*
X15600369Y-9746703D01*
X15603689Y-9750024D01*
X15607038Y-9756156D01*
X15606539Y-9763125D01*
X15603689Y-9767560D01*
X15600369Y-9770880D01*
X15600369Y-9770881D01*
X15594438Y-9781153D01*
X15591367Y-9792611D01*
X15591367Y-9804473D01*
X15594438Y-9815930D01*
X15600369Y-9826203D01*
X15608756Y-9834591D01*
X15619029Y-9840522D01*
X15630487Y-9843592D01*
X15630487Y-9843592D01*
X15642348Y-9843592D01*
X15642348Y-9843592D01*
X15653806Y-9840522D01*
X15664079Y-9834591D01*
X15672466Y-9826203D01*
X15678397Y-9815930D01*
X15681467Y-9804473D01*
X15681467Y-9792611D01*
X15678397Y-9781153D01*
X15672466Y-9770881D01*
X15668955Y-9767369D01*
X15668773Y-9767171D01*
X15667795Y-9765178D01*
X16402476Y-9765178D01*
X16402476Y-9777040D01*
X16405547Y-9788498D01*
X16411478Y-9798771D01*
X16419865Y-9807158D01*
X16430138Y-9813089D01*
X16441596Y-9816159D01*
X16441596Y-9816159D01*
X16453457Y-9816159D01*
X16453457Y-9816159D01*
X16464915Y-9813089D01*
X16475188Y-9807158D01*
X16478277Y-9804069D01*
X16561367Y-9804069D01*
X16561367Y-9815931D01*
X16564438Y-9827389D01*
X16570369Y-9837661D01*
X16578756Y-9846049D01*
X16589029Y-9851980D01*
X16600487Y-9855050D01*
X16600487Y-9855050D01*
X16612348Y-9855050D01*
X16612348Y-9855050D01*
X16623806Y-9851980D01*
X16634079Y-9846049D01*
X16642466Y-9837661D01*
X16648397Y-9827389D01*
X16651467Y-9815931D01*
X16651467Y-9804069D01*
X16648397Y-9792611D01*
X16642466Y-9782339D01*
X16634079Y-9773951D01*
X16623806Y-9768020D01*
X16612348Y-9764950D01*
X16600487Y-9764950D01*
X16589029Y-9768020D01*
X16589029Y-9768020D01*
X16589029Y-9768020D01*
X16578756Y-9773951D01*
X16578756Y-9773951D01*
X16570369Y-9782338D01*
X16570369Y-9782339D01*
X16565380Y-9790980D01*
X16564438Y-9792611D01*
X16561367Y-9804069D01*
X16478277Y-9804069D01*
X16483575Y-9798771D01*
X16489506Y-9788498D01*
X16492576Y-9777040D01*
X16492576Y-9765178D01*
X16489506Y-9753721D01*
X16483575Y-9743448D01*
X16475188Y-9735060D01*
X16464915Y-9729129D01*
X16453457Y-9726059D01*
X16441596Y-9726059D01*
X16430138Y-9729129D01*
X16430138Y-9729129D01*
X16430138Y-9729129D01*
X16419865Y-9735060D01*
X16419865Y-9735061D01*
X16411478Y-9743448D01*
X16411478Y-9743448D01*
X16409598Y-9746703D01*
X16405547Y-9753721D01*
X16402476Y-9765178D01*
X15667795Y-9765178D01*
X15667347Y-9764266D01*
X15665797Y-9761428D01*
X15665817Y-9761149D01*
X15665694Y-9760899D01*
X15666065Y-9757685D01*
X15666296Y-9754458D01*
X15666468Y-9754190D01*
X15666495Y-9753958D01*
X15667064Y-9753263D01*
X15669146Y-9750024D01*
X15672466Y-9746703D01*
X15678397Y-9736430D01*
X15681467Y-9724973D01*
X15681467Y-9713111D01*
X15678397Y-9701653D01*
X15672466Y-9691381D01*
X15664079Y-9682993D01*
X15653806Y-9677062D01*
X15642348Y-9673992D01*
X15630487Y-9673992D01*
X15619029Y-9677062D01*
X15619029Y-9677062D01*
X15619029Y-9677062D01*
X15608756Y-9682993D01*
X15608756Y-9682993D01*
X15600369Y-9691380D01*
X15600369Y-9691381D01*
X15594438Y-9701653D01*
X15591367Y-9713111D01*
X14973991Y-9713111D01*
X14978212Y-9711980D01*
X14988484Y-9706049D01*
X14996872Y-9697661D01*
X15002803Y-9687389D01*
X15005873Y-9675931D01*
X15005873Y-9664069D01*
X15002803Y-9652611D01*
X14996872Y-9642339D01*
X14988484Y-9633951D01*
X14978212Y-9628020D01*
X14966754Y-9624950D01*
X14954892Y-9624950D01*
X14943434Y-9628020D01*
X14943434Y-9628020D01*
X14943434Y-9628020D01*
X14933162Y-9633951D01*
X14933161Y-9633951D01*
X14924774Y-9642338D01*
X14924774Y-9642339D01*
X14921859Y-9647389D01*
X14918843Y-9652611D01*
X14915773Y-9664069D01*
X14631268Y-9664069D01*
X14627149Y-9659950D01*
X14618662Y-9655050D01*
X14615736Y-9653361D01*
X14607107Y-9651049D01*
X14603007Y-9649950D01*
X14589828Y-9649950D01*
X14577099Y-9653361D01*
X14565686Y-9659950D01*
X14565686Y-9659950D01*
X14556368Y-9669268D01*
X14556367Y-9669269D01*
X14549778Y-9680681D01*
X14548902Y-9683951D01*
X14546367Y-9693411D01*
X13698020Y-9693411D01*
X13697990Y-9624069D01*
X15121367Y-9624069D01*
X15121367Y-9635931D01*
X15124438Y-9647389D01*
X15130369Y-9657661D01*
X15138756Y-9666049D01*
X15149029Y-9671980D01*
X15160487Y-9675050D01*
X15160487Y-9675050D01*
X15172348Y-9675050D01*
X15172348Y-9675050D01*
X15183806Y-9671980D01*
X15194079Y-9666049D01*
X15202466Y-9657661D01*
X15208397Y-9647389D01*
X15211467Y-9635931D01*
X15211467Y-9624069D01*
X15208397Y-9612611D01*
X15206352Y-9609069D01*
X16152367Y-9609069D01*
X16152367Y-9620931D01*
X16155438Y-9632389D01*
X16161369Y-9642661D01*
X16169756Y-9651049D01*
X16180029Y-9656980D01*
X16191487Y-9660050D01*
X16191487Y-9660050D01*
X16203348Y-9660050D01*
X16203348Y-9660050D01*
X16214806Y-9656980D01*
X16225079Y-9651049D01*
X16233466Y-9642661D01*
X16239397Y-9632389D01*
X16242467Y-9620931D01*
X16242467Y-9609069D01*
X16239397Y-9597611D01*
X16233466Y-9587339D01*
X16225079Y-9578951D01*
X16214806Y-9573020D01*
X16203348Y-9569950D01*
X16191487Y-9569950D01*
X16180029Y-9573020D01*
X16180029Y-9573020D01*
X16180029Y-9573020D01*
X16169756Y-9578951D01*
X16169756Y-9578951D01*
X16161369Y-9587338D01*
X16161369Y-9587339D01*
X16155438Y-9597611D01*
X16152367Y-9609069D01*
X15206352Y-9609069D01*
X15202466Y-9602339D01*
X15194079Y-9593951D01*
X15183806Y-9588020D01*
X15172348Y-9584950D01*
X15160487Y-9584950D01*
X15149029Y-9588020D01*
X15149029Y-9588020D01*
X15149029Y-9588020D01*
X15138756Y-9593951D01*
X15138756Y-9593951D01*
X15130369Y-9602338D01*
X15130369Y-9602339D01*
X15126483Y-9609069D01*
X15124438Y-9612611D01*
X15121367Y-9624069D01*
X13697990Y-9624069D01*
X13697929Y-9483411D01*
X13841367Y-9483411D01*
X13841367Y-9496589D01*
X13842238Y-9499838D01*
X13844778Y-9509319D01*
X13845236Y-9510111D01*
X13851367Y-9520731D01*
X13860686Y-9530050D01*
X13872099Y-9536639D01*
X13884828Y-9540050D01*
X13884828Y-9540050D01*
X13898006Y-9540050D01*
X13898007Y-9540050D01*
X13910736Y-9536639D01*
X13922149Y-9530050D01*
X13931467Y-9520731D01*
X13932019Y-9519776D01*
X14974243Y-9519776D01*
X14974243Y-9531638D01*
X14977313Y-9543096D01*
X14983244Y-9553369D01*
X14991631Y-9561756D01*
X15001904Y-9567687D01*
X15013362Y-9570757D01*
X15013362Y-9570757D01*
X15025223Y-9570757D01*
X15025224Y-9570757D01*
X15036681Y-9567687D01*
X15046954Y-9561756D01*
X15055342Y-9553369D01*
X15061273Y-9543096D01*
X15064343Y-9531638D01*
X15064343Y-9521569D01*
X15846867Y-9521569D01*
X15846867Y-9533431D01*
X15849938Y-9544889D01*
X15855869Y-9555161D01*
X15864256Y-9563549D01*
X15874529Y-9569480D01*
X15885987Y-9572550D01*
X15885987Y-9572550D01*
X15897848Y-9572550D01*
X15897848Y-9572550D01*
X15909306Y-9569480D01*
X15919579Y-9563549D01*
X15927966Y-9555161D01*
X15933897Y-9544889D01*
X15936967Y-9533431D01*
X15936967Y-9521569D01*
X15933897Y-9510111D01*
X15927966Y-9499839D01*
X15919579Y-9491451D01*
X15909306Y-9485520D01*
X15897848Y-9482450D01*
X15885987Y-9482450D01*
X15874529Y-9485520D01*
X15874529Y-9485520D01*
X15874529Y-9485520D01*
X15864256Y-9491451D01*
X15864256Y-9491451D01*
X15855869Y-9499838D01*
X15855869Y-9499839D01*
X15849938Y-9510111D01*
X15846867Y-9521569D01*
X15064343Y-9521569D01*
X15064343Y-9519776D01*
X15061273Y-9508319D01*
X15055342Y-9498046D01*
X15046954Y-9489658D01*
X15036681Y-9483727D01*
X15025224Y-9480657D01*
X15013362Y-9480657D01*
X15001904Y-9483727D01*
X15001904Y-9483727D01*
X15001904Y-9483728D01*
X14991631Y-9489658D01*
X14991631Y-9489659D01*
X14983244Y-9498046D01*
X14983244Y-9498046D01*
X14977313Y-9508319D01*
X14974243Y-9519776D01*
X13932019Y-9519776D01*
X13938057Y-9509319D01*
X13941467Y-9496589D01*
X13941467Y-9483411D01*
X13938057Y-9470681D01*
X13931467Y-9459269D01*
X13922149Y-9449950D01*
X13916442Y-9446655D01*
X13910736Y-9443361D01*
X13904371Y-9441655D01*
X13898007Y-9439950D01*
X13884828Y-9439950D01*
X13872099Y-9443361D01*
X13860686Y-9449950D01*
X13860686Y-9449950D01*
X13851368Y-9459268D01*
X13851367Y-9459269D01*
X13844778Y-9470681D01*
X13842531Y-9479069D01*
X13841367Y-9483411D01*
X13697929Y-9483411D01*
X13697905Y-9427793D01*
X13655447Y-9385281D01*
X13653086Y-9385280D01*
X13289498Y-9385016D01*
X13282795Y-9383043D01*
X13280746Y-9381392D01*
X13193281Y-9294069D01*
X13611367Y-9294069D01*
X13611367Y-9305931D01*
X13614438Y-9317389D01*
X13620369Y-9327661D01*
X13628756Y-9336049D01*
X13639029Y-9341980D01*
X13650487Y-9345050D01*
X13650487Y-9345050D01*
X13662348Y-9345050D01*
X13662348Y-9345050D01*
X13673806Y-9341980D01*
X13684079Y-9336049D01*
X13692466Y-9327661D01*
X13698397Y-9317389D01*
X13701467Y-9305931D01*
X13701467Y-9294069D01*
X15181367Y-9294069D01*
X15181367Y-9305931D01*
X15184438Y-9317389D01*
X15190369Y-9327661D01*
X15198756Y-9336049D01*
X15209029Y-9341980D01*
X15220487Y-9345050D01*
X15220487Y-9345050D01*
X15232348Y-9345050D01*
X15232348Y-9345050D01*
X15243806Y-9341980D01*
X15254079Y-9336049D01*
X15262466Y-9327661D01*
X15268397Y-9317389D01*
X15271467Y-9305931D01*
X15271467Y-9294069D01*
X15268397Y-9282611D01*
X15262466Y-9272339D01*
X15254079Y-9263951D01*
X15243806Y-9258020D01*
X15232348Y-9254950D01*
X15220487Y-9254950D01*
X15209029Y-9258020D01*
X15209029Y-9258020D01*
X15209029Y-9258020D01*
X15198756Y-9263951D01*
X15198756Y-9263951D01*
X15190369Y-9272338D01*
X15190369Y-9272339D01*
X15184438Y-9282611D01*
X15181367Y-9294069D01*
X13701467Y-9294069D01*
X13698397Y-9282611D01*
X13692466Y-9272339D01*
X13684079Y-9263951D01*
X13673806Y-9258020D01*
X13662348Y-9254950D01*
X13650487Y-9254950D01*
X13639029Y-9258020D01*
X13639029Y-9258020D01*
X13639029Y-9258020D01*
X13628756Y-9263951D01*
X13628756Y-9263951D01*
X13620369Y-9272338D01*
X13620369Y-9272339D01*
X13614438Y-9282611D01*
X13611367Y-9294069D01*
X13193281Y-9294069D01*
X13080505Y-9181476D01*
X13901525Y-9181476D01*
X13901525Y-9193338D01*
X13904595Y-9204796D01*
X13910526Y-9215068D01*
X13918913Y-9223456D01*
X13929186Y-9229387D01*
X13940644Y-9232457D01*
X13940644Y-9232457D01*
X13952505Y-9232457D01*
X13952506Y-9232457D01*
X13963963Y-9229387D01*
X13974236Y-9223456D01*
X13982624Y-9215068D01*
X13983200Y-9214069D01*
X14768950Y-9214069D01*
X14768950Y-9225931D01*
X14772020Y-9237389D01*
X14777951Y-9247661D01*
X14786339Y-9256049D01*
X14796611Y-9261980D01*
X14808069Y-9265050D01*
X14808069Y-9265050D01*
X14819931Y-9265050D01*
X14819931Y-9265050D01*
X14831389Y-9261980D01*
X14841661Y-9256049D01*
X14850049Y-9247661D01*
X14855980Y-9237389D01*
X14859050Y-9225931D01*
X14859050Y-9214069D01*
X14855980Y-9202611D01*
X14850049Y-9192339D01*
X14841661Y-9183951D01*
X14831389Y-9178020D01*
X14819931Y-9174950D01*
X14808069Y-9174950D01*
X14796611Y-9178020D01*
X14796611Y-9178020D01*
X14796611Y-9178020D01*
X14786339Y-9183951D01*
X14786338Y-9183951D01*
X14777951Y-9192338D01*
X14777951Y-9192339D01*
X14772020Y-9202611D01*
X14768950Y-9214069D01*
X13983200Y-9214069D01*
X13988555Y-9204796D01*
X13991625Y-9193338D01*
X13991625Y-9181476D01*
X13988555Y-9170018D01*
X13982624Y-9159746D01*
X13974236Y-9151358D01*
X13963963Y-9145427D01*
X13958896Y-9144069D01*
X14471367Y-9144069D01*
X14471367Y-9155931D01*
X14474438Y-9167389D01*
X14480369Y-9177661D01*
X14488756Y-9186049D01*
X14499029Y-9191980D01*
X14510487Y-9195050D01*
X14510487Y-9195050D01*
X14522348Y-9195050D01*
X14522348Y-9195050D01*
X14533806Y-9191980D01*
X14544079Y-9186049D01*
X14552466Y-9177661D01*
X14558397Y-9167389D01*
X14561467Y-9155931D01*
X14561467Y-9144069D01*
X14558397Y-9132611D01*
X14552466Y-9122339D01*
X14544079Y-9113951D01*
X14533806Y-9108020D01*
X14522348Y-9104950D01*
X14510487Y-9104950D01*
X14499029Y-9108020D01*
X14499029Y-9108020D01*
X14499029Y-9108020D01*
X14488756Y-9113951D01*
X14488756Y-9113951D01*
X14480369Y-9122338D01*
X14480369Y-9122339D01*
X14474438Y-9132611D01*
X14471367Y-9144069D01*
X13958896Y-9144069D01*
X13952506Y-9142357D01*
X13940644Y-9142357D01*
X13929186Y-9145427D01*
X13929186Y-9145427D01*
X13929186Y-9145427D01*
X13918913Y-9151358D01*
X13918913Y-9151358D01*
X13910526Y-9159745D01*
X13910526Y-9159746D01*
X13904595Y-9170018D01*
X13901525Y-9181476D01*
X13080505Y-9181476D01*
X13021271Y-9122338D01*
X12895835Y-8997106D01*
X12892481Y-8990977D01*
X12892974Y-8984007D01*
X12897157Y-8978410D01*
X12903701Y-8975963D01*
X12910530Y-8977443D01*
X12911485Y-8978021D01*
X12912565Y-8978742D01*
X12912565Y-8978743D01*
X12912566Y-8978743D01*
X12912566Y-8978743D01*
X12912566Y-8978743D01*
X12928924Y-8985519D01*
X12930790Y-8986292D01*
X12930791Y-8986292D01*
X12930791Y-8986292D01*
X12950137Y-8990140D01*
X12950137Y-8990140D01*
X12969863Y-8990140D01*
X12982879Y-8987551D01*
X12989210Y-8986292D01*
X13007434Y-8978743D01*
X13023835Y-8967784D01*
X13037784Y-8953836D01*
X13048743Y-8937434D01*
X13056292Y-8919210D01*
X13058136Y-8909940D01*
X13060140Y-8899863D01*
X13113860Y-8899863D01*
X13117708Y-8919209D01*
X13117708Y-8919210D01*
X13125257Y-8937433D01*
X13125257Y-8937435D01*
X13136216Y-8953835D01*
X13136216Y-8953836D01*
X13150164Y-8967784D01*
X13150164Y-8967784D01*
X13166565Y-8978743D01*
X13166566Y-8978743D01*
X13182924Y-8985519D01*
X13184790Y-8986292D01*
X13184791Y-8986292D01*
X13184791Y-8986292D01*
X13204137Y-8990140D01*
X13204137Y-8990140D01*
X13223863Y-8990140D01*
X13236879Y-8987551D01*
X13243210Y-8986292D01*
X13261434Y-8978743D01*
X13277835Y-8967784D01*
X13291784Y-8953836D01*
X13302743Y-8937434D01*
X13310292Y-8919210D01*
X13312136Y-8909940D01*
X13314140Y-8899863D01*
X13367860Y-8899863D01*
X13371708Y-8919209D01*
X13371708Y-8919210D01*
X13379257Y-8937433D01*
X13379257Y-8937435D01*
X13390216Y-8953835D01*
X13390216Y-8953836D01*
X13404164Y-8967784D01*
X13404164Y-8967784D01*
X13420565Y-8978743D01*
X13420566Y-8978743D01*
X13436924Y-8985519D01*
X13438790Y-8986292D01*
X13438791Y-8986292D01*
X13438791Y-8986292D01*
X13458137Y-8990140D01*
X13458137Y-8990140D01*
X13477863Y-8990140D01*
X13490879Y-8987551D01*
X13497210Y-8986292D01*
X13515434Y-8978743D01*
X13531835Y-8967784D01*
X13545784Y-8953836D01*
X13556743Y-8937434D01*
X13564292Y-8919210D01*
X13566136Y-8909940D01*
X13568140Y-8899863D01*
X13621860Y-8899863D01*
X13625708Y-8919209D01*
X13625708Y-8919210D01*
X13633257Y-8937433D01*
X13633257Y-8937435D01*
X13644216Y-8953835D01*
X13644216Y-8953836D01*
X13658164Y-8967784D01*
X13658164Y-8967784D01*
X13674565Y-8978743D01*
X13674566Y-8978743D01*
X13690924Y-8985519D01*
X13692790Y-8986292D01*
X13692791Y-8986292D01*
X13692791Y-8986292D01*
X13712137Y-8990140D01*
X13712137Y-8990140D01*
X13731863Y-8990140D01*
X13744879Y-8987551D01*
X13751210Y-8986292D01*
X13753076Y-8985519D01*
X13753340Y-8985409D01*
X13769433Y-8978743D01*
X13769433Y-8978743D01*
X13769434Y-8978743D01*
X13785835Y-8967784D01*
X13799784Y-8953836D01*
X13810743Y-8937434D01*
X13818292Y-8919210D01*
X13818975Y-8915773D01*
X13822213Y-8909583D01*
X13828285Y-8906125D01*
X13835262Y-8906499D01*
X13840929Y-8910586D01*
X13843384Y-8916253D01*
X13844236Y-8921634D01*
X13850807Y-8941856D01*
X13850807Y-8941857D01*
X13860461Y-8960803D01*
X13864408Y-8966236D01*
X13864408Y-8966236D01*
X13919792Y-8910853D01*
X13920378Y-8913040D01*
X13928236Y-8926651D01*
X13939349Y-8937764D01*
X13952960Y-8945622D01*
X13955147Y-8946208D01*
X13899764Y-9001591D01*
X13899764Y-9001592D01*
X13905197Y-9005539D01*
X13924143Y-9015193D01*
X13924144Y-9015193D01*
X13944366Y-9021764D01*
X13965368Y-9025090D01*
X13986632Y-9025090D01*
X13995632Y-9023665D01*
X15642392Y-9023665D01*
X15642392Y-9153835D01*
X15645196Y-9167928D01*
X15645196Y-9167929D01*
X15650695Y-9181204D01*
X15650695Y-9181205D01*
X15658678Y-9193153D01*
X15658679Y-9193153D01*
X15668839Y-9203314D01*
X15668840Y-9203314D01*
X15680787Y-9211297D01*
X15680788Y-9211298D01*
X15689891Y-9215068D01*
X15694064Y-9216797D01*
X15694064Y-9216797D01*
X15694064Y-9216797D01*
X15708157Y-9219600D01*
X15708157Y-9219600D01*
X15708157Y-9219600D01*
X15722528Y-9219600D01*
X15722528Y-9219600D01*
X15727225Y-9218666D01*
X15736620Y-9216797D01*
X15736621Y-9216797D01*
X15736621Y-9216797D01*
X15749897Y-9211298D01*
X15761845Y-9203314D01*
X15772006Y-9193153D01*
X15779990Y-9181205D01*
X15785489Y-9167929D01*
X15785597Y-9167389D01*
X15787876Y-9155931D01*
X15788292Y-9153835D01*
X15788292Y-9057918D01*
X15790261Y-9051214D01*
X15795541Y-9046638D01*
X15802457Y-9045644D01*
X15808813Y-9048546D01*
X15809461Y-9049150D01*
X15816611Y-9056300D01*
X15828024Y-9062889D01*
X15840753Y-9066300D01*
X15840753Y-9066300D01*
X15853931Y-9066300D01*
X15853932Y-9066300D01*
X15866661Y-9062889D01*
X15878074Y-9056300D01*
X15887392Y-9046981D01*
X15893982Y-9035569D01*
X15897392Y-9022839D01*
X15897392Y-9009661D01*
X15897340Y-9009463D01*
X16395792Y-9009463D01*
X16395792Y-9023037D01*
X16398717Y-9033951D01*
X16399306Y-9036148D01*
X16406092Y-9047902D01*
X16406092Y-9047902D01*
X16406092Y-9047902D01*
X16415690Y-9057500D01*
X16415690Y-9057500D01*
X16415690Y-9057500D01*
X16427445Y-9064287D01*
X16427445Y-9064287D01*
X16427445Y-9064287D01*
X16440556Y-9067800D01*
X16440556Y-9067800D01*
X16454129Y-9067800D01*
X16454129Y-9067800D01*
X16467240Y-9064287D01*
X16478995Y-9057500D01*
X16485224Y-9051271D01*
X16491357Y-9047922D01*
X16498326Y-9048421D01*
X16503919Y-9052608D01*
X16506361Y-9059154D01*
X16506392Y-9060039D01*
X16506392Y-9153835D01*
X16509196Y-9167928D01*
X16509196Y-9167929D01*
X16514695Y-9181204D01*
X16514695Y-9181205D01*
X16522678Y-9193153D01*
X16522679Y-9193153D01*
X16532839Y-9203314D01*
X16532840Y-9203314D01*
X16544787Y-9211297D01*
X16544788Y-9211298D01*
X16553891Y-9215068D01*
X16558064Y-9216797D01*
X16558064Y-9216797D01*
X16558064Y-9216797D01*
X16572157Y-9219600D01*
X16572157Y-9219600D01*
X16572157Y-9219600D01*
X16586528Y-9219600D01*
X16586528Y-9219600D01*
X16591225Y-9218666D01*
X16600620Y-9216797D01*
X16600621Y-9216797D01*
X16600621Y-9216797D01*
X16613897Y-9211298D01*
X16625845Y-9203314D01*
X16636006Y-9193153D01*
X16643990Y-9181205D01*
X16649489Y-9167929D01*
X16649597Y-9167389D01*
X16651876Y-9155931D01*
X16652292Y-9153835D01*
X16652292Y-9023665D01*
X16650607Y-9015193D01*
X16649489Y-9009572D01*
X16649489Y-9009571D01*
X16649444Y-9009463D01*
X16646184Y-9001592D01*
X16643990Y-8996296D01*
X16643990Y-8996295D01*
X16636006Y-8984347D01*
X16636006Y-8984347D01*
X16625846Y-8974186D01*
X16625845Y-8974186D01*
X16613898Y-8966203D01*
X16613897Y-8966202D01*
X16600621Y-8960703D01*
X16600620Y-8960703D01*
X16586528Y-8957900D01*
X16586527Y-8957900D01*
X16572157Y-8957900D01*
X16572157Y-8957900D01*
X16558064Y-8960703D01*
X16558064Y-8960703D01*
X16544788Y-8966202D01*
X16544787Y-8966203D01*
X16532840Y-8974186D01*
X16532839Y-8974186D01*
X16522679Y-8984347D01*
X16522678Y-8984347D01*
X16515393Y-8995250D01*
X16510032Y-8999730D01*
X16503100Y-9000601D01*
X16496797Y-8997585D01*
X16494345Y-8994560D01*
X16491793Y-8990140D01*
X16488593Y-8984598D01*
X16478995Y-8975000D01*
X16478995Y-8975000D01*
X16478994Y-8975000D01*
X16467240Y-8968213D01*
X16467240Y-8968213D01*
X16465637Y-8967784D01*
X16454129Y-8964700D01*
X16440556Y-8964700D01*
X16429048Y-8967784D01*
X16427445Y-8968213D01*
X16415690Y-8975000D01*
X16415690Y-8975000D01*
X16406092Y-8984597D01*
X16406092Y-8984598D01*
X16399306Y-8996352D01*
X16399306Y-8996353D01*
X16395792Y-9009463D01*
X15897340Y-9009463D01*
X15893982Y-8996931D01*
X15887392Y-8985519D01*
X15878074Y-8976200D01*
X15872367Y-8972905D01*
X15866661Y-8969611D01*
X15859841Y-8967784D01*
X15853932Y-8966200D01*
X15840753Y-8966200D01*
X15828024Y-8969611D01*
X15816611Y-8976200D01*
X15816611Y-8976200D01*
X15807293Y-8985518D01*
X15807292Y-8985519D01*
X15801269Y-8995951D01*
X15796212Y-9000772D01*
X15789352Y-9002095D01*
X15782865Y-8999498D01*
X15780220Y-8996640D01*
X15772006Y-8984347D01*
X15772006Y-8984347D01*
X15761846Y-8974186D01*
X15761845Y-8974186D01*
X15749898Y-8966203D01*
X15749897Y-8966202D01*
X15736621Y-8960703D01*
X15736620Y-8960703D01*
X15722528Y-8957900D01*
X15722527Y-8957900D01*
X15708157Y-8957900D01*
X15708157Y-8957900D01*
X15694064Y-8960703D01*
X15694064Y-8960703D01*
X15680788Y-8966202D01*
X15680787Y-8966203D01*
X15668840Y-8974186D01*
X15668839Y-8974186D01*
X15658679Y-8984347D01*
X15658678Y-8984347D01*
X15650695Y-8996295D01*
X15650695Y-8996296D01*
X15645196Y-9009571D01*
X15645196Y-9009572D01*
X15642392Y-9023665D01*
X13995632Y-9023665D01*
X14007634Y-9021764D01*
X14027856Y-9015193D01*
X14027857Y-9015193D01*
X14034108Y-9012007D01*
X14046802Y-9005540D01*
X14046803Y-9005539D01*
X14052236Y-9001592D01*
X14052236Y-9001591D01*
X13996853Y-8946208D01*
X13999039Y-8945622D01*
X14012650Y-8937764D01*
X14023764Y-8926651D01*
X14031622Y-8913040D01*
X14032208Y-8910853D01*
X14087591Y-8966236D01*
X14087591Y-8966236D01*
X14091539Y-8960803D01*
X14091540Y-8960802D01*
X14101193Y-8941857D01*
X14101193Y-8941856D01*
X14107764Y-8921634D01*
X14108616Y-8916253D01*
X14111609Y-8909940D01*
X14117540Y-8906246D01*
X14124526Y-8906346D01*
X14130349Y-8910207D01*
X14133025Y-8915773D01*
X14133708Y-8919209D01*
X14133708Y-8919210D01*
X14141257Y-8937433D01*
X14141257Y-8937435D01*
X14152216Y-8953835D01*
X14152216Y-8953836D01*
X14166164Y-8967784D01*
X14166164Y-8967784D01*
X14182565Y-8978743D01*
X14182566Y-8978743D01*
X14198924Y-8985519D01*
X14200790Y-8986292D01*
X14200791Y-8986292D01*
X14200791Y-8986292D01*
X14220137Y-8990140D01*
X14220137Y-8990140D01*
X14239863Y-8990140D01*
X14252879Y-8987551D01*
X14259210Y-8986292D01*
X14277434Y-8978743D01*
X14293835Y-8967784D01*
X14307784Y-8953836D01*
X14318743Y-8937434D01*
X14321106Y-8931728D01*
X14468744Y-8931728D01*
X14468744Y-8943590D01*
X14471814Y-8955048D01*
X14477745Y-8965321D01*
X14486133Y-8973708D01*
X14496406Y-8979639D01*
X14507863Y-8982709D01*
X14507864Y-8982709D01*
X14519725Y-8982709D01*
X14519725Y-8982709D01*
X14531183Y-8979639D01*
X14541455Y-8973708D01*
X14549843Y-8965321D01*
X14555774Y-8955048D01*
X14558844Y-8943590D01*
X14558844Y-8931728D01*
X14555774Y-8920271D01*
X14549843Y-8909998D01*
X14541455Y-8901610D01*
X14531183Y-8895679D01*
X14519725Y-8892609D01*
X14507863Y-8892609D01*
X14496406Y-8895679D01*
X14496405Y-8895679D01*
X14496405Y-8895680D01*
X14486133Y-8901610D01*
X14486133Y-8901611D01*
X14477745Y-8909998D01*
X14477745Y-8909998D01*
X14472427Y-8919210D01*
X14471814Y-8920271D01*
X14468744Y-8931728D01*
X14321106Y-8931728D01*
X14326292Y-8919210D01*
X14328136Y-8909940D01*
X14330140Y-8899863D01*
X14330140Y-8880137D01*
X14326292Y-8860791D01*
X14326292Y-8860791D01*
X14326292Y-8860790D01*
X14319638Y-8844727D01*
X14318743Y-8842567D01*
X14318742Y-8842565D01*
X14307784Y-8826165D01*
X14307783Y-8826164D01*
X14293836Y-8812216D01*
X14293835Y-8812216D01*
X14277435Y-8801257D01*
X14277433Y-8801257D01*
X14259210Y-8793709D01*
X14259209Y-8793708D01*
X14239863Y-8789860D01*
X14239863Y-8789860D01*
X14220137Y-8789860D01*
X14220137Y-8789860D01*
X14200791Y-8793708D01*
X14200790Y-8793709D01*
X14182566Y-8801257D01*
X14182565Y-8801257D01*
X14166164Y-8812216D01*
X14166164Y-8812216D01*
X14152216Y-8826164D01*
X14152216Y-8826165D01*
X14141257Y-8842565D01*
X14141257Y-8842567D01*
X14133708Y-8860790D01*
X14133708Y-8860791D01*
X14133025Y-8864227D01*
X14129786Y-8870418D01*
X14123715Y-8873875D01*
X14116738Y-8873501D01*
X14111070Y-8869414D01*
X14108616Y-8863747D01*
X14107763Y-8858366D01*
X14101193Y-8838144D01*
X14101193Y-8838143D01*
X14091539Y-8819197D01*
X14087591Y-8813764D01*
X14087591Y-8813764D01*
X14032208Y-8869147D01*
X14031622Y-8866961D01*
X14023764Y-8853350D01*
X14012650Y-8842236D01*
X13999039Y-8834378D01*
X13996853Y-8833792D01*
X14052236Y-8778409D01*
X14052236Y-8778408D01*
X14046803Y-8774461D01*
X14045196Y-8773642D01*
X15640292Y-8773642D01*
X15643176Y-8788141D01*
X15643177Y-8788142D01*
X15648834Y-8801799D01*
X15648834Y-8801800D01*
X15657047Y-8814092D01*
X15657048Y-8814092D01*
X15667500Y-8824545D01*
X15667501Y-8824545D01*
X15679792Y-8832758D01*
X15679794Y-8832759D01*
X15692793Y-8838143D01*
X15693451Y-8838416D01*
X15693452Y-8838416D01*
X15693452Y-8838416D01*
X15707950Y-8841300D01*
X15707951Y-8841300D01*
X15722734Y-8841300D01*
X15732489Y-8839360D01*
X15737234Y-8838416D01*
X15750892Y-8832758D01*
X15763184Y-8824545D01*
X15773638Y-8814092D01*
X15781851Y-8801800D01*
X15782075Y-8801257D01*
X15784751Y-8794799D01*
X15787508Y-8788141D01*
X15789444Y-8778409D01*
X15790392Y-8773642D01*
X16504292Y-8773642D01*
X16507176Y-8788141D01*
X16507177Y-8788142D01*
X16512834Y-8801799D01*
X16512834Y-8801800D01*
X16521047Y-8814092D01*
X16521048Y-8814092D01*
X16531500Y-8824545D01*
X16531501Y-8824545D01*
X16543792Y-8832758D01*
X16543794Y-8832759D01*
X16556793Y-8838143D01*
X16557451Y-8838416D01*
X16557452Y-8838416D01*
X16557452Y-8838416D01*
X16571950Y-8841300D01*
X16571951Y-8841300D01*
X16586734Y-8841300D01*
X16596489Y-8839360D01*
X16601234Y-8838416D01*
X16614892Y-8832758D01*
X16627184Y-8824545D01*
X16637638Y-8814092D01*
X16645851Y-8801800D01*
X16646075Y-8801257D01*
X16648751Y-8794799D01*
X16651508Y-8788141D01*
X16653444Y-8778409D01*
X16654392Y-8773642D01*
X16654392Y-8638858D01*
X16651508Y-8624359D01*
X16651508Y-8624359D01*
X16651508Y-8624359D01*
X16651508Y-8624358D01*
X16645851Y-8610701D01*
X16645850Y-8610700D01*
X16637638Y-8598408D01*
X16637637Y-8598408D01*
X16627184Y-8587955D01*
X16627184Y-8587955D01*
X16614893Y-8579742D01*
X16614891Y-8579741D01*
X16601234Y-8574084D01*
X16601233Y-8574084D01*
X16586734Y-8571200D01*
X16586734Y-8571200D01*
X16571951Y-8571200D01*
X16571950Y-8571200D01*
X16557452Y-8574084D01*
X16557451Y-8574084D01*
X16543794Y-8579741D01*
X16543792Y-8579742D01*
X16531501Y-8587955D01*
X16531500Y-8587955D01*
X16521048Y-8598408D01*
X16521047Y-8598408D01*
X16512834Y-8610700D01*
X16512834Y-8610701D01*
X16507177Y-8624358D01*
X16507176Y-8624359D01*
X16504292Y-8638858D01*
X16504292Y-8638858D01*
X16504292Y-8773642D01*
X16504292Y-8773642D01*
X16504292Y-8773642D01*
X15790392Y-8773642D01*
X15790392Y-8638858D01*
X15787508Y-8624359D01*
X15787508Y-8624359D01*
X15787508Y-8624359D01*
X15787508Y-8624358D01*
X15781851Y-8610701D01*
X15781850Y-8610700D01*
X15773638Y-8598408D01*
X15773637Y-8598408D01*
X15763184Y-8587955D01*
X15763184Y-8587955D01*
X15750893Y-8579742D01*
X15750891Y-8579741D01*
X15737234Y-8574084D01*
X15737233Y-8574084D01*
X15722734Y-8571200D01*
X15722734Y-8571200D01*
X15707951Y-8571200D01*
X15707950Y-8571200D01*
X15693452Y-8574084D01*
X15693451Y-8574084D01*
X15679794Y-8579741D01*
X15679792Y-8579742D01*
X15667501Y-8587955D01*
X15667500Y-8587955D01*
X15657048Y-8598408D01*
X15657047Y-8598408D01*
X15648834Y-8610700D01*
X15648834Y-8610701D01*
X15643177Y-8624358D01*
X15643176Y-8624359D01*
X15640292Y-8638858D01*
X15640292Y-8638858D01*
X15640292Y-8773642D01*
X15640292Y-8773642D01*
X15640292Y-8773642D01*
X14045196Y-8773642D01*
X14027857Y-8764807D01*
X14027856Y-8764807D01*
X14007634Y-8758236D01*
X13986632Y-8754910D01*
X13965368Y-8754910D01*
X13944366Y-8758236D01*
X13924144Y-8764807D01*
X13924143Y-8764807D01*
X13905197Y-8774461D01*
X13905197Y-8774461D01*
X13899764Y-8778408D01*
X13899764Y-8778408D01*
X13955147Y-8833792D01*
X13952960Y-8834378D01*
X13939349Y-8842236D01*
X13928236Y-8853350D01*
X13920378Y-8866961D01*
X13919792Y-8869147D01*
X13864408Y-8813764D01*
X13860461Y-8819197D01*
X13860461Y-8819198D01*
X13850807Y-8838143D01*
X13850807Y-8838144D01*
X13844236Y-8858366D01*
X13843384Y-8863747D01*
X13840391Y-8870061D01*
X13834460Y-8873754D01*
X13827474Y-8873654D01*
X13821650Y-8869793D01*
X13818975Y-8864226D01*
X13818292Y-8860790D01*
X13811638Y-8844727D01*
X13810743Y-8842567D01*
X13810742Y-8842565D01*
X13799784Y-8826165D01*
X13799783Y-8826164D01*
X13785836Y-8812216D01*
X13785835Y-8812216D01*
X13769435Y-8801257D01*
X13769433Y-8801257D01*
X13753339Y-8794590D01*
X13751210Y-8793708D01*
X13751209Y-8793708D01*
X13731863Y-8789860D01*
X13731863Y-8789860D01*
X13712137Y-8789860D01*
X13712137Y-8789860D01*
X13692791Y-8793708D01*
X13692790Y-8793709D01*
X13674566Y-8801257D01*
X13674565Y-8801257D01*
X13658164Y-8812216D01*
X13658164Y-8812216D01*
X13644216Y-8826164D01*
X13644216Y-8826165D01*
X13633257Y-8842565D01*
X13633257Y-8842567D01*
X13625708Y-8860790D01*
X13625708Y-8860791D01*
X13621860Y-8880137D01*
X13621860Y-8880137D01*
X13621860Y-8899863D01*
X13621860Y-8899863D01*
X13621860Y-8899863D01*
X13568140Y-8899863D01*
X13568140Y-8880137D01*
X13564292Y-8860791D01*
X13564292Y-8860791D01*
X13564292Y-8860790D01*
X13557638Y-8844727D01*
X13556743Y-8842567D01*
X13556742Y-8842565D01*
X13545784Y-8826165D01*
X13545783Y-8826164D01*
X13531836Y-8812216D01*
X13531835Y-8812216D01*
X13515435Y-8801257D01*
X13515433Y-8801257D01*
X13497210Y-8793709D01*
X13497209Y-8793708D01*
X13477863Y-8789860D01*
X13477863Y-8789860D01*
X13458137Y-8789860D01*
X13458137Y-8789860D01*
X13438791Y-8793708D01*
X13438790Y-8793709D01*
X13420566Y-8801257D01*
X13420565Y-8801257D01*
X13404164Y-8812216D01*
X13404164Y-8812216D01*
X13390216Y-8826164D01*
X13390216Y-8826165D01*
X13379257Y-8842565D01*
X13379257Y-8842567D01*
X13371708Y-8860790D01*
X13371708Y-8860791D01*
X13367860Y-8880137D01*
X13367860Y-8880137D01*
X13367860Y-8899863D01*
X13367860Y-8899863D01*
X13367860Y-8899863D01*
X13314140Y-8899863D01*
X13314140Y-8880137D01*
X13310292Y-8860791D01*
X13310292Y-8860791D01*
X13310292Y-8860790D01*
X13303638Y-8844727D01*
X13302743Y-8842567D01*
X13302742Y-8842565D01*
X13291784Y-8826165D01*
X13291783Y-8826164D01*
X13277836Y-8812216D01*
X13277835Y-8812216D01*
X13261435Y-8801257D01*
X13261433Y-8801257D01*
X13243210Y-8793709D01*
X13243209Y-8793708D01*
X13223863Y-8789860D01*
X13223863Y-8789860D01*
X13204137Y-8789860D01*
X13204137Y-8789860D01*
X13184791Y-8793708D01*
X13184790Y-8793709D01*
X13166566Y-8801257D01*
X13166565Y-8801257D01*
X13150164Y-8812216D01*
X13150164Y-8812216D01*
X13136216Y-8826164D01*
X13136216Y-8826165D01*
X13125257Y-8842565D01*
X13125257Y-8842567D01*
X13117708Y-8860790D01*
X13117708Y-8860791D01*
X13113860Y-8880137D01*
X13113860Y-8880137D01*
X13113860Y-8899863D01*
X13113860Y-8899863D01*
X13113860Y-8899863D01*
X13060140Y-8899863D01*
X13060140Y-8880137D01*
X13056292Y-8860791D01*
X13056292Y-8860791D01*
X13056292Y-8860790D01*
X13049638Y-8844727D01*
X13048743Y-8842567D01*
X13048742Y-8842565D01*
X13037784Y-8826165D01*
X13037783Y-8826164D01*
X13023836Y-8812216D01*
X13023835Y-8812216D01*
X13007435Y-8801257D01*
X13007433Y-8801257D01*
X12989210Y-8793709D01*
X12989209Y-8793708D01*
X12969863Y-8789860D01*
X12969863Y-8789860D01*
X12950137Y-8789860D01*
X12950137Y-8789860D01*
X12930791Y-8793708D01*
X12930790Y-8793709D01*
X12912566Y-8801257D01*
X12912565Y-8801257D01*
X12896164Y-8812216D01*
X12896164Y-8812216D01*
X12882216Y-8826164D01*
X12882216Y-8826165D01*
X12871257Y-8842565D01*
X12871257Y-8842567D01*
X12863708Y-8860790D01*
X12863708Y-8860791D01*
X12859860Y-8880137D01*
X12859860Y-8880137D01*
X12859860Y-8899863D01*
X12859860Y-8899863D01*
X12859860Y-8899863D01*
X12863708Y-8919209D01*
X12863708Y-8919210D01*
X12871257Y-8937433D01*
X12871257Y-8937434D01*
X12872119Y-8938725D01*
X12874207Y-8945393D01*
X12872358Y-8952131D01*
X12867160Y-8956799D01*
X12860263Y-8957917D01*
X12853857Y-8955128D01*
X12853048Y-8954389D01*
X12545183Y-8647024D01*
X12459245Y-8561225D01*
X12455891Y-8555096D01*
X12456384Y-8548126D01*
X12460566Y-8542529D01*
X12467111Y-8540082D01*
X12468006Y-8540050D01*
X17904280Y-8540050D01*
X17910984Y-8542019D01*
X17915560Y-8547299D01*
X17916680Y-8552450D01*
X17916680Y-10839756D01*
X18267904Y-11190980D01*
X18927768Y-11190980D01*
X18934472Y-11192948D01*
X18936536Y-11194612D01*
X19318049Y-11576124D01*
X19321397Y-11582256D01*
X19321680Y-11584892D01*
X19321680Y-11967550D01*
X19319712Y-11974254D01*
X19314432Y-11978829D01*
X19309280Y-11979950D01*
X13735451Y-11979950D01*
X13728747Y-11977981D01*
X13724172Y-11972701D01*
X13723051Y-11967558D01*
X13722991Y-11870212D01*
X13722941Y-11789069D01*
X15623950Y-11789069D01*
X15623950Y-11800931D01*
X15627020Y-11812389D01*
X15632951Y-11822661D01*
X15641339Y-11831049D01*
X15651611Y-11836980D01*
X15663069Y-11840050D01*
X15663069Y-11840050D01*
X15674931Y-11840050D01*
X15674931Y-11840050D01*
X15686389Y-11836980D01*
X15696661Y-11831049D01*
X15705049Y-11822661D01*
X15710980Y-11812389D01*
X15714050Y-11800931D01*
X15714050Y-11789069D01*
X15710980Y-11777611D01*
X15705049Y-11767339D01*
X15696661Y-11758951D01*
X15686389Y-11753020D01*
X15674931Y-11749950D01*
X15663069Y-11749950D01*
X15651611Y-11753020D01*
X15651611Y-11753020D01*
X15651611Y-11753020D01*
X15641339Y-11758951D01*
X15641338Y-11758951D01*
X15632951Y-11767338D01*
X15632951Y-11767339D01*
X15627020Y-11777611D01*
X15623950Y-11789069D01*
X13722941Y-11789069D01*
X13722731Y-11449069D01*
X15523950Y-11449069D01*
X15523950Y-11460931D01*
X15527020Y-11472389D01*
X15532951Y-11482661D01*
X15541339Y-11491049D01*
X15551611Y-11496980D01*
X15563069Y-11500050D01*
X15563069Y-11500050D01*
X15574931Y-11500050D01*
X15574931Y-11500050D01*
X15586389Y-11496980D01*
X15596661Y-11491049D01*
X15605049Y-11482661D01*
X15610980Y-11472389D01*
X15614050Y-11460931D01*
X15614050Y-11449069D01*
X15610980Y-11437611D01*
X15605049Y-11427339D01*
X15596661Y-11418951D01*
X15586389Y-11413020D01*
X15574931Y-11409950D01*
X15563069Y-11409950D01*
X15551611Y-11413020D01*
X15551611Y-11413020D01*
X15551611Y-11413020D01*
X15541339Y-11418951D01*
X15541338Y-11418951D01*
X15532951Y-11427338D01*
X15532951Y-11427339D01*
X15527020Y-11437611D01*
X15523950Y-11449069D01*
X13722731Y-11449069D01*
X13722697Y-11394069D01*
X15361367Y-11394069D01*
X15361367Y-11405931D01*
X15364438Y-11417389D01*
X15370369Y-11427661D01*
X15378756Y-11436049D01*
X15389029Y-11441980D01*
X15400487Y-11445050D01*
X15400487Y-11445050D01*
X15412348Y-11445050D01*
X15412348Y-11445050D01*
X15423806Y-11441980D01*
X15434079Y-11436049D01*
X15442466Y-11427661D01*
X15448397Y-11417389D01*
X15451467Y-11405931D01*
X15451467Y-11394069D01*
X15448397Y-11382611D01*
X15442466Y-11372339D01*
X15434079Y-11363951D01*
X15423806Y-11358020D01*
X15412348Y-11354950D01*
X15400487Y-11354950D01*
X15389029Y-11358020D01*
X15389029Y-11358020D01*
X15389029Y-11358020D01*
X15378756Y-11363951D01*
X15378756Y-11363951D01*
X15370369Y-11372338D01*
X15370369Y-11372339D01*
X15364438Y-11382611D01*
X15361367Y-11394069D01*
X13722697Y-11394069D01*
X13722619Y-11267458D01*
X13724584Y-11260753D01*
X13729861Y-11256174D01*
X13736776Y-11255176D01*
X13741219Y-11256712D01*
X13748611Y-11260980D01*
X13748611Y-11260980D01*
X13748611Y-11260980D01*
X13748611Y-11260980D01*
X13760069Y-11264050D01*
X13760069Y-11264050D01*
X13771931Y-11264050D01*
X13771931Y-11264050D01*
X13783389Y-11260980D01*
X13793661Y-11255049D01*
X13794671Y-11254039D01*
X14994958Y-11254039D01*
X14994958Y-11265901D01*
X14998028Y-11277358D01*
X15003959Y-11287631D01*
X15012347Y-11296019D01*
X15022620Y-11301950D01*
X15034077Y-11305020D01*
X15034078Y-11305020D01*
X15045939Y-11305020D01*
X15045939Y-11305020D01*
X15057397Y-11301950D01*
X15067670Y-11296019D01*
X15076057Y-11287631D01*
X15081988Y-11277358D01*
X15085058Y-11265901D01*
X15085058Y-11254039D01*
X15081988Y-11242581D01*
X15076057Y-11232309D01*
X15067670Y-11223921D01*
X15059266Y-11219069D01*
X15293950Y-11219069D01*
X15293950Y-11230931D01*
X15297020Y-11242389D01*
X15302951Y-11252661D01*
X15311339Y-11261049D01*
X15321611Y-11266980D01*
X15333069Y-11270050D01*
X15333069Y-11270050D01*
X15344931Y-11270050D01*
X15344931Y-11270050D01*
X15356389Y-11266980D01*
X15366661Y-11261049D01*
X15375049Y-11252661D01*
X15380980Y-11242389D01*
X15384050Y-11230931D01*
X15384050Y-11219069D01*
X15380980Y-11207611D01*
X15375049Y-11197339D01*
X15366661Y-11188951D01*
X15356389Y-11183020D01*
X15344931Y-11179950D01*
X15333069Y-11179950D01*
X15321611Y-11183020D01*
X15321611Y-11183020D01*
X15321611Y-11183020D01*
X15311339Y-11188951D01*
X15311338Y-11188951D01*
X15302951Y-11197338D01*
X15302951Y-11197339D01*
X15297020Y-11207611D01*
X15293950Y-11219069D01*
X15059266Y-11219069D01*
X15057397Y-11217990D01*
X15045939Y-11214920D01*
X15034077Y-11214920D01*
X15022620Y-11217990D01*
X15022620Y-11217990D01*
X15022620Y-11217990D01*
X15012347Y-11223921D01*
X15012347Y-11223921D01*
X15003960Y-11232308D01*
X15003959Y-11232309D01*
X14998140Y-11242389D01*
X14998028Y-11242581D01*
X14994958Y-11254039D01*
X13794671Y-11254039D01*
X13802049Y-11246661D01*
X13807980Y-11236389D01*
X13811050Y-11224931D01*
X13811050Y-11213069D01*
X13807980Y-11201611D01*
X13802049Y-11191339D01*
X13793661Y-11182951D01*
X13783389Y-11177020D01*
X13771931Y-11173950D01*
X13760069Y-11173950D01*
X13749550Y-11176768D01*
X13748611Y-11177020D01*
X13741160Y-11181322D01*
X13734369Y-11182970D01*
X13727767Y-11180684D01*
X13723448Y-11175192D01*
X13722560Y-11170592D01*
X13722518Y-11103069D01*
X16080950Y-11103069D01*
X16080950Y-11114931D01*
X16084020Y-11126389D01*
X16089951Y-11136661D01*
X16098339Y-11145049D01*
X16108611Y-11150980D01*
X16120069Y-11154050D01*
X16120069Y-11154050D01*
X16131931Y-11154050D01*
X16131931Y-11154050D01*
X16143389Y-11150980D01*
X16153661Y-11145049D01*
X16162049Y-11136661D01*
X16167980Y-11126389D01*
X16171050Y-11114931D01*
X16171050Y-11103069D01*
X16167980Y-11091611D01*
X16162049Y-11081339D01*
X16153661Y-11072951D01*
X16143389Y-11067020D01*
X16131931Y-11063950D01*
X16120069Y-11063950D01*
X16108611Y-11067020D01*
X16108611Y-11067020D01*
X16108611Y-11067020D01*
X16098339Y-11072951D01*
X16098338Y-11072951D01*
X16089951Y-11081338D01*
X16089951Y-11081339D01*
X16084020Y-11091611D01*
X16080950Y-11103069D01*
X13722518Y-11103069D01*
X13722429Y-10959069D01*
X14928950Y-10959069D01*
X14928950Y-10970931D01*
X14932020Y-10982389D01*
X14937951Y-10992661D01*
X14946339Y-11001049D01*
X14956611Y-11006980D01*
X14968069Y-11010050D01*
X14968069Y-11010050D01*
X14979931Y-11010050D01*
X14979931Y-11010050D01*
X14991389Y-11006980D01*
X15001661Y-11001049D01*
X15010049Y-10992661D01*
X15015980Y-10982389D01*
X15019050Y-10970931D01*
X15019050Y-10959069D01*
X15015980Y-10947611D01*
X15010049Y-10937339D01*
X15001661Y-10928951D01*
X14991389Y-10923020D01*
X14979931Y-10919950D01*
X14968069Y-10919950D01*
X14956611Y-10923020D01*
X14956611Y-10923020D01*
X14956611Y-10923020D01*
X14946339Y-10928951D01*
X14946338Y-10928951D01*
X14937951Y-10937338D01*
X14937951Y-10937339D01*
X14935578Y-10941449D01*
X14932020Y-10947611D01*
X14928950Y-10959069D01*
X13722429Y-10959069D01*
X13722417Y-10940000D01*
X13683179Y-10894069D01*
X15891367Y-10894069D01*
X15891367Y-10905931D01*
X15894438Y-10917389D01*
X15900369Y-10927661D01*
X15908756Y-10936049D01*
X15919029Y-10941980D01*
X15930487Y-10945050D01*
X15930487Y-10945050D01*
X15942348Y-10945050D01*
X15942348Y-10945050D01*
X15953806Y-10941980D01*
X15964079Y-10936049D01*
X15970644Y-10929483D01*
X17576630Y-10929483D01*
X17576630Y-10940029D01*
X17579360Y-10950215D01*
X17584632Y-10959347D01*
X17592089Y-10966804D01*
X17601222Y-10972077D01*
X17611408Y-10974806D01*
X17611408Y-10974806D01*
X17621953Y-10974806D01*
X17621953Y-10974806D01*
X17632139Y-10972077D01*
X17641272Y-10966804D01*
X17648728Y-10959347D01*
X17654001Y-10950215D01*
X17656730Y-10940029D01*
X17656730Y-10929483D01*
X17654001Y-10919297D01*
X17648728Y-10910165D01*
X17641272Y-10902708D01*
X17632139Y-10897435D01*
X17621953Y-10894706D01*
X17611408Y-10894706D01*
X17601222Y-10897435D01*
X17601221Y-10897435D01*
X17592089Y-10902708D01*
X17584633Y-10910165D01*
X17579360Y-10919297D01*
X17579360Y-10919297D01*
X17576630Y-10929483D01*
X15970644Y-10929483D01*
X15972466Y-10927661D01*
X15978397Y-10917389D01*
X15981467Y-10905931D01*
X15981467Y-10894069D01*
X15978397Y-10882611D01*
X15972466Y-10872339D01*
X15964079Y-10863951D01*
X15953806Y-10858020D01*
X15942348Y-10854950D01*
X15930487Y-10854950D01*
X15919029Y-10858020D01*
X15919029Y-10858020D01*
X15919029Y-10858020D01*
X15908756Y-10863951D01*
X15908756Y-10863951D01*
X15900369Y-10872338D01*
X15900369Y-10872339D01*
X15895661Y-10880493D01*
X15894438Y-10882611D01*
X15891367Y-10894069D01*
X13683179Y-10894069D01*
X13666680Y-10874756D01*
X13636730Y-10844806D01*
X13606680Y-10814756D01*
X13606680Y-10814756D01*
X13606680Y-10854756D01*
X13650790Y-10932146D01*
X13652417Y-10938286D01*
X13652417Y-11967550D01*
X13650449Y-11974254D01*
X13645169Y-11978829D01*
X13640017Y-11979950D01*
X10320348Y-11979950D01*
X10319653Y-11979930D01*
X10288231Y-11978166D01*
X10286849Y-11978010D01*
X10256167Y-11972797D01*
X10254811Y-11972487D01*
X10224905Y-11963872D01*
X10223592Y-11963412D01*
X10194839Y-11951502D01*
X10193586Y-11950899D01*
X10191385Y-11949683D01*
X10166346Y-11935844D01*
X10165169Y-11935105D01*
X10139787Y-11917095D01*
X10138700Y-11916228D01*
X10115494Y-11895490D01*
X10114510Y-11894506D01*
X10093771Y-11871299D01*
X10092905Y-11870213D01*
X10074895Y-11844830D01*
X10074156Y-11843655D01*
X10059100Y-11816413D01*
X10058498Y-11815162D01*
X10046587Y-11786408D01*
X10046128Y-11785095D01*
X10041013Y-11767338D01*
X10037512Y-11755188D01*
X10037203Y-11753833D01*
X10031990Y-11723150D01*
X10031834Y-11721769D01*
X10030070Y-11690347D01*
X10030050Y-11689652D01*
X10030050Y-11243069D01*
X12797367Y-11243069D01*
X12797367Y-11254931D01*
X12800438Y-11266389D01*
X12806369Y-11276661D01*
X12814756Y-11285049D01*
X12825029Y-11290980D01*
X12836487Y-11294050D01*
X12836487Y-11294050D01*
X12848348Y-11294050D01*
X12848348Y-11294050D01*
X12859806Y-11290980D01*
X12870079Y-11285049D01*
X12878466Y-11276661D01*
X12884397Y-11266389D01*
X12887467Y-11254931D01*
X12887467Y-11243069D01*
X12884397Y-11231611D01*
X12878466Y-11221339D01*
X12870079Y-11212951D01*
X12859806Y-11207020D01*
X12848348Y-11203950D01*
X12836487Y-11203950D01*
X12825029Y-11207020D01*
X12825029Y-11207020D01*
X12825029Y-11207020D01*
X12814756Y-11212951D01*
X12814756Y-11212951D01*
X12806369Y-11221338D01*
X12806369Y-11221339D01*
X12800831Y-11230931D01*
X12800438Y-11231611D01*
X12797367Y-11243069D01*
X10030050Y-11243069D01*
X10030050Y-11068069D01*
X11532367Y-11068069D01*
X11532367Y-11079931D01*
X11535438Y-11091389D01*
X11541369Y-11101661D01*
X11549756Y-11110049D01*
X11560029Y-11115980D01*
X11571487Y-11119050D01*
X11571487Y-11119050D01*
X11583348Y-11119050D01*
X11583348Y-11119050D01*
X11594806Y-11115980D01*
X11605079Y-11110049D01*
X11613466Y-11101661D01*
X11619397Y-11091389D01*
X11622467Y-11079931D01*
X11622467Y-11068069D01*
X11619397Y-11056611D01*
X11613466Y-11046339D01*
X11605079Y-11037951D01*
X11594806Y-11032020D01*
X11584408Y-11029234D01*
X11584053Y-11029139D01*
X11583348Y-11028950D01*
X11571487Y-11028950D01*
X11560029Y-11032020D01*
X11560029Y-11032020D01*
X11560029Y-11032020D01*
X11549756Y-11037951D01*
X11549756Y-11037951D01*
X11541369Y-11046338D01*
X11541369Y-11046339D01*
X11538295Y-11051662D01*
X11535438Y-11056611D01*
X11532367Y-11068069D01*
X10030050Y-11068069D01*
X10030050Y-11018069D01*
X12227367Y-11018069D01*
X12227367Y-11029931D01*
X12230438Y-11041389D01*
X12236369Y-11051661D01*
X12244756Y-11060049D01*
X12255029Y-11065980D01*
X12266487Y-11069050D01*
X12266487Y-11069050D01*
X12278348Y-11069050D01*
X12278348Y-11069050D01*
X12289806Y-11065980D01*
X12300079Y-11060049D01*
X12308466Y-11051661D01*
X12314397Y-11041389D01*
X12317467Y-11029931D01*
X12317467Y-11018069D01*
X12314397Y-11006611D01*
X12308466Y-10996339D01*
X12300079Y-10987951D01*
X12289806Y-10982020D01*
X12278348Y-10978950D01*
X12266487Y-10978950D01*
X12255029Y-10982020D01*
X12255029Y-10982020D01*
X12255029Y-10982020D01*
X12244756Y-10987951D01*
X12244756Y-10987951D01*
X12236369Y-10996338D01*
X12236369Y-10996339D01*
X12232010Y-11003888D01*
X12230438Y-11006611D01*
X12227367Y-11018069D01*
X10030050Y-11018069D01*
X10030050Y-10736358D01*
X10212500Y-10736358D01*
X10212500Y-10758642D01*
X10215409Y-10780735D01*
X10215409Y-10780737D01*
X10221176Y-10802262D01*
X10229705Y-10822850D01*
X10229705Y-10822852D01*
X10240846Y-10842149D01*
X10240847Y-10842150D01*
X10245904Y-10848740D01*
X10245904Y-10848740D01*
X10310915Y-10783729D01*
X10311605Y-10785394D01*
X10320360Y-10798497D01*
X10331503Y-10809640D01*
X10344606Y-10818395D01*
X10346271Y-10819085D01*
X10281260Y-10884096D01*
X10281260Y-10884096D01*
X10287851Y-10889153D01*
X10307149Y-10900295D01*
X10307150Y-10900295D01*
X10327738Y-10908824D01*
X10349263Y-10914591D01*
X10349265Y-10914591D01*
X10371358Y-10917500D01*
X10393643Y-10917500D01*
X10415735Y-10914591D01*
X10415737Y-10914591D01*
X10437262Y-10908824D01*
X10457850Y-10900295D01*
X10457851Y-10900295D01*
X10477150Y-10889153D01*
X10483740Y-10884096D01*
X10483740Y-10884096D01*
X10418729Y-10819085D01*
X10420394Y-10818395D01*
X10433497Y-10809640D01*
X10444640Y-10798497D01*
X10453395Y-10785394D01*
X10454085Y-10783729D01*
X10519096Y-10848740D01*
X10519096Y-10848740D01*
X10524153Y-10842150D01*
X10535295Y-10822851D01*
X10535295Y-10822850D01*
X10543824Y-10802262D01*
X10549591Y-10780737D01*
X10549591Y-10780735D01*
X10552500Y-10758642D01*
X10552500Y-10736358D01*
X10727500Y-10736358D01*
X10727500Y-10758642D01*
X10730409Y-10780735D01*
X10730409Y-10780737D01*
X10736176Y-10802262D01*
X10744705Y-10822850D01*
X10744705Y-10822852D01*
X10755846Y-10842149D01*
X10755847Y-10842150D01*
X10760904Y-10848740D01*
X10760904Y-10848740D01*
X10825915Y-10783729D01*
X10826605Y-10785394D01*
X10835360Y-10798497D01*
X10846503Y-10809640D01*
X10859606Y-10818395D01*
X10861271Y-10819085D01*
X10796260Y-10884096D01*
X10796260Y-10884096D01*
X10802851Y-10889153D01*
X10822149Y-10900295D01*
X10822150Y-10900295D01*
X10842738Y-10908824D01*
X10864263Y-10914591D01*
X10864265Y-10914591D01*
X10886358Y-10917500D01*
X10908643Y-10917500D01*
X10930735Y-10914591D01*
X10930737Y-10914591D01*
X10952262Y-10908824D01*
X10972850Y-10900295D01*
X10972851Y-10900295D01*
X10992150Y-10889153D01*
X10998740Y-10884096D01*
X10998740Y-10884096D01*
X10995137Y-10880493D01*
X12611373Y-10880493D01*
X12611373Y-10892354D01*
X12614443Y-10903812D01*
X12620374Y-10914085D01*
X12628762Y-10922472D01*
X12639035Y-10928403D01*
X12650492Y-10931473D01*
X12650493Y-10931473D01*
X12662354Y-10931473D01*
X12662354Y-10931473D01*
X12673812Y-10928403D01*
X12684085Y-10922472D01*
X12692472Y-10914085D01*
X12698403Y-10903812D01*
X12701473Y-10892354D01*
X12701473Y-10880493D01*
X12698407Y-10869050D01*
X12698407Y-10869050D01*
X12698403Y-10869035D01*
X12698403Y-10869035D01*
X12697028Y-10866653D01*
X13270951Y-10866653D01*
X13270951Y-10878515D01*
X13274022Y-10889973D01*
X13279953Y-10900245D01*
X13288340Y-10908633D01*
X13298613Y-10914564D01*
X13310071Y-10917634D01*
X13310071Y-10917634D01*
X13321932Y-10917634D01*
X13321932Y-10917634D01*
X13333390Y-10914564D01*
X13343663Y-10908633D01*
X13352050Y-10900245D01*
X13357981Y-10889973D01*
X13361051Y-10878515D01*
X13361051Y-10866653D01*
X13357981Y-10855195D01*
X13352050Y-10844923D01*
X13343663Y-10836535D01*
X13333390Y-10830604D01*
X13321932Y-10827534D01*
X13310071Y-10827534D01*
X13298613Y-10830604D01*
X13298613Y-10830604D01*
X13298613Y-10830604D01*
X13288340Y-10836535D01*
X13288340Y-10836535D01*
X13279953Y-10844922D01*
X13279953Y-10844923D01*
X13276805Y-10850375D01*
X13274022Y-10855195D01*
X13270951Y-10866653D01*
X12697028Y-10866653D01*
X12692472Y-10858762D01*
X12684085Y-10850375D01*
X12673812Y-10844444D01*
X12662354Y-10841373D01*
X12650492Y-10841373D01*
X12639035Y-10844444D01*
X12639035Y-10844444D01*
X12639035Y-10844444D01*
X12628762Y-10850375D01*
X12628762Y-10850375D01*
X12620375Y-10858762D01*
X12620374Y-10858762D01*
X12614443Y-10869035D01*
X12611373Y-10880493D01*
X10995137Y-10880493D01*
X10933729Y-10819085D01*
X10935394Y-10818395D01*
X10948497Y-10809640D01*
X10959640Y-10798497D01*
X10968395Y-10785394D01*
X10969085Y-10783729D01*
X11034096Y-10848740D01*
X11034096Y-10848740D01*
X11039153Y-10842150D01*
X11050295Y-10822851D01*
X11050295Y-10822850D01*
X11058824Y-10802262D01*
X11061084Y-10793825D01*
X13666630Y-10793825D01*
X13666630Y-10805687D01*
X13669700Y-10817145D01*
X13675631Y-10827417D01*
X13684019Y-10835805D01*
X13694292Y-10841736D01*
X13705749Y-10844806D01*
X13705750Y-10844806D01*
X13717611Y-10844806D01*
X13717611Y-10844806D01*
X13729069Y-10841736D01*
X13739342Y-10835805D01*
X13747729Y-10827417D01*
X13753660Y-10817145D01*
X13755824Y-10809069D01*
X15769950Y-10809069D01*
X15769950Y-10820931D01*
X15773020Y-10832389D01*
X15778951Y-10842661D01*
X15787339Y-10851049D01*
X15797611Y-10856980D01*
X15809069Y-10860050D01*
X15809069Y-10860050D01*
X15820931Y-10860050D01*
X15820931Y-10860050D01*
X15832389Y-10856980D01*
X15842661Y-10851049D01*
X15851049Y-10842661D01*
X15856980Y-10832389D01*
X15859757Y-10822023D01*
X17179828Y-10822023D01*
X17179828Y-10833885D01*
X17182898Y-10845342D01*
X17188829Y-10855615D01*
X17197217Y-10864003D01*
X17207490Y-10869934D01*
X17218947Y-10873004D01*
X17218948Y-10873004D01*
X17230809Y-10873004D01*
X17230809Y-10873004D01*
X17242267Y-10869934D01*
X17252540Y-10864003D01*
X17260927Y-10855615D01*
X17266858Y-10845342D01*
X17269928Y-10833885D01*
X17269928Y-10822023D01*
X17266858Y-10810565D01*
X17260927Y-10800293D01*
X17252540Y-10791905D01*
X17242267Y-10785974D01*
X17230809Y-10782904D01*
X17218947Y-10782904D01*
X17207490Y-10785974D01*
X17207489Y-10785974D01*
X17207489Y-10785974D01*
X17197217Y-10791905D01*
X17197217Y-10791905D01*
X17188830Y-10800292D01*
X17188829Y-10800293D01*
X17182898Y-10810565D01*
X17179828Y-10822023D01*
X15859757Y-10822023D01*
X15860050Y-10820931D01*
X15860050Y-10809069D01*
X15856980Y-10797611D01*
X15851049Y-10787339D01*
X15842661Y-10778951D01*
X15832389Y-10773020D01*
X15820931Y-10769950D01*
X15809069Y-10769950D01*
X15797611Y-10773020D01*
X15797611Y-10773020D01*
X15797611Y-10773020D01*
X15787339Y-10778951D01*
X15787338Y-10778951D01*
X15778951Y-10787338D01*
X15778951Y-10787339D01*
X15773020Y-10797611D01*
X15769950Y-10809069D01*
X13755824Y-10809069D01*
X13756730Y-10805687D01*
X13756730Y-10793825D01*
X13753660Y-10782367D01*
X13747729Y-10772095D01*
X13739342Y-10763707D01*
X13729069Y-10757776D01*
X13717611Y-10754706D01*
X13705749Y-10754706D01*
X13694292Y-10757776D01*
X13694292Y-10757776D01*
X13694292Y-10757776D01*
X13684019Y-10763707D01*
X13684019Y-10763707D01*
X13675632Y-10772094D01*
X13675631Y-10772095D01*
X13669700Y-10782367D01*
X13666630Y-10793825D01*
X11061084Y-10793825D01*
X11062162Y-10789803D01*
X11064591Y-10780737D01*
X11064591Y-10780735D01*
X11067500Y-10758642D01*
X11067500Y-10736358D01*
X11067305Y-10734875D01*
X11067305Y-10734875D01*
X11067199Y-10734069D01*
X15671367Y-10734069D01*
X15671367Y-10745931D01*
X15674438Y-10757389D01*
X15680369Y-10767661D01*
X15688756Y-10776049D01*
X15699029Y-10781980D01*
X15710487Y-10785050D01*
X15710487Y-10785050D01*
X15722348Y-10785050D01*
X15722348Y-10785050D01*
X15733806Y-10781980D01*
X15744079Y-10776049D01*
X15752466Y-10767661D01*
X15758397Y-10757389D01*
X15761467Y-10745931D01*
X15761467Y-10734069D01*
X15758397Y-10722611D01*
X15752466Y-10712339D01*
X15744079Y-10703951D01*
X15733806Y-10698020D01*
X15722348Y-10694950D01*
X15710487Y-10694950D01*
X15699029Y-10698020D01*
X15699029Y-10698020D01*
X15699029Y-10698020D01*
X15688756Y-10703951D01*
X15688756Y-10703951D01*
X15680369Y-10712338D01*
X15680369Y-10712339D01*
X15674438Y-10722611D01*
X15671367Y-10734069D01*
X11067199Y-10734069D01*
X11064591Y-10714265D01*
X11064591Y-10714263D01*
X11058824Y-10692738D01*
X11050295Y-10672150D01*
X11050295Y-10672149D01*
X11039153Y-10652851D01*
X11036816Y-10649805D01*
X11034096Y-10646260D01*
X11034096Y-10646260D01*
X10969085Y-10711270D01*
X10968395Y-10709606D01*
X10959640Y-10696503D01*
X10948497Y-10685360D01*
X10935394Y-10676605D01*
X10933729Y-10675915D01*
X10966576Y-10643069D01*
X13107367Y-10643069D01*
X13107367Y-10654931D01*
X13110438Y-10666389D01*
X13116369Y-10676661D01*
X13124756Y-10685049D01*
X13135029Y-10690980D01*
X13146487Y-10694050D01*
X13146487Y-10694050D01*
X13158348Y-10694050D01*
X13158348Y-10694050D01*
X13169806Y-10690980D01*
X13180079Y-10685049D01*
X13188466Y-10676661D01*
X13194397Y-10666389D01*
X13197467Y-10654931D01*
X13197467Y-10654280D01*
X13856626Y-10654280D01*
X13856626Y-10666142D01*
X13859696Y-10677600D01*
X13865627Y-10687873D01*
X13874014Y-10696260D01*
X13884287Y-10702191D01*
X13895745Y-10705261D01*
X13895745Y-10705261D01*
X13907606Y-10705261D01*
X13907606Y-10705261D01*
X13919064Y-10702191D01*
X13929337Y-10696260D01*
X13937724Y-10687873D01*
X13943655Y-10677600D01*
X13946726Y-10666142D01*
X13946726Y-10663069D01*
X14245950Y-10663069D01*
X14245950Y-10674931D01*
X14249020Y-10686389D01*
X14254951Y-10696661D01*
X14263339Y-10705049D01*
X14273611Y-10710980D01*
X14285069Y-10714050D01*
X14285069Y-10714050D01*
X14296931Y-10714050D01*
X14296931Y-10714050D01*
X14308389Y-10710980D01*
X14318661Y-10705049D01*
X14327049Y-10696661D01*
X14332980Y-10686389D01*
X14336050Y-10674931D01*
X14336050Y-10663069D01*
X14332980Y-10651611D01*
X14327049Y-10641339D01*
X14318661Y-10632951D01*
X14308389Y-10627020D01*
X14296931Y-10623950D01*
X14285069Y-10623950D01*
X14273611Y-10627020D01*
X14273611Y-10627020D01*
X14273611Y-10627020D01*
X14263339Y-10632951D01*
X14263338Y-10632951D01*
X14254951Y-10641338D01*
X14254951Y-10641339D01*
X14249020Y-10651611D01*
X14245950Y-10663069D01*
X13946726Y-10663069D01*
X13946726Y-10654280D01*
X13943655Y-10642823D01*
X13937724Y-10632550D01*
X13929337Y-10624162D01*
X13919064Y-10618231D01*
X13907606Y-10615161D01*
X13895745Y-10615161D01*
X13884287Y-10618231D01*
X13884287Y-10618231D01*
X13884287Y-10618231D01*
X13874014Y-10624162D01*
X13874014Y-10624163D01*
X13865627Y-10632550D01*
X13865627Y-10632550D01*
X13859696Y-10642823D01*
X13856626Y-10654280D01*
X13197467Y-10654280D01*
X13197467Y-10643069D01*
X13194397Y-10631611D01*
X13194397Y-10631611D01*
X13194397Y-10631610D01*
X13194086Y-10630860D01*
X13194203Y-10630812D01*
X13192749Y-10624821D01*
X13195034Y-10618218D01*
X13200525Y-10613899D01*
X13207481Y-10613234D01*
X13211335Y-10614671D01*
X13215028Y-10616804D01*
X13215029Y-10616804D01*
X13215029Y-10616804D01*
X13226487Y-10619874D01*
X13226487Y-10619874D01*
X13238348Y-10619874D01*
X13238348Y-10619874D01*
X13249806Y-10616804D01*
X13260079Y-10610873D01*
X13268466Y-10602485D01*
X13274397Y-10592212D01*
X13277467Y-10580755D01*
X13277467Y-10568893D01*
X13274835Y-10559069D01*
X14908950Y-10559069D01*
X14908950Y-10570931D01*
X14912020Y-10582389D01*
X14917951Y-10592661D01*
X14926339Y-10601049D01*
X14936611Y-10606980D01*
X14948069Y-10610050D01*
X14948069Y-10610050D01*
X14959931Y-10610050D01*
X14959931Y-10610050D01*
X14971389Y-10606980D01*
X14981661Y-10601049D01*
X14990049Y-10592661D01*
X14995980Y-10582389D01*
X14999050Y-10570931D01*
X14999050Y-10559069D01*
X14997442Y-10553069D01*
X15185950Y-10553069D01*
X15185950Y-10564931D01*
X15189020Y-10576389D01*
X15194951Y-10586661D01*
X15203339Y-10595049D01*
X15213611Y-10600980D01*
X15225069Y-10604050D01*
X15225069Y-10604050D01*
X15236931Y-10604050D01*
X15236931Y-10604050D01*
X15248389Y-10600980D01*
X15258661Y-10595049D01*
X15267049Y-10586661D01*
X15272980Y-10576389D01*
X15276050Y-10564931D01*
X15276050Y-10553069D01*
X15272980Y-10541611D01*
X15267049Y-10531339D01*
X15258661Y-10522951D01*
X15248389Y-10517020D01*
X15236931Y-10513950D01*
X15225069Y-10513950D01*
X15213611Y-10517020D01*
X15213611Y-10517020D01*
X15213611Y-10517020D01*
X15203339Y-10522951D01*
X15203338Y-10522951D01*
X15194951Y-10531338D01*
X15194951Y-10531339D01*
X15190658Y-10538775D01*
X15189020Y-10541611D01*
X15185950Y-10553069D01*
X14997442Y-10553069D01*
X14995980Y-10547611D01*
X14990049Y-10537339D01*
X14981661Y-10528951D01*
X14971389Y-10523020D01*
X14959931Y-10519950D01*
X14948069Y-10519950D01*
X14936611Y-10523020D01*
X14936611Y-10523020D01*
X14936611Y-10523020D01*
X14926339Y-10528951D01*
X14926338Y-10528951D01*
X14917951Y-10537338D01*
X14917951Y-10537339D01*
X14912020Y-10547611D01*
X14908950Y-10559069D01*
X13274835Y-10559069D01*
X13274397Y-10557435D01*
X13268466Y-10547163D01*
X13260079Y-10538775D01*
X13249806Y-10532844D01*
X13238348Y-10529774D01*
X13226487Y-10529774D01*
X13215029Y-10532844D01*
X13215029Y-10532844D01*
X13215029Y-10532844D01*
X13204756Y-10538775D01*
X13204756Y-10538775D01*
X13196369Y-10547162D01*
X13196369Y-10547163D01*
X13190438Y-10557435D01*
X13187367Y-10568893D01*
X13187367Y-10580755D01*
X13190438Y-10592212D01*
X13190438Y-10592213D01*
X13190438Y-10592214D01*
X13190749Y-10592964D01*
X13190632Y-10593012D01*
X13192086Y-10599003D01*
X13189801Y-10605606D01*
X13184309Y-10609925D01*
X13177354Y-10610590D01*
X13173500Y-10609153D01*
X13169806Y-10607020D01*
X13169806Y-10607020D01*
X13169806Y-10607020D01*
X13158348Y-10603950D01*
X13146487Y-10603950D01*
X13135029Y-10607020D01*
X13135029Y-10607020D01*
X13135029Y-10607020D01*
X13124756Y-10612951D01*
X13124756Y-10612951D01*
X13116369Y-10621338D01*
X13116369Y-10621339D01*
X13110438Y-10631610D01*
X13110438Y-10631611D01*
X13107367Y-10643069D01*
X10966576Y-10643069D01*
X10998740Y-10610904D01*
X10998740Y-10610904D01*
X10992150Y-10605847D01*
X10992149Y-10605846D01*
X10972852Y-10594705D01*
X10972850Y-10594705D01*
X10952262Y-10586176D01*
X10930737Y-10580409D01*
X10930735Y-10580409D01*
X10908643Y-10577500D01*
X10886358Y-10577500D01*
X10864265Y-10580409D01*
X10864263Y-10580409D01*
X10842738Y-10586176D01*
X10822150Y-10594705D01*
X10822148Y-10594705D01*
X10802851Y-10605846D01*
X10796260Y-10610904D01*
X10861271Y-10675915D01*
X10859606Y-10676605D01*
X10846503Y-10685360D01*
X10835360Y-10696503D01*
X10826605Y-10709606D01*
X10825915Y-10711271D01*
X10760904Y-10646260D01*
X10755846Y-10652851D01*
X10744705Y-10672148D01*
X10744705Y-10672150D01*
X10736176Y-10692738D01*
X10730409Y-10714263D01*
X10730409Y-10714265D01*
X10727500Y-10736358D01*
X10552500Y-10736358D01*
X10549591Y-10714265D01*
X10549591Y-10714263D01*
X10543824Y-10692738D01*
X10535295Y-10672150D01*
X10535295Y-10672149D01*
X10524153Y-10652851D01*
X10519096Y-10646260D01*
X10519096Y-10646260D01*
X10454085Y-10711270D01*
X10453395Y-10709606D01*
X10444640Y-10696503D01*
X10433497Y-10685360D01*
X10420394Y-10676605D01*
X10418729Y-10675915D01*
X10483740Y-10610904D01*
X10483740Y-10610904D01*
X10477150Y-10605847D01*
X10477149Y-10605846D01*
X10460930Y-10596482D01*
X10519950Y-10596482D01*
X10520823Y-10600872D01*
X10520823Y-10600872D01*
X10524150Y-10605850D01*
X10524150Y-10605850D01*
X10529128Y-10609177D01*
X10529128Y-10609177D01*
X10529128Y-10609177D01*
X10533518Y-10610050D01*
X10533518Y-10610050D01*
X10746482Y-10610050D01*
X10750872Y-10609177D01*
X10750872Y-10609177D01*
X10750872Y-10609177D01*
X10755850Y-10605850D01*
X10759177Y-10600872D01*
X10760050Y-10596482D01*
X10760050Y-10497393D01*
X14244691Y-10497393D01*
X14244691Y-10509255D01*
X14247761Y-10520712D01*
X14253692Y-10530985D01*
X14262080Y-10539373D01*
X14272353Y-10545304D01*
X14283810Y-10548374D01*
X14283811Y-10548374D01*
X14295672Y-10548374D01*
X14295672Y-10548374D01*
X14307130Y-10545304D01*
X14317403Y-10539373D01*
X14325790Y-10530985D01*
X14331721Y-10520712D01*
X14334791Y-10509255D01*
X14334791Y-10497393D01*
X14333633Y-10493069D01*
X14740950Y-10493069D01*
X14740950Y-10504931D01*
X14744020Y-10516389D01*
X14749951Y-10526661D01*
X14758339Y-10535049D01*
X14768611Y-10540980D01*
X14780069Y-10544050D01*
X14780069Y-10544050D01*
X14791931Y-10544050D01*
X14791931Y-10544050D01*
X14803389Y-10540980D01*
X14813661Y-10535049D01*
X14822049Y-10526661D01*
X14827980Y-10516389D01*
X14831050Y-10504931D01*
X14831050Y-10493069D01*
X14827980Y-10481611D01*
X14822049Y-10471339D01*
X14813779Y-10463069D01*
X15000950Y-10463069D01*
X15000950Y-10474931D01*
X15004020Y-10486389D01*
X15009951Y-10496661D01*
X15018339Y-10505049D01*
X15028611Y-10510980D01*
X15040069Y-10514050D01*
X15040069Y-10514050D01*
X15051931Y-10514050D01*
X15051931Y-10514050D01*
X15063389Y-10510980D01*
X15073661Y-10505049D01*
X15074641Y-10504069D01*
X15821367Y-10504069D01*
X15821367Y-10515931D01*
X15824438Y-10527389D01*
X15830369Y-10537661D01*
X15838756Y-10546049D01*
X15849029Y-10551980D01*
X15860487Y-10555050D01*
X15860487Y-10555050D01*
X15872348Y-10555050D01*
X15872348Y-10555050D01*
X15883806Y-10551980D01*
X15894079Y-10546049D01*
X15902466Y-10537661D01*
X15908397Y-10527389D01*
X15911467Y-10515931D01*
X15911467Y-10504069D01*
X15908397Y-10492611D01*
X15902466Y-10482339D01*
X15894079Y-10473951D01*
X15883806Y-10468020D01*
X15872348Y-10464950D01*
X15860487Y-10464950D01*
X15849029Y-10468020D01*
X15849029Y-10468020D01*
X15849029Y-10468020D01*
X15838756Y-10473951D01*
X15838756Y-10473951D01*
X15830369Y-10482338D01*
X15830369Y-10482339D01*
X15824438Y-10492611D01*
X15821367Y-10504069D01*
X15074641Y-10504069D01*
X15082049Y-10496661D01*
X15087980Y-10486389D01*
X15091050Y-10474931D01*
X15091050Y-10463069D01*
X15087980Y-10451611D01*
X15082049Y-10441339D01*
X15073661Y-10432951D01*
X15063389Y-10427020D01*
X15051931Y-10423950D01*
X15040069Y-10423950D01*
X15028611Y-10427020D01*
X15028611Y-10427020D01*
X15028611Y-10427020D01*
X15018339Y-10432951D01*
X15018338Y-10432951D01*
X15009951Y-10441338D01*
X15009951Y-10441339D01*
X15004020Y-10451611D01*
X15000950Y-10463069D01*
X14813779Y-10463069D01*
X14813661Y-10462951D01*
X14803389Y-10457020D01*
X14791931Y-10453950D01*
X14780069Y-10453950D01*
X14768611Y-10457020D01*
X14768611Y-10457020D01*
X14768611Y-10457020D01*
X14758339Y-10462951D01*
X14758338Y-10462951D01*
X14749951Y-10471338D01*
X14749951Y-10471339D01*
X14744020Y-10481611D01*
X14740950Y-10493069D01*
X14333633Y-10493069D01*
X14331721Y-10485935D01*
X14325790Y-10475663D01*
X14317403Y-10467275D01*
X14307130Y-10461344D01*
X14295672Y-10458274D01*
X14283810Y-10458274D01*
X14272353Y-10461344D01*
X14272352Y-10461344D01*
X14272352Y-10461344D01*
X14262080Y-10467275D01*
X14262080Y-10467275D01*
X14253693Y-10475662D01*
X14253692Y-10475663D01*
X14249838Y-10482339D01*
X14247761Y-10485935D01*
X14244691Y-10497393D01*
X10760050Y-10497393D01*
X10760050Y-10383518D01*
X10760050Y-10383518D01*
X10759177Y-10379128D01*
X10759177Y-10379128D01*
X10759177Y-10379128D01*
X10757529Y-10376661D01*
X10755851Y-10374150D01*
X10755850Y-10374150D01*
X10750872Y-10370823D01*
X10750872Y-10370823D01*
X10750872Y-10370823D01*
X10746482Y-10369950D01*
X10746482Y-10369950D01*
X10533518Y-10369950D01*
X10533518Y-10369950D01*
X10529128Y-10370823D01*
X10529128Y-10370823D01*
X10524150Y-10374150D01*
X10524150Y-10374150D01*
X10520823Y-10379128D01*
X10520823Y-10379128D01*
X10519950Y-10383518D01*
X10519950Y-10383518D01*
X10519950Y-10596482D01*
X10519950Y-10596482D01*
X10519950Y-10596482D01*
X10460930Y-10596482D01*
X10457852Y-10594705D01*
X10457850Y-10594705D01*
X10437262Y-10586176D01*
X10415737Y-10580409D01*
X10415735Y-10580409D01*
X10393643Y-10577500D01*
X10371358Y-10577500D01*
X10349265Y-10580409D01*
X10349263Y-10580409D01*
X10327738Y-10586176D01*
X10307150Y-10594705D01*
X10307148Y-10594705D01*
X10287851Y-10605846D01*
X10281260Y-10610904D01*
X10346271Y-10675915D01*
X10344606Y-10676605D01*
X10331503Y-10685360D01*
X10320360Y-10696503D01*
X10311605Y-10709606D01*
X10310915Y-10711271D01*
X10245904Y-10646260D01*
X10240846Y-10652851D01*
X10229705Y-10672148D01*
X10229705Y-10672150D01*
X10221176Y-10692738D01*
X10215409Y-10714263D01*
X10215409Y-10714265D01*
X10212500Y-10736358D01*
X10030050Y-10736358D01*
X10030050Y-10221358D01*
X10212500Y-10221358D01*
X10212500Y-10243642D01*
X10215409Y-10265735D01*
X10215409Y-10265737D01*
X10221176Y-10287262D01*
X10229705Y-10307850D01*
X10229705Y-10307852D01*
X10240846Y-10327149D01*
X10240847Y-10327150D01*
X10245904Y-10333740D01*
X10245904Y-10333740D01*
X10310915Y-10268729D01*
X10311605Y-10270394D01*
X10320360Y-10283497D01*
X10331503Y-10294640D01*
X10344606Y-10303395D01*
X10346271Y-10304085D01*
X10281260Y-10369096D01*
X10281260Y-10369096D01*
X10287851Y-10374153D01*
X10307149Y-10385295D01*
X10307150Y-10385295D01*
X10327738Y-10393824D01*
X10349263Y-10399591D01*
X10349265Y-10399591D01*
X10371358Y-10402500D01*
X10393643Y-10402500D01*
X10415735Y-10399591D01*
X10415737Y-10399591D01*
X10437262Y-10393824D01*
X10457850Y-10385295D01*
X10457851Y-10385295D01*
X10477149Y-10374153D01*
X10478559Y-10373071D01*
X10478560Y-10373071D01*
X10483740Y-10369096D01*
X10483740Y-10369096D01*
X10418729Y-10304085D01*
X10420394Y-10303395D01*
X10433497Y-10294640D01*
X10444640Y-10283497D01*
X10453395Y-10270394D01*
X10454085Y-10268729D01*
X10519096Y-10333740D01*
X10519096Y-10333740D01*
X10524153Y-10327150D01*
X10535295Y-10307851D01*
X10535295Y-10307850D01*
X10543824Y-10287262D01*
X10549591Y-10265737D01*
X10549591Y-10265735D01*
X10552500Y-10243642D01*
X10552500Y-10221358D01*
X10727500Y-10221358D01*
X10727500Y-10243642D01*
X10730409Y-10265735D01*
X10730409Y-10265737D01*
X10736176Y-10287262D01*
X10744705Y-10307850D01*
X10744705Y-10307852D01*
X10755846Y-10327149D01*
X10755847Y-10327150D01*
X10760904Y-10333740D01*
X10760904Y-10333740D01*
X10825915Y-10268729D01*
X10826605Y-10270394D01*
X10835360Y-10283497D01*
X10846503Y-10294640D01*
X10859606Y-10303395D01*
X10861271Y-10304085D01*
X10796260Y-10369096D01*
X10796260Y-10369096D01*
X10802851Y-10374153D01*
X10822149Y-10385295D01*
X10822150Y-10385295D01*
X10842738Y-10393824D01*
X10864263Y-10399591D01*
X10864265Y-10399591D01*
X10886358Y-10402500D01*
X10908643Y-10402500D01*
X10930735Y-10399591D01*
X10930737Y-10399591D01*
X10952262Y-10393824D01*
X10972850Y-10385295D01*
X10972851Y-10385295D01*
X10992150Y-10374153D01*
X10998740Y-10369096D01*
X10998740Y-10369096D01*
X10986944Y-10357300D01*
X10978989Y-10349344D01*
X13023643Y-10349344D01*
X13023643Y-10361206D01*
X13026713Y-10372664D01*
X13032644Y-10382936D01*
X13041031Y-10391324D01*
X13051304Y-10397255D01*
X13062762Y-10400325D01*
X13062762Y-10400325D01*
X13074623Y-10400325D01*
X13074623Y-10400325D01*
X13086081Y-10397255D01*
X13096354Y-10391324D01*
X13104741Y-10382936D01*
X13106874Y-10379242D01*
X13111931Y-10374421D01*
X13118792Y-10373098D01*
X13125278Y-10375695D01*
X13126381Y-10376674D01*
X13134756Y-10385049D01*
X13145029Y-10390980D01*
X13156487Y-10394050D01*
X13156487Y-10394050D01*
X13168348Y-10394050D01*
X13168348Y-10394050D01*
X13179806Y-10390980D01*
X13190079Y-10385049D01*
X13198466Y-10376661D01*
X13204397Y-10366389D01*
X13207467Y-10354931D01*
X13207467Y-10343069D01*
X13204397Y-10331611D01*
X13198466Y-10321339D01*
X13190197Y-10313069D01*
X14230950Y-10313069D01*
X14230950Y-10324931D01*
X14234020Y-10336389D01*
X14239951Y-10346661D01*
X14248339Y-10355049D01*
X14258611Y-10360980D01*
X14270069Y-10364050D01*
X14270069Y-10364050D01*
X14281931Y-10364050D01*
X14281931Y-10364050D01*
X14288609Y-10362261D01*
X15110987Y-10362261D01*
X15110987Y-10374122D01*
X15114057Y-10385580D01*
X15119988Y-10395853D01*
X15128376Y-10404240D01*
X15138648Y-10410171D01*
X15150106Y-10413242D01*
X15150106Y-10413242D01*
X15161967Y-10413242D01*
X15161968Y-10413242D01*
X15173425Y-10410171D01*
X15183698Y-10404240D01*
X15192086Y-10395853D01*
X15195425Y-10390069D01*
X15314950Y-10390069D01*
X15314950Y-10401931D01*
X15318020Y-10413389D01*
X15323951Y-10423661D01*
X15332339Y-10432049D01*
X15342611Y-10437980D01*
X15354069Y-10441050D01*
X15354069Y-10441050D01*
X15365931Y-10441050D01*
X15365931Y-10441050D01*
X15377389Y-10437980D01*
X15387661Y-10432049D01*
X15396049Y-10423661D01*
X15401980Y-10413389D01*
X15405050Y-10401931D01*
X15405050Y-10390069D01*
X15401980Y-10378611D01*
X15396049Y-10368339D01*
X15387661Y-10359951D01*
X15377389Y-10354020D01*
X15365931Y-10350950D01*
X15354069Y-10350950D01*
X15342611Y-10354020D01*
X15342611Y-10354020D01*
X15342611Y-10354020D01*
X15332339Y-10359951D01*
X15332338Y-10359951D01*
X15323951Y-10368338D01*
X15323951Y-10368339D01*
X15318962Y-10376980D01*
X15318020Y-10378611D01*
X15314950Y-10390069D01*
X15195425Y-10390069D01*
X15198017Y-10385580D01*
X15201087Y-10374122D01*
X15201087Y-10362261D01*
X15198017Y-10350803D01*
X15192086Y-10340530D01*
X15183698Y-10332143D01*
X15178375Y-10329069D01*
X15679950Y-10329069D01*
X15679950Y-10340931D01*
X15683020Y-10352389D01*
X15688951Y-10362661D01*
X15697339Y-10371049D01*
X15707611Y-10376980D01*
X15719069Y-10380050D01*
X15719069Y-10380050D01*
X15730931Y-10380050D01*
X15730931Y-10380050D01*
X15742389Y-10376980D01*
X15752661Y-10371049D01*
X15761049Y-10362661D01*
X15766980Y-10352389D01*
X15770050Y-10340931D01*
X15770050Y-10329069D01*
X15766980Y-10317611D01*
X15761049Y-10307339D01*
X15752661Y-10298951D01*
X15742389Y-10293020D01*
X15730931Y-10289950D01*
X15719069Y-10289950D01*
X15707611Y-10293020D01*
X15707611Y-10293020D01*
X15707611Y-10293020D01*
X15697339Y-10298951D01*
X15697338Y-10298951D01*
X15688951Y-10307338D01*
X15688951Y-10307339D01*
X15683020Y-10317611D01*
X15679950Y-10329069D01*
X15178375Y-10329069D01*
X15173425Y-10326212D01*
X15161968Y-10323142D01*
X15150106Y-10323142D01*
X15138648Y-10326212D01*
X15138648Y-10326212D01*
X15138648Y-10326212D01*
X15128376Y-10332143D01*
X15128375Y-10332143D01*
X15119988Y-10340530D01*
X15119988Y-10340530D01*
X15118522Y-10343069D01*
X15114057Y-10350803D01*
X15110987Y-10362261D01*
X14288609Y-10362261D01*
X14293389Y-10360980D01*
X14303661Y-10355049D01*
X14312049Y-10346661D01*
X14317980Y-10336389D01*
X14321050Y-10324931D01*
X14321050Y-10313069D01*
X14317980Y-10301611D01*
X14312049Y-10291339D01*
X14303661Y-10282951D01*
X14293389Y-10277020D01*
X14281931Y-10273950D01*
X14270069Y-10273950D01*
X14258611Y-10277020D01*
X14258611Y-10277020D01*
X14258611Y-10277020D01*
X14248339Y-10282951D01*
X14248338Y-10282951D01*
X14239951Y-10291338D01*
X14239951Y-10291339D01*
X14235788Y-10298549D01*
X14234020Y-10301611D01*
X14230950Y-10313069D01*
X13190197Y-10313069D01*
X13190079Y-10312951D01*
X13179806Y-10307020D01*
X13168348Y-10303950D01*
X13156487Y-10303950D01*
X13145029Y-10307020D01*
X13145029Y-10307020D01*
X13145029Y-10307020D01*
X13134756Y-10312951D01*
X13134756Y-10312951D01*
X13126369Y-10321338D01*
X13126368Y-10321339D01*
X13124235Y-10325033D01*
X13119179Y-10329855D01*
X13112318Y-10331177D01*
X13105832Y-10328580D01*
X13104729Y-10327601D01*
X13096354Y-10319226D01*
X13096354Y-10319226D01*
X13086081Y-10313295D01*
X13074623Y-10310225D01*
X13062762Y-10310225D01*
X13051304Y-10313295D01*
X13051304Y-10313295D01*
X13051304Y-10313295D01*
X13041031Y-10319226D01*
X13041031Y-10319226D01*
X13032644Y-10327614D01*
X13032644Y-10327614D01*
X13027577Y-10336389D01*
X13026713Y-10337887D01*
X13023643Y-10349344D01*
X10978989Y-10349344D01*
X10933729Y-10304085D01*
X10935394Y-10303395D01*
X10948497Y-10294640D01*
X10959640Y-10283497D01*
X10968395Y-10270394D01*
X10969085Y-10268729D01*
X11034096Y-10333740D01*
X11034096Y-10333740D01*
X11039153Y-10327150D01*
X11050295Y-10307851D01*
X11050295Y-10307850D01*
X11058824Y-10287262D01*
X11064591Y-10265737D01*
X11064591Y-10265735D01*
X11067500Y-10243642D01*
X11067500Y-10233069D01*
X11862367Y-10233069D01*
X11862367Y-10244931D01*
X11865438Y-10256389D01*
X11871369Y-10266661D01*
X11879756Y-10275049D01*
X11890029Y-10280980D01*
X11901487Y-10284050D01*
X11901487Y-10284050D01*
X11913348Y-10284050D01*
X11913348Y-10284050D01*
X11924806Y-10280980D01*
X11935079Y-10275049D01*
X11943466Y-10266661D01*
X11949397Y-10256389D01*
X11952467Y-10244931D01*
X11952467Y-10233069D01*
X12746986Y-10233069D01*
X12746986Y-10244931D01*
X12750056Y-10256389D01*
X12755987Y-10266661D01*
X12764375Y-10275049D01*
X12774648Y-10280980D01*
X12786105Y-10284050D01*
X12786106Y-10284050D01*
X12797967Y-10284050D01*
X12797967Y-10284050D01*
X12809425Y-10280980D01*
X12819698Y-10275049D01*
X12828085Y-10266661D01*
X12828086Y-10266660D01*
X12828141Y-10266589D01*
X12828204Y-10266543D01*
X12828660Y-10266087D01*
X12828731Y-10266158D01*
X12833783Y-10262468D01*
X12840758Y-10262052D01*
X12844179Y-10263398D01*
X12844756Y-10263731D01*
X12844756Y-10263732D01*
X12848227Y-10265735D01*
X12855028Y-10269662D01*
X12855028Y-10269662D01*
X12855029Y-10269662D01*
X12855029Y-10269663D01*
X12866487Y-10272733D01*
X12866487Y-10272733D01*
X12878348Y-10272733D01*
X12878348Y-10272733D01*
X12889806Y-10269663D01*
X12900079Y-10263732D01*
X12908466Y-10255344D01*
X12914397Y-10245071D01*
X12917467Y-10233614D01*
X12917467Y-10221752D01*
X12914397Y-10210294D01*
X12908466Y-10200021D01*
X12900079Y-10191634D01*
X12889806Y-10185703D01*
X12878348Y-10182633D01*
X12866487Y-10182633D01*
X12855029Y-10185703D01*
X12855029Y-10185703D01*
X12855029Y-10185703D01*
X12844756Y-10191634D01*
X12844756Y-10191634D01*
X12836368Y-10200022D01*
X12836312Y-10200095D01*
X12836248Y-10200142D01*
X12835794Y-10200596D01*
X12835723Y-10200525D01*
X12830668Y-10204215D01*
X12823694Y-10204630D01*
X12820275Y-10203284D01*
X12809425Y-10197020D01*
X12809425Y-10197020D01*
X12807068Y-10196389D01*
X12797967Y-10193950D01*
X12786105Y-10193950D01*
X12774648Y-10197020D01*
X12774648Y-10197020D01*
X12774648Y-10197020D01*
X12764375Y-10202951D01*
X12764375Y-10202951D01*
X12755988Y-10211338D01*
X12755987Y-10211339D01*
X12750161Y-10221430D01*
X12750056Y-10221611D01*
X12746986Y-10233069D01*
X11952467Y-10233069D01*
X11949397Y-10221611D01*
X11943466Y-10211339D01*
X11935079Y-10202951D01*
X11924806Y-10197020D01*
X11913348Y-10193950D01*
X11901487Y-10193950D01*
X11890029Y-10197020D01*
X11890029Y-10197020D01*
X11890029Y-10197020D01*
X11879756Y-10202951D01*
X11879756Y-10202951D01*
X11871369Y-10211338D01*
X11871369Y-10211339D01*
X11865542Y-10221430D01*
X11865438Y-10221611D01*
X11862367Y-10233069D01*
X11067500Y-10233069D01*
X11067500Y-10221358D01*
X11064591Y-10199265D01*
X11064591Y-10199263D01*
X11058824Y-10177738D01*
X11050295Y-10157150D01*
X11050295Y-10157149D01*
X11039153Y-10137851D01*
X11034096Y-10131260D01*
X11034096Y-10131260D01*
X10969085Y-10196270D01*
X10968395Y-10194606D01*
X10959640Y-10181503D01*
X10948497Y-10170360D01*
X10935394Y-10161605D01*
X10933729Y-10160915D01*
X10982467Y-10112178D01*
X12066476Y-10112178D01*
X12066476Y-10124040D01*
X12069546Y-10135498D01*
X12075477Y-10145770D01*
X12083865Y-10154158D01*
X12094138Y-10160089D01*
X12105595Y-10163159D01*
X12105596Y-10163159D01*
X12117457Y-10163159D01*
X12117457Y-10163159D01*
X12128915Y-10160089D01*
X12139188Y-10154158D01*
X12144192Y-10149153D01*
X13326283Y-10149153D01*
X13326283Y-10161015D01*
X13329354Y-10172473D01*
X13335285Y-10182745D01*
X13343672Y-10191133D01*
X13353945Y-10197064D01*
X13365403Y-10200134D01*
X13365403Y-10200134D01*
X13377264Y-10200134D01*
X13377264Y-10200134D01*
X13388722Y-10197064D01*
X13398995Y-10191133D01*
X13407382Y-10182745D01*
X13413313Y-10172473D01*
X13416383Y-10161015D01*
X13416383Y-10149153D01*
X13413313Y-10137695D01*
X13407382Y-10127423D01*
X13398995Y-10119035D01*
X13388722Y-10113104D01*
X13377264Y-10110034D01*
X13365403Y-10110034D01*
X13353945Y-10113104D01*
X13353945Y-10113104D01*
X13353945Y-10113104D01*
X13343672Y-10119035D01*
X13343672Y-10119035D01*
X13335285Y-10127422D01*
X13335285Y-10127423D01*
X13329727Y-10137049D01*
X13329354Y-10137695D01*
X13326283Y-10149153D01*
X12144192Y-10149153D01*
X12147575Y-10145770D01*
X12153506Y-10135498D01*
X12156576Y-10124040D01*
X12156576Y-10112178D01*
X12153506Y-10100720D01*
X12147575Y-10090448D01*
X12139188Y-10082060D01*
X12128915Y-10076129D01*
X12128175Y-10075931D01*
X12720223Y-10075931D01*
X12720223Y-10087793D01*
X12723293Y-10099250D01*
X12729224Y-10109523D01*
X12737611Y-10117911D01*
X12747884Y-10123842D01*
X12759342Y-10126912D01*
X12759342Y-10126912D01*
X12771203Y-10126912D01*
X12771203Y-10126912D01*
X12782661Y-10123842D01*
X12792934Y-10117911D01*
X12801321Y-10109523D01*
X12807252Y-10099250D01*
X12810323Y-10087793D01*
X12810323Y-10075931D01*
X12807252Y-10064473D01*
X12801321Y-10054200D01*
X12792934Y-10045813D01*
X12782661Y-10039882D01*
X12771203Y-10036812D01*
X12759342Y-10036812D01*
X12747884Y-10039882D01*
X12747884Y-10039882D01*
X12747884Y-10039882D01*
X12737611Y-10045813D01*
X12737611Y-10045813D01*
X12729224Y-10054200D01*
X12729224Y-10054200D01*
X12723293Y-10064473D01*
X12720223Y-10075931D01*
X12128175Y-10075931D01*
X12117457Y-10073059D01*
X12105595Y-10073059D01*
X12094138Y-10076129D01*
X12094138Y-10076129D01*
X12094138Y-10076129D01*
X12083865Y-10082060D01*
X12083865Y-10082060D01*
X12075478Y-10090447D01*
X12075477Y-10090448D01*
X12072809Y-10095069D01*
X12069546Y-10100720D01*
X12066476Y-10112178D01*
X10982467Y-10112178D01*
X10992048Y-10102597D01*
X10998740Y-10095904D01*
X10998740Y-10095904D01*
X10992150Y-10090847D01*
X10992149Y-10090846D01*
X10972852Y-10079705D01*
X10972850Y-10079705D01*
X10952262Y-10071176D01*
X10930737Y-10065409D01*
X10930735Y-10065409D01*
X10908643Y-10062500D01*
X10886358Y-10062500D01*
X10864265Y-10065409D01*
X10864263Y-10065409D01*
X10842738Y-10071176D01*
X10822150Y-10079705D01*
X10822148Y-10079705D01*
X10802851Y-10090846D01*
X10796260Y-10095904D01*
X10861271Y-10160915D01*
X10859606Y-10161605D01*
X10846503Y-10170360D01*
X10835360Y-10181503D01*
X10826605Y-10194606D01*
X10825915Y-10196271D01*
X10760904Y-10131260D01*
X10755846Y-10137851D01*
X10744705Y-10157148D01*
X10744705Y-10157150D01*
X10736176Y-10177738D01*
X10730409Y-10199263D01*
X10730409Y-10199265D01*
X10727500Y-10221358D01*
X10552500Y-10221358D01*
X10549591Y-10199265D01*
X10549591Y-10199263D01*
X10543824Y-10177738D01*
X10535295Y-10157150D01*
X10535295Y-10157149D01*
X10524153Y-10137851D01*
X10519096Y-10131260D01*
X10519096Y-10131260D01*
X10454085Y-10196270D01*
X10453395Y-10194606D01*
X10444640Y-10181503D01*
X10433497Y-10170360D01*
X10420394Y-10161605D01*
X10418729Y-10160915D01*
X10483740Y-10095904D01*
X10483740Y-10095904D01*
X10477150Y-10090847D01*
X10477149Y-10090846D01*
X10457852Y-10079705D01*
X10457850Y-10079705D01*
X10437262Y-10071176D01*
X10415737Y-10065409D01*
X10415735Y-10065409D01*
X10393643Y-10062500D01*
X10371358Y-10062500D01*
X10349265Y-10065409D01*
X10349263Y-10065409D01*
X10327738Y-10071176D01*
X10307150Y-10079705D01*
X10307148Y-10079705D01*
X10287851Y-10090846D01*
X10281260Y-10095904D01*
X10346271Y-10160915D01*
X10344606Y-10161605D01*
X10331503Y-10170360D01*
X10320360Y-10181503D01*
X10311605Y-10194606D01*
X10310915Y-10196271D01*
X10245904Y-10131260D01*
X10240846Y-10137851D01*
X10229705Y-10157148D01*
X10229705Y-10157150D01*
X10221176Y-10177738D01*
X10215409Y-10199263D01*
X10215409Y-10199265D01*
X10212500Y-10221358D01*
X10030050Y-10221358D01*
X10030050Y-9928069D01*
X12427367Y-9928069D01*
X12427367Y-9939931D01*
X12430438Y-9951389D01*
X12436369Y-9961661D01*
X12444756Y-9970049D01*
X12455029Y-9975980D01*
X12466487Y-9979050D01*
X12466487Y-9979050D01*
X12478348Y-9979050D01*
X12478348Y-9979050D01*
X12489806Y-9975980D01*
X12500079Y-9970049D01*
X12508466Y-9961661D01*
X12514397Y-9951389D01*
X12517467Y-9939931D01*
X12517467Y-9928069D01*
X12712367Y-9928069D01*
X12712367Y-9939931D01*
X12715438Y-9951389D01*
X12721369Y-9961661D01*
X12729756Y-9970049D01*
X12740029Y-9975980D01*
X12751487Y-9979050D01*
X12751487Y-9979050D01*
X12763348Y-9979050D01*
X12763348Y-9979050D01*
X12774806Y-9975980D01*
X12785079Y-9970049D01*
X12793466Y-9961661D01*
X12799397Y-9951389D01*
X12802467Y-9939931D01*
X12802467Y-9928069D01*
X12799397Y-9916611D01*
X12793466Y-9906339D01*
X12785079Y-9897951D01*
X12774806Y-9892020D01*
X12763348Y-9888950D01*
X12751487Y-9888950D01*
X12740029Y-9892020D01*
X12740029Y-9892020D01*
X12740029Y-9892020D01*
X12729756Y-9897951D01*
X12729756Y-9897951D01*
X12721369Y-9906338D01*
X12721369Y-9906339D01*
X12716750Y-9914339D01*
X12715438Y-9916611D01*
X12712367Y-9928069D01*
X12517467Y-9928069D01*
X12514397Y-9916611D01*
X12508466Y-9906339D01*
X12500079Y-9897951D01*
X12489806Y-9892020D01*
X12478348Y-9888950D01*
X12466487Y-9888950D01*
X12455029Y-9892020D01*
X12455029Y-9892020D01*
X12455029Y-9892020D01*
X12444756Y-9897951D01*
X12444756Y-9897951D01*
X12436369Y-9906338D01*
X12436369Y-9906339D01*
X12431750Y-9914339D01*
X12430438Y-9916611D01*
X12427367Y-9928069D01*
X10030050Y-9928069D01*
X10030050Y-9804069D01*
X12818367Y-9804069D01*
X12818367Y-9815931D01*
X12821438Y-9827389D01*
X12827369Y-9837661D01*
X12835756Y-9846049D01*
X12846029Y-9851980D01*
X12857487Y-9855050D01*
X12857487Y-9855050D01*
X12869348Y-9855050D01*
X12869348Y-9855050D01*
X12880806Y-9851980D01*
X12891079Y-9846049D01*
X12899466Y-9837661D01*
X12905397Y-9827389D01*
X12908467Y-9815931D01*
X12908467Y-9804069D01*
X12905397Y-9792611D01*
X12899466Y-9782339D01*
X12891079Y-9773951D01*
X12880806Y-9768020D01*
X12869348Y-9764950D01*
X12857487Y-9764950D01*
X12846029Y-9768020D01*
X12846029Y-9768020D01*
X12846029Y-9768020D01*
X12835756Y-9773951D01*
X12835756Y-9773951D01*
X12827369Y-9782338D01*
X12827369Y-9782339D01*
X12822380Y-9790980D01*
X12821438Y-9792611D01*
X12818367Y-9804069D01*
X10030050Y-9804069D01*
X10030050Y-9743069D01*
X13097367Y-9743069D01*
X13097367Y-9754931D01*
X13100438Y-9766389D01*
X13106369Y-9776661D01*
X13114756Y-9785049D01*
X13125029Y-9790980D01*
X13136487Y-9794050D01*
X13136487Y-9794050D01*
X13148348Y-9794050D01*
X13148348Y-9794050D01*
X13159806Y-9790980D01*
X13170079Y-9785049D01*
X13178466Y-9776661D01*
X13184397Y-9766389D01*
X13187467Y-9754931D01*
X13187467Y-9743069D01*
X13184397Y-9731611D01*
X13178466Y-9721339D01*
X13170079Y-9712951D01*
X13159806Y-9707020D01*
X13148348Y-9703950D01*
X13136487Y-9703950D01*
X13125029Y-9707020D01*
X13125029Y-9707020D01*
X13125029Y-9707020D01*
X13114756Y-9712951D01*
X13114756Y-9712951D01*
X13106369Y-9721338D01*
X13106369Y-9721339D01*
X13100946Y-9730732D01*
X13100438Y-9731611D01*
X13097367Y-9743069D01*
X10030050Y-9743069D01*
X10030050Y-8830348D01*
X10030070Y-8829653D01*
X10030657Y-8819198D01*
X10030713Y-8818200D01*
X11999950Y-8818200D01*
X11999950Y-8841800D01*
X11999950Y-8841802D01*
X12002902Y-8864227D01*
X12003031Y-8865201D01*
X12007570Y-8882142D01*
X12009139Y-8887999D01*
X12018171Y-8909805D01*
X12018172Y-8909806D01*
X12024214Y-8920271D01*
X12029973Y-8930245D01*
X12029973Y-8930245D01*
X12029973Y-8930245D01*
X12044341Y-8948970D01*
X12044341Y-8948970D01*
X12061029Y-8965659D01*
X12061030Y-8965659D01*
X12063798Y-8967784D01*
X12079755Y-8980027D01*
X12090605Y-8986292D01*
X12100194Y-8991828D01*
X12100195Y-8991828D01*
X12100195Y-8991828D01*
X12122001Y-9000861D01*
X12144799Y-9006969D01*
X12168199Y-9010050D01*
X12168200Y-9010050D01*
X12191800Y-9010050D01*
X12191801Y-9010050D01*
X12215201Y-9006969D01*
X12237999Y-9000861D01*
X12259805Y-8991828D01*
X12280245Y-8980027D01*
X12298970Y-8965659D01*
X12315659Y-8948970D01*
X12330027Y-8930245D01*
X12341828Y-8909805D01*
X12350861Y-8887999D01*
X12356969Y-8865201D01*
X12360050Y-8841801D01*
X12360050Y-8818199D01*
X12356969Y-8794799D01*
X12350861Y-8772001D01*
X12341828Y-8750195D01*
X12341828Y-8750195D01*
X12341828Y-8750194D01*
X12337125Y-8742048D01*
X12330027Y-8729755D01*
X12318915Y-8715273D01*
X12315659Y-8711030D01*
X12315659Y-8711030D01*
X12298970Y-8694341D01*
X12298970Y-8694341D01*
X12280245Y-8679973D01*
X12280245Y-8679973D01*
X12280245Y-8679973D01*
X12267612Y-8672679D01*
X12259806Y-8668172D01*
X12259804Y-8668171D01*
X12237999Y-8659139D01*
X12215201Y-8653031D01*
X12191802Y-8649950D01*
X12191802Y-8649950D01*
X12191801Y-8649950D01*
X12168199Y-8649950D01*
X12168198Y-8649950D01*
X12168198Y-8649950D01*
X12144799Y-8653031D01*
X12122001Y-8659139D01*
X12100195Y-8668171D01*
X12100194Y-8668172D01*
X12079754Y-8679973D01*
X12061030Y-8694341D01*
X12061029Y-8694341D01*
X12044341Y-8711030D01*
X12044341Y-8711030D01*
X12029973Y-8729755D01*
X12018172Y-8750194D01*
X12018171Y-8750195D01*
X12009139Y-8772001D01*
X12003031Y-8794799D01*
X11999950Y-8818198D01*
X11999950Y-8818200D01*
X10030713Y-8818200D01*
X10031834Y-8798230D01*
X10031990Y-8796850D01*
X10037203Y-8766166D01*
X10037512Y-8764812D01*
X10046128Y-8734904D01*
X10046588Y-8733592D01*
X10058498Y-8704837D01*
X10059100Y-8703587D01*
X10074157Y-8676344D01*
X10074894Y-8675170D01*
X10092906Y-8649786D01*
X10093770Y-8648702D01*
X10114511Y-8625493D01*
X10115493Y-8624511D01*
X10138702Y-8603770D01*
X10139786Y-8602906D01*
X10165170Y-8584894D01*
X10166344Y-8584157D01*
X10193587Y-8569100D01*
X10194837Y-8568498D01*
X10223593Y-8556587D01*
X10224904Y-8556128D01*
X10254812Y-8547512D01*
X10256166Y-8547203D01*
X10286850Y-8541990D01*
X10288230Y-8541834D01*
X10315688Y-8540292D01*
X10319653Y-8540070D01*
X10320348Y-8540050D01*
X12376829Y-8540050D01*
X12383533Y-8542019D01*
G37*
%TD.AperFunction*%
%TD*%
M02*
