%TF.GenerationSoftware,KiCad,Pcbnew,9.0.2+1*%
%TF.CreationDate,2025-08-16T02:22:32+01:00*%
%TF.ProjectId,OBC,4f42432e-6b69-4636-9164-5f7063625858,rev?*%
%TF.SameCoordinates,Original*%
%TF.FileFunction,Drillmap*%
%TF.FilePolarity,Positive*%
%FSLAX45Y45*%
G04 Gerber Fmt 4.5, Leading zero omitted, Abs format (unit mm)*
G04 Created by KiCad (PCBNEW 9.0.2+1) date 2025-08-16 02:22:32*
%MOMM*%
%LPD*%
G01*
G04 APERTURE LIST*
%ADD10C,0.050000*%
%ADD11C,0.200000*%
%ADD12C,0.100000*%
%ADD13C,0.320000*%
G04 APERTURE END LIST*
D10*
X20100000Y-8510000D02*
G75*
G02*
X19740000Y-8150000I0J360000D01*
G01*
X20100000Y-8510000D02*
G75*
G02*
X21000000Y-9410000I0J-900000D01*
G01*
X18660000Y-12010000D02*
G75*
G02*
X19020000Y-12370000I0J-360000D01*
G01*
X21000000Y-11110000D02*
G75*
G02*
X20100000Y-12010000I-900000J0D01*
G01*
X12540000Y-12370000D02*
G75*
G02*
X11820000Y-12370000I-360000J0D01*
G01*
X19020000Y-8150000D02*
G75*
G02*
X18660000Y-8510000I-360000J0D01*
G01*
X10320000Y-12010000D02*
X11460000Y-12010000D01*
X10320000Y-12010000D02*
G75*
G02*
X10000000Y-11690000I0J320000D01*
G01*
X21000000Y-9410000D02*
X21000000Y-11110000D01*
X12900000Y-12010000D02*
X18660000Y-12010000D01*
X19740000Y-12370000D02*
G75*
G02*
X20100000Y-12010000I360000J0D01*
G01*
X10000000Y-11690000D02*
X10000000Y-8830000D01*
X18660000Y-8510000D02*
X10320000Y-8510000D01*
X19020000Y-8150000D02*
G75*
G02*
X19740000Y-8150000I360000J0D01*
G01*
X12540000Y-12370000D02*
G75*
G02*
X12900000Y-12010000I360000J0D01*
G01*
X19740000Y-12370000D02*
G75*
G02*
X19020000Y-12370000I-360000J0D01*
G01*
X11460000Y-12010000D02*
G75*
G02*
X11820000Y-12370000I0J-360000D01*
G01*
X10000000Y-8830000D02*
G75*
G02*
X10320000Y-8510000I320000J0D01*
G01*
D11*
D12*
X15817342Y-8986250D02*
X15877342Y-9046250D01*
X15877342Y-8986250D02*
X15817342Y-9046250D01*
X16478842Y-9016250D02*
G75*
G02*
X16415842Y-9016250I-31500J0D01*
G01*
X16415842Y-9016250D02*
G75*
G02*
X16478842Y-9016250I31500J0D01*
G01*
D13*
X12180000Y-12250000D02*
X12180000Y-12570000D01*
X12020000Y-12410000D02*
X12340000Y-12410000D01*
D11*
X10258277Y-13043984D02*
X10258277Y-12843984D01*
X10258277Y-12843984D02*
X10305896Y-12843984D01*
X10305896Y-12843984D02*
X10334467Y-12853508D01*
X10334467Y-12853508D02*
X10353515Y-12872555D01*
X10353515Y-12872555D02*
X10363039Y-12891603D01*
X10363039Y-12891603D02*
X10372563Y-12929698D01*
X10372563Y-12929698D02*
X10372563Y-12958269D01*
X10372563Y-12958269D02*
X10363039Y-12996365D01*
X10363039Y-12996365D02*
X10353515Y-13015412D01*
X10353515Y-13015412D02*
X10334467Y-13034460D01*
X10334467Y-13034460D02*
X10305896Y-13043984D01*
X10305896Y-13043984D02*
X10258277Y-13043984D01*
X10458277Y-13043984D02*
X10458277Y-12910650D01*
X10458277Y-12948746D02*
X10467801Y-12929698D01*
X10467801Y-12929698D02*
X10477324Y-12920174D01*
X10477324Y-12920174D02*
X10496372Y-12910650D01*
X10496372Y-12910650D02*
X10515420Y-12910650D01*
X10582086Y-13043984D02*
X10582086Y-12910650D01*
X10582086Y-12843984D02*
X10572563Y-12853508D01*
X10572563Y-12853508D02*
X10582086Y-12863031D01*
X10582086Y-12863031D02*
X10591610Y-12853508D01*
X10591610Y-12853508D02*
X10582086Y-12843984D01*
X10582086Y-12843984D02*
X10582086Y-12863031D01*
X10705896Y-13043984D02*
X10686848Y-13034460D01*
X10686848Y-13034460D02*
X10677324Y-13015412D01*
X10677324Y-13015412D02*
X10677324Y-12843984D01*
X10810658Y-13043984D02*
X10791610Y-13034460D01*
X10791610Y-13034460D02*
X10782086Y-13015412D01*
X10782086Y-13015412D02*
X10782086Y-12843984D01*
X11039229Y-13043984D02*
X11039229Y-12843984D01*
X11039229Y-12843984D02*
X11105896Y-12986841D01*
X11105896Y-12986841D02*
X11172563Y-12843984D01*
X11172563Y-12843984D02*
X11172563Y-13043984D01*
X11353515Y-13043984D02*
X11353515Y-12939222D01*
X11353515Y-12939222D02*
X11343991Y-12920174D01*
X11343991Y-12920174D02*
X11324943Y-12910650D01*
X11324943Y-12910650D02*
X11286848Y-12910650D01*
X11286848Y-12910650D02*
X11267801Y-12920174D01*
X11353515Y-13034460D02*
X11334467Y-13043984D01*
X11334467Y-13043984D02*
X11286848Y-13043984D01*
X11286848Y-13043984D02*
X11267801Y-13034460D01*
X11267801Y-13034460D02*
X11258277Y-13015412D01*
X11258277Y-13015412D02*
X11258277Y-12996365D01*
X11258277Y-12996365D02*
X11267801Y-12977317D01*
X11267801Y-12977317D02*
X11286848Y-12967793D01*
X11286848Y-12967793D02*
X11334467Y-12967793D01*
X11334467Y-12967793D02*
X11353515Y-12958269D01*
X11448753Y-12910650D02*
X11448753Y-13110650D01*
X11448753Y-12920174D02*
X11467801Y-12910650D01*
X11467801Y-12910650D02*
X11505896Y-12910650D01*
X11505896Y-12910650D02*
X11524943Y-12920174D01*
X11524943Y-12920174D02*
X11534467Y-12929698D01*
X11534467Y-12929698D02*
X11543991Y-12948746D01*
X11543991Y-12948746D02*
X11543991Y-13005888D01*
X11543991Y-13005888D02*
X11534467Y-13024936D01*
X11534467Y-13024936D02*
X11524943Y-13034460D01*
X11524943Y-13034460D02*
X11505896Y-13043984D01*
X11505896Y-13043984D02*
X11467801Y-13043984D01*
X11467801Y-13043984D02*
X11448753Y-13034460D01*
X11629705Y-13024936D02*
X11639229Y-13034460D01*
X11639229Y-13034460D02*
X11629705Y-13043984D01*
X11629705Y-13043984D02*
X11620182Y-13034460D01*
X11620182Y-13034460D02*
X11629705Y-13024936D01*
X11629705Y-13024936D02*
X11629705Y-13043984D01*
X11629705Y-12920174D02*
X11639229Y-12929698D01*
X11639229Y-12929698D02*
X11629705Y-12939222D01*
X11629705Y-12939222D02*
X11620182Y-12929698D01*
X11620182Y-12929698D02*
X11629705Y-12920174D01*
X11629705Y-12920174D02*
X11629705Y-12939222D01*
D12*
X9937500Y-13342500D02*
X9997500Y-13402500D01*
X9997500Y-13342500D02*
X9937500Y-13402500D01*
D11*
X10296372Y-13263984D02*
X10315420Y-13263984D01*
X10315420Y-13263984D02*
X10334467Y-13273508D01*
X10334467Y-13273508D02*
X10343991Y-13283031D01*
X10343991Y-13283031D02*
X10353515Y-13302079D01*
X10353515Y-13302079D02*
X10363039Y-13340174D01*
X10363039Y-13340174D02*
X10363039Y-13387793D01*
X10363039Y-13387793D02*
X10353515Y-13425888D01*
X10353515Y-13425888D02*
X10343991Y-13444936D01*
X10343991Y-13444936D02*
X10334467Y-13454460D01*
X10334467Y-13454460D02*
X10315420Y-13463984D01*
X10315420Y-13463984D02*
X10296372Y-13463984D01*
X10296372Y-13463984D02*
X10277324Y-13454460D01*
X10277324Y-13454460D02*
X10267801Y-13444936D01*
X10267801Y-13444936D02*
X10258277Y-13425888D01*
X10258277Y-13425888D02*
X10248753Y-13387793D01*
X10248753Y-13387793D02*
X10248753Y-13340174D01*
X10248753Y-13340174D02*
X10258277Y-13302079D01*
X10258277Y-13302079D02*
X10267801Y-13283031D01*
X10267801Y-13283031D02*
X10277324Y-13273508D01*
X10277324Y-13273508D02*
X10296372Y-13263984D01*
X10448753Y-13444936D02*
X10458277Y-13454460D01*
X10458277Y-13454460D02*
X10448753Y-13463984D01*
X10448753Y-13463984D02*
X10439229Y-13454460D01*
X10439229Y-13454460D02*
X10448753Y-13444936D01*
X10448753Y-13444936D02*
X10448753Y-13463984D01*
X10629705Y-13263984D02*
X10591610Y-13263984D01*
X10591610Y-13263984D02*
X10572563Y-13273508D01*
X10572563Y-13273508D02*
X10563039Y-13283031D01*
X10563039Y-13283031D02*
X10543991Y-13311603D01*
X10543991Y-13311603D02*
X10534467Y-13349698D01*
X10534467Y-13349698D02*
X10534467Y-13425888D01*
X10534467Y-13425888D02*
X10543991Y-13444936D01*
X10543991Y-13444936D02*
X10553515Y-13454460D01*
X10553515Y-13454460D02*
X10572563Y-13463984D01*
X10572563Y-13463984D02*
X10610658Y-13463984D01*
X10610658Y-13463984D02*
X10629705Y-13454460D01*
X10629705Y-13454460D02*
X10639229Y-13444936D01*
X10639229Y-13444936D02*
X10648753Y-13425888D01*
X10648753Y-13425888D02*
X10648753Y-13378269D01*
X10648753Y-13378269D02*
X10639229Y-13359222D01*
X10639229Y-13359222D02*
X10629705Y-13349698D01*
X10629705Y-13349698D02*
X10610658Y-13340174D01*
X10610658Y-13340174D02*
X10572563Y-13340174D01*
X10572563Y-13340174D02*
X10553515Y-13349698D01*
X10553515Y-13349698D02*
X10543991Y-13359222D01*
X10543991Y-13359222D02*
X10534467Y-13378269D01*
X10772563Y-13263984D02*
X10791610Y-13263984D01*
X10791610Y-13263984D02*
X10810658Y-13273508D01*
X10810658Y-13273508D02*
X10820182Y-13283031D01*
X10820182Y-13283031D02*
X10829705Y-13302079D01*
X10829705Y-13302079D02*
X10839229Y-13340174D01*
X10839229Y-13340174D02*
X10839229Y-13387793D01*
X10839229Y-13387793D02*
X10829705Y-13425888D01*
X10829705Y-13425888D02*
X10820182Y-13444936D01*
X10820182Y-13444936D02*
X10810658Y-13454460D01*
X10810658Y-13454460D02*
X10791610Y-13463984D01*
X10791610Y-13463984D02*
X10772563Y-13463984D01*
X10772563Y-13463984D02*
X10753515Y-13454460D01*
X10753515Y-13454460D02*
X10743991Y-13444936D01*
X10743991Y-13444936D02*
X10734467Y-13425888D01*
X10734467Y-13425888D02*
X10724944Y-13387793D01*
X10724944Y-13387793D02*
X10724944Y-13340174D01*
X10724944Y-13340174D02*
X10734467Y-13302079D01*
X10734467Y-13302079D02*
X10743991Y-13283031D01*
X10743991Y-13283031D02*
X10753515Y-13273508D01*
X10753515Y-13273508D02*
X10772563Y-13263984D01*
X10963039Y-13263984D02*
X10982086Y-13263984D01*
X10982086Y-13263984D02*
X11001134Y-13273508D01*
X11001134Y-13273508D02*
X11010658Y-13283031D01*
X11010658Y-13283031D02*
X11020182Y-13302079D01*
X11020182Y-13302079D02*
X11029705Y-13340174D01*
X11029705Y-13340174D02*
X11029705Y-13387793D01*
X11029705Y-13387793D02*
X11020182Y-13425888D01*
X11020182Y-13425888D02*
X11010658Y-13444936D01*
X11010658Y-13444936D02*
X11001134Y-13454460D01*
X11001134Y-13454460D02*
X10982086Y-13463984D01*
X10982086Y-13463984D02*
X10963039Y-13463984D01*
X10963039Y-13463984D02*
X10943991Y-13454460D01*
X10943991Y-13454460D02*
X10934467Y-13444936D01*
X10934467Y-13444936D02*
X10924944Y-13425888D01*
X10924944Y-13425888D02*
X10915420Y-13387793D01*
X10915420Y-13387793D02*
X10915420Y-13340174D01*
X10915420Y-13340174D02*
X10924944Y-13302079D01*
X10924944Y-13302079D02*
X10934467Y-13283031D01*
X10934467Y-13283031D02*
X10943991Y-13273508D01*
X10943991Y-13273508D02*
X10963039Y-13263984D01*
X11115420Y-13463984D02*
X11115420Y-13330650D01*
X11115420Y-13349698D02*
X11124944Y-13340174D01*
X11124944Y-13340174D02*
X11143991Y-13330650D01*
X11143991Y-13330650D02*
X11172563Y-13330650D01*
X11172563Y-13330650D02*
X11191610Y-13340174D01*
X11191610Y-13340174D02*
X11201134Y-13359222D01*
X11201134Y-13359222D02*
X11201134Y-13463984D01*
X11201134Y-13359222D02*
X11210658Y-13340174D01*
X11210658Y-13340174D02*
X11229705Y-13330650D01*
X11229705Y-13330650D02*
X11258277Y-13330650D01*
X11258277Y-13330650D02*
X11277324Y-13340174D01*
X11277324Y-13340174D02*
X11286848Y-13359222D01*
X11286848Y-13359222D02*
X11286848Y-13463984D01*
X11382086Y-13463984D02*
X11382086Y-13330650D01*
X11382086Y-13349698D02*
X11391610Y-13340174D01*
X11391610Y-13340174D02*
X11410658Y-13330650D01*
X11410658Y-13330650D02*
X11439229Y-13330650D01*
X11439229Y-13330650D02*
X11458277Y-13340174D01*
X11458277Y-13340174D02*
X11467801Y-13359222D01*
X11467801Y-13359222D02*
X11467801Y-13463984D01*
X11467801Y-13359222D02*
X11477324Y-13340174D01*
X11477324Y-13340174D02*
X11496372Y-13330650D01*
X11496372Y-13330650D02*
X11524943Y-13330650D01*
X11524943Y-13330650D02*
X11543991Y-13340174D01*
X11543991Y-13340174D02*
X11553515Y-13359222D01*
X11553515Y-13359222D02*
X11553515Y-13463984D01*
X11943991Y-13254460D02*
X11772563Y-13511603D01*
X12201134Y-13263984D02*
X12220182Y-13263984D01*
X12220182Y-13263984D02*
X12239229Y-13273508D01*
X12239229Y-13273508D02*
X12248753Y-13283031D01*
X12248753Y-13283031D02*
X12258277Y-13302079D01*
X12258277Y-13302079D02*
X12267801Y-13340174D01*
X12267801Y-13340174D02*
X12267801Y-13387793D01*
X12267801Y-13387793D02*
X12258277Y-13425888D01*
X12258277Y-13425888D02*
X12248753Y-13444936D01*
X12248753Y-13444936D02*
X12239229Y-13454460D01*
X12239229Y-13454460D02*
X12220182Y-13463984D01*
X12220182Y-13463984D02*
X12201134Y-13463984D01*
X12201134Y-13463984D02*
X12182086Y-13454460D01*
X12182086Y-13454460D02*
X12172563Y-13444936D01*
X12172563Y-13444936D02*
X12163039Y-13425888D01*
X12163039Y-13425888D02*
X12153515Y-13387793D01*
X12153515Y-13387793D02*
X12153515Y-13340174D01*
X12153515Y-13340174D02*
X12163039Y-13302079D01*
X12163039Y-13302079D02*
X12172563Y-13283031D01*
X12172563Y-13283031D02*
X12182086Y-13273508D01*
X12182086Y-13273508D02*
X12201134Y-13263984D01*
X12353515Y-13444936D02*
X12363039Y-13454460D01*
X12363039Y-13454460D02*
X12353515Y-13463984D01*
X12353515Y-13463984D02*
X12343991Y-13454460D01*
X12343991Y-13454460D02*
X12353515Y-13444936D01*
X12353515Y-13444936D02*
X12353515Y-13463984D01*
X12486848Y-13263984D02*
X12505896Y-13263984D01*
X12505896Y-13263984D02*
X12524944Y-13273508D01*
X12524944Y-13273508D02*
X12534467Y-13283031D01*
X12534467Y-13283031D02*
X12543991Y-13302079D01*
X12543991Y-13302079D02*
X12553515Y-13340174D01*
X12553515Y-13340174D02*
X12553515Y-13387793D01*
X12553515Y-13387793D02*
X12543991Y-13425888D01*
X12543991Y-13425888D02*
X12534467Y-13444936D01*
X12534467Y-13444936D02*
X12524944Y-13454460D01*
X12524944Y-13454460D02*
X12505896Y-13463984D01*
X12505896Y-13463984D02*
X12486848Y-13463984D01*
X12486848Y-13463984D02*
X12467801Y-13454460D01*
X12467801Y-13454460D02*
X12458277Y-13444936D01*
X12458277Y-13444936D02*
X12448753Y-13425888D01*
X12448753Y-13425888D02*
X12439229Y-13387793D01*
X12439229Y-13387793D02*
X12439229Y-13340174D01*
X12439229Y-13340174D02*
X12448753Y-13302079D01*
X12448753Y-13302079D02*
X12458277Y-13283031D01*
X12458277Y-13283031D02*
X12467801Y-13273508D01*
X12467801Y-13273508D02*
X12486848Y-13263984D01*
X12629706Y-13283031D02*
X12639229Y-13273508D01*
X12639229Y-13273508D02*
X12658277Y-13263984D01*
X12658277Y-13263984D02*
X12705896Y-13263984D01*
X12705896Y-13263984D02*
X12724944Y-13273508D01*
X12724944Y-13273508D02*
X12734467Y-13283031D01*
X12734467Y-13283031D02*
X12743991Y-13302079D01*
X12743991Y-13302079D02*
X12743991Y-13321127D01*
X12743991Y-13321127D02*
X12734467Y-13349698D01*
X12734467Y-13349698D02*
X12620182Y-13463984D01*
X12620182Y-13463984D02*
X12743991Y-13463984D01*
X12810658Y-13263984D02*
X12934467Y-13263984D01*
X12934467Y-13263984D02*
X12867801Y-13340174D01*
X12867801Y-13340174D02*
X12896372Y-13340174D01*
X12896372Y-13340174D02*
X12915420Y-13349698D01*
X12915420Y-13349698D02*
X12924944Y-13359222D01*
X12924944Y-13359222D02*
X12934467Y-13378269D01*
X12934467Y-13378269D02*
X12934467Y-13425888D01*
X12934467Y-13425888D02*
X12924944Y-13444936D01*
X12924944Y-13444936D02*
X12915420Y-13454460D01*
X12915420Y-13454460D02*
X12896372Y-13463984D01*
X12896372Y-13463984D02*
X12839229Y-13463984D01*
X12839229Y-13463984D02*
X12820182Y-13454460D01*
X12820182Y-13454460D02*
X12810658Y-13444936D01*
X13105896Y-13263984D02*
X13067801Y-13263984D01*
X13067801Y-13263984D02*
X13048753Y-13273508D01*
X13048753Y-13273508D02*
X13039229Y-13283031D01*
X13039229Y-13283031D02*
X13020182Y-13311603D01*
X13020182Y-13311603D02*
X13010658Y-13349698D01*
X13010658Y-13349698D02*
X13010658Y-13425888D01*
X13010658Y-13425888D02*
X13020182Y-13444936D01*
X13020182Y-13444936D02*
X13029706Y-13454460D01*
X13029706Y-13454460D02*
X13048753Y-13463984D01*
X13048753Y-13463984D02*
X13086848Y-13463984D01*
X13086848Y-13463984D02*
X13105896Y-13454460D01*
X13105896Y-13454460D02*
X13115420Y-13444936D01*
X13115420Y-13444936D02*
X13124944Y-13425888D01*
X13124944Y-13425888D02*
X13124944Y-13378269D01*
X13124944Y-13378269D02*
X13115420Y-13359222D01*
X13115420Y-13359222D02*
X13105896Y-13349698D01*
X13105896Y-13349698D02*
X13086848Y-13340174D01*
X13086848Y-13340174D02*
X13048753Y-13340174D01*
X13048753Y-13340174D02*
X13029706Y-13349698D01*
X13029706Y-13349698D02*
X13020182Y-13359222D01*
X13020182Y-13359222D02*
X13010658Y-13378269D01*
X13201134Y-13263984D02*
X13201134Y-13302079D01*
X13277325Y-13263984D02*
X13277325Y-13302079D01*
X13572563Y-13540174D02*
X13563039Y-13530650D01*
X13563039Y-13530650D02*
X13543991Y-13502079D01*
X13543991Y-13502079D02*
X13534468Y-13483031D01*
X13534468Y-13483031D02*
X13524944Y-13454460D01*
X13524944Y-13454460D02*
X13515420Y-13406841D01*
X13515420Y-13406841D02*
X13515420Y-13368746D01*
X13515420Y-13368746D02*
X13524944Y-13321127D01*
X13524944Y-13321127D02*
X13534468Y-13292555D01*
X13534468Y-13292555D02*
X13543991Y-13273508D01*
X13543991Y-13273508D02*
X13563039Y-13244936D01*
X13563039Y-13244936D02*
X13572563Y-13235412D01*
X13753515Y-13463984D02*
X13639229Y-13463984D01*
X13696372Y-13463984D02*
X13696372Y-13263984D01*
X13696372Y-13263984D02*
X13677325Y-13292555D01*
X13677325Y-13292555D02*
X13658277Y-13311603D01*
X13658277Y-13311603D02*
X13639229Y-13321127D01*
X13991610Y-13463984D02*
X13991610Y-13263984D01*
X14077325Y-13463984D02*
X14077325Y-13359222D01*
X14077325Y-13359222D02*
X14067801Y-13340174D01*
X14067801Y-13340174D02*
X14048753Y-13330650D01*
X14048753Y-13330650D02*
X14020182Y-13330650D01*
X14020182Y-13330650D02*
X14001134Y-13340174D01*
X14001134Y-13340174D02*
X13991610Y-13349698D01*
X14201134Y-13463984D02*
X14182087Y-13454460D01*
X14182087Y-13454460D02*
X14172563Y-13444936D01*
X14172563Y-13444936D02*
X14163039Y-13425888D01*
X14163039Y-13425888D02*
X14163039Y-13368746D01*
X14163039Y-13368746D02*
X14172563Y-13349698D01*
X14172563Y-13349698D02*
X14182087Y-13340174D01*
X14182087Y-13340174D02*
X14201134Y-13330650D01*
X14201134Y-13330650D02*
X14229706Y-13330650D01*
X14229706Y-13330650D02*
X14248753Y-13340174D01*
X14248753Y-13340174D02*
X14258277Y-13349698D01*
X14258277Y-13349698D02*
X14267801Y-13368746D01*
X14267801Y-13368746D02*
X14267801Y-13425888D01*
X14267801Y-13425888D02*
X14258277Y-13444936D01*
X14258277Y-13444936D02*
X14248753Y-13454460D01*
X14248753Y-13454460D02*
X14229706Y-13463984D01*
X14229706Y-13463984D02*
X14201134Y-13463984D01*
X14382087Y-13463984D02*
X14363039Y-13454460D01*
X14363039Y-13454460D02*
X14353515Y-13435412D01*
X14353515Y-13435412D02*
X14353515Y-13263984D01*
X14534468Y-13454460D02*
X14515420Y-13463984D01*
X14515420Y-13463984D02*
X14477325Y-13463984D01*
X14477325Y-13463984D02*
X14458277Y-13454460D01*
X14458277Y-13454460D02*
X14448753Y-13435412D01*
X14448753Y-13435412D02*
X14448753Y-13359222D01*
X14448753Y-13359222D02*
X14458277Y-13340174D01*
X14458277Y-13340174D02*
X14477325Y-13330650D01*
X14477325Y-13330650D02*
X14515420Y-13330650D01*
X14515420Y-13330650D02*
X14534468Y-13340174D01*
X14534468Y-13340174D02*
X14543991Y-13359222D01*
X14543991Y-13359222D02*
X14543991Y-13378269D01*
X14543991Y-13378269D02*
X14448753Y-13397317D01*
X14610658Y-13540174D02*
X14620182Y-13530650D01*
X14620182Y-13530650D02*
X14639230Y-13502079D01*
X14639230Y-13502079D02*
X14648753Y-13483031D01*
X14648753Y-13483031D02*
X14658277Y-13454460D01*
X14658277Y-13454460D02*
X14667801Y-13406841D01*
X14667801Y-13406841D02*
X14667801Y-13368746D01*
X14667801Y-13368746D02*
X14658277Y-13321127D01*
X14658277Y-13321127D02*
X14648753Y-13292555D01*
X14648753Y-13292555D02*
X14639230Y-13273508D01*
X14639230Y-13273508D02*
X14620182Y-13244936D01*
X14620182Y-13244936D02*
X14610658Y-13235412D01*
X14972563Y-13540174D02*
X14963039Y-13530650D01*
X14963039Y-13530650D02*
X14943991Y-13502079D01*
X14943991Y-13502079D02*
X14934468Y-13483031D01*
X14934468Y-13483031D02*
X14924944Y-13454460D01*
X14924944Y-13454460D02*
X14915420Y-13406841D01*
X14915420Y-13406841D02*
X14915420Y-13368746D01*
X14915420Y-13368746D02*
X14924944Y-13321127D01*
X14924944Y-13321127D02*
X14934468Y-13292555D01*
X14934468Y-13292555D02*
X14943991Y-13273508D01*
X14943991Y-13273508D02*
X14963039Y-13244936D01*
X14963039Y-13244936D02*
X14972563Y-13235412D01*
X15048753Y-13330650D02*
X15048753Y-13463984D01*
X15048753Y-13349698D02*
X15058277Y-13340174D01*
X15058277Y-13340174D02*
X15077325Y-13330650D01*
X15077325Y-13330650D02*
X15105896Y-13330650D01*
X15105896Y-13330650D02*
X15124944Y-13340174D01*
X15124944Y-13340174D02*
X15134468Y-13359222D01*
X15134468Y-13359222D02*
X15134468Y-13463984D01*
X15258277Y-13463984D02*
X15239230Y-13454460D01*
X15239230Y-13454460D02*
X15229706Y-13444936D01*
X15229706Y-13444936D02*
X15220182Y-13425888D01*
X15220182Y-13425888D02*
X15220182Y-13368746D01*
X15220182Y-13368746D02*
X15229706Y-13349698D01*
X15229706Y-13349698D02*
X15239230Y-13340174D01*
X15239230Y-13340174D02*
X15258277Y-13330650D01*
X15258277Y-13330650D02*
X15286849Y-13330650D01*
X15286849Y-13330650D02*
X15305896Y-13340174D01*
X15305896Y-13340174D02*
X15315420Y-13349698D01*
X15315420Y-13349698D02*
X15324944Y-13368746D01*
X15324944Y-13368746D02*
X15324944Y-13425888D01*
X15324944Y-13425888D02*
X15315420Y-13444936D01*
X15315420Y-13444936D02*
X15305896Y-13454460D01*
X15305896Y-13454460D02*
X15286849Y-13463984D01*
X15286849Y-13463984D02*
X15258277Y-13463984D01*
X15382087Y-13330650D02*
X15458277Y-13330650D01*
X15410658Y-13263984D02*
X15410658Y-13435412D01*
X15410658Y-13435412D02*
X15420182Y-13454460D01*
X15420182Y-13454460D02*
X15439230Y-13463984D01*
X15439230Y-13463984D02*
X15458277Y-13463984D01*
X15677325Y-13330650D02*
X15677325Y-13530650D01*
X15677325Y-13340174D02*
X15696372Y-13330650D01*
X15696372Y-13330650D02*
X15734468Y-13330650D01*
X15734468Y-13330650D02*
X15753515Y-13340174D01*
X15753515Y-13340174D02*
X15763039Y-13349698D01*
X15763039Y-13349698D02*
X15772563Y-13368746D01*
X15772563Y-13368746D02*
X15772563Y-13425888D01*
X15772563Y-13425888D02*
X15763039Y-13444936D01*
X15763039Y-13444936D02*
X15753515Y-13454460D01*
X15753515Y-13454460D02*
X15734468Y-13463984D01*
X15734468Y-13463984D02*
X15696372Y-13463984D01*
X15696372Y-13463984D02*
X15677325Y-13454460D01*
X15886849Y-13463984D02*
X15867801Y-13454460D01*
X15867801Y-13454460D02*
X15858277Y-13435412D01*
X15858277Y-13435412D02*
X15858277Y-13263984D01*
X16048753Y-13463984D02*
X16048753Y-13359222D01*
X16048753Y-13359222D02*
X16039230Y-13340174D01*
X16039230Y-13340174D02*
X16020182Y-13330650D01*
X16020182Y-13330650D02*
X15982087Y-13330650D01*
X15982087Y-13330650D02*
X15963039Y-13340174D01*
X16048753Y-13454460D02*
X16029706Y-13463984D01*
X16029706Y-13463984D02*
X15982087Y-13463984D01*
X15982087Y-13463984D02*
X15963039Y-13454460D01*
X15963039Y-13454460D02*
X15953515Y-13435412D01*
X15953515Y-13435412D02*
X15953515Y-13416365D01*
X15953515Y-13416365D02*
X15963039Y-13397317D01*
X15963039Y-13397317D02*
X15982087Y-13387793D01*
X15982087Y-13387793D02*
X16029706Y-13387793D01*
X16029706Y-13387793D02*
X16048753Y-13378269D01*
X16115420Y-13330650D02*
X16191611Y-13330650D01*
X16143992Y-13263984D02*
X16143992Y-13435412D01*
X16143992Y-13435412D02*
X16153515Y-13454460D01*
X16153515Y-13454460D02*
X16172563Y-13463984D01*
X16172563Y-13463984D02*
X16191611Y-13463984D01*
X16334468Y-13454460D02*
X16315420Y-13463984D01*
X16315420Y-13463984D02*
X16277325Y-13463984D01*
X16277325Y-13463984D02*
X16258277Y-13454460D01*
X16258277Y-13454460D02*
X16248753Y-13435412D01*
X16248753Y-13435412D02*
X16248753Y-13359222D01*
X16248753Y-13359222D02*
X16258277Y-13340174D01*
X16258277Y-13340174D02*
X16277325Y-13330650D01*
X16277325Y-13330650D02*
X16315420Y-13330650D01*
X16315420Y-13330650D02*
X16334468Y-13340174D01*
X16334468Y-13340174D02*
X16343992Y-13359222D01*
X16343992Y-13359222D02*
X16343992Y-13378269D01*
X16343992Y-13378269D02*
X16248753Y-13397317D01*
X16515420Y-13463984D02*
X16515420Y-13263984D01*
X16515420Y-13454460D02*
X16496373Y-13463984D01*
X16496373Y-13463984D02*
X16458277Y-13463984D01*
X16458277Y-13463984D02*
X16439230Y-13454460D01*
X16439230Y-13454460D02*
X16429706Y-13444936D01*
X16429706Y-13444936D02*
X16420182Y-13425888D01*
X16420182Y-13425888D02*
X16420182Y-13368746D01*
X16420182Y-13368746D02*
X16429706Y-13349698D01*
X16429706Y-13349698D02*
X16439230Y-13340174D01*
X16439230Y-13340174D02*
X16458277Y-13330650D01*
X16458277Y-13330650D02*
X16496373Y-13330650D01*
X16496373Y-13330650D02*
X16515420Y-13340174D01*
X16591611Y-13540174D02*
X16601134Y-13530650D01*
X16601134Y-13530650D02*
X16620182Y-13502079D01*
X16620182Y-13502079D02*
X16629706Y-13483031D01*
X16629706Y-13483031D02*
X16639230Y-13454460D01*
X16639230Y-13454460D02*
X16648753Y-13406841D01*
X16648753Y-13406841D02*
X16648753Y-13368746D01*
X16648753Y-13368746D02*
X16639230Y-13321127D01*
X16639230Y-13321127D02*
X16629706Y-13292555D01*
X16629706Y-13292555D02*
X16620182Y-13273508D01*
X16620182Y-13273508D02*
X16601134Y-13244936D01*
X16601134Y-13244936D02*
X16591611Y-13235412D01*
D12*
X9997500Y-13636500D02*
G75*
G02*
X9934500Y-13636500I-31500J0D01*
G01*
X9934500Y-13636500D02*
G75*
G02*
X9997500Y-13636500I31500J0D01*
G01*
D11*
X10296372Y-13527984D02*
X10315420Y-13527984D01*
X10315420Y-13527984D02*
X10334467Y-13537508D01*
X10334467Y-13537508D02*
X10343991Y-13547031D01*
X10343991Y-13547031D02*
X10353515Y-13566079D01*
X10353515Y-13566079D02*
X10363039Y-13604174D01*
X10363039Y-13604174D02*
X10363039Y-13651793D01*
X10363039Y-13651793D02*
X10353515Y-13689888D01*
X10353515Y-13689888D02*
X10343991Y-13708936D01*
X10343991Y-13708936D02*
X10334467Y-13718460D01*
X10334467Y-13718460D02*
X10315420Y-13727984D01*
X10315420Y-13727984D02*
X10296372Y-13727984D01*
X10296372Y-13727984D02*
X10277324Y-13718460D01*
X10277324Y-13718460D02*
X10267801Y-13708936D01*
X10267801Y-13708936D02*
X10258277Y-13689888D01*
X10258277Y-13689888D02*
X10248753Y-13651793D01*
X10248753Y-13651793D02*
X10248753Y-13604174D01*
X10248753Y-13604174D02*
X10258277Y-13566079D01*
X10258277Y-13566079D02*
X10267801Y-13547031D01*
X10267801Y-13547031D02*
X10277324Y-13537508D01*
X10277324Y-13537508D02*
X10296372Y-13527984D01*
X10448753Y-13708936D02*
X10458277Y-13718460D01*
X10458277Y-13718460D02*
X10448753Y-13727984D01*
X10448753Y-13727984D02*
X10439229Y-13718460D01*
X10439229Y-13718460D02*
X10448753Y-13708936D01*
X10448753Y-13708936D02*
X10448753Y-13727984D01*
X10629705Y-13527984D02*
X10591610Y-13527984D01*
X10591610Y-13527984D02*
X10572563Y-13537508D01*
X10572563Y-13537508D02*
X10563039Y-13547031D01*
X10563039Y-13547031D02*
X10543991Y-13575603D01*
X10543991Y-13575603D02*
X10534467Y-13613698D01*
X10534467Y-13613698D02*
X10534467Y-13689888D01*
X10534467Y-13689888D02*
X10543991Y-13708936D01*
X10543991Y-13708936D02*
X10553515Y-13718460D01*
X10553515Y-13718460D02*
X10572563Y-13727984D01*
X10572563Y-13727984D02*
X10610658Y-13727984D01*
X10610658Y-13727984D02*
X10629705Y-13718460D01*
X10629705Y-13718460D02*
X10639229Y-13708936D01*
X10639229Y-13708936D02*
X10648753Y-13689888D01*
X10648753Y-13689888D02*
X10648753Y-13642269D01*
X10648753Y-13642269D02*
X10639229Y-13623222D01*
X10639229Y-13623222D02*
X10629705Y-13613698D01*
X10629705Y-13613698D02*
X10610658Y-13604174D01*
X10610658Y-13604174D02*
X10572563Y-13604174D01*
X10572563Y-13604174D02*
X10553515Y-13613698D01*
X10553515Y-13613698D02*
X10543991Y-13623222D01*
X10543991Y-13623222D02*
X10534467Y-13642269D01*
X10715420Y-13527984D02*
X10839229Y-13527984D01*
X10839229Y-13527984D02*
X10772563Y-13604174D01*
X10772563Y-13604174D02*
X10801134Y-13604174D01*
X10801134Y-13604174D02*
X10820182Y-13613698D01*
X10820182Y-13613698D02*
X10829705Y-13623222D01*
X10829705Y-13623222D02*
X10839229Y-13642269D01*
X10839229Y-13642269D02*
X10839229Y-13689888D01*
X10839229Y-13689888D02*
X10829705Y-13708936D01*
X10829705Y-13708936D02*
X10820182Y-13718460D01*
X10820182Y-13718460D02*
X10801134Y-13727984D01*
X10801134Y-13727984D02*
X10743991Y-13727984D01*
X10743991Y-13727984D02*
X10724944Y-13718460D01*
X10724944Y-13718460D02*
X10715420Y-13708936D01*
X10963039Y-13527984D02*
X10982086Y-13527984D01*
X10982086Y-13527984D02*
X11001134Y-13537508D01*
X11001134Y-13537508D02*
X11010658Y-13547031D01*
X11010658Y-13547031D02*
X11020182Y-13566079D01*
X11020182Y-13566079D02*
X11029705Y-13604174D01*
X11029705Y-13604174D02*
X11029705Y-13651793D01*
X11029705Y-13651793D02*
X11020182Y-13689888D01*
X11020182Y-13689888D02*
X11010658Y-13708936D01*
X11010658Y-13708936D02*
X11001134Y-13718460D01*
X11001134Y-13718460D02*
X10982086Y-13727984D01*
X10982086Y-13727984D02*
X10963039Y-13727984D01*
X10963039Y-13727984D02*
X10943991Y-13718460D01*
X10943991Y-13718460D02*
X10934467Y-13708936D01*
X10934467Y-13708936D02*
X10924944Y-13689888D01*
X10924944Y-13689888D02*
X10915420Y-13651793D01*
X10915420Y-13651793D02*
X10915420Y-13604174D01*
X10915420Y-13604174D02*
X10924944Y-13566079D01*
X10924944Y-13566079D02*
X10934467Y-13547031D01*
X10934467Y-13547031D02*
X10943991Y-13537508D01*
X10943991Y-13537508D02*
X10963039Y-13527984D01*
X11115420Y-13727984D02*
X11115420Y-13594650D01*
X11115420Y-13613698D02*
X11124944Y-13604174D01*
X11124944Y-13604174D02*
X11143991Y-13594650D01*
X11143991Y-13594650D02*
X11172563Y-13594650D01*
X11172563Y-13594650D02*
X11191610Y-13604174D01*
X11191610Y-13604174D02*
X11201134Y-13623222D01*
X11201134Y-13623222D02*
X11201134Y-13727984D01*
X11201134Y-13623222D02*
X11210658Y-13604174D01*
X11210658Y-13604174D02*
X11229705Y-13594650D01*
X11229705Y-13594650D02*
X11258277Y-13594650D01*
X11258277Y-13594650D02*
X11277324Y-13604174D01*
X11277324Y-13604174D02*
X11286848Y-13623222D01*
X11286848Y-13623222D02*
X11286848Y-13727984D01*
X11382086Y-13727984D02*
X11382086Y-13594650D01*
X11382086Y-13613698D02*
X11391610Y-13604174D01*
X11391610Y-13604174D02*
X11410658Y-13594650D01*
X11410658Y-13594650D02*
X11439229Y-13594650D01*
X11439229Y-13594650D02*
X11458277Y-13604174D01*
X11458277Y-13604174D02*
X11467801Y-13623222D01*
X11467801Y-13623222D02*
X11467801Y-13727984D01*
X11467801Y-13623222D02*
X11477324Y-13604174D01*
X11477324Y-13604174D02*
X11496372Y-13594650D01*
X11496372Y-13594650D02*
X11524943Y-13594650D01*
X11524943Y-13594650D02*
X11543991Y-13604174D01*
X11543991Y-13604174D02*
X11553515Y-13623222D01*
X11553515Y-13623222D02*
X11553515Y-13727984D01*
X11943991Y-13518460D02*
X11772563Y-13775603D01*
X12201134Y-13527984D02*
X12220182Y-13527984D01*
X12220182Y-13527984D02*
X12239229Y-13537508D01*
X12239229Y-13537508D02*
X12248753Y-13547031D01*
X12248753Y-13547031D02*
X12258277Y-13566079D01*
X12258277Y-13566079D02*
X12267801Y-13604174D01*
X12267801Y-13604174D02*
X12267801Y-13651793D01*
X12267801Y-13651793D02*
X12258277Y-13689888D01*
X12258277Y-13689888D02*
X12248753Y-13708936D01*
X12248753Y-13708936D02*
X12239229Y-13718460D01*
X12239229Y-13718460D02*
X12220182Y-13727984D01*
X12220182Y-13727984D02*
X12201134Y-13727984D01*
X12201134Y-13727984D02*
X12182086Y-13718460D01*
X12182086Y-13718460D02*
X12172563Y-13708936D01*
X12172563Y-13708936D02*
X12163039Y-13689888D01*
X12163039Y-13689888D02*
X12153515Y-13651793D01*
X12153515Y-13651793D02*
X12153515Y-13604174D01*
X12153515Y-13604174D02*
X12163039Y-13566079D01*
X12163039Y-13566079D02*
X12172563Y-13547031D01*
X12172563Y-13547031D02*
X12182086Y-13537508D01*
X12182086Y-13537508D02*
X12201134Y-13527984D01*
X12353515Y-13708936D02*
X12363039Y-13718460D01*
X12363039Y-13718460D02*
X12353515Y-13727984D01*
X12353515Y-13727984D02*
X12343991Y-13718460D01*
X12343991Y-13718460D02*
X12353515Y-13708936D01*
X12353515Y-13708936D02*
X12353515Y-13727984D01*
X12486848Y-13527984D02*
X12505896Y-13527984D01*
X12505896Y-13527984D02*
X12524944Y-13537508D01*
X12524944Y-13537508D02*
X12534467Y-13547031D01*
X12534467Y-13547031D02*
X12543991Y-13566079D01*
X12543991Y-13566079D02*
X12553515Y-13604174D01*
X12553515Y-13604174D02*
X12553515Y-13651793D01*
X12553515Y-13651793D02*
X12543991Y-13689888D01*
X12543991Y-13689888D02*
X12534467Y-13708936D01*
X12534467Y-13708936D02*
X12524944Y-13718460D01*
X12524944Y-13718460D02*
X12505896Y-13727984D01*
X12505896Y-13727984D02*
X12486848Y-13727984D01*
X12486848Y-13727984D02*
X12467801Y-13718460D01*
X12467801Y-13718460D02*
X12458277Y-13708936D01*
X12458277Y-13708936D02*
X12448753Y-13689888D01*
X12448753Y-13689888D02*
X12439229Y-13651793D01*
X12439229Y-13651793D02*
X12439229Y-13604174D01*
X12439229Y-13604174D02*
X12448753Y-13566079D01*
X12448753Y-13566079D02*
X12458277Y-13547031D01*
X12458277Y-13547031D02*
X12467801Y-13537508D01*
X12467801Y-13537508D02*
X12486848Y-13527984D01*
X12629706Y-13547031D02*
X12639229Y-13537508D01*
X12639229Y-13537508D02*
X12658277Y-13527984D01*
X12658277Y-13527984D02*
X12705896Y-13527984D01*
X12705896Y-13527984D02*
X12724944Y-13537508D01*
X12724944Y-13537508D02*
X12734467Y-13547031D01*
X12734467Y-13547031D02*
X12743991Y-13566079D01*
X12743991Y-13566079D02*
X12743991Y-13585127D01*
X12743991Y-13585127D02*
X12734467Y-13613698D01*
X12734467Y-13613698D02*
X12620182Y-13727984D01*
X12620182Y-13727984D02*
X12743991Y-13727984D01*
X12915420Y-13594650D02*
X12915420Y-13727984D01*
X12867801Y-13518460D02*
X12820182Y-13661317D01*
X12820182Y-13661317D02*
X12943991Y-13661317D01*
X13048753Y-13613698D02*
X13029706Y-13604174D01*
X13029706Y-13604174D02*
X13020182Y-13594650D01*
X13020182Y-13594650D02*
X13010658Y-13575603D01*
X13010658Y-13575603D02*
X13010658Y-13566079D01*
X13010658Y-13566079D02*
X13020182Y-13547031D01*
X13020182Y-13547031D02*
X13029706Y-13537508D01*
X13029706Y-13537508D02*
X13048753Y-13527984D01*
X13048753Y-13527984D02*
X13086848Y-13527984D01*
X13086848Y-13527984D02*
X13105896Y-13537508D01*
X13105896Y-13537508D02*
X13115420Y-13547031D01*
X13115420Y-13547031D02*
X13124944Y-13566079D01*
X13124944Y-13566079D02*
X13124944Y-13575603D01*
X13124944Y-13575603D02*
X13115420Y-13594650D01*
X13115420Y-13594650D02*
X13105896Y-13604174D01*
X13105896Y-13604174D02*
X13086848Y-13613698D01*
X13086848Y-13613698D02*
X13048753Y-13613698D01*
X13048753Y-13613698D02*
X13029706Y-13623222D01*
X13029706Y-13623222D02*
X13020182Y-13632746D01*
X13020182Y-13632746D02*
X13010658Y-13651793D01*
X13010658Y-13651793D02*
X13010658Y-13689888D01*
X13010658Y-13689888D02*
X13020182Y-13708936D01*
X13020182Y-13708936D02*
X13029706Y-13718460D01*
X13029706Y-13718460D02*
X13048753Y-13727984D01*
X13048753Y-13727984D02*
X13086848Y-13727984D01*
X13086848Y-13727984D02*
X13105896Y-13718460D01*
X13105896Y-13718460D02*
X13115420Y-13708936D01*
X13115420Y-13708936D02*
X13124944Y-13689888D01*
X13124944Y-13689888D02*
X13124944Y-13651793D01*
X13124944Y-13651793D02*
X13115420Y-13632746D01*
X13115420Y-13632746D02*
X13105896Y-13623222D01*
X13105896Y-13623222D02*
X13086848Y-13613698D01*
X13201134Y-13527984D02*
X13201134Y-13566079D01*
X13277325Y-13527984D02*
X13277325Y-13566079D01*
X13572563Y-13804174D02*
X13563039Y-13794650D01*
X13563039Y-13794650D02*
X13543991Y-13766079D01*
X13543991Y-13766079D02*
X13534468Y-13747031D01*
X13534468Y-13747031D02*
X13524944Y-13718460D01*
X13524944Y-13718460D02*
X13515420Y-13670841D01*
X13515420Y-13670841D02*
X13515420Y-13632746D01*
X13515420Y-13632746D02*
X13524944Y-13585127D01*
X13524944Y-13585127D02*
X13534468Y-13556555D01*
X13534468Y-13556555D02*
X13543991Y-13537508D01*
X13543991Y-13537508D02*
X13563039Y-13508936D01*
X13563039Y-13508936D02*
X13572563Y-13499412D01*
X13753515Y-13727984D02*
X13639229Y-13727984D01*
X13696372Y-13727984D02*
X13696372Y-13527984D01*
X13696372Y-13527984D02*
X13677325Y-13556555D01*
X13677325Y-13556555D02*
X13658277Y-13575603D01*
X13658277Y-13575603D02*
X13639229Y-13585127D01*
X13991610Y-13727984D02*
X13991610Y-13527984D01*
X14077325Y-13727984D02*
X14077325Y-13623222D01*
X14077325Y-13623222D02*
X14067801Y-13604174D01*
X14067801Y-13604174D02*
X14048753Y-13594650D01*
X14048753Y-13594650D02*
X14020182Y-13594650D01*
X14020182Y-13594650D02*
X14001134Y-13604174D01*
X14001134Y-13604174D02*
X13991610Y-13613698D01*
X14201134Y-13727984D02*
X14182087Y-13718460D01*
X14182087Y-13718460D02*
X14172563Y-13708936D01*
X14172563Y-13708936D02*
X14163039Y-13689888D01*
X14163039Y-13689888D02*
X14163039Y-13632746D01*
X14163039Y-13632746D02*
X14172563Y-13613698D01*
X14172563Y-13613698D02*
X14182087Y-13604174D01*
X14182087Y-13604174D02*
X14201134Y-13594650D01*
X14201134Y-13594650D02*
X14229706Y-13594650D01*
X14229706Y-13594650D02*
X14248753Y-13604174D01*
X14248753Y-13604174D02*
X14258277Y-13613698D01*
X14258277Y-13613698D02*
X14267801Y-13632746D01*
X14267801Y-13632746D02*
X14267801Y-13689888D01*
X14267801Y-13689888D02*
X14258277Y-13708936D01*
X14258277Y-13708936D02*
X14248753Y-13718460D01*
X14248753Y-13718460D02*
X14229706Y-13727984D01*
X14229706Y-13727984D02*
X14201134Y-13727984D01*
X14382087Y-13727984D02*
X14363039Y-13718460D01*
X14363039Y-13718460D02*
X14353515Y-13699412D01*
X14353515Y-13699412D02*
X14353515Y-13527984D01*
X14534468Y-13718460D02*
X14515420Y-13727984D01*
X14515420Y-13727984D02*
X14477325Y-13727984D01*
X14477325Y-13727984D02*
X14458277Y-13718460D01*
X14458277Y-13718460D02*
X14448753Y-13699412D01*
X14448753Y-13699412D02*
X14448753Y-13623222D01*
X14448753Y-13623222D02*
X14458277Y-13604174D01*
X14458277Y-13604174D02*
X14477325Y-13594650D01*
X14477325Y-13594650D02*
X14515420Y-13594650D01*
X14515420Y-13594650D02*
X14534468Y-13604174D01*
X14534468Y-13604174D02*
X14543991Y-13623222D01*
X14543991Y-13623222D02*
X14543991Y-13642269D01*
X14543991Y-13642269D02*
X14448753Y-13661317D01*
X14610658Y-13804174D02*
X14620182Y-13794650D01*
X14620182Y-13794650D02*
X14639230Y-13766079D01*
X14639230Y-13766079D02*
X14648753Y-13747031D01*
X14648753Y-13747031D02*
X14658277Y-13718460D01*
X14658277Y-13718460D02*
X14667801Y-13670841D01*
X14667801Y-13670841D02*
X14667801Y-13632746D01*
X14667801Y-13632746D02*
X14658277Y-13585127D01*
X14658277Y-13585127D02*
X14648753Y-13556555D01*
X14648753Y-13556555D02*
X14639230Y-13537508D01*
X14639230Y-13537508D02*
X14620182Y-13508936D01*
X14620182Y-13508936D02*
X14610658Y-13499412D01*
X14972563Y-13804174D02*
X14963039Y-13794650D01*
X14963039Y-13794650D02*
X14943991Y-13766079D01*
X14943991Y-13766079D02*
X14934468Y-13747031D01*
X14934468Y-13747031D02*
X14924944Y-13718460D01*
X14924944Y-13718460D02*
X14915420Y-13670841D01*
X14915420Y-13670841D02*
X14915420Y-13632746D01*
X14915420Y-13632746D02*
X14924944Y-13585127D01*
X14924944Y-13585127D02*
X14934468Y-13556555D01*
X14934468Y-13556555D02*
X14943991Y-13537508D01*
X14943991Y-13537508D02*
X14963039Y-13508936D01*
X14963039Y-13508936D02*
X14972563Y-13499412D01*
X15048753Y-13594650D02*
X15048753Y-13727984D01*
X15048753Y-13613698D02*
X15058277Y-13604174D01*
X15058277Y-13604174D02*
X15077325Y-13594650D01*
X15077325Y-13594650D02*
X15105896Y-13594650D01*
X15105896Y-13594650D02*
X15124944Y-13604174D01*
X15124944Y-13604174D02*
X15134468Y-13623222D01*
X15134468Y-13623222D02*
X15134468Y-13727984D01*
X15258277Y-13727984D02*
X15239230Y-13718460D01*
X15239230Y-13718460D02*
X15229706Y-13708936D01*
X15229706Y-13708936D02*
X15220182Y-13689888D01*
X15220182Y-13689888D02*
X15220182Y-13632746D01*
X15220182Y-13632746D02*
X15229706Y-13613698D01*
X15229706Y-13613698D02*
X15239230Y-13604174D01*
X15239230Y-13604174D02*
X15258277Y-13594650D01*
X15258277Y-13594650D02*
X15286849Y-13594650D01*
X15286849Y-13594650D02*
X15305896Y-13604174D01*
X15305896Y-13604174D02*
X15315420Y-13613698D01*
X15315420Y-13613698D02*
X15324944Y-13632746D01*
X15324944Y-13632746D02*
X15324944Y-13689888D01*
X15324944Y-13689888D02*
X15315420Y-13708936D01*
X15315420Y-13708936D02*
X15305896Y-13718460D01*
X15305896Y-13718460D02*
X15286849Y-13727984D01*
X15286849Y-13727984D02*
X15258277Y-13727984D01*
X15382087Y-13594650D02*
X15458277Y-13594650D01*
X15410658Y-13527984D02*
X15410658Y-13699412D01*
X15410658Y-13699412D02*
X15420182Y-13718460D01*
X15420182Y-13718460D02*
X15439230Y-13727984D01*
X15439230Y-13727984D02*
X15458277Y-13727984D01*
X15677325Y-13594650D02*
X15677325Y-13794650D01*
X15677325Y-13604174D02*
X15696372Y-13594650D01*
X15696372Y-13594650D02*
X15734468Y-13594650D01*
X15734468Y-13594650D02*
X15753515Y-13604174D01*
X15753515Y-13604174D02*
X15763039Y-13613698D01*
X15763039Y-13613698D02*
X15772563Y-13632746D01*
X15772563Y-13632746D02*
X15772563Y-13689888D01*
X15772563Y-13689888D02*
X15763039Y-13708936D01*
X15763039Y-13708936D02*
X15753515Y-13718460D01*
X15753515Y-13718460D02*
X15734468Y-13727984D01*
X15734468Y-13727984D02*
X15696372Y-13727984D01*
X15696372Y-13727984D02*
X15677325Y-13718460D01*
X15886849Y-13727984D02*
X15867801Y-13718460D01*
X15867801Y-13718460D02*
X15858277Y-13699412D01*
X15858277Y-13699412D02*
X15858277Y-13527984D01*
X16048753Y-13727984D02*
X16048753Y-13623222D01*
X16048753Y-13623222D02*
X16039230Y-13604174D01*
X16039230Y-13604174D02*
X16020182Y-13594650D01*
X16020182Y-13594650D02*
X15982087Y-13594650D01*
X15982087Y-13594650D02*
X15963039Y-13604174D01*
X16048753Y-13718460D02*
X16029706Y-13727984D01*
X16029706Y-13727984D02*
X15982087Y-13727984D01*
X15982087Y-13727984D02*
X15963039Y-13718460D01*
X15963039Y-13718460D02*
X15953515Y-13699412D01*
X15953515Y-13699412D02*
X15953515Y-13680365D01*
X15953515Y-13680365D02*
X15963039Y-13661317D01*
X15963039Y-13661317D02*
X15982087Y-13651793D01*
X15982087Y-13651793D02*
X16029706Y-13651793D01*
X16029706Y-13651793D02*
X16048753Y-13642269D01*
X16115420Y-13594650D02*
X16191611Y-13594650D01*
X16143992Y-13527984D02*
X16143992Y-13699412D01*
X16143992Y-13699412D02*
X16153515Y-13718460D01*
X16153515Y-13718460D02*
X16172563Y-13727984D01*
X16172563Y-13727984D02*
X16191611Y-13727984D01*
X16334468Y-13718460D02*
X16315420Y-13727984D01*
X16315420Y-13727984D02*
X16277325Y-13727984D01*
X16277325Y-13727984D02*
X16258277Y-13718460D01*
X16258277Y-13718460D02*
X16248753Y-13699412D01*
X16248753Y-13699412D02*
X16248753Y-13623222D01*
X16248753Y-13623222D02*
X16258277Y-13604174D01*
X16258277Y-13604174D02*
X16277325Y-13594650D01*
X16277325Y-13594650D02*
X16315420Y-13594650D01*
X16315420Y-13594650D02*
X16334468Y-13604174D01*
X16334468Y-13604174D02*
X16343992Y-13623222D01*
X16343992Y-13623222D02*
X16343992Y-13642269D01*
X16343992Y-13642269D02*
X16248753Y-13661317D01*
X16515420Y-13727984D02*
X16515420Y-13527984D01*
X16515420Y-13718460D02*
X16496373Y-13727984D01*
X16496373Y-13727984D02*
X16458277Y-13727984D01*
X16458277Y-13727984D02*
X16439230Y-13718460D01*
X16439230Y-13718460D02*
X16429706Y-13708936D01*
X16429706Y-13708936D02*
X16420182Y-13689888D01*
X16420182Y-13689888D02*
X16420182Y-13632746D01*
X16420182Y-13632746D02*
X16429706Y-13613698D01*
X16429706Y-13613698D02*
X16439230Y-13604174D01*
X16439230Y-13604174D02*
X16458277Y-13594650D01*
X16458277Y-13594650D02*
X16496373Y-13594650D01*
X16496373Y-13594650D02*
X16515420Y-13604174D01*
X16591611Y-13804174D02*
X16601134Y-13794650D01*
X16601134Y-13794650D02*
X16620182Y-13766079D01*
X16620182Y-13766079D02*
X16629706Y-13747031D01*
X16629706Y-13747031D02*
X16639230Y-13718460D01*
X16639230Y-13718460D02*
X16648753Y-13670841D01*
X16648753Y-13670841D02*
X16648753Y-13632746D01*
X16648753Y-13632746D02*
X16639230Y-13585127D01*
X16639230Y-13585127D02*
X16629706Y-13556555D01*
X16629706Y-13556555D02*
X16620182Y-13537508D01*
X16620182Y-13537508D02*
X16601134Y-13508936D01*
X16601134Y-13508936D02*
X16591611Y-13499412D01*
X9897500Y-13800500D02*
X9897500Y-14000500D01*
X9797500Y-13900500D02*
X9997500Y-13900500D01*
X10239229Y-13791984D02*
X10363039Y-13791984D01*
X10363039Y-13791984D02*
X10296372Y-13868174D01*
X10296372Y-13868174D02*
X10324944Y-13868174D01*
X10324944Y-13868174D02*
X10343991Y-13877698D01*
X10343991Y-13877698D02*
X10353515Y-13887222D01*
X10353515Y-13887222D02*
X10363039Y-13906269D01*
X10363039Y-13906269D02*
X10363039Y-13953888D01*
X10363039Y-13953888D02*
X10353515Y-13972936D01*
X10353515Y-13972936D02*
X10343991Y-13982460D01*
X10343991Y-13982460D02*
X10324944Y-13991984D01*
X10324944Y-13991984D02*
X10267801Y-13991984D01*
X10267801Y-13991984D02*
X10248753Y-13982460D01*
X10248753Y-13982460D02*
X10239229Y-13972936D01*
X10448753Y-13972936D02*
X10458277Y-13982460D01*
X10458277Y-13982460D02*
X10448753Y-13991984D01*
X10448753Y-13991984D02*
X10439229Y-13982460D01*
X10439229Y-13982460D02*
X10448753Y-13972936D01*
X10448753Y-13972936D02*
X10448753Y-13991984D01*
X10534467Y-13811031D02*
X10543991Y-13801508D01*
X10543991Y-13801508D02*
X10563039Y-13791984D01*
X10563039Y-13791984D02*
X10610658Y-13791984D01*
X10610658Y-13791984D02*
X10629705Y-13801508D01*
X10629705Y-13801508D02*
X10639229Y-13811031D01*
X10639229Y-13811031D02*
X10648753Y-13830079D01*
X10648753Y-13830079D02*
X10648753Y-13849127D01*
X10648753Y-13849127D02*
X10639229Y-13877698D01*
X10639229Y-13877698D02*
X10524944Y-13991984D01*
X10524944Y-13991984D02*
X10648753Y-13991984D01*
X10772563Y-13791984D02*
X10791610Y-13791984D01*
X10791610Y-13791984D02*
X10810658Y-13801508D01*
X10810658Y-13801508D02*
X10820182Y-13811031D01*
X10820182Y-13811031D02*
X10829705Y-13830079D01*
X10829705Y-13830079D02*
X10839229Y-13868174D01*
X10839229Y-13868174D02*
X10839229Y-13915793D01*
X10839229Y-13915793D02*
X10829705Y-13953888D01*
X10829705Y-13953888D02*
X10820182Y-13972936D01*
X10820182Y-13972936D02*
X10810658Y-13982460D01*
X10810658Y-13982460D02*
X10791610Y-13991984D01*
X10791610Y-13991984D02*
X10772563Y-13991984D01*
X10772563Y-13991984D02*
X10753515Y-13982460D01*
X10753515Y-13982460D02*
X10743991Y-13972936D01*
X10743991Y-13972936D02*
X10734467Y-13953888D01*
X10734467Y-13953888D02*
X10724944Y-13915793D01*
X10724944Y-13915793D02*
X10724944Y-13868174D01*
X10724944Y-13868174D02*
X10734467Y-13830079D01*
X10734467Y-13830079D02*
X10743991Y-13811031D01*
X10743991Y-13811031D02*
X10753515Y-13801508D01*
X10753515Y-13801508D02*
X10772563Y-13791984D01*
X10963039Y-13791984D02*
X10982086Y-13791984D01*
X10982086Y-13791984D02*
X11001134Y-13801508D01*
X11001134Y-13801508D02*
X11010658Y-13811031D01*
X11010658Y-13811031D02*
X11020182Y-13830079D01*
X11020182Y-13830079D02*
X11029705Y-13868174D01*
X11029705Y-13868174D02*
X11029705Y-13915793D01*
X11029705Y-13915793D02*
X11020182Y-13953888D01*
X11020182Y-13953888D02*
X11010658Y-13972936D01*
X11010658Y-13972936D02*
X11001134Y-13982460D01*
X11001134Y-13982460D02*
X10982086Y-13991984D01*
X10982086Y-13991984D02*
X10963039Y-13991984D01*
X10963039Y-13991984D02*
X10943991Y-13982460D01*
X10943991Y-13982460D02*
X10934467Y-13972936D01*
X10934467Y-13972936D02*
X10924944Y-13953888D01*
X10924944Y-13953888D02*
X10915420Y-13915793D01*
X10915420Y-13915793D02*
X10915420Y-13868174D01*
X10915420Y-13868174D02*
X10924944Y-13830079D01*
X10924944Y-13830079D02*
X10934467Y-13811031D01*
X10934467Y-13811031D02*
X10943991Y-13801508D01*
X10943991Y-13801508D02*
X10963039Y-13791984D01*
X11115420Y-13991984D02*
X11115420Y-13858650D01*
X11115420Y-13877698D02*
X11124944Y-13868174D01*
X11124944Y-13868174D02*
X11143991Y-13858650D01*
X11143991Y-13858650D02*
X11172563Y-13858650D01*
X11172563Y-13858650D02*
X11191610Y-13868174D01*
X11191610Y-13868174D02*
X11201134Y-13887222D01*
X11201134Y-13887222D02*
X11201134Y-13991984D01*
X11201134Y-13887222D02*
X11210658Y-13868174D01*
X11210658Y-13868174D02*
X11229705Y-13858650D01*
X11229705Y-13858650D02*
X11258277Y-13858650D01*
X11258277Y-13858650D02*
X11277324Y-13868174D01*
X11277324Y-13868174D02*
X11286848Y-13887222D01*
X11286848Y-13887222D02*
X11286848Y-13991984D01*
X11382086Y-13991984D02*
X11382086Y-13858650D01*
X11382086Y-13877698D02*
X11391610Y-13868174D01*
X11391610Y-13868174D02*
X11410658Y-13858650D01*
X11410658Y-13858650D02*
X11439229Y-13858650D01*
X11439229Y-13858650D02*
X11458277Y-13868174D01*
X11458277Y-13868174D02*
X11467801Y-13887222D01*
X11467801Y-13887222D02*
X11467801Y-13991984D01*
X11467801Y-13887222D02*
X11477324Y-13868174D01*
X11477324Y-13868174D02*
X11496372Y-13858650D01*
X11496372Y-13858650D02*
X11524943Y-13858650D01*
X11524943Y-13858650D02*
X11543991Y-13868174D01*
X11543991Y-13868174D02*
X11553515Y-13887222D01*
X11553515Y-13887222D02*
X11553515Y-13991984D01*
X11943991Y-13782460D02*
X11772563Y-14039603D01*
X12201134Y-13791984D02*
X12220182Y-13791984D01*
X12220182Y-13791984D02*
X12239229Y-13801508D01*
X12239229Y-13801508D02*
X12248753Y-13811031D01*
X12248753Y-13811031D02*
X12258277Y-13830079D01*
X12258277Y-13830079D02*
X12267801Y-13868174D01*
X12267801Y-13868174D02*
X12267801Y-13915793D01*
X12267801Y-13915793D02*
X12258277Y-13953888D01*
X12258277Y-13953888D02*
X12248753Y-13972936D01*
X12248753Y-13972936D02*
X12239229Y-13982460D01*
X12239229Y-13982460D02*
X12220182Y-13991984D01*
X12220182Y-13991984D02*
X12201134Y-13991984D01*
X12201134Y-13991984D02*
X12182086Y-13982460D01*
X12182086Y-13982460D02*
X12172563Y-13972936D01*
X12172563Y-13972936D02*
X12163039Y-13953888D01*
X12163039Y-13953888D02*
X12153515Y-13915793D01*
X12153515Y-13915793D02*
X12153515Y-13868174D01*
X12153515Y-13868174D02*
X12163039Y-13830079D01*
X12163039Y-13830079D02*
X12172563Y-13811031D01*
X12172563Y-13811031D02*
X12182086Y-13801508D01*
X12182086Y-13801508D02*
X12201134Y-13791984D01*
X12353515Y-13972936D02*
X12363039Y-13982460D01*
X12363039Y-13982460D02*
X12353515Y-13991984D01*
X12353515Y-13991984D02*
X12343991Y-13982460D01*
X12343991Y-13982460D02*
X12353515Y-13972936D01*
X12353515Y-13972936D02*
X12353515Y-13991984D01*
X12553515Y-13991984D02*
X12439229Y-13991984D01*
X12496372Y-13991984D02*
X12496372Y-13791984D01*
X12496372Y-13791984D02*
X12477325Y-13820555D01*
X12477325Y-13820555D02*
X12458277Y-13839603D01*
X12458277Y-13839603D02*
X12439229Y-13849127D01*
X12629706Y-13811031D02*
X12639229Y-13801508D01*
X12639229Y-13801508D02*
X12658277Y-13791984D01*
X12658277Y-13791984D02*
X12705896Y-13791984D01*
X12705896Y-13791984D02*
X12724944Y-13801508D01*
X12724944Y-13801508D02*
X12734467Y-13811031D01*
X12734467Y-13811031D02*
X12743991Y-13830079D01*
X12743991Y-13830079D02*
X12743991Y-13849127D01*
X12743991Y-13849127D02*
X12734467Y-13877698D01*
X12734467Y-13877698D02*
X12620182Y-13991984D01*
X12620182Y-13991984D02*
X12743991Y-13991984D01*
X12915420Y-13791984D02*
X12877325Y-13791984D01*
X12877325Y-13791984D02*
X12858277Y-13801508D01*
X12858277Y-13801508D02*
X12848753Y-13811031D01*
X12848753Y-13811031D02*
X12829706Y-13839603D01*
X12829706Y-13839603D02*
X12820182Y-13877698D01*
X12820182Y-13877698D02*
X12820182Y-13953888D01*
X12820182Y-13953888D02*
X12829706Y-13972936D01*
X12829706Y-13972936D02*
X12839229Y-13982460D01*
X12839229Y-13982460D02*
X12858277Y-13991984D01*
X12858277Y-13991984D02*
X12896372Y-13991984D01*
X12896372Y-13991984D02*
X12915420Y-13982460D01*
X12915420Y-13982460D02*
X12924944Y-13972936D01*
X12924944Y-13972936D02*
X12934467Y-13953888D01*
X12934467Y-13953888D02*
X12934467Y-13906269D01*
X12934467Y-13906269D02*
X12924944Y-13887222D01*
X12924944Y-13887222D02*
X12915420Y-13877698D01*
X12915420Y-13877698D02*
X12896372Y-13868174D01*
X12896372Y-13868174D02*
X12858277Y-13868174D01*
X12858277Y-13868174D02*
X12839229Y-13877698D01*
X12839229Y-13877698D02*
X12829706Y-13887222D01*
X12829706Y-13887222D02*
X12820182Y-13906269D01*
X13058277Y-13791984D02*
X13077325Y-13791984D01*
X13077325Y-13791984D02*
X13096372Y-13801508D01*
X13096372Y-13801508D02*
X13105896Y-13811031D01*
X13105896Y-13811031D02*
X13115420Y-13830079D01*
X13115420Y-13830079D02*
X13124944Y-13868174D01*
X13124944Y-13868174D02*
X13124944Y-13915793D01*
X13124944Y-13915793D02*
X13115420Y-13953888D01*
X13115420Y-13953888D02*
X13105896Y-13972936D01*
X13105896Y-13972936D02*
X13096372Y-13982460D01*
X13096372Y-13982460D02*
X13077325Y-13991984D01*
X13077325Y-13991984D02*
X13058277Y-13991984D01*
X13058277Y-13991984D02*
X13039229Y-13982460D01*
X13039229Y-13982460D02*
X13029706Y-13972936D01*
X13029706Y-13972936D02*
X13020182Y-13953888D01*
X13020182Y-13953888D02*
X13010658Y-13915793D01*
X13010658Y-13915793D02*
X13010658Y-13868174D01*
X13010658Y-13868174D02*
X13020182Y-13830079D01*
X13020182Y-13830079D02*
X13029706Y-13811031D01*
X13029706Y-13811031D02*
X13039229Y-13801508D01*
X13039229Y-13801508D02*
X13058277Y-13791984D01*
X13201134Y-13791984D02*
X13201134Y-13830079D01*
X13277325Y-13791984D02*
X13277325Y-13830079D01*
X13572563Y-14068174D02*
X13563039Y-14058650D01*
X13563039Y-14058650D02*
X13543991Y-14030079D01*
X13543991Y-14030079D02*
X13534468Y-14011031D01*
X13534468Y-14011031D02*
X13524944Y-13982460D01*
X13524944Y-13982460D02*
X13515420Y-13934841D01*
X13515420Y-13934841D02*
X13515420Y-13896746D01*
X13515420Y-13896746D02*
X13524944Y-13849127D01*
X13524944Y-13849127D02*
X13534468Y-13820555D01*
X13534468Y-13820555D02*
X13543991Y-13801508D01*
X13543991Y-13801508D02*
X13563039Y-13772936D01*
X13563039Y-13772936D02*
X13572563Y-13763412D01*
X13753515Y-13991984D02*
X13639229Y-13991984D01*
X13696372Y-13991984D02*
X13696372Y-13791984D01*
X13696372Y-13791984D02*
X13677325Y-13820555D01*
X13677325Y-13820555D02*
X13658277Y-13839603D01*
X13658277Y-13839603D02*
X13639229Y-13849127D01*
X13991610Y-13991984D02*
X13991610Y-13791984D01*
X14077325Y-13991984D02*
X14077325Y-13887222D01*
X14077325Y-13887222D02*
X14067801Y-13868174D01*
X14067801Y-13868174D02*
X14048753Y-13858650D01*
X14048753Y-13858650D02*
X14020182Y-13858650D01*
X14020182Y-13858650D02*
X14001134Y-13868174D01*
X14001134Y-13868174D02*
X13991610Y-13877698D01*
X14201134Y-13991984D02*
X14182087Y-13982460D01*
X14182087Y-13982460D02*
X14172563Y-13972936D01*
X14172563Y-13972936D02*
X14163039Y-13953888D01*
X14163039Y-13953888D02*
X14163039Y-13896746D01*
X14163039Y-13896746D02*
X14172563Y-13877698D01*
X14172563Y-13877698D02*
X14182087Y-13868174D01*
X14182087Y-13868174D02*
X14201134Y-13858650D01*
X14201134Y-13858650D02*
X14229706Y-13858650D01*
X14229706Y-13858650D02*
X14248753Y-13868174D01*
X14248753Y-13868174D02*
X14258277Y-13877698D01*
X14258277Y-13877698D02*
X14267801Y-13896746D01*
X14267801Y-13896746D02*
X14267801Y-13953888D01*
X14267801Y-13953888D02*
X14258277Y-13972936D01*
X14258277Y-13972936D02*
X14248753Y-13982460D01*
X14248753Y-13982460D02*
X14229706Y-13991984D01*
X14229706Y-13991984D02*
X14201134Y-13991984D01*
X14382087Y-13991984D02*
X14363039Y-13982460D01*
X14363039Y-13982460D02*
X14353515Y-13963412D01*
X14353515Y-13963412D02*
X14353515Y-13791984D01*
X14534468Y-13982460D02*
X14515420Y-13991984D01*
X14515420Y-13991984D02*
X14477325Y-13991984D01*
X14477325Y-13991984D02*
X14458277Y-13982460D01*
X14458277Y-13982460D02*
X14448753Y-13963412D01*
X14448753Y-13963412D02*
X14448753Y-13887222D01*
X14448753Y-13887222D02*
X14458277Y-13868174D01*
X14458277Y-13868174D02*
X14477325Y-13858650D01*
X14477325Y-13858650D02*
X14515420Y-13858650D01*
X14515420Y-13858650D02*
X14534468Y-13868174D01*
X14534468Y-13868174D02*
X14543991Y-13887222D01*
X14543991Y-13887222D02*
X14543991Y-13906269D01*
X14543991Y-13906269D02*
X14448753Y-13925317D01*
X14610658Y-14068174D02*
X14620182Y-14058650D01*
X14620182Y-14058650D02*
X14639230Y-14030079D01*
X14639230Y-14030079D02*
X14648753Y-14011031D01*
X14648753Y-14011031D02*
X14658277Y-13982460D01*
X14658277Y-13982460D02*
X14667801Y-13934841D01*
X14667801Y-13934841D02*
X14667801Y-13896746D01*
X14667801Y-13896746D02*
X14658277Y-13849127D01*
X14658277Y-13849127D02*
X14648753Y-13820555D01*
X14648753Y-13820555D02*
X14639230Y-13801508D01*
X14639230Y-13801508D02*
X14620182Y-13772936D01*
X14620182Y-13772936D02*
X14610658Y-13763412D01*
X14972563Y-14068174D02*
X14963039Y-14058650D01*
X14963039Y-14058650D02*
X14943991Y-14030079D01*
X14943991Y-14030079D02*
X14934468Y-14011031D01*
X14934468Y-14011031D02*
X14924944Y-13982460D01*
X14924944Y-13982460D02*
X14915420Y-13934841D01*
X14915420Y-13934841D02*
X14915420Y-13896746D01*
X14915420Y-13896746D02*
X14924944Y-13849127D01*
X14924944Y-13849127D02*
X14934468Y-13820555D01*
X14934468Y-13820555D02*
X14943991Y-13801508D01*
X14943991Y-13801508D02*
X14963039Y-13772936D01*
X14963039Y-13772936D02*
X14972563Y-13763412D01*
X15048753Y-13858650D02*
X15048753Y-13991984D01*
X15048753Y-13877698D02*
X15058277Y-13868174D01*
X15058277Y-13868174D02*
X15077325Y-13858650D01*
X15077325Y-13858650D02*
X15105896Y-13858650D01*
X15105896Y-13858650D02*
X15124944Y-13868174D01*
X15124944Y-13868174D02*
X15134468Y-13887222D01*
X15134468Y-13887222D02*
X15134468Y-13991984D01*
X15258277Y-13991984D02*
X15239230Y-13982460D01*
X15239230Y-13982460D02*
X15229706Y-13972936D01*
X15229706Y-13972936D02*
X15220182Y-13953888D01*
X15220182Y-13953888D02*
X15220182Y-13896746D01*
X15220182Y-13896746D02*
X15229706Y-13877698D01*
X15229706Y-13877698D02*
X15239230Y-13868174D01*
X15239230Y-13868174D02*
X15258277Y-13858650D01*
X15258277Y-13858650D02*
X15286849Y-13858650D01*
X15286849Y-13858650D02*
X15305896Y-13868174D01*
X15305896Y-13868174D02*
X15315420Y-13877698D01*
X15315420Y-13877698D02*
X15324944Y-13896746D01*
X15324944Y-13896746D02*
X15324944Y-13953888D01*
X15324944Y-13953888D02*
X15315420Y-13972936D01*
X15315420Y-13972936D02*
X15305896Y-13982460D01*
X15305896Y-13982460D02*
X15286849Y-13991984D01*
X15286849Y-13991984D02*
X15258277Y-13991984D01*
X15382087Y-13858650D02*
X15458277Y-13858650D01*
X15410658Y-13791984D02*
X15410658Y-13963412D01*
X15410658Y-13963412D02*
X15420182Y-13982460D01*
X15420182Y-13982460D02*
X15439230Y-13991984D01*
X15439230Y-13991984D02*
X15458277Y-13991984D01*
X15677325Y-13858650D02*
X15677325Y-14058650D01*
X15677325Y-13868174D02*
X15696372Y-13858650D01*
X15696372Y-13858650D02*
X15734468Y-13858650D01*
X15734468Y-13858650D02*
X15753515Y-13868174D01*
X15753515Y-13868174D02*
X15763039Y-13877698D01*
X15763039Y-13877698D02*
X15772563Y-13896746D01*
X15772563Y-13896746D02*
X15772563Y-13953888D01*
X15772563Y-13953888D02*
X15763039Y-13972936D01*
X15763039Y-13972936D02*
X15753515Y-13982460D01*
X15753515Y-13982460D02*
X15734468Y-13991984D01*
X15734468Y-13991984D02*
X15696372Y-13991984D01*
X15696372Y-13991984D02*
X15677325Y-13982460D01*
X15886849Y-13991984D02*
X15867801Y-13982460D01*
X15867801Y-13982460D02*
X15858277Y-13963412D01*
X15858277Y-13963412D02*
X15858277Y-13791984D01*
X16048753Y-13991984D02*
X16048753Y-13887222D01*
X16048753Y-13887222D02*
X16039230Y-13868174D01*
X16039230Y-13868174D02*
X16020182Y-13858650D01*
X16020182Y-13858650D02*
X15982087Y-13858650D01*
X15982087Y-13858650D02*
X15963039Y-13868174D01*
X16048753Y-13982460D02*
X16029706Y-13991984D01*
X16029706Y-13991984D02*
X15982087Y-13991984D01*
X15982087Y-13991984D02*
X15963039Y-13982460D01*
X15963039Y-13982460D02*
X15953515Y-13963412D01*
X15953515Y-13963412D02*
X15953515Y-13944365D01*
X15953515Y-13944365D02*
X15963039Y-13925317D01*
X15963039Y-13925317D02*
X15982087Y-13915793D01*
X15982087Y-13915793D02*
X16029706Y-13915793D01*
X16029706Y-13915793D02*
X16048753Y-13906269D01*
X16115420Y-13858650D02*
X16191611Y-13858650D01*
X16143992Y-13791984D02*
X16143992Y-13963412D01*
X16143992Y-13963412D02*
X16153515Y-13982460D01*
X16153515Y-13982460D02*
X16172563Y-13991984D01*
X16172563Y-13991984D02*
X16191611Y-13991984D01*
X16334468Y-13982460D02*
X16315420Y-13991984D01*
X16315420Y-13991984D02*
X16277325Y-13991984D01*
X16277325Y-13991984D02*
X16258277Y-13982460D01*
X16258277Y-13982460D02*
X16248753Y-13963412D01*
X16248753Y-13963412D02*
X16248753Y-13887222D01*
X16248753Y-13887222D02*
X16258277Y-13868174D01*
X16258277Y-13868174D02*
X16277325Y-13858650D01*
X16277325Y-13858650D02*
X16315420Y-13858650D01*
X16315420Y-13858650D02*
X16334468Y-13868174D01*
X16334468Y-13868174D02*
X16343992Y-13887222D01*
X16343992Y-13887222D02*
X16343992Y-13906269D01*
X16343992Y-13906269D02*
X16248753Y-13925317D01*
X16515420Y-13991984D02*
X16515420Y-13791984D01*
X16515420Y-13982460D02*
X16496373Y-13991984D01*
X16496373Y-13991984D02*
X16458277Y-13991984D01*
X16458277Y-13991984D02*
X16439230Y-13982460D01*
X16439230Y-13982460D02*
X16429706Y-13972936D01*
X16429706Y-13972936D02*
X16420182Y-13953888D01*
X16420182Y-13953888D02*
X16420182Y-13896746D01*
X16420182Y-13896746D02*
X16429706Y-13877698D01*
X16429706Y-13877698D02*
X16439230Y-13868174D01*
X16439230Y-13868174D02*
X16458277Y-13858650D01*
X16458277Y-13858650D02*
X16496373Y-13858650D01*
X16496373Y-13858650D02*
X16515420Y-13868174D01*
X16591611Y-14068174D02*
X16601134Y-14058650D01*
X16601134Y-14058650D02*
X16620182Y-14030079D01*
X16620182Y-14030079D02*
X16629706Y-14011031D01*
X16629706Y-14011031D02*
X16639230Y-13982460D01*
X16639230Y-13982460D02*
X16648753Y-13934841D01*
X16648753Y-13934841D02*
X16648753Y-13896746D01*
X16648753Y-13896746D02*
X16639230Y-13849127D01*
X16639230Y-13849127D02*
X16629706Y-13820555D01*
X16629706Y-13820555D02*
X16620182Y-13801508D01*
X16620182Y-13801508D02*
X16601134Y-13772936D01*
X16601134Y-13772936D02*
X16591611Y-13763412D01*
M02*
