%TF.GenerationSoftware,KiCad,Pcbnew,9.0.2+1*%
%TF.CreationDate,2025-07-24T16:09:40+01:00*%
%TF.ProjectId,OBC,4f42432e-6b69-4636-9164-5f7063625858,rev?*%
%TF.SameCoordinates,Original*%
%TF.FileFunction,Drillmap*%
%TF.FilePolarity,Positive*%
%FSLAX45Y45*%
G04 Gerber Fmt 4.5, Leading zero omitted, Abs format (unit mm)*
G04 Created by KiCad (PCBNEW 9.0.2+1) date 2025-07-24 16:09:40*
%MOMM*%
%LPD*%
G01*
G04 APERTURE LIST*
%ADD10C,0.050000*%
%ADD11C,0.200000*%
%ADD12C,0.100000*%
%ADD13C,0.320000*%
G04 APERTURE END LIST*
D10*
X10320000Y-12010000D02*
X20680000Y-12010000D01*
X20680000Y-8510000D02*
G75*
G02*
X21000000Y-8830000I0J-320000D01*
G01*
X10320000Y-12010000D02*
G75*
G02*
X10000000Y-11690000I0J320000D01*
G01*
X21000000Y-11690000D02*
X21000000Y-8830000D01*
X21000000Y-11690000D02*
G75*
G02*
X20680000Y-12010000I-320000J0D01*
G01*
X10000000Y-11690000D02*
X10000000Y-8830000D01*
X20680000Y-8510000D02*
X10320000Y-8510000D01*
X10000000Y-8830000D02*
G75*
G02*
X10320000Y-8510000I320000J0D01*
G01*
D11*
D12*
X15817342Y-8986250D02*
X15877342Y-9046250D01*
X15877342Y-8986250D02*
X15817342Y-9046250D01*
X16478842Y-9016250D02*
G75*
G02*
X16415842Y-9016250I-31500J0D01*
G01*
X16415842Y-9016250D02*
G75*
G02*
X16478842Y-9016250I31500J0D01*
G01*
D13*
X12180000Y-8670000D02*
X12180000Y-8990000D01*
X12020000Y-8830000D02*
X12340000Y-8830000D01*
D11*
X10258277Y-12323984D02*
X10258277Y-12123984D01*
X10258277Y-12123984D02*
X10305896Y-12123984D01*
X10305896Y-12123984D02*
X10334467Y-12133508D01*
X10334467Y-12133508D02*
X10353515Y-12152555D01*
X10353515Y-12152555D02*
X10363039Y-12171603D01*
X10363039Y-12171603D02*
X10372563Y-12209698D01*
X10372563Y-12209698D02*
X10372563Y-12238269D01*
X10372563Y-12238269D02*
X10363039Y-12276365D01*
X10363039Y-12276365D02*
X10353515Y-12295412D01*
X10353515Y-12295412D02*
X10334467Y-12314460D01*
X10334467Y-12314460D02*
X10305896Y-12323984D01*
X10305896Y-12323984D02*
X10258277Y-12323984D01*
X10458277Y-12323984D02*
X10458277Y-12190650D01*
X10458277Y-12228746D02*
X10467801Y-12209698D01*
X10467801Y-12209698D02*
X10477324Y-12200174D01*
X10477324Y-12200174D02*
X10496372Y-12190650D01*
X10496372Y-12190650D02*
X10515420Y-12190650D01*
X10582086Y-12323984D02*
X10582086Y-12190650D01*
X10582086Y-12123984D02*
X10572563Y-12133508D01*
X10572563Y-12133508D02*
X10582086Y-12143031D01*
X10582086Y-12143031D02*
X10591610Y-12133508D01*
X10591610Y-12133508D02*
X10582086Y-12123984D01*
X10582086Y-12123984D02*
X10582086Y-12143031D01*
X10705896Y-12323984D02*
X10686848Y-12314460D01*
X10686848Y-12314460D02*
X10677324Y-12295412D01*
X10677324Y-12295412D02*
X10677324Y-12123984D01*
X10810658Y-12323984D02*
X10791610Y-12314460D01*
X10791610Y-12314460D02*
X10782086Y-12295412D01*
X10782086Y-12295412D02*
X10782086Y-12123984D01*
X11039229Y-12323984D02*
X11039229Y-12123984D01*
X11039229Y-12123984D02*
X11105896Y-12266841D01*
X11105896Y-12266841D02*
X11172563Y-12123984D01*
X11172563Y-12123984D02*
X11172563Y-12323984D01*
X11353515Y-12323984D02*
X11353515Y-12219222D01*
X11353515Y-12219222D02*
X11343991Y-12200174D01*
X11343991Y-12200174D02*
X11324943Y-12190650D01*
X11324943Y-12190650D02*
X11286848Y-12190650D01*
X11286848Y-12190650D02*
X11267801Y-12200174D01*
X11353515Y-12314460D02*
X11334467Y-12323984D01*
X11334467Y-12323984D02*
X11286848Y-12323984D01*
X11286848Y-12323984D02*
X11267801Y-12314460D01*
X11267801Y-12314460D02*
X11258277Y-12295412D01*
X11258277Y-12295412D02*
X11258277Y-12276365D01*
X11258277Y-12276365D02*
X11267801Y-12257317D01*
X11267801Y-12257317D02*
X11286848Y-12247793D01*
X11286848Y-12247793D02*
X11334467Y-12247793D01*
X11334467Y-12247793D02*
X11353515Y-12238269D01*
X11448753Y-12190650D02*
X11448753Y-12390650D01*
X11448753Y-12200174D02*
X11467801Y-12190650D01*
X11467801Y-12190650D02*
X11505896Y-12190650D01*
X11505896Y-12190650D02*
X11524943Y-12200174D01*
X11524943Y-12200174D02*
X11534467Y-12209698D01*
X11534467Y-12209698D02*
X11543991Y-12228746D01*
X11543991Y-12228746D02*
X11543991Y-12285888D01*
X11543991Y-12285888D02*
X11534467Y-12304936D01*
X11534467Y-12304936D02*
X11524943Y-12314460D01*
X11524943Y-12314460D02*
X11505896Y-12323984D01*
X11505896Y-12323984D02*
X11467801Y-12323984D01*
X11467801Y-12323984D02*
X11448753Y-12314460D01*
X11629705Y-12304936D02*
X11639229Y-12314460D01*
X11639229Y-12314460D02*
X11629705Y-12323984D01*
X11629705Y-12323984D02*
X11620182Y-12314460D01*
X11620182Y-12314460D02*
X11629705Y-12304936D01*
X11629705Y-12304936D02*
X11629705Y-12323984D01*
X11629705Y-12200174D02*
X11639229Y-12209698D01*
X11639229Y-12209698D02*
X11629705Y-12219222D01*
X11629705Y-12219222D02*
X11620182Y-12209698D01*
X11620182Y-12209698D02*
X11629705Y-12200174D01*
X11629705Y-12200174D02*
X11629705Y-12219222D01*
D12*
X9937500Y-12622500D02*
X9997500Y-12682500D01*
X9997500Y-12622500D02*
X9937500Y-12682500D01*
D11*
X10296372Y-12543984D02*
X10315420Y-12543984D01*
X10315420Y-12543984D02*
X10334467Y-12553508D01*
X10334467Y-12553508D02*
X10343991Y-12563031D01*
X10343991Y-12563031D02*
X10353515Y-12582079D01*
X10353515Y-12582079D02*
X10363039Y-12620174D01*
X10363039Y-12620174D02*
X10363039Y-12667793D01*
X10363039Y-12667793D02*
X10353515Y-12705888D01*
X10353515Y-12705888D02*
X10343991Y-12724936D01*
X10343991Y-12724936D02*
X10334467Y-12734460D01*
X10334467Y-12734460D02*
X10315420Y-12743984D01*
X10315420Y-12743984D02*
X10296372Y-12743984D01*
X10296372Y-12743984D02*
X10277324Y-12734460D01*
X10277324Y-12734460D02*
X10267801Y-12724936D01*
X10267801Y-12724936D02*
X10258277Y-12705888D01*
X10258277Y-12705888D02*
X10248753Y-12667793D01*
X10248753Y-12667793D02*
X10248753Y-12620174D01*
X10248753Y-12620174D02*
X10258277Y-12582079D01*
X10258277Y-12582079D02*
X10267801Y-12563031D01*
X10267801Y-12563031D02*
X10277324Y-12553508D01*
X10277324Y-12553508D02*
X10296372Y-12543984D01*
X10448753Y-12724936D02*
X10458277Y-12734460D01*
X10458277Y-12734460D02*
X10448753Y-12743984D01*
X10448753Y-12743984D02*
X10439229Y-12734460D01*
X10439229Y-12734460D02*
X10448753Y-12724936D01*
X10448753Y-12724936D02*
X10448753Y-12743984D01*
X10629705Y-12543984D02*
X10591610Y-12543984D01*
X10591610Y-12543984D02*
X10572563Y-12553508D01*
X10572563Y-12553508D02*
X10563039Y-12563031D01*
X10563039Y-12563031D02*
X10543991Y-12591603D01*
X10543991Y-12591603D02*
X10534467Y-12629698D01*
X10534467Y-12629698D02*
X10534467Y-12705888D01*
X10534467Y-12705888D02*
X10543991Y-12724936D01*
X10543991Y-12724936D02*
X10553515Y-12734460D01*
X10553515Y-12734460D02*
X10572563Y-12743984D01*
X10572563Y-12743984D02*
X10610658Y-12743984D01*
X10610658Y-12743984D02*
X10629705Y-12734460D01*
X10629705Y-12734460D02*
X10639229Y-12724936D01*
X10639229Y-12724936D02*
X10648753Y-12705888D01*
X10648753Y-12705888D02*
X10648753Y-12658269D01*
X10648753Y-12658269D02*
X10639229Y-12639222D01*
X10639229Y-12639222D02*
X10629705Y-12629698D01*
X10629705Y-12629698D02*
X10610658Y-12620174D01*
X10610658Y-12620174D02*
X10572563Y-12620174D01*
X10572563Y-12620174D02*
X10553515Y-12629698D01*
X10553515Y-12629698D02*
X10543991Y-12639222D01*
X10543991Y-12639222D02*
X10534467Y-12658269D01*
X10772563Y-12543984D02*
X10791610Y-12543984D01*
X10791610Y-12543984D02*
X10810658Y-12553508D01*
X10810658Y-12553508D02*
X10820182Y-12563031D01*
X10820182Y-12563031D02*
X10829705Y-12582079D01*
X10829705Y-12582079D02*
X10839229Y-12620174D01*
X10839229Y-12620174D02*
X10839229Y-12667793D01*
X10839229Y-12667793D02*
X10829705Y-12705888D01*
X10829705Y-12705888D02*
X10820182Y-12724936D01*
X10820182Y-12724936D02*
X10810658Y-12734460D01*
X10810658Y-12734460D02*
X10791610Y-12743984D01*
X10791610Y-12743984D02*
X10772563Y-12743984D01*
X10772563Y-12743984D02*
X10753515Y-12734460D01*
X10753515Y-12734460D02*
X10743991Y-12724936D01*
X10743991Y-12724936D02*
X10734467Y-12705888D01*
X10734467Y-12705888D02*
X10724944Y-12667793D01*
X10724944Y-12667793D02*
X10724944Y-12620174D01*
X10724944Y-12620174D02*
X10734467Y-12582079D01*
X10734467Y-12582079D02*
X10743991Y-12563031D01*
X10743991Y-12563031D02*
X10753515Y-12553508D01*
X10753515Y-12553508D02*
X10772563Y-12543984D01*
X10963039Y-12543984D02*
X10982086Y-12543984D01*
X10982086Y-12543984D02*
X11001134Y-12553508D01*
X11001134Y-12553508D02*
X11010658Y-12563031D01*
X11010658Y-12563031D02*
X11020182Y-12582079D01*
X11020182Y-12582079D02*
X11029705Y-12620174D01*
X11029705Y-12620174D02*
X11029705Y-12667793D01*
X11029705Y-12667793D02*
X11020182Y-12705888D01*
X11020182Y-12705888D02*
X11010658Y-12724936D01*
X11010658Y-12724936D02*
X11001134Y-12734460D01*
X11001134Y-12734460D02*
X10982086Y-12743984D01*
X10982086Y-12743984D02*
X10963039Y-12743984D01*
X10963039Y-12743984D02*
X10943991Y-12734460D01*
X10943991Y-12734460D02*
X10934467Y-12724936D01*
X10934467Y-12724936D02*
X10924944Y-12705888D01*
X10924944Y-12705888D02*
X10915420Y-12667793D01*
X10915420Y-12667793D02*
X10915420Y-12620174D01*
X10915420Y-12620174D02*
X10924944Y-12582079D01*
X10924944Y-12582079D02*
X10934467Y-12563031D01*
X10934467Y-12563031D02*
X10943991Y-12553508D01*
X10943991Y-12553508D02*
X10963039Y-12543984D01*
X11115420Y-12743984D02*
X11115420Y-12610650D01*
X11115420Y-12629698D02*
X11124944Y-12620174D01*
X11124944Y-12620174D02*
X11143991Y-12610650D01*
X11143991Y-12610650D02*
X11172563Y-12610650D01*
X11172563Y-12610650D02*
X11191610Y-12620174D01*
X11191610Y-12620174D02*
X11201134Y-12639222D01*
X11201134Y-12639222D02*
X11201134Y-12743984D01*
X11201134Y-12639222D02*
X11210658Y-12620174D01*
X11210658Y-12620174D02*
X11229705Y-12610650D01*
X11229705Y-12610650D02*
X11258277Y-12610650D01*
X11258277Y-12610650D02*
X11277324Y-12620174D01*
X11277324Y-12620174D02*
X11286848Y-12639222D01*
X11286848Y-12639222D02*
X11286848Y-12743984D01*
X11382086Y-12743984D02*
X11382086Y-12610650D01*
X11382086Y-12629698D02*
X11391610Y-12620174D01*
X11391610Y-12620174D02*
X11410658Y-12610650D01*
X11410658Y-12610650D02*
X11439229Y-12610650D01*
X11439229Y-12610650D02*
X11458277Y-12620174D01*
X11458277Y-12620174D02*
X11467801Y-12639222D01*
X11467801Y-12639222D02*
X11467801Y-12743984D01*
X11467801Y-12639222D02*
X11477324Y-12620174D01*
X11477324Y-12620174D02*
X11496372Y-12610650D01*
X11496372Y-12610650D02*
X11524943Y-12610650D01*
X11524943Y-12610650D02*
X11543991Y-12620174D01*
X11543991Y-12620174D02*
X11553515Y-12639222D01*
X11553515Y-12639222D02*
X11553515Y-12743984D01*
X11943991Y-12534460D02*
X11772563Y-12791603D01*
X12201134Y-12543984D02*
X12220182Y-12543984D01*
X12220182Y-12543984D02*
X12239229Y-12553508D01*
X12239229Y-12553508D02*
X12248753Y-12563031D01*
X12248753Y-12563031D02*
X12258277Y-12582079D01*
X12258277Y-12582079D02*
X12267801Y-12620174D01*
X12267801Y-12620174D02*
X12267801Y-12667793D01*
X12267801Y-12667793D02*
X12258277Y-12705888D01*
X12258277Y-12705888D02*
X12248753Y-12724936D01*
X12248753Y-12724936D02*
X12239229Y-12734460D01*
X12239229Y-12734460D02*
X12220182Y-12743984D01*
X12220182Y-12743984D02*
X12201134Y-12743984D01*
X12201134Y-12743984D02*
X12182086Y-12734460D01*
X12182086Y-12734460D02*
X12172563Y-12724936D01*
X12172563Y-12724936D02*
X12163039Y-12705888D01*
X12163039Y-12705888D02*
X12153515Y-12667793D01*
X12153515Y-12667793D02*
X12153515Y-12620174D01*
X12153515Y-12620174D02*
X12163039Y-12582079D01*
X12163039Y-12582079D02*
X12172563Y-12563031D01*
X12172563Y-12563031D02*
X12182086Y-12553508D01*
X12182086Y-12553508D02*
X12201134Y-12543984D01*
X12353515Y-12724936D02*
X12363039Y-12734460D01*
X12363039Y-12734460D02*
X12353515Y-12743984D01*
X12353515Y-12743984D02*
X12343991Y-12734460D01*
X12343991Y-12734460D02*
X12353515Y-12724936D01*
X12353515Y-12724936D02*
X12353515Y-12743984D01*
X12486848Y-12543984D02*
X12505896Y-12543984D01*
X12505896Y-12543984D02*
X12524944Y-12553508D01*
X12524944Y-12553508D02*
X12534467Y-12563031D01*
X12534467Y-12563031D02*
X12543991Y-12582079D01*
X12543991Y-12582079D02*
X12553515Y-12620174D01*
X12553515Y-12620174D02*
X12553515Y-12667793D01*
X12553515Y-12667793D02*
X12543991Y-12705888D01*
X12543991Y-12705888D02*
X12534467Y-12724936D01*
X12534467Y-12724936D02*
X12524944Y-12734460D01*
X12524944Y-12734460D02*
X12505896Y-12743984D01*
X12505896Y-12743984D02*
X12486848Y-12743984D01*
X12486848Y-12743984D02*
X12467801Y-12734460D01*
X12467801Y-12734460D02*
X12458277Y-12724936D01*
X12458277Y-12724936D02*
X12448753Y-12705888D01*
X12448753Y-12705888D02*
X12439229Y-12667793D01*
X12439229Y-12667793D02*
X12439229Y-12620174D01*
X12439229Y-12620174D02*
X12448753Y-12582079D01*
X12448753Y-12582079D02*
X12458277Y-12563031D01*
X12458277Y-12563031D02*
X12467801Y-12553508D01*
X12467801Y-12553508D02*
X12486848Y-12543984D01*
X12629706Y-12563031D02*
X12639229Y-12553508D01*
X12639229Y-12553508D02*
X12658277Y-12543984D01*
X12658277Y-12543984D02*
X12705896Y-12543984D01*
X12705896Y-12543984D02*
X12724944Y-12553508D01*
X12724944Y-12553508D02*
X12734467Y-12563031D01*
X12734467Y-12563031D02*
X12743991Y-12582079D01*
X12743991Y-12582079D02*
X12743991Y-12601127D01*
X12743991Y-12601127D02*
X12734467Y-12629698D01*
X12734467Y-12629698D02*
X12620182Y-12743984D01*
X12620182Y-12743984D02*
X12743991Y-12743984D01*
X12810658Y-12543984D02*
X12934467Y-12543984D01*
X12934467Y-12543984D02*
X12867801Y-12620174D01*
X12867801Y-12620174D02*
X12896372Y-12620174D01*
X12896372Y-12620174D02*
X12915420Y-12629698D01*
X12915420Y-12629698D02*
X12924944Y-12639222D01*
X12924944Y-12639222D02*
X12934467Y-12658269D01*
X12934467Y-12658269D02*
X12934467Y-12705888D01*
X12934467Y-12705888D02*
X12924944Y-12724936D01*
X12924944Y-12724936D02*
X12915420Y-12734460D01*
X12915420Y-12734460D02*
X12896372Y-12743984D01*
X12896372Y-12743984D02*
X12839229Y-12743984D01*
X12839229Y-12743984D02*
X12820182Y-12734460D01*
X12820182Y-12734460D02*
X12810658Y-12724936D01*
X13105896Y-12543984D02*
X13067801Y-12543984D01*
X13067801Y-12543984D02*
X13048753Y-12553508D01*
X13048753Y-12553508D02*
X13039229Y-12563031D01*
X13039229Y-12563031D02*
X13020182Y-12591603D01*
X13020182Y-12591603D02*
X13010658Y-12629698D01*
X13010658Y-12629698D02*
X13010658Y-12705888D01*
X13010658Y-12705888D02*
X13020182Y-12724936D01*
X13020182Y-12724936D02*
X13029706Y-12734460D01*
X13029706Y-12734460D02*
X13048753Y-12743984D01*
X13048753Y-12743984D02*
X13086848Y-12743984D01*
X13086848Y-12743984D02*
X13105896Y-12734460D01*
X13105896Y-12734460D02*
X13115420Y-12724936D01*
X13115420Y-12724936D02*
X13124944Y-12705888D01*
X13124944Y-12705888D02*
X13124944Y-12658269D01*
X13124944Y-12658269D02*
X13115420Y-12639222D01*
X13115420Y-12639222D02*
X13105896Y-12629698D01*
X13105896Y-12629698D02*
X13086848Y-12620174D01*
X13086848Y-12620174D02*
X13048753Y-12620174D01*
X13048753Y-12620174D02*
X13029706Y-12629698D01*
X13029706Y-12629698D02*
X13020182Y-12639222D01*
X13020182Y-12639222D02*
X13010658Y-12658269D01*
X13201134Y-12543984D02*
X13201134Y-12582079D01*
X13277325Y-12543984D02*
X13277325Y-12582079D01*
X13572563Y-12820174D02*
X13563039Y-12810650D01*
X13563039Y-12810650D02*
X13543991Y-12782079D01*
X13543991Y-12782079D02*
X13534468Y-12763031D01*
X13534468Y-12763031D02*
X13524944Y-12734460D01*
X13524944Y-12734460D02*
X13515420Y-12686841D01*
X13515420Y-12686841D02*
X13515420Y-12648746D01*
X13515420Y-12648746D02*
X13524944Y-12601127D01*
X13524944Y-12601127D02*
X13534468Y-12572555D01*
X13534468Y-12572555D02*
X13543991Y-12553508D01*
X13543991Y-12553508D02*
X13563039Y-12524936D01*
X13563039Y-12524936D02*
X13572563Y-12515412D01*
X13753515Y-12743984D02*
X13639229Y-12743984D01*
X13696372Y-12743984D02*
X13696372Y-12543984D01*
X13696372Y-12543984D02*
X13677325Y-12572555D01*
X13677325Y-12572555D02*
X13658277Y-12591603D01*
X13658277Y-12591603D02*
X13639229Y-12601127D01*
X13991610Y-12743984D02*
X13991610Y-12543984D01*
X14077325Y-12743984D02*
X14077325Y-12639222D01*
X14077325Y-12639222D02*
X14067801Y-12620174D01*
X14067801Y-12620174D02*
X14048753Y-12610650D01*
X14048753Y-12610650D02*
X14020182Y-12610650D01*
X14020182Y-12610650D02*
X14001134Y-12620174D01*
X14001134Y-12620174D02*
X13991610Y-12629698D01*
X14201134Y-12743984D02*
X14182087Y-12734460D01*
X14182087Y-12734460D02*
X14172563Y-12724936D01*
X14172563Y-12724936D02*
X14163039Y-12705888D01*
X14163039Y-12705888D02*
X14163039Y-12648746D01*
X14163039Y-12648746D02*
X14172563Y-12629698D01*
X14172563Y-12629698D02*
X14182087Y-12620174D01*
X14182087Y-12620174D02*
X14201134Y-12610650D01*
X14201134Y-12610650D02*
X14229706Y-12610650D01*
X14229706Y-12610650D02*
X14248753Y-12620174D01*
X14248753Y-12620174D02*
X14258277Y-12629698D01*
X14258277Y-12629698D02*
X14267801Y-12648746D01*
X14267801Y-12648746D02*
X14267801Y-12705888D01*
X14267801Y-12705888D02*
X14258277Y-12724936D01*
X14258277Y-12724936D02*
X14248753Y-12734460D01*
X14248753Y-12734460D02*
X14229706Y-12743984D01*
X14229706Y-12743984D02*
X14201134Y-12743984D01*
X14382087Y-12743984D02*
X14363039Y-12734460D01*
X14363039Y-12734460D02*
X14353515Y-12715412D01*
X14353515Y-12715412D02*
X14353515Y-12543984D01*
X14534468Y-12734460D02*
X14515420Y-12743984D01*
X14515420Y-12743984D02*
X14477325Y-12743984D01*
X14477325Y-12743984D02*
X14458277Y-12734460D01*
X14458277Y-12734460D02*
X14448753Y-12715412D01*
X14448753Y-12715412D02*
X14448753Y-12639222D01*
X14448753Y-12639222D02*
X14458277Y-12620174D01*
X14458277Y-12620174D02*
X14477325Y-12610650D01*
X14477325Y-12610650D02*
X14515420Y-12610650D01*
X14515420Y-12610650D02*
X14534468Y-12620174D01*
X14534468Y-12620174D02*
X14543991Y-12639222D01*
X14543991Y-12639222D02*
X14543991Y-12658269D01*
X14543991Y-12658269D02*
X14448753Y-12677317D01*
X14610658Y-12820174D02*
X14620182Y-12810650D01*
X14620182Y-12810650D02*
X14639230Y-12782079D01*
X14639230Y-12782079D02*
X14648753Y-12763031D01*
X14648753Y-12763031D02*
X14658277Y-12734460D01*
X14658277Y-12734460D02*
X14667801Y-12686841D01*
X14667801Y-12686841D02*
X14667801Y-12648746D01*
X14667801Y-12648746D02*
X14658277Y-12601127D01*
X14658277Y-12601127D02*
X14648753Y-12572555D01*
X14648753Y-12572555D02*
X14639230Y-12553508D01*
X14639230Y-12553508D02*
X14620182Y-12524936D01*
X14620182Y-12524936D02*
X14610658Y-12515412D01*
X14972563Y-12820174D02*
X14963039Y-12810650D01*
X14963039Y-12810650D02*
X14943991Y-12782079D01*
X14943991Y-12782079D02*
X14934468Y-12763031D01*
X14934468Y-12763031D02*
X14924944Y-12734460D01*
X14924944Y-12734460D02*
X14915420Y-12686841D01*
X14915420Y-12686841D02*
X14915420Y-12648746D01*
X14915420Y-12648746D02*
X14924944Y-12601127D01*
X14924944Y-12601127D02*
X14934468Y-12572555D01*
X14934468Y-12572555D02*
X14943991Y-12553508D01*
X14943991Y-12553508D02*
X14963039Y-12524936D01*
X14963039Y-12524936D02*
X14972563Y-12515412D01*
X15048753Y-12610650D02*
X15048753Y-12743984D01*
X15048753Y-12629698D02*
X15058277Y-12620174D01*
X15058277Y-12620174D02*
X15077325Y-12610650D01*
X15077325Y-12610650D02*
X15105896Y-12610650D01*
X15105896Y-12610650D02*
X15124944Y-12620174D01*
X15124944Y-12620174D02*
X15134468Y-12639222D01*
X15134468Y-12639222D02*
X15134468Y-12743984D01*
X15258277Y-12743984D02*
X15239230Y-12734460D01*
X15239230Y-12734460D02*
X15229706Y-12724936D01*
X15229706Y-12724936D02*
X15220182Y-12705888D01*
X15220182Y-12705888D02*
X15220182Y-12648746D01*
X15220182Y-12648746D02*
X15229706Y-12629698D01*
X15229706Y-12629698D02*
X15239230Y-12620174D01*
X15239230Y-12620174D02*
X15258277Y-12610650D01*
X15258277Y-12610650D02*
X15286849Y-12610650D01*
X15286849Y-12610650D02*
X15305896Y-12620174D01*
X15305896Y-12620174D02*
X15315420Y-12629698D01*
X15315420Y-12629698D02*
X15324944Y-12648746D01*
X15324944Y-12648746D02*
X15324944Y-12705888D01*
X15324944Y-12705888D02*
X15315420Y-12724936D01*
X15315420Y-12724936D02*
X15305896Y-12734460D01*
X15305896Y-12734460D02*
X15286849Y-12743984D01*
X15286849Y-12743984D02*
X15258277Y-12743984D01*
X15382087Y-12610650D02*
X15458277Y-12610650D01*
X15410658Y-12543984D02*
X15410658Y-12715412D01*
X15410658Y-12715412D02*
X15420182Y-12734460D01*
X15420182Y-12734460D02*
X15439230Y-12743984D01*
X15439230Y-12743984D02*
X15458277Y-12743984D01*
X15677325Y-12610650D02*
X15677325Y-12810650D01*
X15677325Y-12620174D02*
X15696372Y-12610650D01*
X15696372Y-12610650D02*
X15734468Y-12610650D01*
X15734468Y-12610650D02*
X15753515Y-12620174D01*
X15753515Y-12620174D02*
X15763039Y-12629698D01*
X15763039Y-12629698D02*
X15772563Y-12648746D01*
X15772563Y-12648746D02*
X15772563Y-12705888D01*
X15772563Y-12705888D02*
X15763039Y-12724936D01*
X15763039Y-12724936D02*
X15753515Y-12734460D01*
X15753515Y-12734460D02*
X15734468Y-12743984D01*
X15734468Y-12743984D02*
X15696372Y-12743984D01*
X15696372Y-12743984D02*
X15677325Y-12734460D01*
X15886849Y-12743984D02*
X15867801Y-12734460D01*
X15867801Y-12734460D02*
X15858277Y-12715412D01*
X15858277Y-12715412D02*
X15858277Y-12543984D01*
X16048753Y-12743984D02*
X16048753Y-12639222D01*
X16048753Y-12639222D02*
X16039230Y-12620174D01*
X16039230Y-12620174D02*
X16020182Y-12610650D01*
X16020182Y-12610650D02*
X15982087Y-12610650D01*
X15982087Y-12610650D02*
X15963039Y-12620174D01*
X16048753Y-12734460D02*
X16029706Y-12743984D01*
X16029706Y-12743984D02*
X15982087Y-12743984D01*
X15982087Y-12743984D02*
X15963039Y-12734460D01*
X15963039Y-12734460D02*
X15953515Y-12715412D01*
X15953515Y-12715412D02*
X15953515Y-12696365D01*
X15953515Y-12696365D02*
X15963039Y-12677317D01*
X15963039Y-12677317D02*
X15982087Y-12667793D01*
X15982087Y-12667793D02*
X16029706Y-12667793D01*
X16029706Y-12667793D02*
X16048753Y-12658269D01*
X16115420Y-12610650D02*
X16191611Y-12610650D01*
X16143992Y-12543984D02*
X16143992Y-12715412D01*
X16143992Y-12715412D02*
X16153515Y-12734460D01*
X16153515Y-12734460D02*
X16172563Y-12743984D01*
X16172563Y-12743984D02*
X16191611Y-12743984D01*
X16334468Y-12734460D02*
X16315420Y-12743984D01*
X16315420Y-12743984D02*
X16277325Y-12743984D01*
X16277325Y-12743984D02*
X16258277Y-12734460D01*
X16258277Y-12734460D02*
X16248753Y-12715412D01*
X16248753Y-12715412D02*
X16248753Y-12639222D01*
X16248753Y-12639222D02*
X16258277Y-12620174D01*
X16258277Y-12620174D02*
X16277325Y-12610650D01*
X16277325Y-12610650D02*
X16315420Y-12610650D01*
X16315420Y-12610650D02*
X16334468Y-12620174D01*
X16334468Y-12620174D02*
X16343992Y-12639222D01*
X16343992Y-12639222D02*
X16343992Y-12658269D01*
X16343992Y-12658269D02*
X16248753Y-12677317D01*
X16515420Y-12743984D02*
X16515420Y-12543984D01*
X16515420Y-12734460D02*
X16496373Y-12743984D01*
X16496373Y-12743984D02*
X16458277Y-12743984D01*
X16458277Y-12743984D02*
X16439230Y-12734460D01*
X16439230Y-12734460D02*
X16429706Y-12724936D01*
X16429706Y-12724936D02*
X16420182Y-12705888D01*
X16420182Y-12705888D02*
X16420182Y-12648746D01*
X16420182Y-12648746D02*
X16429706Y-12629698D01*
X16429706Y-12629698D02*
X16439230Y-12620174D01*
X16439230Y-12620174D02*
X16458277Y-12610650D01*
X16458277Y-12610650D02*
X16496373Y-12610650D01*
X16496373Y-12610650D02*
X16515420Y-12620174D01*
X16591611Y-12820174D02*
X16601134Y-12810650D01*
X16601134Y-12810650D02*
X16620182Y-12782079D01*
X16620182Y-12782079D02*
X16629706Y-12763031D01*
X16629706Y-12763031D02*
X16639230Y-12734460D01*
X16639230Y-12734460D02*
X16648753Y-12686841D01*
X16648753Y-12686841D02*
X16648753Y-12648746D01*
X16648753Y-12648746D02*
X16639230Y-12601127D01*
X16639230Y-12601127D02*
X16629706Y-12572555D01*
X16629706Y-12572555D02*
X16620182Y-12553508D01*
X16620182Y-12553508D02*
X16601134Y-12524936D01*
X16601134Y-12524936D02*
X16591611Y-12515412D01*
D12*
X9997500Y-12916500D02*
G75*
G02*
X9934500Y-12916500I-31500J0D01*
G01*
X9934500Y-12916500D02*
G75*
G02*
X9997500Y-12916500I31500J0D01*
G01*
D11*
X10296372Y-12807984D02*
X10315420Y-12807984D01*
X10315420Y-12807984D02*
X10334467Y-12817508D01*
X10334467Y-12817508D02*
X10343991Y-12827031D01*
X10343991Y-12827031D02*
X10353515Y-12846079D01*
X10353515Y-12846079D02*
X10363039Y-12884174D01*
X10363039Y-12884174D02*
X10363039Y-12931793D01*
X10363039Y-12931793D02*
X10353515Y-12969888D01*
X10353515Y-12969888D02*
X10343991Y-12988936D01*
X10343991Y-12988936D02*
X10334467Y-12998460D01*
X10334467Y-12998460D02*
X10315420Y-13007984D01*
X10315420Y-13007984D02*
X10296372Y-13007984D01*
X10296372Y-13007984D02*
X10277324Y-12998460D01*
X10277324Y-12998460D02*
X10267801Y-12988936D01*
X10267801Y-12988936D02*
X10258277Y-12969888D01*
X10258277Y-12969888D02*
X10248753Y-12931793D01*
X10248753Y-12931793D02*
X10248753Y-12884174D01*
X10248753Y-12884174D02*
X10258277Y-12846079D01*
X10258277Y-12846079D02*
X10267801Y-12827031D01*
X10267801Y-12827031D02*
X10277324Y-12817508D01*
X10277324Y-12817508D02*
X10296372Y-12807984D01*
X10448753Y-12988936D02*
X10458277Y-12998460D01*
X10458277Y-12998460D02*
X10448753Y-13007984D01*
X10448753Y-13007984D02*
X10439229Y-12998460D01*
X10439229Y-12998460D02*
X10448753Y-12988936D01*
X10448753Y-12988936D02*
X10448753Y-13007984D01*
X10629705Y-12807984D02*
X10591610Y-12807984D01*
X10591610Y-12807984D02*
X10572563Y-12817508D01*
X10572563Y-12817508D02*
X10563039Y-12827031D01*
X10563039Y-12827031D02*
X10543991Y-12855603D01*
X10543991Y-12855603D02*
X10534467Y-12893698D01*
X10534467Y-12893698D02*
X10534467Y-12969888D01*
X10534467Y-12969888D02*
X10543991Y-12988936D01*
X10543991Y-12988936D02*
X10553515Y-12998460D01*
X10553515Y-12998460D02*
X10572563Y-13007984D01*
X10572563Y-13007984D02*
X10610658Y-13007984D01*
X10610658Y-13007984D02*
X10629705Y-12998460D01*
X10629705Y-12998460D02*
X10639229Y-12988936D01*
X10639229Y-12988936D02*
X10648753Y-12969888D01*
X10648753Y-12969888D02*
X10648753Y-12922269D01*
X10648753Y-12922269D02*
X10639229Y-12903222D01*
X10639229Y-12903222D02*
X10629705Y-12893698D01*
X10629705Y-12893698D02*
X10610658Y-12884174D01*
X10610658Y-12884174D02*
X10572563Y-12884174D01*
X10572563Y-12884174D02*
X10553515Y-12893698D01*
X10553515Y-12893698D02*
X10543991Y-12903222D01*
X10543991Y-12903222D02*
X10534467Y-12922269D01*
X10715420Y-12807984D02*
X10839229Y-12807984D01*
X10839229Y-12807984D02*
X10772563Y-12884174D01*
X10772563Y-12884174D02*
X10801134Y-12884174D01*
X10801134Y-12884174D02*
X10820182Y-12893698D01*
X10820182Y-12893698D02*
X10829705Y-12903222D01*
X10829705Y-12903222D02*
X10839229Y-12922269D01*
X10839229Y-12922269D02*
X10839229Y-12969888D01*
X10839229Y-12969888D02*
X10829705Y-12988936D01*
X10829705Y-12988936D02*
X10820182Y-12998460D01*
X10820182Y-12998460D02*
X10801134Y-13007984D01*
X10801134Y-13007984D02*
X10743991Y-13007984D01*
X10743991Y-13007984D02*
X10724944Y-12998460D01*
X10724944Y-12998460D02*
X10715420Y-12988936D01*
X10963039Y-12807984D02*
X10982086Y-12807984D01*
X10982086Y-12807984D02*
X11001134Y-12817508D01*
X11001134Y-12817508D02*
X11010658Y-12827031D01*
X11010658Y-12827031D02*
X11020182Y-12846079D01*
X11020182Y-12846079D02*
X11029705Y-12884174D01*
X11029705Y-12884174D02*
X11029705Y-12931793D01*
X11029705Y-12931793D02*
X11020182Y-12969888D01*
X11020182Y-12969888D02*
X11010658Y-12988936D01*
X11010658Y-12988936D02*
X11001134Y-12998460D01*
X11001134Y-12998460D02*
X10982086Y-13007984D01*
X10982086Y-13007984D02*
X10963039Y-13007984D01*
X10963039Y-13007984D02*
X10943991Y-12998460D01*
X10943991Y-12998460D02*
X10934467Y-12988936D01*
X10934467Y-12988936D02*
X10924944Y-12969888D01*
X10924944Y-12969888D02*
X10915420Y-12931793D01*
X10915420Y-12931793D02*
X10915420Y-12884174D01*
X10915420Y-12884174D02*
X10924944Y-12846079D01*
X10924944Y-12846079D02*
X10934467Y-12827031D01*
X10934467Y-12827031D02*
X10943991Y-12817508D01*
X10943991Y-12817508D02*
X10963039Y-12807984D01*
X11115420Y-13007984D02*
X11115420Y-12874650D01*
X11115420Y-12893698D02*
X11124944Y-12884174D01*
X11124944Y-12884174D02*
X11143991Y-12874650D01*
X11143991Y-12874650D02*
X11172563Y-12874650D01*
X11172563Y-12874650D02*
X11191610Y-12884174D01*
X11191610Y-12884174D02*
X11201134Y-12903222D01*
X11201134Y-12903222D02*
X11201134Y-13007984D01*
X11201134Y-12903222D02*
X11210658Y-12884174D01*
X11210658Y-12884174D02*
X11229705Y-12874650D01*
X11229705Y-12874650D02*
X11258277Y-12874650D01*
X11258277Y-12874650D02*
X11277324Y-12884174D01*
X11277324Y-12884174D02*
X11286848Y-12903222D01*
X11286848Y-12903222D02*
X11286848Y-13007984D01*
X11382086Y-13007984D02*
X11382086Y-12874650D01*
X11382086Y-12893698D02*
X11391610Y-12884174D01*
X11391610Y-12884174D02*
X11410658Y-12874650D01*
X11410658Y-12874650D02*
X11439229Y-12874650D01*
X11439229Y-12874650D02*
X11458277Y-12884174D01*
X11458277Y-12884174D02*
X11467801Y-12903222D01*
X11467801Y-12903222D02*
X11467801Y-13007984D01*
X11467801Y-12903222D02*
X11477324Y-12884174D01*
X11477324Y-12884174D02*
X11496372Y-12874650D01*
X11496372Y-12874650D02*
X11524943Y-12874650D01*
X11524943Y-12874650D02*
X11543991Y-12884174D01*
X11543991Y-12884174D02*
X11553515Y-12903222D01*
X11553515Y-12903222D02*
X11553515Y-13007984D01*
X11943991Y-12798460D02*
X11772563Y-13055603D01*
X12201134Y-12807984D02*
X12220182Y-12807984D01*
X12220182Y-12807984D02*
X12239229Y-12817508D01*
X12239229Y-12817508D02*
X12248753Y-12827031D01*
X12248753Y-12827031D02*
X12258277Y-12846079D01*
X12258277Y-12846079D02*
X12267801Y-12884174D01*
X12267801Y-12884174D02*
X12267801Y-12931793D01*
X12267801Y-12931793D02*
X12258277Y-12969888D01*
X12258277Y-12969888D02*
X12248753Y-12988936D01*
X12248753Y-12988936D02*
X12239229Y-12998460D01*
X12239229Y-12998460D02*
X12220182Y-13007984D01*
X12220182Y-13007984D02*
X12201134Y-13007984D01*
X12201134Y-13007984D02*
X12182086Y-12998460D01*
X12182086Y-12998460D02*
X12172563Y-12988936D01*
X12172563Y-12988936D02*
X12163039Y-12969888D01*
X12163039Y-12969888D02*
X12153515Y-12931793D01*
X12153515Y-12931793D02*
X12153515Y-12884174D01*
X12153515Y-12884174D02*
X12163039Y-12846079D01*
X12163039Y-12846079D02*
X12172563Y-12827031D01*
X12172563Y-12827031D02*
X12182086Y-12817508D01*
X12182086Y-12817508D02*
X12201134Y-12807984D01*
X12353515Y-12988936D02*
X12363039Y-12998460D01*
X12363039Y-12998460D02*
X12353515Y-13007984D01*
X12353515Y-13007984D02*
X12343991Y-12998460D01*
X12343991Y-12998460D02*
X12353515Y-12988936D01*
X12353515Y-12988936D02*
X12353515Y-13007984D01*
X12486848Y-12807984D02*
X12505896Y-12807984D01*
X12505896Y-12807984D02*
X12524944Y-12817508D01*
X12524944Y-12817508D02*
X12534467Y-12827031D01*
X12534467Y-12827031D02*
X12543991Y-12846079D01*
X12543991Y-12846079D02*
X12553515Y-12884174D01*
X12553515Y-12884174D02*
X12553515Y-12931793D01*
X12553515Y-12931793D02*
X12543991Y-12969888D01*
X12543991Y-12969888D02*
X12534467Y-12988936D01*
X12534467Y-12988936D02*
X12524944Y-12998460D01*
X12524944Y-12998460D02*
X12505896Y-13007984D01*
X12505896Y-13007984D02*
X12486848Y-13007984D01*
X12486848Y-13007984D02*
X12467801Y-12998460D01*
X12467801Y-12998460D02*
X12458277Y-12988936D01*
X12458277Y-12988936D02*
X12448753Y-12969888D01*
X12448753Y-12969888D02*
X12439229Y-12931793D01*
X12439229Y-12931793D02*
X12439229Y-12884174D01*
X12439229Y-12884174D02*
X12448753Y-12846079D01*
X12448753Y-12846079D02*
X12458277Y-12827031D01*
X12458277Y-12827031D02*
X12467801Y-12817508D01*
X12467801Y-12817508D02*
X12486848Y-12807984D01*
X12629706Y-12827031D02*
X12639229Y-12817508D01*
X12639229Y-12817508D02*
X12658277Y-12807984D01*
X12658277Y-12807984D02*
X12705896Y-12807984D01*
X12705896Y-12807984D02*
X12724944Y-12817508D01*
X12724944Y-12817508D02*
X12734467Y-12827031D01*
X12734467Y-12827031D02*
X12743991Y-12846079D01*
X12743991Y-12846079D02*
X12743991Y-12865127D01*
X12743991Y-12865127D02*
X12734467Y-12893698D01*
X12734467Y-12893698D02*
X12620182Y-13007984D01*
X12620182Y-13007984D02*
X12743991Y-13007984D01*
X12915420Y-12874650D02*
X12915420Y-13007984D01*
X12867801Y-12798460D02*
X12820182Y-12941317D01*
X12820182Y-12941317D02*
X12943991Y-12941317D01*
X13048753Y-12893698D02*
X13029706Y-12884174D01*
X13029706Y-12884174D02*
X13020182Y-12874650D01*
X13020182Y-12874650D02*
X13010658Y-12855603D01*
X13010658Y-12855603D02*
X13010658Y-12846079D01*
X13010658Y-12846079D02*
X13020182Y-12827031D01*
X13020182Y-12827031D02*
X13029706Y-12817508D01*
X13029706Y-12817508D02*
X13048753Y-12807984D01*
X13048753Y-12807984D02*
X13086848Y-12807984D01*
X13086848Y-12807984D02*
X13105896Y-12817508D01*
X13105896Y-12817508D02*
X13115420Y-12827031D01*
X13115420Y-12827031D02*
X13124944Y-12846079D01*
X13124944Y-12846079D02*
X13124944Y-12855603D01*
X13124944Y-12855603D02*
X13115420Y-12874650D01*
X13115420Y-12874650D02*
X13105896Y-12884174D01*
X13105896Y-12884174D02*
X13086848Y-12893698D01*
X13086848Y-12893698D02*
X13048753Y-12893698D01*
X13048753Y-12893698D02*
X13029706Y-12903222D01*
X13029706Y-12903222D02*
X13020182Y-12912746D01*
X13020182Y-12912746D02*
X13010658Y-12931793D01*
X13010658Y-12931793D02*
X13010658Y-12969888D01*
X13010658Y-12969888D02*
X13020182Y-12988936D01*
X13020182Y-12988936D02*
X13029706Y-12998460D01*
X13029706Y-12998460D02*
X13048753Y-13007984D01*
X13048753Y-13007984D02*
X13086848Y-13007984D01*
X13086848Y-13007984D02*
X13105896Y-12998460D01*
X13105896Y-12998460D02*
X13115420Y-12988936D01*
X13115420Y-12988936D02*
X13124944Y-12969888D01*
X13124944Y-12969888D02*
X13124944Y-12931793D01*
X13124944Y-12931793D02*
X13115420Y-12912746D01*
X13115420Y-12912746D02*
X13105896Y-12903222D01*
X13105896Y-12903222D02*
X13086848Y-12893698D01*
X13201134Y-12807984D02*
X13201134Y-12846079D01*
X13277325Y-12807984D02*
X13277325Y-12846079D01*
X13572563Y-13084174D02*
X13563039Y-13074650D01*
X13563039Y-13074650D02*
X13543991Y-13046079D01*
X13543991Y-13046079D02*
X13534468Y-13027031D01*
X13534468Y-13027031D02*
X13524944Y-12998460D01*
X13524944Y-12998460D02*
X13515420Y-12950841D01*
X13515420Y-12950841D02*
X13515420Y-12912746D01*
X13515420Y-12912746D02*
X13524944Y-12865127D01*
X13524944Y-12865127D02*
X13534468Y-12836555D01*
X13534468Y-12836555D02*
X13543991Y-12817508D01*
X13543991Y-12817508D02*
X13563039Y-12788936D01*
X13563039Y-12788936D02*
X13572563Y-12779412D01*
X13753515Y-13007984D02*
X13639229Y-13007984D01*
X13696372Y-13007984D02*
X13696372Y-12807984D01*
X13696372Y-12807984D02*
X13677325Y-12836555D01*
X13677325Y-12836555D02*
X13658277Y-12855603D01*
X13658277Y-12855603D02*
X13639229Y-12865127D01*
X13991610Y-13007984D02*
X13991610Y-12807984D01*
X14077325Y-13007984D02*
X14077325Y-12903222D01*
X14077325Y-12903222D02*
X14067801Y-12884174D01*
X14067801Y-12884174D02*
X14048753Y-12874650D01*
X14048753Y-12874650D02*
X14020182Y-12874650D01*
X14020182Y-12874650D02*
X14001134Y-12884174D01*
X14001134Y-12884174D02*
X13991610Y-12893698D01*
X14201134Y-13007984D02*
X14182087Y-12998460D01*
X14182087Y-12998460D02*
X14172563Y-12988936D01*
X14172563Y-12988936D02*
X14163039Y-12969888D01*
X14163039Y-12969888D02*
X14163039Y-12912746D01*
X14163039Y-12912746D02*
X14172563Y-12893698D01*
X14172563Y-12893698D02*
X14182087Y-12884174D01*
X14182087Y-12884174D02*
X14201134Y-12874650D01*
X14201134Y-12874650D02*
X14229706Y-12874650D01*
X14229706Y-12874650D02*
X14248753Y-12884174D01*
X14248753Y-12884174D02*
X14258277Y-12893698D01*
X14258277Y-12893698D02*
X14267801Y-12912746D01*
X14267801Y-12912746D02*
X14267801Y-12969888D01*
X14267801Y-12969888D02*
X14258277Y-12988936D01*
X14258277Y-12988936D02*
X14248753Y-12998460D01*
X14248753Y-12998460D02*
X14229706Y-13007984D01*
X14229706Y-13007984D02*
X14201134Y-13007984D01*
X14382087Y-13007984D02*
X14363039Y-12998460D01*
X14363039Y-12998460D02*
X14353515Y-12979412D01*
X14353515Y-12979412D02*
X14353515Y-12807984D01*
X14534468Y-12998460D02*
X14515420Y-13007984D01*
X14515420Y-13007984D02*
X14477325Y-13007984D01*
X14477325Y-13007984D02*
X14458277Y-12998460D01*
X14458277Y-12998460D02*
X14448753Y-12979412D01*
X14448753Y-12979412D02*
X14448753Y-12903222D01*
X14448753Y-12903222D02*
X14458277Y-12884174D01*
X14458277Y-12884174D02*
X14477325Y-12874650D01*
X14477325Y-12874650D02*
X14515420Y-12874650D01*
X14515420Y-12874650D02*
X14534468Y-12884174D01*
X14534468Y-12884174D02*
X14543991Y-12903222D01*
X14543991Y-12903222D02*
X14543991Y-12922269D01*
X14543991Y-12922269D02*
X14448753Y-12941317D01*
X14610658Y-13084174D02*
X14620182Y-13074650D01*
X14620182Y-13074650D02*
X14639230Y-13046079D01*
X14639230Y-13046079D02*
X14648753Y-13027031D01*
X14648753Y-13027031D02*
X14658277Y-12998460D01*
X14658277Y-12998460D02*
X14667801Y-12950841D01*
X14667801Y-12950841D02*
X14667801Y-12912746D01*
X14667801Y-12912746D02*
X14658277Y-12865127D01*
X14658277Y-12865127D02*
X14648753Y-12836555D01*
X14648753Y-12836555D02*
X14639230Y-12817508D01*
X14639230Y-12817508D02*
X14620182Y-12788936D01*
X14620182Y-12788936D02*
X14610658Y-12779412D01*
X14972563Y-13084174D02*
X14963039Y-13074650D01*
X14963039Y-13074650D02*
X14943991Y-13046079D01*
X14943991Y-13046079D02*
X14934468Y-13027031D01*
X14934468Y-13027031D02*
X14924944Y-12998460D01*
X14924944Y-12998460D02*
X14915420Y-12950841D01*
X14915420Y-12950841D02*
X14915420Y-12912746D01*
X14915420Y-12912746D02*
X14924944Y-12865127D01*
X14924944Y-12865127D02*
X14934468Y-12836555D01*
X14934468Y-12836555D02*
X14943991Y-12817508D01*
X14943991Y-12817508D02*
X14963039Y-12788936D01*
X14963039Y-12788936D02*
X14972563Y-12779412D01*
X15048753Y-12874650D02*
X15048753Y-13007984D01*
X15048753Y-12893698D02*
X15058277Y-12884174D01*
X15058277Y-12884174D02*
X15077325Y-12874650D01*
X15077325Y-12874650D02*
X15105896Y-12874650D01*
X15105896Y-12874650D02*
X15124944Y-12884174D01*
X15124944Y-12884174D02*
X15134468Y-12903222D01*
X15134468Y-12903222D02*
X15134468Y-13007984D01*
X15258277Y-13007984D02*
X15239230Y-12998460D01*
X15239230Y-12998460D02*
X15229706Y-12988936D01*
X15229706Y-12988936D02*
X15220182Y-12969888D01*
X15220182Y-12969888D02*
X15220182Y-12912746D01*
X15220182Y-12912746D02*
X15229706Y-12893698D01*
X15229706Y-12893698D02*
X15239230Y-12884174D01*
X15239230Y-12884174D02*
X15258277Y-12874650D01*
X15258277Y-12874650D02*
X15286849Y-12874650D01*
X15286849Y-12874650D02*
X15305896Y-12884174D01*
X15305896Y-12884174D02*
X15315420Y-12893698D01*
X15315420Y-12893698D02*
X15324944Y-12912746D01*
X15324944Y-12912746D02*
X15324944Y-12969888D01*
X15324944Y-12969888D02*
X15315420Y-12988936D01*
X15315420Y-12988936D02*
X15305896Y-12998460D01*
X15305896Y-12998460D02*
X15286849Y-13007984D01*
X15286849Y-13007984D02*
X15258277Y-13007984D01*
X15382087Y-12874650D02*
X15458277Y-12874650D01*
X15410658Y-12807984D02*
X15410658Y-12979412D01*
X15410658Y-12979412D02*
X15420182Y-12998460D01*
X15420182Y-12998460D02*
X15439230Y-13007984D01*
X15439230Y-13007984D02*
X15458277Y-13007984D01*
X15677325Y-12874650D02*
X15677325Y-13074650D01*
X15677325Y-12884174D02*
X15696372Y-12874650D01*
X15696372Y-12874650D02*
X15734468Y-12874650D01*
X15734468Y-12874650D02*
X15753515Y-12884174D01*
X15753515Y-12884174D02*
X15763039Y-12893698D01*
X15763039Y-12893698D02*
X15772563Y-12912746D01*
X15772563Y-12912746D02*
X15772563Y-12969888D01*
X15772563Y-12969888D02*
X15763039Y-12988936D01*
X15763039Y-12988936D02*
X15753515Y-12998460D01*
X15753515Y-12998460D02*
X15734468Y-13007984D01*
X15734468Y-13007984D02*
X15696372Y-13007984D01*
X15696372Y-13007984D02*
X15677325Y-12998460D01*
X15886849Y-13007984D02*
X15867801Y-12998460D01*
X15867801Y-12998460D02*
X15858277Y-12979412D01*
X15858277Y-12979412D02*
X15858277Y-12807984D01*
X16048753Y-13007984D02*
X16048753Y-12903222D01*
X16048753Y-12903222D02*
X16039230Y-12884174D01*
X16039230Y-12884174D02*
X16020182Y-12874650D01*
X16020182Y-12874650D02*
X15982087Y-12874650D01*
X15982087Y-12874650D02*
X15963039Y-12884174D01*
X16048753Y-12998460D02*
X16029706Y-13007984D01*
X16029706Y-13007984D02*
X15982087Y-13007984D01*
X15982087Y-13007984D02*
X15963039Y-12998460D01*
X15963039Y-12998460D02*
X15953515Y-12979412D01*
X15953515Y-12979412D02*
X15953515Y-12960365D01*
X15953515Y-12960365D02*
X15963039Y-12941317D01*
X15963039Y-12941317D02*
X15982087Y-12931793D01*
X15982087Y-12931793D02*
X16029706Y-12931793D01*
X16029706Y-12931793D02*
X16048753Y-12922269D01*
X16115420Y-12874650D02*
X16191611Y-12874650D01*
X16143992Y-12807984D02*
X16143992Y-12979412D01*
X16143992Y-12979412D02*
X16153515Y-12998460D01*
X16153515Y-12998460D02*
X16172563Y-13007984D01*
X16172563Y-13007984D02*
X16191611Y-13007984D01*
X16334468Y-12998460D02*
X16315420Y-13007984D01*
X16315420Y-13007984D02*
X16277325Y-13007984D01*
X16277325Y-13007984D02*
X16258277Y-12998460D01*
X16258277Y-12998460D02*
X16248753Y-12979412D01*
X16248753Y-12979412D02*
X16248753Y-12903222D01*
X16248753Y-12903222D02*
X16258277Y-12884174D01*
X16258277Y-12884174D02*
X16277325Y-12874650D01*
X16277325Y-12874650D02*
X16315420Y-12874650D01*
X16315420Y-12874650D02*
X16334468Y-12884174D01*
X16334468Y-12884174D02*
X16343992Y-12903222D01*
X16343992Y-12903222D02*
X16343992Y-12922269D01*
X16343992Y-12922269D02*
X16248753Y-12941317D01*
X16515420Y-13007984D02*
X16515420Y-12807984D01*
X16515420Y-12998460D02*
X16496373Y-13007984D01*
X16496373Y-13007984D02*
X16458277Y-13007984D01*
X16458277Y-13007984D02*
X16439230Y-12998460D01*
X16439230Y-12998460D02*
X16429706Y-12988936D01*
X16429706Y-12988936D02*
X16420182Y-12969888D01*
X16420182Y-12969888D02*
X16420182Y-12912746D01*
X16420182Y-12912746D02*
X16429706Y-12893698D01*
X16429706Y-12893698D02*
X16439230Y-12884174D01*
X16439230Y-12884174D02*
X16458277Y-12874650D01*
X16458277Y-12874650D02*
X16496373Y-12874650D01*
X16496373Y-12874650D02*
X16515420Y-12884174D01*
X16591611Y-13084174D02*
X16601134Y-13074650D01*
X16601134Y-13074650D02*
X16620182Y-13046079D01*
X16620182Y-13046079D02*
X16629706Y-13027031D01*
X16629706Y-13027031D02*
X16639230Y-12998460D01*
X16639230Y-12998460D02*
X16648753Y-12950841D01*
X16648753Y-12950841D02*
X16648753Y-12912746D01*
X16648753Y-12912746D02*
X16639230Y-12865127D01*
X16639230Y-12865127D02*
X16629706Y-12836555D01*
X16629706Y-12836555D02*
X16620182Y-12817508D01*
X16620182Y-12817508D02*
X16601134Y-12788936D01*
X16601134Y-12788936D02*
X16591611Y-12779412D01*
X9897500Y-13080500D02*
X9897500Y-13280500D01*
X9797500Y-13180500D02*
X9997500Y-13180500D01*
X10239229Y-13071984D02*
X10363039Y-13071984D01*
X10363039Y-13071984D02*
X10296372Y-13148174D01*
X10296372Y-13148174D02*
X10324944Y-13148174D01*
X10324944Y-13148174D02*
X10343991Y-13157698D01*
X10343991Y-13157698D02*
X10353515Y-13167222D01*
X10353515Y-13167222D02*
X10363039Y-13186269D01*
X10363039Y-13186269D02*
X10363039Y-13233888D01*
X10363039Y-13233888D02*
X10353515Y-13252936D01*
X10353515Y-13252936D02*
X10343991Y-13262460D01*
X10343991Y-13262460D02*
X10324944Y-13271984D01*
X10324944Y-13271984D02*
X10267801Y-13271984D01*
X10267801Y-13271984D02*
X10248753Y-13262460D01*
X10248753Y-13262460D02*
X10239229Y-13252936D01*
X10448753Y-13252936D02*
X10458277Y-13262460D01*
X10458277Y-13262460D02*
X10448753Y-13271984D01*
X10448753Y-13271984D02*
X10439229Y-13262460D01*
X10439229Y-13262460D02*
X10448753Y-13252936D01*
X10448753Y-13252936D02*
X10448753Y-13271984D01*
X10534467Y-13091031D02*
X10543991Y-13081508D01*
X10543991Y-13081508D02*
X10563039Y-13071984D01*
X10563039Y-13071984D02*
X10610658Y-13071984D01*
X10610658Y-13071984D02*
X10629705Y-13081508D01*
X10629705Y-13081508D02*
X10639229Y-13091031D01*
X10639229Y-13091031D02*
X10648753Y-13110079D01*
X10648753Y-13110079D02*
X10648753Y-13129127D01*
X10648753Y-13129127D02*
X10639229Y-13157698D01*
X10639229Y-13157698D02*
X10524944Y-13271984D01*
X10524944Y-13271984D02*
X10648753Y-13271984D01*
X10772563Y-13071984D02*
X10791610Y-13071984D01*
X10791610Y-13071984D02*
X10810658Y-13081508D01*
X10810658Y-13081508D02*
X10820182Y-13091031D01*
X10820182Y-13091031D02*
X10829705Y-13110079D01*
X10829705Y-13110079D02*
X10839229Y-13148174D01*
X10839229Y-13148174D02*
X10839229Y-13195793D01*
X10839229Y-13195793D02*
X10829705Y-13233888D01*
X10829705Y-13233888D02*
X10820182Y-13252936D01*
X10820182Y-13252936D02*
X10810658Y-13262460D01*
X10810658Y-13262460D02*
X10791610Y-13271984D01*
X10791610Y-13271984D02*
X10772563Y-13271984D01*
X10772563Y-13271984D02*
X10753515Y-13262460D01*
X10753515Y-13262460D02*
X10743991Y-13252936D01*
X10743991Y-13252936D02*
X10734467Y-13233888D01*
X10734467Y-13233888D02*
X10724944Y-13195793D01*
X10724944Y-13195793D02*
X10724944Y-13148174D01*
X10724944Y-13148174D02*
X10734467Y-13110079D01*
X10734467Y-13110079D02*
X10743991Y-13091031D01*
X10743991Y-13091031D02*
X10753515Y-13081508D01*
X10753515Y-13081508D02*
X10772563Y-13071984D01*
X10963039Y-13071984D02*
X10982086Y-13071984D01*
X10982086Y-13071984D02*
X11001134Y-13081508D01*
X11001134Y-13081508D02*
X11010658Y-13091031D01*
X11010658Y-13091031D02*
X11020182Y-13110079D01*
X11020182Y-13110079D02*
X11029705Y-13148174D01*
X11029705Y-13148174D02*
X11029705Y-13195793D01*
X11029705Y-13195793D02*
X11020182Y-13233888D01*
X11020182Y-13233888D02*
X11010658Y-13252936D01*
X11010658Y-13252936D02*
X11001134Y-13262460D01*
X11001134Y-13262460D02*
X10982086Y-13271984D01*
X10982086Y-13271984D02*
X10963039Y-13271984D01*
X10963039Y-13271984D02*
X10943991Y-13262460D01*
X10943991Y-13262460D02*
X10934467Y-13252936D01*
X10934467Y-13252936D02*
X10924944Y-13233888D01*
X10924944Y-13233888D02*
X10915420Y-13195793D01*
X10915420Y-13195793D02*
X10915420Y-13148174D01*
X10915420Y-13148174D02*
X10924944Y-13110079D01*
X10924944Y-13110079D02*
X10934467Y-13091031D01*
X10934467Y-13091031D02*
X10943991Y-13081508D01*
X10943991Y-13081508D02*
X10963039Y-13071984D01*
X11115420Y-13271984D02*
X11115420Y-13138650D01*
X11115420Y-13157698D02*
X11124944Y-13148174D01*
X11124944Y-13148174D02*
X11143991Y-13138650D01*
X11143991Y-13138650D02*
X11172563Y-13138650D01*
X11172563Y-13138650D02*
X11191610Y-13148174D01*
X11191610Y-13148174D02*
X11201134Y-13167222D01*
X11201134Y-13167222D02*
X11201134Y-13271984D01*
X11201134Y-13167222D02*
X11210658Y-13148174D01*
X11210658Y-13148174D02*
X11229705Y-13138650D01*
X11229705Y-13138650D02*
X11258277Y-13138650D01*
X11258277Y-13138650D02*
X11277324Y-13148174D01*
X11277324Y-13148174D02*
X11286848Y-13167222D01*
X11286848Y-13167222D02*
X11286848Y-13271984D01*
X11382086Y-13271984D02*
X11382086Y-13138650D01*
X11382086Y-13157698D02*
X11391610Y-13148174D01*
X11391610Y-13148174D02*
X11410658Y-13138650D01*
X11410658Y-13138650D02*
X11439229Y-13138650D01*
X11439229Y-13138650D02*
X11458277Y-13148174D01*
X11458277Y-13148174D02*
X11467801Y-13167222D01*
X11467801Y-13167222D02*
X11467801Y-13271984D01*
X11467801Y-13167222D02*
X11477324Y-13148174D01*
X11477324Y-13148174D02*
X11496372Y-13138650D01*
X11496372Y-13138650D02*
X11524943Y-13138650D01*
X11524943Y-13138650D02*
X11543991Y-13148174D01*
X11543991Y-13148174D02*
X11553515Y-13167222D01*
X11553515Y-13167222D02*
X11553515Y-13271984D01*
X11943991Y-13062460D02*
X11772563Y-13319603D01*
X12201134Y-13071984D02*
X12220182Y-13071984D01*
X12220182Y-13071984D02*
X12239229Y-13081508D01*
X12239229Y-13081508D02*
X12248753Y-13091031D01*
X12248753Y-13091031D02*
X12258277Y-13110079D01*
X12258277Y-13110079D02*
X12267801Y-13148174D01*
X12267801Y-13148174D02*
X12267801Y-13195793D01*
X12267801Y-13195793D02*
X12258277Y-13233888D01*
X12258277Y-13233888D02*
X12248753Y-13252936D01*
X12248753Y-13252936D02*
X12239229Y-13262460D01*
X12239229Y-13262460D02*
X12220182Y-13271984D01*
X12220182Y-13271984D02*
X12201134Y-13271984D01*
X12201134Y-13271984D02*
X12182086Y-13262460D01*
X12182086Y-13262460D02*
X12172563Y-13252936D01*
X12172563Y-13252936D02*
X12163039Y-13233888D01*
X12163039Y-13233888D02*
X12153515Y-13195793D01*
X12153515Y-13195793D02*
X12153515Y-13148174D01*
X12153515Y-13148174D02*
X12163039Y-13110079D01*
X12163039Y-13110079D02*
X12172563Y-13091031D01*
X12172563Y-13091031D02*
X12182086Y-13081508D01*
X12182086Y-13081508D02*
X12201134Y-13071984D01*
X12353515Y-13252936D02*
X12363039Y-13262460D01*
X12363039Y-13262460D02*
X12353515Y-13271984D01*
X12353515Y-13271984D02*
X12343991Y-13262460D01*
X12343991Y-13262460D02*
X12353515Y-13252936D01*
X12353515Y-13252936D02*
X12353515Y-13271984D01*
X12553515Y-13271984D02*
X12439229Y-13271984D01*
X12496372Y-13271984D02*
X12496372Y-13071984D01*
X12496372Y-13071984D02*
X12477325Y-13100555D01*
X12477325Y-13100555D02*
X12458277Y-13119603D01*
X12458277Y-13119603D02*
X12439229Y-13129127D01*
X12629706Y-13091031D02*
X12639229Y-13081508D01*
X12639229Y-13081508D02*
X12658277Y-13071984D01*
X12658277Y-13071984D02*
X12705896Y-13071984D01*
X12705896Y-13071984D02*
X12724944Y-13081508D01*
X12724944Y-13081508D02*
X12734467Y-13091031D01*
X12734467Y-13091031D02*
X12743991Y-13110079D01*
X12743991Y-13110079D02*
X12743991Y-13129127D01*
X12743991Y-13129127D02*
X12734467Y-13157698D01*
X12734467Y-13157698D02*
X12620182Y-13271984D01*
X12620182Y-13271984D02*
X12743991Y-13271984D01*
X12915420Y-13071984D02*
X12877325Y-13071984D01*
X12877325Y-13071984D02*
X12858277Y-13081508D01*
X12858277Y-13081508D02*
X12848753Y-13091031D01*
X12848753Y-13091031D02*
X12829706Y-13119603D01*
X12829706Y-13119603D02*
X12820182Y-13157698D01*
X12820182Y-13157698D02*
X12820182Y-13233888D01*
X12820182Y-13233888D02*
X12829706Y-13252936D01*
X12829706Y-13252936D02*
X12839229Y-13262460D01*
X12839229Y-13262460D02*
X12858277Y-13271984D01*
X12858277Y-13271984D02*
X12896372Y-13271984D01*
X12896372Y-13271984D02*
X12915420Y-13262460D01*
X12915420Y-13262460D02*
X12924944Y-13252936D01*
X12924944Y-13252936D02*
X12934467Y-13233888D01*
X12934467Y-13233888D02*
X12934467Y-13186269D01*
X12934467Y-13186269D02*
X12924944Y-13167222D01*
X12924944Y-13167222D02*
X12915420Y-13157698D01*
X12915420Y-13157698D02*
X12896372Y-13148174D01*
X12896372Y-13148174D02*
X12858277Y-13148174D01*
X12858277Y-13148174D02*
X12839229Y-13157698D01*
X12839229Y-13157698D02*
X12829706Y-13167222D01*
X12829706Y-13167222D02*
X12820182Y-13186269D01*
X13058277Y-13071984D02*
X13077325Y-13071984D01*
X13077325Y-13071984D02*
X13096372Y-13081508D01*
X13096372Y-13081508D02*
X13105896Y-13091031D01*
X13105896Y-13091031D02*
X13115420Y-13110079D01*
X13115420Y-13110079D02*
X13124944Y-13148174D01*
X13124944Y-13148174D02*
X13124944Y-13195793D01*
X13124944Y-13195793D02*
X13115420Y-13233888D01*
X13115420Y-13233888D02*
X13105896Y-13252936D01*
X13105896Y-13252936D02*
X13096372Y-13262460D01*
X13096372Y-13262460D02*
X13077325Y-13271984D01*
X13077325Y-13271984D02*
X13058277Y-13271984D01*
X13058277Y-13271984D02*
X13039229Y-13262460D01*
X13039229Y-13262460D02*
X13029706Y-13252936D01*
X13029706Y-13252936D02*
X13020182Y-13233888D01*
X13020182Y-13233888D02*
X13010658Y-13195793D01*
X13010658Y-13195793D02*
X13010658Y-13148174D01*
X13010658Y-13148174D02*
X13020182Y-13110079D01*
X13020182Y-13110079D02*
X13029706Y-13091031D01*
X13029706Y-13091031D02*
X13039229Y-13081508D01*
X13039229Y-13081508D02*
X13058277Y-13071984D01*
X13201134Y-13071984D02*
X13201134Y-13110079D01*
X13277325Y-13071984D02*
X13277325Y-13110079D01*
X13572563Y-13348174D02*
X13563039Y-13338650D01*
X13563039Y-13338650D02*
X13543991Y-13310079D01*
X13543991Y-13310079D02*
X13534468Y-13291031D01*
X13534468Y-13291031D02*
X13524944Y-13262460D01*
X13524944Y-13262460D02*
X13515420Y-13214841D01*
X13515420Y-13214841D02*
X13515420Y-13176746D01*
X13515420Y-13176746D02*
X13524944Y-13129127D01*
X13524944Y-13129127D02*
X13534468Y-13100555D01*
X13534468Y-13100555D02*
X13543991Y-13081508D01*
X13543991Y-13081508D02*
X13563039Y-13052936D01*
X13563039Y-13052936D02*
X13572563Y-13043412D01*
X13753515Y-13271984D02*
X13639229Y-13271984D01*
X13696372Y-13271984D02*
X13696372Y-13071984D01*
X13696372Y-13071984D02*
X13677325Y-13100555D01*
X13677325Y-13100555D02*
X13658277Y-13119603D01*
X13658277Y-13119603D02*
X13639229Y-13129127D01*
X13991610Y-13271984D02*
X13991610Y-13071984D01*
X14077325Y-13271984D02*
X14077325Y-13167222D01*
X14077325Y-13167222D02*
X14067801Y-13148174D01*
X14067801Y-13148174D02*
X14048753Y-13138650D01*
X14048753Y-13138650D02*
X14020182Y-13138650D01*
X14020182Y-13138650D02*
X14001134Y-13148174D01*
X14001134Y-13148174D02*
X13991610Y-13157698D01*
X14201134Y-13271984D02*
X14182087Y-13262460D01*
X14182087Y-13262460D02*
X14172563Y-13252936D01*
X14172563Y-13252936D02*
X14163039Y-13233888D01*
X14163039Y-13233888D02*
X14163039Y-13176746D01*
X14163039Y-13176746D02*
X14172563Y-13157698D01*
X14172563Y-13157698D02*
X14182087Y-13148174D01*
X14182087Y-13148174D02*
X14201134Y-13138650D01*
X14201134Y-13138650D02*
X14229706Y-13138650D01*
X14229706Y-13138650D02*
X14248753Y-13148174D01*
X14248753Y-13148174D02*
X14258277Y-13157698D01*
X14258277Y-13157698D02*
X14267801Y-13176746D01*
X14267801Y-13176746D02*
X14267801Y-13233888D01*
X14267801Y-13233888D02*
X14258277Y-13252936D01*
X14258277Y-13252936D02*
X14248753Y-13262460D01*
X14248753Y-13262460D02*
X14229706Y-13271984D01*
X14229706Y-13271984D02*
X14201134Y-13271984D01*
X14382087Y-13271984D02*
X14363039Y-13262460D01*
X14363039Y-13262460D02*
X14353515Y-13243412D01*
X14353515Y-13243412D02*
X14353515Y-13071984D01*
X14534468Y-13262460D02*
X14515420Y-13271984D01*
X14515420Y-13271984D02*
X14477325Y-13271984D01*
X14477325Y-13271984D02*
X14458277Y-13262460D01*
X14458277Y-13262460D02*
X14448753Y-13243412D01*
X14448753Y-13243412D02*
X14448753Y-13167222D01*
X14448753Y-13167222D02*
X14458277Y-13148174D01*
X14458277Y-13148174D02*
X14477325Y-13138650D01*
X14477325Y-13138650D02*
X14515420Y-13138650D01*
X14515420Y-13138650D02*
X14534468Y-13148174D01*
X14534468Y-13148174D02*
X14543991Y-13167222D01*
X14543991Y-13167222D02*
X14543991Y-13186269D01*
X14543991Y-13186269D02*
X14448753Y-13205317D01*
X14610658Y-13348174D02*
X14620182Y-13338650D01*
X14620182Y-13338650D02*
X14639230Y-13310079D01*
X14639230Y-13310079D02*
X14648753Y-13291031D01*
X14648753Y-13291031D02*
X14658277Y-13262460D01*
X14658277Y-13262460D02*
X14667801Y-13214841D01*
X14667801Y-13214841D02*
X14667801Y-13176746D01*
X14667801Y-13176746D02*
X14658277Y-13129127D01*
X14658277Y-13129127D02*
X14648753Y-13100555D01*
X14648753Y-13100555D02*
X14639230Y-13081508D01*
X14639230Y-13081508D02*
X14620182Y-13052936D01*
X14620182Y-13052936D02*
X14610658Y-13043412D01*
X14972563Y-13348174D02*
X14963039Y-13338650D01*
X14963039Y-13338650D02*
X14943991Y-13310079D01*
X14943991Y-13310079D02*
X14934468Y-13291031D01*
X14934468Y-13291031D02*
X14924944Y-13262460D01*
X14924944Y-13262460D02*
X14915420Y-13214841D01*
X14915420Y-13214841D02*
X14915420Y-13176746D01*
X14915420Y-13176746D02*
X14924944Y-13129127D01*
X14924944Y-13129127D02*
X14934468Y-13100555D01*
X14934468Y-13100555D02*
X14943991Y-13081508D01*
X14943991Y-13081508D02*
X14963039Y-13052936D01*
X14963039Y-13052936D02*
X14972563Y-13043412D01*
X15048753Y-13138650D02*
X15048753Y-13271984D01*
X15048753Y-13157698D02*
X15058277Y-13148174D01*
X15058277Y-13148174D02*
X15077325Y-13138650D01*
X15077325Y-13138650D02*
X15105896Y-13138650D01*
X15105896Y-13138650D02*
X15124944Y-13148174D01*
X15124944Y-13148174D02*
X15134468Y-13167222D01*
X15134468Y-13167222D02*
X15134468Y-13271984D01*
X15258277Y-13271984D02*
X15239230Y-13262460D01*
X15239230Y-13262460D02*
X15229706Y-13252936D01*
X15229706Y-13252936D02*
X15220182Y-13233888D01*
X15220182Y-13233888D02*
X15220182Y-13176746D01*
X15220182Y-13176746D02*
X15229706Y-13157698D01*
X15229706Y-13157698D02*
X15239230Y-13148174D01*
X15239230Y-13148174D02*
X15258277Y-13138650D01*
X15258277Y-13138650D02*
X15286849Y-13138650D01*
X15286849Y-13138650D02*
X15305896Y-13148174D01*
X15305896Y-13148174D02*
X15315420Y-13157698D01*
X15315420Y-13157698D02*
X15324944Y-13176746D01*
X15324944Y-13176746D02*
X15324944Y-13233888D01*
X15324944Y-13233888D02*
X15315420Y-13252936D01*
X15315420Y-13252936D02*
X15305896Y-13262460D01*
X15305896Y-13262460D02*
X15286849Y-13271984D01*
X15286849Y-13271984D02*
X15258277Y-13271984D01*
X15382087Y-13138650D02*
X15458277Y-13138650D01*
X15410658Y-13071984D02*
X15410658Y-13243412D01*
X15410658Y-13243412D02*
X15420182Y-13262460D01*
X15420182Y-13262460D02*
X15439230Y-13271984D01*
X15439230Y-13271984D02*
X15458277Y-13271984D01*
X15677325Y-13138650D02*
X15677325Y-13338650D01*
X15677325Y-13148174D02*
X15696372Y-13138650D01*
X15696372Y-13138650D02*
X15734468Y-13138650D01*
X15734468Y-13138650D02*
X15753515Y-13148174D01*
X15753515Y-13148174D02*
X15763039Y-13157698D01*
X15763039Y-13157698D02*
X15772563Y-13176746D01*
X15772563Y-13176746D02*
X15772563Y-13233888D01*
X15772563Y-13233888D02*
X15763039Y-13252936D01*
X15763039Y-13252936D02*
X15753515Y-13262460D01*
X15753515Y-13262460D02*
X15734468Y-13271984D01*
X15734468Y-13271984D02*
X15696372Y-13271984D01*
X15696372Y-13271984D02*
X15677325Y-13262460D01*
X15886849Y-13271984D02*
X15867801Y-13262460D01*
X15867801Y-13262460D02*
X15858277Y-13243412D01*
X15858277Y-13243412D02*
X15858277Y-13071984D01*
X16048753Y-13271984D02*
X16048753Y-13167222D01*
X16048753Y-13167222D02*
X16039230Y-13148174D01*
X16039230Y-13148174D02*
X16020182Y-13138650D01*
X16020182Y-13138650D02*
X15982087Y-13138650D01*
X15982087Y-13138650D02*
X15963039Y-13148174D01*
X16048753Y-13262460D02*
X16029706Y-13271984D01*
X16029706Y-13271984D02*
X15982087Y-13271984D01*
X15982087Y-13271984D02*
X15963039Y-13262460D01*
X15963039Y-13262460D02*
X15953515Y-13243412D01*
X15953515Y-13243412D02*
X15953515Y-13224365D01*
X15953515Y-13224365D02*
X15963039Y-13205317D01*
X15963039Y-13205317D02*
X15982087Y-13195793D01*
X15982087Y-13195793D02*
X16029706Y-13195793D01*
X16029706Y-13195793D02*
X16048753Y-13186269D01*
X16115420Y-13138650D02*
X16191611Y-13138650D01*
X16143992Y-13071984D02*
X16143992Y-13243412D01*
X16143992Y-13243412D02*
X16153515Y-13262460D01*
X16153515Y-13262460D02*
X16172563Y-13271984D01*
X16172563Y-13271984D02*
X16191611Y-13271984D01*
X16334468Y-13262460D02*
X16315420Y-13271984D01*
X16315420Y-13271984D02*
X16277325Y-13271984D01*
X16277325Y-13271984D02*
X16258277Y-13262460D01*
X16258277Y-13262460D02*
X16248753Y-13243412D01*
X16248753Y-13243412D02*
X16248753Y-13167222D01*
X16248753Y-13167222D02*
X16258277Y-13148174D01*
X16258277Y-13148174D02*
X16277325Y-13138650D01*
X16277325Y-13138650D02*
X16315420Y-13138650D01*
X16315420Y-13138650D02*
X16334468Y-13148174D01*
X16334468Y-13148174D02*
X16343992Y-13167222D01*
X16343992Y-13167222D02*
X16343992Y-13186269D01*
X16343992Y-13186269D02*
X16248753Y-13205317D01*
X16515420Y-13271984D02*
X16515420Y-13071984D01*
X16515420Y-13262460D02*
X16496373Y-13271984D01*
X16496373Y-13271984D02*
X16458277Y-13271984D01*
X16458277Y-13271984D02*
X16439230Y-13262460D01*
X16439230Y-13262460D02*
X16429706Y-13252936D01*
X16429706Y-13252936D02*
X16420182Y-13233888D01*
X16420182Y-13233888D02*
X16420182Y-13176746D01*
X16420182Y-13176746D02*
X16429706Y-13157698D01*
X16429706Y-13157698D02*
X16439230Y-13148174D01*
X16439230Y-13148174D02*
X16458277Y-13138650D01*
X16458277Y-13138650D02*
X16496373Y-13138650D01*
X16496373Y-13138650D02*
X16515420Y-13148174D01*
X16591611Y-13348174D02*
X16601134Y-13338650D01*
X16601134Y-13338650D02*
X16620182Y-13310079D01*
X16620182Y-13310079D02*
X16629706Y-13291031D01*
X16629706Y-13291031D02*
X16639230Y-13262460D01*
X16639230Y-13262460D02*
X16648753Y-13214841D01*
X16648753Y-13214841D02*
X16648753Y-13176746D01*
X16648753Y-13176746D02*
X16639230Y-13129127D01*
X16639230Y-13129127D02*
X16629706Y-13100555D01*
X16629706Y-13100555D02*
X16620182Y-13081508D01*
X16620182Y-13081508D02*
X16601134Y-13052936D01*
X16601134Y-13052936D02*
X16591611Y-13043412D01*
M02*
