%TF.GenerationSoftware,KiCad,Pcbnew,9.0.2+1*%
%TF.CreationDate,2025-08-16T02:22:31+01:00*%
%TF.ProjectId,OBC,4f42432e-6b69-4636-9164-5f7063625858,rev?*%
%TF.SameCoordinates,Original*%
%TF.FileFunction,Soldermask,Bot*%
%TF.FilePolarity,Negative*%
%FSLAX45Y45*%
G04 Gerber Fmt 4.5, Leading zero omitted, Abs format (unit mm)*
G04 Created by KiCad (PCBNEW 9.0.2+1) date 2025-08-16 02:22:31*
%MOMM*%
%LPD*%
G01*
G04 APERTURE LIST*
G04 Aperture macros list*
%AMRoundRect*
0 Rectangle with rounded corners*
0 $1 Rounding radius*
0 $2 $3 $4 $5 $6 $7 $8 $9 X,Y pos of 4 corners*
0 Add a 4 corners polygon primitive as box body*
4,1,4,$2,$3,$4,$5,$6,$7,$8,$9,$2,$3,0*
0 Add four circle primitives for the rounded corners*
1,1,$1+$1,$2,$3*
1,1,$1+$1,$4,$5*
1,1,$1+$1,$6,$7*
1,1,$1+$1,$8,$9*
0 Add four rect primitives between the rounded corners*
20,1,$1+$1,$2,$3,$4,$5,0*
20,1,$1+$1,$4,$5,$6,$7,0*
20,1,$1+$1,$6,$7,$8,$9,0*
20,1,$1+$1,$8,$9,$2,$3,0*%
G04 Aperture macros list end*
%ADD10C,0.731600*%
%ADD11C,0.701600*%
%ADD12O,1.310400X2.468400*%
%ADD13O,1.352400X2.552400*%
%ADD14C,3.301600*%
%ADD15RoundRect,0.050800X1.050000X-1.050000X1.050000X1.050000X-1.050000X1.050000X-1.050000X-1.050000X0*%
%ADD16C,2.501600*%
%ADD17C,5.801600*%
%ADD18C,1.803400*%
G04 APERTURE END LIST*
D10*
%TO.C,J6*%
X16447342Y-9016250D03*
D11*
X15847342Y-9016250D03*
D12*
X16579342Y-9088750D03*
X15715342Y-9088750D03*
D13*
X16579342Y-8706250D03*
X15715342Y-8706250D03*
%TD*%
D14*
%TO.C,H1*%
X12180000Y-12410000D03*
%TD*%
D15*
%TO.C,J4*%
X10640000Y-10490000D03*
D16*
X10897500Y-10747500D03*
X10897500Y-10232500D03*
X10382500Y-10232500D03*
X10382500Y-10747500D03*
%TD*%
D17*
%TO.C,H2*%
X19380000Y-8110000D03*
%TD*%
%TO.C,H3*%
X19380000Y-12410000D03*
%TD*%
D18*
%TO.C,J1*%
X14230000Y-8890000D03*
X13976000Y-8890000D03*
X13722000Y-8890000D03*
X13468000Y-8890000D03*
X13214000Y-8890000D03*
X12960000Y-8890000D03*
%TD*%
G36*
X14238721Y-9461969D02*
G01*
X14243297Y-9467249D01*
X14244417Y-9472400D01*
X14244417Y-9697600D01*
X14242449Y-9704304D01*
X14237169Y-9708879D01*
X14232017Y-9710000D01*
X14079817Y-9710000D01*
X14073114Y-9708032D01*
X14068538Y-9702751D01*
X14067417Y-9697600D01*
X14067417Y-9472400D01*
X14069386Y-9465696D01*
X14074666Y-9461121D01*
X14079817Y-9460000D01*
X14232017Y-9460000D01*
X14238721Y-9461969D01*
G37*
G36*
X12943048Y-10397710D02*
G01*
X12947623Y-10402990D01*
X12948744Y-10408142D01*
X12948744Y-10648342D01*
X12946775Y-10655045D01*
X12941495Y-10659621D01*
X12936344Y-10660742D01*
X12697144Y-10660742D01*
X12690440Y-10658773D01*
X12685865Y-10653493D01*
X12684744Y-10648342D01*
X12684744Y-10408142D01*
X12686712Y-10401438D01*
X12691993Y-10396862D01*
X12697144Y-10395742D01*
X12936344Y-10395742D01*
X12943048Y-10397710D01*
G37*
G36*
X14908333Y-10039918D02*
G01*
X14912768Y-10042768D01*
X15121232Y-10251232D01*
X15124580Y-10257364D01*
X15124082Y-10264333D01*
X15121232Y-10268768D01*
X14912768Y-10477232D01*
X14906636Y-10480580D01*
X14899667Y-10480082D01*
X14895232Y-10477232D01*
X14686768Y-10268768D01*
X14683420Y-10262636D01*
X14683918Y-10255667D01*
X14686768Y-10251232D01*
X14895232Y-10042768D01*
X14901364Y-10039420D01*
X14908333Y-10039918D01*
G37*
G36*
X11930721Y-10389818D02*
G01*
X11935297Y-10395099D01*
X11936417Y-10400250D01*
X11936417Y-10639450D01*
X11934449Y-10646154D01*
X11929168Y-10650729D01*
X11924017Y-10651850D01*
X11684817Y-10651850D01*
X11678113Y-10649881D01*
X11673538Y-10644601D01*
X11672417Y-10639450D01*
X11672417Y-10400250D01*
X11674386Y-10393546D01*
X11679666Y-10388971D01*
X11684817Y-10387850D01*
X11924017Y-10387850D01*
X11930721Y-10389818D01*
G37*
M02*
