%TF.GenerationSoftware,KiCad,Pcbnew,9.0.2+1*%
%TF.CreationDate,2025-07-24T16:09:40+01:00*%
%TF.ProjectId,OBC,4f42432e-6b69-4636-9164-5f7063625858,rev?*%
%TF.SameCoordinates,Original*%
%TF.FileFunction,Plated,1,4,PTH,Mixed*%
%TF.FilePolarity,Positive*%
%FSLAX46Y46*%
G04 Gerber Fmt 4.6, Leading zero omitted, Abs format (unit mm)*
G04 Created by KiCad (PCBNEW 9.0.2+1) date 2025-07-24 16:09:40*
%MOMM*%
%LPD*%
G01*
G04 APERTURE LIST*
%TA.AperFunction,ViaDrill*%
%ADD10C,0.200000*%
%TD*%
%TA.AperFunction,ViaDrill*%
%ADD11C,0.250000*%
%TD*%
%TA.AperFunction,ViaDrill*%
%ADD12C,0.300000*%
%TD*%
G04 aperture for slot hole*
%TA.AperFunction,ComponentDrill*%
%ADD13C,0.650000*%
%TD*%
%TA.AperFunction,ComponentDrill*%
%ADD14C,1.193800*%
%TD*%
%TA.AperFunction,ComponentDrill*%
%ADD15C,1.400000*%
%TD*%
%TA.AperFunction,ComponentDrill*%
%ADD16C,1.600000*%
%TD*%
%TA.AperFunction,ComponentDrill*%
%ADD17C,3.200000*%
%TD*%
G04 APERTURE END LIST*
D10*
X101825126Y-114474874D03*
X101850000Y-86943466D03*
X101931192Y-113237437D03*
X103062563Y-113237437D03*
X103168629Y-112000000D03*
X103400000Y-115250000D03*
X103400000Y-117000000D03*
X104200000Y-114450000D03*
X104200000Y-116200000D03*
X104200000Y-117950000D03*
X104300000Y-112000000D03*
X104450000Y-86100000D03*
X106050000Y-112000000D03*
X106100000Y-114450000D03*
X106100000Y-116200000D03*
X106100000Y-117950000D03*
X106900000Y-115400000D03*
X106900000Y-117150000D03*
X107181371Y-112000000D03*
X107287437Y-113237437D03*
X108418808Y-113237437D03*
X108524874Y-114474874D03*
X108850000Y-86943466D03*
X109800000Y-95500000D03*
X109900000Y-98950000D03*
X109900000Y-110975000D03*
X109950000Y-114400000D03*
X110600000Y-86943466D03*
X111450000Y-86100000D03*
X111550000Y-115900000D03*
X111550000Y-119450000D03*
X111565647Y-93900000D03*
X112350000Y-86943466D03*
X112406334Y-103746997D03*
X113200000Y-86100000D03*
X113250000Y-90850000D03*
X113300000Y-119450000D03*
X114100000Y-86943466D03*
X114200000Y-90050000D03*
X114950000Y-86100000D03*
X115000000Y-90850000D03*
X115023081Y-110966206D03*
X115050000Y-119450000D03*
X115774175Y-110740000D03*
X115850000Y-86943466D03*
X115881173Y-109018499D03*
X115950000Y-90050000D03*
X116700000Y-86100000D03*
X116750000Y-90850000D03*
X116800000Y-119450000D03*
X117073861Y-104217524D03*
X117073861Y-105186239D03*
X117073861Y-106154955D03*
X117600000Y-86950000D03*
X118049017Y-104217524D03*
X118049017Y-105186239D03*
X118049017Y-106154955D03*
X118450000Y-86100000D03*
X118550000Y-119450000D03*
X119024171Y-105186239D03*
X119024172Y-104217524D03*
X119024172Y-106154955D03*
X119074175Y-102390000D03*
X119300000Y-101650000D03*
X119350000Y-86950000D03*
X120200000Y-86100000D03*
X120300000Y-119450000D03*
X120650000Y-100550000D03*
X121115264Y-101181089D03*
X121950000Y-86100000D03*
X122000000Y-110500000D03*
X122050000Y-119450000D03*
X122300000Y-90850000D03*
X122724175Y-110240000D03*
X123250000Y-90050000D03*
X123700000Y-86100000D03*
X123800000Y-119450000D03*
X124050000Y-90850000D03*
X124050000Y-94000000D03*
X124050000Y-115850000D03*
X124300000Y-104350000D03*
X124680859Y-108833239D03*
X124680859Y-110083239D03*
X124724175Y-99340000D03*
X124766013Y-98551408D03*
X125000000Y-90050000D03*
X125550000Y-119450000D03*
X125800000Y-90850000D03*
X126564234Y-108864234D03*
X126804983Y-109598909D03*
X127192286Y-104313698D03*
X127192286Y-105282415D03*
X127192286Y-106251130D03*
X127300000Y-119450000D03*
X127574175Y-99340000D03*
X127652726Y-100818616D03*
X127767669Y-100077473D03*
X127838637Y-113005000D03*
X127885363Y-101671204D03*
X127920364Y-102390000D03*
X128150000Y-98800000D03*
X128167440Y-104313698D03*
X128167441Y-105282415D03*
X128167441Y-106251130D03*
X128424175Y-112490000D03*
X128634175Y-98100000D03*
X128724175Y-99840000D03*
X128724175Y-102276826D03*
X129050000Y-119450000D03*
X129142596Y-105282415D03*
X129142596Y-106251129D03*
X129142597Y-104313699D03*
X129221173Y-98615000D03*
X130686926Y-103552751D03*
X130800000Y-119450000D03*
X131151518Y-98200000D03*
X131424175Y-97490000D03*
X131524175Y-106490000D03*
X131624175Y-103490000D03*
X132324175Y-105748238D03*
X132550000Y-117500000D03*
X132550000Y-119450000D03*
X132624175Y-103358503D03*
X133160015Y-108725840D03*
X133500000Y-116700000D03*
X133564175Y-104400000D03*
X133713335Y-101550840D03*
X134300000Y-117500000D03*
X134300000Y-119450000D03*
X135250000Y-116700000D03*
X135500000Y-92950000D03*
X136050000Y-117500000D03*
X136050000Y-119450000D03*
X136150000Y-91650000D03*
X136564175Y-93000000D03*
X137116804Y-107997560D03*
X137217759Y-108756125D03*
X138750000Y-91650000D03*
X138800000Y-119500000D03*
X139016756Y-106602112D03*
X139080443Y-109979409D03*
X139336094Y-94220303D03*
X139438871Y-92855636D03*
X139465748Y-91874069D03*
X140270148Y-108789704D03*
X140340000Y-111500000D03*
X140550000Y-119500000D03*
X141064175Y-95000000D03*
X141064175Y-95875000D03*
X141064175Y-96750000D03*
X141260000Y-101940000D03*
X141459853Y-107599999D03*
X141644175Y-91585199D03*
X141644175Y-92785199D03*
X141850295Y-112789705D03*
X142014175Y-95000000D03*
X142014175Y-95875000D03*
X142014175Y-96750000D03*
X142200000Y-119500000D03*
X142570000Y-107420000D03*
X142760000Y-103190000D03*
X142810000Y-100190000D03*
X142897413Y-105033238D03*
X142910000Y-106690000D03*
X143010000Y-101790000D03*
X143040000Y-111600000D03*
X143460000Y-108290000D03*
X143600000Y-93150000D03*
X143904112Y-99204112D03*
X143950000Y-119500000D03*
X144100000Y-90300000D03*
X144229705Y-110410295D03*
X144259999Y-109089999D03*
X144740000Y-108000000D03*
X145066174Y-92243572D03*
X145137942Y-89376593D03*
X145164175Y-91500000D03*
X145200000Y-85750000D03*
X145740001Y-113778400D03*
X145873335Y-96180840D03*
X146010000Y-109240000D03*
X146480000Y-103750000D03*
X147010295Y-100851964D03*
X147230001Y-113578400D03*
X147264175Y-94700000D03*
X147340000Y-102600000D03*
X147450000Y-119500000D03*
X147744477Y-92837232D03*
X147750000Y-100450000D03*
X147860000Y-104990000D03*
X148060000Y-108790000D03*
X148140000Y-92200000D03*
X148140000Y-103500000D03*
X148190000Y-101750000D03*
X148440000Y-99700000D03*
X148584124Y-91595638D03*
X148600000Y-105650000D03*
X148858497Y-96679936D03*
X149036610Y-98000000D03*
X149040000Y-100900000D03*
X149040000Y-102600000D03*
X149040000Y-104300000D03*
X149142057Y-112599699D03*
X149169288Y-90702973D03*
X149200000Y-119500000D03*
X149460541Y-95095481D03*
X149480000Y-99420000D03*
X149540000Y-105650000D03*
X149608231Y-96700000D03*
X149740000Y-109650000D03*
X149890000Y-101750000D03*
X149890000Y-103450000D03*
X149985000Y-100100000D03*
X150192927Y-95257073D03*
X150340000Y-109150000D03*
X150400084Y-112599699D03*
X150460000Y-104690000D03*
X150485149Y-92135149D03*
X150510000Y-100700000D03*
X150740000Y-102600000D03*
X150958275Y-104129441D03*
X151270000Y-101440000D03*
X151490155Y-93184612D03*
X151560369Y-103681915D03*
X151610000Y-90990000D03*
X151634993Y-97064160D03*
X151664175Y-96300000D03*
X151790000Y-89150000D03*
X151843752Y-101937688D03*
X152168686Y-102625000D03*
X152264175Y-93000000D03*
X152310000Y-105590000D03*
X152720000Y-111780000D03*
X152892393Y-97900000D03*
X152940000Y-107900000D03*
X153110000Y-110290000D03*
X153600000Y-103960000D03*
X153634888Y-98619199D03*
X153880000Y-109480000D03*
X153960000Y-111130000D03*
X154064175Y-114000000D03*
X154450000Y-119500000D03*
X154600000Y-90000000D03*
X154645043Y-99680868D03*
X154775000Y-110374999D03*
X155036627Y-114918248D03*
X155410182Y-100381343D03*
X155483227Y-104646773D03*
X155550000Y-108800000D03*
X155690000Y-114550000D03*
X155891195Y-111308805D03*
X156200000Y-119500000D03*
X156641737Y-106861889D03*
X156690000Y-117950000D03*
X156814175Y-94900000D03*
X156840662Y-104066288D03*
X156910000Y-112540000D03*
X157164175Y-107400000D03*
X157250000Y-103350000D03*
X157360888Y-110099112D03*
X157950000Y-119500000D03*
X158000000Y-107400000D03*
X158096455Y-101125146D03*
X158150000Y-108150000D03*
X158180433Y-105673147D03*
X158373425Y-92190750D03*
X158550000Y-87400000D03*
X158664175Y-105100000D03*
X158919175Y-95275000D03*
X159110000Y-114240000D03*
X159364175Y-109000000D03*
X159410000Y-116460000D03*
X159500000Y-110000000D03*
X159700000Y-119500000D03*
X160500000Y-103750000D03*
X160748704Y-110541292D03*
X160984175Y-92390000D03*
X161260000Y-111090000D03*
X161450000Y-119500000D03*
X161500000Y-87400000D03*
X161974175Y-93400000D03*
X161974175Y-96150000D03*
X162684175Y-92390000D03*
X163200000Y-119500000D03*
X163944933Y-98241424D03*
X164300000Y-87400000D03*
X164475265Y-97711092D03*
X164572839Y-92817340D03*
X164766804Y-112547560D03*
X164948175Y-93466189D03*
X164950000Y-119500000D03*
X165651097Y-98725996D03*
X165964175Y-95900000D03*
X166064175Y-98100000D03*
X166556174Y-100906501D03*
X166564175Y-99019501D03*
X166700000Y-119500000D03*
X167000000Y-90250000D03*
X167050000Y-94550000D03*
X167500000Y-100750000D03*
X168250000Y-119500000D03*
X168350000Y-97150000D03*
X169200000Y-88850000D03*
X169250000Y-103750000D03*
X170000000Y-119500000D03*
X171362559Y-100710774D03*
X171423782Y-107547560D03*
X171750000Y-119500000D03*
X171950000Y-101300000D03*
X172466804Y-98797371D03*
X173500000Y-119500000D03*
X174750000Y-88515000D03*
X175000000Y-97250000D03*
X175250000Y-119500000D03*
X175264175Y-112550000D03*
X175750000Y-104200000D03*
X175764175Y-106100000D03*
X175766804Y-107347560D03*
X176000000Y-99725000D03*
X176064175Y-93600000D03*
X176100000Y-88515000D03*
X176114175Y-91050000D03*
X176114175Y-94850000D03*
X176114175Y-96150000D03*
X176166804Y-109347560D03*
X177000000Y-119500000D03*
X177250000Y-108250000D03*
X178750000Y-119500000D03*
X180500000Y-119500000D03*
X181500000Y-116850000D03*
X182182932Y-115700000D03*
X182250000Y-119500000D03*
X183250000Y-116850000D03*
X183932932Y-115700000D03*
X184000000Y-119500000D03*
X185000000Y-116850000D03*
X185682932Y-115700000D03*
X185750000Y-88500000D03*
X185750000Y-119500000D03*
X186950000Y-97050000D03*
X187000000Y-86400000D03*
X187500000Y-119500000D03*
X187966804Y-104810000D03*
X188060186Y-106073989D03*
X188064175Y-92300000D03*
X188064175Y-93600000D03*
X188064175Y-94850000D03*
X188064175Y-96100000D03*
X188066804Y-107360000D03*
X188074175Y-99725000D03*
X188074175Y-101010000D03*
X188564175Y-87250000D03*
X189120000Y-109590000D03*
X189250000Y-119500000D03*
X189916804Y-99747560D03*
X189916804Y-101147560D03*
X190384175Y-87100000D03*
X190862563Y-100372728D03*
X190887736Y-108788375D03*
X191000000Y-119500000D03*
X191300000Y-96250000D03*
X191300000Y-98000000D03*
X191687736Y-109588375D03*
X191725000Y-88225000D03*
X192100000Y-95450000D03*
X192100000Y-97200000D03*
X192250000Y-90700000D03*
X192250000Y-92450000D03*
X192250000Y-94200000D03*
X192750000Y-119500000D03*
X192950000Y-102900000D03*
X194250000Y-108700000D03*
X194550000Y-102895060D03*
X195050000Y-109500000D03*
X196324430Y-95472563D03*
X196324430Y-97222563D03*
X196787736Y-111519994D03*
X196800000Y-109500000D03*
X197124430Y-96422563D03*
X197124430Y-98172563D03*
X197600000Y-110631619D03*
X197750000Y-108900000D03*
X198000000Y-102900000D03*
X200175000Y-107300000D03*
X200950000Y-102900000D03*
X201800000Y-99000000D03*
X202050000Y-88300000D03*
X202100000Y-116900000D03*
X202450000Y-86500000D03*
X202450000Y-115150000D03*
X202450000Y-118650000D03*
X203100000Y-88300000D03*
X203100000Y-116900000D03*
X203350000Y-89750000D03*
X203350000Y-115500000D03*
X203400000Y-86900000D03*
X203400000Y-91700000D03*
X203400000Y-118300000D03*
X204150000Y-119500000D03*
X204200000Y-85700000D03*
X204200000Y-114300000D03*
X204300000Y-90825000D03*
X205400000Y-91750000D03*
X205400000Y-113450000D03*
X206800000Y-92000000D03*
X206800000Y-93100000D03*
X206800000Y-112200000D03*
X206800000Y-113200000D03*
X208200000Y-91700000D03*
X208200000Y-113500000D03*
X208600000Y-92700000D03*
X208600000Y-112550000D03*
X209400000Y-90950000D03*
X209400000Y-114300000D03*
D11*
X130624813Y-102801691D03*
X131333890Y-107215462D03*
X131524175Y-105590000D03*
X133117466Y-107977045D03*
X134434886Y-101243771D03*
X137660000Y-112190000D03*
X137666371Y-111440025D03*
X139460000Y-113290000D03*
X139771832Y-106671491D03*
X141997989Y-102073691D03*
X142101898Y-105621800D03*
X142245505Y-99675000D03*
X143600000Y-103705000D03*
X143653122Y-102205000D03*
X145240021Y-88579936D03*
X145863933Y-99324697D03*
X148000000Y-87435000D03*
X152400000Y-87600000D03*
X153390000Y-112250000D03*
X156364175Y-97190418D03*
X156364175Y-97985418D03*
X160234175Y-94790000D03*
X161855000Y-116900000D03*
X162930000Y-116675000D03*
X163355000Y-115800000D03*
X163734175Y-94965825D03*
X163800000Y-109600000D03*
X166300000Y-109600000D03*
X167260000Y-117890000D03*
X169300000Y-111400000D03*
X169760000Y-117890000D03*
X170200000Y-114500000D03*
X171800000Y-111400000D03*
X172248782Y-108279538D03*
X172700000Y-114500000D03*
D12*
X101550000Y-102620000D03*
X101550000Y-105620000D03*
X101550000Y-108620000D03*
X102020000Y-100080000D03*
X103430000Y-109740000D03*
X105020000Y-100080000D03*
X106430000Y-109740000D03*
X108020000Y-100090000D03*
X109430000Y-109740000D03*
X111016804Y-96997560D03*
X111024175Y-112938425D03*
X111024364Y-100005151D03*
X112016748Y-94947560D03*
X112016804Y-114947560D03*
X115016804Y-94947560D03*
X115016804Y-114947560D03*
X118016804Y-114947560D03*
X118024395Y-94940000D03*
X121016804Y-114947560D03*
X121025370Y-94940000D03*
X124016804Y-114947560D03*
X124023888Y-94940000D03*
X127016804Y-114947560D03*
X127023944Y-94940000D03*
X130016804Y-114947560D03*
X130023381Y-94940000D03*
X133016804Y-114947560D03*
X133024175Y-94940000D03*
X136016804Y-94947560D03*
X136016804Y-97947560D03*
X136016804Y-100947560D03*
X136024175Y-108940986D03*
X136024175Y-111940000D03*
X136024175Y-114940000D03*
X138914175Y-94900000D03*
X145364175Y-98700000D03*
X145964175Y-97000000D03*
X153060000Y-117290000D03*
X158164175Y-101990000D03*
X164866804Y-103750000D03*
X165766804Y-103750000D03*
X172270000Y-117900000D03*
X189666804Y-115714227D03*
X189666804Y-117380894D03*
X189666804Y-118214227D03*
X190566804Y-115714227D03*
X190566804Y-117380894D03*
X190566804Y-118214227D03*
X198766804Y-117480894D03*
X198766804Y-118314227D03*
X199666804Y-116647560D03*
X199666804Y-117480894D03*
X199666804Y-118314227D03*
D13*
%TO.C,J6*%
X157153425Y-86412500D02*
X157153425Y-87712500D01*
X157153425Y-90387500D02*
X157153425Y-91387500D01*
X165793425Y-86412500D02*
X165793425Y-87712500D01*
X165793425Y-90387500D02*
X165793425Y-91387500D01*
D14*
%TO.C,J1*%
X129600000Y-88900000D03*
X132140000Y-88900000D03*
X134680000Y-88900000D03*
X137220000Y-88900000D03*
X139760000Y-88900000D03*
X142300000Y-88900000D03*
D15*
%TO.C,J4*%
X106400000Y-104900000D03*
D16*
X103825000Y-102325000D03*
X103825000Y-107475000D03*
X108975000Y-102325000D03*
X108975000Y-107475000D03*
D17*
%TO.C,H2*%
X206800000Y-88300000D03*
%TO.C,H3*%
X206800000Y-116900000D03*
M02*
